<?xml version="1.0" encoding="UTF-8" standalone="no"?>
<!DOCTYPE svg PUBLIC "-//W3C//DTD SVG 1.1//EN"
 "http://www.w3.org/Graphics/SVG/1.1/DTD/svg11.dtd">
<!-- Generated by graphviz version 7.0.5 (20221223.1930)
 -->
<!-- Title: ee/iopreboot/src/SifIopRebootBuffer.c Pages: 1 -->
<svg width="782pt" height="313pt"
 viewBox="0.00 0.00 782.17 313.00" xmlns="http://www.w3.org/2000/svg" xmlns:xlink="http://www.w3.org/1999/xlink">
<g id="graph0" class="graph" transform="scale(1 1) rotate(0) translate(4 309)">
<title>ee/iopreboot/src/SifIopRebootBuffer.c</title>
<!-- Node1 -->
<g id="node1" class="node">
<title>Node1</title>
<g id="a_node1"><a xlink:title=" ">
<polygon fill="#999999" stroke="#666666" points="454.17,-305 308.17,-305 308.17,-275 454.17,-275 454.17,-305"/>
<text text-anchor="start" x="316.17" y="-293" font-family="Helvetica,sans-Serif" font-size="10.00">ee/iopreboot/src/SifIopReboot</text>
<text text-anchor="middle" x="381.17" y="-282" font-family="Helvetica,sans-Serif" font-size="10.00">Buffer.c</text>
</a>
</g>
</g>
<!-- Node2 -->
<g id="node2" class="node">
<title>Node2</title>
<g id="a_node2"><a xlink:href="kernel_8h.html" target="_top" xlink:title=" ">
<polygon fill="white" stroke="#666666" points="113.17,-184 63.17,-184 63.17,-165 113.17,-165 113.17,-184"/>
<text text-anchor="middle" x="88.17" y="-172" font-family="Helvetica,sans-Serif" font-size="10.00">kernel.h</text>
</a>
</g>
</g>
<!-- Node1&#45;&gt;Node2 -->
<g id="edge1" class="edge">
<title>Node1&#45;&gt;Node2</title>
<path fill="none" stroke="#63b8ff" d="M310.29,-274.54C275.21,-266.22 232.67,-254.34 196.17,-239 164.63,-225.75 131.09,-204.82 109.9,-190.64"/>
<polygon fill="#63b8ff" stroke="#63b8ff" points="112.05,-187.86 101.81,-185.14 108.11,-193.65 112.05,-187.86"/>
</g>
<!-- Node5 -->
<g id="node5" class="node">
<title>Node5</title>
<g id="a_node5"><a xlink:href="sifdma_8h.html" target="_top" xlink:title=" ">
<polygon fill="white" stroke="#666666" points="331.67,-129 278.67,-129 278.67,-110 331.67,-110 331.67,-129"/>
<text text-anchor="middle" x="305.17" y="-117" font-family="Helvetica,sans-Serif" font-size="10.00">sifdma.h</text>
</a>
</g>
</g>
<!-- Node1&#45;&gt;Node5 -->
<g id="edge13" class="edge">
<title>Node1&#45;&gt;Node5</title>
<path fill="none" stroke="#63b8ff" d="M362.32,-274.76C351.61,-265.67 338.83,-253 331.17,-239 313.94,-207.52 308.13,-165.45 306.17,-140.84"/>
<polygon fill="#63b8ff" stroke="#63b8ff" points="309.67,-140.68 305.54,-130.93 302.68,-141.13 309.67,-140.68"/>
</g>
<!-- Node7 -->
<g id="node7" class="node">
<title>Node7</title>
<g id="a_node7"><a xlink:href="iopcontrol_8h.html" target="_top" xlink:title=" ">
<polygon fill="white" stroke="#666666" points="414.17,-239 348.17,-239 348.17,-220 414.17,-220 414.17,-239"/>
<text text-anchor="middle" x="381.17" y="-227" font-family="Helvetica,sans-Serif" font-size="10.00">iopcontrol.h</text>
</a>
</g>
</g>
<!-- Node1&#45;&gt;Node7 -->
<g id="edge6" class="edge">
<title>Node1&#45;&gt;Node7</title>
<path fill="none" stroke="#63b8ff" d="M381.17,-274.54C381.17,-267.34 381.17,-258.53 381.17,-250.68"/>
<polygon fill="#63b8ff" stroke="#63b8ff" points="384.67,-250.69 381.17,-240.69 377.67,-250.69 384.67,-250.69"/>
</g>
<!-- Node8 -->
<g id="node8" class="node">
<title>Node8</title>
<g id="a_node8"><a xlink:href="iopcontrol__special_8h.html" target="_top" xlink:title=" ">
<polygon fill="white" stroke="#666666" points="534.17,-239 432.17,-239 432.17,-220 534.17,-220 534.17,-239"/>
<text text-anchor="middle" x="483.17" y="-227" font-family="Helvetica,sans-Serif" font-size="10.00">iopcontrol_special.h</text>
</a>
</g>
</g>
<!-- Node1&#45;&gt;Node8 -->
<g id="edge7" class="edge">
<title>Node1&#45;&gt;Node8</title>
<path fill="none" stroke="#63b8ff" d="M406.38,-274.54C422.16,-265.49 442.41,-253.88 458.15,-244.85"/>
<polygon fill="#63b8ff" stroke="#63b8ff" points="459.5,-248.11 466.43,-240.1 456.02,-242.04 459.5,-248.11"/>
</g>
<!-- Node9 -->
<g id="node9" class="node">
<title>Node9</title>
<g id="a_node9"><a xlink:href="loadfile_8h.html" target="_top" xlink:title=" ">
<polygon fill="white" stroke="#666666" points="404.17,-129 350.17,-129 350.17,-110 404.17,-110 404.17,-129"/>
<text text-anchor="middle" x="377.17" y="-117" font-family="Helvetica,sans-Serif" font-size="10.00">loadfile.h</text>
</a>
</g>
</g>
<!-- Node1&#45;&gt;Node9 -->
<g id="edge8" class="edge">
<title>Node1&#45;&gt;Node9</title>
<path fill="none" stroke="#63b8ff" d="M364.33,-274.65C354.97,-265.52 344.22,-252.85 339.17,-239 326.41,-203.97 348.12,-162.32 363.63,-138.89"/>
<polygon fill="#63b8ff" stroke="#63b8ff" points="366.46,-140.95 369.3,-130.74 360.72,-136.95 366.46,-140.95"/>
</g>
<!-- Node11 -->
<g id="node11" class="node">
<title>Node11</title>
<g id="a_node11"><a xlink:href="iopheap_8h.html" target="_top" xlink:title=" ">
<polygon fill="white" stroke="#666666" points="610.17,-239 552.17,-239 552.17,-220 610.17,-220 610.17,-239"/>
<text text-anchor="middle" x="581.17" y="-227" font-family="Helvetica,sans-Serif" font-size="10.00">iopheap.h</text>
</a>
</g>
</g>
<!-- Node1&#45;&gt;Node11 -->
<g id="edge12" class="edge">
<title>Node1&#45;&gt;Node11</title>
<path fill="none" stroke="#63b8ff" d="M430.61,-274.54C464.65,-264.58 509.31,-251.52 541.12,-242.21"/>
<polygon fill="#63b8ff" stroke="#63b8ff" points="541.74,-245.68 550.35,-239.52 539.77,-238.96 541.74,-245.68"/>
</g>
<!-- Node12 -->
<g id="node12" class="node">
<title>Node12</title>
<g id="a_node12"><a xlink:title=" ">
<polygon fill="#e0e0e0" stroke="#999999" points="676.17,-239 628.17,-239 628.17,-220 676.17,-220 676.17,-239"/>
<text text-anchor="middle" x="652.17" y="-227" font-family="Helvetica,sans-Serif" font-size="10.00">sifrpc.h</text>
</a>
</g>
</g>
<!-- Node1&#45;&gt;Node12 -->
<g id="edge14" class="edge">
<title>Node1&#45;&gt;Node12</title>
<path fill="none" stroke="#63b8ff" d="M454.27,-274.53C498.69,-265.53 556.79,-253.4 616.52,-239.54"/>
<polygon fill="#63b8ff" stroke="#63b8ff" points="617.28,-242.96 626.22,-237.28 615.69,-236.14 617.28,-242.96"/>
</g>
<!-- Node13 -->
<g id="node13" class="node">
<title>Node13</title>
<g id="a_node13"><a xlink:href="string_8h_source.html" target="_top" xlink:title=" ">
<polygon fill="white" stroke="#666666" points="253.17,-239 205.17,-239 205.17,-220 253.17,-220 253.17,-239"/>
<text text-anchor="middle" x="229.17" y="-227" font-family="Helvetica,sans-Serif" font-size="10.00">string.h</text>
</a>
</g>
</g>
<!-- Node1&#45;&gt;Node13 -->
<g id="edge15" class="edge">
<title>Node1&#45;&gt;Node13</title>
<path fill="none" stroke="#63b8ff" d="M343.6,-274.54C318.86,-265.02 286.74,-252.66 262.84,-243.46"/>
<polygon fill="#63b8ff" stroke="#63b8ff" points="264.16,-240.22 253.57,-239.89 261.64,-246.75 264.16,-240.22"/>
</g>
<!-- Node19 -->
<g id="node19" class="node">
<title>Node19</title>
<g id="a_node19"><a xlink:href="sbv__patches_8h.html" target="_top" xlink:title=" ">
<polygon fill="white" stroke="#666666" points="774.17,-239 694.17,-239 694.17,-220 774.17,-220 774.17,-239"/>
<text text-anchor="middle" x="734.17" y="-227" font-family="Helvetica,sans-Serif" font-size="10.00">sbv_patches.h</text>
</a>
</g>
</g>
<!-- Node1&#45;&gt;Node19 -->
<g id="edge26" class="edge">
<title>Node1&#45;&gt;Node19</title>
<path fill="none" stroke="#63b8ff" d="M454.61,-277.11C513.55,-267.52 598.75,-253.56 682.53,-239.44"/>
<polygon fill="#63b8ff" stroke="#63b8ff" points="683.03,-242.9 692.31,-237.78 681.86,-236 683.03,-242.9"/>
</g>
<!-- Node3 -->
<g id="node3" class="node">
<title>Node3</title>
<g id="a_node3"><a xlink:title=" ">
<polygon fill="#e0e0e0" stroke="#999999" points="110.67,-19 59.67,-19 59.67,0 110.67,0 110.67,-19"/>
<text text-anchor="middle" x="85.17" y="-7" font-family="Helvetica,sans-Serif" font-size="10.00">stddef.h</text>
</a>
</g>
</g>
<!-- Node2&#45;&gt;Node3 -->
<g id="edge2" class="edge">
<title>Node2&#45;&gt;Node3</title>
<path fill="none" stroke="#63b8ff" d="M62.86,-167.3C43.58,-161.1 18.35,-149.46 6.17,-129 -16.53,-90.85 31.48,-47.91 62.18,-25.68"/>
<polygon fill="#63b8ff" stroke="#63b8ff" points="63.99,-28.68 70.18,-20.09 59.98,-22.94 63.99,-28.68"/>
</g>
<!-- Node4 -->
<g id="node4" class="node">
<title>Node4</title>
<g id="a_node4"><a xlink:title=" ">
<polygon fill="#e0e0e0" stroke="#999999" points="66.67,-129 15.67,-129 15.67,-110 66.67,-110 66.67,-129"/>
<text text-anchor="middle" x="41.17" y="-117" font-family="Helvetica,sans-Serif" font-size="10.00">stdarg.h</text>
</a>
</g>
</g>
<!-- Node2&#45;&gt;Node4 -->
<g id="edge3" class="edge">
<title>Node2&#45;&gt;Node4</title>
<path fill="none" stroke="#63b8ff" d="M80.41,-164.75C73.99,-157.5 64.66,-146.98 56.71,-138.02"/>
<polygon fill="#63b8ff" stroke="#63b8ff" points="59.36,-135.73 50.11,-130.57 54.12,-140.38 59.36,-135.73"/>
</g>
<!-- Node2&#45;&gt;Node5 -->
<g id="edge4" class="edge">
<title>Node2&#45;&gt;Node5</title>
<path fill="none" stroke="#63b8ff" d="M113.49,-167.32C151.36,-158.07 223.02,-140.56 267.18,-129.78"/>
<polygon fill="#63b8ff" stroke="#63b8ff" points="267.97,-133.19 276.85,-127.42 266.31,-126.39 267.97,-133.19"/>
</g>
<!-- Node6 -->
<g id="node6" class="node">
<title>Node6</title>
<g id="a_node6"><a xlink:href="tamtypes_8h.html" target="_top" xlink:title=" ">
<polygon fill="white" stroke="#666666" points="337.17,-19 273.17,-19 273.17,0 337.17,0 337.17,-19"/>
<text text-anchor="middle" x="305.17" y="-7" font-family="Helvetica,sans-Serif" font-size="10.00">tamtypes.h</text>
</a>
</g>
</g>
<!-- Node5&#45;&gt;Node6 -->
<g id="edge5" class="edge">
<title>Node5&#45;&gt;Node6</title>
<path fill="none" stroke="#63b8ff" d="M305.17,-109.66C305.17,-92.57 305.17,-54.61 305.17,-30.92"/>
<polygon fill="#63b8ff" stroke="#63b8ff" points="308.67,-30.97 305.17,-20.97 301.67,-30.97 308.67,-30.97"/>
</g>
<!-- Node9&#45;&gt;Node6 -->
<g id="edge9" class="edge">
<title>Node9&#45;&gt;Node6</title>
<path fill="none" stroke="#63b8ff" d="M371.28,-109.66C359.57,-92.1 333.16,-52.48 317.49,-28.98"/>
<polygon fill="#63b8ff" stroke="#63b8ff" points="320.44,-27.1 311.98,-20.72 314.62,-30.98 320.44,-27.1"/>
</g>
<!-- Node10 -->
<g id="node10" class="node">
<title>Node10</title>
<g id="a_node10"><a xlink:href="loadfile-common_8h.html" target="_top" xlink:title=" ">
<polygon fill="white" stroke="#666666" points="466.67,-74 371.67,-74 371.67,-55 466.67,-55 466.67,-74"/>
<text text-anchor="middle" x="419.17" y="-62" font-family="Helvetica,sans-Serif" font-size="10.00">loadfile&#45;common.h</text>
</a>
</g>
</g>
<!-- Node9&#45;&gt;Node10 -->
<g id="edge10" class="edge">
<title>Node9&#45;&gt;Node10</title>
<path fill="none" stroke="#63b8ff" d="M384.11,-109.75C389.79,-102.58 398.01,-92.2 405.06,-83.3"/>
<polygon fill="#63b8ff" stroke="#63b8ff" points="407.68,-85.64 411.15,-75.63 402.19,-81.29 407.68,-85.64"/>
</g>
<!-- Node10&#45;&gt;Node6 -->
<g id="edge11" class="edge">
<title>Node10&#45;&gt;Node6</title>
<path fill="none" stroke="#63b8ff" d="M399.83,-54.51C381.96,-46.2 355.13,-33.73 334.6,-24.18"/>
<polygon fill="#63b8ff" stroke="#63b8ff" points="336.14,-21.04 325.6,-20 333.19,-27.39 336.14,-21.04"/>
</g>
<!-- Node14 -->
<g id="node14" class="node">
<title>Node14</title>
<g id="a_node14"><a xlink:href="sysclib_8h.html" target="_top" xlink:title=" ">
<polygon fill="white" stroke="#666666" points="209.17,-184 155.17,-184 155.17,-165 209.17,-165 209.17,-184"/>
<text text-anchor="middle" x="182.17" y="-172" font-family="Helvetica,sans-Serif" font-size="10.00">sysclib.h</text>
</a>
</g>
</g>
<!-- Node13&#45;&gt;Node14 -->
<g id="edge16" class="edge">
<title>Node13&#45;&gt;Node14</title>
<path fill="none" stroke="#63b8ff" d="M221.41,-219.75C214.99,-212.5 205.66,-201.98 197.71,-193.02"/>
<polygon fill="#63b8ff" stroke="#63b8ff" points="200.36,-190.73 191.11,-185.57 195.12,-195.38 200.36,-190.73"/>
</g>
<!-- Node14&#45;&gt;Node4 -->
<g id="edge22" class="edge">
<title>Node14&#45;&gt;Node4</title>
<path fill="none" stroke="#63b8ff" d="M158.25,-164.51C135.53,-155.97 101.12,-143.03 75.48,-133.4"/>
<polygon fill="#63b8ff" stroke="#63b8ff" points="76.75,-130.13 66.15,-129.89 74.28,-136.69 76.75,-130.13"/>
</g>
<!-- Node15 -->
<g id="node15" class="node">
<title>Node15</title>
<g id="a_node15"><a xlink:href="iop_2kernel_2include_2types_8h_source.html" target="_top" xlink:title=" ">
<polygon fill="white" stroke="#666666" points="194.67,-74 147.67,-74 147.67,-55 194.67,-55 194.67,-74"/>
<text text-anchor="middle" x="171.17" y="-62" font-family="Helvetica,sans-Serif" font-size="10.00">types.h</text>
</a>
</g>
</g>
<!-- Node14&#45;&gt;Node15 -->
<g id="edge17" class="edge">
<title>Node14&#45;&gt;Node15</title>
<path fill="none" stroke="#63b8ff" d="M181.27,-164.66C179.52,-147.5 175.63,-109.26 173.22,-85.6"/>
<polygon fill="#63b8ff" stroke="#63b8ff" points="176.73,-85.56 172.24,-75.97 169.77,-86.27 176.73,-85.56"/>
</g>
<!-- Node16 -->
<g id="node16" class="node">
<title>Node16</title>
<g id="a_node16"><a xlink:href="irx_8h.html" target="_top" xlink:title=" ">
<polygon fill="white" stroke="#666666" points="222.17,-129 188.17,-129 188.17,-110 222.17,-110 222.17,-129"/>
<text text-anchor="middle" x="205.17" y="-117" font-family="Helvetica,sans-Serif" font-size="10.00">irx.h</text>
</a>
</g>
</g>
<!-- Node14&#45;&gt;Node16 -->
<g id="edge20" class="edge">
<title>Node14&#45;&gt;Node16</title>
<path fill="none" stroke="#63b8ff" d="M185.97,-164.75C188.91,-157.96 193.11,-148.3 196.82,-139.73"/>
<polygon fill="#63b8ff" stroke="#63b8ff" points="199.92,-141.4 200.69,-130.83 193.5,-138.61 199.92,-141.4"/>
</g>
<!-- Node17 -->
<g id="node17" class="node">
<title>Node17</title>
<g id="a_node17"><a xlink:href="setjmp_8h.html" target="_top" xlink:title=" ">
<polygon fill="white" stroke="#666666" points="276.67,-74 223.67,-74 223.67,-55 276.67,-55 276.67,-74"/>
<text text-anchor="middle" x="250.17" y="-62" font-family="Helvetica,sans-Serif" font-size="10.00">setjmp.h</text>
</a>
</g>
</g>
<!-- Node14&#45;&gt;Node17 -->
<g id="edge23" class="edge">
<title>Node14&#45;&gt;Node17</title>
<path fill="none" stroke="#63b8ff" d="M195.25,-164.75C206.33,-156.7 221.86,-143.78 231.17,-129 239.54,-115.72 244.38,-98.56 247.08,-85.43"/>
<polygon fill="#63b8ff" stroke="#63b8ff" points="250.49,-86.28 248.8,-75.82 243.6,-85.05 250.49,-86.28"/>
</g>
<!-- Node18 -->
<g id="node18" class="node">
<title>Node18</title>
<g id="a_node18"><a xlink:href="ctype_8h.html" target="_top" xlink:title=" ">
<polygon fill="white" stroke="#666666" points="131.67,-129 84.67,-129 84.67,-110 131.67,-110 131.67,-129"/>
<text text-anchor="middle" x="108.17" y="-117" font-family="Helvetica,sans-Serif" font-size="10.00">ctype.h</text>
</a>
</g>
</g>
<!-- Node14&#45;&gt;Node18 -->
<g id="edge25" class="edge">
<title>Node14&#45;&gt;Node18</title>
<path fill="none" stroke="#63b8ff" d="M169.62,-164.51C158.71,-156.7 142.67,-145.21 129.71,-135.93"/>
<polygon fill="#63b8ff" stroke="#63b8ff" points="131.94,-133.22 121.77,-130.24 127.86,-138.91 131.94,-133.22"/>
</g>
<!-- Node15&#45;&gt;Node3 -->
<g id="edge18" class="edge">
<title>Node15&#45;&gt;Node3</title>
<path fill="none" stroke="#63b8ff" d="M156.58,-54.51C143.66,-46.54 124.53,-34.75 109.32,-25.38"/>
<polygon fill="#63b8ff" stroke="#63b8ff" points="111.18,-22.42 100.83,-20.15 107.51,-28.38 111.18,-22.42"/>
</g>
<!-- Node15&#45;&gt;Node6 -->
<g id="edge19" class="edge">
<title>Node15&#45;&gt;Node6</title>
<path fill="none" stroke="#63b8ff" d="M193.9,-54.51C215.4,-46.01 247.9,-33.15 272.24,-23.53"/>
<polygon fill="#63b8ff" stroke="#63b8ff" points="273.36,-26.85 281.37,-19.91 270.78,-20.34 273.36,-26.85"/>
</g>
<!-- Node16&#45;&gt;Node15 -->
<g id="edge21" class="edge">
<title>Node16&#45;&gt;Node15</title>
<path fill="none" stroke="#63b8ff" d="M199.56,-109.75C195.06,-102.73 188.58,-92.64 182.96,-83.87"/>
<polygon fill="#63b8ff" stroke="#63b8ff" points="186.07,-82.24 177.72,-75.72 180.18,-86.02 186.07,-82.24"/>
</g>
<!-- Node17&#45;&gt;Node6 -->
<g id="edge24" class="edge">
<title>Node17&#45;&gt;Node6</title>
<path fill="none" stroke="#63b8ff" d="M259.25,-54.75C267.01,-47.27 278.38,-36.32 287.87,-27.17"/>
<polygon fill="#63b8ff" stroke="#63b8ff" points="290.03,-29.95 294.8,-20.49 285.17,-24.91 290.03,-29.95"/>
</g>
</g>
</svg>
