<?xml version="1.0" encoding="UTF-8" standalone="no"?>
<!DOCTYPE svg PUBLIC "-//W3C//DTD SVG 1.1//EN"
 "http://www.w3.org/Graphics/SVG/1.1/DTD/svg11.dtd">
<!-- Generated by graphviz version 7.0.5 (20221223.1930)
 -->
<!-- Title: iop/sound/ahx/include/ahx.h Pages: 1 -->
<svg width="262pt" height="104pt"
 viewBox="0.00 0.00 262.00 104.00" xmlns="http://www.w3.org/2000/svg" xmlns:xlink="http://www.w3.org/1999/xlink">
<g id="graph0" class="graph" transform="scale(1 1) rotate(0) translate(4 100)">
<title>iop/sound/ahx/include/ahx.h</title>
<!-- Node1 -->
<g id="node1" class="node">
<title>Node1</title>
<g id="a_node1"><a xlink:title=" ">
<polygon fill="#999999" stroke="#666666" points="185.5,-96 75.5,-96 75.5,-66 185.5,-66 185.5,-96"/>
<text text-anchor="start" x="83.5" y="-84" font-family="Helvetica,sans-Serif" font-size="10.00">iop/sound/ahx/include</text>
<text text-anchor="middle" x="130.5" y="-73" font-family="Helvetica,sans-Serif" font-size="10.00">/ahx.h</text>
</a>
</g>
</g>
<!-- Node2 -->
<g id="node2" class="node">
<title>Node2</title>
<g id="a_node2"><a xlink:href="_a_h_x_8c_source.html" target="_top" xlink:title=" ">
<polygon fill="white" stroke="#666666" points="125,-24.5 0,-24.5 0,-5.5 125,-5.5 125,-24.5"/>
<text text-anchor="middle" x="62.5" y="-12.5" font-family="Helvetica,sans-Serif" font-size="10.00">iop/sound/ahx/src/AHX.c</text>
</a>
</g>
</g>
<!-- Node1&#45;&gt;Node2 -->
<g id="edge1" class="edge">
<title>Node1&#45;&gt;Node2</title>
<path fill="none" stroke="#63b8ff" d="M107.07,-57.94C94.99,-46.58 80.94,-33.36 71.9,-24.84"/>
<polygon fill="#63b8ff" stroke="#63b8ff" points="104.63,-60.45 114.31,-64.76 109.42,-55.36 104.63,-60.45"/>
</g>
<!-- Node3 -->
<g id="node3" class="node">
<title>Node3</title>
<g id="a_node3"><a xlink:href="ahx__irx_8c_source.html" target="_top" xlink:title=" ">
<polygon fill="white" stroke="#666666" points="254,-30 143,-30 143,0 254,0 254,-30"/>
<text text-anchor="start" x="151" y="-18" font-family="Helvetica,sans-Serif" font-size="10.00">iop/sound/ahx/src/ahx</text>
<text text-anchor="middle" x="198.5" y="-7" font-family="Helvetica,sans-Serif" font-size="10.00">_irx.c</text>
</a>
</g>
</g>
<!-- Node1&#45;&gt;Node3 -->
<g id="edge2" class="edge">
<title>Node1&#45;&gt;Node3</title>
<path fill="none" stroke="#63b8ff" d="M153.78,-58.09C163.6,-48.85 174.74,-38.36 183.45,-30.16"/>
<polygon fill="#63b8ff" stroke="#63b8ff" points="151.58,-55.36 146.69,-64.76 156.37,-60.45 151.58,-55.36"/>
</g>
</g>
</svg>
