<?xml version="1.0" encoding="UTF-8" standalone="no"?>
<!DOCTYPE svg PUBLIC "-//W3C//DTD SVG 1.1//EN"
 "http://www.w3.org/Graphics/SVG/1.1/DTD/svg11.dtd">
<!-- Generated by graphviz version 7.0.5 (20221223.1930)
 -->
<!-- Title: common/include/aifregs.h Pages: 1 -->
<svg width="367pt" height="148pt"
 viewBox="0.00 0.00 367.00 148.00" xmlns="http://www.w3.org/2000/svg" xmlns:xlink="http://www.w3.org/1999/xlink">
<g id="graph0" class="graph" transform="scale(1 1) rotate(0) translate(4 144)">
<title>common/include/aifregs.h</title>
<!-- Node1 -->
<g id="node1" class="node">
<title>Node1</title>
<g id="a_node1"><a xlink:title=" ">
<polygon fill="#999999" stroke="#666666" points="276.5,-140 148.5,-140 148.5,-121 276.5,-121 276.5,-140"/>
<text text-anchor="middle" x="212.5" y="-128" font-family="Helvetica,sans-Serif" font-size="10.00">common/include/aifregs.h</text>
</a>
</g>
</g>
<!-- Node2 -->
<g id="node2" class="node">
<title>Node2</title>
<g id="a_node2"><a xlink:href="atahw_8h.html" target="_top" xlink:title=" ">
<polygon fill="white" stroke="#666666" points="200,-85 75,-85 75,-66 200,-66 200,-85"/>
<text text-anchor="middle" x="137.5" y="-73" font-family="Helvetica,sans-Serif" font-size="10.00">common/include/atahw.h</text>
</a>
</g>
</g>
<!-- Node1&#45;&gt;Node2 -->
<g id="edge1" class="edge">
<title>Node1&#45;&gt;Node2</title>
<path fill="none" stroke="#63b8ff" d="M190.45,-113.92C177.28,-104.61 161.03,-93.13 150.03,-85.36"/>
<polygon fill="#63b8ff" stroke="#63b8ff" points="188.35,-116.72 198.54,-119.64 192.39,-111.01 188.35,-116.72"/>
</g>
<!-- Node5 -->
<g id="node5" class="node">
<title>Node5</title>
<g id="a_node5"><a xlink:href="ps2dev9_8c.html" target="_top" xlink:title=" ">
<polygon fill="white" stroke="#666666" points="359,-85 218,-85 218,-66 359,-66 359,-85"/>
<text text-anchor="middle" x="288.5" y="-73" font-family="Helvetica,sans-Serif" font-size="10.00">iop/dev9/dev9/src/ps2dev9.c</text>
</a>
</g>
</g>
<!-- Node1&#45;&gt;Node5 -->
<g id="edge4" class="edge">
<title>Node1&#45;&gt;Node5</title>
<path fill="none" stroke="#63b8ff" d="M234.46,-114.19C247.87,-104.84 264.54,-93.21 275.8,-85.36"/>
<polygon fill="#63b8ff" stroke="#63b8ff" points="232.83,-111.05 226.63,-119.64 236.84,-116.79 232.83,-111.05"/>
</g>
<!-- Node3 -->
<g id="node3" class="node">
<title>Node3</title>
<g id="a_node3"><a xlink:href="ps2atad_8c.html" target="_top" xlink:title=" ">
<polygon fill="white" stroke="#666666" points="137,-24.5 0,-24.5 0,-5.5 137,-5.5 137,-24.5"/>
<text text-anchor="middle" x="68.5" y="-12.5" font-family="Helvetica,sans-Serif" font-size="10.00">iop/dev9/atad/src/ps2atad.c</text>
</a>
</g>
</g>
<!-- Node2&#45;&gt;Node3 -->
<g id="edge2" class="edge">
<title>Node2&#45;&gt;Node3</title>
<path fill="none" stroke="#63b8ff" d="M118.53,-58.41C105.81,-47.64 89.55,-33.85 79.08,-24.97"/>
<polygon fill="#63b8ff" stroke="#63b8ff" points="115.97,-60.84 125.87,-64.64 120.5,-55.5 115.97,-60.84"/>
</g>
<!-- Node4 -->
<g id="node4" class="node">
<title>Node4</title>
<g id="a_node4"><a xlink:href="hdproatad_8c_source.html" target="_top" xlink:title=" ">
<polygon fill="white" stroke="#666666" points="259.5,-30 155.5,-30 155.5,0 259.5,0 259.5,-30"/>
<text text-anchor="start" x="163.5" y="-18" font-family="Helvetica,sans-Serif" font-size="10.00">iop/dev9/hdpro_atad</text>
<text text-anchor="middle" x="207.5" y="-7" font-family="Helvetica,sans-Serif" font-size="10.00">/src/hdproatad.c</text>
</a>
</g>
</g>
<!-- Node2&#45;&gt;Node4 -->
<g id="edge3" class="edge">
<title>Node2&#45;&gt;Node4</title>
<path fill="none" stroke="#63b8ff" d="M156.92,-58.27C167.36,-49.54 180.13,-38.87 190.22,-30.44"/>
<polygon fill="#63b8ff" stroke="#63b8ff" points="154.72,-55.55 149.29,-64.64 159.21,-60.92 154.72,-55.55"/>
</g>
</g>
</svg>
