<?xml version="1.0" encoding="UTF-8" standalone="no"?>
<!DOCTYPE svg PUBLIC "-//W3C//DTD SVG 1.1//EN"
 "http://www.w3.org/Graphics/SVG/1.1/DTD/svg11.dtd">
<!-- Generated by graphviz version 7.0.5 (20221223.1930)
 -->
<!-- Title: ee/kernel/src/alarm.c Pages: 1 -->
<svg width="351pt" height="247pt"
 viewBox="0.00 0.00 351.00 247.00" xmlns="http://www.w3.org/2000/svg" xmlns:xlink="http://www.w3.org/1999/xlink">
<g id="graph0" class="graph" transform="scale(1 1) rotate(0) translate(4 243)">
<title>ee/kernel/src/alarm.c</title>
<!-- Node1 -->
<g id="node1" class="node">
<title>Node1</title>
<g id="a_node1"><a xlink:title=" ">
<polygon fill="#999999" stroke="#666666" points="191.5,-239 84.5,-239 84.5,-220 191.5,-220 191.5,-239"/>
<text text-anchor="middle" x="138" y="-227" font-family="Helvetica,sans-Serif" font-size="10.00">ee/kernel/src/alarm.c</text>
</a>
</g>
</g>
<!-- Node2 -->
<g id="node2" class="node">
<title>Node2</title>
<g id="a_node2"><a xlink:href="kernel_8h.html" target="_top" xlink:title=" ">
<polygon fill="white" stroke="#666666" points="163,-184 113,-184 113,-165 163,-165 163,-184"/>
<text text-anchor="middle" x="138" y="-172" font-family="Helvetica,sans-Serif" font-size="10.00">kernel.h</text>
</a>
</g>
</g>
<!-- Node1&#45;&gt;Node2 -->
<g id="edge1" class="edge">
<title>Node1&#45;&gt;Node2</title>
<path fill="none" stroke="#63b8ff" d="M138,-219.75C138,-213.27 138,-204.16 138,-195.9"/>
<polygon fill="#63b8ff" stroke="#63b8ff" points="141.5,-195.96 138,-185.96 134.5,-195.96 141.5,-195.96"/>
</g>
<!-- Node7 -->
<g id="node7" class="node">
<title>Node7</title>
<g id="a_node7"><a xlink:href="timer_8h.html" target="_top" xlink:title=" ">
<polygon fill="white" stroke="#666666" points="343,-74 297,-74 297,-55 343,-55 343,-74"/>
<text text-anchor="middle" x="320" y="-62" font-family="Helvetica,sans-Serif" font-size="10.00">timer.h</text>
</a>
</g>
</g>
<!-- Node1&#45;&gt;Node7 -->
<g id="edge6" class="edge">
<title>Node1&#45;&gt;Node7</title>
<path fill="none" stroke="#63b8ff" d="M148.04,-219.5C177.45,-193.17 263.65,-115.97 301.65,-81.93"/>
<polygon fill="#63b8ff" stroke="#63b8ff" points="303.97,-84.56 309.08,-75.28 299.3,-79.34 303.97,-84.56"/>
</g>
<!-- Node8 -->
<g id="node8" class="node">
<title>Node8</title>
<g id="a_node8"><a xlink:href="stdio_8h.html" target="_top" xlink:title=" ">
<polygon fill="white" stroke="#666666" points="94.5,-184 49.5,-184 49.5,-165 94.5,-165 94.5,-184"/>
<text text-anchor="middle" x="72" y="-172" font-family="Helvetica,sans-Serif" font-size="10.00">stdio.h</text>
</a>
</g>
</g>
<!-- Node1&#45;&gt;Node8 -->
<g id="edge8" class="edge">
<title>Node1&#45;&gt;Node8</title>
<path fill="none" stroke="#63b8ff" d="M126.8,-219.51C117.26,-211.85 103.33,-200.66 91.89,-191.47"/>
<polygon fill="#63b8ff" stroke="#63b8ff" points="94.2,-188.84 84.21,-185.31 89.82,-194.3 94.2,-188.84"/>
</g>
<!-- Node3 -->
<g id="node3" class="node">
<title>Node3</title>
<g id="a_node3"><a xlink:title=" ">
<polygon fill="#e0e0e0" stroke="#999999" points="179.5,-19 128.5,-19 128.5,0 179.5,0 179.5,-19"/>
<text text-anchor="middle" x="154" y="-7" font-family="Helvetica,sans-Serif" font-size="10.00">stddef.h</text>
</a>
</g>
</g>
<!-- Node2&#45;&gt;Node3 -->
<g id="edge2" class="edge">
<title>Node2&#45;&gt;Node3</title>
<path fill="none" stroke="#63b8ff" d="M138.86,-164.74C141.33,-139.53 148.52,-66.36 152.02,-30.62"/>
<polygon fill="#63b8ff" stroke="#63b8ff" points="155.49,-31.11 152.99,-20.81 148.53,-30.42 155.49,-31.11"/>
</g>
<!-- Node4 -->
<g id="node4" class="node">
<title>Node4</title>
<g id="a_node4"><a xlink:title=" ">
<polygon fill="#e0e0e0" stroke="#999999" points="103.5,-129 52.5,-129 52.5,-110 103.5,-110 103.5,-129"/>
<text text-anchor="middle" x="78" y="-117" font-family="Helvetica,sans-Serif" font-size="10.00">stdarg.h</text>
</a>
</g>
</g>
<!-- Node2&#45;&gt;Node4 -->
<g id="edge3" class="edge">
<title>Node2&#45;&gt;Node4</title>
<path fill="none" stroke="#63b8ff" d="M127.82,-164.51C119.24,-156.93 106.73,-145.88 96.4,-136.75"/>
<polygon fill="#63b8ff" stroke="#63b8ff" points="98.97,-134.36 89.16,-130.36 94.34,-139.6 98.97,-134.36"/>
</g>
<!-- Node5 -->
<g id="node5" class="node">
<title>Node5</title>
<g id="a_node5"><a xlink:href="sifdma_8h.html" target="_top" xlink:title=" ">
<polygon fill="white" stroke="#666666" points="278.5,-74 225.5,-74 225.5,-55 278.5,-55 278.5,-74"/>
<text text-anchor="middle" x="252" y="-62" font-family="Helvetica,sans-Serif" font-size="10.00">sifdma.h</text>
</a>
</g>
</g>
<!-- Node2&#45;&gt;Node5 -->
<g id="edge4" class="edge">
<title>Node2&#45;&gt;Node5</title>
<path fill="none" stroke="#63b8ff" d="M147.33,-164.66C166.37,-146.62 209.96,-105.32 234.46,-82.12"/>
<polygon fill="#63b8ff" stroke="#63b8ff" points="236.59,-84.92 241.44,-75.5 231.78,-79.84 236.59,-84.92"/>
</g>
<!-- Node6 -->
<g id="node6" class="node">
<title>Node6</title>
<g id="a_node6"><a xlink:href="tamtypes_8h.html" target="_top" xlink:title=" ">
<polygon fill="white" stroke="#666666" points="284,-19 220,-19 220,0 284,0 284,-19"/>
<text text-anchor="middle" x="252" y="-7" font-family="Helvetica,sans-Serif" font-size="10.00">tamtypes.h</text>
</a>
</g>
</g>
<!-- Node5&#45;&gt;Node6 -->
<g id="edge5" class="edge">
<title>Node5&#45;&gt;Node6</title>
<path fill="none" stroke="#63b8ff" d="M252,-54.75C252,-48.27 252,-39.16 252,-30.9"/>
<polygon fill="#63b8ff" stroke="#63b8ff" points="255.5,-30.96 252,-20.96 248.5,-30.96 255.5,-30.96"/>
</g>
<!-- Node7&#45;&gt;Node6 -->
<g id="edge7" class="edge">
<title>Node7&#45;&gt;Node6</title>
<path fill="none" stroke="#63b8ff" d="M308.46,-54.51C298.54,-46.77 283.99,-35.43 272.14,-26.2"/>
<polygon fill="#63b8ff" stroke="#63b8ff" points="274.6,-23.68 264.56,-20.29 270.29,-29.2 274.6,-23.68"/>
</g>
<!-- Node8&#45;&gt;Node4 -->
<g id="edge9" class="edge">
<title>Node8&#45;&gt;Node4</title>
<path fill="none" stroke="#63b8ff" d="M72.99,-164.75C73.73,-158.19 74.78,-148.95 75.72,-140.6"/>
<polygon fill="#63b8ff" stroke="#63b8ff" points="79.17,-141.28 76.82,-130.95 72.21,-140.49 79.17,-141.28"/>
</g>
<!-- Node9 -->
<g id="node9" class="node">
<title>Node9</title>
<g id="a_node9"><a xlink:href="irx_8h.html" target="_top" xlink:title=" ">
<polygon fill="white" stroke="#666666" points="34,-129 0,-129 0,-110 34,-110 34,-129"/>
<text text-anchor="middle" x="17" y="-117" font-family="Helvetica,sans-Serif" font-size="10.00">irx.h</text>
</a>
</g>
</g>
<!-- Node8&#45;&gt;Node9 -->
<g id="edge10" class="edge">
<title>Node8&#45;&gt;Node9</title>
<path fill="none" stroke="#63b8ff" d="M62.92,-164.75C55.16,-157.27 43.79,-146.32 34.3,-137.17"/>
<polygon fill="#63b8ff" stroke="#63b8ff" points="37,-134.91 27.37,-130.49 32.14,-139.95 37,-134.91"/>
</g>
<!-- Node10 -->
<g id="node10" class="node">
<title>Node10</title>
<g id="a_node10"><a xlink:href="iop_2kernel_2include_2types_8h_source.html" target="_top" xlink:title=" ">
<polygon fill="white" stroke="#666666" points="207.5,-74 160.5,-74 160.5,-55 207.5,-55 207.5,-74"/>
<text text-anchor="middle" x="184" y="-62" font-family="Helvetica,sans-Serif" font-size="10.00">types.h</text>
</a>
</g>
</g>
<!-- Node9&#45;&gt;Node10 -->
<g id="edge11" class="edge">
<title>Node9&#45;&gt;Node10</title>
<path fill="none" stroke="#63b8ff" d="M34.33,-112.81C37.23,-111.86 40.2,-110.9 43,-110 79.25,-98.36 120.82,-85.27 149.38,-76.32"/>
<polygon fill="#63b8ff" stroke="#63b8ff" points="150.08,-79.76 158.58,-73.44 147.99,-73.08 150.08,-79.76"/>
</g>
<!-- Node10&#45;&gt;Node3 -->
<g id="edge12" class="edge">
<title>Node10&#45;&gt;Node3</title>
<path fill="none" stroke="#63b8ff" d="M179.05,-54.75C175.16,-47.88 169.61,-38.08 164.72,-29.45"/>
<polygon fill="#63b8ff" stroke="#63b8ff" points="167.78,-27.74 159.81,-20.76 161.69,-31.19 167.78,-27.74"/>
</g>
<!-- Node10&#45;&gt;Node6 -->
<g id="edge13" class="edge">
<title>Node10&#45;&gt;Node6</title>
<path fill="none" stroke="#63b8ff" d="M195.54,-54.51C205.46,-46.77 220.01,-35.43 231.86,-26.2"/>
<polygon fill="#63b8ff" stroke="#63b8ff" points="233.71,-29.2 239.44,-20.29 229.4,-23.68 233.71,-29.2"/>
</g>
</g>
</svg>
