<?xml version="1.0" encoding="UTF-8" standalone="no"?>
<!DOCTYPE svg PUBLIC "-//W3C//DTD SVG 1.1//EN"
 "http://www.w3.org/Graphics/SVG/1.1/DTD/svg11.dtd">
<!-- Generated by graphviz version 7.0.5 (20221223.1930)
 -->
<!-- Title: iop/system/alloc/src/alloc.c Pages: 1 -->
<svg width="547pt" height="313pt"
 viewBox="0.00 0.00 546.66 313.00" xmlns="http://www.w3.org/2000/svg" xmlns:xlink="http://www.w3.org/1999/xlink">
<g id="graph0" class="graph" transform="scale(1 1) rotate(0) translate(4 309)">
<title>iop/system/alloc/src/alloc.c</title>
<!-- Node1 -->
<g id="node1" class="node">
<title>Node1</title>
<g id="a_node1"><a xlink:title=" ">
<polygon fill="#999999" stroke="#666666" points="467.16,-305 363.16,-305 363.16,-275 467.16,-275 467.16,-305"/>
<text text-anchor="start" x="371.16" y="-293" font-family="Helvetica,sans-Serif" font-size="10.00">iop/system/alloc/src</text>
<text text-anchor="middle" x="415.16" y="-282" font-family="Helvetica,sans-Serif" font-size="10.00">/alloc.c</text>
</a>
</g>
</g>
<!-- Node2 -->
<g id="node2" class="node">
<title>Node2</title>
<g id="a_node2"><a xlink:title=" ">
<polygon fill="#e0e0e0" stroke="#999999" points="166.66,-129 115.66,-129 115.66,-110 166.66,-110 166.66,-129"/>
<text text-anchor="middle" x="141.16" y="-117" font-family="Helvetica,sans-Serif" font-size="10.00">stdarg.h</text>
</a>
</g>
</g>
<!-- Node1&#45;&gt;Node2 -->
<g id="edge1" class="edge">
<title>Node1&#45;&gt;Node2</title>
<path fill="none" stroke="#63b8ff" d="M362.78,-281.93C318.65,-274.76 254.52,-261.46 202.16,-239 161.15,-221.41 139.38,-223.26 118.16,-184 110.33,-169.51 118.01,-151.81 126.55,-138.78"/>
<polygon fill="#63b8ff" stroke="#63b8ff" points="129.36,-140.85 132.4,-130.7 123.7,-136.74 129.36,-140.85"/>
</g>
<!-- Node3 -->
<g id="node3" class="node">
<title>Node3</title>
<g id="a_node3"><a xlink:title=" ">
<polygon fill="#e0e0e0" stroke="#999999" points="490.66,-184 443.66,-184 443.66,-165 490.66,-165 490.66,-184"/>
<text text-anchor="middle" x="467.16" y="-172" font-family="Helvetica,sans-Serif" font-size="10.00">types.h</text>
</a>
</g>
</g>
<!-- Node1&#45;&gt;Node3 -->
<g id="edge2" class="edge">
<title>Node1&#45;&gt;Node3</title>
<path fill="none" stroke="#63b8ff" d="M425.33,-274.64C431.9,-264.91 440.28,-251.58 446.16,-239 452.79,-224.81 458.26,-207.94 461.96,-195.16"/>
<polygon fill="#63b8ff" stroke="#63b8ff" points="465.25,-196.41 464.53,-185.84 458.5,-194.54 465.25,-196.41"/>
</g>
<!-- Node4 -->
<g id="node4" class="node">
<title>Node4</title>
<g id="a_node4"><a xlink:href="defs_8h.html" target="_top" xlink:title=" ">
<polygon fill="white" stroke="#666666" points="538.66,-239 495.66,-239 495.66,-220 538.66,-220 538.66,-239"/>
<text text-anchor="middle" x="517.16" y="-227" font-family="Helvetica,sans-Serif" font-size="10.00">defs.h</text>
</a>
</g>
</g>
<!-- Node1&#45;&gt;Node4 -->
<g id="edge3" class="edge">
<title>Node1&#45;&gt;Node4</title>
<path fill="none" stroke="#63b8ff" d="M440.37,-274.54C456.15,-265.49 476.39,-253.88 492.13,-244.85"/>
<polygon fill="#63b8ff" stroke="#63b8ff" points="493.49,-248.11 500.42,-240.1 490.01,-242.04 493.49,-248.11"/>
</g>
<!-- Node8 -->
<g id="node8" class="node">
<title>Node8</title>
<g id="a_node8"><a xlink:href="alloc_8h.html" target="_top" xlink:title=" ">
<polygon fill="white" stroke="#666666" points="437.16,-239 393.16,-239 393.16,-220 437.16,-220 437.16,-239"/>
<text text-anchor="middle" x="415.16" y="-227" font-family="Helvetica,sans-Serif" font-size="10.00">alloc.h</text>
</a>
</g>
</g>
<!-- Node1&#45;&gt;Node8 -->
<g id="edge7" class="edge">
<title>Node1&#45;&gt;Node8</title>
<path fill="none" stroke="#63b8ff" d="M415.16,-274.54C415.16,-267.34 415.16,-258.53 415.16,-250.68"/>
<polygon fill="#63b8ff" stroke="#63b8ff" points="418.66,-250.69 415.16,-240.69 411.66,-250.69 418.66,-250.69"/>
</g>
<!-- Node10 -->
<g id="node10" class="node">
<title>Node10</title>
<g id="a_node10"><a xlink:href="iop_2system_2alloc_2src_2irx__imports_8h_source.html" target="_top" xlink:title=" ">
<polygon fill="white" stroke="#666666" points="282.66,-239 211.66,-239 211.66,-220 282.66,-220 282.66,-239"/>
<text text-anchor="middle" x="247.16" y="-227" font-family="Helvetica,sans-Serif" font-size="10.00">irx_imports.h</text>
</a>
</g>
</g>
<!-- Node1&#45;&gt;Node10 -->
<g id="edge11" class="edge">
<title>Node1&#45;&gt;Node10</title>
<path fill="none" stroke="#63b8ff" d="M373.63,-274.54C345.91,-264.89 309.82,-252.32 283.3,-243.08"/>
<polygon fill="#63b8ff" stroke="#63b8ff" points="284.59,-239.83 273.99,-239.84 282.29,-246.44 284.59,-239.83"/>
</g>
<!-- Node5 -->
<g id="node5" class="node">
<title>Node5</title>
<g id="a_node5"><a xlink:href="iop_2kernel_2include_2types_8h_source.html" target="_top" xlink:title=" ">
<polygon fill="white" stroke="#666666" points="263.66,-74 216.66,-74 216.66,-55 263.66,-55 263.66,-74"/>
<text text-anchor="middle" x="240.16" y="-62" font-family="Helvetica,sans-Serif" font-size="10.00">types.h</text>
</a>
</g>
</g>
<!-- Node4&#45;&gt;Node5 -->
<g id="edge4" class="edge">
<title>Node4&#45;&gt;Node5</title>
<path fill="none" stroke="#63b8ff" d="M517.04,-219.51C516.39,-206 513.22,-180.4 499.16,-165 439.24,-99.39 331.19,-76.67 275.49,-69.1"/>
<polygon fill="#63b8ff" stroke="#63b8ff" points="275.97,-65.63 265.62,-67.85 275.1,-72.58 275.97,-65.63"/>
</g>
<!-- Node6 -->
<g id="node6" class="node">
<title>Node6</title>
<g id="a_node6"><a xlink:title=" ">
<polygon fill="#e0e0e0" stroke="#999999" points="265.66,-19 214.66,-19 214.66,0 265.66,0 265.66,-19"/>
<text text-anchor="middle" x="240.16" y="-7" font-family="Helvetica,sans-Serif" font-size="10.00">stddef.h</text>
</a>
</g>
</g>
<!-- Node5&#45;&gt;Node6 -->
<g id="edge5" class="edge">
<title>Node5&#45;&gt;Node6</title>
<path fill="none" stroke="#63b8ff" d="M240.16,-54.75C240.16,-48.27 240.16,-39.16 240.16,-30.9"/>
<polygon fill="#63b8ff" stroke="#63b8ff" points="243.66,-30.96 240.16,-20.96 236.66,-30.96 243.66,-30.96"/>
</g>
<!-- Node7 -->
<g id="node7" class="node">
<title>Node7</title>
<g id="a_node7"><a xlink:href="tamtypes_8h.html" target="_top" xlink:title=" ">
<polygon fill="white" stroke="#666666" points="151.16,-19 87.16,-19 87.16,0 151.16,0 151.16,-19"/>
<text text-anchor="middle" x="119.16" y="-7" font-family="Helvetica,sans-Serif" font-size="10.00">tamtypes.h</text>
</a>
</g>
</g>
<!-- Node5&#45;&gt;Node7 -->
<g id="edge6" class="edge">
<title>Node5&#45;&gt;Node7</title>
<path fill="none" stroke="#63b8ff" d="M219.63,-54.51C200.48,-46.12 171.66,-33.5 149.79,-23.92"/>
<polygon fill="#63b8ff" stroke="#63b8ff" points="151.33,-20.77 140.77,-19.97 148.52,-27.18 151.33,-20.77"/>
</g>
<!-- Node8&#45;&gt;Node3 -->
<g id="edge8" class="edge">
<title>Node8&#45;&gt;Node3</title>
<path fill="none" stroke="#63b8ff" d="M423.75,-219.75C431,-212.35 441.61,-201.54 450.52,-192.45"/>
<polygon fill="#63b8ff" stroke="#63b8ff" points="452.82,-195.11 457.33,-185.52 447.82,-190.21 452.82,-195.11"/>
</g>
<!-- Node9 -->
<g id="node9" class="node">
<title>Node9</title>
<g id="a_node9"><a xlink:href="irx_8h.html" target="_top" xlink:title=" ">
<polygon fill="white" stroke="#666666" points="257.16,-129 223.16,-129 223.16,-110 257.16,-110 257.16,-129"/>
<text text-anchor="middle" x="240.16" y="-117" font-family="Helvetica,sans-Serif" font-size="10.00">irx.h</text>
</a>
</g>
</g>
<!-- Node8&#45;&gt;Node9 -->
<g id="edge9" class="edge">
<title>Node8&#45;&gt;Node9</title>
<path fill="none" stroke="#63b8ff" d="M415.07,-219.79C414.45,-206.17 411.23,-179.88 396.16,-165 361.83,-131.11 303.59,-122.65 268.81,-120.76"/>
<polygon fill="#63b8ff" stroke="#63b8ff" points="269.21,-117.27 259.08,-120.39 268.94,-124.27 269.21,-117.27"/>
</g>
<!-- Node9&#45;&gt;Node5 -->
<g id="edge10" class="edge">
<title>Node9&#45;&gt;Node5</title>
<path fill="none" stroke="#63b8ff" d="M240.16,-109.75C240.16,-103.27 240.16,-94.16 240.16,-85.9"/>
<polygon fill="#63b8ff" stroke="#63b8ff" points="243.66,-85.96 240.16,-75.96 236.66,-85.96 243.66,-85.96"/>
</g>
<!-- Node10&#45;&gt;Node9 -->
<g id="edge12" class="edge">
<title>Node10&#45;&gt;Node9</title>
<path fill="none" stroke="#63b8ff" d="M244.33,-219.75C241.61,-210.86 237.7,-196.64 236.16,-184 234.39,-169.51 235.52,-153.07 237.02,-140.54"/>
<polygon fill="#63b8ff" stroke="#63b8ff" points="240.48,-141.04 238.4,-130.66 233.55,-140.07 240.48,-141.04"/>
</g>
<!-- Node11 -->
<g id="node11" class="node">
<title>Node11</title>
<g id="a_node11"><a xlink:href="loadcore_8h.html" target="_top" xlink:title=" ">
<polygon fill="white" stroke="#666666" points="306.66,-184 245.66,-184 245.66,-165 306.66,-165 306.66,-184"/>
<text text-anchor="middle" x="276.16" y="-172" font-family="Helvetica,sans-Serif" font-size="10.00">loadcore.h</text>
</a>
</g>
</g>
<!-- Node10&#45;&gt;Node11 -->
<g id="edge13" class="edge">
<title>Node10&#45;&gt;Node11</title>
<path fill="none" stroke="#63b8ff" d="M251.95,-219.75C255.7,-212.88 261.07,-203.08 265.79,-194.45"/>
<polygon fill="#63b8ff" stroke="#63b8ff" points="268.81,-196.22 270.54,-185.77 262.67,-192.86 268.81,-196.22"/>
</g>
<!-- Node12 -->
<g id="node12" class="node">
<title>Node12</title>
<g id="a_node12"><a xlink:href="sysmem_8h.html" target="_top" xlink:title=" ">
<polygon fill="white" stroke="#666666" points="188.66,-184 127.66,-184 127.66,-165 188.66,-165 188.66,-184"/>
<text text-anchor="middle" x="158.16" y="-172" font-family="Helvetica,sans-Serif" font-size="10.00">sysmem.h</text>
</a>
</g>
</g>
<!-- Node10&#45;&gt;Node12 -->
<g id="edge16" class="edge">
<title>Node10&#45;&gt;Node12</title>
<path fill="none" stroke="#63b8ff" d="M232.06,-219.51C218.55,-211.47 198.51,-199.53 182.7,-190.11"/>
<polygon fill="#63b8ff" stroke="#63b8ff" points="184.72,-187.24 174.33,-185.13 181.13,-193.26 184.72,-187.24"/>
</g>
<!-- Node13 -->
<g id="node13" class="node">
<title>Node13</title>
<g id="a_node13"><a xlink:href="sysclib_8h.html" target="_top" xlink:title=" ">
<polygon fill="white" stroke="#666666" points="71.16,-184 17.16,-184 17.16,-165 71.16,-165 71.16,-184"/>
<text text-anchor="middle" x="44.16" y="-172" font-family="Helvetica,sans-Serif" font-size="10.00">sysclib.h</text>
</a>
</g>
</g>
<!-- Node10&#45;&gt;Node13 -->
<g id="edge20" class="edge">
<title>Node10&#45;&gt;Node13</title>
<path fill="none" stroke="#63b8ff" d="M212.72,-219.51C176.64,-210.09 120.08,-195.32 82.57,-185.53"/>
<polygon fill="#63b8ff" stroke="#63b8ff" points="83.61,-182.18 73.05,-183.04 81.84,-188.96 83.61,-182.18"/>
</g>
<!-- Node16 -->
<g id="node16" class="node">
<title>Node16</title>
<g id="a_node16"><a xlink:href="thsemap_8h.html" target="_top" xlink:title=" ">
<polygon fill="white" stroke="#666666" points="387.16,-184 325.16,-184 325.16,-165 387.16,-165 387.16,-184"/>
<text text-anchor="middle" x="356.16" y="-172" font-family="Helvetica,sans-Serif" font-size="10.00">thsemap.h</text>
</a>
</g>
</g>
<!-- Node10&#45;&gt;Node16 -->
<g id="edge27" class="edge">
<title>Node10&#45;&gt;Node16</title>
<path fill="none" stroke="#63b8ff" d="M265.65,-219.51C282.66,-211.24 308.15,-198.84 327.75,-189.31"/>
<polygon fill="#63b8ff" stroke="#63b8ff" points="329.12,-192.54 336.58,-185.02 326.06,-186.25 329.12,-192.54"/>
</g>
<!-- Node11&#45;&gt;Node5 -->
<g id="edge14" class="edge">
<title>Node11&#45;&gt;Node5</title>
<path fill="none" stroke="#63b8ff" d="M275.8,-164.62C275.06,-152.1 272.83,-128.71 266.16,-110 262.89,-100.85 257.72,-91.45 252.84,-83.66"/>
<polygon fill="#63b8ff" stroke="#63b8ff" points="255.86,-81.88 247.42,-75.48 250.03,-85.75 255.86,-81.88"/>
</g>
<!-- Node11&#45;&gt;Node9 -->
<g id="edge15" class="edge">
<title>Node11&#45;&gt;Node9</title>
<path fill="none" stroke="#63b8ff" d="M270.21,-164.75C265.45,-157.73 258.6,-147.64 252.64,-138.87"/>
<polygon fill="#63b8ff" stroke="#63b8ff" points="255.6,-137 247.08,-130.69 249.81,-140.93 255.6,-137"/>
</g>
<!-- Node12&#45;&gt;Node2 -->
<g id="edge19" class="edge">
<title>Node12&#45;&gt;Node2</title>
<path fill="none" stroke="#63b8ff" d="M155.35,-164.75C153.22,-158.11 150.21,-148.73 147.51,-140.31"/>
<polygon fill="#63b8ff" stroke="#63b8ff" points="150.88,-139.34 144.49,-130.88 144.21,-141.47 150.88,-139.34"/>
</g>
<!-- Node12&#45;&gt;Node5 -->
<g id="edge17" class="edge">
<title>Node12&#45;&gt;Node5</title>
<path fill="none" stroke="#63b8ff" d="M164.87,-164.66C178.32,-146.94 208.83,-106.77 226.6,-83.35"/>
<polygon fill="#63b8ff" stroke="#63b8ff" points="229.18,-85.75 232.44,-75.67 223.61,-81.51 229.18,-85.75"/>
</g>
<!-- Node12&#45;&gt;Node9 -->
<g id="edge18" class="edge">
<title>Node12&#45;&gt;Node9</title>
<path fill="none" stroke="#63b8ff" d="M172.07,-164.51C184.39,-156.54 202.63,-144.75 217.13,-135.38"/>
<polygon fill="#63b8ff" stroke="#63b8ff" points="218.68,-138.55 225.18,-130.18 214.88,-132.67 218.68,-138.55"/>
</g>
<!-- Node13&#45;&gt;Node2 -->
<g id="edge23" class="edge">
<title>Node13&#45;&gt;Node2</title>
<path fill="none" stroke="#63b8ff" d="M60.61,-164.51C75.47,-156.39 97.6,-144.3 114.9,-134.85"/>
<polygon fill="#63b8ff" stroke="#63b8ff" points="116.52,-137.95 123.62,-130.08 113.17,-131.81 116.52,-137.95"/>
</g>
<!-- Node13&#45;&gt;Node5 -->
<g id="edge21" class="edge">
<title>Node13&#45;&gt;Node5</title>
<path fill="none" stroke="#63b8ff" d="M50.41,-164.82C60.61,-151.26 82.12,-125.03 106.16,-110 137.03,-90.69 177.19,-78.81 205.46,-72.23"/>
<polygon fill="#63b8ff" stroke="#63b8ff" points="205.93,-75.71 214.94,-70.14 204.42,-68.88 205.93,-75.71"/>
</g>
<!-- Node13&#45;&gt;Node9 -->
<g id="edge22" class="edge">
<title>Node13&#45;&gt;Node9</title>
<path fill="none" stroke="#63b8ff" d="M71.41,-166.13C108.49,-156.1 174.51,-138.25 212.04,-128.1"/>
<polygon fill="#63b8ff" stroke="#63b8ff" points="212.51,-131.6 221.24,-125.61 210.68,-124.85 212.51,-131.6"/>
</g>
<!-- Node14 -->
<g id="node14" class="node">
<title>Node14</title>
<g id="a_node14"><a xlink:href="setjmp_8h.html" target="_top" xlink:title=" ">
<polygon fill="white" stroke="#666666" points="55.66,-74 2.66,-74 2.66,-55 55.66,-55 55.66,-74"/>
<text text-anchor="middle" x="29.16" y="-62" font-family="Helvetica,sans-Serif" font-size="10.00">setjmp.h</text>
</a>
</g>
</g>
<!-- Node13&#45;&gt;Node14 -->
<g id="edge24" class="edge">
<title>Node13&#45;&gt;Node14</title>
<path fill="none" stroke="#63b8ff" d="M31.55,-164.55C21.45,-156.54 8.04,-143.81 2.16,-129 -3.99,-113.54 4.48,-96.17 13.52,-83.5"/>
<polygon fill="#63b8ff" stroke="#63b8ff" points="16.24,-85.7 19.68,-75.68 10.74,-81.37 16.24,-85.7"/>
</g>
<!-- Node15 -->
<g id="node15" class="node">
<title>Node15</title>
<g id="a_node15"><a xlink:href="ctype_8h.html" target="_top" xlink:title=" ">
<polygon fill="white" stroke="#666666" points="58.66,-129 11.66,-129 11.66,-110 58.66,-110 58.66,-129"/>
<text text-anchor="middle" x="35.16" y="-117" font-family="Helvetica,sans-Serif" font-size="10.00">ctype.h</text>
</a>
</g>
</g>
<!-- Node13&#45;&gt;Node15 -->
<g id="edge26" class="edge">
<title>Node13&#45;&gt;Node15</title>
<path fill="none" stroke="#63b8ff" d="M42.67,-164.75C41.56,-158.19 39.99,-148.95 38.57,-140.6"/>
<polygon fill="#63b8ff" stroke="#63b8ff" points="42.06,-140.21 36.93,-130.93 35.15,-141.38 42.06,-140.21"/>
</g>
<!-- Node14&#45;&gt;Node7 -->
<g id="edge25" class="edge">
<title>Node14&#45;&gt;Node7</title>
<path fill="none" stroke="#63b8ff" d="M44.43,-54.51C58.08,-46.47 78.36,-34.53 94.34,-25.11"/>
<polygon fill="#63b8ff" stroke="#63b8ff" points="95.97,-28.22 102.81,-20.13 92.42,-22.18 95.97,-28.22"/>
</g>
<!-- Node16&#45;&gt;Node5 -->
<g id="edge28" class="edge">
<title>Node16&#45;&gt;Node5</title>
<path fill="none" stroke="#63b8ff" d="M346.67,-164.66C327.29,-146.62 282.93,-105.32 258.01,-82.12"/>
<polygon fill="#63b8ff" stroke="#63b8ff" points="260.59,-79.74 250.89,-75.49 255.82,-84.87 260.59,-79.74"/>
</g>
<!-- Node16&#45;&gt;Node9 -->
<g id="edge29" class="edge">
<title>Node16&#45;&gt;Node9</title>
<path fill="none" stroke="#63b8ff" d="M336.48,-164.51C317.66,-155.91 289.08,-142.85 267.94,-133.19"/>
<polygon fill="#63b8ff" stroke="#63b8ff" points="269.58,-130.09 259.03,-129.12 266.67,-136.46 269.58,-130.09"/>
</g>
</g>
</svg>
