<?xml version="1.0" encoding="UTF-8" standalone="no"?>
<!DOCTYPE svg PUBLIC "-//W3C//DTD SVG 1.1//EN"
 "http://www.w3.org/Graphics/SVG/1.1/DTD/svg11.dtd">
<!-- Generated by graphviz version 7.0.5 (20221223.1930)
 -->
<!-- Title: iop/dev9/atad/include/atad.h Pages: 1 -->
<!--zoomable 104 -->
<svg id="main" version="1.1" xmlns="http://www.w3.org/2000/svg" xmlns:xlink="http://www.w3.org/1999/xlink" xml:space="preserve" onload="init(evt)">
<style type="text/css"><![CDATA[
.edge:hover path { stroke: red; }
.edge:hover polygon { stroke: red; fill: red; }
]]></style>
<script type="text/javascript"><![CDATA[
var edges = document.getElementsByTagName('g');
if (edges && edges.length) {
  for (var i=0;i<edges.length;i++) {
    if (edges[i].id.substr(0,4)=='edge') {
      edges[i].setAttribute('class','edge');
    }
  }
}
]]></script>
        <defs>
                <circle id="rim" cx="0" cy="0" r="7"/>
                <circle id="rim2" cx="0" cy="0" r="3.5"/>
                <g id="zoomPlus">
                        <use xlink:href="#rim" fill="#404040">
                                <set attributeName="fill" to="#808080" begin="zoomplus.mouseover" end="zoomplus.mouseout"/>
                        </use>
                        <path d="M-4,0h8M0,-4v8" fill="none" stroke="white" stroke-width="1.5" pointer-events="none"/>
                </g>
                <g id="zoomMin">
                        <use xlink:href="#rim" fill="#404040">
                                <set attributeName="fill" to="#808080" begin="zoomminus.mouseover" end="zoomminus.mouseout"/>
                        </use>
                        <path d="M-4,0h8" fill="none" stroke="white" stroke-width="1.5" pointer-events="none"/>
                </g>
                <g id="dirArrow">
                        <path fill="none" stroke="white" stroke-width="1.5" d="M0,-3.0v7 M-2.5,-0.5L0,-3.0L2.5,-0.5"/>
                </g>
               <g id="resetDef">
                       <use xlink:href="#rim2" fill="#404040">
                               <set attributeName="fill" to="#808080" begin="reset.mouseover" end="reset.mouseout"/>
                       </use>
               </g>
        </defs>

<script type="text/javascript">
var viewWidth = 1074;
var viewHeight = 104;
var sectionId = 'dynsection-1';
</script>
<script xlink:href="svgpan.js"/>
<svg id="graph" class="graph">
<g id="viewport">
<title>iop/dev9/atad/include/atad.h</title>
<!-- Node1 -->
<g id="node1" class="node">
<title>Node1</title>
<g id="a_node1"><a xlink:title=" ">
<polygon fill="#999999" stroke="#666666" points="628,-96 519,-96 519,-66 628,-66 628,-96"/>
<text text-anchor="start" x="527" y="-84" font-family="Helvetica,sans-Serif" font-size="10.00">iop/dev9/atad/include</text>
<text text-anchor="middle" x="573.5" y="-73" font-family="Helvetica,sans-Serif" font-size="10.00">/atad.h</text>
</a>
</g>
</g>
<!-- Node2 -->
<g id="node2" class="node">
<title>Node2</title>
<g id="a_node2"><a xlink:href="ps2atad_8c.html" target="_top" xlink:title=" ">
<polygon fill="white" stroke="#666666" points="137,-24.5 0,-24.5 0,-5.5 137,-5.5 137,-24.5"/>
<text text-anchor="middle" x="68.5" y="-12.5" font-family="Helvetica,sans-Serif" font-size="10.00">iop/dev9/atad/src/ps2atad.c</text>
</a>
</g>
</g>
<!-- Node1&#45;&gt;Node2 -->
<g id="edge1" class="edge">
<title>Node1&#45;&gt;Node2</title>
<path fill="none" stroke="#63b8ff" d="M507.34,-73.52C423.27,-64.99 273.78,-48.86 146.5,-30 136.57,-28.53 125.95,-26.76 115.86,-24.98"/>
<polygon fill="#63b8ff" stroke="#63b8ff" points="506.95,-77 517.26,-74.52 507.66,-70.03 506.95,-77"/>
</g>
<!-- Node3 -->
<g id="node3" class="node">
<title>Node3</title>
<g id="a_node3"><a xlink:href="hdproatad_8c_source.html" target="_top" xlink:title=" ">
<polygon fill="white" stroke="#666666" points="259.5,-30 155.5,-30 155.5,0 259.5,0 259.5,-30"/>
<text text-anchor="start" x="163.5" y="-18" font-family="Helvetica,sans-Serif" font-size="10.00">iop/dev9/hdpro_atad</text>
<text text-anchor="middle" x="207.5" y="-7" font-family="Helvetica,sans-Serif" font-size="10.00">/src/hdproatad.c</text>
</a>
</g>
</g>
<!-- Node1&#45;&gt;Node3 -->
<g id="edge2" class="edge">
<title>Node1&#45;&gt;Node3</title>
<path fill="none" stroke="#63b8ff" d="M507.6,-70.43C445.69,-61.14 350.53,-46.12 268.5,-30 265.62,-29.43 262.67,-28.83 259.7,-28.21"/>
<polygon fill="#63b8ff" stroke="#63b8ff" points="506.86,-73.85 517.27,-71.87 507.9,-66.93 506.86,-73.85"/>
</g>
<!-- Node4 -->
<g id="node4" class="node">
<title>Node4</title>
<g id="a_node4"><a xlink:href="hdd_8c_source.html" target="_top" xlink:title=" ">
<polygon fill="white" stroke="#666666" points="387.5,-24.5 277.5,-24.5 277.5,-5.5 387.5,-5.5 387.5,-24.5"/>
<text text-anchor="middle" x="332.5" y="-12.5" font-family="Helvetica,sans-Serif" font-size="10.00">iop/hdd/apa/src/hdd.c</text>
</a>
</g>
</g>
<!-- Node1&#45;&gt;Node4 -->
<g id="edge3" class="edge">
<title>Node1&#45;&gt;Node4</title>
<path fill="none" stroke="#63b8ff" d="M508.07,-62.63C462.24,-50.46 402.87,-34.69 366.25,-24.96"/>
<polygon fill="#63b8ff" stroke="#63b8ff" points="507.09,-65.98 517.65,-65.17 508.88,-59.22 507.09,-65.98"/>
</g>
<!-- Node5 -->
<g id="node5" class="node">
<title>Node5</title>
<g id="a_node5"><a xlink:href="hdd__fio_8c_source.html" target="_top" xlink:title=" ">
<polygon fill="white" stroke="#666666" points="507.5,-30 405.5,-30 405.5,0 507.5,0 507.5,-30"/>
<text text-anchor="start" x="413.5" y="-18" font-family="Helvetica,sans-Serif" font-size="10.00">iop/hdd/apa/src/hdd</text>
<text text-anchor="middle" x="456.5" y="-7" font-family="Helvetica,sans-Serif" font-size="10.00">_fio.c</text>
</a>
</g>
</g>
<!-- Node1&#45;&gt;Node5 -->
<g id="edge4" class="edge">
<title>Node1&#45;&gt;Node5</title>
<path fill="none" stroke="#63b8ff" d="M537.27,-60.18C519.61,-50.52 498.76,-39.12 482.67,-30.31"/>
<polygon fill="#63b8ff" stroke="#63b8ff" points="535.46,-63.18 545.92,-64.91 538.82,-57.04 535.46,-63.18"/>
</g>
<!-- Node6 -->
<g id="node6" class="node">
<title>Node6</title>
<g id="a_node6"><a xlink:href="iop_2hdd_2apa_2src_2irx__imports_8h_source.html" target="_top" xlink:title=" ">
<polygon fill="white" stroke="#666666" points="621.5,-30 525.5,-30 525.5,0 621.5,0 621.5,-30"/>
<text text-anchor="start" x="533.5" y="-18" font-family="Helvetica,sans-Serif" font-size="10.00">iop/hdd/apa/src/irx</text>
<text text-anchor="middle" x="573.5" y="-7" font-family="Helvetica,sans-Serif" font-size="10.00">_imports.h</text>
</a>
</g>
</g>
<!-- Node1&#45;&gt;Node6 -->
<g id="edge5" class="edge">
<title>Node1&#45;&gt;Node6</title>
<path fill="none" stroke="#63b8ff" d="M573.5,-54.39C573.5,-46.13 573.5,-37.28 573.5,-30.16"/>
<polygon fill="#63b8ff" stroke="#63b8ff" points="570,-54.28 573.5,-64.28 577,-54.28 570,-54.28"/>
</g>
<!-- Node7 -->
<g id="node7" class="node">
<title>Node7</title>
<g id="a_node7"><a xlink:href="apa_8c_source.html" target="_top" xlink:title=" ">
<polygon fill="white" stroke="#666666" points="733,-30 640,-30 640,0 733,0 733,-30"/>
<text text-anchor="start" x="648" y="-18" font-family="Helvetica,sans-Serif" font-size="10.00">iop/hdd/libapa/src</text>
<text text-anchor="middle" x="686.5" y="-7" font-family="Helvetica,sans-Serif" font-size="10.00">/apa.c</text>
</a>
</g>
</g>
<!-- Node1&#45;&gt;Node7 -->
<g id="edge6" class="edge">
<title>Node1&#45;&gt;Node7</title>
<path fill="none" stroke="#63b8ff" d="M608.49,-60.18C625.55,-50.52 645.68,-39.12 661.23,-30.31"/>
<polygon fill="#63b8ff" stroke="#63b8ff" points="607.15,-56.92 600.18,-64.89 610.6,-63.01 607.15,-56.92"/>
</g>
<!-- Node8 -->
<g id="node8" class="node">
<title>Node8</title>
<g id="a_node8"><a xlink:href="free_8c_source.html" target="_top" xlink:title=" ">
<polygon fill="white" stroke="#666666" points="844,-30 751,-30 751,0 844,0 844,-30"/>
<text text-anchor="start" x="759" y="-18" font-family="Helvetica,sans-Serif" font-size="10.00">iop/hdd/libapa/src</text>
<text text-anchor="middle" x="797.5" y="-7" font-family="Helvetica,sans-Serif" font-size="10.00">/free.c</text>
</a>
</g>
</g>
<!-- Node1&#45;&gt;Node8 -->
<g id="edge7" class="edge">
<title>Node1&#45;&gt;Node8</title>
<path fill="none" stroke="#63b8ff" d="M635.05,-62.41C671.53,-51.99 717.02,-38.99 750.58,-29.41"/>
<polygon fill="#63b8ff" stroke="#63b8ff" points="634.16,-59.03 625.5,-65.14 636.08,-65.76 634.16,-59.03"/>
</g>
<!-- Node9 -->
<g id="node9" class="node">
<title>Node9</title>
<g id="a_node9"><a xlink:href="libapa_2src_2journal_8c_source.html" target="_top" xlink:title=" ">
<polygon fill="white" stroke="#666666" points="955,-30 862,-30 862,0 955,0 955,-30"/>
<text text-anchor="start" x="870" y="-18" font-family="Helvetica,sans-Serif" font-size="10.00">iop/hdd/libapa/src</text>
<text text-anchor="middle" x="908.5" y="-7" font-family="Helvetica,sans-Serif" font-size="10.00">/journal.c</text>
</a>
</g>
</g>
<!-- Node1&#45;&gt;Node9 -->
<g id="edge8" class="edge">
<title>Node1&#45;&gt;Node9</title>
<path fill="none" stroke="#63b8ff" d="M639.82,-69.55C696.72,-60.25 780.8,-45.72 853.5,-30 856.2,-29.42 858.96,-28.79 861.75,-28.15"/>
<polygon fill="#63b8ff" stroke="#63b8ff" points="639.26,-66.1 629.95,-71.15 640.38,-73 639.26,-66.1"/>
</g>
<!-- Node10 -->
<g id="node10" class="node">
<title>Node10</title>
<g id="a_node10"><a xlink:href="password_8c_source.html" target="_top" xlink:title=" ">
<polygon fill="white" stroke="#666666" points="1066,-30 973,-30 973,0 1066,0 1066,-30"/>
<text text-anchor="start" x="981" y="-18" font-family="Helvetica,sans-Serif" font-size="10.00">iop/hdd/libapa/src</text>
<text text-anchor="middle" x="1019.5" y="-7" font-family="Helvetica,sans-Serif" font-size="10.00">/password.c</text>
</a>
</g>
</g>
<!-- Node1&#45;&gt;Node10 -->
<g id="edge9" class="edge">
<title>Node1&#45;&gt;Node10</title>
<path fill="none" stroke="#63b8ff" d="M639.33,-74.06C717.35,-66.45 851.09,-51.6 964.5,-30 967.21,-29.48 969.99,-28.91 972.78,-28.31"/>
<polygon fill="#63b8ff" stroke="#63b8ff" points="639.35,-70.54 629.74,-74.98 640.03,-77.51 639.35,-70.54"/>
</g>
</g>
</svg>
        <g id="navigator" transform="translate(0 0)" fill="#404254">
                <rect fill="#f2f5e9" fill-opacity="0.5" stroke="#606060" stroke-width=".5" x="0" y="0" width="60" height="60"/>
                <use id="zoomplus" xlink:href="#zoomPlus" x="17" y="9" onmousedown="handleZoom(evt,'in')"/>
                <use id="zoomminus" xlink:href="#zoomMin" x="42" y="9" onmousedown="handleZoom(evt,'out')"/>
                <use id="reset" xlink:href="#resetDef" x="30" y="36" onmousedown="handleReset()"/>
                <g id="arrowUp" xlink:href="#dirArrow" transform="translate(30 24)" onmousedown="handlePan(0,-1)">
                  <use xlink:href="#rim" fill="#404040">
                        <set attributeName="fill" to="#808080" begin="arrowUp.mouseover" end="arrowUp.mouseout"/>
                  </use>
                  <path fill="none" stroke="white" stroke-width="1.5" d="M0,-3.0v7 M-2.5,-0.5L0,-3.0L2.5,-0.5"/>
                </g>
                <g id="arrowRight" xlink:href="#dirArrow" transform="rotate(90) translate(36 -43)" onmousedown="handlePan(1,0)">
                  <use xlink:href="#rim" fill="#404040">
                        <set attributeName="fill" to="#808080" begin="arrowRight.mouseover" end="arrowRight.mouseout"/>
                  </use>
                  <path fill="none" stroke="white" stroke-width="1.5" d="M0,-3.0v7 M-2.5,-0.5L0,-3.0L2.5,-0.5"/>
                </g>
                <g id="arrowDown" xlink:href="#dirArrow" transform="rotate(180) translate(-30 -48)" onmousedown="handlePan(0,1)">
                  <use xlink:href="#rim" fill="#404040">
                        <set attributeName="fill" to="#808080" begin="arrowDown.mouseover" end="arrowDown.mouseout"/>
                  </use>
                  <path fill="none" stroke="white" stroke-width="1.5" d="M0,-3.0v7 M-2.5,-0.5L0,-3.0L2.5,-0.5"/>
                </g>
                <g id="arrowLeft" xlink:href="#dirArrow" transform="rotate(270) translate(-36 17)" onmousedown="handlePan(-1,0)">
                  <use xlink:href="#rim" fill="#404040">
                        <set attributeName="fill" to="#808080" begin="arrowLeft.mouseover" end="arrowLeft.mouseout"/>
                  </use>
                  <path fill="none" stroke="white" stroke-width="1.5" d="M0,-3.0v7 M-2.5,-0.5L0,-3.0L2.5,-0.5"/>
                </g>
        </g>
        <svg viewBox="0 0 15 15" width="100%" height="30px" preserveAspectRatio="xMaxYMin meet">
         <g id="arrow_out" transform="scale(0.3 0.3)">
          <a xlink:href="atad_8h__dep__incl_org.svg" target="_base">
           <rect id="button" ry="5" rx="5" y="6" x="6" height="38" width="38"
                fill="#f2f5e9" fill-opacity="0.5" stroke="#606060" stroke-width="1.0"/>
           <path id="arrow"
             d="M 11.500037,31.436501 C 11.940474,20.09759 22.043105,11.32322 32.158766,21.979434 L 37.068811,17.246167 C 37.068811,17.246167 37.088388,32 37.088388,32 L 22.160133,31.978069 C 22.160133,31.978069 26.997745,27.140456 26.997745,27.140456 C 18.528582,18.264221 13.291696,25.230495 11.500037,31.436501 z"
             style="fill:#404040;"/>
          </a>
         </g>
        </svg>
</svg>
