<?xml version="1.0" encoding="UTF-8" standalone="no"?>
<!DOCTYPE svg PUBLIC "-//W3C//DTD SVG 1.1//EN"
 "http://www.w3.org/Graphics/SVG/1.1/DTD/svg11.dtd">
<!-- Generated by graphviz version 7.0.5 (20221223.1930)
 -->
<!-- Title: iop/dev9/atad/include/atad.h Pages: 1 -->
<svg width="163pt" height="203pt"
 viewBox="0.00 0.00 162.50 203.00" xmlns="http://www.w3.org/2000/svg" xmlns:xlink="http://www.w3.org/1999/xlink">
<g id="graph0" class="graph" transform="scale(1 1) rotate(0) translate(4 199)">
<title>iop/dev9/atad/include/atad.h</title>
<!-- Node1 -->
<g id="node1" class="node">
<title>Node1</title>
<g id="a_node1"><a xlink:title=" ">
<polygon fill="#999999" stroke="#666666" points="109,-195 0,-195 0,-165 109,-165 109,-195"/>
<text text-anchor="start" x="8" y="-183" font-family="Helvetica,sans-Serif" font-size="10.00">iop/dev9/atad/include</text>
<text text-anchor="middle" x="54.5" y="-172" font-family="Helvetica,sans-Serif" font-size="10.00">/atad.h</text>
</a>
</g>
</g>
<!-- Node2 -->
<g id="node2" class="node">
<title>Node2</title>
<g id="a_node2"><a xlink:title=" ">
<polygon fill="#e0e0e0" stroke="#999999" points="49,-129 2,-129 2,-110 49,-110 49,-129"/>
<text text-anchor="middle" x="25.5" y="-117" font-family="Helvetica,sans-Serif" font-size="10.00">types.h</text>
</a>
</g>
</g>
<!-- Node1&#45;&gt;Node2 -->
<g id="edge1" class="edge">
<title>Node1&#45;&gt;Node2</title>
<path fill="none" stroke="#63b8ff" d="M47.33,-164.54C43.55,-156.91 38.86,-147.46 34.8,-139.27"/>
<polygon fill="#63b8ff" stroke="#63b8ff" points="38.05,-137.94 30.47,-130.53 31.78,-141.05 38.05,-137.94"/>
</g>
<!-- Node3 -->
<g id="node3" class="node">
<title>Node3</title>
<g id="a_node3"><a xlink:href="irx_8h.html" target="_top" xlink:title=" ">
<polygon fill="white" stroke="#666666" points="101.5,-129 67.5,-129 67.5,-110 101.5,-110 101.5,-129"/>
<text text-anchor="middle" x="84.5" y="-117" font-family="Helvetica,sans-Serif" font-size="10.00">irx.h</text>
</a>
</g>
</g>
<!-- Node1&#45;&gt;Node3 -->
<g id="edge2" class="edge">
<title>Node1&#45;&gt;Node3</title>
<path fill="none" stroke="#63b8ff" d="M61.92,-164.54C65.83,-156.91 70.68,-147.46 74.87,-139.27"/>
<polygon fill="#63b8ff" stroke="#63b8ff" points="77.91,-141.02 79.36,-130.52 71.68,-137.82 77.91,-141.02"/>
</g>
<!-- Node4 -->
<g id="node4" class="node">
<title>Node4</title>
<g id="a_node4"><a xlink:href="iop_2kernel_2include_2types_8h_source.html" target="_top" xlink:title=" ">
<polygon fill="white" stroke="#666666" points="108,-74 61,-74 61,-55 108,-55 108,-74"/>
<text text-anchor="middle" x="84.5" y="-62" font-family="Helvetica,sans-Serif" font-size="10.00">types.h</text>
</a>
</g>
</g>
<!-- Node3&#45;&gt;Node4 -->
<g id="edge3" class="edge">
<title>Node3&#45;&gt;Node4</title>
<path fill="none" stroke="#63b8ff" d="M84.5,-109.75C84.5,-103.27 84.5,-94.16 84.5,-85.9"/>
<polygon fill="#63b8ff" stroke="#63b8ff" points="88,-85.96 84.5,-75.96 81,-85.96 88,-85.96"/>
</g>
<!-- Node5 -->
<g id="node5" class="node">
<title>Node5</title>
<g id="a_node5"><a xlink:title=" ">
<polygon fill="#e0e0e0" stroke="#999999" points="72,-19 21,-19 21,0 72,0 72,-19"/>
<text text-anchor="middle" x="46.5" y="-7" font-family="Helvetica,sans-Serif" font-size="10.00">stddef.h</text>
</a>
</g>
</g>
<!-- Node4&#45;&gt;Node5 -->
<g id="edge4" class="edge">
<title>Node4&#45;&gt;Node5</title>
<path fill="none" stroke="#63b8ff" d="M78.23,-54.75C73.14,-47.66 65.8,-37.42 59.47,-28.59"/>
<polygon fill="#63b8ff" stroke="#63b8ff" points="62.46,-26.76 53.79,-20.67 56.78,-30.84 62.46,-26.76"/>
</g>
<!-- Node6 -->
<g id="node6" class="node">
<title>Node6</title>
<g id="a_node6"><a xlink:href="tamtypes_8h.html" target="_top" xlink:title=" ">
<polygon fill="white" stroke="#666666" points="154.5,-19 90.5,-19 90.5,0 154.5,0 154.5,-19"/>
<text text-anchor="middle" x="122.5" y="-7" font-family="Helvetica,sans-Serif" font-size="10.00">tamtypes.h</text>
</a>
</g>
</g>
<!-- Node4&#45;&gt;Node6 -->
<g id="edge5" class="edge">
<title>Node4&#45;&gt;Node6</title>
<path fill="none" stroke="#63b8ff" d="M90.77,-54.75C95.86,-47.66 103.2,-37.42 109.53,-28.59"/>
<polygon fill="#63b8ff" stroke="#63b8ff" points="112.22,-30.84 115.21,-20.67 106.54,-26.76 112.22,-30.84"/>
</g>
</g>
</svg>
