<?xml version="1.0" encoding="UTF-8" standalone="no"?>
<!DOCTYPE svg PUBLIC "-//W3C//DTD SVG 1.1//EN"
 "http://www.w3.org/Graphics/SVG/1.1/DTD/svg11.dtd">
<!-- Generated by graphviz version 7.0.5 (20221223.1930)
 -->
<!-- Title: common/include/atahw.h Pages: 1 -->
<svg width="184pt" height="137pt"
 viewBox="0.00 0.00 184.00 137.00" xmlns="http://www.w3.org/2000/svg" xmlns:xlink="http://www.w3.org/1999/xlink">
<g id="graph0" class="graph" transform="scale(1 1) rotate(0) translate(4 133)">
<title>common/include/atahw.h</title>
<!-- Node1 -->
<g id="node1" class="node">
<title>Node1</title>
<g id="a_node1"><a xlink:title=" ">
<polygon fill="#999999" stroke="#666666" points="125,-129 0,-129 0,-110 125,-110 125,-129"/>
<text text-anchor="middle" x="62.5" y="-117" font-family="Helvetica,sans-Serif" font-size="10.00">common/include/atahw.h</text>
</a>
</g>
</g>
<!-- Node2 -->
<g id="node2" class="node">
<title>Node2</title>
<g id="a_node2"><a xlink:href="tamtypes_8h.html" target="_top" xlink:title=" ">
<polygon fill="white" stroke="#666666" points="94.5,-19 30.5,-19 30.5,0 94.5,0 94.5,-19"/>
<text text-anchor="middle" x="62.5" y="-7" font-family="Helvetica,sans-Serif" font-size="10.00">tamtypes.h</text>
</a>
</g>
</g>
<!-- Node1&#45;&gt;Node2 -->
<g id="edge1" class="edge">
<title>Node1&#45;&gt;Node2</title>
<path fill="none" stroke="#63b8ff" d="M52.34,-109.81C43.6,-101.6 31.6,-88.43 26.5,-74 20.58,-57.27 31.91,-39.85 43.38,-27.49"/>
<polygon fill="#63b8ff" stroke="#63b8ff" points="45.78,-30.05 50.44,-20.54 40.86,-25.06 45.78,-30.05"/>
</g>
<!-- Node3 -->
<g id="node3" class="node">
<title>Node3</title>
<g id="a_node3"><a xlink:href="aifregs_8h.html" target="_top" xlink:title=" ">
<polygon fill="white" stroke="#666666" points="89,-74 36,-74 36,-55 89,-55 89,-74"/>
<text text-anchor="middle" x="62.5" y="-62" font-family="Helvetica,sans-Serif" font-size="10.00">aifregs.h</text>
</a>
</g>
</g>
<!-- Node1&#45;&gt;Node3 -->
<g id="edge2" class="edge">
<title>Node1&#45;&gt;Node3</title>
<path fill="none" stroke="#63b8ff" d="M62.5,-109.75C62.5,-103.27 62.5,-94.16 62.5,-85.9"/>
<polygon fill="#63b8ff" stroke="#63b8ff" points="66,-85.96 62.5,-75.96 59,-85.96 66,-85.96"/>
</g>
<!-- Node4 -->
<g id="node4" class="node">
<title>Node4</title>
<g id="a_node4"><a xlink:href="speedregs_8h.html" target="_top" xlink:title=" ">
<polygon fill="white" stroke="#666666" points="176,-74 107,-74 107,-55 176,-55 176,-74"/>
<text text-anchor="middle" x="141.5" y="-62" font-family="Helvetica,sans-Serif" font-size="10.00">speedregs.h</text>
</a>
</g>
</g>
<!-- Node1&#45;&gt;Node4 -->
<g id="edge4" class="edge">
<title>Node1&#45;&gt;Node4</title>
<path fill="none" stroke="#63b8ff" d="M75.9,-109.51C87.66,-101.62 105.01,-89.98 118.91,-80.65"/>
<polygon fill="#63b8ff" stroke="#63b8ff" points="120.69,-83.68 127.04,-75.2 116.79,-77.87 120.69,-83.68"/>
</g>
<!-- Node3&#45;&gt;Node2 -->
<g id="edge3" class="edge">
<title>Node3&#45;&gt;Node2</title>
<path fill="none" stroke="#63b8ff" d="M62.5,-54.75C62.5,-48.27 62.5,-39.16 62.5,-30.9"/>
<polygon fill="#63b8ff" stroke="#63b8ff" points="66,-30.96 62.5,-20.96 59,-30.96 66,-30.96"/>
</g>
<!-- Node4&#45;&gt;Node2 -->
<g id="edge5" class="edge">
<title>Node4&#45;&gt;Node2</title>
<path fill="none" stroke="#63b8ff" d="M128.1,-54.51C116.34,-46.62 98.99,-34.98 85.09,-25.65"/>
<polygon fill="#63b8ff" stroke="#63b8ff" points="87.21,-22.87 76.96,-20.2 83.31,-28.68 87.21,-22.87"/>
</g>
</g>
</svg>
