<?xml version="1.0" encoding="UTF-8" standalone="no"?>
<!DOCTYPE svg PUBLIC "-//W3C//DTD SVG 1.1//EN"
 "http://www.w3.org/Graphics/SVG/1.1/DTD/svg11.dtd">
<!-- Generated by graphviz version 7.0.5 (20221223.1930)
 -->
<!-- Title: iop/sound/audsrv/src/audsrv.c Pages: 1 -->
<!--zoomable 258 -->
<svg id="main" version="1.1" xmlns="http://www.w3.org/2000/svg" xmlns:xlink="http://www.w3.org/1999/xlink" xml:space="preserve" onload="init(evt)">
<style type="text/css"><![CDATA[
.edge:hover path { stroke: red; }
.edge:hover polygon { stroke: red; fill: red; }
]]></style>
<script type="text/javascript"><![CDATA[
var edges = document.getElementsByTagName('g');
if (edges && edges.length) {
  for (var i=0;i<edges.length;i++) {
    if (edges[i].id.substr(0,4)=='edge') {
      edges[i].setAttribute('class','edge');
    }
  }
}
]]></script>
        <defs>
                <circle id="rim" cx="0" cy="0" r="7"/>
                <circle id="rim2" cx="0" cy="0" r="3.5"/>
                <g id="zoomPlus">
                        <use xlink:href="#rim" fill="#404040">
                                <set attributeName="fill" to="#808080" begin="zoomplus.mouseover" end="zoomplus.mouseout"/>
                        </use>
                        <path d="M-4,0h8M0,-4v8" fill="none" stroke="white" stroke-width="1.5" pointer-events="none"/>
                </g>
                <g id="zoomMin">
                        <use xlink:href="#rim" fill="#404040">
                                <set attributeName="fill" to="#808080" begin="zoomminus.mouseover" end="zoomminus.mouseout"/>
                        </use>
                        <path d="M-4,0h8" fill="none" stroke="white" stroke-width="1.5" pointer-events="none"/>
                </g>
                <g id="dirArrow">
                        <path fill="none" stroke="white" stroke-width="1.5" d="M0,-3.0v7 M-2.5,-0.5L0,-3.0L2.5,-0.5"/>
                </g>
               <g id="resetDef">
                       <use xlink:href="#rim2" fill="#404040">
                               <set attributeName="fill" to="#808080" begin="reset.mouseover" end="reset.mouseout"/>
                       </use>
               </g>
        </defs>

<script type="text/javascript">
var viewWidth = 1282;
var viewHeight = 258;
var sectionId = 'dynsection-0';
</script>
<script xlink:href="svgpan.js"/>
<svg id="graph" class="graph">
<g id="viewport">
<title>iop/sound/audsrv/src/audsrv.c</title>
<!-- Node1 -->
<g id="node1" class="node">
<title>Node1</title>
<g id="a_node1"><a xlink:title=" ">
<polygon fill="#999999" stroke="#666666" points="662,-250 555,-250 555,-220 662,-220 662,-250"/>
<text text-anchor="start" x="563" y="-238" font-family="Helvetica,sans-Serif" font-size="10.00">iop/sound/audsrv/src</text>
<text text-anchor="middle" x="608.5" y="-227" font-family="Helvetica,sans-Serif" font-size="10.00">/audsrv.c</text>
</a>
</g>
</g>
<!-- Node2 -->
<g id="node2" class="node">
<title>Node2</title>
<g id="a_node2"><a xlink:href="stdio_8h.html" target="_top" xlink:title=" ">
<polygon fill="white" stroke="#666666" points="430,-184 385,-184 385,-165 430,-165 430,-184"/>
<text text-anchor="middle" x="407.5" y="-172" font-family="Helvetica,sans-Serif" font-size="10.00">stdio.h</text>
</a>
</g>
</g>
<!-- Node1&#45;&gt;Node2 -->
<g id="edge1" class="edge">
<title>Node1&#45;&gt;Node2</title>
<path fill="none" stroke="#63b8ff" d="M558.81,-219.54C522.27,-208.9 473.55,-194.72 441.39,-185.36"/>
<polygon fill="#63b8ff" stroke="#63b8ff" points="442.37,-182 431.79,-182.57 440.42,-188.73 442.37,-182"/>
</g>
<!-- Node8 -->
<g id="node8" class="node">
<title>Node8</title>
<g id="a_node8"><a xlink:href="thbase_8h.html" target="_top" xlink:title=" ">
<polygon fill="white" stroke="#666666" points="207,-184 154,-184 154,-165 207,-165 207,-184"/>
<text text-anchor="middle" x="180.5" y="-172" font-family="Helvetica,sans-Serif" font-size="10.00">thbase.h</text>
</a>
</g>
</g>
<!-- Node1&#45;&gt;Node8 -->
<g id="edge7" class="edge">
<title>Node1&#45;&gt;Node8</title>
<path fill="none" stroke="#63b8ff" d="M554.65,-228.94C480.99,-221.62 344.5,-206.64 218.19,-184.11"/>
<polygon fill="#63b8ff" stroke="#63b8ff" points="219.12,-180.73 208.66,-182.4 217.88,-187.62 219.12,-180.73"/>
</g>
<!-- Node9 -->
<g id="node9" class="node">
<title>Node9</title>
<g id="a_node9"><a xlink:href="thsemap_8h.html" target="_top" xlink:title=" ">
<polygon fill="white" stroke="#666666" points="287.5,-184 225.5,-184 225.5,-165 287.5,-165 287.5,-184"/>
<text text-anchor="middle" x="256.5" y="-172" font-family="Helvetica,sans-Serif" font-size="10.00">thsemap.h</text>
</a>
</g>
</g>
<!-- Node1&#45;&gt;Node9 -->
<g id="edge10" class="edge">
<title>Node1&#45;&gt;Node9</title>
<path fill="none" stroke="#63b8ff" d="M554.72,-226.1C494.92,-217.16 395.2,-201.74 298.92,-184.18"/>
<polygon fill="#63b8ff" stroke="#63b8ff" points="299.77,-180.78 289.3,-182.42 298.5,-187.66 299.77,-180.78"/>
</g>
<!-- Node10 -->
<g id="node10" class="node">
<title>Node10</title>
<g id="a_node10"><a xlink:href="loadcore_8h.html" target="_top" xlink:title=" ">
<polygon fill="white" stroke="#666666" points="61,-184 0,-184 0,-165 61,-165 61,-184"/>
<text text-anchor="middle" x="30.5" y="-172" font-family="Helvetica,sans-Serif" font-size="10.00">loadcore.h</text>
</a>
</g>
</g>
<!-- Node1&#45;&gt;Node10 -->
<g id="edge13" class="edge">
<title>Node1&#45;&gt;Node10</title>
<path fill="none" stroke="#63b8ff" d="M554.8,-231.09C459.65,-225.48 255.1,-211.39 72.6,-184.14"/>
<polygon fill="#63b8ff" stroke="#63b8ff" points="73.35,-180.71 62.94,-182.67 72.3,-187.63 73.35,-180.71"/>
</g>
<!-- Node11 -->
<g id="node11" class="node">
<title>Node11</title>
<g id="a_node11"><a xlink:href="sysmem_8h.html" target="_top" xlink:title=" ">
<polygon fill="white" stroke="#666666" points="367,-184 306,-184 306,-165 367,-165 367,-184"/>
<text text-anchor="middle" x="336.5" y="-172" font-family="Helvetica,sans-Serif" font-size="10.00">sysmem.h</text>
</a>
</g>
</g>
<!-- Node1&#45;&gt;Node11 -->
<g id="edge16" class="edge">
<title>Node1&#45;&gt;Node11</title>
<path fill="none" stroke="#63b8ff" d="M554.76,-222.44C502.98,-211.31 425.73,-194.69 378.37,-184.5"/>
<polygon fill="#63b8ff" stroke="#63b8ff" points="379.28,-181.12 368.77,-182.44 377.81,-187.97 379.28,-181.12"/>
</g>
<!-- Node12 -->
<g id="node12" class="node">
<title>Node12</title>
<g id="a_node12"><a xlink:href="intrman_8h.html" target="_top" xlink:title=" ">
<polygon fill="white" stroke="#666666" points="135.5,-184 79.5,-184 79.5,-165 135.5,-165 135.5,-184"/>
<text text-anchor="middle" x="107.5" y="-172" font-family="Helvetica,sans-Serif" font-size="10.00">intrman.h</text>
</a>
</g>
</g>
<!-- Node1&#45;&gt;Node12 -->
<g id="edge20" class="edge">
<title>Node1&#45;&gt;Node12</title>
<path fill="none" stroke="#63b8ff" d="M554.63,-230.28C469.89,-223.97 300.11,-209.49 146.73,-184.18"/>
<polygon fill="#63b8ff" stroke="#63b8ff" points="147.65,-180.79 137.21,-182.59 146.49,-187.69 147.65,-180.79"/>
</g>
<!-- Node13 -->
<g id="node13" class="node">
<title>Node13</title>
<g id="a_node13"><a xlink:title=" ">
<polygon fill="#e0e0e0" stroke="#999999" points="501,-184 448,-184 448,-165 501,-165 501,-184"/>
<text text-anchor="middle" x="474.5" y="-172" font-family="Helvetica,sans-Serif" font-size="10.00">sifcmd.h</text>
</a>
</g>
</g>
<!-- Node1&#45;&gt;Node13 -->
<g id="edge23" class="edge">
<title>Node1&#45;&gt;Node13</title>
<path fill="none" stroke="#63b8ff" d="M575.38,-219.54C553.86,-210.15 526.02,-197.99 505.04,-188.83"/>
<polygon fill="#63b8ff" stroke="#63b8ff" points="506.72,-185.75 496.15,-184.95 503.91,-192.16 506.72,-185.75"/>
</g>
<!-- Node14 -->
<g id="node14" class="node">
<title>Node14</title>
<g id="a_node14"><a xlink:title=" ">
<polygon fill="#e0e0e0" stroke="#999999" points="563.5,-184 519.5,-184 519.5,-165 563.5,-165 563.5,-184"/>
<text text-anchor="middle" x="541.5" y="-172" font-family="Helvetica,sans-Serif" font-size="10.00">libsd.h</text>
</a>
</g>
</g>
<!-- Node1&#45;&gt;Node14 -->
<g id="edge24" class="edge">
<title>Node1&#45;&gt;Node14</title>
<path fill="none" stroke="#63b8ff" d="M591.94,-219.54C582.21,-211.04 569.89,-200.29 559.86,-191.53"/>
<polygon fill="#63b8ff" stroke="#63b8ff" points="562.41,-189.11 552.58,-185.17 557.81,-194.38 562.41,-189.11"/>
</g>
<!-- Node15 -->
<g id="node15" class="node">
<title>Node15</title>
<g id="a_node15"><a xlink:href="sysclib_8h.html" target="_top" xlink:title=" ">
<polygon fill="white" stroke="#666666" points="635.5,-184 581.5,-184 581.5,-165 635.5,-165 635.5,-184"/>
<text text-anchor="middle" x="608.5" y="-172" font-family="Helvetica,sans-Serif" font-size="10.00">sysclib.h</text>
</a>
</g>
</g>
<!-- Node1&#45;&gt;Node15 -->
<g id="edge25" class="edge">
<title>Node1&#45;&gt;Node15</title>
<path fill="none" stroke="#63b8ff" d="M608.5,-219.54C608.5,-212.34 608.5,-203.53 608.5,-195.68"/>
<polygon fill="#63b8ff" stroke="#63b8ff" points="612,-195.69 608.5,-185.69 605,-195.69 612,-195.69"/>
</g>
<!-- Node18 -->
<g id="node18" class="node">
<title>Node18</title>
<g id="a_node18"><a xlink:title=" ">
<polygon fill="#e0e0e0" stroke="#999999" points="707,-184 654,-184 654,-165 707,-165 707,-184"/>
<text text-anchor="middle" x="680.5" y="-172" font-family="Helvetica,sans-Serif" font-size="10.00">audsrv.h</text>
</a>
</g>
</g>
<!-- Node1&#45;&gt;Node18 -->
<g id="edge32" class="edge">
<title>Node1&#45;&gt;Node18</title>
<path fill="none" stroke="#63b8ff" d="M626.3,-219.54C636.86,-210.96 650.26,-200.07 661.1,-191.26"/>
<polygon fill="#63b8ff" stroke="#63b8ff" points="663.09,-194.15 668.65,-185.13 658.68,-188.72 663.09,-194.15"/>
</g>
<!-- Node19 -->
<g id="node19" class="node">
<title>Node19</title>
<g id="a_node19"><a xlink:href="audsrv__internal_8h.html" target="_top" xlink:title=" ">
<polygon fill="white" stroke="#666666" points="815.5,-184 725.5,-184 725.5,-165 815.5,-165 815.5,-184"/>
<text text-anchor="middle" x="770.5" y="-172" font-family="Helvetica,sans-Serif" font-size="10.00">audsrv_internal.h</text>
</a>
</g>
</g>
<!-- Node1&#45;&gt;Node19 -->
<g id="edge33" class="edge">
<title>Node1&#45;&gt;Node19</title>
<path fill="none" stroke="#63b8ff" d="M648.54,-219.54C675.15,-209.93 709.76,-197.43 735.31,-188.21"/>
<polygon fill="#63b8ff" stroke="#63b8ff" points="736.36,-191.55 744.58,-184.86 733.99,-184.96 736.36,-191.55"/>
</g>
<!-- Node20 -->
<g id="node20" class="node">
<title>Node20</title>
<g id="a_node20"><a xlink:href="iop_2sound_2audsrv_2src_2common_8h.html" target="_top" xlink:title=" ">
<polygon fill="white" stroke="#666666" points="895.5,-184 833.5,-184 833.5,-165 895.5,-165 895.5,-184"/>
<text text-anchor="middle" x="864.5" y="-172" font-family="Helvetica,sans-Serif" font-size="10.00">common.h</text>
</a>
</g>
</g>
<!-- Node1&#45;&gt;Node20 -->
<g id="edge34" class="edge">
<title>Node1&#45;&gt;Node20</title>
<path fill="none" stroke="#63b8ff" d="M662.48,-221.67C710.01,-210.8 778.3,-195.2 822.03,-185.2"/>
<polygon fill="#63b8ff" stroke="#63b8ff" points="822.69,-188.64 831.66,-183 821.13,-181.82 822.69,-188.64"/>
</g>
<!-- Node21 -->
<g id="node21" class="node">
<title>Node21</title>
<g id="a_node21"><a xlink:href="iop_2sound_2audsrv_2src_2rpc__server_8h.html" target="_top" xlink:title=" ">
<polygon fill="white" stroke="#666666" points="983.5,-184 913.5,-184 913.5,-165 983.5,-165 983.5,-184"/>
<text text-anchor="middle" x="948.5" y="-172" font-family="Helvetica,sans-Serif" font-size="10.00">rpc_server.h</text>
</a>
</g>
</g>
<!-- Node1&#45;&gt;Node21 -->
<g id="edge35" class="edge">
<title>Node1&#45;&gt;Node21</title>
<path fill="none" stroke="#63b8ff" d="M662.31,-225.3C719.3,-216 812.2,-200.59 902.21,-184.38"/>
<polygon fill="#63b8ff" stroke="#63b8ff" points="902.74,-187.84 911.96,-182.62 901.5,-180.95 902.74,-187.84"/>
</g>
<!-- Node22 -->
<g id="node22" class="node">
<title>Node22</title>
<g id="a_node22"><a xlink:href="iop_2sound_2audsrv_2src_2rpc__client_8h.html" target="_top" xlink:title=" ">
<polygon fill="white" stroke="#666666" points="1067.5,-184 1001.5,-184 1001.5,-165 1067.5,-165 1067.5,-184"/>
<text text-anchor="middle" x="1034.5" y="-172" font-family="Helvetica,sans-Serif" font-size="10.00">rpc_client.h</text>
</a>
</g>
</g>
<!-- Node1&#45;&gt;Node22 -->
<g id="edge36" class="edge">
<title>Node1&#45;&gt;Node22</title>
<path fill="none" stroke="#63b8ff" d="M662.41,-228.19C734.69,-220.13 867.22,-204.42 989.98,-184.32"/>
<polygon fill="#63b8ff" stroke="#63b8ff" points="990.28,-187.82 999.58,-182.73 989.14,-180.91 990.28,-187.82"/>
</g>
<!-- Node23 -->
<g id="node23" class="node">
<title>Node23</title>
<g id="a_node23"><a xlink:href="upsamplers_8h.html" target="_top" xlink:title=" ">
<polygon fill="white" stroke="#666666" points="1159.5,-184 1085.5,-184 1085.5,-165 1159.5,-165 1159.5,-184"/>
<text text-anchor="middle" x="1122.5" y="-172" font-family="Helvetica,sans-Serif" font-size="10.00">upsamplers.h</text>
</a>
</g>
</g>
<!-- Node1&#45;&gt;Node23 -->
<g id="edge37" class="edge">
<title>Node1&#45;&gt;Node23</title>
<path fill="none" stroke="#63b8ff" d="M662.36,-229.59C747.56,-222.32 918.84,-206.51 1073.99,-184.26"/>
<polygon fill="#63b8ff" stroke="#63b8ff" points="1074.24,-187.76 1083.64,-182.87 1073.24,-180.84 1074.24,-187.76"/>
</g>
<!-- Node24 -->
<g id="node24" class="node">
<title>Node24</title>
<g id="a_node24"><a xlink:href="hw_8h.html" target="_top" xlink:title=" ">
<polygon fill="white" stroke="#666666" points="1215,-184 1178,-184 1178,-165 1215,-165 1215,-184"/>
<text text-anchor="middle" x="1196.5" y="-172" font-family="Helvetica,sans-Serif" font-size="10.00">hw.h</text>
</a>
</g>
</g>
<!-- Node1&#45;&gt;Node24 -->
<g id="edge38" class="edge">
<title>Node1&#45;&gt;Node24</title>
<path fill="none" stroke="#63b8ff" d="M662.29,-232.87C760.76,-230 976.59,-220.04 1166.62,-183.93"/>
<polygon fill="#63b8ff" stroke="#63b8ff" points="1167.01,-187.42 1176.17,-182.08 1165.69,-180.54 1167.01,-187.42"/>
</g>
<!-- Node25 -->
<g id="node25" class="node">
<title>Node25</title>
<g id="a_node25"><a xlink:href="spu_8h.html" target="_top" xlink:title=" ">
<polygon fill="white" stroke="#666666" points="1273.5,-184 1233.5,-184 1233.5,-165 1273.5,-165 1273.5,-184"/>
<text text-anchor="middle" x="1253.5" y="-172" font-family="Helvetica,sans-Serif" font-size="10.00">spu.h</text>
</a>
</g>
</g>
<!-- Node1&#45;&gt;Node25 -->
<g id="edge39" class="edge">
<title>Node1&#45;&gt;Node25</title>
<path fill="none" stroke="#63b8ff" d="M662.13,-233.32C767.79,-231.18 1010.31,-222.36 1221.71,-184.14"/>
<polygon fill="#63b8ff" stroke="#63b8ff" points="1222.34,-187.59 1231.54,-182.34 1221.07,-180.7 1222.34,-187.59"/>
</g>
<!-- Node3 -->
<g id="node3" class="node">
<title>Node3</title>
<g id="a_node3"><a xlink:title=" ">
<polygon fill="#e0e0e0" stroke="#999999" points="433,-129 382,-129 382,-110 433,-110 433,-129"/>
<text text-anchor="middle" x="407.5" y="-117" font-family="Helvetica,sans-Serif" font-size="10.00">stdarg.h</text>
</a>
</g>
</g>
<!-- Node2&#45;&gt;Node3 -->
<g id="edge2" class="edge">
<title>Node2&#45;&gt;Node3</title>
<path fill="none" stroke="#63b8ff" d="M407.5,-164.75C407.5,-158.27 407.5,-149.16 407.5,-140.9"/>
<polygon fill="#63b8ff" stroke="#63b8ff" points="411,-140.96 407.5,-130.96 404,-140.96 411,-140.96"/>
</g>
<!-- Node4 -->
<g id="node4" class="node">
<title>Node4</title>
<g id="a_node4"><a xlink:href="irx_8h.html" target="_top" xlink:title=" ">
<polygon fill="white" stroke="#666666" points="249.5,-129 215.5,-129 215.5,-110 249.5,-110 249.5,-129"/>
<text text-anchor="middle" x="232.5" y="-117" font-family="Helvetica,sans-Serif" font-size="10.00">irx.h</text>
</a>
</g>
</g>
<!-- Node2&#45;&gt;Node4 -->
<g id="edge3" class="edge">
<title>Node2&#45;&gt;Node4</title>
<path fill="none" stroke="#63b8ff" d="M384.62,-166.57C352.74,-156.92 295,-139.43 260.56,-129"/>
<polygon fill="#63b8ff" stroke="#63b8ff" points="261.88,-125.74 251.3,-126.19 259.85,-132.44 261.88,-125.74"/>
</g>
<!-- Node5 -->
<g id="node5" class="node">
<title>Node5</title>
<g id="a_node5"><a xlink:href="iop_2kernel_2include_2types_8h_source.html" target="_top" xlink:title=" ">
<polygon fill="white" stroke="#666666" points="278,-74 231,-74 231,-55 278,-55 278,-74"/>
<text text-anchor="middle" x="254.5" y="-62" font-family="Helvetica,sans-Serif" font-size="10.00">types.h</text>
</a>
</g>
</g>
<!-- Node4&#45;&gt;Node5 -->
<g id="edge4" class="edge">
<title>Node4&#45;&gt;Node5</title>
<path fill="none" stroke="#63b8ff" d="M236.13,-109.75C238.92,-103.04 242.87,-93.52 246.4,-85.02"/>
<polygon fill="#63b8ff" stroke="#63b8ff" points="249.61,-86.42 250.21,-75.84 243.14,-83.73 249.61,-86.42"/>
</g>
<!-- Node6 -->
<g id="node6" class="node">
<title>Node6</title>
<g id="a_node6"><a xlink:title=" ">
<polygon fill="#e0e0e0" stroke="#999999" points="280,-19 229,-19 229,0 280,0 280,-19"/>
<text text-anchor="middle" x="254.5" y="-7" font-family="Helvetica,sans-Serif" font-size="10.00">stddef.h</text>
</a>
</g>
</g>
<!-- Node5&#45;&gt;Node6 -->
<g id="edge5" class="edge">
<title>Node5&#45;&gt;Node6</title>
<path fill="none" stroke="#63b8ff" d="M254.5,-54.75C254.5,-48.27 254.5,-39.16 254.5,-30.9"/>
<polygon fill="#63b8ff" stroke="#63b8ff" points="258,-30.96 254.5,-20.96 251,-30.96 258,-30.96"/>
</g>
<!-- Node7 -->
<g id="node7" class="node">
<title>Node7</title>
<g id="a_node7"><a xlink:href="tamtypes_8h.html" target="_top" xlink:title=" ">
<polygon fill="white" stroke="#666666" points="490.5,-19 426.5,-19 426.5,0 490.5,0 490.5,-19"/>
<text text-anchor="middle" x="458.5" y="-7" font-family="Helvetica,sans-Serif" font-size="10.00">tamtypes.h</text>
</a>
</g>
</g>
<!-- Node5&#45;&gt;Node7 -->
<g id="edge6" class="edge">
<title>Node5&#45;&gt;Node7</title>
<path fill="none" stroke="#63b8ff" d="M278.3,-57.32C311.8,-48.61 373.44,-32.6 415.19,-21.75"/>
<polygon fill="#63b8ff" stroke="#63b8ff" points="415.87,-25.19 424.67,-19.29 414.11,-18.42 415.87,-25.19"/>
</g>
<!-- Node8&#45;&gt;Node4 -->
<g id="edge9" class="edge">
<title>Node8&#45;&gt;Node4</title>
<path fill="none" stroke="#63b8ff" d="M189.09,-164.75C196.34,-157.35 206.95,-146.54 215.87,-137.45"/>
<polygon fill="#63b8ff" stroke="#63b8ff" points="218.16,-140.11 222.67,-130.52 213.16,-135.21 218.16,-140.11"/>
</g>
<!-- Node8&#45;&gt;Node5 -->
<g id="edge8" class="edge">
<title>Node8&#45;&gt;Node5</title>
<path fill="none" stroke="#63b8ff" d="M182.79,-164.69C186.4,-151.86 194.29,-127.63 206.5,-110 213.97,-99.21 224.48,-89.1 233.75,-81.25"/>
<polygon fill="#63b8ff" stroke="#63b8ff" points="235.7,-84.17 241.28,-75.16 231.3,-78.73 235.7,-84.17"/>
</g>
<!-- Node9&#45;&gt;Node4 -->
<g id="edge12" class="edge">
<title>Node9&#45;&gt;Node4</title>
<path fill="none" stroke="#63b8ff" d="M252.54,-164.75C249.46,-157.96 245.09,-148.3 241.21,-139.73"/>
<polygon fill="#63b8ff" stroke="#63b8ff" points="244.49,-138.49 237.17,-130.82 238.11,-141.37 244.49,-138.49"/>
</g>
<!-- Node9&#45;&gt;Node5 -->
<g id="edge11" class="edge">
<title>Node9&#45;&gt;Node5</title>
<path fill="none" stroke="#63b8ff" d="M257.19,-164.87C258.07,-152.65 259.38,-129.61 258.5,-110 258.14,-102.06 257.43,-93.34 256.71,-85.74"/>
<polygon fill="#63b8ff" stroke="#63b8ff" points="260.19,-85.44 255.69,-75.86 253.23,-86.16 260.19,-85.44"/>
</g>
<!-- Node10&#45;&gt;Node4 -->
<g id="edge15" class="edge">
<title>Node10&#45;&gt;Node4</title>
<path fill="none" stroke="#63b8ff" d="M61.18,-165.45C100.09,-155.24 166.64,-137.78 204.32,-127.89"/>
<polygon fill="#63b8ff" stroke="#63b8ff" points="204.77,-131.39 213.56,-125.47 203,-124.62 204.77,-131.39"/>
</g>
<!-- Node10&#45;&gt;Node5 -->
<g id="edge14" class="edge">
<title>Node10&#45;&gt;Node5</title>
<path fill="none" stroke="#63b8ff" d="M48.71,-164.64C74,-152.34 121.2,-129.41 161.5,-110 182.97,-99.66 207.26,-88.04 225.63,-79.27"/>
<polygon fill="#63b8ff" stroke="#63b8ff" points="227.08,-82.46 234.59,-74.99 224.06,-76.14 227.08,-82.46"/>
</g>
<!-- Node11&#45;&gt;Node3 -->
<g id="edge19" class="edge">
<title>Node11&#45;&gt;Node3</title>
<path fill="none" stroke="#63b8ff" d="M348.54,-164.51C358.91,-156.77 374.1,-145.43 386.47,-136.2"/>
<polygon fill="#63b8ff" stroke="#63b8ff" points="388.5,-139.05 394.42,-130.26 384.31,-133.44 388.5,-139.05"/>
</g>
<!-- Node11&#45;&gt;Node4 -->
<g id="edge18" class="edge">
<title>Node11&#45;&gt;Node4</title>
<path fill="none" stroke="#63b8ff" d="M318.86,-164.51C302.77,-156.31 278.75,-144.07 260.13,-134.58"/>
<polygon fill="#63b8ff" stroke="#63b8ff" points="261.73,-131.47 251.23,-130.05 258.55,-137.7 261.73,-131.47"/>
</g>
<!-- Node11&#45;&gt;Node5 -->
<g id="edge17" class="edge">
<title>Node11&#45;&gt;Node5</title>
<path fill="none" stroke="#63b8ff" d="M329.79,-164.66C316.34,-146.94 285.83,-106.77 268.06,-83.35"/>
<polygon fill="#63b8ff" stroke="#63b8ff" points="271.05,-81.51 262.22,-75.67 265.48,-85.75 271.05,-81.51"/>
</g>
<!-- Node12&#45;&gt;Node4 -->
<g id="edge22" class="edge">
<title>Node12&#45;&gt;Node4</title>
<path fill="none" stroke="#63b8ff" d="M128.7,-164.51C149.66,-155.63 181.81,-141.99 204.78,-132.25"/>
<polygon fill="#63b8ff" stroke="#63b8ff" points="205.99,-135.54 213.83,-128.42 203.26,-129.1 205.99,-135.54"/>
</g>
<!-- Node12&#45;&gt;Node5 -->
<g id="edge21" class="edge">
<title>Node12&#45;&gt;Node5</title>
<path fill="none" stroke="#63b8ff" d="M119.1,-164.55C135.22,-152.14 165.38,-129.09 191.5,-110 205.01,-100.12 220.35,-89.28 232.51,-80.77"/>
<polygon fill="#63b8ff" stroke="#63b8ff" points="234.42,-83.7 240.62,-75.11 230.42,-77.96 234.42,-83.7"/>
</g>
<!-- Node15&#45;&gt;Node3 -->
<g id="edge28" class="edge">
<title>Node15&#45;&gt;Node3</title>
<path fill="none" stroke="#63b8ff" d="M581.39,-166.35C545.99,-157.02 483.87,-140.64 444.25,-130.19"/>
<polygon fill="#63b8ff" stroke="#63b8ff" points="445.25,-126.83 434.69,-127.67 443.47,-133.6 445.25,-126.83"/>
</g>
<!-- Node15&#45;&gt;Node4 -->
<g id="edge27" class="edge">
<title>Node15&#45;&gt;Node4</title>
<path fill="none" stroke="#63b8ff" d="M581.04,-166.71C578.17,-166.09 575.28,-165.51 572.5,-165 457.97,-144.04 319.98,-129.13 261.23,-123.26"/>
<polygon fill="#63b8ff" stroke="#63b8ff" points="261.74,-119.8 251.44,-122.3 261.05,-126.76 261.74,-119.8"/>
</g>
<!-- Node15&#45;&gt;Node5 -->
<g id="edge26" class="edge">
<title>Node15&#45;&gt;Node5</title>
<path fill="none" stroke="#63b8ff" d="M603.49,-164.78C594.86,-150.67 575.76,-123.07 551.5,-110 506.79,-85.92 358.15,-72.72 289.64,-67.78"/>
<polygon fill="#63b8ff" stroke="#63b8ff" points="289.93,-64.3 279.71,-67.09 289.44,-71.28 289.93,-64.3"/>
</g>
<!-- Node16 -->
<g id="node16" class="node">
<title>Node16</title>
<g id="a_node16"><a xlink:href="setjmp_8h.html" target="_top" xlink:title=" ">
<polygon fill="white" stroke="#666666" points="560,-74 507,-74 507,-55 560,-55 560,-74"/>
<text text-anchor="middle" x="533.5" y="-62" font-family="Helvetica,sans-Serif" font-size="10.00">setjmp.h</text>
</a>
</g>
</g>
<!-- Node15&#45;&gt;Node16 -->
<g id="edge29" class="edge">
<title>Node15&#45;&gt;Node16</title>
<path fill="none" stroke="#63b8ff" d="M606.61,-164.64C603.55,-151.74 596.61,-127.42 584.5,-110 576.78,-98.89 565.68,-88.76 555.8,-80.99"/>
<polygon fill="#63b8ff" stroke="#63b8ff" points="558.18,-78.4 548.08,-75.21 553.99,-84 558.18,-78.4"/>
</g>
<!-- Node17 -->
<g id="node17" class="node">
<title>Node17</title>
<g id="a_node17"><a xlink:href="ctype_8h.html" target="_top" xlink:title=" ">
<polygon fill="white" stroke="#666666" points="542,-129 495,-129 495,-110 542,-110 542,-129"/>
<text text-anchor="middle" x="518.5" y="-117" font-family="Helvetica,sans-Serif" font-size="10.00">ctype.h</text>
</a>
</g>
</g>
<!-- Node15&#45;&gt;Node17 -->
<g id="edge31" class="edge">
<title>Node15&#45;&gt;Node17</title>
<path fill="none" stroke="#63b8ff" d="M593.23,-164.51C579.57,-156.47 559.3,-144.53 543.32,-135.11"/>
<polygon fill="#63b8ff" stroke="#63b8ff" points="545.24,-132.18 534.85,-130.13 541.69,-138.22 545.24,-132.18"/>
</g>
<!-- Node16&#45;&gt;Node7 -->
<g id="edge30" class="edge">
<title>Node16&#45;&gt;Node7</title>
<path fill="none" stroke="#63b8ff" d="M520.78,-54.51C509.72,-46.7 493.46,-35.21 480.33,-25.93"/>
<polygon fill="#63b8ff" stroke="#63b8ff" points="482.46,-23.14 472.27,-20.23 478.42,-28.86 482.46,-23.14"/>
</g>
</g>
</svg>
        <g id="navigator" transform="translate(0 0)" fill="#404254">
                <rect fill="#f2f5e9" fill-opacity="0.5" stroke="#606060" stroke-width=".5" x="0" y="0" width="60" height="60"/>
                <use id="zoomplus" xlink:href="#zoomPlus" x="17" y="9" onmousedown="handleZoom(evt,'in')"/>
                <use id="zoomminus" xlink:href="#zoomMin" x="42" y="9" onmousedown="handleZoom(evt,'out')"/>
                <use id="reset" xlink:href="#resetDef" x="30" y="36" onmousedown="handleReset()"/>
                <g id="arrowUp" xlink:href="#dirArrow" transform="translate(30 24)" onmousedown="handlePan(0,-1)">
                  <use xlink:href="#rim" fill="#404040">
                        <set attributeName="fill" to="#808080" begin="arrowUp.mouseover" end="arrowUp.mouseout"/>
                  </use>
                  <path fill="none" stroke="white" stroke-width="1.5" d="M0,-3.0v7 M-2.5,-0.5L0,-3.0L2.5,-0.5"/>
                </g>
                <g id="arrowRight" xlink:href="#dirArrow" transform="rotate(90) translate(36 -43)" onmousedown="handlePan(1,0)">
                  <use xlink:href="#rim" fill="#404040">
                        <set attributeName="fill" to="#808080" begin="arrowRight.mouseover" end="arrowRight.mouseout"/>
                  </use>
                  <path fill="none" stroke="white" stroke-width="1.5" d="M0,-3.0v7 M-2.5,-0.5L0,-3.0L2.5,-0.5"/>
                </g>
                <g id="arrowDown" xlink:href="#dirArrow" transform="rotate(180) translate(-30 -48)" onmousedown="handlePan(0,1)">
                  <use xlink:href="#rim" fill="#404040">
                        <set attributeName="fill" to="#808080" begin="arrowDown.mouseover" end="arrowDown.mouseout"/>
                  </use>
                  <path fill="none" stroke="white" stroke-width="1.5" d="M0,-3.0v7 M-2.5,-0.5L0,-3.0L2.5,-0.5"/>
                </g>
                <g id="arrowLeft" xlink:href="#dirArrow" transform="rotate(270) translate(-36 17)" onmousedown="handlePan(-1,0)">
                  <use xlink:href="#rim" fill="#404040">
                        <set attributeName="fill" to="#808080" begin="arrowLeft.mouseover" end="arrowLeft.mouseout"/>
                  </use>
                  <path fill="none" stroke="white" stroke-width="1.5" d="M0,-3.0v7 M-2.5,-0.5L0,-3.0L2.5,-0.5"/>
                </g>
        </g>
        <svg viewBox="0 0 15 15" width="100%" height="30px" preserveAspectRatio="xMaxYMin meet">
         <g id="arrow_out" transform="scale(0.3 0.3)">
          <a xlink:href="audsrv_8c__incl_org.svg" target="_base">
           <rect id="button" ry="5" rx="5" y="6" x="6" height="38" width="38"
                fill="#f2f5e9" fill-opacity="0.5" stroke="#606060" stroke-width="1.0"/>
           <path id="arrow"
             d="M 11.500037,31.436501 C 11.940474,20.09759 22.043105,11.32322 32.158766,21.979434 L 37.068811,17.246167 C 37.068811,17.246167 37.088388,32 37.088388,32 L 22.160133,31.978069 C 22.160133,31.978069 26.997745,27.140456 26.997745,27.140456 C 18.528582,18.264221 13.291696,25.230495 11.500037,31.436501 z"
             style="fill:#404040;"/>
          </a>
         </g>
        </svg>
</svg>
