<?xml version="1.0" encoding="UTF-8" standalone="no"?>
<!DOCTYPE svg PUBLIC "-//W3C//DTD SVG 1.1//EN"
 "http://www.w3.org/Graphics/SVG/1.1/DTD/svg11.dtd">
<!-- Generated by graphviz version 7.0.5 (20221223.1930)
 -->
<!-- Title: iop/sound/libsd/src/batch.c Pages: 1 -->
<svg width="345pt" height="258pt"
 viewBox="0.00 0.00 344.50 258.00" xmlns="http://www.w3.org/2000/svg" xmlns:xlink="http://www.w3.org/1999/xlink">
<g id="graph0" class="graph" transform="scale(1 1) rotate(0) translate(4 254)">
<title>iop/sound/libsd/src/batch.c</title>
<!-- Node1 -->
<g id="node1" class="node">
<title>Node1</title>
<g id="a_node1"><a xlink:title=" ">
<polygon fill="#999999" stroke="#666666" points="213.5,-250 115.5,-250 115.5,-220 213.5,-220 213.5,-250"/>
<text text-anchor="start" x="123.5" y="-238" font-family="Helvetica,sans-Serif" font-size="10.00">iop/sound/libsd/src</text>
<text text-anchor="middle" x="164.5" y="-227" font-family="Helvetica,sans-Serif" font-size="10.00">/batch.c</text>
</a>
</g>
</g>
<!-- Node2 -->
<g id="node2" class="node">
<title>Node2</title>
<g id="a_node2"><a xlink:title=" ">
<polygon fill="#e0e0e0" stroke="#999999" points="47,-184 0,-184 0,-165 47,-165 47,-184"/>
<text text-anchor="middle" x="23.5" y="-172" font-family="Helvetica,sans-Serif" font-size="10.00">types.h</text>
</a>
</g>
</g>
<!-- Node1&#45;&gt;Node2 -->
<g id="edge1" class="edge">
<title>Node1&#45;&gt;Node2</title>
<path fill="none" stroke="#63b8ff" d="M129.65,-219.54C106.9,-210.1 77.44,-197.88 55.33,-188.71"/>
<polygon fill="#63b8ff" stroke="#63b8ff" points="56.8,-185.53 46.22,-184.93 54.11,-191.99 56.8,-185.53"/>
</g>
<!-- Node3 -->
<g id="node3" class="node">
<title>Node3</title>
<g id="a_node3"><a xlink:href="sifman_8h.html" target="_top" xlink:title=" ">
<polygon fill="white" stroke="#666666" points="118,-184 65,-184 65,-165 118,-165 118,-184"/>
<text text-anchor="middle" x="91.5" y="-172" font-family="Helvetica,sans-Serif" font-size="10.00">sifman.h</text>
</a>
</g>
</g>
<!-- Node1&#45;&gt;Node3 -->
<g id="edge2" class="edge">
<title>Node1&#45;&gt;Node3</title>
<path fill="none" stroke="#63b8ff" d="M146.46,-219.54C135.74,-210.96 122.16,-200.07 111.17,-191.26"/>
<polygon fill="#63b8ff" stroke="#63b8ff" points="113.5,-188.64 103.51,-185.12 109.12,-194.11 113.5,-188.64"/>
</g>
<!-- Node8 -->
<g id="node8" class="node">
<title>Node8</title>
<g id="a_node8"><a xlink:href="intrman_8h.html" target="_top" xlink:title=" ">
<polygon fill="white" stroke="#666666" points="192.5,-184 136.5,-184 136.5,-165 192.5,-165 192.5,-184"/>
<text text-anchor="middle" x="164.5" y="-172" font-family="Helvetica,sans-Serif" font-size="10.00">intrman.h</text>
</a>
</g>
</g>
<!-- Node1&#45;&gt;Node8 -->
<g id="edge8" class="edge">
<title>Node1&#45;&gt;Node8</title>
<path fill="none" stroke="#63b8ff" d="M164.5,-219.54C164.5,-212.34 164.5,-203.53 164.5,-195.68"/>
<polygon fill="#63b8ff" stroke="#63b8ff" points="168,-195.69 164.5,-185.69 161,-195.69 168,-195.69"/>
</g>
<!-- Node9 -->
<g id="node9" class="node">
<title>Node9</title>
<g id="a_node9"><a xlink:title=" ">
<polygon fill="#e0e0e0" stroke="#999999" points="254.5,-184 210.5,-184 210.5,-165 254.5,-165 254.5,-184"/>
<text text-anchor="middle" x="232.5" y="-172" font-family="Helvetica,sans-Serif" font-size="10.00">libsd.h</text>
</a>
</g>
</g>
<!-- Node1&#45;&gt;Node9 -->
<g id="edge11" class="edge">
<title>Node1&#45;&gt;Node9</title>
<path fill="none" stroke="#63b8ff" d="M181.31,-219.54C191.19,-211.04 203.69,-200.29 213.87,-191.53"/>
<polygon fill="#63b8ff" stroke="#63b8ff" points="215.97,-194.34 221.27,-185.16 211.41,-189.03 215.97,-194.34"/>
</g>
<!-- Node10 -->
<g id="node10" class="node">
<title>Node10</title>
<g id="a_node10"><a xlink:href="spu2regs_8h.html" target="_top" xlink:title=" ">
<polygon fill="white" stroke="#666666" points="336.5,-184 272.5,-184 272.5,-165 336.5,-165 336.5,-184"/>
<text text-anchor="middle" x="304.5" y="-172" font-family="Helvetica,sans-Serif" font-size="10.00">spu2regs.h</text>
</a>
</g>
</g>
<!-- Node1&#45;&gt;Node10 -->
<g id="edge12" class="edge">
<title>Node1&#45;&gt;Node10</title>
<path fill="none" stroke="#63b8ff" d="M199.11,-219.54C221.69,-210.1 250.94,-197.88 272.89,-188.71"/>
<polygon fill="#63b8ff" stroke="#63b8ff" points="274.06,-192.01 281.93,-184.93 271.36,-185.56 274.06,-192.01"/>
</g>
<!-- Node4 -->
<g id="node4" class="node">
<title>Node4</title>
<g id="a_node4"><a xlink:href="iop_2kernel_2include_2types_8h_source.html" target="_top" xlink:title=" ">
<polygon fill="white" stroke="#666666" points="151,-74 104,-74 104,-55 151,-55 151,-74"/>
<text text-anchor="middle" x="127.5" y="-62" font-family="Helvetica,sans-Serif" font-size="10.00">types.h</text>
</a>
</g>
</g>
<!-- Node3&#45;&gt;Node4 -->
<g id="edge3" class="edge">
<title>Node3&#45;&gt;Node4</title>
<path fill="none" stroke="#63b8ff" d="M91.86,-164.62C92.6,-152.1 94.83,-128.71 101.5,-110 104.76,-100.85 109.94,-91.45 114.82,-83.66"/>
<polygon fill="#63b8ff" stroke="#63b8ff" points="117.63,-85.75 120.24,-75.48 111.8,-81.88 117.63,-85.75"/>
</g>
<!-- Node7 -->
<g id="node7" class="node">
<title>Node7</title>
<g id="a_node7"><a xlink:href="irx_8h.html" target="_top" xlink:title=" ">
<polygon fill="white" stroke="#666666" points="144.5,-129 110.5,-129 110.5,-110 144.5,-110 144.5,-129"/>
<text text-anchor="middle" x="127.5" y="-117" font-family="Helvetica,sans-Serif" font-size="10.00">irx.h</text>
</a>
</g>
</g>
<!-- Node3&#45;&gt;Node7 -->
<g id="edge6" class="edge">
<title>Node3&#45;&gt;Node7</title>
<path fill="none" stroke="#63b8ff" d="M97.44,-164.75C102.21,-157.73 109.06,-147.64 115.02,-138.87"/>
<polygon fill="#63b8ff" stroke="#63b8ff" points="117.85,-140.93 120.58,-130.69 112.06,-137 117.85,-140.93"/>
</g>
<!-- Node5 -->
<g id="node5" class="node">
<title>Node5</title>
<g id="a_node5"><a xlink:title=" ">
<polygon fill="#e0e0e0" stroke="#999999" points="115,-19 64,-19 64,0 115,0 115,-19"/>
<text text-anchor="middle" x="89.5" y="-7" font-family="Helvetica,sans-Serif" font-size="10.00">stddef.h</text>
</a>
</g>
</g>
<!-- Node4&#45;&gt;Node5 -->
<g id="edge4" class="edge">
<title>Node4&#45;&gt;Node5</title>
<path fill="none" stroke="#63b8ff" d="M121.23,-54.75C116.14,-47.66 108.8,-37.42 102.47,-28.59"/>
<polygon fill="#63b8ff" stroke="#63b8ff" points="105.46,-26.76 96.79,-20.67 99.78,-30.84 105.46,-26.76"/>
</g>
<!-- Node6 -->
<g id="node6" class="node">
<title>Node6</title>
<g id="a_node6"><a xlink:href="tamtypes_8h.html" target="_top" xlink:title=" ">
<polygon fill="white" stroke="#666666" points="197.5,-19 133.5,-19 133.5,0 197.5,0 197.5,-19"/>
<text text-anchor="middle" x="165.5" y="-7" font-family="Helvetica,sans-Serif" font-size="10.00">tamtypes.h</text>
</a>
</g>
</g>
<!-- Node4&#45;&gt;Node6 -->
<g id="edge5" class="edge">
<title>Node4&#45;&gt;Node6</title>
<path fill="none" stroke="#63b8ff" d="M133.77,-54.75C138.86,-47.66 146.2,-37.42 152.53,-28.59"/>
<polygon fill="#63b8ff" stroke="#63b8ff" points="155.22,-30.84 158.21,-20.67 149.54,-26.76 155.22,-30.84"/>
</g>
<!-- Node7&#45;&gt;Node4 -->
<g id="edge7" class="edge">
<title>Node7&#45;&gt;Node4</title>
<path fill="none" stroke="#63b8ff" d="M127.5,-109.75C127.5,-103.27 127.5,-94.16 127.5,-85.9"/>
<polygon fill="#63b8ff" stroke="#63b8ff" points="131,-85.96 127.5,-75.96 124,-85.96 131,-85.96"/>
</g>
<!-- Node8&#45;&gt;Node4 -->
<g id="edge9" class="edge">
<title>Node8&#45;&gt;Node4</title>
<path fill="none" stroke="#63b8ff" d="M163.96,-164.62C162.98,-152.1 160.33,-128.71 153.5,-110 150.17,-100.87 144.98,-91.48 140.11,-83.69"/>
<polygon fill="#63b8ff" stroke="#63b8ff" points="143.14,-81.92 134.71,-75.5 137.3,-85.77 143.14,-81.92"/>
</g>
<!-- Node8&#45;&gt;Node7 -->
<g id="edge10" class="edge">
<title>Node8&#45;&gt;Node7</title>
<path fill="none" stroke="#63b8ff" d="M158.39,-164.75C153.49,-157.73 146.45,-147.64 140.33,-138.87"/>
<polygon fill="#63b8ff" stroke="#63b8ff" points="143.2,-136.88 134.61,-130.68 137.46,-140.89 143.2,-136.88"/>
</g>
</g>
</svg>
