<?xml version="1.0" encoding="UTF-8" standalone="no"?>
<!DOCTYPE svg PUBLIC "-//W3C//DTD SVG 1.1//EN"
 "http://www.w3.org/Graphics/SVG/1.1/DTD/svg11.dtd">
<!-- Generated by graphviz version 7.0.5 (20221223.1930)
 -->
<!-- Title: iop/fs/libbdm/include/bd_cache.h Pages: 1 -->
<svg width="236pt" height="104pt"
 viewBox="0.00 0.00 236.00 104.00" xmlns="http://www.w3.org/2000/svg" xmlns:xlink="http://www.w3.org/1999/xlink">
<g id="graph0" class="graph" transform="scale(1 1) rotate(0) translate(4 100)">
<title>iop/fs/libbdm/include/bd_cache.h</title>
<!-- Node1 -->
<g id="node1" class="node">
<title>Node1</title>
<g id="a_node1"><a xlink:title=" ">
<polygon fill="#999999" stroke="#666666" points="168,-96 62,-96 62,-66 168,-66 168,-96"/>
<text text-anchor="start" x="70" y="-84" font-family="Helvetica,sans-Serif" font-size="10.00">iop/fs/libbdm/include</text>
<text text-anchor="middle" x="115" y="-73" font-family="Helvetica,sans-Serif" font-size="10.00">/bd_cache.h</text>
</a>
</g>
</g>
<!-- Node2 -->
<g id="node2" class="node">
<title>Node2</title>
<g id="a_node2"><a xlink:href="bdm_8c_source.html" target="_top" xlink:title=" ">
<polygon fill="white" stroke="#666666" points="108,-24.5 0,-24.5 0,-5.5 108,-5.5 108,-24.5"/>
<text text-anchor="middle" x="54" y="-12.5" font-family="Helvetica,sans-Serif" font-size="10.00">iop/fs/bdm/src/bdm.c</text>
</a>
</g>
</g>
<!-- Node1&#45;&gt;Node2 -->
<g id="edge1" class="edge">
<title>Node1&#45;&gt;Node2</title>
<path fill="none" stroke="#63b8ff" d="M93.66,-57.61C82.9,-46.32 70.47,-33.28 62.43,-24.84"/>
<polygon fill="#63b8ff" stroke="#63b8ff" points="90.98,-59.88 100.42,-64.7 96.05,-55.05 90.98,-59.88"/>
</g>
<!-- Node3 -->
<g id="node3" class="node">
<title>Node3</title>
<g id="a_node3"><a xlink:href="bd__cache_8c_source.html" target="_top" xlink:title=" ">
<polygon fill="white" stroke="#666666" points="228,-30 126,-30 126,0 228,0 228,-30"/>
<text text-anchor="start" x="134" y="-18" font-family="Helvetica,sans-Serif" font-size="10.00">iop/fs/libbdm/src/bd</text>
<text text-anchor="middle" x="177" y="-7" font-family="Helvetica,sans-Serif" font-size="10.00">_cache.c</text>
</a>
</g>
</g>
<!-- Node1&#45;&gt;Node3 -->
<g id="edge2" class="edge">
<title>Node1&#45;&gt;Node3</title>
<path fill="none" stroke="#63b8ff" d="M136.5,-57.81C145.38,-48.64 155.42,-38.28 163.28,-30.16"/>
<polygon fill="#63b8ff" stroke="#63b8ff" points="134.26,-55.09 129.81,-64.71 139.28,-59.96 134.26,-55.09"/>
</g>
</g>
</svg>
