<?xml version="1.0" encoding="UTF-8" standalone="no"?>
<!DOCTYPE svg PUBLIC "-//W3C//DTD SVG 1.1//EN"
 "http://www.w3.org/Graphics/SVG/1.1/DTD/svg11.dtd">
<!-- Generated by graphviz version 7.0.5 (20221223.1930)
 -->
<!-- Title: iop/fs/libbdm/include/bd_cache.h Pages: 1 -->
<svg width="174pt" height="258pt"
 viewBox="0.00 0.00 173.50 258.00" xmlns="http://www.w3.org/2000/svg" xmlns:xlink="http://www.w3.org/1999/xlink">
<g id="graph0" class="graph" transform="scale(1 1) rotate(0) translate(4 254)">
<title>iop/fs/libbdm/include/bd_cache.h</title>
<!-- Node1 -->
<g id="node1" class="node">
<title>Node1</title>
<g id="a_node1"><a xlink:title=" ">
<polygon fill="#999999" stroke="#666666" points="110,-250 4,-250 4,-220 110,-220 110,-250"/>
<text text-anchor="start" x="12" y="-238" font-family="Helvetica,sans-Serif" font-size="10.00">iop/fs/libbdm/include</text>
<text text-anchor="middle" x="57" y="-227" font-family="Helvetica,sans-Serif" font-size="10.00">/bd_cache.h</text>
</a>
</g>
</g>
<!-- Node2 -->
<g id="node2" class="node">
<title>Node2</title>
<g id="a_node2"><a xlink:href="tamtypes_8h.html" target="_top" xlink:title=" ">
<polygon fill="white" stroke="#666666" points="64,-19 0,-19 0,0 64,0 64,-19"/>
<text text-anchor="middle" x="32" y="-7" font-family="Helvetica,sans-Serif" font-size="10.00">tamtypes.h</text>
</a>
</g>
</g>
<!-- Node1&#45;&gt;Node2 -->
<g id="edge1" class="edge">
<title>Node1&#45;&gt;Node2</title>
<path fill="none" stroke="#63b8ff" d="M55.4,-219.68C51.08,-181.1 39.2,-74.9 34.23,-30.46"/>
<polygon fill="#63b8ff" stroke="#63b8ff" points="37.73,-30.28 33.14,-20.74 30.78,-31.06 37.73,-30.28"/>
</g>
<!-- Node3 -->
<g id="node3" class="node">
<title>Node3</title>
<g id="a_node3"><a xlink:href="bdm_8h.html" target="_top" xlink:title=" ">
<polygon fill="white" stroke="#666666" points="104.5,-184 61.5,-184 61.5,-165 104.5,-165 104.5,-184"/>
<text text-anchor="middle" x="83" y="-172" font-family="Helvetica,sans-Serif" font-size="10.00">bdm.h</text>
</a>
</g>
</g>
<!-- Node1&#45;&gt;Node3 -->
<g id="edge2" class="edge">
<title>Node1&#45;&gt;Node3</title>
<path fill="none" stroke="#63b8ff" d="M63.43,-219.54C66.78,-212 70.92,-202.67 74.53,-194.55"/>
<polygon fill="#63b8ff" stroke="#63b8ff" points="77.67,-196.12 78.53,-185.56 71.27,-193.27 77.67,-196.12"/>
</g>
<!-- Node4 -->
<g id="node4" class="node">
<title>Node4</title>
<g id="a_node4"><a xlink:href="irx_8h.html" target="_top" xlink:title=" ">
<polygon fill="white" stroke="#666666" points="100,-129 66,-129 66,-110 100,-110 100,-129"/>
<text text-anchor="middle" x="83" y="-117" font-family="Helvetica,sans-Serif" font-size="10.00">irx.h</text>
</a>
</g>
</g>
<!-- Node3&#45;&gt;Node4 -->
<g id="edge3" class="edge">
<title>Node3&#45;&gt;Node4</title>
<path fill="none" stroke="#63b8ff" d="M83,-164.75C83,-158.27 83,-149.16 83,-140.9"/>
<polygon fill="#63b8ff" stroke="#63b8ff" points="86.5,-140.96 83,-130.96 79.5,-140.96 86.5,-140.96"/>
</g>
<!-- Node7 -->
<g id="node7" class="node">
<title>Node7</title>
<g id="a_node7"><a xlink:title=" ">
<polygon fill="#e0e0e0" stroke="#999999" points="165.5,-129 118.5,-129 118.5,-110 165.5,-110 165.5,-129"/>
<text text-anchor="middle" x="142" y="-117" font-family="Helvetica,sans-Serif" font-size="10.00">types.h</text>
</a>
</g>
</g>
<!-- Node3&#45;&gt;Node7 -->
<g id="edge7" class="edge">
<title>Node3&#45;&gt;Node7</title>
<path fill="none" stroke="#63b8ff" d="M93.01,-164.51C101.37,-157 113.5,-146.1 123.6,-137.03"/>
<polygon fill="#63b8ff" stroke="#63b8ff" points="125.91,-139.66 131.01,-130.37 121.24,-134.45 125.91,-139.66"/>
</g>
<!-- Node5 -->
<g id="node5" class="node">
<title>Node5</title>
<g id="a_node5"><a xlink:href="iop_2kernel_2include_2types_8h_source.html" target="_top" xlink:title=" ">
<polygon fill="white" stroke="#666666" points="107.5,-74 60.5,-74 60.5,-55 107.5,-55 107.5,-74"/>
<text text-anchor="middle" x="84" y="-62" font-family="Helvetica,sans-Serif" font-size="10.00">types.h</text>
</a>
</g>
</g>
<!-- Node4&#45;&gt;Node5 -->
<g id="edge4" class="edge">
<title>Node4&#45;&gt;Node5</title>
<path fill="none" stroke="#63b8ff" d="M83.17,-109.75C83.29,-103.27 83.46,-94.16 83.62,-85.9"/>
<polygon fill="#63b8ff" stroke="#63b8ff" points="87.11,-86.02 83.8,-75.96 80.11,-85.89 87.11,-86.02"/>
</g>
<!-- Node5&#45;&gt;Node2 -->
<g id="edge6" class="edge">
<title>Node5&#45;&gt;Node2</title>
<path fill="none" stroke="#63b8ff" d="M75.41,-54.75C68.16,-47.35 57.55,-36.54 48.63,-27.45"/>
<polygon fill="#63b8ff" stroke="#63b8ff" points="51.34,-25.21 41.83,-20.52 46.34,-30.11 51.34,-25.21"/>
</g>
<!-- Node6 -->
<g id="node6" class="node">
<title>Node6</title>
<g id="a_node6"><a xlink:title=" ">
<polygon fill="#e0e0e0" stroke="#999999" points="133.5,-19 82.5,-19 82.5,0 133.5,0 133.5,-19"/>
<text text-anchor="middle" x="108" y="-7" font-family="Helvetica,sans-Serif" font-size="10.00">stddef.h</text>
</a>
</g>
</g>
<!-- Node5&#45;&gt;Node6 -->
<g id="edge5" class="edge">
<title>Node5&#45;&gt;Node6</title>
<path fill="none" stroke="#63b8ff" d="M87.96,-54.75C91.04,-47.96 95.41,-38.3 99.29,-29.73"/>
<polygon fill="#63b8ff" stroke="#63b8ff" points="102.39,-31.37 103.33,-20.82 96.01,-28.49 102.39,-31.37"/>
</g>
</g>
</svg>
