<?xml version="1.0" encoding="UTF-8" standalone="no"?>
<!DOCTYPE svg PUBLIC "-//W3C//DTD SVG 1.1//EN"
 "http://www.w3.org/Graphics/SVG/1.1/DTD/svg11.dtd">
<!-- Generated by graphviz version 7.0.5 (20221223.1930)
 -->
<!-- Title: iop/fs/libbdm/include/bd_defrag.h Pages: 1 -->
<svg width="198pt" height="258pt"
 viewBox="0.00 0.00 198.34 258.00" xmlns="http://www.w3.org/2000/svg" xmlns:xlink="http://www.w3.org/1999/xlink">
<g id="graph0" class="graph" transform="scale(1 1) rotate(0) translate(4 254)">
<title>iop/fs/libbdm/include/bd_defrag.h</title>
<!-- Node1 -->
<g id="node1" class="node">
<title>Node1</title>
<g id="a_node1"><a xlink:title=" ">
<polygon fill="#999999" stroke="#666666" points="106.84,-250 0.84,-250 0.84,-220 106.84,-220 106.84,-250"/>
<text text-anchor="start" x="8.84" y="-238" font-family="Helvetica,sans-Serif" font-size="10.00">iop/fs/libbdm/include</text>
<text text-anchor="middle" x="53.84" y="-227" font-family="Helvetica,sans-Serif" font-size="10.00">/bd_defrag.h</text>
</a>
</g>
</g>
<!-- Node2 -->
<g id="node2" class="node">
<title>Node2</title>
<g id="a_node2"><a xlink:href="tamtypes_8h.html" target="_top" xlink:title=" ">
<polygon fill="white" stroke="#666666" points="102.84,-19 38.84,-19 38.84,0 102.84,0 102.84,-19"/>
<text text-anchor="middle" x="70.84" y="-7" font-family="Helvetica,sans-Serif" font-size="10.00">tamtypes.h</text>
</a>
</g>
</g>
<!-- Node1&#45;&gt;Node2 -->
<g id="edge1" class="edge">
<title>Node1&#45;&gt;Node2</title>
<path fill="none" stroke="#63b8ff" d="M43.97,-219.77C23.57,-188.44 -19.02,-111.77 9.84,-55 16.31,-42.26 28.34,-32.29 40.02,-25.06"/>
<polygon fill="#63b8ff" stroke="#63b8ff" points="41.73,-28.11 48.72,-20.14 38.29,-22.01 41.73,-28.11"/>
</g>
<!-- Node3 -->
<g id="node3" class="node">
<title>Node3</title>
<g id="a_node3"><a xlink:href="bdm_8h.html" target="_top" xlink:title=" ">
<polygon fill="white" stroke="#666666" points="127.34,-184 84.34,-184 84.34,-165 127.34,-165 127.34,-184"/>
<text text-anchor="middle" x="105.84" y="-172" font-family="Helvetica,sans-Serif" font-size="10.00">bdm.h</text>
</a>
</g>
</g>
<!-- Node1&#45;&gt;Node3 -->
<g id="edge2" class="edge">
<title>Node1&#45;&gt;Node3</title>
<path fill="none" stroke="#63b8ff" d="M66.69,-219.54C73.93,-211.39 83.03,-201.16 90.62,-192.61"/>
<polygon fill="#63b8ff" stroke="#63b8ff" points="93.09,-195.11 97.12,-185.31 87.86,-190.46 93.09,-195.11"/>
</g>
<!-- Node8 -->
<g id="node8" class="node">
<title>Node8</title>
<g id="a_node8"><a xlink:href="usbhdfsd-common_8h.html" target="_top" xlink:title=" ">
<polygon fill="white" stroke="#666666" points="122.84,-74 18.84,-74 18.84,-55 122.84,-55 122.84,-74"/>
<text text-anchor="middle" x="70.84" y="-62" font-family="Helvetica,sans-Serif" font-size="10.00">usbhdfsd&#45;common.h</text>
</a>
</g>
</g>
<!-- Node1&#45;&gt;Node8 -->
<g id="edge8" class="edge">
<title>Node1&#45;&gt;Node8</title>
<path fill="none" stroke="#63b8ff" d="M55.29,-219.63C58.32,-189.57 65.34,-119.97 68.81,-85.54"/>
<polygon fill="#63b8ff" stroke="#63b8ff" points="72.28,-86.02 69.8,-75.72 65.32,-85.32 72.28,-86.02"/>
</g>
<!-- Node4 -->
<g id="node4" class="node">
<title>Node4</title>
<g id="a_node4"><a xlink:href="irx_8h.html" target="_top" xlink:title=" ">
<polygon fill="white" stroke="#666666" points="181.84,-129 147.84,-129 147.84,-110 181.84,-110 181.84,-129"/>
<text text-anchor="middle" x="164.84" y="-117" font-family="Helvetica,sans-Serif" font-size="10.00">irx.h</text>
</a>
</g>
</g>
<!-- Node3&#45;&gt;Node4 -->
<g id="edge3" class="edge">
<title>Node3&#45;&gt;Node4</title>
<path fill="none" stroke="#63b8ff" d="M115.84,-164.51C124.2,-157 136.34,-146.1 146.44,-137.03"/>
<polygon fill="#63b8ff" stroke="#63b8ff" points="148.75,-139.66 153.85,-130.37 144.07,-134.45 148.75,-139.66"/>
</g>
<!-- Node7 -->
<g id="node7" class="node">
<title>Node7</title>
<g id="a_node7"><a xlink:title=" ">
<polygon fill="#e0e0e0" stroke="#999999" points="129.34,-129 82.34,-129 82.34,-110 129.34,-110 129.34,-129"/>
<text text-anchor="middle" x="105.84" y="-117" font-family="Helvetica,sans-Serif" font-size="10.00">types.h</text>
</a>
</g>
</g>
<!-- Node3&#45;&gt;Node7 -->
<g id="edge7" class="edge">
<title>Node3&#45;&gt;Node7</title>
<path fill="none" stroke="#63b8ff" d="M105.84,-164.75C105.84,-158.27 105.84,-149.16 105.84,-140.9"/>
<polygon fill="#63b8ff" stroke="#63b8ff" points="109.34,-140.96 105.84,-130.96 102.34,-140.96 109.34,-140.96"/>
</g>
<!-- Node5 -->
<g id="node5" class="node">
<title>Node5</title>
<g id="a_node5"><a xlink:href="iop_2kernel_2include_2types_8h_source.html" target="_top" xlink:title=" ">
<polygon fill="white" stroke="#666666" points="188.34,-74 141.34,-74 141.34,-55 188.34,-55 188.34,-74"/>
<text text-anchor="middle" x="164.84" y="-62" font-family="Helvetica,sans-Serif" font-size="10.00">types.h</text>
</a>
</g>
</g>
<!-- Node4&#45;&gt;Node5 -->
<g id="edge4" class="edge">
<title>Node4&#45;&gt;Node5</title>
<path fill="none" stroke="#63b8ff" d="M164.84,-109.75C164.84,-103.27 164.84,-94.16 164.84,-85.9"/>
<polygon fill="#63b8ff" stroke="#63b8ff" points="168.34,-85.96 164.84,-75.96 161.34,-85.96 168.34,-85.96"/>
</g>
<!-- Node5&#45;&gt;Node2 -->
<g id="edge6" class="edge">
<title>Node5&#45;&gt;Node2</title>
<path fill="none" stroke="#63b8ff" d="M148.89,-54.51C134.49,-46.39 113.05,-34.3 96.28,-24.85"/>
<polygon fill="#63b8ff" stroke="#63b8ff" points="98.29,-21.96 87.86,-20.1 94.86,-28.06 98.29,-21.96"/>
</g>
<!-- Node6 -->
<g id="node6" class="node">
<title>Node6</title>
<g id="a_node6"><a xlink:title=" ">
<polygon fill="#e0e0e0" stroke="#999999" points="190.34,-19 139.34,-19 139.34,0 190.34,0 190.34,-19"/>
<text text-anchor="middle" x="164.84" y="-7" font-family="Helvetica,sans-Serif" font-size="10.00">stddef.h</text>
</a>
</g>
</g>
<!-- Node5&#45;&gt;Node6 -->
<g id="edge5" class="edge">
<title>Node5&#45;&gt;Node6</title>
<path fill="none" stroke="#63b8ff" d="M164.84,-54.75C164.84,-48.27 164.84,-39.16 164.84,-30.9"/>
<polygon fill="#63b8ff" stroke="#63b8ff" points="168.34,-30.96 164.84,-20.96 161.34,-30.96 168.34,-30.96"/>
</g>
<!-- Node8&#45;&gt;Node2 -->
<g id="edge9" class="edge">
<title>Node8&#45;&gt;Node2</title>
<path fill="none" stroke="#63b8ff" d="M70.84,-54.75C70.84,-48.27 70.84,-39.16 70.84,-30.9"/>
<polygon fill="#63b8ff" stroke="#63b8ff" points="74.34,-30.96 70.84,-20.96 67.34,-30.96 74.34,-30.96"/>
</g>
</g>
</svg>
