<?xml version="1.0" encoding="UTF-8" standalone="no"?>
<!DOCTYPE svg PUBLIC "-//W3C//DTD SVG 1.1//EN"
 "http://www.w3.org/Graphics/SVG/1.1/DTD/svg11.dtd">
<!-- Generated by graphviz version 7.0.5 (20221223.1930)
 -->
<!-- Title: iop/fs/bdm/include/bdm.h Pages: 1 -->
<!--zoomable 236 -->
<svg id="main" version="1.1" xmlns="http://www.w3.org/2000/svg" xmlns:xlink="http://www.w3.org/1999/xlink" xml:space="preserve" onload="init(evt)">
<style type="text/css"><![CDATA[
.edge:hover path { stroke: red; }
.edge:hover polygon { stroke: red; fill: red; }
]]></style>
<script type="text/javascript"><![CDATA[
var edges = document.getElementsByTagName('g');
if (edges && edges.length) {
  for (var i=0;i<edges.length;i++) {
    if (edges[i].id.substr(0,4)=='edge') {
      edges[i].setAttribute('class','edge');
    }
  }
}
]]></script>
        <defs>
                <circle id="rim" cx="0" cy="0" r="7"/>
                <circle id="rim2" cx="0" cy="0" r="3.5"/>
                <g id="zoomPlus">
                        <use xlink:href="#rim" fill="#404040">
                                <set attributeName="fill" to="#808080" begin="zoomplus.mouseover" end="zoomplus.mouseout"/>
                        </use>
                        <path d="M-4,0h8M0,-4v8" fill="none" stroke="white" stroke-width="1.5" pointer-events="none"/>
                </g>
                <g id="zoomMin">
                        <use xlink:href="#rim" fill="#404040">
                                <set attributeName="fill" to="#808080" begin="zoomminus.mouseover" end="zoomminus.mouseout"/>
                        </use>
                        <path d="M-4,0h8" fill="none" stroke="white" stroke-width="1.5" pointer-events="none"/>
                </g>
                <g id="dirArrow">
                        <path fill="none" stroke="white" stroke-width="1.5" d="M0,-3.0v7 M-2.5,-0.5L0,-3.0L2.5,-0.5"/>
                </g>
               <g id="resetDef">
                       <use xlink:href="#rim2" fill="#404040">
                               <set attributeName="fill" to="#808080" begin="reset.mouseover" end="reset.mouseout"/>
                       </use>
               </g>
        </defs>

<script type="text/javascript">
var viewWidth = 2207;
var viewHeight = 236;
var sectionId = 'dynsection-1';
</script>
<script xlink:href="svgpan.js"/>
<svg id="graph" class="graph">
<g id="viewport">
<title>iop/fs/bdm/include/bdm.h</title>
<!-- Node1 -->
<g id="node1" class="node">
<title>Node1</title>
<g id="a_node1"><a xlink:title=" ">
<polygon fill="#999999" stroke="#666666" points="1024,-228 928,-228 928,-198 1024,-198 1024,-228"/>
<text text-anchor="start" x="936" y="-216" font-family="Helvetica,sans-Serif" font-size="10.00">iop/fs/bdm/include</text>
<text text-anchor="middle" x="976" y="-205" font-family="Helvetica,sans-Serif" font-size="10.00">/bdm.h</text>
</a>
</g>
</g>
<!-- Node2 -->
<g id="node2" class="node">
<title>Node2</title>
<g id="a_node2"><a xlink:href="bdm_8c_source.html" target="_top" xlink:title=" ">
<polygon fill="white" stroke="#666666" points="108,-90.5 0,-90.5 0,-71.5 108,-71.5 108,-90.5"/>
<text text-anchor="middle" x="54" y="-78.5" font-family="Helvetica,sans-Serif" font-size="10.00">iop/fs/bdm/src/bdm.c</text>
</a>
</g>
</g>
<!-- Node1&#45;&gt;Node2 -->
<g id="edge1" class="edge">
<title>Node1&#45;&gt;Node2</title>
<path fill="none" stroke="#63b8ff" d="M916.34,-210.64C720.1,-205.93 105.36,-189.07 73,-162 51.87,-144.33 51.8,-107.83 53.05,-90.94"/>
<polygon fill="#63b8ff" stroke="#63b8ff" points="915.96,-214.14 926.04,-210.88 916.13,-207.14 915.96,-214.14"/>
</g>
<!-- Node3 -->
<g id="node3" class="node">
<title>Node3</title>
<g id="a_node3"><a xlink:href="iop_2fs_2bdm_2src_2irx__imports_8h_source.html" target="_top" xlink:title=" ">
<polygon fill="white" stroke="#666666" points="298,-162 206,-162 206,-132 298,-132 298,-162"/>
<text text-anchor="start" x="214" y="-150" font-family="Helvetica,sans-Serif" font-size="10.00">iop/fs/bdm/src/irx</text>
<text text-anchor="middle" x="252" y="-139" font-family="Helvetica,sans-Serif" font-size="10.00">_imports.h</text>
</a>
</g>
</g>
<!-- Node1&#45;&gt;Node3 -->
<g id="edge2" class="edge">
<title>Node1&#45;&gt;Node3</title>
<path fill="none" stroke="#63b8ff" d="M916.6,-211.03C799.31,-208.36 530.04,-198.43 307,-162 304.18,-161.54 301.29,-161 298.39,-160.42"/>
<polygon fill="#63b8ff" stroke="#63b8ff" points="916.21,-214.53 926.29,-211.24 916.36,-207.53 916.21,-214.53"/>
</g>
<!-- Node4 -->
<g id="node4" class="node">
<title>Node4</title>
<g id="a_node4"><a xlink:href="iop_2fs_2bdm_2src_2main_8c_source.html" target="_top" xlink:title=" ">
<polygon fill="white" stroke="#666666" points="426,-156.5 316,-156.5 316,-137.5 426,-137.5 426,-156.5"/>
<text text-anchor="middle" x="371" y="-144.5" font-family="Helvetica,sans-Serif" font-size="10.00">iop/fs/bdm/src/main.c</text>
</a>
</g>
</g>
<!-- Node1&#45;&gt;Node4 -->
<g id="edge3" class="edge">
<title>Node1&#45;&gt;Node4</title>
<path fill="none" stroke="#63b8ff" d="M916.26,-208.89C816.23,-203.15 608.72,-188.92 435,-162 426.35,-160.66 417.11,-158.86 408.42,-156.99"/>
<polygon fill="#63b8ff" stroke="#63b8ff" points="915.93,-212.38 926.12,-209.45 916.33,-205.39 915.93,-212.38"/>
</g>
<!-- Node5 -->
<g id="node5" class="node">
<title>Node5</title>
<g id="a_node5"><a xlink:href="fs_2bdm_2src_2part__driver_8c_source.html" target="_top" xlink:title=" ">
<polygon fill="white" stroke="#666666" points="542,-162 444,-162 444,-132 542,-132 542,-162"/>
<text text-anchor="start" x="452" y="-150" font-family="Helvetica,sans-Serif" font-size="10.00">iop/fs/bdm/src/part</text>
<text text-anchor="middle" x="493" y="-139" font-family="Helvetica,sans-Serif" font-size="10.00">_driver.c</text>
</a>
</g>
</g>
<!-- Node1&#45;&gt;Node5 -->
<g id="edge4" class="edge">
<title>Node1&#45;&gt;Node5</title>
<path fill="none" stroke="#63b8ff" d="M916.54,-206.81C834.92,-199.26 683.73,-183.74 556,-162 551.58,-161.25 547.01,-160.39 542.43,-159.48"/>
<polygon fill="#63b8ff" stroke="#63b8ff" points="915.8,-210.26 926.08,-207.69 916.44,-203.29 915.8,-210.26"/>
</g>
<!-- Node6 -->
<g id="node6" class="node">
<title>Node6</title>
<g id="a_node6"><a xlink:href="diskio_8c_source.html" target="_top" xlink:title=" ">
<polygon fill="white" stroke="#666666" points="609.5,-96 514.5,-96 514.5,-66 609.5,-66 609.5,-96"/>
<text text-anchor="start" x="522.5" y="-84" font-family="Helvetica,sans-Serif" font-size="10.00">iop/fs/bdmfs_fatfs</text>
<text text-anchor="middle" x="562" y="-73" font-family="Helvetica,sans-Serif" font-size="10.00">/src/diskio.c</text>
</a>
</g>
</g>
<!-- Node1&#45;&gt;Node6 -->
<g id="edge5" class="edge">
<title>Node1&#45;&gt;Node6</title>
<path fill="none" stroke="#63b8ff" d="M916.22,-209.38C827.66,-204.56 666.79,-191.87 618,-162 592.7,-146.51 575.82,-114.81 567.67,-96.31"/>
<polygon fill="#63b8ff" stroke="#63b8ff" points="916.01,-212.88 926.18,-209.91 916.38,-205.89 916.01,-212.88"/>
</g>
<!-- Node7 -->
<g id="node7" class="node">
<title>Node7</title>
<g id="a_node7"><a xlink:href="fs_2bdmfs__fatfs_2src_2fs__driver_8c_source.html" target="_top" xlink:title=" ">
<polygon fill="white" stroke="#666666" points="722.5,-96 627.5,-96 627.5,-66 722.5,-66 722.5,-96"/>
<text text-anchor="start" x="635.5" y="-84" font-family="Helvetica,sans-Serif" font-size="10.00">iop/fs/bdmfs_fatfs</text>
<text text-anchor="middle" x="675" y="-73" font-family="Helvetica,sans-Serif" font-size="10.00">/src/fs_driver.c</text>
</a>
</g>
</g>
<!-- Node1&#45;&gt;Node7 -->
<g id="edge6" class="edge">
<title>Node1&#45;&gt;Node7</title>
<path fill="none" stroke="#63b8ff" d="M916.32,-212.45C826.65,-211.7 663.73,-204.37 627,-162 609.07,-141.32 635.73,-113.08 655.92,-96.27"/>
<polygon fill="#63b8ff" stroke="#63b8ff" points="916.14,-215.95 926.16,-212.5 916.18,-208.95 916.14,-215.95"/>
</g>
<!-- Node8 -->
<g id="node8" class="node">
<title>Node8</title>
<g id="a_node8"><a xlink:href="fs__driver_8h_source.html" target="_top" xlink:title=" ">
<polygon fill="white" stroke="#666666" points="751.5,-162 636.5,-162 636.5,-132 751.5,-132 751.5,-162"/>
<text text-anchor="start" x="644.5" y="-150" font-family="Helvetica,sans-Serif" font-size="10.00">iop/fs/bdmfs_fatfs</text>
<text text-anchor="middle" x="694" y="-139" font-family="Helvetica,sans-Serif" font-size="10.00">/src/include/fs_driver.h</text>
</a>
</g>
</g>
<!-- Node1&#45;&gt;Node8 -->
<g id="edge7" class="edge">
<title>Node1&#45;&gt;Node8</title>
<path fill="none" stroke="#63b8ff" d="M916.56,-198.51C868.04,-187.5 799.89,-172.03 751.82,-161.12"/>
<polygon fill="#63b8ff" stroke="#63b8ff" points="915.52,-201.86 926.05,-200.66 917.07,-195.04 915.52,-201.86"/>
</g>
<!-- Node9 -->
<g id="node9" class="node">
<title>Node9</title>
<g id="a_node9"><a xlink:href="iop_2fs_2bdmfs__fatfs_2src_2main_8c_source.html" target="_top" xlink:title=" ">
<polygon fill="white" stroke="#666666" points="835.5,-96 740.5,-96 740.5,-66 835.5,-66 835.5,-96"/>
<text text-anchor="start" x="748.5" y="-84" font-family="Helvetica,sans-Serif" font-size="10.00">iop/fs/bdmfs_fatfs</text>
<text text-anchor="middle" x="788" y="-73" font-family="Helvetica,sans-Serif" font-size="10.00">/src/main.c</text>
</a>
</g>
</g>
<!-- Node1&#45;&gt;Node9 -->
<g id="edge12" class="edge">
<title>Node1&#45;&gt;Node9</title>
<path fill="none" stroke="#63b8ff" d="M916.58,-211.14C877.35,-207.23 828,-195.33 799,-162 783.17,-143.81 783.65,-113.95 785.66,-96.31"/>
<polygon fill="#63b8ff" stroke="#63b8ff" points="916.11,-214.61 926.37,-211.95 916.69,-207.64 916.11,-214.61"/>
</g>
<!-- Node10 -->
<g id="node10" class="node">
<title>Node10</title>
<g id="a_node10"><a xlink:href="iop_2fs_2bdmfs__fatfs_2src_2irx__imports_8h_source.html" target="_top" xlink:title=" ">
<polygon fill="white" stroke="#666666" points="903.5,-162 808.5,-162 808.5,-132 903.5,-132 903.5,-162"/>
<text text-anchor="start" x="816.5" y="-150" font-family="Helvetica,sans-Serif" font-size="10.00">iop/fs/bdmfs_fatfs</text>
<text text-anchor="middle" x="856" y="-139" font-family="Helvetica,sans-Serif" font-size="10.00">/src/irx_imports.h</text>
</a>
</g>
</g>
<!-- Node1&#45;&gt;Node10 -->
<g id="edge11" class="edge">
<title>Node1&#45;&gt;Node10</title>
<path fill="none" stroke="#63b8ff" d="M939.1,-192.32C920.93,-182.63 899.42,-171.16 882.84,-162.31"/>
<polygon fill="#63b8ff" stroke="#63b8ff" points="937.26,-195.31 947.73,-196.92 940.56,-189.13 937.26,-195.31"/>
</g>
<!-- Node11 -->
<g id="node11" class="node">
<title>Node11</title>
<g id="a_node11"><a xlink:href="fs_2bdmfs__vfat_2src_2include_2fat__driver_8h_source.html" target="_top" xlink:title=" ">
<polygon fill="white" stroke="#666666" points="1071.5,-96 962.5,-96 962.5,-66 1071.5,-66 1071.5,-96"/>
<text text-anchor="start" x="970.5" y="-84" font-family="Helvetica,sans-Serif" font-size="10.00">iop/fs/bdmfs_vfat/src</text>
<text text-anchor="middle" x="1017" y="-73" font-family="Helvetica,sans-Serif" font-size="10.00">/include/fat_driver.h</text>
</a>
</g>
</g>
<!-- Node1&#45;&gt;Node11 -->
<g id="edge13" class="edge">
<title>Node1&#45;&gt;Node11</title>
<path fill="none" stroke="#63b8ff" d="M1013.35,-191.13C1023.57,-183.41 1033.37,-173.65 1039,-162 1049.46,-140.34 1036.91,-112.89 1026.92,-96.43"/>
<polygon fill="#63b8ff" stroke="#63b8ff" points="1011.42,-188.21 1005.19,-196.78 1015.41,-193.96 1011.42,-188.21"/>
</g>
<!-- Node13 -->
<g id="node13" class="node">
<title>Node13</title>
<g id="a_node13"><a xlink:href="fs_2bdmfs__vfat_2src_2include_2scache_8h_source.html" target="_top" xlink:title=" ">
<polygon fill="white" stroke="#666666" points="1030.5,-162 921.5,-162 921.5,-132 1030.5,-132 1030.5,-162"/>
<text text-anchor="start" x="929.5" y="-150" font-family="Helvetica,sans-Serif" font-size="10.00">iop/fs/bdmfs_vfat/src</text>
<text text-anchor="middle" x="976" y="-139" font-family="Helvetica,sans-Serif" font-size="10.00">/include/scache.h</text>
</a>
</g>
</g>
<!-- Node1&#45;&gt;Node13 -->
<g id="edge15" class="edge">
<title>Node1&#45;&gt;Node13</title>
<path fill="none" stroke="#63b8ff" d="M976,-186.39C976,-178.13 976,-169.28 976,-162.16"/>
<polygon fill="#63b8ff" stroke="#63b8ff" points="972.5,-186.28 976,-196.28 979.5,-186.28 972.5,-186.28"/>
</g>
<!-- Node14 -->
<g id="node14" class="node">
<title>Node14</title>
<g id="a_node14"><a xlink:href="iop_2fs_2bdmfs__vfat_2src_2irx__imports_8h_source.html" target="_top" xlink:title=" ">
<polygon fill="white" stroke="#666666" points="1196.5,-162 1087.5,-162 1087.5,-132 1196.5,-132 1196.5,-162"/>
<text text-anchor="start" x="1095.5" y="-150" font-family="Helvetica,sans-Serif" font-size="10.00">iop/fs/bdmfs_vfat/src</text>
<text text-anchor="middle" x="1142" y="-139" font-family="Helvetica,sans-Serif" font-size="10.00">/irx_imports.h</text>
</a>
</g>
</g>
<!-- Node1&#45;&gt;Node14 -->
<g id="edge17" class="edge">
<title>Node1&#45;&gt;Node14</title>
<path fill="none" stroke="#63b8ff" d="M1023.88,-193.54C1049.55,-183.64 1080.71,-171.63 1104.58,-162.43"/>
<polygon fill="#63b8ff" stroke="#63b8ff" points="1022.74,-190.23 1014.67,-197.09 1025.26,-196.76 1022.74,-190.23"/>
</g>
<!-- Node15 -->
<g id="node15" class="node">
<title>Node15</title>
<g id="a_node15"><a xlink:href="iop_2fs_2bdmfs__vfat_2src_2main_8c_source.html" target="_top" xlink:title=" ">
<polygon fill="white" stroke="#666666" points="1323.5,-162 1214.5,-162 1214.5,-132 1323.5,-132 1323.5,-162"/>
<text text-anchor="start" x="1222.5" y="-150" font-family="Helvetica,sans-Serif" font-size="10.00">iop/fs/bdmfs_vfat/src</text>
<text text-anchor="middle" x="1269" y="-139" font-family="Helvetica,sans-Serif" font-size="10.00">/main.c</text>
</a>
</g>
</g>
<!-- Node1&#45;&gt;Node15 -->
<g id="edge18" class="edge">
<title>Node1&#45;&gt;Node15</title>
<path fill="none" stroke="#63b8ff" d="M1035.27,-199.07C1081.51,-188.97 1147.34,-174.6 1205,-162 1208,-161.34 1211.08,-160.67 1214.19,-159.99"/>
<polygon fill="#63b8ff" stroke="#63b8ff" points="1034.75,-195.6 1025.73,-201.15 1036.25,-202.43 1034.75,-195.6"/>
</g>
<!-- Node16 -->
<g id="node16" class="node">
<title>Node16</title>
<g id="a_node16"><a xlink:href="bd__cache_8h.html" target="_top" xlink:title=" ">
<polygon fill="white" stroke="#666666" points="188,-162 82,-162 82,-132 188,-132 188,-162"/>
<text text-anchor="start" x="90" y="-150" font-family="Helvetica,sans-Serif" font-size="10.00">iop/fs/libbdm/include</text>
<text text-anchor="middle" x="135" y="-139" font-family="Helvetica,sans-Serif" font-size="10.00">/bd_cache.h</text>
</a>
</g>
</g>
<!-- Node1&#45;&gt;Node16 -->
<g id="edge19" class="edge">
<title>Node1&#45;&gt;Node16</title>
<path fill="none" stroke="#63b8ff" d="M916.55,-211.38C785.78,-209.32 463.6,-200.41 197,-162 194.16,-161.59 191.26,-161.12 188.33,-160.61"/>
<polygon fill="#63b8ff" stroke="#63b8ff" points="916.3,-214.88 926.35,-211.53 916.4,-207.88 916.3,-214.88"/>
</g>
<!-- Node18 -->
<g id="node18" class="node">
<title>Node18</title>
<g id="a_node18"><a xlink:href="bd__defrag_8h.html" target="_top" xlink:title=" ">
<polygon fill="white" stroke="#666666" points="1448,-162 1342,-162 1342,-132 1448,-132 1448,-162"/>
<text text-anchor="start" x="1350" y="-150" font-family="Helvetica,sans-Serif" font-size="10.00">iop/fs/libbdm/include</text>
<text text-anchor="middle" x="1395" y="-139" font-family="Helvetica,sans-Serif" font-size="10.00">/bd_defrag.h</text>
</a>
</g>
</g>
<!-- Node1&#45;&gt;Node18 -->
<g id="edge22" class="edge">
<title>Node1&#45;&gt;Node18</title>
<path fill="none" stroke="#63b8ff" d="M1035.81,-205.16C1106.91,-196.68 1229.05,-180.98 1333,-162 1335.82,-161.48 1338.71,-160.93 1341.62,-160.35"/>
<polygon fill="#63b8ff" stroke="#63b8ff" points="1035.44,-201.68 1025.92,-206.33 1036.26,-208.63 1035.44,-201.68"/>
</g>
<!-- Node20 -->
<g id="node20" class="node">
<title>Node20</title>
<g id="a_node20"><a xlink:href="iop_2i_link_2_i_e_e_e1394__bd_2src_2irx__imports_8h_source.html" target="_top" xlink:title=" ">
<polygon fill="white" stroke="#666666" points="1573.5,-162 1466.5,-162 1466.5,-132 1573.5,-132 1573.5,-162"/>
<text text-anchor="start" x="1474.5" y="-150" font-family="Helvetica,sans-Serif" font-size="10.00">iop/iLink/IEEE1394</text>
<text text-anchor="middle" x="1520" y="-139" font-family="Helvetica,sans-Serif" font-size="10.00">_bd/src/irx_imports.h</text>
</a>
</g>
</g>
<!-- Node1&#45;&gt;Node20 -->
<g id="edge24" class="edge">
<title>Node1&#45;&gt;Node20</title>
<path fill="none" stroke="#63b8ff" d="M1035.86,-208C1127.12,-201.41 1306.36,-186.48 1457,-162 1459.99,-161.51 1463.04,-160.98 1466.12,-160.4"/>
<polygon fill="#63b8ff" stroke="#63b8ff" points="1035.61,-204.51 1025.88,-208.71 1036.11,-211.49 1035.61,-204.51"/>
</g>
<!-- Node21 -->
<g id="node21" class="node">
<title>Node21</title>
<g id="a_node21"><a xlink:href="i_link_2_i_e_e_e1394__bd_2src_2scsi_8c_source.html" target="_top" xlink:title=" ">
<polygon fill="white" stroke="#666666" points="1690,-162 1592,-162 1592,-132 1690,-132 1690,-162"/>
<text text-anchor="start" x="1600" y="-150" font-family="Helvetica,sans-Serif" font-size="10.00">iop/iLink/IEEE1394</text>
<text text-anchor="middle" x="1641" y="-139" font-family="Helvetica,sans-Serif" font-size="10.00">_bd/src/scsi.c</text>
</a>
</g>
</g>
<!-- Node1&#45;&gt;Node21 -->
<g id="edge25" class="edge">
<title>Node1&#45;&gt;Node21</title>
<path fill="none" stroke="#63b8ff" d="M1035.72,-210.14C1144.97,-206.07 1384.07,-194.01 1583,-162 1585.86,-161.54 1588.79,-161.01 1591.74,-160.44"/>
<polygon fill="#63b8ff" stroke="#63b8ff" points="1035.68,-206.64 1025.82,-210.5 1035.94,-213.64 1035.68,-206.64"/>
</g>
<!-- Node22 -->
<g id="node22" class="node">
<title>Node22</title>
<g id="a_node22"><a xlink:href="iop_2sio_2mx4sio__bd_2src_2irx__imports_8h_source.html" target="_top" xlink:title=" ">
<polygon fill="white" stroke="#666666" points="1819.5,-162 1708.5,-162 1708.5,-132 1819.5,-132 1819.5,-162"/>
<text text-anchor="start" x="1716.5" y="-150" font-family="Helvetica,sans-Serif" font-size="10.00">iop/sio/mx4sio_bd/src</text>
<text text-anchor="middle" x="1764" y="-139" font-family="Helvetica,sans-Serif" font-size="10.00">/irx_imports.h</text>
</a>
</g>
</g>
<!-- Node1&#45;&gt;Node22 -->
<g id="edge26" class="edge">
<title>Node1&#45;&gt;Node22</title>
<path fill="none" stroke="#63b8ff" d="M1035.96,-210.75C1160.22,-207.53 1454.61,-196.59 1699,-162 1701.97,-161.58 1705.01,-161.1 1708.07,-160.58"/>
<polygon fill="#63b8ff" stroke="#63b8ff" points="1035.9,-207.25 1025.99,-211 1036.08,-214.25 1035.9,-207.25"/>
</g>
<!-- Node23 -->
<g id="node23" class="node">
<title>Node23</title>
<g id="a_node23"><a xlink:href="mx4sio_8c_source.html" target="_top" xlink:title=" ">
<polygon fill="white" stroke="#666666" points="1948.5,-162 1837.5,-162 1837.5,-132 1948.5,-132 1948.5,-162"/>
<text text-anchor="start" x="1845.5" y="-150" font-family="Helvetica,sans-Serif" font-size="10.00">iop/sio/mx4sio_bd/src</text>
<text text-anchor="middle" x="1893" y="-139" font-family="Helvetica,sans-Serif" font-size="10.00">/mx4sio.c</text>
</a>
</g>
</g>
<!-- Node1&#45;&gt;Node23 -->
<g id="edge27" class="edge">
<title>Node1&#45;&gt;Node23</title>
<path fill="none" stroke="#63b8ff" d="M1035.59,-211.71C1175.02,-210.34 1533.12,-202.78 1829,-162 1831.7,-161.63 1834.46,-161.2 1837.24,-160.74"/>
<polygon fill="#63b8ff" stroke="#63b8ff" points="1035.84,-208.21 1025.87,-211.8 1035.9,-215.21 1035.84,-208.21"/>
</g>
<!-- Node24 -->
<g id="node24" class="node">
<title>Node24</title>
<g id="a_node24"><a xlink:href="iop_2usb_2usbmass__bd_2src_2irx__imports_8h_source.html" target="_top" xlink:title=" ">
<polygon fill="white" stroke="#666666" points="2073.5,-162 1966.5,-162 1966.5,-132 2073.5,-132 2073.5,-162"/>
<text text-anchor="start" x="1974.5" y="-150" font-family="Helvetica,sans-Serif" font-size="10.00">iop/usb/usbmass_bd</text>
<text text-anchor="middle" x="2020" y="-139" font-family="Helvetica,sans-Serif" font-size="10.00">/src/irx_imports.h</text>
</a>
</g>
</g>
<!-- Node1&#45;&gt;Node24 -->
<g id="edge28" class="edge">
<title>Node1&#45;&gt;Node24</title>
<path fill="none" stroke="#63b8ff" d="M1035.76,-212.51C1189.52,-213.04 1611.04,-209.65 1958,-162 1960.73,-161.62 1963.52,-161.19 1966.33,-160.71"/>
<polygon fill="#63b8ff" stroke="#63b8ff" points="1035.83,-209.01 1025.81,-212.46 1035.8,-216.01 1035.83,-209.01"/>
</g>
<!-- Node25 -->
<g id="node25" class="node">
<title>Node25</title>
<g id="a_node25"><a xlink:href="usb_2usbmass__bd_2src_2scsi_8c_source.html" target="_top" xlink:title=" ">
<polygon fill="white" stroke="#666666" points="2198.5,-162 2091.5,-162 2091.5,-132 2198.5,-132 2198.5,-162"/>
<text text-anchor="start" x="2099.5" y="-150" font-family="Helvetica,sans-Serif" font-size="10.00">iop/usb/usbmass_bd</text>
<text text-anchor="middle" x="2145" y="-139" font-family="Helvetica,sans-Serif" font-size="10.00">/src/scsi.c</text>
</a>
</g>
</g>
<!-- Node1&#45;&gt;Node25 -->
<g id="edge29" class="edge">
<title>Node1&#45;&gt;Node25</title>
<path fill="none" stroke="#63b8ff" d="M1035.72,-210.7C1235.27,-206.12 1877.83,-189.58 2083,-162 2085.73,-161.63 2088.53,-161.2 2091.34,-160.73"/>
<polygon fill="#63b8ff" stroke="#63b8ff" points="1035.76,-207.19 1025.85,-210.92 1035.92,-214.19 1035.76,-207.19"/>
</g>
<!-- Node8&#45;&gt;Node6 -->
<g id="edge8" class="edge">
<title>Node8&#45;&gt;Node6</title>
<path fill="none" stroke="#63b8ff" d="M654.24,-126.72C634.08,-116.95 610.02,-105.28 591.52,-96.31"/>
<polygon fill="#63b8ff" stroke="#63b8ff" points="652.49,-129.76 663.01,-130.98 655.54,-123.46 652.49,-129.76"/>
</g>
<!-- Node8&#45;&gt;Node7 -->
<g id="edge9" class="edge">
<title>Node8&#45;&gt;Node7</title>
<path fill="none" stroke="#63b8ff" d="M686.57,-120.97C684.07,-112.55 681.37,-103.45 679.2,-96.16"/>
<polygon fill="#63b8ff" stroke="#63b8ff" points="683.15,-121.76 689.35,-130.35 689.86,-119.76 683.15,-121.76"/>
</g>
<!-- Node8&#45;&gt;Node9 -->
<g id="edge10" class="edge">
<title>Node8&#45;&gt;Node9</title>
<path fill="none" stroke="#63b8ff" d="M724.07,-125.52C738.02,-116.03 754.25,-104.98 766.87,-96.39"/>
<polygon fill="#63b8ff" stroke="#63b8ff" points="722.41,-122.42 716.11,-130.94 726.35,-128.21 722.41,-122.42"/>
</g>
<!-- Node12 -->
<g id="node12" class="node">
<title>Node12</title>
<g id="a_node12"><a xlink:href="fs_2bdmfs__vfat_2src_2include_2fat_8h_source.html" target="_top" xlink:title=" ">
<polygon fill="white" stroke="#666666" points="1071.5,-30 962.5,-30 962.5,0 1071.5,0 1071.5,-30"/>
<text text-anchor="start" x="970.5" y="-18" font-family="Helvetica,sans-Serif" font-size="10.00">iop/fs/bdmfs_vfat/src</text>
<text text-anchor="middle" x="1017" y="-7" font-family="Helvetica,sans-Serif" font-size="10.00">/include/fat.h</text>
</a>
</g>
</g>
<!-- Node11&#45;&gt;Node12 -->
<g id="edge14" class="edge">
<title>Node11&#45;&gt;Node12</title>
<path fill="none" stroke="#63b8ff" d="M1017,-54.39C1017,-46.13 1017,-37.28 1017,-30.16"/>
<polygon fill="#63b8ff" stroke="#63b8ff" points="1013.5,-54.28 1017,-64.28 1020.5,-54.28 1013.5,-54.28"/>
</g>
<!-- Node13&#45;&gt;Node11 -->
<g id="edge16" class="edge">
<title>Node13&#45;&gt;Node11</title>
<path fill="none" stroke="#63b8ff" d="M991.3,-122.11C996.9,-113.38 1003.05,-103.78 1007.93,-96.16"/>
<polygon fill="#63b8ff" stroke="#63b8ff" points="988.36,-120.21 985.92,-130.52 994.26,-123.99 988.36,-120.21"/>
</g>
<!-- Node16&#45;&gt;Node2 -->
<g id="edge20" class="edge">
<title>Node16&#45;&gt;Node2</title>
<path fill="none" stroke="#63b8ff" d="M108.34,-124.93C93.68,-113.35 76.28,-99.61 65.19,-90.84"/>
<polygon fill="#63b8ff" stroke="#63b8ff" points="105.82,-127.4 115.84,-130.86 110.16,-121.91 105.82,-127.4"/>
</g>
<!-- Node17 -->
<g id="node17" class="node">
<title>Node17</title>
<g id="a_node17"><a xlink:href="bd__cache_8c_source.html" target="_top" xlink:title=" ">
<polygon fill="white" stroke="#666666" points="228,-96 126,-96 126,-66 228,-66 228,-96"/>
<text text-anchor="start" x="134" y="-84" font-family="Helvetica,sans-Serif" font-size="10.00">iop/fs/libbdm/src/bd</text>
<text text-anchor="middle" x="177" y="-73" font-family="Helvetica,sans-Serif" font-size="10.00">_cache.c</text>
</a>
</g>
</g>
<!-- Node16&#45;&gt;Node17 -->
<g id="edge21" class="edge">
<title>Node16&#45;&gt;Node17</title>
<path fill="none" stroke="#63b8ff" d="M150.49,-122.39C156.27,-113.59 162.65,-103.86 167.7,-96.16"/>
<polygon fill="#63b8ff" stroke="#63b8ff" points="147.71,-120.25 145.15,-130.53 153.56,-124.09 147.71,-120.25"/>
</g>
<!-- Node19 -->
<g id="node19" class="node">
<title>Node19</title>
<g id="a_node19"><a xlink:href="bd__defrag_8c_source.html" target="_top" xlink:title=" ">
<polygon fill="white" stroke="#666666" points="1446,-96 1344,-96 1344,-66 1446,-66 1446,-96"/>
<text text-anchor="start" x="1352" y="-84" font-family="Helvetica,sans-Serif" font-size="10.00">iop/fs/libbdm/src/bd</text>
<text text-anchor="middle" x="1395" y="-73" font-family="Helvetica,sans-Serif" font-size="10.00">_defrag.c</text>
</a>
</g>
</g>
<!-- Node18&#45;&gt;Node19 -->
<g id="edge23" class="edge">
<title>Node18&#45;&gt;Node19</title>
<path fill="none" stroke="#63b8ff" d="M1395,-120.39C1395,-112.13 1395,-103.28 1395,-96.16"/>
<polygon fill="#63b8ff" stroke="#63b8ff" points="1391.5,-120.28 1395,-130.28 1398.5,-120.28 1391.5,-120.28"/>
</g>
</g>
</svg>
        <g id="navigator" transform="translate(0 0)" fill="#404254">
                <rect fill="#f2f5e9" fill-opacity="0.5" stroke="#606060" stroke-width=".5" x="0" y="0" width="60" height="60"/>
                <use id="zoomplus" xlink:href="#zoomPlus" x="17" y="9" onmousedown="handleZoom(evt,'in')"/>
                <use id="zoomminus" xlink:href="#zoomMin" x="42" y="9" onmousedown="handleZoom(evt,'out')"/>
                <use id="reset" xlink:href="#resetDef" x="30" y="36" onmousedown="handleReset()"/>
                <g id="arrowUp" xlink:href="#dirArrow" transform="translate(30 24)" onmousedown="handlePan(0,-1)">
                  <use xlink:href="#rim" fill="#404040">
                        <set attributeName="fill" to="#808080" begin="arrowUp.mouseover" end="arrowUp.mouseout"/>
                  </use>
                  <path fill="none" stroke="white" stroke-width="1.5" d="M0,-3.0v7 M-2.5,-0.5L0,-3.0L2.5,-0.5"/>
                </g>
                <g id="arrowRight" xlink:href="#dirArrow" transform="rotate(90) translate(36 -43)" onmousedown="handlePan(1,0)">
                  <use xlink:href="#rim" fill="#404040">
                        <set attributeName="fill" to="#808080" begin="arrowRight.mouseover" end="arrowRight.mouseout"/>
                  </use>
                  <path fill="none" stroke="white" stroke-width="1.5" d="M0,-3.0v7 M-2.5,-0.5L0,-3.0L2.5,-0.5"/>
                </g>
                <g id="arrowDown" xlink:href="#dirArrow" transform="rotate(180) translate(-30 -48)" onmousedown="handlePan(0,1)">
                  <use xlink:href="#rim" fill="#404040">
                        <set attributeName="fill" to="#808080" begin="arrowDown.mouseover" end="arrowDown.mouseout"/>
                  </use>
                  <path fill="none" stroke="white" stroke-width="1.5" d="M0,-3.0v7 M-2.5,-0.5L0,-3.0L2.5,-0.5"/>
                </g>
                <g id="arrowLeft" xlink:href="#dirArrow" transform="rotate(270) translate(-36 17)" onmousedown="handlePan(-1,0)">
                  <use xlink:href="#rim" fill="#404040">
                        <set attributeName="fill" to="#808080" begin="arrowLeft.mouseover" end="arrowLeft.mouseout"/>
                  </use>
                  <path fill="none" stroke="white" stroke-width="1.5" d="M0,-3.0v7 M-2.5,-0.5L0,-3.0L2.5,-0.5"/>
                </g>
        </g>
        <svg viewBox="0 0 15 15" width="100%" height="30px" preserveAspectRatio="xMaxYMin meet">
         <g id="arrow_out" transform="scale(0.3 0.3)">
          <a xlink:href="bdm_8h__dep__incl_org.svg" target="_base">
           <rect id="button" ry="5" rx="5" y="6" x="6" height="38" width="38"
                fill="#f2f5e9" fill-opacity="0.5" stroke="#606060" stroke-width="1.0"/>
           <path id="arrow"
             d="M 11.500037,31.436501 C 11.940474,20.09759 22.043105,11.32322 32.158766,21.979434 L 37.068811,17.246167 C 37.068811,17.246167 37.088388,32 37.088388,32 L 22.160133,31.978069 C 22.160133,31.978069 26.997745,27.140456 26.997745,27.140456 C 18.528582,18.264221 13.291696,25.230495 11.500037,31.436501 z"
             style="fill:#404040;"/>
          </a>
         </g>
        </svg>
</svg>
