<?xml version="1.0" encoding="UTF-8" standalone="no"?>
<!DOCTYPE svg PUBLIC "-//W3C//DTD SVG 1.1//EN"
 "http://www.w3.org/Graphics/SVG/1.1/DTD/svg11.dtd">
<!-- Generated by graphviz version 7.0.5 (20221223.1930)
 -->
<!-- Title: iop/sound/audsrv/src/cdrom.c Pages: 1 -->
<svg width="1325pt" height="258pt"
 viewBox="0.00 0.00 1324.50 258.00" xmlns="http://www.w3.org/2000/svg" xmlns:xlink="http://www.w3.org/1999/xlink">
<g id="graph0" class="graph" transform="scale(1 1) rotate(0) translate(4 254)">
<title>iop/sound/audsrv/src/cdrom.c</title>
<!-- Node1 -->
<g id="node1" class="node">
<title>Node1</title>
<g id="a_node1"><a xlink:title=" ">
<polygon fill="#999999" stroke="#666666" points="715.5,-250 608.5,-250 608.5,-220 715.5,-220 715.5,-250"/>
<text text-anchor="start" x="616.5" y="-238" font-family="Helvetica,sans-Serif" font-size="10.00">iop/sound/audsrv/src</text>
<text text-anchor="middle" x="662" y="-227" font-family="Helvetica,sans-Serif" font-size="10.00">/cdrom.c</text>
</a>
</g>
</g>
<!-- Node2 -->
<g id="node2" class="node">
<title>Node2</title>
<g id="a_node2"><a xlink:href="stdio_8h.html" target="_top" xlink:title=" ">
<polygon fill="white" stroke="#666666" points="429.5,-184 384.5,-184 384.5,-165 429.5,-165 429.5,-184"/>
<text text-anchor="middle" x="407" y="-172" font-family="Helvetica,sans-Serif" font-size="10.00">stdio.h</text>
</a>
</g>
</g>
<!-- Node1&#45;&gt;Node2 -->
<g id="edge1" class="edge">
<title>Node1&#45;&gt;Node2</title>
<path fill="none" stroke="#63b8ff" d="M608.24,-222.56C565.46,-213.32 503.81,-199.7 440.67,-184.33"/>
<polygon fill="#63b8ff" stroke="#63b8ff" points="441.71,-180.98 431.17,-182.01 440.05,-187.78 441.71,-180.98"/>
</g>
<!-- Node8 -->
<g id="node8" class="node">
<title>Node8</title>
<g id="a_node8"><a xlink:href="thbase_8h.html" target="_top" xlink:title=" ">
<polygon fill="white" stroke="#666666" points="127.5,-184 74.5,-184 74.5,-165 127.5,-165 127.5,-184"/>
<text text-anchor="middle" x="101" y="-172" font-family="Helvetica,sans-Serif" font-size="10.00">thbase.h</text>
</a>
</g>
</g>
<!-- Node1&#45;&gt;Node8 -->
<g id="edge7" class="edge">
<title>Node1&#45;&gt;Node8</title>
<path fill="none" stroke="#63b8ff" d="M608.03,-231.3C514.49,-226.1 316.09,-212.72 138.76,-184.04"/>
<polygon fill="#63b8ff" stroke="#63b8ff" points="139.58,-180.63 129.15,-182.47 138.45,-187.54 139.58,-180.63"/>
</g>
<!-- Node9 -->
<g id="node9" class="node">
<title>Node9</title>
<g id="a_node9"><a xlink:href="thsemap_8h.html" target="_top" xlink:title=" ">
<polygon fill="white" stroke="#666666" points="208,-184 146,-184 146,-165 208,-165 208,-184"/>
<text text-anchor="middle" x="177" y="-172" font-family="Helvetica,sans-Serif" font-size="10.00">thsemap.h</text>
</a>
</g>
</g>
<!-- Node1&#45;&gt;Node9 -->
<g id="edge10" class="edge">
<title>Node1&#45;&gt;Node9</title>
<path fill="none" stroke="#63b8ff" d="M608.13,-229.55C526.42,-222.45 366.06,-207.12 219.28,-184.04"/>
<polygon fill="#63b8ff" stroke="#63b8ff" points="220.2,-180.65 209.78,-182.53 219.11,-187.56 220.2,-180.65"/>
</g>
<!-- Node10 -->
<g id="node10" class="node">
<title>Node10</title>
<g id="a_node10"><a xlink:href="loadcore_8h.html" target="_top" xlink:title=" ">
<polygon fill="white" stroke="#666666" points="287.5,-184 226.5,-184 226.5,-165 287.5,-165 287.5,-184"/>
<text text-anchor="middle" x="257" y="-172" font-family="Helvetica,sans-Serif" font-size="10.00">loadcore.h</text>
</a>
</g>
</g>
<!-- Node1&#45;&gt;Node10 -->
<g id="edge13" class="edge">
<title>Node1&#45;&gt;Node10</title>
<path fill="none" stroke="#63b8ff" d="M608,-227.86C538.83,-219.71 414.99,-204.19 299.15,-184.26"/>
<polygon fill="#63b8ff" stroke="#63b8ff" points="299.91,-180.84 289.46,-182.57 298.71,-187.73 299.91,-180.84"/>
</g>
<!-- Node11 -->
<g id="node11" class="node">
<title>Node11</title>
<g id="a_node11"><a xlink:href="sysmem_8h.html" target="_top" xlink:title=" ">
<polygon fill="white" stroke="#666666" points="366.5,-184 305.5,-184 305.5,-165 366.5,-165 366.5,-184"/>
<text text-anchor="middle" x="336" y="-172" font-family="Helvetica,sans-Serif" font-size="10.00">sysmem.h</text>
</a>
</g>
</g>
<!-- Node1&#45;&gt;Node11 -->
<g id="edge16" class="edge">
<title>Node1&#45;&gt;Node11</title>
<path fill="none" stroke="#63b8ff" d="M608.13,-225.18C552.92,-216.01 464.3,-200.92 378.04,-184.34"/>
<polygon fill="#63b8ff" stroke="#63b8ff" points="378.95,-180.95 368.47,-182.49 377.63,-187.82 378.95,-180.95"/>
</g>
<!-- Node12 -->
<g id="node12" class="node">
<title>Node12</title>
<g id="a_node12"><a xlink:href="intrman_8h.html" target="_top" xlink:title=" ">
<polygon fill="white" stroke="#666666" points="56,-184 0,-184 0,-165 56,-165 56,-184"/>
<text text-anchor="middle" x="28" y="-172" font-family="Helvetica,sans-Serif" font-size="10.00">intrman.h</text>
</a>
</g>
</g>
<!-- Node1&#45;&gt;Node12 -->
<g id="edge20" class="edge">
<title>Node1&#45;&gt;Node12</title>
<path fill="none" stroke="#63b8ff" d="M608.18,-232.06C505.07,-227.79 272.46,-215.46 67.49,-184.16"/>
<polygon fill="#63b8ff" stroke="#63b8ff" points="68.12,-180.72 57.7,-182.65 67.04,-187.63 68.12,-180.72"/>
</g>
<!-- Node13 -->
<g id="node13" class="node">
<title>Node13</title>
<g id="a_node13"><a xlink:title=" ">
<polygon fill="#e0e0e0" stroke="#999999" points="655.5,-184 602.5,-184 602.5,-165 655.5,-165 655.5,-184"/>
<text text-anchor="middle" x="629" y="-172" font-family="Helvetica,sans-Serif" font-size="10.00">sifcmd.h</text>
</a>
</g>
</g>
<!-- Node1&#45;&gt;Node13 -->
<g id="edge23" class="edge">
<title>Node1&#45;&gt;Node13</title>
<path fill="none" stroke="#63b8ff" d="M653.84,-219.54C649.49,-211.82 644.09,-202.24 639.43,-193.99"/>
<polygon fill="#63b8ff" stroke="#63b8ff" points="642.6,-192.48 634.64,-185.49 636.5,-195.92 642.6,-192.48"/>
</g>
<!-- Node14 -->
<g id="node14" class="node">
<title>Node14</title>
<g id="a_node14"><a xlink:title=" ">
<polygon fill="#e0e0e0" stroke="#999999" points="718,-184 674,-184 674,-165 718,-165 718,-184"/>
<text text-anchor="middle" x="696" y="-172" font-family="Helvetica,sans-Serif" font-size="10.00">libsd.h</text>
</a>
</g>
</g>
<!-- Node1&#45;&gt;Node14 -->
<g id="edge24" class="edge">
<title>Node1&#45;&gt;Node14</title>
<path fill="none" stroke="#63b8ff" d="M670.4,-219.54C674.89,-211.82 680.46,-202.24 685.25,-193.99"/>
<polygon fill="#63b8ff" stroke="#63b8ff" points="688.2,-195.89 690.2,-185.48 682.15,-192.37 688.2,-195.89"/>
</g>
<!-- Node15 -->
<g id="node15" class="node">
<title>Node15</title>
<g id="a_node15"><a xlink:href="cdvdman_8h.html" target="_top" xlink:title=" ">
<polygon fill="white" stroke="#666666" points="512,-184 448,-184 448,-165 512,-165 512,-184"/>
<text text-anchor="middle" x="480" y="-172" font-family="Helvetica,sans-Serif" font-size="10.00">cdvdman.h</text>
</a>
</g>
</g>
<!-- Node1&#45;&gt;Node15 -->
<g id="edge25" class="edge">
<title>Node1&#45;&gt;Node15</title>
<path fill="none" stroke="#63b8ff" d="M617.01,-219.54C586.81,-209.83 547.43,-197.17 518.65,-187.92"/>
<polygon fill="#63b8ff" stroke="#63b8ff" points="519.82,-184.62 509.23,-184.9 517.68,-191.29 519.82,-184.62"/>
</g>
<!-- Node17 -->
<g id="node17" class="node">
<title>Node17</title>
<g id="a_node17"><a xlink:href="sysclib_8h.html" target="_top" xlink:title=" ">
<polygon fill="white" stroke="#666666" points="584,-184 530,-184 530,-165 584,-165 584,-184"/>
<text text-anchor="middle" x="557" y="-172" font-family="Helvetica,sans-Serif" font-size="10.00">sysclib.h</text>
</a>
</g>
</g>
<!-- Node1&#45;&gt;Node17 -->
<g id="edge30" class="edge">
<title>Node1&#45;&gt;Node17</title>
<path fill="none" stroke="#63b8ff" d="M636.04,-219.54C619.8,-210.49 598.97,-198.88 582.76,-189.85"/>
<polygon fill="#63b8ff" stroke="#63b8ff" points="584.64,-186.89 574.2,-185.08 581.23,-193.01 584.64,-186.89"/>
</g>
<!-- Node20 -->
<g id="node20" class="node">
<title>Node20</title>
<g id="a_node20"><a xlink:title=" ">
<polygon fill="#e0e0e0" stroke="#999999" points="789.5,-184 736.5,-184 736.5,-165 789.5,-165 789.5,-184"/>
<text text-anchor="middle" x="763" y="-172" font-family="Helvetica,sans-Serif" font-size="10.00">audsrv.h</text>
</a>
</g>
</g>
<!-- Node1&#45;&gt;Node20 -->
<g id="edge37" class="edge">
<title>Node1&#45;&gt;Node20</title>
<path fill="none" stroke="#63b8ff" d="M686.97,-219.54C702.44,-210.58 722.25,-199.1 737.77,-190.11"/>
<polygon fill="#63b8ff" stroke="#63b8ff" points="739.52,-193.15 746.42,-185.1 736.01,-187.09 739.52,-193.15"/>
</g>
<!-- Node21 -->
<g id="node21" class="node">
<title>Node21</title>
<g id="a_node21"><a xlink:href="cdrom_8h.html" target="_top" xlink:title=" ">
<polygon fill="white" stroke="#666666" points="858.5,-184 807.5,-184 807.5,-165 858.5,-165 858.5,-184"/>
<text text-anchor="middle" x="833" y="-172" font-family="Helvetica,sans-Serif" font-size="10.00">cdrom.h</text>
</a>
</g>
</g>
<!-- Node1&#45;&gt;Node21 -->
<g id="edge38" class="edge">
<title>Node1&#45;&gt;Node21</title>
<path fill="none" stroke="#63b8ff" d="M704.27,-219.54C732.61,-209.84 769.54,-197.21 796.58,-187.96"/>
<polygon fill="#63b8ff" stroke="#63b8ff" points="797.38,-191.38 805.71,-184.84 795.12,-184.76 797.38,-191.38"/>
</g>
<!-- Node22 -->
<g id="node22" class="node">
<title>Node22</title>
<g id="a_node22"><a xlink:href="iop_2sound_2audsrv_2src_2common_8h.html" target="_top" xlink:title=" ">
<polygon fill="white" stroke="#666666" points="939,-184 877,-184 877,-165 939,-165 939,-184"/>
<text text-anchor="middle" x="908" y="-172" font-family="Helvetica,sans-Serif" font-size="10.00">common.h</text>
</a>
</g>
</g>
<!-- Node1&#45;&gt;Node22 -->
<g id="edge39" class="edge">
<title>Node1&#45;&gt;Node22</title>
<path fill="none" stroke="#63b8ff" d="M715.99,-221.16C760.97,-210.46 824.18,-195.43 865.6,-185.58"/>
<polygon fill="#63b8ff" stroke="#63b8ff" points="866.28,-189.02 875.2,-183.3 864.66,-182.21 866.28,-189.02"/>
</g>
<!-- Node23 -->
<g id="node23" class="node">
<title>Node23</title>
<g id="a_node23"><a xlink:href="iop_2sound_2audsrv_2src_2rpc__server_8h.html" target="_top" xlink:title=" ">
<polygon fill="white" stroke="#666666" points="1027,-184 957,-184 957,-165 1027,-165 1027,-184"/>
<text text-anchor="middle" x="992" y="-172" font-family="Helvetica,sans-Serif" font-size="10.00">rpc_server.h</text>
</a>
</g>
</g>
<!-- Node1&#45;&gt;Node23 -->
<g id="edge40" class="edge">
<title>Node1&#45;&gt;Node23</title>
<path fill="none" stroke="#63b8ff" d="M715.82,-224.88C770.98,-215.47 859.56,-200.19 945.88,-184.36"/>
<polygon fill="#63b8ff" stroke="#63b8ff" points="946.25,-187.85 955.46,-182.6 944.99,-180.97 946.25,-187.85"/>
</g>
<!-- Node24 -->
<g id="node24" class="node">
<title>Node24</title>
<g id="a_node24"><a xlink:href="iop_2sound_2audsrv_2src_2rpc__client_8h.html" target="_top" xlink:title=" ">
<polygon fill="white" stroke="#666666" points="1111,-184 1045,-184 1045,-165 1111,-165 1111,-184"/>
<text text-anchor="middle" x="1078" y="-172" font-family="Helvetica,sans-Serif" font-size="10.00">rpc_client.h</text>
</a>
</g>
</g>
<!-- Node1&#45;&gt;Node24 -->
<g id="edge41" class="edge">
<title>Node1&#45;&gt;Node24</title>
<path fill="none" stroke="#63b8ff" d="M715.74,-227.96C786.34,-219.77 914.41,-204.05 1033.45,-184.33"/>
<polygon fill="#63b8ff" stroke="#63b8ff" points="1033.79,-187.83 1043.07,-182.73 1032.63,-180.92 1033.79,-187.83"/>
</g>
<!-- Node25 -->
<g id="node25" class="node">
<title>Node25</title>
<g id="a_node25"><a xlink:href="upsamplers_8h.html" target="_top" xlink:title=" ">
<polygon fill="white" stroke="#666666" points="1203,-184 1129,-184 1129,-165 1203,-165 1203,-184"/>
<text text-anchor="middle" x="1166" y="-172" font-family="Helvetica,sans-Serif" font-size="10.00">upsamplers.h</text>
</a>
</g>
</g>
<!-- Node1&#45;&gt;Node25 -->
<g id="edge42" class="edge">
<title>Node1&#45;&gt;Node25</title>
<path fill="none" stroke="#63b8ff" d="M715.75,-229.43C799.4,-222.04 965.99,-206.17 1117.54,-184.26"/>
<polygon fill="#63b8ff" stroke="#63b8ff" points="1117.99,-187.73 1127.38,-182.82 1116.98,-180.8 1117.99,-187.73"/>
</g>
<!-- Node26 -->
<g id="node26" class="node">
<title>Node26</title>
<g id="a_node26"><a xlink:href="spu_8h.html" target="_top" xlink:title=" ">
<polygon fill="white" stroke="#666666" points="1261,-184 1221,-184 1221,-165 1261,-165 1261,-184"/>
<text text-anchor="middle" x="1241" y="-172" font-family="Helvetica,sans-Serif" font-size="10.00">spu.h</text>
</a>
</g>
</g>
<!-- Node1&#45;&gt;Node26 -->
<g id="edge43" class="edge">
<title>Node1&#45;&gt;Node26</title>
<path fill="none" stroke="#63b8ff" d="M715.96,-232.57C813.11,-229.24 1023.89,-218.59 1209.47,-184.12"/>
<polygon fill="#63b8ff" stroke="#63b8ff" points="1209.86,-187.61 1219.04,-182.32 1208.56,-180.73 1209.86,-187.61"/>
</g>
<!-- Node27 -->
<g id="node27" class="node">
<title>Node27</title>
<g id="a_node27"><a xlink:href="hw_8h.html" target="_top" xlink:title=" ">
<polygon fill="white" stroke="#666666" points="1316.5,-184 1279.5,-184 1279.5,-165 1316.5,-165 1316.5,-184"/>
<text text-anchor="middle" x="1298" y="-172" font-family="Helvetica,sans-Serif" font-size="10.00">hw.h</text>
</a>
</g>
</g>
<!-- Node1&#45;&gt;Node27 -->
<g id="edge44" class="edge">
<title>Node1&#45;&gt;Node27</title>
<path fill="none" stroke="#63b8ff" d="M715.78,-233.4C820.57,-231.41 1059.32,-222.84 1267.99,-183.93"/>
<polygon fill="#63b8ff" stroke="#63b8ff" points="1268.5,-187.4 1277.67,-182.1 1267.19,-180.52 1268.5,-187.4"/>
</g>
<!-- Node3 -->
<g id="node3" class="node">
<title>Node3</title>
<g id="a_node3"><a xlink:title=" ">
<polygon fill="#e0e0e0" stroke="#999999" points="414.5,-129 363.5,-129 363.5,-110 414.5,-110 414.5,-129"/>
<text text-anchor="middle" x="389" y="-117" font-family="Helvetica,sans-Serif" font-size="10.00">stdarg.h</text>
</a>
</g>
</g>
<!-- Node2&#45;&gt;Node3 -->
<g id="edge2" class="edge">
<title>Node2&#45;&gt;Node3</title>
<path fill="none" stroke="#63b8ff" d="M404.03,-164.75C401.77,-158.11 398.59,-148.73 395.73,-140.31"/>
<polygon fill="#63b8ff" stroke="#63b8ff" points="399.05,-139.22 392.52,-130.88 392.43,-141.47 399.05,-139.22"/>
</g>
<!-- Node4 -->
<g id="node4" class="node">
<title>Node4</title>
<g id="a_node4"><a xlink:href="irx_8h.html" target="_top" xlink:title=" ">
<polygon fill="white" stroke="#666666" points="307,-129 273,-129 273,-110 307,-110 307,-129"/>
<text text-anchor="middle" x="290" y="-117" font-family="Helvetica,sans-Serif" font-size="10.00">irx.h</text>
</a>
</g>
</g>
<!-- Node2&#45;&gt;Node4 -->
<g id="edge3" class="edge">
<title>Node2&#45;&gt;Node4</title>
<path fill="none" stroke="#63b8ff" d="M387.15,-164.51C368.05,-155.86 339.01,-142.7 317.65,-133.02"/>
<polygon fill="#63b8ff" stroke="#63b8ff" points="319.2,-129.89 308.65,-128.95 316.32,-136.26 319.2,-129.89"/>
</g>
<!-- Node5 -->
<g id="node5" class="node">
<title>Node5</title>
<g id="a_node5"><a xlink:href="iop_2kernel_2include_2types_8h_source.html" target="_top" xlink:title=" ">
<polygon fill="white" stroke="#666666" points="313.5,-74 266.5,-74 266.5,-55 313.5,-55 313.5,-74"/>
<text text-anchor="middle" x="290" y="-62" font-family="Helvetica,sans-Serif" font-size="10.00">types.h</text>
</a>
</g>
</g>
<!-- Node4&#45;&gt;Node5 -->
<g id="edge4" class="edge">
<title>Node4&#45;&gt;Node5</title>
<path fill="none" stroke="#63b8ff" d="M290,-109.75C290,-103.27 290,-94.16 290,-85.9"/>
<polygon fill="#63b8ff" stroke="#63b8ff" points="293.5,-85.96 290,-75.96 286.5,-85.96 293.5,-85.96"/>
</g>
<!-- Node6 -->
<g id="node6" class="node">
<title>Node6</title>
<g id="a_node6"><a xlink:title=" ">
<polygon fill="#e0e0e0" stroke="#999999" points="315.5,-19 264.5,-19 264.5,0 315.5,0 315.5,-19"/>
<text text-anchor="middle" x="290" y="-7" font-family="Helvetica,sans-Serif" font-size="10.00">stddef.h</text>
</a>
</g>
</g>
<!-- Node5&#45;&gt;Node6 -->
<g id="edge5" class="edge">
<title>Node5&#45;&gt;Node6</title>
<path fill="none" stroke="#63b8ff" d="M290,-54.75C290,-48.27 290,-39.16 290,-30.9"/>
<polygon fill="#63b8ff" stroke="#63b8ff" points="293.5,-30.96 290,-20.96 286.5,-30.96 293.5,-30.96"/>
</g>
<!-- Node7 -->
<g id="node7" class="node">
<title>Node7</title>
<g id="a_node7"><a xlink:href="tamtypes_8h.html" target="_top" xlink:title=" ">
<polygon fill="white" stroke="#666666" points="497,-19 433,-19 433,0 497,0 497,-19"/>
<text text-anchor="middle" x="465" y="-7" font-family="Helvetica,sans-Serif" font-size="10.00">tamtypes.h</text>
</a>
</g>
</g>
<!-- Node5&#45;&gt;Node7 -->
<g id="edge6" class="edge">
<title>Node5&#45;&gt;Node7</title>
<path fill="none" stroke="#63b8ff" d="M313.97,-56.24C342.52,-47.6 390.65,-33.02 424.9,-22.65"/>
<polygon fill="#63b8ff" stroke="#63b8ff" points="425.48,-26.12 434.04,-19.88 423.45,-19.43 425.48,-26.12"/>
</g>
<!-- Node8&#45;&gt;Node4 -->
<g id="edge9" class="edge">
<title>Node8&#45;&gt;Node4</title>
<path fill="none" stroke="#63b8ff" d="M127.68,-166.02C163.21,-156.05 225.78,-138.51 261.98,-128.36"/>
<polygon fill="#63b8ff" stroke="#63b8ff" points="262.6,-131.82 271.28,-125.75 260.71,-125.08 262.6,-131.82"/>
</g>
<!-- Node8&#45;&gt;Node5 -->
<g id="edge8" class="edge">
<title>Node8&#45;&gt;Node5</title>
<path fill="none" stroke="#63b8ff" d="M116.47,-164.66C149,-146.07 224.78,-102.77 264.57,-80.03"/>
<polygon fill="#63b8ff" stroke="#63b8ff" points="266.06,-83.21 273.01,-75.21 262.59,-77.13 266.06,-83.21"/>
</g>
<!-- Node9&#45;&gt;Node4 -->
<g id="edge12" class="edge">
<title>Node9&#45;&gt;Node4</title>
<path fill="none" stroke="#63b8ff" d="M196.17,-164.51C214.32,-156 241.76,-143.12 262.29,-133.5"/>
<polygon fill="#63b8ff" stroke="#63b8ff" points="263.66,-136.72 271.22,-129.31 260.69,-130.38 263.66,-136.72"/>
</g>
<!-- Node9&#45;&gt;Node5 -->
<g id="edge11" class="edge">
<title>Node9&#45;&gt;Node5</title>
<path fill="none" stroke="#63b8ff" d="M186.25,-164.66C205.12,-146.62 248.33,-105.32 272.62,-82.12"/>
<polygon fill="#63b8ff" stroke="#63b8ff" points="274.72,-84.95 279.53,-75.51 269.88,-79.89 274.72,-84.95"/>
</g>
<!-- Node10&#45;&gt;Node4 -->
<g id="edge15" class="edge">
<title>Node10&#45;&gt;Node4</title>
<path fill="none" stroke="#63b8ff" d="M262.45,-164.75C266.77,-157.81 272.96,-147.86 278.38,-139.16"/>
<polygon fill="#63b8ff" stroke="#63b8ff" points="281.32,-141.07 283.63,-130.73 275.38,-137.37 281.32,-141.07"/>
</g>
<!-- Node10&#45;&gt;Node5 -->
<g id="edge14" class="edge">
<title>Node10&#45;&gt;Node5</title>
<path fill="none" stroke="#63b8ff" d="M256.83,-164.63C256.84,-152.12 257.8,-128.74 264,-110 267.01,-100.89 272.06,-91.6 276.92,-83.88"/>
<polygon fill="#63b8ff" stroke="#63b8ff" points="279.7,-86.01 282.36,-75.76 273.89,-82.12 279.7,-86.01"/>
</g>
<!-- Node11&#45;&gt;Node3 -->
<g id="edge19" class="edge">
<title>Node11&#45;&gt;Node3</title>
<path fill="none" stroke="#63b8ff" d="M344.75,-164.75C352.15,-157.35 362.96,-146.54 372.05,-137.45"/>
<polygon fill="#63b8ff" stroke="#63b8ff" points="374.39,-140.06 378.99,-130.51 369.44,-135.11 374.39,-140.06"/>
</g>
<!-- Node11&#45;&gt;Node4 -->
<g id="edge18" class="edge">
<title>Node11&#45;&gt;Node4</title>
<path fill="none" stroke="#63b8ff" d="M328.4,-164.75C322.12,-157.5 312.99,-146.98 305.2,-138.02"/>
<polygon fill="#63b8ff" stroke="#63b8ff" points="307.95,-135.84 298.75,-130.59 302.66,-140.43 307.95,-135.84"/>
</g>
<!-- Node11&#45;&gt;Node5 -->
<g id="edge17" class="edge">
<title>Node11&#45;&gt;Node5</title>
<path fill="none" stroke="#63b8ff" d="M333.88,-164.65C330.75,-152.16 324.33,-128.81 316,-110 312.06,-101.11 306.79,-91.76 302.02,-83.93"/>
<polygon fill="#63b8ff" stroke="#63b8ff" points="305.1,-82.26 296.8,-75.67 299.18,-85.99 305.1,-82.26"/>
</g>
<!-- Node12&#45;&gt;Node4 -->
<g id="edge22" class="edge">
<title>Node12&#45;&gt;Node4</title>
<path fill="none" stroke="#63b8ff" d="M56.26,-166.91C59.21,-166.25 62.16,-165.61 65,-165 135.5,-149.93 218.82,-133.92 261.57,-125.83"/>
<polygon fill="#63b8ff" stroke="#63b8ff" points="262.08,-129.3 271.26,-124.01 260.78,-122.42 262.08,-129.3"/>
</g>
<!-- Node12&#45;&gt;Node5 -->
<g id="edge21" class="edge">
<title>Node12&#45;&gt;Node5</title>
<path fill="none" stroke="#63b8ff" d="M49.12,-164.59C78.44,-152.24 133.18,-129.25 180,-110 205.92,-99.34 235.35,-87.45 257.24,-78.64"/>
<polygon fill="#63b8ff" stroke="#63b8ff" points="258.26,-82 266.23,-75.02 255.65,-75.51 258.26,-82"/>
</g>
<!-- Node15&#45;&gt;Node4 -->
<g id="edge27" class="edge">
<title>Node15&#45;&gt;Node4</title>
<path fill="none" stroke="#63b8ff" d="M447.77,-164.51C411.34,-154.35 352.61,-137.97 318.02,-128.32"/>
<polygon fill="#63b8ff" stroke="#63b8ff" points="319.31,-125.04 308.73,-125.73 317.43,-131.78 319.31,-125.04"/>
</g>
<!-- Node15&#45;&gt;Node5 -->
<g id="edge26" class="edge">
<title>Node15&#45;&gt;Node5</title>
<path fill="none" stroke="#63b8ff" d="M474.56,-164.8C465.62,-151.2 446.56,-124.92 424,-110 393.63,-89.91 353.39,-78.16 324.96,-71.82"/>
<polygon fill="#63b8ff" stroke="#63b8ff" points="325.92,-68.45 315.42,-69.82 324.49,-75.3 325.92,-68.45"/>
</g>
<!-- Node16 -->
<g id="node16" class="node">
<title>Node16</title>
<g id="a_node16"><a xlink:href="libcdvd-common_8h.html" target="_top" xlink:title=" ">
<polygon fill="white" stroke="#666666" points="512.5,-74 417.5,-74 417.5,-55 512.5,-55 512.5,-74"/>
<text text-anchor="middle" x="465" y="-62" font-family="Helvetica,sans-Serif" font-size="10.00">libcdvd&#45;common.h</text>
</a>
</g>
</g>
<!-- Node15&#45;&gt;Node16 -->
<g id="edge28" class="edge">
<title>Node15&#45;&gt;Node16</title>
<path fill="none" stroke="#63b8ff" d="M478.77,-164.66C476.39,-147.5 471.08,-109.26 467.79,-85.6"/>
<polygon fill="#63b8ff" stroke="#63b8ff" points="471.3,-85.38 466.45,-75.96 464.36,-86.35 471.3,-85.38"/>
</g>
<!-- Node16&#45;&gt;Node7 -->
<g id="edge29" class="edge">
<title>Node16&#45;&gt;Node7</title>
<path fill="none" stroke="#63b8ff" d="M465,-54.75C465,-48.27 465,-39.16 465,-30.9"/>
<polygon fill="#63b8ff" stroke="#63b8ff" points="468.5,-30.96 465,-20.96 461.5,-30.96 468.5,-30.96"/>
</g>
<!-- Node17&#45;&gt;Node3 -->
<g id="edge33" class="edge">
<title>Node17&#45;&gt;Node3</title>
<path fill="none" stroke="#63b8ff" d="M529.63,-164.87C501.4,-155.96 457.18,-142.01 425.87,-132.13"/>
<polygon fill="#63b8ff" stroke="#63b8ff" points="427.01,-128.82 416.42,-129.15 424.9,-135.5 427.01,-128.82"/>
</g>
<!-- Node17&#45;&gt;Node4 -->
<g id="edge32" class="edge">
<title>Node17&#45;&gt;Node4</title>
<path fill="none" stroke="#63b8ff" d="M529.51,-166.89C526.64,-166.23 523.76,-165.59 521,-165 448.36,-149.43 362.32,-133.52 318.6,-125.61"/>
<polygon fill="#63b8ff" stroke="#63b8ff" points="319.39,-122.2 308.93,-123.87 318.15,-129.09 319.39,-122.2"/>
</g>
<!-- Node17&#45;&gt;Node5 -->
<g id="edge31" class="edge">
<title>Node17&#45;&gt;Node5</title>
<path fill="none" stroke="#63b8ff" d="M544.14,-164.55C524.31,-151.09 484.7,-125.56 448,-110 407.22,-92.71 357.73,-80.01 325.12,-72.7"/>
<polygon fill="#63b8ff" stroke="#63b8ff" points="325.92,-69.3 315.4,-70.58 324.42,-76.13 325.92,-69.3"/>
</g>
<!-- Node18 -->
<g id="node18" class="node">
<title>Node18</title>
<g id="a_node18"><a xlink:href="setjmp_8h.html" target="_top" xlink:title=" ">
<polygon fill="white" stroke="#666666" points="583.5,-74 530.5,-74 530.5,-55 583.5,-55 583.5,-74"/>
<text text-anchor="middle" x="557" y="-62" font-family="Helvetica,sans-Serif" font-size="10.00">setjmp.h</text>
</a>
</g>
</g>
<!-- Node17&#45;&gt;Node18 -->
<g id="edge34" class="edge">
<title>Node17&#45;&gt;Node18</title>
<path fill="none" stroke="#63b8ff" d="M557,-164.66C557,-147.57 557,-109.61 557,-85.92"/>
<polygon fill="#63b8ff" stroke="#63b8ff" points="560.5,-85.97 557,-75.97 553.5,-85.97 560.5,-85.97"/>
</g>
<!-- Node19 -->
<g id="node19" class="node">
<title>Node19</title>
<g id="a_node19"><a xlink:href="ctype_8h.html" target="_top" xlink:title=" ">
<polygon fill="white" stroke="#666666" points="632.5,-129 585.5,-129 585.5,-110 632.5,-110 632.5,-129"/>
<text text-anchor="middle" x="609" y="-117" font-family="Helvetica,sans-Serif" font-size="10.00">ctype.h</text>
</a>
</g>
</g>
<!-- Node17&#45;&gt;Node19 -->
<g id="edge36" class="edge">
<title>Node17&#45;&gt;Node19</title>
<path fill="none" stroke="#63b8ff" d="M565.59,-164.75C572.84,-157.35 583.45,-146.54 592.37,-137.45"/>
<polygon fill="#63b8ff" stroke="#63b8ff" points="594.66,-140.11 599.17,-130.52 589.66,-135.21 594.66,-140.11"/>
</g>
<!-- Node18&#45;&gt;Node7 -->
<g id="edge35" class="edge">
<title>Node18&#45;&gt;Node7</title>
<path fill="none" stroke="#63b8ff" d="M541.39,-54.51C527.3,-46.39 506.31,-34.3 489.9,-24.85"/>
<polygon fill="#63b8ff" stroke="#63b8ff" points="492.1,-22.07 481.69,-20.11 488.61,-28.14 492.1,-22.07"/>
</g>
</g>
</svg>
