<?xml version="1.0" encoding="UTF-8" standalone="no"?>
<!DOCTYPE svg PUBLIC "-//W3C//DTD SVG 1.1//EN"
 "http://www.w3.org/Graphics/SVG/1.1/DTD/svg11.dtd">
<!-- Generated by graphviz version 7.0.5 (20221223.1930)
 -->
<!-- Title: iop/kernel/include/cdvdman.h Pages: 1 -->
<svg width="170pt" height="203pt"
 viewBox="0.00 0.00 170.00 203.00" xmlns="http://www.w3.org/2000/svg" xmlns:xlink="http://www.w3.org/1999/xlink">
<g id="graph0" class="graph" transform="scale(1 1) rotate(0) translate(4 199)">
<title>iop/kernel/include/cdvdman.h</title>
<!-- Node1 -->
<g id="node1" class="node">
<title>Node1</title>
<g id="a_node1"><a xlink:title=" ">
<polygon fill="#999999" stroke="#666666" points="115.5,-195 23.5,-195 23.5,-165 115.5,-165 115.5,-195"/>
<text text-anchor="start" x="31.5" y="-183" font-family="Helvetica,sans-Serif" font-size="10.00">iop/kernel/include</text>
<text text-anchor="middle" x="69.5" y="-172" font-family="Helvetica,sans-Serif" font-size="10.00">/cdvdman.h</text>
</a>
</g>
</g>
<!-- Node2 -->
<g id="node2" class="node">
<title>Node2</title>
<g id="a_node2"><a xlink:href="iop_2kernel_2include_2types_8h_source.html" target="_top" xlink:title=" ">
<polygon fill="white" stroke="#666666" points="49,-74 2,-74 2,-55 49,-55 49,-74"/>
<text text-anchor="middle" x="25.5" y="-62" font-family="Helvetica,sans-Serif" font-size="10.00">types.h</text>
</a>
</g>
</g>
<!-- Node1&#45;&gt;Node2 -->
<g id="edge1" class="edge">
<title>Node1&#45;&gt;Node2</title>
<path fill="none" stroke="#63b8ff" d="M61.2,-164.92C55.65,-155.1 48.48,-141.55 43.5,-129 37.86,-114.78 33.2,-98.12 30.04,-85.44"/>
<polygon fill="#63b8ff" stroke="#63b8ff" points="33.47,-84.71 27.75,-75.79 26.66,-86.32 33.47,-84.71"/>
</g>
<!-- Node5 -->
<g id="node5" class="node">
<title>Node5</title>
<g id="a_node5"><a xlink:href="irx_8h.html" target="_top" xlink:title=" ">
<polygon fill="white" stroke="#666666" points="86.5,-129 52.5,-129 52.5,-110 86.5,-110 86.5,-129"/>
<text text-anchor="middle" x="69.5" y="-117" font-family="Helvetica,sans-Serif" font-size="10.00">irx.h</text>
</a>
</g>
</g>
<!-- Node1&#45;&gt;Node5 -->
<g id="edge4" class="edge">
<title>Node1&#45;&gt;Node5</title>
<path fill="none" stroke="#63b8ff" d="M69.5,-164.54C69.5,-157.34 69.5,-148.53 69.5,-140.68"/>
<polygon fill="#63b8ff" stroke="#63b8ff" points="73,-140.69 69.5,-130.69 66,-140.69 73,-140.69"/>
</g>
<!-- Node6 -->
<g id="node6" class="node">
<title>Node6</title>
<g id="a_node6"><a xlink:href="libcdvd-common_8h.html" target="_top" xlink:title=" ">
<polygon fill="white" stroke="#666666" points="162,-74 67,-74 67,-55 162,-55 162,-74"/>
<text text-anchor="middle" x="114.5" y="-62" font-family="Helvetica,sans-Serif" font-size="10.00">libcdvd&#45;common.h</text>
</a>
</g>
</g>
<!-- Node1&#45;&gt;Node6 -->
<g id="edge6" class="edge">
<title>Node1&#45;&gt;Node6</title>
<path fill="none" stroke="#63b8ff" d="M77.75,-164.9C83.27,-155.06 90.43,-141.51 95.5,-129 101.27,-114.76 106.19,-98.11 109.58,-85.43"/>
<polygon fill="#63b8ff" stroke="#63b8ff" points="112.96,-86.33 112.05,-75.77 106.18,-84.59 112.96,-86.33"/>
</g>
<!-- Node3 -->
<g id="node3" class="node">
<title>Node3</title>
<g id="a_node3"><a xlink:title=" ">
<polygon fill="#e0e0e0" stroke="#999999" points="51,-19 0,-19 0,0 51,0 51,-19"/>
<text text-anchor="middle" x="25.5" y="-7" font-family="Helvetica,sans-Serif" font-size="10.00">stddef.h</text>
</a>
</g>
</g>
<!-- Node2&#45;&gt;Node3 -->
<g id="edge2" class="edge">
<title>Node2&#45;&gt;Node3</title>
<path fill="none" stroke="#63b8ff" d="M25.5,-54.75C25.5,-48.27 25.5,-39.16 25.5,-30.9"/>
<polygon fill="#63b8ff" stroke="#63b8ff" points="29,-30.96 25.5,-20.96 22,-30.96 29,-30.96"/>
</g>
<!-- Node4 -->
<g id="node4" class="node">
<title>Node4</title>
<g id="a_node4"><a xlink:href="tamtypes_8h.html" target="_top" xlink:title=" ">
<polygon fill="white" stroke="#666666" points="139.5,-19 75.5,-19 75.5,0 139.5,0 139.5,-19"/>
<text text-anchor="middle" x="107.5" y="-7" font-family="Helvetica,sans-Serif" font-size="10.00">tamtypes.h</text>
</a>
</g>
</g>
<!-- Node2&#45;&gt;Node4 -->
<g id="edge3" class="edge">
<title>Node2&#45;&gt;Node4</title>
<path fill="none" stroke="#63b8ff" d="M39.41,-54.51C51.74,-46.54 69.97,-34.75 84.47,-25.38"/>
<polygon fill="#63b8ff" stroke="#63b8ff" points="86.03,-28.55 92.52,-20.18 82.23,-22.67 86.03,-28.55"/>
</g>
<!-- Node5&#45;&gt;Node2 -->
<g id="edge5" class="edge">
<title>Node5&#45;&gt;Node2</title>
<path fill="none" stroke="#63b8ff" d="M62.23,-109.75C56.22,-102.5 47.49,-91.98 40.04,-83.02"/>
<polygon fill="#63b8ff" stroke="#63b8ff" points="42.97,-81.07 33.89,-75.61 37.58,-85.54 42.97,-81.07"/>
</g>
<!-- Node6&#45;&gt;Node4 -->
<g id="edge7" class="edge">
<title>Node6&#45;&gt;Node4</title>
<path fill="none" stroke="#63b8ff" d="M113.34,-54.75C112.48,-48.19 111.26,-38.95 110.16,-30.6"/>
<polygon fill="#63b8ff" stroke="#63b8ff" points="113.66,-30.4 108.88,-20.94 106.72,-31.31 113.66,-30.4"/>
</g>
</g>
</svg>
