<?xml version="1.0" encoding="UTF-8" standalone="no"?>
<!DOCTYPE svg PUBLIC "-//W3C//DTD SVG 1.1//EN"
 "http://www.w3.org/Graphics/SVG/1.1/DTD/svg11.dtd">
<!-- Generated by graphviz version 7.0.5 (20221223.1930)
 -->
<!-- Title: iop/kernel/include/cdvdman.h Pages: 1 -->
<!--zoomable 170 -->
<svg id="main" version="1.1" xmlns="http://www.w3.org/2000/svg" xmlns:xlink="http://www.w3.org/1999/xlink" xml:space="preserve" onload="init(evt)">
<style type="text/css"><![CDATA[
.edge:hover path { stroke: red; }
.edge:hover polygon { stroke: red; fill: red; }
]]></style>
<script type="text/javascript"><![CDATA[
var edges = document.getElementsByTagName('g');
if (edges && edges.length) {
  for (var i=0;i<edges.length;i++) {
    if (edges[i].id.substr(0,4)=='edge') {
      edges[i].setAttribute('class','edge');
    }
  }
}
]]></script>
        <defs>
                <circle id="rim" cx="0" cy="0" r="7"/>
                <circle id="rim2" cx="0" cy="0" r="3.5"/>
                <g id="zoomPlus">
                        <use xlink:href="#rim" fill="#404040">
                                <set attributeName="fill" to="#808080" begin="zoomplus.mouseover" end="zoomplus.mouseout"/>
                        </use>
                        <path d="M-4,0h8M0,-4v8" fill="none" stroke="white" stroke-width="1.5" pointer-events="none"/>
                </g>
                <g id="zoomMin">
                        <use xlink:href="#rim" fill="#404040">
                                <set attributeName="fill" to="#808080" begin="zoomminus.mouseover" end="zoomminus.mouseout"/>
                        </use>
                        <path d="M-4,0h8" fill="none" stroke="white" stroke-width="1.5" pointer-events="none"/>
                </g>
                <g id="dirArrow">
                        <path fill="none" stroke="white" stroke-width="1.5" d="M0,-3.0v7 M-2.5,-0.5L0,-3.0L2.5,-0.5"/>
                </g>
               <g id="resetDef">
                       <use xlink:href="#rim2" fill="#404040">
                               <set attributeName="fill" to="#808080" begin="reset.mouseover" end="reset.mouseout"/>
                       </use>
               </g>
        </defs>

<script type="text/javascript">
var viewWidth = 3078;
var viewHeight = 170;
var sectionId = 'dynsection-1';
</script>
<script xlink:href="svgpan.js"/>
<svg id="graph" class="graph">
<g id="viewport">
<title>iop/kernel/include/cdvdman.h</title>
<!-- Node1 -->
<g id="node1" class="node">
<title>Node1</title>
<g id="a_node1"><a xlink:title=" ">
<polygon fill="#999999" stroke="#666666" points="1544.5,-162 1452.5,-162 1452.5,-132 1544.5,-132 1544.5,-162"/>
<text text-anchor="start" x="1460.5" y="-150" font-family="Helvetica,sans-Serif" font-size="10.00">iop/kernel/include</text>
<text text-anchor="middle" x="1498.5" y="-139" font-family="Helvetica,sans-Serif" font-size="10.00">/cdvdman.h</text>
</a>
</g>
</g>
<!-- Node2 -->
<g id="node2" class="node">
<title>Node2</title>
<g id="a_node2"><a xlink:href="common_2sbus_2src_2irx__imports_8h_source.html" target="_top" xlink:title=" ">
<polygon fill="white" stroke="#666666" points="107,-96 0,-96 0,-66 107,-66 107,-96"/>
<text text-anchor="start" x="8" y="-84" font-family="Helvetica,sans-Serif" font-size="10.00">common/sbus/src/irx</text>
<text text-anchor="middle" x="53.5" y="-73" font-family="Helvetica,sans-Serif" font-size="10.00">_imports.h</text>
</a>
</g>
</g>
<!-- Node1&#45;&gt;Node2 -->
<g id="edge1" class="edge">
<title>Node1&#45;&gt;Node2</title>
<path fill="none" stroke="#63b8ff" d="M1441.04,-145.32C1213.98,-142.41 378.95,-129.62 116.5,-96 113.5,-95.62 110.43,-95.16 107.34,-94.64"/>
<polygon fill="#63b8ff" stroke="#63b8ff" points="1440.76,-148.82 1450.81,-145.44 1440.85,-141.82 1440.76,-148.82"/>
</g>
<!-- Node3 -->
<g id="node3" class="node">
<title>Node3</title>
<g id="a_node3"><a xlink:href="iop_2cdvd_2cdfs_2src_2irx__imports_8h_source.html" target="_top" xlink:title=" ">
<polygon fill="white" stroke="#666666" points="229.5,-96 125.5,-96 125.5,-66 229.5,-66 229.5,-96"/>
<text text-anchor="start" x="133.5" y="-84" font-family="Helvetica,sans-Serif" font-size="10.00">iop/cdvd/cdfs/src/irx</text>
<text text-anchor="middle" x="177.5" y="-73" font-family="Helvetica,sans-Serif" font-size="10.00">_imports.h</text>
</a>
</g>
</g>
<!-- Node1&#45;&gt;Node3 -->
<g id="edge2" class="edge">
<title>Node1&#45;&gt;Node3</title>
<path fill="none" stroke="#63b8ff" d="M1440.88,-145.14C1226.56,-141.7 475.68,-127.64 238.5,-96 235.7,-95.63 232.84,-95.18 229.96,-94.69"/>
<polygon fill="#63b8ff" stroke="#63b8ff" points="1440.59,-148.63 1450.64,-145.29 1440.7,-141.63 1440.59,-148.63"/>
</g>
<!-- Node4 -->
<g id="node4" class="node">
<title>Node4</title>
<g id="a_node4"><a xlink:href="iop_2debug_2iop__sbusdbg_2src_2irx__imports_8h_source.html" target="_top" xlink:title=" ">
<polygon fill="white" stroke="#666666" points="363.5,-96 247.5,-96 247.5,-66 363.5,-66 363.5,-96"/>
<text text-anchor="start" x="255.5" y="-84" font-family="Helvetica,sans-Serif" font-size="10.00">iop/debug/iop_sbusdbg</text>
<text text-anchor="middle" x="305.5" y="-73" font-family="Helvetica,sans-Serif" font-size="10.00">/src/irx_imports.h</text>
</a>
</g>
</g>
<!-- Node1&#45;&gt;Node4 -->
<g id="edge3" class="edge">
<title>Node1&#45;&gt;Node4</title>
<path fill="none" stroke="#63b8ff" d="M1440.85,-144.67C1241.56,-139.89 582.49,-122.42 372.5,-96 369.67,-95.64 366.78,-95.23 363.87,-94.78"/>
<polygon fill="#63b8ff" stroke="#63b8ff" points="1440.61,-148.17 1450.7,-144.91 1440.78,-141.17 1440.61,-148.17"/>
</g>
<!-- Node5 -->
<g id="node5" class="node">
<title>Node5</title>
<g id="a_node5"><a xlink:href="iop_2debug_2iopdebug_2src_2irx__imports_8h_source.html" target="_top" xlink:title=" ">
<polygon fill="white" stroke="#666666" points="483,-96 382,-96 382,-66 483,-66 483,-96"/>
<text text-anchor="start" x="390" y="-84" font-family="Helvetica,sans-Serif" font-size="10.00">iop/debug/iopdebug</text>
<text text-anchor="middle" x="432.5" y="-73" font-family="Helvetica,sans-Serif" font-size="10.00">/src/irx_imports.h</text>
</a>
</g>
</g>
<!-- Node1&#45;&gt;Node5 -->
<g id="edge4" class="edge">
<title>Node1&#45;&gt;Node5</title>
<path fill="none" stroke="#63b8ff" d="M1440.82,-144.53C1255.55,-139.58 676.85,-122.37 491.5,-96 488.79,-95.61 486.02,-95.16 483.24,-94.66"/>
<polygon fill="#63b8ff" stroke="#63b8ff" points="1440.59,-148.02 1450.68,-144.79 1440.78,-141.03 1440.59,-148.02"/>
</g>
<!-- Node6 -->
<g id="node6" class="node">
<title>Node6</title>
<g id="a_node6"><a xlink:href="diskio_8c_source.html" target="_top" xlink:title=" ">
<polygon fill="white" stroke="#666666" points="596,-96 501,-96 501,-66 596,-66 596,-96"/>
<text text-anchor="start" x="509" y="-84" font-family="Helvetica,sans-Serif" font-size="10.00">iop/fs/bdmfs_fatfs</text>
<text text-anchor="middle" x="548.5" y="-73" font-family="Helvetica,sans-Serif" font-size="10.00">/src/diskio.c</text>
</a>
</g>
</g>
<!-- Node1&#45;&gt;Node6 -->
<g id="edge5" class="edge">
<title>Node1&#45;&gt;Node6</title>
<path fill="none" stroke="#63b8ff" d="M1440.65,-146.54C1297.81,-147.04 917.31,-143.41 604.5,-96 601.82,-95.59 599.09,-95.12 596.34,-94.59"/>
<polygon fill="#63b8ff" stroke="#63b8ff" points="1440.63,-150.04 1450.61,-146.49 1440.59,-143.04 1440.63,-150.04"/>
</g>
<!-- Node7 -->
<g id="node7" class="node">
<title>Node7</title>
<g id="a_node7"><a xlink:href="iop_2fs_2bdmfs__fatfs_2src_2irx__imports_8h_source.html" target="_top" xlink:title=" ">
<polygon fill="white" stroke="#666666" points="709,-96 614,-96 614,-66 709,-66 709,-96"/>
<text text-anchor="start" x="622" y="-84" font-family="Helvetica,sans-Serif" font-size="10.00">iop/fs/bdmfs_fatfs</text>
<text text-anchor="middle" x="661.5" y="-73" font-family="Helvetica,sans-Serif" font-size="10.00">/src/irx_imports.h</text>
</a>
</g>
</g>
<!-- Node1&#45;&gt;Node7 -->
<g id="edge6" class="edge">
<title>Node1&#45;&gt;Node7</title>
<path fill="none" stroke="#63b8ff" d="M1441.21,-145.87C1311.54,-144.8 985.95,-137.8 717.5,-96 714.83,-95.58 712.09,-95.1 709.34,-94.57"/>
<polygon fill="#63b8ff" stroke="#63b8ff" points="1440.87,-149.37 1450.9,-145.94 1440.92,-142.37 1440.87,-149.37"/>
</g>
<!-- Node8 -->
<g id="node8" class="node">
<title>Node8</title>
<g id="a_node8"><a xlink:href="iop_2fs_2bdmfs__fatfs_2src_2main_8c_source.html" target="_top" xlink:title=" ">
<polygon fill="white" stroke="#666666" points="822,-96 727,-96 727,-66 822,-66 822,-96"/>
<text text-anchor="start" x="735" y="-84" font-family="Helvetica,sans-Serif" font-size="10.00">iop/fs/bdmfs_fatfs</text>
<text text-anchor="middle" x="774.5" y="-73" font-family="Helvetica,sans-Serif" font-size="10.00">/src/main.c</text>
</a>
</g>
</g>
<!-- Node1&#45;&gt;Node8 -->
<g id="edge7" class="edge">
<title>Node1&#45;&gt;Node8</title>
<path fill="none" stroke="#63b8ff" d="M1440.59,-144.98C1324.25,-142.19 1054.17,-132.06 830.5,-96 827.83,-95.57 825.1,-95.07 822.35,-94.53"/>
<polygon fill="#63b8ff" stroke="#63b8ff" points="1440.43,-148.47 1450.51,-145.2 1440.59,-141.48 1440.43,-148.47"/>
</g>
<!-- Node9 -->
<g id="node9" class="node">
<title>Node9</title>
<g id="a_node9"><a xlink:href="fs_2bdmfs__vfat_2src_2fat__write_8c_source.html" target="_top" xlink:title=" ">
<polygon fill="white" stroke="#666666" points="949,-96 840,-96 840,-66 949,-66 949,-96"/>
<text text-anchor="start" x="848" y="-84" font-family="Helvetica,sans-Serif" font-size="10.00">iop/fs/bdmfs_vfat/src</text>
<text text-anchor="middle" x="894.5" y="-73" font-family="Helvetica,sans-Serif" font-size="10.00">/fat_write.c</text>
</a>
</g>
</g>
<!-- Node1&#45;&gt;Node9 -->
<g id="edge8" class="edge">
<title>Node1&#45;&gt;Node9</title>
<path fill="none" stroke="#63b8ff" d="M1441.05,-143.08C1341.92,-137.52 1132.52,-123.42 957.5,-96 954.84,-95.58 952.13,-95.12 949.4,-94.63"/>
<polygon fill="#63b8ff" stroke="#63b8ff" points="1440.61,-146.57 1450.79,-143.62 1441,-139.58 1440.61,-146.57"/>
</g>
<!-- Node10 -->
<g id="node10" class="node">
<title>Node10</title>
<g id="a_node10"><a xlink:href="iop_2fs_2bdmfs__vfat_2src_2irx__imports_8h_source.html" target="_top" xlink:title=" ">
<polygon fill="white" stroke="#666666" points="1076,-96 967,-96 967,-66 1076,-66 1076,-96"/>
<text text-anchor="start" x="975" y="-84" font-family="Helvetica,sans-Serif" font-size="10.00">iop/fs/bdmfs_vfat/src</text>
<text text-anchor="middle" x="1021.5" y="-73" font-family="Helvetica,sans-Serif" font-size="10.00">/irx_imports.h</text>
</a>
</g>
</g>
<!-- Node1&#45;&gt;Node10 -->
<g id="edge9" class="edge">
<title>Node1&#45;&gt;Node10</title>
<path fill="none" stroke="#63b8ff" d="M1440.85,-140.76C1360.79,-133.1 1211.57,-117.37 1085.5,-96 1082.47,-95.49 1079.37,-94.93 1076.25,-94.33"/>
<polygon fill="#63b8ff" stroke="#63b8ff" points="1440.36,-144.23 1450.64,-141.69 1441.02,-137.26 1440.36,-144.23"/>
</g>
<!-- Node11 -->
<g id="node11" class="node">
<title>Node11</title>
<g id="a_node11"><a xlink:href="iop_2hdd_2apa_2src_2irx__imports_8h_source.html" target="_top" xlink:title=" ">
<polygon fill="white" stroke="#666666" points="1190.5,-96 1094.5,-96 1094.5,-66 1190.5,-66 1190.5,-96"/>
<text text-anchor="start" x="1102.5" y="-84" font-family="Helvetica,sans-Serif" font-size="10.00">iop/hdd/apa/src/irx</text>
<text text-anchor="middle" x="1142.5" y="-73" font-family="Helvetica,sans-Serif" font-size="10.00">_imports.h</text>
</a>
</g>
</g>
<!-- Node1&#45;&gt;Node11 -->
<g id="edge10" class="edge">
<title>Node1&#45;&gt;Node11</title>
<path fill="none" stroke="#63b8ff" d="M1441,-137.7C1380.63,-128.67 1283.03,-113.22 1199.5,-96 1196.71,-95.42 1193.84,-94.81 1190.95,-94.16"/>
<polygon fill="#63b8ff" stroke="#63b8ff" points="1440.3,-141.13 1450.7,-139.14 1441.33,-134.21 1440.3,-141.13"/>
</g>
<!-- Node12 -->
<g id="node12" class="node">
<title>Node12</title>
<g id="a_node12"><a xlink:href="iop_2hdd_2pfs_2src_2irx__imports_8h_source.html" target="_top" xlink:title=" ">
<polygon fill="white" stroke="#666666" points="1302.5,-96 1208.5,-96 1208.5,-66 1302.5,-66 1302.5,-96"/>
<text text-anchor="start" x="1216.5" y="-84" font-family="Helvetica,sans-Serif" font-size="10.00">iop/hdd/pfs/src/irx</text>
<text text-anchor="middle" x="1255.5" y="-73" font-family="Helvetica,sans-Serif" font-size="10.00">_imports.h</text>
</a>
</g>
</g>
<!-- Node1&#45;&gt;Node12 -->
<g id="edge11" class="edge">
<title>Node1&#45;&gt;Node12</title>
<path fill="none" stroke="#63b8ff" d="M1441.29,-130.93C1399.13,-119.83 1342.47,-104.91 1302.85,-94.47"/>
<polygon fill="#63b8ff" stroke="#63b8ff" points="1440.2,-134.26 1450.76,-133.43 1441.98,-127.49 1440.2,-134.26"/>
</g>
<!-- Node13 -->
<g id="node13" class="node">
<title>Node13</title>
<g id="a_node13"><a xlink:href="iop_2i_link_2_i_e_e_e1394__bd_2src_2irx__imports_8h_source.html" target="_top" xlink:title=" ">
<polygon fill="white" stroke="#666666" points="1428,-96 1321,-96 1321,-66 1428,-66 1428,-96"/>
<text text-anchor="start" x="1329" y="-84" font-family="Helvetica,sans-Serif" font-size="10.00">iop/iLink/IEEE1394</text>
<text text-anchor="middle" x="1374.5" y="-73" font-family="Helvetica,sans-Serif" font-size="10.00">_bd/src/irx_imports.h</text>
</a>
</g>
</g>
<!-- Node1&#45;&gt;Node13 -->
<g id="edge12" class="edge">
<title>Node1&#45;&gt;Node13</title>
<path fill="none" stroke="#63b8ff" d="M1460.63,-126.45C1441.8,-116.73 1419.45,-105.2 1402.24,-96.31"/>
<polygon fill="#63b8ff" stroke="#63b8ff" points="1458.84,-129.47 1469.33,-130.94 1462.05,-123.25 1458.84,-129.47"/>
</g>
<!-- Node14 -->
<g id="node14" class="node">
<title>Node14</title>
<g id="a_node14"><a xlink:href="i_link_2_i_e_e_e1394__disk_2src_2fat__write_8c_source.html" target="_top" xlink:title=" ">
<polygon fill="white" stroke="#666666" points="1550.5,-96 1446.5,-96 1446.5,-66 1550.5,-66 1550.5,-96"/>
<text text-anchor="start" x="1454.5" y="-84" font-family="Helvetica,sans-Serif" font-size="10.00">iop/iLink/IEEE1394</text>
<text text-anchor="middle" x="1498.5" y="-73" font-family="Helvetica,sans-Serif" font-size="10.00">_disk/src/fat_write.c</text>
</a>
</g>
</g>
<!-- Node1&#45;&gt;Node14 -->
<g id="edge13" class="edge">
<title>Node1&#45;&gt;Node14</title>
<path fill="none" stroke="#63b8ff" d="M1498.5,-120.39C1498.5,-112.13 1498.5,-103.28 1498.5,-96.16"/>
<polygon fill="#63b8ff" stroke="#63b8ff" points="1495,-120.28 1498.5,-130.28 1502,-120.28 1495,-120.28"/>
</g>
<!-- Node15 -->
<g id="node15" class="node">
<title>Node15</title>
<g id="a_node15"><a xlink:href="iop_2i_link_2_i_e_e_e1394__disk_2src_2irx__imports_8h_source.html" target="_top" xlink:title=" ">
<polygon fill="white" stroke="#666666" points="1682.5,-96 1568.5,-96 1568.5,-66 1682.5,-66 1682.5,-96"/>
<text text-anchor="start" x="1576.5" y="-84" font-family="Helvetica,sans-Serif" font-size="10.00">iop/iLink/IEEE1394</text>
<text text-anchor="middle" x="1625.5" y="-73" font-family="Helvetica,sans-Serif" font-size="10.00">_disk/src/irx_imports.h</text>
</a>
</g>
</g>
<!-- Node1&#45;&gt;Node15 -->
<g id="edge14" class="edge">
<title>Node1&#45;&gt;Node15</title>
<path fill="none" stroke="#63b8ff" d="M1537.02,-126.59C1556.36,-116.84 1579.38,-105.24 1597.09,-96.31"/>
<polygon fill="#63b8ff" stroke="#63b8ff" points="1535.71,-123.33 1528.35,-130.96 1538.86,-129.58 1535.71,-123.33"/>
</g>
<!-- Node16 -->
<g id="node16" class="node">
<title>Node16</title>
<g id="a_node16"><a xlink:href="i_link__internal_8c_source.html" target="_top" xlink:title=" ">
<polygon fill="white" stroke="#666666" points="1802,-96 1701,-96 1701,-66 1802,-66 1802,-96"/>
<text text-anchor="start" x="1709" y="-84" font-family="Helvetica,sans-Serif" font-size="10.00">iop/iLink/iLinkman</text>
<text text-anchor="middle" x="1751.5" y="-73" font-family="Helvetica,sans-Serif" font-size="10.00">/src/iLink_internal.c</text>
</a>
</g>
</g>
<!-- Node1&#45;&gt;Node16 -->
<g id="edge15" class="edge">
<title>Node1&#45;&gt;Node16</title>
<path fill="none" stroke="#63b8ff" d="M1555.9,-131.48C1599.44,-120.47 1658.75,-105.46 1700.61,-94.87"/>
<polygon fill="#63b8ff" stroke="#63b8ff" points="1555.21,-128.04 1546.37,-133.89 1556.92,-134.83 1555.21,-128.04"/>
</g>
<!-- Node17 -->
<g id="node17" class="node">
<title>Node17</title>
<g id="a_node17"><a xlink:href="iop_2i_link_2i_linkman_2src_2irx__imports_8h_source.html" target="_top" xlink:title=" ">
<polygon fill="white" stroke="#666666" points="1916.5,-96 1820.5,-96 1820.5,-66 1916.5,-66 1916.5,-96"/>
<text text-anchor="start" x="1828.5" y="-84" font-family="Helvetica,sans-Serif" font-size="10.00">iop/iLink/iLinkman</text>
<text text-anchor="middle" x="1868.5" y="-73" font-family="Helvetica,sans-Serif" font-size="10.00">/src/irx_imports.h</text>
</a>
</g>
</g>
<!-- Node1&#45;&gt;Node17 -->
<g id="edge16" class="edge">
<title>Node1&#45;&gt;Node17</title>
<path fill="none" stroke="#63b8ff" d="M1556.2,-138.13C1619,-129.24 1722.27,-113.69 1810.5,-96 1813.65,-95.37 1816.88,-94.69 1820.14,-93.97"/>
<polygon fill="#63b8ff" stroke="#63b8ff" points="1555.87,-134.64 1546.45,-139.5 1556.84,-141.57 1555.87,-134.64"/>
</g>
<!-- Node18 -->
<g id="node18" class="node">
<title>Node18</title>
<g id="a_node18"><a xlink:href="iop_2memorycard_2mcman_2src_2irx__imports_8h_source.html" target="_top" xlink:title=" ">
<polygon fill="white" stroke="#666666" points="2056,-96 1935,-96 1935,-66 2056,-66 2056,-96"/>
<text text-anchor="start" x="1943" y="-84" font-family="Helvetica,sans-Serif" font-size="10.00">iop/memorycard/mcman</text>
<text text-anchor="middle" x="1995.5" y="-73" font-family="Helvetica,sans-Serif" font-size="10.00">/src/irx_imports.h</text>
</a>
</g>
</g>
<!-- Node1&#45;&gt;Node18 -->
<g id="edge17" class="edge">
<title>Node1&#45;&gt;Node18</title>
<path fill="none" stroke="#63b8ff" d="M1556.14,-140.74C1638.37,-132.91 1793.97,-116.82 1925.5,-96 1928.56,-95.52 1931.69,-94.99 1934.85,-94.44"/>
<polygon fill="#63b8ff" stroke="#63b8ff" points="1555.93,-137.25 1546.3,-141.67 1556.59,-144.22 1555.93,-137.25"/>
</g>
<!-- Node19 -->
<g id="node19" class="node">
<title>Node19</title>
<g id="a_node19"><a xlink:href="mcman-internal_8h_source.html" target="_top" xlink:title=" ">
<polygon fill="white" stroke="#666666" points="2195,-96 2074,-96 2074,-66 2195,-66 2195,-96"/>
<text text-anchor="start" x="2082" y="-84" font-family="Helvetica,sans-Serif" font-size="10.00">iop/memorycard/mcman</text>
<text text-anchor="middle" x="2134.5" y="-73" font-family="Helvetica,sans-Serif" font-size="10.00">/src/mcman&#45;internal.h</text>
</a>
</g>
</g>
<!-- Node1&#45;&gt;Node19 -->
<g id="edge18" class="edge">
<title>Node1&#45;&gt;Node19</title>
<path fill="none" stroke="#63b8ff" d="M1555.97,-143.07C1658.65,-137.36 1880.23,-122.88 2065.5,-96 2068.16,-95.61 2070.87,-95.19 2073.61,-94.74"/>
<polygon fill="#63b8ff" stroke="#63b8ff" points="1555.94,-139.57 1546.15,-143.61 1556.33,-146.55 1555.94,-139.57"/>
</g>
<!-- Node25 -->
<g id="node25" class="node">
<title>Node25</title>
<g id="a_node25"><a xlink:href="_mecha_auth_8c_source.html" target="_top" xlink:title=" ">
<polygon fill="white" stroke="#666666" points="2320,-96 2213,-96 2213,-66 2320,-66 2320,-96"/>
<text text-anchor="start" x="2221" y="-84" font-family="Helvetica,sans-Serif" font-size="10.00">iop/security/secrman</text>
<text text-anchor="middle" x="2266.5" y="-73" font-family="Helvetica,sans-Serif" font-size="10.00">/src/MechaAuth.c</text>
</a>
</g>
</g>
<!-- Node1&#45;&gt;Node25 -->
<g id="edge24" class="edge">
<title>Node1&#45;&gt;Node25</title>
<path fill="none" stroke="#63b8ff" d="M1556.11,-144.87C1676.92,-141.85 1965.39,-131.26 2204.5,-96 2207.23,-95.6 2210.02,-95.14 2212.82,-94.64"/>
<polygon fill="#63b8ff" stroke="#63b8ff" points="1556.03,-141.37 1546.12,-145.11 1556.2,-148.37 1556.03,-141.37"/>
</g>
<!-- Node26 -->
<g id="node26" class="node">
<title>Node26</title>
<g id="a_node26"><a xlink:href="iop_2security_2secrman_2src_2irx__imports_8h_source.html" target="_top" xlink:title=" ">
<polygon fill="white" stroke="#666666" points="2445,-96 2338,-96 2338,-66 2445,-66 2445,-96"/>
<text text-anchor="start" x="2346" y="-84" font-family="Helvetica,sans-Serif" font-size="10.00">iop/security/secrman</text>
<text text-anchor="middle" x="2391.5" y="-73" font-family="Helvetica,sans-Serif" font-size="10.00">/src/irx_imports.h</text>
</a>
</g>
</g>
<!-- Node1&#45;&gt;Node26 -->
<g id="edge25" class="edge">
<title>Node1&#45;&gt;Node26</title>
<path fill="none" stroke="#63b8ff" d="M1556,-145.74C1691.46,-144.42 2040.99,-136.98 2329.5,-96 2332.23,-95.61 2335.02,-95.17 2337.83,-94.68"/>
<polygon fill="#63b8ff" stroke="#63b8ff" points="1556.19,-142.24 1546.22,-145.82 1556.25,-149.24 1556.19,-142.24"/>
</g>
<!-- Node27 -->
<g id="node27" class="node">
<title>Node27</title>
<g id="a_node27"><a xlink:href="cdrom_8c.html" target="_top" xlink:title=" ">
<polygon fill="white" stroke="#666666" points="2570,-96 2463,-96 2463,-66 2570,-66 2570,-96"/>
<text text-anchor="start" x="2471" y="-84" font-family="Helvetica,sans-Serif" font-size="10.00">iop/sound/audsrv/src</text>
<text text-anchor="middle" x="2516.5" y="-73" font-family="Helvetica,sans-Serif" font-size="10.00">/cdrom.c</text>
</a>
</g>
</g>
<!-- Node1&#45;&gt;Node27 -->
<g id="edge26" class="edge">
<title>Node1&#45;&gt;Node27</title>
<path fill="none" stroke="#63b8ff" d="M1555.62,-146.38C1704.42,-146.65 2115.93,-142.73 2454.5,-96 2457.23,-95.62 2460.02,-95.19 2462.83,-94.7"/>
<polygon fill="#63b8ff" stroke="#63b8ff" points="1556.05,-142.88 1546.05,-146.36 1556.04,-149.88 1556.05,-142.88"/>
</g>
<!-- Node28 -->
<g id="node28" class="node">
<title>Node28</title>
<g id="a_node28"><a xlink:href="iop_2sound_2audsrv_2src_2irx__imports_8h_source.html" target="_top" xlink:title=" ">
<polygon fill="white" stroke="#666666" points="2695,-96 2588,-96 2588,-66 2695,-66 2695,-96"/>
<text text-anchor="start" x="2596" y="-84" font-family="Helvetica,sans-Serif" font-size="10.00">iop/sound/audsrv/src</text>
<text text-anchor="middle" x="2641.5" y="-73" font-family="Helvetica,sans-Serif" font-size="10.00">/irx_imports.h</text>
</a>
</g>
</g>
<!-- Node1&#45;&gt;Node28 -->
<g id="edge27" class="edge">
<title>Node1&#45;&gt;Node28</title>
<path fill="none" stroke="#63b8ff" d="M1556.12,-144.67C1750.16,-139.99 2378.91,-123.07 2579.5,-96 2582.23,-95.63 2585.03,-95.2 2587.84,-94.72"/>
<polygon fill="#63b8ff" stroke="#63b8ff" points="1556.2,-141.17 1546.29,-144.91 1556.37,-148.17 1556.2,-141.17"/>
</g>
<!-- Node29 -->
<g id="node29" class="node">
<title>Node29</title>
<g id="a_node29"><a xlink:href="api_8c_source.html" target="_top" xlink:title=" ">
<polygon fill="white" stroke="#666666" points="2820,-96 2713,-96 2713,-66 2820,-66 2820,-96"/>
<text text-anchor="start" x="2721" y="-84" font-family="Helvetica,sans-Serif" font-size="10.00">iop/usb/usbhdfsd/src</text>
<text text-anchor="middle" x="2766.5" y="-73" font-family="Helvetica,sans-Serif" font-size="10.00">/api.c</text>
</a>
</g>
</g>
<!-- Node1&#45;&gt;Node29 -->
<g id="edge28" class="edge">
<title>Node1&#45;&gt;Node29</title>
<path fill="none" stroke="#63b8ff" d="M1556.05,-144.99C1764.32,-141.13 2478.32,-125.98 2704.5,-96 2707.13,-95.65 2709.8,-95.25 2712.5,-94.8"/>
<polygon fill="#63b8ff" stroke="#63b8ff" points="1556.24,-141.49 1546.3,-145.17 1556.37,-148.49 1556.24,-141.49"/>
</g>
<!-- Node30 -->
<g id="node30" class="node">
<title>Node30</title>
<g id="a_node30"><a xlink:href="usb_2usbhdfsd_2src_2fat__write_8c_source.html" target="_top" xlink:title=" ">
<polygon fill="white" stroke="#666666" points="2945,-96 2838,-96 2838,-66 2945,-66 2945,-96"/>
<text text-anchor="start" x="2846" y="-84" font-family="Helvetica,sans-Serif" font-size="10.00">iop/usb/usbhdfsd/src</text>
<text text-anchor="middle" x="2891.5" y="-73" font-family="Helvetica,sans-Serif" font-size="10.00">/fat_write.c</text>
</a>
</g>
</g>
<!-- Node1&#45;&gt;Node30 -->
<g id="edge29" class="edge">
<title>Node1&#45;&gt;Node30</title>
<path fill="none" stroke="#63b8ff" d="M1556.02,-145.25C1777.81,-142.15 2577.63,-128.88 2829.5,-96 2832.13,-95.66 2834.8,-95.26 2837.5,-94.81"/>
<polygon fill="#63b8ff" stroke="#63b8ff" points="1556.14,-141.75 1546.19,-145.39 1556.24,-148.75 1556.14,-141.75"/>
</g>
<!-- Node31 -->
<g id="node31" class="node">
<title>Node31</title>
<g id="a_node31"><a xlink:href="iop_2usb_2usbhdfsd_2src_2irx__imports_8h_source.html" target="_top" xlink:title=" ">
<polygon fill="white" stroke="#666666" points="3070,-96 2963,-96 2963,-66 3070,-66 3070,-96"/>
<text text-anchor="start" x="2971" y="-84" font-family="Helvetica,sans-Serif" font-size="10.00">iop/usb/usbhdfsd/src</text>
<text text-anchor="middle" x="3016.5" y="-73" font-family="Helvetica,sans-Serif" font-size="10.00">/irx_imports.h</text>
</a>
</g>
</g>
<!-- Node1&#45;&gt;Node31 -->
<g id="edge30" class="edge">
<title>Node1&#45;&gt;Node31</title>
<path fill="none" stroke="#63b8ff" d="M1556.31,-145.46C1791.5,-143.06 2676.98,-131.78 2954.5,-96 2957.13,-95.66 2959.81,-95.26 2962.5,-94.82"/>
<polygon fill="#63b8ff" stroke="#63b8ff" points="1556.44,-141.96 1546.48,-145.56 1556.51,-148.96 1556.44,-141.96"/>
</g>
<!-- Node20 -->
<g id="node20" class="node">
<title>Node20</title>
<g id="a_node20"><a xlink:href="iop_2memorycard_2mcman_2src_2main_8c_source.html" target="_top" xlink:title=" ">
<polygon fill="white" stroke="#666666" points="1917,-30 1796,-30 1796,0 1917,0 1917,-30"/>
<text text-anchor="start" x="1804" y="-18" font-family="Helvetica,sans-Serif" font-size="10.00">iop/memorycard/mcman</text>
<text text-anchor="middle" x="1856.5" y="-7" font-family="Helvetica,sans-Serif" font-size="10.00">/src/main.c</text>
</a>
</g>
</g>
<!-- Node19&#45;&gt;Node20 -->
<g id="edge19" class="edge">
<title>Node19&#45;&gt;Node20</title>
<path fill="none" stroke="#63b8ff" d="M2062.64,-63.46C2017.47,-53.06 1959.86,-39.8 1917.04,-29.94"/>
<polygon fill="#63b8ff" stroke="#63b8ff" points="2061.83,-66.86 2072.36,-65.69 2063.4,-60.04 2061.83,-66.86"/>
</g>
<!-- Node21 -->
<g id="node21" class="node">
<title>Node21</title>
<g id="a_node21"><a xlink:href="mcdev_8c_source.html" target="_top" xlink:title=" ">
<polygon fill="white" stroke="#666666" points="2056,-30 1935,-30 1935,0 2056,0 2056,-30"/>
<text text-anchor="start" x="1943" y="-18" font-family="Helvetica,sans-Serif" font-size="10.00">iop/memorycard/mcman</text>
<text text-anchor="middle" x="1995.5" y="-7" font-family="Helvetica,sans-Serif" font-size="10.00">/src/mcdev.c</text>
</a>
</g>
</g>
<!-- Node19&#45;&gt;Node21 -->
<g id="edge20" class="edge">
<title>Node19&#45;&gt;Node21</title>
<path fill="none" stroke="#63b8ff" d="M2092.92,-60.86C2071.63,-51.05 2046.15,-39.32 2026.59,-30.31"/>
<polygon fill="#63b8ff" stroke="#63b8ff" points="2091.38,-64 2101.93,-65 2094.31,-57.64 2091.38,-64"/>
</g>
<!-- Node22 -->
<g id="node22" class="node">
<title>Node22</title>
<g id="a_node22"><a xlink:href="mcsio2_8c_source.html" target="_top" xlink:title=" ">
<polygon fill="white" stroke="#666666" points="2195,-30 2074,-30 2074,0 2195,0 2195,-30"/>
<text text-anchor="start" x="2082" y="-18" font-family="Helvetica,sans-Serif" font-size="10.00">iop/memorycard/mcman</text>
<text text-anchor="middle" x="2134.5" y="-7" font-family="Helvetica,sans-Serif" font-size="10.00">/src/mcsio2.c</text>
</a>
</g>
</g>
<!-- Node19&#45;&gt;Node22 -->
<g id="edge21" class="edge">
<title>Node19&#45;&gt;Node22</title>
<path fill="none" stroke="#63b8ff" d="M2134.5,-54.39C2134.5,-46.13 2134.5,-37.28 2134.5,-30.16"/>
<polygon fill="#63b8ff" stroke="#63b8ff" points="2131,-54.28 2134.5,-64.28 2138,-54.28 2131,-54.28"/>
</g>
<!-- Node23 -->
<g id="node23" class="node">
<title>Node23</title>
<g id="a_node23"><a xlink:href="ps1mc__fio_8c_source.html" target="_top" xlink:title=" ">
<polygon fill="white" stroke="#666666" points="2334,-30 2213,-30 2213,0 2334,0 2334,-30"/>
<text text-anchor="start" x="2221" y="-18" font-family="Helvetica,sans-Serif" font-size="10.00">iop/memorycard/mcman</text>
<text text-anchor="middle" x="2273.5" y="-7" font-family="Helvetica,sans-Serif" font-size="10.00">/src/ps1mc_fio.c</text>
</a>
</g>
</g>
<!-- Node19&#45;&gt;Node23 -->
<g id="edge22" class="edge">
<title>Node19&#45;&gt;Node23</title>
<path fill="none" stroke="#63b8ff" d="M2176.08,-60.86C2197.37,-51.05 2222.85,-39.32 2242.41,-30.31"/>
<polygon fill="#63b8ff" stroke="#63b8ff" points="2174.69,-57.64 2167.07,-65 2177.62,-64 2174.69,-57.64"/>
</g>
<!-- Node24 -->
<g id="node24" class="node">
<title>Node24</title>
<g id="a_node24"><a xlink:href="ps2mc__fio_8c_source.html" target="_top" xlink:title=" ">
<polygon fill="white" stroke="#666666" points="2473,-30 2352,-30 2352,0 2473,0 2473,-30"/>
<text text-anchor="start" x="2360" y="-18" font-family="Helvetica,sans-Serif" font-size="10.00">iop/memorycard/mcman</text>
<text text-anchor="middle" x="2412.5" y="-7" font-family="Helvetica,sans-Serif" font-size="10.00">/src/ps2mc_fio.c</text>
</a>
</g>
</g>
<!-- Node19&#45;&gt;Node24 -->
<g id="edge23" class="edge">
<title>Node19&#45;&gt;Node24</title>
<path fill="none" stroke="#63b8ff" d="M2206.36,-63.46C2251.53,-53.06 2309.14,-39.8 2351.96,-29.94"/>
<polygon fill="#63b8ff" stroke="#63b8ff" points="2205.6,-60.04 2196.64,-65.69 2207.17,-66.86 2205.6,-60.04"/>
</g>
</g>
</svg>
        <g id="navigator" transform="translate(0 0)" fill="#404254">
                <rect fill="#f2f5e9" fill-opacity="0.5" stroke="#606060" stroke-width=".5" x="0" y="0" width="60" height="60"/>
                <use id="zoomplus" xlink:href="#zoomPlus" x="17" y="9" onmousedown="handleZoom(evt,'in')"/>
                <use id="zoomminus" xlink:href="#zoomMin" x="42" y="9" onmousedown="handleZoom(evt,'out')"/>
                <use id="reset" xlink:href="#resetDef" x="30" y="36" onmousedown="handleReset()"/>
                <g id="arrowUp" xlink:href="#dirArrow" transform="translate(30 24)" onmousedown="handlePan(0,-1)">
                  <use xlink:href="#rim" fill="#404040">
                        <set attributeName="fill" to="#808080" begin="arrowUp.mouseover" end="arrowUp.mouseout"/>
                  </use>
                  <path fill="none" stroke="white" stroke-width="1.5" d="M0,-3.0v7 M-2.5,-0.5L0,-3.0L2.5,-0.5"/>
                </g>
                <g id="arrowRight" xlink:href="#dirArrow" transform="rotate(90) translate(36 -43)" onmousedown="handlePan(1,0)">
                  <use xlink:href="#rim" fill="#404040">
                        <set attributeName="fill" to="#808080" begin="arrowRight.mouseover" end="arrowRight.mouseout"/>
                  </use>
                  <path fill="none" stroke="white" stroke-width="1.5" d="M0,-3.0v7 M-2.5,-0.5L0,-3.0L2.5,-0.5"/>
                </g>
                <g id="arrowDown" xlink:href="#dirArrow" transform="rotate(180) translate(-30 -48)" onmousedown="handlePan(0,1)">
                  <use xlink:href="#rim" fill="#404040">
                        <set attributeName="fill" to="#808080" begin="arrowDown.mouseover" end="arrowDown.mouseout"/>
                  </use>
                  <path fill="none" stroke="white" stroke-width="1.5" d="M0,-3.0v7 M-2.5,-0.5L0,-3.0L2.5,-0.5"/>
                </g>
                <g id="arrowLeft" xlink:href="#dirArrow" transform="rotate(270) translate(-36 17)" onmousedown="handlePan(-1,0)">
                  <use xlink:href="#rim" fill="#404040">
                        <set attributeName="fill" to="#808080" begin="arrowLeft.mouseover" end="arrowLeft.mouseout"/>
                  </use>
                  <path fill="none" stroke="white" stroke-width="1.5" d="M0,-3.0v7 M-2.5,-0.5L0,-3.0L2.5,-0.5"/>
                </g>
        </g>
        <svg viewBox="0 0 15 15" width="100%" height="30px" preserveAspectRatio="xMaxYMin meet">
         <g id="arrow_out" transform="scale(0.3 0.3)">
          <a xlink:href="cdvdman_8h__dep__incl_org.svg" target="_base">
           <rect id="button" ry="5" rx="5" y="6" x="6" height="38" width="38"
                fill="#f2f5e9" fill-opacity="0.5" stroke="#606060" stroke-width="1.0"/>
           <path id="arrow"
             d="M 11.500037,31.436501 C 11.940474,20.09759 22.043105,11.32322 32.158766,21.979434 L 37.068811,17.246167 C 37.068811,17.246167 37.088388,32 37.088388,32 L 22.160133,31.978069 C 22.160133,31.978069 26.997745,27.140456 26.997745,27.140456 C 18.528582,18.264221 13.291696,25.230495 11.500037,31.436501 z"
             style="fill:#404040;"/>
          </a>
         </g>
        </svg>
</svg>
