<?xml version="1.0" encoding="UTF-8" standalone="no"?>
<!DOCTYPE svg PUBLIC "-//W3C//DTD SVG 1.1//EN"
 "http://www.w3.org/Graphics/SVG/1.1/DTD/svg11.dtd">
<!-- Generated by graphviz version 7.0.5 (20221223.1930)
 -->
<!-- Title: iop/system/iopmgr/src/commandline.c Pages: 1 -->
<!--zoomable 313 -->
<svg id="main" version="1.1" xmlns="http://www.w3.org/2000/svg" xmlns:xlink="http://www.w3.org/1999/xlink" xml:space="preserve" onload="init(evt)">
<style type="text/css"><![CDATA[
.edge:hover path { stroke: red; }
.edge:hover polygon { stroke: red; fill: red; }
]]></style>
<script type="text/javascript"><![CDATA[
var edges = document.getElementsByTagName('g');
if (edges && edges.length) {
  for (var i=0;i<edges.length;i++) {
    if (edges[i].id.substr(0,4)=='edge') {
      edges[i].setAttribute('class','edge');
    }
  }
}
]]></script>
        <defs>
                <circle id="rim" cx="0" cy="0" r="7"/>
                <circle id="rim2" cx="0" cy="0" r="3.5"/>
                <g id="zoomPlus">
                        <use xlink:href="#rim" fill="#404040">
                                <set attributeName="fill" to="#808080" begin="zoomplus.mouseover" end="zoomplus.mouseout"/>
                        </use>
                        <path d="M-4,0h8M0,-4v8" fill="none" stroke="white" stroke-width="1.5" pointer-events="none"/>
                </g>
                <g id="zoomMin">
                        <use xlink:href="#rim" fill="#404040">
                                <set attributeName="fill" to="#808080" begin="zoomminus.mouseover" end="zoomminus.mouseout"/>
                        </use>
                        <path d="M-4,0h8" fill="none" stroke="white" stroke-width="1.5" pointer-events="none"/>
                </g>
                <g id="dirArrow">
                        <path fill="none" stroke="white" stroke-width="1.5" d="M0,-3.0v7 M-2.5,-0.5L0,-3.0L2.5,-0.5"/>
                </g>
               <g id="resetDef">
                       <use xlink:href="#rim2" fill="#404040">
                               <set attributeName="fill" to="#808080" begin="reset.mouseover" end="reset.mouseout"/>
                       </use>
               </g>
        </defs>

<script type="text/javascript">
var viewWidth = 615;
var viewHeight = 313;
var sectionId = 'dynsection-0';
</script>
<script xlink:href="svgpan.js"/>
<svg id="graph" class="graph">
<g id="viewport">
<title>iop/system/iopmgr/src/commandline.c</title>
<!-- Node1 -->
<g id="node1" class="node">
<title>Node1</title>
<g id="a_node1"><a xlink:title=" ">
<polygon fill="#999999" stroke="#666666" points="385,-305 272,-305 272,-275 385,-275 385,-305"/>
<text text-anchor="start" x="280" y="-293" font-family="Helvetica,sans-Serif" font-size="10.00">iop/system/iopmgr/src</text>
<text text-anchor="middle" x="328.5" y="-282" font-family="Helvetica,sans-Serif" font-size="10.00">/commandline.c</text>
</a>
</g>
</g>
<!-- Node2 -->
<g id="node2" class="node">
<title>Node2</title>
<g id="a_node2"><a xlink:href="defs_8h.html" target="_top" xlink:title=" ">
<polygon fill="white" stroke="#666666" points="281,-239 238,-239 238,-220 281,-220 281,-239"/>
<text text-anchor="middle" x="259.5" y="-227" font-family="Helvetica,sans-Serif" font-size="10.00">defs.h</text>
</a>
</g>
</g>
<!-- Node1&#45;&gt;Node2 -->
<g id="edge1" class="edge">
<title>Node1&#45;&gt;Node2</title>
<path fill="none" stroke="#63b8ff" d="M311.44,-274.54C301.42,-266.04 288.74,-255.29 278.41,-246.53"/>
<polygon fill="#63b8ff" stroke="#63b8ff" points="280.78,-243.95 270.89,-240.15 276.25,-249.29 280.78,-243.95"/>
</g>
<!-- Node6 -->
<g id="node6" class="node">
<title>Node6</title>
<g id="a_node6"><a xlink:href="ioman_x_8h.html" target="_top" xlink:title=" ">
<polygon fill="white" stroke="#666666" points="181,-184 124,-184 124,-165 181,-165 181,-184"/>
<text text-anchor="middle" x="152.5" y="-172" font-family="Helvetica,sans-Serif" font-size="10.00">iomanX.h</text>
</a>
</g>
</g>
<!-- Node1&#45;&gt;Node6 -->
<g id="edge5" class="edge">
<title>Node1&#45;&gt;Node6</title>
<path fill="none" stroke="#63b8ff" d="M295.01,-274.63C275.07,-265.5 249.61,-252.83 228.5,-239 207.06,-224.96 184.82,-205.74 169.98,-192.13"/>
<polygon fill="#63b8ff" stroke="#63b8ff" points="172.58,-189.77 162.88,-185.52 167.81,-194.89 172.58,-189.77"/>
</g>
<!-- Node13 -->
<g id="node13" class="node">
<title>Node13</title>
<g id="a_node13"><a xlink:href="stdio_8h.html" target="_top" xlink:title=" ">
<polygon fill="white" stroke="#666666" points="351,-184 306,-184 306,-165 351,-165 351,-184"/>
<text text-anchor="middle" x="328.5" y="-172" font-family="Helvetica,sans-Serif" font-size="10.00">stdio.h</text>
</a>
</g>
</g>
<!-- Node1&#45;&gt;Node13 -->
<g id="edge13" class="edge">
<title>Node1&#45;&gt;Node13</title>
<path fill="none" stroke="#63b8ff" d="M328.5,-274.63C328.5,-254.59 328.5,-218.17 328.5,-195.49"/>
<polygon fill="#63b8ff" stroke="#63b8ff" points="332,-195.74 328.5,-185.74 325,-195.74 332,-195.74"/>
</g>
<!-- Node15 -->
<g id="node15" class="node">
<title>Node15</title>
<g id="a_node15"><a xlink:href="sysclib_8h.html" target="_top" xlink:title=" ">
<polygon fill="white" stroke="#666666" points="606.5,-184 552.5,-184 552.5,-165 606.5,-165 606.5,-184"/>
<text text-anchor="middle" x="579.5" y="-172" font-family="Helvetica,sans-Serif" font-size="10.00">sysclib.h</text>
</a>
</g>
</g>
<!-- Node1&#45;&gt;Node15 -->
<g id="edge17" class="edge">
<title>Node1&#45;&gt;Node15</title>
<path fill="none" stroke="#63b8ff" d="M360.54,-274.51C409.47,-252.39 502.1,-210.5 549.66,-188.99"/>
<polygon fill="#63b8ff" stroke="#63b8ff" points="550.87,-192.29 558.54,-184.98 547.98,-185.91 550.87,-192.29"/>
</g>
<!-- Node18 -->
<g id="node18" class="node">
<title>Node18</title>
<g id="a_node18"><a xlink:href="iopmgr_8h.html" target="_top" xlink:title=" ">
<polygon fill="white" stroke="#666666" points="419,-239 366,-239 366,-220 419,-220 419,-239"/>
<text text-anchor="middle" x="392.5" y="-227" font-family="Helvetica,sans-Serif" font-size="10.00">iopmgr.h</text>
</a>
</g>
</g>
<!-- Node1&#45;&gt;Node18 -->
<g id="edge24" class="edge">
<title>Node1&#45;&gt;Node18</title>
<path fill="none" stroke="#63b8ff" d="M344.32,-274.54C353.52,-266.13 365.14,-255.51 374.67,-246.8"/>
<polygon fill="#63b8ff" stroke="#63b8ff" points="376.87,-249.53 381.89,-240.2 372.15,-244.36 376.87,-249.53"/>
</g>
<!-- Node3 -->
<g id="node3" class="node">
<title>Node3</title>
<g id="a_node3"><a xlink:href="iop_2kernel_2include_2types_8h_source.html" target="_top" xlink:title=" ">
<polygon fill="white" stroke="#666666" points="442,-74 395,-74 395,-55 442,-55 442,-74"/>
<text text-anchor="middle" x="418.5" y="-62" font-family="Helvetica,sans-Serif" font-size="10.00">types.h</text>
</a>
</g>
</g>
<!-- Node2&#45;&gt;Node3 -->
<g id="edge2" class="edge">
<title>Node2&#45;&gt;Node3</title>
<path fill="none" stroke="#63b8ff" d="M250.12,-219.71C238.48,-207.67 221.02,-185.26 228.5,-165 239.63,-134.83 248.65,-127.69 275.5,-110 308.71,-88.12 353.28,-76.5 383.79,-70.69"/>
<polygon fill="#63b8ff" stroke="#63b8ff" points="384.02,-74.2 393.25,-69 382.79,-67.31 384.02,-74.2"/>
</g>
<!-- Node4 -->
<g id="node4" class="node">
<title>Node4</title>
<g id="a_node4"><a xlink:title=" ">
<polygon fill="#e0e0e0" stroke="#999999" points="444,-19 393,-19 393,0 444,0 444,-19"/>
<text text-anchor="middle" x="418.5" y="-7" font-family="Helvetica,sans-Serif" font-size="10.00">stddef.h</text>
</a>
</g>
</g>
<!-- Node3&#45;&gt;Node4 -->
<g id="edge3" class="edge">
<title>Node3&#45;&gt;Node4</title>
<path fill="none" stroke="#63b8ff" d="M418.5,-54.75C418.5,-48.27 418.5,-39.16 418.5,-30.9"/>
<polygon fill="#63b8ff" stroke="#63b8ff" points="422,-30.96 418.5,-20.96 415,-30.96 422,-30.96"/>
</g>
<!-- Node5 -->
<g id="node5" class="node">
<title>Node5</title>
<g id="a_node5"><a xlink:href="tamtypes_8h.html" target="_top" xlink:title=" ">
<polygon fill="white" stroke="#666666" points="581.5,-19 517.5,-19 517.5,0 581.5,0 581.5,-19"/>
<text text-anchor="middle" x="549.5" y="-7" font-family="Helvetica,sans-Serif" font-size="10.00">tamtypes.h</text>
</a>
</g>
</g>
<!-- Node3&#45;&gt;Node5 -->
<g id="edge4" class="edge">
<title>Node3&#45;&gt;Node5</title>
<path fill="none" stroke="#63b8ff" d="M440.72,-54.51C461.64,-46.04 493.23,-33.27 516.98,-23.66"/>
<polygon fill="#63b8ff" stroke="#63b8ff" points="518.25,-26.92 526.2,-19.93 515.62,-20.43 518.25,-26.92"/>
</g>
<!-- Node6&#45;&gt;Node3 -->
<g id="edge6" class="edge">
<title>Node6&#45;&gt;Node3</title>
<path fill="none" stroke="#63b8ff" d="M156.82,-164.93C164.31,-151.03 181.07,-123.73 203.5,-110 259.79,-75.56 338.28,-67.35 383.19,-65.64"/>
<polygon fill="#63b8ff" stroke="#63b8ff" points="383.24,-69.14 393.14,-65.36 383.05,-62.15 383.24,-69.14"/>
</g>
<!-- Node7 -->
<g id="node7" class="node">
<title>Node7</title>
<g id="a_node7"><a xlink:title=" ">
<polygon fill="#e0e0e0" stroke="#999999" points="354,-129 303,-129 303,-110 354,-110 354,-129"/>
<text text-anchor="middle" x="328.5" y="-117" font-family="Helvetica,sans-Serif" font-size="10.00">stdarg.h</text>
</a>
</g>
</g>
<!-- Node6&#45;&gt;Node7 -->
<g id="edge7" class="edge">
<title>Node6&#45;&gt;Node7</title>
<path fill="none" stroke="#63b8ff" d="M181.17,-164.87C211.32,-155.79 258.85,-141.47 291.74,-131.57"/>
<polygon fill="#63b8ff" stroke="#63b8ff" points="292.69,-134.94 301.26,-128.7 290.68,-128.24 292.69,-134.94"/>
</g>
<!-- Node8 -->
<g id="node8" class="node">
<title>Node8</title>
<g id="a_node8"><a xlink:href="io__common_8h.html" target="_top" xlink:title=" ">
<polygon fill="white" stroke="#666666" points="151.5,-129 77.5,-129 77.5,-110 151.5,-110 151.5,-129"/>
<text text-anchor="middle" x="114.5" y="-117" font-family="Helvetica,sans-Serif" font-size="10.00">io_common.h</text>
</a>
</g>
</g>
<!-- Node6&#45;&gt;Node8 -->
<g id="edge8" class="edge">
<title>Node6&#45;&gt;Node8</title>
<path fill="none" stroke="#63b8ff" d="M146.23,-164.75C141.14,-157.66 133.8,-147.42 127.47,-138.59"/>
<polygon fill="#63b8ff" stroke="#63b8ff" points="130.46,-136.76 121.79,-130.67 124.78,-140.84 130.46,-136.76"/>
</g>
<!-- Node11 -->
<g id="node11" class="node">
<title>Node11</title>
<g id="a_node11"><a xlink:href="iox__stat_8h.html" target="_top" xlink:title=" ">
<polygon fill="white" stroke="#666666" points="59.5,-129 1.5,-129 1.5,-110 59.5,-110 59.5,-129"/>
<text text-anchor="middle" x="30.5" y="-117" font-family="Helvetica,sans-Serif" font-size="10.00">iox_stat.h</text>
</a>
</g>
</g>
<!-- Node6&#45;&gt;Node11 -->
<g id="edge11" class="edge">
<title>Node6&#45;&gt;Node11</title>
<path fill="none" stroke="#63b8ff" d="M131.8,-164.51C112.5,-156.12 83.44,-143.5 61.39,-133.92"/>
<polygon fill="#63b8ff" stroke="#63b8ff" points="62.84,-130.74 52.28,-129.96 60.06,-137.16 62.84,-130.74"/>
</g>
<!-- Node9 -->
<g id="node9" class="node">
<title>Node9</title>
<g id="a_node9"><a xlink:href="fcntl_8h_source.html" target="_top" xlink:title=" ">
<polygon fill="white" stroke="#666666" points="143,-74 82,-74 82,-55 143,-55 143,-74"/>
<text text-anchor="middle" x="112.5" y="-62" font-family="Helvetica,sans-Serif" font-size="10.00">sys/fcntl.h</text>
</a>
</g>
</g>
<!-- Node8&#45;&gt;Node9 -->
<g id="edge9" class="edge">
<title>Node8&#45;&gt;Node9</title>
<path fill="none" stroke="#63b8ff" d="M114.17,-109.75C113.93,-103.27 113.58,-94.16 113.27,-85.9"/>
<polygon fill="#63b8ff" stroke="#63b8ff" points="116.77,-85.82 112.89,-75.95 109.77,-86.08 116.77,-85.82"/>
</g>
<!-- Node10 -->
<g id="node10" class="node">
<title>Node10</title>
<g id="a_node10"><a xlink:href="unistd_8h_source.html" target="_top" xlink:title=" ">
<polygon fill="white" stroke="#666666" points="229.5,-74 161.5,-74 161.5,-55 229.5,-55 229.5,-74"/>
<text text-anchor="middle" x="195.5" y="-62" font-family="Helvetica,sans-Serif" font-size="10.00">sys/unistd.h</text>
</a>
</g>
</g>
<!-- Node8&#45;&gt;Node10 -->
<g id="edge10" class="edge">
<title>Node8&#45;&gt;Node10</title>
<path fill="none" stroke="#63b8ff" d="M128.24,-109.51C140.3,-101.62 158.09,-89.98 172.34,-80.65"/>
<polygon fill="#63b8ff" stroke="#63b8ff" points="174.24,-83.59 180.7,-75.19 170.41,-77.73 174.24,-83.59"/>
</g>
<!-- Node12 -->
<g id="node12" class="node">
<title>Node12</title>
<g id="a_node12"><a xlink:href="time_8h.html" target="_top" xlink:title=" ">
<polygon fill="white" stroke="#666666" points="61,-74 0,-74 0,-55 61,-55 61,-74"/>
<text text-anchor="middle" x="30.5" y="-62" font-family="Helvetica,sans-Serif" font-size="10.00">sys/time.h</text>
</a>
</g>
</g>
<!-- Node11&#45;&gt;Node12 -->
<g id="edge12" class="edge">
<title>Node11&#45;&gt;Node12</title>
<path fill="none" stroke="#63b8ff" d="M30.5,-109.75C30.5,-103.27 30.5,-94.16 30.5,-85.9"/>
<polygon fill="#63b8ff" stroke="#63b8ff" points="34,-85.96 30.5,-75.96 27,-85.96 34,-85.96"/>
</g>
<!-- Node13&#45;&gt;Node7 -->
<g id="edge14" class="edge">
<title>Node13&#45;&gt;Node7</title>
<path fill="none" stroke="#63b8ff" d="M328.5,-164.75C328.5,-158.27 328.5,-149.16 328.5,-140.9"/>
<polygon fill="#63b8ff" stroke="#63b8ff" points="332,-140.96 328.5,-130.96 325,-140.96 332,-140.96"/>
</g>
<!-- Node14 -->
<g id="node14" class="node">
<title>Node14</title>
<g id="a_node14"><a xlink:href="irx_8h.html" target="_top" xlink:title=" ">
<polygon fill="white" stroke="#666666" points="435.5,-129 401.5,-129 401.5,-110 435.5,-110 435.5,-129"/>
<text text-anchor="middle" x="418.5" y="-117" font-family="Helvetica,sans-Serif" font-size="10.00">irx.h</text>
</a>
</g>
</g>
<!-- Node13&#45;&gt;Node14 -->
<g id="edge15" class="edge">
<title>Node13&#45;&gt;Node14</title>
<path fill="none" stroke="#63b8ff" d="M343.77,-164.51C357.43,-156.47 377.7,-144.53 393.68,-135.11"/>
<polygon fill="#63b8ff" stroke="#63b8ff" points="395.31,-138.22 402.15,-130.13 391.76,-132.18 395.31,-138.22"/>
</g>
<!-- Node14&#45;&gt;Node3 -->
<g id="edge16" class="edge">
<title>Node14&#45;&gt;Node3</title>
<path fill="none" stroke="#63b8ff" d="M418.5,-109.75C418.5,-103.27 418.5,-94.16 418.5,-85.9"/>
<polygon fill="#63b8ff" stroke="#63b8ff" points="422,-85.96 418.5,-75.96 415,-85.96 422,-85.96"/>
</g>
<!-- Node15&#45;&gt;Node3 -->
<g id="edge18" class="edge">
<title>Node15&#45;&gt;Node3</title>
<path fill="none" stroke="#63b8ff" d="M566.32,-164.66C538.85,-146.23 475.15,-103.5 441.03,-80.62"/>
<polygon fill="#63b8ff" stroke="#63b8ff" points="443.37,-77.97 433.11,-75.3 439.47,-83.78 443.37,-77.97"/>
</g>
<!-- Node15&#45;&gt;Node7 -->
<g id="edge20" class="edge">
<title>Node15&#45;&gt;Node7</title>
<path fill="none" stroke="#63b8ff" d="M552,-166.92C549.13,-166.26 546.26,-165.61 543.5,-165 481.25,-151.21 408.55,-136.44 365.64,-127.86"/>
<polygon fill="#63b8ff" stroke="#63b8ff" points="366.34,-124.43 355.85,-125.91 364.97,-131.3 366.34,-124.43"/>
</g>
<!-- Node15&#45;&gt;Node14 -->
<g id="edge19" class="edge">
<title>Node15&#45;&gt;Node14</title>
<path fill="none" stroke="#63b8ff" d="M552.19,-164.51C522.88,-154.86 476.56,-139.61 446.86,-129.83"/>
<polygon fill="#63b8ff" stroke="#63b8ff" points="448.02,-126.53 437.42,-126.73 445.83,-133.18 448.02,-126.53"/>
</g>
<!-- Node16 -->
<g id="node16" class="node">
<title>Node16</title>
<g id="a_node16"><a xlink:href="setjmp_8h.html" target="_top" xlink:title=" ">
<polygon fill="white" stroke="#666666" points="604,-74 551,-74 551,-55 604,-55 604,-74"/>
<text text-anchor="middle" x="577.5" y="-62" font-family="Helvetica,sans-Serif" font-size="10.00">setjmp.h</text>
</a>
</g>
</g>
<!-- Node15&#45;&gt;Node16 -->
<g id="edge21" class="edge">
<title>Node15&#45;&gt;Node16</title>
<path fill="none" stroke="#63b8ff" d="M581.6,-164.88C584.31,-152.67 588.47,-129.64 586.5,-110 585.69,-101.86 584.05,-93.01 582.4,-85.36"/>
<polygon fill="#63b8ff" stroke="#63b8ff" points="585.84,-84.7 580.16,-75.76 579.02,-86.29 585.84,-84.7"/>
</g>
<!-- Node17 -->
<g id="node17" class="node">
<title>Node17</title>
<g id="a_node17"><a xlink:href="ctype_8h.html" target="_top" xlink:title=" ">
<polygon fill="white" stroke="#666666" points="577,-129 530,-129 530,-110 577,-110 577,-129"/>
<text text-anchor="middle" x="553.5" y="-117" font-family="Helvetica,sans-Serif" font-size="10.00">ctype.h</text>
</a>
</g>
</g>
<!-- Node15&#45;&gt;Node17 -->
<g id="edge23" class="edge">
<title>Node15&#45;&gt;Node17</title>
<path fill="none" stroke="#63b8ff" d="M575.21,-164.75C571.88,-157.96 567.14,-148.3 562.94,-139.73"/>
<polygon fill="#63b8ff" stroke="#63b8ff" points="566.1,-138.24 558.55,-130.8 559.82,-141.32 566.1,-138.24"/>
</g>
<!-- Node16&#45;&gt;Node5 -->
<g id="edge22" class="edge">
<title>Node16&#45;&gt;Node5</title>
<path fill="none" stroke="#63b8ff" d="M572.88,-54.75C569.25,-47.88 564.07,-38.08 559.51,-29.45"/>
<polygon fill="#63b8ff" stroke="#63b8ff" points="562.7,-27.99 554.93,-20.78 556.51,-31.26 562.7,-27.99"/>
</g>
<!-- Node18&#45;&gt;Node14 -->
<g id="edge26" class="edge">
<title>Node18&#45;&gt;Node14</title>
<path fill="none" stroke="#63b8ff" d="M401.83,-219.63C409.86,-211.31 420.85,-198.06 425.5,-184 430.19,-169.79 428,-152.93 424.87,-140.15"/>
<polygon fill="#63b8ff" stroke="#63b8ff" points="428.32,-139.47 422.2,-130.83 421.59,-141.4 428.32,-139.47"/>
</g>
<!-- Node19 -->
<g id="node19" class="node">
<title>Node19</title>
<g id="a_node19"><a xlink:title=" ">
<polygon fill="#e0e0e0" stroke="#999999" points="416,-184 369,-184 369,-165 416,-165 416,-184"/>
<text text-anchor="middle" x="392.5" y="-172" font-family="Helvetica,sans-Serif" font-size="10.00">types.h</text>
</a>
</g>
</g>
<!-- Node18&#45;&gt;Node19 -->
<g id="edge25" class="edge">
<title>Node18&#45;&gt;Node19</title>
<path fill="none" stroke="#63b8ff" d="M392.5,-219.75C392.5,-213.27 392.5,-204.16 392.5,-195.9"/>
<polygon fill="#63b8ff" stroke="#63b8ff" points="396,-195.96 392.5,-185.96 389,-195.96 396,-195.96"/>
</g>
<!-- Node20 -->
<g id="node20" class="node">
<title>Node20</title>
<g id="a_node20"><a xlink:href="ioman_8h.html" target="_top" xlink:title=" ">
<polygon fill="white" stroke="#666666" points="287.5,-184 237.5,-184 237.5,-165 287.5,-165 287.5,-184"/>
<text text-anchor="middle" x="262.5" y="-172" font-family="Helvetica,sans-Serif" font-size="10.00">ioman.h</text>
</a>
</g>
</g>
<!-- Node18&#45;&gt;Node20 -->
<g id="edge27" class="edge">
<title>Node18&#45;&gt;Node20</title>
<path fill="none" stroke="#63b8ff" d="M370.45,-219.51C349.69,-211.04 318.34,-198.27 294.77,-188.66"/>
<polygon fill="#63b8ff" stroke="#63b8ff" points="296.21,-185.46 285.63,-184.93 293.57,-191.95 296.21,-185.46"/>
</g>
<!-- Node21 -->
<g id="node21" class="node">
<title>Node21</title>
<g id="a_node21"><a xlink:href="loadcore_8h.html" target="_top" xlink:title=" ">
<polygon fill="white" stroke="#666666" points="534,-184 473,-184 473,-165 534,-165 534,-184"/>
<text text-anchor="middle" x="503.5" y="-172" font-family="Helvetica,sans-Serif" font-size="10.00">loadcore.h</text>
</a>
</g>
</g>
<!-- Node18&#45;&gt;Node21 -->
<g id="edge31" class="edge">
<title>Node18&#45;&gt;Node21</title>
<path fill="none" stroke="#63b8ff" d="M411.33,-219.51C428.66,-211.24 454.61,-198.84 474.57,-189.31"/>
<polygon fill="#63b8ff" stroke="#63b8ff" points="476.07,-192.48 483.58,-185.01 473.05,-186.16 476.07,-192.48"/>
</g>
<!-- Node20&#45;&gt;Node3 -->
<g id="edge28" class="edge">
<title>Node20&#45;&gt;Node3</title>
<path fill="none" stroke="#63b8ff" d="M264.48,-164.83C268.02,-151.27 276.67,-125.04 293.5,-110 318.75,-87.44 356.22,-76.11 383.55,-70.56"/>
<polygon fill="#63b8ff" stroke="#63b8ff" points="383.89,-74.06 393.08,-68.79 382.61,-67.17 383.89,-74.06"/>
</g>
<!-- Node20&#45;&gt;Node8 -->
<g id="edge30" class="edge">
<title>Node20&#45;&gt;Node8</title>
<path fill="none" stroke="#63b8ff" d="M237.39,-164.51C213.33,-155.89 176.78,-142.8 149.79,-133.14"/>
<polygon fill="#63b8ff" stroke="#63b8ff" points="151.25,-129.94 140.66,-129.87 148.89,-136.53 151.25,-129.94"/>
</g>
<!-- Node20&#45;&gt;Node14 -->
<g id="edge29" class="edge">
<title>Node20&#45;&gt;Node14</title>
<path fill="none" stroke="#63b8ff" d="M287.91,-164.87C316.11,-155.29 361.48,-139.87 390.63,-129.97"/>
<polygon fill="#63b8ff" stroke="#63b8ff" points="391.53,-133.36 399.88,-126.83 389.28,-126.73 391.53,-133.36"/>
</g>
<!-- Node21&#45;&gt;Node3 -->
<g id="edge32" class="edge">
<title>Node21&#45;&gt;Node3</title>
<path fill="none" stroke="#63b8ff" d="M496.54,-164.66C482.6,-146.94 450.98,-106.77 432.55,-83.35"/>
<polygon fill="#63b8ff" stroke="#63b8ff" points="435.42,-81.34 426.49,-75.65 429.92,-85.67 435.42,-81.34"/>
</g>
<!-- Node21&#45;&gt;Node14 -->
<g id="edge33" class="edge">
<title>Node21&#45;&gt;Node14</title>
<path fill="none" stroke="#63b8ff" d="M489.08,-164.51C476.3,-156.54 457.4,-144.75 442.37,-135.38"/>
<polygon fill="#63b8ff" stroke="#63b8ff" points="444.33,-132.48 433.99,-130.16 440.62,-138.42 444.33,-132.48"/>
</g>
</g>
</svg>
        <g id="navigator" transform="translate(0 0)" fill="#404254">
                <rect fill="#f2f5e9" fill-opacity="0.5" stroke="#606060" stroke-width=".5" x="0" y="0" width="60" height="60"/>
                <use id="zoomplus" xlink:href="#zoomPlus" x="17" y="9" onmousedown="handleZoom(evt,'in')"/>
                <use id="zoomminus" xlink:href="#zoomMin" x="42" y="9" onmousedown="handleZoom(evt,'out')"/>
                <use id="reset" xlink:href="#resetDef" x="30" y="36" onmousedown="handleReset()"/>
                <g id="arrowUp" xlink:href="#dirArrow" transform="translate(30 24)" onmousedown="handlePan(0,-1)">
                  <use xlink:href="#rim" fill="#404040">
                        <set attributeName="fill" to="#808080" begin="arrowUp.mouseover" end="arrowUp.mouseout"/>
                  </use>
                  <path fill="none" stroke="white" stroke-width="1.5" d="M0,-3.0v7 M-2.5,-0.5L0,-3.0L2.5,-0.5"/>
                </g>
                <g id="arrowRight" xlink:href="#dirArrow" transform="rotate(90) translate(36 -43)" onmousedown="handlePan(1,0)">
                  <use xlink:href="#rim" fill="#404040">
                        <set attributeName="fill" to="#808080" begin="arrowRight.mouseover" end="arrowRight.mouseout"/>
                  </use>
                  <path fill="none" stroke="white" stroke-width="1.5" d="M0,-3.0v7 M-2.5,-0.5L0,-3.0L2.5,-0.5"/>
                </g>
                <g id="arrowDown" xlink:href="#dirArrow" transform="rotate(180) translate(-30 -48)" onmousedown="handlePan(0,1)">
                  <use xlink:href="#rim" fill="#404040">
                        <set attributeName="fill" to="#808080" begin="arrowDown.mouseover" end="arrowDown.mouseout"/>
                  </use>
                  <path fill="none" stroke="white" stroke-width="1.5" d="M0,-3.0v7 M-2.5,-0.5L0,-3.0L2.5,-0.5"/>
                </g>
                <g id="arrowLeft" xlink:href="#dirArrow" transform="rotate(270) translate(-36 17)" onmousedown="handlePan(-1,0)">
                  <use xlink:href="#rim" fill="#404040">
                        <set attributeName="fill" to="#808080" begin="arrowLeft.mouseover" end="arrowLeft.mouseout"/>
                  </use>
                  <path fill="none" stroke="white" stroke-width="1.5" d="M0,-3.0v7 M-2.5,-0.5L0,-3.0L2.5,-0.5"/>
                </g>
        </g>
        <svg viewBox="0 0 15 15" width="100%" height="30px" preserveAspectRatio="xMaxYMin meet">
         <g id="arrow_out" transform="scale(0.3 0.3)">
          <a xlink:href="commandline_8c__incl_org.svg" target="_base">
           <rect id="button" ry="5" rx="5" y="6" x="6" height="38" width="38"
                fill="#f2f5e9" fill-opacity="0.5" stroke="#606060" stroke-width="1.0"/>
           <path id="arrow"
             d="M 11.500037,31.436501 C 11.940474,20.09759 22.043105,11.32322 32.158766,21.979434 L 37.068811,17.246167 C 37.068811,17.246167 37.088388,32 37.088388,32 L 22.160133,31.978069 C 22.160133,31.978069 26.997745,27.140456 26.997745,27.140456 C 18.528582,18.264221 13.291696,25.230495 11.500037,31.436501 z"
             style="fill:#404040;"/>
          </a>
         </g>
        </svg>
</svg>
