<?xml version="1.0" encoding="UTF-8" standalone="no"?>
<!DOCTYPE svg PUBLIC "-//W3C//DTD SVG 1.1//EN"
 "http://www.w3.org/Graphics/SVG/1.1/DTD/svg11.dtd">
<!-- Generated by graphviz version 7.0.5 (20221223.1930)
 -->
<!-- Title: iop/fs/devfs/src/devfs.c Pages: 1 -->
<!--zoomable 247 -->
<svg id="main" version="1.1" xmlns="http://www.w3.org/2000/svg" xmlns:xlink="http://www.w3.org/1999/xlink" xml:space="preserve" onload="init(evt)">
<style type="text/css"><![CDATA[
.edge:hover path { stroke: red; }
.edge:hover polygon { stroke: red; fill: red; }
]]></style>
<script type="text/javascript"><![CDATA[
var edges = document.getElementsByTagName('g');
if (edges && edges.length) {
  for (var i=0;i<edges.length;i++) {
    if (edges[i].id.substr(0,4)=='edge') {
      edges[i].setAttribute('class','edge');
    }
  }
}
]]></script>
        <defs>
                <circle id="rim" cx="0" cy="0" r="7"/>
                <circle id="rim2" cx="0" cy="0" r="3.5"/>
                <g id="zoomPlus">
                        <use xlink:href="#rim" fill="#404040">
                                <set attributeName="fill" to="#808080" begin="zoomplus.mouseover" end="zoomplus.mouseout"/>
                        </use>
                        <path d="M-4,0h8M0,-4v8" fill="none" stroke="white" stroke-width="1.5" pointer-events="none"/>
                </g>
                <g id="zoomMin">
                        <use xlink:href="#rim" fill="#404040">
                                <set attributeName="fill" to="#808080" begin="zoomminus.mouseover" end="zoomminus.mouseout"/>
                        </use>
                        <path d="M-4,0h8" fill="none" stroke="white" stroke-width="1.5" pointer-events="none"/>
                </g>
                <g id="dirArrow">
                        <path fill="none" stroke="white" stroke-width="1.5" d="M0,-3.0v7 M-2.5,-0.5L0,-3.0L2.5,-0.5"/>
                </g>
               <g id="resetDef">
                       <use xlink:href="#rim2" fill="#404040">
                               <set attributeName="fill" to="#808080" begin="reset.mouseover" end="reset.mouseout"/>
                       </use>
               </g>
        </defs>

<script type="text/javascript">
var viewWidth = 977;
var viewHeight = 247;
var sectionId = 'dynsection-0';
</script>
<script xlink:href="svgpan.js"/>
<svg id="graph" class="graph">
<g id="viewport">
<title>iop/fs/devfs/src/devfs.c</title>
<!-- Node1 -->
<g id="node1" class="node">
<title>Node1</title>
<g id="a_node1"><a xlink:title=" ">
<polygon fill="#999999" stroke="#666666" points="465,-239 346,-239 346,-220 465,-220 465,-239"/>
<text text-anchor="middle" x="405.5" y="-227" font-family="Helvetica,sans-Serif" font-size="10.00">iop/fs/devfs/src/devfs.c</text>
</a>
</g>
</g>
<!-- Node2 -->
<g id="node2" class="node">
<title>Node2</title>
<g id="a_node2"><a xlink:title=" ">
<polygon fill="#e0e0e0" stroke="#999999" points="115,-129 68,-129 68,-110 115,-110 115,-129"/>
<text text-anchor="middle" x="91.5" y="-117" font-family="Helvetica,sans-Serif" font-size="10.00">types.h</text>
</a>
</g>
</g>
<!-- Node1&#45;&gt;Node2 -->
<g id="edge1" class="edge">
<title>Node1&#45;&gt;Node2</title>
<path fill="none" stroke="#63b8ff" d="M345.68,-224.75C254.46,-218.42 89.25,-204.27 71.5,-184 60.35,-171.26 68.5,-152.32 77.52,-138.44"/>
<polygon fill="#63b8ff" stroke="#63b8ff" points="80.14,-140.79 83.1,-130.62 74.44,-136.72 80.14,-140.79"/>
</g>
<!-- Node3 -->
<g id="node3" class="node">
<title>Node3</title>
<g id="a_node3"><a xlink:href="defs_8h.html" target="_top" xlink:title=" ">
<polygon fill="white" stroke="#666666" points="43,-129 0,-129 0,-110 43,-110 43,-129"/>
<text text-anchor="middle" x="21.5" y="-117" font-family="Helvetica,sans-Serif" font-size="10.00">defs.h</text>
</a>
</g>
</g>
<!-- Node1&#45;&gt;Node3 -->
<g id="edge2" class="edge">
<title>Node1&#45;&gt;Node3</title>
<path fill="none" stroke="#63b8ff" d="M345.55,-226.72C260.04,-223.19 108.32,-212.94 62.5,-184 46.22,-173.72 35.13,-154.35 28.63,-139.7"/>
<polygon fill="#63b8ff" stroke="#63b8ff" points="31.95,-138.58 24.96,-130.63 25.46,-141.21 31.95,-138.58"/>
</g>
<!-- Node7 -->
<g id="node7" class="node">
<title>Node7</title>
<g id="a_node7"><a xlink:href="irx_8h.html" target="_top" xlink:title=" ">
<polygon fill="white" stroke="#666666" points="468.5,-129 434.5,-129 434.5,-110 468.5,-110 468.5,-129"/>
<text text-anchor="middle" x="451.5" y="-117" font-family="Helvetica,sans-Serif" font-size="10.00">irx.h</text>
</a>
</g>
</g>
<!-- Node1&#45;&gt;Node7 -->
<g id="edge6" class="edge">
<title>Node1&#45;&gt;Node7</title>
<path fill="none" stroke="#63b8ff" d="M416.46,-219.51C425.64,-211.3 438.21,-198.29 444.5,-184 450.53,-170.3 452.15,-153.39 452.33,-140.46"/>
<polygon fill="#63b8ff" stroke="#63b8ff" points="455.83,-140.59 452.17,-130.65 448.83,-140.71 455.83,-140.59"/>
</g>
<!-- Node8 -->
<g id="node8" class="node">
<title>Node8</title>
<g id="a_node8"><a xlink:href="loadcore_8h.html" target="_top" xlink:title=" ">
<polygon fill="white" stroke="#666666" points="436,-184 375,-184 375,-165 436,-165 436,-184"/>
<text text-anchor="middle" x="405.5" y="-172" font-family="Helvetica,sans-Serif" font-size="10.00">loadcore.h</text>
</a>
</g>
</g>
<!-- Node1&#45;&gt;Node8 -->
<g id="edge8" class="edge">
<title>Node1&#45;&gt;Node8</title>
<path fill="none" stroke="#63b8ff" d="M405.5,-219.75C405.5,-213.27 405.5,-204.16 405.5,-195.9"/>
<polygon fill="#63b8ff" stroke="#63b8ff" points="409,-195.96 405.5,-185.96 402,-195.96 409,-195.96"/>
</g>
<!-- Node9 -->
<g id="node9" class="node">
<title>Node9</title>
<g id="a_node9"><a xlink:href="thbase_8h.html" target="_top" xlink:title=" ">
<polygon fill="white" stroke="#666666" points="546,-184 493,-184 493,-165 546,-165 546,-184"/>
<text text-anchor="middle" x="519.5" y="-172" font-family="Helvetica,sans-Serif" font-size="10.00">thbase.h</text>
</a>
</g>
</g>
<!-- Node1&#45;&gt;Node9 -->
<g id="edge11" class="edge">
<title>Node1&#45;&gt;Node9</title>
<path fill="none" stroke="#63b8ff" d="M424.84,-219.51C442.72,-211.2 469.54,-198.73 490.07,-189.18"/>
<polygon fill="#63b8ff" stroke="#63b8ff" points="491.48,-192.39 499.07,-185 488.53,-186.04 491.48,-192.39"/>
</g>
<!-- Node10 -->
<g id="node10" class="node">
<title>Node10</title>
<g id="a_node10"><a xlink:href="thevent_8h.html" target="_top" xlink:title=" ">
<polygon fill="white" stroke="#666666" points="202.5,-184 146.5,-184 146.5,-165 202.5,-165 202.5,-184"/>
<text text-anchor="middle" x="174.5" y="-172" font-family="Helvetica,sans-Serif" font-size="10.00">thevent.h</text>
</a>
</g>
</g>
<!-- Node1&#45;&gt;Node10 -->
<g id="edge14" class="edge">
<title>Node1&#45;&gt;Node10</title>
<path fill="none" stroke="#63b8ff" d="M366.48,-219.55C329.6,-211.1 272.42,-197.98 213.75,-184.52"/>
<polygon fill="#63b8ff" stroke="#63b8ff" points="214.79,-181.16 204.26,-182.34 213.22,-187.99 214.79,-181.16"/>
</g>
<!-- Node11 -->
<g id="node11" class="node">
<title>Node11</title>
<g id="a_node11"><a xlink:href="thsemap_8h.html" target="_top" xlink:title=" ">
<polygon fill="white" stroke="#666666" points="282.5,-184 220.5,-184 220.5,-165 282.5,-165 282.5,-184"/>
<text text-anchor="middle" x="251.5" y="-172" font-family="Helvetica,sans-Serif" font-size="10.00">thsemap.h</text>
</a>
</g>
</g>
<!-- Node1&#45;&gt;Node11 -->
<g id="edge17" class="edge">
<title>Node1&#45;&gt;Node11</title>
<path fill="none" stroke="#63b8ff" d="M379.38,-219.51C354.3,-210.88 316.19,-197.76 288.1,-188.1"/>
<polygon fill="#63b8ff" stroke="#63b8ff" points="289.52,-184.88 278.93,-184.94 287.24,-191.5 289.52,-184.88"/>
</g>
<!-- Node12 -->
<g id="node12" class="node">
<title>Node12</title>
<g id="a_node12"><a xlink:href="intrman_8h.html" target="_top" xlink:title=" ">
<polygon fill="white" stroke="#666666" points="356.5,-184 300.5,-184 300.5,-165 356.5,-165 356.5,-184"/>
<text text-anchor="middle" x="328.5" y="-172" font-family="Helvetica,sans-Serif" font-size="10.00">intrman.h</text>
</a>
</g>
</g>
<!-- Node1&#45;&gt;Node12 -->
<g id="edge20" class="edge">
<title>Node1&#45;&gt;Node12</title>
<path fill="none" stroke="#63b8ff" d="M392.44,-219.51C380.98,-211.62 364.07,-199.98 350.52,-190.65"/>
<polygon fill="#63b8ff" stroke="#63b8ff" points="352.84,-188 342.62,-185.22 348.87,-193.77 352.84,-188"/>
</g>
<!-- Node13 -->
<g id="node13" class="node">
<title>Node13</title>
<g id="a_node13"><a xlink:href="stdio_8h.html" target="_top" xlink:title=" ">
<polygon fill="white" stroke="#666666" points="688,-184 643,-184 643,-165 688,-165 688,-184"/>
<text text-anchor="middle" x="665.5" y="-172" font-family="Helvetica,sans-Serif" font-size="10.00">stdio.h</text>
</a>
</g>
</g>
<!-- Node1&#45;&gt;Node13 -->
<g id="edge23" class="edge">
<title>Node1&#45;&gt;Node13</title>
<path fill="none" stroke="#63b8ff" d="M457.58,-219.54C501.69,-211.69 566.84,-199.49 631.7,-184.53"/>
<polygon fill="#63b8ff" stroke="#63b8ff" points="632.11,-188.03 641.05,-182.35 630.52,-181.21 632.11,-188.03"/>
</g>
<!-- Node15 -->
<g id="node15" class="node">
<title>Node15</title>
<g id="a_node15"><a xlink:href="sysclib_8h.html" target="_top" xlink:title=" ">
<polygon fill="white" stroke="#666666" points="760.5,-184 706.5,-184 706.5,-165 760.5,-165 760.5,-184"/>
<text text-anchor="middle" x="733.5" y="-172" font-family="Helvetica,sans-Serif" font-size="10.00">sysclib.h</text>
</a>
</g>
</g>
<!-- Node1&#45;&gt;Node15 -->
<g id="edge26" class="edge">
<title>Node1&#45;&gt;Node15</title>
<path fill="none" stroke="#63b8ff" d="M465.3,-220.82C522.01,-213.22 609.82,-200.61 694.87,-184.38"/>
<polygon fill="#63b8ff" stroke="#63b8ff" points="695.39,-187.85 704.55,-182.51 694.06,-180.97 695.39,-187.85"/>
</g>
<!-- Node18 -->
<g id="node18" class="node">
<title>Node18</title>
<g id="a_node18"><a xlink:href="devfs_8h.html" target="_top" xlink:title=" ">
<polygon fill="white" stroke="#666666" points="128.5,-184 80.5,-184 80.5,-165 128.5,-165 128.5,-184"/>
<text text-anchor="middle" x="104.5" y="-172" font-family="Helvetica,sans-Serif" font-size="10.00">devfs.h</text>
</a>
</g>
</g>
<!-- Node1&#45;&gt;Node18 -->
<g id="edge33" class="edge">
<title>Node1&#45;&gt;Node18</title>
<path fill="none" stroke="#63b8ff" d="M345.61,-220.09C293.67,-212.45 216.24,-200.23 140.16,-184.41"/>
<polygon fill="#63b8ff" stroke="#63b8ff" points="140.94,-181 130.43,-182.36 139.5,-187.85 140.94,-181"/>
</g>
<!-- Node19 -->
<g id="node19" class="node">
<title>Node19</title>
<g id="a_node19"><a xlink:href="sysmem_8h.html" target="_top" xlink:title=" ">
<polygon fill="white" stroke="#666666" points="625,-184 564,-184 564,-165 625,-165 625,-184"/>
<text text-anchor="middle" x="594.5" y="-172" font-family="Helvetica,sans-Serif" font-size="10.00">sysmem.h</text>
</a>
</g>
</g>
<!-- Node1&#45;&gt;Node19 -->
<g id="edge36" class="edge">
<title>Node1&#45;&gt;Node19</title>
<path fill="none" stroke="#63b8ff" d="M437.56,-219.51C469.3,-210.61 518.05,-196.94 552.79,-187.2"/>
<polygon fill="#63b8ff" stroke="#63b8ff" points="553.4,-190.66 562.08,-184.59 551.51,-183.92 553.4,-190.66"/>
</g>
<!-- Node20 -->
<g id="node20" class="node">
<title>Node20</title>
<g id="a_node20"><a xlink:href="ioman_x_8h.html" target="_top" xlink:title=" ">
<polygon fill="white" stroke="#666666" points="836,-184 779,-184 779,-165 836,-165 836,-184"/>
<text text-anchor="middle" x="807.5" y="-172" font-family="Helvetica,sans-Serif" font-size="10.00">iomanX.h</text>
</a>
</g>
</g>
<!-- Node1&#45;&gt;Node20 -->
<g id="edge40" class="edge">
<title>Node1&#45;&gt;Node20</title>
<path fill="none" stroke="#63b8ff" d="M465.35,-223.01C535.36,-216.17 654.98,-203.24 767.32,-184.21"/>
<polygon fill="#63b8ff" stroke="#63b8ff" points="767.76,-187.69 777.02,-182.55 766.57,-180.79 767.76,-187.69"/>
</g>
<!-- Node4 -->
<g id="node4" class="node">
<title>Node4</title>
<g id="a_node4"><a xlink:href="iop_2kernel_2include_2types_8h_source.html" target="_top" xlink:title=" ">
<polygon fill="white" stroke="#666666" points="475,-74 428,-74 428,-55 475,-55 475,-74"/>
<text text-anchor="middle" x="451.5" y="-62" font-family="Helvetica,sans-Serif" font-size="10.00">types.h</text>
</a>
</g>
</g>
<!-- Node3&#45;&gt;Node4 -->
<g id="edge3" class="edge">
<title>Node3&#45;&gt;Node4</title>
<path fill="none" stroke="#63b8ff" d="M43.33,-113.05C48.3,-111.94 53.56,-110.84 58.5,-110 189.71,-87.57 347.57,-73.59 416.47,-68.13"/>
<polygon fill="#63b8ff" stroke="#63b8ff" points="416.69,-71.62 426.38,-67.35 416.14,-64.64 416.69,-71.62"/>
</g>
<!-- Node5 -->
<g id="node5" class="node">
<title>Node5</title>
<g id="a_node5"><a xlink:title=" ">
<polygon fill="#e0e0e0" stroke="#999999" points="477,-19 426,-19 426,0 477,0 477,-19"/>
<text text-anchor="middle" x="451.5" y="-7" font-family="Helvetica,sans-Serif" font-size="10.00">stddef.h</text>
</a>
</g>
</g>
<!-- Node4&#45;&gt;Node5 -->
<g id="edge4" class="edge">
<title>Node4&#45;&gt;Node5</title>
<path fill="none" stroke="#63b8ff" d="M451.5,-54.75C451.5,-48.27 451.5,-39.16 451.5,-30.9"/>
<polygon fill="#63b8ff" stroke="#63b8ff" points="455,-30.96 451.5,-20.96 448,-30.96 455,-30.96"/>
</g>
<!-- Node6 -->
<g id="node6" class="node">
<title>Node6</title>
<g id="a_node6"><a xlink:href="tamtypes_8h.html" target="_top" xlink:title=" ">
<polygon fill="white" stroke="#666666" points="602.5,-19 538.5,-19 538.5,0 602.5,0 602.5,-19"/>
<text text-anchor="middle" x="570.5" y="-7" font-family="Helvetica,sans-Serif" font-size="10.00">tamtypes.h</text>
</a>
</g>
</g>
<!-- Node4&#45;&gt;Node6 -->
<g id="edge5" class="edge">
<title>Node4&#45;&gt;Node6</title>
<path fill="none" stroke="#63b8ff" d="M471.69,-54.51C490.52,-46.12 518.87,-33.5 540.37,-23.92"/>
<polygon fill="#63b8ff" stroke="#63b8ff" points="541.52,-27.24 549.23,-19.97 538.67,-20.85 541.52,-27.24"/>
</g>
<!-- Node7&#45;&gt;Node4 -->
<g id="edge7" class="edge">
<title>Node7&#45;&gt;Node4</title>
<path fill="none" stroke="#63b8ff" d="M451.5,-109.75C451.5,-103.27 451.5,-94.16 451.5,-85.9"/>
<polygon fill="#63b8ff" stroke="#63b8ff" points="455,-85.96 451.5,-75.96 448,-85.96 455,-85.96"/>
</g>
<!-- Node8&#45;&gt;Node4 -->
<g id="edge9" class="edge">
<title>Node8&#45;&gt;Node4</title>
<path fill="none" stroke="#63b8ff" d="M407.62,-164.65C410.75,-152.16 417.17,-128.81 425.5,-110 429.44,-101.11 434.71,-91.76 439.48,-83.93"/>
<polygon fill="#63b8ff" stroke="#63b8ff" points="442.32,-85.99 444.7,-75.67 436.4,-82.26 442.32,-85.99"/>
</g>
<!-- Node8&#45;&gt;Node7 -->
<g id="edge10" class="edge">
<title>Node8&#45;&gt;Node7</title>
<path fill="none" stroke="#63b8ff" d="M413.1,-164.75C419.38,-157.5 428.51,-146.98 436.3,-138.02"/>
<polygon fill="#63b8ff" stroke="#63b8ff" points="438.84,-140.43 442.75,-130.59 433.55,-135.84 438.84,-140.43"/>
</g>
<!-- Node9&#45;&gt;Node4 -->
<g id="edge12" class="edge">
<title>Node9&#45;&gt;Node4</title>
<path fill="none" stroke="#63b8ff" d="M513.94,-164.66C502.88,-147.1 477.93,-107.48 463.14,-83.98"/>
<polygon fill="#63b8ff" stroke="#63b8ff" points="466.24,-82.34 457.95,-75.74 460.31,-86.07 466.24,-82.34"/>
</g>
<!-- Node9&#45;&gt;Node7 -->
<g id="edge13" class="edge">
<title>Node9&#45;&gt;Node7</title>
<path fill="none" stroke="#63b8ff" d="M507.96,-164.51C498.04,-156.77 483.49,-145.43 471.64,-136.2"/>
<polygon fill="#63b8ff" stroke="#63b8ff" points="474.1,-133.68 464.06,-130.29 469.79,-139.2 474.1,-133.68"/>
</g>
<!-- Node10&#45;&gt;Node4 -->
<g id="edge15" class="edge">
<title>Node10&#45;&gt;Node4</title>
<path fill="none" stroke="#63b8ff" d="M197.29,-164.53C228.64,-152.2 286.82,-129.35 336.5,-110 363.93,-99.32 395.07,-87.27 418.02,-78.41"/>
<polygon fill="#63b8ff" stroke="#63b8ff" points="419.1,-81.75 427.17,-74.88 416.58,-75.22 419.1,-81.75"/>
</g>
<!-- Node10&#45;&gt;Node7 -->
<g id="edge16" class="edge">
<title>Node10&#45;&gt;Node7</title>
<path fill="none" stroke="#63b8ff" d="M202.75,-166.88C205.7,-166.23 208.66,-165.59 211.5,-165 287.71,-149.19 378.1,-133.16 423.09,-125.36"/>
<polygon fill="#63b8ff" stroke="#63b8ff" points="423.53,-128.84 432.79,-123.69 422.34,-121.94 423.53,-128.84"/>
</g>
<!-- Node11&#45;&gt;Node4 -->
<g id="edge18" class="edge">
<title>Node11&#45;&gt;Node4</title>
<path fill="none" stroke="#63b8ff" d="M267.87,-164.66C302.37,-146.03 382.83,-102.58 424.86,-79.89"/>
<polygon fill="#63b8ff" stroke="#63b8ff" points="426.44,-83.01 433.58,-75.18 423.11,-76.85 426.44,-83.01"/>
</g>
<!-- Node11&#45;&gt;Node7 -->
<g id="edge19" class="edge">
<title>Node11&#45;&gt;Node7</title>
<path fill="none" stroke="#63b8ff" d="M282.75,-165.22C321.21,-155.03 385.98,-137.86 423.09,-128.03"/>
<polygon fill="#63b8ff" stroke="#63b8ff" points="423.87,-131.44 432.64,-125.5 422.08,-124.68 423.87,-131.44"/>
</g>
<!-- Node12&#45;&gt;Node4 -->
<g id="edge21" class="edge">
<title>Node12&#45;&gt;Node4</title>
<path fill="none" stroke="#63b8ff" d="M338.57,-164.66C359.2,-146.55 406.56,-104.96 432.92,-81.81"/>
<polygon fill="#63b8ff" stroke="#63b8ff" points="434.95,-84.69 440.16,-75.46 430.33,-79.43 434.95,-84.69"/>
</g>
<!-- Node12&#45;&gt;Node7 -->
<g id="edge22" class="edge">
<title>Node12&#45;&gt;Node7</title>
<path fill="none" stroke="#63b8ff" d="M349.37,-164.51C369.86,-155.68 401.26,-142.15 423.83,-132.42"/>
<polygon fill="#63b8ff" stroke="#63b8ff" points="424.93,-135.76 432.73,-128.59 422.16,-129.33 424.93,-135.76"/>
</g>
<!-- Node13&#45;&gt;Node7 -->
<g id="edge25" class="edge">
<title>Node13&#45;&gt;Node7</title>
<path fill="none" stroke="#63b8ff" d="M642.83,-167.2C640.03,-166.45 637.2,-165.7 634.5,-165 580.04,-150.91 516.12,-135.66 480.06,-127.17"/>
<polygon fill="#63b8ff" stroke="#63b8ff" points="480.96,-123.79 470.43,-124.91 479.36,-130.6 480.96,-123.79"/>
</g>
<!-- Node14 -->
<g id="node14" class="node">
<title>Node14</title>
<g id="a_node14"><a xlink:title=" ">
<polygon fill="#e0e0e0" stroke="#999999" points="620,-129 569,-129 569,-110 620,-110 620,-129"/>
<text text-anchor="middle" x="594.5" y="-117" font-family="Helvetica,sans-Serif" font-size="10.00">stdarg.h</text>
</a>
</g>
</g>
<!-- Node13&#45;&gt;Node14 -->
<g id="edge24" class="edge">
<title>Node13&#45;&gt;Node14</title>
<path fill="none" stroke="#63b8ff" d="M653.46,-164.51C643.09,-156.77 627.9,-145.43 615.53,-136.2"/>
<polygon fill="#63b8ff" stroke="#63b8ff" points="617.69,-133.44 607.58,-130.26 613.5,-139.05 617.69,-133.44"/>
</g>
<!-- Node15&#45;&gt;Node4 -->
<g id="edge27" class="edge">
<title>Node15&#45;&gt;Node4</title>
<path fill="none" stroke="#63b8ff" d="M730.8,-164.9C725.94,-150.96 714.35,-123.6 694.5,-110 661.23,-87.21 545.72,-73.89 486.74,-68.42"/>
<polygon fill="#63b8ff" stroke="#63b8ff" points="487.19,-64.95 476.91,-67.54 486.56,-71.92 487.19,-64.95"/>
</g>
<!-- Node15&#45;&gt;Node7 -->
<g id="edge28" class="edge">
<title>Node15&#45;&gt;Node7</title>
<path fill="none" stroke="#63b8ff" d="M706.02,-166.85C703.15,-166.21 700.27,-165.58 697.5,-165 619.1,-148.67 525.92,-132.76 480,-125.15"/>
<polygon fill="#63b8ff" stroke="#63b8ff" points="480.79,-121.73 470.35,-123.56 479.65,-128.64 480.79,-121.73"/>
</g>
<!-- Node15&#45;&gt;Node14 -->
<g id="edge29" class="edge">
<title>Node15&#45;&gt;Node14</title>
<path fill="none" stroke="#63b8ff" d="M709.92,-164.51C687.52,-155.97 653.6,-143.03 628.32,-133.4"/>
<polygon fill="#63b8ff" stroke="#63b8ff" points="629.74,-130.19 619.15,-129.9 627.24,-136.73 629.74,-130.19"/>
</g>
<!-- Node16 -->
<g id="node16" class="node">
<title>Node16</title>
<g id="a_node16"><a xlink:href="setjmp_8h.html" target="_top" xlink:title=" ">
<polygon fill="white" stroke="#666666" points="639,-74 586,-74 586,-55 639,-55 639,-74"/>
<text text-anchor="middle" x="612.5" y="-62" font-family="Helvetica,sans-Serif" font-size="10.00">setjmp.h</text>
</a>
</g>
</g>
<!-- Node15&#45;&gt;Node16 -->
<g id="edge30" class="edge">
<title>Node15&#45;&gt;Node16</title>
<path fill="none" stroke="#63b8ff" d="M735.33,-164.68C737.56,-151.39 739.66,-126.07 727.5,-110 709.27,-85.91 676.19,-74.86 650.18,-69.79"/>
<polygon fill="#63b8ff" stroke="#63b8ff" points="651.1,-66.4 640.65,-68.16 649.92,-73.3 651.1,-66.4"/>
</g>
<!-- Node17 -->
<g id="node17" class="node">
<title>Node17</title>
<g id="a_node17"><a xlink:href="ctype_8h.html" target="_top" xlink:title=" ">
<polygon fill="white" stroke="#666666" points="685,-129 638,-129 638,-110 685,-110 685,-129"/>
<text text-anchor="middle" x="661.5" y="-117" font-family="Helvetica,sans-Serif" font-size="10.00">ctype.h</text>
</a>
</g>
</g>
<!-- Node15&#45;&gt;Node17 -->
<g id="edge32" class="edge">
<title>Node15&#45;&gt;Node17</title>
<path fill="none" stroke="#63b8ff" d="M721.29,-164.51C710.67,-156.7 695.06,-145.21 682.46,-135.93"/>
<polygon fill="#63b8ff" stroke="#63b8ff" points="684.88,-133.36 674.75,-130.26 680.73,-139 684.88,-133.36"/>
</g>
<!-- Node16&#45;&gt;Node6 -->
<g id="edge31" class="edge">
<title>Node16&#45;&gt;Node6</title>
<path fill="none" stroke="#63b8ff" d="M605.56,-54.75C599.88,-47.58 591.66,-37.2 584.61,-28.3"/>
<polygon fill="#63b8ff" stroke="#63b8ff" points="587.48,-26.29 578.53,-20.63 581.99,-30.64 587.48,-26.29"/>
</g>
<!-- Node18&#45;&gt;Node2 -->
<g id="edge34" class="edge">
<title>Node18&#45;&gt;Node2</title>
<path fill="none" stroke="#63b8ff" d="M102.35,-164.75C100.74,-158.19 98.48,-148.95 96.43,-140.6"/>
<polygon fill="#63b8ff" stroke="#63b8ff" points="99.84,-139.79 94.05,-130.91 93.04,-141.46 99.84,-139.79"/>
</g>
<!-- Node18&#45;&gt;Node7 -->
<g id="edge35" class="edge">
<title>Node18&#45;&gt;Node7</title>
<path fill="none" stroke="#63b8ff" d="M128.94,-166.88C131.81,-166.2 134.71,-165.55 137.5,-165 241.67,-144.27 367.15,-129.51 422.67,-123.5"/>
<polygon fill="#63b8ff" stroke="#63b8ff" points="422.95,-126.99 432.52,-122.45 422.2,-120.03 422.95,-126.99"/>
</g>
<!-- Node19&#45;&gt;Node4 -->
<g id="edge37" class="edge">
<title>Node19&#45;&gt;Node4</title>
<path fill="none" stroke="#63b8ff" d="M582.8,-164.66C558.6,-146.39 502.79,-104.23 472.3,-81.21"/>
<polygon fill="#63b8ff" stroke="#63b8ff" points="474.66,-78.61 464.57,-75.37 470.44,-84.19 474.66,-78.61"/>
</g>
<!-- Node19&#45;&gt;Node7 -->
<g id="edge38" class="edge">
<title>Node19&#45;&gt;Node7</title>
<path fill="none" stroke="#63b8ff" d="M570.24,-164.51C545,-155.15 505.55,-140.53 479.12,-130.74"/>
<polygon fill="#63b8ff" stroke="#63b8ff" points="480.69,-127.59 470.1,-127.39 478.26,-134.15 480.69,-127.59"/>
</g>
<!-- Node19&#45;&gt;Node14 -->
<g id="edge39" class="edge">
<title>Node19&#45;&gt;Node14</title>
<path fill="none" stroke="#63b8ff" d="M594.5,-164.75C594.5,-158.27 594.5,-149.16 594.5,-140.9"/>
<polygon fill="#63b8ff" stroke="#63b8ff" points="598,-140.96 594.5,-130.96 591,-140.96 598,-140.96"/>
</g>
<!-- Node20&#45;&gt;Node4 -->
<g id="edge41" class="edge">
<title>Node20&#45;&gt;Node4</title>
<path fill="none" stroke="#63b8ff" d="M798.37,-164.89C783,-150.92 750.4,-123.53 717.5,-110 639.16,-77.79 538.7,-68.88 486.51,-66.43"/>
<polygon fill="#63b8ff" stroke="#63b8ff" points="486.88,-62.94 476.74,-66.02 486.59,-69.93 486.88,-62.94"/>
</g>
<!-- Node20&#45;&gt;Node14 -->
<g id="edge42" class="edge">
<title>Node20&#45;&gt;Node14</title>
<path fill="none" stroke="#63b8ff" d="M778.77,-166.35C740.68,-156.87 673.4,-140.13 631.53,-129.71"/>
<polygon fill="#63b8ff" stroke="#63b8ff" points="632.46,-126.34 621.91,-127.32 630.77,-133.13 632.46,-126.34"/>
</g>
<!-- Node21 -->
<g id="node21" class="node">
<title>Node21</title>
<g id="a_node21"><a xlink:href="io__common_8h.html" target="_top" xlink:title=" ">
<polygon fill="white" stroke="#666666" points="891.5,-129 817.5,-129 817.5,-110 891.5,-110 891.5,-129"/>
<text text-anchor="middle" x="854.5" y="-117" font-family="Helvetica,sans-Serif" font-size="10.00">io_common.h</text>
</a>
</g>
</g>
<!-- Node20&#45;&gt;Node21 -->
<g id="edge43" class="edge">
<title>Node20&#45;&gt;Node21</title>
<path fill="none" stroke="#63b8ff" d="M815.26,-164.75C821.69,-157.5 831.01,-146.98 838.96,-138.02"/>
<polygon fill="#63b8ff" stroke="#63b8ff" points="841.55,-140.38 845.57,-130.57 836.31,-135.73 841.55,-140.38"/>
</g>
<!-- Node24 -->
<g id="node24" class="node">
<title>Node24</title>
<g id="a_node24"><a xlink:href="iox__stat_8h.html" target="_top" xlink:title=" ">
<polygon fill="white" stroke="#666666" points="967.5,-129 909.5,-129 909.5,-110 967.5,-110 967.5,-129"/>
<text text-anchor="middle" x="938.5" y="-117" font-family="Helvetica,sans-Serif" font-size="10.00">iox_stat.h</text>
</a>
</g>
</g>
<!-- Node20&#45;&gt;Node24 -->
<g id="edge46" class="edge">
<title>Node20&#45;&gt;Node24</title>
<path fill="none" stroke="#63b8ff" d="M829.72,-164.51C850.64,-156.04 882.23,-143.27 905.98,-133.66"/>
<polygon fill="#63b8ff" stroke="#63b8ff" points="907.25,-136.92 915.2,-129.93 904.62,-130.43 907.25,-136.92"/>
</g>
<!-- Node22 -->
<g id="node22" class="node">
<title>Node22</title>
<g id="a_node22"><a xlink:href="fcntl_8h_source.html" target="_top" xlink:title=" ">
<polygon fill="white" stroke="#666666" points="802,-74 741,-74 741,-55 802,-55 802,-74"/>
<text text-anchor="middle" x="771.5" y="-62" font-family="Helvetica,sans-Serif" font-size="10.00">sys/fcntl.h</text>
</a>
</g>
</g>
<!-- Node21&#45;&gt;Node22 -->
<g id="edge44" class="edge">
<title>Node21&#45;&gt;Node22</title>
<path fill="none" stroke="#63b8ff" d="M840.42,-109.51C827.94,-101.54 809.48,-89.75 794.81,-80.38"/>
<polygon fill="#63b8ff" stroke="#63b8ff" points="796.96,-77.6 786.65,-75.17 793.19,-83.5 796.96,-77.6"/>
</g>
<!-- Node23 -->
<g id="node23" class="node">
<title>Node23</title>
<g id="a_node23"><a xlink:href="unistd_8h_source.html" target="_top" xlink:title=" ">
<polygon fill="white" stroke="#666666" points="888.5,-74 820.5,-74 820.5,-55 888.5,-55 888.5,-74"/>
<text text-anchor="middle" x="854.5" y="-62" font-family="Helvetica,sans-Serif" font-size="10.00">sys/unistd.h</text>
</a>
</g>
</g>
<!-- Node21&#45;&gt;Node23 -->
<g id="edge45" class="edge">
<title>Node21&#45;&gt;Node23</title>
<path fill="none" stroke="#63b8ff" d="M854.5,-109.75C854.5,-103.27 854.5,-94.16 854.5,-85.9"/>
<polygon fill="#63b8ff" stroke="#63b8ff" points="858,-85.96 854.5,-75.96 851,-85.96 858,-85.96"/>
</g>
<!-- Node25 -->
<g id="node25" class="node">
<title>Node25</title>
<g id="a_node25"><a xlink:href="time_8h.html" target="_top" xlink:title=" ">
<polygon fill="white" stroke="#666666" points="969,-74 908,-74 908,-55 969,-55 969,-74"/>
<text text-anchor="middle" x="938.5" y="-62" font-family="Helvetica,sans-Serif" font-size="10.00">sys/time.h</text>
</a>
</g>
</g>
<!-- Node24&#45;&gt;Node25 -->
<g id="edge47" class="edge">
<title>Node24&#45;&gt;Node25</title>
<path fill="none" stroke="#63b8ff" d="M938.5,-109.75C938.5,-103.27 938.5,-94.16 938.5,-85.9"/>
<polygon fill="#63b8ff" stroke="#63b8ff" points="942,-85.96 938.5,-75.96 935,-85.96 942,-85.96"/>
</g>
</g>
</svg>
        <g id="navigator" transform="translate(0 0)" fill="#404254">
                <rect fill="#f2f5e9" fill-opacity="0.5" stroke="#606060" stroke-width=".5" x="0" y="0" width="60" height="60"/>
                <use id="zoomplus" xlink:href="#zoomPlus" x="17" y="9" onmousedown="handleZoom(evt,'in')"/>
                <use id="zoomminus" xlink:href="#zoomMin" x="42" y="9" onmousedown="handleZoom(evt,'out')"/>
                <use id="reset" xlink:href="#resetDef" x="30" y="36" onmousedown="handleReset()"/>
                <g id="arrowUp" xlink:href="#dirArrow" transform="translate(30 24)" onmousedown="handlePan(0,-1)">
                  <use xlink:href="#rim" fill="#404040">
                        <set attributeName="fill" to="#808080" begin="arrowUp.mouseover" end="arrowUp.mouseout"/>
                  </use>
                  <path fill="none" stroke="white" stroke-width="1.5" d="M0,-3.0v7 M-2.5,-0.5L0,-3.0L2.5,-0.5"/>
                </g>
                <g id="arrowRight" xlink:href="#dirArrow" transform="rotate(90) translate(36 -43)" onmousedown="handlePan(1,0)">
                  <use xlink:href="#rim" fill="#404040">
                        <set attributeName="fill" to="#808080" begin="arrowRight.mouseover" end="arrowRight.mouseout"/>
                  </use>
                  <path fill="none" stroke="white" stroke-width="1.5" d="M0,-3.0v7 M-2.5,-0.5L0,-3.0L2.5,-0.5"/>
                </g>
                <g id="arrowDown" xlink:href="#dirArrow" transform="rotate(180) translate(-30 -48)" onmousedown="handlePan(0,1)">
                  <use xlink:href="#rim" fill="#404040">
                        <set attributeName="fill" to="#808080" begin="arrowDown.mouseover" end="arrowDown.mouseout"/>
                  </use>
                  <path fill="none" stroke="white" stroke-width="1.5" d="M0,-3.0v7 M-2.5,-0.5L0,-3.0L2.5,-0.5"/>
                </g>
                <g id="arrowLeft" xlink:href="#dirArrow" transform="rotate(270) translate(-36 17)" onmousedown="handlePan(-1,0)">
                  <use xlink:href="#rim" fill="#404040">
                        <set attributeName="fill" to="#808080" begin="arrowLeft.mouseover" end="arrowLeft.mouseout"/>
                  </use>
                  <path fill="none" stroke="white" stroke-width="1.5" d="M0,-3.0v7 M-2.5,-0.5L0,-3.0L2.5,-0.5"/>
                </g>
        </g>
        <svg viewBox="0 0 15 15" width="100%" height="30px" preserveAspectRatio="xMaxYMin meet">
         <g id="arrow_out" transform="scale(0.3 0.3)">
          <a xlink:href="devfs_8c__incl_org.svg" target="_base">
           <rect id="button" ry="5" rx="5" y="6" x="6" height="38" width="38"
                fill="#f2f5e9" fill-opacity="0.5" stroke="#606060" stroke-width="1.0"/>
           <path id="arrow"
             d="M 11.500037,31.436501 C 11.940474,20.09759 22.043105,11.32322 32.158766,21.979434 L 37.068811,17.246167 C 37.068811,17.246167 37.088388,32 37.088388,32 L 22.160133,31.978069 C 22.160133,31.978069 26.997745,27.140456 26.997745,27.140456 C 18.528582,18.264221 13.291696,25.230495 11.500037,31.436501 z"
             style="fill:#404040;"/>
          </a>
         </g>
        </svg>
</svg>
