<?xml version="1.0" encoding="UTF-8" standalone="no"?>
<!DOCTYPE svg PUBLIC "-//W3C//DTD SVG 1.1//EN"
 "http://www.w3.org/Graphics/SVG/1.1/DTD/svg11.dtd">
<!-- Generated by graphviz version 7.0.5 (20221223.1930)
 -->
<!-- Title: iop/system/iopmgr/src/devices.c Pages: 1 -->
<svg width="563pt" height="313pt"
 viewBox="0.00 0.00 563.00 313.00" xmlns="http://www.w3.org/2000/svg" xmlns:xlink="http://www.w3.org/1999/xlink">
<g id="graph0" class="graph" transform="scale(1 1) rotate(0) translate(4 309)">
<title>iop/system/iopmgr/src/devices.c</title>
<!-- Node1 -->
<g id="node1" class="node">
<title>Node1</title>
<g id="a_node1"><a xlink:title=" ">
<polygon fill="#999999" stroke="#666666" points="217,-305 104,-305 104,-275 217,-275 217,-305"/>
<text text-anchor="start" x="112" y="-293" font-family="Helvetica,sans-Serif" font-size="10.00">iop/system/iopmgr/src</text>
<text text-anchor="middle" x="160.5" y="-282" font-family="Helvetica,sans-Serif" font-size="10.00">/devices.c</text>
</a>
</g>
</g>
<!-- Node2 -->
<g id="node2" class="node">
<title>Node2</title>
<g id="a_node2"><a xlink:href="defs_8h.html" target="_top" xlink:title=" ">
<polygon fill="white" stroke="#666666" points="43,-239 0,-239 0,-220 43,-220 43,-239"/>
<text text-anchor="middle" x="21.5" y="-227" font-family="Helvetica,sans-Serif" font-size="10.00">defs.h</text>
</a>
</g>
</g>
<!-- Node1&#45;&gt;Node2 -->
<g id="edge1" class="edge">
<title>Node1&#45;&gt;Node2</title>
<path fill="none" stroke="#63b8ff" d="M126.14,-274.54C103.72,-265.1 74.68,-252.88 52.88,-243.71"/>
<polygon fill="#63b8ff" stroke="#63b8ff" points="54.49,-240.59 43.91,-239.93 51.77,-247.04 54.49,-240.59"/>
</g>
<!-- Node6 -->
<g id="node6" class="node">
<title>Node6</title>
<g id="a_node6"><a xlink:href="stdio_8h.html" target="_top" xlink:title=" ">
<polygon fill="white" stroke="#666666" points="183,-184 138,-184 138,-165 183,-165 183,-184"/>
<text text-anchor="middle" x="160.5" y="-172" font-family="Helvetica,sans-Serif" font-size="10.00">stdio.h</text>
</a>
</g>
</g>
<!-- Node1&#45;&gt;Node6 -->
<g id="edge5" class="edge">
<title>Node1&#45;&gt;Node6</title>
<path fill="none" stroke="#63b8ff" d="M160.5,-274.63C160.5,-254.59 160.5,-218.17 160.5,-195.49"/>
<polygon fill="#63b8ff" stroke="#63b8ff" points="164,-195.74 160.5,-185.74 157,-195.74 164,-195.74"/>
</g>
<!-- Node9 -->
<g id="node9" class="node">
<title>Node9</title>
<g id="a_node9"><a xlink:href="sysclib_8h.html" target="_top" xlink:title=" ">
<polygon fill="white" stroke="#666666" points="119.5,-184 65.5,-184 65.5,-165 119.5,-165 119.5,-184"/>
<text text-anchor="middle" x="92.5" y="-172" font-family="Helvetica,sans-Serif" font-size="10.00">sysclib.h</text>
</a>
</g>
</g>
<!-- Node1&#45;&gt;Node9 -->
<g id="edge9" class="edge">
<title>Node1&#45;&gt;Node9</title>
<path fill="none" stroke="#63b8ff" d="M151.89,-274.63C139.6,-254.12 117.04,-216.47 103.54,-193.93"/>
<polygon fill="#63b8ff" stroke="#63b8ff" points="106.65,-192.31 98.51,-185.53 100.64,-195.9 106.65,-192.31"/>
</g>
<!-- Node12 -->
<g id="node12" class="node">
<title>Node12</title>
<g id="a_node12"><a xlink:href="ioman_x_8h.html" target="_top" xlink:title=" ">
<polygon fill="white" stroke="#666666" points="258,-184 201,-184 201,-165 258,-165 258,-184"/>
<text text-anchor="middle" x="229.5" y="-172" font-family="Helvetica,sans-Serif" font-size="10.00">iomanX.h</text>
</a>
</g>
</g>
<!-- Node1&#45;&gt;Node12 -->
<g id="edge16" class="edge">
<title>Node1&#45;&gt;Node12</title>
<path fill="none" stroke="#63b8ff" d="M169.24,-274.63C181.7,-254.12 204.59,-216.47 218.29,-193.93"/>
<polygon fill="#63b8ff" stroke="#63b8ff" points="221.2,-195.89 223.41,-185.52 215.22,-192.25 221.2,-195.89"/>
</g>
<!-- Node18 -->
<g id="node18" class="node">
<title>Node18</title>
<g id="a_node18"><a xlink:href="iopmgr_8h.html" target="_top" xlink:title=" ">
<polygon fill="white" stroke="#666666" points="405,-239 352,-239 352,-220 405,-220 405,-239"/>
<text text-anchor="middle" x="378.5" y="-227" font-family="Helvetica,sans-Serif" font-size="10.00">iopmgr.h</text>
</a>
</g>
</g>
<!-- Node1&#45;&gt;Node18 -->
<g id="edge24" class="edge">
<title>Node1&#45;&gt;Node18</title>
<path fill="none" stroke="#63b8ff" d="M214.39,-274.54C253.75,-263.98 306.13,-249.92 341.02,-240.56"/>
<polygon fill="#63b8ff" stroke="#63b8ff" points="341.48,-244.06 350.23,-238.09 339.66,-237.3 341.48,-244.06"/>
</g>
<!-- Node3 -->
<g id="node3" class="node">
<title>Node3</title>
<g id="a_node3"><a xlink:href="iop_2kernel_2include_2types_8h_source.html" target="_top" xlink:title=" ">
<polygon fill="white" stroke="#666666" points="318,-74 271,-74 271,-55 318,-55 318,-74"/>
<text text-anchor="middle" x="294.5" y="-62" font-family="Helvetica,sans-Serif" font-size="10.00">types.h</text>
</a>
</g>
</g>
<!-- Node2&#45;&gt;Node3 -->
<g id="edge2" class="edge">
<title>Node2&#45;&gt;Node3</title>
<path fill="none" stroke="#63b8ff" d="M17.78,-219.75C9.26,-198.16 -8.93,-141.78 18.5,-110 52.36,-70.78 192.27,-83.42 259.84,-73.99"/>
<polygon fill="#63b8ff" stroke="#63b8ff" points="260.05,-77.5 269.31,-72.37 258.87,-70.6 260.05,-77.5"/>
</g>
<!-- Node4 -->
<g id="node4" class="node">
<title>Node4</title>
<g id="a_node4"><a xlink:title=" ">
<polygon fill="#e0e0e0" stroke="#999999" points="320,-19 269,-19 269,0 320,0 320,-19"/>
<text text-anchor="middle" x="294.5" y="-7" font-family="Helvetica,sans-Serif" font-size="10.00">stddef.h</text>
</a>
</g>
</g>
<!-- Node3&#45;&gt;Node4 -->
<g id="edge3" class="edge">
<title>Node3&#45;&gt;Node4</title>
<path fill="none" stroke="#63b8ff" d="M294.5,-54.75C294.5,-48.27 294.5,-39.16 294.5,-30.9"/>
<polygon fill="#63b8ff" stroke="#63b8ff" points="298,-30.96 294.5,-20.96 291,-30.96 298,-30.96"/>
</g>
<!-- Node5 -->
<g id="node5" class="node">
<title>Node5</title>
<g id="a_node5"><a xlink:href="tamtypes_8h.html" target="_top" xlink:title=" ">
<polygon fill="white" stroke="#666666" points="215.5,-19 151.5,-19 151.5,0 215.5,0 215.5,-19"/>
<text text-anchor="middle" x="183.5" y="-7" font-family="Helvetica,sans-Serif" font-size="10.00">tamtypes.h</text>
</a>
</g>
</g>
<!-- Node3&#45;&gt;Node5 -->
<g id="edge4" class="edge">
<title>Node3&#45;&gt;Node5</title>
<path fill="none" stroke="#63b8ff" d="M275.67,-54.51C258.34,-46.24 232.39,-33.84 212.43,-24.31"/>
<polygon fill="#63b8ff" stroke="#63b8ff" points="213.95,-21.16 203.42,-20.01 210.93,-27.48 213.95,-21.16"/>
</g>
<!-- Node7 -->
<g id="node7" class="node">
<title>Node7</title>
<g id="a_node7"><a xlink:title=" ">
<polygon fill="#e0e0e0" stroke="#999999" points="183,-129 132,-129 132,-110 183,-110 183,-129"/>
<text text-anchor="middle" x="157.5" y="-117" font-family="Helvetica,sans-Serif" font-size="10.00">stdarg.h</text>
</a>
</g>
</g>
<!-- Node6&#45;&gt;Node7 -->
<g id="edge6" class="edge">
<title>Node6&#45;&gt;Node7</title>
<path fill="none" stroke="#63b8ff" d="M160,-164.75C159.64,-158.27 159.12,-149.16 158.65,-140.9"/>
<polygon fill="#63b8ff" stroke="#63b8ff" points="162.15,-140.74 158.09,-130.95 155.16,-141.13 162.15,-140.74"/>
</g>
<!-- Node8 -->
<g id="node8" class="node">
<title>Node8</title>
<g id="a_node8"><a xlink:href="irx_8h.html" target="_top" xlink:title=" ">
<polygon fill="white" stroke="#666666" points="387.5,-129 353.5,-129 353.5,-110 387.5,-110 387.5,-129"/>
<text text-anchor="middle" x="370.5" y="-117" font-family="Helvetica,sans-Serif" font-size="10.00">irx.h</text>
</a>
</g>
</g>
<!-- Node6&#45;&gt;Node8 -->
<g id="edge7" class="edge">
<title>Node6&#45;&gt;Node8</title>
<path fill="none" stroke="#63b8ff" d="M183.21,-167.42C186.33,-166.6 189.49,-165.77 192.5,-165 245.29,-151.39 307.06,-136.09 342.2,-127.44"/>
<polygon fill="#63b8ff" stroke="#63b8ff" points="342.7,-130.92 351.58,-125.13 341.03,-124.12 342.7,-130.92"/>
</g>
<!-- Node8&#45;&gt;Node3 -->
<g id="edge8" class="edge">
<title>Node8&#45;&gt;Node3</title>
<path fill="none" stroke="#63b8ff" d="M357.61,-109.51C346.4,-101.7 329.93,-90.21 316.62,-80.93"/>
<polygon fill="#63b8ff" stroke="#63b8ff" points="318.65,-78.07 308.44,-75.22 314.64,-83.81 318.65,-78.07"/>
</g>
<!-- Node9&#45;&gt;Node3 -->
<g id="edge10" class="edge">
<title>Node9&#45;&gt;Node3</title>
<path fill="none" stroke="#63b8ff" d="M94.18,-164.65C97.27,-150.84 105.21,-124.29 122.5,-110 169.32,-71.31 197.18,-88.12 259.56,-74.52"/>
<polygon fill="#63b8ff" stroke="#63b8ff" points="260.36,-77.92 269.27,-72.19 258.73,-71.12 260.36,-77.92"/>
</g>
<!-- Node9&#45;&gt;Node7 -->
<g id="edge12" class="edge">
<title>Node9&#45;&gt;Node7</title>
<path fill="none" stroke="#63b8ff" d="M103.53,-164.51C112.92,-156.85 126.65,-145.66 137.91,-136.47"/>
<polygon fill="#63b8ff" stroke="#63b8ff" points="139.93,-139.35 145.46,-130.31 135.5,-133.92 139.93,-139.35"/>
</g>
<!-- Node9&#45;&gt;Node8 -->
<g id="edge11" class="edge">
<title>Node9&#45;&gt;Node8</title>
<path fill="none" stroke="#63b8ff" d="M119.99,-166.86C122.86,-166.21 125.73,-165.58 128.5,-165 205.28,-148.89 296.45,-132.99 341.84,-125.29"/>
<polygon fill="#63b8ff" stroke="#63b8ff" points="342.36,-128.75 351.64,-123.64 341.19,-121.85 342.36,-128.75"/>
</g>
<!-- Node10 -->
<g id="node10" class="node">
<title>Node10</title>
<g id="a_node10"><a xlink:href="setjmp_8h.html" target="_top" xlink:title=" ">
<polygon fill="white" stroke="#666666" points="85,-74 32,-74 32,-55 85,-55 85,-74"/>
<text text-anchor="middle" x="58.5" y="-62" font-family="Helvetica,sans-Serif" font-size="10.00">setjmp.h</text>
</a>
</g>
</g>
<!-- Node9&#45;&gt;Node10 -->
<g id="edge13" class="edge">
<title>Node9&#45;&gt;Node10</title>
<path fill="none" stroke="#63b8ff" d="M65.21,-164.88C48.5,-158.03 28.46,-146.62 18.5,-129 9.15,-112.47 23.41,-94.18 37.43,-81.49"/>
<polygon fill="#63b8ff" stroke="#63b8ff" points="39.34,-84.46 44.76,-75.35 34.84,-79.09 39.34,-84.46"/>
</g>
<!-- Node11 -->
<g id="node11" class="node">
<title>Node11</title>
<g id="a_node11"><a xlink:href="ctype_8h.html" target="_top" xlink:title=" ">
<polygon fill="white" stroke="#666666" points="75,-129 28,-129 28,-110 75,-110 75,-129"/>
<text text-anchor="middle" x="51.5" y="-117" font-family="Helvetica,sans-Serif" font-size="10.00">ctype.h</text>
</a>
</g>
</g>
<!-- Node9&#45;&gt;Node11 -->
<g id="edge15" class="edge">
<title>Node9&#45;&gt;Node11</title>
<path fill="none" stroke="#63b8ff" d="M85.73,-164.75C80.18,-157.58 72.16,-147.2 65.27,-138.3"/>
<polygon fill="#63b8ff" stroke="#63b8ff" points="68.23,-136.41 59.34,-130.64 62.69,-140.69 68.23,-136.41"/>
</g>
<!-- Node10&#45;&gt;Node5 -->
<g id="edge14" class="edge">
<title>Node10&#45;&gt;Node5</title>
<path fill="none" stroke="#63b8ff" d="M79.7,-54.51C99.58,-46.08 129.53,-33.38 152.16,-23.79"/>
<polygon fill="#63b8ff" stroke="#63b8ff" points="153.37,-27.07 161.22,-19.95 150.64,-20.63 153.37,-27.07"/>
</g>
<!-- Node12&#45;&gt;Node3 -->
<g id="edge17" class="edge">
<title>Node12&#45;&gt;Node3</title>
<path fill="none" stroke="#63b8ff" d="M238.84,-164.67C247.43,-156.17 260.07,-142.63 268.5,-129 277.05,-115.18 283.87,-98.06 288.38,-85.08"/>
<polygon fill="#63b8ff" stroke="#63b8ff" points="291.7,-86.18 291.5,-75.58 285.05,-83.99 291.7,-86.18"/>
</g>
<!-- Node12&#45;&gt;Node7 -->
<g id="edge18" class="edge">
<title>Node12&#45;&gt;Node7</title>
<path fill="none" stroke="#63b8ff" d="M217.29,-164.51C206.67,-156.7 191.06,-145.21 178.46,-135.93"/>
<polygon fill="#63b8ff" stroke="#63b8ff" points="180.88,-133.36 170.75,-130.26 176.73,-139 180.88,-133.36"/>
</g>
<!-- Node13 -->
<g id="node13" class="node">
<title>Node13</title>
<g id="a_node13"><a xlink:href="io__common_8h.html" target="_top" xlink:title=" ">
<polygon fill="white" stroke="#666666" points="520.5,-129 446.5,-129 446.5,-110 520.5,-110 520.5,-129"/>
<text text-anchor="middle" x="483.5" y="-117" font-family="Helvetica,sans-Serif" font-size="10.00">io_common.h</text>
</a>
</g>
</g>
<!-- Node12&#45;&gt;Node13 -->
<g id="edge19" class="edge">
<title>Node12&#45;&gt;Node13</title>
<path fill="none" stroke="#63b8ff" d="M258.12,-167.04C261.29,-166.35 264.46,-165.65 267.5,-165 325.06,-152.63 391.4,-139.07 435.2,-130.21"/>
<polygon fill="#63b8ff" stroke="#63b8ff" points="435.79,-133.66 444.9,-128.25 434.41,-126.8 435.79,-133.66"/>
</g>
<!-- Node16 -->
<g id="node16" class="node">
<title>Node16</title>
<g id="a_node16"><a xlink:href="iox__stat_8h.html" target="_top" xlink:title=" ">
<polygon fill="white" stroke="#666666" points="259.5,-129 201.5,-129 201.5,-110 259.5,-110 259.5,-129"/>
<text text-anchor="middle" x="230.5" y="-117" font-family="Helvetica,sans-Serif" font-size="10.00">iox_stat.h</text>
</a>
</g>
</g>
<!-- Node12&#45;&gt;Node16 -->
<g id="edge22" class="edge">
<title>Node12&#45;&gt;Node16</title>
<path fill="none" stroke="#63b8ff" d="M229.67,-164.75C229.79,-158.27 229.96,-149.16 230.12,-140.9"/>
<polygon fill="#63b8ff" stroke="#63b8ff" points="233.61,-141.02 230.3,-130.96 226.61,-140.89 233.61,-141.02"/>
</g>
<!-- Node14 -->
<g id="node14" class="node">
<title>Node14</title>
<g id="a_node14"><a xlink:href="fcntl_8h_source.html" target="_top" xlink:title=" ">
<polygon fill="white" stroke="#666666" points="555,-74 494,-74 494,-55 555,-55 555,-74"/>
<text text-anchor="middle" x="524.5" y="-62" font-family="Helvetica,sans-Serif" font-size="10.00">sys/fcntl.h</text>
</a>
</g>
</g>
<!-- Node13&#45;&gt;Node14 -->
<g id="edge20" class="edge">
<title>Node13&#45;&gt;Node14</title>
<path fill="none" stroke="#63b8ff" d="M490.27,-109.75C495.82,-102.58 503.84,-92.2 510.73,-83.3"/>
<polygon fill="#63b8ff" stroke="#63b8ff" points="513.31,-85.69 516.66,-75.64 507.77,-81.41 513.31,-85.69"/>
</g>
<!-- Node15 -->
<g id="node15" class="node">
<title>Node15</title>
<g id="a_node15"><a xlink:href="unistd_8h_source.html" target="_top" xlink:title=" ">
<polygon fill="white" stroke="#666666" points="475.5,-74 407.5,-74 407.5,-55 475.5,-55 475.5,-74"/>
<text text-anchor="middle" x="441.5" y="-62" font-family="Helvetica,sans-Serif" font-size="10.00">sys/unistd.h</text>
</a>
</g>
</g>
<!-- Node13&#45;&gt;Node15 -->
<g id="edge21" class="edge">
<title>Node13&#45;&gt;Node15</title>
<path fill="none" stroke="#63b8ff" d="M476.56,-109.75C470.88,-102.58 462.66,-92.2 455.61,-83.3"/>
<polygon fill="#63b8ff" stroke="#63b8ff" points="458.48,-81.29 449.53,-75.63 452.99,-85.64 458.48,-81.29"/>
</g>
<!-- Node17 -->
<g id="node17" class="node">
<title>Node17</title>
<g id="a_node17"><a xlink:href="time_8h.html" target="_top" xlink:title=" ">
<polygon fill="white" stroke="#666666" points="253,-74 192,-74 192,-55 253,-55 253,-74"/>
<text text-anchor="middle" x="222.5" y="-62" font-family="Helvetica,sans-Serif" font-size="10.00">sys/time.h</text>
</a>
</g>
</g>
<!-- Node16&#45;&gt;Node17 -->
<g id="edge23" class="edge">
<title>Node16&#45;&gt;Node17</title>
<path fill="none" stroke="#63b8ff" d="M229.18,-109.75C228.19,-103.19 226.79,-93.95 225.53,-85.6"/>
<polygon fill="#63b8ff" stroke="#63b8ff" points="229.03,-85.3 224.08,-75.94 222.11,-86.35 229.03,-85.3"/>
</g>
<!-- Node18&#45;&gt;Node8 -->
<g id="edge26" class="edge">
<title>Node18&#45;&gt;Node8</title>
<path fill="none" stroke="#63b8ff" d="M388.48,-219.74C400.87,-207.74 419.45,-185.37 411.5,-165 407.24,-154.08 398.89,-144.22 390.84,-136.57"/>
<polygon fill="#63b8ff" stroke="#63b8ff" points="393.39,-134.16 383.57,-130.2 388.78,-139.42 393.39,-134.16"/>
</g>
<!-- Node19 -->
<g id="node19" class="node">
<title>Node19</title>
<g id="a_node19"><a xlink:title=" ">
<polygon fill="#e0e0e0" stroke="#999999" points="402,-184 355,-184 355,-165 402,-165 402,-184"/>
<text text-anchor="middle" x="378.5" y="-172" font-family="Helvetica,sans-Serif" font-size="10.00">types.h</text>
</a>
</g>
</g>
<!-- Node18&#45;&gt;Node19 -->
<g id="edge25" class="edge">
<title>Node18&#45;&gt;Node19</title>
<path fill="none" stroke="#63b8ff" d="M378.5,-219.75C378.5,-213.27 378.5,-204.16 378.5,-195.9"/>
<polygon fill="#63b8ff" stroke="#63b8ff" points="382,-195.96 378.5,-185.96 375,-195.96 382,-195.96"/>
</g>
<!-- Node20 -->
<g id="node20" class="node">
<title>Node20</title>
<g id="a_node20"><a xlink:href="ioman_8h.html" target="_top" xlink:title=" ">
<polygon fill="white" stroke="#666666" points="508.5,-184 458.5,-184 458.5,-165 508.5,-165 508.5,-184"/>
<text text-anchor="middle" x="483.5" y="-172" font-family="Helvetica,sans-Serif" font-size="10.00">ioman.h</text>
</a>
</g>
</g>
<!-- Node18&#45;&gt;Node20 -->
<g id="edge27" class="edge">
<title>Node18&#45;&gt;Node20</title>
<path fill="none" stroke="#63b8ff" d="M396.31,-219.51C412.63,-211.27 437.03,-198.96 455.87,-189.45"/>
<polygon fill="#63b8ff" stroke="#63b8ff" points="457.25,-192.67 464.6,-185.04 454.1,-186.42 457.25,-192.67"/>
</g>
<!-- Node21 -->
<g id="node21" class="node">
<title>Node21</title>
<g id="a_node21"><a xlink:href="loadcore_8h.html" target="_top" xlink:title=" ">
<polygon fill="white" stroke="#666666" points="337,-184 276,-184 276,-165 337,-165 337,-184"/>
<text text-anchor="middle" x="306.5" y="-172" font-family="Helvetica,sans-Serif" font-size="10.00">loadcore.h</text>
</a>
</g>
</g>
<!-- Node18&#45;&gt;Node21 -->
<g id="edge31" class="edge">
<title>Node18&#45;&gt;Node21</title>
<path fill="none" stroke="#63b8ff" d="M366.29,-219.51C355.67,-211.7 340.06,-200.21 327.46,-190.93"/>
<polygon fill="#63b8ff" stroke="#63b8ff" points="329.88,-188.36 319.75,-185.26 325.73,-194 329.88,-188.36"/>
</g>
<!-- Node20&#45;&gt;Node3 -->
<g id="edge28" class="edge">
<title>Node20&#45;&gt;Node3</title>
<path fill="none" stroke="#63b8ff" d="M473.03,-164.68C457.19,-151.61 425.86,-126.85 396.5,-110 374.87,-97.59 349.11,-86.38 328.9,-78.31"/>
<polygon fill="#63b8ff" stroke="#63b8ff" points="330.29,-75.1 319.71,-74.72 327.75,-81.62 330.29,-75.1"/>
</g>
<!-- Node20&#45;&gt;Node8 -->
<g id="edge29" class="edge">
<title>Node20&#45;&gt;Node8</title>
<path fill="none" stroke="#63b8ff" d="M464.33,-164.51C446.18,-156 418.74,-143.12 398.21,-133.5"/>
<polygon fill="#63b8ff" stroke="#63b8ff" points="399.81,-130.38 389.28,-129.31 396.84,-136.72 399.81,-130.38"/>
</g>
<!-- Node20&#45;&gt;Node13 -->
<g id="edge30" class="edge">
<title>Node20&#45;&gt;Node13</title>
<path fill="none" stroke="#63b8ff" d="M483.5,-164.75C483.5,-158.27 483.5,-149.16 483.5,-140.9"/>
<polygon fill="#63b8ff" stroke="#63b8ff" points="487,-140.96 483.5,-130.96 480,-140.96 487,-140.96"/>
</g>
<!-- Node21&#45;&gt;Node3 -->
<g id="edge32" class="edge">
<title>Node21&#45;&gt;Node3</title>
<path fill="none" stroke="#63b8ff" d="M306.03,-164.85C305.32,-152.61 303.8,-129.55 301.5,-110 300.55,-101.94 299.22,-93.11 297.98,-85.45"/>
<polygon fill="#63b8ff" stroke="#63b8ff" points="301.47,-85.11 296.35,-75.83 294.57,-86.27 301.47,-85.11"/>
</g>
<!-- Node21&#45;&gt;Node8 -->
<g id="edge33" class="edge">
<title>Node21&#45;&gt;Node8</title>
<path fill="none" stroke="#63b8ff" d="M317.36,-164.51C326.61,-156.85 340.12,-145.66 351.21,-136.47"/>
<polygon fill="#63b8ff" stroke="#63b8ff" points="353.17,-139.4 358.64,-130.32 348.7,-134.01 353.17,-139.4"/>
</g>
</g>
</svg>
