<?xml version="1.0" encoding="UTF-8" standalone="no"?>
<!DOCTYPE svg PUBLIC "-//W3C//DTD SVG 1.1//EN"
 "http://www.w3.org/Graphics/SVG/1.1/DTD/svg11.dtd">
<!-- Generated by graphviz version 7.0.5 (20221223.1930)
 -->
<!-- Title: iop/fs/netfs/src/devscan.c Pages: 1 -->
<svg width="786pt" height="302pt"
 viewBox="0.00 0.00 786.00 302.00" xmlns="http://www.w3.org/2000/svg" xmlns:xlink="http://www.w3.org/1999/xlink">
<g id="graph0" class="graph" transform="scale(1 1) rotate(0) translate(4 298)">
<title>iop/fs/netfs/src/devscan.c</title>
<!-- Node1 -->
<g id="node1" class="node">
<title>Node1</title>
<g id="a_node1"><a xlink:title=" ">
<polygon fill="#999999" stroke="#666666" points="500,-294 371,-294 371,-275 500,-275 500,-294"/>
<text text-anchor="middle" x="435.5" y="-282" font-family="Helvetica,sans-Serif" font-size="10.00">iop/fs/netfs/src/devscan.c</text>
</a>
</g>
</g>
<!-- Node2 -->
<g id="node2" class="node">
<title>Node2</title>
<g id="a_node2"><a xlink:title=" ">
<polygon fill="#e0e0e0" stroke="#999999" points="329,-184 282,-184 282,-165 329,-165 329,-184"/>
<text text-anchor="middle" x="305.5" y="-172" font-family="Helvetica,sans-Serif" font-size="10.00">types.h</text>
</a>
</g>
</g>
<!-- Node1&#45;&gt;Node2 -->
<g id="edge1" class="edge">
<title>Node1&#45;&gt;Node2</title>
<path fill="none" stroke="#63b8ff" d="M422.06,-274.83C409.02,-266.22 388.86,-252.41 372.5,-239 354.38,-224.14 335.09,-205.53 321.89,-192.31"/>
<polygon fill="#63b8ff" stroke="#63b8ff" points="324.39,-189.86 314.87,-185.21 319.41,-194.78 324.39,-189.86"/>
</g>
<!-- Node3 -->
<g id="node3" class="node">
<title>Node3</title>
<g id="a_node3"><a xlink:href="defs_8h.html" target="_top" xlink:title=" ">
<polygon fill="white" stroke="#666666" points="43,-239 0,-239 0,-220 43,-220 43,-239"/>
<text text-anchor="middle" x="21.5" y="-227" font-family="Helvetica,sans-Serif" font-size="10.00">defs.h</text>
</a>
</g>
</g>
<!-- Node1&#45;&gt;Node3 -->
<g id="edge2" class="edge">
<title>Node1&#45;&gt;Node3</title>
<path fill="none" stroke="#63b8ff" d="M370.81,-275.22C281.35,-263.77 123.15,-243.51 54.65,-234.74"/>
<polygon fill="#63b8ff" stroke="#63b8ff" points="55.19,-231.28 44.82,-233.49 54.3,-238.23 55.19,-231.28"/>
</g>
<!-- Node7 -->
<g id="node7" class="node">
<title>Node7</title>
<g id="a_node7"><a xlink:href="irx_8h.html" target="_top" xlink:title=" ">
<polygon fill="white" stroke="#666666" points="464.5,-129 430.5,-129 430.5,-110 464.5,-110 464.5,-129"/>
<text text-anchor="middle" x="447.5" y="-117" font-family="Helvetica,sans-Serif" font-size="10.00">irx.h</text>
</a>
</g>
</g>
<!-- Node1&#45;&gt;Node7 -->
<g id="edge6" class="edge">
<title>Node1&#45;&gt;Node7</title>
<path fill="none" stroke="#63b8ff" d="M437.47,-274.69C439.38,-265.75 442.17,-251.49 443.5,-239 447.15,-204.63 447.73,-164.37 447.7,-140.73"/>
<polygon fill="#63b8ff" stroke="#63b8ff" points="451.2,-140.94 447.65,-130.96 444.2,-140.98 451.2,-140.94"/>
</g>
<!-- Node8 -->
<g id="node8" class="node">
<title>Node8</title>
<g id="a_node8"><a xlink:href="loadcore_8h.html" target="_top" xlink:title=" ">
<polygon fill="white" stroke="#666666" points="553,-184 492,-184 492,-165 553,-165 553,-184"/>
<text text-anchor="middle" x="522.5" y="-172" font-family="Helvetica,sans-Serif" font-size="10.00">loadcore.h</text>
</a>
</g>
</g>
<!-- Node1&#45;&gt;Node8 -->
<g id="edge8" class="edge">
<title>Node1&#45;&gt;Node8</title>
<path fill="none" stroke="#63b8ff" d="M444.58,-274.64C453.36,-265.89 466.86,-251.98 477.5,-239 489.53,-224.32 501.9,-206.64 510.62,-193.66"/>
<polygon fill="#63b8ff" stroke="#63b8ff" points="513.31,-195.94 515.92,-185.67 507.48,-192.07 513.31,-195.94"/>
</g>
<!-- Node9 -->
<g id="node9" class="node">
<title>Node9</title>
<g id="a_node9"><a xlink:href="ioman__mod_8h.html" target="_top" xlink:title=" ">
<polygon fill="white" stroke="#666666" points="117.5,-184 43.5,-184 43.5,-165 117.5,-165 117.5,-184"/>
<text text-anchor="middle" x="80.5" y="-172" font-family="Helvetica,sans-Serif" font-size="10.00">ioman_mod.h</text>
</a>
</g>
</g>
<!-- Node1&#45;&gt;Node9 -->
<g id="edge11" class="edge">
<title>Node1&#45;&gt;Node9</title>
<path fill="none" stroke="#63b8ff" d="M396.76,-274.52C361.53,-266.12 308.21,-252.83 262.5,-239 210.39,-223.24 151.02,-201.87 114.65,-188.38"/>
<polygon fill="#63b8ff" stroke="#63b8ff" points="116.15,-185.2 105.56,-184.99 113.71,-191.76 116.15,-185.2"/>
</g>
<!-- Node15 -->
<g id="node15" class="node">
<title>Node15</title>
<g id="a_node15"><a xlink:href="ioman_x_8h.html" target="_top" xlink:title=" ">
<polygon fill="white" stroke="#666666" points="193,-184 136,-184 136,-165 193,-165 193,-184"/>
<text text-anchor="middle" x="164.5" y="-172" font-family="Helvetica,sans-Serif" font-size="10.00">iomanX.h</text>
</a>
</g>
</g>
<!-- Node1&#45;&gt;Node15 -->
<g id="edge19" class="edge">
<title>Node1&#45;&gt;Node15</title>
<path fill="none" stroke="#63b8ff" d="M408.97,-274.64C383.53,-266.01 344.14,-252.28 310.5,-239 269.69,-222.88 223.36,-202.34 194.05,-189.06"/>
<polygon fill="#63b8ff" stroke="#63b8ff" points="195.62,-185.93 185.07,-184.97 192.72,-192.3 195.62,-185.93"/>
</g>
<!-- Node17 -->
<g id="node17" class="node">
<title>Node17</title>
<g id="a_node17"><a xlink:href="thbase_8h.html" target="_top" xlink:title=" ">
<polygon fill="white" stroke="#666666" points="264,-184 211,-184 211,-165 264,-165 264,-184"/>
<text text-anchor="middle" x="237.5" y="-172" font-family="Helvetica,sans-Serif" font-size="10.00">thbase.h</text>
</a>
</g>
</g>
<!-- Node1&#45;&gt;Node17 -->
<g id="edge24" class="edge">
<title>Node1&#45;&gt;Node17</title>
<path fill="none" stroke="#63b8ff" d="M417.15,-274.59C399.24,-265.8 371.29,-251.87 347.5,-239 317.7,-222.88 284.04,-203.23 261.89,-190.1"/>
<polygon fill="#63b8ff" stroke="#63b8ff" points="263.98,-187.27 253.6,-185.17 260.4,-193.29 263.98,-187.27"/>
</g>
<!-- Node18 -->
<g id="node18" class="node">
<title>Node18</title>
<g id="a_node18"><a xlink:href="thsemap_8h.html" target="_top" xlink:title=" ">
<polygon fill="white" stroke="#666666" points="696.5,-184 634.5,-184 634.5,-165 696.5,-165 696.5,-184"/>
<text text-anchor="middle" x="665.5" y="-172" font-family="Helvetica,sans-Serif" font-size="10.00">thsemap.h</text>
</a>
</g>
</g>
<!-- Node1&#45;&gt;Node18 -->
<g id="edge27" class="edge">
<title>Node1&#45;&gt;Node18</title>
<path fill="none" stroke="#63b8ff" d="M454.32,-274.66C494.33,-255.87 588.1,-211.84 636.09,-189.31"/>
<polygon fill="#63b8ff" stroke="#63b8ff" points="637.48,-192.52 645.05,-185.1 634.51,-186.19 637.48,-192.52"/>
</g>
<!-- Node19 -->
<g id="node19" class="node">
<title>Node19</title>
<g id="a_node19"><a xlink:href="stdio_8h.html" target="_top" xlink:title=" ">
<polygon fill="white" stroke="#666666" points="616,-184 571,-184 571,-165 616,-165 616,-184"/>
<text text-anchor="middle" x="593.5" y="-172" font-family="Helvetica,sans-Serif" font-size="10.00">stdio.h</text>
</a>
</g>
</g>
<!-- Node1&#45;&gt;Node19 -->
<g id="edge30" class="edge">
<title>Node1&#45;&gt;Node19</title>
<path fill="none" stroke="#63b8ff" d="M448.43,-274.66C475.28,-256.31 537.37,-213.87 570.95,-190.91"/>
<polygon fill="#63b8ff" stroke="#63b8ff" points="572.86,-193.85 579.14,-185.31 568.91,-188.07 572.86,-193.85"/>
</g>
<!-- Node20 -->
<g id="node20" class="node">
<title>Node20</title>
<g id="a_node20"><a xlink:href="sysclib_8h.html" target="_top" xlink:title=" ">
<polygon fill="white" stroke="#666666" points="768.5,-184 714.5,-184 714.5,-165 768.5,-165 768.5,-184"/>
<text text-anchor="middle" x="741.5" y="-172" font-family="Helvetica,sans-Serif" font-size="10.00">sysclib.h</text>
</a>
</g>
</g>
<!-- Node1&#45;&gt;Node20 -->
<g id="edge33" class="edge">
<title>Node1&#45;&gt;Node20</title>
<path fill="none" stroke="#63b8ff" d="M461.94,-274.59C488.23,-265.7 529.72,-251.58 565.5,-239 614.44,-221.79 670.82,-201.34 706.31,-188.39"/>
<polygon fill="#63b8ff" stroke="#63b8ff" points="707.45,-191.7 715.64,-184.98 705.04,-185.13 707.45,-191.7"/>
</g>
<!-- Node23 -->
<g id="node23" class="node">
<title>Node23</title>
<g id="a_node23"><a xlink:href="iopmgr_8h.html" target="_top" xlink:title=" ">
<polygon fill="white" stroke="#666666" points="435,-239 382,-239 382,-220 435,-220 435,-239"/>
<text text-anchor="middle" x="408.5" y="-227" font-family="Helvetica,sans-Serif" font-size="10.00">iopmgr.h</text>
</a>
</g>
</g>
<!-- Node1&#45;&gt;Node23 -->
<g id="edge40" class="edge">
<title>Node1&#45;&gt;Node23</title>
<path fill="none" stroke="#63b8ff" d="M431.04,-274.75C427.55,-267.88 422.55,-258.08 418.15,-249.45"/>
<polygon fill="#63b8ff" stroke="#63b8ff" points="421.4,-248.11 413.74,-240.79 415.16,-251.29 421.4,-248.11"/>
</g>
<!-- Node25 -->
<g id="node25" class="node">
<title>Node25</title>
<g id="a_node25"><a xlink:href="devscan_8h.html" target="_top" xlink:title=" ">
<polygon fill="white" stroke="#666666" points="705,-239 644,-239 644,-220 705,-220 705,-239"/>
<text text-anchor="middle" x="674.5" y="-227" font-family="Helvetica,sans-Serif" font-size="10.00">devscan.h</text>
</a>
</g>
</g>
<!-- Node1&#45;&gt;Node25 -->
<g id="edge48" class="edge">
<title>Node1&#45;&gt;Node25</title>
<path fill="none" stroke="#63b8ff" d="M476.04,-274.51C519.57,-264.86 588.38,-249.6 632.47,-239.82"/>
<polygon fill="#63b8ff" stroke="#63b8ff" points="633.18,-243.25 642.18,-237.67 631.66,-236.41 633.18,-243.25"/>
</g>
<!-- Node4 -->
<g id="node4" class="node">
<title>Node4</title>
<g id="a_node4"><a xlink:href="iop_2kernel_2include_2types_8h_source.html" target="_top" xlink:title=" ">
<polygon fill="white" stroke="#666666" points="407,-74 360,-74 360,-55 407,-55 407,-74"/>
<text text-anchor="middle" x="383.5" y="-62" font-family="Helvetica,sans-Serif" font-size="10.00">types.h</text>
</a>
</g>
</g>
<!-- Node3&#45;&gt;Node4 -->
<g id="edge3" class="edge">
<title>Node3&#45;&gt;Node4</title>
<path fill="none" stroke="#63b8ff" d="M21.86,-219.82C22.68,-207.14 25.42,-183.11 34.5,-165 49.18,-135.74 54.61,-125.41 83.5,-110 186.82,-54.89 229.21,-94.48 344.5,-74 345.88,-73.75 347.29,-73.49 348.71,-73.22"/>
<polygon fill="#63b8ff" stroke="#63b8ff" points="349.05,-76.73 358.15,-71.31 347.65,-69.87 349.05,-76.73"/>
</g>
<!-- Node5 -->
<g id="node5" class="node">
<title>Node5</title>
<g id="a_node5"><a xlink:title=" ">
<polygon fill="#e0e0e0" stroke="#999999" points="409,-19 358,-19 358,0 409,0 409,-19"/>
<text text-anchor="middle" x="383.5" y="-7" font-family="Helvetica,sans-Serif" font-size="10.00">stddef.h</text>
</a>
</g>
</g>
<!-- Node4&#45;&gt;Node5 -->
<g id="edge4" class="edge">
<title>Node4&#45;&gt;Node5</title>
<path fill="none" stroke="#63b8ff" d="M383.5,-54.75C383.5,-48.27 383.5,-39.16 383.5,-30.9"/>
<polygon fill="#63b8ff" stroke="#63b8ff" points="387,-30.96 383.5,-20.96 380,-30.96 387,-30.96"/>
</g>
<!-- Node6 -->
<g id="node6" class="node">
<title>Node6</title>
<g id="a_node6"><a xlink:href="tamtypes_8h.html" target="_top" xlink:title=" ">
<polygon fill="white" stroke="#666666" points="606.5,-19 542.5,-19 542.5,0 606.5,0 606.5,-19"/>
<text text-anchor="middle" x="574.5" y="-7" font-family="Helvetica,sans-Serif" font-size="10.00">tamtypes.h</text>
</a>
</g>
</g>
<!-- Node4&#45;&gt;Node6 -->
<g id="edge5" class="edge">
<title>Node4&#45;&gt;Node6</title>
<path fill="none" stroke="#63b8ff" d="M407.3,-56.89C438.25,-48.31 492.87,-33.15 531.23,-22.51"/>
<polygon fill="#63b8ff" stroke="#63b8ff" points="531.92,-25.95 540.62,-19.9 530.05,-19.2 531.92,-25.95"/>
</g>
<!-- Node7&#45;&gt;Node4 -->
<g id="edge7" class="edge">
<title>Node7&#45;&gt;Node4</title>
<path fill="none" stroke="#63b8ff" d="M436.64,-109.51C427.39,-101.85 413.88,-90.66 402.79,-81.47"/>
<polygon fill="#63b8ff" stroke="#63b8ff" points="405.3,-79.01 395.36,-75.32 400.83,-84.4 405.3,-79.01"/>
</g>
<!-- Node8&#45;&gt;Node4 -->
<g id="edge9" class="edge">
<title>Node8&#45;&gt;Node4</title>
<path fill="none" stroke="#63b8ff" d="M517.5,-164.68C509.6,-151.38 493.1,-126.06 473.5,-110 456.97,-96.46 435.64,-85.69 417.9,-78.13"/>
<polygon fill="#63b8ff" stroke="#63b8ff" points="419.37,-74.95 408.79,-74.42 416.73,-81.43 419.37,-74.95"/>
</g>
<!-- Node8&#45;&gt;Node7 -->
<g id="edge10" class="edge">
<title>Node8&#45;&gt;Node7</title>
<path fill="none" stroke="#63b8ff" d="M509.78,-164.51C498.72,-156.7 482.46,-145.21 469.33,-135.93"/>
<polygon fill="#63b8ff" stroke="#63b8ff" points="471.46,-133.14 461.27,-130.23 467.42,-138.86 471.46,-133.14"/>
</g>
<!-- Node9&#45;&gt;Node4 -->
<g id="edge12" class="edge">
<title>Node9&#45;&gt;Node4</title>
<path fill="none" stroke="#63b8ff" d="M80.36,-164.54C80.68,-150.59 83.48,-123.85 99.5,-110 141.12,-74.01 290.36,-83.87 344.5,-74 345.88,-73.75 347.29,-73.48 348.71,-73.21"/>
<polygon fill="#63b8ff" stroke="#63b8ff" points="349.05,-76.71 358.14,-71.28 347.65,-69.85 349.05,-76.71"/>
</g>
<!-- Node9&#45;&gt;Node7 -->
<g id="edge13" class="edge">
<title>Node9&#45;&gt;Node7</title>
<path fill="none" stroke="#63b8ff" d="M117.63,-166.49C120.63,-165.97 123.61,-165.47 126.5,-165 234.13,-147.6 362.74,-131.05 418.91,-124.03"/>
<polygon fill="#63b8ff" stroke="#63b8ff" points="419.07,-127.53 428.56,-122.82 418.2,-120.59 419.07,-127.53"/>
</g>
<!-- Node10 -->
<g id="node10" class="node">
<title>Node10</title>
<g id="a_node10"><a xlink:href="io__common_8h.html" target="_top" xlink:title=" ">
<polygon fill="white" stroke="#666666" points="258.5,-129 184.5,-129 184.5,-110 258.5,-110 258.5,-129"/>
<text text-anchor="middle" x="221.5" y="-117" font-family="Helvetica,sans-Serif" font-size="10.00">io_common.h</text>
</a>
</g>
</g>
<!-- Node9&#45;&gt;Node10 -->
<g id="edge14" class="edge">
<title>Node9&#45;&gt;Node10</title>
<path fill="none" stroke="#63b8ff" d="M104.42,-164.51C127.14,-155.97 161.55,-143.03 187.19,-133.4"/>
<polygon fill="#63b8ff" stroke="#63b8ff" points="188.39,-136.69 196.52,-129.89 185.93,-130.13 188.39,-136.69"/>
</g>
<!-- Node13 -->
<g id="node13" class="node">
<title>Node13</title>
<g id="a_node13"><a xlink:href="iox__stat_8h.html" target="_top" xlink:title=" ">
<polygon fill="white" stroke="#666666" points="166.5,-129 108.5,-129 108.5,-110 166.5,-110 166.5,-129"/>
<text text-anchor="middle" x="137.5" y="-117" font-family="Helvetica,sans-Serif" font-size="10.00">iox_stat.h</text>
</a>
</g>
</g>
<!-- Node9&#45;&gt;Node13 -->
<g id="edge17" class="edge">
<title>Node9&#45;&gt;Node13</title>
<path fill="none" stroke="#63b8ff" d="M90.17,-164.51C98.24,-157 109.97,-146.1 119.72,-137.03"/>
<polygon fill="#63b8ff" stroke="#63b8ff" points="121.93,-139.76 126.87,-130.39 117.16,-134.63 121.93,-139.76"/>
</g>
<!-- Node11 -->
<g id="node11" class="node">
<title>Node11</title>
<g id="a_node11"><a xlink:href="fcntl_8h_source.html" target="_top" xlink:title=" ">
<polygon fill="white" stroke="#666666" points="249,-74 188,-74 188,-55 249,-55 249,-74"/>
<text text-anchor="middle" x="218.5" y="-62" font-family="Helvetica,sans-Serif" font-size="10.00">sys/fcntl.h</text>
</a>
</g>
</g>
<!-- Node10&#45;&gt;Node11 -->
<g id="edge15" class="edge">
<title>Node10&#45;&gt;Node11</title>
<path fill="none" stroke="#63b8ff" d="M221,-109.75C220.64,-103.27 220.12,-94.16 219.65,-85.9"/>
<polygon fill="#63b8ff" stroke="#63b8ff" points="223.15,-85.74 219.09,-75.95 216.16,-86.13 223.15,-85.74"/>
</g>
<!-- Node12 -->
<g id="node12" class="node">
<title>Node12</title>
<g id="a_node12"><a xlink:href="unistd_8h_source.html" target="_top" xlink:title=" ">
<polygon fill="white" stroke="#666666" points="335.5,-74 267.5,-74 267.5,-55 335.5,-55 335.5,-74"/>
<text text-anchor="middle" x="301.5" y="-62" font-family="Helvetica,sans-Serif" font-size="10.00">sys/unistd.h</text>
</a>
</g>
</g>
<!-- Node10&#45;&gt;Node12 -->
<g id="edge16" class="edge">
<title>Node10&#45;&gt;Node12</title>
<path fill="none" stroke="#63b8ff" d="M235.07,-109.51C246.98,-101.62 264.55,-89.98 278.63,-80.65"/>
<polygon fill="#63b8ff" stroke="#63b8ff" points="280.46,-83.63 286.87,-75.19 276.6,-77.8 280.46,-83.63"/>
</g>
<!-- Node14 -->
<g id="node14" class="node">
<title>Node14</title>
<g id="a_node14"><a xlink:href="time_8h.html" target="_top" xlink:title=" ">
<polygon fill="white" stroke="#666666" points="168,-74 107,-74 107,-55 168,-55 168,-74"/>
<text text-anchor="middle" x="137.5" y="-62" font-family="Helvetica,sans-Serif" font-size="10.00">sys/time.h</text>
</a>
</g>
</g>
<!-- Node13&#45;&gt;Node14 -->
<g id="edge18" class="edge">
<title>Node13&#45;&gt;Node14</title>
<path fill="none" stroke="#63b8ff" d="M137.5,-109.75C137.5,-103.27 137.5,-94.16 137.5,-85.9"/>
<polygon fill="#63b8ff" stroke="#63b8ff" points="141,-85.96 137.5,-75.96 134,-85.96 141,-85.96"/>
</g>
<!-- Node15&#45;&gt;Node4 -->
<g id="edge20" class="edge">
<title>Node15&#45;&gt;Node4</title>
<path fill="none" stroke="#63b8ff" d="M186.87,-164.54C207.92,-155.94 240.19,-142.34 267.5,-129 299.52,-113.36 335.36,-93.34 358.61,-80"/>
<polygon fill="#63b8ff" stroke="#63b8ff" points="360.13,-83.17 367.04,-75.14 356.63,-77.11 360.13,-83.17"/>
</g>
<!-- Node15&#45;&gt;Node10 -->
<g id="edge22" class="edge">
<title>Node15&#45;&gt;Node10</title>
<path fill="none" stroke="#63b8ff" d="M174.17,-164.51C182.24,-157 193.97,-146.1 203.72,-137.03"/>
<polygon fill="#63b8ff" stroke="#63b8ff" points="205.93,-139.76 210.87,-130.39 201.16,-134.63 205.93,-139.76"/>
</g>
<!-- Node15&#45;&gt;Node13 -->
<g id="edge23" class="edge">
<title>Node15&#45;&gt;Node13</title>
<path fill="none" stroke="#63b8ff" d="M160.04,-164.75C156.55,-157.88 151.55,-148.08 147.15,-139.45"/>
<polygon fill="#63b8ff" stroke="#63b8ff" points="150.4,-138.11 142.74,-130.79 144.16,-141.29 150.4,-138.11"/>
</g>
<!-- Node16 -->
<g id="node16" class="node">
<title>Node16</title>
<g id="a_node16"><a xlink:title=" ">
<polygon fill="#e0e0e0" stroke="#999999" points="598,-129 547,-129 547,-110 598,-110 598,-129"/>
<text text-anchor="middle" x="572.5" y="-117" font-family="Helvetica,sans-Serif" font-size="10.00">stdarg.h</text>
</a>
</g>
</g>
<!-- Node15&#45;&gt;Node16 -->
<g id="edge21" class="edge">
<title>Node15&#45;&gt;Node16</title>
<path fill="none" stroke="#63b8ff" d="M193.12,-166.61C195.94,-166.02 198.77,-165.48 201.5,-165 322.98,-143.82 468.61,-129.56 535.54,-123.62"/>
<polygon fill="#63b8ff" stroke="#63b8ff" points="535.56,-127.13 545.22,-122.77 534.95,-120.16 535.56,-127.13"/>
</g>
<!-- Node17&#45;&gt;Node4 -->
<g id="edge25" class="edge">
<title>Node17&#45;&gt;Node4</title>
<path fill="none" stroke="#63b8ff" d="M252.9,-164.5C267.34,-155.88 289.36,-142.26 307.5,-129 328.19,-113.88 350.55,-94.84 365.63,-81.57"/>
<polygon fill="#63b8ff" stroke="#63b8ff" points="367.71,-84.4 372.86,-75.14 363.06,-79.17 367.71,-84.4"/>
</g>
<!-- Node17&#45;&gt;Node7 -->
<g id="edge26" class="edge">
<title>Node17&#45;&gt;Node7</title>
<path fill="none" stroke="#63b8ff" d="M264.1,-166.79C303.88,-156.75 378.53,-137.91 419.25,-127.63"/>
<polygon fill="#63b8ff" stroke="#63b8ff" points="419.95,-131.06 428.79,-125.22 418.23,-124.28 419.95,-131.06"/>
</g>
<!-- Node18&#45;&gt;Node4 -->
<g id="edge28" class="edge">
<title>Node18&#45;&gt;Node4</title>
<path fill="none" stroke="#63b8ff" d="M660.29,-164.91C651.35,-150.98 631.69,-123.64 607.5,-110 547.26,-76.04 465.13,-67.7 418.9,-65.83"/>
<polygon fill="#63b8ff" stroke="#63b8ff" points="419.02,-62.33 408.92,-65.52 418.8,-69.33 419.02,-62.33"/>
</g>
<!-- Node18&#45;&gt;Node7 -->
<g id="edge29" class="edge">
<title>Node18&#45;&gt;Node7</title>
<path fill="none" stroke="#63b8ff" d="M634.27,-165.91C591.83,-155.59 516.59,-137.3 475.76,-127.37"/>
<polygon fill="#63b8ff" stroke="#63b8ff" points="476.75,-124.01 466.21,-125.05 475.1,-130.81 476.75,-124.01"/>
</g>
<!-- Node19&#45;&gt;Node7 -->
<g id="edge32" class="edge">
<title>Node19&#45;&gt;Node7</title>
<path fill="none" stroke="#63b8ff" d="M570.69,-165.22C544.89,-155.85 502.88,-140.6 475.22,-130.56"/>
<polygon fill="#63b8ff" stroke="#63b8ff" points="476.69,-127.37 466.1,-127.25 474.31,-133.95 476.69,-127.37"/>
</g>
<!-- Node19&#45;&gt;Node16 -->
<g id="edge31" class="edge">
<title>Node19&#45;&gt;Node16</title>
<path fill="none" stroke="#63b8ff" d="M590.03,-164.75C587.37,-158.04 583.6,-148.52 580.24,-140.02"/>
<polygon fill="#63b8ff" stroke="#63b8ff" points="583.54,-138.86 576.6,-130.85 577.03,-141.44 583.54,-138.86"/>
</g>
<!-- Node20&#45;&gt;Node4 -->
<g id="edge34" class="edge">
<title>Node20&#45;&gt;Node4</title>
<path fill="none" stroke="#63b8ff" d="M729.46,-164.56C710.09,-150.62 670.32,-123.9 632.5,-110 559.2,-83.06 467.58,-72.08 418.46,-67.88"/>
<polygon fill="#63b8ff" stroke="#63b8ff" points="418.97,-64.41 408.72,-67.09 418.41,-71.39 418.97,-64.41"/>
</g>
<!-- Node20&#45;&gt;Node7 -->
<g id="edge35" class="edge">
<title>Node20&#45;&gt;Node7</title>
<path fill="none" stroke="#63b8ff" d="M714.02,-166.83C711.15,-166.19 708.27,-165.57 705.5,-165 622.54,-148.07 523.7,-132.21 476.02,-124.84"/>
<polygon fill="#63b8ff" stroke="#63b8ff" points="476.69,-121.4 466.27,-123.34 475.63,-128.32 476.69,-121.4"/>
</g>
<!-- Node20&#45;&gt;Node16 -->
<g id="edge36" class="edge">
<title>Node20&#45;&gt;Node16</title>
<path fill="none" stroke="#63b8ff" d="M714.35,-164.98C685.8,-156.03 640.73,-141.9 609.07,-131.97"/>
<polygon fill="#63b8ff" stroke="#63b8ff" points="610.51,-128.75 599.92,-129.1 608.41,-135.43 610.51,-128.75"/>
</g>
<!-- Node21 -->
<g id="node21" class="node">
<title>Node21</title>
<g id="a_node21"><a xlink:href="setjmp_8h.html" target="_top" xlink:title=" ">
<polygon fill="white" stroke="#666666" points="658,-74 605,-74 605,-55 658,-55 658,-74"/>
<text text-anchor="middle" x="631.5" y="-62" font-family="Helvetica,sans-Serif" font-size="10.00">setjmp.h</text>
</a>
</g>
</g>
<!-- Node20&#45;&gt;Node21 -->
<g id="edge37" class="edge">
<title>Node20&#45;&gt;Node21</title>
<path fill="none" stroke="#63b8ff" d="M733.03,-164.79C721.01,-152.47 698.27,-129.32 678.5,-110 668.95,-100.68 658.15,-90.43 649.31,-82.12"/>
<polygon fill="#63b8ff" stroke="#63b8ff" points="651.74,-79.6 642.05,-75.31 646.96,-84.71 651.74,-79.6"/>
</g>
<!-- Node22 -->
<g id="node22" class="node">
<title>Node22</title>
<g id="a_node22"><a xlink:href="ctype_8h.html" target="_top" xlink:title=" ">
<polygon fill="white" stroke="#666666" points="778,-129 731,-129 731,-110 778,-110 778,-129"/>
<text text-anchor="middle" x="754.5" y="-117" font-family="Helvetica,sans-Serif" font-size="10.00">ctype.h</text>
</a>
</g>
</g>
<!-- Node20&#45;&gt;Node22 -->
<g id="edge39" class="edge">
<title>Node20&#45;&gt;Node22</title>
<path fill="none" stroke="#63b8ff" d="M743.65,-164.75C745.26,-158.19 747.52,-148.95 749.57,-140.6"/>
<polygon fill="#63b8ff" stroke="#63b8ff" points="752.96,-141.46 751.95,-130.91 746.16,-139.79 752.96,-141.46"/>
</g>
<!-- Node21&#45;&gt;Node6 -->
<g id="edge38" class="edge">
<title>Node21&#45;&gt;Node6</title>
<path fill="none" stroke="#63b8ff" d="M621.83,-54.51C613.76,-47 602.03,-36.1 592.28,-27.03"/>
<polygon fill="#63b8ff" stroke="#63b8ff" points="594.84,-24.63 585.13,-20.39 590.07,-29.76 594.84,-24.63"/>
</g>
<!-- Node23&#45;&gt;Node2 -->
<g id="edge41" class="edge">
<title>Node23&#45;&gt;Node2</title>
<path fill="none" stroke="#63b8ff" d="M391.03,-219.51C375.1,-211.31 351.31,-199.07 332.86,-189.58"/>
<polygon fill="#63b8ff" stroke="#63b8ff" points="334.55,-186.51 324.06,-185.05 331.35,-192.74 334.55,-186.51"/>
</g>
<!-- Node23&#45;&gt;Node7 -->
<g id="edge42" class="edge">
<title>Node23&#45;&gt;Node7</title>
<path fill="none" stroke="#63b8ff" d="M411.69,-219.66C417.92,-202.42 431.83,-163.9 440.36,-140.27"/>
<polygon fill="#63b8ff" stroke="#63b8ff" points="443.65,-141.48 443.75,-130.88 437.06,-139.1 443.65,-141.48"/>
</g>
<!-- Node23&#45;&gt;Node8 -->
<g id="edge47" class="edge">
<title>Node23&#45;&gt;Node8</title>
<path fill="none" stroke="#63b8ff" d="M427.84,-219.51C445.72,-211.2 472.54,-198.73 493.07,-189.18"/>
<polygon fill="#63b8ff" stroke="#63b8ff" points="494.48,-192.39 502.07,-185 491.53,-186.04 494.48,-192.39"/>
</g>
<!-- Node24 -->
<g id="node24" class="node">
<title>Node24</title>
<g id="a_node24"><a xlink:href="ioman_8h.html" target="_top" xlink:title=" ">
<polygon fill="white" stroke="#666666" points="397.5,-184 347.5,-184 347.5,-165 397.5,-165 397.5,-184"/>
<text text-anchor="middle" x="372.5" y="-172" font-family="Helvetica,sans-Serif" font-size="10.00">ioman.h</text>
</a>
</g>
</g>
<!-- Node23&#45;&gt;Node24 -->
<g id="edge43" class="edge">
<title>Node23&#45;&gt;Node24</title>
<path fill="none" stroke="#63b8ff" d="M402.56,-219.75C397.79,-212.73 390.94,-202.64 384.98,-193.87"/>
<polygon fill="#63b8ff" stroke="#63b8ff" points="387.94,-192 379.42,-185.69 382.15,-195.93 387.94,-192"/>
</g>
<!-- Node24&#45;&gt;Node4 -->
<g id="edge44" class="edge">
<title>Node24&#45;&gt;Node4</title>
<path fill="none" stroke="#63b8ff" d="M373.4,-164.66C375.15,-147.5 379.04,-109.26 381.45,-85.6"/>
<polygon fill="#63b8ff" stroke="#63b8ff" points="384.9,-86.27 382.43,-75.97 377.94,-85.56 384.9,-86.27"/>
</g>
<!-- Node24&#45;&gt;Node7 -->
<g id="edge45" class="edge">
<title>Node24&#45;&gt;Node7</title>
<path fill="none" stroke="#63b8ff" d="M385.22,-164.51C396.28,-156.7 412.54,-145.21 425.67,-135.93"/>
<polygon fill="#63b8ff" stroke="#63b8ff" points="427.58,-138.86 433.73,-130.23 423.54,-133.14 427.58,-138.86"/>
</g>
<!-- Node24&#45;&gt;Node10 -->
<g id="edge46" class="edge">
<title>Node24&#45;&gt;Node10</title>
<path fill="none" stroke="#63b8ff" d="M347.23,-164.63C322.8,-156.06 285.54,-142.98 257.92,-133.28"/>
<polygon fill="#63b8ff" stroke="#63b8ff" points="259.13,-130 248.54,-129.99 256.81,-136.6 259.13,-130"/>
</g>
</g>
</svg>
