<?xml version="1.0" encoding="UTF-8" standalone="no"?>
<!DOCTYPE svg PUBLIC "-//W3C//DTD SVG 1.1//EN"
 "http://www.w3.org/Graphics/SVG/1.1/DTD/svg11.dtd">
<!-- Generated by graphviz version 7.0.5 (20221223.1930)
 -->
<!-- Title: iop/network/smap/src Pages: 1 -->
<svg width="207pt" height="125pt"
 viewBox="0.00 0.00 207.00 125.00" xmlns="http://www.w3.org/2000/svg" xmlns:xlink="http://www.w3.org/1999/xlink">
<g id="graph0" class="graph" transform="scale(1 1) rotate(0) translate(4 121)">
<title>iop/network/smap/src</title>
<g id="clust1" class="cluster">
<title>clusterdir_7e8098252786d103c47acfa14c0859f4</title>
<g id="a_clust1"><a xlink:href="dir_7e8098252786d103c47acfa14c0859f4.html" target="_top" xlink:title="smap">
<polygon fill="#deebf9" stroke="#7f7f7f" stroke-dasharray="5,2" points="8,-39 8,-109 136,-109 136,-39 8,-39"/>
<text text-anchor="middle" x="72" y="-97" font-family="Helvetica,sans-Serif" font-size="10.00">smap</text>
</a>
</g>
</g>
<g id="clust2" class="cluster">
<title>clusterdir_f38af649c18175eef64498f7ded53ff0</title>
<g id="a_clust2"><a xlink:href="dir_f38af649c18175eef64498f7ded53ff0.html" target="_top">
<polygon fill="#deebf9" stroke="#404040" stroke-width="2" points="16,-47 16,-82 128,-82 128,-47 16,-47"/>
</a>
</g>
</g>
<!-- dir_f38af649c18175eef64498f7ded53ff0 -->
<g id="node1" class="node">
<title>dir_f38af649c18175eef64498f7ded53ff0</title>
<text text-anchor="middle" x="105" y="-62" font-family="Helvetica,sans-Serif" font-size="10.00">src</text>
</g>
<!-- dir_6f16cad81de2453a6f48c5e272ba4a18 -->
<g id="node3" class="node">
<title>dir_6f16cad81de2453a6f48c5e272ba4a18</title>
<g id="a_node3"><a xlink:href="dir_6f16cad81de2453a6f48c5e272ba4a18.html" target="_top" xlink:title="dev9">
<polygon fill="#deebf9" stroke="red" stroke-dasharray="5,2" points="65,-19 27,-19 27,0 65,0 65,-19"/>
<text text-anchor="middle" x="46" y="-7" font-family="Helvetica,sans-Serif" font-size="10.00">dev9</text>
</a>
</g>
</g>
<!-- dir_f38af649c18175eef64498f7ded53ff0&#45;&gt;dir_6f16cad81de2453a6f48c5e272ba4a18 -->
<g id="edge1" class="edge">
<title>dir_f38af649c18175eef64498f7ded53ff0&#45;&gt;dir_6f16cad81de2453a6f48c5e272ba4a18</title>
<path fill="none" stroke="#63b8ff" d="M97.22,-55.1C92.63,-50.26 86.63,-44.14 81,-39 76.41,-34.82 71.31,-30.49 66.46,-26.52"/>
<polygon fill="#63b8ff" stroke="#63b8ff" points="68.79,-23.9 58.8,-20.37 64.41,-29.36 68.79,-23.9"/>
<g id="a_edge1&#45;headlabel"><a xlink:href="dir_000323_000028.html" target="_top" xlink:title="3">
<text text-anchor="middle" x="72.19" y="-20.49" font-family="Helvetica,sans-Serif" font-size="10.00" fill="#63b8ff">3</text>
</a>
</g>
</g>
<!-- dir_9be0baa3d4a3e9f480a9ee70594037fa -->
<g id="node4" class="node">
<title>dir_9be0baa3d4a3e9f480a9ee70594037fa</title>
<g id="a_node4"><a xlink:href="dir_9be0baa3d4a3e9f480a9ee70594037fa.html" target="_top" xlink:title="kernel">
<polygon fill="#deebf9" stroke="red" stroke-dasharray="5,2" points="126.5,-19 83.5,-19 83.5,0 126.5,0 126.5,-19"/>
<text text-anchor="middle" x="105" y="-7" font-family="Helvetica,sans-Serif" font-size="10.00">kernel</text>
</a>
</g>
</g>
<!-- dir_f38af649c18175eef64498f7ded53ff0&#45;&gt;dir_9be0baa3d4a3e9f480a9ee70594037fa -->
<g id="edge2" class="edge">
<title>dir_f38af649c18175eef64498f7ded53ff0&#45;&gt;dir_9be0baa3d4a3e9f480a9ee70594037fa</title>
<path fill="none" stroke="#63b8ff" d="M105,-55.22C105,-48.65 105,-39.18 105,-30.64"/>
<polygon fill="#63b8ff" stroke="#63b8ff" points="108.5,-30.77 105,-20.77 101.5,-30.77 108.5,-30.77"/>
<g id="a_edge2&#45;headlabel"><a xlink:href="dir_000323_000166.html" target="_top" xlink:title="32">
<text text-anchor="middle" x="111.34" y="-30.35" font-family="Helvetica,sans-Serif" font-size="10.00" fill="#63b8ff">32</text>
</a>
</g>
</g>
<!-- dir_bdd9a5d540de89e9fe90efdfc6973a4f -->
<g id="node5" class="node">
<title>dir_bdd9a5d540de89e9fe90efdfc6973a4f</title>
<g id="a_node5"><a xlink:href="dir_bdd9a5d540de89e9fe90efdfc6973a4f.html" target="_top" xlink:title="common">
<polygon fill="#deebf9" stroke="red" points="199,-19 145,-19 145,0 199,0 199,-19"/>
<text text-anchor="middle" x="172" y="-7" font-family="Helvetica,sans-Serif" font-size="10.00">common</text>
</a>
</g>
</g>
<!-- dir_f38af649c18175eef64498f7ded53ff0&#45;&gt;dir_bdd9a5d540de89e9fe90efdfc6973a4f -->
<g id="edge3" class="edge">
<title>dir_f38af649c18175eef64498f7ded53ff0&#45;&gt;dir_bdd9a5d540de89e9fe90efdfc6973a4f</title>
<path fill="none" stroke="#63b8ff" d="M115.47,-55.22C125.23,-47.5 140.04,-35.78 152.05,-26.28"/>
<polygon fill="#63b8ff" stroke="#63b8ff" points="154.08,-29.14 159.75,-20.19 149.73,-23.65 154.08,-29.14"/>
<g id="a_edge3&#45;headlabel"><a xlink:href="dir_000323_000024.html" target="_top" xlink:title="6">
<text text-anchor="middle" x="154.21" y="-30.16" font-family="Helvetica,sans-Serif" font-size="10.00" fill="#63b8ff">6</text>
</a>
</g>
</g>
<!-- dir_eead4ded970bb501941913089bc8e720 -->
<g id="node2" class="node">
<title>dir_eead4ded970bb501941913089bc8e720</title>
<g id="a_node2"><a xlink:href="dir_eead4ded970bb501941913089bc8e720.html" target="_top" xlink:title="include">
<polygon fill="#60a2e3" stroke="#404040" points="71.5,-74 24.5,-74 24.5,-55 71.5,-55 71.5,-74"/>
<text text-anchor="middle" x="48" y="-62" font-family="Helvetica,sans-Serif" font-size="10.00">include</text>
</a>
</g>
</g>
<!-- dir_eead4ded970bb501941913089bc8e720&#45;&gt;dir_6f16cad81de2453a6f48c5e272ba4a18 -->
<g id="edge4" class="edge">
<title>dir_eead4ded970bb501941913089bc8e720&#45;&gt;dir_6f16cad81de2453a6f48c5e272ba4a18</title>
<path fill="none" stroke="#63b8ff" d="M47.67,-54.75C47.43,-48.27 47.08,-39.16 46.77,-30.9"/>
<polygon fill="#63b8ff" stroke="#63b8ff" points="50.27,-30.82 46.39,-20.95 43.27,-31.08 50.27,-30.82"/>
<g id="a_edge4&#45;headlabel"><a xlink:href="dir_000134_000028.html" target="_top" xlink:title="1">
<text text-anchor="middle" x="53.18" y="-30.29" font-family="Helvetica,sans-Serif" font-size="10.00" fill="#63b8ff">1</text>
</a>
</g>
</g>
<!-- dir_eead4ded970bb501941913089bc8e720&#45;&gt;dir_9be0baa3d4a3e9f480a9ee70594037fa -->
<g id="edge5" class="edge">
<title>dir_eead4ded970bb501941913089bc8e720&#45;&gt;dir_9be0baa3d4a3e9f480a9ee70594037fa</title>
<path fill="none" stroke="#63b8ff" d="M57.67,-54.51C65.74,-47 77.47,-36.1 87.22,-27.03"/>
<polygon fill="#63b8ff" stroke="#63b8ff" points="89.43,-29.76 94.37,-20.39 84.66,-24.63 89.43,-29.76"/>
<g id="a_edge5&#45;headlabel"><a xlink:href="dir_000134_000166.html" target="_top" xlink:title="8">
<text text-anchor="middle" x="89.83" y="-30.76" font-family="Helvetica,sans-Serif" font-size="10.00" fill="#63b8ff">8</text>
</a>
</g>
</g>
</g>
</svg>
