<?xml version="1.0" encoding="UTF-8" standalone="no"?>
<!DOCTYPE svg PUBLIC "-//W3C//DTD SVG 1.1//EN"
 "http://www.w3.org/Graphics/SVG/1.1/DTD/svg11.dtd">
<!-- Generated by graphviz version 7.0.5 (20221223.1930)
 -->
<!-- Title: iop/fs/romdrv Pages: 1 -->
<svg width="268pt" height="149pt"
 viewBox="0.00 0.00 268.00 149.00" xmlns="http://www.w3.org/2000/svg" xmlns:xlink="http://www.w3.org/1999/xlink">
<g id="graph0" class="graph" transform="scale(1 1) rotate(0) translate(4 145)">
<title>iop/fs/romdrv</title>
<g id="clust1" class="cluster">
<title>clusterdir_f24daea2522ffa8b6dc5fa9cdf5b8f5c</title>
<g id="a_clust1"><a xlink:href="dir_f24daea2522ffa8b6dc5fa9cdf5b8f5c.html" target="_top" xlink:title="fs">
<polygon fill="#deebf9" stroke="#7f7f7f" stroke-dasharray="5,2" points="8,-8 8,-133 136,-133 136,-8 8,-8"/>
<text text-anchor="middle" x="72" y="-121" font-family="Helvetica,sans-Serif" font-size="10.00">fs</text>
</a>
</g>
</g>
<g id="clust2" class="cluster">
<title>clusterdir_026e95636ee7a5fe61bdfe401a766815</title>
<g id="a_clust2"><a xlink:href="dir_026e95636ee7a5fe61bdfe401a766815.html" target="_top">
<polygon fill="#deebf9" stroke="#404040" stroke-width="2" points="16,-16 16,-106 128,-106 128,-16 16,-16"/>
</a>
</g>
</g>
<!-- dir_026e95636ee7a5fe61bdfe401a766815 -->
<g id="node1" class="node">
<title>dir_026e95636ee7a5fe61bdfe401a766815</title>
<text text-anchor="middle" x="96" y="-86" font-family="Helvetica,sans-Serif" font-size="10.00">romdrv</text>
</g>
<!-- dir_3ecaac98bf4a7074230173a0d41eeb7f -->
<g id="node2" class="node">
<title>dir_3ecaac98bf4a7074230173a0d41eeb7f</title>
<g id="a_node2"><a xlink:href="dir_3ecaac98bf4a7074230173a0d41eeb7f.html" target="_top" xlink:title="include">
<polygon fill="#60a2e3" stroke="#404040" points="71.5,-43 24.5,-43 24.5,-24 71.5,-24 71.5,-43"/>
<text text-anchor="middle" x="48" y="-31" font-family="Helvetica,sans-Serif" font-size="10.00">include</text>
</a>
</g>
</g>
<!-- dir_93782aa3b15333f5f3e250c044e02306 -->
<g id="node3" class="node">
<title>dir_93782aa3b15333f5f3e250c044e02306</title>
<g id="a_node3"><a xlink:href="dir_93782aa3b15333f5f3e250c044e02306.html" target="_top" xlink:title="src">
<polygon fill="#60a2e3" stroke="#404040" points="54,-98 24,-98 24,-79 54,-79 54,-98"/>
<text text-anchor="middle" x="39" y="-86" font-family="Helvetica,sans-Serif" font-size="10.00">src</text>
</a>
</g>
</g>
<!-- dir_93782aa3b15333f5f3e250c044e02306&#45;&gt;dir_3ecaac98bf4a7074230173a0d41eeb7f -->
<g id="edge1" class="edge">
<title>dir_93782aa3b15333f5f3e250c044e02306&#45;&gt;dir_3ecaac98bf4a7074230173a0d41eeb7f</title>
<path fill="none" stroke="#63b8ff" d="M40.49,-78.75C41.6,-72.19 43.17,-62.95 44.59,-54.6"/>
<polygon fill="#63b8ff" stroke="#63b8ff" points="48,-55.38 46.23,-44.93 41.1,-54.21 48,-55.38"/>
<g id="a_edge1&#45;headlabel"><a xlink:href="dir_000312_000123.html" target="_top" xlink:title="1">
<text text-anchor="middle" x="50.46" y="-55.41" font-family="Helvetica,sans-Serif" font-size="10.00" fill="#63b8ff">1</text>
</a>
</g>
</g>
<!-- dir_9be0baa3d4a3e9f480a9ee70594037fa -->
<g id="node4" class="node">
<title>dir_9be0baa3d4a3e9f480a9ee70594037fa</title>
<g id="a_node4"><a xlink:href="dir_9be0baa3d4a3e9f480a9ee70594037fa.html" target="_top" xlink:title="kernel">
<polygon fill="#deebf9" stroke="red" stroke-dasharray="5,2" points="187.5,-43 144.5,-43 144.5,-24 187.5,-24 187.5,-43"/>
<text text-anchor="middle" x="166" y="-31" font-family="Helvetica,sans-Serif" font-size="10.00">kernel</text>
</a>
</g>
</g>
<!-- dir_93782aa3b15333f5f3e250c044e02306&#45;&gt;dir_9be0baa3d4a3e9f480a9ee70594037fa -->
<g id="edge2" class="edge">
<title>dir_93782aa3b15333f5f3e250c044e02306&#45;&gt;dir_9be0baa3d4a3e9f480a9ee70594037fa</title>
<path fill="none" stroke="#63b8ff" d="M54.07,-81.21C73.73,-73.01 108.64,-58.44 134.27,-47.74"/>
<polygon fill="#63b8ff" stroke="#63b8ff" points="135.33,-51.09 143.21,-44.01 132.63,-44.63 135.33,-51.09"/>
<g id="a_edge2&#45;headlabel"><a xlink:href="dir_000312_000166.html" target="_top" xlink:title="10">
<text text-anchor="middle" x="134.5" y="-52.01" font-family="Helvetica,sans-Serif" font-size="10.00" fill="#63b8ff">10</text>
</a>
</g>
</g>
<!-- dir_bdd9a5d540de89e9fe90efdfc6973a4f -->
<g id="node5" class="node">
<title>dir_bdd9a5d540de89e9fe90efdfc6973a4f</title>
<g id="a_node5"><a xlink:href="dir_bdd9a5d540de89e9fe90efdfc6973a4f.html" target="_top" xlink:title="common">
<polygon fill="#deebf9" stroke="red" points="260,-43 206,-43 206,-24 260,-24 260,-43"/>
<text text-anchor="middle" x="233" y="-31" font-family="Helvetica,sans-Serif" font-size="10.00">common</text>
</a>
</g>
</g>
<!-- dir_93782aa3b15333f5f3e250c044e02306&#45;&gt;dir_bdd9a5d540de89e9fe90efdfc6973a4f -->
<g id="edge3" class="edge">
<title>dir_93782aa3b15333f5f3e250c044e02306&#45;&gt;dir_bdd9a5d540de89e9fe90efdfc6973a4f</title>
<path fill="none" stroke="#63b8ff" d="M54.28,-82.11C57.48,-81.04 60.84,-79.95 64,-79 108.5,-65.59 160.26,-52.3 194.65,-43.78"/>
<polygon fill="#63b8ff" stroke="#63b8ff" points="195.27,-47.23 204.14,-41.44 193.6,-40.44 195.27,-47.23"/>
<g id="a_edge3&#45;headlabel"><a xlink:href="dir_000312_000024.html" target="_top" xlink:title="1">
<text text-anchor="middle" x="193.93" y="-47.99" font-family="Helvetica,sans-Serif" font-size="10.00" fill="#63b8ff">1</text>
</a>
</g>
</g>
</g>
</svg>
