<?xml version="1.0" encoding="UTF-8" standalone="no"?>
<!DOCTYPE svg PUBLIC "-//W3C//DTD SVG 1.1//EN"
 "http://www.w3.org/Graphics/SVG/1.1/DTD/svg11.dtd">
<!-- Generated by graphviz version 7.0.5 (20221223.1930)
 -->
<!-- Title: iop/fs/libbdm/src Pages: 1 -->
<svg width="196pt" height="141pt"
 viewBox="0.00 0.00 195.50 141.00" xmlns="http://www.w3.org/2000/svg" xmlns:xlink="http://www.w3.org/1999/xlink">
<g id="graph0" class="graph" transform="scale(1 1) rotate(0) translate(4 137)">
<title>iop/fs/libbdm/src</title>
<g id="clust1" class="cluster">
<title>clusterdir_10cce8191a2d4629e92aaca1231c0797</title>
<g id="a_clust1"><a xlink:href="dir_10cce8191a2d4629e92aaca1231c0797.html" target="_top" xlink:title="libbdm">
<polygon fill="#deebf9" stroke="#7f7f7f" stroke-dasharray="5,2" points="8,-8 8,-125 136,-125 136,-8 8,-8"/>
<text text-anchor="middle" x="72" y="-113" font-family="Helvetica,sans-Serif" font-size="10.00">libbdm</text>
</a>
</g>
</g>
<g id="clust2" class="cluster">
<title>clusterdir_180e179e842835315c1a0a2fde604530</title>
<g id="a_clust2"><a xlink:href="dir_180e179e842835315c1a0a2fde604530.html" target="_top">
<polygon fill="#deebf9" stroke="#404040" stroke-width="2" points="16,-63 16,-98 128,-98 128,-63 16,-63"/>
</a>
</g>
</g>
<!-- dir_79cc41b78d650d94271256f66f3b3a8f -->
<g id="node1" class="node">
<title>dir_79cc41b78d650d94271256f66f3b3a8f</title>
<g id="a_node1"><a xlink:href="dir_79cc41b78d650d94271256f66f3b3a8f.html" target="_top" xlink:title="include">
<polygon fill="#60a2e3" stroke="#404040" points="63.5,-35 16.5,-35 16.5,-16 63.5,-16 63.5,-35"/>
<text text-anchor="middle" x="40" y="-23" font-family="Helvetica,sans-Serif" font-size="10.00">include</text>
</a>
</g>
</g>
<!-- dir_180e179e842835315c1a0a2fde604530 -->
<g id="node2" class="node">
<title>dir_180e179e842835315c1a0a2fde604530</title>
<text text-anchor="middle" x="39" y="-78" font-family="Helvetica,sans-Serif" font-size="10.00">src</text>
</g>
<!-- dir_180e179e842835315c1a0a2fde604530&#45;&gt;dir_79cc41b78d650d94271256f66f3b3a8f -->
<g id="edge1" class="edge">
<title>dir_180e179e842835315c1a0a2fde604530&#45;&gt;dir_79cc41b78d650d94271256f66f3b3a8f</title>
<path fill="none" stroke="#63b8ff" d="M39.16,-71.22C39.28,-64.65 39.46,-55.18 39.62,-46.64"/>
<polygon fill="#63b8ff" stroke="#63b8ff" points="43.12,-46.83 39.81,-36.77 36.12,-46.7 43.12,-46.83"/>
<g id="a_edge1&#45;headlabel"><a xlink:href="dir_000310_000121.html" target="_top" xlink:title="2">
<text text-anchor="middle" x="45.92" y="-46.46" font-family="Helvetica,sans-Serif" font-size="10.00" fill="#63b8ff">2</text>
</a>
</g>
</g>
<!-- dir_9be0baa3d4a3e9f480a9ee70594037fa -->
<g id="node4" class="node">
<title>dir_9be0baa3d4a3e9f480a9ee70594037fa</title>
<g id="a_node4"><a xlink:href="dir_9be0baa3d4a3e9f480a9ee70594037fa.html" target="_top" xlink:title="kernel">
<polygon fill="#deebf9" stroke="red" stroke-dasharray="5,2" points="187.5,-35 144.5,-35 144.5,-16 187.5,-16 187.5,-35"/>
<text text-anchor="middle" x="166" y="-23" font-family="Helvetica,sans-Serif" font-size="10.00">kernel</text>
</a>
</g>
</g>
<!-- dir_180e179e842835315c1a0a2fde604530&#45;&gt;dir_9be0baa3d4a3e9f480a9ee70594037fa -->
<g id="edge2" class="edge">
<title>dir_180e179e842835315c1a0a2fde604530&#45;&gt;dir_9be0baa3d4a3e9f480a9ee70594037fa</title>
<path fill="none" stroke="#63b8ff" d="M49.86,-71.14C53.85,-68.32 58.5,-65.3 63,-63 69.54,-59.67 105.78,-47.04 133.44,-37.56"/>
<polygon fill="#63b8ff" stroke="#63b8ff" points="134.53,-40.89 142.86,-34.34 132.26,-34.26 134.53,-40.89"/>
<g id="a_edge2&#45;headlabel"><a xlink:href="dir_000310_000166.html" target="_top" xlink:title="2">
<text text-anchor="middle" x="133.47" y="-41.75" font-family="Helvetica,sans-Serif" font-size="10.00" fill="#63b8ff">2</text>
</a>
</g>
</g>
<!-- dir_091fb412ea895ba245469a0ae307f42f -->
<g id="node3" class="node">
<title>dir_091fb412ea895ba245469a0ae307f42f</title>
<g id="a_node3"><a xlink:href="dir_091fb412ea895ba245469a0ae307f42f.html" target="_top" xlink:title="include">
<polygon fill="#60a2e3" stroke="#404040" points="119.5,-90 72.5,-90 72.5,-71 119.5,-71 119.5,-90"/>
<text text-anchor="middle" x="96" y="-78" font-family="Helvetica,sans-Serif" font-size="10.00">include</text>
</a>
</g>
</g>
<!-- dir_091fb412ea895ba245469a0ae307f42f&#45;&gt;dir_9be0baa3d4a3e9f480a9ee70594037fa -->
<g id="edge3" class="edge">
<title>dir_091fb412ea895ba245469a0ae307f42f&#45;&gt;dir_9be0baa3d4a3e9f480a9ee70594037fa</title>
<path fill="none" stroke="#63b8ff" d="M107.87,-70.51C118.09,-62.77 133.07,-51.43 145.26,-42.2"/>
<polygon fill="#63b8ff" stroke="#63b8ff" points="147.23,-45.1 153.09,-36.27 143.01,-39.52 147.23,-45.1"/>
<g id="a_edge3&#45;headlabel"><a xlink:href="dir_000122_000166.html" target="_top" xlink:title="1">
<text text-anchor="middle" x="147.29" y="-46.12" font-family="Helvetica,sans-Serif" font-size="10.00" fill="#63b8ff">1</text>
</a>
</g>
</g>
</g>
</svg>
