<?xml version="1.0" encoding="UTF-8" standalone="no"?>
<!DOCTYPE svg PUBLIC "-//W3C//DTD SVG 1.1//EN"
 "http://www.w3.org/Graphics/SVG/1.1/DTD/svg11.dtd">
<!-- Generated by graphviz version 7.0.5 (20221223.1930)
 -->
<!-- Title: ee/eedebug Pages: 1 -->
<svg width="257pt" height="180pt"
 viewBox="0.00 0.00 257.00 180.00" xmlns="http://www.w3.org/2000/svg" xmlns:xlink="http://www.w3.org/1999/xlink">
<g id="graph0" class="graph" transform="scale(1 1) rotate(0) translate(4 176)">
<title>ee/eedebug</title>
<g id="clust1" class="cluster">
<title>clusterdir_049738f1909e8dc3e45fe1f6b3faa109</title>
<g id="a_clust1"><a xlink:href="dir_049738f1909e8dc3e45fe1f6b3faa109.html" target="_top" xlink:title="ee">
<polygon fill="#deebf9" stroke="#404040" stroke-dasharray="5,2" points="8,-39 8,-164 241,-164 241,-39 8,-39"/>
<text text-anchor="middle" x="124.5" y="-152" font-family="Helvetica,sans-Serif" font-size="10.00">ee</text>
</a>
</g>
</g>
<g id="clust2" class="cluster">
<title>clusterdir_650207f478e190855aca53e9453b1a94</title>
<g id="a_clust2"><a xlink:href="dir_650207f478e190855aca53e9453b1a94.html" target="_top">
<polygon fill="#deebf9" stroke="#404040" stroke-width="2" points="16,-47 16,-137 134,-137 134,-47 16,-47"/>
</a>
</g>
</g>
<!-- dir_694ec83a64f58cbdefbefce65cd1011c -->
<g id="node1" class="node">
<title>dir_694ec83a64f58cbdefbefce65cd1011c</title>
<g id="a_node1"><a xlink:href="dir_694ec83a64f58cbdefbefce65cd1011c.html" target="_top" xlink:title="kernel">
<polygon fill="#60a2e3" stroke="red" points="185.5,-74 142.5,-74 142.5,-55 185.5,-55 185.5,-74"/>
<text text-anchor="middle" x="164" y="-62" font-family="Helvetica,sans-Serif" font-size="10.00">kernel</text>
</a>
</g>
</g>
<!-- dir_a0a8ac7efb6662b749c1285408048e6d -->
<g id="node2" class="node">
<title>dir_a0a8ac7efb6662b749c1285408048e6d</title>
<g id="a_node2"><a xlink:href="dir_a0a8ac7efb6662b749c1285408048e6d.html" target="_top" xlink:title="erl">
<polygon fill="#60a2e3" stroke="red" points="232.5,-74 203.5,-74 203.5,-55 232.5,-55 232.5,-74"/>
<text text-anchor="middle" x="218" y="-62" font-family="Helvetica,sans-Serif" font-size="10.00">erl</text>
</a>
</g>
</g>
<!-- dir_650207f478e190855aca53e9453b1a94 -->
<g id="node3" class="node">
<title>dir_650207f478e190855aca53e9453b1a94</title>
<text text-anchor="middle" x="99" y="-117" font-family="Helvetica,sans-Serif" font-size="10.00">eedebug</text>
</g>
<!-- dir_60b92096f37991a4061e29e96b6ea950 -->
<g id="node4" class="node">
<title>dir_60b92096f37991a4061e29e96b6ea950</title>
<g id="a_node4"><a xlink:href="dir_60b92096f37991a4061e29e96b6ea950.html" target="_top" xlink:title="include">
<polygon fill="#60a2e3" stroke="#404040" points="71.5,-74 24.5,-74 24.5,-55 71.5,-55 71.5,-74"/>
<text text-anchor="middle" x="48" y="-62" font-family="Helvetica,sans-Serif" font-size="10.00">include</text>
</a>
</g>
</g>
<!-- dir_bdd9a5d540de89e9fe90efdfc6973a4f -->
<g id="node6" class="node">
<title>dir_bdd9a5d540de89e9fe90efdfc6973a4f</title>
<g id="a_node6"><a xlink:href="dir_bdd9a5d540de89e9fe90efdfc6973a4f.html" target="_top" xlink:title="common">
<polygon fill="#deebf9" stroke="red" points="75,-19 21,-19 21,0 75,0 75,-19"/>
<text text-anchor="middle" x="48" y="-7" font-family="Helvetica,sans-Serif" font-size="10.00">common</text>
</a>
</g>
</g>
<!-- dir_60b92096f37991a4061e29e96b6ea950&#45;&gt;dir_bdd9a5d540de89e9fe90efdfc6973a4f -->
<g id="edge1" class="edge">
<title>dir_60b92096f37991a4061e29e96b6ea950&#45;&gt;dir_bdd9a5d540de89e9fe90efdfc6973a4f</title>
<path fill="none" stroke="#63b8ff" d="M48,-54.75C48,-48.27 48,-39.16 48,-30.9"/>
<polygon fill="#63b8ff" stroke="#63b8ff" points="51.5,-30.96 48,-20.96 44.5,-30.96 51.5,-30.96"/>
<g id="a_edge1&#45;headlabel"><a xlink:href="dir_000071_000024.html" target="_top" xlink:title="3">
<text text-anchor="middle" x="54.34" y="-30.54" font-family="Helvetica,sans-Serif" font-size="10.00" fill="#63b8ff">3</text>
</a>
</g>
</g>
<!-- dir_60c0b0581c07fba9514a94139971315c -->
<g id="node5" class="node">
<title>dir_60c0b0581c07fba9514a94139971315c</title>
<g id="a_node5"><a xlink:href="dir_60c0b0581c07fba9514a94139971315c.html" target="_top" xlink:title="src">
<polygon fill="#60a2e3" stroke="#404040" points="54,-129 24,-129 24,-110 54,-110 54,-129"/>
<text text-anchor="middle" x="39" y="-117" font-family="Helvetica,sans-Serif" font-size="10.00">src</text>
</a>
</g>
</g>
<!-- dir_60c0b0581c07fba9514a94139971315c&#45;&gt;dir_694ec83a64f58cbdefbefce65cd1011c -->
<g id="edge3" class="edge">
<title>dir_60c0b0581c07fba9514a94139971315c&#45;&gt;dir_694ec83a64f58cbdefbefce65cd1011c</title>
<path fill="none" stroke="#63b8ff" d="M54.33,-112C73.75,-103.77 107.7,-89.37 132.7,-78.77"/>
<polygon fill="#63b8ff" stroke="#63b8ff" points="133.9,-82.07 141.74,-74.94 131.16,-75.62 133.9,-82.07"/>
<g id="a_edge3&#45;headlabel"><a xlink:href="dir_000241_000165.html" target="_top" xlink:title="1">
<text text-anchor="middle" x="133.09" y="-82.99" font-family="Helvetica,sans-Serif" font-size="10.00" fill="#63b8ff">1</text>
</a>
</g>
</g>
<!-- dir_60c0b0581c07fba9514a94139971315c&#45;&gt;dir_a0a8ac7efb6662b749c1285408048e6d -->
<g id="edge4" class="edge">
<title>dir_60c0b0581c07fba9514a94139971315c&#45;&gt;dir_a0a8ac7efb6662b749c1285408048e6d</title>
<path fill="none" stroke="#63b8ff" d="M54.29,-113.14C57.49,-112.07 60.84,-110.97 64,-110 118.45,-93.28 135.59,-92.52 192.73,-74.52"/>
<polygon fill="#63b8ff" stroke="#63b8ff" points="193.56,-77.93 202.02,-71.55 191.43,-71.26 193.56,-77.93"/>
<g id="a_edge4&#45;headlabel"><a xlink:href="dir_000241_000045.html" target="_top" xlink:title="1">
<text text-anchor="middle" x="192.45" y="-78.77" font-family="Helvetica,sans-Serif" font-size="10.00" fill="#63b8ff">1</text>
</a>
</g>
</g>
<!-- dir_60c0b0581c07fba9514a94139971315c&#45;&gt;dir_60b92096f37991a4061e29e96b6ea950 -->
<g id="edge2" class="edge">
<title>dir_60c0b0581c07fba9514a94139971315c&#45;&gt;dir_60b92096f37991a4061e29e96b6ea950</title>
<path fill="none" stroke="#63b8ff" d="M40.49,-109.75C41.6,-103.19 43.17,-93.95 44.59,-85.6"/>
<polygon fill="#63b8ff" stroke="#63b8ff" points="48,-86.38 46.23,-75.93 41.1,-85.21 48,-86.38"/>
<g id="a_edge2&#45;headlabel"><a xlink:href="dir_000241_000071.html" target="_top" xlink:title="1">
<text text-anchor="middle" x="50.46" y="-86.41" font-family="Helvetica,sans-Serif" font-size="10.00" fill="#63b8ff">1</text>
</a>
</g>
</g>
</g>
</svg>
