<?xml version="1.0" encoding="UTF-8" standalone="no"?>
<!DOCTYPE svg PUBLIC "-//W3C//DTD SVG 1.1//EN"
 "http://www.w3.org/Graphics/SVG/1.1/DTD/svg11.dtd">
<!-- Generated by graphviz version 7.0.5 (20221223.1930)
 -->
<!-- Title: iop/dev9 Pages: 1 -->
<svg width="332pt" height="251pt"
 viewBox="0.00 0.00 332.20 251.00" xmlns="http://www.w3.org/2000/svg" xmlns:xlink="http://www.w3.org/1999/xlink">
<g id="graph0" class="graph" transform="scale(1 1) rotate(0) translate(4 247)">
<title>iop/dev9</title>
<g id="clust1" class="cluster">
<title>clusterdir_0981ace215aa2029f526b70c145b9fbe</title>
<g id="a_clust1"><a xlink:href="dir_0981ace215aa2029f526b70c145b9fbe.html" target="_top" xlink:title="iop">
<polygon fill="#deebf9" stroke="#404040" stroke-dasharray="5,2" points="8,-8 8,-235 238,-235 238,-8 8,-8"/>
<text text-anchor="middle" x="123" y="-223" font-family="Helvetica,sans-Serif" font-size="10.00">iop</text>
</a>
</g>
</g>
<g id="clust2" class="cluster">
<title>clusterdir_6f16cad81de2453a6f48c5e272ba4a18</title>
<g id="a_clust2"><a xlink:href="dir_6f16cad81de2453a6f48c5e272ba4a18.html" target="_top">
<polygon fill="#deebf9" stroke="#404040" stroke-width="2" points="21,-63 21,-208 230,-208 230,-63 21,-63"/>
</a>
</g>
</g>
<!-- dir_9be0baa3d4a3e9f480a9ee70594037fa -->
<g id="node1" class="node">
<title>dir_9be0baa3d4a3e9f480a9ee70594037fa</title>
<g id="a_node1"><a xlink:href="dir_9be0baa3d4a3e9f480a9ee70594037fa.html" target="_top" xlink:title="kernel">
<polygon fill="#60a2e3" stroke="red" points="88.5,-35 45.5,-35 45.5,-16 88.5,-16 88.5,-35"/>
<text text-anchor="middle" x="67" y="-23" font-family="Helvetica,sans-Serif" font-size="10.00">kernel</text>
</a>
</g>
</g>
<!-- dir_6f16cad81de2453a6f48c5e272ba4a18 -->
<g id="node2" class="node">
<title>dir_6f16cad81de2453a6f48c5e272ba4a18</title>
<text text-anchor="middle" x="203" y="-188" font-family="Helvetica,sans-Serif" font-size="10.00">dev9</text>
</g>
<!-- dir_c9fad5ea75093c7356ef5f2b903232b1 -->
<g id="node3" class="node">
<title>dir_c9fad5ea75093c7356ef5f2b903232b1</title>
<g id="a_node3"><a xlink:href="dir_c9fad5ea75093c7356ef5f2b903232b1.html" target="_top" xlink:title="atad">
<polygon fill="#60a2e3" stroke="#404040" points="153.5,-145 118.5,-145 118.5,-126 153.5,-126 153.5,-145"/>
<text text-anchor="middle" x="136" y="-133" font-family="Helvetica,sans-Serif" font-size="10.00">atad</text>
</a>
</g>
</g>
<!-- dir_c9fad5ea75093c7356ef5f2b903232b1&#45;&gt;dir_9be0baa3d4a3e9f480a9ee70594037fa -->
<g id="edge1" class="edge">
<title>dir_c9fad5ea75093c7356ef5f2b903232b1&#45;&gt;dir_9be0baa3d4a3e9f480a9ee70594037fa</title>
<path fill="none" stroke="#63b8ff" d="M124.96,-125.61C115.2,-117.27 101.13,-104.02 92,-90 83.18,-76.46 76.66,-59.32 72.49,-46.26"/>
<polygon fill="#63b8ff" stroke="#63b8ff" points="75.86,-45.28 69.65,-36.69 69.14,-47.28 75.86,-45.28"/>
<g id="a_edge1&#45;headlabel"><a xlink:href="dir_000010_000166.html" target="_top" xlink:title="14">
<text text-anchor="middle" x="79.17" y="-43.97" font-family="Helvetica,sans-Serif" font-size="10.00" fill="#63b8ff">14</text>
</a>
</g>
</g>
<!-- dir_18566863331aaba44604539ca78be099 -->
<g id="node4" class="node">
<title>dir_18566863331aaba44604539ca78be099</title>
<g id="a_node4"><a xlink:href="dir_18566863331aaba44604539ca78be099.html" target="_top" xlink:title="dev9">
<polygon fill="#60a2e3" stroke="#404040" points="154,-90 116,-90 116,-71 154,-71 154,-90"/>
<text text-anchor="middle" x="135" y="-78" font-family="Helvetica,sans-Serif" font-size="10.00">dev9</text>
</a>
</g>
</g>
<!-- dir_c9fad5ea75093c7356ef5f2b903232b1&#45;&gt;dir_18566863331aaba44604539ca78be099 -->
<g id="edge2" class="edge">
<title>dir_c9fad5ea75093c7356ef5f2b903232b1&#45;&gt;dir_18566863331aaba44604539ca78be099</title>
<path fill="none" stroke="#63b8ff" d="M135.83,-125.75C135.71,-119.27 135.54,-110.16 135.38,-101.9"/>
<polygon fill="#63b8ff" stroke="#63b8ff" points="138.89,-101.89 135.2,-91.96 131.89,-102.02 138.89,-101.89"/>
<g id="a_edge2&#45;headlabel"><a xlink:href="dir_000010_000029.html" target="_top" xlink:title="2">
<text text-anchor="middle" x="141.76" y="-101.41" font-family="Helvetica,sans-Serif" font-size="10.00" fill="#63b8ff">2</text>
</a>
</g>
</g>
<!-- dir_bdd9a5d540de89e9fe90efdfc6973a4f -->
<g id="node9" class="node">
<title>dir_bdd9a5d540de89e9fe90efdfc6973a4f</title>
<g id="a_node9"><a xlink:href="dir_bdd9a5d540de89e9fe90efdfc6973a4f.html" target="_top" xlink:title="common">
<polygon fill="#deebf9" stroke="red" points="300,-35 246,-35 246,-16 300,-16 300,-35"/>
<text text-anchor="middle" x="273" y="-23" font-family="Helvetica,sans-Serif" font-size="10.00">common</text>
</a>
</g>
</g>
<!-- dir_c9fad5ea75093c7356ef5f2b903232b1&#45;&gt;dir_bdd9a5d540de89e9fe90efdfc6973a4f -->
<g id="edge3" class="edge">
<title>dir_c9fad5ea75093c7356ef5f2b903232b1&#45;&gt;dir_bdd9a5d540de89e9fe90efdfc6973a4f</title>
<path fill="none" stroke="#63b8ff" d="M148.09,-125.81C160.31,-116.97 179.66,-102.79 196,-90 216.12,-74.26 238.6,-55.59 254.05,-42.59"/>
<polygon fill="#63b8ff" stroke="#63b8ff" points="256.14,-45.4 261.52,-36.28 251.62,-40.06 256.14,-45.4"/>
<g id="a_edge3&#45;headlabel"><a xlink:href="dir_000010_000024.html" target="_top" xlink:title="2">
<text text-anchor="middle" x="256.38" y="-46.42" font-family="Helvetica,sans-Serif" font-size="10.00" fill="#63b8ff">2</text>
</a>
</g>
</g>
<!-- dir_18566863331aaba44604539ca78be099&#45;&gt;dir_9be0baa3d4a3e9f480a9ee70594037fa -->
<g id="edge4" class="edge">
<title>dir_18566863331aaba44604539ca78be099&#45;&gt;dir_9be0baa3d4a3e9f480a9ee70594037fa</title>
<path fill="none" stroke="#63b8ff" d="M123.46,-70.51C113.54,-62.77 98.99,-51.43 87.14,-42.2"/>
<polygon fill="#63b8ff" stroke="#63b8ff" points="89.6,-39.68 79.56,-36.29 85.29,-45.2 89.6,-39.68"/>
<g id="a_edge4&#45;headlabel"><a xlink:href="dir_000029_000166.html" target="_top" xlink:title="19">
<text text-anchor="middle" x="92.98" y="-36.22" font-family="Helvetica,sans-Serif" font-size="10.00" fill="#63b8ff">19</text>
</a>
</g>
</g>
<!-- dir_18566863331aaba44604539ca78be099&#45;&gt;dir_bdd9a5d540de89e9fe90efdfc6973a4f -->
<g id="edge5" class="edge">
<title>dir_18566863331aaba44604539ca78be099&#45;&gt;dir_bdd9a5d540de89e9fe90efdfc6973a4f</title>
<path fill="none" stroke="#63b8ff" d="M151.93,-70.51C157.03,-67.94 162.69,-65.24 168,-63 189.8,-53.8 214.81,-45.04 234.95,-38.41"/>
<polygon fill="#63b8ff" stroke="#63b8ff" points="236.01,-41.75 244.44,-35.33 233.85,-35.09 236.01,-41.75"/>
<g id="a_edge5&#45;headlabel"><a xlink:href="dir_000029_000024.html" target="_top" xlink:title="5">
<text text-anchor="middle" x="234.91" y="-42.59" font-family="Helvetica,sans-Serif" font-size="10.00" fill="#63b8ff">5</text>
</a>
</g>
</g>
<!-- dir_f44f46f2cd21d59a913dd7de442a4869 -->
<g id="node5" class="node">
<title>dir_f44f46f2cd21d59a913dd7de442a4869</title>
<g id="a_node5"><a xlink:href="dir_f44f46f2cd21d59a913dd7de442a4869.html" target="_top" xlink:title="extflash">
<polygon fill="#60a2e3" stroke="#404040" points="222,-145 172,-145 172,-126 222,-126 222,-145"/>
<text text-anchor="middle" x="197" y="-133" font-family="Helvetica,sans-Serif" font-size="10.00">extflash</text>
</a>
</g>
</g>
<!-- dir_f44f46f2cd21d59a913dd7de442a4869&#45;&gt;dir_9be0baa3d4a3e9f480a9ee70594037fa -->
<g id="edge6" class="edge">
<title>dir_f44f46f2cd21d59a913dd7de442a4869&#45;&gt;dir_9be0baa3d4a3e9f480a9ee70594037fa</title>
<path fill="none" stroke="#63b8ff" d="M171.77,-126.5C152.31,-119.34 125.66,-107.3 107,-90 96.77,-80.52 98.39,-74.83 91,-63 87.28,-57.05 83.12,-50.63 79.32,-44.87"/>
<polygon fill="#63b8ff" stroke="#63b8ff" points="82.33,-43.07 73.87,-36.68 76.5,-46.95 82.33,-43.07"/>
<g id="a_edge6&#45;headlabel"><a xlink:href="dir_000047_000166.html" target="_top" xlink:title="19">
<text text-anchor="middle" x="85.84" y="-40.73" font-family="Helvetica,sans-Serif" font-size="10.00" fill="#63b8ff">19</text>
</a>
</g>
</g>
<!-- dir_f44f46f2cd21d59a913dd7de442a4869&#45;&gt;dir_18566863331aaba44604539ca78be099 -->
<g id="edge8" class="edge">
<title>dir_f44f46f2cd21d59a913dd7de442a4869&#45;&gt;dir_18566863331aaba44604539ca78be099</title>
<path fill="none" stroke="#63b8ff" d="M186.48,-125.51C177.61,-117.93 164.69,-106.88 154.01,-97.75"/>
<polygon fill="#63b8ff" stroke="#63b8ff" points="156.39,-95.18 146.51,-91.34 151.84,-100.5 156.39,-95.18"/>
<g id="a_edge8&#45;headlabel"><a xlink:href="dir_000047_000029.html" target="_top" xlink:title="1">
<text text-anchor="middle" x="159.81" y="-91.87" font-family="Helvetica,sans-Serif" font-size="10.00" fill="#63b8ff">1</text>
</a>
</g>
</g>
<!-- dir_f44f46f2cd21d59a913dd7de442a4869&#45;&gt;dir_bdd9a5d540de89e9fe90efdfc6973a4f -->
<g id="edge7" class="edge">
<title>dir_f44f46f2cd21d59a913dd7de442a4869&#45;&gt;dir_bdd9a5d540de89e9fe90efdfc6973a4f</title>
<path fill="none" stroke="#63b8ff" d="M205.05,-125.6C212.82,-116.83 224.75,-102.9 234,-90 244.49,-75.38 255.09,-57.91 262.59,-44.99"/>
<polygon fill="#63b8ff" stroke="#63b8ff" points="265.4,-47.11 267.33,-36.69 259.33,-43.64 265.4,-47.11"/>
<g id="a_edge7&#45;headlabel"><a xlink:href="dir_000047_000024.html" target="_top" xlink:title="2">
<text text-anchor="middle" x="266.84" y="-47.83" font-family="Helvetica,sans-Serif" font-size="10.00" fill="#63b8ff">2</text>
</a>
</g>
</g>
<!-- dir_7e10c943c08a69732df0d9710348ffa0 -->
<g id="node6" class="node">
<title>dir_7e10c943c08a69732df0d9710348ffa0</title>
<g id="a_node6"><a xlink:href="dir_7e10c943c08a69732df0d9710348ffa0.html" target="_top" xlink:title="hdpro_atad">
<polygon fill="#60a2e3" stroke="#404040" points="165.5,-200 100.5,-200 100.5,-181 165.5,-181 165.5,-200"/>
<text text-anchor="middle" x="133" y="-188" font-family="Helvetica,sans-Serif" font-size="10.00">hdpro_atad</text>
</a>
</g>
</g>
<!-- dir_7e10c943c08a69732df0d9710348ffa0&#45;&gt;dir_9be0baa3d4a3e9f480a9ee70594037fa -->
<g id="edge9" class="edge">
<title>dir_7e10c943c08a69732df0d9710348ffa0&#45;&gt;dir_9be0baa3d4a3e9f480a9ee70594037fa</title>
<path fill="none" stroke="#63b8ff" d="M100.13,-181.64C81.04,-175.2 58.54,-163.96 47,-145 28.09,-113.92 44.22,-70.2 56.43,-45.48"/>
<polygon fill="#63b8ff" stroke="#63b8ff" points="59.53,-47.11 61.08,-36.63 53.33,-43.85 59.53,-47.11"/>
<g id="a_edge9&#45;headlabel"><a xlink:href="dir_000059_000166.html" target="_top" xlink:title="15">
<text text-anchor="middle" x="61.07" y="-47.77" font-family="Helvetica,sans-Serif" font-size="10.00" fill="#63b8ff">15</text>
</a>
</g>
</g>
<!-- dir_7e10c943c08a69732df0d9710348ffa0&#45;&gt;dir_c9fad5ea75093c7356ef5f2b903232b1 -->
<g id="edge10" class="edge">
<title>dir_7e10c943c08a69732df0d9710348ffa0&#45;&gt;dir_c9fad5ea75093c7356ef5f2b903232b1</title>
<path fill="none" stroke="#63b8ff" d="M133.5,-180.75C133.86,-174.27 134.38,-165.16 134.85,-156.9"/>
<polygon fill="#63b8ff" stroke="#63b8ff" points="138.34,-157.13 135.41,-146.95 131.35,-156.74 138.34,-157.13"/>
<g id="a_edge10&#45;headlabel"><a xlink:href="dir_000059_000010.html" target="_top" xlink:title="1">
<text text-anchor="middle" x="141.05" y="-156.87" font-family="Helvetica,sans-Serif" font-size="10.00" fill="#63b8ff">1</text>
</a>
</g>
</g>
<!-- dir_7e10c943c08a69732df0d9710348ffa0&#45;&gt;dir_bdd9a5d540de89e9fe90efdfc6973a4f -->
<g id="edge11" class="edge">
<title>dir_7e10c943c08a69732df0d9710348ffa0&#45;&gt;dir_bdd9a5d540de89e9fe90efdfc6973a4f</title>
<path fill="none" stroke="#63b8ff" d="M165.66,-182.37C215.55,-171.33 305.51,-150.76 310,-145 332.41,-116.26 324.06,-96.62 310,-63 306.77,-55.28 301.03,-48.37 295.02,-42.68"/>
<polygon fill="#63b8ff" stroke="#63b8ff" points="297.33,-40.05 287.43,-36.27 292.81,-45.4 297.33,-40.05"/>
<g id="a_edge11&#45;headlabel"><a xlink:href="dir_000059_000024.html" target="_top" xlink:title="1">
<text text-anchor="middle" x="300.75" y="-36.73" font-family="Helvetica,sans-Serif" font-size="10.00" fill="#63b8ff">1</text>
</a>
</g>
</g>
<!-- dir_6c63d3a31e7cac2d832eb76295920122 -->
<g id="node7" class="node">
<title>dir_6c63d3a31e7cac2d832eb76295920122</title>
<g id="a_node7"><a xlink:href="dir_6c63d3a31e7cac2d832eb76295920122.html" target="_top" xlink:title="poweroff">
<polygon fill="#60a2e3" stroke="#404040" points="82.5,-200 29.5,-200 29.5,-181 82.5,-181 82.5,-200"/>
<text text-anchor="middle" x="56" y="-188" font-family="Helvetica,sans-Serif" font-size="10.00">poweroff</text>
</a>
</g>
</g>
<!-- dir_6c63d3a31e7cac2d832eb76295920122&#45;&gt;dir_9be0baa3d4a3e9f480a9ee70594037fa -->
<g id="edge12" class="edge">
<title>dir_6c63d3a31e7cac2d832eb76295920122&#45;&gt;dir_9be0baa3d4a3e9f480a9ee70594037fa</title>
<path fill="none" stroke="#63b8ff" d="M49.41,-180.51C43.53,-171.9 35.35,-158.28 32,-145 23.08,-109.66 18.41,-96.81 32,-63 35.04,-55.45 40.46,-48.58 46.15,-42.89"/>
<polygon fill="#63b8ff" stroke="#63b8ff" points="48.2,-45.75 53.3,-36.46 43.52,-40.54 48.2,-45.75"/>
<g id="a_edge12&#45;headlabel"><a xlink:href="dir_000210_000166.html" target="_top" xlink:title="15">
<text text-anchor="middle" x="48.55" y="-46.75" font-family="Helvetica,sans-Serif" font-size="10.00" fill="#63b8ff">15</text>
</a>
</g>
</g>
<!-- dir_6c63d3a31e7cac2d832eb76295920122&#45;&gt;dir_bdd9a5d540de89e9fe90efdfc6973a4f -->
<g id="edge13" class="edge">
<title>dir_6c63d3a31e7cac2d832eb76295920122&#45;&gt;dir_bdd9a5d540de89e9fe90efdfc6973a4f</title>
<path fill="none" stroke="#63b8ff" d="M82.8,-183C131.11,-171.23 228.1,-147.39 231,-145 260.68,-120.55 269.4,-73.63 271.95,-46.75"/>
<polygon fill="#63b8ff" stroke="#63b8ff" points="275.44,-47.08 272.67,-36.86 268.46,-46.58 275.44,-47.08"/>
<g id="a_edge13&#45;headlabel"><a xlink:href="dir_000210_000024.html" target="_top" xlink:title="1">
<text text-anchor="middle" x="278.12" y="-46.86" font-family="Helvetica,sans-Serif" font-size="10.00" fill="#63b8ff">1</text>
</a>
</g>
</g>
<!-- dir_965b04ab41d8424e7ba3e3f78bb2fea4 -->
<g id="node8" class="node">
<title>dir_965b04ab41d8424e7ba3e3f78bb2fea4</title>
<g id="a_node8"><a xlink:href="dir_965b04ab41d8424e7ba3e3f78bb2fea4.html" target="_top" xlink:title="pvrdrv">
<polygon fill="#60a2e3" stroke="#404040" points="100,-145 56,-145 56,-126 100,-126 100,-145"/>
<text text-anchor="middle" x="78" y="-133" font-family="Helvetica,sans-Serif" font-size="10.00">pvrdrv</text>
</a>
</g>
</g>
<!-- dir_965b04ab41d8424e7ba3e3f78bb2fea4&#45;&gt;dir_9be0baa3d4a3e9f480a9ee70594037fa -->
<g id="edge14" class="edge">
<title>dir_965b04ab41d8424e7ba3e3f78bb2fea4&#45;&gt;dir_9be0baa3d4a3e9f480a9ee70594037fa</title>
<path fill="none" stroke="#63b8ff" d="M76.66,-125.65C75.34,-116.68 73.32,-102.4 72,-90 70.45,-75.47 69.17,-59.03 68.29,-46.51"/>
<polygon fill="#63b8ff" stroke="#63b8ff" points="71.79,-46.4 67.63,-36.65 64.81,-46.86 71.79,-46.4"/>
<g id="a_edge14&#45;headlabel"><a xlink:href="dir_000215_000166.html" target="_top" xlink:title="15">
<text text-anchor="middle" x="74.76" y="-45.78" font-family="Helvetica,sans-Serif" font-size="10.00" fill="#63b8ff">15</text>
</a>
</g>
</g>
<!-- dir_965b04ab41d8424e7ba3e3f78bb2fea4&#45;&gt;dir_18566863331aaba44604539ca78be099 -->
<g id="edge16" class="edge">
<title>dir_965b04ab41d8424e7ba3e3f78bb2fea4&#45;&gt;dir_18566863331aaba44604539ca78be099</title>
<path fill="none" stroke="#63b8ff" d="M87.67,-125.51C95.74,-118 107.47,-107.1 117.22,-98.03"/>
<polygon fill="#63b8ff" stroke="#63b8ff" points="119.43,-100.76 124.37,-91.39 114.66,-95.63 119.43,-100.76"/>
<g id="a_edge16&#45;headlabel"><a xlink:href="dir_000215_000029.html" target="_top" xlink:title="2">
<text text-anchor="middle" x="119.83" y="-101.76" font-family="Helvetica,sans-Serif" font-size="10.00" fill="#63b8ff">2</text>
</a>
</g>
</g>
<!-- dir_965b04ab41d8424e7ba3e3f78bb2fea4&#45;&gt;dir_bdd9a5d540de89e9fe90efdfc6973a4f -->
<g id="edge15" class="edge">
<title>dir_965b04ab41d8424e7ba3e3f78bb2fea4&#45;&gt;dir_bdd9a5d540de89e9fe90efdfc6973a4f</title>
<path fill="none" stroke="#63b8ff" d="M97.88,-125.51C115.53,-117.2 141.74,-104.05 163,-90 178.81,-79.55 179.99,-73.13 196,-63 209.95,-54.17 226.36,-46.11 240.44,-39.82"/>
<polygon fill="#63b8ff" stroke="#63b8ff" points="241.51,-43.17 249.29,-35.97 238.72,-36.75 241.51,-43.17"/>
<g id="a_edge15&#45;headlabel"><a xlink:href="dir_000215_000024.html" target="_top" xlink:title="2">
<text text-anchor="middle" x="240.74" y="-44.1" font-family="Helvetica,sans-Serif" font-size="10.00" fill="#63b8ff">2</text>
</a>
</g>
</g>
</g>
</svg>
