<?xml version="1.0" encoding="UTF-8" standalone="no"?>
<!DOCTYPE svg PUBLIC "-//W3C//DTD SVG 1.1//EN"
 "http://www.w3.org/Graphics/SVG/1.1/DTD/svg11.dtd">
<!-- Generated by graphviz version 7.0.5 (20221223.1930)
 -->
<!-- Title: iop/fs/netfs/src Pages: 1 -->
<svg width="190pt" height="117pt"
 viewBox="0.00 0.00 190.00 117.00" xmlns="http://www.w3.org/2000/svg" xmlns:xlink="http://www.w3.org/1999/xlink">
<g id="graph0" class="graph" transform="scale(1 1) rotate(0) translate(4 113)">
<title>iop/fs/netfs/src</title>
<g id="clust1" class="cluster">
<title>clusterdir_c49d6f7b24cb4247c18d467361672153</title>
<g id="a_clust1"><a xlink:href="dir_c49d6f7b24cb4247c18d467361672153.html" target="_top" xlink:title="netfs">
<polygon fill="#deebf9" stroke="#7f7f7f" stroke-dasharray="5,2" points="65,-47 65,-101 111,-101 111,-47 65,-47"/>
<text text-anchor="middle" x="88" y="-89" font-family="Helvetica,sans-Serif" font-size="10.00">netfs</text>
</a>
</g>
</g>
<!-- dir_71bd830da3b128f94f4da5847e7d6fcb -->
<g id="node1" class="node">
<title>dir_71bd830da3b128f94f4da5847e7d6fcb</title>
<g id="a_node1"><a xlink:href="dir_71bd830da3b128f94f4da5847e7d6fcb.html" target="_top" xlink:title="src">
<polygon fill="#deebf9" stroke="#404040" stroke-width="2" points="103,-74 73,-74 73,-55 103,-55 103,-74"/>
<text text-anchor="middle" x="88" y="-62" font-family="Helvetica,sans-Serif" font-size="10.00">src</text>
</a>
</g>
</g>
<!-- dir_40ac35421bc63b72c26b6c69b1517fd6 -->
<g id="node2" class="node">
<title>dir_40ac35421bc63b72c26b6c69b1517fd6</title>
<g id="a_node2"><a xlink:href="dir_40ac35421bc63b72c26b6c69b1517fd6.html" target="_top" xlink:title="system">
<polygon fill="#deebf9" stroke="red" stroke-dasharray="5,2" points="48,-19 0,-19 0,0 48,0 48,-19"/>
<text text-anchor="middle" x="24" y="-7" font-family="Helvetica,sans-Serif" font-size="10.00">system</text>
</a>
</g>
</g>
<!-- dir_71bd830da3b128f94f4da5847e7d6fcb&#45;&gt;dir_40ac35421bc63b72c26b6c69b1517fd6 -->
<g id="edge1" class="edge">
<title>dir_71bd830da3b128f94f4da5847e7d6fcb&#45;&gt;dir_40ac35421bc63b72c26b6c69b1517fd6</title>
<path fill="none" stroke="#63b8ff" d="M77.14,-54.51C67.89,-46.85 54.38,-35.66 43.29,-26.47"/>
<polygon fill="#63b8ff" stroke="#63b8ff" points="45.8,-24.01 35.86,-20.32 41.33,-29.4 45.8,-24.01"/>
<g id="a_edge1&#45;headlabel"><a xlink:href="dir_000311_000371.html" target="_top" xlink:title="3">
<text text-anchor="middle" x="49.21" y="-20.65" font-family="Helvetica,sans-Serif" font-size="10.00" fill="#63b8ff">3</text>
</a>
</g>
</g>
<!-- dir_9be0baa3d4a3e9f480a9ee70594037fa -->
<g id="node3" class="node">
<title>dir_9be0baa3d4a3e9f480a9ee70594037fa</title>
<g id="a_node3"><a xlink:href="dir_9be0baa3d4a3e9f480a9ee70594037fa.html" target="_top" xlink:title="kernel">
<polygon fill="#deebf9" stroke="red" stroke-dasharray="5,2" points="109.5,-19 66.5,-19 66.5,0 109.5,0 109.5,-19"/>
<text text-anchor="middle" x="88" y="-7" font-family="Helvetica,sans-Serif" font-size="10.00">kernel</text>
</a>
</g>
</g>
<!-- dir_71bd830da3b128f94f4da5847e7d6fcb&#45;&gt;dir_9be0baa3d4a3e9f480a9ee70594037fa -->
<g id="edge2" class="edge">
<title>dir_71bd830da3b128f94f4da5847e7d6fcb&#45;&gt;dir_9be0baa3d4a3e9f480a9ee70594037fa</title>
<path fill="none" stroke="#63b8ff" d="M88,-54.75C88,-48.27 88,-39.16 88,-30.9"/>
<polygon fill="#63b8ff" stroke="#63b8ff" points="91.5,-30.96 88,-20.96 84.5,-30.96 91.5,-30.96"/>
<g id="a_edge2&#45;headlabel"><a xlink:href="dir_000311_000166.html" target="_top" xlink:title="32">
<text text-anchor="middle" x="94.34" y="-30.54" font-family="Helvetica,sans-Serif" font-size="10.00" fill="#63b8ff">32</text>
</a>
</g>
</g>
<!-- dir_bdd9a5d540de89e9fe90efdfc6973a4f -->
<g id="node4" class="node">
<title>dir_bdd9a5d540de89e9fe90efdfc6973a4f</title>
<g id="a_node4"><a xlink:href="dir_bdd9a5d540de89e9fe90efdfc6973a4f.html" target="_top" xlink:title="common">
<polygon fill="#deebf9" stroke="red" points="182,-19 128,-19 128,0 182,0 182,-19"/>
<text text-anchor="middle" x="155" y="-7" font-family="Helvetica,sans-Serif" font-size="10.00">common</text>
</a>
</g>
</g>
<!-- dir_71bd830da3b128f94f4da5847e7d6fcb&#45;&gt;dir_bdd9a5d540de89e9fe90efdfc6973a4f -->
<g id="edge3" class="edge">
<title>dir_71bd830da3b128f94f4da5847e7d6fcb&#45;&gt;dir_bdd9a5d540de89e9fe90efdfc6973a4f</title>
<path fill="none" stroke="#63b8ff" d="M99.37,-54.51C109.05,-46.85 123.2,-35.66 134.81,-26.47"/>
<polygon fill="#63b8ff" stroke="#63b8ff" points="136.94,-29.25 142.62,-20.3 132.6,-23.76 136.94,-29.25"/>
<g id="a_edge3&#45;headlabel"><a xlink:href="dir_000311_000024.html" target="_top" xlink:title="1">
<text text-anchor="middle" x="137.07" y="-30.26" font-family="Helvetica,sans-Serif" font-size="10.00" fill="#63b8ff">1</text>
</a>
</g>
</g>
</g>
</svg>
