<?xml version="1.0" encoding="UTF-8" standalone="no"?>
<!DOCTYPE svg PUBLIC "-//W3C//DTD SVG 1.1//EN"
 "http://www.w3.org/Graphics/SVG/1.1/DTD/svg11.dtd">
<!-- Generated by graphviz version 7.0.5 (20221223.1930)
 -->
<!-- Title: iop/dev9/atad Pages: 1 -->
<svg width="280pt" height="180pt"
 viewBox="0.00 0.00 280.00 180.00" xmlns="http://www.w3.org/2000/svg" xmlns:xlink="http://www.w3.org/1999/xlink">
<g id="graph0" class="graph" transform="scale(1 1) rotate(0) translate(4 176)">
<title>iop/dev9/atad</title>
<g id="clust1" class="cluster">
<title>clusterdir_6f16cad81de2453a6f48c5e272ba4a18</title>
<g id="a_clust1"><a xlink:href="dir_6f16cad81de2453a6f48c5e272ba4a18.html" target="_top" xlink:title="dev9">
<polygon fill="#deebf9" stroke="#7f7f7f" stroke-dasharray="5,2" points="8,-39 8,-164 170,-164 170,-39 8,-39"/>
<text text-anchor="middle" x="89" y="-152" font-family="Helvetica,sans-Serif" font-size="10.00">dev9</text>
</a>
</g>
</g>
<g id="clust2" class="cluster">
<title>clusterdir_c9fad5ea75093c7356ef5f2b903232b1</title>
<g id="a_clust2"><a xlink:href="dir_c9fad5ea75093c7356ef5f2b903232b1.html" target="_top">
<polygon fill="#deebf9" stroke="#404040" stroke-width="2" points="16,-47 16,-137 116,-137 116,-47 16,-47"/>
</a>
</g>
</g>
<!-- dir_18566863331aaba44604539ca78be099 -->
<g id="node1" class="node">
<title>dir_18566863331aaba44604539ca78be099</title>
<g id="a_node1"><a xlink:href="dir_18566863331aaba44604539ca78be099.html" target="_top" xlink:title="dev9">
<polygon fill="#60a2e3" stroke="red" points="162,-74 124,-74 124,-55 162,-55 162,-74"/>
<text text-anchor="middle" x="143" y="-62" font-family="Helvetica,sans-Serif" font-size="10.00">dev9</text>
</a>
</g>
</g>
<!-- dir_c9fad5ea75093c7356ef5f2b903232b1 -->
<g id="node2" class="node">
<title>dir_c9fad5ea75093c7356ef5f2b903232b1</title>
<text text-anchor="middle" x="90" y="-117" font-family="Helvetica,sans-Serif" font-size="10.00">atad</text>
</g>
<!-- dir_641b55ca6dd3a94a9d2f54c39a5f1aa3 -->
<g id="node3" class="node">
<title>dir_641b55ca6dd3a94a9d2f54c39a5f1aa3</title>
<g id="a_node3"><a xlink:href="dir_641b55ca6dd3a94a9d2f54c39a5f1aa3.html" target="_top" xlink:title="include">
<polygon fill="#60a2e3" stroke="#404040" points="88.5,-74 41.5,-74 41.5,-55 88.5,-55 88.5,-74"/>
<text text-anchor="middle" x="65" y="-62" font-family="Helvetica,sans-Serif" font-size="10.00">include</text>
</a>
</g>
</g>
<!-- dir_9be0baa3d4a3e9f480a9ee70594037fa -->
<g id="node5" class="node">
<title>dir_9be0baa3d4a3e9f480a9ee70594037fa</title>
<g id="a_node5"><a xlink:href="dir_9be0baa3d4a3e9f480a9ee70594037fa.html" target="_top" xlink:title="kernel">
<polygon fill="#deebf9" stroke="red" stroke-dasharray="5,2" points="148.5,-19 105.5,-19 105.5,0 148.5,0 148.5,-19"/>
<text text-anchor="middle" x="127" y="-7" font-family="Helvetica,sans-Serif" font-size="10.00">kernel</text>
</a>
</g>
</g>
<!-- dir_641b55ca6dd3a94a9d2f54c39a5f1aa3&#45;&gt;dir_9be0baa3d4a3e9f480a9ee70594037fa -->
<g id="edge1" class="edge">
<title>dir_641b55ca6dd3a94a9d2f54c39a5f1aa3&#45;&gt;dir_9be0baa3d4a3e9f480a9ee70594037fa</title>
<path fill="none" stroke="#63b8ff" d="M75.06,-54.6C80.38,-49.93 87.01,-44.13 93,-39 97.71,-34.97 102.81,-30.66 107.6,-26.64"/>
<polygon fill="#63b8ff" stroke="#63b8ff" points="109.64,-29.5 115.07,-20.4 105.15,-24.12 109.64,-29.5"/>
<g id="a_edge1&#45;headlabel"><a xlink:href="dir_000111_000166.html" target="_top" xlink:title="1">
<text text-anchor="middle" x="109.87" y="-30.51" font-family="Helvetica,sans-Serif" font-size="10.00" fill="#63b8ff">1</text>
</a>
</g>
</g>
<!-- dir_afe8e9069a558f7a54a2a2685d2ad2e6 -->
<g id="node4" class="node">
<title>dir_afe8e9069a558f7a54a2a2685d2ad2e6</title>
<g id="a_node4"><a xlink:href="dir_afe8e9069a558f7a54a2a2685d2ad2e6.html" target="_top" xlink:title="src">
<polygon fill="#60a2e3" stroke="#404040" points="54,-129 24,-129 24,-110 54,-110 54,-129"/>
<text text-anchor="middle" x="39" y="-117" font-family="Helvetica,sans-Serif" font-size="10.00">src</text>
</a>
</g>
</g>
<!-- dir_afe8e9069a558f7a54a2a2685d2ad2e6&#45;&gt;dir_18566863331aaba44604539ca78be099 -->
<g id="edge2" class="edge">
<title>dir_afe8e9069a558f7a54a2a2685d2ad2e6&#45;&gt;dir_18566863331aaba44604539ca78be099</title>
<path fill="none" stroke="#63b8ff" d="M54.35,-110.68C70.36,-102.52 95.82,-89.54 115.36,-79.59"/>
<polygon fill="#63b8ff" stroke="#63b8ff" points="116.84,-82.76 124.16,-75.1 113.66,-76.53 116.84,-82.76"/>
<g id="a_edge2&#45;headlabel"><a xlink:href="dir_000288_000029.html" target="_top" xlink:title="2">
<text text-anchor="middle" x="116.27" y="-83.74" font-family="Helvetica,sans-Serif" font-size="10.00" fill="#63b8ff">2</text>
</a>
</g>
</g>
<!-- dir_afe8e9069a558f7a54a2a2685d2ad2e6&#45;&gt;dir_641b55ca6dd3a94a9d2f54c39a5f1aa3 -->
<g id="edge3" class="edge">
<title>dir_afe8e9069a558f7a54a2a2685d2ad2e6&#45;&gt;dir_641b55ca6dd3a94a9d2f54c39a5f1aa3</title>
<path fill="none" stroke="#63b8ff" d="M43.29,-109.75C46.62,-102.96 51.36,-93.3 55.56,-84.73"/>
<polygon fill="#63b8ff" stroke="#63b8ff" points="58.68,-86.32 59.95,-75.8 52.4,-83.24 58.68,-86.32"/>
<g id="a_edge3&#45;headlabel"><a xlink:href="dir_000288_000111.html" target="_top" xlink:title="1">
<text text-anchor="middle" x="60.32" y="-86.94" font-family="Helvetica,sans-Serif" font-size="10.00" fill="#63b8ff">1</text>
</a>
</g>
</g>
<!-- dir_afe8e9069a558f7a54a2a2685d2ad2e6&#45;&gt;dir_9be0baa3d4a3e9f480a9ee70594037fa -->
<g id="edge4" class="edge">
<title>dir_afe8e9069a558f7a54a2a2685d2ad2e6&#45;&gt;dir_9be0baa3d4a3e9f480a9ee70594037fa</title>
<path fill="none" stroke="#63b8ff" d="M54.33,-113.26C57.52,-112.17 60.87,-111.04 64,-110 112.8,-93.72 143.81,-115.65 174,-74 183.13,-61.41 181.63,-52.55 174,-39 170.44,-32.67 164.84,-27.58 158.72,-23.56"/>
<polygon fill="#63b8ff" stroke="#63b8ff" points="160.68,-20.65 150.24,-18.83 157.27,-26.76 160.68,-20.65"/>
<g id="a_edge4&#45;headlabel"><a xlink:href="dir_000288_000166.html" target="_top" xlink:title="13">
<text text-anchor="middle" x="163.88" y="-16.68" font-family="Helvetica,sans-Serif" font-size="10.00" fill="#63b8ff">13</text>
</a>
</g>
</g>
<!-- dir_bdd9a5d540de89e9fe90efdfc6973a4f -->
<g id="node6" class="node">
<title>dir_bdd9a5d540de89e9fe90efdfc6973a4f</title>
<g id="a_node6"><a xlink:href="dir_bdd9a5d540de89e9fe90efdfc6973a4f.html" target="_top" xlink:title="common">
<polygon fill="#deebf9" stroke="red" points="272,-74 218,-74 218,-55 272,-55 272,-74"/>
<text text-anchor="middle" x="245" y="-62" font-family="Helvetica,sans-Serif" font-size="10.00">common</text>
</a>
</g>
</g>
<!-- dir_afe8e9069a558f7a54a2a2685d2ad2e6&#45;&gt;dir_bdd9a5d540de89e9fe90efdfc6973a4f -->
<g id="edge5" class="edge">
<title>dir_afe8e9069a558f7a54a2a2685d2ad2e6&#45;&gt;dir_bdd9a5d540de89e9fe90efdfc6973a4f</title>
<path fill="none" stroke="#63b8ff" d="M54.27,-113.07C57.47,-112 60.83,-110.93 64,-110 112.63,-95.79 169.47,-82.31 206.3,-73.99"/>
<polygon fill="#63b8ff" stroke="#63b8ff" points="207.04,-77.41 216.04,-71.81 205.51,-70.58 207.04,-77.41"/>
<g id="a_edge5&#45;headlabel"><a xlink:href="dir_000288_000024.html" target="_top" xlink:title="2">
<text text-anchor="middle" x="205.63" y="-78.14" font-family="Helvetica,sans-Serif" font-size="10.00" fill="#63b8ff">2</text>
</a>
</g>
</g>
</g>
</svg>
