<?xml version="1.0" encoding="UTF-8" standalone="no"?>
<!DOCTYPE svg PUBLIC "-//W3C//DTD SVG 1.1//EN"
 "http://www.w3.org/Graphics/SVG/1.1/DTD/svg11.dtd">
<!-- Generated by graphviz version 7.0.5 (20221223.1930)
 -->
<!-- Title: iop/dvrp Pages: 1 -->
<!--zoomable 141 -->
<svg id="main" version="1.1" xmlns="http://www.w3.org/2000/svg" xmlns:xlink="http://www.w3.org/1999/xlink" xml:space="preserve" onload="init(evt)">
<style type="text/css"><![CDATA[
.edge:hover path { stroke: red; }
.edge:hover polygon { stroke: red; fill: red; }
]]></style>
<script type="text/javascript"><![CDATA[
var edges = document.getElementsByTagName('g');
if (edges && edges.length) {
  for (var i=0;i<edges.length;i++) {
    if (edges[i].id.substr(0,4)=='edge') {
      edges[i].setAttribute('class','edge');
    }
  }
}
]]></script>
        <defs>
                <circle id="rim" cx="0" cy="0" r="7"/>
                <circle id="rim2" cx="0" cy="0" r="3.5"/>
                <g id="zoomPlus">
                        <use xlink:href="#rim" fill="#404040">
                                <set attributeName="fill" to="#808080" begin="zoomplus.mouseover" end="zoomplus.mouseout"/>
                        </use>
                        <path d="M-4,0h8M0,-4v8" fill="none" stroke="white" stroke-width="1.5" pointer-events="none"/>
                </g>
                <g id="zoomMin">
                        <use xlink:href="#rim" fill="#404040">
                                <set attributeName="fill" to="#808080" begin="zoomminus.mouseover" end="zoomminus.mouseout"/>
                        </use>
                        <path d="M-4,0h8" fill="none" stroke="white" stroke-width="1.5" pointer-events="none"/>
                </g>
                <g id="dirArrow">
                        <path fill="none" stroke="white" stroke-width="1.5" d="M0,-3.0v7 M-2.5,-0.5L0,-3.0L2.5,-0.5"/>
                </g>
               <g id="resetDef">
                       <use xlink:href="#rim2" fill="#404040">
                               <set attributeName="fill" to="#808080" begin="reset.mouseover" end="reset.mouseout"/>
                       </use>
               </g>
        </defs>

<script type="text/javascript">
var viewWidth = 501;
var viewHeight = 141;
var sectionId = 'dynsection-0';
</script>
<script xlink:href="svgpan.js"/>
<svg id="graph" class="graph">
<g id="viewport">
<title>iop/dvrp</title>
<g id="clust1" class="cluster">
<title>clusterdir_0981ace215aa2029f526b70c145b9fbe</title>
<g id="a_clust1"><a xlink:href="dir_0981ace215aa2029f526b70c145b9fbe.html" target="_top" xlink:title="iop">
<polygon fill="#deebf9" stroke="#404040" stroke-dasharray="5,2" points="8,-8 8,-125 431,-125 431,-8 8,-8"/>
<text text-anchor="middle" x="219.5" y="-113" font-family="Helvetica,sans-Serif" font-size="10.00">iop</text>
</a>
</g>
</g>
<g id="clust2" class="cluster">
<title>clusterdir_a16ad4cba4b1f15056f2b7b0b5931815</title>
<g id="a_clust2"><a xlink:href="dir_a16ad4cba4b1f15056f2b7b0b5931815.html" target="_top">
<polygon fill="#deebf9" stroke="#404040" stroke-width="2" points="16,-63 16,-98 423,-98 423,-63 16,-63"/>
</a>
</g>
</g>
<!-- dir_9be0baa3d4a3e9f480a9ee70594037fa -->
<g id="node1" class="node">
<title>dir_9be0baa3d4a3e9f480a9ee70594037fa</title>
<g id="a_node1"><a xlink:href="dir_9be0baa3d4a3e9f480a9ee70594037fa.html" target="_top" xlink:title="kernel">
<polygon fill="#60a2e3" stroke="red" points="182.5,-35 139.5,-35 139.5,-16 182.5,-16 182.5,-35"/>
<text text-anchor="middle" x="161" y="-23" font-family="Helvetica,sans-Serif" font-size="10.00">kernel</text>
</a>
</g>
</g>
<!-- dir_6f16cad81de2453a6f48c5e272ba4a18 -->
<g id="node2" class="node">
<title>dir_6f16cad81de2453a6f48c5e272ba4a18</title>
<g id="a_node2"><a xlink:href="dir_6f16cad81de2453a6f48c5e272ba4a18.html" target="_top" xlink:title="dev9">
<polygon fill="#60a2e3" stroke="red" points="239,-35 201,-35 201,-16 239,-16 239,-35"/>
<text text-anchor="middle" x="220" y="-23" font-family="Helvetica,sans-Serif" font-size="10.00">dev9</text>
</a>
</g>
</g>
<!-- dir_a16ad4cba4b1f15056f2b7b0b5931815 -->
<g id="node3" class="node">
<title>dir_a16ad4cba4b1f15056f2b7b0b5931815</title>
<text text-anchor="middle" x="397" y="-78" font-family="Helvetica,sans-Serif" font-size="10.00">dvrp</text>
</g>
<!-- dir_8d816be76444126f1148a76612486d4b -->
<g id="node4" class="node">
<title>dir_8d816be76444126f1148a76612486d4b</title>
<g id="a_node4"><a xlink:href="dir_8d816be76444126f1148a76612486d4b.html" target="_top" xlink:title="dvr">
<polygon fill="#60a2e3" stroke="#404040" points="233,-90 203,-90 203,-71 233,-71 233,-90"/>
<text text-anchor="middle" x="218" y="-78" font-family="Helvetica,sans-Serif" font-size="10.00">dvr</text>
</a>
</g>
</g>
<!-- dir_8d816be76444126f1148a76612486d4b&#45;&gt;dir_9be0baa3d4a3e9f480a9ee70594037fa -->
<g id="edge1" class="edge">
<title>dir_8d816be76444126f1148a76612486d4b&#45;&gt;dir_9be0baa3d4a3e9f480a9ee70594037fa</title>
<path fill="none" stroke="#63b8ff" d="M208.33,-70.51C200.26,-63 188.53,-52.1 178.78,-43.03"/>
<polygon fill="#63b8ff" stroke="#63b8ff" points="181.34,-40.63 171.63,-36.39 176.57,-45.76 181.34,-40.63"/>
<g id="a_edge1&#45;headlabel"><a xlink:href="dir_000033_000166.html" target="_top" xlink:title="12">
<text text-anchor="middle" x="184.8" y="-37.47" font-family="Helvetica,sans-Serif" font-size="10.00" fill="#63b8ff">12</text>
</a>
</g>
</g>
<!-- dir_8d816be76444126f1148a76612486d4b&#45;&gt;dir_6f16cad81de2453a6f48c5e272ba4a18 -->
<g id="edge2" class="edge">
<title>dir_8d816be76444126f1148a76612486d4b&#45;&gt;dir_6f16cad81de2453a6f48c5e272ba4a18</title>
<path fill="none" stroke="#63b8ff" d="M218.33,-70.75C218.57,-64.27 218.92,-55.16 219.23,-46.9"/>
<polygon fill="#63b8ff" stroke="#63b8ff" points="222.73,-47.08 219.61,-36.95 215.73,-46.82 222.73,-47.08"/>
<g id="a_edge2&#45;headlabel"><a xlink:href="dir_000033_000028.html" target="_top" xlink:title="2">
<text text-anchor="middle" x="225.48" y="-46.77" font-family="Helvetica,sans-Serif" font-size="10.00" fill="#63b8ff">2</text>
</a>
</g>
</g>
<!-- dir_bdd9a5d540de89e9fe90efdfc6973a4f -->
<g id="node10" class="node">
<title>dir_bdd9a5d540de89e9fe90efdfc6973a4f</title>
<g id="a_node10"><a xlink:href="dir_bdd9a5d540de89e9fe90efdfc6973a4f.html" target="_top" xlink:title="common">
<polygon fill="#deebf9" stroke="red" points="493,-35 439,-35 439,-16 493,-16 493,-35"/>
<text text-anchor="middle" x="466" y="-23" font-family="Helvetica,sans-Serif" font-size="10.00">common</text>
</a>
</g>
</g>
<!-- dir_8d816be76444126f1148a76612486d4b&#45;&gt;dir_bdd9a5d540de89e9fe90efdfc6973a4f -->
<g id="edge3" class="edge">
<title>dir_8d816be76444126f1148a76612486d4b&#45;&gt;dir_bdd9a5d540de89e9fe90efdfc6973a4f</title>
<path fill="none" stroke="#63b8ff" d="M228.63,-70.64C232.6,-67.76 237.29,-64.84 242,-63 319.24,-32.76 347.7,-50.98 427.58,-36.37"/>
<polygon fill="#63b8ff" stroke="#63b8ff" points="428.04,-39.85 437.17,-34.48 426.69,-32.98 428.04,-39.85"/>
<g id="a_edge3&#45;headlabel"><a xlink:href="dir_000033_000024.html" target="_top" xlink:title="2">
<text text-anchor="middle" x="426.54" y="-40.53" font-family="Helvetica,sans-Serif" font-size="10.00" fill="#63b8ff">2</text>
</a>
</g>
</g>
<!-- dir_f7741f78ef7687a58b2e9b3b36050a7e -->
<g id="node5" class="node">
<title>dir_f7741f78ef7687a58b2e9b3b36050a7e</title>
<g id="a_node5"><a xlink:href="dir_f7741f78ef7687a58b2e9b3b36050a7e.html" target="_top" xlink:title="dvrav">
<polygon fill="#60a2e3" stroke="#404040" points="184.5,-90 143.5,-90 143.5,-71 184.5,-71 184.5,-90"/>
<text text-anchor="middle" x="164" y="-78" font-family="Helvetica,sans-Serif" font-size="10.00">dvrav</text>
</a>
</g>
</g>
<!-- dir_f7741f78ef7687a58b2e9b3b36050a7e&#45;&gt;dir_9be0baa3d4a3e9f480a9ee70594037fa -->
<g id="edge4" class="edge">
<title>dir_f7741f78ef7687a58b2e9b3b36050a7e&#45;&gt;dir_9be0baa3d4a3e9f480a9ee70594037fa</title>
<path fill="none" stroke="#63b8ff" d="M163.5,-70.75C163.14,-64.27 162.62,-55.16 162.15,-46.9"/>
<polygon fill="#63b8ff" stroke="#63b8ff" points="165.65,-46.74 161.59,-36.95 158.66,-47.13 165.65,-46.74"/>
<g id="a_edge4&#45;headlabel"><a xlink:href="dir_000034_000166.html" target="_top" xlink:title="11">
<text text-anchor="middle" x="168.6" y="-46.16" font-family="Helvetica,sans-Serif" font-size="10.00" fill="#63b8ff">11</text>
</a>
</g>
</g>
<!-- dir_f7741f78ef7687a58b2e9b3b36050a7e&#45;&gt;dir_6f16cad81de2453a6f48c5e272ba4a18 -->
<g id="edge5" class="edge">
<title>dir_f7741f78ef7687a58b2e9b3b36050a7e&#45;&gt;dir_6f16cad81de2453a6f48c5e272ba4a18</title>
<path fill="none" stroke="#63b8ff" d="M173.5,-70.51C181.43,-63 192.95,-52.1 202.54,-43.03"/>
<polygon fill="#63b8ff" stroke="#63b8ff" points="204.68,-45.81 209.54,-36.4 199.87,-40.73 204.68,-45.81"/>
<g id="a_edge5&#45;headlabel"><a xlink:href="dir_000034_000028.html" target="_top" xlink:title="2">
<text text-anchor="middle" x="205.12" y="-46.81" font-family="Helvetica,sans-Serif" font-size="10.00" fill="#63b8ff">2</text>
</a>
</g>
</g>
<!-- dir_f7741f78ef7687a58b2e9b3b36050a7e&#45;&gt;dir_bdd9a5d540de89e9fe90efdfc6973a4f -->
<g id="edge6" class="edge">
<title>dir_f7741f78ef7687a58b2e9b3b36050a7e&#45;&gt;dir_bdd9a5d540de89e9fe90efdfc6973a4f</title>
<path fill="none" stroke="#63b8ff" d="M177.54,-70.6C182.52,-67.72 188.34,-64.81 194,-63 293.11,-31.34 326.78,-53.83 427.4,-36.31"/>
<polygon fill="#63b8ff" stroke="#63b8ff" points="427.98,-39.77 437.18,-34.51 426.71,-32.88 427.98,-39.77"/>
<g id="a_edge6&#45;headlabel"><a xlink:href="dir_000034_000024.html" target="_top" xlink:title="2">
<text text-anchor="middle" x="426.45" y="-40.44" font-family="Helvetica,sans-Serif" font-size="10.00" fill="#63b8ff">2</text>
</a>
</g>
</g>
<!-- dir_afbf9061e6cd2939a0cc5b3ca7d5328d -->
<g id="node6" class="node">
<title>dir_afbf9061e6cd2939a0cc5b3ca7d5328d</title>
<g id="a_node6"><a xlink:href="dir_afbf9061e6cd2939a0cc5b3ca7d5328d.html" target="_top" xlink:title="dvrdv">
<polygon fill="#60a2e3" stroke="#404040" points="125.5,-90 84.5,-90 84.5,-71 125.5,-71 125.5,-90"/>
<text text-anchor="middle" x="105" y="-78" font-family="Helvetica,sans-Serif" font-size="10.00">dvrdv</text>
</a>
</g>
</g>
<!-- dir_afbf9061e6cd2939a0cc5b3ca7d5328d&#45;&gt;dir_9be0baa3d4a3e9f480a9ee70594037fa -->
<g id="edge7" class="edge">
<title>dir_afbf9061e6cd2939a0cc5b3ca7d5328d&#45;&gt;dir_9be0baa3d4a3e9f480a9ee70594037fa</title>
<path fill="none" stroke="#63b8ff" d="M114.5,-70.51C122.43,-63 133.95,-52.1 143.54,-43.03"/>
<polygon fill="#63b8ff" stroke="#63b8ff" points="145.68,-45.81 150.54,-36.4 140.87,-40.73 145.68,-45.81"/>
<g id="a_edge7&#45;headlabel"><a xlink:href="dir_000035_000166.html" target="_top" xlink:title="10">
<text text-anchor="middle" x="146.12" y="-46.81" font-family="Helvetica,sans-Serif" font-size="10.00" fill="#63b8ff">10</text>
</a>
</g>
</g>
<!-- dir_afbf9061e6cd2939a0cc5b3ca7d5328d&#45;&gt;dir_6f16cad81de2453a6f48c5e272ba4a18 -->
<g id="edge8" class="edge">
<title>dir_afbf9061e6cd2939a0cc5b3ca7d5328d&#45;&gt;dir_6f16cad81de2453a6f48c5e272ba4a18</title>
<path fill="none" stroke="#63b8ff" d="M119.87,-70.6C124.36,-68.04 129.33,-65.31 134,-63 152.37,-53.92 173.55,-44.91 190.29,-38.12"/>
<polygon fill="#63b8ff" stroke="#63b8ff" points="191.2,-41.52 199.18,-34.55 188.6,-35.03 191.2,-41.52"/>
<g id="a_edge8&#45;headlabel"><a xlink:href="dir_000035_000028.html" target="_top" xlink:title="2">
<text text-anchor="middle" x="190.32" y="-42.43" font-family="Helvetica,sans-Serif" font-size="10.00" fill="#63b8ff">2</text>
</a>
</g>
</g>
<!-- dir_afbf9061e6cd2939a0cc5b3ca7d5328d&#45;&gt;dir_bdd9a5d540de89e9fe90efdfc6973a4f -->
<g id="edge9" class="edge">
<title>dir_afbf9061e6cd2939a0cc5b3ca7d5328d&#45;&gt;dir_bdd9a5d540de89e9fe90efdfc6973a4f</title>
<path fill="none" stroke="#63b8ff" d="M118.03,-70.52C122.84,-67.64 128.47,-64.74 134,-63 258.52,-23.79 300.45,-57.08 427.36,-36.23"/>
<polygon fill="#63b8ff" stroke="#63b8ff" points="427.93,-39.69 437.18,-34.53 426.73,-32.79 427.93,-39.69"/>
<g id="a_edge9&#45;headlabel"><a xlink:href="dir_000035_000024.html" target="_top" xlink:title="2">
<text text-anchor="middle" x="426.36" y="-40.34" font-family="Helvetica,sans-Serif" font-size="10.00" fill="#63b8ff">2</text>
</a>
</g>
</g>
<!-- dir_90fe12cfe0c184e93ce162881a1343e2 -->
<g id="node7" class="node">
<title>dir_90fe12cfe0c184e93ce162881a1343e2</title>
<g id="a_node7"><a xlink:href="dir_90fe12cfe0c184e93ce162881a1343e2.html" target="_top" xlink:title="dvrfile">
<polygon fill="#60a2e3" stroke="#404040" points="66,-90 24,-90 24,-71 66,-71 66,-90"/>
<text text-anchor="middle" x="45" y="-78" font-family="Helvetica,sans-Serif" font-size="10.00">dvrfile</text>
</a>
</g>
</g>
<!-- dir_90fe12cfe0c184e93ce162881a1343e2&#45;&gt;dir_9be0baa3d4a3e9f480a9ee70594037fa -->
<g id="edge10" class="edge">
<title>dir_90fe12cfe0c184e93ce162881a1343e2&#45;&gt;dir_9be0baa3d4a3e9f480a9ee70594037fa</title>
<path fill="none" stroke="#63b8ff" d="M60.41,-70.63C65.05,-68.07 70.19,-65.34 75,-63 92.43,-54.54 112.31,-46.03 128.57,-39.35"/>
<polygon fill="#63b8ff" stroke="#63b8ff" points="129.82,-42.62 137.77,-35.62 127.18,-36.14 129.82,-42.62"/>
<g id="a_edge10&#45;headlabel"><a xlink:href="dir_000036_000166.html" target="_top" xlink:title="12">
<text text-anchor="middle" x="128.96" y="-43.54" font-family="Helvetica,sans-Serif" font-size="10.00" fill="#63b8ff">12</text>
</a>
</g>
</g>
<!-- dir_90fe12cfe0c184e93ce162881a1343e2&#45;&gt;dir_6f16cad81de2453a6f48c5e272ba4a18 -->
<g id="edge11" class="edge">
<title>dir_90fe12cfe0c184e93ce162881a1343e2&#45;&gt;dir_6f16cad81de2453a6f48c5e272ba4a18</title>
<path fill="none" stroke="#63b8ff" d="M59.27,-70.64C64.13,-67.9 69.68,-65.06 75,-63 121.36,-45.03 137.71,-48.17 189.78,-35.13"/>
<polygon fill="#63b8ff" stroke="#63b8ff" points="190.43,-38.58 199.23,-32.68 188.67,-31.81 190.43,-38.58"/>
<g id="a_edge11&#45;headlabel"><a xlink:href="dir_000036_000028.html" target="_top" xlink:title="2">
<text text-anchor="middle" x="189.13" y="-39.35" font-family="Helvetica,sans-Serif" font-size="10.00" fill="#63b8ff">2</text>
</a>
</g>
</g>
<!-- dir_90fe12cfe0c184e93ce162881a1343e2&#45;&gt;dir_bdd9a5d540de89e9fe90efdfc6973a4f -->
<g id="edge12" class="edge">
<title>dir_90fe12cfe0c184e93ce162881a1343e2&#45;&gt;dir_bdd9a5d540de89e9fe90efdfc6973a4f</title>
<path fill="none" stroke="#63b8ff" d="M58.2,-70.65C63.25,-67.71 69.19,-64.74 75,-63 225.17,-18.15 274.59,-60.48 427.49,-36.16"/>
<polygon fill="#63b8ff" stroke="#63b8ff" points="427.9,-39.64 437.19,-34.54 426.75,-32.74 427.9,-39.64"/>
<g id="a_edge12&#45;headlabel"><a xlink:href="dir_000036_000024.html" target="_top" xlink:title="2">
<text text-anchor="middle" x="426.31" y="-40.29" font-family="Helvetica,sans-Serif" font-size="10.00" fill="#63b8ff">2</text>
</a>
</g>
</g>
<!-- dir_55b81c7b0811889843fb7d99073d4918 -->
<g id="node8" class="node">
<title>dir_55b81c7b0811889843fb7d99073d4918</title>
<g id="a_node8"><a xlink:href="dir_55b81c7b0811889843fb7d99073d4918.html" target="_top" xlink:title="dvripl">
<polygon fill="#60a2e3" stroke="#404040" points="361,-90 321,-90 321,-71 361,-71 361,-90"/>
<text text-anchor="middle" x="341" y="-78" font-family="Helvetica,sans-Serif" font-size="10.00">dvripl</text>
</a>
</g>
</g>
<!-- dir_55b81c7b0811889843fb7d99073d4918&#45;&gt;dir_9be0baa3d4a3e9f480a9ee70594037fa -->
<g id="edge13" class="edge">
<title>dir_55b81c7b0811889843fb7d99073d4918&#45;&gt;dir_9be0baa3d4a3e9f480a9ee70594037fa</title>
<path fill="none" stroke="#63b8ff" d="M327.24,-70.6C322.55,-67.86 317.18,-65.03 312,-63 264.19,-44.28 247.21,-47.89 194.11,-35.37"/>
<polygon fill="#63b8ff" stroke="#63b8ff" points="195,-31.99 184.46,-33 193.34,-38.78 195,-31.99"/>
<g id="a_edge13&#45;headlabel"><a xlink:href="dir_000037_000166.html" target="_top" xlink:title="14">
<text text-anchor="middle" x="197.7" y="-27.22" font-family="Helvetica,sans-Serif" font-size="10.00" fill="#63b8ff">14</text>
</a>
</g>
</g>
<!-- dir_55b81c7b0811889843fb7d99073d4918&#45;&gt;dir_6f16cad81de2453a6f48c5e272ba4a18 -->
<g id="edge14" class="edge">
<title>dir_55b81c7b0811889843fb7d99073d4918&#45;&gt;dir_6f16cad81de2453a6f48c5e272ba4a18</title>
<path fill="none" stroke="#63b8ff" d="M326.16,-70.53C321.68,-67.96 316.7,-65.26 312,-63 291.73,-53.27 268.15,-43.95 249.93,-37.17"/>
<polygon fill="#63b8ff" stroke="#63b8ff" points="251.38,-33.97 240.78,-33.81 248.97,-40.54 251.38,-33.97"/>
<g id="a_edge14&#45;headlabel"><a xlink:href="dir_000037_000028.html" target="_top" xlink:title="2">
<text text-anchor="middle" x="254.31" y="-29.52" font-family="Helvetica,sans-Serif" font-size="10.00" fill="#63b8ff">2</text>
</a>
</g>
</g>
<!-- dir_55b81c7b0811889843fb7d99073d4918&#45;&gt;dir_bdd9a5d540de89e9fe90efdfc6973a4f -->
<g id="edge15" class="edge">
<title>dir_55b81c7b0811889843fb7d99073d4918&#45;&gt;dir_bdd9a5d540de89e9fe90efdfc6973a4f</title>
<path fill="none" stroke="#63b8ff" d="M356.36,-70.53C361,-67.96 366.15,-65.25 371,-63 389.75,-54.29 411.22,-45.91 428.99,-39.39"/>
<polygon fill="#63b8ff" stroke="#63b8ff" points="430.16,-42.69 438.38,-35.99 427.78,-36.1 430.16,-42.69"/>
<g id="a_edge15&#45;headlabel"><a xlink:href="dir_000037_000024.html" target="_top" xlink:title="2">
<text text-anchor="middle" x="429.17" y="-43.56" font-family="Helvetica,sans-Serif" font-size="10.00" fill="#63b8ff">2</text>
</a>
</g>
</g>
<!-- dir_14f5f0f9fe610eb1d19d953c1b59d5ca -->
<g id="node9" class="node">
<title>dir_14f5f0f9fe610eb1d19d953c1b59d5ca</title>
<g id="a_node9"><a xlink:href="dir_14f5f0f9fe610eb1d19d953c1b59d5ca.html" target="_top" xlink:title="dvrmisc">
<polygon fill="#60a2e3" stroke="#404040" points="302.5,-90 251.5,-90 251.5,-71 302.5,-71 302.5,-90"/>
<text text-anchor="middle" x="277" y="-78" font-family="Helvetica,sans-Serif" font-size="10.00">dvrmisc</text>
</a>
</g>
</g>
<!-- dir_14f5f0f9fe610eb1d19d953c1b59d5ca&#45;&gt;dir_9be0baa3d4a3e9f480a9ee70594037fa -->
<g id="edge16" class="edge">
<title>dir_14f5f0f9fe610eb1d19d953c1b59d5ca&#45;&gt;dir_9be0baa3d4a3e9f480a9ee70594037fa</title>
<path fill="none" stroke="#63b8ff" d="M258.14,-70.53C252.92,-68.07 247.25,-65.42 242,-63 225.32,-55.31 206.63,-46.88 191.41,-40.05"/>
<polygon fill="#63b8ff" stroke="#63b8ff" points="192.95,-36.91 182.4,-36.02 190.1,-43.3 192.95,-36.91"/>
<g id="a_edge16&#45;headlabel"><a xlink:href="dir_000038_000166.html" target="_top" xlink:title="12">
<text text-anchor="middle" x="196.01" y="-32.67" font-family="Helvetica,sans-Serif" font-size="10.00" fill="#63b8ff">12</text>
</a>
</g>
</g>
<!-- dir_14f5f0f9fe610eb1d19d953c1b59d5ca&#45;&gt;dir_6f16cad81de2453a6f48c5e272ba4a18 -->
<g id="edge17" class="edge">
<title>dir_14f5f0f9fe610eb1d19d953c1b59d5ca&#45;&gt;dir_6f16cad81de2453a6f48c5e272ba4a18</title>
<path fill="none" stroke="#63b8ff" d="M267.33,-70.51C259.26,-63 247.53,-52.1 237.78,-43.03"/>
<polygon fill="#63b8ff" stroke="#63b8ff" points="240.34,-40.63 230.63,-36.39 235.57,-45.76 240.34,-40.63"/>
<g id="a_edge17&#45;headlabel"><a xlink:href="dir_000038_000028.html" target="_top" xlink:title="2">
<text text-anchor="middle" x="243.8" y="-37.47" font-family="Helvetica,sans-Serif" font-size="10.00" fill="#63b8ff">2</text>
</a>
</g>
</g>
<!-- dir_14f5f0f9fe610eb1d19d953c1b59d5ca&#45;&gt;dir_bdd9a5d540de89e9fe90efdfc6973a4f -->
<g id="edge18" class="edge">
<title>dir_14f5f0f9fe610eb1d19d953c1b59d5ca&#45;&gt;dir_bdd9a5d540de89e9fe90efdfc6973a4f</title>
<path fill="none" stroke="#63b8ff" d="M294.14,-70.51C299.73,-67.83 306.03,-65.06 312,-63 361.48,-45.93 378.38,-48.22 427.61,-36.74"/>
<polygon fill="#63b8ff" stroke="#63b8ff" points="428.27,-40.19 437.16,-34.43 426.62,-33.38 428.27,-40.19"/>
<g id="a_edge18&#45;headlabel"><a xlink:href="dir_000038_000024.html" target="_top" xlink:title="2">
<text text-anchor="middle" x="426.91" y="-40.93" font-family="Helvetica,sans-Serif" font-size="10.00" fill="#63b8ff">2</text>
</a>
</g>
</g>
</g>
</svg>
        <g id="navigator" transform="translate(0 0)" fill="#404254">
                <rect fill="#f2f5e9" fill-opacity="0.5" stroke="#606060" stroke-width=".5" x="0" y="0" width="60" height="60"/>
                <use id="zoomplus" xlink:href="#zoomPlus" x="17" y="9" onmousedown="handleZoom(evt,'in')"/>
                <use id="zoomminus" xlink:href="#zoomMin" x="42" y="9" onmousedown="handleZoom(evt,'out')"/>
                <use id="reset" xlink:href="#resetDef" x="30" y="36" onmousedown="handleReset()"/>
                <g id="arrowUp" xlink:href="#dirArrow" transform="translate(30 24)" onmousedown="handlePan(0,-1)">
                  <use xlink:href="#rim" fill="#404040">
                        <set attributeName="fill" to="#808080" begin="arrowUp.mouseover" end="arrowUp.mouseout"/>
                  </use>
                  <path fill="none" stroke="white" stroke-width="1.5" d="M0,-3.0v7 M-2.5,-0.5L0,-3.0L2.5,-0.5"/>
                </g>
                <g id="arrowRight" xlink:href="#dirArrow" transform="rotate(90) translate(36 -43)" onmousedown="handlePan(1,0)">
                  <use xlink:href="#rim" fill="#404040">
                        <set attributeName="fill" to="#808080" begin="arrowRight.mouseover" end="arrowRight.mouseout"/>
                  </use>
                  <path fill="none" stroke="white" stroke-width="1.5" d="M0,-3.0v7 M-2.5,-0.5L0,-3.0L2.5,-0.5"/>
                </g>
                <g id="arrowDown" xlink:href="#dirArrow" transform="rotate(180) translate(-30 -48)" onmousedown="handlePan(0,1)">
                  <use xlink:href="#rim" fill="#404040">
                        <set attributeName="fill" to="#808080" begin="arrowDown.mouseover" end="arrowDown.mouseout"/>
                  </use>
                  <path fill="none" stroke="white" stroke-width="1.5" d="M0,-3.0v7 M-2.5,-0.5L0,-3.0L2.5,-0.5"/>
                </g>
                <g id="arrowLeft" xlink:href="#dirArrow" transform="rotate(270) translate(-36 17)" onmousedown="handlePan(-1,0)">
                  <use xlink:href="#rim" fill="#404040">
                        <set attributeName="fill" to="#808080" begin="arrowLeft.mouseover" end="arrowLeft.mouseout"/>
                  </use>
                  <path fill="none" stroke="white" stroke-width="1.5" d="M0,-3.0v7 M-2.5,-0.5L0,-3.0L2.5,-0.5"/>
                </g>
        </g>
        <svg viewBox="0 0 15 15" width="100%" height="30px" preserveAspectRatio="xMaxYMin meet">
         <g id="arrow_out" transform="scale(0.3 0.3)">
          <a xlink:href="dir_a16ad4cba4b1f15056f2b7b0b5931815_dep_org.svg" target="_base">
           <rect id="button" ry="5" rx="5" y="6" x="6" height="38" width="38"
                fill="#f2f5e9" fill-opacity="0.5" stroke="#606060" stroke-width="1.0"/>
           <path id="arrow"
             d="M 11.500037,31.436501 C 11.940474,20.09759 22.043105,11.32322 32.158766,21.979434 L 37.068811,17.246167 C 37.068811,17.246167 37.088388,32 37.088388,32 L 22.160133,31.978069 C 22.160133,31.978069 26.997745,27.140456 26.997745,27.140456 C 18.528582,18.264221 13.291696,25.230495 11.500037,31.436501 z"
             style="fill:#404040;"/>
          </a>
         </g>
        </svg>
</svg>
