<?xml version="1.0" encoding="UTF-8" standalone="no"?>
<!DOCTYPE svg PUBLIC "-//W3C//DTD SVG 1.1//EN"
 "http://www.w3.org/Graphics/SVG/1.1/DTD/svg11.dtd">
<!-- Generated by graphviz version 7.0.5 (20221223.1930)
 -->
<!-- Title: iop/system/iopmgr Pages: 1 -->
<svg width="150pt" height="180pt"
 viewBox="0.00 0.00 150.00 180.00" xmlns="http://www.w3.org/2000/svg" xmlns:xlink="http://www.w3.org/1999/xlink">
<g id="graph0" class="graph" transform="scale(1 1) rotate(0) translate(4 176)">
<title>iop/system/iopmgr</title>
<g id="clust1" class="cluster">
<title>clusterdir_40ac35421bc63b72c26b6c69b1517fd6</title>
<g id="a_clust1"><a xlink:href="dir_40ac35421bc63b72c26b6c69b1517fd6.html" target="_top" xlink:title="system">
<polygon fill="#deebf9" stroke="#7f7f7f" stroke-dasharray="5,2" points="8,-39 8,-164 134,-164 134,-39 8,-39"/>
<text text-anchor="middle" x="71" y="-152" font-family="Helvetica,sans-Serif" font-size="10.00">system</text>
</a>
</g>
</g>
<g id="clust2" class="cluster">
<title>clusterdir_024ed9b5cab300e9b0cec9fa63c26df3</title>
<g id="a_clust2"><a xlink:href="dir_024ed9b5cab300e9b0cec9fa63c26df3.html" target="_top">
<polygon fill="#deebf9" stroke="#404040" stroke-width="2" points="16,-47 16,-137 126,-137 126,-47 16,-47"/>
</a>
</g>
</g>
<!-- dir_024ed9b5cab300e9b0cec9fa63c26df3 -->
<g id="node1" class="node">
<title>dir_024ed9b5cab300e9b0cec9fa63c26df3</title>
<text text-anchor="middle" x="95" y="-117" font-family="Helvetica,sans-Serif" font-size="10.00">iopmgr</text>
</g>
<!-- dir_f43a10262b73c6e7d8c393ecfde6f1ae -->
<g id="node2" class="node">
<title>dir_f43a10262b73c6e7d8c393ecfde6f1ae</title>
<g id="a_node2"><a xlink:href="dir_f43a10262b73c6e7d8c393ecfde6f1ae.html" target="_top" xlink:title="include">
<polygon fill="#60a2e3" stroke="#404040" points="71.5,-74 24.5,-74 24.5,-55 71.5,-55 71.5,-74"/>
<text text-anchor="middle" x="48" y="-62" font-family="Helvetica,sans-Serif" font-size="10.00">include</text>
</a>
</g>
</g>
<!-- dir_9be0baa3d4a3e9f480a9ee70594037fa -->
<g id="node4" class="node">
<title>dir_9be0baa3d4a3e9f480a9ee70594037fa</title>
<g id="a_node4"><a xlink:href="dir_9be0baa3d4a3e9f480a9ee70594037fa.html" target="_top" xlink:title="kernel">
<polygon fill="#deebf9" stroke="red" stroke-dasharray="5,2" points="95.5,-19 52.5,-19 52.5,0 95.5,0 95.5,-19"/>
<text text-anchor="middle" x="74" y="-7" font-family="Helvetica,sans-Serif" font-size="10.00">kernel</text>
</a>
</g>
</g>
<!-- dir_f43a10262b73c6e7d8c393ecfde6f1ae&#45;&gt;dir_9be0baa3d4a3e9f480a9ee70594037fa -->
<g id="edge1" class="edge">
<title>dir_f43a10262b73c6e7d8c393ecfde6f1ae&#45;&gt;dir_9be0baa3d4a3e9f480a9ee70594037fa</title>
<path fill="none" stroke="#63b8ff" d="M52.29,-54.75C55.62,-47.96 60.36,-38.3 64.56,-29.73"/>
<polygon fill="#63b8ff" stroke="#63b8ff" points="67.68,-31.32 68.95,-20.8 61.4,-28.24 67.68,-31.32"/>
<g id="a_edge1&#45;headlabel"><a xlink:href="dir_000141_000166.html" target="_top" xlink:title="3">
<text text-anchor="middle" x="69.32" y="-31.94" font-family="Helvetica,sans-Serif" font-size="10.00" fill="#63b8ff">3</text>
</a>
</g>
</g>
<!-- dir_1a7f0e9c955f51a704f1181957f21135 -->
<g id="node3" class="node">
<title>dir_1a7f0e9c955f51a704f1181957f21135</title>
<g id="a_node3"><a xlink:href="dir_1a7f0e9c955f51a704f1181957f21135.html" target="_top" xlink:title="src">
<polygon fill="#60a2e3" stroke="#404040" points="54,-129 24,-129 24,-110 54,-110 54,-129"/>
<text text-anchor="middle" x="39" y="-117" font-family="Helvetica,sans-Serif" font-size="10.00">src</text>
</a>
</g>
</g>
<!-- dir_1a7f0e9c955f51a704f1181957f21135&#45;&gt;dir_f43a10262b73c6e7d8c393ecfde6f1ae -->
<g id="edge3" class="edge">
<title>dir_1a7f0e9c955f51a704f1181957f21135&#45;&gt;dir_f43a10262b73c6e7d8c393ecfde6f1ae</title>
<path fill="none" stroke="#63b8ff" d="M40.49,-109.75C41.6,-103.19 43.17,-93.95 44.59,-85.6"/>
<polygon fill="#63b8ff" stroke="#63b8ff" points="48,-86.38 46.23,-75.93 41.1,-85.21 48,-86.38"/>
<g id="a_edge3&#45;headlabel"><a xlink:href="dir_000336_000141.html" target="_top" xlink:title="5">
<text text-anchor="middle" x="50.46" y="-86.41" font-family="Helvetica,sans-Serif" font-size="10.00" fill="#63b8ff">5</text>
</a>
</g>
</g>
<!-- dir_1a7f0e9c955f51a704f1181957f21135&#45;&gt;dir_9be0baa3d4a3e9f480a9ee70594037fa -->
<g id="edge2" class="edge">
<title>dir_1a7f0e9c955f51a704f1181957f21135&#45;&gt;dir_9be0baa3d4a3e9f480a9ee70594037fa</title>
<path fill="none" stroke="#63b8ff" d="M51.61,-109.55C61.71,-101.54 75.12,-88.81 81,-74 86.52,-60.1 84.28,-43.21 80.93,-30.35"/>
<polygon fill="#63b8ff" stroke="#63b8ff" points="84.31,-29.46 78.03,-20.93 77.62,-31.52 84.31,-29.46"/>
<g id="a_edge2&#45;headlabel"><a xlink:href="dir_000336_000166.html" target="_top" xlink:title="28">
<text text-anchor="middle" x="87.64" y="-28.11" font-family="Helvetica,sans-Serif" font-size="10.00" fill="#63b8ff">28</text>
</a>
</g>
</g>
</g>
</svg>
