<?xml version="1.0" encoding="UTF-8" standalone="no"?>
<!DOCTYPE svg PUBLIC "-//W3C//DTD SVG 1.1//EN"
 "http://www.w3.org/Graphics/SVG/1.1/DTD/svg11.dtd">
<!-- Generated by graphviz version 7.0.5 (20221223.1930)
 -->
<!-- Title: iop/hdd/libapa Pages: 1 -->
<svg width="212pt" height="125pt"
 viewBox="0.00 0.00 212.00 125.00" xmlns="http://www.w3.org/2000/svg" xmlns:xlink="http://www.w3.org/1999/xlink">
<g id="graph0" class="graph" transform="scale(1 1) rotate(0) translate(4 121)">
<title>iop/hdd/libapa</title>
<g id="clust1" class="cluster">
<title>clusterdir_b6763ea08a8f9364194ebe3565e6b1f0</title>
<g id="a_clust1"><a xlink:href="dir_b6763ea08a8f9364194ebe3565e6b1f0.html" target="_top" xlink:title="hdd">
<polygon fill="#deebf9" stroke="#7f7f7f" stroke-dasharray="5,2" points="8,-39 8,-109 196,-109 196,-39 8,-39"/>
<text text-anchor="middle" x="102" y="-97" font-family="Helvetica,sans-Serif" font-size="10.00">hdd</text>
</a>
</g>
</g>
<g id="clust2" class="cluster">
<title>clusterdir_74c6a9c949eb32128aa5a6adc613f35b</title>
<g id="a_clust2"><a xlink:href="dir_74c6a9c949eb32128aa5a6adc613f35b.html" target="_top">
<polygon fill="#deebf9" stroke="#404040" stroke-width="2" points="16,-47 16,-82 188,-82 188,-47 16,-47"/>
</a>
</g>
</g>
<!-- dir_74c6a9c949eb32128aa5a6adc613f35b -->
<g id="node1" class="node">
<title>dir_74c6a9c949eb32128aa5a6adc613f35b</title>
<text text-anchor="middle" x="159" y="-62" font-family="Helvetica,sans-Serif" font-size="10.00">libapa</text>
</g>
<!-- dir_ba20cf19084f343ca09b1f733fd5cb70 -->
<g id="node2" class="node">
<title>dir_ba20cf19084f343ca09b1f733fd5cb70</title>
<g id="a_node2"><a xlink:href="dir_ba20cf19084f343ca09b1f733fd5cb70.html" target="_top" xlink:title="include">
<polygon fill="#60a2e3" stroke="#404040" points="71.5,-74 24.5,-74 24.5,-55 71.5,-55 71.5,-74"/>
<text text-anchor="middle" x="48" y="-62" font-family="Helvetica,sans-Serif" font-size="10.00">include</text>
</a>
</g>
</g>
<!-- dir_bdd9a5d540de89e9fe90efdfc6973a4f -->
<g id="node4" class="node">
<title>dir_bdd9a5d540de89e9fe90efdfc6973a4f</title>
<g id="a_node4"><a xlink:href="dir_bdd9a5d540de89e9fe90efdfc6973a4f.html" target="_top" xlink:title="common">
<polygon fill="#deebf9" stroke="red" points="70,-19 16,-19 16,0 70,0 70,-19"/>
<text text-anchor="middle" x="43" y="-7" font-family="Helvetica,sans-Serif" font-size="10.00">common</text>
</a>
</g>
</g>
<!-- dir_ba20cf19084f343ca09b1f733fd5cb70&#45;&gt;dir_bdd9a5d540de89e9fe90efdfc6973a4f -->
<g id="edge1" class="edge">
<title>dir_ba20cf19084f343ca09b1f733fd5cb70&#45;&gt;dir_bdd9a5d540de89e9fe90efdfc6973a4f</title>
<path fill="none" stroke="#63b8ff" d="M47.17,-54.75C46.56,-48.27 45.7,-39.16 44.92,-30.9"/>
<polygon fill="#63b8ff" stroke="#63b8ff" points="48.41,-30.58 43.99,-20.95 41.44,-31.23 48.41,-30.58"/>
<g id="a_edge1&#45;headlabel"><a xlink:href="dir_000124_000024.html" target="_top" xlink:title="1">
<text text-anchor="middle" x="51.43" y="-29.88" font-family="Helvetica,sans-Serif" font-size="10.00" fill="#63b8ff">1</text>
</a>
</g>
</g>
<!-- dir_d55f23d8ba757b23ee1ce2ded4afdb2b -->
<g id="node3" class="node">
<title>dir_d55f23d8ba757b23ee1ce2ded4afdb2b</title>
<g id="a_node3"><a xlink:href="dir_d55f23d8ba757b23ee1ce2ded4afdb2b.html" target="_top" xlink:title="src">
<polygon fill="#60a2e3" stroke="#404040" points="120,-74 90,-74 90,-55 120,-55 120,-74"/>
<text text-anchor="middle" x="105" y="-62" font-family="Helvetica,sans-Serif" font-size="10.00">src</text>
</a>
</g>
</g>
<!-- dir_d55f23d8ba757b23ee1ce2ded4afdb2b&#45;&gt;dir_bdd9a5d540de89e9fe90efdfc6973a4f -->
<g id="edge4" class="edge">
<title>dir_d55f23d8ba757b23ee1ce2ded4afdb2b&#45;&gt;dir_bdd9a5d540de89e9fe90efdfc6973a4f</title>
<path fill="none" stroke="#63b8ff" d="M96.45,-54.62C91.73,-49.85 85.69,-43.95 80,-39 75.03,-34.68 69.49,-30.23 64.24,-26.17"/>
<polygon fill="#63b8ff" stroke="#63b8ff" points="66.58,-23.55 56.49,-20.3 62.35,-29.13 66.58,-23.55"/>
<g id="a_edge4&#45;headlabel"><a xlink:href="dir_000314_000024.html" target="_top" xlink:title="12">
<text text-anchor="middle" x="69.95" y="-20.04" font-family="Helvetica,sans-Serif" font-size="10.00" fill="#63b8ff">12</text>
</a>
</g>
</g>
<!-- dir_9be0baa3d4a3e9f480a9ee70594037fa -->
<g id="node5" class="node">
<title>dir_9be0baa3d4a3e9f480a9ee70594037fa</title>
<g id="a_node5"><a xlink:href="dir_9be0baa3d4a3e9f480a9ee70594037fa.html" target="_top" xlink:title="kernel">
<polygon fill="#deebf9" stroke="red" stroke-dasharray="5,2" points="131.5,-19 88.5,-19 88.5,0 131.5,0 131.5,-19"/>
<text text-anchor="middle" x="110" y="-7" font-family="Helvetica,sans-Serif" font-size="10.00">kernel</text>
</a>
</g>
</g>
<!-- dir_d55f23d8ba757b23ee1ce2ded4afdb2b&#45;&gt;dir_9be0baa3d4a3e9f480a9ee70594037fa -->
<g id="edge3" class="edge">
<title>dir_d55f23d8ba757b23ee1ce2ded4afdb2b&#45;&gt;dir_9be0baa3d4a3e9f480a9ee70594037fa</title>
<path fill="none" stroke="#63b8ff" d="M105.83,-54.75C106.44,-48.27 107.3,-39.16 108.08,-30.9"/>
<polygon fill="#63b8ff" stroke="#63b8ff" points="111.56,-31.23 109.01,-20.95 104.59,-30.58 111.56,-31.23"/>
<g id="a_edge3&#45;headlabel"><a xlink:href="dir_000314_000166.html" target="_top" xlink:title="13">
<text text-anchor="middle" x="114.19" y="-31.07" font-family="Helvetica,sans-Serif" font-size="10.00" fill="#63b8ff">13</text>
</a>
</g>
</g>
<!-- dir_6f16cad81de2453a6f48c5e272ba4a18 -->
<g id="node6" class="node">
<title>dir_6f16cad81de2453a6f48c5e272ba4a18</title>
<g id="a_node6"><a xlink:href="dir_6f16cad81de2453a6f48c5e272ba4a18.html" target="_top" xlink:title="dev9">
<polygon fill="#deebf9" stroke="red" stroke-dasharray="5,2" points="188,-19 150,-19 150,0 188,0 188,-19"/>
<text text-anchor="middle" x="169" y="-7" font-family="Helvetica,sans-Serif" font-size="10.00">dev9</text>
</a>
</g>
</g>
<!-- dir_d55f23d8ba757b23ee1ce2ded4afdb2b&#45;&gt;dir_6f16cad81de2453a6f48c5e272ba4a18 -->
<g id="edge2" class="edge">
<title>dir_d55f23d8ba757b23ee1ce2ded4afdb2b&#45;&gt;dir_6f16cad81de2453a6f48c5e272ba4a18</title>
<path fill="none" stroke="#63b8ff" d="M113.09,-54.5C117.58,-49.7 123.39,-43.8 129,-39 134.31,-34.46 140.33,-29.9 146.05,-25.8"/>
<polygon fill="#63b8ff" stroke="#63b8ff" points="147.76,-28.87 153.98,-20.29 143.77,-23.13 147.76,-28.87"/>
<g id="a_edge2&#45;headlabel"><a xlink:href="dir_000314_000028.html" target="_top" xlink:title="4">
<text text-anchor="middle" x="147.67" y="-29.89" font-family="Helvetica,sans-Serif" font-size="10.00" fill="#63b8ff">4</text>
</a>
</g>
</g>
</g>
</svg>
