<?xml version="1.0" encoding="UTF-8" standalone="no"?>
<!DOCTYPE svg PUBLIC "-//W3C//DTD SVG 1.1//EN"
 "http://www.w3.org/Graphics/SVG/1.1/DTD/svg11.dtd">
<!-- Generated by graphviz version 7.0.5 (20221223.1930)
 -->
<!-- Title: ee/packet2/src Pages: 1 -->
<svg width="145pt" height="117pt"
 viewBox="0.00 0.00 145.00 117.00" xmlns="http://www.w3.org/2000/svg" xmlns:xlink="http://www.w3.org/1999/xlink">
<g id="graph0" class="graph" transform="scale(1 1) rotate(0) translate(4 113)">
<title>ee/packet2/src</title>
<g id="clust1" class="cluster">
<title>clusterdir_1af66471b4b3ad2da2cd94ca709331b2</title>
<g id="a_clust1"><a xlink:href="dir_1af66471b4b3ad2da2cd94ca709331b2.html" target="_top" xlink:title="packet2">
<polygon fill="#deebf9" stroke="#7f7f7f" stroke-dasharray="5,2" points="43.5,-47 43.5,-101 94.5,-101 94.5,-47 43.5,-47"/>
<text text-anchor="middle" x="69" y="-89" font-family="Helvetica,sans-Serif" font-size="10.00">packet2</text>
</a>
</g>
</g>
<!-- dir_3a7a010c28010a16f6513751c6839763 -->
<g id="node1" class="node">
<title>dir_3a7a010c28010a16f6513751c6839763</title>
<g id="a_node1"><a xlink:href="dir_3a7a010c28010a16f6513751c6839763.html" target="_top" xlink:title="src">
<polygon fill="#deebf9" stroke="#404040" stroke-width="2" points="83.5,-74 53.5,-74 53.5,-55 83.5,-55 83.5,-74"/>
<text text-anchor="middle" x="68.5" y="-62" font-family="Helvetica,sans-Serif" font-size="10.00">src</text>
</a>
</g>
</g>
<!-- dir_0981ace215aa2029f526b70c145b9fbe -->
<g id="node2" class="node">
<title>dir_0981ace215aa2029f526b70c145b9fbe</title>
<g id="a_node2"><a xlink:href="dir_0981ace215aa2029f526b70c145b9fbe.html" target="_top" xlink:title="iop">
<polygon fill="#deebf9" stroke="red" points="29,-19 0,-19 0,0 29,0 29,-19"/>
<text text-anchor="middle" x="14.5" y="-7" font-family="Helvetica,sans-Serif" font-size="10.00">iop</text>
</a>
</g>
</g>
<!-- dir_3a7a010c28010a16f6513751c6839763&#45;&gt;dir_0981ace215aa2029f526b70c145b9fbe -->
<g id="edge1" class="edge">
<title>dir_3a7a010c28010a16f6513751c6839763&#45;&gt;dir_0981ace215aa2029f526b70c145b9fbe</title>
<path fill="none" stroke="#63b8ff" d="M59.58,-54.75C52.05,-47.35 41.03,-36.54 31.77,-27.45"/>
<polygon fill="#63b8ff" stroke="#63b8ff" points="34.28,-25.01 24.69,-20.5 29.38,-30 34.28,-25.01"/>
<g id="a_edge1&#45;headlabel"><a xlink:href="dir_000264_000159.html" target="_top" xlink:title="1">
<text text-anchor="middle" x="37.75" y="-21.94" font-family="Helvetica,sans-Serif" font-size="10.00" fill="#63b8ff">1</text>
</a>
</g>
</g>
<!-- dir_694ec83a64f58cbdefbefce65cd1011c -->
<g id="node3" class="node">
<title>dir_694ec83a64f58cbdefbefce65cd1011c</title>
<g id="a_node3"><a xlink:href="dir_694ec83a64f58cbdefbefce65cd1011c.html" target="_top" xlink:title="kernel">
<polygon fill="#deebf9" stroke="red" stroke-dasharray="5,2" points="90,-19 47,-19 47,0 90,0 90,-19"/>
<text text-anchor="middle" x="68.5" y="-7" font-family="Helvetica,sans-Serif" font-size="10.00">kernel</text>
</a>
</g>
</g>
<!-- dir_3a7a010c28010a16f6513751c6839763&#45;&gt;dir_694ec83a64f58cbdefbefce65cd1011c -->
<g id="edge2" class="edge">
<title>dir_3a7a010c28010a16f6513751c6839763&#45;&gt;dir_694ec83a64f58cbdefbefce65cd1011c</title>
<path fill="none" stroke="#63b8ff" d="M68.5,-54.75C68.5,-48.27 68.5,-39.16 68.5,-30.9"/>
<polygon fill="#63b8ff" stroke="#63b8ff" points="72,-30.96 68.5,-20.96 65,-30.96 72,-30.96"/>
<g id="a_edge2&#45;headlabel"><a xlink:href="dir_000264_000165.html" target="_top" xlink:title="1">
<text text-anchor="middle" x="74.84" y="-30.54" font-family="Helvetica,sans-Serif" font-size="10.00" fill="#63b8ff">1</text>
</a>
</g>
</g>
<!-- dir_a0a8ac7efb6662b749c1285408048e6d -->
<g id="node4" class="node">
<title>dir_a0a8ac7efb6662b749c1285408048e6d</title>
<g id="a_node4"><a xlink:href="dir_a0a8ac7efb6662b749c1285408048e6d.html" target="_top" xlink:title="erl">
<polygon fill="#deebf9" stroke="red" stroke-dasharray="5,2" points="137,-19 108,-19 108,0 137,0 137,-19"/>
<text text-anchor="middle" x="122.5" y="-7" font-family="Helvetica,sans-Serif" font-size="10.00">erl</text>
</a>
</g>
</g>
<!-- dir_3a7a010c28010a16f6513751c6839763&#45;&gt;dir_a0a8ac7efb6662b749c1285408048e6d -->
<g id="edge3" class="edge">
<title>dir_3a7a010c28010a16f6513751c6839763&#45;&gt;dir_a0a8ac7efb6662b749c1285408048e6d</title>
<path fill="none" stroke="#63b8ff" d="M77.42,-54.75C84.95,-47.35 95.97,-36.54 105.23,-27.45"/>
<polygon fill="#63b8ff" stroke="#63b8ff" points="107.62,-30 112.31,-20.5 102.72,-25.01 107.62,-30"/>
<g id="a_edge3&#45;headlabel"><a xlink:href="dir_000264_000045.html" target="_top" xlink:title="1">
<text text-anchor="middle" x="108.13" y="-30.99" font-family="Helvetica,sans-Serif" font-size="10.00" fill="#63b8ff">1</text>
</a>
</g>
</g>
</g>
</svg>
