<?xml version="1.0" encoding="UTF-8" standalone="no"?>
<!DOCTYPE svg PUBLIC "-//W3C//DTD SVG 1.1//EN"
 "http://www.w3.org/Graphics/SVG/1.1/DTD/svg11.dtd">
<!-- Generated by graphviz version 7.0.5 (20221223.1930)
 -->
<!-- Title: ee/font Pages: 1 -->
<svg width="246pt" height="196pt"
 viewBox="0.00 0.00 245.50 196.00" xmlns="http://www.w3.org/2000/svg" xmlns:xlink="http://www.w3.org/1999/xlink">
<g id="graph0" class="graph" transform="scale(1 1) rotate(0) translate(4 192)">
<title>ee/font</title>
<g id="clust1" class="cluster">
<title>clusterdir_049738f1909e8dc3e45fe1f6b3faa109</title>
<g id="a_clust1"><a xlink:href="dir_049738f1909e8dc3e45fe1f6b3faa109.html" target="_top" xlink:title="ee">
<polygon fill="#deebf9" stroke="#404040" stroke-dasharray="5,2" points="8,-8 8,-180 160,-180 160,-8 8,-8"/>
<text text-anchor="middle" x="84" y="-168" font-family="Helvetica,sans-Serif" font-size="10.00">ee</text>
</a>
</g>
</g>
<g id="clust2" class="cluster">
<title>clusterdir_6a18a5fb12cb9e6be5f051ff6b53d12a</title>
<g id="a_clust2"><a xlink:href="dir_6a18a5fb12cb9e6be5f051ff6b53d12a.html" target="_top">
<polygon fill="#deebf9" stroke="#404040" stroke-width="2" points="16,-63 16,-153 114,-153 114,-63 16,-63"/>
</a>
</g>
</g>
<!-- dir_2649a81c7f56a709216892bc1285ef27 -->
<g id="node1" class="node">
<title>dir_2649a81c7f56a709216892bc1285ef27</title>
<g id="a_node1"><a xlink:href="dir_2649a81c7f56a709216892bc1285ef27.html" target="_top" xlink:title="draw">
<polygon fill="#60a2e3" stroke="red" points="78,-35 40,-35 40,-16 78,-16 78,-35"/>
<text text-anchor="middle" x="59" y="-23" font-family="Helvetica,sans-Serif" font-size="10.00">draw</text>
</a>
</g>
</g>
<!-- dir_a0a8ac7efb6662b749c1285408048e6d -->
<g id="node2" class="node">
<title>dir_a0a8ac7efb6662b749c1285408048e6d</title>
<g id="a_node2"><a xlink:href="dir_a0a8ac7efb6662b749c1285408048e6d.html" target="_top" xlink:title="erl">
<polygon fill="#60a2e3" stroke="red" points="151.5,-90 122.5,-90 122.5,-71 151.5,-71 151.5,-90"/>
<text text-anchor="middle" x="137" y="-78" font-family="Helvetica,sans-Serif" font-size="10.00">erl</text>
</a>
</g>
</g>
<!-- dir_6a18a5fb12cb9e6be5f051ff6b53d12a -->
<g id="node3" class="node">
<title>dir_6a18a5fb12cb9e6be5f051ff6b53d12a</title>
<text text-anchor="middle" x="89" y="-133" font-family="Helvetica,sans-Serif" font-size="10.00">font</text>
</g>
<!-- dir_3a96145256e208ba8e54b2dc9687859a -->
<g id="node4" class="node">
<title>dir_3a96145256e208ba8e54b2dc9687859a</title>
<g id="a_node4"><a xlink:href="dir_3a96145256e208ba8e54b2dc9687859a.html" target="_top" xlink:title="include">
<polygon fill="#60a2e3" stroke="#404040" points="104.5,-90 57.5,-90 57.5,-71 104.5,-71 104.5,-90"/>
<text text-anchor="middle" x="81" y="-78" font-family="Helvetica,sans-Serif" font-size="10.00">include</text>
</a>
</g>
</g>
<!-- dir_3a96145256e208ba8e54b2dc9687859a&#45;&gt;dir_2649a81c7f56a709216892bc1285ef27 -->
<g id="edge1" class="edge">
<title>dir_3a96145256e208ba8e54b2dc9687859a&#45;&gt;dir_2649a81c7f56a709216892bc1285ef27</title>
<path fill="none" stroke="#63b8ff" d="M77.37,-70.75C74.58,-64.04 70.63,-54.52 67.1,-46.02"/>
<polygon fill="#63b8ff" stroke="#63b8ff" points="70.36,-44.73 63.29,-36.84 63.89,-47.42 70.36,-44.73"/>
<g id="a_edge1&#45;headlabel"><a xlink:href="dir_000074_000032.html" target="_top" xlink:title="1">
<text text-anchor="middle" x="73.78" y="-43.07" font-family="Helvetica,sans-Serif" font-size="10.00" fill="#63b8ff">1</text>
</a>
</g>
</g>
<!-- dir_bdd9a5d540de89e9fe90efdfc6973a4f -->
<g id="node6" class="node">
<title>dir_bdd9a5d540de89e9fe90efdfc6973a4f</title>
<g id="a_node6"><a xlink:href="dir_bdd9a5d540de89e9fe90efdfc6973a4f.html" target="_top" xlink:title="common">
<polygon fill="#deebf9" stroke="red" points="222,-35 168,-35 168,-16 222,-16 222,-35"/>
<text text-anchor="middle" x="195" y="-23" font-family="Helvetica,sans-Serif" font-size="10.00">common</text>
</a>
</g>
</g>
<!-- dir_3a96145256e208ba8e54b2dc9687859a&#45;&gt;dir_bdd9a5d540de89e9fe90efdfc6973a4f -->
<g id="edge2" class="edge">
<title>dir_3a96145256e208ba8e54b2dc9687859a&#45;&gt;dir_bdd9a5d540de89e9fe90efdfc6973a4f</title>
<path fill="none" stroke="#63b8ff" d="M94.78,-70.52C98.95,-67.96 103.6,-65.25 108,-63 124.82,-54.39 144.15,-46.13 160.31,-39.65"/>
<polygon fill="#63b8ff" stroke="#63b8ff" points="161.5,-42.94 169.52,-36.02 158.93,-36.43 161.5,-42.94"/>
<g id="a_edge2&#45;headlabel"><a xlink:href="dir_000074_000024.html" target="_top" xlink:title="1">
<text text-anchor="middle" x="160.6" y="-43.85" font-family="Helvetica,sans-Serif" font-size="10.00" fill="#63b8ff">1</text>
</a>
</g>
</g>
<!-- dir_3a9c6fe855c5d1af04ce6ee63ecedf2c -->
<g id="node5" class="node">
<title>dir_3a9c6fe855c5d1af04ce6ee63ecedf2c</title>
<g id="a_node5"><a xlink:href="dir_3a9c6fe855c5d1af04ce6ee63ecedf2c.html" target="_top" xlink:title="src">
<polygon fill="#60a2e3" stroke="#404040" points="54,-145 24,-145 24,-126 54,-126 54,-145"/>
<text text-anchor="middle" x="39" y="-133" font-family="Helvetica,sans-Serif" font-size="10.00">src</text>
</a>
</g>
</g>
<!-- dir_3a9c6fe855c5d1af04ce6ee63ecedf2c&#45;&gt;dir_2649a81c7f56a709216892bc1285ef27 -->
<g id="edge4" class="edge">
<title>dir_3a9c6fe855c5d1af04ce6ee63ecedf2c&#45;&gt;dir_2649a81c7f56a709216892bc1285ef27</title>
<path fill="none" stroke="#63b8ff" d="M39.64,-125.61C40.72,-112.02 43.28,-85.27 48,-63 49.17,-57.46 50.79,-51.55 52.43,-46.13"/>
<polygon fill="#63b8ff" stroke="#63b8ff" points="55.69,-47.42 55.4,-36.83 49.02,-45.29 55.69,-47.42"/>
<g id="a_edge4&#45;headlabel"><a xlink:href="dir_000246_000032.html" target="_top" xlink:title="4">
<text text-anchor="middle" x="57.76" y="-47.77" font-family="Helvetica,sans-Serif" font-size="10.00" fill="#63b8ff">4</text>
</a>
</g>
</g>
<!-- dir_3a9c6fe855c5d1af04ce6ee63ecedf2c&#45;&gt;dir_a0a8ac7efb6662b749c1285408048e6d -->
<g id="edge6" class="edge">
<title>dir_3a9c6fe855c5d1af04ce6ee63ecedf2c&#45;&gt;dir_a0a8ac7efb6662b749c1285408048e6d</title>
<path fill="none" stroke="#63b8ff" d="M54.31,-126.22C69.79,-117.85 93.97,-104.77 112.19,-94.92"/>
<polygon fill="#63b8ff" stroke="#63b8ff" points="113.65,-98.11 120.78,-90.27 110.32,-91.95 113.65,-98.11"/>
<g id="a_edge6&#45;headlabel"><a xlink:href="dir_000246_000045.html" target="_top" xlink:title="1">
<text text-anchor="middle" x="113.17" y="-99.09" font-family="Helvetica,sans-Serif" font-size="10.00" fill="#63b8ff">1</text>
</a>
</g>
</g>
<!-- dir_3a9c6fe855c5d1af04ce6ee63ecedf2c&#45;&gt;dir_3a96145256e208ba8e54b2dc9687859a -->
<g id="edge5" class="edge">
<title>dir_3a9c6fe855c5d1af04ce6ee63ecedf2c&#45;&gt;dir_3a96145256e208ba8e54b2dc9687859a</title>
<path fill="none" stroke="#63b8ff" d="M45.94,-125.75C51.62,-118.58 59.84,-108.2 66.89,-99.3"/>
<polygon fill="#63b8ff" stroke="#63b8ff" points="69.51,-101.64 72.97,-91.63 64.02,-97.29 69.51,-101.64"/>
<g id="a_edge5&#45;headlabel"><a xlink:href="dir_000246_000074.html" target="_top" xlink:title="2">
<text text-anchor="middle" x="70.44" y="-102.53" font-family="Helvetica,sans-Serif" font-size="10.00" fill="#63b8ff">2</text>
</a>
</g>
</g>
<!-- dir_3a9c6fe855c5d1af04ce6ee63ecedf2c&#45;&gt;dir_bdd9a5d540de89e9fe90efdfc6973a4f -->
<g id="edge7" class="edge">
<title>dir_3a9c6fe855c5d1af04ce6ee63ecedf2c&#45;&gt;dir_bdd9a5d540de89e9fe90efdfc6973a4f</title>
<path fill="none" stroke="#63b8ff" d="M54.29,-129.08C87.59,-117.27 163.73,-90.24 164,-90 177.02,-78.37 185.14,-60.04 189.79,-46.06"/>
<polygon fill="#63b8ff" stroke="#63b8ff" points="193.1,-47.21 192.59,-36.63 186.39,-45.22 193.1,-47.21"/>
<g id="a_edge7&#45;headlabel"><a xlink:href="dir_000246_000024.html" target="_top" xlink:title="2">
<text text-anchor="middle" x="195.23" y="-47.51" font-family="Helvetica,sans-Serif" font-size="10.00" fill="#63b8ff">2</text>
</a>
</g>
</g>
<!-- dir_0981ace215aa2029f526b70c145b9fbe -->
<g id="node7" class="node">
<title>dir_0981ace215aa2029f526b70c145b9fbe</title>
<g id="a_node7"><a xlink:href="dir_0981ace215aa2029f526b70c145b9fbe.html" target="_top" xlink:title="iop">
<polygon fill="#deebf9" stroke="red" points="237.5,-90 208.5,-90 208.5,-71 237.5,-71 237.5,-90"/>
<text text-anchor="middle" x="223" y="-78" font-family="Helvetica,sans-Serif" font-size="10.00">iop</text>
</a>
</g>
</g>
<!-- dir_3a9c6fe855c5d1af04ce6ee63ecedf2c&#45;&gt;dir_0981ace215aa2029f526b70c145b9fbe -->
<g id="edge3" class="edge">
<title>dir_3a9c6fe855c5d1af04ce6ee63ecedf2c&#45;&gt;dir_0981ace215aa2029f526b70c145b9fbe</title>
<path fill="none" stroke="#63b8ff" d="M54.44,-128.85C57.27,-127.86 60.22,-126.87 63,-126 120.61,-107.91 135.92,-106.49 194,-90 195.16,-89.67 196.35,-89.33 197.55,-88.99"/>
<polygon fill="#63b8ff" stroke="#63b8ff" points="198.18,-92.45 206.81,-86.29 196.23,-85.73 198.18,-92.45"/>
<g id="a_edge3&#45;headlabel"><a xlink:href="dir_000246_000159.html" target="_top" xlink:title="2">
<text text-anchor="middle" x="196.98" y="-93.25" font-family="Helvetica,sans-Serif" font-size="10.00" fill="#63b8ff">2</text>
</a>
</g>
</g>
</g>
</svg>
