<?xml version="1.0" encoding="UTF-8" standalone="no"?>
<!DOCTYPE svg PUBLIC "-//W3C//DTD SVG 1.1//EN"
 "http://www.w3.org/Graphics/SVG/1.1/DTD/svg11.dtd">
<!-- Generated by graphviz version 7.0.5 (20221223.1930)
 -->
<!-- Title: iop/fs/bdm/src Pages: 1 -->
<svg width="331pt" height="141pt"
 viewBox="0.00 0.00 331.00 141.00" xmlns="http://www.w3.org/2000/svg" xmlns:xlink="http://www.w3.org/1999/xlink">
<g id="graph0" class="graph" transform="scale(1 1) rotate(0) translate(4 137)">
<title>iop/fs/bdm/src</title>
<g id="clust1" class="cluster">
<title>clusterdir_0134b0376fbe77322088b496fb368f9b</title>
<g id="a_clust1"><a xlink:href="dir_0134b0376fbe77322088b496fb368f9b.html" target="_top" xlink:title="bdm">
<polygon fill="#deebf9" stroke="#7f7f7f" stroke-dasharray="5,2" points="8,-8 8,-125 136,-125 136,-8 8,-8"/>
<text text-anchor="middle" x="72" y="-113" font-family="Helvetica,sans-Serif" font-size="10.00">bdm</text>
</a>
</g>
</g>
<g id="clust2" class="cluster">
<title>clusterdir_ac1b9311aa44ad4cf108d5fb93dfb606</title>
<g id="a_clust2"><a xlink:href="dir_ac1b9311aa44ad4cf108d5fb93dfb606.html" target="_top">
<polygon fill="#deebf9" stroke="#404040" stroke-width="2" points="16,-63 16,-98 128,-98 128,-63 16,-63"/>
</a>
</g>
</g>
<!-- dir_4aa3f641574c4329e5ed721597730e1e -->
<g id="node1" class="node">
<title>dir_4aa3f641574c4329e5ed721597730e1e</title>
<g id="a_node1"><a xlink:href="dir_4aa3f641574c4329e5ed721597730e1e.html" target="_top" xlink:title="include">
<polygon fill="#60a2e3" stroke="#404040" points="126.5,-35 79.5,-35 79.5,-16 126.5,-16 126.5,-35"/>
<text text-anchor="middle" x="103" y="-23" font-family="Helvetica,sans-Serif" font-size="10.00">include</text>
</a>
</g>
</g>
<!-- dir_ac1b9311aa44ad4cf108d5fb93dfb606 -->
<g id="node2" class="node">
<title>dir_ac1b9311aa44ad4cf108d5fb93dfb606</title>
<text text-anchor="middle" x="105" y="-78" font-family="Helvetica,sans-Serif" font-size="10.00">src</text>
</g>
<!-- dir_ac1b9311aa44ad4cf108d5fb93dfb606&#45;&gt;dir_4aa3f641574c4329e5ed721597730e1e -->
<g id="edge2" class="edge">
<title>dir_ac1b9311aa44ad4cf108d5fb93dfb606&#45;&gt;dir_4aa3f641574c4329e5ed721597730e1e</title>
<path fill="none" stroke="#63b8ff" d="M104.69,-71.22C104.44,-64.65 104.08,-55.18 103.76,-46.64"/>
<polygon fill="#63b8ff" stroke="#63b8ff" points="107.26,-46.63 103.39,-36.76 100.27,-46.89 107.26,-46.63"/>
<g id="a_edge2&#45;headlabel"><a xlink:href="dir_000302_000116.html" target="_top" xlink:title="4">
<text text-anchor="middle" x="110.18" y="-46.1" font-family="Helvetica,sans-Serif" font-size="10.00" fill="#63b8ff">4</text>
</a>
</g>
</g>
<!-- dir_10cce8191a2d4629e92aaca1231c0797 -->
<g id="node4" class="node">
<title>dir_10cce8191a2d4629e92aaca1231c0797</title>
<g id="a_node4"><a xlink:href="dir_10cce8191a2d4629e92aaca1231c0797.html" target="_top" xlink:title="libbdm">
<polygon fill="#deebf9" stroke="red" stroke-dasharray="5,2" points="189.5,-35 144.5,-35 144.5,-16 189.5,-16 189.5,-35"/>
<text text-anchor="middle" x="167" y="-23" font-family="Helvetica,sans-Serif" font-size="10.00">libbdm</text>
</a>
</g>
</g>
<!-- dir_ac1b9311aa44ad4cf108d5fb93dfb606&#45;&gt;dir_10cce8191a2d4629e92aaca1231c0797 -->
<g id="edge1" class="edge">
<title>dir_ac1b9311aa44ad4cf108d5fb93dfb606&#45;&gt;dir_10cce8191a2d4629e92aaca1231c0797</title>
<path fill="none" stroke="#63b8ff" d="M114.69,-71.22C123.63,-63.58 137.15,-52.02 148.21,-42.56"/>
<polygon fill="#63b8ff" stroke="#63b8ff" points="150.28,-45.39 155.61,-36.24 145.74,-40.07 150.28,-45.39"/>
<g id="a_edge1&#45;headlabel"><a xlink:href="dir_000302_000170.html" target="_top" xlink:title="1">
<text text-anchor="middle" x="150.55" y="-46.4" font-family="Helvetica,sans-Serif" font-size="10.00" fill="#63b8ff">1</text>
</a>
</g>
</g>
<!-- dir_9be0baa3d4a3e9f480a9ee70594037fa -->
<g id="node5" class="node">
<title>dir_9be0baa3d4a3e9f480a9ee70594037fa</title>
<g id="a_node5"><a xlink:href="dir_9be0baa3d4a3e9f480a9ee70594037fa.html" target="_top" xlink:title="kernel">
<polygon fill="#deebf9" stroke="red" stroke-dasharray="5,2" points="250.5,-35 207.5,-35 207.5,-16 250.5,-16 250.5,-35"/>
<text text-anchor="middle" x="229" y="-23" font-family="Helvetica,sans-Serif" font-size="10.00">kernel</text>
</a>
</g>
</g>
<!-- dir_ac1b9311aa44ad4cf108d5fb93dfb606&#45;&gt;dir_9be0baa3d4a3e9f480a9ee70594037fa -->
<g id="edge3" class="edge">
<title>dir_ac1b9311aa44ad4cf108d5fb93dfb606&#45;&gt;dir_9be0baa3d4a3e9f480a9ee70594037fa</title>
<path fill="none" stroke="#63b8ff" d="M119.71,-73.21C138.82,-65.04 172.7,-50.57 197.68,-39.89"/>
<polygon fill="#63b8ff" stroke="#63b8ff" points="198.9,-43.17 206.72,-36.02 196.15,-36.73 198.9,-43.17"/>
<g id="a_edge3&#45;headlabel"><a xlink:href="dir_000302_000166.html" target="_top" xlink:title="14">
<text text-anchor="middle" x="198.1" y="-44.1" font-family="Helvetica,sans-Serif" font-size="10.00" fill="#63b8ff">14</text>
</a>
</g>
</g>
<!-- dir_bdd9a5d540de89e9fe90efdfc6973a4f -->
<g id="node6" class="node">
<title>dir_bdd9a5d540de89e9fe90efdfc6973a4f</title>
<g id="a_node6"><a xlink:href="dir_bdd9a5d540de89e9fe90efdfc6973a4f.html" target="_top" xlink:title="common">
<polygon fill="#deebf9" stroke="red" points="323,-35 269,-35 269,-16 323,-16 323,-35"/>
<text text-anchor="middle" x="296" y="-23" font-family="Helvetica,sans-Serif" font-size="10.00">common</text>
</a>
</g>
</g>
<!-- dir_ac1b9311aa44ad4cf108d5fb93dfb606&#45;&gt;dir_bdd9a5d540de89e9fe90efdfc6973a4f -->
<g id="edge4" class="edge">
<title>dir_ac1b9311aa44ad4cf108d5fb93dfb606&#45;&gt;dir_bdd9a5d540de89e9fe90efdfc6973a4f</title>
<path fill="none" stroke="#63b8ff" d="M119.99,-75.34C149.39,-67.18 215.45,-48.85 257.75,-37.11"/>
<polygon fill="#63b8ff" stroke="#63b8ff" points="258.58,-40.51 267.28,-34.47 256.71,-33.77 258.58,-40.51"/>
<g id="a_edge4&#45;headlabel"><a xlink:href="dir_000302_000024.html" target="_top" xlink:title="1">
<text text-anchor="middle" x="257.34" y="-41.31" font-family="Helvetica,sans-Serif" font-size="10.00" fill="#63b8ff">1</text>
</a>
</g>
</g>
<!-- dir_d96040052f185a41787759ef73c94cbc -->
<g id="node3" class="node">
<title>dir_d96040052f185a41787759ef73c94cbc</title>
<g id="a_node3"><a xlink:href="dir_d96040052f185a41787759ef73c94cbc.html" target="_top" xlink:title="include">
<polygon fill="#60a2e3" stroke="#404040" points="71.5,-90 24.5,-90 24.5,-71 71.5,-71 71.5,-90"/>
<text text-anchor="middle" x="48" y="-78" font-family="Helvetica,sans-Serif" font-size="10.00">include</text>
</a>
</g>
</g>
</g>
</svg>
