<?xml version="1.0" encoding="UTF-8" standalone="no"?>
<!DOCTYPE svg PUBLIC "-//W3C//DTD SVG 1.1//EN"
 "http://www.w3.org/Graphics/SVG/1.1/DTD/svg11.dtd">
<!-- Generated by graphviz version 7.0.5 (20221223.1930)
 -->
<!-- Title: ee/font/include Pages: 1 -->
<svg width="118pt" height="117pt"
 viewBox="0.00 0.00 118.00 117.00" xmlns="http://www.w3.org/2000/svg" xmlns:xlink="http://www.w3.org/1999/xlink">
<g id="graph0" class="graph" transform="scale(1 1) rotate(0) translate(4 113)">
<title>ee/font/include</title>
<g id="clust1" class="cluster">
<title>clusterdir_6a18a5fb12cb9e6be5f051ff6b53d12a</title>
<g id="a_clust1"><a xlink:href="dir_6a18a5fb12cb9e6be5f051ff6b53d12a.html" target="_top" xlink:title="font">
<polygon fill="#deebf9" stroke="#7f7f7f" stroke-dasharray="5,2" points="19,-47 19,-101 83,-101 83,-47 19,-47"/>
<text text-anchor="middle" x="51" y="-89" font-family="Helvetica,sans-Serif" font-size="10.00">font</text>
</a>
</g>
</g>
<!-- dir_3a96145256e208ba8e54b2dc9687859a -->
<g id="node1" class="node">
<title>dir_3a96145256e208ba8e54b2dc9687859a</title>
<g id="a_node1"><a xlink:href="dir_3a96145256e208ba8e54b2dc9687859a.html" target="_top" xlink:title="include">
<polygon fill="#deebf9" stroke="#404040" stroke-width="2" points="74.5,-74 27.5,-74 27.5,-55 74.5,-55 74.5,-74"/>
<text text-anchor="middle" x="51" y="-62" font-family="Helvetica,sans-Serif" font-size="10.00">include</text>
</a>
</g>
</g>
<!-- dir_2649a81c7f56a709216892bc1285ef27 -->
<g id="node2" class="node">
<title>dir_2649a81c7f56a709216892bc1285ef27</title>
<g id="a_node2"><a xlink:href="dir_2649a81c7f56a709216892bc1285ef27.html" target="_top" xlink:title="draw">
<polygon fill="#deebf9" stroke="red" stroke-dasharray="5,2" points="38,-19 0,-19 0,0 38,0 38,-19"/>
<text text-anchor="middle" x="19" y="-7" font-family="Helvetica,sans-Serif" font-size="10.00">draw</text>
</a>
</g>
</g>
<!-- dir_3a96145256e208ba8e54b2dc9687859a&#45;&gt;dir_2649a81c7f56a709216892bc1285ef27 -->
<g id="edge1" class="edge">
<title>dir_3a96145256e208ba8e54b2dc9687859a&#45;&gt;dir_2649a81c7f56a709216892bc1285ef27</title>
<path fill="none" stroke="#63b8ff" d="M45.72,-54.75C41.53,-47.81 35.52,-37.86 30.27,-29.16"/>
<polygon fill="#63b8ff" stroke="#63b8ff" points="33.35,-27.49 25.18,-20.74 27.35,-31.11 33.35,-27.49"/>
<g id="a_edge1&#45;headlabel"><a xlink:href="dir_000074_000032.html" target="_top" xlink:title="1">
<text text-anchor="middle" x="36.85" y="-25.3" font-family="Helvetica,sans-Serif" font-size="10.00" fill="#63b8ff">1</text>
</a>
</g>
</g>
<!-- dir_bdd9a5d540de89e9fe90efdfc6973a4f -->
<g id="node3" class="node">
<title>dir_bdd9a5d540de89e9fe90efdfc6973a4f</title>
<g id="a_node3"><a xlink:href="dir_bdd9a5d540de89e9fe90efdfc6973a4f.html" target="_top" xlink:title="common">
<polygon fill="#deebf9" stroke="red" points="110,-19 56,-19 56,0 110,0 110,-19"/>
<text text-anchor="middle" x="83" y="-7" font-family="Helvetica,sans-Serif" font-size="10.00">common</text>
</a>
</g>
</g>
<!-- dir_3a96145256e208ba8e54b2dc9687859a&#45;&gt;dir_bdd9a5d540de89e9fe90efdfc6973a4f -->
<g id="edge2" class="edge">
<title>dir_3a96145256e208ba8e54b2dc9687859a&#45;&gt;dir_bdd9a5d540de89e9fe90efdfc6973a4f</title>
<path fill="none" stroke="#63b8ff" d="M56.28,-54.75C60.47,-47.81 66.48,-37.86 71.73,-29.16"/>
<polygon fill="#63b8ff" stroke="#63b8ff" points="74.65,-31.11 76.82,-20.74 68.65,-27.49 74.65,-31.11"/>
<g id="a_edge2&#45;headlabel"><a xlink:href="dir_000074_000024.html" target="_top" xlink:title="1">
<text text-anchor="middle" x="76" y="-31.86" font-family="Helvetica,sans-Serif" font-size="10.00" fill="#63b8ff">1</text>
</a>
</g>
</g>
</g>
</svg>
