<?xml version="1.0" encoding="UTF-8" standalone="no"?>
<!DOCTYPE svg PUBLIC "-//W3C//DTD SVG 1.1//EN"
 "http://www.w3.org/Graphics/SVG/1.1/DTD/svg11.dtd">
<!-- Generated by graphviz version 7.0.5 (20221223.1930)
 -->
<!-- Title: ee/elf&#45;loader/src/loader/src Pages: 1 -->
<svg width="171pt" height="117pt"
 viewBox="0.00 0.00 170.50 117.00" xmlns="http://www.w3.org/2000/svg" xmlns:xlink="http://www.w3.org/1999/xlink">
<g id="graph0" class="graph" transform="scale(1 1) rotate(0) translate(4 113)">
<title>ee/elf&#45;loader/src/loader/src</title>
<g id="clust1" class="cluster">
<title>clusterdir_a823facde94c6bc1001721fbc16ab82f</title>
<g id="a_clust1"><a xlink:href="dir_a823facde94c6bc1001721fbc16ab82f.html" target="_top" xlink:title="loader">
<polygon fill="#deebf9" stroke="#7f7f7f" stroke-dasharray="5,2" points="45.5,-47 45.5,-101 91.5,-101 91.5,-47 45.5,-47"/>
<text text-anchor="middle" x="68.5" y="-89" font-family="Helvetica,sans-Serif" font-size="10.00">loader</text>
</a>
</g>
</g>
<!-- dir_ed221be002b748c2b427296b2fccd1b2 -->
<g id="node1" class="node">
<title>dir_ed221be002b748c2b427296b2fccd1b2</title>
<g id="a_node1"><a xlink:href="dir_ed221be002b748c2b427296b2fccd1b2.html" target="_top" xlink:title="src">
<polygon fill="#deebf9" stroke="#404040" stroke-width="2" points="83.5,-74 53.5,-74 53.5,-55 83.5,-55 83.5,-74"/>
<text text-anchor="middle" x="68.5" y="-62" font-family="Helvetica,sans-Serif" font-size="10.00">src</text>
</a>
</g>
</g>
<!-- dir_0981ace215aa2029f526b70c145b9fbe -->
<g id="node2" class="node">
<title>dir_0981ace215aa2029f526b70c145b9fbe</title>
<g id="a_node2"><a xlink:href="dir_0981ace215aa2029f526b70c145b9fbe.html" target="_top" xlink:title="iop">
<polygon fill="#deebf9" stroke="red" points="29,-19 0,-19 0,0 29,0 29,-19"/>
<text text-anchor="middle" x="14.5" y="-7" font-family="Helvetica,sans-Serif" font-size="10.00">iop</text>
</a>
</g>
</g>
<!-- dir_ed221be002b748c2b427296b2fccd1b2&#45;&gt;dir_0981ace215aa2029f526b70c145b9fbe -->
<g id="edge1" class="edge">
<title>dir_ed221be002b748c2b427296b2fccd1b2&#45;&gt;dir_0981ace215aa2029f526b70c145b9fbe</title>
<path fill="none" stroke="#63b8ff" d="M59.58,-54.75C52.05,-47.35 41.03,-36.54 31.77,-27.45"/>
<polygon fill="#63b8ff" stroke="#63b8ff" points="34.28,-25.01 24.69,-20.5 29.38,-30 34.28,-25.01"/>
<g id="a_edge1&#45;headlabel"><a xlink:href="dir_000243_000159.html" target="_top" xlink:title="1">
<text text-anchor="middle" x="37.75" y="-21.94" font-family="Helvetica,sans-Serif" font-size="10.00" fill="#63b8ff">1</text>
</a>
</g>
</g>
<!-- dir_694ec83a64f58cbdefbefce65cd1011c -->
<g id="node3" class="node">
<title>dir_694ec83a64f58cbdefbefce65cd1011c</title>
<g id="a_node3"><a xlink:href="dir_694ec83a64f58cbdefbefce65cd1011c.html" target="_top" xlink:title="kernel">
<polygon fill="#deebf9" stroke="red" stroke-dasharray="5,2" points="90,-19 47,-19 47,0 90,0 90,-19"/>
<text text-anchor="middle" x="68.5" y="-7" font-family="Helvetica,sans-Serif" font-size="10.00">kernel</text>
</a>
</g>
</g>
<!-- dir_ed221be002b748c2b427296b2fccd1b2&#45;&gt;dir_694ec83a64f58cbdefbefce65cd1011c -->
<g id="edge2" class="edge">
<title>dir_ed221be002b748c2b427296b2fccd1b2&#45;&gt;dir_694ec83a64f58cbdefbefce65cd1011c</title>
<path fill="none" stroke="#63b8ff" d="M68.5,-54.75C68.5,-48.27 68.5,-39.16 68.5,-30.9"/>
<polygon fill="#63b8ff" stroke="#63b8ff" points="72,-30.96 68.5,-20.96 65,-30.96 72,-30.96"/>
<g id="a_edge2&#45;headlabel"><a xlink:href="dir_000243_000165.html" target="_top" xlink:title="3">
<text text-anchor="middle" x="74.84" y="-30.54" font-family="Helvetica,sans-Serif" font-size="10.00" fill="#63b8ff">3</text>
</a>
</g>
</g>
<!-- dir_bdd9a5d540de89e9fe90efdfc6973a4f -->
<g id="node4" class="node">
<title>dir_bdd9a5d540de89e9fe90efdfc6973a4f</title>
<g id="a_node4"><a xlink:href="dir_bdd9a5d540de89e9fe90efdfc6973a4f.html" target="_top" xlink:title="common">
<polygon fill="#deebf9" stroke="red" points="162.5,-19 108.5,-19 108.5,0 162.5,0 162.5,-19"/>
<text text-anchor="middle" x="135.5" y="-7" font-family="Helvetica,sans-Serif" font-size="10.00">common</text>
</a>
</g>
</g>
<!-- dir_ed221be002b748c2b427296b2fccd1b2&#45;&gt;dir_bdd9a5d540de89e9fe90efdfc6973a4f -->
<g id="edge3" class="edge">
<title>dir_ed221be002b748c2b427296b2fccd1b2&#45;&gt;dir_bdd9a5d540de89e9fe90efdfc6973a4f</title>
<path fill="none" stroke="#63b8ff" d="M79.87,-54.51C89.55,-46.85 103.7,-35.66 115.31,-26.47"/>
<polygon fill="#63b8ff" stroke="#63b8ff" points="117.44,-29.25 123.12,-20.3 113.1,-23.76 117.44,-29.25"/>
<g id="a_edge3&#45;headlabel"><a xlink:href="dir_000243_000024.html" target="_top" xlink:title="1">
<text text-anchor="middle" x="117.57" y="-30.26" font-family="Helvetica,sans-Serif" font-size="10.00" fill="#63b8ff">1</text>
</a>
</g>
</g>
</g>
</svg>
