<?xml version="1.0" encoding="UTF-8" standalone="no"?>
<!DOCTYPE svg PUBLIC "-//W3C//DTD SVG 1.1//EN"
 "http://www.w3.org/Graphics/SVG/1.1/DTD/svg11.dtd">
<!-- Generated by graphviz version 7.0.5 (20221223.1930)
 -->
<!-- Title: iop/dvrp/dvrmisc Pages: 1 -->
<svg width="198pt" height="125pt"
 viewBox="0.00 0.00 197.50 125.00" xmlns="http://www.w3.org/2000/svg" xmlns:xlink="http://www.w3.org/1999/xlink">
<g id="graph0" class="graph" transform="scale(1 1) rotate(0) translate(4 121)">
<title>iop/dvrp/dvrmisc</title>
<g id="clust1" class="cluster">
<title>clusterdir_a16ad4cba4b1f15056f2b7b0b5931815</title>
<g id="a_clust1"><a xlink:href="dir_a16ad4cba4b1f15056f2b7b0b5931815.html" target="_top" xlink:title="dvrp">
<polygon fill="#deebf9" stroke="#7f7f7f" stroke-dasharray="5,2" points="49.5,-39 49.5,-109 181.5,-109 181.5,-39 49.5,-39"/>
<text text-anchor="middle" x="115.5" y="-97" font-family="Helvetica,sans-Serif" font-size="10.00">dvrp</text>
</a>
</g>
</g>
<g id="clust2" class="cluster">
<title>clusterdir_14f5f0f9fe610eb1d19d953c1b59d5ca</title>
<g id="a_clust2"><a xlink:href="dir_14f5f0f9fe610eb1d19d953c1b59d5ca.html" target="_top">
<polygon fill="#deebf9" stroke="#404040" stroke-width="2" points="57.5,-47 57.5,-82 173.5,-82 173.5,-47 57.5,-47"/>
</a>
</g>
</g>
<!-- dir_14f5f0f9fe610eb1d19d953c1b59d5ca -->
<g id="node1" class="node">
<title>dir_14f5f0f9fe610eb1d19d953c1b59d5ca</title>
<text text-anchor="middle" x="139.5" y="-62" font-family="Helvetica,sans-Serif" font-size="10.00">dvrmisc</text>
</g>
<!-- dir_ab19dda6107f84e683ccc0253199f4b6 -->
<g id="node2" class="node">
<title>dir_ab19dda6107f84e683ccc0253199f4b6</title>
<g id="a_node2"><a xlink:href="dir_ab19dda6107f84e683ccc0253199f4b6.html" target="_top" xlink:title="src">
<polygon fill="#60a2e3" stroke="#404040" points="95.5,-74 65.5,-74 65.5,-55 95.5,-55 95.5,-74"/>
<text text-anchor="middle" x="80.5" y="-62" font-family="Helvetica,sans-Serif" font-size="10.00">src</text>
</a>
</g>
</g>
<!-- dir_9be0baa3d4a3e9f480a9ee70594037fa -->
<g id="node3" class="node">
<title>dir_9be0baa3d4a3e9f480a9ee70594037fa</title>
<g id="a_node3"><a xlink:href="dir_9be0baa3d4a3e9f480a9ee70594037fa.html" target="_top" xlink:title="kernel">
<polygon fill="#deebf9" stroke="red" stroke-dasharray="5,2" points="43,-19 0,-19 0,0 43,0 43,-19"/>
<text text-anchor="middle" x="21.5" y="-7" font-family="Helvetica,sans-Serif" font-size="10.00">kernel</text>
</a>
</g>
</g>
<!-- dir_ab19dda6107f84e683ccc0253199f4b6&#45;&gt;dir_9be0baa3d4a3e9f480a9ee70594037fa -->
<g id="edge2" class="edge">
<title>dir_ab19dda6107f84e683ccc0253199f4b6&#45;&gt;dir_9be0baa3d4a3e9f480a9ee70594037fa</title>
<path fill="none" stroke="#63b8ff" d="M70.49,-54.51C62.13,-47 50,-36.1 39.9,-27.03"/>
<polygon fill="#63b8ff" stroke="#63b8ff" points="42.26,-24.45 32.49,-20.37 37.59,-29.66 42.26,-24.45"/>
<g id="a_edge2&#45;headlabel"><a xlink:href="dir_000299_000166.html" target="_top" xlink:title="12">
<text text-anchor="middle" x="45.71" y="-21.23" font-family="Helvetica,sans-Serif" font-size="10.00" fill="#63b8ff">12</text>
</a>
</g>
</g>
<!-- dir_6f16cad81de2453a6f48c5e272ba4a18 -->
<g id="node4" class="node">
<title>dir_6f16cad81de2453a6f48c5e272ba4a18</title>
<g id="a_node4"><a xlink:href="dir_6f16cad81de2453a6f48c5e272ba4a18.html" target="_top" xlink:title="dev9">
<polygon fill="#deebf9" stroke="red" stroke-dasharray="5,2" points="99.5,-19 61.5,-19 61.5,0 99.5,0 99.5,-19"/>
<text text-anchor="middle" x="80.5" y="-7" font-family="Helvetica,sans-Serif" font-size="10.00">dev9</text>
</a>
</g>
</g>
<!-- dir_ab19dda6107f84e683ccc0253199f4b6&#45;&gt;dir_6f16cad81de2453a6f48c5e272ba4a18 -->
<g id="edge1" class="edge">
<title>dir_ab19dda6107f84e683ccc0253199f4b6&#45;&gt;dir_6f16cad81de2453a6f48c5e272ba4a18</title>
<path fill="none" stroke="#63b8ff" d="M80.5,-54.75C80.5,-48.27 80.5,-39.16 80.5,-30.9"/>
<polygon fill="#63b8ff" stroke="#63b8ff" points="84,-30.96 80.5,-20.96 77,-30.96 84,-30.96"/>
<g id="a_edge1&#45;headlabel"><a xlink:href="dir_000299_000028.html" target="_top" xlink:title="2">
<text text-anchor="middle" x="86.84" y="-30.54" font-family="Helvetica,sans-Serif" font-size="10.00" fill="#63b8ff">2</text>
</a>
</g>
</g>
<!-- dir_bdd9a5d540de89e9fe90efdfc6973a4f -->
<g id="node5" class="node">
<title>dir_bdd9a5d540de89e9fe90efdfc6973a4f</title>
<g id="a_node5"><a xlink:href="dir_bdd9a5d540de89e9fe90efdfc6973a4f.html" target="_top" xlink:title="common">
<polygon fill="#deebf9" stroke="red" points="171.5,-19 117.5,-19 117.5,0 171.5,0 171.5,-19"/>
<text text-anchor="middle" x="144.5" y="-7" font-family="Helvetica,sans-Serif" font-size="10.00">common</text>
</a>
</g>
</g>
<!-- dir_ab19dda6107f84e683ccc0253199f4b6&#45;&gt;dir_bdd9a5d540de89e9fe90efdfc6973a4f -->
<g id="edge3" class="edge">
<title>dir_ab19dda6107f84e683ccc0253199f4b6&#45;&gt;dir_bdd9a5d540de89e9fe90efdfc6973a4f</title>
<path fill="none" stroke="#63b8ff" d="M89,-54.56C93.71,-49.77 99.75,-43.87 105.5,-39 110.83,-34.48 116.82,-29.89 122.47,-25.75"/>
<polygon fill="#63b8ff" stroke="#63b8ff" points="124.17,-28.84 130.27,-20.17 120.1,-23.14 124.17,-28.84"/>
<g id="a_edge3&#45;headlabel"><a xlink:href="dir_000299_000024.html" target="_top" xlink:title="2">
<text text-anchor="middle" x="124.13" y="-29.86" font-family="Helvetica,sans-Serif" font-size="10.00" fill="#63b8ff">2</text>
</a>
</g>
</g>
</g>
</svg>
