<?xml version="1.0" encoding="UTF-8" standalone="no"?>
<!DOCTYPE svg PUBLIC "-//W3C//DTD SVG 1.1//EN"
 "http://www.w3.org/Graphics/SVG/1.1/DTD/svg11.dtd">
<!-- Generated by graphviz version 7.0.5 (20221223.1930)
 -->
<!-- Title: iop Pages: 1 -->
<!--zoomable 224 -->
<svg id="main" version="1.1" xmlns="http://www.w3.org/2000/svg" xmlns:xlink="http://www.w3.org/1999/xlink" xml:space="preserve" onload="init(evt)">
<style type="text/css"><![CDATA[
.edge:hover path { stroke: red; }
.edge:hover polygon { stroke: red; fill: red; }
]]></style>
<script type="text/javascript"><![CDATA[
var edges = document.getElementsByTagName('g');
if (edges && edges.length) {
  for (var i=0;i<edges.length;i++) {
    if (edges[i].id.substr(0,4)=='edge') {
      edges[i].setAttribute('class','edge');
    }
  }
}
]]></script>
        <defs>
                <circle id="rim" cx="0" cy="0" r="7"/>
                <circle id="rim2" cx="0" cy="0" r="3.5"/>
                <g id="zoomPlus">
                        <use xlink:href="#rim" fill="#404040">
                                <set attributeName="fill" to="#808080" begin="zoomplus.mouseover" end="zoomplus.mouseout"/>
                        </use>
                        <path d="M-4,0h8M0,-4v8" fill="none" stroke="white" stroke-width="1.5" pointer-events="none"/>
                </g>
                <g id="zoomMin">
                        <use xlink:href="#rim" fill="#404040">
                                <set attributeName="fill" to="#808080" begin="zoomminus.mouseover" end="zoomminus.mouseout"/>
                        </use>
                        <path d="M-4,0h8" fill="none" stroke="white" stroke-width="1.5" pointer-events="none"/>
                </g>
                <g id="dirArrow">
                        <path fill="none" stroke="white" stroke-width="1.5" d="M0,-3.0v7 M-2.5,-0.5L0,-3.0L2.5,-0.5"/>
                </g>
               <g id="resetDef">
                       <use xlink:href="#rim2" fill="#404040">
                               <set attributeName="fill" to="#808080" begin="reset.mouseover" end="reset.mouseout"/>
                       </use>
               </g>
        </defs>

<script type="text/javascript">
var viewWidth = 852;
var viewHeight = 224;
var sectionId = 'dynsection-0';
</script>
<script xlink:href="svgpan.js"/>
<svg id="graph" class="graph">
<g id="viewport">
<title>iop</title>
<g id="clust1" class="cluster">
<title>clusterdir_0981ace215aa2029f526b70c145b9fbe</title>
<g id="a_clust1"><a xlink:href="dir_0981ace215aa2029f526b70c145b9fbe.html" target="_top">
<polygon fill="#deebf9" stroke="#404040" stroke-width="2" points="8,-8 8,-208 642,-208 642,-8 8,-8"/>
</a>
</g>
</g>
<!-- dir_0981ace215aa2029f526b70c145b9fbe -->
<g id="node1" class="node">
<title>dir_0981ace215aa2029f526b70c145b9fbe</title>
<text text-anchor="middle" x="619" y="-188" font-family="Helvetica,sans-Serif" font-size="10.00">iop</text>
</g>
<!-- dir_a12d8da7b0731a57c6a388326ad5e612 -->
<g id="node2" class="node">
<title>dir_a12d8da7b0731a57c6a388326ad5e612</title>
<g id="a_node2"><a xlink:href="dir_a12d8da7b0731a57c6a388326ad5e612.html" target="_top" xlink:title="cdvd">
<polygon fill="#60a2e3" stroke="#404040" points="516,-145 478,-145 478,-126 516,-126 516,-145"/>
<text text-anchor="middle" x="497" y="-133" font-family="Helvetica,sans-Serif" font-size="10.00">cdvd</text>
</a>
</g>
</g>
<!-- dir_9be0baa3d4a3e9f480a9ee70594037fa -->
<g id="node9" class="node">
<title>dir_9be0baa3d4a3e9f480a9ee70594037fa</title>
<g id="a_node9"><a xlink:href="dir_9be0baa3d4a3e9f480a9ee70594037fa.html" target="_top" xlink:title="kernel">
<polygon fill="#60a2e3" stroke="#404040" points="254.5,-90 211.5,-90 211.5,-71 254.5,-71 254.5,-90"/>
<text text-anchor="middle" x="233" y="-78" font-family="Helvetica,sans-Serif" font-size="10.00">kernel</text>
</a>
</g>
</g>
<!-- dir_a12d8da7b0731a57c6a388326ad5e612&#45;&gt;dir_9be0baa3d4a3e9f480a9ee70594037fa -->
<g id="edge1" class="edge">
<title>dir_a12d8da7b0731a57c6a388326ad5e612&#45;&gt;dir_9be0baa3d4a3e9f480a9ee70594037fa</title>
<path fill="none" stroke="#63b8ff" d="M477.8,-128.37C474.86,-127.52 471.86,-126.7 469,-126 397.44,-108.45 312.23,-93.92 266.3,-86.61"/>
<polygon fill="#63b8ff" stroke="#63b8ff" points="266.89,-83.16 256.46,-85.06 265.8,-90.07 266.89,-83.16"/>
<g id="a_edge1&#45;headlabel"><a xlink:href="dir_000023_000166.html" target="_top" xlink:title="16">
<text text-anchor="middle" x="269.38" y="-78.18" font-family="Helvetica,sans-Serif" font-size="10.00" fill="#63b8ff">16</text>
</a>
</g>
</g>
<!-- dir_bdd9a5d540de89e9fe90efdfc6973a4f -->
<g id="node18" class="node">
<title>dir_bdd9a5d540de89e9fe90efdfc6973a4f</title>
<g id="a_node18"><a xlink:href="dir_bdd9a5d540de89e9fe90efdfc6973a4f.html" target="_top" xlink:title="common">
<polygon fill="#deebf9" stroke="red" points="704,-35 650,-35 650,-16 704,-16 704,-35"/>
<text text-anchor="middle" x="677" y="-23" font-family="Helvetica,sans-Serif" font-size="10.00">common</text>
</a>
</g>
</g>
<!-- dir_a12d8da7b0731a57c6a388326ad5e612&#45;&gt;dir_bdd9a5d540de89e9fe90efdfc6973a4f -->
<g id="edge2" class="edge">
<title>dir_a12d8da7b0731a57c6a388326ad5e612&#45;&gt;dir_bdd9a5d540de89e9fe90efdfc6973a4f</title>
<path fill="none" stroke="#63b8ff" d="M511.73,-125.66C542.58,-107.15 614.28,-64.13 652.3,-41.32"/>
<polygon fill="#63b8ff" stroke="#63b8ff" points="653.99,-44.39 660.77,-36.24 650.39,-38.38 653.99,-44.39"/>
<g id="a_edge2&#45;headlabel"><a xlink:href="dir_000023_000024.html" target="_top" xlink:title="2">
<text text-anchor="middle" x="653.67" y="-45.39" font-family="Helvetica,sans-Serif" font-size="10.00" fill="#63b8ff">2</text>
</a>
</g>
</g>
<!-- dir_8494d76ae2586079db82d45fe3dd6aec -->
<g id="node3" class="node">
<title>dir_8494d76ae2586079db82d45fe3dd6aec</title>
<g id="a_node3"><a xlink:href="dir_8494d76ae2586079db82d45fe3dd6aec.html" target="_top" xlink:title="debug">
<polygon fill="#60a2e3" stroke="#404040" points="577.5,-145 534.5,-145 534.5,-126 577.5,-126 577.5,-145"/>
<text text-anchor="middle" x="556" y="-133" font-family="Helvetica,sans-Serif" font-size="10.00">debug</text>
</a>
</g>
</g>
<!-- dir_8494d76ae2586079db82d45fe3dd6aec&#45;&gt;dir_9be0baa3d4a3e9f480a9ee70594037fa -->
<g id="edge4" class="edge">
<title>dir_8494d76ae2586079db82d45fe3dd6aec&#45;&gt;dir_9be0baa3d4a3e9f480a9ee70594037fa</title>
<path fill="none" stroke="#63b8ff" d="M534.06,-128.15C531.03,-127.37 527.95,-126.63 525,-126 431.97,-106.23 320.47,-91.75 266.09,-85.27"/>
<polygon fill="#63b8ff" stroke="#63b8ff" points="266.61,-81.81 256.27,-84.11 265.79,-88.76 266.61,-81.81"/>
<g id="a_edge4&#45;headlabel"><a xlink:href="dir_000027_000166.html" target="_top" xlink:title="74">
<text text-anchor="middle" x="269.01" y="-76.73" font-family="Helvetica,sans-Serif" font-size="10.00" fill="#63b8ff">74</text>
</a>
</g>
</g>
<!-- dir_8494d76ae2586079db82d45fe3dd6aec&#45;&gt;dir_bdd9a5d540de89e9fe90efdfc6973a4f -->
<g id="edge3" class="edge">
<title>dir_8494d76ae2586079db82d45fe3dd6aec&#45;&gt;dir_bdd9a5d540de89e9fe90efdfc6973a4f</title>
<path fill="none" stroke="#63b8ff" d="M565.9,-125.66C586.11,-107.62 632.38,-66.32 658.38,-43.12"/>
<polygon fill="#63b8ff" stroke="#63b8ff" points="660.7,-45.74 665.83,-36.47 656.04,-40.52 660.7,-45.74"/>
<g id="a_edge3&#45;headlabel"><a xlink:href="dir_000027_000024.html" target="_top" xlink:title="21">
<text text-anchor="middle" x="661.04" y="-46.74" font-family="Helvetica,sans-Serif" font-size="10.00" fill="#63b8ff">21</text>
</a>
</g>
</g>
<!-- dir_6f16cad81de2453a6f48c5e272ba4a18 -->
<g id="node4" class="node">
<title>dir_6f16cad81de2453a6f48c5e272ba4a18</title>
<g id="a_node4"><a xlink:href="dir_6f16cad81de2453a6f48c5e272ba4a18.html" target="_top" xlink:title="dev9">
<polygon fill="#60a2e3" stroke="#404040" points="634,-145 596,-145 596,-126 634,-126 634,-145"/>
<text text-anchor="middle" x="615" y="-133" font-family="Helvetica,sans-Serif" font-size="10.00">dev9</text>
</a>
</g>
</g>
<!-- dir_6f16cad81de2453a6f48c5e272ba4a18&#45;&gt;dir_9be0baa3d4a3e9f480a9ee70594037fa -->
<g id="edge5" class="edge">
<title>dir_6f16cad81de2453a6f48c5e272ba4a18&#45;&gt;dir_9be0baa3d4a3e9f480a9ee70594037fa</title>
<path fill="none" stroke="#63b8ff" d="M595.53,-128.13C592.69,-127.33 589.78,-126.59 587,-126 470.33,-101.15 328.85,-88.5 265.92,-83.76"/>
<polygon fill="#63b8ff" stroke="#63b8ff" points="266.5,-80.3 256.27,-83.06 265.99,-87.28 266.5,-80.3"/>
<g id="a_edge5&#45;headlabel"><a xlink:href="dir_000028_000166.html" target="_top" xlink:title="97">
<text text-anchor="middle" x="268.79" y="-75.12" font-family="Helvetica,sans-Serif" font-size="10.00" fill="#63b8ff">97</text>
</a>
</g>
</g>
<!-- dir_6f16cad81de2453a6f48c5e272ba4a18&#45;&gt;dir_bdd9a5d540de89e9fe90efdfc6973a4f -->
<g id="edge6" class="edge">
<title>dir_6f16cad81de2453a6f48c5e272ba4a18&#45;&gt;dir_bdd9a5d540de89e9fe90efdfc6973a4f</title>
<path fill="none" stroke="#63b8ff" d="M619.22,-125.73C625.25,-113.34 636.85,-90.1 648,-71 653.17,-62.14 659.33,-52.58 664.63,-44.59"/>
<polygon fill="#63b8ff" stroke="#63b8ff" points="667.43,-46.71 670.12,-36.46 661.62,-42.79 667.43,-46.71"/>
<g id="a_edge6&#45;headlabel"><a xlink:href="dir_000028_000024.html" target="_top" xlink:title="13">
<text text-anchor="middle" x="668.62" y="-47.52" font-family="Helvetica,sans-Serif" font-size="10.00" fill="#63b8ff">13</text>
</a>
</g>
</g>
<!-- dir_a16ad4cba4b1f15056f2b7b0b5931815 -->
<g id="node5" class="node">
<title>dir_a16ad4cba4b1f15056f2b7b0b5931815</title>
<g id="a_node5"><a xlink:href="dir_a16ad4cba4b1f15056f2b7b0b5931815.html" target="_top" xlink:title="dvrp">
<polygon fill="#60a2e3" stroke="#404040" points="517.5,-200 482.5,-200 482.5,-181 517.5,-181 517.5,-200"/>
<text text-anchor="middle" x="500" y="-188" font-family="Helvetica,sans-Serif" font-size="10.00">dvrp</text>
</a>
</g>
</g>
<!-- dir_a16ad4cba4b1f15056f2b7b0b5931815&#45;&gt;dir_6f16cad81de2453a6f48c5e272ba4a18 -->
<g id="edge8" class="edge">
<title>dir_a16ad4cba4b1f15056f2b7b0b5931815&#45;&gt;dir_6f16cad81de2453a6f48c5e272ba4a18</title>
<path fill="none" stroke="#63b8ff" d="M517.97,-181.22C535.94,-172.94 563.88,-160.06 585.18,-150.24"/>
<polygon fill="#63b8ff" stroke="#63b8ff" points="586.63,-153.43 594.25,-146.06 583.7,-147.07 586.63,-153.43"/>
<g id="a_edge8&#45;headlabel"><a xlink:href="dir_000039_000028.html" target="_top" xlink:title="12">
<text text-anchor="middle" x="585.93" y="-154.38" font-family="Helvetica,sans-Serif" font-size="10.00" fill="#63b8ff">12</text>
</a>
</g>
</g>
<!-- dir_a16ad4cba4b1f15056f2b7b0b5931815&#45;&gt;dir_9be0baa3d4a3e9f480a9ee70594037fa -->
<g id="edge7" class="edge">
<title>dir_a16ad4cba4b1f15056f2b7b0b5931815&#45;&gt;dir_9be0baa3d4a3e9f480a9ee70594037fa</title>
<path fill="none" stroke="#63b8ff" d="M482.09,-183.46C479.08,-182.56 475.97,-181.7 473,-181 374.44,-157.73 322.19,-213.94 248,-145 236.31,-134.14 232.94,-116 232.28,-101.89"/>
<polygon fill="#63b8ff" stroke="#63b8ff" points="235.78,-101.89 232.27,-91.89 228.78,-101.89 235.78,-101.89"/>
<g id="a_edge7&#45;headlabel"><a xlink:href="dir_000039_000166.html" target="_top" xlink:title="71">
<text text-anchor="middle" x="238.62" y="-101.47" font-family="Helvetica,sans-Serif" font-size="10.00" fill="#63b8ff">71</text>
</a>
</g>
</g>
<!-- dir_a16ad4cba4b1f15056f2b7b0b5931815&#45;&gt;dir_bdd9a5d540de89e9fe90efdfc6973a4f -->
<g id="edge9" class="edge">
<title>dir_a16ad4cba4b1f15056f2b7b0b5931815&#45;&gt;dir_bdd9a5d540de89e9fe90efdfc6973a4f</title>
<path fill="none" stroke="#63b8ff" d="M517.89,-183.4C520.91,-182.51 524.03,-181.67 527,-181 584.56,-168.1 751.22,-189.45 790,-145 811.62,-120.22 808.51,-98.18 790,-71 773.43,-46.67 741.32,-35.64 715.56,-30.64"/>
<polygon fill="#63b8ff" stroke="#63b8ff" points="716.18,-27.2 705.73,-28.99 715.02,-34.1 716.18,-27.2"/>
<g id="a_edge9&#45;headlabel"><a xlink:href="dir_000039_000024.html" target="_top" xlink:title="12">
<text text-anchor="middle" x="718.7" y="-22.24" font-family="Helvetica,sans-Serif" font-size="10.00" fill="#63b8ff">12</text>
</a>
</g>
</g>
<!-- dir_f24daea2522ffa8b6dc5fa9cdf5b8f5c -->
<g id="node6" class="node">
<title>dir_f24daea2522ffa8b6dc5fa9cdf5b8f5c</title>
<g id="a_node6"><a xlink:href="dir_f24daea2522ffa8b6dc5fa9cdf5b8f5c.html" target="_top" xlink:title="fs">
<polygon fill="#60a2e3" stroke="#404040" points="153.5,-145 124.5,-145 124.5,-126 153.5,-126 153.5,-145"/>
<text text-anchor="middle" x="139" y="-133" font-family="Helvetica,sans-Serif" font-size="10.00">fs</text>
</a>
</g>
</g>
<!-- dir_f24daea2522ffa8b6dc5fa9cdf5b8f5c&#45;&gt;dir_9be0baa3d4a3e9f480a9ee70594037fa -->
<g id="edge10" class="edge">
<title>dir_f24daea2522ffa8b6dc5fa9cdf5b8f5c&#45;&gt;dir_9be0baa3d4a3e9f480a9ee70594037fa</title>
<path fill="none" stroke="#63b8ff" d="M153.69,-126.22C167.97,-118.17 189.97,-105.76 207.18,-96.06"/>
<polygon fill="#63b8ff" stroke="#63b8ff" points="208.85,-99.13 215.84,-91.17 205.41,-93.04 208.85,-99.13"/>
<g id="a_edge10&#45;headlabel"><a xlink:href="dir_000054_000166.html" target="_top" xlink:title="207">
<text text-anchor="middle" x="208.43" y="-100.13" font-family="Helvetica,sans-Serif" font-size="10.00" fill="#63b8ff">207</text>
</a>
</g>
</g>
<!-- dir_40ac35421bc63b72c26b6c69b1517fd6 -->
<g id="node15" class="node">
<title>dir_40ac35421bc63b72c26b6c69b1517fd6</title>
<g id="a_node15"><a xlink:href="dir_40ac35421bc63b72c26b6c69b1517fd6.html" target="_top" xlink:title="system">
<polygon fill="#60a2e3" stroke="#404040" points="257,-35 209,-35 209,-16 257,-16 257,-35"/>
<text text-anchor="middle" x="233" y="-23" font-family="Helvetica,sans-Serif" font-size="10.00">system</text>
</a>
</g>
</g>
<!-- dir_f24daea2522ffa8b6dc5fa9cdf5b8f5c&#45;&gt;dir_40ac35421bc63b72c26b6c69b1517fd6 -->
<g id="edge12" class="edge">
<title>dir_f24daea2522ffa8b6dc5fa9cdf5b8f5c&#45;&gt;dir_40ac35421bc63b72c26b6c69b1517fd6</title>
<path fill="none" stroke="#63b8ff" d="M146.69,-125.66C162.18,-107.86 197.4,-67.41 217.73,-44.04"/>
<polygon fill="#63b8ff" stroke="#63b8ff" points="220.28,-46.44 224.21,-36.6 215,-41.85 220.28,-46.44"/>
<g id="a_edge12&#45;headlabel"><a xlink:href="dir_000054_000371.html" target="_top" xlink:title="3">
<text text-anchor="middle" x="221.06" y="-47.38" font-family="Helvetica,sans-Serif" font-size="10.00" fill="#63b8ff">3</text>
</a>
</g>
</g>
<!-- dir_f24daea2522ffa8b6dc5fa9cdf5b8f5c&#45;&gt;dir_bdd9a5d540de89e9fe90efdfc6973a4f -->
<g id="edge11" class="edge">
<title>dir_f24daea2522ffa8b6dc5fa9cdf5b8f5c&#45;&gt;dir_bdd9a5d540de89e9fe90efdfc6973a4f</title>
<path fill="none" stroke="#63b8ff" d="M153.8,-130.78C195.39,-120.41 316.95,-90.64 419,-71 515.59,-52.41 544.05,-56.21 638.44,-36.55"/>
<polygon fill="#63b8ff" stroke="#63b8ff" points="639.12,-39.99 648.18,-34.49 637.67,-33.14 639.12,-39.99"/>
<g id="a_edge11&#45;headlabel"><a xlink:href="dir_000054_000024.html" target="_top" xlink:title="17">
<text text-anchor="middle" x="637.67" y="-40.7" font-family="Helvetica,sans-Serif" font-size="10.00" fill="#63b8ff">17</text>
</a>
</g>
</g>
<!-- dir_b6763ea08a8f9364194ebe3565e6b1f0 -->
<g id="node7" class="node">
<title>dir_b6763ea08a8f9364194ebe3565e6b1f0</title>
<g id="a_node7"><a xlink:href="dir_b6763ea08a8f9364194ebe3565e6b1f0.html" target="_top" xlink:title="hdd">
<polygon fill="#60a2e3" stroke="#404040" points="464,-200 432,-200 432,-181 464,-181 464,-200"/>
<text text-anchor="middle" x="448" y="-188" font-family="Helvetica,sans-Serif" font-size="10.00">hdd</text>
</a>
</g>
</g>
<!-- dir_b6763ea08a8f9364194ebe3565e6b1f0&#45;&gt;dir_6f16cad81de2453a6f48c5e272ba4a18 -->
<g id="edge15" class="edge">
<title>dir_b6763ea08a8f9364194ebe3565e6b1f0&#45;&gt;dir_6f16cad81de2453a6f48c5e272ba4a18</title>
<path fill="none" stroke="#63b8ff" d="M464.39,-183.87C467.25,-182.9 470.21,-181.91 473,-181 511.42,-168.45 555.91,-154.62 584.71,-145.76"/>
<polygon fill="#63b8ff" stroke="#63b8ff" points="585.68,-149.12 594.21,-142.84 583.63,-142.43 585.68,-149.12"/>
<g id="a_edge15&#45;headlabel"><a xlink:href="dir_000058_000028.html" target="_top" xlink:title="10">
<text text-anchor="middle" x="584.52" y="-149.95" font-family="Helvetica,sans-Serif" font-size="10.00" fill="#63b8ff">10</text>
</a>
</g>
</g>
<!-- dir_b6763ea08a8f9364194ebe3565e6b1f0&#45;&gt;dir_9be0baa3d4a3e9f480a9ee70594037fa -->
<g id="edge14" class="edge">
<title>dir_b6763ea08a8f9364194ebe3565e6b1f0&#45;&gt;dir_9be0baa3d4a3e9f480a9ee70594037fa</title>
<path fill="none" stroke="#63b8ff" d="M431.75,-188.77C385.35,-186.33 253.91,-176.67 228,-145 218.14,-132.95 220.64,-114.95 224.88,-101.19"/>
<polygon fill="#63b8ff" stroke="#63b8ff" points="228.14,-102.46 228.28,-91.87 221.57,-100.07 228.14,-102.46"/>
<g id="a_edge14&#45;headlabel"><a xlink:href="dir_000058_000166.html" target="_top" xlink:title="62">
<text text-anchor="middle" x="230.1" y="-102.89" font-family="Helvetica,sans-Serif" font-size="10.00" fill="#63b8ff">62</text>
</a>
</g>
</g>
<!-- dir_b6763ea08a8f9364194ebe3565e6b1f0&#45;&gt;dir_bdd9a5d540de89e9fe90efdfc6973a4f -->
<g id="edge13" class="edge">
<title>dir_b6763ea08a8f9364194ebe3565e6b1f0&#45;&gt;dir_bdd9a5d540de89e9fe90efdfc6973a4f</title>
<path fill="none" stroke="#63b8ff" d="M464.27,-183.45C467.15,-182.53 470.14,-181.66 473,-181 533.9,-166.87 710.72,-191.95 752,-145 773.72,-120.3 768.27,-99.58 752,-71 743.8,-56.6 728.91,-46.38 714.54,-39.4"/>
<polygon fill="#63b8ff" stroke="#63b8ff" points="716.22,-36.31 705.66,-35.48 713.4,-42.72 716.22,-36.31"/>
<g id="a_edge13&#45;headlabel"><a xlink:href="dir_000058_000024.html" target="_top" xlink:title="36">
<text text-anchor="middle" x="719.27" y="-32.06" font-family="Helvetica,sans-Serif" font-size="10.00" fill="#63b8ff">36</text>
</a>
</g>
</g>
<!-- dir_fc941b9cdd19bfc53379effb1dbc42b0 -->
<g id="node8" class="node">
<title>dir_fc941b9cdd19bfc53379effb1dbc42b0</title>
<g id="a_node8"><a xlink:href="dir_fc941b9cdd19bfc53379effb1dbc42b0.html" target="_top" xlink:title="iLink">
<polygon fill="#60a2e3" stroke="#404040" points="184,-200 146,-200 146,-181 184,-181 184,-200"/>
<text text-anchor="middle" x="165" y="-188" font-family="Helvetica,sans-Serif" font-size="10.00">iLink</text>
</a>
</g>
</g>
<!-- dir_fc941b9cdd19bfc53379effb1dbc42b0&#45;&gt;dir_f24daea2522ffa8b6dc5fa9cdf5b8f5c -->
<g id="edge18" class="edge">
<title>dir_fc941b9cdd19bfc53379effb1dbc42b0&#45;&gt;dir_f24daea2522ffa8b6dc5fa9cdf5b8f5c</title>
<path fill="none" stroke="#63b8ff" d="M160.71,-180.75C157.38,-173.96 152.64,-164.3 148.44,-155.73"/>
<polygon fill="#63b8ff" stroke="#63b8ff" points="151.6,-154.24 144.05,-146.8 145.32,-157.32 151.6,-154.24"/>
<g id="a_edge18&#45;headlabel"><a xlink:href="dir_000063_000054.html" target="_top" xlink:title="2">
<text text-anchor="middle" x="155.07" y="-152.36" font-family="Helvetica,sans-Serif" font-size="10.00" fill="#63b8ff">2</text>
</a>
</g>
</g>
<!-- dir_fc941b9cdd19bfc53379effb1dbc42b0&#45;&gt;dir_9be0baa3d4a3e9f480a9ee70594037fa -->
<g id="edge17" class="edge">
<title>dir_fc941b9cdd19bfc53379effb1dbc42b0&#45;&gt;dir_9be0baa3d4a3e9f480a9ee70594037fa</title>
<path fill="none" stroke="#63b8ff" d="M170.02,-180.78C177.15,-168.46 190.73,-145.3 203,-126 208.56,-117.25 214.95,-107.7 220.41,-99.7"/>
<polygon fill="#63b8ff" stroke="#63b8ff" points="223.25,-101.74 226.02,-91.52 217.48,-97.78 223.25,-101.74"/>
<g id="a_edge17&#45;headlabel"><a xlink:href="dir_000063_000166.html" target="_top" xlink:title="117">
<text text-anchor="middle" x="224.41" y="-102.57" font-family="Helvetica,sans-Serif" font-size="10.00" fill="#63b8ff">117</text>
</a>
</g>
</g>
<!-- dir_fc941b9cdd19bfc53379effb1dbc42b0&#45;&gt;dir_bdd9a5d540de89e9fe90efdfc6973a4f -->
<g id="edge16" class="edge">
<title>dir_fc941b9cdd19bfc53379effb1dbc42b0&#45;&gt;dir_bdd9a5d540de89e9fe90efdfc6973a4f</title>
<path fill="none" stroke="#63b8ff" d="M184.45,-183C187.29,-182.22 190.2,-181.52 193,-181 245.9,-171.12 639.22,-184.29 676,-145 700.76,-118.55 691.93,-72.41 684,-46.19"/>
<polygon fill="#63b8ff" stroke="#63b8ff" points="687.37,-45.23 680.92,-36.83 680.72,-47.42 687.37,-45.23"/>
<g id="a_edge16&#45;headlabel"><a xlink:href="dir_000063_000024.html" target="_top" xlink:title="12">
<text text-anchor="middle" x="690.72" y="-43.82" font-family="Helvetica,sans-Serif" font-size="10.00" fill="#63b8ff">12</text>
</a>
</g>
</g>
<!-- dir_9be0baa3d4a3e9f480a9ee70594037fa&#45;&gt;dir_40ac35421bc63b72c26b6c69b1517fd6 -->
<g id="edge19" class="edge">
<title>dir_9be0baa3d4a3e9f480a9ee70594037fa&#45;&gt;dir_40ac35421bc63b72c26b6c69b1517fd6</title>
<path fill="none" stroke="#63b8ff" d="M227.83,-70.75C226.42,-64.19 225.96,-54.95 226.43,-46.6"/>
<polygon fill="#63b8ff" stroke="#63b8ff" points="229.87,-47.3 227.61,-36.94 222.92,-46.45 229.87,-47.3"/>
<g id="a_edge19&#45;headlabel"><a xlink:href="dir_000166_000371.html" target="_top" xlink:title="2">
<text text-anchor="middle" x="232.44" y="-47.21" font-family="Helvetica,sans-Serif" font-size="10.00" fill="#63b8ff">2</text>
</a>
</g>
</g>
<!-- dir_9be0baa3d4a3e9f480a9ee70594037fa&#45;&gt;dir_bdd9a5d540de89e9fe90efdfc6973a4f -->
<g id="edge20" class="edge">
<title>dir_9be0baa3d4a3e9f480a9ee70594037fa&#45;&gt;dir_bdd9a5d540de89e9fe90efdfc6973a4f</title>
<path fill="none" stroke="#63b8ff" d="M254.73,-76.67C268.07,-74.96 285.52,-72.78 301,-71 450.42,-53.87 492.45,-63 638.51,-36.33"/>
<polygon fill="#63b8ff" stroke="#63b8ff" points="638.99,-39.8 648.18,-34.53 637.71,-32.91 638.99,-39.8"/>
<g id="a_edge20&#45;headlabel"><a xlink:href="dir_000166_000024.html" target="_top" xlink:title="12">
<text text-anchor="middle" x="637.46" y="-40.47" font-family="Helvetica,sans-Serif" font-size="10.00" fill="#63b8ff">12</text>
</a>
</g>
</g>
<!-- dir_5805bfcfbe100e4767f47461b3e6402b -->
<g id="node10" class="node">
<title>dir_5805bfcfbe100e4767f47461b3e6402b</title>
<g id="a_node10"><a xlink:href="dir_5805bfcfbe100e4767f47461b3e6402b.html" target="_top" xlink:title="memorycard">
<polygon fill="#60a2e3" stroke="#404040" points="342,-145 272,-145 272,-126 342,-126 342,-145"/>
<text text-anchor="middle" x="307" y="-133" font-family="Helvetica,sans-Serif" font-size="10.00">memorycard</text>
</a>
</g>
</g>
<!-- dir_5805bfcfbe100e4767f47461b3e6402b&#45;&gt;dir_9be0baa3d4a3e9f480a9ee70594037fa -->
<g id="edge21" class="edge">
<title>dir_5805bfcfbe100e4767f47461b3e6402b&#45;&gt;dir_9be0baa3d4a3e9f480a9ee70594037fa</title>
<path fill="none" stroke="#63b8ff" d="M294.45,-125.51C283.54,-117.7 267.5,-106.21 254.54,-96.93"/>
<polygon fill="#63b8ff" stroke="#63b8ff" points="256.77,-94.22 246.6,-91.24 252.69,-99.91 256.77,-94.22"/>
<g id="a_edge21&#45;headlabel"><a xlink:href="dir_000186_000166.html" target="_top" xlink:title="37">
<text text-anchor="middle" x="260.11" y="-90.62" font-family="Helvetica,sans-Serif" font-size="10.00" fill="#63b8ff">37</text>
</a>
</g>
</g>
<!-- dir_5805bfcfbe100e4767f47461b3e6402b&#45;&gt;dir_40ac35421bc63b72c26b6c69b1517fd6 -->
<g id="edge23" class="edge">
<title>dir_5805bfcfbe100e4767f47461b3e6402b&#45;&gt;dir_40ac35421bc63b72c26b6c69b1517fd6</title>
<path fill="none" stroke="#63b8ff" d="M300.94,-125.66C288.86,-108.02 261.52,-68.12 245.45,-44.67"/>
<polygon fill="#63b8ff" stroke="#63b8ff" points="248.53,-42.98 239.99,-36.71 242.76,-46.94 248.53,-42.98"/>
<g id="a_edge23&#45;headlabel"><a xlink:href="dir_000186_000371.html" target="_top" xlink:title="2">
<text text-anchor="middle" x="252.05" y="-40.59" font-family="Helvetica,sans-Serif" font-size="10.00" fill="#63b8ff">2</text>
</a>
</g>
</g>
<!-- dir_5805bfcfbe100e4767f47461b3e6402b&#45;&gt;dir_bdd9a5d540de89e9fe90efdfc6973a4f -->
<g id="edge22" class="edge">
<title>dir_5805bfcfbe100e4767f47461b3e6402b&#45;&gt;dir_bdd9a5d540de89e9fe90efdfc6973a4f</title>
<path fill="none" stroke="#63b8ff" d="M328.53,-125.5C360.93,-112.21 424.39,-87.15 480,-71 548.96,-50.97 570.59,-52.75 638.76,-36.71"/>
<polygon fill="#63b8ff" stroke="#63b8ff" points="639.26,-40.18 648.16,-34.44 637.62,-33.38 639.26,-40.18"/>
<g id="a_edge22&#45;headlabel"><a xlink:href="dir_000186_000024.html" target="_top" xlink:title="3">
<text text-anchor="middle" x="637.9" y="-40.93" font-family="Helvetica,sans-Serif" font-size="10.00" fill="#63b8ff">3</text>
</a>
</g>
</g>
<!-- dir_f89050b4b7ba0179c2c7efd2300413d9 -->
<g id="node11" class="node">
<title>dir_f89050b4b7ba0179c2c7efd2300413d9</title>
<g id="a_node11"><a xlink:href="dir_f89050b4b7ba0179c2c7efd2300413d9.html" target="_top" xlink:title="network">
<polygon fill="#60a2e3" stroke="#404040" points="586.5,-200 535.5,-200 535.5,-181 586.5,-181 586.5,-200"/>
<text text-anchor="middle" x="561" y="-188" font-family="Helvetica,sans-Serif" font-size="10.00">network</text>
</a>
</g>
</g>
<!-- dir_f89050b4b7ba0179c2c7efd2300413d9&#45;&gt;dir_6f16cad81de2453a6f48c5e272ba4a18 -->
<g id="edge24" class="edge">
<title>dir_f89050b4b7ba0179c2c7efd2300413d9&#45;&gt;dir_6f16cad81de2453a6f48c5e272ba4a18</title>
<path fill="none" stroke="#63b8ff" d="M569.92,-180.75C577.45,-173.35 588.47,-162.54 597.73,-153.45"/>
<polygon fill="#63b8ff" stroke="#63b8ff" points="600.12,-156 604.81,-146.5 595.22,-151.01 600.12,-156"/>
<g id="a_edge24&#45;headlabel"><a xlink:href="dir_000200_000028.html" target="_top" xlink:title="3">
<text text-anchor="middle" x="600.63" y="-156.99" font-family="Helvetica,sans-Serif" font-size="10.00" fill="#63b8ff">3</text>
</a>
</g>
</g>
<!-- dir_f89050b4b7ba0179c2c7efd2300413d9&#45;&gt;dir_9be0baa3d4a3e9f480a9ee70594037fa -->
<g id="edge25" class="edge">
<title>dir_f89050b4b7ba0179c2c7efd2300413d9&#45;&gt;dir_9be0baa3d4a3e9f480a9ee70594037fa</title>
<path fill="none" stroke="#63b8ff" d="M535.08,-182.71C532.36,-182.09 529.63,-181.51 527,-181 468.86,-169.8 310.76,-180 263,-145 255.44,-139.46 246.15,-117.68 239.92,-101.16"/>
<polygon fill="#63b8ff" stroke="#63b8ff" points="243.22,-100 236.52,-91.79 236.64,-102.39 243.22,-100"/>
<g id="a_edge25&#45;headlabel"><a xlink:href="dir_000200_000166.html" target="_top" xlink:title="122">
<text text-anchor="middle" x="246.6" y="-98.49" font-family="Helvetica,sans-Serif" font-size="10.00" fill="#63b8ff">122</text>
</a>
</g>
</g>
<!-- dir_f89050b4b7ba0179c2c7efd2300413d9&#45;&gt;dir_bdd9a5d540de89e9fe90efdfc6973a4f -->
<g id="edge26" class="edge">
<title>dir_f89050b4b7ba0179c2c7efd2300413d9&#45;&gt;dir_bdd9a5d540de89e9fe90efdfc6973a4f</title>
<path fill="none" stroke="#63b8ff" d="M586.94,-182.94C589.99,-182.25 593.06,-181.58 596,-181 647.17,-170.83 794.05,-184.62 828,-145 849.4,-120.02 847.7,-97.34 828,-71 802.34,-36.69 751.48,-27.71 715.9,-25.91"/>
<polygon fill="#63b8ff" stroke="#63b8ff" points="716.1,-22.41 706,-25.59 715.88,-29.41 716.1,-22.41"/>
<g id="a_edge26&#45;headlabel"><a xlink:href="dir_000200_000024.html" target="_top" xlink:title="23">
<text text-anchor="middle" x="718.27" y="-17.14" font-family="Helvetica,sans-Serif" font-size="10.00" fill="#63b8ff">23</text>
</a>
</g>
</g>
<!-- dir_65b0066184b118a668041f55a1e77c0f -->
<g id="node12" class="node">
<title>dir_65b0066184b118a668041f55a1e77c0f</title>
<g id="a_node12"><a xlink:href="dir_65b0066184b118a668041f55a1e77c0f.html" target="_top" xlink:title="security">
<polygon fill="#60a2e3" stroke="#404040" points="86,-145 36,-145 36,-126 86,-126 86,-145"/>
<text text-anchor="middle" x="61" y="-133" font-family="Helvetica,sans-Serif" font-size="10.00">security</text>
</a>
</g>
</g>
<!-- dir_65b0066184b118a668041f55a1e77c0f&#45;&gt;dir_9be0baa3d4a3e9f480a9ee70594037fa -->
<g id="edge27" class="edge">
<title>dir_65b0066184b118a668041f55a1e77c0f&#45;&gt;dir_9be0baa3d4a3e9f480a9ee70594037fa</title>
<path fill="none" stroke="#63b8ff" d="M86.38,-126.68C116.56,-117.38 166.99,-101.84 200.13,-91.63"/>
<polygon fill="#63b8ff" stroke="#63b8ff" points="201.09,-94.99 209.62,-88.7 199.03,-88.3 201.09,-94.99"/>
<g id="a_edge27&#45;headlabel"><a xlink:href="dir_000227_000166.html" target="_top" xlink:title="37">
<text text-anchor="middle" x="199.94" y="-95.82" font-family="Helvetica,sans-Serif" font-size="10.00" fill="#63b8ff">37</text>
</a>
</g>
</g>
<!-- dir_65b0066184b118a668041f55a1e77c0f&#45;&gt;dir_40ac35421bc63b72c26b6c69b1517fd6 -->
<g id="edge28" class="edge">
<title>dir_65b0066184b118a668041f55a1e77c0f&#45;&gt;dir_40ac35421bc63b72c26b6c69b1517fd6</title>
<path fill="none" stroke="#63b8ff" d="M75.08,-125.66C104.56,-107.15 173.06,-64.13 209.4,-41.32"/>
<polygon fill="#63b8ff" stroke="#63b8ff" points="210.84,-44.55 217.45,-36.27 207.12,-38.62 210.84,-44.55"/>
<g id="a_edge28&#45;headlabel"><a xlink:href="dir_000227_000371.html" target="_top" xlink:title="1">
<text text-anchor="middle" x="210.59" y="-45.56" font-family="Helvetica,sans-Serif" font-size="10.00" fill="#63b8ff">1</text>
</a>
</g>
</g>
<!-- dir_6133ef156cce03413acfdeebec722ba1 -->
<g id="node13" class="node">
<title>dir_6133ef156cce03413acfdeebec722ba1</title>
<g id="a_node13"><a xlink:href="dir_6133ef156cce03413acfdeebec722ba1.html" target="_top" xlink:title="sio">
<polygon fill="#60a2e3" stroke="#404040" points="123.5,-200 94.5,-200 94.5,-181 123.5,-181 123.5,-200"/>
<text text-anchor="middle" x="109" y="-188" font-family="Helvetica,sans-Serif" font-size="10.00">sio</text>
</a>
</g>
</g>
<!-- dir_6133ef156cce03413acfdeebec722ba1&#45;&gt;dir_f24daea2522ffa8b6dc5fa9cdf5b8f5c -->
<g id="edge30" class="edge">
<title>dir_6133ef156cce03413acfdeebec722ba1&#45;&gt;dir_f24daea2522ffa8b6dc5fa9cdf5b8f5c</title>
<path fill="none" stroke="#63b8ff" d="M113.95,-180.75C117.84,-173.88 123.39,-164.08 128.28,-155.45"/>
<polygon fill="#63b8ff" stroke="#63b8ff" points="131.31,-157.19 133.19,-146.76 125.22,-153.74 131.31,-157.19"/>
<g id="a_edge30&#45;headlabel"><a xlink:href="dir_000229_000054.html" target="_top" xlink:title="2">
<text text-anchor="middle" x="132.76" y="-157.9" font-family="Helvetica,sans-Serif" font-size="10.00" fill="#63b8ff">2</text>
</a>
</g>
</g>
<!-- dir_6133ef156cce03413acfdeebec722ba1&#45;&gt;dir_9be0baa3d4a3e9f480a9ee70594037fa -->
<g id="edge29" class="edge">
<title>dir_6133ef156cce03413acfdeebec722ba1&#45;&gt;dir_9be0baa3d4a3e9f480a9ee70594037fa</title>
<path fill="none" stroke="#63b8ff" d="M107.15,-180.66C104.9,-167.35 102.77,-142.02 115,-126 135.03,-99.78 172.36,-89.01 199.69,-84.58"/>
<polygon fill="#63b8ff" stroke="#63b8ff" points="200.16,-88.05 209.58,-83.21 199.2,-81.12 200.16,-88.05"/>
<g id="a_edge29&#45;headlabel"><a xlink:href="dir_000229_000166.html" target="_top" xlink:title="23">
<text text-anchor="middle" x="198.48" y="-88.65" font-family="Helvetica,sans-Serif" font-size="10.00" fill="#63b8ff">23</text>
</a>
</g>
</g>
<!-- dir_6133ef156cce03413acfdeebec722ba1&#45;&gt;dir_40ac35421bc63b72c26b6c69b1517fd6 -->
<g id="edge31" class="edge">
<title>dir_6133ef156cce03413acfdeebec722ba1&#45;&gt;dir_40ac35421bc63b72c26b6c69b1517fd6</title>
<path fill="none" stroke="#63b8ff" d="M94.15,-185.51C65.89,-177.14 8.77,-156 27,-126 63.68,-65.64 148.81,-41.13 197.37,-31.78"/>
<polygon fill="#63b8ff" stroke="#63b8ff" points="197.88,-35.25 207.1,-30.04 196.64,-28.36 197.88,-35.25"/>
<g id="a_edge31&#45;headlabel"><a xlink:href="dir_000229_000371.html" target="_top" xlink:title="1">
<text text-anchor="middle" x="196.33" y="-35.91" font-family="Helvetica,sans-Serif" font-size="10.00" fill="#63b8ff">1</text>
</a>
</g>
</g>
<!-- dir_6133ef156cce03413acfdeebec722ba1&#45;&gt;dir_bdd9a5d540de89e9fe90efdfc6973a4f -->
<g id="edge32" class="edge">
<title>dir_6133ef156cce03413acfdeebec722ba1&#45;&gt;dir_bdd9a5d540de89e9fe90efdfc6973a4f</title>
<path fill="none" stroke="#63b8ff" d="M123.96,-184.28C128.13,-183.01 132.7,-181.79 137,-181 192.42,-170.75 599.22,-180.49 643,-145 672.29,-121.26 677.37,-74.07 677.69,-46.96"/>
<polygon fill="#63b8ff" stroke="#63b8ff" points="681.19,-46.92 677.57,-36.96 674.19,-47 681.19,-46.92"/>
<g id="a_edge32&#45;headlabel"><a xlink:href="dir_000229_000024.html" target="_top" xlink:title="2">
<text text-anchor="middle" x="684.05" y="-46.46" font-family="Helvetica,sans-Serif" font-size="10.00" fill="#63b8ff">2</text>
</a>
</g>
</g>
<!-- dir_838e88315325ec0d843359dcae22d639 -->
<g id="node14" class="node">
<title>dir_838e88315325ec0d843359dcae22d639</title>
<g id="a_node14"><a xlink:href="dir_838e88315325ec0d843359dcae22d639.html" target="_top" xlink:title="sound">
<polygon fill="#60a2e3" stroke="#404040" points="403.5,-145 360.5,-145 360.5,-126 403.5,-126 403.5,-145"/>
<text text-anchor="middle" x="382" y="-133" font-family="Helvetica,sans-Serif" font-size="10.00">sound</text>
</a>
</g>
</g>
<!-- dir_838e88315325ec0d843359dcae22d639&#45;&gt;dir_9be0baa3d4a3e9f480a9ee70594037fa -->
<g id="edge33" class="edge">
<title>dir_838e88315325ec0d843359dcae22d639&#45;&gt;dir_9be0baa3d4a3e9f480a9ee70594037fa</title>
<path fill="none" stroke="#63b8ff" d="M360.01,-126.68C335,-117.78 293.92,-103.17 265.27,-92.98"/>
<polygon fill="#63b8ff" stroke="#63b8ff" points="266.61,-89.74 256.02,-89.69 264.27,-96.34 266.61,-89.74"/>
<g id="a_edge33&#45;headlabel"><a xlink:href="dir_000236_000166.html" target="_top" xlink:title="105">
<text text-anchor="middle" x="269.52" y="-85.26" font-family="Helvetica,sans-Serif" font-size="10.00" fill="#63b8ff">105</text>
</a>
</g>
</g>
<!-- dir_838e88315325ec0d843359dcae22d639&#45;&gt;dir_bdd9a5d540de89e9fe90efdfc6973a4f -->
<g id="edge34" class="edge">
<title>dir_838e88315325ec0d843359dcae22d639&#45;&gt;dir_bdd9a5d540de89e9fe90efdfc6973a4f</title>
<path fill="none" stroke="#63b8ff" d="M400.61,-125.55C428.07,-112.53 481.27,-88.07 528,-71 548.34,-63.57 601.69,-47.98 638.7,-37.37"/>
<polygon fill="#63b8ff" stroke="#63b8ff" points="639.49,-40.79 648.15,-34.67 637.57,-34.05 639.49,-40.79"/>
<g id="a_edge34&#45;headlabel"><a xlink:href="dir_000236_000024.html" target="_top" xlink:title="2">
<text text-anchor="middle" x="638.27" y="-41.59" font-family="Helvetica,sans-Serif" font-size="10.00" fill="#63b8ff">2</text>
</a>
</g>
</g>
<!-- dir_40ac35421bc63b72c26b6c69b1517fd6&#45;&gt;dir_9be0baa3d4a3e9f480a9ee70594037fa -->
<g id="edge35" class="edge">
<title>dir_40ac35421bc63b72c26b6c69b1517fd6&#45;&gt;dir_9be0baa3d4a3e9f480a9ee70594037fa</title>
<path fill="none" stroke="#63b8ff" d="M238.21,-35.44C239.58,-41.97 240.04,-51.1 239.57,-59.35"/>
<polygon fill="#63b8ff" stroke="#63b8ff" points="236.1,-58.89 238.35,-69.25 243.05,-59.75 236.1,-58.89"/>
<g id="a_edge35&#45;headlabel"><a xlink:href="dir_000371_000166.html" target="_top" xlink:title="294">
<text text-anchor="middle" x="233.54" y="-53.98" font-family="Helvetica,sans-Serif" font-size="10.00" fill="#63b8ff">294</text>
</a>
</g>
</g>
<!-- dir_40ac35421bc63b72c26b6c69b1517fd6&#45;&gt;dir_bdd9a5d540de89e9fe90efdfc6973a4f -->
<g id="edge36" class="edge">
<title>dir_40ac35421bc63b72c26b6c69b1517fd6&#45;&gt;dir_bdd9a5d540de89e9fe90efdfc6973a4f</title>
<path fill="none" stroke="#63b8ff" d="M257.28,-25.5C384.2,-25.5 511.12,-25.5 638.05,-25.5"/>
<polygon fill="#63b8ff" stroke="#63b8ff" points="638.02,-29 648.02,-25.5 638.02,-22 638.02,-29"/>
<g id="a_edge36&#45;headlabel"><a xlink:href="dir_000371_000024.html" target="_top" xlink:title="5">
<text text-anchor="middle" x="635.94" y="-29.34" font-family="Helvetica,sans-Serif" font-size="10.00" fill="#63b8ff">5</text>
</a>
</g>
</g>
<!-- dir_cb38d55d28446d14702541320714f23c -->
<g id="node16" class="node">
<title>dir_cb38d55d28446d14702541320714f23c</title>
<g id="a_node16"><a xlink:href="dir_cb38d55d28446d14702541320714f23c.html" target="_top" xlink:title="tcpip">
<polygon fill="#60a2e3" stroke="#404040" points="460,-145 422,-145 422,-126 460,-126 460,-145"/>
<text text-anchor="middle" x="441" y="-133" font-family="Helvetica,sans-Serif" font-size="10.00">tcpip</text>
</a>
</g>
</g>
<!-- dir_cb38d55d28446d14702541320714f23c&#45;&gt;dir_9be0baa3d4a3e9f480a9ee70594037fa -->
<g id="edge37" class="edge">
<title>dir_cb38d55d28446d14702541320714f23c&#45;&gt;dir_9be0baa3d4a3e9f480a9ee70594037fa</title>
<path fill="none" stroke="#63b8ff" d="M421.69,-128.72C418.46,-127.79 415.14,-126.85 412,-126 361.1,-112.22 301.61,-97.75 265.65,-89.19"/>
<polygon fill="#63b8ff" stroke="#63b8ff" points="266.85,-85.88 256.32,-86.97 265.24,-92.69 266.85,-85.88"/>
<g id="a_edge37&#45;headlabel"><a xlink:href="dir_000373_000166.html" target="_top" xlink:title="53">
<text text-anchor="middle" x="269.53" y="-81.09" font-family="Helvetica,sans-Serif" font-size="10.00" fill="#63b8ff">53</text>
</a>
</g>
</g>
<!-- dir_cb38d55d28446d14702541320714f23c&#45;&gt;dir_bdd9a5d540de89e9fe90efdfc6973a4f -->
<g id="edge38" class="edge">
<title>dir_cb38d55d28446d14702541320714f23c&#45;&gt;dir_bdd9a5d540de89e9fe90efdfc6973a4f</title>
<path fill="none" stroke="#63b8ff" d="M458.66,-125.59C483.7,-113.03 531.03,-89.59 572,-71 596.15,-60.04 623.77,-48.37 644.62,-39.73"/>
<polygon fill="#63b8ff" stroke="#63b8ff" points="645.83,-43.01 653.74,-35.96 643.16,-36.54 645.83,-43.01"/>
<g id="a_edge38&#45;headlabel"><a xlink:href="dir_000373_000024.html" target="_top" xlink:title="5">
<text text-anchor="middle" x="644.99" y="-43.93" font-family="Helvetica,sans-Serif" font-size="10.00" fill="#63b8ff">5</text>
</a>
</g>
</g>
<!-- dir_b6c875632944d243a548db157cd77ec2 -->
<g id="node17" class="node">
<title>dir_b6c875632944d243a548db157cd77ec2</title>
<g id="a_node17"><a xlink:href="dir_b6c875632944d243a548db157cd77ec2.html" target="_top" xlink:title="usb">
<polygon fill="#60a2e3" stroke="#404040" points="234,-200 202,-200 202,-181 234,-181 234,-200"/>
<text text-anchor="middle" x="218" y="-188" font-family="Helvetica,sans-Serif" font-size="10.00">usb</text>
</a>
</g>
</g>
<!-- dir_b6c875632944d243a548db157cd77ec2&#45;&gt;dir_f24daea2522ffa8b6dc5fa9cdf5b8f5c -->
<g id="edge41" class="edge">
<title>dir_b6c875632944d243a548db157cd77ec2&#45;&gt;dir_f24daea2522ffa8b6dc5fa9cdf5b8f5c</title>
<path fill="none" stroke="#63b8ff" d="M204.6,-180.51C192.84,-172.62 175.49,-160.98 161.59,-151.65"/>
<polygon fill="#63b8ff" stroke="#63b8ff" points="163.71,-148.87 153.46,-146.2 159.81,-154.68 163.71,-148.87"/>
<g id="a_edge41&#45;headlabel"><a xlink:href="dir_000384_000054.html" target="_top" xlink:title="2">
<text text-anchor="middle" x="167.02" y="-145.17" font-family="Helvetica,sans-Serif" font-size="10.00" fill="#63b8ff">2</text>
</a>
</g>
</g>
<!-- dir_b6c875632944d243a548db157cd77ec2&#45;&gt;dir_9be0baa3d4a3e9f480a9ee70594037fa -->
<g id="edge39" class="edge">
<title>dir_b6c875632944d243a548db157cd77ec2&#45;&gt;dir_9be0baa3d4a3e9f480a9ee70594037fa</title>
<path fill="none" stroke="#63b8ff" d="M214.38,-180.76C209.77,-168.41 202.97,-145.22 208,-126 210.41,-116.81 215.18,-107.5 219.92,-99.8"/>
<polygon fill="#63b8ff" stroke="#63b8ff" points="222.68,-101.97 225.3,-91.7 216.85,-98.1 222.68,-101.97"/>
<g id="a_edge39&#45;headlabel"><a xlink:href="dir_000384_000166.html" target="_top" xlink:title="148">
<text text-anchor="middle" x="223.9" y="-102.78" font-family="Helvetica,sans-Serif" font-size="10.00" fill="#63b8ff">148</text>
</a>
</g>
</g>
<!-- dir_b6c875632944d243a548db157cd77ec2&#45;&gt;dir_bdd9a5d540de89e9fe90efdfc6973a4f -->
<g id="edge40" class="edge">
<title>dir_b6c875632944d243a548db157cd77ec2&#45;&gt;dir_bdd9a5d540de89e9fe90efdfc6973a4f</title>
<path fill="none" stroke="#63b8ff" d="M234.46,-188.64C318.6,-184.18 697.41,-163.15 714,-145 736.19,-120.73 725.18,-101.93 714,-71 710.27,-60.68 702.98,-51.06 695.86,-43.43"/>
<polygon fill="#63b8ff" stroke="#63b8ff" points="698.44,-41.06 688.86,-36.52 693.52,-46.04 698.44,-41.06"/>
<g id="a_edge40&#45;headlabel"><a xlink:href="dir_000384_000024.html" target="_top" xlink:title="12">
<text text-anchor="middle" x="701.91" y="-38" font-family="Helvetica,sans-Serif" font-size="10.00" fill="#63b8ff">12</text>
</a>
</g>
</g>
</g>
</svg>
        <g id="navigator" transform="translate(0 0)" fill="#404254">
                <rect fill="#f2f5e9" fill-opacity="0.5" stroke="#606060" stroke-width=".5" x="0" y="0" width="60" height="60"/>
                <use id="zoomplus" xlink:href="#zoomPlus" x="17" y="9" onmousedown="handleZoom(evt,'in')"/>
                <use id="zoomminus" xlink:href="#zoomMin" x="42" y="9" onmousedown="handleZoom(evt,'out')"/>
                <use id="reset" xlink:href="#resetDef" x="30" y="36" onmousedown="handleReset()"/>
                <g id="arrowUp" xlink:href="#dirArrow" transform="translate(30 24)" onmousedown="handlePan(0,-1)">
                  <use xlink:href="#rim" fill="#404040">
                        <set attributeName="fill" to="#808080" begin="arrowUp.mouseover" end="arrowUp.mouseout"/>
                  </use>
                  <path fill="none" stroke="white" stroke-width="1.5" d="M0,-3.0v7 M-2.5,-0.5L0,-3.0L2.5,-0.5"/>
                </g>
                <g id="arrowRight" xlink:href="#dirArrow" transform="rotate(90) translate(36 -43)" onmousedown="handlePan(1,0)">
                  <use xlink:href="#rim" fill="#404040">
                        <set attributeName="fill" to="#808080" begin="arrowRight.mouseover" end="arrowRight.mouseout"/>
                  </use>
                  <path fill="none" stroke="white" stroke-width="1.5" d="M0,-3.0v7 M-2.5,-0.5L0,-3.0L2.5,-0.5"/>
                </g>
                <g id="arrowDown" xlink:href="#dirArrow" transform="rotate(180) translate(-30 -48)" onmousedown="handlePan(0,1)">
                  <use xlink:href="#rim" fill="#404040">
                        <set attributeName="fill" to="#808080" begin="arrowDown.mouseover" end="arrowDown.mouseout"/>
                  </use>
                  <path fill="none" stroke="white" stroke-width="1.5" d="M0,-3.0v7 M-2.5,-0.5L0,-3.0L2.5,-0.5"/>
                </g>
                <g id="arrowLeft" xlink:href="#dirArrow" transform="rotate(270) translate(-36 17)" onmousedown="handlePan(-1,0)">
                  <use xlink:href="#rim" fill="#404040">
                        <set attributeName="fill" to="#808080" begin="arrowLeft.mouseover" end="arrowLeft.mouseout"/>
                  </use>
                  <path fill="none" stroke="white" stroke-width="1.5" d="M0,-3.0v7 M-2.5,-0.5L0,-3.0L2.5,-0.5"/>
                </g>
        </g>
        <svg viewBox="0 0 15 15" width="100%" height="30px" preserveAspectRatio="xMaxYMin meet">
         <g id="arrow_out" transform="scale(0.3 0.3)">
          <a xlink:href="dir_0981ace215aa2029f526b70c145b9fbe_dep_org.svg" target="_base">
           <rect id="button" ry="5" rx="5" y="6" x="6" height="38" width="38"
                fill="#f2f5e9" fill-opacity="0.5" stroke="#606060" stroke-width="1.0"/>
           <path id="arrow"
             d="M 11.500037,31.436501 C 11.940474,20.09759 22.043105,11.32322 32.158766,21.979434 L 37.068811,17.246167 C 37.068811,17.246167 37.088388,32 37.088388,32 L 22.160133,31.978069 C 22.160133,31.978069 26.997745,27.140456 26.997745,27.140456 C 18.528582,18.264221 13.291696,25.230495 11.500037,31.436501 z"
             style="fill:#404040;"/>
          </a>
         </g>
        </svg>
</svg>
