<?xml version="1.0" encoding="UTF-8" standalone="no"?>
<!DOCTYPE svg PUBLIC "-//W3C//DTD SVG 1.1//EN"
 "http://www.w3.org/Graphics/SVG/1.1/DTD/svg11.dtd">
<!-- Generated by graphviz version 7.0.5 (20221223.1930)
 -->
<!-- Title: iop/system/rmman/src Pages: 1 -->
<svg width="208pt" height="133pt"
 viewBox="0.00 0.00 207.50 133.00" xmlns="http://www.w3.org/2000/svg" xmlns:xlink="http://www.w3.org/1999/xlink">
<g id="graph0" class="graph" transform="scale(1 1) rotate(0) translate(4 129)">
<title>iop/system/rmman/src</title>
<g id="clust1" class="cluster">
<title>clusterdir_fe7329d8b89241d59f89f45fd75d2e77</title>
<g id="a_clust1"><a xlink:href="dir_fe7329d8b89241d59f89f45fd75d2e77.html" target="_top" xlink:title="rmman">
<polygon fill="#deebf9" stroke="#7f7f7f" stroke-dasharray="5,2" points="8,-8 8,-117 72,-117 72,-8 8,-8"/>
<text text-anchor="middle" x="40" y="-105" font-family="Helvetica,sans-Serif" font-size="10.00">rmman</text>
</a>
</g>
</g>
<!-- dir_ba0bf5790b75dbb76cd621ad13634675 -->
<g id="node1" class="node">
<title>dir_ba0bf5790b75dbb76cd621ad13634675</title>
<g id="a_node1"><a xlink:href="dir_ba0bf5790b75dbb76cd621ad13634675.html" target="_top" xlink:title="include">
<polygon fill="#60a2e3" stroke="#404040" points="63.5,-35 16.5,-35 16.5,-16 63.5,-16 63.5,-35"/>
<text text-anchor="middle" x="40" y="-23" font-family="Helvetica,sans-Serif" font-size="10.00">include</text>
</a>
</g>
</g>
<!-- dir_4b4edfc69082ccc9fa978b057a42ad24 -->
<g id="node2" class="node">
<title>dir_4b4edfc69082ccc9fa978b057a42ad24</title>
<g id="a_node2"><a xlink:href="dir_4b4edfc69082ccc9fa978b057a42ad24.html" target="_top" xlink:title="src">
<polygon fill="#deebf9" stroke="#404040" stroke-width="2" points="64,-90 34,-90 34,-71 64,-71 64,-90"/>
<text text-anchor="middle" x="49" y="-78" font-family="Helvetica,sans-Serif" font-size="10.00">src</text>
</a>
</g>
</g>
<!-- dir_4b4edfc69082ccc9fa978b057a42ad24&#45;&gt;dir_ba0bf5790b75dbb76cd621ad13634675 -->
<g id="edge3" class="edge">
<title>dir_4b4edfc69082ccc9fa978b057a42ad24&#45;&gt;dir_ba0bf5790b75dbb76cd621ad13634675</title>
<path fill="none" stroke="#63b8ff" d="M47.51,-70.75C46.4,-64.19 44.83,-54.95 43.41,-46.6"/>
<polygon fill="#63b8ff" stroke="#63b8ff" points="46.9,-46.21 41.77,-36.93 40,-47.38 46.9,-46.21"/>
<g id="a_edge3&#45;headlabel"><a xlink:href="dir_000340_000142.html" target="_top" xlink:title="1">
<text text-anchor="middle" x="50.04" y="-45.28" font-family="Helvetica,sans-Serif" font-size="10.00" fill="#63b8ff">1</text>
</a>
</g>
</g>
<!-- dir_47d6ec5167f7ee6ef257538cbd6ee8bb -->
<g id="node3" class="node">
<title>dir_47d6ec5167f7ee6ef257538cbd6ee8bb</title>
<g id="a_node3"><a xlink:href="dir_47d6ec5167f7ee6ef257538cbd6ee8bb.html" target="_top" xlink:title="rsio2man">
<polygon fill="#deebf9" stroke="red" stroke-dasharray="5,2" points="138,-35 82,-35 82,-16 138,-16 138,-35"/>
<text text-anchor="middle" x="110" y="-23" font-family="Helvetica,sans-Serif" font-size="10.00">rsio2man</text>
</a>
</g>
</g>
<!-- dir_4b4edfc69082ccc9fa978b057a42ad24&#45;&gt;dir_47d6ec5167f7ee6ef257538cbd6ee8bb -->
<g id="edge1" class="edge">
<title>dir_4b4edfc69082ccc9fa978b057a42ad24&#45;&gt;dir_47d6ec5167f7ee6ef257538cbd6ee8bb</title>
<path fill="none" stroke="#63b8ff" d="M59.35,-70.51C68.08,-62.93 80.79,-51.88 91.3,-42.75"/>
<polygon fill="#63b8ff" stroke="#63b8ff" points="93.41,-45.55 98.66,-36.35 88.82,-40.27 93.41,-45.55"/>
<g id="a_edge1&#45;headlabel"><a xlink:href="dir_000340_000220.html" target="_top" xlink:title="2">
<text text-anchor="middle" x="93.7" y="-46.56" font-family="Helvetica,sans-Serif" font-size="10.00" fill="#63b8ff">2</text>
</a>
</g>
</g>
<!-- dir_9be0baa3d4a3e9f480a9ee70594037fa -->
<g id="node4" class="node">
<title>dir_9be0baa3d4a3e9f480a9ee70594037fa</title>
<g id="a_node4"><a xlink:href="dir_9be0baa3d4a3e9f480a9ee70594037fa.html" target="_top" xlink:title="kernel">
<polygon fill="#deebf9" stroke="red" stroke-dasharray="5,2" points="199.5,-35 156.5,-35 156.5,-16 199.5,-16 199.5,-35"/>
<text text-anchor="middle" x="178" y="-23" font-family="Helvetica,sans-Serif" font-size="10.00">kernel</text>
</a>
</g>
</g>
<!-- dir_4b4edfc69082ccc9fa978b057a42ad24&#45;&gt;dir_9be0baa3d4a3e9f480a9ee70594037fa -->
<g id="edge2" class="edge">
<title>dir_4b4edfc69082ccc9fa978b057a42ad24&#45;&gt;dir_9be0baa3d4a3e9f480a9ee70594037fa</title>
<path fill="none" stroke="#63b8ff" d="M64.3,-73.21C84.28,-65.01 119.74,-50.44 145.77,-39.74"/>
<polygon fill="#63b8ff" stroke="#63b8ff" points="146.95,-43.04 154.87,-36 144.29,-36.57 146.95,-43.04"/>
<g id="a_edge2&#45;headlabel"><a xlink:href="dir_000340_000166.html" target="_top" xlink:title="16">
<text text-anchor="middle" x="146.1" y="-43.96" font-family="Helvetica,sans-Serif" font-size="10.00" fill="#63b8ff">16</text>
</a>
</g>
</g>
</g>
</svg>
