<?xml version="1.0" encoding="UTF-8" standalone="no"?>
<!DOCTYPE svg PUBLIC "-//W3C//DTD SVG 1.1//EN"
 "http://www.w3.org/Graphics/SVG/1.1/DTD/svg11.dtd">
<!-- Generated by graphviz version 7.0.5 (20221223.1930)
 -->
<!-- Title: ee/draw/src Pages: 1 -->
<svg width="245pt" height="133pt"
 viewBox="0.00 0.00 244.50 133.00" xmlns="http://www.w3.org/2000/svg" xmlns:xlink="http://www.w3.org/1999/xlink">
<g id="graph0" class="graph" transform="scale(1 1) rotate(0) translate(4 129)">
<title>ee/draw/src</title>
<g id="clust1" class="cluster">
<title>clusterdir_2649a81c7f56a709216892bc1285ef27</title>
<g id="a_clust1"><a xlink:href="dir_2649a81c7f56a709216892bc1285ef27.html" target="_top" xlink:title="draw">
<polygon fill="#deebf9" stroke="#7f7f7f" stroke-dasharray="5,2" points="8,-8 8,-117 72,-117 72,-8 8,-8"/>
<text text-anchor="middle" x="40" y="-105" font-family="Helvetica,sans-Serif" font-size="10.00">draw</text>
</a>
</g>
</g>
<!-- dir_21c98801a0c0c7d17001a0beb0986fce -->
<g id="node1" class="node">
<title>dir_21c98801a0c0c7d17001a0beb0986fce</title>
<g id="a_node1"><a xlink:href="dir_21c98801a0c0c7d17001a0beb0986fce.html" target="_top" xlink:title="include">
<polygon fill="#60a2e3" stroke="#404040" points="63.5,-35 16.5,-35 16.5,-16 63.5,-16 63.5,-35"/>
<text text-anchor="middle" x="40" y="-23" font-family="Helvetica,sans-Serif" font-size="10.00">include</text>
</a>
</g>
</g>
<!-- dir_ca6cfcffd6c37235e476126984936748 -->
<g id="node2" class="node">
<title>dir_ca6cfcffd6c37235e476126984936748</title>
<g id="a_node2"><a xlink:href="dir_ca6cfcffd6c37235e476126984936748.html" target="_top" xlink:title="src">
<polygon fill="#deebf9" stroke="#404040" stroke-width="2" points="64,-90 34,-90 34,-71 64,-71 64,-90"/>
<text text-anchor="middle" x="49" y="-78" font-family="Helvetica,sans-Serif" font-size="10.00">src</text>
</a>
</g>
</g>
<!-- dir_ca6cfcffd6c37235e476126984936748&#45;&gt;dir_21c98801a0c0c7d17001a0beb0986fce -->
<g id="edge1" class="edge">
<title>dir_ca6cfcffd6c37235e476126984936748&#45;&gt;dir_21c98801a0c0c7d17001a0beb0986fce</title>
<path fill="none" stroke="#63b8ff" d="M47.51,-70.75C46.4,-64.19 44.83,-54.95 43.41,-46.6"/>
<polygon fill="#63b8ff" stroke="#63b8ff" points="46.9,-46.21 41.77,-36.93 40,-47.38 46.9,-46.21"/>
<g id="a_edge1&#45;headlabel"><a xlink:href="dir_000240_000070.html" target="_top" xlink:title="7">
<text text-anchor="middle" x="50.04" y="-45.28" font-family="Helvetica,sans-Serif" font-size="10.00" fill="#63b8ff">7</text>
</a>
</g>
</g>
<!-- dir_a0a8ac7efb6662b749c1285408048e6d -->
<g id="node3" class="node">
<title>dir_a0a8ac7efb6662b749c1285408048e6d</title>
<g id="a_node3"><a xlink:href="dir_a0a8ac7efb6662b749c1285408048e6d.html" target="_top" xlink:title="erl">
<polygon fill="#deebf9" stroke="red" stroke-dasharray="5,2" points="110.5,-35 81.5,-35 81.5,-16 110.5,-16 110.5,-35"/>
<text text-anchor="middle" x="96" y="-23" font-family="Helvetica,sans-Serif" font-size="10.00">erl</text>
</a>
</g>
</g>
<!-- dir_ca6cfcffd6c37235e476126984936748&#45;&gt;dir_a0a8ac7efb6662b749c1285408048e6d -->
<g id="edge2" class="edge">
<title>dir_ca6cfcffd6c37235e476126984936748&#45;&gt;dir_a0a8ac7efb6662b749c1285408048e6d</title>
<path fill="none" stroke="#63b8ff" d="M56.76,-70.75C63.19,-63.5 72.51,-52.98 80.46,-44.02"/>
<polygon fill="#63b8ff" stroke="#63b8ff" points="83.05,-46.38 87.07,-36.57 77.81,-41.73 83.05,-46.38"/>
<g id="a_edge2&#45;headlabel"><a xlink:href="dir_000240_000045.html" target="_top" xlink:title="1">
<text text-anchor="middle" x="83.79" y="-47.32" font-family="Helvetica,sans-Serif" font-size="10.00" fill="#63b8ff">1</text>
</a>
</g>
</g>
<!-- dir_bdd9a5d540de89e9fe90efdfc6973a4f -->
<g id="node4" class="node">
<title>dir_bdd9a5d540de89e9fe90efdfc6973a4f</title>
<g id="a_node4"><a xlink:href="dir_bdd9a5d540de89e9fe90efdfc6973a4f.html" target="_top" xlink:title="common">
<polygon fill="#deebf9" stroke="red" points="183,-35 129,-35 129,-16 183,-16 183,-35"/>
<text text-anchor="middle" x="156" y="-23" font-family="Helvetica,sans-Serif" font-size="10.00">common</text>
</a>
</g>
</g>
<!-- dir_ca6cfcffd6c37235e476126984936748&#45;&gt;dir_bdd9a5d540de89e9fe90efdfc6973a4f -->
<g id="edge3" class="edge">
<title>dir_ca6cfcffd6c37235e476126984936748&#45;&gt;dir_bdd9a5d540de89e9fe90efdfc6973a4f</title>
<path fill="none" stroke="#63b8ff" d="M64.33,-71.91C80.79,-63.75 107.3,-50.62 127.59,-40.57"/>
<polygon fill="#63b8ff" stroke="#63b8ff" points="129.07,-43.75 136.48,-36.17 125.96,-37.47 129.07,-43.75"/>
<g id="a_edge3&#45;headlabel"><a xlink:href="dir_000240_000024.html" target="_top" xlink:title="12">
<text text-anchor="middle" x="128.47" y="-44.71" font-family="Helvetica,sans-Serif" font-size="10.00" fill="#63b8ff">12</text>
</a>
</g>
</g>
<!-- dir_d6c8ea3c46b2d4fe2308a65fe0836890 -->
<g id="node5" class="node">
<title>dir_d6c8ea3c46b2d4fe2308a65fe0836890</title>
<g id="a_node5"><a xlink:href="dir_d6c8ea3c46b2d4fe2308a65fe0836890.html" target="_top" xlink:title="dma">
<polygon fill="#deebf9" stroke="red" stroke-dasharray="5,2" points="236.5,-35 201.5,-35 201.5,-16 236.5,-16 236.5,-35"/>
<text text-anchor="middle" x="219" y="-23" font-family="Helvetica,sans-Serif" font-size="10.00">dma</text>
</a>
</g>
</g>
<!-- dir_ca6cfcffd6c37235e476126984936748&#45;&gt;dir_d6c8ea3c46b2d4fe2308a65fe0836890 -->
<g id="edge4" class="edge">
<title>dir_ca6cfcffd6c37235e476126984936748&#45;&gt;dir_d6c8ea3c46b2d4fe2308a65fe0836890</title>
<path fill="none" stroke="#63b8ff" d="M64.45,-74.71C88.99,-67.1 138.64,-51.68 190.53,-35.45"/>
<polygon fill="#63b8ff" stroke="#63b8ff" points="191.34,-38.87 199.84,-32.54 189.25,-32.19 191.34,-38.87"/>
<g id="a_edge4&#45;headlabel"><a xlink:href="dir_000240_000031.html" target="_top" xlink:title="1">
<text text-anchor="middle" x="190.2" y="-39.7" font-family="Helvetica,sans-Serif" font-size="10.00" fill="#63b8ff">1</text>
</a>
</g>
</g>
</g>
</svg>
