<?xml version="1.0" encoding="UTF-8" standalone="no"?>
<!DOCTYPE svg PUBLIC "-//W3C//DTD SVG 1.1//EN"
 "http://www.w3.org/Graphics/SVG/1.1/DTD/svg11.dtd">
<!-- Generated by graphviz version 7.0.5 (20221223.1930)
 -->
<!-- Title: ee/iopreboot/src Pages: 1 -->
<svg width="338pt" height="141pt"
 viewBox="0.00 0.00 337.50 141.00" xmlns="http://www.w3.org/2000/svg" xmlns:xlink="http://www.w3.org/1999/xlink">
<g id="graph0" class="graph" transform="scale(1 1) rotate(0) translate(4 137)">
<title>ee/iopreboot/src</title>
<g id="clust1" class="cluster">
<title>clusterdir_ff70674bc173ff6e32f1bc3a678b82a6</title>
<g id="a_clust1"><a xlink:href="dir_ff70674bc173ff6e32f1bc3a678b82a6.html" target="_top" xlink:title="iopreboot">
<polygon fill="#deebf9" stroke="#7f7f7f" stroke-dasharray="5,2" points="8,-8 8,-125 134,-125 134,-8 8,-8"/>
<text text-anchor="middle" x="71" y="-113" font-family="Helvetica,sans-Serif" font-size="10.00">iopreboot</text>
</a>
</g>
</g>
<g id="clust2" class="cluster">
<title>clusterdir_a498588c2d5275b63f4912378b4fcc14</title>
<g id="a_clust2"><a xlink:href="dir_a498588c2d5275b63f4912378b4fcc14.html" target="_top">
<polygon fill="#deebf9" stroke="#404040" stroke-width="2" points="16,-63 16,-98 126,-98 126,-63 16,-63"/>
</a>
</g>
</g>
<!-- dir_5dc1218e3fbe6447e9a0ef568f079980 -->
<g id="node1" class="node">
<title>dir_5dc1218e3fbe6447e9a0ef568f079980</title>
<g id="a_node1"><a xlink:href="dir_5dc1218e3fbe6447e9a0ef568f079980.html" target="_top" xlink:title="include">
<polygon fill="#60a2e3" stroke="#404040" points="63.5,-35 16.5,-35 16.5,-16 63.5,-16 63.5,-35"/>
<text text-anchor="middle" x="40" y="-23" font-family="Helvetica,sans-Serif" font-size="10.00">include</text>
</a>
</g>
</g>
<!-- dir_a498588c2d5275b63f4912378b4fcc14 -->
<g id="node2" class="node">
<title>dir_a498588c2d5275b63f4912378b4fcc14</title>
<text text-anchor="middle" x="39" y="-78" font-family="Helvetica,sans-Serif" font-size="10.00">src</text>
</g>
<!-- dir_a498588c2d5275b63f4912378b4fcc14&#45;&gt;dir_5dc1218e3fbe6447e9a0ef568f079980 -->
<g id="edge2" class="edge">
<title>dir_a498588c2d5275b63f4912378b4fcc14&#45;&gt;dir_5dc1218e3fbe6447e9a0ef568f079980</title>
<path fill="none" stroke="#63b8ff" d="M39.16,-71.22C39.28,-64.65 39.46,-55.18 39.62,-46.64"/>
<polygon fill="#63b8ff" stroke="#63b8ff" points="43.12,-46.83 39.81,-36.77 36.12,-46.7 43.12,-46.83"/>
<g id="a_edge2&#45;headlabel"><a xlink:href="dir_000249_000077.html" target="_top" xlink:title="1">
<text text-anchor="middle" x="45.92" y="-46.46" font-family="Helvetica,sans-Serif" font-size="10.00" fill="#63b8ff">1</text>
</a>
</g>
</g>
<!-- dir_3c99d3595cafa99f0e2683197c97edf9 -->
<g id="node4" class="node">
<title>dir_3c99d3595cafa99f0e2683197c97edf9</title>
<g id="a_node4"><a xlink:href="dir_3c99d3595cafa99f0e2683197c97edf9.html" target="_top" xlink:title="sbv">
<polygon fill="#deebf9" stroke="red" stroke-dasharray="5,2" points="174,-35 142,-35 142,-16 174,-16 174,-35"/>
<text text-anchor="middle" x="158" y="-23" font-family="Helvetica,sans-Serif" font-size="10.00">sbv</text>
</a>
</g>
</g>
<!-- dir_a498588c2d5275b63f4912378b4fcc14&#45;&gt;dir_3c99d3595cafa99f0e2683197c97edf9 -->
<g id="edge1" class="edge">
<title>dir_a498588c2d5275b63f4912378b4fcc14&#45;&gt;dir_3c99d3595cafa99f0e2683197c97edf9</title>
<path fill="none" stroke="#63b8ff" d="M49.88,-71.19C53.87,-68.36 58.51,-65.33 63,-63 91.36,-48.24 102.62,-48.04 131.39,-37.45"/>
<polygon fill="#63b8ff" stroke="#63b8ff" points="132.38,-40.82 140.46,-33.97 129.87,-34.29 132.38,-40.82"/>
<g id="a_edge1&#45;headlabel"><a xlink:href="dir_000249_000223.html" target="_top" xlink:title="1">
<text text-anchor="middle" x="131.45" y="-41.72" font-family="Helvetica,sans-Serif" font-size="10.00" fill="#63b8ff">1</text>
</a>
</g>
</g>
<!-- dir_694ec83a64f58cbdefbefce65cd1011c -->
<g id="node5" class="node">
<title>dir_694ec83a64f58cbdefbefce65cd1011c</title>
<g id="a_node5"><a xlink:href="dir_694ec83a64f58cbdefbefce65cd1011c.html" target="_top" xlink:title="kernel">
<polygon fill="#deebf9" stroke="red" stroke-dasharray="5,2" points="235.5,-35 192.5,-35 192.5,-16 235.5,-16 235.5,-35"/>
<text text-anchor="middle" x="214" y="-23" font-family="Helvetica,sans-Serif" font-size="10.00">kernel</text>
</a>
</g>
</g>
<!-- dir_a498588c2d5275b63f4912378b4fcc14&#45;&gt;dir_694ec83a64f58cbdefbefce65cd1011c -->
<g id="edge3" class="edge">
<title>dir_a498588c2d5275b63f4912378b4fcc14&#45;&gt;dir_694ec83a64f58cbdefbefce65cd1011c</title>
<path fill="none" stroke="#63b8ff" d="M49.25,-71.2C53.33,-68.25 58.19,-65.12 63,-63 109.97,-42.26 127.68,-47.63 180.88,-35.35"/>
<polygon fill="#63b8ff" stroke="#63b8ff" points="181.65,-38.76 190.54,-33 180,-31.96 181.65,-38.76"/>
<g id="a_edge3&#45;headlabel"><a xlink:href="dir_000249_000165.html" target="_top" xlink:title="5">
<text text-anchor="middle" x="180.3" y="-39.51" font-family="Helvetica,sans-Serif" font-size="10.00" fill="#63b8ff">5</text>
</a>
</g>
</g>
<!-- dir_a0a8ac7efb6662b749c1285408048e6d -->
<g id="node6" class="node">
<title>dir_a0a8ac7efb6662b749c1285408048e6d</title>
<g id="a_node6"><a xlink:href="dir_a0a8ac7efb6662b749c1285408048e6d.html" target="_top" xlink:title="erl">
<polygon fill="#deebf9" stroke="red" stroke-dasharray="5,2" points="282.5,-35 253.5,-35 253.5,-16 282.5,-16 282.5,-35"/>
<text text-anchor="middle" x="268" y="-23" font-family="Helvetica,sans-Serif" font-size="10.00">erl</text>
</a>
</g>
</g>
<!-- dir_a498588c2d5275b63f4912378b4fcc14&#45;&gt;dir_a0a8ac7efb6662b749c1285408048e6d -->
<g id="edge4" class="edge">
<title>dir_a498588c2d5275b63f4912378b4fcc14&#45;&gt;dir_a0a8ac7efb6662b749c1285408048e6d</title>
<path fill="none" stroke="#63b8ff" d="M49.17,-71.01C53.23,-68.02 58.11,-64.94 63,-63 135.81,-34.13 163.39,-53.66 242.12,-35.24"/>
<polygon fill="#63b8ff" stroke="#63b8ff" points="242.72,-38.7 251.58,-32.89 241.03,-31.9 242.72,-38.7"/>
<g id="a_edge4&#45;headlabel"><a xlink:href="dir_000249_000045.html" target="_top" xlink:title="1">
<text text-anchor="middle" x="241.38" y="-39.45" font-family="Helvetica,sans-Serif" font-size="10.00" fill="#63b8ff">1</text>
</a>
</g>
</g>
<!-- dir_cfa7e2ab114a6553389f9ee886137040 -->
<g id="node3" class="node">
<title>dir_cfa7e2ab114a6553389f9ee886137040</title>
<g id="a_node3"><a xlink:href="dir_cfa7e2ab114a6553389f9ee886137040.html" target="_top" xlink:title="imgdrv">
<polygon fill="#60a2e3" stroke="#404040" points="118,-90 72,-90 72,-71 118,-71 118,-90"/>
<text text-anchor="middle" x="95" y="-78" font-family="Helvetica,sans-Serif" font-size="10.00">imgdrv</text>
</a>
</g>
</g>
<!-- dir_0981ace215aa2029f526b70c145b9fbe -->
<g id="node7" class="node">
<title>dir_0981ace215aa2029f526b70c145b9fbe</title>
<g id="a_node7"><a xlink:href="dir_0981ace215aa2029f526b70c145b9fbe.html" target="_top" xlink:title="iop">
<polygon fill="#deebf9" stroke="red" points="329.5,-35 300.5,-35 300.5,-16 329.5,-16 329.5,-35"/>
<text text-anchor="middle" x="315" y="-23" font-family="Helvetica,sans-Serif" font-size="10.00">iop</text>
</a>
</g>
</g>
<!-- dir_cfa7e2ab114a6553389f9ee886137040&#45;&gt;dir_0981ace215aa2029f526b70c145b9fbe -->
<g id="edge5" class="edge">
<title>dir_cfa7e2ab114a6553389f9ee886137040&#45;&gt;dir_0981ace215aa2029f526b70c145b9fbe</title>
<path fill="none" stroke="#63b8ff" d="M118.3,-75.27C153.55,-68.65 222.65,-54.83 289.33,-35.51"/>
<polygon fill="#63b8ff" stroke="#63b8ff" points="289.95,-38.98 298.55,-32.79 287.97,-32.26 289.95,-38.98"/>
<g id="a_edge5&#45;headlabel"><a xlink:href="dir_000065_000159.html" target="_top" xlink:title="5">
<text text-anchor="middle" x="288.75" y="-39.79" font-family="Helvetica,sans-Serif" font-size="10.00" fill="#63b8ff">5</text>
</a>
</g>
</g>
</g>
</svg>
