<?xml version="1.0" encoding="UTF-8" standalone="no"?>
<!DOCTYPE svg PUBLIC "-//W3C//DTD SVG 1.1//EN"
 "http://www.w3.org/Graphics/SVG/1.1/DTD/svg11.dtd">
<!-- Generated by graphviz version 7.0.5 (20221223.1930)
 -->
<!-- Title: iop/fs/bdmfs_vfat Pages: 1 -->
<svg width="286pt" height="141pt"
 viewBox="0.00 0.00 285.50 141.00" xmlns="http://www.w3.org/2000/svg" xmlns:xlink="http://www.w3.org/1999/xlink">
<g id="graph0" class="graph" transform="scale(1 1) rotate(0) translate(4 137)">
<title>iop/fs/bdmfs_vfat</title>
<g id="clust1" class="cluster">
<title>clusterdir_f24daea2522ffa8b6dc5fa9cdf5b8f5c</title>
<g id="a_clust1"><a xlink:href="dir_f24daea2522ffa8b6dc5fa9cdf5b8f5c.html" target="_top" xlink:title="fs">
<polygon fill="#deebf9" stroke="#7f7f7f" stroke-dasharray="5,2" points="8,-8 8,-125 154,-125 154,-8 8,-8"/>
<text text-anchor="middle" x="81" y="-113" font-family="Helvetica,sans-Serif" font-size="10.00">fs</text>
</a>
</g>
</g>
<g id="clust2" class="cluster">
<title>clusterdir_eabe988c95970cb88382a9440b1d86c2</title>
<g id="a_clust2"><a xlink:href="dir_eabe988c95970cb88382a9440b1d86c2.html" target="_top">
<polygon fill="#deebf9" stroke="#404040" stroke-width="2" points="16,-63 16,-98 146,-98 146,-63 16,-63"/>
</a>
</g>
</g>
<!-- dir_0134b0376fbe77322088b496fb368f9b -->
<g id="node1" class="node">
<title>dir_0134b0376fbe77322088b496fb368f9b</title>
<g id="a_node1"><a xlink:href="dir_0134b0376fbe77322088b496fb368f9b.html" target="_top" xlink:title="bdm">
<polygon fill="#60a2e3" stroke="red" points="56.5,-35 21.5,-35 21.5,-16 56.5,-16 56.5,-35"/>
<text text-anchor="middle" x="39" y="-23" font-family="Helvetica,sans-Serif" font-size="10.00">bdm</text>
</a>
</g>
</g>
<!-- dir_eabe988c95970cb88382a9440b1d86c2 -->
<g id="node2" class="node">
<title>dir_eabe988c95970cb88382a9440b1d86c2</title>
<text text-anchor="middle" x="105" y="-78" font-family="Helvetica,sans-Serif" font-size="10.00">bdmfs_vfat</text>
</g>
<!-- dir_a17103320e7b55573b6692b5b08c9050 -->
<g id="node3" class="node">
<title>dir_a17103320e7b55573b6692b5b08c9050</title>
<g id="a_node3"><a xlink:href="dir_a17103320e7b55573b6692b5b08c9050.html" target="_top" xlink:title="src">
<polygon fill="#60a2e3" stroke="#404040" points="54,-90 24,-90 24,-71 54,-71 54,-90"/>
<text text-anchor="middle" x="39" y="-78" font-family="Helvetica,sans-Serif" font-size="10.00">src</text>
</a>
</g>
</g>
<!-- dir_a17103320e7b55573b6692b5b08c9050&#45;&gt;dir_0134b0376fbe77322088b496fb368f9b -->
<g id="edge1" class="edge">
<title>dir_a17103320e7b55573b6692b5b08c9050&#45;&gt;dir_0134b0376fbe77322088b496fb368f9b</title>
<path fill="none" stroke="#63b8ff" d="M39,-70.75C39,-64.27 39,-55.16 39,-46.9"/>
<polygon fill="#63b8ff" stroke="#63b8ff" points="42.5,-46.96 39,-36.96 35.5,-46.96 42.5,-46.96"/>
<g id="a_edge1&#45;headlabel"><a xlink:href="dir_000304_000013.html" target="_top" xlink:title="4">
<text text-anchor="middle" x="45.34" y="-46.54" font-family="Helvetica,sans-Serif" font-size="10.00" fill="#63b8ff">4</text>
</a>
</g>
</g>
<!-- dir_bdd9a5d540de89e9fe90efdfc6973a4f -->
<g id="node4" class="node">
<title>dir_bdd9a5d540de89e9fe90efdfc6973a4f</title>
<g id="a_node4"><a xlink:href="dir_bdd9a5d540de89e9fe90efdfc6973a4f.html" target="_top" xlink:title="common">
<polygon fill="#deebf9" stroke="red" points="216,-35 162,-35 162,-16 216,-16 216,-35"/>
<text text-anchor="middle" x="189" y="-23" font-family="Helvetica,sans-Serif" font-size="10.00">common</text>
</a>
</g>
</g>
<!-- dir_a17103320e7b55573b6692b5b08c9050&#45;&gt;dir_bdd9a5d540de89e9fe90efdfc6973a4f -->
<g id="edge3" class="edge">
<title>dir_a17103320e7b55573b6692b5b08c9050&#45;&gt;dir_bdd9a5d540de89e9fe90efdfc6973a4f</title>
<path fill="none" stroke="#63b8ff" d="M51.03,-70.51C55.02,-67.82 59.56,-65.05 64,-63 72.04,-59.28 117.11,-46.42 150.85,-37.02"/>
<polygon fill="#63b8ff" stroke="#63b8ff" points="151.62,-40.44 160.32,-34.39 149.75,-33.69 151.62,-40.44"/>
<g id="a_edge3&#45;headlabel"><a xlink:href="dir_000304_000024.html" target="_top" xlink:title="5">
<text text-anchor="middle" x="150.38" y="-41.23" font-family="Helvetica,sans-Serif" font-size="10.00" fill="#63b8ff">5</text>
</a>
</g>
</g>
<!-- dir_9be0baa3d4a3e9f480a9ee70594037fa -->
<g id="node5" class="node">
<title>dir_9be0baa3d4a3e9f480a9ee70594037fa</title>
<g id="a_node5"><a xlink:href="dir_9be0baa3d4a3e9f480a9ee70594037fa.html" target="_top" xlink:title="kernel">
<polygon fill="#deebf9" stroke="red" stroke-dasharray="5,2" points="277.5,-35 234.5,-35 234.5,-16 277.5,-16 277.5,-35"/>
<text text-anchor="middle" x="256" y="-23" font-family="Helvetica,sans-Serif" font-size="10.00">kernel</text>
</a>
</g>
</g>
<!-- dir_a17103320e7b55573b6692b5b08c9050&#45;&gt;dir_9be0baa3d4a3e9f480a9ee70594037fa -->
<g id="edge2" class="edge">
<title>dir_a17103320e7b55573b6692b5b08c9050&#45;&gt;dir_9be0baa3d4a3e9f480a9ee70594037fa</title>
<path fill="none" stroke="#63b8ff" d="M50.15,-70.72C54.29,-67.86 59.17,-64.92 64,-63 128.34,-37.47 151.9,-49.56 223.18,-35.13"/>
<polygon fill="#63b8ff" stroke="#63b8ff" points="223.52,-38.63 232.57,-33.11 222.06,-31.79 223.52,-38.63"/>
<g id="a_edge2&#45;headlabel"><a xlink:href="dir_000304_000166.html" target="_top" xlink:title="29">
<text text-anchor="middle" x="222.08" y="-39.34" font-family="Helvetica,sans-Serif" font-size="10.00" fill="#63b8ff">29</text>
</a>
</g>
</g>
</g>
</svg>
