<?xml version="1.0" encoding="UTF-8" standalone="no"?>
<!DOCTYPE svg PUBLIC "-//W3C//DTD SVG 1.1//EN"
 "http://www.w3.org/Graphics/SVG/1.1/DTD/svg11.dtd">
<!-- Generated by graphviz version 7.0.5 (20221223.1930)
 -->
<!-- Title: ee/math3d/src Pages: 1 -->
<svg width="250pt" height="133pt"
 viewBox="0.00 0.00 250.00 133.00" xmlns="http://www.w3.org/2000/svg" xmlns:xlink="http://www.w3.org/1999/xlink">
<g id="graph0" class="graph" transform="scale(1 1) rotate(0) translate(4 129)">
<title>ee/math3d/src</title>
<g id="clust1" class="cluster">
<title>clusterdir_ef61ae23abebf035898b2c6525d9b365</title>
<g id="a_clust1"><a xlink:href="dir_ef61ae23abebf035898b2c6525d9b365.html" target="_top" xlink:title="math3d">
<polygon fill="#deebf9" stroke="#7f7f7f" stroke-dasharray="5,2" points="8,-8 8,-117 72,-117 72,-8 8,-8"/>
<text text-anchor="middle" x="40" y="-105" font-family="Helvetica,sans-Serif" font-size="10.00">math3d</text>
</a>
</g>
</g>
<!-- dir_b2ec982152147e07bc20d03fb22ae98b -->
<g id="node1" class="node">
<title>dir_b2ec982152147e07bc20d03fb22ae98b</title>
<g id="a_node1"><a xlink:href="dir_b2ec982152147e07bc20d03fb22ae98b.html" target="_top" xlink:title="include">
<polygon fill="#60a2e3" stroke="#404040" points="63.5,-35 16.5,-35 16.5,-16 63.5,-16 63.5,-35"/>
<text text-anchor="middle" x="40" y="-23" font-family="Helvetica,sans-Serif" font-size="10.00">include</text>
</a>
</g>
</g>
<!-- dir_cf43a48f832f5c6078b2594de76b351f -->
<g id="node2" class="node">
<title>dir_cf43a48f832f5c6078b2594de76b351f</title>
<g id="a_node2"><a xlink:href="dir_cf43a48f832f5c6078b2594de76b351f.html" target="_top" xlink:title="src">
<polygon fill="#deebf9" stroke="#404040" stroke-width="2" points="64,-90 34,-90 34,-71 64,-71 64,-90"/>
<text text-anchor="middle" x="49" y="-78" font-family="Helvetica,sans-Serif" font-size="10.00">src</text>
</a>
</g>
</g>
<!-- dir_cf43a48f832f5c6078b2594de76b351f&#45;&gt;dir_b2ec982152147e07bc20d03fb22ae98b -->
<g id="edge3" class="edge">
<title>dir_cf43a48f832f5c6078b2594de76b351f&#45;&gt;dir_b2ec982152147e07bc20d03fb22ae98b</title>
<path fill="none" stroke="#63b8ff" d="M47.51,-70.75C46.4,-64.19 44.83,-54.95 43.41,-46.6"/>
<polygon fill="#63b8ff" stroke="#63b8ff" points="46.9,-46.21 41.77,-36.93 40,-47.38 46.9,-46.21"/>
<g id="a_edge3&#45;headlabel"><a xlink:href="dir_000259_000083.html" target="_top" xlink:title="1">
<text text-anchor="middle" x="50.04" y="-45.28" font-family="Helvetica,sans-Serif" font-size="10.00" fill="#63b8ff">1</text>
</a>
</g>
</g>
<!-- dir_933591e1cd95ed33f946db8a4302cbd1 -->
<g id="node3" class="node">
<title>dir_933591e1cd95ed33f946db8a4302cbd1</title>
<g id="a_node3"><a xlink:href="dir_933591e1cd95ed33f946db8a4302cbd1.html" target="_top" xlink:title="graph">
<polygon fill="#deebf9" stroke="red" stroke-dasharray="5,2" points="122.5,-35 81.5,-35 81.5,-16 122.5,-16 122.5,-35"/>
<text text-anchor="middle" x="102" y="-23" font-family="Helvetica,sans-Serif" font-size="10.00">graph</text>
</a>
</g>
</g>
<!-- dir_cf43a48f832f5c6078b2594de76b351f&#45;&gt;dir_933591e1cd95ed33f946db8a4302cbd1 -->
<g id="edge1" class="edge">
<title>dir_cf43a48f832f5c6078b2594de76b351f&#45;&gt;dir_933591e1cd95ed33f946db8a4302cbd1</title>
<path fill="none" stroke="#63b8ff" d="M57.75,-70.75C65.15,-63.35 75.96,-52.54 85.05,-43.45"/>
<polygon fill="#63b8ff" stroke="#63b8ff" points="87.39,-46.06 91.99,-36.51 82.44,-41.11 87.39,-46.06"/>
<g id="a_edge1&#45;headlabel"><a xlink:href="dir_000259_000056.html" target="_top" xlink:title="1">
<text text-anchor="middle" x="87.93" y="-47.04" font-family="Helvetica,sans-Serif" font-size="10.00" fill="#63b8ff">1</text>
</a>
</g>
</g>
<!-- dir_a0a8ac7efb6662b749c1285408048e6d -->
<g id="node4" class="node">
<title>dir_a0a8ac7efb6662b749c1285408048e6d</title>
<g id="a_node4"><a xlink:href="dir_a0a8ac7efb6662b749c1285408048e6d.html" target="_top" xlink:title="erl">
<polygon fill="#deebf9" stroke="red" stroke-dasharray="5,2" points="169.5,-35 140.5,-35 140.5,-16 169.5,-16 169.5,-35"/>
<text text-anchor="middle" x="155" y="-23" font-family="Helvetica,sans-Serif" font-size="10.00">erl</text>
</a>
</g>
</g>
<!-- dir_cf43a48f832f5c6078b2594de76b351f&#45;&gt;dir_a0a8ac7efb6662b749c1285408048e6d -->
<g id="edge2" class="edge">
<title>dir_cf43a48f832f5c6078b2594de76b351f&#45;&gt;dir_a0a8ac7efb6662b749c1285408048e6d</title>
<path fill="none" stroke="#63b8ff" d="M64.19,-71.91C81.37,-63.32 109.6,-49.2 130.03,-38.98"/>
<polygon fill="#63b8ff" stroke="#63b8ff" points="131.45,-42.19 138.83,-34.59 128.32,-35.93 131.45,-42.19"/>
<g id="a_edge2&#45;headlabel"><a xlink:href="dir_000259_000045.html" target="_top" xlink:title="1">
<text text-anchor="middle" x="130.86" y="-43.16" font-family="Helvetica,sans-Serif" font-size="10.00" fill="#63b8ff">1</text>
</a>
</g>
</g>
<!-- dir_bdd9a5d540de89e9fe90efdfc6973a4f -->
<g id="node5" class="node">
<title>dir_bdd9a5d540de89e9fe90efdfc6973a4f</title>
<g id="a_node5"><a xlink:href="dir_bdd9a5d540de89e9fe90efdfc6973a4f.html" target="_top" xlink:title="common">
<polygon fill="#deebf9" stroke="red" points="242,-35 188,-35 188,-16 242,-16 242,-35"/>
<text text-anchor="middle" x="215" y="-23" font-family="Helvetica,sans-Serif" font-size="10.00">common</text>
</a>
</g>
</g>
<!-- dir_cf43a48f832f5c6078b2594de76b351f&#45;&gt;dir_bdd9a5d540de89e9fe90efdfc6973a4f -->
<g id="edge4" class="edge">
<title>dir_cf43a48f832f5c6078b2594de76b351f&#45;&gt;dir_bdd9a5d540de89e9fe90efdfc6973a4f</title>
<path fill="none" stroke="#63b8ff" d="M64.32,-74.61C89.78,-66.48 141.52,-49.96 177.21,-38.56"/>
<polygon fill="#63b8ff" stroke="#63b8ff" points="177.82,-42.04 186.29,-35.67 175.7,-35.38 177.82,-42.04"/>
<g id="a_edge4&#45;headlabel"><a xlink:href="dir_000259_000024.html" target="_top" xlink:title="1">
<text text-anchor="middle" x="176.71" y="-42.88" font-family="Helvetica,sans-Serif" font-size="10.00" fill="#63b8ff">1</text>
</a>
</g>
</g>
</g>
</svg>
