<?xml version="1.0" encoding="UTF-8" standalone="no"?>
<!DOCTYPE svg PUBLIC "-//W3C//DTD SVG 1.1//EN"
 "http://www.w3.org/Graphics/SVG/1.1/DTD/svg11.dtd">
<!-- Generated by graphviz version 7.0.5 (20221223.1930)
 -->
<!-- Title: ee/rpc/secr Pages: 1 -->
<svg width="218pt" height="125pt"
 viewBox="0.00 0.00 217.50 125.00" xmlns="http://www.w3.org/2000/svg" xmlns:xlink="http://www.w3.org/1999/xlink">
<g id="graph0" class="graph" transform="scale(1 1) rotate(0) translate(4 121)">
<title>ee/rpc/secr</title>
<g id="clust1" class="cluster">
<title>clusterdir_5b119dc963fa9b25ef41951231899460</title>
<g id="a_clust1"><a xlink:href="dir_5b119dc963fa9b25ef41951231899460.html" target="_top" xlink:title="rpc">
<polygon fill="#deebf9" stroke="#7f7f7f" stroke-dasharray="5,2" points="13,-39 13,-109 195,-109 195,-39 13,-39"/>
<text text-anchor="middle" x="104" y="-97" font-family="Helvetica,sans-Serif" font-size="10.00">rpc</text>
</a>
</g>
</g>
<g id="clust2" class="cluster">
<title>clusterdir_9cb70fa9cd0fdb24be23bccc65a6123b</title>
<g id="a_clust2"><a xlink:href="dir_9cb70fa9cd0fdb24be23bccc65a6123b.html" target="_top">
<polygon fill="#deebf9" stroke="#404040" stroke-width="2" points="21,-47 21,-82 187,-82 187,-47 21,-47"/>
</a>
</g>
</g>
<!-- dir_9cb70fa9cd0fdb24be23bccc65a6123b -->
<g id="node1" class="node">
<title>dir_9cb70fa9cd0fdb24be23bccc65a6123b</title>
<text text-anchor="middle" x="161" y="-62" font-family="Helvetica,sans-Serif" font-size="10.00">secr</text>
</g>
<!-- dir_881b1332c24d49df8de53b62db8f32cd -->
<g id="node2" class="node">
<title>dir_881b1332c24d49df8de53b62db8f32cd</title>
<g id="a_node2"><a xlink:href="dir_881b1332c24d49df8de53b62db8f32cd.html" target="_top" xlink:title="include">
<polygon fill="#60a2e3" stroke="#404040" points="76.5,-74 29.5,-74 29.5,-55 76.5,-55 76.5,-74"/>
<text text-anchor="middle" x="53" y="-62" font-family="Helvetica,sans-Serif" font-size="10.00">include</text>
</a>
</g>
</g>
<!-- dir_bdd9a5d540de89e9fe90efdfc6973a4f -->
<g id="node4" class="node">
<title>dir_bdd9a5d540de89e9fe90efdfc6973a4f</title>
<g id="a_node4"><a xlink:href="dir_bdd9a5d540de89e9fe90efdfc6973a4f.html" target="_top" xlink:title="common">
<polygon fill="#deebf9" stroke="red" points="54,-19 0,-19 0,0 54,0 54,-19"/>
<text text-anchor="middle" x="27" y="-7" font-family="Helvetica,sans-Serif" font-size="10.00">common</text>
</a>
</g>
</g>
<!-- dir_881b1332c24d49df8de53b62db8f32cd&#45;&gt;dir_bdd9a5d540de89e9fe90efdfc6973a4f -->
<g id="edge1" class="edge">
<title>dir_881b1332c24d49df8de53b62db8f32cd&#45;&gt;dir_bdd9a5d540de89e9fe90efdfc6973a4f</title>
<path fill="none" stroke="#63b8ff" d="M48.71,-54.75C45.38,-47.96 40.64,-38.3 36.44,-29.73"/>
<polygon fill="#63b8ff" stroke="#63b8ff" points="39.6,-28.24 32.05,-20.8 33.32,-31.32 39.6,-28.24"/>
<g id="a_edge1&#45;headlabel"><a xlink:href="dir_000104_000024.html" target="_top" xlink:title="1">
<text text-anchor="middle" x="43.07" y="-26.36" font-family="Helvetica,sans-Serif" font-size="10.00" fill="#63b8ff">1</text>
</a>
</g>
</g>
<!-- dir_01cf0d0d14f0be3d7fbcbe1a8f31822d -->
<g id="node3" class="node">
<title>dir_01cf0d0d14f0be3d7fbcbe1a8f31822d</title>
<g id="a_node3"><a xlink:href="dir_01cf0d0d14f0be3d7fbcbe1a8f31822d.html" target="_top" xlink:title="src">
<polygon fill="#60a2e3" stroke="#404040" points="125,-74 95,-74 95,-55 125,-55 125,-74"/>
<text text-anchor="middle" x="110" y="-62" font-family="Helvetica,sans-Serif" font-size="10.00">src</text>
</a>
</g>
</g>
<!-- dir_a0a8ac7efb6662b749c1285408048e6d -->
<g id="node5" class="node">
<title>dir_a0a8ac7efb6662b749c1285408048e6d</title>
<g id="a_node5"><a xlink:href="dir_a0a8ac7efb6662b749c1285408048e6d.html" target="_top" xlink:title="erl">
<polygon fill="#deebf9" stroke="red" stroke-dasharray="5,2" points="101.5,-19 72.5,-19 72.5,0 101.5,0 101.5,-19"/>
<text text-anchor="middle" x="87" y="-7" font-family="Helvetica,sans-Serif" font-size="10.00">erl</text>
</a>
</g>
</g>
<!-- dir_01cf0d0d14f0be3d7fbcbe1a8f31822d&#45;&gt;dir_a0a8ac7efb6662b749c1285408048e6d -->
<g id="edge4" class="edge">
<title>dir_01cf0d0d14f0be3d7fbcbe1a8f31822d&#45;&gt;dir_a0a8ac7efb6662b749c1285408048e6d</title>
<path fill="none" stroke="#63b8ff" d="M106.2,-54.75C103.26,-47.96 99.06,-38.3 95.35,-29.73"/>
<polygon fill="#63b8ff" stroke="#63b8ff" points="98.67,-28.61 91.48,-20.83 92.25,-31.4 98.67,-28.61"/>
<g id="a_edge4&#45;headlabel"><a xlink:href="dir_000279_000045.html" target="_top" xlink:title="1">
<text text-anchor="middle" x="102.11" y="-26.89" font-family="Helvetica,sans-Serif" font-size="10.00" fill="#63b8ff">1</text>
</a>
</g>
</g>
<!-- dir_0981ace215aa2029f526b70c145b9fbe -->
<g id="node6" class="node">
<title>dir_0981ace215aa2029f526b70c145b9fbe</title>
<g id="a_node6"><a xlink:href="dir_0981ace215aa2029f526b70c145b9fbe.html" target="_top" xlink:title="iop">
<polygon fill="#deebf9" stroke="red" points="148.5,-19 119.5,-19 119.5,0 148.5,0 148.5,-19"/>
<text text-anchor="middle" x="134" y="-7" font-family="Helvetica,sans-Serif" font-size="10.00">iop</text>
</a>
</g>
</g>
<!-- dir_01cf0d0d14f0be3d7fbcbe1a8f31822d&#45;&gt;dir_0981ace215aa2029f526b70c145b9fbe -->
<g id="edge2" class="edge">
<title>dir_01cf0d0d14f0be3d7fbcbe1a8f31822d&#45;&gt;dir_0981ace215aa2029f526b70c145b9fbe</title>
<path fill="none" stroke="#63b8ff" d="M113.96,-54.75C117.04,-47.96 121.41,-38.3 125.29,-29.73"/>
<polygon fill="#63b8ff" stroke="#63b8ff" points="128.39,-31.37 129.33,-20.82 122.01,-28.49 128.39,-31.37"/>
<g id="a_edge2&#45;headlabel"><a xlink:href="dir_000279_000159.html" target="_top" xlink:title="1">
<text text-anchor="middle" x="130.12" y="-31.94" font-family="Helvetica,sans-Serif" font-size="10.00" fill="#63b8ff">1</text>
</a>
</g>
</g>
<!-- dir_694ec83a64f58cbdefbefce65cd1011c -->
<g id="node7" class="node">
<title>dir_694ec83a64f58cbdefbefce65cd1011c</title>
<g id="a_node7"><a xlink:href="dir_694ec83a64f58cbdefbefce65cd1011c.html" target="_top" xlink:title="kernel">
<polygon fill="#deebf9" stroke="red" stroke-dasharray="5,2" points="209.5,-19 166.5,-19 166.5,0 209.5,0 209.5,-19"/>
<text text-anchor="middle" x="188" y="-7" font-family="Helvetica,sans-Serif" font-size="10.00">kernel</text>
</a>
</g>
</g>
<!-- dir_01cf0d0d14f0be3d7fbcbe1a8f31822d&#45;&gt;dir_694ec83a64f58cbdefbefce65cd1011c -->
<g id="edge3" class="edge">
<title>dir_01cf0d0d14f0be3d7fbcbe1a8f31822d&#45;&gt;dir_694ec83a64f58cbdefbefce65cd1011c</title>
<path fill="none" stroke="#63b8ff" d="M117.8,-54.71C122.48,-49.73 128.73,-43.61 135,-39 142.12,-33.76 150.31,-28.88 158.1,-24.68"/>
<polygon fill="#63b8ff" stroke="#63b8ff" points="159.69,-27.8 166.98,-20.11 156.49,-21.57 159.69,-27.8"/>
<g id="a_edge3&#45;headlabel"><a xlink:href="dir_000279_000165.html" target="_top" xlink:title="1">
<text text-anchor="middle" x="159.14" y="-28.78" font-family="Helvetica,sans-Serif" font-size="10.00" fill="#63b8ff">1</text>
</a>
</g>
</g>
</g>
</svg>
