<?xml version="1.0" encoding="UTF-8" standalone="no"?>
<!DOCTYPE svg PUBLIC "-//W3C//DTD SVG 1.1//EN"
 "http://www.w3.org/Graphics/SVG/1.1/DTD/svg11.dtd">
<!-- Generated by graphviz version 7.0.5 (20221223.1930)
 -->
<!-- Title: ee/rpc/remote Pages: 1 -->
<svg width="290pt" height="180pt"
 viewBox="0.00 0.00 289.50 180.00" xmlns="http://www.w3.org/2000/svg" xmlns:xlink="http://www.w3.org/1999/xlink">
<g id="graph0" class="graph" transform="scale(1 1) rotate(0) translate(4 176)">
<title>ee/rpc/remote</title>
<g id="clust1" class="cluster">
<title>clusterdir_5b119dc963fa9b25ef41951231899460</title>
<g id="a_clust1"><a xlink:href="dir_5b119dc963fa9b25ef41951231899460.html" target="_top" xlink:title="rpc">
<polygon fill="#deebf9" stroke="#7f7f7f" stroke-dasharray="5,2" points="8,-39 8,-164 136,-164 136,-39 8,-39"/>
<text text-anchor="middle" x="72" y="-152" font-family="Helvetica,sans-Serif" font-size="10.00">rpc</text>
</a>
</g>
</g>
<g id="clust2" class="cluster">
<title>clusterdir_ba37a805e2af6959a7cee62b248f44cb</title>
<g id="a_clust2"><a xlink:href="dir_ba37a805e2af6959a7cee62b248f44cb.html" target="_top">
<polygon fill="#deebf9" stroke="#404040" stroke-width="2" points="16,-47 16,-137 128,-137 128,-47 16,-47"/>
</a>
</g>
</g>
<!-- dir_ba37a805e2af6959a7cee62b248f44cb -->
<g id="node1" class="node">
<title>dir_ba37a805e2af6959a7cee62b248f44cb</title>
<text text-anchor="middle" x="96" y="-117" font-family="Helvetica,sans-Serif" font-size="10.00">remote</text>
</g>
<!-- dir_fa645703e9d75d6dc5aaf566568fec79 -->
<g id="node2" class="node">
<title>dir_fa645703e9d75d6dc5aaf566568fec79</title>
<g id="a_node2"><a xlink:href="dir_fa645703e9d75d6dc5aaf566568fec79.html" target="_top" xlink:title="include">
<polygon fill="#60a2e3" stroke="#404040" points="71.5,-74 24.5,-74 24.5,-55 71.5,-55 71.5,-74"/>
<text text-anchor="middle" x="48" y="-62" font-family="Helvetica,sans-Serif" font-size="10.00">include</text>
</a>
</g>
</g>
<!-- dir_bdd9a5d540de89e9fe90efdfc6973a4f -->
<g id="node4" class="node">
<title>dir_bdd9a5d540de89e9fe90efdfc6973a4f</title>
<g id="a_node4"><a xlink:href="dir_bdd9a5d540de89e9fe90efdfc6973a4f.html" target="_top" xlink:title="common">
<polygon fill="#deebf9" stroke="red" points="101,-19 47,-19 47,0 101,0 101,-19"/>
<text text-anchor="middle" x="74" y="-7" font-family="Helvetica,sans-Serif" font-size="10.00">common</text>
</a>
</g>
</g>
<!-- dir_fa645703e9d75d6dc5aaf566568fec79&#45;&gt;dir_bdd9a5d540de89e9fe90efdfc6973a4f -->
<g id="edge1" class="edge">
<title>dir_fa645703e9d75d6dc5aaf566568fec79&#45;&gt;dir_bdd9a5d540de89e9fe90efdfc6973a4f</title>
<path fill="none" stroke="#63b8ff" d="M52.29,-54.75C55.62,-47.96 60.36,-38.3 64.56,-29.73"/>
<polygon fill="#63b8ff" stroke="#63b8ff" points="67.68,-31.32 68.95,-20.8 61.4,-28.24 67.68,-31.32"/>
<g id="a_edge1&#45;headlabel"><a xlink:href="dir_000103_000024.html" target="_top" xlink:title="1">
<text text-anchor="middle" x="69.32" y="-31.94" font-family="Helvetica,sans-Serif" font-size="10.00" fill="#63b8ff">1</text>
</a>
</g>
</g>
<!-- dir_35447b3e6ceb192e07f9d91db1c83712 -->
<g id="node3" class="node">
<title>dir_35447b3e6ceb192e07f9d91db1c83712</title>
<g id="a_node3"><a xlink:href="dir_35447b3e6ceb192e07f9d91db1c83712.html" target="_top" xlink:title="src">
<polygon fill="#60a2e3" stroke="#404040" points="54,-129 24,-129 24,-110 54,-110 54,-129"/>
<text text-anchor="middle" x="39" y="-117" font-family="Helvetica,sans-Serif" font-size="10.00">src</text>
</a>
</g>
</g>
<!-- dir_35447b3e6ceb192e07f9d91db1c83712&#45;&gt;dir_fa645703e9d75d6dc5aaf566568fec79 -->
<g id="edge6" class="edge">
<title>dir_35447b3e6ceb192e07f9d91db1c83712&#45;&gt;dir_fa645703e9d75d6dc5aaf566568fec79</title>
<path fill="none" stroke="#63b8ff" d="M40.49,-109.75C41.6,-103.19 43.17,-93.95 44.59,-85.6"/>
<polygon fill="#63b8ff" stroke="#63b8ff" points="48,-86.38 46.23,-75.93 41.1,-85.21 48,-86.38"/>
<g id="a_edge6&#45;headlabel"><a xlink:href="dir_000278_000103.html" target="_top" xlink:title="1">
<text text-anchor="middle" x="50.46" y="-86.41" font-family="Helvetica,sans-Serif" font-size="10.00" fill="#63b8ff">1</text>
</a>
</g>
</g>
<!-- dir_35447b3e6ceb192e07f9d91db1c83712&#45;&gt;dir_bdd9a5d540de89e9fe90efdfc6973a4f -->
<g id="edge5" class="edge">
<title>dir_35447b3e6ceb192e07f9d91db1c83712&#45;&gt;dir_bdd9a5d540de89e9fe90efdfc6973a4f</title>
<path fill="none" stroke="#63b8ff" d="M51.61,-109.55C61.71,-101.54 75.12,-88.81 81,-74 86.52,-60.1 84.28,-43.21 80.93,-30.35"/>
<polygon fill="#63b8ff" stroke="#63b8ff" points="84.31,-29.46 78.03,-20.93 77.62,-31.52 84.31,-29.46"/>
<g id="a_edge5&#45;headlabel"><a xlink:href="dir_000278_000024.html" target="_top" xlink:title="1">
<text text-anchor="middle" x="87.64" y="-28.11" font-family="Helvetica,sans-Serif" font-size="10.00" fill="#63b8ff">1</text>
</a>
</g>
</g>
<!-- dir_a0a8ac7efb6662b749c1285408048e6d -->
<g id="node5" class="node">
<title>dir_a0a8ac7efb6662b749c1285408048e6d</title>
<g id="a_node5"><a xlink:href="dir_a0a8ac7efb6662b749c1285408048e6d.html" target="_top" xlink:title="erl">
<polygon fill="#deebf9" stroke="red" stroke-dasharray="5,2" points="173.5,-74 144.5,-74 144.5,-55 173.5,-55 173.5,-74"/>
<text text-anchor="middle" x="159" y="-62" font-family="Helvetica,sans-Serif" font-size="10.00">erl</text>
</a>
</g>
</g>
<!-- dir_35447b3e6ceb192e07f9d91db1c83712&#45;&gt;dir_a0a8ac7efb6662b749c1285408048e6d -->
<g id="edge4" class="edge">
<title>dir_35447b3e6ceb192e07f9d91db1c83712&#45;&gt;dir_a0a8ac7efb6662b749c1285408048e6d</title>
<path fill="none" stroke="#63b8ff" d="M54.2,-111.79C74.23,-102.94 109.75,-87.25 133.83,-76.62"/>
<polygon fill="#63b8ff" stroke="#63b8ff" points="135.18,-79.85 142.92,-72.6 132.35,-73.44 135.18,-79.85"/>
<g id="a_edge4&#45;headlabel"><a xlink:href="dir_000278_000045.html" target="_top" xlink:title="1">
<text text-anchor="middle" x="134.43" y="-80.78" font-family="Helvetica,sans-Serif" font-size="10.00" fill="#63b8ff">1</text>
</a>
</g>
</g>
<!-- dir_0981ace215aa2029f526b70c145b9fbe -->
<g id="node6" class="node">
<title>dir_0981ace215aa2029f526b70c145b9fbe</title>
<g id="a_node6"><a xlink:href="dir_0981ace215aa2029f526b70c145b9fbe.html" target="_top" xlink:title="iop">
<polygon fill="#deebf9" stroke="red" points="220.5,-74 191.5,-74 191.5,-55 220.5,-55 220.5,-74"/>
<text text-anchor="middle" x="206" y="-62" font-family="Helvetica,sans-Serif" font-size="10.00">iop</text>
</a>
</g>
</g>
<!-- dir_35447b3e6ceb192e07f9d91db1c83712&#45;&gt;dir_0981ace215aa2029f526b70c145b9fbe -->
<g id="edge2" class="edge">
<title>dir_35447b3e6ceb192e07f9d91db1c83712&#45;&gt;dir_0981ace215aa2029f526b70c145b9fbe</title>
<path fill="none" stroke="#63b8ff" d="M54.31,-113.2C57.5,-112.12 60.86,-111.01 64,-110 113.32,-94.16 128.72,-91.84 180.57,-74.67"/>
<polygon fill="#63b8ff" stroke="#63b8ff" points="181.64,-78 190.01,-71.51 179.42,-71.36 181.64,-78"/>
<g id="a_edge2&#45;headlabel"><a xlink:href="dir_000278_000159.html" target="_top" xlink:title="1">
<text text-anchor="middle" x="180.57" y="-78.85" font-family="Helvetica,sans-Serif" font-size="10.00" fill="#63b8ff">1</text>
</a>
</g>
</g>
<!-- dir_694ec83a64f58cbdefbefce65cd1011c -->
<g id="node7" class="node">
<title>dir_694ec83a64f58cbdefbefce65cd1011c</title>
<g id="a_node7"><a xlink:href="dir_694ec83a64f58cbdefbefce65cd1011c.html" target="_top" xlink:title="kernel">
<polygon fill="#deebf9" stroke="red" stroke-dasharray="5,2" points="281.5,-74 238.5,-74 238.5,-55 281.5,-55 281.5,-74"/>
<text text-anchor="middle" x="260" y="-62" font-family="Helvetica,sans-Serif" font-size="10.00">kernel</text>
</a>
</g>
</g>
<!-- dir_35447b3e6ceb192e07f9d91db1c83712&#45;&gt;dir_694ec83a64f58cbdefbefce65cd1011c -->
<g id="edge3" class="edge">
<title>dir_35447b3e6ceb192e07f9d91db1c83712&#45;&gt;dir_694ec83a64f58cbdefbefce65cd1011c</title>
<path fill="none" stroke="#63b8ff" d="M54.25,-113.01C57.45,-111.94 60.82,-110.88 64,-110 133.33,-90.76 154.77,-92.12 227.04,-74.6"/>
<polygon fill="#63b8ff" stroke="#63b8ff" points="227.75,-78.04 236.62,-72.24 226.07,-71.24 227.75,-78.04"/>
<g id="a_edge3&#45;headlabel"><a xlink:href="dir_000278_000165.html" target="_top" xlink:title="1">
<text text-anchor="middle" x="226.41" y="-78.79" font-family="Helvetica,sans-Serif" font-size="10.00" fill="#63b8ff">1</text>
</a>
</g>
</g>
</g>
</svg>
