<?xml version="1.0" encoding="UTF-8" standalone="no"?>
<!DOCTYPE svg PUBLIC "-//W3C//DTD SVG 1.1//EN"
 "http://www.w3.org/Graphics/SVG/1.1/DTD/svg11.dtd">
<!-- Generated by graphviz version 7.0.5 (20221223.1930)
 -->
<!-- Title: iop/fs/adddrv Pages: 1 -->
<svg width="194pt" height="141pt"
 viewBox="0.00 0.00 193.50 141.00" xmlns="http://www.w3.org/2000/svg" xmlns:xlink="http://www.w3.org/1999/xlink">
<g id="graph0" class="graph" transform="scale(1 1) rotate(0) translate(4 137)">
<title>iop/fs/adddrv</title>
<g id="clust1" class="cluster">
<title>clusterdir_f24daea2522ffa8b6dc5fa9cdf5b8f5c</title>
<g id="a_clust1"><a xlink:href="dir_f24daea2522ffa8b6dc5fa9cdf5b8f5c.html" target="_top" xlink:title="fs">
<polygon fill="#deebf9" stroke="#7f7f7f" stroke-dasharray="5,2" points="8,-8 8,-125 134,-125 134,-8 8,-8"/>
<text text-anchor="middle" x="71" y="-113" font-family="Helvetica,sans-Serif" font-size="10.00">fs</text>
</a>
</g>
</g>
<g id="clust2" class="cluster">
<title>clusterdir_511aea66b1e7cdedbb181e4504632afe</title>
<g id="a_clust2"><a xlink:href="dir_511aea66b1e7cdedbb181e4504632afe.html" target="_top">
<polygon fill="#deebf9" stroke="#404040" stroke-width="2" points="16,-63 16,-98 126,-98 126,-63 16,-63"/>
</a>
</g>
</g>
<!-- dir_026e95636ee7a5fe61bdfe401a766815 -->
<g id="node1" class="node">
<title>dir_026e95636ee7a5fe61bdfe401a766815</title>
<g id="a_node1"><a xlink:href="dir_026e95636ee7a5fe61bdfe401a766815.html" target="_top" xlink:title="romdrv">
<polygon fill="#60a2e3" stroke="red" points="63.5,-35 16.5,-35 16.5,-16 63.5,-16 63.5,-35"/>
<text text-anchor="middle" x="40" y="-23" font-family="Helvetica,sans-Serif" font-size="10.00">romdrv</text>
</a>
</g>
</g>
<!-- dir_511aea66b1e7cdedbb181e4504632afe -->
<g id="node2" class="node">
<title>dir_511aea66b1e7cdedbb181e4504632afe</title>
<text text-anchor="middle" x="95" y="-78" font-family="Helvetica,sans-Serif" font-size="10.00">adddrv</text>
</g>
<!-- dir_9ee7a87fd78246ba2006e1826d3b598d -->
<g id="node3" class="node">
<title>dir_9ee7a87fd78246ba2006e1826d3b598d</title>
<g id="a_node3"><a xlink:href="dir_9ee7a87fd78246ba2006e1826d3b598d.html" target="_top" xlink:title="src">
<polygon fill="#60a2e3" stroke="#404040" points="54,-90 24,-90 24,-71 54,-71 54,-90"/>
<text text-anchor="middle" x="39" y="-78" font-family="Helvetica,sans-Serif" font-size="10.00">src</text>
</a>
</g>
</g>
<!-- dir_9ee7a87fd78246ba2006e1826d3b598d&#45;&gt;dir_026e95636ee7a5fe61bdfe401a766815 -->
<g id="edge1" class="edge">
<title>dir_9ee7a87fd78246ba2006e1826d3b598d&#45;&gt;dir_026e95636ee7a5fe61bdfe401a766815</title>
<path fill="none" stroke="#63b8ff" d="M39.17,-70.75C39.29,-64.27 39.46,-55.16 39.62,-46.9"/>
<polygon fill="#63b8ff" stroke="#63b8ff" points="43.11,-47.02 39.8,-36.96 36.11,-46.89 43.11,-47.02"/>
<g id="a_edge1&#45;headlabel"><a xlink:href="dir_000300_000218.html" target="_top" xlink:title="2">
<text text-anchor="middle" x="45.91" y="-46.65" font-family="Helvetica,sans-Serif" font-size="10.00" fill="#63b8ff">2</text>
</a>
</g>
</g>
<!-- dir_9be0baa3d4a3e9f480a9ee70594037fa -->
<g id="node4" class="node">
<title>dir_9be0baa3d4a3e9f480a9ee70594037fa</title>
<g id="a_node4"><a xlink:href="dir_9be0baa3d4a3e9f480a9ee70594037fa.html" target="_top" xlink:title="kernel">
<polygon fill="#deebf9" stroke="red" stroke-dasharray="5,2" points="185.5,-35 142.5,-35 142.5,-16 185.5,-16 185.5,-35"/>
<text text-anchor="middle" x="164" y="-23" font-family="Helvetica,sans-Serif" font-size="10.00">kernel</text>
</a>
</g>
</g>
<!-- dir_9ee7a87fd78246ba2006e1826d3b598d&#45;&gt;dir_9be0baa3d4a3e9f480a9ee70594037fa -->
<g id="edge2" class="edge">
<title>dir_9ee7a87fd78246ba2006e1826d3b598d&#45;&gt;dir_9be0baa3d4a3e9f480a9ee70594037fa</title>
<path fill="none" stroke="#63b8ff" d="M50.35,-70.82C54.23,-68.09 58.68,-65.22 63,-63 75.22,-56.72 106.86,-45.57 131.5,-37.24"/>
<polygon fill="#63b8ff" stroke="#63b8ff" points="132.43,-40.62 140.8,-34.12 130.21,-33.98 132.43,-40.62"/>
<g id="a_edge2&#45;headlabel"><a xlink:href="dir_000300_000166.html" target="_top" xlink:title="8">
<text text-anchor="middle" x="131.36" y="-41.47" font-family="Helvetica,sans-Serif" font-size="10.00" fill="#63b8ff">8</text>
</a>
</g>
</g>
</g>
</svg>
