<?xml version="1.0" encoding="UTF-8" standalone="no"?>
<!DOCTYPE svg PUBLIC "-//W3C//DTD SVG 1.1//EN"
 "http://www.w3.org/Graphics/SVG/1.1/DTD/svg11.dtd">
<!-- Generated by graphviz version 7.0.5 (20221223.1930)
 -->
<!-- Title: ee/network Pages: 1 -->
<svg width="333pt" height="141pt"
 viewBox="0.00 0.00 333.00 141.00" xmlns="http://www.w3.org/2000/svg" xmlns:xlink="http://www.w3.org/1999/xlink">
<g id="graph0" class="graph" transform="scale(1 1) rotate(0) translate(4 137)">
<title>ee/network</title>
<g id="clust1" class="cluster">
<title>clusterdir_049738f1909e8dc3e45fe1f6b3faa109</title>
<g id="a_clust1"><a xlink:href="dir_049738f1909e8dc3e45fe1f6b3faa109.html" target="_top" xlink:title="ee">
<polygon fill="#deebf9" stroke="#404040" stroke-dasharray="5,2" points="8,-8 8,-125 215,-125 215,-8 8,-8"/>
<text text-anchor="middle" x="111.5" y="-113" font-family="Helvetica,sans-Serif" font-size="10.00">ee</text>
</a>
</g>
</g>
<g id="clust2" class="cluster">
<title>clusterdir_b47d22a23da27aa98d6e01bcdbde3243</title>
<g id="a_clust2"><a xlink:href="dir_b47d22a23da27aa98d6e01bcdbde3243.html" target="_top">
<polygon fill="#deebf9" stroke="#404040" stroke-width="2" points="16,-63 16,-98 207,-98 207,-63 16,-63"/>
</a>
</g>
</g>
<!-- dir_694ec83a64f58cbdefbefce65cd1011c -->
<g id="node1" class="node">
<title>dir_694ec83a64f58cbdefbefce65cd1011c</title>
<g id="a_node1"><a xlink:href="dir_694ec83a64f58cbdefbefce65cd1011c.html" target="_top" xlink:title="kernel">
<polygon fill="#60a2e3" stroke="red" points="66.5,-35 23.5,-35 23.5,-16 66.5,-16 66.5,-35"/>
<text text-anchor="middle" x="45" y="-23" font-family="Helvetica,sans-Serif" font-size="10.00">kernel</text>
</a>
</g>
</g>
<!-- dir_a0a8ac7efb6662b749c1285408048e6d -->
<g id="node2" class="node">
<title>dir_a0a8ac7efb6662b749c1285408048e6d</title>
<g id="a_node2"><a xlink:href="dir_a0a8ac7efb6662b749c1285408048e6d.html" target="_top" xlink:title="erl">
<polygon fill="#60a2e3" stroke="red" points="117.5,-35 88.5,-35 88.5,-16 117.5,-16 117.5,-35"/>
<text text-anchor="middle" x="103" y="-23" font-family="Helvetica,sans-Serif" font-size="10.00">erl</text>
</a>
</g>
</g>
<!-- dir_b47d22a23da27aa98d6e01bcdbde3243 -->
<g id="node3" class="node">
<title>dir_b47d22a23da27aa98d6e01bcdbde3243</title>
<text text-anchor="middle" x="173" y="-78" font-family="Helvetica,sans-Serif" font-size="10.00">network</text>
</g>
<!-- dir_2103a4ed81746d00ca3b9488f9daf9c4 -->
<g id="node4" class="node">
<title>dir_2103a4ed81746d00ca3b9488f9daf9c4</title>
<g id="a_node4"><a xlink:href="dir_2103a4ed81746d00ca3b9488f9daf9c4.html" target="_top" xlink:title="netman">
<polygon fill="#60a2e3" stroke="#404040" points="129.5,-90 80.5,-90 80.5,-71 129.5,-71 129.5,-90"/>
<text text-anchor="middle" x="105" y="-78" font-family="Helvetica,sans-Serif" font-size="10.00">netman</text>
</a>
</g>
</g>
<!-- dir_2103a4ed81746d00ca3b9488f9daf9c4&#45;&gt;dir_694ec83a64f58cbdefbefce65cd1011c -->
<g id="edge3" class="edge">
<title>dir_2103a4ed81746d00ca3b9488f9daf9c4&#45;&gt;dir_694ec83a64f58cbdefbefce65cd1011c</title>
<path fill="none" stroke="#63b8ff" d="M94.82,-70.51C86.24,-62.93 73.73,-51.88 63.4,-42.75"/>
<polygon fill="#63b8ff" stroke="#63b8ff" points="65.97,-40.36 56.16,-36.36 61.34,-45.6 65.97,-40.36"/>
<g id="a_edge3&#45;headlabel"><a xlink:href="dir_000197_000165.html" target="_top" xlink:title="3">
<text text-anchor="middle" x="69.41" y="-37.11" font-family="Helvetica,sans-Serif" font-size="10.00" fill="#63b8ff">3</text>
</a>
</g>
</g>
<!-- dir_2103a4ed81746d00ca3b9488f9daf9c4&#45;&gt;dir_a0a8ac7efb6662b749c1285408048e6d -->
<g id="edge1" class="edge">
<title>dir_2103a4ed81746d00ca3b9488f9daf9c4&#45;&gt;dir_a0a8ac7efb6662b749c1285408048e6d</title>
<path fill="none" stroke="#63b8ff" d="M104.67,-70.75C104.43,-64.27 104.08,-55.16 103.77,-46.9"/>
<polygon fill="#63b8ff" stroke="#63b8ff" points="107.27,-46.82 103.39,-36.95 100.27,-47.08 107.27,-46.82"/>
<g id="a_edge1&#45;headlabel"><a xlink:href="dir_000197_000045.html" target="_top" xlink:title="1">
<text text-anchor="middle" x="110.18" y="-46.29" font-family="Helvetica,sans-Serif" font-size="10.00" fill="#63b8ff">1</text>
</a>
</g>
</g>
<!-- dir_0981ace215aa2029f526b70c145b9fbe -->
<g id="node6" class="node">
<title>dir_0981ace215aa2029f526b70c145b9fbe</title>
<g id="a_node6"><a xlink:href="dir_0981ace215aa2029f526b70c145b9fbe.html" target="_top" xlink:title="iop">
<polygon fill="#deebf9" stroke="red" points="252.5,-35 223.5,-35 223.5,-16 252.5,-16 252.5,-35"/>
<text text-anchor="middle" x="238" y="-23" font-family="Helvetica,sans-Serif" font-size="10.00">iop</text>
</a>
</g>
</g>
<!-- dir_2103a4ed81746d00ca3b9488f9daf9c4&#45;&gt;dir_0981ace215aa2029f526b70c145b9fbe -->
<g id="edge4" class="edge">
<title>dir_2103a4ed81746d00ca3b9488f9daf9c4&#45;&gt;dir_0981ace215aa2029f526b70c145b9fbe</title>
<path fill="none" stroke="#63b8ff" d="M122.47,-70.55C127.73,-67.98 133.55,-65.27 139,-63 170.38,-49.94 181.77,-48.99 212.43,-37.45"/>
<polygon fill="#63b8ff" stroke="#63b8ff" points="213.65,-40.73 221.7,-33.85 211.12,-34.21 213.65,-40.73"/>
<g id="a_edge4&#45;headlabel"><a xlink:href="dir_000197_000159.html" target="_top" xlink:title="1">
<text text-anchor="middle" x="212.74" y="-41.63" font-family="Helvetica,sans-Serif" font-size="10.00" fill="#63b8ff">1</text>
</a>
</g>
</g>
<!-- dir_bdd9a5d540de89e9fe90efdfc6973a4f -->
<g id="node7" class="node">
<title>dir_bdd9a5d540de89e9fe90efdfc6973a4f</title>
<g id="a_node7"><a xlink:href="dir_bdd9a5d540de89e9fe90efdfc6973a4f.html" target="_top" xlink:title="common">
<polygon fill="#deebf9" stroke="red" points="325,-35 271,-35 271,-16 325,-16 325,-35"/>
<text text-anchor="middle" x="298" y="-23" font-family="Helvetica,sans-Serif" font-size="10.00">common</text>
</a>
</g>
</g>
<!-- dir_2103a4ed81746d00ca3b9488f9daf9c4&#45;&gt;dir_bdd9a5d540de89e9fe90efdfc6973a4f -->
<g id="edge2" class="edge">
<title>dir_2103a4ed81746d00ca3b9488f9daf9c4&#45;&gt;dir_bdd9a5d540de89e9fe90efdfc6973a4f</title>
<path fill="none" stroke="#63b8ff" d="M121.28,-70.67C126.79,-67.93 133.06,-65.09 139,-63 188.69,-45.54 205.37,-47.35 259.85,-35.42"/>
<polygon fill="#63b8ff" stroke="#63b8ff" points="260.42,-38.88 269.4,-33.26 258.88,-32.05 260.42,-38.88"/>
<g id="a_edge2&#45;headlabel"><a xlink:href="dir_000197_000024.html" target="_top" xlink:title="9">
<text text-anchor="middle" x="259.01" y="-39.6" font-family="Helvetica,sans-Serif" font-size="10.00" fill="#63b8ff">9</text>
</a>
</g>
</g>
<!-- dir_ca24a423c1b235320d00c488564f2476 -->
<g id="node5" class="node">
<title>dir_ca24a423c1b235320d00c488564f2476</title>
<g id="a_node5"><a xlink:href="dir_ca24a423c1b235320d00c488564f2476.html" target="_top" xlink:title="tcpip">
<polygon fill="#60a2e3" stroke="#404040" points="62,-90 24,-90 24,-71 62,-71 62,-90"/>
<text text-anchor="middle" x="43" y="-78" font-family="Helvetica,sans-Serif" font-size="10.00">tcpip</text>
</a>
</g>
</g>
<!-- dir_ca24a423c1b235320d00c488564f2476&#45;&gt;dir_694ec83a64f58cbdefbefce65cd1011c -->
<g id="edge6" class="edge">
<title>dir_ca24a423c1b235320d00c488564f2476&#45;&gt;dir_694ec83a64f58cbdefbefce65cd1011c</title>
<path fill="none" stroke="#63b8ff" d="M43.33,-70.75C43.57,-64.27 43.92,-55.16 44.23,-46.9"/>
<polygon fill="#63b8ff" stroke="#63b8ff" points="47.73,-47.08 44.61,-36.95 40.73,-46.82 47.73,-47.08"/>
<g id="a_edge6&#45;headlabel"><a xlink:href="dir_000372_000165.html" target="_top" xlink:title="2">
<text text-anchor="middle" x="50.48" y="-46.77" font-family="Helvetica,sans-Serif" font-size="10.00" fill="#63b8ff">2</text>
</a>
</g>
</g>
<!-- dir_ca24a423c1b235320d00c488564f2476&#45;&gt;dir_a0a8ac7efb6662b749c1285408048e6d -->
<g id="edge7" class="edge">
<title>dir_ca24a423c1b235320d00c488564f2476&#45;&gt;dir_a0a8ac7efb6662b749c1285408048e6d</title>
<path fill="none" stroke="#63b8ff" d="M53.18,-70.51C61.76,-62.93 74.27,-51.88 84.6,-42.75"/>
<polygon fill="#63b8ff" stroke="#63b8ff" points="86.66,-45.6 91.84,-36.36 82.03,-40.36 86.66,-45.6"/>
<g id="a_edge7&#45;headlabel"><a xlink:href="dir_000372_000045.html" target="_top" xlink:title="1">
<text text-anchor="middle" x="86.98" y="-46.61" font-family="Helvetica,sans-Serif" font-size="10.00" fill="#63b8ff">1</text>
</a>
</g>
</g>
<!-- dir_ca24a423c1b235320d00c488564f2476&#45;&gt;dir_0981ace215aa2029f526b70c145b9fbe -->
<g id="edge5" class="edge">
<title>dir_ca24a423c1b235320d00c488564f2476&#45;&gt;dir_0981ace215aa2029f526b70c145b9fbe</title>
<path fill="none" stroke="#63b8ff" d="M56.42,-70.64C61.17,-67.84 66.67,-64.96 72,-63 131,-41.28 153.12,-53.42 212.5,-36.72"/>
<polygon fill="#63b8ff" stroke="#63b8ff" points="213.16,-40.17 221.74,-33.95 211.16,-33.46 213.16,-40.17"/>
<g id="a_edge5&#45;headlabel"><a xlink:href="dir_000372_000159.html" target="_top" xlink:title="5">
<text text-anchor="middle" x="211.99" y="-40.99" font-family="Helvetica,sans-Serif" font-size="10.00" fill="#63b8ff">5</text>
</a>
</g>
</g>
<!-- dir_ca24a423c1b235320d00c488564f2476&#45;&gt;dir_bdd9a5d540de89e9fe90efdfc6973a4f -->
<g id="edge8" class="edge">
<title>dir_ca24a423c1b235320d00c488564f2476&#45;&gt;dir_bdd9a5d540de89e9fe90efdfc6973a4f</title>
<path fill="none" stroke="#63b8ff" d="M56.37,-70.52C61.13,-67.7 66.63,-64.85 72,-63 149.31,-36.36 175.93,-49.79 259.24,-35.31"/>
<polygon fill="#63b8ff" stroke="#63b8ff" points="259.84,-38.76 269.05,-33.51 258.58,-31.87 259.84,-38.76"/>
<g id="a_edge8&#45;headlabel"><a xlink:href="dir_000372_000024.html" target="_top" xlink:title="3">
<text text-anchor="middle" x="258.31" y="-39.43" font-family="Helvetica,sans-Serif" font-size="10.00" fill="#63b8ff">3</text>
</a>
</g>
</g>
</g>
</svg>
