<?xml version="1.0" encoding="UTF-8" standalone="no"?>
<!DOCTYPE svg PUBLIC "-//W3C//DTD SVG 1.1//EN"
 "http://www.w3.org/Graphics/SVG/1.1/DTD/svg11.dtd">
<!-- Generated by graphviz version 7.0.5 (20221223.1930)
 -->
<!-- Title: iop/memorycard/mcman Pages: 1 -->
<svg width="210pt" height="180pt"
 viewBox="0.00 0.00 209.50 180.00" xmlns="http://www.w3.org/2000/svg" xmlns:xlink="http://www.w3.org/1999/xlink">
<g id="graph0" class="graph" transform="scale(1 1) rotate(0) translate(4 176)">
<title>iop/memorycard/mcman</title>
<g id="clust1" class="cluster">
<title>clusterdir_5805bfcfbe100e4767f47461b3e6402b</title>
<g id="a_clust1"><a xlink:href="dir_5805bfcfbe100e4767f47461b3e6402b.html" target="_top" xlink:title="memorycard">
<polygon fill="#deebf9" stroke="#7f7f7f" stroke-dasharray="5,2" points="15.5,-39 15.5,-164 145.5,-164 145.5,-39 15.5,-39"/>
<text text-anchor="middle" x="80.5" y="-152" font-family="Helvetica,sans-Serif" font-size="10.00">memorycard</text>
</a>
</g>
</g>
<g id="clust2" class="cluster">
<title>clusterdir_ae48e1b29bfa2db4ecbd893188b24955</title>
<g id="a_clust2"><a xlink:href="dir_ae48e1b29bfa2db4ecbd893188b24955.html" target="_top">
<polygon fill="#deebf9" stroke="#404040" stroke-width="2" points="23.5,-47 23.5,-137 137.5,-137 137.5,-47 23.5,-47"/>
</a>
</g>
</g>
<!-- dir_ae48e1b29bfa2db4ecbd893188b24955 -->
<g id="node1" class="node">
<title>dir_ae48e1b29bfa2db4ecbd893188b24955</title>
<text text-anchor="middle" x="104.5" y="-117" font-family="Helvetica,sans-Serif" font-size="10.00">mcman</text>
</g>
<!-- dir_55de3dde79234ee6800af66dd2b2efb1 -->
<g id="node2" class="node">
<title>dir_55de3dde79234ee6800af66dd2b2efb1</title>
<g id="a_node2"><a xlink:href="dir_55de3dde79234ee6800af66dd2b2efb1.html" target="_top" xlink:title="include">
<polygon fill="#60a2e3" stroke="#404040" points="79,-74 32,-74 32,-55 79,-55 79,-74"/>
<text text-anchor="middle" x="55.5" y="-62" font-family="Helvetica,sans-Serif" font-size="10.00">include</text>
</a>
</g>
</g>
<!-- dir_9be0baa3d4a3e9f480a9ee70594037fa -->
<g id="node4" class="node">
<title>dir_9be0baa3d4a3e9f480a9ee70594037fa</title>
<g id="a_node4"><a xlink:href="dir_9be0baa3d4a3e9f480a9ee70594037fa.html" target="_top" xlink:title="kernel">
<polygon fill="#deebf9" stroke="red" stroke-dasharray="5,2" points="43,-19 0,-19 0,0 43,0 43,-19"/>
<text text-anchor="middle" x="21.5" y="-7" font-family="Helvetica,sans-Serif" font-size="10.00">kernel</text>
</a>
</g>
</g>
<!-- dir_55de3dde79234ee6800af66dd2b2efb1&#45;&gt;dir_9be0baa3d4a3e9f480a9ee70594037fa -->
<g id="edge1" class="edge">
<title>dir_55de3dde79234ee6800af66dd2b2efb1&#45;&gt;dir_9be0baa3d4a3e9f480a9ee70594037fa</title>
<path fill="none" stroke="#63b8ff" d="M49.89,-54.75C45.38,-47.73 38.91,-37.64 33.29,-28.87"/>
<polygon fill="#63b8ff" stroke="#63b8ff" points="36.4,-27.24 28.05,-20.72 30.51,-31.02 36.4,-27.24"/>
<g id="a_edge1&#45;headlabel"><a xlink:href="dir_000131_000166.html" target="_top" xlink:title="1">
<text text-anchor="middle" x="39.91" y="-24.96" font-family="Helvetica,sans-Serif" font-size="10.00" fill="#63b8ff">1</text>
</a>
</g>
</g>
<!-- dir_bdd9a5d540de89e9fe90efdfc6973a4f -->
<g id="node5" class="node">
<title>dir_bdd9a5d540de89e9fe90efdfc6973a4f</title>
<g id="a_node5"><a xlink:href="dir_bdd9a5d540de89e9fe90efdfc6973a4f.html" target="_top" xlink:title="common">
<polygon fill="#deebf9" stroke="red" points="124.5,-19 70.5,-19 70.5,0 124.5,0 124.5,-19"/>
<text text-anchor="middle" x="97.5" y="-7" font-family="Helvetica,sans-Serif" font-size="10.00">common</text>
</a>
</g>
</g>
<!-- dir_55de3dde79234ee6800af66dd2b2efb1&#45;&gt;dir_bdd9a5d540de89e9fe90efdfc6973a4f -->
<g id="edge2" class="edge">
<title>dir_55de3dde79234ee6800af66dd2b2efb1&#45;&gt;dir_bdd9a5d540de89e9fe90efdfc6973a4f</title>
<path fill="none" stroke="#63b8ff" d="M62.44,-54.75C68.12,-47.58 76.34,-37.2 83.39,-28.3"/>
<polygon fill="#63b8ff" stroke="#63b8ff" points="86.01,-30.64 89.47,-20.63 80.52,-26.29 86.01,-30.64"/>
<g id="a_edge2&#45;headlabel"><a xlink:href="dir_000131_000024.html" target="_top" xlink:title="1">
<text text-anchor="middle" x="86.94" y="-31.53" font-family="Helvetica,sans-Serif" font-size="10.00" fill="#63b8ff">1</text>
</a>
</g>
</g>
<!-- dir_a7b91cccb02c4e3ff005f6cfec8ac8b2 -->
<g id="node3" class="node">
<title>dir_a7b91cccb02c4e3ff005f6cfec8ac8b2</title>
<g id="a_node3"><a xlink:href="dir_a7b91cccb02c4e3ff005f6cfec8ac8b2.html" target="_top" xlink:title="src">
<polygon fill="#60a2e3" stroke="#404040" points="61.5,-129 31.5,-129 31.5,-110 61.5,-110 61.5,-129"/>
<text text-anchor="middle" x="46.5" y="-117" font-family="Helvetica,sans-Serif" font-size="10.00">src</text>
</a>
</g>
</g>
<!-- dir_a7b91cccb02c4e3ff005f6cfec8ac8b2&#45;&gt;dir_55de3dde79234ee6800af66dd2b2efb1 -->
<g id="edge4" class="edge">
<title>dir_a7b91cccb02c4e3ff005f6cfec8ac8b2&#45;&gt;dir_55de3dde79234ee6800af66dd2b2efb1</title>
<path fill="none" stroke="#63b8ff" d="M47.99,-109.75C49.1,-103.19 50.67,-93.95 52.09,-85.6"/>
<polygon fill="#63b8ff" stroke="#63b8ff" points="55.5,-86.38 53.73,-75.93 48.6,-85.21 55.5,-86.38"/>
<g id="a_edge4&#45;headlabel"><a xlink:href="dir_000320_000131.html" target="_top" xlink:title="5">
<text text-anchor="middle" x="57.96" y="-86.41" font-family="Helvetica,sans-Serif" font-size="10.00" fill="#63b8ff">5</text>
</a>
</g>
</g>
<!-- dir_a7b91cccb02c4e3ff005f6cfec8ac8b2&#45;&gt;dir_9be0baa3d4a3e9f480a9ee70594037fa -->
<g id="edge5" class="edge">
<title>dir_a7b91cccb02c4e3ff005f6cfec8ac8b2&#45;&gt;dir_9be0baa3d4a3e9f480a9ee70594037fa</title>
<path fill="none" stroke="#63b8ff" d="M40.18,-109.83C34.32,-101.23 26,-87.42 22.5,-74 18.78,-59.76 18.67,-43.1 19.42,-30.42"/>
<polygon fill="#63b8ff" stroke="#63b8ff" points="22.87,-31.07 20.22,-20.81 15.9,-30.49 22.87,-31.07"/>
<g id="a_edge5&#45;headlabel"><a xlink:href="dir_000320_000166.html" target="_top" xlink:title="23">
<text text-anchor="middle" x="25.53" y="-30.88" font-family="Helvetica,sans-Serif" font-size="10.00" fill="#63b8ff">23</text>
</a>
</g>
</g>
<!-- dir_a7b91cccb02c4e3ff005f6cfec8ac8b2&#45;&gt;dir_bdd9a5d540de89e9fe90efdfc6973a4f -->
<g id="edge6" class="edge">
<title>dir_a7b91cccb02c4e3ff005f6cfec8ac8b2&#45;&gt;dir_bdd9a5d540de89e9fe90efdfc6973a4f</title>
<path fill="none" stroke="#63b8ff" d="M58.2,-109.64C68,-101.51 81.5,-88.55 88.5,-74 95.02,-60.46 97.17,-43.54 97.74,-30.57"/>
<polygon fill="#63b8ff" stroke="#63b8ff" points="101.24,-30.75 97.87,-20.71 94.24,-30.66 101.24,-30.75"/>
<g id="a_edge6&#45;headlabel"><a xlink:href="dir_000320_000024.html" target="_top" xlink:title="2">
<text text-anchor="middle" x="104.05" y="-30.37" font-family="Helvetica,sans-Serif" font-size="10.00" fill="#63b8ff">2</text>
</a>
</g>
</g>
<!-- dir_40ac35421bc63b72c26b6c69b1517fd6 -->
<g id="node6" class="node">
<title>dir_40ac35421bc63b72c26b6c69b1517fd6</title>
<g id="a_node6"><a xlink:href="dir_40ac35421bc63b72c26b6c69b1517fd6.html" target="_top" xlink:title="system">
<polygon fill="#deebf9" stroke="red" stroke-dasharray="5,2" points="201.5,-74 153.5,-74 153.5,-55 201.5,-55 201.5,-74"/>
<text text-anchor="middle" x="177.5" y="-62" font-family="Helvetica,sans-Serif" font-size="10.00">system</text>
</a>
</g>
</g>
<!-- dir_a7b91cccb02c4e3ff005f6cfec8ac8b2&#45;&gt;dir_40ac35421bc63b72c26b6c69b1517fd6 -->
<g id="edge3" class="edge">
<title>dir_a7b91cccb02c4e3ff005f6cfec8ac8b2&#45;&gt;dir_40ac35421bc63b72c26b6c69b1517fd6</title>
<path fill="none" stroke="#63b8ff" d="M61.78,-112.32C82.07,-104.11 118.42,-89.4 144.98,-78.66"/>
<polygon fill="#63b8ff" stroke="#63b8ff" points="145.97,-82.03 153.93,-75.04 143.35,-75.54 145.97,-82.03"/>
<g id="a_edge3&#45;headlabel"><a xlink:href="dir_000320_000371.html" target="_top" xlink:title="2">
<text text-anchor="middle" x="145.11" y="-82.94" font-family="Helvetica,sans-Serif" font-size="10.00" fill="#63b8ff">2</text>
</a>
</g>
</g>
</g>
</svg>
