<?xml version="1.0" encoding="UTF-8" standalone="no"?>
<!DOCTYPE svg PUBLIC "-//W3C//DTD SVG 1.1//EN"
 "http://www.w3.org/Graphics/SVG/1.1/DTD/svg11.dtd">
<!-- Generated by graphviz version 7.0.5 (20221223.1930)
 -->
<!-- Title: iop/dev9/hdpro_atad Pages: 1 -->
<svg width="286pt" height="141pt"
 viewBox="0.00 0.00 286.00 141.00" xmlns="http://www.w3.org/2000/svg" xmlns:xlink="http://www.w3.org/1999/xlink">
<g id="graph0" class="graph" transform="scale(1 1) rotate(0) translate(4 137)">
<title>iop/dev9/hdpro_atad</title>
<g id="clust1" class="cluster">
<title>clusterdir_6f16cad81de2453a6f48c5e272ba4a18</title>
<g id="a_clust1"><a xlink:href="dir_6f16cad81de2453a6f48c5e272ba4a18.html" target="_top" xlink:title="dev9">
<polygon fill="#deebf9" stroke="#7f7f7f" stroke-dasharray="5,2" points="8,-8 8,-125 154,-125 154,-8 8,-8"/>
<text text-anchor="middle" x="81" y="-113" font-family="Helvetica,sans-Serif" font-size="10.00">dev9</text>
</a>
</g>
</g>
<g id="clust2" class="cluster">
<title>clusterdir_7e10c943c08a69732df0d9710348ffa0</title>
<g id="a_clust2"><a xlink:href="dir_7e10c943c08a69732df0d9710348ffa0.html" target="_top">
<polygon fill="#deebf9" stroke="#404040" stroke-width="2" points="16,-63 16,-98 146,-98 146,-63 16,-63"/>
</a>
</g>
</g>
<!-- dir_c9fad5ea75093c7356ef5f2b903232b1 -->
<g id="node1" class="node">
<title>dir_c9fad5ea75093c7356ef5f2b903232b1</title>
<g id="a_node1"><a xlink:href="dir_c9fad5ea75093c7356ef5f2b903232b1.html" target="_top" xlink:title="atad">
<polygon fill="#60a2e3" stroke="red" points="56.5,-35 21.5,-35 21.5,-16 56.5,-16 56.5,-35"/>
<text text-anchor="middle" x="39" y="-23" font-family="Helvetica,sans-Serif" font-size="10.00">atad</text>
</a>
</g>
</g>
<!-- dir_7e10c943c08a69732df0d9710348ffa0 -->
<g id="node2" class="node">
<title>dir_7e10c943c08a69732df0d9710348ffa0</title>
<text text-anchor="middle" x="105" y="-78" font-family="Helvetica,sans-Serif" font-size="10.00">hdpro_atad</text>
</g>
<!-- dir_f5a864409d3e095bcda6e0b97e9111ab -->
<g id="node3" class="node">
<title>dir_f5a864409d3e095bcda6e0b97e9111ab</title>
<g id="a_node3"><a xlink:href="dir_f5a864409d3e095bcda6e0b97e9111ab.html" target="_top" xlink:title="src">
<polygon fill="#60a2e3" stroke="#404040" points="54,-90 24,-90 24,-71 54,-71 54,-90"/>
<text text-anchor="middle" x="39" y="-78" font-family="Helvetica,sans-Serif" font-size="10.00">src</text>
</a>
</g>
</g>
<!-- dir_f5a864409d3e095bcda6e0b97e9111ab&#45;&gt;dir_c9fad5ea75093c7356ef5f2b903232b1 -->
<g id="edge3" class="edge">
<title>dir_f5a864409d3e095bcda6e0b97e9111ab&#45;&gt;dir_c9fad5ea75093c7356ef5f2b903232b1</title>
<path fill="none" stroke="#63b8ff" d="M39,-70.75C39,-64.27 39,-55.16 39,-46.9"/>
<polygon fill="#63b8ff" stroke="#63b8ff" points="42.5,-46.96 39,-36.96 35.5,-46.96 42.5,-46.96"/>
<g id="a_edge3&#45;headlabel"><a xlink:href="dir_000291_000010.html" target="_top" xlink:title="1">
<text text-anchor="middle" x="45.34" y="-46.54" font-family="Helvetica,sans-Serif" font-size="10.00" fill="#63b8ff">1</text>
</a>
</g>
</g>
<!-- dir_9be0baa3d4a3e9f480a9ee70594037fa -->
<g id="node4" class="node">
<title>dir_9be0baa3d4a3e9f480a9ee70594037fa</title>
<g id="a_node4"><a xlink:href="dir_9be0baa3d4a3e9f480a9ee70594037fa.html" target="_top" xlink:title="kernel">
<polygon fill="#deebf9" stroke="red" stroke-dasharray="5,2" points="205.5,-35 162.5,-35 162.5,-16 205.5,-16 205.5,-35"/>
<text text-anchor="middle" x="184" y="-23" font-family="Helvetica,sans-Serif" font-size="10.00">kernel</text>
</a>
</g>
</g>
<!-- dir_f5a864409d3e095bcda6e0b97e9111ab&#45;&gt;dir_9be0baa3d4a3e9f480a9ee70594037fa -->
<g id="edge1" class="edge">
<title>dir_f5a864409d3e095bcda6e0b97e9111ab&#45;&gt;dir_9be0baa3d4a3e9f480a9ee70594037fa</title>
<path fill="none" stroke="#63b8ff" d="M51.04,-70.52C55.02,-67.84 59.57,-65.07 64,-63 100.26,-46.08 114.1,-47.58 151.53,-36.87"/>
<polygon fill="#63b8ff" stroke="#63b8ff" points="152.14,-40.34 160.72,-34.12 150.13,-33.64 152.14,-40.34"/>
<g id="a_edge1&#45;headlabel"><a xlink:href="dir_000291_000166.html" target="_top" xlink:title="15">
<text text-anchor="middle" x="150.96" y="-41.16" font-family="Helvetica,sans-Serif" font-size="10.00" fill="#63b8ff">15</text>
</a>
</g>
</g>
<!-- dir_bdd9a5d540de89e9fe90efdfc6973a4f -->
<g id="node5" class="node">
<title>dir_bdd9a5d540de89e9fe90efdfc6973a4f</title>
<g id="a_node5"><a xlink:href="dir_bdd9a5d540de89e9fe90efdfc6973a4f.html" target="_top" xlink:title="common">
<polygon fill="#deebf9" stroke="red" points="278,-35 224,-35 224,-16 278,-16 278,-35"/>
<text text-anchor="middle" x="251" y="-23" font-family="Helvetica,sans-Serif" font-size="10.00">common</text>
</a>
</g>
</g>
<!-- dir_f5a864409d3e095bcda6e0b97e9111ab&#45;&gt;dir_bdd9a5d540de89e9fe90efdfc6973a4f -->
<g id="edge2" class="edge">
<title>dir_f5a864409d3e095bcda6e0b97e9111ab&#45;&gt;dir_bdd9a5d540de89e9fe90efdfc6973a4f</title>
<path fill="none" stroke="#63b8ff" d="M50.16,-70.75C54.31,-67.89 59.18,-64.95 64,-63 124.09,-38.77 145.98,-47.99 212.45,-35.36"/>
<polygon fill="#63b8ff" stroke="#63b8ff" points="212.91,-38.83 222.03,-33.43 211.54,-31.97 212.91,-38.83"/>
<g id="a_edge2&#45;headlabel"><a xlink:href="dir_000291_000024.html" target="_top" xlink:title="1">
<text text-anchor="middle" x="211.43" y="-39.53" font-family="Helvetica,sans-Serif" font-size="10.00" fill="#63b8ff">1</text>
</a>
</g>
</g>
</g>
</svg>
