<?xml version="1.0" encoding="UTF-8" standalone="no"?>
<!DOCTYPE svg PUBLIC "-//W3C//DTD SVG 1.1//EN"
 "http://www.w3.org/Graphics/SVG/1.1/DTD/svg11.dtd">
<!-- Generated by graphviz version 7.0.5 (20221223.1930)
 -->
<!-- Title: ee/erl/src Pages: 1 -->
<svg width="119pt" height="133pt"
 viewBox="0.00 0.00 118.50 133.00" xmlns="http://www.w3.org/2000/svg" xmlns:xlink="http://www.w3.org/1999/xlink">
<g id="graph0" class="graph" transform="scale(1 1) rotate(0) translate(4 129)">
<title>ee/erl/src</title>
<g id="clust1" class="cluster">
<title>clusterdir_a0a8ac7efb6662b749c1285408048e6d</title>
<g id="a_clust1"><a xlink:href="dir_a0a8ac7efb6662b749c1285408048e6d.html" target="_top" xlink:title="erl">
<polygon fill="#deebf9" stroke="#7f7f7f" stroke-dasharray="5,2" points="8,-8 8,-117 72,-117 72,-8 8,-8"/>
<text text-anchor="middle" x="40" y="-105" font-family="Helvetica,sans-Serif" font-size="10.00">erl</text>
</a>
</g>
</g>
<!-- dir_97f09241239d7d5372d6f9efe5fe96c8 -->
<g id="node1" class="node">
<title>dir_97f09241239d7d5372d6f9efe5fe96c8</title>
<g id="a_node1"><a xlink:href="dir_97f09241239d7d5372d6f9efe5fe96c8.html" target="_top" xlink:title="include">
<polygon fill="#60a2e3" stroke="#404040" points="63.5,-35 16.5,-35 16.5,-16 63.5,-16 63.5,-35"/>
<text text-anchor="middle" x="40" y="-23" font-family="Helvetica,sans-Serif" font-size="10.00">include</text>
</a>
</g>
</g>
<!-- dir_00e8a216ae9cff254bd9d39011256e74 -->
<g id="node2" class="node">
<title>dir_00e8a216ae9cff254bd9d39011256e74</title>
<g id="a_node2"><a xlink:href="dir_00e8a216ae9cff254bd9d39011256e74.html" target="_top" xlink:title="src">
<polygon fill="#deebf9" stroke="#404040" stroke-width="2" points="59,-90 29,-90 29,-71 59,-71 59,-90"/>
<text text-anchor="middle" x="44" y="-78" font-family="Helvetica,sans-Serif" font-size="10.00">src</text>
</a>
</g>
</g>
<!-- dir_00e8a216ae9cff254bd9d39011256e74&#45;&gt;dir_97f09241239d7d5372d6f9efe5fe96c8 -->
<g id="edge2" class="edge">
<title>dir_00e8a216ae9cff254bd9d39011256e74&#45;&gt;dir_97f09241239d7d5372d6f9efe5fe96c8</title>
<path fill="none" stroke="#63b8ff" d="M43.34,-70.75C42.85,-64.27 42.16,-55.16 41.54,-46.9"/>
<polygon fill="#63b8ff" stroke="#63b8ff" points="45.03,-46.66 40.79,-36.95 38.05,-47.19 45.03,-46.66"/>
<g id="a_edge2&#45;headlabel"><a xlink:href="dir_000245_000073.html" target="_top" xlink:title="1">
<text text-anchor="middle" x="48.02" y="-46.02" font-family="Helvetica,sans-Serif" font-size="10.00" fill="#63b8ff">1</text>
</a>
</g>
</g>
<!-- dir_0981ace215aa2029f526b70c145b9fbe -->
<g id="node3" class="node">
<title>dir_0981ace215aa2029f526b70c145b9fbe</title>
<g id="a_node3"><a xlink:href="dir_0981ace215aa2029f526b70c145b9fbe.html" target="_top" xlink:title="iop">
<polygon fill="#deebf9" stroke="red" points="110.5,-35 81.5,-35 81.5,-16 110.5,-16 110.5,-35"/>
<text text-anchor="middle" x="96" y="-23" font-family="Helvetica,sans-Serif" font-size="10.00">iop</text>
</a>
</g>
</g>
<!-- dir_00e8a216ae9cff254bd9d39011256e74&#45;&gt;dir_0981ace215aa2029f526b70c145b9fbe -->
<g id="edge1" class="edge">
<title>dir_00e8a216ae9cff254bd9d39011256e74&#45;&gt;dir_0981ace215aa2029f526b70c145b9fbe</title>
<path fill="none" stroke="#63b8ff" d="M52.59,-70.75C59.84,-63.35 70.45,-52.54 79.37,-43.45"/>
<polygon fill="#63b8ff" stroke="#63b8ff" points="81.66,-46.11 86.17,-36.52 76.66,-41.21 81.66,-46.11"/>
<g id="a_edge1&#45;headlabel"><a xlink:href="dir_000245_000159.html" target="_top" xlink:title="2">
<text text-anchor="middle" x="82.23" y="-47.09" font-family="Helvetica,sans-Serif" font-size="10.00" fill="#63b8ff">2</text>
</a>
</g>
</g>
</g>
</svg>
