<?xml version="1.0" encoding="UTF-8" standalone="no"?>
<!DOCTYPE svg PUBLIC "-//W3C//DTD SVG 1.1//EN"
 "http://www.w3.org/Graphics/SVG/1.1/DTD/svg11.dtd">
<!-- Generated by graphviz version 7.0.5 (20221223.1930)
 -->
<!-- Title: iop/kernel/include Pages: 1 -->
<svg width="154pt" height="125pt"
 viewBox="0.00 0.00 154.00 125.00" xmlns="http://www.w3.org/2000/svg" xmlns:xlink="http://www.w3.org/1999/xlink">
<g id="graph0" class="graph" transform="scale(1 1) rotate(0) translate(4 121)">
<title>iop/kernel/include</title>
<g id="clust1" class="cluster">
<title>clusterdir_9be0baa3d4a3e9f480a9ee70594037fa</title>
<g id="a_clust1"><a xlink:href="dir_9be0baa3d4a3e9f480a9ee70594037fa.html" target="_top" xlink:title="kernel">
<polygon fill="#deebf9" stroke="#7f7f7f" stroke-dasharray="5,2" points="8,-39 8,-109 138,-109 138,-39 8,-39"/>
<text text-anchor="middle" x="73" y="-97" font-family="Helvetica,sans-Serif" font-size="10.00">kernel</text>
</a>
</g>
</g>
<g id="clust2" class="cluster">
<title>clusterdir_28a909d5f29a09cdabda212007cd73f7</title>
<g id="a_clust2"><a xlink:href="dir_28a909d5f29a09cdabda212007cd73f7.html" target="_top">
<polygon fill="#deebf9" stroke="#404040" stroke-width="2" points="16,-47 16,-82 130,-82 130,-47 16,-47"/>
</a>
</g>
</g>
<!-- dir_28a909d5f29a09cdabda212007cd73f7 -->
<g id="node1" class="node">
<title>dir_28a909d5f29a09cdabda212007cd73f7</title>
<text text-anchor="middle" x="48" y="-62" font-family="Helvetica,sans-Serif" font-size="10.00">include</text>
</g>
<!-- dir_40ac35421bc63b72c26b6c69b1517fd6 -->
<g id="node3" class="node">
<title>dir_40ac35421bc63b72c26b6c69b1517fd6</title>
<g id="a_node3"><a xlink:href="dir_40ac35421bc63b72c26b6c69b1517fd6.html" target="_top" xlink:title="system">
<polygon fill="#deebf9" stroke="red" stroke-dasharray="5,2" points="61,-19 13,-19 13,0 61,0 61,-19"/>
<text text-anchor="middle" x="37" y="-7" font-family="Helvetica,sans-Serif" font-size="10.00">system</text>
</a>
</g>
</g>
<!-- dir_28a909d5f29a09cdabda212007cd73f7&#45;&gt;dir_40ac35421bc63b72c26b6c69b1517fd6 -->
<g id="edge1" class="edge">
<title>dir_28a909d5f29a09cdabda212007cd73f7&#45;&gt;dir_40ac35421bc63b72c26b6c69b1517fd6</title>
<path fill="none" stroke="#63b8ff" d="M46.28,-55.22C44.9,-48.57 42.91,-38.96 41.12,-30.34"/>
<polygon fill="#63b8ff" stroke="#63b8ff" points="44.58,-29.81 39.12,-20.73 37.73,-31.24 44.58,-29.81"/>
<g id="a_edge1&#45;headlabel"><a xlink:href="dir_000130_000371.html" target="_top" xlink:title="2">
<text text-anchor="middle" x="47.79" y="-28.77" font-family="Helvetica,sans-Serif" font-size="10.00" fill="#63b8ff">2</text>
</a>
</g>
</g>
<!-- dir_bdd9a5d540de89e9fe90efdfc6973a4f -->
<g id="node4" class="node">
<title>dir_bdd9a5d540de89e9fe90efdfc6973a4f</title>
<g id="a_node4"><a xlink:href="dir_bdd9a5d540de89e9fe90efdfc6973a4f.html" target="_top" xlink:title="common">
<polygon fill="#deebf9" stroke="red" points="133,-19 79,-19 79,0 133,0 133,-19"/>
<text text-anchor="middle" x="106" y="-7" font-family="Helvetica,sans-Serif" font-size="10.00">common</text>
</a>
</g>
</g>
<!-- dir_28a909d5f29a09cdabda212007cd73f7&#45;&gt;dir_bdd9a5d540de89e9fe90efdfc6973a4f -->
<g id="edge2" class="edge">
<title>dir_28a909d5f29a09cdabda212007cd73f7&#45;&gt;dir_bdd9a5d540de89e9fe90efdfc6973a4f</title>
<path fill="none" stroke="#63b8ff" d="M57.06,-55.22C65.34,-47.65 77.82,-36.25 88.11,-26.85"/>
<polygon fill="#63b8ff" stroke="#63b8ff" points="90.28,-29.6 95.31,-20.27 85.56,-24.43 90.28,-29.6"/>
<g id="a_edge2&#45;headlabel"><a xlink:href="dir_000130_000024.html" target="_top" xlink:title="12">
<text text-anchor="middle" x="90.66" y="-30.6" font-family="Helvetica,sans-Serif" font-size="10.00" fill="#63b8ff">12</text>
</a>
</g>
</g>
<!-- dir_afd48996a710abaf5168dda39bb9c23c -->
<g id="node2" class="node">
<title>dir_afd48996a710abaf5168dda39bb9c23c</title>
<g id="a_node2"><a xlink:href="dir_afd48996a710abaf5168dda39bb9c23c.html" target="_top" xlink:title="sys">
<polygon fill="#60a2e3" stroke="#404040" points="122,-74 90,-74 90,-55 122,-55 122,-74"/>
<text text-anchor="middle" x="106" y="-62" font-family="Helvetica,sans-Serif" font-size="10.00">sys</text>
</a>
</g>
</g>
<!-- dir_afd48996a710abaf5168dda39bb9c23c&#45;&gt;dir_bdd9a5d540de89e9fe90efdfc6973a4f -->
<g id="edge3" class="edge">
<title>dir_afd48996a710abaf5168dda39bb9c23c&#45;&gt;dir_bdd9a5d540de89e9fe90efdfc6973a4f</title>
<path fill="none" stroke="#63b8ff" d="M106,-54.75C106,-48.27 106,-39.16 106,-30.9"/>
<polygon fill="#63b8ff" stroke="#63b8ff" points="109.5,-30.96 106,-20.96 102.5,-30.96 109.5,-30.96"/>
<g id="a_edge3&#45;headlabel"><a xlink:href="dir_000369_000024.html" target="_top" xlink:title="1">
<text text-anchor="middle" x="112.34" y="-30.54" font-family="Helvetica,sans-Serif" font-size="10.00" fill="#63b8ff">1</text>
</a>
</g>
</g>
</g>
</svg>
