<?xml version="1.0" encoding="UTF-8" standalone="no"?>
<!DOCTYPE svg PUBLIC "-//W3C//DTD SVG 1.1//EN"
 "http://www.w3.org/Graphics/SVG/1.1/DTD/svg11.dtd">
<!-- Generated by graphviz version 7.0.5 (20221223.1930)
 -->
<!-- Title: ee/elf&#45;loader Pages: 1 -->
<svg width="328pt" height="141pt"
 viewBox="0.00 0.00 327.50 141.00" xmlns="http://www.w3.org/2000/svg" xmlns:xlink="http://www.w3.org/1999/xlink">
<g id="graph0" class="graph" transform="scale(1 1) rotate(0) translate(4 137)">
<title>ee/elf&#45;loader</title>
<g id="clust1" class="cluster">
<title>clusterdir_049738f1909e8dc3e45fe1f6b3faa109</title>
<g id="a_clust1"><a xlink:href="dir_049738f1909e8dc3e45fe1f6b3faa109.html" target="_top" xlink:title="ee">
<polygon fill="#deebf9" stroke="#404040" stroke-dasharray="5,2" points="8,-8 8,-125 210,-125 210,-8 8,-8"/>
<text text-anchor="middle" x="109" y="-113" font-family="Helvetica,sans-Serif" font-size="10.00">ee</text>
</a>
</g>
</g>
<g id="clust2" class="cluster">
<title>clusterdir_e299e00cada893e7503c7ad35bb90f27</title>
<g id="a_clust2"><a xlink:href="dir_e299e00cada893e7503c7ad35bb90f27.html" target="_top">
<polygon fill="#deebf9" stroke="#404040" stroke-width="2" points="16,-63 16,-98 202,-98 202,-63 16,-63"/>
</a>
</g>
</g>
<!-- dir_694ec83a64f58cbdefbefce65cd1011c -->
<g id="node1" class="node">
<title>dir_694ec83a64f58cbdefbefce65cd1011c</title>
<g id="a_node1"><a xlink:href="dir_694ec83a64f58cbdefbefce65cd1011c.html" target="_top" xlink:title="kernel">
<polygon fill="#60a2e3" stroke="red" points="60.5,-35 17.5,-35 17.5,-16 60.5,-16 60.5,-35"/>
<text text-anchor="middle" x="39" y="-23" font-family="Helvetica,sans-Serif" font-size="10.00">kernel</text>
</a>
</g>
</g>
<!-- dir_e299e00cada893e7503c7ad35bb90f27 -->
<g id="node2" class="node">
<title>dir_e299e00cada893e7503c7ad35bb90f27</title>
<text text-anchor="middle" x="166" y="-78" font-family="Helvetica,sans-Serif" font-size="10.00">elf&#45;loader</text>
</g>
<!-- dir_2806c30bcfe757664fc71812642581f7 -->
<g id="node3" class="node">
<title>dir_2806c30bcfe757664fc71812642581f7</title>
<g id="a_node3"><a xlink:href="dir_2806c30bcfe757664fc71812642581f7.html" target="_top" xlink:title="include">
<polygon fill="#60a2e3" stroke="#404040" points="119.5,-90 72.5,-90 72.5,-71 119.5,-71 119.5,-90"/>
<text text-anchor="middle" x="96" y="-78" font-family="Helvetica,sans-Serif" font-size="10.00">include</text>
</a>
</g>
</g>
<!-- dir_c2745311b335edcded8abb10f5a23735 -->
<g id="node4" class="node">
<title>dir_c2745311b335edcded8abb10f5a23735</title>
<g id="a_node4"><a xlink:href="dir_c2745311b335edcded8abb10f5a23735.html" target="_top" xlink:title="src">
<polygon fill="#60a2e3" stroke="#404040" points="54,-90 24,-90 24,-71 54,-71 54,-90"/>
<text text-anchor="middle" x="39" y="-78" font-family="Helvetica,sans-Serif" font-size="10.00">src</text>
</a>
</g>
</g>
<!-- dir_c2745311b335edcded8abb10f5a23735&#45;&gt;dir_694ec83a64f58cbdefbefce65cd1011c -->
<g id="edge1" class="edge">
<title>dir_c2745311b335edcded8abb10f5a23735&#45;&gt;dir_694ec83a64f58cbdefbefce65cd1011c</title>
<path fill="none" stroke="#63b8ff" d="M39,-70.75C39,-64.27 39,-55.16 39,-46.9"/>
<polygon fill="#63b8ff" stroke="#63b8ff" points="42.5,-46.96 39,-36.96 35.5,-46.96 42.5,-46.96"/>
<g id="a_edge1&#45;headlabel"><a xlink:href="dir_000242_000165.html" target="_top" xlink:title="4">
<text text-anchor="middle" x="45.34" y="-46.54" font-family="Helvetica,sans-Serif" font-size="10.00" fill="#63b8ff">4</text>
</a>
</g>
</g>
<!-- dir_bdd9a5d540de89e9fe90efdfc6973a4f -->
<g id="node5" class="node">
<title>dir_bdd9a5d540de89e9fe90efdfc6973a4f</title>
<g id="a_node5"><a xlink:href="dir_bdd9a5d540de89e9fe90efdfc6973a4f.html" target="_top" xlink:title="common">
<polygon fill="#deebf9" stroke="red" points="272,-35 218,-35 218,-16 272,-16 272,-35"/>
<text text-anchor="middle" x="245" y="-23" font-family="Helvetica,sans-Serif" font-size="10.00">common</text>
</a>
</g>
</g>
<!-- dir_c2745311b335edcded8abb10f5a23735&#45;&gt;dir_bdd9a5d540de89e9fe90efdfc6973a4f -->
<g id="edge2" class="edge">
<title>dir_c2745311b335edcded8abb10f5a23735&#45;&gt;dir_bdd9a5d540de89e9fe90efdfc6973a4f</title>
<path fill="none" stroke="#63b8ff" d="M50.16,-70.76C54.31,-67.89 59.18,-64.95 64,-63 123.44,-38.99 145.48,-48.94 206.63,-36.52"/>
<polygon fill="#63b8ff" stroke="#63b8ff" points="207.14,-39.99 216.17,-34.45 205.65,-33.15 207.14,-39.99"/>
<g id="a_edge2&#45;headlabel"><a xlink:href="dir_000242_000024.html" target="_top" xlink:title="2">
<text text-anchor="middle" x="205.7" y="-40.71" font-family="Helvetica,sans-Serif" font-size="10.00" fill="#63b8ff">2</text>
</a>
</g>
</g>
<!-- dir_0981ace215aa2029f526b70c145b9fbe -->
<g id="node6" class="node">
<title>dir_0981ace215aa2029f526b70c145b9fbe</title>
<g id="a_node6"><a xlink:href="dir_0981ace215aa2029f526b70c145b9fbe.html" target="_top" xlink:title="iop">
<polygon fill="#deebf9" stroke="red" points="319.5,-35 290.5,-35 290.5,-16 319.5,-16 319.5,-35"/>
<text text-anchor="middle" x="305" y="-23" font-family="Helvetica,sans-Serif" font-size="10.00">iop</text>
</a>
</g>
</g>
<!-- dir_c2745311b335edcded8abb10f5a23735&#45;&gt;dir_0981ace215aa2029f526b70c145b9fbe -->
<g id="edge3" class="edge">
<title>dir_c2745311b335edcded8abb10f5a23735&#45;&gt;dir_0981ace215aa2029f526b70c145b9fbe</title>
<path fill="none" stroke="#63b8ff" d="M50.11,-70.6C54.24,-67.73 59.13,-64.81 64,-63 151.86,-30.35 184.08,-55.61 279.2,-34.84"/>
<polygon fill="#63b8ff" stroke="#63b8ff" points="279.74,-38.31 288.69,-32.64 278.16,-31.49 279.74,-38.31"/>
<g id="a_edge3&#45;headlabel"><a xlink:href="dir_000242_000159.html" target="_top" xlink:title="1">
<text text-anchor="middle" x="278.35" y="-39.04" font-family="Helvetica,sans-Serif" font-size="10.00" fill="#63b8ff">1</text>
</a>
</g>
</g>
</g>
</svg>
