<?xml version="1.0" encoding="UTF-8" standalone="no"?>
<!DOCTYPE svg PUBLIC "-//W3C//DTD SVG 1.1//EN"
 "http://www.w3.org/Graphics/SVG/1.1/DTD/svg11.dtd">
<!-- Generated by graphviz version 7.0.5 (20221223.1930)
 -->
<!-- Title: ee/input Pages: 1 -->
<svg width="211pt" height="196pt"
 viewBox="0.00 0.00 210.50 196.00" xmlns="http://www.w3.org/2000/svg" xmlns:xlink="http://www.w3.org/1999/xlink">
<g id="graph0" class="graph" transform="scale(1 1) rotate(0) translate(4 192)">
<title>ee/input</title>
<g id="clust1" class="cluster">
<title>clusterdir_049738f1909e8dc3e45fe1f6b3faa109</title>
<g id="a_clust1"><a xlink:href="dir_049738f1909e8dc3e45fe1f6b3faa109.html" target="_top" xlink:title="ee">
<polygon fill="#deebf9" stroke="#404040" stroke-dasharray="5,2" points="8,-8 8,-180 164,-180 164,-8 8,-8"/>
<text text-anchor="middle" x="86" y="-168" font-family="Helvetica,sans-Serif" font-size="10.00">ee</text>
</a>
</g>
</g>
<g id="clust2" class="cluster">
<title>clusterdir_39941762bcf6eb45f8acbe5afd6e1dcf</title>
<g id="a_clust2"><a xlink:href="dir_39941762bcf6eb45f8acbe5afd6e1dcf.html" target="_top">
<polygon fill="#deebf9" stroke="#404040" stroke-width="2" points="16,-63 16,-153 118,-153 118,-63 16,-63"/>
</a>
</g>
</g>
<!-- dir_5b119dc963fa9b25ef41951231899460 -->
<g id="node1" class="node">
<title>dir_5b119dc963fa9b25ef41951231899460</title>
<g id="a_node1"><a xlink:href="dir_5b119dc963fa9b25ef41951231899460.html" target="_top" xlink:title="rpc">
<polygon fill="#60a2e3" stroke="red" points="84,-35 54,-35 54,-16 84,-16 84,-35"/>
<text text-anchor="middle" x="69" y="-23" font-family="Helvetica,sans-Serif" font-size="10.00">rpc</text>
</a>
</g>
</g>
<!-- dir_a0a8ac7efb6662b749c1285408048e6d -->
<g id="node2" class="node">
<title>dir_a0a8ac7efb6662b749c1285408048e6d</title>
<g id="a_node2"><a xlink:href="dir_a0a8ac7efb6662b749c1285408048e6d.html" target="_top" xlink:title="erl">
<polygon fill="#60a2e3" stroke="red" points="155.5,-90 126.5,-90 126.5,-71 155.5,-71 155.5,-90"/>
<text text-anchor="middle" x="141" y="-78" font-family="Helvetica,sans-Serif" font-size="10.00">erl</text>
</a>
</g>
</g>
<!-- dir_39941762bcf6eb45f8acbe5afd6e1dcf -->
<g id="node3" class="node">
<title>dir_39941762bcf6eb45f8acbe5afd6e1dcf</title>
<text text-anchor="middle" x="91" y="-133" font-family="Helvetica,sans-Serif" font-size="10.00">input</text>
</g>
<!-- dir_f6f36f3eb6875262b2c2259532f4a7d0 -->
<g id="node4" class="node">
<title>dir_f6f36f3eb6875262b2c2259532f4a7d0</title>
<g id="a_node4"><a xlink:href="dir_f6f36f3eb6875262b2c2259532f4a7d0.html" target="_top" xlink:title="include">
<polygon fill="#60a2e3" stroke="#404040" points="71.5,-90 24.5,-90 24.5,-71 71.5,-71 71.5,-90"/>
<text text-anchor="middle" x="48" y="-78" font-family="Helvetica,sans-Serif" font-size="10.00">include</text>
</a>
</g>
</g>
<!-- dir_f6f36f3eb6875262b2c2259532f4a7d0&#45;&gt;dir_5b119dc963fa9b25ef41951231899460 -->
<g id="edge1" class="edge">
<title>dir_f6f36f3eb6875262b2c2259532f4a7d0&#45;&gt;dir_5b119dc963fa9b25ef41951231899460</title>
<path fill="none" stroke="#63b8ff" d="M51.47,-70.75C54.13,-64.04 57.9,-54.52 61.26,-46.02"/>
<polygon fill="#63b8ff" stroke="#63b8ff" points="64.47,-47.44 64.9,-36.85 57.96,-44.86 64.47,-47.44"/>
<g id="a_edge1&#45;headlabel"><a xlink:href="dir_000076_000219.html" target="_top" xlink:title="1">
<text text-anchor="middle" x="66.34" y="-47.92" font-family="Helvetica,sans-Serif" font-size="10.00" fill="#63b8ff">1</text>
</a>
</g>
</g>
<!-- dir_9805d618bf049a122c516d9b6b072b3f -->
<g id="node5" class="node">
<title>dir_9805d618bf049a122c516d9b6b072b3f</title>
<g id="a_node5"><a xlink:href="dir_9805d618bf049a122c516d9b6b072b3f.html" target="_top" xlink:title="src">
<polygon fill="#60a2e3" stroke="#404040" points="54,-145 24,-145 24,-126 54,-126 54,-145"/>
<text text-anchor="middle" x="39" y="-133" font-family="Helvetica,sans-Serif" font-size="10.00">src</text>
</a>
</g>
</g>
<!-- dir_9805d618bf049a122c516d9b6b072b3f&#45;&gt;dir_5b119dc963fa9b25ef41951231899460 -->
<g id="edge3" class="edge">
<title>dir_9805d618bf049a122c516d9b6b072b3f&#45;&gt;dir_5b119dc963fa9b25ef41951231899460</title>
<path fill="none" stroke="#63b8ff" d="M51.61,-125.55C61.71,-117.54 75.12,-104.81 81,-90 86.65,-75.79 82.88,-58.71 78.12,-45.85"/>
<polygon fill="#63b8ff" stroke="#63b8ff" points="81.42,-44.67 74.31,-36.82 74.97,-47.39 81.42,-44.67"/>
<g id="a_edge3&#45;headlabel"><a xlink:href="dir_000248_000219.html" target="_top" xlink:title="1">
<text text-anchor="middle" x="84.85" y="-42.98" font-family="Helvetica,sans-Serif" font-size="10.00" fill="#63b8ff">1</text>
</a>
</g>
</g>
<!-- dir_9805d618bf049a122c516d9b6b072b3f&#45;&gt;dir_a0a8ac7efb6662b749c1285408048e6d -->
<g id="edge4" class="edge">
<title>dir_9805d618bf049a122c516d9b6b072b3f&#45;&gt;dir_a0a8ac7efb6662b749c1285408048e6d</title>
<path fill="none" stroke="#63b8ff" d="M54.49,-126.45C70.78,-117.99 96.66,-104.54 115.88,-94.55"/>
<polygon fill="#63b8ff" stroke="#63b8ff" points="117.43,-97.69 124.69,-89.98 114.2,-91.48 117.43,-97.69"/>
<g id="a_edge4&#45;headlabel"><a xlink:href="dir_000248_000045.html" target="_top" xlink:title="1">
<text text-anchor="middle" x="116.89" y="-98.67" font-family="Helvetica,sans-Serif" font-size="10.00" fill="#63b8ff">1</text>
</a>
</g>
</g>
<!-- dir_9805d618bf049a122c516d9b6b072b3f&#45;&gt;dir_f6f36f3eb6875262b2c2259532f4a7d0 -->
<g id="edge5" class="edge">
<title>dir_9805d618bf049a122c516d9b6b072b3f&#45;&gt;dir_f6f36f3eb6875262b2c2259532f4a7d0</title>
<path fill="none" stroke="#63b8ff" d="M40.49,-125.75C41.6,-119.19 43.17,-109.95 44.59,-101.6"/>
<polygon fill="#63b8ff" stroke="#63b8ff" points="48,-102.38 46.23,-91.93 41.1,-101.21 48,-102.38"/>
<g id="a_edge5&#45;headlabel"><a xlink:href="dir_000248_000076.html" target="_top" xlink:title="1">
<text text-anchor="middle" x="50.46" y="-102.41" font-family="Helvetica,sans-Serif" font-size="10.00" fill="#63b8ff">1</text>
</a>
</g>
</g>
<!-- dir_0981ace215aa2029f526b70c145b9fbe -->
<g id="node6" class="node">
<title>dir_0981ace215aa2029f526b70c145b9fbe</title>
<g id="a_node6"><a xlink:href="dir_0981ace215aa2029f526b70c145b9fbe.html" target="_top" xlink:title="iop">
<polygon fill="#deebf9" stroke="red" points="202.5,-90 173.5,-90 173.5,-71 202.5,-71 202.5,-90"/>
<text text-anchor="middle" x="188" y="-78" font-family="Helvetica,sans-Serif" font-size="10.00">iop</text>
</a>
</g>
</g>
<!-- dir_9805d618bf049a122c516d9b6b072b3f&#45;&gt;dir_0981ace215aa2029f526b70c145b9fbe -->
<g id="edge2" class="edge">
<title>dir_9805d618bf049a122c516d9b6b072b3f&#45;&gt;dir_0981ace215aa2029f526b70c145b9fbe</title>
<path fill="none" stroke="#63b8ff" d="M54.48,-128.99C57.32,-127.99 60.25,-126.96 63,-126 106.22,-110.94 119.97,-108.04 162.66,-91.94"/>
<polygon fill="#63b8ff" stroke="#63b8ff" points="163.68,-95.3 171.78,-88.47 161.19,-88.76 163.68,-95.3"/>
<g id="a_edge2&#45;headlabel"><a xlink:href="dir_000248_000159.html" target="_top" xlink:title="1">
<text text-anchor="middle" x="162.75" y="-96.2" font-family="Helvetica,sans-Serif" font-size="10.00" fill="#63b8ff">1</text>
</a>
</g>
</g>
</g>
</svg>
