<?xml version="1.0" encoding="UTF-8" standalone="no"?>
<!DOCTYPE svg PUBLIC "-//W3C//DTD SVG 1.1//EN"
 "http://www.w3.org/Graphics/SVG/1.1/DTD/svg11.dtd">
<!-- Generated by graphviz version 7.0.5 (20221223.1930)
 -->
<!-- Title: ee/iopreboot Pages: 1 -->
<svg width="341pt" height="149pt"
 viewBox="0.00 0.00 340.50 149.00" xmlns="http://www.w3.org/2000/svg" xmlns:xlink="http://www.w3.org/1999/xlink">
<g id="graph0" class="graph" transform="scale(1 1) rotate(0) translate(4 145)">
<title>ee/iopreboot</title>
<g id="clust1" class="cluster">
<title>clusterdir_049738f1909e8dc3e45fe1f6b3faa109</title>
<g id="a_clust1"><a xlink:href="dir_049738f1909e8dc3e45fe1f6b3faa109.html" target="_top" xlink:title="ee">
<polygon fill="#deebf9" stroke="#404040" stroke-dasharray="5,2" points="8,-8 8,-133 293,-133 293,-8 8,-8"/>
<text text-anchor="middle" x="150.5" y="-121" font-family="Helvetica,sans-Serif" font-size="10.00">ee</text>
</a>
</g>
</g>
<g id="clust2" class="cluster">
<title>clusterdir_ff70674bc173ff6e32f1bc3a678b82a6</title>
<g id="a_clust2"><a xlink:href="dir_ff70674bc173ff6e32f1bc3a678b82a6.html" target="_top">
<polygon fill="#deebf9" stroke="#404040" stroke-width="2" points="16,-16 16,-106 136,-106 136,-16 16,-16"/>
</a>
</g>
</g>
<!-- dir_a0a8ac7efb6662b749c1285408048e6d -->
<g id="node1" class="node">
<title>dir_a0a8ac7efb6662b749c1285408048e6d</title>
<g id="a_node1"><a xlink:href="dir_a0a8ac7efb6662b749c1285408048e6d.html" target="_top" xlink:title="erl">
<polygon fill="#60a2e3" stroke="red" points="173.5,-43 144.5,-43 144.5,-24 173.5,-24 173.5,-43"/>
<text text-anchor="middle" x="159" y="-31" font-family="Helvetica,sans-Serif" font-size="10.00">erl</text>
</a>
</g>
</g>
<!-- dir_694ec83a64f58cbdefbefce65cd1011c -->
<g id="node2" class="node">
<title>dir_694ec83a64f58cbdefbefce65cd1011c</title>
<g id="a_node2"><a xlink:href="dir_694ec83a64f58cbdefbefce65cd1011c.html" target="_top" xlink:title="kernel">
<polygon fill="#60a2e3" stroke="red" points="234.5,-43 191.5,-43 191.5,-24 234.5,-24 234.5,-43"/>
<text text-anchor="middle" x="213" y="-31" font-family="Helvetica,sans-Serif" font-size="10.00">kernel</text>
</a>
</g>
</g>
<!-- dir_3c99d3595cafa99f0e2683197c97edf9 -->
<g id="node3" class="node">
<title>dir_3c99d3595cafa99f0e2683197c97edf9</title>
<g id="a_node3"><a xlink:href="dir_3c99d3595cafa99f0e2683197c97edf9.html" target="_top" xlink:title="sbv">
<polygon fill="#60a2e3" stroke="red" points="285,-43 253,-43 253,-24 285,-24 285,-43"/>
<text text-anchor="middle" x="269" y="-31" font-family="Helvetica,sans-Serif" font-size="10.00">sbv</text>
</a>
</g>
</g>
<!-- dir_ff70674bc173ff6e32f1bc3a678b82a6 -->
<g id="node4" class="node">
<title>dir_ff70674bc173ff6e32f1bc3a678b82a6</title>
<text text-anchor="middle" x="100" y="-86" font-family="Helvetica,sans-Serif" font-size="10.00">iopreboot</text>
</g>
<!-- dir_5dc1218e3fbe6447e9a0ef568f079980 -->
<g id="node5" class="node">
<title>dir_5dc1218e3fbe6447e9a0ef568f079980</title>
<g id="a_node5"><a xlink:href="dir_5dc1218e3fbe6447e9a0ef568f079980.html" target="_top" xlink:title="include">
<polygon fill="#60a2e3" stroke="#404040" points="71.5,-43 24.5,-43 24.5,-24 71.5,-24 71.5,-43"/>
<text text-anchor="middle" x="48" y="-31" font-family="Helvetica,sans-Serif" font-size="10.00">include</text>
</a>
</g>
</g>
<!-- dir_a498588c2d5275b63f4912378b4fcc14 -->
<g id="node6" class="node">
<title>dir_a498588c2d5275b63f4912378b4fcc14</title>
<g id="a_node6"><a xlink:href="dir_a498588c2d5275b63f4912378b4fcc14.html" target="_top" xlink:title="src">
<polygon fill="#60a2e3" stroke="#404040" points="54,-98 24,-98 24,-79 54,-79 54,-98"/>
<text text-anchor="middle" x="39" y="-86" font-family="Helvetica,sans-Serif" font-size="10.00">src</text>
</a>
</g>
</g>
<!-- dir_a498588c2d5275b63f4912378b4fcc14&#45;&gt;dir_a0a8ac7efb6662b749c1285408048e6d -->
<g id="edge4" class="edge">
<title>dir_a498588c2d5275b63f4912378b4fcc14&#45;&gt;dir_a0a8ac7efb6662b749c1285408048e6d</title>
<path fill="none" stroke="#63b8ff" d="M54.41,-80.74C72.22,-72.93 102.66,-59.55 133.58,-45.84"/>
<polygon fill="#63b8ff" stroke="#63b8ff" points="134.96,-49.06 142.68,-41.8 132.12,-42.66 134.96,-49.06"/>
<g id="a_edge4&#45;headlabel"><a xlink:href="dir_000249_000045.html" target="_top" xlink:title="1">
<text text-anchor="middle" x="134.21" y="-50" font-family="Helvetica,sans-Serif" font-size="10.00" fill="#63b8ff">1</text>
</a>
</g>
</g>
<!-- dir_a498588c2d5275b63f4912378b4fcc14&#45;&gt;dir_694ec83a64f58cbdefbefce65cd1011c -->
<g id="edge3" class="edge">
<title>dir_a498588c2d5275b63f4912378b4fcc14&#45;&gt;dir_694ec83a64f58cbdefbefce65cd1011c</title>
<path fill="none" stroke="#63b8ff" d="M54.45,-81.89C57.29,-80.9 60.23,-79.9 63,-79 84.83,-71.9 143.22,-54.78 180.38,-43.96"/>
<polygon fill="#63b8ff" stroke="#63b8ff" points="181.08,-47.4 189.71,-41.25 179.13,-40.68 181.08,-47.4"/>
<g id="a_edge3&#45;headlabel"><a xlink:href="dir_000249_000165.html" target="_top" xlink:title="5">
<text text-anchor="middle" x="179.88" y="-48.21" font-family="Helvetica,sans-Serif" font-size="10.00" fill="#63b8ff">5</text>
</a>
</g>
</g>
<!-- dir_a498588c2d5275b63f4912378b4fcc14&#45;&gt;dir_3c99d3595cafa99f0e2683197c97edf9 -->
<g id="edge1" class="edge">
<title>dir_a498588c2d5275b63f4912378b4fcc14&#45;&gt;dir_3c99d3595cafa99f0e2683197c97edf9</title>
<path fill="none" stroke="#63b8ff" d="M54.39,-81.68C57.23,-80.71 60.19,-79.77 63,-79 138.69,-58.19 162.73,-63.7 241.71,-43.3"/>
<polygon fill="#63b8ff" stroke="#63b8ff" points="242.46,-46.72 251.23,-40.78 240.66,-39.95 242.46,-46.72"/>
<g id="a_edge1&#45;headlabel"><a xlink:href="dir_000249_000223.html" target="_top" xlink:title="1">
<text text-anchor="middle" x="241.17" y="-47.5" font-family="Helvetica,sans-Serif" font-size="10.00" fill="#63b8ff">1</text>
</a>
</g>
</g>
<!-- dir_a498588c2d5275b63f4912378b4fcc14&#45;&gt;dir_5dc1218e3fbe6447e9a0ef568f079980 -->
<g id="edge2" class="edge">
<title>dir_a498588c2d5275b63f4912378b4fcc14&#45;&gt;dir_5dc1218e3fbe6447e9a0ef568f079980</title>
<path fill="none" stroke="#63b8ff" d="M40.49,-78.75C41.6,-72.19 43.17,-62.95 44.59,-54.6"/>
<polygon fill="#63b8ff" stroke="#63b8ff" points="48,-55.38 46.23,-44.93 41.1,-54.21 48,-55.38"/>
<g id="a_edge2&#45;headlabel"><a xlink:href="dir_000249_000077.html" target="_top" xlink:title="1">
<text text-anchor="middle" x="50.46" y="-55.41" font-family="Helvetica,sans-Serif" font-size="10.00" fill="#63b8ff">1</text>
</a>
</g>
</g>
<!-- dir_0981ace215aa2029f526b70c145b9fbe -->
<g id="node7" class="node">
<title>dir_0981ace215aa2029f526b70c145b9fbe</title>
<g id="a_node7"><a xlink:href="dir_0981ace215aa2029f526b70c145b9fbe.html" target="_top" xlink:title="iop">
<polygon fill="#deebf9" stroke="red" points="332.5,-43 303.5,-43 303.5,-24 332.5,-24 332.5,-43"/>
<text text-anchor="middle" x="318" y="-31" font-family="Helvetica,sans-Serif" font-size="10.00">iop</text>
</a>
</g>
</g>
<!-- dir_a498588c2d5275b63f4912378b4fcc14&#45;&gt;dir_0981ace215aa2029f526b70c145b9fbe -->
<g id="edge5" class="edge">
<title>dir_a498588c2d5275b63f4912378b4fcc14&#45;&gt;dir_0981ace215aa2029f526b70c145b9fbe</title>
<path fill="none" stroke="#63b8ff" d="M54.36,-81.58C57.21,-80.62 60.17,-79.71 63,-79 161.46,-54.23 193.32,-69.74 291.95,-44.03"/>
<polygon fill="#63b8ff" stroke="#63b8ff" points="292.8,-47.43 301.54,-41.45 290.98,-40.67 292.8,-47.43"/>
<g id="a_edge5&#45;headlabel"><a xlink:href="dir_000249_000159.html" target="_top" xlink:title="5">
<text text-anchor="middle" x="291.53" y="-48.21" font-family="Helvetica,sans-Serif" font-size="10.00" fill="#63b8ff">5</text>
</a>
</g>
</g>
</g>
</svg>
