<?xml version="1.0" encoding="UTF-8" standalone="no"?>
<!DOCTYPE svg PUBLIC "-//W3C//DTD SVG 1.1//EN"
 "http://www.w3.org/Graphics/SVG/1.1/DTD/svg11.dtd">
<!-- Generated by graphviz version 7.0.5 (20221223.1930)
 -->
<!-- Title: iop/system/rmman Pages: 1 -->
<svg width="221pt" height="180pt"
 viewBox="0.00 0.00 220.50 180.00" xmlns="http://www.w3.org/2000/svg" xmlns:xlink="http://www.w3.org/1999/xlink">
<g id="graph0" class="graph" transform="scale(1 1) rotate(0) translate(4 176)">
<title>iop/system/rmman</title>
<g id="clust1" class="cluster">
<title>clusterdir_40ac35421bc63b72c26b6c69b1517fd6</title>
<g id="a_clust1"><a xlink:href="dir_40ac35421bc63b72c26b6c69b1517fd6.html" target="_top" xlink:title="system">
<polygon fill="#deebf9" stroke="#7f7f7f" stroke-dasharray="5,2" points="12.5,-39 12.5,-164 204.5,-164 204.5,-39 12.5,-39"/>
<text text-anchor="middle" x="108.5" y="-152" font-family="Helvetica,sans-Serif" font-size="10.00">system</text>
</a>
</g>
</g>
<g id="clust2" class="cluster">
<title>clusterdir_fe7329d8b89241d59f89f45fd75d2e77</title>
<g id="a_clust2"><a xlink:href="dir_fe7329d8b89241d59f89f45fd75d2e77.html" target="_top">
<polygon fill="#deebf9" stroke="#404040" stroke-width="2" points="20.5,-47 20.5,-137 132.5,-137 132.5,-47 20.5,-47"/>
</a>
</g>
</g>
<!-- dir_47d6ec5167f7ee6ef257538cbd6ee8bb -->
<g id="node1" class="node">
<title>dir_47d6ec5167f7ee6ef257538cbd6ee8bb</title>
<g id="a_node1"><a xlink:href="dir_47d6ec5167f7ee6ef257538cbd6ee8bb.html" target="_top" xlink:title="rsio2man">
<polygon fill="#60a2e3" stroke="red" points="196.5,-74 140.5,-74 140.5,-55 196.5,-55 196.5,-74"/>
<text text-anchor="middle" x="168.5" y="-62" font-family="Helvetica,sans-Serif" font-size="10.00">rsio2man</text>
</a>
</g>
</g>
<!-- dir_fe7329d8b89241d59f89f45fd75d2e77 -->
<g id="node2" class="node">
<title>dir_fe7329d8b89241d59f89f45fd75d2e77</title>
<text text-anchor="middle" x="100.5" y="-117" font-family="Helvetica,sans-Serif" font-size="10.00">rmman</text>
</g>
<!-- dir_ba0bf5790b75dbb76cd621ad13634675 -->
<g id="node3" class="node">
<title>dir_ba0bf5790b75dbb76cd621ad13634675</title>
<g id="a_node3"><a xlink:href="dir_ba0bf5790b75dbb76cd621ad13634675.html" target="_top" xlink:title="include">
<polygon fill="#60a2e3" stroke="#404040" points="97,-74 50,-74 50,-55 97,-55 97,-74"/>
<text text-anchor="middle" x="73.5" y="-62" font-family="Helvetica,sans-Serif" font-size="10.00">include</text>
</a>
</g>
</g>
<!-- dir_9be0baa3d4a3e9f480a9ee70594037fa -->
<g id="node5" class="node">
<title>dir_9be0baa3d4a3e9f480a9ee70594037fa</title>
<g id="a_node5"><a xlink:href="dir_9be0baa3d4a3e9f480a9ee70594037fa.html" target="_top" xlink:title="kernel">
<polygon fill="#deebf9" stroke="red" stroke-dasharray="5,2" points="43,-19 0,-19 0,0 43,0 43,-19"/>
<text text-anchor="middle" x="21.5" y="-7" font-family="Helvetica,sans-Serif" font-size="10.00">kernel</text>
</a>
</g>
</g>
<!-- dir_ba0bf5790b75dbb76cd621ad13634675&#45;&gt;dir_9be0baa3d4a3e9f480a9ee70594037fa -->
<g id="edge1" class="edge">
<title>dir_ba0bf5790b75dbb76cd621ad13634675&#45;&gt;dir_9be0baa3d4a3e9f480a9ee70594037fa</title>
<path fill="none" stroke="#63b8ff" d="M64.91,-54.75C57.66,-47.35 47.05,-36.54 38.13,-27.45"/>
<polygon fill="#63b8ff" stroke="#63b8ff" points="40.84,-25.21 31.33,-20.52 35.84,-30.11 40.84,-25.21"/>
<g id="a_edge1&#45;headlabel"><a xlink:href="dir_000142_000166.html" target="_top" xlink:title="1">
<text text-anchor="middle" x="44.32" y="-22.21" font-family="Helvetica,sans-Serif" font-size="10.00" fill="#63b8ff">1</text>
</a>
</g>
</g>
<!-- dir_bdd9a5d540de89e9fe90efdfc6973a4f -->
<g id="node6" class="node">
<title>dir_bdd9a5d540de89e9fe90efdfc6973a4f</title>
<g id="a_node6"><a xlink:href="dir_bdd9a5d540de89e9fe90efdfc6973a4f.html" target="_top" xlink:title="common">
<polygon fill="#deebf9" stroke="red" points="115.5,-19 61.5,-19 61.5,0 115.5,0 115.5,-19"/>
<text text-anchor="middle" x="88.5" y="-7" font-family="Helvetica,sans-Serif" font-size="10.00">common</text>
</a>
</g>
</g>
<!-- dir_ba0bf5790b75dbb76cd621ad13634675&#45;&gt;dir_bdd9a5d540de89e9fe90efdfc6973a4f -->
<g id="edge2" class="edge">
<title>dir_ba0bf5790b75dbb76cd621ad13634675&#45;&gt;dir_bdd9a5d540de89e9fe90efdfc6973a4f</title>
<path fill="none" stroke="#63b8ff" d="M75.98,-54.75C77.85,-48.11 80.51,-38.73 82.89,-30.31"/>
<polygon fill="#63b8ff" stroke="#63b8ff" points="86.2,-31.47 85.56,-20.9 79.47,-29.57 86.2,-31.47"/>
<g id="a_edge2&#45;headlabel"><a xlink:href="dir_000142_000024.html" target="_top" xlink:title="1">
<text text-anchor="middle" x="88.37" y="-31.75" font-family="Helvetica,sans-Serif" font-size="10.00" fill="#63b8ff">1</text>
</a>
</g>
</g>
<!-- dir_4b4edfc69082ccc9fa978b057a42ad24 -->
<g id="node4" class="node">
<title>dir_4b4edfc69082ccc9fa978b057a42ad24</title>
<g id="a_node4"><a xlink:href="dir_4b4edfc69082ccc9fa978b057a42ad24.html" target="_top" xlink:title="src">
<polygon fill="#60a2e3" stroke="#404040" points="58.5,-129 28.5,-129 28.5,-110 58.5,-110 58.5,-129"/>
<text text-anchor="middle" x="43.5" y="-117" font-family="Helvetica,sans-Serif" font-size="10.00">src</text>
</a>
</g>
</g>
<!-- dir_4b4edfc69082ccc9fa978b057a42ad24&#45;&gt;dir_47d6ec5167f7ee6ef257538cbd6ee8bb -->
<g id="edge3" class="edge">
<title>dir_4b4edfc69082ccc9fa978b057a42ad24&#45;&gt;dir_47d6ec5167f7ee6ef257538cbd6ee8bb</title>
<path fill="none" stroke="#63b8ff" d="M58.83,-112C78.25,-103.77 112.2,-89.37 137.2,-78.77"/>
<polygon fill="#63b8ff" stroke="#63b8ff" points="138.4,-82.07 146.24,-74.94 135.66,-75.62 138.4,-82.07"/>
<g id="a_edge3&#45;headlabel"><a xlink:href="dir_000340_000220.html" target="_top" xlink:title="2">
<text text-anchor="middle" x="137.59" y="-82.99" font-family="Helvetica,sans-Serif" font-size="10.00" fill="#63b8ff">2</text>
</a>
</g>
</g>
<!-- dir_4b4edfc69082ccc9fa978b057a42ad24&#45;&gt;dir_ba0bf5790b75dbb76cd621ad13634675 -->
<g id="edge5" class="edge">
<title>dir_4b4edfc69082ccc9fa978b057a42ad24&#45;&gt;dir_ba0bf5790b75dbb76cd621ad13634675</title>
<path fill="none" stroke="#63b8ff" d="M48.45,-109.75C52.34,-102.88 57.89,-93.08 62.78,-84.45"/>
<polygon fill="#63b8ff" stroke="#63b8ff" points="65.81,-86.19 67.69,-75.76 59.72,-82.74 65.81,-86.19"/>
<g id="a_edge5&#45;headlabel"><a xlink:href="dir_000340_000142.html" target="_top" xlink:title="1">
<text text-anchor="middle" x="67.26" y="-86.9" font-family="Helvetica,sans-Serif" font-size="10.00" fill="#63b8ff">1</text>
</a>
</g>
</g>
<!-- dir_4b4edfc69082ccc9fa978b057a42ad24&#45;&gt;dir_9be0baa3d4a3e9f480a9ee70594037fa -->
<g id="edge4" class="edge">
<title>dir_4b4edfc69082ccc9fa978b057a42ad24&#45;&gt;dir_9be0baa3d4a3e9f480a9ee70594037fa</title>
<path fill="none" stroke="#63b8ff" d="M41.7,-109.66C38.2,-92.5 30.41,-54.26 25.59,-30.6"/>
<polygon fill="#63b8ff" stroke="#63b8ff" points="29.05,-30.04 23.63,-20.94 22.19,-31.44 29.05,-30.04"/>
<g id="a_edge4&#45;headlabel"><a xlink:href="dir_000340_000166.html" target="_top" xlink:title="16">
<text text-anchor="middle" x="32.25" y="-29.02" font-family="Helvetica,sans-Serif" font-size="10.00" fill="#63b8ff">16</text>
</a>
</g>
</g>
</g>
</svg>
