<?xml version="1.0" encoding="UTF-8" standalone="no"?>
<!DOCTYPE svg PUBLIC "-//W3C//DTD SVG 1.1//EN"
 "http://www.w3.org/Graphics/SVG/1.1/DTD/svg11.dtd">
<!-- Generated by graphviz version 7.0.5 (20221223.1930)
 -->
<!-- Title: iop/iLink/IEEE1394_bd/src Pages: 1 -->
<svg width="190pt" height="125pt"
 viewBox="0.00 0.00 189.50 125.00" xmlns="http://www.w3.org/2000/svg" xmlns:xlink="http://www.w3.org/1999/xlink">
<g id="graph0" class="graph" transform="scale(1 1) rotate(0) translate(4 121)">
<title>iop/iLink/IEEE1394_bd/src</title>
<g id="clust1" class="cluster">
<title>clusterdir_3bc9c0aee413f19edf678d71a08ea153</title>
<g id="a_clust1"><a xlink:href="dir_3bc9c0aee413f19edf678d71a08ea153.html" target="_top" xlink:title="IEEE1394_bd">
<polygon fill="#deebf9" stroke="#7f7f7f" stroke-dasharray="5,2" points="8,-39 8,-109 136,-109 136,-39 8,-39"/>
<text text-anchor="middle" x="72" y="-97" font-family="Helvetica,sans-Serif" font-size="10.00">IEEE1394_bd</text>
</a>
</g>
</g>
<g id="clust2" class="cluster">
<title>clusterdir_fc80c3c91208c3ad5a3a0585da287820</title>
<g id="a_clust2"><a xlink:href="dir_fc80c3c91208c3ad5a3a0585da287820.html" target="_top">
<polygon fill="#deebf9" stroke="#404040" stroke-width="2" points="16,-47 16,-82 128,-82 128,-47 16,-47"/>
</a>
</g>
</g>
<!-- dir_fc80c3c91208c3ad5a3a0585da287820 -->
<g id="node1" class="node">
<title>dir_fc80c3c91208c3ad5a3a0585da287820</title>
<text text-anchor="middle" x="105" y="-62" font-family="Helvetica,sans-Serif" font-size="10.00">src</text>
</g>
<!-- dir_9be0baa3d4a3e9f480a9ee70594037fa -->
<g id="node3" class="node">
<title>dir_9be0baa3d4a3e9f480a9ee70594037fa</title>
<g id="a_node3"><a xlink:href="dir_9be0baa3d4a3e9f480a9ee70594037fa.html" target="_top" xlink:title="kernel">
<polygon fill="#deebf9" stroke="red" stroke-dasharray="5,2" points="181.5,-19 138.5,-19 138.5,0 181.5,0 181.5,-19"/>
<text text-anchor="middle" x="160" y="-7" font-family="Helvetica,sans-Serif" font-size="10.00">kernel</text>
</a>
</g>
</g>
<!-- dir_fc80c3c91208c3ad5a3a0585da287820&#45;&gt;dir_9be0baa3d4a3e9f480a9ee70594037fa -->
<g id="edge1" class="edge">
<title>dir_fc80c3c91208c3ad5a3a0585da287820&#45;&gt;dir_9be0baa3d4a3e9f480a9ee70594037fa</title>
<path fill="none" stroke="#63b8ff" d="M113.59,-55.22C121.37,-47.73 133.04,-36.48 142.74,-27.13"/>
<polygon fill="#63b8ff" stroke="#63b8ff" points="145.06,-29.76 149.83,-20.3 140.2,-24.72 145.06,-29.76"/>
<g id="a_edge1&#45;headlabel"><a xlink:href="dir_000317_000166.html" target="_top" xlink:title="24">
<text text-anchor="middle" x="145.53" y="-30.75" font-family="Helvetica,sans-Serif" font-size="10.00" fill="#63b8ff">24</text>
</a>
</g>
</g>
<!-- dir_bdd9a5d540de89e9fe90efdfc6973a4f -->
<g id="node4" class="node">
<title>dir_bdd9a5d540de89e9fe90efdfc6973a4f</title>
<g id="a_node4"><a xlink:href="dir_bdd9a5d540de89e9fe90efdfc6973a4f.html" target="_top" xlink:title="common">
<polygon fill="#deebf9" stroke="red" points="73,-19 19,-19 19,0 73,0 73,-19"/>
<text text-anchor="middle" x="46" y="-7" font-family="Helvetica,sans-Serif" font-size="10.00">common</text>
</a>
</g>
</g>
<!-- dir_fc80c3c91208c3ad5a3a0585da287820&#45;&gt;dir_bdd9a5d540de89e9fe90efdfc6973a4f -->
<g id="edge2" class="edge">
<title>dir_fc80c3c91208c3ad5a3a0585da287820&#45;&gt;dir_bdd9a5d540de89e9fe90efdfc6973a4f</title>
<path fill="none" stroke="#63b8ff" d="M97.22,-55.1C92.63,-50.26 86.63,-44.14 81,-39 76.41,-34.82 71.31,-30.49 66.46,-26.52"/>
<polygon fill="#63b8ff" stroke="#63b8ff" points="68.79,-23.9 58.8,-20.37 64.41,-29.36 68.79,-23.9"/>
<g id="a_edge2&#45;headlabel"><a xlink:href="dir_000317_000024.html" target="_top" xlink:title="3">
<text text-anchor="middle" x="72.19" y="-20.49" font-family="Helvetica,sans-Serif" font-size="10.00" fill="#63b8ff">3</text>
</a>
</g>
</g>
<!-- dir_f24daea2522ffa8b6dc5fa9cdf5b8f5c -->
<g id="node5" class="node">
<title>dir_f24daea2522ffa8b6dc5fa9cdf5b8f5c</title>
<g id="a_node5"><a xlink:href="dir_f24daea2522ffa8b6dc5fa9cdf5b8f5c.html" target="_top" xlink:title="fs">
<polygon fill="#deebf9" stroke="red" stroke-dasharray="5,2" points="120.5,-19 91.5,-19 91.5,0 120.5,0 120.5,-19"/>
<text text-anchor="middle" x="106" y="-7" font-family="Helvetica,sans-Serif" font-size="10.00">fs</text>
</a>
</g>
</g>
<!-- dir_fc80c3c91208c3ad5a3a0585da287820&#45;&gt;dir_f24daea2522ffa8b6dc5fa9cdf5b8f5c -->
<g id="edge3" class="edge">
<title>dir_fc80c3c91208c3ad5a3a0585da287820&#45;&gt;dir_f24daea2522ffa8b6dc5fa9cdf5b8f5c</title>
<path fill="none" stroke="#63b8ff" d="M105.16,-55.22C105.28,-48.65 105.46,-39.18 105.62,-30.64"/>
<polygon fill="#63b8ff" stroke="#63b8ff" points="109.12,-30.83 105.81,-20.77 102.12,-30.7 109.12,-30.83"/>
<g id="a_edge3&#45;headlabel"><a xlink:href="dir_000317_000054.html" target="_top" xlink:title="2">
<text text-anchor="middle" x="111.92" y="-30.46" font-family="Helvetica,sans-Serif" font-size="10.00" fill="#63b8ff">2</text>
</a>
</g>
</g>
<!-- dir_59876a643fc90dc01f8619910869c249 -->
<g id="node2" class="node">
<title>dir_59876a643fc90dc01f8619910869c249</title>
<g id="a_node2"><a xlink:href="dir_59876a643fc90dc01f8619910869c249.html" target="_top" xlink:title="include">
<polygon fill="#60a2e3" stroke="#404040" points="71.5,-74 24.5,-74 24.5,-55 71.5,-55 71.5,-74"/>
<text text-anchor="middle" x="48" y="-62" font-family="Helvetica,sans-Serif" font-size="10.00">include</text>
</a>
</g>
</g>
<!-- dir_59876a643fc90dc01f8619910869c249&#45;&gt;dir_bdd9a5d540de89e9fe90efdfc6973a4f -->
<g id="edge4" class="edge">
<title>dir_59876a643fc90dc01f8619910869c249&#45;&gt;dir_bdd9a5d540de89e9fe90efdfc6973a4f</title>
<path fill="none" stroke="#63b8ff" d="M47.67,-54.75C47.43,-48.27 47.08,-39.16 46.77,-30.9"/>
<polygon fill="#63b8ff" stroke="#63b8ff" points="50.27,-30.82 46.39,-20.95 43.27,-31.08 50.27,-30.82"/>
<g id="a_edge4&#45;headlabel"><a xlink:href="dir_000126_000024.html" target="_top" xlink:title="1">
<text text-anchor="middle" x="53.18" y="-30.29" font-family="Helvetica,sans-Serif" font-size="10.00" fill="#63b8ff">1</text>
</a>
</g>
</g>
</g>
</svg>
