<?xml version="1.0" encoding="UTF-8" standalone="no"?>
<!DOCTYPE svg PUBLIC "-//W3C//DTD SVG 1.1//EN"
 "http://www.w3.org/Graphics/SVG/1.1/DTD/svg11.dtd">
<!-- Generated by graphviz version 7.0.5 (20221223.1930)
 -->
<!-- Title: iop/hdd/libapa/src Pages: 1 -->
<svg width="180pt" height="117pt"
 viewBox="0.00 0.00 180.00 117.00" xmlns="http://www.w3.org/2000/svg" xmlns:xlink="http://www.w3.org/1999/xlink">
<g id="graph0" class="graph" transform="scale(1 1) rotate(0) translate(4 113)">
<title>iop/hdd/libapa/src</title>
<g id="clust1" class="cluster">
<title>clusterdir_74c6a9c949eb32128aa5a6adc613f35b</title>
<g id="a_clust1"><a xlink:href="dir_74c6a9c949eb32128aa5a6adc613f35b.html" target="_top" xlink:title="libapa">
<polygon fill="#deebf9" stroke="#7f7f7f" stroke-dasharray="5,2" points="55,-47 55,-101 101,-101 101,-47 55,-47"/>
<text text-anchor="middle" x="78" y="-89" font-family="Helvetica,sans-Serif" font-size="10.00">libapa</text>
</a>
</g>
</g>
<!-- dir_d55f23d8ba757b23ee1ce2ded4afdb2b -->
<g id="node1" class="node">
<title>dir_d55f23d8ba757b23ee1ce2ded4afdb2b</title>
<g id="a_node1"><a xlink:href="dir_d55f23d8ba757b23ee1ce2ded4afdb2b.html" target="_top" xlink:title="src">
<polygon fill="#deebf9" stroke="#404040" stroke-width="2" points="93,-74 63,-74 63,-55 93,-55 93,-74"/>
<text text-anchor="middle" x="78" y="-62" font-family="Helvetica,sans-Serif" font-size="10.00">src</text>
</a>
</g>
</g>
<!-- dir_6f16cad81de2453a6f48c5e272ba4a18 -->
<g id="node2" class="node">
<title>dir_6f16cad81de2453a6f48c5e272ba4a18</title>
<g id="a_node2"><a xlink:href="dir_6f16cad81de2453a6f48c5e272ba4a18.html" target="_top" xlink:title="dev9">
<polygon fill="#deebf9" stroke="red" stroke-dasharray="5,2" points="38,-19 0,-19 0,0 38,0 38,-19"/>
<text text-anchor="middle" x="19" y="-7" font-family="Helvetica,sans-Serif" font-size="10.00">dev9</text>
</a>
</g>
</g>
<!-- dir_d55f23d8ba757b23ee1ce2ded4afdb2b&#45;&gt;dir_6f16cad81de2453a6f48c5e272ba4a18 -->
<g id="edge1" class="edge">
<title>dir_d55f23d8ba757b23ee1ce2ded4afdb2b&#45;&gt;dir_6f16cad81de2453a6f48c5e272ba4a18</title>
<path fill="none" stroke="#63b8ff" d="M67.99,-54.51C59.63,-47 47.5,-36.1 37.4,-27.03"/>
<polygon fill="#63b8ff" stroke="#63b8ff" points="39.76,-24.45 29.99,-20.37 35.09,-29.66 39.76,-24.45"/>
<g id="a_edge1&#45;headlabel"><a xlink:href="dir_000314_000028.html" target="_top" xlink:title="4">
<text text-anchor="middle" x="43.21" y="-21.23" font-family="Helvetica,sans-Serif" font-size="10.00" fill="#63b8ff">4</text>
</a>
</g>
</g>
<!-- dir_9be0baa3d4a3e9f480a9ee70594037fa -->
<g id="node3" class="node">
<title>dir_9be0baa3d4a3e9f480a9ee70594037fa</title>
<g id="a_node3"><a xlink:href="dir_9be0baa3d4a3e9f480a9ee70594037fa.html" target="_top" xlink:title="kernel">
<polygon fill="#deebf9" stroke="red" stroke-dasharray="5,2" points="99.5,-19 56.5,-19 56.5,0 99.5,0 99.5,-19"/>
<text text-anchor="middle" x="78" y="-7" font-family="Helvetica,sans-Serif" font-size="10.00">kernel</text>
</a>
</g>
</g>
<!-- dir_d55f23d8ba757b23ee1ce2ded4afdb2b&#45;&gt;dir_9be0baa3d4a3e9f480a9ee70594037fa -->
<g id="edge2" class="edge">
<title>dir_d55f23d8ba757b23ee1ce2ded4afdb2b&#45;&gt;dir_9be0baa3d4a3e9f480a9ee70594037fa</title>
<path fill="none" stroke="#63b8ff" d="M78,-54.75C78,-48.27 78,-39.16 78,-30.9"/>
<polygon fill="#63b8ff" stroke="#63b8ff" points="81.5,-30.96 78,-20.96 74.5,-30.96 81.5,-30.96"/>
<g id="a_edge2&#45;headlabel"><a xlink:href="dir_000314_000166.html" target="_top" xlink:title="13">
<text text-anchor="middle" x="84.34" y="-30.54" font-family="Helvetica,sans-Serif" font-size="10.00" fill="#63b8ff">13</text>
</a>
</g>
</g>
<!-- dir_bdd9a5d540de89e9fe90efdfc6973a4f -->
<g id="node4" class="node">
<title>dir_bdd9a5d540de89e9fe90efdfc6973a4f</title>
<g id="a_node4"><a xlink:href="dir_bdd9a5d540de89e9fe90efdfc6973a4f.html" target="_top" xlink:title="common">
<polygon fill="#deebf9" stroke="red" points="172,-19 118,-19 118,0 172,0 172,-19"/>
<text text-anchor="middle" x="145" y="-7" font-family="Helvetica,sans-Serif" font-size="10.00">common</text>
</a>
</g>
</g>
<!-- dir_d55f23d8ba757b23ee1ce2ded4afdb2b&#45;&gt;dir_bdd9a5d540de89e9fe90efdfc6973a4f -->
<g id="edge3" class="edge">
<title>dir_d55f23d8ba757b23ee1ce2ded4afdb2b&#45;&gt;dir_bdd9a5d540de89e9fe90efdfc6973a4f</title>
<path fill="none" stroke="#63b8ff" d="M89.37,-54.51C99.05,-46.85 113.2,-35.66 124.81,-26.47"/>
<polygon fill="#63b8ff" stroke="#63b8ff" points="126.94,-29.25 132.62,-20.3 122.6,-23.76 126.94,-29.25"/>
<g id="a_edge3&#45;headlabel"><a xlink:href="dir_000314_000024.html" target="_top" xlink:title="12">
<text text-anchor="middle" x="127.07" y="-30.26" font-family="Helvetica,sans-Serif" font-size="10.00" fill="#63b8ff">12</text>
</a>
</g>
</g>
</g>
</svg>
