<?xml version="1.0" encoding="UTF-8" standalone="no"?>
<!DOCTYPE svg PUBLIC "-//W3C//DTD SVG 1.1//EN"
 "http://www.w3.org/Graphics/SVG/1.1/DTD/svg11.dtd">
<!-- Generated by graphviz version 7.0.5 (20221223.1930)
 -->
<!-- Title: iop/network/smap Pages: 1 -->
<svg width="212pt" height="125pt"
 viewBox="0.00 0.00 212.00 125.00" xmlns="http://www.w3.org/2000/svg" xmlns:xlink="http://www.w3.org/1999/xlink">
<g id="graph0" class="graph" transform="scale(1 1) rotate(0) translate(4 121)">
<title>iop/network/smap</title>
<g id="clust1" class="cluster">
<title>clusterdir_f89050b4b7ba0179c2c7efd2300413d9</title>
<g id="a_clust1"><a xlink:href="dir_f89050b4b7ba0179c2c7efd2300413d9.html" target="_top" xlink:title="network">
<polygon fill="#deebf9" stroke="#7f7f7f" stroke-dasharray="5,2" points="8,-39 8,-109 196,-109 196,-39 8,-39"/>
<text text-anchor="middle" x="102" y="-97" font-family="Helvetica,sans-Serif" font-size="10.00">network</text>
</a>
</g>
</g>
<g id="clust2" class="cluster">
<title>clusterdir_7e8098252786d103c47acfa14c0859f4</title>
<g id="a_clust2"><a xlink:href="dir_7e8098252786d103c47acfa14c0859f4.html" target="_top">
<polygon fill="#deebf9" stroke="#404040" stroke-width="2" points="16,-47 16,-82 188,-82 188,-47 16,-47"/>
</a>
</g>
</g>
<!-- dir_7e8098252786d103c47acfa14c0859f4 -->
<g id="node1" class="node">
<title>dir_7e8098252786d103c47acfa14c0859f4</title>
<text text-anchor="middle" x="159" y="-62" font-family="Helvetica,sans-Serif" font-size="10.00">smap</text>
</g>
<!-- dir_77f726fe8e3a252d97c01a812608e9e2 -->
<g id="node2" class="node">
<title>dir_77f726fe8e3a252d97c01a812608e9e2</title>
<g id="a_node2"><a xlink:href="dir_77f726fe8e3a252d97c01a812608e9e2.html" target="_top" xlink:title="include">
<polygon fill="#60a2e3" stroke="#404040" points="71.5,-74 24.5,-74 24.5,-55 71.5,-55 71.5,-74"/>
<text text-anchor="middle" x="48" y="-62" font-family="Helvetica,sans-Serif" font-size="10.00">include</text>
</a>
</g>
</g>
<!-- dir_bdd9a5d540de89e9fe90efdfc6973a4f -->
<g id="node6" class="node">
<title>dir_bdd9a5d540de89e9fe90efdfc6973a4f</title>
<g id="a_node6"><a xlink:href="dir_bdd9a5d540de89e9fe90efdfc6973a4f.html" target="_top" xlink:title="common">
<polygon fill="#deebf9" stroke="red" points="71,-19 17,-19 17,0 71,0 71,-19"/>
<text text-anchor="middle" x="44" y="-7" font-family="Helvetica,sans-Serif" font-size="10.00">common</text>
</a>
</g>
</g>
<!-- dir_77f726fe8e3a252d97c01a812608e9e2&#45;&gt;dir_bdd9a5d540de89e9fe90efdfc6973a4f -->
<g id="edge1" class="edge">
<title>dir_77f726fe8e3a252d97c01a812608e9e2&#45;&gt;dir_bdd9a5d540de89e9fe90efdfc6973a4f</title>
<path fill="none" stroke="#63b8ff" d="M47.34,-54.75C46.85,-48.27 46.16,-39.16 45.54,-30.9"/>
<polygon fill="#63b8ff" stroke="#63b8ff" points="49.03,-30.66 44.79,-20.95 42.05,-31.19 49.03,-30.66"/>
<g id="a_edge1&#45;headlabel"><a xlink:href="dir_000133_000024.html" target="_top" xlink:title="1">
<text text-anchor="middle" x="52.02" y="-30.02" font-family="Helvetica,sans-Serif" font-size="10.00" fill="#63b8ff">1</text>
</a>
</g>
</g>
<!-- dir_f38af649c18175eef64498f7ded53ff0 -->
<g id="node3" class="node">
<title>dir_f38af649c18175eef64498f7ded53ff0</title>
<g id="a_node3"><a xlink:href="dir_f38af649c18175eef64498f7ded53ff0.html" target="_top" xlink:title="src">
<polygon fill="#60a2e3" stroke="#404040" points="120,-74 90,-74 90,-55 120,-55 120,-74"/>
<text text-anchor="middle" x="105" y="-62" font-family="Helvetica,sans-Serif" font-size="10.00">src</text>
</a>
</g>
</g>
<!-- dir_6f16cad81de2453a6f48c5e272ba4a18 -->
<g id="node4" class="node">
<title>dir_6f16cad81de2453a6f48c5e272ba4a18</title>
<g id="a_node4"><a xlink:href="dir_6f16cad81de2453a6f48c5e272ba4a18.html" target="_top" xlink:title="dev9">
<polygon fill="#deebf9" stroke="red" stroke-dasharray="5,2" points="127,-19 89,-19 89,0 127,0 127,-19"/>
<text text-anchor="middle" x="108" y="-7" font-family="Helvetica,sans-Serif" font-size="10.00">dev9</text>
</a>
</g>
</g>
<!-- dir_f38af649c18175eef64498f7ded53ff0&#45;&gt;dir_6f16cad81de2453a6f48c5e272ba4a18 -->
<g id="edge2" class="edge">
<title>dir_f38af649c18175eef64498f7ded53ff0&#45;&gt;dir_6f16cad81de2453a6f48c5e272ba4a18</title>
<path fill="none" stroke="#63b8ff" d="M105.5,-54.75C105.86,-48.27 106.38,-39.16 106.85,-30.9"/>
<polygon fill="#63b8ff" stroke="#63b8ff" points="110.34,-31.13 107.41,-20.95 103.35,-30.74 110.34,-31.13"/>
<g id="a_edge2&#45;headlabel"><a xlink:href="dir_000323_000028.html" target="_top" xlink:title="3">
<text text-anchor="middle" x="113.05" y="-30.87" font-family="Helvetica,sans-Serif" font-size="10.00" fill="#63b8ff">3</text>
</a>
</g>
</g>
<!-- dir_9be0baa3d4a3e9f480a9ee70594037fa -->
<g id="node5" class="node">
<title>dir_9be0baa3d4a3e9f480a9ee70594037fa</title>
<g id="a_node5"><a xlink:href="dir_9be0baa3d4a3e9f480a9ee70594037fa.html" target="_top" xlink:title="kernel">
<polygon fill="#deebf9" stroke="red" stroke-dasharray="5,2" points="188.5,-19 145.5,-19 145.5,0 188.5,0 188.5,-19"/>
<text text-anchor="middle" x="167" y="-7" font-family="Helvetica,sans-Serif" font-size="10.00">kernel</text>
</a>
</g>
</g>
<!-- dir_f38af649c18175eef64498f7ded53ff0&#45;&gt;dir_9be0baa3d4a3e9f480a9ee70594037fa -->
<g id="edge3" class="edge">
<title>dir_f38af649c18175eef64498f7ded53ff0&#45;&gt;dir_9be0baa3d4a3e9f480a9ee70594037fa</title>
<path fill="none" stroke="#63b8ff" d="M113.55,-54.62C118.27,-49.85 124.31,-43.95 130,-39 134.97,-34.68 140.51,-30.23 145.76,-26.17"/>
<polygon fill="#63b8ff" stroke="#63b8ff" points="147.65,-29.13 153.51,-20.3 143.42,-23.55 147.65,-29.13"/>
<g id="a_edge3&#45;headlabel"><a xlink:href="dir_000323_000166.html" target="_top" xlink:title="32">
<text text-anchor="middle" x="147.7" y="-30.15" font-family="Helvetica,sans-Serif" font-size="10.00" fill="#63b8ff">32</text>
</a>
</g>
</g>
<!-- dir_f38af649c18175eef64498f7ded53ff0&#45;&gt;dir_bdd9a5d540de89e9fe90efdfc6973a4f -->
<g id="edge4" class="edge">
<title>dir_f38af649c18175eef64498f7ded53ff0&#45;&gt;dir_bdd9a5d540de89e9fe90efdfc6973a4f</title>
<path fill="none" stroke="#63b8ff" d="M96.84,-54.59C92.32,-49.8 86.52,-43.9 81,-39 76.07,-34.63 70.55,-30.16 65.3,-26.1"/>
<polygon fill="#63b8ff" stroke="#63b8ff" points="67.64,-23.48 57.55,-20.24 63.42,-29.06 67.64,-23.48"/>
<g id="a_edge4&#45;headlabel"><a xlink:href="dir_000323_000024.html" target="_top" xlink:title="6">
<text text-anchor="middle" x="71.01" y="-19.96" font-family="Helvetica,sans-Serif" font-size="10.00" fill="#63b8ff">6</text>
</a>
</g>
</g>
</g>
</svg>
