<?xml version="1.0" encoding="UTF-8" standalone="no"?>
<!DOCTYPE svg PUBLIC "-//W3C//DTD SVG 1.1//EN"
 "http://www.w3.org/Graphics/SVG/1.1/DTD/svg11.dtd">
<!-- Generated by graphviz version 7.0.5 (20221223.1930)
 -->
<!-- Title: iop/sio/mx4sio_bd Pages: 1 -->
<svg width="237pt" height="125pt"
 viewBox="0.00 0.00 236.50 125.00" xmlns="http://www.w3.org/2000/svg" xmlns:xlink="http://www.w3.org/1999/xlink">
<g id="graph0" class="graph" transform="scale(1 1) rotate(0) translate(4 121)">
<title>iop/sio/mx4sio_bd</title>
<g id="clust1" class="cluster">
<title>clusterdir_6133ef156cce03413acfdeebec722ba1</title>
<g id="a_clust1"><a xlink:href="dir_6133ef156cce03413acfdeebec722ba1.html" target="_top" xlink:title="sio">
<polygon fill="#deebf9" stroke="#7f7f7f" stroke-dasharray="5,2" points="72.5,-39 72.5,-109 216.5,-109 216.5,-39 72.5,-39"/>
<text text-anchor="middle" x="144.5" y="-97" font-family="Helvetica,sans-Serif" font-size="10.00">sio</text>
</a>
</g>
</g>
<g id="clust2" class="cluster">
<title>clusterdir_1b4c53ad4cba67b900d09766188e54d5</title>
<g id="a_clust2"><a xlink:href="dir_1b4c53ad4cba67b900d09766188e54d5.html" target="_top">
<polygon fill="#deebf9" stroke="#404040" stroke-width="2" points="80.5,-47 80.5,-82 208.5,-82 208.5,-47 80.5,-47"/>
</a>
</g>
</g>
<!-- dir_1b4c53ad4cba67b900d09766188e54d5 -->
<g id="node1" class="node">
<title>dir_1b4c53ad4cba67b900d09766188e54d5</title>
<text text-anchor="middle" x="168.5" y="-62" font-family="Helvetica,sans-Serif" font-size="10.00">mx4sio_bd</text>
</g>
<!-- dir_8f4cc36d3d091528309542afe6a411b5 -->
<g id="node2" class="node">
<title>dir_8f4cc36d3d091528309542afe6a411b5</title>
<g id="a_node2"><a xlink:href="dir_8f4cc36d3d091528309542afe6a411b5.html" target="_top" xlink:title="src">
<polygon fill="#60a2e3" stroke="#404040" points="118.5,-74 88.5,-74 88.5,-55 118.5,-55 118.5,-74"/>
<text text-anchor="middle" x="103.5" y="-62" font-family="Helvetica,sans-Serif" font-size="10.00">src</text>
</a>
</g>
</g>
<!-- dir_9be0baa3d4a3e9f480a9ee70594037fa -->
<g id="node3" class="node">
<title>dir_9be0baa3d4a3e9f480a9ee70594037fa</title>
<g id="a_node3"><a xlink:href="dir_9be0baa3d4a3e9f480a9ee70594037fa.html" target="_top" xlink:title="kernel">
<polygon fill="#deebf9" stroke="red" stroke-dasharray="5,2" points="43,-19 0,-19 0,0 43,0 43,-19"/>
<text text-anchor="middle" x="21.5" y="-7" font-family="Helvetica,sans-Serif" font-size="10.00">kernel</text>
</a>
</g>
</g>
<!-- dir_8f4cc36d3d091528309542afe6a411b5&#45;&gt;dir_9be0baa3d4a3e9f480a9ee70594037fa -->
<g id="edge2" class="edge">
<title>dir_8f4cc36d3d091528309542afe6a411b5&#45;&gt;dir_9be0baa3d4a3e9f480a9ee70594037fa</title>
<path fill="none" stroke="#63b8ff" d="M89.59,-54.51C77.26,-46.54 59.03,-34.75 44.53,-25.38"/>
<polygon fill="#63b8ff" stroke="#63b8ff" points="46.77,-22.67 36.48,-20.18 42.97,-28.55 46.77,-22.67"/>
<g id="a_edge2&#45;headlabel"><a xlink:href="dir_000328_000166.html" target="_top" xlink:title="23">
<text text-anchor="middle" x="50.06" y="-18.91" font-family="Helvetica,sans-Serif" font-size="10.00" fill="#63b8ff">23</text>
</a>
</g>
</g>
<!-- dir_f24daea2522ffa8b6dc5fa9cdf5b8f5c -->
<g id="node4" class="node">
<title>dir_f24daea2522ffa8b6dc5fa9cdf5b8f5c</title>
<g id="a_node4"><a xlink:href="dir_f24daea2522ffa8b6dc5fa9cdf5b8f5c.html" target="_top" xlink:title="fs">
<polygon fill="#deebf9" stroke="red" stroke-dasharray="5,2" points="90,-19 61,-19 61,0 90,0 90,-19"/>
<text text-anchor="middle" x="75.5" y="-7" font-family="Helvetica,sans-Serif" font-size="10.00">fs</text>
</a>
</g>
</g>
<!-- dir_8f4cc36d3d091528309542afe6a411b5&#45;&gt;dir_f24daea2522ffa8b6dc5fa9cdf5b8f5c -->
<g id="edge4" class="edge">
<title>dir_8f4cc36d3d091528309542afe6a411b5&#45;&gt;dir_f24daea2522ffa8b6dc5fa9cdf5b8f5c</title>
<path fill="none" stroke="#63b8ff" d="M98.88,-54.75C95.25,-47.88 90.07,-38.08 85.51,-29.45"/>
<polygon fill="#63b8ff" stroke="#63b8ff" points="88.7,-27.99 80.93,-20.78 82.51,-31.26 88.7,-27.99"/>
<g id="a_edge4&#45;headlabel"><a xlink:href="dir_000328_000054.html" target="_top" xlink:title="2">
<text text-anchor="middle" x="92.18" y="-26" font-family="Helvetica,sans-Serif" font-size="10.00" fill="#63b8ff">2</text>
</a>
</g>
</g>
<!-- dir_40ac35421bc63b72c26b6c69b1517fd6 -->
<g id="node5" class="node">
<title>dir_40ac35421bc63b72c26b6c69b1517fd6</title>
<g id="a_node5"><a xlink:href="dir_40ac35421bc63b72c26b6c69b1517fd6.html" target="_top" xlink:title="system">
<polygon fill="#deebf9" stroke="red" stroke-dasharray="5,2" points="156.5,-19 108.5,-19 108.5,0 156.5,0 156.5,-19"/>
<text text-anchor="middle" x="132.5" y="-7" font-family="Helvetica,sans-Serif" font-size="10.00">system</text>
</a>
</g>
</g>
<!-- dir_8f4cc36d3d091528309542afe6a411b5&#45;&gt;dir_40ac35421bc63b72c26b6c69b1517fd6 -->
<g id="edge1" class="edge">
<title>dir_8f4cc36d3d091528309542afe6a411b5&#45;&gt;dir_40ac35421bc63b72c26b6c69b1517fd6</title>
<path fill="none" stroke="#63b8ff" d="M108.29,-54.75C112.04,-47.88 117.41,-38.08 122.13,-29.45"/>
<polygon fill="#63b8ff" stroke="#63b8ff" points="125.15,-31.22 126.88,-20.77 119.01,-27.86 125.15,-31.22"/>
<g id="a_edge1&#45;headlabel"><a xlink:href="dir_000328_000371.html" target="_top" xlink:title="1">
<text text-anchor="middle" x="126.64" y="-31.91" font-family="Helvetica,sans-Serif" font-size="10.00" fill="#63b8ff">1</text>
</a>
</g>
</g>
<!-- dir_bdd9a5d540de89e9fe90efdfc6973a4f -->
<g id="node6" class="node">
<title>dir_bdd9a5d540de89e9fe90efdfc6973a4f</title>
<g id="a_node6"><a xlink:href="dir_bdd9a5d540de89e9fe90efdfc6973a4f.html" target="_top" xlink:title="common">
<polygon fill="#deebf9" stroke="red" points="228.5,-19 174.5,-19 174.5,0 228.5,0 228.5,-19"/>
<text text-anchor="middle" x="201.5" y="-7" font-family="Helvetica,sans-Serif" font-size="10.00">common</text>
</a>
</g>
</g>
<!-- dir_8f4cc36d3d091528309542afe6a411b5&#45;&gt;dir_bdd9a5d540de89e9fe90efdfc6973a4f -->
<g id="edge3" class="edge">
<title>dir_8f4cc36d3d091528309542afe6a411b5&#45;&gt;dir_bdd9a5d540de89e9fe90efdfc6973a4f</title>
<path fill="none" stroke="#63b8ff" d="M110.67,-54.89C115.33,-49.73 121.76,-43.35 128.5,-39 139.15,-32.12 151.72,-26.47 163.41,-22.07"/>
<polygon fill="#63b8ff" stroke="#63b8ff" points="164.56,-25.37 172.82,-18.73 162.22,-18.77 164.56,-25.37"/>
<g id="a_edge3&#45;headlabel"><a xlink:href="dir_000328_000024.html" target="_top" xlink:title="2">
<text text-anchor="middle" x="163.54" y="-26.24" font-family="Helvetica,sans-Serif" font-size="10.00" fill="#63b8ff">2</text>
</a>
</g>
</g>
</g>
</svg>
