<?xml version="1.0" encoding="UTF-8" standalone="no"?>
<!DOCTYPE svg PUBLIC "-//W3C//DTD SVG 1.1//EN"
 "http://www.w3.org/Graphics/SVG/1.1/DTD/svg11.dtd">
<!-- Generated by graphviz version 7.0.5 (20221223.1930)
 -->
<!-- Title: iop/fs Pages: 1 -->
<!--zoomable 235 -->
<svg id="main" version="1.1" xmlns="http://www.w3.org/2000/svg" xmlns:xlink="http://www.w3.org/1999/xlink" xml:space="preserve" onload="init(evt)">
<style type="text/css"><![CDATA[
.edge:hover path { stroke: red; }
.edge:hover polygon { stroke: red; fill: red; }
]]></style>
<script type="text/javascript"><![CDATA[
var edges = document.getElementsByTagName('g');
if (edges && edges.length) {
  for (var i=0;i<edges.length;i++) {
    if (edges[i].id.substr(0,4)=='edge') {
      edges[i].setAttribute('class','edge');
    }
  }
}
]]></script>
        <defs>
                <circle id="rim" cx="0" cy="0" r="7"/>
                <circle id="rim2" cx="0" cy="0" r="3.5"/>
                <g id="zoomPlus">
                        <use xlink:href="#rim" fill="#404040">
                                <set attributeName="fill" to="#808080" begin="zoomplus.mouseover" end="zoomplus.mouseout"/>
                        </use>
                        <path d="M-4,0h8M0,-4v8" fill="none" stroke="white" stroke-width="1.5" pointer-events="none"/>
                </g>
                <g id="zoomMin">
                        <use xlink:href="#rim" fill="#404040">
                                <set attributeName="fill" to="#808080" begin="zoomminus.mouseover" end="zoomminus.mouseout"/>
                        </use>
                        <path d="M-4,0h8" fill="none" stroke="white" stroke-width="1.5" pointer-events="none"/>
                </g>
                <g id="dirArrow">
                        <path fill="none" stroke="white" stroke-width="1.5" d="M0,-3.0v7 M-2.5,-0.5L0,-3.0L2.5,-0.5"/>
                </g>
               <g id="resetDef">
                       <use xlink:href="#rim2" fill="#404040">
                               <set attributeName="fill" to="#808080" begin="reset.mouseover" end="reset.mouseout"/>
                       </use>
               </g>
        </defs>

<script type="text/javascript">
var viewWidth = 1013;
var viewHeight = 235;
var sectionId = 'dynsection-0';
</script>
<script xlink:href="svgpan.js"/>
<svg id="graph" class="graph">
<g id="viewport">
<title>iop/fs</title>
<g id="clust1" class="cluster">
<title>clusterdir_0981ace215aa2029f526b70c145b9fbe</title>
<g id="a_clust1"><a xlink:href="dir_0981ace215aa2029f526b70c145b9fbe.html" target="_top" xlink:title="iop">
<polygon fill="#deebf9" stroke="#404040" stroke-dasharray="5,2" points="8,-39 8,-219 838,-219 838,-39 8,-39"/>
<text text-anchor="middle" x="423" y="-207" font-family="Helvetica,sans-Serif" font-size="10.00">iop</text>
</a>
</g>
</g>
<g id="clust2" class="cluster">
<title>clusterdir_f24daea2522ffa8b6dc5fa9cdf5b8f5c</title>
<g id="a_clust2"><a xlink:href="dir_f24daea2522ffa8b6dc5fa9cdf5b8f5c.html" target="_top">
<polygon fill="#deebf9" stroke="#404040" stroke-width="2" points="68,-47 68,-192 774,-192 774,-47 68,-47"/>
</a>
</g>
</g>
<!-- dir_9be0baa3d4a3e9f480a9ee70594037fa -->
<g id="node1" class="node">
<title>dir_9be0baa3d4a3e9f480a9ee70594037fa</title>
<g id="a_node1"><a xlink:href="dir_9be0baa3d4a3e9f480a9ee70594037fa.html" target="_top" xlink:title="kernel">
<polygon fill="#60a2e3" stroke="red" points="59.5,-74 16.5,-74 16.5,-55 59.5,-55 59.5,-74"/>
<text text-anchor="middle" x="38" y="-62" font-family="Helvetica,sans-Serif" font-size="10.00">kernel</text>
</a>
</g>
</g>
<!-- dir_40ac35421bc63b72c26b6c69b1517fd6 -->
<g id="node2" class="node">
<title>dir_40ac35421bc63b72c26b6c69b1517fd6</title>
<g id="a_node2"><a xlink:href="dir_40ac35421bc63b72c26b6c69b1517fd6.html" target="_top" xlink:title="system">
<polygon fill="#60a2e3" stroke="red" points="830,-129 782,-129 782,-110 830,-110 830,-129"/>
<text text-anchor="middle" x="806" y="-117" font-family="Helvetica,sans-Serif" font-size="10.00">system</text>
</a>
</g>
</g>
<!-- dir_f24daea2522ffa8b6dc5fa9cdf5b8f5c -->
<g id="node3" class="node">
<title>dir_f24daea2522ffa8b6dc5fa9cdf5b8f5c</title>
<text text-anchor="middle" x="751" y="-172" font-family="Helvetica,sans-Serif" font-size="10.00">fs</text>
</g>
<!-- dir_511aea66b1e7cdedbb181e4504632afe -->
<g id="node4" class="node">
<title>dir_511aea66b1e7cdedbb181e4504632afe</title>
<g id="a_node4"><a xlink:href="dir_511aea66b1e7cdedbb181e4504632afe.html" target="_top" xlink:title="adddrv">
<polygon fill="#60a2e3" stroke="#404040" points="378,-184 332,-184 332,-165 378,-165 378,-184"/>
<text text-anchor="middle" x="355" y="-172" font-family="Helvetica,sans-Serif" font-size="10.00">adddrv</text>
</a>
</g>
</g>
<!-- dir_511aea66b1e7cdedbb181e4504632afe&#45;&gt;dir_9be0baa3d4a3e9f480a9ee70594037fa -->
<g id="edge1" class="edge">
<title>dir_511aea66b1e7cdedbb181e4504632afe&#45;&gt;dir_9be0baa3d4a3e9f480a9ee70594037fa</title>
<path fill="none" stroke="#63b8ff" d="M331.77,-167.32C288.33,-155.73 198.57,-131.68 192,-129 175.98,-122.45 173.72,-117.25 158,-110 142.08,-102.65 100.17,-87.45 70.38,-76.87"/>
<polygon fill="#63b8ff" stroke="#63b8ff" points="71.65,-73.61 61.06,-73.57 69.32,-80.21 71.65,-73.61"/>
<g id="a_edge1&#45;headlabel"><a xlink:href="dir_000000_000166.html" target="_top" xlink:title="8">
<text text-anchor="middle" x="74.56" y="-69.13" font-family="Helvetica,sans-Serif" font-size="10.00" fill="#63b8ff">8</text>
</a>
</g>
</g>
<!-- dir_026e95636ee7a5fe61bdfe401a766815 -->
<g id="node16" class="node">
<title>dir_026e95636ee7a5fe61bdfe401a766815</title>
<g id="a_node16"><a xlink:href="dir_026e95636ee7a5fe61bdfe401a766815.html" target="_top" xlink:title="romdrv">
<polygon fill="#60a2e3" stroke="#404040" points="344.5,-129 297.5,-129 297.5,-110 344.5,-110 344.5,-129"/>
<text text-anchor="middle" x="321" y="-117" font-family="Helvetica,sans-Serif" font-size="10.00">romdrv</text>
</a>
</g>
</g>
<!-- dir_511aea66b1e7cdedbb181e4504632afe&#45;&gt;dir_026e95636ee7a5fe61bdfe401a766815 -->
<g id="edge2" class="edge">
<title>dir_511aea66b1e7cdedbb181e4504632afe&#45;&gt;dir_026e95636ee7a5fe61bdfe401a766815</title>
<path fill="none" stroke="#63b8ff" d="M349.39,-164.75C344.88,-157.73 338.41,-147.64 332.79,-138.87"/>
<polygon fill="#63b8ff" stroke="#63b8ff" points="335.9,-137.24 327.55,-130.72 330.01,-141.02 335.9,-137.24"/>
<g id="a_edge2&#45;headlabel"><a xlink:href="dir_000000_000218.html" target="_top" xlink:title="2">
<text text-anchor="middle" x="339.41" y="-134.96" font-family="Helvetica,sans-Serif" font-size="10.00" fill="#63b8ff">2</text>
</a>
</g>
</g>
<!-- dir_d88f8949096e46f9e554069e44cde349 -->
<g id="node5" class="node">
<title>dir_d88f8949096e46f9e554069e44cde349</title>
<g id="a_node5"><a xlink:href="dir_d88f8949096e46f9e554069e44cde349.html" target="_top" xlink:title="addrom2">
<polygon fill="#60a2e3" stroke="#404040" points="314,-184 260,-184 260,-165 314,-165 314,-184"/>
<text text-anchor="middle" x="287" y="-172" font-family="Helvetica,sans-Serif" font-size="10.00">addrom2</text>
</a>
</g>
</g>
<!-- dir_d88f8949096e46f9e554069e44cde349&#45;&gt;dir_9be0baa3d4a3e9f480a9ee70594037fa -->
<g id="edge3" class="edge">
<title>dir_d88f8949096e46f9e554069e44cde349&#45;&gt;dir_9be0baa3d4a3e9f480a9ee70594037fa</title>
<path fill="none" stroke="#63b8ff" d="M260.01,-164.61C235.97,-156.36 200.04,-143.25 170,-129 154.71,-121.75 152.07,-117.7 137,-110 115.02,-98.77 89.6,-87.37 70.03,-78.93"/>
<polygon fill="#63b8ff" stroke="#63b8ff" points="71.5,-75.75 60.93,-75.04 68.74,-82.19 71.5,-75.75"/>
<g id="a_edge3&#45;headlabel"><a xlink:href="dir_000001_000166.html" target="_top" xlink:title="8">
<text text-anchor="middle" x="74.53" y="-71.46" font-family="Helvetica,sans-Serif" font-size="10.00" fill="#63b8ff">8</text>
</a>
</g>
</g>
<!-- dir_d88f8949096e46f9e554069e44cde349&#45;&gt;dir_026e95636ee7a5fe61bdfe401a766815 -->
<g id="edge4" class="edge">
<title>dir_d88f8949096e46f9e554069e44cde349&#45;&gt;dir_026e95636ee7a5fe61bdfe401a766815</title>
<path fill="none" stroke="#63b8ff" d="M292.61,-164.75C297.12,-157.73 303.59,-147.64 309.21,-138.87"/>
<polygon fill="#63b8ff" stroke="#63b8ff" points="311.99,-141.02 314.45,-130.72 306.1,-137.24 311.99,-141.02"/>
<g id="a_edge4&#45;headlabel"><a xlink:href="dir_000001_000218.html" target="_top" xlink:title="2">
<text text-anchor="middle" x="313.26" y="-141.81" font-family="Helvetica,sans-Serif" font-size="10.00" fill="#63b8ff">2</text>
</a>
</g>
</g>
<!-- dir_0134b0376fbe77322088b496fb368f9b -->
<g id="node6" class="node">
<title>dir_0134b0376fbe77322088b496fb368f9b</title>
<g id="a_node6"><a xlink:href="dir_0134b0376fbe77322088b496fb368f9b.html" target="_top" xlink:title="bdm">
<polygon fill="#60a2e3" stroke="#404040" points="490.5,-129 455.5,-129 455.5,-110 490.5,-110 490.5,-129"/>
<text text-anchor="middle" x="473" y="-117" font-family="Helvetica,sans-Serif" font-size="10.00">bdm</text>
</a>
</g>
</g>
<!-- dir_0134b0376fbe77322088b496fb368f9b&#45;&gt;dir_9be0baa3d4a3e9f480a9ee70594037fa -->
<g id="edge5" class="edge">
<title>dir_0134b0376fbe77322088b496fb368f9b&#45;&gt;dir_9be0baa3d4a3e9f480a9ee70594037fa</title>
<path fill="none" stroke="#63b8ff" d="M455.1,-117.05C389.42,-111.66 160.97,-92.24 70.79,-75.2"/>
<polygon fill="#63b8ff" stroke="#63b8ff" points="71.73,-71.82 61.24,-73.27 70.35,-78.68 71.73,-71.82"/>
<g id="a_edge5&#45;headlabel"><a xlink:href="dir_000013_000166.html" target="_top" xlink:title="15">
<text text-anchor="middle" x="74.34" y="-66.95" font-family="Helvetica,sans-Serif" font-size="10.00" fill="#63b8ff">15</text>
</a>
</g>
</g>
<!-- dir_10cce8191a2d4629e92aaca1231c0797 -->
<g id="node14" class="node">
<title>dir_10cce8191a2d4629e92aaca1231c0797</title>
<g id="a_node14"><a xlink:href="dir_10cce8191a2d4629e92aaca1231c0797.html" target="_top" xlink:title="libbdm">
<polygon fill="#60a2e3" stroke="#404040" points="495.5,-74 450.5,-74 450.5,-55 495.5,-55 495.5,-74"/>
<text text-anchor="middle" x="473" y="-62" font-family="Helvetica,sans-Serif" font-size="10.00">libbdm</text>
</a>
</g>
</g>
<!-- dir_0134b0376fbe77322088b496fb368f9b&#45;&gt;dir_10cce8191a2d4629e92aaca1231c0797 -->
<g id="edge6" class="edge">
<title>dir_0134b0376fbe77322088b496fb368f9b&#45;&gt;dir_10cce8191a2d4629e92aaca1231c0797</title>
<path fill="none" stroke="#63b8ff" d="M467.83,-109.75C466.42,-103.19 465.96,-93.95 466.43,-85.6"/>
<polygon fill="#63b8ff" stroke="#63b8ff" points="469.87,-86.3 467.61,-75.94 462.92,-85.45 469.87,-86.3"/>
<g id="a_edge6&#45;headlabel"><a xlink:href="dir_000013_000170.html" target="_top" xlink:title="1">
<text text-anchor="middle" x="472.44" y="-86.21" font-family="Helvetica,sans-Serif" font-size="10.00" fill="#63b8ff">1</text>
</a>
</g>
</g>
<!-- dir_bdd9a5d540de89e9fe90efdfc6973a4f -->
<g id="node17" class="node">
<title>dir_bdd9a5d540de89e9fe90efdfc6973a4f</title>
<g id="a_node17"><a xlink:href="dir_bdd9a5d540de89e9fe90efdfc6973a4f.html" target="_top" xlink:title="common">
<polygon fill="#deebf9" stroke="red" points="904,-19 850,-19 850,0 904,0 904,-19"/>
<text text-anchor="middle" x="877" y="-7" font-family="Helvetica,sans-Serif" font-size="10.00">common</text>
</a>
</g>
</g>
<!-- dir_0134b0376fbe77322088b496fb368f9b&#45;&gt;dir_bdd9a5d540de89e9fe90efdfc6973a4f -->
<g id="edge7" class="edge">
<title>dir_0134b0376fbe77322088b496fb368f9b&#45;&gt;dir_bdd9a5d540de89e9fe90efdfc6973a4f</title>
<path fill="none" stroke="#63b8ff" d="M490.71,-111.46C492.15,-110.94 493.6,-110.45 495,-110 555.75,-90.47 572.24,-90.07 634,-74 706.32,-55.19 790.71,-33.11 838.6,-20.56"/>
<polygon fill="#63b8ff" stroke="#63b8ff" points="839.42,-23.96 848.21,-18.05 837.65,-17.19 839.42,-23.96"/>
<g id="a_edge7&#45;headlabel"><a xlink:href="dir_000013_000024.html" target="_top" xlink:title="1">
<text text-anchor="middle" x="838.13" y="-24.74" font-family="Helvetica,sans-Serif" font-size="10.00" fill="#63b8ff">1</text>
</a>
</g>
</g>
<!-- dir_ca4e6ad4571d2d160c85f86efebac72d -->
<g id="node7" class="node">
<title>dir_ca4e6ad4571d2d160c85f86efebac72d</title>
<g id="a_node7"><a xlink:href="dir_ca4e6ad4571d2d160c85f86efebac72d.html" target="_top" xlink:title="bdmfs_fatfs">
<polygon fill="#60a2e3" stroke="#404040" points="464,-184 396,-184 396,-165 464,-165 464,-184"/>
<text text-anchor="middle" x="430" y="-172" font-family="Helvetica,sans-Serif" font-size="10.00">bdmfs_fatfs</text>
</a>
</g>
</g>
<!-- dir_ca4e6ad4571d2d160c85f86efebac72d&#45;&gt;dir_9be0baa3d4a3e9f480a9ee70594037fa -->
<g id="edge9" class="edge">
<title>dir_ca4e6ad4571d2d160c85f86efebac72d&#45;&gt;dir_9be0baa3d4a3e9f480a9ee70594037fa</title>
<path fill="none" stroke="#63b8ff" d="M395.97,-166.67C335.97,-154.6 217.29,-130.63 213,-129 197.17,-123 195.51,-116.77 180,-110 133.91,-89.88 117.66,-90.23 70.7,-76.04"/>
<polygon fill="#63b8ff" stroke="#63b8ff" points="71.87,-72.74 61.28,-73.11 69.8,-79.42 71.87,-72.74"/>
<g id="a_edge9&#45;headlabel"><a xlink:href="dir_000014_000166.html" target="_top" xlink:title="22">
<text text-anchor="middle" x="74.7" y="-68.14" font-family="Helvetica,sans-Serif" font-size="10.00" fill="#63b8ff">22</text>
</a>
</g>
</g>
<!-- dir_ca4e6ad4571d2d160c85f86efebac72d&#45;&gt;dir_0134b0376fbe77322088b496fb368f9b -->
<g id="edge8" class="edge">
<title>dir_ca4e6ad4571d2d160c85f86efebac72d&#45;&gt;dir_0134b0376fbe77322088b496fb368f9b</title>
<path fill="none" stroke="#63b8ff" d="M437.1,-164.75C442.92,-157.58 451.33,-147.2 458.56,-138.3"/>
<polygon fill="#63b8ff" stroke="#63b8ff" points="461.21,-140.59 464.79,-130.62 455.77,-136.18 461.21,-140.59"/>
<g id="a_edge8&#45;headlabel"><a xlink:href="dir_000014_000013.html" target="_top" xlink:title="5">
<text text-anchor="middle" x="462.1" y="-141.49" font-family="Helvetica,sans-Serif" font-size="10.00" fill="#63b8ff">5</text>
</a>
</g>
</g>
<!-- dir_ca4e6ad4571d2d160c85f86efebac72d&#45;&gt;dir_bdd9a5d540de89e9fe90efdfc6973a4f -->
<g id="edge10" class="edge">
<title>dir_ca4e6ad4571d2d160c85f86efebac72d&#45;&gt;dir_bdd9a5d540de89e9fe90efdfc6973a4f</title>
<path fill="none" stroke="#63b8ff" d="M464.06,-166.6C467.41,-166.01 470.77,-165.47 474,-165 555.32,-153.19 778.66,-181.34 842,-129 871.13,-104.93 876.74,-57.87 877.41,-30.86"/>
<polygon fill="#63b8ff" stroke="#63b8ff" points="880.91,-30.92 877.42,-20.91 873.91,-30.91 880.91,-30.92"/>
<g id="a_edge10&#45;headlabel"><a xlink:href="dir_000014_000024.html" target="_top" xlink:title="2">
<text text-anchor="middle" x="883.75" y="-30.5" font-family="Helvetica,sans-Serif" font-size="10.00" fill="#63b8ff">2</text>
</a>
</g>
</g>
<!-- dir_eabe988c95970cb88382a9440b1d86c2 -->
<g id="node8" class="node">
<title>dir_eabe988c95970cb88382a9440b1d86c2</title>
<g id="a_node8"><a xlink:href="dir_eabe988c95970cb88382a9440b1d86c2.html" target="_top" xlink:title="bdmfs_vfat">
<polygon fill="#60a2e3" stroke="#404040" points="547.5,-184 482.5,-184 482.5,-165 547.5,-165 547.5,-184"/>
<text text-anchor="middle" x="515" y="-172" font-family="Helvetica,sans-Serif" font-size="10.00">bdmfs_vfat</text>
</a>
</g>
</g>
<!-- dir_eabe988c95970cb88382a9440b1d86c2&#45;&gt;dir_9be0baa3d4a3e9f480a9ee70594037fa -->
<g id="edge13" class="edge">
<title>dir_eabe988c95970cb88382a9440b1d86c2&#45;&gt;dir_9be0baa3d4a3e9f480a9ee70594037fa</title>
<path fill="none" stroke="#63b8ff" d="M482.01,-166.66C478.97,-166.08 475.93,-165.52 473,-165 366.77,-146.3 334.6,-165.21 233,-129 217.42,-123.45 216.26,-116.39 201,-110 146.33,-87.12 126.7,-91.18 70.71,-75.84"/>
<polygon fill="#63b8ff" stroke="#63b8ff" points="71.85,-72.52 61.27,-73.15 69.93,-79.25 71.85,-72.52"/>
<g id="a_edge13&#45;headlabel"><a xlink:href="dir_000015_000166.html" target="_top" xlink:title="29">
<text text-anchor="middle" x="74.63" y="-67.86" font-family="Helvetica,sans-Serif" font-size="10.00" fill="#63b8ff">29</text>
</a>
</g>
</g>
<!-- dir_eabe988c95970cb88382a9440b1d86c2&#45;&gt;dir_0134b0376fbe77322088b496fb368f9b -->
<g id="edge11" class="edge">
<title>dir_eabe988c95970cb88382a9440b1d86c2&#45;&gt;dir_0134b0376fbe77322088b496fb368f9b</title>
<path fill="none" stroke="#63b8ff" d="M508.06,-164.75C502.38,-157.58 494.16,-147.2 487.11,-138.3"/>
<polygon fill="#63b8ff" stroke="#63b8ff" points="489.98,-136.29 481.03,-130.63 484.49,-140.64 489.98,-136.29"/>
<g id="a_edge11&#45;headlabel"><a xlink:href="dir_000015_000013.html" target="_top" xlink:title="4">
<text text-anchor="middle" x="493.5" y="-133.66" font-family="Helvetica,sans-Serif" font-size="10.00" fill="#63b8ff">4</text>
</a>
</g>
</g>
<!-- dir_eabe988c95970cb88382a9440b1d86c2&#45;&gt;dir_bdd9a5d540de89e9fe90efdfc6973a4f -->
<g id="edge12" class="edge">
<title>dir_eabe988c95970cb88382a9440b1d86c2&#45;&gt;dir_bdd9a5d540de89e9fe90efdfc6973a4f</title>
<path fill="none" stroke="#63b8ff" d="M547.97,-166.55C551.01,-165.99 554.06,-165.46 557,-165 626.59,-154 824,-180.57 872,-129 896.71,-102.46 889.79,-56.35 883.06,-30.16"/>
<polygon fill="#63b8ff" stroke="#63b8ff" points="886.51,-29.5 880.42,-20.83 879.78,-31.41 886.51,-29.5"/>
<g id="a_edge12&#45;headlabel"><a xlink:href="dir_000015_000024.html" target="_top" xlink:title="5">
<text text-anchor="middle" x="889.81" y="-28.23" font-family="Helvetica,sans-Serif" font-size="10.00" fill="#63b8ff">5</text>
</a>
</g>
</g>
<!-- dir_a0342a6ef9487eda55789d2e07a75ee7 -->
<g id="node9" class="node">
<title>dir_a0342a6ef9487eda55789d2e07a75ee7</title>
<g id="a_node9"><a xlink:href="dir_a0342a6ef9487eda55789d2e07a75ee7.html" target="_top" xlink:title="devfs">
<polygon fill="#60a2e3" stroke="#404040" points="117.5,-184 76.5,-184 76.5,-165 117.5,-165 117.5,-184"/>
<text text-anchor="middle" x="97" y="-172" font-family="Helvetica,sans-Serif" font-size="10.00">devfs</text>
</a>
</g>
</g>
<!-- dir_a0342a6ef9487eda55789d2e07a75ee7&#45;&gt;dir_9be0baa3d4a3e9f480a9ee70594037fa -->
<g id="edge14" class="edge">
<title>dir_a0342a6ef9487eda55789d2e07a75ee7&#45;&gt;dir_9be0baa3d4a3e9f480a9ee70594037fa</title>
<path fill="none" stroke="#63b8ff" d="M92.17,-164.66C82.62,-147.18 61.13,-107.84 48.27,-84.3"/>
<polygon fill="#63b8ff" stroke="#63b8ff" points="51.49,-82.89 43.62,-75.79 45.34,-86.24 51.49,-82.89"/>
<g id="a_edge14&#45;headlabel"><a xlink:href="dir_000030_000166.html" target="_top" xlink:title="18">
<text text-anchor="middle" x="54.98" y="-80.85" font-family="Helvetica,sans-Serif" font-size="10.00" fill="#63b8ff">18</text>
</a>
</g>
</g>
<!-- dir_6ec8af8771869123149626592b760e4b -->
<g id="node10" class="node">
<title>dir_6ec8af8771869123149626592b760e4b</title>
<g id="a_node10"><a xlink:href="dir_6ec8af8771869123149626592b760e4b.html" target="_top" xlink:title="fakehost">
<polygon fill="#60a2e3" stroke="#404040" points="190,-184 136,-184 136,-165 190,-165 190,-184"/>
<text text-anchor="middle" x="163" y="-172" font-family="Helvetica,sans-Serif" font-size="10.00">fakehost</text>
</a>
</g>
</g>
<!-- dir_6ec8af8771869123149626592b760e4b&#45;&gt;dir_9be0baa3d4a3e9f480a9ee70594037fa -->
<g id="edge15" class="edge">
<title>dir_6ec8af8771869123149626592b760e4b&#45;&gt;dir_9be0baa3d4a3e9f480a9ee70594037fa</title>
<path fill="none" stroke="#63b8ff" d="M152.77,-164.66C131.8,-146.55 83.67,-104.96 56.88,-81.81"/>
<polygon fill="#63b8ff" stroke="#63b8ff" points="59.37,-79.34 49.52,-75.45 54.79,-84.64 59.37,-79.34"/>
<g id="a_edge15&#45;headlabel"><a xlink:href="dir_000049_000166.html" target="_top" xlink:title="23">
<text text-anchor="middle" x="62.8" y="-76.05" font-family="Helvetica,sans-Serif" font-size="10.00" fill="#63b8ff">23</text>
</a>
</g>
</g>
<!-- dir_1af2fbc890c779e5008e3d270a0ec9ec -->
<g id="node11" class="node">
<title>dir_1af2fbc890c779e5008e3d270a0ec9ec</title>
<g id="a_node11"><a xlink:href="dir_1af2fbc890c779e5008e3d270a0ec9ec.html" target="_top" xlink:title="fileio">
<polygon fill="#60a2e3" stroke="#404040" points="602,-184 566,-184 566,-165 602,-165 602,-184"/>
<text text-anchor="middle" x="584" y="-172" font-family="Helvetica,sans-Serif" font-size="10.00">fileio</text>
</a>
</g>
</g>
<!-- dir_1af2fbc890c779e5008e3d270a0ec9ec&#45;&gt;dir_9be0baa3d4a3e9f480a9ee70594037fa -->
<g id="edge17" class="edge">
<title>dir_1af2fbc890c779e5008e3d270a0ec9ec&#45;&gt;dir_9be0baa3d4a3e9f480a9ee70594037fa</title>
<path fill="none" stroke="#63b8ff" d="M565.53,-167.18C562.7,-166.36 559.79,-165.6 557,-165 423.97,-136.45 381.54,-173.58 253,-129 237.73,-123.7 236.96,-116.1 222,-110 158.69,-84.2 135.75,-92.25 70.63,-75.67"/>
<polygon fill="#63b8ff" stroke="#63b8ff" points="71.83,-72.37 61.26,-73.18 70.03,-79.13 71.83,-72.37"/>
<g id="a_edge17&#45;headlabel"><a xlink:href="dir_000050_000166.html" target="_top" xlink:title="8">
<text text-anchor="middle" x="74.57" y="-67.66" font-family="Helvetica,sans-Serif" font-size="10.00" fill="#63b8ff">8</text>
</a>
</g>
</g>
<!-- dir_1af2fbc890c779e5008e3d270a0ec9ec&#45;&gt;dir_bdd9a5d540de89e9fe90efdfc6973a4f -->
<g id="edge16" class="edge">
<title>dir_1af2fbc890c779e5008e3d270a0ec9ec&#45;&gt;dir_bdd9a5d540de89e9fe90efdfc6973a4f</title>
<path fill="none" stroke="#63b8ff" d="M602.26,-167.46C605.48,-166.54 608.82,-165.67 612,-165 677.27,-151.26 865.75,-178.91 910,-129 936.53,-99.07 926.65,-75.37 910,-39 907.85,-34.3 904.5,-30.09 900.75,-26.43"/>
<polygon fill="#63b8ff" stroke="#63b8ff" points="903.29,-23.99 893.35,-20.3 898.82,-29.38 903.29,-23.99"/>
<g id="a_edge16&#45;headlabel"><a xlink:href="dir_000050_000024.html" target="_top" xlink:title="2">
<text text-anchor="middle" x="906.7" y="-20.63" font-family="Helvetica,sans-Serif" font-size="10.00" fill="#63b8ff">2</text>
</a>
</g>
</g>
<!-- dir_3d3c25f590b74dfbd50a8b02c417c665 -->
<g id="node12" class="node">
<title>dir_3d3c25f590b74dfbd50a8b02c417c665</title>
<g id="a_node12"><a xlink:href="dir_3d3c25f590b74dfbd50a8b02c417c665.html" target="_top" xlink:title="filexio">
<polygon fill="#60a2e3" stroke="#404040" points="661.5,-184 620.5,-184 620.5,-165 661.5,-165 661.5,-184"/>
<text text-anchor="middle" x="641" y="-172" font-family="Helvetica,sans-Serif" font-size="10.00">filexio</text>
</a>
</g>
</g>
<!-- dir_3d3c25f590b74dfbd50a8b02c417c665&#45;&gt;dir_9be0baa3d4a3e9f480a9ee70594037fa -->
<g id="edge18" class="edge">
<title>dir_3d3c25f590b74dfbd50a8b02c417c665&#45;&gt;dir_9be0baa3d4a3e9f480a9ee70594037fa</title>
<path fill="none" stroke="#63b8ff" d="M620.13,-167.1C617.09,-166.31 613.98,-165.58 611,-165 462.68,-136.31 416.02,-177.67 273,-129 257.7,-123.79 257.04,-115.91 242,-110 170.26,-81.79 144.38,-93.4 70.54,-75.55"/>
<polygon fill="#63b8ff" stroke="#63b8ff" points="71.81,-72.26 61.26,-73.2 70.09,-79.05 71.81,-72.26"/>
<g id="a_edge18&#45;headlabel"><a xlink:href="dir_000052_000166.html" target="_top" xlink:title="16">
<text text-anchor="middle" x="74.53" y="-67.52" font-family="Helvetica,sans-Serif" font-size="10.00" fill="#63b8ff">16</text>
</a>
</g>
</g>
<!-- dir_3d3c25f590b74dfbd50a8b02c417c665&#45;&gt;dir_bdd9a5d540de89e9fe90efdfc6973a4f -->
<g id="edge19" class="edge">
<title>dir_3d3c25f590b74dfbd50a8b02c417c665&#45;&gt;dir_bdd9a5d540de89e9fe90efdfc6973a4f</title>
<path fill="none" stroke="#63b8ff" d="M661.88,-167.16C664.92,-166.36 668.03,-165.61 671,-165 731.8,-152.51 907.03,-175.64 948,-129 974.4,-98.95 970.41,-72.14 948,-39 940.46,-27.85 927.77,-21.06 915.18,-16.93"/>
<polygon fill="#63b8ff" stroke="#63b8ff" points="916.31,-13.61 905.74,-14.34 914.46,-20.36 916.31,-13.61"/>
<g id="a_edge19&#45;headlabel"><a xlink:href="dir_000052_000024.html" target="_top" xlink:title="2">
<text text-anchor="middle" x="919.07" y="-8.92" font-family="Helvetica,sans-Serif" font-size="10.00" fill="#63b8ff">2</text>
</a>
</g>
</g>
<!-- dir_bb1a65baea34b53b4bbf06e6d3ddfe57 -->
<g id="node13" class="node">
<title>dir_bb1a65baea34b53b4bbf06e6d3ddfe57</title>
<g id="a_node13"><a xlink:href="dir_bb1a65baea34b53b4bbf06e6d3ddfe57.html" target="_top" xlink:title="http">
<polygon fill="#60a2e3" stroke="#404040" points="241.5,-184 208.5,-184 208.5,-165 241.5,-165 241.5,-184"/>
<text text-anchor="middle" x="225" y="-172" font-family="Helvetica,sans-Serif" font-size="10.00">http</text>
</a>
</g>
</g>
<!-- dir_bb1a65baea34b53b4bbf06e6d3ddfe57&#45;&gt;dir_9be0baa3d4a3e9f480a9ee70594037fa -->
<g id="edge20" class="edge">
<title>dir_bb1a65baea34b53b4bbf06e6d3ddfe57&#45;&gt;dir_9be0baa3d4a3e9f480a9ee70594037fa</title>
<path fill="none" stroke="#63b8ff" d="M209.14,-164.51C193.36,-155.55 168.48,-141.38 147,-129 118.14,-112.36 85.09,-93.08 63.02,-80.16"/>
<polygon fill="#63b8ff" stroke="#63b8ff" points="64.84,-77.17 54.45,-75.14 61.31,-83.22 64.84,-77.17"/>
<g id="a_edge20&#45;headlabel"><a xlink:href="dir_000060_000166.html" target="_top" xlink:title="16">
<text text-anchor="middle" x="68.07" y="-73.28" font-family="Helvetica,sans-Serif" font-size="10.00" fill="#63b8ff">16</text>
</a>
</g>
</g>
<!-- dir_10cce8191a2d4629e92aaca1231c0797&#45;&gt;dir_9be0baa3d4a3e9f480a9ee70594037fa -->
<g id="edge22" class="edge">
<title>dir_10cce8191a2d4629e92aaca1231c0797&#45;&gt;dir_9be0baa3d4a3e9f480a9ee70594037fa</title>
<path fill="none" stroke="#63b8ff" d="M450.4,-64.5C323.97,-64.5 197.54,-64.5 71.11,-64.5"/>
<polygon fill="#63b8ff" stroke="#63b8ff" points="71.18,-61 61.18,-64.5 71.18,-68 71.18,-61"/>
<g id="a_edge22&#45;headlabel"><a xlink:href="dir_000170_000166.html" target="_top" xlink:title="2">
<text text-anchor="middle" x="73.26" y="-55.66" font-family="Helvetica,sans-Serif" font-size="10.00" fill="#63b8ff">2</text>
</a>
</g>
</g>
<!-- dir_10cce8191a2d4629e92aaca1231c0797&#45;&gt;dir_0134b0376fbe77322088b496fb368f9b -->
<g id="edge21" class="edge">
<title>dir_10cce8191a2d4629e92aaca1231c0797&#45;&gt;dir_0134b0376fbe77322088b496fb368f9b</title>
<path fill="none" stroke="#63b8ff" d="M478.21,-74.44C479.58,-80.97 480.04,-90.1 479.57,-98.35"/>
<polygon fill="#63b8ff" stroke="#63b8ff" points="476.1,-97.89 478.35,-108.25 483.05,-98.75 476.1,-97.89"/>
<g id="a_edge21&#45;headlabel"><a xlink:href="dir_000170_000013.html" target="_top" xlink:title="2">
<text text-anchor="middle" x="473.54" y="-92.98" font-family="Helvetica,sans-Serif" font-size="10.00" fill="#63b8ff">2</text>
</a>
</g>
</g>
<!-- dir_10cce8191a2d4629e92aaca1231c0797&#45;&gt;dir_bdd9a5d540de89e9fe90efdfc6973a4f -->
<g id="edge23" class="edge">
<title>dir_10cce8191a2d4629e92aaca1231c0797&#45;&gt;dir_bdd9a5d540de89e9fe90efdfc6973a4f</title>
<path fill="none" stroke="#63b8ff" d="M495.98,-58.71C522.42,-53.32 567.19,-44.61 606,-39 688.49,-27.08 785.79,-18.07 838.45,-13.61"/>
<polygon fill="#63b8ff" stroke="#63b8ff" points="838.42,-17.12 848.09,-12.8 837.84,-10.15 838.42,-17.12"/>
<g id="a_edge23&#45;headlabel"><a xlink:href="dir_000170_000024.html" target="_top" xlink:title="3">
<text text-anchor="middle" x="836.58" y="-17.63" font-family="Helvetica,sans-Serif" font-size="10.00" fill="#63b8ff">3</text>
</a>
</g>
</g>
<!-- dir_c49d6f7b24cb4247c18d467361672153 -->
<g id="node15" class="node">
<title>dir_c49d6f7b24cb4247c18d467361672153</title>
<g id="a_node15"><a xlink:href="dir_c49d6f7b24cb4247c18d467361672153.html" target="_top" xlink:title="netfs">
<polygon fill="#60a2e3" stroke="#404040" points="718,-184 680,-184 680,-165 718,-165 718,-184"/>
<text text-anchor="middle" x="699" y="-172" font-family="Helvetica,sans-Serif" font-size="10.00">netfs</text>
</a>
</g>
</g>
<!-- dir_c49d6f7b24cb4247c18d467361672153&#45;&gt;dir_9be0baa3d4a3e9f480a9ee70594037fa -->
<g id="edge24" class="edge">
<title>dir_c49d6f7b24cb4247c18d467361672153&#45;&gt;dir_9be0baa3d4a3e9f480a9ee70594037fa</title>
<path fill="none" stroke="#63b8ff" d="M679.54,-167.05C676.7,-166.27 673.79,-165.55 671,-165 503.68,-132.07 448.98,-188.05 289,-129 275.23,-123.92 275.53,-115.67 262,-110 182.96,-76.91 153.22,-94.32 70.92,-75.55"/>
<polygon fill="#63b8ff" stroke="#63b8ff" points="71.8,-72.16 61.25,-73.21 70.16,-78.96 71.8,-72.16"/>
<g id="a_edge24&#45;headlabel"><a xlink:href="dir_000195_000166.html" target="_top" xlink:title="32">
<text text-anchor="middle" x="74.49" y="-67.38" font-family="Helvetica,sans-Serif" font-size="10.00" fill="#63b8ff">32</text>
</a>
</g>
</g>
<!-- dir_c49d6f7b24cb4247c18d467361672153&#45;&gt;dir_40ac35421bc63b72c26b6c69b1517fd6 -->
<g id="edge25" class="edge">
<title>dir_c49d6f7b24cb4247c18d467361672153&#45;&gt;dir_40ac35421bc63b72c26b6c69b1517fd6</title>
<path fill="none" stroke="#63b8ff" d="M717.15,-164.51C733.78,-156.27 758.64,-143.96 777.85,-134.45"/>
<polygon fill="#63b8ff" stroke="#63b8ff" points="779.35,-137.6 786.76,-130.03 776.25,-131.33 779.35,-137.6"/>
<g id="a_edge25&#45;headlabel"><a xlink:href="dir_000195_000371.html" target="_top" xlink:title="3">
<text text-anchor="middle" x="778.75" y="-138.57" font-family="Helvetica,sans-Serif" font-size="10.00" fill="#63b8ff">3</text>
</a>
</g>
</g>
<!-- dir_c49d6f7b24cb4247c18d467361672153&#45;&gt;dir_bdd9a5d540de89e9fe90efdfc6973a4f -->
<g id="edge26" class="edge">
<title>dir_c49d6f7b24cb4247c18d467361672153&#45;&gt;dir_bdd9a5d540de89e9fe90efdfc6973a4f</title>
<path fill="none" stroke="#63b8ff" d="M718.24,-167.43C721.48,-166.54 724.82,-165.68 728,-165 784.59,-152.83 948,-172.67 986,-129 1012.26,-98.82 1010.45,-70.66 986,-39 977.28,-27.71 943.1,-20.03 915.3,-15.51"/>
<polygon fill="#63b8ff" stroke="#63b8ff" points="916.17,-12.11 905.76,-14.05 915.12,-19.03 916.17,-12.11"/>
<g id="a_edge26&#45;headlabel"><a xlink:href="dir_000195_000024.html" target="_top" xlink:title="1">
<text text-anchor="middle" x="918.66" y="-7.11" font-family="Helvetica,sans-Serif" font-size="10.00" fill="#63b8ff">1</text>
</a>
</g>
</g>
<!-- dir_026e95636ee7a5fe61bdfe401a766815&#45;&gt;dir_9be0baa3d4a3e9f480a9ee70594037fa -->
<g id="edge27" class="edge">
<title>dir_026e95636ee7a5fe61bdfe401a766815&#45;&gt;dir_9be0baa3d4a3e9f480a9ee70594037fa</title>
<path fill="none" stroke="#63b8ff" d="M297.2,-110.8C296.12,-110.51 295.05,-110.25 294,-110 196.9,-87.25 166.77,-97.35 70.85,-75.5"/>
<polygon fill="#63b8ff" stroke="#63b8ff" points="71.78,-72.12 61.25,-73.25 70.18,-78.94 71.78,-72.12"/>
<g id="a_edge27&#45;headlabel"><a xlink:href="dir_000218_000166.html" target="_top" xlink:title="10">
<text text-anchor="middle" x="74.46" y="-67.33" font-family="Helvetica,sans-Serif" font-size="10.00" fill="#63b8ff">10</text>
</a>
</g>
</g>
<!-- dir_026e95636ee7a5fe61bdfe401a766815&#45;&gt;dir_bdd9a5d540de89e9fe90efdfc6973a4f -->
<g id="edge28" class="edge">
<title>dir_026e95636ee7a5fe61bdfe401a766815&#45;&gt;dir_bdd9a5d540de89e9fe90efdfc6973a4f</title>
<path fill="none" stroke="#63b8ff" d="M344.87,-112.95C380.01,-104.73 447.7,-88.7 505,-74 562.54,-59.24 575.67,-50.27 634,-39 705.51,-25.18 790.24,-17.09 838.4,-13.25"/>
<polygon fill="#63b8ff" stroke="#63b8ff" points="838.62,-16.74 848.32,-12.48 838.08,-9.77 838.62,-16.74"/>
<g id="a_edge28&#45;headlabel"><a xlink:href="dir_000218_000024.html" target="_top" xlink:title="1">
<text text-anchor="middle" x="836.77" y="-17.24" font-family="Helvetica,sans-Serif" font-size="10.00" fill="#63b8ff">1</text>
</a>
</g>
</g>
</g>
</svg>
        <g id="navigator" transform="translate(0 0)" fill="#404254">
                <rect fill="#f2f5e9" fill-opacity="0.5" stroke="#606060" stroke-width=".5" x="0" y="0" width="60" height="60"/>
                <use id="zoomplus" xlink:href="#zoomPlus" x="17" y="9" onmousedown="handleZoom(evt,'in')"/>
                <use id="zoomminus" xlink:href="#zoomMin" x="42" y="9" onmousedown="handleZoom(evt,'out')"/>
                <use id="reset" xlink:href="#resetDef" x="30" y="36" onmousedown="handleReset()"/>
                <g id="arrowUp" xlink:href="#dirArrow" transform="translate(30 24)" onmousedown="handlePan(0,-1)">
                  <use xlink:href="#rim" fill="#404040">
                        <set attributeName="fill" to="#808080" begin="arrowUp.mouseover" end="arrowUp.mouseout"/>
                  </use>
                  <path fill="none" stroke="white" stroke-width="1.5" d="M0,-3.0v7 M-2.5,-0.5L0,-3.0L2.5,-0.5"/>
                </g>
                <g id="arrowRight" xlink:href="#dirArrow" transform="rotate(90) translate(36 -43)" onmousedown="handlePan(1,0)">
                  <use xlink:href="#rim" fill="#404040">
                        <set attributeName="fill" to="#808080" begin="arrowRight.mouseover" end="arrowRight.mouseout"/>
                  </use>
                  <path fill="none" stroke="white" stroke-width="1.5" d="M0,-3.0v7 M-2.5,-0.5L0,-3.0L2.5,-0.5"/>
                </g>
                <g id="arrowDown" xlink:href="#dirArrow" transform="rotate(180) translate(-30 -48)" onmousedown="handlePan(0,1)">
                  <use xlink:href="#rim" fill="#404040">
                        <set attributeName="fill" to="#808080" begin="arrowDown.mouseover" end="arrowDown.mouseout"/>
                  </use>
                  <path fill="none" stroke="white" stroke-width="1.5" d="M0,-3.0v7 M-2.5,-0.5L0,-3.0L2.5,-0.5"/>
                </g>
                <g id="arrowLeft" xlink:href="#dirArrow" transform="rotate(270) translate(-36 17)" onmousedown="handlePan(-1,0)">
                  <use xlink:href="#rim" fill="#404040">
                        <set attributeName="fill" to="#808080" begin="arrowLeft.mouseover" end="arrowLeft.mouseout"/>
                  </use>
                  <path fill="none" stroke="white" stroke-width="1.5" d="M0,-3.0v7 M-2.5,-0.5L0,-3.0L2.5,-0.5"/>
                </g>
        </g>
        <svg viewBox="0 0 15 15" width="100%" height="30px" preserveAspectRatio="xMaxYMin meet">
         <g id="arrow_out" transform="scale(0.3 0.3)">
          <a xlink:href="dir_f24daea2522ffa8b6dc5fa9cdf5b8f5c_dep_org.svg" target="_base">
           <rect id="button" ry="5" rx="5" y="6" x="6" height="38" width="38"
                fill="#f2f5e9" fill-opacity="0.5" stroke="#606060" stroke-width="1.0"/>
           <path id="arrow"
             d="M 11.500037,31.436501 C 11.940474,20.09759 22.043105,11.32322 32.158766,21.979434 L 37.068811,17.246167 C 37.068811,17.246167 37.088388,32 37.088388,32 L 22.160133,31.978069 C 22.160133,31.978069 26.997745,27.140456 26.997745,27.140456 C 18.528582,18.264221 13.291696,25.230495 11.500037,31.436501 z"
             style="fill:#404040;"/>
          </a>
         </g>
        </svg>
</svg>
