<?xml version="1.0" encoding="UTF-8" standalone="no"?>
<!DOCTYPE svg PUBLIC "-//W3C//DTD SVG 1.1//EN"
 "http://www.w3.org/Graphics/SVG/1.1/DTD/svg11.dtd">
<!-- Generated by graphviz version 7.0.5 (20221223.1930)
 -->
<!-- Title: iop/usb/usbhdfsd/src Pages: 1 -->
<svg width="324pt" height="141pt"
 viewBox="0.00 0.00 324.00 141.00" xmlns="http://www.w3.org/2000/svg" xmlns:xlink="http://www.w3.org/1999/xlink">
<g id="graph0" class="graph" transform="scale(1 1) rotate(0) translate(4 137)">
<title>iop/usb/usbhdfsd/src</title>
<g id="clust1" class="cluster">
<title>clusterdir_b8874c233d466218401f983297aca89b</title>
<g id="a_clust1"><a xlink:href="dir_b8874c233d466218401f983297aca89b.html" target="_top" xlink:title="usbhdfsd">
<polygon fill="#deebf9" stroke="#7f7f7f" stroke-dasharray="5,2" points="8,-8 8,-125 136,-125 136,-8 8,-8"/>
<text text-anchor="middle" x="72" y="-113" font-family="Helvetica,sans-Serif" font-size="10.00">usbhdfsd</text>
</a>
</g>
</g>
<g id="clust2" class="cluster">
<title>clusterdir_35e4cd4c6b68d708ba33184e89b685ac</title>
<g id="a_clust2"><a xlink:href="dir_35e4cd4c6b68d708ba33184e89b685ac.html" target="_top">
<polygon fill="#deebf9" stroke="#404040" stroke-width="2" points="16,-63 16,-98 128,-98 128,-63 16,-63"/>
</a>
</g>
</g>
<!-- dir_535a26643990b2aae7c4085335cb5fe3 -->
<g id="node1" class="node">
<title>dir_535a26643990b2aae7c4085335cb5fe3</title>
<g id="a_node1"><a xlink:href="dir_535a26643990b2aae7c4085335cb5fe3.html" target="_top" xlink:title="include">
<polygon fill="#60a2e3" stroke="#404040" points="125.5,-35 78.5,-35 78.5,-16 125.5,-16 125.5,-35"/>
<text text-anchor="middle" x="102" y="-23" font-family="Helvetica,sans-Serif" font-size="10.00">include</text>
</a>
</g>
</g>
<!-- dir_35e4cd4c6b68d708ba33184e89b685ac -->
<g id="node2" class="node">
<title>dir_35e4cd4c6b68d708ba33184e89b685ac</title>
<text text-anchor="middle" x="105" y="-78" font-family="Helvetica,sans-Serif" font-size="10.00">src</text>
</g>
<!-- dir_35e4cd4c6b68d708ba33184e89b685ac&#45;&gt;dir_535a26643990b2aae7c4085335cb5fe3 -->
<g id="edge1" class="edge">
<title>dir_35e4cd4c6b68d708ba33184e89b685ac&#45;&gt;dir_535a26643990b2aae7c4085335cb5fe3</title>
<path fill="none" stroke="#63b8ff" d="M104.53,-71.22C104.16,-64.65 103.62,-55.18 103.14,-46.64"/>
<polygon fill="#63b8ff" stroke="#63b8ff" points="106.64,-46.55 102.58,-36.76 99.65,-46.94 106.64,-46.55"/>
<g id="a_edge1&#45;headlabel"><a xlink:href="dir_000355_000154.html" target="_top" xlink:title="8">
<text text-anchor="middle" x="109.59" y="-45.97" font-family="Helvetica,sans-Serif" font-size="10.00" fill="#63b8ff">8</text>
</a>
</g>
</g>
<!-- dir_8f550b51c304fe10978bfd792866fae2 -->
<g id="node4" class="node">
<title>dir_8f550b51c304fe10978bfd792866fae2</title>
<g id="a_node4"><a xlink:href="dir_8f550b51c304fe10978bfd792866fae2.html" target="_top" xlink:title="usbd">
<polygon fill="#deebf9" stroke="red" stroke-dasharray="5,2" points="182,-35 144,-35 144,-16 182,-16 182,-35"/>
<text text-anchor="middle" x="163" y="-23" font-family="Helvetica,sans-Serif" font-size="10.00">usbd</text>
</a>
</g>
</g>
<!-- dir_35e4cd4c6b68d708ba33184e89b685ac&#45;&gt;dir_8f550b51c304fe10978bfd792866fae2 -->
<g id="edge2" class="edge">
<title>dir_35e4cd4c6b68d708ba33184e89b685ac&#45;&gt;dir_8f550b51c304fe10978bfd792866fae2</title>
<path fill="none" stroke="#63b8ff" d="M114.06,-71.22C122.34,-63.65 134.82,-52.25 145.11,-42.85"/>
<polygon fill="#63b8ff" stroke="#63b8ff" points="147.28,-45.6 152.31,-36.27 142.56,-40.43 147.28,-45.6"/>
<g id="a_edge2&#45;headlabel"><a xlink:href="dir_000355_000385.html" target="_top" xlink:title="3">
<text text-anchor="middle" x="147.66" y="-46.6" font-family="Helvetica,sans-Serif" font-size="10.00" fill="#63b8ff">3</text>
</a>
</g>
</g>
<!-- dir_9be0baa3d4a3e9f480a9ee70594037fa -->
<g id="node5" class="node">
<title>dir_9be0baa3d4a3e9f480a9ee70594037fa</title>
<g id="a_node5"><a xlink:href="dir_9be0baa3d4a3e9f480a9ee70594037fa.html" target="_top" xlink:title="kernel">
<polygon fill="#deebf9" stroke="red" stroke-dasharray="5,2" points="243.5,-35 200.5,-35 200.5,-16 243.5,-16 243.5,-35"/>
<text text-anchor="middle" x="222" y="-23" font-family="Helvetica,sans-Serif" font-size="10.00">kernel</text>
</a>
</g>
</g>
<!-- dir_35e4cd4c6b68d708ba33184e89b685ac&#45;&gt;dir_9be0baa3d4a3e9f480a9ee70594037fa -->
<g id="edge3" class="edge">
<title>dir_35e4cd4c6b68d708ba33184e89b685ac&#45;&gt;dir_9be0baa3d4a3e9f480a9ee70594037fa</title>
<path fill="none" stroke="#63b8ff" d="M119.82,-72.79C137.87,-64.61 168.8,-50.6 191.92,-40.13"/>
<polygon fill="#63b8ff" stroke="#63b8ff" points="193.19,-43.39 200.85,-36.08 190.3,-37.02 193.19,-43.39"/>
<g id="a_edge3&#45;headlabel"><a xlink:href="dir_000355_000166.html" target="_top" xlink:title="39">
<text text-anchor="middle" x="192.46" y="-44.34" font-family="Helvetica,sans-Serif" font-size="10.00" fill="#63b8ff">39</text>
</a>
</g>
</g>
<!-- dir_bdd9a5d540de89e9fe90efdfc6973a4f -->
<g id="node6" class="node">
<title>dir_bdd9a5d540de89e9fe90efdfc6973a4f</title>
<g id="a_node6"><a xlink:href="dir_bdd9a5d540de89e9fe90efdfc6973a4f.html" target="_top" xlink:title="common">
<polygon fill="#deebf9" stroke="red" points="316,-35 262,-35 262,-16 316,-16 316,-35"/>
<text text-anchor="middle" x="289" y="-23" font-family="Helvetica,sans-Serif" font-size="10.00">common</text>
</a>
</g>
</g>
<!-- dir_35e4cd4c6b68d708ba33184e89b685ac&#45;&gt;dir_bdd9a5d540de89e9fe90efdfc6973a4f -->
<g id="edge4" class="edge">
<title>dir_35e4cd4c6b68d708ba33184e89b685ac&#45;&gt;dir_bdd9a5d540de89e9fe90efdfc6973a4f</title>
<path fill="none" stroke="#63b8ff" d="M119.75,-75.25C147.89,-67.15 210.06,-49.24 250.7,-37.53"/>
<polygon fill="#63b8ff" stroke="#63b8ff" points="251.46,-40.96 260.1,-34.83 249.52,-34.23 251.46,-40.96"/>
<g id="a_edge4&#45;headlabel"><a xlink:href="dir_000355_000024.html" target="_top" xlink:title="7">
<text text-anchor="middle" x="250.24" y="-41.76" font-family="Helvetica,sans-Serif" font-size="10.00" fill="#63b8ff">7</text>
</a>
</g>
</g>
<!-- dir_6fd08c545c881b4d2b356c02a10aa6b3 -->
<g id="node3" class="node">
<title>dir_6fd08c545c881b4d2b356c02a10aa6b3</title>
<g id="a_node3"><a xlink:href="dir_6fd08c545c881b4d2b356c02a10aa6b3.html" target="_top" xlink:title="include">
<polygon fill="#60a2e3" stroke="#404040" points="71.5,-90 24.5,-90 24.5,-71 71.5,-71 71.5,-90"/>
<text text-anchor="middle" x="48" y="-78" font-family="Helvetica,sans-Serif" font-size="10.00">include</text>
</a>
</g>
</g>
</g>
</svg>
