<?xml version="1.0" encoding="UTF-8" standalone="no"?>
<!DOCTYPE svg PUBLIC "-//W3C//DTD SVG 1.1//EN"
 "http://www.w3.org/Graphics/SVG/1.1/DTD/svg11.dtd">
<!-- Generated by graphviz version 7.0.5 (20221223.1930)
 -->
<!-- Title: iop/memorycard/mcman/src Pages: 1 -->
<svg width="272pt" height="133pt"
 viewBox="0.00 0.00 272.00 133.00" xmlns="http://www.w3.org/2000/svg" xmlns:xlink="http://www.w3.org/1999/xlink">
<g id="graph0" class="graph" transform="scale(1 1) rotate(0) translate(4 129)">
<title>iop/memorycard/mcman/src</title>
<g id="clust1" class="cluster">
<title>clusterdir_ae48e1b29bfa2db4ecbd893188b24955</title>
<g id="a_clust1"><a xlink:href="dir_ae48e1b29bfa2db4ecbd893188b24955.html" target="_top" xlink:title="mcman">
<polygon fill="#deebf9" stroke="#7f7f7f" stroke-dasharray="5,2" points="8,-8 8,-117 72,-117 72,-8 8,-8"/>
<text text-anchor="middle" x="40" y="-105" font-family="Helvetica,sans-Serif" font-size="10.00">mcman</text>
</a>
</g>
</g>
<!-- dir_55de3dde79234ee6800af66dd2b2efb1 -->
<g id="node1" class="node">
<title>dir_55de3dde79234ee6800af66dd2b2efb1</title>
<g id="a_node1"><a xlink:href="dir_55de3dde79234ee6800af66dd2b2efb1.html" target="_top" xlink:title="include">
<polygon fill="#60a2e3" stroke="#404040" points="63.5,-35 16.5,-35 16.5,-16 63.5,-16 63.5,-35"/>
<text text-anchor="middle" x="40" y="-23" font-family="Helvetica,sans-Serif" font-size="10.00">include</text>
</a>
</g>
</g>
<!-- dir_a7b91cccb02c4e3ff005f6cfec8ac8b2 -->
<g id="node2" class="node">
<title>dir_a7b91cccb02c4e3ff005f6cfec8ac8b2</title>
<g id="a_node2"><a xlink:href="dir_a7b91cccb02c4e3ff005f6cfec8ac8b2.html" target="_top" xlink:title="src">
<polygon fill="#deebf9" stroke="#404040" stroke-width="2" points="64,-90 34,-90 34,-71 64,-71 64,-90"/>
<text text-anchor="middle" x="49" y="-78" font-family="Helvetica,sans-Serif" font-size="10.00">src</text>
</a>
</g>
</g>
<!-- dir_a7b91cccb02c4e3ff005f6cfec8ac8b2&#45;&gt;dir_55de3dde79234ee6800af66dd2b2efb1 -->
<g id="edge2" class="edge">
<title>dir_a7b91cccb02c4e3ff005f6cfec8ac8b2&#45;&gt;dir_55de3dde79234ee6800af66dd2b2efb1</title>
<path fill="none" stroke="#63b8ff" d="M47.51,-70.75C46.4,-64.19 44.83,-54.95 43.41,-46.6"/>
<polygon fill="#63b8ff" stroke="#63b8ff" points="46.9,-46.21 41.77,-36.93 40,-47.38 46.9,-46.21"/>
<g id="a_edge2&#45;headlabel"><a xlink:href="dir_000320_000131.html" target="_top" xlink:title="5">
<text text-anchor="middle" x="50.04" y="-45.28" font-family="Helvetica,sans-Serif" font-size="10.00" fill="#63b8ff">5</text>
</a>
</g>
</g>
<!-- dir_40ac35421bc63b72c26b6c69b1517fd6 -->
<g id="node3" class="node">
<title>dir_40ac35421bc63b72c26b6c69b1517fd6</title>
<g id="a_node3"><a xlink:href="dir_40ac35421bc63b72c26b6c69b1517fd6.html" target="_top" xlink:title="system">
<polygon fill="#deebf9" stroke="red" stroke-dasharray="5,2" points="130,-35 82,-35 82,-16 130,-16 130,-35"/>
<text text-anchor="middle" x="106" y="-23" font-family="Helvetica,sans-Serif" font-size="10.00">system</text>
</a>
</g>
</g>
<!-- dir_a7b91cccb02c4e3ff005f6cfec8ac8b2&#45;&gt;dir_40ac35421bc63b72c26b6c69b1517fd6 -->
<g id="edge1" class="edge">
<title>dir_a7b91cccb02c4e3ff005f6cfec8ac8b2&#45;&gt;dir_40ac35421bc63b72c26b6c69b1517fd6</title>
<path fill="none" stroke="#63b8ff" d="M58.67,-70.51C66.74,-63 78.47,-52.1 88.22,-43.03"/>
<polygon fill="#63b8ff" stroke="#63b8ff" points="90.43,-45.76 95.37,-36.39 85.66,-40.63 90.43,-45.76"/>
<g id="a_edge1&#45;headlabel"><a xlink:href="dir_000320_000371.html" target="_top" xlink:title="2">
<text text-anchor="middle" x="90.83" y="-46.76" font-family="Helvetica,sans-Serif" font-size="10.00" fill="#63b8ff">2</text>
</a>
</g>
</g>
<!-- dir_9be0baa3d4a3e9f480a9ee70594037fa -->
<g id="node4" class="node">
<title>dir_9be0baa3d4a3e9f480a9ee70594037fa</title>
<g id="a_node4"><a xlink:href="dir_9be0baa3d4a3e9f480a9ee70594037fa.html" target="_top" xlink:title="kernel">
<polygon fill="#deebf9" stroke="red" stroke-dasharray="5,2" points="191.5,-35 148.5,-35 148.5,-16 191.5,-16 191.5,-35"/>
<text text-anchor="middle" x="170" y="-23" font-family="Helvetica,sans-Serif" font-size="10.00">kernel</text>
</a>
</g>
</g>
<!-- dir_a7b91cccb02c4e3ff005f6cfec8ac8b2&#45;&gt;dir_9be0baa3d4a3e9f480a9ee70594037fa -->
<g id="edge3" class="edge">
<title>dir_a7b91cccb02c4e3ff005f6cfec8ac8b2&#45;&gt;dir_9be0baa3d4a3e9f480a9ee70594037fa</title>
<path fill="none" stroke="#63b8ff" d="M64.32,-72.79C83.07,-64.57 115.27,-50.47 139.21,-39.98"/>
<polygon fill="#63b8ff" stroke="#63b8ff" points="140.41,-43.28 148.17,-36.06 137.6,-36.87 140.41,-43.28"/>
<g id="a_edge3&#45;headlabel"><a xlink:href="dir_000320_000166.html" target="_top" xlink:title="23">
<text text-anchor="middle" x="139.65" y="-44.22" font-family="Helvetica,sans-Serif" font-size="10.00" fill="#63b8ff">23</text>
</a>
</g>
</g>
<!-- dir_bdd9a5d540de89e9fe90efdfc6973a4f -->
<g id="node5" class="node">
<title>dir_bdd9a5d540de89e9fe90efdfc6973a4f</title>
<g id="a_node5"><a xlink:href="dir_bdd9a5d540de89e9fe90efdfc6973a4f.html" target="_top" xlink:title="common">
<polygon fill="#deebf9" stroke="red" points="264,-35 210,-35 210,-16 264,-16 264,-35"/>
<text text-anchor="middle" x="237" y="-23" font-family="Helvetica,sans-Serif" font-size="10.00">common</text>
</a>
</g>
</g>
<!-- dir_a7b91cccb02c4e3ff005f6cfec8ac8b2&#45;&gt;dir_bdd9a5d540de89e9fe90efdfc6973a4f -->
<g id="edge4" class="edge">
<title>dir_a7b91cccb02c4e3ff005f6cfec8ac8b2&#45;&gt;dir_bdd9a5d540de89e9fe90efdfc6973a4f</title>
<path fill="none" stroke="#63b8ff" d="M64.38,-75.16C93.48,-66.96 157.36,-48.95 198.72,-37.29"/>
<polygon fill="#63b8ff" stroke="#63b8ff" points="199.61,-40.68 208.28,-34.6 197.71,-33.94 199.61,-40.68"/>
<g id="a_edge4&#45;headlabel"><a xlink:href="dir_000320_000024.html" target="_top" xlink:title="2">
<text text-anchor="middle" x="198.38" y="-41.48" font-family="Helvetica,sans-Serif" font-size="10.00" fill="#63b8ff">2</text>
</a>
</g>
</g>
</g>
</svg>
