<?xml version="1.0" encoding="UTF-8" standalone="no"?>
<!DOCTYPE svg PUBLIC "-//W3C//DTD SVG 1.1//EN"
 "http://www.w3.org/Graphics/SVG/1.1/DTD/svg11.dtd">
<!-- Generated by graphviz version 7.0.5 (20221223.1930)
 -->
<!-- Title: common/sbus Pages: 1 -->
<svg width="219pt" height="196pt"
 viewBox="0.00 0.00 218.50 196.00" xmlns="http://www.w3.org/2000/svg" xmlns:xlink="http://www.w3.org/1999/xlink">
<g id="graph0" class="graph" transform="scale(1 1) rotate(0) translate(4 192)">
<title>common/sbus</title>
<g id="clust1" class="cluster">
<title>clusterdir_bdd9a5d540de89e9fe90efdfc6973a4f</title>
<g id="a_clust1"><a xlink:href="dir_bdd9a5d540de89e9fe90efdfc6973a4f.html" target="_top" xlink:title="common">
<polygon fill="#deebf9" stroke="#404040" stroke-dasharray="5,2" points="8,-8 8,-180 126,-180 126,-8 8,-8"/>
<text text-anchor="middle" x="67" y="-168" font-family="Helvetica,sans-Serif" font-size="10.00">common</text>
</a>
</g>
</g>
<g id="clust2" class="cluster">
<title>clusterdir_58a8fc8f1a03774579661b06bb97dd1a</title>
<g id="a_clust2"><a xlink:href="dir_58a8fc8f1a03774579661b06bb97dd1a.html" target="_top">
<polygon fill="#deebf9" stroke="#404040" stroke-width="2" points="16,-63 16,-153 118,-153 118,-63 16,-63"/>
</a>
</g>
</g>
<!-- dir_11fbc4217d50ab21044e5ad6614aede5 -->
<g id="node1" class="node">
<title>dir_11fbc4217d50ab21044e5ad6614aede5</title>
<g id="a_node1"><a xlink:href="dir_11fbc4217d50ab21044e5ad6614aede5.html" target="_top" xlink:title="include">
<polygon fill="#60a2e3" stroke="red" points="92.5,-35 45.5,-35 45.5,-16 92.5,-16 92.5,-35"/>
<text text-anchor="middle" x="69" y="-23" font-family="Helvetica,sans-Serif" font-size="10.00">include</text>
</a>
</g>
</g>
<!-- dir_58a8fc8f1a03774579661b06bb97dd1a -->
<g id="node2" class="node">
<title>dir_58a8fc8f1a03774579661b06bb97dd1a</title>
<text text-anchor="middle" x="91" y="-133" font-family="Helvetica,sans-Serif" font-size="10.00">sbus</text>
</g>
<!-- dir_71fde4f0207fc0e816aa54ff3c3cace1 -->
<g id="node3" class="node">
<title>dir_71fde4f0207fc0e816aa54ff3c3cace1</title>
<g id="a_node3"><a xlink:href="dir_71fde4f0207fc0e816aa54ff3c3cace1.html" target="_top" xlink:title="include">
<polygon fill="#60a2e3" stroke="#404040" points="71.5,-90 24.5,-90 24.5,-71 71.5,-71 71.5,-90"/>
<text text-anchor="middle" x="48" y="-78" font-family="Helvetica,sans-Serif" font-size="10.00">include</text>
</a>
</g>
</g>
<!-- dir_71fde4f0207fc0e816aa54ff3c3cace1&#45;&gt;dir_11fbc4217d50ab21044e5ad6614aede5 -->
<g id="edge1" class="edge">
<title>dir_71fde4f0207fc0e816aa54ff3c3cace1&#45;&gt;dir_11fbc4217d50ab21044e5ad6614aede5</title>
<path fill="none" stroke="#63b8ff" d="M51.47,-70.75C54.13,-64.04 57.9,-54.52 61.26,-46.02"/>
<polygon fill="#63b8ff" stroke="#63b8ff" points="64.47,-47.44 64.9,-36.85 57.96,-44.86 64.47,-47.44"/>
<g id="a_edge1&#45;headlabel"><a xlink:href="dir_000067_000066.html" target="_top" xlink:title="2">
<text text-anchor="middle" x="66.34" y="-47.92" font-family="Helvetica,sans-Serif" font-size="10.00" fill="#63b8ff">2</text>
</a>
</g>
</g>
<!-- dir_b86d8e8cc4ff73a3835f86acf7570149 -->
<g id="node4" class="node">
<title>dir_b86d8e8cc4ff73a3835f86acf7570149</title>
<g id="a_node4"><a xlink:href="dir_b86d8e8cc4ff73a3835f86acf7570149.html" target="_top" xlink:title="src">
<polygon fill="#60a2e3" stroke="#404040" points="54,-145 24,-145 24,-126 54,-126 54,-145"/>
<text text-anchor="middle" x="39" y="-133" font-family="Helvetica,sans-Serif" font-size="10.00">src</text>
</a>
</g>
</g>
<!-- dir_b86d8e8cc4ff73a3835f86acf7570149&#45;&gt;dir_11fbc4217d50ab21044e5ad6614aede5 -->
<g id="edge4" class="edge">
<title>dir_b86d8e8cc4ff73a3835f86acf7570149&#45;&gt;dir_11fbc4217d50ab21044e5ad6614aede5</title>
<path fill="none" stroke="#63b8ff" d="M51.61,-125.55C61.71,-117.54 75.12,-104.81 81,-90 86.65,-75.79 82.88,-58.71 78.12,-45.85"/>
<polygon fill="#63b8ff" stroke="#63b8ff" points="81.42,-44.67 74.31,-36.82 74.97,-47.39 81.42,-44.67"/>
<g id="a_edge4&#45;headlabel"><a xlink:href="dir_000237_000066.html" target="_top" xlink:title="18">
<text text-anchor="middle" x="84.85" y="-42.98" font-family="Helvetica,sans-Serif" font-size="10.00" fill="#63b8ff">18</text>
</a>
</g>
</g>
<!-- dir_b86d8e8cc4ff73a3835f86acf7570149&#45;&gt;dir_71fde4f0207fc0e816aa54ff3c3cace1 -->
<g id="edge5" class="edge">
<title>dir_b86d8e8cc4ff73a3835f86acf7570149&#45;&gt;dir_71fde4f0207fc0e816aa54ff3c3cace1</title>
<path fill="none" stroke="#63b8ff" d="M40.49,-125.75C41.6,-119.19 43.17,-109.95 44.59,-101.6"/>
<polygon fill="#63b8ff" stroke="#63b8ff" points="48,-102.38 46.23,-91.93 41.1,-101.21 48,-102.38"/>
<g id="a_edge5&#45;headlabel"><a xlink:href="dir_000237_000067.html" target="_top" xlink:title="8">
<text text-anchor="middle" x="50.46" y="-102.41" font-family="Helvetica,sans-Serif" font-size="10.00" fill="#63b8ff">8</text>
</a>
</g>
</g>
<!-- dir_049738f1909e8dc3e45fe1f6b3faa109 -->
<g id="node5" class="node">
<title>dir_049738f1909e8dc3e45fe1f6b3faa109</title>
<g id="a_node5"><a xlink:href="dir_049738f1909e8dc3e45fe1f6b3faa109.html" target="_top" xlink:title="ee">
<polygon fill="#deebf9" stroke="red" points="163.5,-90 134.5,-90 134.5,-71 163.5,-71 163.5,-90"/>
<text text-anchor="middle" x="149" y="-78" font-family="Helvetica,sans-Serif" font-size="10.00">ee</text>
</a>
</g>
</g>
<!-- dir_b86d8e8cc4ff73a3835f86acf7570149&#45;&gt;dir_049738f1909e8dc3e45fe1f6b3faa109 -->
<g id="edge2" class="edge">
<title>dir_b86d8e8cc4ff73a3835f86acf7570149&#45;&gt;dir_049738f1909e8dc3e45fe1f6b3faa109</title>
<path fill="none" stroke="#63b8ff" d="M54.3,-127.13C72.29,-118.46 102.43,-103.94 123.88,-93.61"/>
<polygon fill="#63b8ff" stroke="#63b8ff" points="125.33,-96.79 132.82,-89.29 122.29,-90.48 125.33,-96.79"/>
<g id="a_edge2&#45;headlabel"><a xlink:href="dir_000237_000040.html" target="_top" xlink:title="1">
<text text-anchor="middle" x="124.69" y="-97.75" font-family="Helvetica,sans-Serif" font-size="10.00" fill="#63b8ff">1</text>
</a>
</g>
</g>
<!-- dir_0981ace215aa2029f526b70c145b9fbe -->
<g id="node6" class="node">
<title>dir_0981ace215aa2029f526b70c145b9fbe</title>
<g id="a_node6"><a xlink:href="dir_0981ace215aa2029f526b70c145b9fbe.html" target="_top" xlink:title="iop">
<polygon fill="#deebf9" stroke="red" points="210.5,-90 181.5,-90 181.5,-71 210.5,-71 210.5,-90"/>
<text text-anchor="middle" x="196" y="-78" font-family="Helvetica,sans-Serif" font-size="10.00">iop</text>
</a>
</g>
</g>
<!-- dir_b86d8e8cc4ff73a3835f86acf7570149&#45;&gt;dir_0981ace215aa2029f526b70c145b9fbe -->
<g id="edge3" class="edge">
<title>dir_b86d8e8cc4ff73a3835f86acf7570149&#45;&gt;dir_0981ace215aa2029f526b70c145b9fbe</title>
<path fill="none" stroke="#63b8ff" d="M54.47,-128.96C57.31,-127.96 60.24,-126.94 63,-126 108.46,-110.51 122.57,-107.31 170.63,-90.73"/>
<polygon fill="#63b8ff" stroke="#63b8ff" points="171.7,-94.06 180,-87.48 169.4,-87.45 171.7,-94.06"/>
<g id="a_edge3&#45;headlabel"><a xlink:href="dir_000237_000159.html" target="_top" xlink:title="18">
<text text-anchor="middle" x="170.67" y="-94.93" font-family="Helvetica,sans-Serif" font-size="10.00" fill="#63b8ff">18</text>
</a>
</g>
</g>
</g>
</svg>
