<?xml version="1.0" encoding="UTF-8" standalone="no"?>
<!DOCTYPE svg PUBLIC "-//W3C//DTD SVG 1.1//EN"
 "http://www.w3.org/Graphics/SVG/1.1/DTD/svg11.dtd">
<!-- Generated by graphviz version 7.0.5 (20221223.1930)
 -->
<!-- Title: ee/rpc/ps2snd/src Pages: 1 -->
<svg width="218pt" height="117pt"
 viewBox="0.00 0.00 217.50 117.00" xmlns="http://www.w3.org/2000/svg" xmlns:xlink="http://www.w3.org/1999/xlink">
<g id="graph0" class="graph" transform="scale(1 1) rotate(0) translate(4 113)">
<title>ee/rpc/ps2snd/src</title>
<g id="clust1" class="cluster">
<title>clusterdir_9257be179ffb1bae505ffa73096b7986</title>
<g id="a_clust1"><a xlink:href="dir_9257be179ffb1bae505ffa73096b7986.html" target="_top" xlink:title="ps2snd">
<polygon fill="#deebf9" stroke="#7f7f7f" stroke-dasharray="5,2" points="71.5,-47 71.5,-101 119.5,-101 119.5,-47 71.5,-47"/>
<text text-anchor="middle" x="95.5" y="-89" font-family="Helvetica,sans-Serif" font-size="10.00">ps2snd</text>
</a>
</g>
</g>
<!-- dir_d236ca42f0241c3c711c47cabfd53918 -->
<g id="node1" class="node">
<title>dir_d236ca42f0241c3c711c47cabfd53918</title>
<g id="a_node1"><a xlink:href="dir_d236ca42f0241c3c711c47cabfd53918.html" target="_top" xlink:title="src">
<polygon fill="#deebf9" stroke="#404040" stroke-width="2" points="110.5,-74 80.5,-74 80.5,-55 110.5,-55 110.5,-74"/>
<text text-anchor="middle" x="95.5" y="-62" font-family="Helvetica,sans-Serif" font-size="10.00">src</text>
</a>
</g>
</g>
<!-- dir_0981ace215aa2029f526b70c145b9fbe -->
<g id="node2" class="node">
<title>dir_0981ace215aa2029f526b70c145b9fbe</title>
<g id="a_node2"><a xlink:href="dir_0981ace215aa2029f526b70c145b9fbe.html" target="_top" xlink:title="iop">
<polygon fill="#deebf9" stroke="red" points="29,-19 0,-19 0,0 29,0 29,-19"/>
<text text-anchor="middle" x="14.5" y="-7" font-family="Helvetica,sans-Serif" font-size="10.00">iop</text>
</a>
</g>
</g>
<!-- dir_d236ca42f0241c3c711c47cabfd53918&#45;&gt;dir_0981ace215aa2029f526b70c145b9fbe -->
<g id="edge1" class="edge">
<title>dir_d236ca42f0241c3c711c47cabfd53918&#45;&gt;dir_0981ace215aa2029f526b70c145b9fbe</title>
<path fill="none" stroke="#63b8ff" d="M81.76,-54.51C69.7,-46.62 51.91,-34.98 37.66,-25.65"/>
<polygon fill="#63b8ff" stroke="#63b8ff" points="39.59,-22.73 29.3,-20.19 35.76,-28.59 39.59,-22.73"/>
<g id="a_edge1&#45;headlabel"><a xlink:href="dir_000277_000159.html" target="_top" xlink:title="1">
<text text-anchor="middle" x="42.88" y="-19" font-family="Helvetica,sans-Serif" font-size="10.00" fill="#63b8ff">1</text>
</a>
</g>
</g>
<!-- dir_694ec83a64f58cbdefbefce65cd1011c -->
<g id="node3" class="node">
<title>dir_694ec83a64f58cbdefbefce65cd1011c</title>
<g id="a_node3"><a xlink:href="dir_694ec83a64f58cbdefbefce65cd1011c.html" target="_top" xlink:title="kernel">
<polygon fill="#deebf9" stroke="red" stroke-dasharray="5,2" points="90,-19 47,-19 47,0 90,0 90,-19"/>
<text text-anchor="middle" x="68.5" y="-7" font-family="Helvetica,sans-Serif" font-size="10.00">kernel</text>
</a>
</g>
</g>
<!-- dir_d236ca42f0241c3c711c47cabfd53918&#45;&gt;dir_694ec83a64f58cbdefbefce65cd1011c -->
<g id="edge2" class="edge">
<title>dir_d236ca42f0241c3c711c47cabfd53918&#45;&gt;dir_694ec83a64f58cbdefbefce65cd1011c</title>
<path fill="none" stroke="#63b8ff" d="M91.04,-54.75C87.55,-47.88 82.55,-38.08 78.15,-29.45"/>
<polygon fill="#63b8ff" stroke="#63b8ff" points="81.4,-28.11 73.74,-20.79 75.16,-31.29 81.4,-28.11"/>
<g id="a_edge2&#45;headlabel"><a xlink:href="dir_000277_000165.html" target="_top" xlink:title="2">
<text text-anchor="middle" x="84.87" y="-26.18" font-family="Helvetica,sans-Serif" font-size="10.00" fill="#63b8ff">2</text>
</a>
</g>
</g>
<!-- dir_a0a8ac7efb6662b749c1285408048e6d -->
<g id="node4" class="node">
<title>dir_a0a8ac7efb6662b749c1285408048e6d</title>
<g id="a_node4"><a xlink:href="dir_a0a8ac7efb6662b749c1285408048e6d.html" target="_top" xlink:title="erl">
<polygon fill="#deebf9" stroke="red" stroke-dasharray="5,2" points="137,-19 108,-19 108,0 137,0 137,-19"/>
<text text-anchor="middle" x="122.5" y="-7" font-family="Helvetica,sans-Serif" font-size="10.00">erl</text>
</a>
</g>
</g>
<!-- dir_d236ca42f0241c3c711c47cabfd53918&#45;&gt;dir_a0a8ac7efb6662b749c1285408048e6d -->
<g id="edge3" class="edge">
<title>dir_d236ca42f0241c3c711c47cabfd53918&#45;&gt;dir_a0a8ac7efb6662b749c1285408048e6d</title>
<path fill="none" stroke="#63b8ff" d="M99.96,-54.75C103.45,-47.88 108.45,-38.08 112.85,-29.45"/>
<polygon fill="#63b8ff" stroke="#63b8ff" points="115.84,-31.29 117.26,-20.79 109.6,-28.11 115.84,-31.29"/>
<g id="a_edge3&#45;headlabel"><a xlink:href="dir_000277_000045.html" target="_top" xlink:title="1">
<text text-anchor="middle" x="117.42" y="-31.93" font-family="Helvetica,sans-Serif" font-size="10.00" fill="#63b8ff">1</text>
</a>
</g>
</g>
<!-- dir_bdd9a5d540de89e9fe90efdfc6973a4f -->
<g id="node5" class="node">
<title>dir_bdd9a5d540de89e9fe90efdfc6973a4f</title>
<g id="a_node5"><a xlink:href="dir_bdd9a5d540de89e9fe90efdfc6973a4f.html" target="_top" xlink:title="common">
<polygon fill="#deebf9" stroke="red" points="209.5,-19 155.5,-19 155.5,0 209.5,0 209.5,-19"/>
<text text-anchor="middle" x="182.5" y="-7" font-family="Helvetica,sans-Serif" font-size="10.00">common</text>
</a>
</g>
</g>
<!-- dir_d236ca42f0241c3c711c47cabfd53918&#45;&gt;dir_bdd9a5d540de89e9fe90efdfc6973a4f -->
<g id="edge4" class="edge">
<title>dir_d236ca42f0241c3c711c47cabfd53918&#45;&gt;dir_bdd9a5d540de89e9fe90efdfc6973a4f</title>
<path fill="none" stroke="#63b8ff" d="M110.26,-54.51C123.46,-46.47 143.06,-34.53 158.51,-25.11"/>
<polygon fill="#63b8ff" stroke="#63b8ff" points="159.95,-28.34 166.67,-20.15 156.31,-22.36 159.95,-28.34"/>
<g id="a_edge4&#45;headlabel"><a xlink:href="dir_000277_000024.html" target="_top" xlink:title="1">
<text text-anchor="middle" x="159.65" y="-29.34" font-family="Helvetica,sans-Serif" font-size="10.00" fill="#63b8ff">1</text>
</a>
</g>
</g>
</g>
</svg>
