<?xml version="1.0" encoding="UTF-8" standalone="no"?>
<!DOCTYPE svg PUBLIC "-//W3C//DTD SVG 1.1//EN"
 "http://www.w3.org/Graphics/SVG/1.1/DTD/svg11.dtd">
<!-- Generated by graphviz version 7.0.5 (20221223.1930)
 -->
<!-- Title: iop/debug Pages: 1 -->
<svg width="358pt" height="196pt"
 viewBox="0.00 0.00 358.00 196.00" xmlns="http://www.w3.org/2000/svg" xmlns:xlink="http://www.w3.org/1999/xlink">
<g id="graph0" class="graph" transform="scale(1 1) rotate(0) translate(4 192)">
<title>iop/debug</title>
<g id="clust1" class="cluster">
<title>clusterdir_0981ace215aa2029f526b70c145b9fbe</title>
<g id="a_clust1"><a xlink:href="dir_0981ace215aa2029f526b70c145b9fbe.html" target="_top" xlink:title="iop">
<polygon fill="#deebf9" stroke="#404040" stroke-dasharray="5,2" points="8,-8 8,-180 288,-180 288,-8 8,-8"/>
<text text-anchor="middle" x="148" y="-168" font-family="Helvetica,sans-Serif" font-size="10.00">iop</text>
</a>
</g>
</g>
<g id="clust2" class="cluster">
<title>clusterdir_8494d76ae2586079db82d45fe3dd6aec</title>
<g id="a_clust2"><a xlink:href="dir_8494d76ae2586079db82d45fe3dd6aec.html" target="_top">
<polygon fill="#deebf9" stroke="#404040" stroke-width="2" points="16,-63 16,-153 280,-153 280,-63 16,-63"/>
</a>
</g>
</g>
<!-- dir_9be0baa3d4a3e9f480a9ee70594037fa -->
<g id="node1" class="node">
<title>dir_9be0baa3d4a3e9f480a9ee70594037fa</title>
<g id="a_node1"><a xlink:href="dir_9be0baa3d4a3e9f480a9ee70594037fa.html" target="_top" xlink:title="kernel">
<polygon fill="#60a2e3" stroke="red" points="155.5,-35 112.5,-35 112.5,-16 155.5,-16 155.5,-35"/>
<text text-anchor="middle" x="134" y="-23" font-family="Helvetica,sans-Serif" font-size="10.00">kernel</text>
</a>
</g>
</g>
<!-- dir_8494d76ae2586079db82d45fe3dd6aec -->
<g id="node2" class="node">
<title>dir_8494d76ae2586079db82d45fe3dd6aec</title>
<text text-anchor="middle" x="250" y="-133" font-family="Helvetica,sans-Serif" font-size="10.00">debug</text>
</g>
<!-- dir_2f080771f6205bbf07c3b5e6545bd3fa -->
<g id="node3" class="node">
<title>dir_2f080771f6205bbf07c3b5e6545bd3fa</title>
<g id="a_node3"><a xlink:href="dir_2f080771f6205bbf07c3b5e6545bd3fa.html" target="_top" xlink:title="iop_sbusdbg">
<polygon fill="#60a2e3" stroke="#404040" points="159.5,-145 88.5,-145 88.5,-126 159.5,-126 159.5,-145"/>
<text text-anchor="middle" x="124" y="-133" font-family="Helvetica,sans-Serif" font-size="10.00">iop_sbusdbg</text>
</a>
</g>
</g>
<!-- dir_2f080771f6205bbf07c3b5e6545bd3fa&#45;&gt;dir_9be0baa3d4a3e9f480a9ee70594037fa -->
<g id="edge2" class="edge">
<title>dir_2f080771f6205bbf07c3b5e6545bd3fa&#45;&gt;dir_9be0baa3d4a3e9f480a9ee70594037fa</title>
<path fill="none" stroke="#63b8ff" d="M124.82,-125.66C126.4,-108.57 129.92,-70.61 132.11,-46.92"/>
<polygon fill="#63b8ff" stroke="#63b8ff" points="135.59,-47.25 133.03,-36.97 128.62,-46.6 135.59,-47.25"/>
<g id="a_edge2&#45;headlabel"><a xlink:href="dir_000160_000166.html" target="_top" xlink:title="30">
<text text-anchor="middle" x="138.23" y="-47.08" font-family="Helvetica,sans-Serif" font-size="10.00" fill="#63b8ff">30</text>
</a>
</g>
</g>
<!-- dir_b128a11f24e38182ade4e9889f6c5833 -->
<g id="node4" class="node">
<title>dir_b128a11f24e38182ade4e9889f6c5833</title>
<g id="a_node4"><a xlink:href="dir_b128a11f24e38182ade4e9889f6c5833.html" target="_top" xlink:title="iopdebug">
<polygon fill="#60a2e3" stroke="#404040" points="219,-90 163,-90 163,-71 219,-71 219,-90"/>
<text text-anchor="middle" x="191" y="-78" font-family="Helvetica,sans-Serif" font-size="10.00">iopdebug</text>
</a>
</g>
</g>
<!-- dir_2f080771f6205bbf07c3b5e6545bd3fa&#45;&gt;dir_b128a11f24e38182ade4e9889f6c5833 -->
<g id="edge3" class="edge">
<title>dir_2f080771f6205bbf07c3b5e6545bd3fa&#45;&gt;dir_b128a11f24e38182ade4e9889f6c5833</title>
<path fill="none" stroke="#63b8ff" d="M135.37,-125.51C145.05,-117.85 159.2,-106.66 170.81,-97.47"/>
<polygon fill="#63b8ff" stroke="#63b8ff" points="172.94,-100.25 178.62,-91.3 168.6,-94.76 172.94,-100.25"/>
<g id="a_edge3&#45;headlabel"><a xlink:href="dir_000160_000161.html" target="_top" xlink:title="4">
<text text-anchor="middle" x="173.07" y="-101.26" font-family="Helvetica,sans-Serif" font-size="10.00" fill="#63b8ff">4</text>
</a>
</g>
</g>
<!-- dir_bdd9a5d540de89e9fe90efdfc6973a4f -->
<g id="node7" class="node">
<title>dir_bdd9a5d540de89e9fe90efdfc6973a4f</title>
<g id="a_node7"><a xlink:href="dir_bdd9a5d540de89e9fe90efdfc6973a4f.html" target="_top" xlink:title="common">
<polygon fill="#deebf9" stroke="red" points="350,-35 296,-35 296,-16 350,-16 350,-35"/>
<text text-anchor="middle" x="323" y="-23" font-family="Helvetica,sans-Serif" font-size="10.00">common</text>
</a>
</g>
</g>
<!-- dir_2f080771f6205bbf07c3b5e6545bd3fa&#45;&gt;dir_bdd9a5d540de89e9fe90efdfc6973a4f -->
<g id="edge1" class="edge">
<title>dir_2f080771f6205bbf07c3b5e6545bd3fa&#45;&gt;dir_bdd9a5d540de89e9fe90efdfc6973a4f</title>
<path fill="none" stroke="#63b8ff" d="M148.13,-125.64C169.6,-117.42 201.58,-104.32 228,-90 254.61,-75.57 283.25,-55.79 302.04,-42.15"/>
<polygon fill="#63b8ff" stroke="#63b8ff" points="303.94,-45.1 309.93,-36.36 299.8,-39.46 303.94,-45.1"/>
<g id="a_edge1&#45;headlabel"><a xlink:href="dir_000160_000024.html" target="_top" xlink:title="12">
<text text-anchor="middle" x="303.94" y="-46.12" font-family="Helvetica,sans-Serif" font-size="10.00" fill="#63b8ff">12</text>
</a>
</g>
</g>
<!-- dir_b128a11f24e38182ade4e9889f6c5833&#45;&gt;dir_9be0baa3d4a3e9f480a9ee70594037fa -->
<g id="edge4" class="edge">
<title>dir_b128a11f24e38182ade4e9889f6c5833&#45;&gt;dir_9be0baa3d4a3e9f480a9ee70594037fa</title>
<path fill="none" stroke="#63b8ff" d="M181.33,-70.51C173.26,-63 161.53,-52.1 151.78,-43.03"/>
<polygon fill="#63b8ff" stroke="#63b8ff" points="154.34,-40.63 144.63,-36.39 149.57,-45.76 154.34,-40.63"/>
<g id="a_edge4&#45;headlabel"><a xlink:href="dir_000161_000166.html" target="_top" xlink:title="18">
<text text-anchor="middle" x="157.8" y="-37.47" font-family="Helvetica,sans-Serif" font-size="10.00" fill="#63b8ff">18</text>
</a>
</g>
</g>
<!-- dir_b128a11f24e38182ade4e9889f6c5833&#45;&gt;dir_bdd9a5d540de89e9fe90efdfc6973a4f -->
<g id="edge5" class="edge">
<title>dir_b128a11f24e38182ade4e9889f6c5833&#45;&gt;dir_bdd9a5d540de89e9fe90efdfc6973a4f</title>
<path fill="none" stroke="#63b8ff" d="M213.39,-70.51C234.57,-62.01 266.59,-49.15 290.56,-39.53"/>
<polygon fill="#63b8ff" stroke="#63b8ff" points="291.56,-42.9 299.53,-35.92 288.95,-36.4 291.56,-42.9"/>
<g id="a_edge5&#45;headlabel"><a xlink:href="dir_000161_000024.html" target="_top" xlink:title="7">
<text text-anchor="middle" x="290.69" y="-43.81" font-family="Helvetica,sans-Serif" font-size="10.00" fill="#63b8ff">7</text>
</a>
</g>
</g>
<!-- dir_43255a50c3a5642889795edf08bb8408 -->
<g id="node5" class="node">
<title>dir_43255a50c3a5642889795edf08bb8408</title>
<g id="a_node5"><a xlink:href="dir_43255a50c3a5642889795edf08bb8408.html" target="_top" xlink:title="ioptrap">
<polygon fill="#60a2e3" stroke="#404040" points="70,-145 24,-145 24,-126 70,-126 70,-145"/>
<text text-anchor="middle" x="47" y="-133" font-family="Helvetica,sans-Serif" font-size="10.00">ioptrap</text>
</a>
</g>
</g>
<!-- dir_43255a50c3a5642889795edf08bb8408&#45;&gt;dir_9be0baa3d4a3e9f480a9ee70594037fa -->
<g id="edge6" class="edge">
<title>dir_43255a50c3a5642889795edf08bb8408&#45;&gt;dir_9be0baa3d4a3e9f480a9ee70594037fa</title>
<path fill="none" stroke="#63b8ff" d="M54.12,-125.66C68.39,-107.94 100.76,-67.77 119.62,-44.35"/>
<polygon fill="#63b8ff" stroke="#63b8ff" points="122.28,-46.62 125.83,-36.64 116.83,-42.23 122.28,-46.62"/>
<g id="a_edge6&#45;headlabel"><a xlink:href="dir_000164_000166.html" target="_top" xlink:title="15">
<text text-anchor="middle" x="123.19" y="-47.52" font-family="Helvetica,sans-Serif" font-size="10.00" fill="#63b8ff">15</text>
</a>
</g>
</g>
<!-- dir_1019ee746f7ebb462d4ffdfca40dcd8c -->
<g id="node6" class="node">
<title>dir_1019ee746f7ebb462d4ffdfca40dcd8c</title>
<g id="a_node6"><a xlink:href="dir_1019ee746f7ebb462d4ffdfca40dcd8c.html" target="_top" xlink:title="sior">
<polygon fill="#60a2e3" stroke="#404040" points="210,-145 178,-145 178,-126 210,-126 210,-145"/>
<text text-anchor="middle" x="194" y="-133" font-family="Helvetica,sans-Serif" font-size="10.00">sior</text>
</a>
</g>
</g>
<!-- dir_1019ee746f7ebb462d4ffdfca40dcd8c&#45;&gt;dir_9be0baa3d4a3e9f480a9ee70594037fa -->
<g id="edge7" class="edge">
<title>dir_1019ee746f7ebb462d4ffdfca40dcd8c&#45;&gt;dir_9be0baa3d4a3e9f480a9ee70594037fa</title>
<path fill="none" stroke="#63b8ff" d="M183.79,-125.55C174.79,-117.18 161.93,-103.89 154,-90 146.18,-76.31 141.02,-59.18 137.9,-46.16"/>
<polygon fill="#63b8ff" stroke="#63b8ff" points="141.38,-45.7 135.84,-36.67 134.54,-47.18 141.38,-45.7"/>
<g id="a_edge7&#45;headlabel"><a xlink:href="dir_000232_000166.html" target="_top" xlink:title="11">
<text text-anchor="middle" x="144.6" y="-44.63" font-family="Helvetica,sans-Serif" font-size="10.00" fill="#63b8ff">11</text>
</a>
</g>
</g>
<!-- dir_1019ee746f7ebb462d4ffdfca40dcd8c&#45;&gt;dir_bdd9a5d540de89e9fe90efdfc6973a4f -->
<g id="edge8" class="edge">
<title>dir_1019ee746f7ebb462d4ffdfca40dcd8c&#45;&gt;dir_bdd9a5d540de89e9fe90efdfc6973a4f</title>
<path fill="none" stroke="#63b8ff" d="M210.35,-128.87C228.81,-121.9 259.01,-108.65 280,-90 294.29,-77.3 306.08,-58.86 313.68,-45.13"/>
<polygon fill="#63b8ff" stroke="#63b8ff" points="316.58,-47.13 318.13,-36.65 310.38,-43.88 316.58,-47.13"/>
<g id="a_edge8&#45;headlabel"><a xlink:href="dir_000232_000024.html" target="_top" xlink:title="2">
<text text-anchor="middle" x="318.12" y="-47.8" font-family="Helvetica,sans-Serif" font-size="10.00" fill="#63b8ff">2</text>
</a>
</g>
</g>
</g>
</svg>
