<?xml version="1.0" encoding="UTF-8" standalone="no"?>
<!DOCTYPE svg PUBLIC "-//W3C//DTD SVG 1.1//EN"
 "http://www.w3.org/Graphics/SVG/1.1/DTD/svg11.dtd">
<!-- Generated by graphviz version 7.0.5 (20221223.1930)
 -->
<!-- Title: ee/network/netman/src Pages: 1 -->
<svg width="227pt" height="125pt"
 viewBox="0.00 0.00 227.00 125.00" xmlns="http://www.w3.org/2000/svg" xmlns:xlink="http://www.w3.org/1999/xlink">
<g id="graph0" class="graph" transform="scale(1 1) rotate(0) translate(4 121)">
<title>ee/network/netman/src</title>
<g id="clust1" class="cluster">
<title>clusterdir_2103a4ed81746d00ca3b9488f9daf9c4</title>
<g id="a_clust1"><a xlink:href="dir_2103a4ed81746d00ca3b9488f9daf9c4.html" target="_top" xlink:title="netman">
<polygon fill="#deebf9" stroke="#7f7f7f" stroke-dasharray="5,2" points="8,-39 8,-109 136,-109 136,-39 8,-39"/>
<text text-anchor="middle" x="72" y="-97" font-family="Helvetica,sans-Serif" font-size="10.00">netman</text>
</a>
</g>
</g>
<g id="clust2" class="cluster">
<title>clusterdir_702336a0435434f6b8cf6e517dc2db4d</title>
<g id="a_clust2"><a xlink:href="dir_702336a0435434f6b8cf6e517dc2db4d.html" target="_top">
<polygon fill="#deebf9" stroke="#404040" stroke-width="2" points="16,-47 16,-82 128,-82 128,-47 16,-47"/>
</a>
</g>
</g>
<!-- dir_702336a0435434f6b8cf6e517dc2db4d -->
<g id="node1" class="node">
<title>dir_702336a0435434f6b8cf6e517dc2db4d</title>
<text text-anchor="middle" x="105" y="-62" font-family="Helvetica,sans-Serif" font-size="10.00">src</text>
</g>
<!-- dir_0981ace215aa2029f526b70c145b9fbe -->
<g id="node3" class="node">
<title>dir_0981ace215aa2029f526b70c145b9fbe</title>
<g id="a_node3"><a xlink:href="dir_0981ace215aa2029f526b70c145b9fbe.html" target="_top" xlink:title="iop">
<polygon fill="#deebf9" stroke="red" points="38.5,-19 9.5,-19 9.5,0 38.5,0 38.5,-19"/>
<text text-anchor="middle" x="24" y="-7" font-family="Helvetica,sans-Serif" font-size="10.00">iop</text>
</a>
</g>
</g>
<!-- dir_702336a0435434f6b8cf6e517dc2db4d&#45;&gt;dir_0981ace215aa2029f526b70c145b9fbe -->
<g id="edge1" class="edge">
<title>dir_702336a0435434f6b8cf6e517dc2db4d&#45;&gt;dir_0981ace215aa2029f526b70c145b9fbe</title>
<path fill="none" stroke="#63b8ff" d="M97.67,-55.12C92.96,-50.05 86.51,-43.68 80,-39 70.5,-32.18 59.14,-26.07 49.13,-21.27"/>
<polygon fill="#63b8ff" stroke="#63b8ff" points="50.89,-18.23 40.34,-17.25 47.98,-24.59 50.89,-18.23"/>
<g id="a_edge1&#45;headlabel"><a xlink:href="dir_000261_000159.html" target="_top" xlink:title="1">
<text text-anchor="middle" x="53.97" y="-14.02" font-family="Helvetica,sans-Serif" font-size="10.00" fill="#63b8ff">1</text>
</a>
</g>
</g>
<!-- dir_694ec83a64f58cbdefbefce65cd1011c -->
<g id="node4" class="node">
<title>dir_694ec83a64f58cbdefbefce65cd1011c</title>
<g id="a_node4"><a xlink:href="dir_694ec83a64f58cbdefbefce65cd1011c.html" target="_top" xlink:title="kernel">
<polygon fill="#deebf9" stroke="red" stroke-dasharray="5,2" points="99.5,-19 56.5,-19 56.5,0 99.5,0 99.5,-19"/>
<text text-anchor="middle" x="78" y="-7" font-family="Helvetica,sans-Serif" font-size="10.00">kernel</text>
</a>
</g>
</g>
<!-- dir_702336a0435434f6b8cf6e517dc2db4d&#45;&gt;dir_694ec83a64f58cbdefbefce65cd1011c -->
<g id="edge2" class="edge">
<title>dir_702336a0435434f6b8cf6e517dc2db4d&#45;&gt;dir_694ec83a64f58cbdefbefce65cd1011c</title>
<path fill="none" stroke="#63b8ff" d="M100.78,-55.22C97.28,-48.34 92.16,-38.29 87.66,-29.46"/>
<polygon fill="#63b8ff" stroke="#63b8ff" points="90.8,-27.92 83.15,-20.6 84.57,-31.1 90.8,-27.92"/>
<g id="a_edge2&#45;headlabel"><a xlink:href="dir_000261_000165.html" target="_top" xlink:title="3">
<text text-anchor="middle" x="94.28" y="-25.99" font-family="Helvetica,sans-Serif" font-size="10.00" fill="#63b8ff">3</text>
</a>
</g>
</g>
<!-- dir_a0a8ac7efb6662b749c1285408048e6d -->
<g id="node5" class="node">
<title>dir_a0a8ac7efb6662b749c1285408048e6d</title>
<g id="a_node5"><a xlink:href="dir_a0a8ac7efb6662b749c1285408048e6d.html" target="_top" xlink:title="erl">
<polygon fill="#deebf9" stroke="red" stroke-dasharray="5,2" points="146.5,-19 117.5,-19 117.5,0 146.5,0 146.5,-19"/>
<text text-anchor="middle" x="132" y="-7" font-family="Helvetica,sans-Serif" font-size="10.00">erl</text>
</a>
</g>
</g>
<!-- dir_702336a0435434f6b8cf6e517dc2db4d&#45;&gt;dir_a0a8ac7efb6662b749c1285408048e6d -->
<g id="edge3" class="edge">
<title>dir_702336a0435434f6b8cf6e517dc2db4d&#45;&gt;dir_a0a8ac7efb6662b749c1285408048e6d</title>
<path fill="none" stroke="#63b8ff" d="M109.22,-55.22C112.72,-48.34 117.84,-38.29 122.34,-29.46"/>
<polygon fill="#63b8ff" stroke="#63b8ff" points="125.43,-31.1 126.85,-20.6 119.2,-27.92 125.43,-31.1"/>
<g id="a_edge3&#45;headlabel"><a xlink:href="dir_000261_000045.html" target="_top" xlink:title="1">
<text text-anchor="middle" x="127.02" y="-31.74" font-family="Helvetica,sans-Serif" font-size="10.00" fill="#63b8ff">1</text>
</a>
</g>
</g>
<!-- dir_bdd9a5d540de89e9fe90efdfc6973a4f -->
<g id="node6" class="node">
<title>dir_bdd9a5d540de89e9fe90efdfc6973a4f</title>
<g id="a_node6"><a xlink:href="dir_bdd9a5d540de89e9fe90efdfc6973a4f.html" target="_top" xlink:title="common">
<polygon fill="#deebf9" stroke="red" points="219,-19 165,-19 165,0 219,0 219,-19"/>
<text text-anchor="middle" x="192" y="-7" font-family="Helvetica,sans-Serif" font-size="10.00">common</text>
</a>
</g>
</g>
<!-- dir_702336a0435434f6b8cf6e517dc2db4d&#45;&gt;dir_bdd9a5d540de89e9fe90efdfc6973a4f -->
<g id="edge4" class="edge">
<title>dir_702336a0435434f6b8cf6e517dc2db4d&#45;&gt;dir_bdd9a5d540de89e9fe90efdfc6973a4f</title>
<path fill="none" stroke="#63b8ff" d="M118.59,-55.22C131.69,-47.24 151.79,-35 167.65,-25.34"/>
<polygon fill="#63b8ff" stroke="#63b8ff" points="169.33,-28.41 176.05,-20.22 165.69,-22.43 169.33,-28.41"/>
<g id="a_edge4&#45;headlabel"><a xlink:href="dir_000261_000024.html" target="_top" xlink:title="9">
<text text-anchor="middle" x="169.03" y="-29.42" font-family="Helvetica,sans-Serif" font-size="10.00" fill="#63b8ff">9</text>
</a>
</g>
</g>
<!-- dir_6ff4c5f15c2219ca21327ddbc0ba9850 -->
<g id="node2" class="node">
<title>dir_6ff4c5f15c2219ca21327ddbc0ba9850</title>
<g id="a_node2"><a xlink:href="dir_6ff4c5f15c2219ca21327ddbc0ba9850.html" target="_top" xlink:title="include">
<polygon fill="#60a2e3" stroke="#404040" points="71.5,-74 24.5,-74 24.5,-55 71.5,-55 71.5,-74"/>
<text text-anchor="middle" x="48" y="-62" font-family="Helvetica,sans-Serif" font-size="10.00">include</text>
</a>
</g>
</g>
</g>
</svg>
