<?xml version="1.0" encoding="UTF-8" standalone="no"?>
<!DOCTYPE svg PUBLIC "-//W3C//DTD SVG 1.1//EN"
 "http://www.w3.org/Graphics/SVG/1.1/DTD/svg11.dtd">
<!-- Generated by graphviz version 7.0.5 (20221223.1930)
 -->
<!-- Title: iop/dev9/extflash Pages: 1 -->
<svg width="318pt" height="149pt"
 viewBox="0.00 0.00 318.00 149.00" xmlns="http://www.w3.org/2000/svg" xmlns:xlink="http://www.w3.org/1999/xlink">
<g id="graph0" class="graph" transform="scale(1 1) rotate(0) translate(4 145)">
<title>iop/dev9/extflash</title>
<g id="clust1" class="cluster">
<title>clusterdir_6f16cad81de2453a6f48c5e272ba4a18</title>
<g id="a_clust1"><a xlink:href="dir_6f16cad81de2453a6f48c5e272ba4a18.html" target="_top" xlink:title="dev9">
<polygon fill="#deebf9" stroke="#7f7f7f" stroke-dasharray="5,2" points="8,-8 8,-133 184,-133 184,-8 8,-8"/>
<text text-anchor="middle" x="96" y="-121" font-family="Helvetica,sans-Serif" font-size="10.00">dev9</text>
</a>
</g>
</g>
<g id="clust2" class="cluster">
<title>clusterdir_f44f46f2cd21d59a913dd7de442a4869</title>
<g id="a_clust2"><a xlink:href="dir_f44f46f2cd21d59a913dd7de442a4869.html" target="_top">
<polygon fill="#deebf9" stroke="#404040" stroke-width="2" points="16,-16 16,-106 130,-106 130,-16 16,-16"/>
</a>
</g>
</g>
<!-- dir_18566863331aaba44604539ca78be099 -->
<g id="node1" class="node">
<title>dir_18566863331aaba44604539ca78be099</title>
<g id="a_node1"><a xlink:href="dir_18566863331aaba44604539ca78be099.html" target="_top" xlink:title="dev9">
<polygon fill="#60a2e3" stroke="red" points="176,-43 138,-43 138,-24 176,-24 176,-43"/>
<text text-anchor="middle" x="157" y="-31" font-family="Helvetica,sans-Serif" font-size="10.00">dev9</text>
</a>
</g>
</g>
<!-- dir_f44f46f2cd21d59a913dd7de442a4869 -->
<g id="node2" class="node">
<title>dir_f44f46f2cd21d59a913dd7de442a4869</title>
<text text-anchor="middle" x="97" y="-86" font-family="Helvetica,sans-Serif" font-size="10.00">extflash</text>
</g>
<!-- dir_465291803e00dfefa1e1a83db7deacb1 -->
<g id="node3" class="node">
<title>dir_465291803e00dfefa1e1a83db7deacb1</title>
<g id="a_node3"><a xlink:href="dir_465291803e00dfefa1e1a83db7deacb1.html" target="_top" xlink:title="include">
<polygon fill="#60a2e3" stroke="#404040" points="71.5,-43 24.5,-43 24.5,-24 71.5,-24 71.5,-43"/>
<text text-anchor="middle" x="48" y="-31" font-family="Helvetica,sans-Serif" font-size="10.00">include</text>
</a>
</g>
</g>
<!-- dir_0a4671ad047c01d5afa56274ab81ddbc -->
<g id="node4" class="node">
<title>dir_0a4671ad047c01d5afa56274ab81ddbc</title>
<g id="a_node4"><a xlink:href="dir_0a4671ad047c01d5afa56274ab81ddbc.html" target="_top" xlink:title="src">
<polygon fill="#60a2e3" stroke="#404040" points="54,-98 24,-98 24,-79 54,-79 54,-98"/>
<text text-anchor="middle" x="39" y="-86" font-family="Helvetica,sans-Serif" font-size="10.00">src</text>
</a>
</g>
</g>
<!-- dir_0a4671ad047c01d5afa56274ab81ddbc&#45;&gt;dir_18566863331aaba44604539ca78be099 -->
<g id="edge1" class="edge">
<title>dir_0a4671ad047c01d5afa56274ab81ddbc&#45;&gt;dir_18566863331aaba44604539ca78be099</title>
<path fill="none" stroke="#63b8ff" d="M54.43,-80.57C72.87,-72.29 104.15,-58.24 127.33,-47.83"/>
<polygon fill="#63b8ff" stroke="#63b8ff" points="128.58,-51.1 136.27,-43.81 125.71,-44.72 128.58,-51.1"/>
<g id="a_edge1&#45;headlabel"><a xlink:href="dir_000290_000029.html" target="_top" xlink:title="1">
<text text-anchor="middle" x="127.85" y="-52.04" font-family="Helvetica,sans-Serif" font-size="10.00" fill="#63b8ff">1</text>
</a>
</g>
</g>
<!-- dir_0a4671ad047c01d5afa56274ab81ddbc&#45;&gt;dir_465291803e00dfefa1e1a83db7deacb1 -->
<g id="edge2" class="edge">
<title>dir_0a4671ad047c01d5afa56274ab81ddbc&#45;&gt;dir_465291803e00dfefa1e1a83db7deacb1</title>
<path fill="none" stroke="#63b8ff" d="M40.49,-78.75C41.6,-72.19 43.17,-62.95 44.59,-54.6"/>
<polygon fill="#63b8ff" stroke="#63b8ff" points="48,-55.38 46.23,-44.93 41.1,-54.21 48,-55.38"/>
<g id="a_edge2&#45;headlabel"><a xlink:href="dir_000290_000113.html" target="_top" xlink:title="1">
<text text-anchor="middle" x="50.46" y="-55.41" font-family="Helvetica,sans-Serif" font-size="10.00" fill="#63b8ff">1</text>
</a>
</g>
</g>
<!-- dir_9be0baa3d4a3e9f480a9ee70594037fa -->
<g id="node5" class="node">
<title>dir_9be0baa3d4a3e9f480a9ee70594037fa</title>
<g id="a_node5"><a xlink:href="dir_9be0baa3d4a3e9f480a9ee70594037fa.html" target="_top" xlink:title="kernel">
<polygon fill="#deebf9" stroke="red" stroke-dasharray="5,2" points="237.5,-43 194.5,-43 194.5,-24 237.5,-24 237.5,-43"/>
<text text-anchor="middle" x="216" y="-31" font-family="Helvetica,sans-Serif" font-size="10.00">kernel</text>
</a>
</g>
</g>
<!-- dir_0a4671ad047c01d5afa56274ab81ddbc&#45;&gt;dir_9be0baa3d4a3e9f480a9ee70594037fa -->
<g id="edge3" class="edge">
<title>dir_0a4671ad047c01d5afa56274ab81ddbc&#45;&gt;dir_9be0baa3d4a3e9f480a9ee70594037fa</title>
<path fill="none" stroke="#63b8ff" d="M54.45,-81.88C57.28,-80.89 60.22,-79.89 63,-79 114.61,-62.45 130.59,-59.7 183.26,-44.36"/>
<polygon fill="#63b8ff" stroke="#63b8ff" points="184.24,-47.72 192.85,-41.55 182.27,-41.01 184.24,-47.72"/>
<g id="a_edge3&#45;headlabel"><a xlink:href="dir_000290_000166.html" target="_top" xlink:title="19">
<text text-anchor="middle" x="183.05" y="-48.53" font-family="Helvetica,sans-Serif" font-size="10.00" fill="#63b8ff">19</text>
</a>
</g>
</g>
<!-- dir_bdd9a5d540de89e9fe90efdfc6973a4f -->
<g id="node6" class="node">
<title>dir_bdd9a5d540de89e9fe90efdfc6973a4f</title>
<g id="a_node6"><a xlink:href="dir_bdd9a5d540de89e9fe90efdfc6973a4f.html" target="_top" xlink:title="common">
<polygon fill="#deebf9" stroke="red" points="310,-43 256,-43 256,-24 310,-24 310,-43"/>
<text text-anchor="middle" x="283" y="-31" font-family="Helvetica,sans-Serif" font-size="10.00">common</text>
</a>
</g>
</g>
<!-- dir_0a4671ad047c01d5afa56274ab81ddbc&#45;&gt;dir_bdd9a5d540de89e9fe90efdfc6973a4f -->
<g id="edge4" class="edge">
<title>dir_0a4671ad047c01d5afa56274ab81ddbc&#45;&gt;dir_bdd9a5d540de89e9fe90efdfc6973a4f</title>
<path fill="none" stroke="#63b8ff" d="M54.39,-81.67C57.23,-80.71 60.19,-79.77 63,-79 139.93,-57.98 163.53,-60.32 244.28,-43.49"/>
<polygon fill="#63b8ff" stroke="#63b8ff" points="244.97,-46.92 254.03,-41.42 243.52,-40.08 244.97,-46.92"/>
<g id="a_edge4&#45;headlabel"><a xlink:href="dir_000290_000024.html" target="_top" xlink:title="2">
<text text-anchor="middle" x="243.53" y="-47.63" font-family="Helvetica,sans-Serif" font-size="10.00" fill="#63b8ff">2</text>
</a>
</g>
</g>
</g>
</svg>
