<?xml version="1.0" encoding="UTF-8" standalone="no"?>
<!DOCTYPE svg PUBLIC "-//W3C//DTD SVG 1.1//EN"
 "http://www.w3.org/Graphics/SVG/1.1/DTD/svg11.dtd">
<!-- Generated by graphviz version 7.0.5 (20221223.1930)
 -->
<!-- Title: ee/elf&#45;loader/src Pages: 1 -->
<svg width="177pt" height="125pt"
 viewBox="0.00 0.00 176.50 125.00" xmlns="http://www.w3.org/2000/svg" xmlns:xlink="http://www.w3.org/1999/xlink">
<g id="graph0" class="graph" transform="scale(1 1) rotate(0) translate(4 121)">
<title>ee/elf&#45;loader/src</title>
<g id="clust1" class="cluster">
<title>clusterdir_e299e00cada893e7503c7ad35bb90f27</title>
<g id="a_clust1"><a xlink:href="dir_e299e00cada893e7503c7ad35bb90f27.html" target="_top" xlink:title="elf&#45;loader">
<polygon fill="#deebf9" stroke="#7f7f7f" stroke-dasharray="5,2" points="8,-39 8,-109 132,-109 132,-39 8,-39"/>
<text text-anchor="middle" x="70" y="-97" font-family="Helvetica,sans-Serif" font-size="10.00">elf&#45;loader</text>
</a>
</g>
</g>
<g id="clust2" class="cluster">
<title>clusterdir_c2745311b335edcded8abb10f5a23735</title>
<g id="a_clust2"><a xlink:href="dir_c2745311b335edcded8abb10f5a23735.html" target="_top">
<polygon fill="#deebf9" stroke="#404040" stroke-width="2" points="16,-47 16,-82 124,-82 124,-47 16,-47"/>
</a>
</g>
</g>
<!-- dir_c2745311b335edcded8abb10f5a23735 -->
<g id="node1" class="node">
<title>dir_c2745311b335edcded8abb10f5a23735</title>
<text text-anchor="middle" x="39" y="-62" font-family="Helvetica,sans-Serif" font-size="10.00">src</text>
</g>
<!-- dir_694ec83a64f58cbdefbefce65cd1011c -->
<g id="node3" class="node">
<title>dir_694ec83a64f58cbdefbefce65cd1011c</title>
<g id="a_node3"><a xlink:href="dir_694ec83a64f58cbdefbefce65cd1011c.html" target="_top" xlink:title="kernel">
<polygon fill="#deebf9" stroke="red" stroke-dasharray="5,2" points="48.5,-19 5.5,-19 5.5,0 48.5,0 48.5,-19"/>
<text text-anchor="middle" x="27" y="-7" font-family="Helvetica,sans-Serif" font-size="10.00">kernel</text>
</a>
</g>
</g>
<!-- dir_c2745311b335edcded8abb10f5a23735&#45;&gt;dir_694ec83a64f58cbdefbefce65cd1011c -->
<g id="edge1" class="edge">
<title>dir_c2745311b335edcded8abb10f5a23735&#45;&gt;dir_694ec83a64f58cbdefbefce65cd1011c</title>
<path fill="none" stroke="#63b8ff" d="M37.12,-55.22C35.62,-48.57 33.44,-38.96 31.49,-30.34"/>
<polygon fill="#63b8ff" stroke="#63b8ff" points="34.94,-29.71 29.32,-20.73 28.11,-31.25 34.94,-29.71"/>
<g id="a_edge1&#45;headlabel"><a xlink:href="dir_000242_000165.html" target="_top" xlink:title="4">
<text text-anchor="middle" x="38.17" y="-28.61" font-family="Helvetica,sans-Serif" font-size="10.00" fill="#63b8ff">4</text>
</a>
</g>
</g>
<!-- dir_bdd9a5d540de89e9fe90efdfc6973a4f -->
<g id="node4" class="node">
<title>dir_bdd9a5d540de89e9fe90efdfc6973a4f</title>
<g id="a_node4"><a xlink:href="dir_bdd9a5d540de89e9fe90efdfc6973a4f.html" target="_top" xlink:title="common">
<polygon fill="#deebf9" stroke="red" points="121,-19 67,-19 67,0 121,0 121,-19"/>
<text text-anchor="middle" x="94" y="-7" font-family="Helvetica,sans-Serif" font-size="10.00">common</text>
</a>
</g>
</g>
<!-- dir_c2745311b335edcded8abb10f5a23735&#45;&gt;dir_bdd9a5d540de89e9fe90efdfc6973a4f -->
<g id="edge2" class="edge">
<title>dir_c2745311b335edcded8abb10f5a23735&#45;&gt;dir_bdd9a5d540de89e9fe90efdfc6973a4f</title>
<path fill="none" stroke="#63b8ff" d="M46.89,-55.23C51.53,-50.43 57.53,-44.3 63,-39 67.12,-35.01 71.62,-30.8 75.88,-26.86"/>
<polygon fill="#63b8ff" stroke="#63b8ff" points="77.96,-29.7 82.99,-20.38 73.24,-24.53 77.96,-29.7"/>
<g id="a_edge2&#45;headlabel"><a xlink:href="dir_000242_000024.html" target="_top" xlink:title="2">
<text text-anchor="middle" x="78.34" y="-30.7" font-family="Helvetica,sans-Serif" font-size="10.00" fill="#63b8ff">2</text>
</a>
</g>
</g>
<!-- dir_a823facde94c6bc1001721fbc16ab82f -->
<g id="node2" class="node">
<title>dir_a823facde94c6bc1001721fbc16ab82f</title>
<g id="a_node2"><a xlink:href="dir_a823facde94c6bc1001721fbc16ab82f.html" target="_top" xlink:title="loader">
<polygon fill="#60a2e3" stroke="#404040" points="115.5,-74 72.5,-74 72.5,-55 115.5,-55 115.5,-74"/>
<text text-anchor="middle" x="94" y="-62" font-family="Helvetica,sans-Serif" font-size="10.00">loader</text>
</a>
</g>
</g>
<!-- dir_a823facde94c6bc1001721fbc16ab82f&#45;&gt;dir_694ec83a64f58cbdefbefce65cd1011c -->
<g id="edge4" class="edge">
<title>dir_a823facde94c6bc1001721fbc16ab82f&#45;&gt;dir_694ec83a64f58cbdefbefce65cd1011c</title>
<path fill="none" stroke="#63b8ff" d="M82.63,-54.51C72.95,-46.85 58.8,-35.66 47.19,-26.47"/>
<polygon fill="#63b8ff" stroke="#63b8ff" points="49.4,-23.76 39.38,-20.3 45.06,-29.25 49.4,-23.76"/>
<g id="a_edge4&#45;headlabel"><a xlink:href="dir_000178_000165.html" target="_top" xlink:title="3">
<text text-anchor="middle" x="52.79" y="-20.32" font-family="Helvetica,sans-Serif" font-size="10.00" fill="#63b8ff">3</text>
</a>
</g>
</g>
<!-- dir_a823facde94c6bc1001721fbc16ab82f&#45;&gt;dir_bdd9a5d540de89e9fe90efdfc6973a4f -->
<g id="edge5" class="edge">
<title>dir_a823facde94c6bc1001721fbc16ab82f&#45;&gt;dir_bdd9a5d540de89e9fe90efdfc6973a4f</title>
<path fill="none" stroke="#63b8ff" d="M94,-54.75C94,-48.27 94,-39.16 94,-30.9"/>
<polygon fill="#63b8ff" stroke="#63b8ff" points="97.5,-30.96 94,-20.96 90.5,-30.96 97.5,-30.96"/>
<g id="a_edge5&#45;headlabel"><a xlink:href="dir_000178_000024.html" target="_top" xlink:title="1">
<text text-anchor="middle" x="100.34" y="-30.54" font-family="Helvetica,sans-Serif" font-size="10.00" fill="#63b8ff">1</text>
</a>
</g>
</g>
<!-- dir_0981ace215aa2029f526b70c145b9fbe -->
<g id="node5" class="node">
<title>dir_0981ace215aa2029f526b70c145b9fbe</title>
<g id="a_node5"><a xlink:href="dir_0981ace215aa2029f526b70c145b9fbe.html" target="_top" xlink:title="iop">
<polygon fill="#deebf9" stroke="red" points="168.5,-19 139.5,-19 139.5,0 168.5,0 168.5,-19"/>
<text text-anchor="middle" x="154" y="-7" font-family="Helvetica,sans-Serif" font-size="10.00">iop</text>
</a>
</g>
</g>
<!-- dir_a823facde94c6bc1001721fbc16ab82f&#45;&gt;dir_0981ace215aa2029f526b70c145b9fbe -->
<g id="edge3" class="edge">
<title>dir_a823facde94c6bc1001721fbc16ab82f&#45;&gt;dir_0981ace215aa2029f526b70c145b9fbe</title>
<path fill="none" stroke="#63b8ff" d="M104.18,-54.51C112.76,-46.93 125.27,-35.88 135.6,-26.75"/>
<polygon fill="#63b8ff" stroke="#63b8ff" points="137.66,-29.6 142.84,-20.36 133.03,-24.36 137.66,-29.6"/>
<g id="a_edge3&#45;headlabel"><a xlink:href="dir_000178_000159.html" target="_top" xlink:title="1">
<text text-anchor="middle" x="137.98" y="-30.61" font-family="Helvetica,sans-Serif" font-size="10.00" fill="#63b8ff">1</text>
</a>
</g>
</g>
</g>
</svg>
