<?xml version="1.0" encoding="UTF-8" standalone="no"?>
<!DOCTYPE svg PUBLIC "-//W3C//DTD SVG 1.1//EN"
 "http://www.w3.org/Graphics/SVG/1.1/DTD/svg11.dtd">
<!-- Generated by graphviz version 7.0.5 (20221223.1930)
 -->
<!-- Title: iop/system/siftoo/src Pages: 1 -->
<svg width="202pt" height="133pt"
 viewBox="0.00 0.00 201.50 133.00" xmlns="http://www.w3.org/2000/svg" xmlns:xlink="http://www.w3.org/1999/xlink">
<g id="graph0" class="graph" transform="scale(1 1) rotate(0) translate(4 129)">
<title>iop/system/siftoo/src</title>
<g id="clust1" class="cluster">
<title>clusterdir_c3fae06f71c3e401160299d109ef6df7</title>
<g id="a_clust1"><a xlink:href="dir_c3fae06f71c3e401160299d109ef6df7.html" target="_top" xlink:title="siftoo">
<polygon fill="#deebf9" stroke="#7f7f7f" stroke-dasharray="5,2" points="8,-8 8,-117 72,-117 72,-8 8,-8"/>
<text text-anchor="middle" x="40" y="-105" font-family="Helvetica,sans-Serif" font-size="10.00">siftoo</text>
</a>
</g>
</g>
<!-- dir_1a0c1cc6a62ce99b34521e1896eac836 -->
<g id="node1" class="node">
<title>dir_1a0c1cc6a62ce99b34521e1896eac836</title>
<g id="a_node1"><a xlink:href="dir_1a0c1cc6a62ce99b34521e1896eac836.html" target="_top" xlink:title="include">
<polygon fill="#60a2e3" stroke="#404040" points="63.5,-35 16.5,-35 16.5,-16 63.5,-16 63.5,-35"/>
<text text-anchor="middle" x="40" y="-23" font-family="Helvetica,sans-Serif" font-size="10.00">include</text>
</a>
</g>
</g>
<!-- dir_56c96d436b95cd5650376ca3df086363 -->
<g id="node2" class="node">
<title>dir_56c96d436b95cd5650376ca3df086363</title>
<g id="a_node2"><a xlink:href="dir_56c96d436b95cd5650376ca3df086363.html" target="_top" xlink:title="src">
<polygon fill="#deebf9" stroke="#404040" stroke-width="2" points="64,-90 34,-90 34,-71 64,-71 64,-90"/>
<text text-anchor="middle" x="49" y="-78" font-family="Helvetica,sans-Serif" font-size="10.00">src</text>
</a>
</g>
</g>
<!-- dir_56c96d436b95cd5650376ca3df086363&#45;&gt;dir_1a0c1cc6a62ce99b34521e1896eac836 -->
<g id="edge1" class="edge">
<title>dir_56c96d436b95cd5650376ca3df086363&#45;&gt;dir_1a0c1cc6a62ce99b34521e1896eac836</title>
<path fill="none" stroke="#63b8ff" d="M47.51,-70.75C46.4,-64.19 44.83,-54.95 43.41,-46.6"/>
<polygon fill="#63b8ff" stroke="#63b8ff" points="46.9,-46.21 41.77,-36.93 40,-47.38 46.9,-46.21"/>
<g id="a_edge1&#45;headlabel"><a xlink:href="dir_000342_000145.html" target="_top" xlink:title="2">
<text text-anchor="middle" x="50.04" y="-45.28" font-family="Helvetica,sans-Serif" font-size="10.00" fill="#63b8ff">2</text>
</a>
</g>
</g>
<!-- dir_4bae4802256ab45fc18d13b3c6375605 -->
<g id="node3" class="node">
<title>dir_4bae4802256ab45fc18d13b3c6375605</title>
<g id="a_node3"><a xlink:href="dir_4bae4802256ab45fc18d13b3c6375605.html" target="_top" xlink:title="sbusintr">
<polygon fill="#deebf9" stroke="red" stroke-dasharray="5,2" points="132.5,-35 81.5,-35 81.5,-16 132.5,-16 132.5,-35"/>
<text text-anchor="middle" x="107" y="-23" font-family="Helvetica,sans-Serif" font-size="10.00">sbusintr</text>
</a>
</g>
</g>
<!-- dir_56c96d436b95cd5650376ca3df086363&#45;&gt;dir_4bae4802256ab45fc18d13b3c6375605 -->
<g id="edge2" class="edge">
<title>dir_56c96d436b95cd5650376ca3df086363&#45;&gt;dir_4bae4802256ab45fc18d13b3c6375605</title>
<path fill="none" stroke="#63b8ff" d="M58.84,-70.51C67.05,-63 78.98,-52.1 88.91,-43.03"/>
<polygon fill="#63b8ff" stroke="#63b8ff" points="91.17,-45.71 96.19,-36.38 86.45,-40.54 91.17,-45.71"/>
<g id="a_edge2&#45;headlabel"><a xlink:href="dir_000342_000222.html" target="_top" xlink:title="3">
<text text-anchor="middle" x="91.55" y="-46.71" font-family="Helvetica,sans-Serif" font-size="10.00" fill="#63b8ff">3</text>
</a>
</g>
</g>
<!-- dir_9be0baa3d4a3e9f480a9ee70594037fa -->
<g id="node4" class="node">
<title>dir_9be0baa3d4a3e9f480a9ee70594037fa</title>
<g id="a_node4"><a xlink:href="dir_9be0baa3d4a3e9f480a9ee70594037fa.html" target="_top" xlink:title="kernel">
<polygon fill="#deebf9" stroke="red" stroke-dasharray="5,2" points="193.5,-35 150.5,-35 150.5,-16 193.5,-16 193.5,-35"/>
<text text-anchor="middle" x="172" y="-23" font-family="Helvetica,sans-Serif" font-size="10.00">kernel</text>
</a>
</g>
</g>
<!-- dir_56c96d436b95cd5650376ca3df086363&#45;&gt;dir_9be0baa3d4a3e9f480a9ee70594037fa -->
<g id="edge3" class="edge">
<title>dir_56c96d436b95cd5650376ca3df086363&#45;&gt;dir_9be0baa3d4a3e9f480a9ee70594037fa</title>
<path fill="none" stroke="#63b8ff" d="M64.33,-72.89C83.32,-64.71 116.14,-50.57 140.57,-40.04"/>
<polygon fill="#63b8ff" stroke="#63b8ff" points="141.94,-43.27 149.73,-36.09 139.17,-36.84 141.94,-43.27"/>
<g id="a_edge3&#45;headlabel"><a xlink:href="dir_000342_000166.html" target="_top" xlink:title="12">
<text text-anchor="middle" x="141.15" y="-44.2" font-family="Helvetica,sans-Serif" font-size="10.00" fill="#63b8ff">12</text>
</a>
</g>
</g>
</g>
</svg>
