<?xml version="1.0" encoding="UTF-8" standalone="no"?>
<!DOCTYPE svg PUBLIC "-//W3C//DTD SVG 1.1//EN"
 "http://www.w3.org/Graphics/SVG/1.1/DTD/svg11.dtd">
<!-- Generated by graphviz version 7.0.5 (20221223.1930)
 -->
<!-- Title: ee/sbv Pages: 1 -->
<svg width="238pt" height="180pt"
 viewBox="0.00 0.00 237.98 180.00" xmlns="http://www.w3.org/2000/svg" xmlns:xlink="http://www.w3.org/1999/xlink">
<g id="graph0" class="graph" transform="scale(1 1) rotate(0) translate(4 176)">
<title>ee/sbv</title>
<g id="clust1" class="cluster">
<title>clusterdir_049738f1909e8dc3e45fe1f6b3faa109</title>
<g id="a_clust1"><a xlink:href="dir_049738f1909e8dc3e45fe1f6b3faa109.html" target="_top" xlink:title="ee">
<polygon fill="#deebf9" stroke="#404040" stroke-dasharray="5,2" points="8,-39 8,-164 219,-164 219,-39 8,-39"/>
<text text-anchor="middle" x="113.5" y="-152" font-family="Helvetica,sans-Serif" font-size="10.00">ee</text>
</a>
</g>
</g>
<g id="clust2" class="cluster">
<title>clusterdir_3c99d3595cafa99f0e2683197c97edf9</title>
<g id="a_clust2"><a xlink:href="dir_3c99d3595cafa99f0e2683197c97edf9.html" target="_top">
<polygon fill="#deebf9" stroke="#404040" stroke-width="2" points="16,-47 16,-137 112,-137 112,-47 16,-47"/>
</a>
</g>
</g>
<!-- dir_694ec83a64f58cbdefbefce65cd1011c -->
<g id="node1" class="node">
<title>dir_694ec83a64f58cbdefbefce65cd1011c</title>
<g id="a_node1"><a xlink:href="dir_694ec83a64f58cbdefbefce65cd1011c.html" target="_top" xlink:title="kernel">
<polygon fill="#60a2e3" stroke="red" points="163.5,-74 120.5,-74 120.5,-55 163.5,-55 163.5,-74"/>
<text text-anchor="middle" x="142" y="-62" font-family="Helvetica,sans-Serif" font-size="10.00">kernel</text>
</a>
</g>
</g>
<!-- dir_a0a8ac7efb6662b749c1285408048e6d -->
<g id="node2" class="node">
<title>dir_a0a8ac7efb6662b749c1285408048e6d</title>
<g id="a_node2"><a xlink:href="dir_a0a8ac7efb6662b749c1285408048e6d.html" target="_top" xlink:title="erl">
<polygon fill="#60a2e3" stroke="red" points="210.5,-74 181.5,-74 181.5,-55 210.5,-55 210.5,-74"/>
<text text-anchor="middle" x="196" y="-62" font-family="Helvetica,sans-Serif" font-size="10.00">erl</text>
</a>
</g>
</g>
<!-- dir_3c99d3595cafa99f0e2683197c97edf9 -->
<g id="node3" class="node">
<title>dir_3c99d3595cafa99f0e2683197c97edf9</title>
<text text-anchor="middle" x="88" y="-117" font-family="Helvetica,sans-Serif" font-size="10.00">sbv</text>
</g>
<!-- dir_4235aca40d92d2d6923267ff8588d97a -->
<g id="node4" class="node">
<title>dir_4235aca40d92d2d6923267ff8588d97a</title>
<g id="a_node4"><a xlink:href="dir_4235aca40d92d2d6923267ff8588d97a.html" target="_top" xlink:title="include">
<polygon fill="#60a2e3" stroke="#404040" points="86.5,-74 39.5,-74 39.5,-55 86.5,-55 86.5,-74"/>
<text text-anchor="middle" x="63" y="-62" font-family="Helvetica,sans-Serif" font-size="10.00">include</text>
</a>
</g>
</g>
<!-- dir_bdd9a5d540de89e9fe90efdfc6973a4f -->
<g id="node6" class="node">
<title>dir_bdd9a5d540de89e9fe90efdfc6973a4f</title>
<g id="a_node6"><a xlink:href="dir_bdd9a5d540de89e9fe90efdfc6973a4f.html" target="_top" xlink:title="common">
<polygon fill="#deebf9" stroke="red" points="178,-19 124,-19 124,0 178,0 178,-19"/>
<text text-anchor="middle" x="151" y="-7" font-family="Helvetica,sans-Serif" font-size="10.00">common</text>
</a>
</g>
</g>
<!-- dir_4235aca40d92d2d6923267ff8588d97a&#45;&gt;dir_bdd9a5d540de89e9fe90efdfc6973a4f -->
<g id="edge1" class="edge">
<title>dir_4235aca40d92d2d6923267ff8588d97a&#45;&gt;dir_bdd9a5d540de89e9fe90efdfc6973a4f</title>
<path fill="none" stroke="#63b8ff" d="M71.82,-54.65C77.09,-49.66 84.09,-43.54 91,-39 99.45,-33.45 109.15,-28.36 118.26,-24.06"/>
<polygon fill="#63b8ff" stroke="#63b8ff" points="119.51,-27.34 127.18,-20.03 116.63,-20.96 119.51,-27.34"/>
<g id="a_edge1&#45;headlabel"><a xlink:href="dir_000107_000024.html" target="_top" xlink:title="3">
<text text-anchor="middle" x="118.78" y="-28.28" font-family="Helvetica,sans-Serif" font-size="10.00" fill="#63b8ff">3</text>
</a>
</g>
</g>
<!-- dir_efd911068bd98c5b8ecc421070f7e163 -->
<g id="node5" class="node">
<title>dir_efd911068bd98c5b8ecc421070f7e163</title>
<g id="a_node5"><a xlink:href="dir_efd911068bd98c5b8ecc421070f7e163.html" target="_top" xlink:title="src">
<polygon fill="#60a2e3" stroke="#404040" points="54,-129 24,-129 24,-110 54,-110 54,-129"/>
<text text-anchor="middle" x="39" y="-117" font-family="Helvetica,sans-Serif" font-size="10.00">src</text>
</a>
</g>
</g>
<!-- dir_efd911068bd98c5b8ecc421070f7e163&#45;&gt;dir_694ec83a64f58cbdefbefce65cd1011c -->
<g id="edge3" class="edge">
<title>dir_efd911068bd98c5b8ecc421070f7e163&#45;&gt;dir_694ec83a64f58cbdefbefce65cd1011c</title>
<path fill="none" stroke="#63b8ff" d="M54.2,-110.68C70.06,-102.52 95.28,-89.54 114.63,-79.59"/>
<polygon fill="#63b8ff" stroke="#63b8ff" points="116.04,-82.8 123.33,-75.11 112.83,-76.57 116.04,-82.8"/>
<g id="a_edge3&#45;headlabel"><a xlink:href="dir_000282_000165.html" target="_top" xlink:title="10">
<text text-anchor="middle" x="115.49" y="-83.77" font-family="Helvetica,sans-Serif" font-size="10.00" fill="#63b8ff">10</text>
</a>
</g>
</g>
<!-- dir_efd911068bd98c5b8ecc421070f7e163&#45;&gt;dir_a0a8ac7efb6662b749c1285408048e6d -->
<g id="edge4" class="edge">
<title>dir_efd911068bd98c5b8ecc421070f7e163&#45;&gt;dir_a0a8ac7efb6662b749c1285408048e6d</title>
<path fill="none" stroke="#63b8ff" d="M54.47,-112.96C57.31,-111.96 60.24,-110.94 63,-110 108.46,-94.51 122.57,-91.31 170.63,-74.73"/>
<polygon fill="#63b8ff" stroke="#63b8ff" points="171.7,-78.06 180,-71.48 169.4,-71.45 171.7,-78.06"/>
<g id="a_edge4&#45;headlabel"><a xlink:href="dir_000282_000045.html" target="_top" xlink:title="1">
<text text-anchor="middle" x="170.67" y="-78.93" font-family="Helvetica,sans-Serif" font-size="10.00" fill="#63b8ff">1</text>
</a>
</g>
</g>
<!-- dir_efd911068bd98c5b8ecc421070f7e163&#45;&gt;dir_4235aca40d92d2d6923267ff8588d97a -->
<g id="edge2" class="edge">
<title>dir_efd911068bd98c5b8ecc421070f7e163&#45;&gt;dir_4235aca40d92d2d6923267ff8588d97a</title>
<path fill="none" stroke="#63b8ff" d="M42.96,-109.75C46.04,-102.96 50.41,-93.3 54.29,-84.73"/>
<polygon fill="#63b8ff" stroke="#63b8ff" points="57.39,-86.37 58.33,-75.82 51.01,-83.49 57.39,-86.37"/>
<g id="a_edge2&#45;headlabel"><a xlink:href="dir_000282_000107.html" target="_top" xlink:title="14">
<text text-anchor="middle" x="59.12" y="-86.94" font-family="Helvetica,sans-Serif" font-size="10.00" fill="#63b8ff">14</text>
</a>
</g>
</g>
<!-- dir_efd911068bd98c5b8ecc421070f7e163&#45;&gt;dir_bdd9a5d540de89e9fe90efdfc6973a4f -->
<g id="edge5" class="edge">
<title>dir_efd911068bd98c5b8ecc421070f7e163&#45;&gt;dir_bdd9a5d540de89e9fe90efdfc6973a4f</title>
<path fill="none" stroke="#63b8ff" d="M54.4,-112.74C57.24,-111.77 60.2,-110.81 63,-110 133.03,-89.8 177.47,-130.92 223,-74 232.72,-61.85 231.74,-51.87 223,-39 215.28,-27.65 202.27,-20.82 189.41,-16.71"/>
<polygon fill="#63b8ff" stroke="#63b8ff" points="190.32,-13.33 179.75,-14.14 188.52,-20.09 190.32,-13.33"/>
<g id="a_edge5&#45;headlabel"><a xlink:href="dir_000282_000024.html" target="_top" xlink:title="6">
<text text-anchor="middle" x="193.06" y="-8.62" font-family="Helvetica,sans-Serif" font-size="10.00" fill="#63b8ff">6</text>
</a>
</g>
</g>
</g>
</svg>
