<?xml version="1.0" encoding="UTF-8" standalone="no"?>
<!DOCTYPE svg PUBLIC "-//W3C//DTD SVG 1.1//EN"
 "http://www.w3.org/Graphics/SVG/1.1/DTD/svg11.dtd">
<!-- Generated by graphviz version 7.0.5 (20221223.1930)
 -->
<!-- Title: ee/libcglue Pages: 1 -->
<svg width="256pt" height="196pt"
 viewBox="0.00 0.00 256.00 196.00" xmlns="http://www.w3.org/2000/svg" xmlns:xlink="http://www.w3.org/1999/xlink">
<g id="graph0" class="graph" transform="scale(1 1) rotate(0) translate(4 192)">
<title>ee/libcglue</title>
<g id="clust1" class="cluster">
<title>clusterdir_049738f1909e8dc3e45fe1f6b3faa109</title>
<g id="a_clust1"><a xlink:href="dir_049738f1909e8dc3e45fe1f6b3faa109.html" target="_top" xlink:title="ee">
<polygon fill="#deebf9" stroke="#404040" stroke-dasharray="5,2" points="8,-8 8,-180 138,-180 138,-8 8,-8"/>
<text text-anchor="middle" x="73" y="-168" font-family="Helvetica,sans-Serif" font-size="10.00">ee</text>
</a>
</g>
</g>
<g id="clust2" class="cluster">
<title>clusterdir_e42c7571aba127d36ebf1b64b3eb3ddc</title>
<g id="a_clust2"><a xlink:href="dir_e42c7571aba127d36ebf1b64b3eb3ddc.html" target="_top">
<polygon fill="#deebf9" stroke="#404040" stroke-width="2" points="16,-63 16,-153 130,-153 130,-63 16,-63"/>
</a>
</g>
</g>
<!-- dir_694ec83a64f58cbdefbefce65cd1011c -->
<g id="node1" class="node">
<title>dir_694ec83a64f58cbdefbefce65cd1011c</title>
<g id="a_node1"><a xlink:href="dir_694ec83a64f58cbdefbefce65cd1011c.html" target="_top" xlink:title="kernel">
<polygon fill="#60a2e3" stroke="red" points="90.5,-35 47.5,-35 47.5,-16 90.5,-16 90.5,-35"/>
<text text-anchor="middle" x="69" y="-23" font-family="Helvetica,sans-Serif" font-size="10.00">kernel</text>
</a>
</g>
</g>
<!-- dir_e42c7571aba127d36ebf1b64b3eb3ddc -->
<g id="node2" class="node">
<title>dir_e42c7571aba127d36ebf1b64b3eb3ddc</title>
<text text-anchor="middle" x="97" y="-133" font-family="Helvetica,sans-Serif" font-size="10.00">libcglue</text>
</g>
<!-- dir_139d70fd891b64edfcd5f802a3d19228 -->
<g id="node3" class="node">
<title>dir_139d70fd891b64edfcd5f802a3d19228</title>
<g id="a_node3"><a xlink:href="dir_139d70fd891b64edfcd5f802a3d19228.html" target="_top" xlink:title="include">
<polygon fill="#60a2e3" stroke="#404040" points="71.5,-90 24.5,-90 24.5,-71 71.5,-71 71.5,-90"/>
<text text-anchor="middle" x="48" y="-78" font-family="Helvetica,sans-Serif" font-size="10.00">include</text>
</a>
</g>
</g>
<!-- dir_139d70fd891b64edfcd5f802a3d19228&#45;&gt;dir_694ec83a64f58cbdefbefce65cd1011c -->
<g id="edge1" class="edge">
<title>dir_139d70fd891b64edfcd5f802a3d19228&#45;&gt;dir_694ec83a64f58cbdefbefce65cd1011c</title>
<path fill="none" stroke="#63b8ff" d="M51.47,-70.75C54.13,-64.04 57.9,-54.52 61.26,-46.02"/>
<polygon fill="#63b8ff" stroke="#63b8ff" points="64.47,-47.44 64.9,-36.85 57.96,-44.86 64.47,-47.44"/>
<g id="a_edge1&#45;headlabel"><a xlink:href="dir_000079_000165.html" target="_top" xlink:title="1">
<text text-anchor="middle" x="66.34" y="-47.92" font-family="Helvetica,sans-Serif" font-size="10.00" fill="#63b8ff">1</text>
</a>
</g>
</g>
<!-- dir_4b07fc6c87685f1b9fec8d385a07b704 -->
<g id="node4" class="node">
<title>dir_4b07fc6c87685f1b9fec8d385a07b704</title>
<g id="a_node4"><a xlink:href="dir_4b07fc6c87685f1b9fec8d385a07b704.html" target="_top" xlink:title="src">
<polygon fill="#60a2e3" stroke="#404040" points="54,-145 24,-145 24,-126 54,-126 54,-145"/>
<text text-anchor="middle" x="39" y="-133" font-family="Helvetica,sans-Serif" font-size="10.00">src</text>
</a>
</g>
</g>
<!-- dir_4b07fc6c87685f1b9fec8d385a07b704&#45;&gt;dir_694ec83a64f58cbdefbefce65cd1011c -->
<g id="edge4" class="edge">
<title>dir_4b07fc6c87685f1b9fec8d385a07b704&#45;&gt;dir_694ec83a64f58cbdefbefce65cd1011c</title>
<path fill="none" stroke="#63b8ff" d="M51.61,-125.55C61.71,-117.54 75.12,-104.81 81,-90 86.65,-75.79 82.88,-58.71 78.12,-45.85"/>
<polygon fill="#63b8ff" stroke="#63b8ff" points="81.42,-44.67 74.31,-36.82 74.97,-47.39 81.42,-44.67"/>
<g id="a_edge4&#45;headlabel"><a xlink:href="dir_000255_000165.html" target="_top" xlink:title="7">
<text text-anchor="middle" x="84.85" y="-42.98" font-family="Helvetica,sans-Serif" font-size="10.00" fill="#63b8ff">7</text>
</a>
</g>
</g>
<!-- dir_4b07fc6c87685f1b9fec8d385a07b704&#45;&gt;dir_139d70fd891b64edfcd5f802a3d19228 -->
<g id="edge3" class="edge">
<title>dir_4b07fc6c87685f1b9fec8d385a07b704&#45;&gt;dir_139d70fd891b64edfcd5f802a3d19228</title>
<path fill="none" stroke="#63b8ff" d="M40.49,-125.75C41.6,-119.19 43.17,-109.95 44.59,-101.6"/>
<polygon fill="#63b8ff" stroke="#63b8ff" points="48,-102.38 46.23,-91.93 41.1,-101.21 48,-102.38"/>
<g id="a_edge3&#45;headlabel"><a xlink:href="dir_000255_000079.html" target="_top" xlink:title="1">
<text text-anchor="middle" x="50.46" y="-102.41" font-family="Helvetica,sans-Serif" font-size="10.00" fill="#63b8ff">1</text>
</a>
</g>
</g>
<!-- dir_0981ace215aa2029f526b70c145b9fbe -->
<g id="node5" class="node">
<title>dir_0981ace215aa2029f526b70c145b9fbe</title>
<g id="a_node5"><a xlink:href="dir_0981ace215aa2029f526b70c145b9fbe.html" target="_top" xlink:title="iop">
<polygon fill="#deebf9" stroke="red" points="175.5,-90 146.5,-90 146.5,-71 175.5,-71 175.5,-90"/>
<text text-anchor="middle" x="161" y="-78" font-family="Helvetica,sans-Serif" font-size="10.00">iop</text>
</a>
</g>
</g>
<!-- dir_4b07fc6c87685f1b9fec8d385a07b704&#45;&gt;dir_0981ace215aa2029f526b70c145b9fbe -->
<g id="edge2" class="edge">
<title>dir_4b07fc6c87685f1b9fec8d385a07b704&#45;&gt;dir_0981ace215aa2029f526b70c145b9fbe</title>
<path fill="none" stroke="#63b8ff" d="M54.45,-127.79C74.91,-118.9 111.26,-103.11 135.74,-92.47"/>
<polygon fill="#63b8ff" stroke="#63b8ff" points="136.89,-95.79 144.67,-88.6 134.1,-89.37 136.89,-95.79"/>
<g id="a_edge2&#45;headlabel"><a xlink:href="dir_000255_000159.html" target="_top" xlink:title="10">
<text text-anchor="middle" x="136.11" y="-96.72" font-family="Helvetica,sans-Serif" font-size="10.00" fill="#63b8ff">10</text>
</a>
</g>
</g>
<!-- dir_bdd9a5d540de89e9fe90efdfc6973a4f -->
<g id="node6" class="node">
<title>dir_bdd9a5d540de89e9fe90efdfc6973a4f</title>
<g id="a_node6"><a xlink:href="dir_bdd9a5d540de89e9fe90efdfc6973a4f.html" target="_top" xlink:title="common">
<polygon fill="#deebf9" stroke="red" points="248,-90 194,-90 194,-71 248,-71 248,-90"/>
<text text-anchor="middle" x="221" y="-78" font-family="Helvetica,sans-Serif" font-size="10.00">common</text>
</a>
</g>
</g>
<!-- dir_4b07fc6c87685f1b9fec8d385a07b704&#45;&gt;dir_bdd9a5d540de89e9fe90efdfc6973a4f -->
<g id="edge5" class="edge">
<title>dir_4b07fc6c87685f1b9fec8d385a07b704&#45;&gt;dir_bdd9a5d540de89e9fe90efdfc6973a4f</title>
<path fill="none" stroke="#63b8ff" d="M54.44,-128.86C57.28,-127.88 60.22,-126.88 63,-126 103.52,-113.13 150.47,-100.15 182.59,-91.56"/>
<polygon fill="#63b8ff" stroke="#63b8ff" points="183.49,-94.94 192.26,-88.99 181.69,-88.18 183.49,-94.94"/>
<g id="a_edge5&#45;headlabel"><a xlink:href="dir_000255_000024.html" target="_top" xlink:title="5">
<text text-anchor="middle" x="182.21" y="-95.72" font-family="Helvetica,sans-Serif" font-size="10.00" fill="#63b8ff">5</text>
</a>
</g>
</g>
</g>
</svg>
