<?xml version="1.0" encoding="UTF-8" standalone="no"?>
<!DOCTYPE svg PUBLIC "-//W3C//DTD SVG 1.1//EN"
 "http://www.w3.org/Graphics/SVG/1.1/DTD/svg11.dtd">
<!-- Generated by graphviz version 7.0.5 (20221223.1930)
 -->
<!-- Title: ee/network/tcpip Pages: 1 -->
<svg width="221pt" height="125pt"
 viewBox="0.00 0.00 220.50 125.00" xmlns="http://www.w3.org/2000/svg" xmlns:xlink="http://www.w3.org/1999/xlink">
<g id="graph0" class="graph" transform="scale(1 1) rotate(0) translate(4 121)">
<title>ee/network/tcpip</title>
<g id="clust1" class="cluster">
<title>clusterdir_b47d22a23da27aa98d6e01bcdbde3243</title>
<g id="a_clust1"><a xlink:href="dir_b47d22a23da27aa98d6e01bcdbde3243.html" target="_top" xlink:title="network">
<polygon fill="#deebf9" stroke="#7f7f7f" stroke-dasharray="5,2" points="8,-39 8,-109 192,-109 192,-39 8,-39"/>
<text text-anchor="middle" x="100" y="-97" font-family="Helvetica,sans-Serif" font-size="10.00">network</text>
</a>
</g>
</g>
<g id="clust2" class="cluster">
<title>clusterdir_ca24a423c1b235320d00c488564f2476</title>
<g id="a_clust2"><a xlink:href="dir_ca24a423c1b235320d00c488564f2476.html" target="_top">
<polygon fill="#deebf9" stroke="#404040" stroke-width="2" points="16,-47 16,-82 184,-82 184,-47 16,-47"/>
</a>
</g>
</g>
<!-- dir_ca24a423c1b235320d00c488564f2476 -->
<g id="node1" class="node">
<title>dir_ca24a423c1b235320d00c488564f2476</title>
<text text-anchor="middle" x="157" y="-62" font-family="Helvetica,sans-Serif" font-size="10.00">tcpip</text>
</g>
<!-- dir_f5863da36fbb72d29e9b1dbcb4acc18d -->
<g id="node2" class="node">
<title>dir_f5863da36fbb72d29e9b1dbcb4acc18d</title>
<g id="a_node2"><a xlink:href="dir_f5863da36fbb72d29e9b1dbcb4acc18d.html" target="_top" xlink:title="include">
<polygon fill="#60a2e3" stroke="#404040" points="71.5,-74 24.5,-74 24.5,-55 71.5,-55 71.5,-74"/>
<text text-anchor="middle" x="48" y="-62" font-family="Helvetica,sans-Serif" font-size="10.00">include</text>
</a>
</g>
</g>
<!-- dir_0981ace215aa2029f526b70c145b9fbe -->
<g id="node4" class="node">
<title>dir_0981ace215aa2029f526b70c145b9fbe</title>
<g id="a_node4"><a xlink:href="dir_0981ace215aa2029f526b70c145b9fbe.html" target="_top" xlink:title="iop">
<polygon fill="#deebf9" stroke="red" points="31.5,-19 2.5,-19 2.5,0 31.5,0 31.5,-19"/>
<text text-anchor="middle" x="17" y="-7" font-family="Helvetica,sans-Serif" font-size="10.00">iop</text>
</a>
</g>
</g>
<!-- dir_f5863da36fbb72d29e9b1dbcb4acc18d&#45;&gt;dir_0981ace215aa2029f526b70c145b9fbe -->
<g id="edge1" class="edge">
<title>dir_f5863da36fbb72d29e9b1dbcb4acc18d&#45;&gt;dir_0981ace215aa2029f526b70c145b9fbe</title>
<path fill="none" stroke="#63b8ff" d="M42.88,-54.75C38.82,-47.81 33.01,-37.86 27.91,-29.16"/>
<polygon fill="#63b8ff" stroke="#63b8ff" points="31.06,-27.61 22.99,-20.75 25.02,-31.15 31.06,-27.61"/>
<g id="a_edge1&#45;headlabel"><a xlink:href="dir_000086_000159.html" target="_top" xlink:title="1">
<text text-anchor="middle" x="34.57" y="-25.48" font-family="Helvetica,sans-Serif" font-size="10.00" fill="#63b8ff">1</text>
</a>
</g>
</g>
<!-- dir_bdd9a5d540de89e9fe90efdfc6973a4f -->
<g id="node7" class="node">
<title>dir_bdd9a5d540de89e9fe90efdfc6973a4f</title>
<g id="a_node7"><a xlink:href="dir_bdd9a5d540de89e9fe90efdfc6973a4f.html" target="_top" xlink:title="common">
<polygon fill="#deebf9" stroke="red" points="104,-19 50,-19 50,0 104,0 104,-19"/>
<text text-anchor="middle" x="77" y="-7" font-family="Helvetica,sans-Serif" font-size="10.00">common</text>
</a>
</g>
</g>
<!-- dir_f5863da36fbb72d29e9b1dbcb4acc18d&#45;&gt;dir_bdd9a5d540de89e9fe90efdfc6973a4f -->
<g id="edge2" class="edge">
<title>dir_f5863da36fbb72d29e9b1dbcb4acc18d&#45;&gt;dir_bdd9a5d540de89e9fe90efdfc6973a4f</title>
<path fill="none" stroke="#63b8ff" d="M52.79,-54.75C56.54,-47.88 61.91,-38.08 66.63,-29.45"/>
<polygon fill="#63b8ff" stroke="#63b8ff" points="69.65,-31.22 71.38,-20.77 63.51,-27.86 69.65,-31.22"/>
<g id="a_edge2&#45;headlabel"><a xlink:href="dir_000086_000024.html" target="_top" xlink:title="1">
<text text-anchor="middle" x="71.14" y="-31.91" font-family="Helvetica,sans-Serif" font-size="10.00" fill="#63b8ff">1</text>
</a>
</g>
</g>
<!-- dir_72fd2ca65a98aa6f116e0a45d1317c83 -->
<g id="node3" class="node">
<title>dir_72fd2ca65a98aa6f116e0a45d1317c83</title>
<g id="a_node3"><a xlink:href="dir_72fd2ca65a98aa6f116e0a45d1317c83.html" target="_top" xlink:title="src">
<polygon fill="#60a2e3" stroke="#404040" points="120,-74 90,-74 90,-55 120,-55 120,-74"/>
<text text-anchor="middle" x="105" y="-62" font-family="Helvetica,sans-Serif" font-size="10.00">src</text>
</a>
</g>
</g>
<!-- dir_72fd2ca65a98aa6f116e0a45d1317c83&#45;&gt;dir_0981ace215aa2029f526b70c145b9fbe -->
<g id="edge3" class="edge">
<title>dir_72fd2ca65a98aa6f116e0a45d1317c83&#45;&gt;dir_0981ace215aa2029f526b70c145b9fbe</title>
<path fill="none" stroke="#63b8ff" d="M97.31,-54.54C92.67,-49.52 86.42,-43.39 80,-39 68.44,-31.09 54.32,-24.47 42.39,-19.6"/>
<polygon fill="#63b8ff" stroke="#63b8ff" points="43.77,-16.39 33.18,-16.04 41.24,-22.91 43.77,-16.39"/>
<g id="a_edge3&#45;headlabel"><a xlink:href="dir_000262_000159.html" target="_top" xlink:title="4">
<text text-anchor="middle" x="46.73" y="-11.99" font-family="Helvetica,sans-Serif" font-size="10.00" fill="#63b8ff">4</text>
</a>
</g>
</g>
<!-- dir_694ec83a64f58cbdefbefce65cd1011c -->
<g id="node5" class="node">
<title>dir_694ec83a64f58cbdefbefce65cd1011c</title>
<g id="a_node5"><a xlink:href="dir_694ec83a64f58cbdefbefce65cd1011c.html" target="_top" xlink:title="kernel">
<polygon fill="#deebf9" stroke="red" stroke-dasharray="5,2" points="165.5,-19 122.5,-19 122.5,0 165.5,0 165.5,-19"/>
<text text-anchor="middle" x="144" y="-7" font-family="Helvetica,sans-Serif" font-size="10.00">kernel</text>
</a>
</g>
</g>
<!-- dir_72fd2ca65a98aa6f116e0a45d1317c83&#45;&gt;dir_694ec83a64f58cbdefbefce65cd1011c -->
<g id="edge4" class="edge">
<title>dir_72fd2ca65a98aa6f116e0a45d1317c83&#45;&gt;dir_694ec83a64f58cbdefbefce65cd1011c</title>
<path fill="none" stroke="#63b8ff" d="M111.44,-54.75C116.66,-47.66 124.19,-37.42 130.69,-28.59"/>
<polygon fill="#63b8ff" stroke="#63b8ff" points="133.42,-30.79 136.52,-20.66 127.78,-26.64 133.42,-30.79"/>
<g id="a_edge4&#45;headlabel"><a xlink:href="dir_000262_000165.html" target="_top" xlink:title="2">
<text text-anchor="middle" x="134.47" y="-31.65" font-family="Helvetica,sans-Serif" font-size="10.00" fill="#63b8ff">2</text>
</a>
</g>
</g>
<!-- dir_a0a8ac7efb6662b749c1285408048e6d -->
<g id="node6" class="node">
<title>dir_a0a8ac7efb6662b749c1285408048e6d</title>
<g id="a_node6"><a xlink:href="dir_a0a8ac7efb6662b749c1285408048e6d.html" target="_top" xlink:title="erl">
<polygon fill="#deebf9" stroke="red" stroke-dasharray="5,2" points="212.5,-19 183.5,-19 183.5,0 212.5,0 212.5,-19"/>
<text text-anchor="middle" x="198" y="-7" font-family="Helvetica,sans-Serif" font-size="10.00">erl</text>
</a>
</g>
</g>
<!-- dir_72fd2ca65a98aa6f116e0a45d1317c83&#45;&gt;dir_a0a8ac7efb6662b749c1285408048e6d -->
<g id="edge5" class="edge">
<title>dir_72fd2ca65a98aa6f116e0a45d1317c83&#45;&gt;dir_a0a8ac7efb6662b749c1285408048e6d</title>
<path fill="none" stroke="#63b8ff" d="M111.85,-54.92C116.31,-49.77 122.49,-43.4 129,-39 132.89,-36.37 154.49,-27.59 172.5,-20.46"/>
<polygon fill="#63b8ff" stroke="#63b8ff" points="173.63,-23.77 181.65,-16.86 171.06,-17.26 173.63,-23.77"/>
<g id="a_edge5&#45;headlabel"><a xlink:href="dir_000262_000045.html" target="_top" xlink:title="1">
<text text-anchor="middle" x="172.73" y="-24.68" font-family="Helvetica,sans-Serif" font-size="10.00" fill="#63b8ff">1</text>
</a>
</g>
</g>
<!-- dir_72fd2ca65a98aa6f116e0a45d1317c83&#45;&gt;dir_bdd9a5d540de89e9fe90efdfc6973a4f -->
<g id="edge6" class="edge">
<title>dir_72fd2ca65a98aa6f116e0a45d1317c83&#45;&gt;dir_bdd9a5d540de89e9fe90efdfc6973a4f</title>
<path fill="none" stroke="#63b8ff" d="M100.38,-54.75C96.75,-47.88 91.57,-38.08 87.01,-29.45"/>
<polygon fill="#63b8ff" stroke="#63b8ff" points="90.2,-27.99 82.43,-20.78 84.01,-31.26 90.2,-27.99"/>
<g id="a_edge6&#45;headlabel"><a xlink:href="dir_000262_000024.html" target="_top" xlink:title="2">
<text text-anchor="middle" x="93.68" y="-26" font-family="Helvetica,sans-Serif" font-size="10.00" fill="#63b8ff">2</text>
</a>
</g>
</g>
</g>
</svg>
