<?xml version="1.0" encoding="UTF-8" standalone="no"?>
<!DOCTYPE svg PUBLIC "-//W3C//DTD SVG 1.1//EN"
 "http://www.w3.org/Graphics/SVG/1.1/DTD/svg11.dtd">
<!-- Generated by graphviz version 7.0.5 (20221223.1930)
 -->
<!-- Title: ee/rpc/remote/src Pages: 1 -->
<svg width="299pt" height="133pt"
 viewBox="0.00 0.00 299.00 133.00" xmlns="http://www.w3.org/2000/svg" xmlns:xlink="http://www.w3.org/1999/xlink">
<g id="graph0" class="graph" transform="scale(1 1) rotate(0) translate(4 129)">
<title>ee/rpc/remote/src</title>
<g id="clust1" class="cluster">
<title>clusterdir_ba37a805e2af6959a7cee62b248f44cb</title>
<g id="a_clust1"><a xlink:href="dir_ba37a805e2af6959a7cee62b248f44cb.html" target="_top" xlink:title="remote">
<polygon fill="#deebf9" stroke="#7f7f7f" stroke-dasharray="5,2" points="8,-8 8,-117 72,-117 72,-8 8,-8"/>
<text text-anchor="middle" x="40" y="-105" font-family="Helvetica,sans-Serif" font-size="10.00">remote</text>
</a>
</g>
</g>
<!-- dir_fa645703e9d75d6dc5aaf566568fec79 -->
<g id="node1" class="node">
<title>dir_fa645703e9d75d6dc5aaf566568fec79</title>
<g id="a_node1"><a xlink:href="dir_fa645703e9d75d6dc5aaf566568fec79.html" target="_top" xlink:title="include">
<polygon fill="#60a2e3" stroke="#404040" points="63.5,-35 16.5,-35 16.5,-16 63.5,-16 63.5,-35"/>
<text text-anchor="middle" x="40" y="-23" font-family="Helvetica,sans-Serif" font-size="10.00">include</text>
</a>
</g>
</g>
<!-- dir_35447b3e6ceb192e07f9d91db1c83712 -->
<g id="node2" class="node">
<title>dir_35447b3e6ceb192e07f9d91db1c83712</title>
<g id="a_node2"><a xlink:href="dir_35447b3e6ceb192e07f9d91db1c83712.html" target="_top" xlink:title="src">
<polygon fill="#deebf9" stroke="#404040" stroke-width="2" points="64,-90 34,-90 34,-71 64,-71 64,-90"/>
<text text-anchor="middle" x="49" y="-78" font-family="Helvetica,sans-Serif" font-size="10.00">src</text>
</a>
</g>
</g>
<!-- dir_35447b3e6ceb192e07f9d91db1c83712&#45;&gt;dir_fa645703e9d75d6dc5aaf566568fec79 -->
<g id="edge5" class="edge">
<title>dir_35447b3e6ceb192e07f9d91db1c83712&#45;&gt;dir_fa645703e9d75d6dc5aaf566568fec79</title>
<path fill="none" stroke="#63b8ff" d="M47.51,-70.75C46.4,-64.19 44.83,-54.95 43.41,-46.6"/>
<polygon fill="#63b8ff" stroke="#63b8ff" points="46.9,-46.21 41.77,-36.93 40,-47.38 46.9,-46.21"/>
<g id="a_edge5&#45;headlabel"><a xlink:href="dir_000278_000103.html" target="_top" xlink:title="1">
<text text-anchor="middle" x="50.04" y="-45.28" font-family="Helvetica,sans-Serif" font-size="10.00" fill="#63b8ff">1</text>
</a>
</g>
</g>
<!-- dir_0981ace215aa2029f526b70c145b9fbe -->
<g id="node3" class="node">
<title>dir_0981ace215aa2029f526b70c145b9fbe</title>
<g id="a_node3"><a xlink:href="dir_0981ace215aa2029f526b70c145b9fbe.html" target="_top" xlink:title="iop">
<polygon fill="#deebf9" stroke="red" points="110.5,-35 81.5,-35 81.5,-16 110.5,-16 110.5,-35"/>
<text text-anchor="middle" x="96" y="-23" font-family="Helvetica,sans-Serif" font-size="10.00">iop</text>
</a>
</g>
</g>
<!-- dir_35447b3e6ceb192e07f9d91db1c83712&#45;&gt;dir_0981ace215aa2029f526b70c145b9fbe -->
<g id="edge1" class="edge">
<title>dir_35447b3e6ceb192e07f9d91db1c83712&#45;&gt;dir_0981ace215aa2029f526b70c145b9fbe</title>
<path fill="none" stroke="#63b8ff" d="M56.76,-70.75C63.19,-63.5 72.51,-52.98 80.46,-44.02"/>
<polygon fill="#63b8ff" stroke="#63b8ff" points="83.05,-46.38 87.07,-36.57 77.81,-41.73 83.05,-46.38"/>
<g id="a_edge1&#45;headlabel"><a xlink:href="dir_000278_000159.html" target="_top" xlink:title="1">
<text text-anchor="middle" x="83.79" y="-47.32" font-family="Helvetica,sans-Serif" font-size="10.00" fill="#63b8ff">1</text>
</a>
</g>
</g>
<!-- dir_694ec83a64f58cbdefbefce65cd1011c -->
<g id="node4" class="node">
<title>dir_694ec83a64f58cbdefbefce65cd1011c</title>
<g id="a_node4"><a xlink:href="dir_694ec83a64f58cbdefbefce65cd1011c.html" target="_top" xlink:title="kernel">
<polygon fill="#deebf9" stroke="red" stroke-dasharray="5,2" points="171.5,-35 128.5,-35 128.5,-16 171.5,-16 171.5,-35"/>
<text text-anchor="middle" x="150" y="-23" font-family="Helvetica,sans-Serif" font-size="10.00">kernel</text>
</a>
</g>
</g>
<!-- dir_35447b3e6ceb192e07f9d91db1c83712&#45;&gt;dir_694ec83a64f58cbdefbefce65cd1011c -->
<g id="edge2" class="edge">
<title>dir_35447b3e6ceb192e07f9d91db1c83712&#45;&gt;dir_694ec83a64f58cbdefbefce65cd1011c</title>
<path fill="none" stroke="#63b8ff" d="M64.34,-71.45C79.91,-63.28 104.34,-50.46 123.13,-40.6"/>
<polygon fill="#63b8ff" stroke="#63b8ff" points="124.6,-43.78 131.83,-36.04 121.34,-37.58 124.6,-43.78"/>
<g id="a_edge2&#45;headlabel"><a xlink:href="dir_000278_000165.html" target="_top" xlink:title="1">
<text text-anchor="middle" x="124.07" y="-44.76" font-family="Helvetica,sans-Serif" font-size="10.00" fill="#63b8ff">1</text>
</a>
</g>
</g>
<!-- dir_a0a8ac7efb6662b749c1285408048e6d -->
<g id="node5" class="node">
<title>dir_a0a8ac7efb6662b749c1285408048e6d</title>
<g id="a_node5"><a xlink:href="dir_a0a8ac7efb6662b749c1285408048e6d.html" target="_top" xlink:title="erl">
<polygon fill="#deebf9" stroke="red" stroke-dasharray="5,2" points="218.5,-35 189.5,-35 189.5,-16 218.5,-16 218.5,-35"/>
<text text-anchor="middle" x="204" y="-23" font-family="Helvetica,sans-Serif" font-size="10.00">erl</text>
</a>
</g>
</g>
<!-- dir_35447b3e6ceb192e07f9d91db1c83712&#45;&gt;dir_a0a8ac7efb6662b749c1285408048e6d -->
<g id="edge3" class="edge">
<title>dir_35447b3e6ceb192e07f9d91db1c83712&#45;&gt;dir_a0a8ac7efb6662b749c1285408048e6d</title>
<path fill="none" stroke="#63b8ff" d="M64.49,-74.44C87.47,-66.9 132.16,-52.1 178.81,-35.7"/>
<polygon fill="#63b8ff" stroke="#63b8ff" points="179.73,-39.09 188,-32.46 177.4,-32.49 179.73,-39.09"/>
<g id="a_edge3&#45;headlabel"><a xlink:href="dir_000278_000045.html" target="_top" xlink:title="1">
<text text-anchor="middle" x="178.71" y="-39.96" font-family="Helvetica,sans-Serif" font-size="10.00" fill="#63b8ff">1</text>
</a>
</g>
</g>
<!-- dir_bdd9a5d540de89e9fe90efdfc6973a4f -->
<g id="node6" class="node">
<title>dir_bdd9a5d540de89e9fe90efdfc6973a4f</title>
<g id="a_node6"><a xlink:href="dir_bdd9a5d540de89e9fe90efdfc6973a4f.html" target="_top" xlink:title="common">
<polygon fill="#deebf9" stroke="red" points="291,-35 237,-35 237,-16 291,-16 291,-35"/>
<text text-anchor="middle" x="264" y="-23" font-family="Helvetica,sans-Serif" font-size="10.00">common</text>
</a>
</g>
</g>
<!-- dir_35447b3e6ceb192e07f9d91db1c83712&#45;&gt;dir_bdd9a5d540de89e9fe90efdfc6973a4f -->
<g id="edge4" class="edge">
<title>dir_35447b3e6ceb192e07f9d91db1c83712&#45;&gt;dir_bdd9a5d540de89e9fe90efdfc6973a4f</title>
<path fill="none" stroke="#63b8ff" d="M64.46,-75.69C97.82,-67.47 177.39,-47.85 225.36,-36.02"/>
<polygon fill="#63b8ff" stroke="#63b8ff" points="226.2,-39.42 235.07,-33.63 224.52,-32.63 226.2,-39.42"/>
<g id="a_edge4&#45;headlabel"><a xlink:href="dir_000278_000024.html" target="_top" xlink:title="1">
<text text-anchor="middle" x="224.86" y="-40.18" font-family="Helvetica,sans-Serif" font-size="10.00" fill="#63b8ff">1</text>
</a>
</g>
</g>
</g>
</svg>
