<?xml version="1.0" encoding="UTF-8" standalone="no"?>
<!DOCTYPE svg PUBLIC "-//W3C//DTD SVG 1.1//EN"
 "http://www.w3.org/Graphics/SVG/1.1/DTD/svg11.dtd">
<!-- Generated by graphviz version 7.0.5 (20221223.1930)
 -->
<!-- Title: ee/kernel/src Pages: 1 -->
<svg width="419pt" height="141pt"
 viewBox="0.00 0.00 418.50 141.00" xmlns="http://www.w3.org/2000/svg" xmlns:xlink="http://www.w3.org/1999/xlink">
<g id="graph0" class="graph" transform="scale(1 1) rotate(0) translate(4 137)">
<title>ee/kernel/src</title>
<g id="clust1" class="cluster">
<title>clusterdir_694ec83a64f58cbdefbefce65cd1011c</title>
<g id="a_clust1"><a xlink:href="dir_694ec83a64f58cbdefbefce65cd1011c.html" target="_top" xlink:title="kernel">
<polygon fill="#deebf9" stroke="#7f7f7f" stroke-dasharray="5,2" points="8,-8 8,-125 254,-125 254,-8 8,-8"/>
<text text-anchor="middle" x="131" y="-113" font-family="Helvetica,sans-Serif" font-size="10.00">kernel</text>
</a>
</g>
</g>
<g id="clust2" class="cluster">
<title>clusterdir_a493926c6e9678712bca5b1e822bb94f</title>
<g id="a_clust2"><a xlink:href="dir_a493926c6e9678712bca5b1e822bb94f.html" target="_top">
<polygon fill="#deebf9" stroke="#404040" stroke-width="2" points="16,-63 16,-98 246,-98 246,-63 16,-63"/>
</a>
</g>
</g>
<!-- dir_8a6a67431f985d69787ebf051412922f -->
<g id="node1" class="node">
<title>dir_8a6a67431f985d69787ebf051412922f</title>
<g id="a_node1"><a xlink:href="dir_8a6a67431f985d69787ebf051412922f.html" target="_top" xlink:title="include">
<polygon fill="#60a2e3" stroke="#404040" points="159.5,-35 112.5,-35 112.5,-16 159.5,-16 159.5,-35"/>
<text text-anchor="middle" x="136" y="-23" font-family="Helvetica,sans-Serif" font-size="10.00">include</text>
</a>
</g>
</g>
<!-- dir_a493926c6e9678712bca5b1e822bb94f -->
<g id="node2" class="node">
<title>dir_a493926c6e9678712bca5b1e822bb94f</title>
<text text-anchor="middle" x="223" y="-78" font-family="Helvetica,sans-Serif" font-size="10.00">src</text>
</g>
<!-- dir_a493926c6e9678712bca5b1e822bb94f&#45;&gt;dir_8a6a67431f985d69787ebf051412922f -->
<g id="edge2" class="edge">
<title>dir_a493926c6e9678712bca5b1e822bb94f&#45;&gt;dir_8a6a67431f985d69787ebf051412922f</title>
<path fill="none" stroke="#63b8ff" d="M211.4,-71.26C207.5,-68.56 203.1,-65.59 199,-63 187.06,-55.45 173.53,-47.53 162.08,-41.01"/>
<polygon fill="#63b8ff" stroke="#63b8ff" points="164.01,-38.08 153.58,-36.21 160.56,-44.17 164.01,-38.08"/>
<g id="a_edge2&#45;headlabel"><a xlink:href="dir_000251_000078.html" target="_top" xlink:title="49">
<text text-anchor="middle" x="167.21" y="-34.13" font-family="Helvetica,sans-Serif" font-size="10.00" fill="#63b8ff">49</text>
</a>
</g>
</g>
<!-- dir_0981ace215aa2029f526b70c145b9fbe -->
<g id="node6" class="node">
<title>dir_0981ace215aa2029f526b70c145b9fbe</title>
<g id="a_node6"><a xlink:href="dir_0981ace215aa2029f526b70c145b9fbe.html" target="_top" xlink:title="iop">
<polygon fill="#deebf9" stroke="red" points="363.5,-35 334.5,-35 334.5,-16 363.5,-16 363.5,-35"/>
<text text-anchor="middle" x="349" y="-23" font-family="Helvetica,sans-Serif" font-size="10.00">iop</text>
</a>
</g>
</g>
<!-- dir_a493926c6e9678712bca5b1e822bb94f&#45;&gt;dir_0981ace215aa2029f526b70c145b9fbe -->
<g id="edge1" class="edge">
<title>dir_a493926c6e9678712bca5b1e822bb94f&#45;&gt;dir_0981ace215aa2029f526b70c145b9fbe</title>
<path fill="none" stroke="#63b8ff" d="M237.95,-73.21C259.07,-64.33 297.94,-47.98 323.63,-37.17"/>
<polygon fill="#63b8ff" stroke="#63b8ff" points="324.82,-40.47 332.68,-33.37 322.1,-34.02 324.82,-40.47"/>
<g id="a_edge1&#45;headlabel"><a xlink:href="dir_000251_000159.html" target="_top" xlink:title="5">
<text text-anchor="middle" x="324" y="-41.39" font-family="Helvetica,sans-Serif" font-size="10.00" fill="#63b8ff">5</text>
</a>
</g>
</g>
<!-- dir_a0a8ac7efb6662b749c1285408048e6d -->
<g id="node7" class="node">
<title>dir_a0a8ac7efb6662b749c1285408048e6d</title>
<g id="a_node7"><a xlink:href="dir_a0a8ac7efb6662b749c1285408048e6d.html" target="_top" xlink:title="erl">
<polygon fill="#deebf9" stroke="red" stroke-dasharray="5,2" points="410.5,-35 381.5,-35 381.5,-16 410.5,-16 410.5,-35"/>
<text text-anchor="middle" x="396" y="-23" font-family="Helvetica,sans-Serif" font-size="10.00">erl</text>
</a>
</g>
</g>
<!-- dir_a493926c6e9678712bca5b1e822bb94f&#45;&gt;dir_a0a8ac7efb6662b749c1285408048e6d -->
<g id="edge3" class="edge">
<title>dir_a493926c6e9678712bca5b1e822bb94f&#45;&gt;dir_a0a8ac7efb6662b749c1285408048e6d</title>
<path fill="none" stroke="#63b8ff" d="M237.58,-75.52C262.82,-68.55 316.49,-53.43 370.63,-35.63"/>
<polygon fill="#63b8ff" stroke="#63b8ff" points="371.63,-38.99 380.01,-32.52 369.42,-32.35 371.63,-38.99"/>
<g id="a_edge3&#45;headlabel"><a xlink:href="dir_000251_000045.html" target="_top" xlink:title="1">
<text text-anchor="middle" x="370.55" y="-39.84" font-family="Helvetica,sans-Serif" font-size="10.00" fill="#63b8ff">1</text>
</a>
</g>
</g>
<!-- dir_bdd9a5d540de89e9fe90efdfc6973a4f -->
<g id="node8" class="node">
<title>dir_bdd9a5d540de89e9fe90efdfc6973a4f</title>
<g id="a_node8"><a xlink:href="dir_bdd9a5d540de89e9fe90efdfc6973a4f.html" target="_top" xlink:title="common">
<polygon fill="#deebf9" stroke="red" points="316,-35 262,-35 262,-16 316,-16 316,-35"/>
<text text-anchor="middle" x="289" y="-23" font-family="Helvetica,sans-Serif" font-size="10.00">common</text>
</a>
</g>
</g>
<!-- dir_a493926c6e9678712bca5b1e822bb94f&#45;&gt;dir_bdd9a5d540de89e9fe90efdfc6973a4f -->
<g id="edge4" class="edge">
<title>dir_a493926c6e9678712bca5b1e822bb94f&#45;&gt;dir_bdd9a5d540de89e9fe90efdfc6973a4f</title>
<path fill="none" stroke="#63b8ff" d="M233.31,-71.22C242.92,-63.5 257.51,-51.78 269.35,-42.28"/>
<polygon fill="#63b8ff" stroke="#63b8ff" points="271.32,-45.19 276.92,-36.2 266.93,-39.73 271.32,-45.19"/>
<g id="a_edge4&#45;headlabel"><a xlink:href="dir_000251_000024.html" target="_top" xlink:title="19">
<text text-anchor="middle" x="271.47" y="-46.21" font-family="Helvetica,sans-Serif" font-size="10.00" fill="#63b8ff">19</text>
</a>
</g>
</g>
<!-- dir_51b4fd419f5cef2df1fa20f57f0c92da -->
<g id="node3" class="node">
<title>dir_51b4fd419f5cef2df1fa20f57f0c92da</title>
<g id="a_node3"><a xlink:href="dir_51b4fd419f5cef2df1fa20f57f0c92da.html" target="_top" xlink:title="osdsrc">
<polygon fill="#60a2e3" stroke="#404040" points="190,-90 144,-90 144,-71 190,-71 190,-90"/>
<text text-anchor="middle" x="167" y="-78" font-family="Helvetica,sans-Serif" font-size="10.00">osdsrc</text>
</a>
</g>
</g>
<!-- dir_51b4fd419f5cef2df1fa20f57f0c92da&#45;&gt;dir_8a6a67431f985d69787ebf051412922f -->
<g id="edge5" class="edge">
<title>dir_51b4fd419f5cef2df1fa20f57f0c92da&#45;&gt;dir_8a6a67431f985d69787ebf051412922f</title>
<path fill="none" stroke="#63b8ff" d="M161.88,-70.75C157.82,-63.81 152.01,-53.86 146.91,-45.16"/>
<polygon fill="#63b8ff" stroke="#63b8ff" points="150.06,-43.61 141.99,-36.75 144.02,-47.15 150.06,-43.61"/>
<g id="a_edge5&#45;headlabel"><a xlink:href="dir_000203_000078.html" target="_top" xlink:title="4">
<text text-anchor="middle" x="153.57" y="-41.48" font-family="Helvetica,sans-Serif" font-size="10.00" fill="#63b8ff">4</text>
</a>
</g>
</g>
<!-- dir_51b4fd419f5cef2df1fa20f57f0c92da&#45;&gt;dir_bdd9a5d540de89e9fe90efdfc6973a4f -->
<g id="edge6" class="edge">
<title>dir_51b4fd419f5cef2df1fa20f57f0c92da&#45;&gt;dir_bdd9a5d540de89e9fe90efdfc6973a4f</title>
<path fill="none" stroke="#63b8ff" d="M183.47,-70.65C188.42,-68.09 193.89,-65.35 199,-63 217.22,-54.63 237.94,-46.16 254.9,-39.48"/>
<polygon fill="#63b8ff" stroke="#63b8ff" points="255.98,-42.82 264.03,-35.93 253.44,-36.3 255.98,-42.82"/>
<g id="a_edge6&#45;headlabel"><a xlink:href="dir_000203_000024.html" target="_top" xlink:title="1">
<text text-anchor="middle" x="255.08" y="-43.72" font-family="Helvetica,sans-Serif" font-size="10.00" fill="#63b8ff">1</text>
</a>
</g>
</g>
<!-- dir_956615eb5c1ba3c328b30cb4364be616 -->
<g id="node4" class="node">
<title>dir_956615eb5c1ba3c328b30cb4364be616</title>
<g id="a_node4"><a xlink:href="dir_956615eb5c1ba3c328b30cb4364be616.html" target="_top" xlink:title="srcfile">
<polygon fill="#60a2e3" stroke="#404040" points="126,-90 84,-90 84,-71 126,-71 126,-90"/>
<text text-anchor="middle" x="105" y="-78" font-family="Helvetica,sans-Serif" font-size="10.00">srcfile</text>
</a>
</g>
</g>
<!-- dir_956615eb5c1ba3c328b30cb4364be616&#45;&gt;dir_8a6a67431f985d69787ebf051412922f -->
<g id="edge7" class="edge">
<title>dir_956615eb5c1ba3c328b30cb4364be616&#45;&gt;dir_8a6a67431f985d69787ebf051412922f</title>
<path fill="none" stroke="#63b8ff" d="M110.12,-70.75C114.18,-63.81 119.99,-53.86 125.09,-45.16"/>
<polygon fill="#63b8ff" stroke="#63b8ff" points="127.98,-47.15 130.01,-36.75 121.94,-43.61 127.98,-47.15"/>
<g id="a_edge7&#45;headlabel"><a xlink:href="dir_000364_000078.html" target="_top" xlink:title="3">
<text text-anchor="middle" x="129.38" y="-47.88" font-family="Helvetica,sans-Serif" font-size="10.00" fill="#63b8ff">3</text>
</a>
</g>
</g>
<!-- dir_956615eb5c1ba3c328b30cb4364be616&#45;&gt;dir_bdd9a5d540de89e9fe90efdfc6973a4f -->
<g id="edge8" class="edge">
<title>dir_956615eb5c1ba3c328b30cb4364be616&#45;&gt;dir_bdd9a5d540de89e9fe90efdfc6973a4f</title>
<path fill="none" stroke="#63b8ff" d="M119.26,-70.6C124.11,-67.86 129.67,-65.03 135,-63 183.93,-44.4 201.31,-48.01 250.61,-36.72"/>
<polygon fill="#63b8ff" stroke="#63b8ff" points="251.25,-40.17 260.16,-34.43 249.62,-33.36 251.25,-40.17"/>
<g id="a_edge8&#45;headlabel"><a xlink:href="dir_000364_000024.html" target="_top" xlink:title="2">
<text text-anchor="middle" x="249.89" y="-40.91" font-family="Helvetica,sans-Serif" font-size="10.00" fill="#63b8ff">2</text>
</a>
</g>
</g>
<!-- dir_9a87498b9a1b570e9d1e3baca4c4d515 -->
<g id="node5" class="node">
<title>dir_9a87498b9a1b570e9d1e3baca4c4d515</title>
<g id="a_node5"><a xlink:href="dir_9a87498b9a1b570e9d1e3baca4c4d515.html" target="_top" xlink:title="tlbsrc">
<polygon fill="#60a2e3" stroke="#404040" points="65.5,-90 24.5,-90 24.5,-71 65.5,-71 65.5,-90"/>
<text text-anchor="middle" x="45" y="-78" font-family="Helvetica,sans-Serif" font-size="10.00">tlbsrc</text>
</a>
</g>
</g>
<!-- dir_9a87498b9a1b570e9d1e3baca4c4d515&#45;&gt;dir_8a6a67431f985d69787ebf051412922f -->
<g id="edge9" class="edge">
<title>dir_9a87498b9a1b570e9d1e3baca4c4d515&#45;&gt;dir_8a6a67431f985d69787ebf051412922f</title>
<path fill="none" stroke="#63b8ff" d="M60.44,-70.51C74.25,-62.47 94.75,-50.53 110.91,-41.11"/>
<polygon fill="#63b8ff" stroke="#63b8ff" points="112.6,-44.18 119.48,-36.12 109.08,-38.13 112.6,-44.18"/>
<g id="a_edge9&#45;headlabel"><a xlink:href="dir_000380_000078.html" target="_top" xlink:title="1">
<text text-anchor="middle" x="112.23" y="-45.18" font-family="Helvetica,sans-Serif" font-size="10.00" fill="#63b8ff">1</text>
</a>
</g>
</g>
<!-- dir_9a87498b9a1b570e9d1e3baca4c4d515&#45;&gt;dir_bdd9a5d540de89e9fe90efdfc6973a4f -->
<g id="edge10" class="edge">
<title>dir_9a87498b9a1b570e9d1e3baca4c4d515&#45;&gt;dir_bdd9a5d540de89e9fe90efdfc6973a4f</title>
<path fill="none" stroke="#63b8ff" d="M58.87,-70.54C63.79,-67.73 69.48,-64.87 75,-63 149.41,-37.73 175.2,-50.81 250.67,-36.4"/>
<polygon fill="#63b8ff" stroke="#63b8ff" points="251.07,-39.9 260.17,-34.48 249.68,-33.03 251.07,-39.9"/>
<g id="a_edge10&#45;headlabel"><a xlink:href="dir_000380_000024.html" target="_top" xlink:title="1">
<text text-anchor="middle" x="249.59" y="-40.59" font-family="Helvetica,sans-Serif" font-size="10.00" fill="#63b8ff">1</text>
</a>
</g>
</g>
</g>
</svg>
