<?xml version="1.0" encoding="UTF-8" standalone="no"?>
<!DOCTYPE svg PUBLIC "-//W3C//DTD SVG 1.1//EN"
 "http://www.w3.org/Graphics/SVG/1.1/DTD/svg11.dtd">
<!-- Generated by graphviz version 7.0.5 (20221223.1930)
 -->
<!-- Title: iop/sound Pages: 1 -->
<svg width="334pt" height="196pt"
 viewBox="0.00 0.00 334.00 196.00" xmlns="http://www.w3.org/2000/svg" xmlns:xlink="http://www.w3.org/1999/xlink">
<g id="graph0" class="graph" transform="scale(1 1) rotate(0) translate(4 192)">
<title>iop/sound</title>
<g id="clust1" class="cluster">
<title>clusterdir_0981ace215aa2029f526b70c145b9fbe</title>
<g id="a_clust1"><a xlink:href="dir_0981ace215aa2029f526b70c145b9fbe.html" target="_top" xlink:title="iop">
<polygon fill="#deebf9" stroke="#404040" stroke-dasharray="5,2" points="8,-8 8,-180 264,-180 264,-8 8,-8"/>
<text text-anchor="middle" x="136" y="-168" font-family="Helvetica,sans-Serif" font-size="10.00">iop</text>
</a>
</g>
</g>
<g id="clust2" class="cluster">
<title>clusterdir_838e88315325ec0d843359dcae22d639</title>
<g id="a_clust2"><a xlink:href="dir_838e88315325ec0d843359dcae22d639.html" target="_top">
<polygon fill="#deebf9" stroke="#404040" stroke-width="2" points="16,-63 16,-153 256,-153 256,-63 16,-63"/>
</a>
</g>
</g>
<!-- dir_9be0baa3d4a3e9f480a9ee70594037fa -->
<g id="node1" class="node">
<title>dir_9be0baa3d4a3e9f480a9ee70594037fa</title>
<g id="a_node1"><a xlink:href="dir_9be0baa3d4a3e9f480a9ee70594037fa.html" target="_top" xlink:title="kernel">
<polygon fill="#60a2e3" stroke="red" points="112.5,-35 69.5,-35 69.5,-16 112.5,-16 112.5,-35"/>
<text text-anchor="middle" x="91" y="-23" font-family="Helvetica,sans-Serif" font-size="10.00">kernel</text>
</a>
</g>
</g>
<!-- dir_838e88315325ec0d843359dcae22d639 -->
<g id="node2" class="node">
<title>dir_838e88315325ec0d843359dcae22d639</title>
<text text-anchor="middle" x="226" y="-133" font-family="Helvetica,sans-Serif" font-size="10.00">sound</text>
</g>
<!-- dir_9337eeae2b875a84dbe6e00bf944922d -->
<g id="node3" class="node">
<title>dir_9337eeae2b875a84dbe6e00bf944922d</title>
<g id="a_node3"><a xlink:href="dir_9337eeae2b875a84dbe6e00bf944922d.html" target="_top" xlink:title="ahx">
<polygon fill="#60a2e3" stroke="#404040" points="56,-145 24,-145 24,-126 56,-126 56,-145"/>
<text text-anchor="middle" x="40" y="-133" font-family="Helvetica,sans-Serif" font-size="10.00">ahx</text>
</a>
</g>
</g>
<!-- dir_9337eeae2b875a84dbe6e00bf944922d&#45;&gt;dir_9be0baa3d4a3e9f480a9ee70594037fa -->
<g id="edge1" class="edge">
<title>dir_9337eeae2b875a84dbe6e00bf944922d&#45;&gt;dir_9be0baa3d4a3e9f480a9ee70594037fa</title>
<path fill="none" stroke="#63b8ff" d="M47.27,-125.8C54.17,-117.17 64.44,-103.35 71,-90 77.88,-76.01 83.06,-59.13 86.42,-46.29"/>
<polygon fill="#63b8ff" stroke="#63b8ff" points="89.74,-47.47 88.73,-36.92 82.94,-45.8 89.74,-47.47"/>
<g id="a_edge1&#45;headlabel"><a xlink:href="dir_000004_000166.html" target="_top" xlink:title="14">
<text text-anchor="middle" x="92" y="-47.67" font-family="Helvetica,sans-Serif" font-size="10.00" fill="#63b8ff">14</text>
</a>
</g>
</g>
<!-- dir_b3b65c61938638f28675fc77a7fe35e3 -->
<g id="node5" class="node">
<title>dir_b3b65c61938638f28675fc77a7fe35e3</title>
<g id="a_node5"><a xlink:href="dir_b3b65c61938638f28675fc77a7fe35e3.html" target="_top" xlink:title="libsd">
<polygon fill="#60a2e3" stroke="#404040" points="61.5,-90 24.5,-90 24.5,-71 61.5,-71 61.5,-90"/>
<text text-anchor="middle" x="43" y="-78" font-family="Helvetica,sans-Serif" font-size="10.00">libsd</text>
</a>
</g>
</g>
<!-- dir_9337eeae2b875a84dbe6e00bf944922d&#45;&gt;dir_b3b65c61938638f28675fc77a7fe35e3 -->
<g id="edge2" class="edge">
<title>dir_9337eeae2b875a84dbe6e00bf944922d&#45;&gt;dir_b3b65c61938638f28675fc77a7fe35e3</title>
<path fill="none" stroke="#63b8ff" d="M40.5,-125.75C40.86,-119.27 41.38,-110.16 41.85,-101.9"/>
<polygon fill="#63b8ff" stroke="#63b8ff" points="45.34,-102.13 42.41,-91.95 38.35,-101.74 45.34,-102.13"/>
<g id="a_edge2&#45;headlabel"><a xlink:href="dir_000004_000176.html" target="_top" xlink:title="1">
<text text-anchor="middle" x="48.05" y="-101.87" font-family="Helvetica,sans-Serif" font-size="10.00" fill="#63b8ff">1</text>
</a>
</g>
</g>
<!-- dir_c224f8f6f41c46dc69cc573710289bc0 -->
<g id="node4" class="node">
<title>dir_c224f8f6f41c46dc69cc573710289bc0</title>
<g id="a_node4"><a xlink:href="dir_c224f8f6f41c46dc69cc573710289bc0.html" target="_top" xlink:title="audsrv">
<polygon fill="#60a2e3" stroke="#404040" points="120,-145 74,-145 74,-126 120,-126 120,-145"/>
<text text-anchor="middle" x="97" y="-133" font-family="Helvetica,sans-Serif" font-size="10.00">audsrv</text>
</a>
</g>
</g>
<!-- dir_c224f8f6f41c46dc69cc573710289bc0&#45;&gt;dir_9be0baa3d4a3e9f480a9ee70594037fa -->
<g id="edge3" class="edge">
<title>dir_c224f8f6f41c46dc69cc573710289bc0&#45;&gt;dir_9be0baa3d4a3e9f480a9ee70594037fa</title>
<path fill="none" stroke="#63b8ff" d="M96.51,-125.66C95.56,-108.57 93.45,-70.61 92.13,-46.92"/>
<polygon fill="#63b8ff" stroke="#63b8ff" points="95.63,-46.76 91.58,-36.97 88.64,-47.15 95.63,-46.76"/>
<g id="a_edge3&#45;headlabel"><a xlink:href="dir_000012_000166.html" target="_top" xlink:title="53">
<text text-anchor="middle" x="98.58" y="-46.18" font-family="Helvetica,sans-Serif" font-size="10.00" fill="#63b8ff">53</text>
</a>
</g>
</g>
<!-- dir_b3b65c61938638f28675fc77a7fe35e3&#45;&gt;dir_9be0baa3d4a3e9f480a9ee70594037fa -->
<g id="edge4" class="edge">
<title>dir_b3b65c61938638f28675fc77a7fe35e3&#45;&gt;dir_9be0baa3d4a3e9f480a9ee70594037fa</title>
<path fill="none" stroke="#63b8ff" d="M50.93,-70.75C57.56,-63.43 67.22,-52.76 75.39,-43.74"/>
<polygon fill="#63b8ff" stroke="#63b8ff" points="77.77,-46.33 81.89,-36.56 72.58,-41.63 77.77,-46.33"/>
<g id="a_edge4&#45;headlabel"><a xlink:href="dir_000176_000166.html" target="_top" xlink:title="15">
<text text-anchor="middle" x="78.47" y="-47.27" font-family="Helvetica,sans-Serif" font-size="10.00" fill="#63b8ff">15</text>
</a>
</g>
</g>
<!-- dir_0fa59b7b5c95696e5fa18237205389fe -->
<g id="node6" class="node">
<title>dir_0fa59b7b5c95696e5fa18237205389fe</title>
<g id="a_node6"><a xlink:href="dir_0fa59b7b5c95696e5fa18237205389fe.html" target="_top" xlink:title="ps2snd">
<polygon fill="#60a2e3" stroke="#404040" points="186,-145 138,-145 138,-126 186,-126 186,-145"/>
<text text-anchor="middle" x="162" y="-133" font-family="Helvetica,sans-Serif" font-size="10.00">ps2snd</text>
</a>
</g>
</g>
<!-- dir_0fa59b7b5c95696e5fa18237205389fe&#45;&gt;dir_9be0baa3d4a3e9f480a9ee70594037fa -->
<g id="edge5" class="edge">
<title>dir_0fa59b7b5c95696e5fa18237205389fe&#45;&gt;dir_9be0baa3d4a3e9f480a9ee70594037fa</title>
<path fill="none" stroke="#63b8ff" d="M156.19,-125.66C144.64,-108.1 118.6,-68.48 103.15,-44.98"/>
<polygon fill="#63b8ff" stroke="#63b8ff" points="106.14,-43.16 97.72,-36.72 100.29,-47 106.14,-43.16"/>
<g id="a_edge5&#45;headlabel"><a xlink:href="dir_000214_000166.html" target="_top" xlink:title="23">
<text text-anchor="middle" x="109.66" y="-40.84" font-family="Helvetica,sans-Serif" font-size="10.00" fill="#63b8ff">23</text>
</a>
</g>
</g>
<!-- dir_bdd9a5d540de89e9fe90efdfc6973a4f -->
<g id="node7" class="node">
<title>dir_bdd9a5d540de89e9fe90efdfc6973a4f</title>
<g id="a_node7"><a xlink:href="dir_bdd9a5d540de89e9fe90efdfc6973a4f.html" target="_top" xlink:title="common">
<polygon fill="#deebf9" stroke="red" points="326,-90 272,-90 272,-71 326,-71 326,-90"/>
<text text-anchor="middle" x="299" y="-78" font-family="Helvetica,sans-Serif" font-size="10.00">common</text>
</a>
</g>
</g>
<!-- dir_0fa59b7b5c95696e5fa18237205389fe&#45;&gt;dir_bdd9a5d540de89e9fe90efdfc6973a4f -->
<g id="edge6" class="edge">
<title>dir_0fa59b7b5c95696e5fa18237205389fe&#45;&gt;dir_bdd9a5d540de89e9fe90efdfc6973a4f</title>
<path fill="none" stroke="#63b8ff" d="M185.24,-125.51C207.32,-116.97 240.75,-104.03 265.67,-94.4"/>
<polygon fill="#63b8ff" stroke="#63b8ff" points="266.63,-97.78 274.69,-90.9 264.1,-91.25 266.63,-97.78"/>
<g id="a_edge6&#45;headlabel"><a xlink:href="dir_000214_000024.html" target="_top" xlink:title="2">
<text text-anchor="middle" x="265.71" y="-98.68" font-family="Helvetica,sans-Serif" font-size="10.00" fill="#63b8ff">2</text>
</a>
</g>
</g>
</g>
</svg>
