<?xml version="1.0" encoding="UTF-8" standalone="no"?>
<!DOCTYPE svg PUBLIC "-//W3C//DTD SVG 1.1//EN"
 "http://www.w3.org/Graphics/SVG/1.1/DTD/svg11.dtd">
<!-- Generated by graphviz version 7.0.5 (20221223.1930)
 -->
<!-- Title: ee/rpc/ahx Pages: 1 -->
<svg width="346pt" height="149pt"
 viewBox="0.00 0.00 345.50 149.00" xmlns="http://www.w3.org/2000/svg" xmlns:xlink="http://www.w3.org/1999/xlink">
<g id="graph0" class="graph" transform="scale(1 1) rotate(0) translate(4 145)">
<title>ee/rpc/ahx</title>
<g id="clust1" class="cluster">
<title>clusterdir_5b119dc963fa9b25ef41951231899460</title>
<g id="a_clust1"><a xlink:href="dir_5b119dc963fa9b25ef41951231899460.html" target="_top" xlink:title="rpc">
<polygon fill="#deebf9" stroke="#7f7f7f" stroke-dasharray="5,2" points="8,-8 8,-133 120,-133 120,-8 8,-8"/>
<text text-anchor="middle" x="64" y="-121" font-family="Helvetica,sans-Serif" font-size="10.00">rpc</text>
</a>
</g>
</g>
<g id="clust2" class="cluster">
<title>clusterdir_4aa16fa050235bfcc2447f6060318e0e</title>
<g id="a_clust2"><a xlink:href="dir_4aa16fa050235bfcc2447f6060318e0e.html" target="_top">
<polygon fill="#deebf9" stroke="#404040" stroke-width="2" points="16,-16 16,-106 112,-106 112,-16 16,-16"/>
</a>
</g>
</g>
<!-- dir_4aa16fa050235bfcc2447f6060318e0e -->
<g id="node1" class="node">
<title>dir_4aa16fa050235bfcc2447f6060318e0e</title>
<text text-anchor="middle" x="88" y="-86" font-family="Helvetica,sans-Serif" font-size="10.00">ahx</text>
</g>
<!-- dir_f880cd0723e9ab7c57124c2f1349ba73 -->
<g id="node2" class="node">
<title>dir_f880cd0723e9ab7c57124c2f1349ba73</title>
<g id="a_node2"><a xlink:href="dir_f880cd0723e9ab7c57124c2f1349ba73.html" target="_top" xlink:title="include">
<polygon fill="#60a2e3" stroke="#404040" points="71.5,-43 24.5,-43 24.5,-24 71.5,-24 71.5,-43"/>
<text text-anchor="middle" x="48" y="-31" font-family="Helvetica,sans-Serif" font-size="10.00">include</text>
</a>
</g>
</g>
<!-- dir_35627888e3e0e91a0397ea271ffc9b90 -->
<g id="node3" class="node">
<title>dir_35627888e3e0e91a0397ea271ffc9b90</title>
<g id="a_node3"><a xlink:href="dir_35627888e3e0e91a0397ea271ffc9b90.html" target="_top" xlink:title="src">
<polygon fill="#60a2e3" stroke="#404040" points="54,-98 24,-98 24,-79 54,-79 54,-98"/>
<text text-anchor="middle" x="39" y="-86" font-family="Helvetica,sans-Serif" font-size="10.00">src</text>
</a>
</g>
</g>
<!-- dir_35627888e3e0e91a0397ea271ffc9b90&#45;&gt;dir_f880cd0723e9ab7c57124c2f1349ba73 -->
<g id="edge5" class="edge">
<title>dir_35627888e3e0e91a0397ea271ffc9b90&#45;&gt;dir_f880cd0723e9ab7c57124c2f1349ba73</title>
<path fill="none" stroke="#63b8ff" d="M40.49,-78.75C41.6,-72.19 43.17,-62.95 44.59,-54.6"/>
<polygon fill="#63b8ff" stroke="#63b8ff" points="48,-55.38 46.23,-44.93 41.1,-54.21 48,-55.38"/>
<g id="a_edge5&#45;headlabel"><a xlink:href="dir_000265_000090.html" target="_top" xlink:title="1">
<text text-anchor="middle" x="50.46" y="-55.41" font-family="Helvetica,sans-Serif" font-size="10.00" fill="#63b8ff">1</text>
</a>
</g>
</g>
<!-- dir_bdd9a5d540de89e9fe90efdfc6973a4f -->
<g id="node4" class="node">
<title>dir_bdd9a5d540de89e9fe90efdfc6973a4f</title>
<g id="a_node4"><a xlink:href="dir_bdd9a5d540de89e9fe90efdfc6973a4f.html" target="_top" xlink:title="common">
<polygon fill="#deebf9" stroke="red" points="182,-43 128,-43 128,-24 182,-24 182,-43"/>
<text text-anchor="middle" x="155" y="-31" font-family="Helvetica,sans-Serif" font-size="10.00">common</text>
</a>
</g>
</g>
<!-- dir_35627888e3e0e91a0397ea271ffc9b90&#45;&gt;dir_bdd9a5d540de89e9fe90efdfc6973a4f -->
<g id="edge4" class="edge">
<title>dir_35627888e3e0e91a0397ea271ffc9b90&#45;&gt;dir_bdd9a5d540de89e9fe90efdfc6973a4f</title>
<path fill="none" stroke="#63b8ff" d="M54.16,-80.57C72.11,-72.37 102.41,-58.53 125.12,-48.15"/>
<polygon fill="#63b8ff" stroke="#63b8ff" points="126.56,-51.34 134.2,-44 123.65,-44.98 126.56,-51.34"/>
<g id="a_edge4&#45;headlabel"><a xlink:href="dir_000265_000024.html" target="_top" xlink:title="1">
<text text-anchor="middle" x="125.85" y="-52.29" font-family="Helvetica,sans-Serif" font-size="10.00" fill="#63b8ff">1</text>
</a>
</g>
</g>
<!-- dir_694ec83a64f58cbdefbefce65cd1011c -->
<g id="node5" class="node">
<title>dir_694ec83a64f58cbdefbefce65cd1011c</title>
<g id="a_node5"><a xlink:href="dir_694ec83a64f58cbdefbefce65cd1011c.html" target="_top" xlink:title="kernel">
<polygon fill="#deebf9" stroke="red" stroke-dasharray="5,2" points="243.5,-43 200.5,-43 200.5,-24 243.5,-24 243.5,-43"/>
<text text-anchor="middle" x="222" y="-31" font-family="Helvetica,sans-Serif" font-size="10.00">kernel</text>
</a>
</g>
</g>
<!-- dir_35627888e3e0e91a0397ea271ffc9b90&#45;&gt;dir_694ec83a64f58cbdefbefce65cd1011c -->
<g id="edge2" class="edge">
<title>dir_35627888e3e0e91a0397ea271ffc9b90&#45;&gt;dir_694ec83a64f58cbdefbefce65cd1011c</title>
<path fill="none" stroke="#63b8ff" d="M54.44,-81.86C57.28,-80.87 60.22,-79.88 63,-79 75.08,-75.18 146.3,-55.41 189.22,-43.55"/>
<polygon fill="#63b8ff" stroke="#63b8ff" points="190.08,-46.94 198.79,-40.9 188.22,-40.19 190.08,-46.94"/>
<g id="a_edge2&#45;headlabel"><a xlink:href="dir_000265_000165.html" target="_top" xlink:title="1">
<text text-anchor="middle" x="188.83" y="-47.73" font-family="Helvetica,sans-Serif" font-size="10.00" fill="#63b8ff">1</text>
</a>
</g>
</g>
<!-- dir_0981ace215aa2029f526b70c145b9fbe -->
<g id="node6" class="node">
<title>dir_0981ace215aa2029f526b70c145b9fbe</title>
<g id="a_node6"><a xlink:href="dir_0981ace215aa2029f526b70c145b9fbe.html" target="_top" xlink:title="iop">
<polygon fill="#deebf9" stroke="red" points="290.5,-43 261.5,-43 261.5,-24 290.5,-24 290.5,-43"/>
<text text-anchor="middle" x="276" y="-31" font-family="Helvetica,sans-Serif" font-size="10.00">iop</text>
</a>
</g>
</g>
<!-- dir_35627888e3e0e91a0397ea271ffc9b90&#45;&gt;dir_0981ace215aa2029f526b70c145b9fbe -->
<g id="edge1" class="edge">
<title>dir_35627888e3e0e91a0397ea271ffc9b90&#45;&gt;dir_0981ace215aa2029f526b70c145b9fbe</title>
<path fill="none" stroke="#63b8ff" d="M54.38,-81.66C57.22,-80.69 60.18,-79.76 63,-79 142.49,-57.53 168.04,-65.24 249.92,-43.48"/>
<polygon fill="#63b8ff" stroke="#63b8ff" points="250.84,-46.86 259.56,-40.84 248.99,-40.11 250.84,-46.86"/>
<g id="a_edge1&#45;headlabel"><a xlink:href="dir_000265_000159.html" target="_top" xlink:title="1">
<text text-anchor="middle" x="249.58" y="-47.64" font-family="Helvetica,sans-Serif" font-size="10.00" fill="#63b8ff">1</text>
</a>
</g>
</g>
<!-- dir_a0a8ac7efb6662b749c1285408048e6d -->
<g id="node7" class="node">
<title>dir_a0a8ac7efb6662b749c1285408048e6d</title>
<g id="a_node7"><a xlink:href="dir_a0a8ac7efb6662b749c1285408048e6d.html" target="_top" xlink:title="erl">
<polygon fill="#deebf9" stroke="red" stroke-dasharray="5,2" points="337.5,-43 308.5,-43 308.5,-24 337.5,-24 337.5,-43"/>
<text text-anchor="middle" x="323" y="-31" font-family="Helvetica,sans-Serif" font-size="10.00">erl</text>
</a>
</g>
</g>
<!-- dir_35627888e3e0e91a0397ea271ffc9b90&#45;&gt;dir_a0a8ac7efb6662b749c1285408048e6d -->
<g id="edge3" class="edge">
<title>dir_35627888e3e0e91a0397ea271ffc9b90&#45;&gt;dir_a0a8ac7efb6662b749c1285408048e6d</title>
<path fill="none" stroke="#63b8ff" d="M54.36,-81.58C57.2,-80.62 60.17,-79.71 63,-79 162.81,-53.98 194.66,-68.52 296.92,-43.35"/>
<polygon fill="#63b8ff" stroke="#63b8ff" points="297.75,-46.75 306.58,-40.9 296.02,-39.97 297.75,-46.75"/>
<g id="a_edge3&#45;headlabel"><a xlink:href="dir_000265_000045.html" target="_top" xlink:title="1">
<text text-anchor="middle" x="296.43" y="-47.51" font-family="Helvetica,sans-Serif" font-size="10.00" fill="#63b8ff">1</text>
</a>
</g>
</g>
</g>
</svg>
