<?xml version="1.0" encoding="UTF-8" standalone="no"?>
<!DOCTYPE svg PUBLIC "-//W3C//DTD SVG 1.1//EN"
 "http://www.w3.org/Graphics/SVG/1.1/DTD/svg11.dtd">
<!-- Generated by graphviz version 7.0.5 (20221223.1930)
 -->
<!-- Title: iop/dev9/hdpro_atad/src Pages: 1 -->
<svg width="177pt" height="117pt"
 viewBox="0.00 0.00 177.00 117.00" xmlns="http://www.w3.org/2000/svg" xmlns:xlink="http://www.w3.org/1999/xlink">
<g id="graph0" class="graph" transform="scale(1 1) rotate(0) translate(4 113)">
<title>iop/dev9/hdpro_atad/src</title>
<g id="clust1" class="cluster">
<title>clusterdir_7e10c943c08a69732df0d9710348ffa0</title>
<g id="a_clust1"><a xlink:href="dir_7e10c943c08a69732df0d9710348ffa0.html" target="_top" xlink:title="hdpro_atad">
<polygon fill="#deebf9" stroke="#7f7f7f" stroke-dasharray="5,2" points="56.5,-47 56.5,-101 121.5,-101 121.5,-47 56.5,-47"/>
<text text-anchor="middle" x="89" y="-89" font-family="Helvetica,sans-Serif" font-size="10.00">hdpro_atad</text>
</a>
</g>
</g>
<!-- dir_f5a864409d3e095bcda6e0b97e9111ab -->
<g id="node1" class="node">
<title>dir_f5a864409d3e095bcda6e0b97e9111ab</title>
<g id="a_node1"><a xlink:href="dir_f5a864409d3e095bcda6e0b97e9111ab.html" target="_top" xlink:title="src">
<polygon fill="#deebf9" stroke="#404040" stroke-width="2" points="103.5,-74 73.5,-74 73.5,-55 103.5,-55 103.5,-74"/>
<text text-anchor="middle" x="88.5" y="-62" font-family="Helvetica,sans-Serif" font-size="10.00">src</text>
</a>
</g>
</g>
<!-- dir_9be0baa3d4a3e9f480a9ee70594037fa -->
<g id="node2" class="node">
<title>dir_9be0baa3d4a3e9f480a9ee70594037fa</title>
<g id="a_node2"><a xlink:href="dir_9be0baa3d4a3e9f480a9ee70594037fa.html" target="_top" xlink:title="kernel">
<polygon fill="#deebf9" stroke="red" stroke-dasharray="5,2" points="43,-19 0,-19 0,0 43,0 43,-19"/>
<text text-anchor="middle" x="21.5" y="-7" font-family="Helvetica,sans-Serif" font-size="10.00">kernel</text>
</a>
</g>
</g>
<!-- dir_f5a864409d3e095bcda6e0b97e9111ab&#45;&gt;dir_9be0baa3d4a3e9f480a9ee70594037fa -->
<g id="edge1" class="edge">
<title>dir_f5a864409d3e095bcda6e0b97e9111ab&#45;&gt;dir_9be0baa3d4a3e9f480a9ee70594037fa</title>
<path fill="none" stroke="#63b8ff" d="M77.13,-54.51C67.45,-46.85 53.3,-35.66 41.69,-26.47"/>
<polygon fill="#63b8ff" stroke="#63b8ff" points="43.9,-23.76 33.88,-20.3 39.56,-29.25 43.9,-23.76"/>
<g id="a_edge1&#45;headlabel"><a xlink:href="dir_000291_000166.html" target="_top" xlink:title="15">
<text text-anchor="middle" x="47.29" y="-20.32" font-family="Helvetica,sans-Serif" font-size="10.00" fill="#63b8ff">15</text>
</a>
</g>
</g>
<!-- dir_bdd9a5d540de89e9fe90efdfc6973a4f -->
<g id="node3" class="node">
<title>dir_bdd9a5d540de89e9fe90efdfc6973a4f</title>
<g id="a_node3"><a xlink:href="dir_bdd9a5d540de89e9fe90efdfc6973a4f.html" target="_top" xlink:title="common">
<polygon fill="#deebf9" stroke="red" points="115.5,-19 61.5,-19 61.5,0 115.5,0 115.5,-19"/>
<text text-anchor="middle" x="88.5" y="-7" font-family="Helvetica,sans-Serif" font-size="10.00">common</text>
</a>
</g>
</g>
<!-- dir_f5a864409d3e095bcda6e0b97e9111ab&#45;&gt;dir_bdd9a5d540de89e9fe90efdfc6973a4f -->
<g id="edge2" class="edge">
<title>dir_f5a864409d3e095bcda6e0b97e9111ab&#45;&gt;dir_bdd9a5d540de89e9fe90efdfc6973a4f</title>
<path fill="none" stroke="#63b8ff" d="M88.5,-54.75C88.5,-48.27 88.5,-39.16 88.5,-30.9"/>
<polygon fill="#63b8ff" stroke="#63b8ff" points="92,-30.96 88.5,-20.96 85,-30.96 92,-30.96"/>
<g id="a_edge2&#45;headlabel"><a xlink:href="dir_000291_000024.html" target="_top" xlink:title="1">
<text text-anchor="middle" x="94.84" y="-30.54" font-family="Helvetica,sans-Serif" font-size="10.00" fill="#63b8ff">1</text>
</a>
</g>
</g>
<!-- dir_c9fad5ea75093c7356ef5f2b903232b1 -->
<g id="node4" class="node">
<title>dir_c9fad5ea75093c7356ef5f2b903232b1</title>
<g id="a_node4"><a xlink:href="dir_c9fad5ea75093c7356ef5f2b903232b1.html" target="_top" xlink:title="atad">
<polygon fill="#deebf9" stroke="red" stroke-dasharray="5,2" points="169,-19 134,-19 134,0 169,0 169,-19"/>
<text text-anchor="middle" x="151.5" y="-7" font-family="Helvetica,sans-Serif" font-size="10.00">atad</text>
</a>
</g>
</g>
<!-- dir_f5a864409d3e095bcda6e0b97e9111ab&#45;&gt;dir_c9fad5ea75093c7356ef5f2b903232b1 -->
<g id="edge3" class="edge">
<title>dir_f5a864409d3e095bcda6e0b97e9111ab&#45;&gt;dir_c9fad5ea75093c7356ef5f2b903232b1</title>
<path fill="none" stroke="#63b8ff" d="M99.19,-54.51C108.2,-46.93 121.33,-35.88 132.18,-26.75"/>
<polygon fill="#63b8ff" stroke="#63b8ff" points="134.41,-29.45 139.81,-20.33 129.91,-24.09 134.41,-29.45"/>
<g id="a_edge3&#45;headlabel"><a xlink:href="dir_000291_000010.html" target="_top" xlink:title="1">
<text text-anchor="middle" x="134.65" y="-30.46" font-family="Helvetica,sans-Serif" font-size="10.00" fill="#63b8ff">1</text>
</a>
</g>
</g>
</g>
</svg>
