<?xml version="1.0" encoding="UTF-8" standalone="no"?>
<!DOCTYPE svg PUBLIC "-//W3C//DTD SVG 1.1//EN"
 "http://www.w3.org/Graphics/SVG/1.1/DTD/svg11.dtd">
<!-- Generated by graphviz version 7.0.5 (20221223.1930)
 -->
<!-- Title: ee/rpc/filexio Pages: 1 -->
<svg width="284pt" height="180pt"
 viewBox="0.00 0.00 283.50 180.00" xmlns="http://www.w3.org/2000/svg" xmlns:xlink="http://www.w3.org/1999/xlink">
<g id="graph0" class="graph" transform="scale(1 1) rotate(0) translate(4 176)">
<title>ee/rpc/filexio</title>
<g id="clust1" class="cluster">
<title>clusterdir_5b119dc963fa9b25ef41951231899460</title>
<g id="a_clust1"><a xlink:href="dir_5b119dc963fa9b25ef41951231899460.html" target="_top" xlink:title="rpc">
<polygon fill="#deebf9" stroke="#7f7f7f" stroke-dasharray="5,2" points="8,-39 8,-164 130,-164 130,-39 8,-39"/>
<text text-anchor="middle" x="69" y="-152" font-family="Helvetica,sans-Serif" font-size="10.00">rpc</text>
</a>
</g>
</g>
<g id="clust2" class="cluster">
<title>clusterdir_6b1fe306776c19ae02b5b1275d4c63ec</title>
<g id="a_clust2"><a xlink:href="dir_6b1fe306776c19ae02b5b1275d4c63ec.html" target="_top">
<polygon fill="#deebf9" stroke="#404040" stroke-width="2" points="16,-47 16,-137 122,-137 122,-47 16,-47"/>
</a>
</g>
</g>
<!-- dir_6b1fe306776c19ae02b5b1275d4c63ec -->
<g id="node1" class="node">
<title>dir_6b1fe306776c19ae02b5b1275d4c63ec</title>
<text text-anchor="middle" x="93" y="-117" font-family="Helvetica,sans-Serif" font-size="10.00">filexio</text>
</g>
<!-- dir_21af483e535eeeda1b3e0ebbd7a8a7a3 -->
<g id="node2" class="node">
<title>dir_21af483e535eeeda1b3e0ebbd7a8a7a3</title>
<g id="a_node2"><a xlink:href="dir_21af483e535eeeda1b3e0ebbd7a8a7a3.html" target="_top" xlink:title="include">
<polygon fill="#60a2e3" stroke="#404040" points="71.5,-74 24.5,-74 24.5,-55 71.5,-55 71.5,-74"/>
<text text-anchor="middle" x="48" y="-62" font-family="Helvetica,sans-Serif" font-size="10.00">include</text>
</a>
</g>
</g>
<!-- dir_bdd9a5d540de89e9fe90efdfc6973a4f -->
<g id="node4" class="node">
<title>dir_bdd9a5d540de89e9fe90efdfc6973a4f</title>
<g id="a_node4"><a xlink:href="dir_bdd9a5d540de89e9fe90efdfc6973a4f.html" target="_top" xlink:title="common">
<polygon fill="#deebf9" stroke="red" points="101,-19 47,-19 47,0 101,0 101,-19"/>
<text text-anchor="middle" x="74" y="-7" font-family="Helvetica,sans-Serif" font-size="10.00">common</text>
</a>
</g>
</g>
<!-- dir_21af483e535eeeda1b3e0ebbd7a8a7a3&#45;&gt;dir_bdd9a5d540de89e9fe90efdfc6973a4f -->
<g id="edge1" class="edge">
<title>dir_21af483e535eeeda1b3e0ebbd7a8a7a3&#45;&gt;dir_bdd9a5d540de89e9fe90efdfc6973a4f</title>
<path fill="none" stroke="#63b8ff" d="M52.29,-54.75C55.62,-47.96 60.36,-38.3 64.56,-29.73"/>
<polygon fill="#63b8ff" stroke="#63b8ff" points="67.68,-31.32 68.95,-20.8 61.4,-28.24 67.68,-31.32"/>
<g id="a_edge1&#45;headlabel"><a xlink:href="dir_000094_000024.html" target="_top" xlink:title="1">
<text text-anchor="middle" x="69.32" y="-31.94" font-family="Helvetica,sans-Serif" font-size="10.00" fill="#63b8ff">1</text>
</a>
</g>
</g>
<!-- dir_2e51deef12334dd084da5d9140b29b47 -->
<g id="node3" class="node">
<title>dir_2e51deef12334dd084da5d9140b29b47</title>
<g id="a_node3"><a xlink:href="dir_2e51deef12334dd084da5d9140b29b47.html" target="_top" xlink:title="src">
<polygon fill="#60a2e3" stroke="#404040" points="54,-129 24,-129 24,-110 54,-110 54,-129"/>
<text text-anchor="middle" x="39" y="-117" font-family="Helvetica,sans-Serif" font-size="10.00">src</text>
</a>
</g>
</g>
<!-- dir_2e51deef12334dd084da5d9140b29b47&#45;&gt;dir_21af483e535eeeda1b3e0ebbd7a8a7a3 -->
<g id="edge3" class="edge">
<title>dir_2e51deef12334dd084da5d9140b29b47&#45;&gt;dir_21af483e535eeeda1b3e0ebbd7a8a7a3</title>
<path fill="none" stroke="#63b8ff" d="M40.49,-109.75C41.6,-103.19 43.17,-93.95 44.59,-85.6"/>
<polygon fill="#63b8ff" stroke="#63b8ff" points="48,-86.38 46.23,-75.93 41.1,-85.21 48,-86.38"/>
<g id="a_edge3&#45;headlabel"><a xlink:href="dir_000269_000094.html" target="_top" xlink:title="1">
<text text-anchor="middle" x="50.46" y="-86.41" font-family="Helvetica,sans-Serif" font-size="10.00" fill="#63b8ff">1</text>
</a>
</g>
</g>
<!-- dir_2e51deef12334dd084da5d9140b29b47&#45;&gt;dir_bdd9a5d540de89e9fe90efdfc6973a4f -->
<g id="edge6" class="edge">
<title>dir_2e51deef12334dd084da5d9140b29b47&#45;&gt;dir_bdd9a5d540de89e9fe90efdfc6973a4f</title>
<path fill="none" stroke="#63b8ff" d="M51.61,-109.55C61.71,-101.54 75.12,-88.81 81,-74 86.52,-60.1 84.28,-43.21 80.93,-30.35"/>
<polygon fill="#63b8ff" stroke="#63b8ff" points="84.31,-29.46 78.03,-20.93 77.62,-31.52 84.31,-29.46"/>
<g id="a_edge6&#45;headlabel"><a xlink:href="dir_000269_000024.html" target="_top" xlink:title="2">
<text text-anchor="middle" x="87.64" y="-28.11" font-family="Helvetica,sans-Serif" font-size="10.00" fill="#63b8ff">2</text>
</a>
</g>
</g>
<!-- dir_a0a8ac7efb6662b749c1285408048e6d -->
<g id="node5" class="node">
<title>dir_a0a8ac7efb6662b749c1285408048e6d</title>
<g id="a_node5"><a xlink:href="dir_a0a8ac7efb6662b749c1285408048e6d.html" target="_top" xlink:title="erl">
<polygon fill="#deebf9" stroke="red" stroke-dasharray="5,2" points="167.5,-74 138.5,-74 138.5,-55 167.5,-55 167.5,-74"/>
<text text-anchor="middle" x="153" y="-62" font-family="Helvetica,sans-Serif" font-size="10.00">erl</text>
</a>
</g>
</g>
<!-- dir_2e51deef12334dd084da5d9140b29b47&#45;&gt;dir_a0a8ac7efb6662b749c1285408048e6d -->
<g id="edge5" class="edge">
<title>dir_2e51deef12334dd084da5d9140b29b47&#45;&gt;dir_a0a8ac7efb6662b749c1285408048e6d</title>
<path fill="none" stroke="#63b8ff" d="M54.37,-111.35C73.28,-102.56 105.62,-87.53 128.09,-77.08"/>
<polygon fill="#63b8ff" stroke="#63b8ff" points="129.26,-80.39 136.86,-73 126.31,-74.05 129.26,-80.39"/>
<g id="a_edge5&#45;headlabel"><a xlink:href="dir_000269_000045.html" target="_top" xlink:title="1">
<text text-anchor="middle" x="128.57" y="-81.35" font-family="Helvetica,sans-Serif" font-size="10.00" fill="#63b8ff">1</text>
</a>
</g>
</g>
<!-- dir_694ec83a64f58cbdefbefce65cd1011c -->
<g id="node6" class="node">
<title>dir_694ec83a64f58cbdefbefce65cd1011c</title>
<g id="a_node6"><a xlink:href="dir_694ec83a64f58cbdefbefce65cd1011c.html" target="_top" xlink:title="kernel">
<polygon fill="#deebf9" stroke="red" stroke-dasharray="5,2" points="228.5,-74 185.5,-74 185.5,-55 228.5,-55 228.5,-74"/>
<text text-anchor="middle" x="207" y="-62" font-family="Helvetica,sans-Serif" font-size="10.00">kernel</text>
</a>
</g>
</g>
<!-- dir_2e51deef12334dd084da5d9140b29b47&#45;&gt;dir_694ec83a64f58cbdefbefce65cd1011c -->
<g id="edge4" class="edge">
<title>dir_2e51deef12334dd084da5d9140b29b47&#45;&gt;dir_694ec83a64f58cbdefbefce65cd1011c</title>
<path fill="none" stroke="#63b8ff" d="M54.32,-113.22C57.51,-112.14 60.86,-111.02 64,-110 101.76,-97.71 145.36,-84.24 174.4,-75.38"/>
<polygon fill="#63b8ff" stroke="#63b8ff" points="175.15,-78.81 183.69,-72.55 173.11,-72.12 175.15,-78.81"/>
<g id="a_edge4&#45;headlabel"><a xlink:href="dir_000269_000165.html" target="_top" xlink:title="1">
<text text-anchor="middle" x="173.98" y="-79.63" font-family="Helvetica,sans-Serif" font-size="10.00" fill="#63b8ff">1</text>
</a>
</g>
</g>
<!-- dir_0981ace215aa2029f526b70c145b9fbe -->
<g id="node7" class="node">
<title>dir_0981ace215aa2029f526b70c145b9fbe</title>
<g id="a_node7"><a xlink:href="dir_0981ace215aa2029f526b70c145b9fbe.html" target="_top" xlink:title="iop">
<polygon fill="#deebf9" stroke="red" points="275.5,-74 246.5,-74 246.5,-55 275.5,-55 275.5,-74"/>
<text text-anchor="middle" x="261" y="-62" font-family="Helvetica,sans-Serif" font-size="10.00">iop</text>
</a>
</g>
</g>
<!-- dir_2e51deef12334dd084da5d9140b29b47&#45;&gt;dir_0981ace215aa2029f526b70c145b9fbe -->
<g id="edge2" class="edge">
<title>dir_2e51deef12334dd084da5d9140b29b47&#45;&gt;dir_0981ace215aa2029f526b70c145b9fbe</title>
<path fill="none" stroke="#63b8ff" d="M54.24,-112.98C57.44,-111.92 60.82,-110.87 64,-110 136.77,-90.18 160.01,-95.22 235.07,-74.5"/>
<polygon fill="#63b8ff" stroke="#63b8ff" points="235.89,-77.91 244.56,-71.82 233.98,-71.17 235.89,-77.91"/>
<g id="a_edge2&#45;headlabel"><a xlink:href="dir_000269_000159.html" target="_top" xlink:title="1">
<text text-anchor="middle" x="234.66" y="-78.71" font-family="Helvetica,sans-Serif" font-size="10.00" fill="#63b8ff">1</text>
</a>
</g>
</g>
</g>
</svg>
