<?xml version="1.0" encoding="UTF-8" standalone="no"?>
<!DOCTYPE svg PUBLIC "-//W3C//DTD SVG 1.1//EN"
 "http://www.w3.org/Graphics/SVG/1.1/DTD/svg11.dtd">
<!-- Generated by graphviz version 7.0.5 (20221223.1930)
 -->
<!-- Title: iop/fs/bdmfs_fatfs Pages: 1 -->
<svg width="288pt" height="141pt"
 viewBox="0.00 0.00 288.00 141.00" xmlns="http://www.w3.org/2000/svg" xmlns:xlink="http://www.w3.org/1999/xlink">
<g id="graph0" class="graph" transform="scale(1 1) rotate(0) translate(4 137)">
<title>iop/fs/bdmfs_fatfs</title>
<g id="clust1" class="cluster">
<title>clusterdir_f24daea2522ffa8b6dc5fa9cdf5b8f5c</title>
<g id="a_clust1"><a xlink:href="dir_f24daea2522ffa8b6dc5fa9cdf5b8f5c.html" target="_top" xlink:title="fs">
<polygon fill="#deebf9" stroke="#7f7f7f" stroke-dasharray="5,2" points="8,-8 8,-125 156,-125 156,-8 8,-8"/>
<text text-anchor="middle" x="82" y="-113" font-family="Helvetica,sans-Serif" font-size="10.00">fs</text>
</a>
</g>
</g>
<g id="clust2" class="cluster">
<title>clusterdir_ca4e6ad4571d2d160c85f86efebac72d</title>
<g id="a_clust2"><a xlink:href="dir_ca4e6ad4571d2d160c85f86efebac72d.html" target="_top">
<polygon fill="#deebf9" stroke="#404040" stroke-width="2" points="16,-63 16,-98 148,-98 148,-63 16,-63"/>
</a>
</g>
</g>
<!-- dir_0134b0376fbe77322088b496fb368f9b -->
<g id="node1" class="node">
<title>dir_0134b0376fbe77322088b496fb368f9b</title>
<g id="a_node1"><a xlink:href="dir_0134b0376fbe77322088b496fb368f9b.html" target="_top" xlink:title="bdm">
<polygon fill="#60a2e3" stroke="red" points="56.5,-35 21.5,-35 21.5,-16 56.5,-16 56.5,-35"/>
<text text-anchor="middle" x="39" y="-23" font-family="Helvetica,sans-Serif" font-size="10.00">bdm</text>
</a>
</g>
</g>
<!-- dir_ca4e6ad4571d2d160c85f86efebac72d -->
<g id="node2" class="node">
<title>dir_ca4e6ad4571d2d160c85f86efebac72d</title>
<text text-anchor="middle" x="106" y="-78" font-family="Helvetica,sans-Serif" font-size="10.00">bdmfs_fatfs</text>
</g>
<!-- dir_f6d409efb8c225447b4f5511042ceaec -->
<g id="node3" class="node">
<title>dir_f6d409efb8c225447b4f5511042ceaec</title>
<g id="a_node3"><a xlink:href="dir_f6d409efb8c225447b4f5511042ceaec.html" target="_top" xlink:title="src">
<polygon fill="#60a2e3" stroke="#404040" points="54,-90 24,-90 24,-71 54,-71 54,-90"/>
<text text-anchor="middle" x="39" y="-78" font-family="Helvetica,sans-Serif" font-size="10.00">src</text>
</a>
</g>
</g>
<!-- dir_f6d409efb8c225447b4f5511042ceaec&#45;&gt;dir_0134b0376fbe77322088b496fb368f9b -->
<g id="edge1" class="edge">
<title>dir_f6d409efb8c225447b4f5511042ceaec&#45;&gt;dir_0134b0376fbe77322088b496fb368f9b</title>
<path fill="none" stroke="#63b8ff" d="M39,-70.75C39,-64.27 39,-55.16 39,-46.9"/>
<polygon fill="#63b8ff" stroke="#63b8ff" points="42.5,-46.96 39,-36.96 35.5,-46.96 42.5,-46.96"/>
<g id="a_edge1&#45;headlabel"><a xlink:href="dir_000303_000013.html" target="_top" xlink:title="5">
<text text-anchor="middle" x="45.34" y="-46.54" font-family="Helvetica,sans-Serif" font-size="10.00" fill="#63b8ff">5</text>
</a>
</g>
</g>
<!-- dir_9be0baa3d4a3e9f480a9ee70594037fa -->
<g id="node4" class="node">
<title>dir_9be0baa3d4a3e9f480a9ee70594037fa</title>
<g id="a_node4"><a xlink:href="dir_9be0baa3d4a3e9f480a9ee70594037fa.html" target="_top" xlink:title="kernel">
<polygon fill="#deebf9" stroke="red" stroke-dasharray="5,2" points="207.5,-35 164.5,-35 164.5,-16 207.5,-16 207.5,-35"/>
<text text-anchor="middle" x="186" y="-23" font-family="Helvetica,sans-Serif" font-size="10.00">kernel</text>
</a>
</g>
</g>
<!-- dir_f6d409efb8c225447b4f5511042ceaec&#45;&gt;dir_9be0baa3d4a3e9f480a9ee70594037fa -->
<g id="edge2" class="edge">
<title>dir_f6d409efb8c225447b4f5511042ceaec&#45;&gt;dir_9be0baa3d4a3e9f480a9ee70594037fa</title>
<path fill="none" stroke="#63b8ff" d="M50.26,-70.65C54.14,-67.91 58.61,-65.07 63,-63 100.24,-45.39 114.71,-47.64 153.23,-36.91"/>
<polygon fill="#63b8ff" stroke="#63b8ff" points="154.11,-40.3 162.72,-34.12 152.14,-33.58 154.11,-40.3"/>
<g id="a_edge2&#45;headlabel"><a xlink:href="dir_000303_000166.html" target="_top" xlink:title="22">
<text text-anchor="middle" x="152.91" y="-41.11" font-family="Helvetica,sans-Serif" font-size="10.00" fill="#63b8ff">22</text>
</a>
</g>
</g>
<!-- dir_bdd9a5d540de89e9fe90efdfc6973a4f -->
<g id="node5" class="node">
<title>dir_bdd9a5d540de89e9fe90efdfc6973a4f</title>
<g id="a_node5"><a xlink:href="dir_bdd9a5d540de89e9fe90efdfc6973a4f.html" target="_top" xlink:title="common">
<polygon fill="#deebf9" stroke="red" points="280,-35 226,-35 226,-16 280,-16 280,-35"/>
<text text-anchor="middle" x="253" y="-23" font-family="Helvetica,sans-Serif" font-size="10.00">common</text>
</a>
</g>
</g>
<!-- dir_f6d409efb8c225447b4f5511042ceaec&#45;&gt;dir_bdd9a5d540de89e9fe90efdfc6973a4f -->
<g id="edge3" class="edge">
<title>dir_f6d409efb8c225447b4f5511042ceaec&#45;&gt;dir_bdd9a5d540de89e9fe90efdfc6973a4f</title>
<path fill="none" stroke="#63b8ff" d="M49.67,-70.73C53.64,-67.87 58.33,-64.93 63,-63 124.05,-37.83 146.6,-48.03 214.26,-35.38"/>
<polygon fill="#63b8ff" stroke="#63b8ff" points="214.9,-38.82 224.03,-33.44 213.54,-31.95 214.9,-38.82"/>
<g id="a_edge3&#45;headlabel"><a xlink:href="dir_000303_000024.html" target="_top" xlink:title="2">
<text text-anchor="middle" x="213.42" y="-39.51" font-family="Helvetica,sans-Serif" font-size="10.00" fill="#63b8ff">2</text>
</a>
</g>
</g>
</g>
</svg>
