<?xml version="1.0" encoding="UTF-8" standalone="no"?>
<!DOCTYPE svg PUBLIC "-//W3C//DTD SVG 1.1//EN"
 "http://www.w3.org/Graphics/SVG/1.1/DTD/svg11.dtd">
<!-- Generated by graphviz version 7.0.5 (20221223.1930)
 -->
<!-- Title: ee/font/src Pages: 1 -->
<svg width="295pt" height="133pt"
 viewBox="0.00 0.00 295.00 133.00" xmlns="http://www.w3.org/2000/svg" xmlns:xlink="http://www.w3.org/1999/xlink">
<g id="graph0" class="graph" transform="scale(1 1) rotate(0) translate(4 129)">
<title>ee/font/src</title>
<g id="clust1" class="cluster">
<title>clusterdir_6a18a5fb12cb9e6be5f051ff6b53d12a</title>
<g id="a_clust1"><a xlink:href="dir_6a18a5fb12cb9e6be5f051ff6b53d12a.html" target="_top" xlink:title="font">
<polygon fill="#deebf9" stroke="#7f7f7f" stroke-dasharray="5,2" points="8,-8 8,-117 72,-117 72,-8 8,-8"/>
<text text-anchor="middle" x="40" y="-105" font-family="Helvetica,sans-Serif" font-size="10.00">font</text>
</a>
</g>
</g>
<!-- dir_3a96145256e208ba8e54b2dc9687859a -->
<g id="node1" class="node">
<title>dir_3a96145256e208ba8e54b2dc9687859a</title>
<g id="a_node1"><a xlink:href="dir_3a96145256e208ba8e54b2dc9687859a.html" target="_top" xlink:title="include">
<polygon fill="#60a2e3" stroke="#404040" points="63.5,-35 16.5,-35 16.5,-16 63.5,-16 63.5,-35"/>
<text text-anchor="middle" x="40" y="-23" font-family="Helvetica,sans-Serif" font-size="10.00">include</text>
</a>
</g>
</g>
<!-- dir_3a9c6fe855c5d1af04ce6ee63ecedf2c -->
<g id="node2" class="node">
<title>dir_3a9c6fe855c5d1af04ce6ee63ecedf2c</title>
<g id="a_node2"><a xlink:href="dir_3a9c6fe855c5d1af04ce6ee63ecedf2c.html" target="_top" xlink:title="src">
<polygon fill="#deebf9" stroke="#404040" stroke-width="2" points="64,-90 34,-90 34,-71 64,-71 64,-90"/>
<text text-anchor="middle" x="49" y="-78" font-family="Helvetica,sans-Serif" font-size="10.00">src</text>
</a>
</g>
</g>
<!-- dir_3a9c6fe855c5d1af04ce6ee63ecedf2c&#45;&gt;dir_3a96145256e208ba8e54b2dc9687859a -->
<g id="edge3" class="edge">
<title>dir_3a9c6fe855c5d1af04ce6ee63ecedf2c&#45;&gt;dir_3a96145256e208ba8e54b2dc9687859a</title>
<path fill="none" stroke="#63b8ff" d="M47.51,-70.75C46.4,-64.19 44.83,-54.95 43.41,-46.6"/>
<polygon fill="#63b8ff" stroke="#63b8ff" points="46.9,-46.21 41.77,-36.93 40,-47.38 46.9,-46.21"/>
<g id="a_edge3&#45;headlabel"><a xlink:href="dir_000246_000074.html" target="_top" xlink:title="2">
<text text-anchor="middle" x="50.04" y="-45.28" font-family="Helvetica,sans-Serif" font-size="10.00" fill="#63b8ff">2</text>
</a>
</g>
</g>
<!-- dir_0981ace215aa2029f526b70c145b9fbe -->
<g id="node3" class="node">
<title>dir_0981ace215aa2029f526b70c145b9fbe</title>
<g id="a_node3"><a xlink:href="dir_0981ace215aa2029f526b70c145b9fbe.html" target="_top" xlink:title="iop">
<polygon fill="#deebf9" stroke="red" points="110.5,-35 81.5,-35 81.5,-16 110.5,-16 110.5,-35"/>
<text text-anchor="middle" x="96" y="-23" font-family="Helvetica,sans-Serif" font-size="10.00">iop</text>
</a>
</g>
</g>
<!-- dir_3a9c6fe855c5d1af04ce6ee63ecedf2c&#45;&gt;dir_0981ace215aa2029f526b70c145b9fbe -->
<g id="edge1" class="edge">
<title>dir_3a9c6fe855c5d1af04ce6ee63ecedf2c&#45;&gt;dir_0981ace215aa2029f526b70c145b9fbe</title>
<path fill="none" stroke="#63b8ff" d="M56.76,-70.75C63.19,-63.5 72.51,-52.98 80.46,-44.02"/>
<polygon fill="#63b8ff" stroke="#63b8ff" points="83.05,-46.38 87.07,-36.57 77.81,-41.73 83.05,-46.38"/>
<g id="a_edge1&#45;headlabel"><a xlink:href="dir_000246_000159.html" target="_top" xlink:title="2">
<text text-anchor="middle" x="83.79" y="-47.32" font-family="Helvetica,sans-Serif" font-size="10.00" fill="#63b8ff">2</text>
</a>
</g>
</g>
<!-- dir_2649a81c7f56a709216892bc1285ef27 -->
<g id="node4" class="node">
<title>dir_2649a81c7f56a709216892bc1285ef27</title>
<g id="a_node4"><a xlink:href="dir_2649a81c7f56a709216892bc1285ef27.html" target="_top" xlink:title="draw">
<polygon fill="#deebf9" stroke="red" stroke-dasharray="5,2" points="167,-35 129,-35 129,-16 167,-16 167,-35"/>
<text text-anchor="middle" x="148" y="-23" font-family="Helvetica,sans-Serif" font-size="10.00">draw</text>
</a>
</g>
</g>
<!-- dir_3a9c6fe855c5d1af04ce6ee63ecedf2c&#45;&gt;dir_2649a81c7f56a709216892bc1285ef27 -->
<g id="edge2" class="edge">
<title>dir_3a9c6fe855c5d1af04ce6ee63ecedf2c&#45;&gt;dir_2649a81c7f56a709216892bc1285ef27</title>
<path fill="none" stroke="#63b8ff" d="M64.47,-71.22C79.65,-63.09 103.12,-50.53 121.31,-40.79"/>
<polygon fill="#63b8ff" stroke="#63b8ff" points="122.82,-43.95 129.98,-36.15 119.52,-37.78 122.82,-43.95"/>
<g id="a_edge2&#45;headlabel"><a xlink:href="dir_000246_000032.html" target="_top" xlink:title="4">
<text text-anchor="middle" x="122.32" y="-44.94" font-family="Helvetica,sans-Serif" font-size="10.00" fill="#63b8ff">4</text>
</a>
</g>
</g>
<!-- dir_a0a8ac7efb6662b749c1285408048e6d -->
<g id="node5" class="node">
<title>dir_a0a8ac7efb6662b749c1285408048e6d</title>
<g id="a_node5"><a xlink:href="dir_a0a8ac7efb6662b749c1285408048e6d.html" target="_top" xlink:title="erl">
<polygon fill="#deebf9" stroke="red" stroke-dasharray="5,2" points="214.5,-35 185.5,-35 185.5,-16 214.5,-16 214.5,-35"/>
<text text-anchor="middle" x="200" y="-23" font-family="Helvetica,sans-Serif" font-size="10.00">erl</text>
</a>
</g>
</g>
<!-- dir_3a9c6fe855c5d1af04ce6ee63ecedf2c&#45;&gt;dir_a0a8ac7efb6662b749c1285408048e6d -->
<g id="edge4" class="edge">
<title>dir_3a9c6fe855c5d1af04ce6ee63ecedf2c&#45;&gt;dir_a0a8ac7efb6662b749c1285408048e6d</title>
<path fill="none" stroke="#63b8ff" d="M64.25,-74.17C86.38,-66.44 128.92,-51.57 174.36,-35.57"/>
<polygon fill="#63b8ff" stroke="#63b8ff" points="175.33,-38.94 183.6,-32.32 173,-32.34 175.33,-38.94"/>
<g id="a_edge4&#45;headlabel"><a xlink:href="dir_000246_000045.html" target="_top" xlink:title="1">
<text text-anchor="middle" x="174.31" y="-39.81" font-family="Helvetica,sans-Serif" font-size="10.00" fill="#63b8ff">1</text>
</a>
</g>
</g>
<!-- dir_bdd9a5d540de89e9fe90efdfc6973a4f -->
<g id="node6" class="node">
<title>dir_bdd9a5d540de89e9fe90efdfc6973a4f</title>
<g id="a_node6"><a xlink:href="dir_bdd9a5d540de89e9fe90efdfc6973a4f.html" target="_top" xlink:title="common">
<polygon fill="#deebf9" stroke="red" points="287,-35 233,-35 233,-16 287,-16 287,-35"/>
<text text-anchor="middle" x="260" y="-23" font-family="Helvetica,sans-Serif" font-size="10.00">common</text>
</a>
</g>
</g>
<!-- dir_3a9c6fe855c5d1af04ce6ee63ecedf2c&#45;&gt;dir_bdd9a5d540de89e9fe90efdfc6973a4f -->
<g id="edge5" class="edge">
<title>dir_3a9c6fe855c5d1af04ce6ee63ecedf2c&#45;&gt;dir_bdd9a5d540de89e9fe90efdfc6973a4f</title>
<path fill="none" stroke="#63b8ff" d="M64.17,-75.69C96.82,-67.49 174.58,-47.96 221.7,-36.12"/>
<polygon fill="#63b8ff" stroke="#63b8ff" points="222.38,-39.56 231.22,-33.73 220.67,-32.77 222.38,-39.56"/>
<g id="a_edge5&#45;headlabel"><a xlink:href="dir_000246_000024.html" target="_top" xlink:title="2">
<text text-anchor="middle" x="221.05" y="-40.32" font-family="Helvetica,sans-Serif" font-size="10.00" fill="#63b8ff">2</text>
</a>
</g>
</g>
</g>
</svg>
