<?xml version="1.0" encoding="UTF-8" standalone="no"?>
<!DOCTYPE svg PUBLIC "-//W3C//DTD SVG 1.1//EN"
 "http://www.w3.org/Graphics/SVG/1.1/DTD/svg11.dtd">
<!-- Generated by graphviz version 7.0.5 (20221223.1930)
 -->
<!-- Title: iop/sound/ahx Pages: 1 -->
<svg width="227pt" height="149pt"
 viewBox="0.00 0.00 226.50 149.00" xmlns="http://www.w3.org/2000/svg" xmlns:xlink="http://www.w3.org/1999/xlink">
<g id="graph0" class="graph" transform="scale(1 1) rotate(0) translate(4 145)">
<title>iop/sound/ahx</title>
<g id="clust1" class="cluster">
<title>clusterdir_838e88315325ec0d843359dcae22d639</title>
<g id="a_clust1"><a xlink:href="dir_838e88315325ec0d843359dcae22d639.html" target="_top" xlink:title="sound">
<polygon fill="#deebf9" stroke="#7f7f7f" stroke-dasharray="5,2" points="8,-8 8,-133 166,-133 166,-8 8,-8"/>
<text text-anchor="middle" x="87" y="-121" font-family="Helvetica,sans-Serif" font-size="10.00">sound</text>
</a>
</g>
</g>
<g id="clust2" class="cluster">
<title>clusterdir_9337eeae2b875a84dbe6e00bf944922d</title>
<g id="a_clust2"><a xlink:href="dir_9337eeae2b875a84dbe6e00bf944922d.html" target="_top">
<polygon fill="#deebf9" stroke="#404040" stroke-width="2" points="16,-16 16,-106 112,-106 112,-16 16,-16"/>
</a>
</g>
</g>
<!-- dir_b3b65c61938638f28675fc77a7fe35e3 -->
<g id="node1" class="node">
<title>dir_b3b65c61938638f28675fc77a7fe35e3</title>
<g id="a_node1"><a xlink:href="dir_b3b65c61938638f28675fc77a7fe35e3.html" target="_top" xlink:title="libsd">
<polygon fill="#60a2e3" stroke="red" points="157.5,-43 120.5,-43 120.5,-24 157.5,-24 157.5,-43"/>
<text text-anchor="middle" x="139" y="-31" font-family="Helvetica,sans-Serif" font-size="10.00">libsd</text>
</a>
</g>
</g>
<!-- dir_9337eeae2b875a84dbe6e00bf944922d -->
<g id="node2" class="node">
<title>dir_9337eeae2b875a84dbe6e00bf944922d</title>
<text text-anchor="middle" x="88" y="-86" font-family="Helvetica,sans-Serif" font-size="10.00">ahx</text>
</g>
<!-- dir_8806379264ffea16411011c87cd5d5d1 -->
<g id="node3" class="node">
<title>dir_8806379264ffea16411011c87cd5d5d1</title>
<g id="a_node3"><a xlink:href="dir_8806379264ffea16411011c87cd5d5d1.html" target="_top" xlink:title="include">
<polygon fill="#60a2e3" stroke="#404040" points="71.5,-43 24.5,-43 24.5,-24 71.5,-24 71.5,-43"/>
<text text-anchor="middle" x="48" y="-31" font-family="Helvetica,sans-Serif" font-size="10.00">include</text>
</a>
</g>
</g>
<!-- dir_fe4d942b553a0f3632b13732d211a99b -->
<g id="node4" class="node">
<title>dir_fe4d942b553a0f3632b13732d211a99b</title>
<g id="a_node4"><a xlink:href="dir_fe4d942b553a0f3632b13732d211a99b.html" target="_top" xlink:title="src">
<polygon fill="#60a2e3" stroke="#404040" points="54,-98 24,-98 24,-79 54,-79 54,-98"/>
<text text-anchor="middle" x="39" y="-86" font-family="Helvetica,sans-Serif" font-size="10.00">src</text>
</a>
</g>
</g>
<!-- dir_fe4d942b553a0f3632b13732d211a99b&#45;&gt;dir_b3b65c61938638f28675fc77a7fe35e3 -->
<g id="edge3" class="edge">
<title>dir_fe4d942b553a0f3632b13732d211a99b&#45;&gt;dir_b3b65c61938638f28675fc77a7fe35e3</title>
<path fill="none" stroke="#63b8ff" d="M54.19,-79.45C69.61,-71.28 93.79,-58.46 112.4,-48.6"/>
<polygon fill="#63b8ff" stroke="#63b8ff" points="113.8,-51.82 121,-44.04 110.52,-45.63 113.8,-51.82"/>
<g id="a_edge3&#45;headlabel"><a xlink:href="dir_000329_000176.html" target="_top" xlink:title="1">
<text text-anchor="middle" x="113.29" y="-52.8" font-family="Helvetica,sans-Serif" font-size="10.00" fill="#63b8ff">1</text>
</a>
</g>
</g>
<!-- dir_fe4d942b553a0f3632b13732d211a99b&#45;&gt;dir_8806379264ffea16411011c87cd5d5d1 -->
<g id="edge1" class="edge">
<title>dir_fe4d942b553a0f3632b13732d211a99b&#45;&gt;dir_8806379264ffea16411011c87cd5d5d1</title>
<path fill="none" stroke="#63b8ff" d="M40.49,-78.75C41.6,-72.19 43.17,-62.95 44.59,-54.6"/>
<polygon fill="#63b8ff" stroke="#63b8ff" points="48,-55.38 46.23,-44.93 41.1,-54.21 48,-55.38"/>
<g id="a_edge1&#45;headlabel"><a xlink:href="dir_000329_000135.html" target="_top" xlink:title="2">
<text text-anchor="middle" x="50.46" y="-55.41" font-family="Helvetica,sans-Serif" font-size="10.00" fill="#63b8ff">2</text>
</a>
</g>
</g>
<!-- dir_9be0baa3d4a3e9f480a9ee70594037fa -->
<g id="node5" class="node">
<title>dir_9be0baa3d4a3e9f480a9ee70594037fa</title>
<g id="a_node5"><a xlink:href="dir_9be0baa3d4a3e9f480a9ee70594037fa.html" target="_top" xlink:title="kernel">
<polygon fill="#deebf9" stroke="red" stroke-dasharray="5,2" points="218.5,-43 175.5,-43 175.5,-24 218.5,-24 218.5,-43"/>
<text text-anchor="middle" x="197" y="-31" font-family="Helvetica,sans-Serif" font-size="10.00">kernel</text>
</a>
</g>
</g>
<!-- dir_fe4d942b553a0f3632b13732d211a99b&#45;&gt;dir_9be0baa3d4a3e9f480a9ee70594037fa -->
<g id="edge2" class="edge">
<title>dir_fe4d942b553a0f3632b13732d211a99b&#45;&gt;dir_9be0baa3d4a3e9f480a9ee70594037fa</title>
<path fill="none" stroke="#63b8ff" d="M54.48,-81.97C57.31,-80.97 60.24,-79.95 63,-79 97.49,-67.17 137.14,-54.06 164.31,-45.16"/>
<polygon fill="#63b8ff" stroke="#63b8ff" points="165.28,-48.52 173.7,-42.08 163.11,-41.87 165.28,-48.52"/>
<g id="a_edge2&#45;headlabel"><a xlink:href="dir_000329_000166.html" target="_top" xlink:title="14">
<text text-anchor="middle" x="164.19" y="-49.37" font-family="Helvetica,sans-Serif" font-size="10.00" fill="#63b8ff">14</text>
</a>
</g>
</g>
</g>
</svg>
