<?xml version="1.0" encoding="UTF-8" standalone="no"?>
<!DOCTYPE svg PUBLIC "-//W3C//DTD SVG 1.1//EN"
 "http://www.w3.org/Graphics/SVG/1.1/DTD/svg11.dtd">
<!-- Generated by graphviz version 7.0.5 (20221223.1930)
 -->
<!-- Title: iop/system/sysclib/src Pages: 1 -->
<svg width="588pt" height="127pt"
 viewBox="0.00 0.00 588.00 127.00" xmlns="http://www.w3.org/2000/svg" xmlns:xlink="http://www.w3.org/1999/xlink">
<g id="graph0" class="graph" transform="scale(1 1) rotate(0) translate(4 123)">
<title>iop/system/sysclib/src</title>
<g id="clust1" class="cluster">
<title>clusterdir_1bd32d4ef826aeeda00870843eb45c97</title>
<g id="a_clust1"><a xlink:href="dir_1bd32d4ef826aeeda00870843eb45c97.html" target="_top" xlink:title="sysclib">
<polygon fill="#deebf9" stroke="#7f7f7f" stroke-dasharray="5,2" points="8,-41 8,-111 572,-111 572,-41 8,-41"/>
<text text-anchor="middle" x="290" y="-99" font-family="Helvetica,sans-Serif" font-size="10.00">sysclib</text>
</a>
</g>
</g>
<g id="clust2" class="cluster">
<title>clusterdir_6b3a3a5d267f0fea31b7a7f9b7d2beaf</title>
<g id="a_clust2"><a xlink:href="dir_6b3a3a5d267f0fea31b7a7f9b7d2beaf.html" target="_top">
<polygon fill="#deebf9" stroke="#404040" stroke-width="2" points="16,-49 16,-84 564,-84 564,-49 16,-49"/>
</a>
</g>
</g>
<!-- dir_6b3a3a5d267f0fea31b7a7f9b7d2beaf -->
<g id="node1" class="node">
<title>dir_6b3a3a5d267f0fea31b7a7f9b7d2beaf</title>
<text text-anchor="middle" x="479" y="-64" font-family="Helvetica,sans-Serif" font-size="10.00">src</text>
</g>
<!-- dir_9be0baa3d4a3e9f480a9ee70594037fa -->
<g id="node8" class="node">
<title>dir_9be0baa3d4a3e9f480a9ee70594037fa</title>
<g id="a_node8"><a xlink:href="dir_9be0baa3d4a3e9f480a9ee70594037fa.html" target="_top" xlink:title="kernel">
<polygon fill="#deebf9" stroke="red" stroke-dasharray="5,2" points="300.5,-21 257.5,-21 257.5,-2 300.5,-2 300.5,-21"/>
<text text-anchor="middle" x="279" y="-9" font-family="Helvetica,sans-Serif" font-size="10.00">kernel</text>
</a>
</g>
</g>
<!-- dir_6b3a3a5d267f0fea31b7a7f9b7d2beaf&#45;&gt;dir_9be0baa3d4a3e9f480a9ee70594037fa -->
<g id="edge1" class="edge">
<title>dir_6b3a3a5d267f0fea31b7a7f9b7d2beaf&#45;&gt;dir_9be0baa3d4a3e9f480a9ee70594037fa</title>
<path fill="none" stroke="#63b8ff" d="M473.24,-57.33C468.89,-51.81 462.4,-44.84 455,-41 409.37,-17.36 348.9,-12.4 312.03,-11.83"/>
<polygon fill="#63b8ff" stroke="#63b8ff" points="312.46,-8.33 302.45,-11.79 312.43,-15.33 312.46,-8.33"/>
<g id="a_edge1&#45;headlabel"><a xlink:href="dir_000345_000166.html" target="_top" xlink:title="78">
<text text-anchor="middle" x="314.56" y="-3" font-family="Helvetica,sans-Serif" font-size="10.00" fill="#63b8ff">78</text>
</a>
</g>
</g>
<!-- dir_76f6712385aad5f71054d252dc76d79e -->
<g id="node2" class="node">
<title>dir_76f6712385aad5f71054d252dc76d79e</title>
<g id="a_node2"><a xlink:href="dir_76f6712385aad5f71054d252dc76d79e.html" target="_top" xlink:title="embeddedartistry_libc">
<polygon fill="#60a2e3" stroke="#404040" points="445.5,-76 334.5,-76 334.5,-57 445.5,-57 445.5,-76"/>
<text text-anchor="middle" x="390" y="-64" font-family="Helvetica,sans-Serif" font-size="10.00">embeddedartistry_libc</text>
</a>
</g>
</g>
<!-- dir_76f6712385aad5f71054d252dc76d79e&#45;&gt;dir_9be0baa3d4a3e9f480a9ee70594037fa -->
<g id="edge2" class="edge">
<title>dir_76f6712385aad5f71054d252dc76d79e&#45;&gt;dir_9be0baa3d4a3e9f480a9ee70594037fa</title>
<path fill="none" stroke="#63b8ff" d="M371.17,-56.51C353.84,-48.24 327.89,-35.85 307.93,-26.32"/>
<polygon fill="#63b8ff" stroke="#63b8ff" points="309.45,-23.16 298.92,-22.01 306.43,-29.48 309.45,-23.16"/>
<g id="a_edge2&#45;headlabel"><a xlink:href="dir_000044_000166.html" target="_top" xlink:title="8">
<text text-anchor="middle" x="312.55" y="-19" font-family="Helvetica,sans-Serif" font-size="10.00" fill="#63b8ff">8</text>
</a>
</g>
</g>
<!-- dir_bd62be9475ca4f332fbf19becd78d95e -->
<g id="node3" class="node">
<title>dir_bd62be9475ca4f332fbf19becd78d95e</title>
<g id="a_node3"><a xlink:href="dir_bd62be9475ca4f332fbf19becd78d95e.html" target="_top" xlink:title="eyalroz_printf">
<polygon fill="#60a2e3" stroke="#404040" points="316,-76 242,-76 242,-57 316,-57 316,-76"/>
<text text-anchor="middle" x="279" y="-64" font-family="Helvetica,sans-Serif" font-size="10.00">eyalroz_printf</text>
</a>
</g>
</g>
<!-- dir_bd62be9475ca4f332fbf19becd78d95e&#45;&gt;dir_9be0baa3d4a3e9f480a9ee70594037fa -->
<g id="edge3" class="edge">
<title>dir_bd62be9475ca4f332fbf19becd78d95e&#45;&gt;dir_9be0baa3d4a3e9f480a9ee70594037fa</title>
<path fill="none" stroke="#63b8ff" d="M279,-56.75C279,-50.27 279,-41.17 279,-32.9"/>
<polygon fill="#63b8ff" stroke="#63b8ff" points="282.5,-32.96 279,-22.96 275.5,-32.96 282.5,-32.96"/>
<g id="a_edge3&#45;headlabel"><a xlink:href="dir_000048_000166.html" target="_top" xlink:title="3">
<text text-anchor="middle" x="285.34" y="-32.54" font-family="Helvetica,sans-Serif" font-size="10.00" fill="#63b8ff">3</text>
</a>
</g>
</g>
<!-- dir_950112c2cce41ca0fe6d06ee08cf690a -->
<g id="node4" class="node">
<title>dir_950112c2cce41ca0fe6d06ee08cf690a</title>
<g id="a_node4"><a xlink:href="dir_950112c2cce41ca0fe6d06ee08cf690a.html" target="_top" xlink:title="musl">
<polygon fill="#60a2e3" stroke="#404040" points="224,-76 186,-76 186,-57 224,-57 224,-76"/>
<text text-anchor="middle" x="205" y="-64" font-family="Helvetica,sans-Serif" font-size="10.00">musl</text>
</a>
</g>
</g>
<!-- dir_950112c2cce41ca0fe6d06ee08cf690a&#45;&gt;dir_9be0baa3d4a3e9f480a9ee70594037fa -->
<g id="edge4" class="edge">
<title>dir_950112c2cce41ca0fe6d06ee08cf690a&#45;&gt;dir_9be0baa3d4a3e9f480a9ee70594037fa</title>
<path fill="none" stroke="#63b8ff" d="M214.27,-56.71C219.57,-51.85 226.46,-45.84 233,-41 239.5,-36.2 246.82,-31.41 253.68,-27.16"/>
<polygon fill="#63b8ff" stroke="#63b8ff" points="255.2,-30.33 261.96,-22.17 251.58,-24.34 255.2,-30.33"/>
<g id="a_edge4&#45;headlabel"><a xlink:href="dir_000193_000166.html" target="_top" xlink:title="44">
<text text-anchor="middle" x="254.88" y="-31.34" font-family="Helvetica,sans-Serif" font-size="10.00" fill="#63b8ff">44</text>
</a>
</g>
</g>
<!-- dir_5e6d19e02aff7b7ecdcee2b32d4e4d69 -->
<g id="node5" class="node">
<title>dir_5e6d19e02aff7b7ecdcee2b32d4e4d69</title>
<g id="a_node5"><a xlink:href="dir_5e6d19e02aff7b7ecdcee2b32d4e4d69.html" target="_top" xlink:title="newlib">
<polygon fill="#60a2e3" stroke="#404040" points="556,-76 512,-76 512,-57 556,-57 556,-76"/>
<text text-anchor="middle" x="534" y="-64" font-family="Helvetica,sans-Serif" font-size="10.00">newlib</text>
</a>
</g>
</g>
<!-- dir_5e6d19e02aff7b7ecdcee2b32d4e4d69&#45;&gt;dir_9be0baa3d4a3e9f480a9ee70594037fa -->
<g id="edge5" class="edge">
<title>dir_5e6d19e02aff7b7ecdcee2b32d4e4d69&#45;&gt;dir_9be0baa3d4a3e9f480a9ee70594037fa</title>
<path fill="none" stroke="#63b8ff" d="M525.36,-56.54C519.57,-51.11 511.47,-44.56 503,-41 469.31,-26.85 365.92,-18.2 312.2,-14.54"/>
<polygon fill="#63b8ff" stroke="#63b8ff" points="312.63,-11.06 302.42,-13.9 312.17,-18.05 312.63,-11.06"/>
<g id="a_edge5&#45;headlabel"><a xlink:href="dir_000201_000166.html" target="_top" xlink:title="2">
<text text-anchor="middle" x="314.89" y="-5.87" font-family="Helvetica,sans-Serif" font-size="10.00" fill="#63b8ff">2</text>
</a>
</g>
</g>
<!-- dir_bdd9a5d540de89e9fe90efdfc6973a4f -->
<g id="node9" class="node">
<title>dir_bdd9a5d540de89e9fe90efdfc6973a4f</title>
<g id="a_node9"><a xlink:href="dir_bdd9a5d540de89e9fe90efdfc6973a4f.html" target="_top" xlink:title="common">
<polygon fill="#deebf9" stroke="red" points="561,-21 507,-21 507,-2 561,-2 561,-21"/>
<text text-anchor="middle" x="534" y="-9" font-family="Helvetica,sans-Serif" font-size="10.00">common</text>
</a>
</g>
</g>
<!-- dir_5e6d19e02aff7b7ecdcee2b32d4e4d69&#45;&gt;dir_bdd9a5d540de89e9fe90efdfc6973a4f -->
<g id="edge6" class="edge">
<title>dir_5e6d19e02aff7b7ecdcee2b32d4e4d69&#45;&gt;dir_bdd9a5d540de89e9fe90efdfc6973a4f</title>
<path fill="none" stroke="#63b8ff" d="M534,-56.75C534,-50.27 534,-41.17 534,-32.9"/>
<polygon fill="#63b8ff" stroke="#63b8ff" points="537.5,-32.96 534,-22.96 530.5,-32.96 537.5,-32.96"/>
<g id="a_edge6&#45;headlabel"><a xlink:href="dir_000201_000024.html" target="_top" xlink:title="1">
<text text-anchor="middle" x="540.34" y="-32.54" font-family="Helvetica,sans-Serif" font-size="10.00" fill="#63b8ff">1</text>
</a>
</g>
</g>
<!-- dir_e27c3ee1507bfb964a7b3cbac14762a5 -->
<g id="node6" class="node">
<title>dir_e27c3ee1507bfb964a7b3cbac14762a5</title>
<g id="a_node6"><a xlink:href="dir_e27c3ee1507bfb964a7b3cbac14762a5.html" target="_top" xlink:title="nonstd">
<polygon fill="#60a2e3" stroke="#404040" points="70,-76 24,-76 24,-57 70,-57 70,-76"/>
<text text-anchor="middle" x="47" y="-64" font-family="Helvetica,sans-Serif" font-size="10.00">nonstd</text>
</a>
</g>
</g>
<!-- dir_e27c3ee1507bfb964a7b3cbac14762a5&#45;&gt;dir_9be0baa3d4a3e9f480a9ee70594037fa -->
<g id="edge7" class="edge">
<title>dir_e27c3ee1507bfb964a7b3cbac14762a5&#45;&gt;dir_9be0baa3d4a3e9f480a9ee70594037fa</title>
<path fill="none" stroke="#63b8ff" d="M55.99,-56.59C61.99,-51.18 70.36,-44.63 79,-41 134.22,-17.82 204.75,-12.89 245.6,-12.17"/>
<polygon fill="#63b8ff" stroke="#63b8ff" points="245.55,-15.67 255.52,-12.08 245.49,-8.67 245.55,-15.67"/>
<g id="a_edge7&#45;headlabel"><a xlink:href="dir_000202_000166.html" target="_top" xlink:title="4">
<text text-anchor="middle" x="243.49" y="-16.03" font-family="Helvetica,sans-Serif" font-size="10.00" fill="#63b8ff">4</text>
</a>
</g>
</g>
<!-- dir_0beacc05ac1d7f4fed3f447a40616c4b -->
<g id="node7" class="node">
<title>dir_0beacc05ac1d7f4fed3f447a40616c4b</title>
<g id="a_node7"><a xlink:href="dir_0beacc05ac1d7f4fed3f447a40616c4b.html" target="_top" xlink:title="size_optimized">
<polygon fill="#60a2e3" stroke="#404040" points="168,-76 88,-76 88,-57 168,-57 168,-76"/>
<text text-anchor="middle" x="128" y="-64" font-family="Helvetica,sans-Serif" font-size="10.00">size_optimized</text>
</a>
</g>
</g>
<!-- dir_0beacc05ac1d7f4fed3f447a40616c4b&#45;&gt;dir_9be0baa3d4a3e9f480a9ee70594037fa -->
<g id="edge8" class="edge">
<title>dir_0beacc05ac1d7f4fed3f447a40616c4b&#45;&gt;dir_9be0baa3d4a3e9f480a9ee70594037fa</title>
<path fill="none" stroke="#63b8ff" d="M143.98,-56.54C153.39,-51.51 165.64,-45.38 177,-41 199.51,-32.32 225.75,-25.05 245.98,-20.03"/>
<polygon fill="#63b8ff" stroke="#63b8ff" points="246.75,-23.44 255.65,-17.69 245.11,-16.64 246.75,-23.44"/>
<g id="a_edge8&#45;headlabel"><a xlink:href="dir_000233_000166.html" target="_top" xlink:title="15">
<text text-anchor="middle" x="245.39" y="-24.19" font-family="Helvetica,sans-Serif" font-size="10.00" fill="#63b8ff">15</text>
</a>
</g>
</g>
</g>
</svg>
