<?xml version="1.0" encoding="UTF-8" standalone="no"?>
<!DOCTYPE svg PUBLIC "-//W3C//DTD SVG 1.1//EN"
 "http://www.w3.org/Graphics/SVG/1.1/DTD/svg11.dtd">
<!-- Generated by graphviz version 7.0.5 (20221223.1930)
 -->
<!-- Title: iop/fs/bdm Pages: 1 -->
<svg width="288pt" height="180pt"
 viewBox="0.00 0.00 288.00 180.00" xmlns="http://www.w3.org/2000/svg" xmlns:xlink="http://www.w3.org/1999/xlink">
<g id="graph0" class="graph" transform="scale(1 1) rotate(0) translate(4 176)">
<title>iop/fs/bdm</title>
<g id="clust1" class="cluster">
<title>clusterdir_f24daea2522ffa8b6dc5fa9cdf5b8f5c</title>
<g id="a_clust1"><a xlink:href="dir_f24daea2522ffa8b6dc5fa9cdf5b8f5c.html" target="_top" xlink:title="fs">
<polygon fill="#deebf9" stroke="#7f7f7f" stroke-dasharray="5,2" points="8,-39 8,-164 178,-164 178,-39 8,-39"/>
<text text-anchor="middle" x="93" y="-152" font-family="Helvetica,sans-Serif" font-size="10.00">fs</text>
</a>
</g>
</g>
<g id="clust2" class="cluster">
<title>clusterdir_0134b0376fbe77322088b496fb368f9b</title>
<g id="a_clust2"><a xlink:href="dir_0134b0376fbe77322088b496fb368f9b.html" target="_top">
<polygon fill="#deebf9" stroke="#404040" stroke-width="2" points="16,-47 16,-137 116,-137 116,-47 16,-47"/>
</a>
</g>
</g>
<!-- dir_10cce8191a2d4629e92aaca1231c0797 -->
<g id="node1" class="node">
<title>dir_10cce8191a2d4629e92aaca1231c0797</title>
<g id="a_node1"><a xlink:href="dir_10cce8191a2d4629e92aaca1231c0797.html" target="_top" xlink:title="libbdm">
<polygon fill="#60a2e3" stroke="red" points="169.5,-74 124.5,-74 124.5,-55 169.5,-55 169.5,-74"/>
<text text-anchor="middle" x="147" y="-62" font-family="Helvetica,sans-Serif" font-size="10.00">libbdm</text>
</a>
</g>
</g>
<!-- dir_0134b0376fbe77322088b496fb368f9b -->
<g id="node2" class="node">
<title>dir_0134b0376fbe77322088b496fb368f9b</title>
<text text-anchor="middle" x="90" y="-117" font-family="Helvetica,sans-Serif" font-size="10.00">bdm</text>
</g>
<!-- dir_4aa3f641574c4329e5ed721597730e1e -->
<g id="node3" class="node">
<title>dir_4aa3f641574c4329e5ed721597730e1e</title>
<g id="a_node3"><a xlink:href="dir_4aa3f641574c4329e5ed721597730e1e.html" target="_top" xlink:title="include">
<polygon fill="#60a2e3" stroke="#404040" points="88.5,-74 41.5,-74 41.5,-55 88.5,-55 88.5,-74"/>
<text text-anchor="middle" x="65" y="-62" font-family="Helvetica,sans-Serif" font-size="10.00">include</text>
</a>
</g>
</g>
<!-- dir_9be0baa3d4a3e9f480a9ee70594037fa -->
<g id="node5" class="node">
<title>dir_9be0baa3d4a3e9f480a9ee70594037fa</title>
<g id="a_node5"><a xlink:href="dir_9be0baa3d4a3e9f480a9ee70594037fa.html" target="_top" xlink:title="kernel">
<polygon fill="#deebf9" stroke="red" stroke-dasharray="5,2" points="152.5,-19 109.5,-19 109.5,0 152.5,0 152.5,-19"/>
<text text-anchor="middle" x="131" y="-7" font-family="Helvetica,sans-Serif" font-size="10.00">kernel</text>
</a>
</g>
</g>
<!-- dir_4aa3f641574c4329e5ed721597730e1e&#45;&gt;dir_9be0baa3d4a3e9f480a9ee70594037fa -->
<g id="edge1" class="edge">
<title>dir_4aa3f641574c4329e5ed721597730e1e&#45;&gt;dir_9be0baa3d4a3e9f480a9ee70594037fa</title>
<path fill="none" stroke="#63b8ff" d="M74.69,-54.7C80.01,-49.95 86.78,-44.04 93,-39 98.42,-34.61 104.4,-30.01 109.99,-25.82"/>
<polygon fill="#63b8ff" stroke="#63b8ff" points="111.67,-28.92 117.63,-20.16 107.51,-23.3 111.67,-28.92"/>
<g id="a_edge1&#45;headlabel"><a xlink:href="dir_000116_000166.html" target="_top" xlink:title="1">
<text text-anchor="middle" x="111.69" y="-29.94" font-family="Helvetica,sans-Serif" font-size="10.00" fill="#63b8ff">1</text>
</a>
</g>
</g>
<!-- dir_ac1b9311aa44ad4cf108d5fb93dfb606 -->
<g id="node4" class="node">
<title>dir_ac1b9311aa44ad4cf108d5fb93dfb606</title>
<g id="a_node4"><a xlink:href="dir_ac1b9311aa44ad4cf108d5fb93dfb606.html" target="_top" xlink:title="src">
<polygon fill="#60a2e3" stroke="#404040" points="54,-129 24,-129 24,-110 54,-110 54,-129"/>
<text text-anchor="middle" x="39" y="-117" font-family="Helvetica,sans-Serif" font-size="10.00">src</text>
</a>
</g>
</g>
<!-- dir_ac1b9311aa44ad4cf108d5fb93dfb606&#45;&gt;dir_10cce8191a2d4629e92aaca1231c0797 -->
<g id="edge2" class="edge">
<title>dir_ac1b9311aa44ad4cf108d5fb93dfb606&#45;&gt;dir_10cce8191a2d4629e92aaca1231c0797</title>
<path fill="none" stroke="#63b8ff" d="M54.47,-110.91C71.16,-102.72 98.09,-89.5 118.61,-79.43"/>
<polygon fill="#63b8ff" stroke="#63b8ff" points="119.87,-82.71 127.31,-75.17 116.79,-76.43 119.87,-82.71"/>
<g id="a_edge2&#45;headlabel"><a xlink:href="dir_000302_000170.html" target="_top" xlink:title="1">
<text text-anchor="middle" x="119.25" y="-83.68" font-family="Helvetica,sans-Serif" font-size="10.00" fill="#63b8ff">1</text>
</a>
</g>
</g>
<!-- dir_ac1b9311aa44ad4cf108d5fb93dfb606&#45;&gt;dir_4aa3f641574c4329e5ed721597730e1e -->
<g id="edge3" class="edge">
<title>dir_ac1b9311aa44ad4cf108d5fb93dfb606&#45;&gt;dir_4aa3f641574c4329e5ed721597730e1e</title>
<path fill="none" stroke="#63b8ff" d="M43.29,-109.75C46.62,-102.96 51.36,-93.3 55.56,-84.73"/>
<polygon fill="#63b8ff" stroke="#63b8ff" points="58.68,-86.32 59.95,-75.8 52.4,-83.24 58.68,-86.32"/>
<g id="a_edge3&#45;headlabel"><a xlink:href="dir_000302_000116.html" target="_top" xlink:title="4">
<text text-anchor="middle" x="60.32" y="-86.94" font-family="Helvetica,sans-Serif" font-size="10.00" fill="#63b8ff">4</text>
</a>
</g>
</g>
<!-- dir_ac1b9311aa44ad4cf108d5fb93dfb606&#45;&gt;dir_9be0baa3d4a3e9f480a9ee70594037fa -->
<g id="edge4" class="edge">
<title>dir_ac1b9311aa44ad4cf108d5fb93dfb606&#45;&gt;dir_9be0baa3d4a3e9f480a9ee70594037fa</title>
<path fill="none" stroke="#63b8ff" d="M54.31,-113.21C57.51,-112.13 60.86,-111.01 64,-110 116.18,-93.17 149.37,-118.07 182,-74 191.26,-61.5 189.87,-52.42 182,-39 177.66,-31.6 170.62,-25.98 163.14,-21.77"/>
<polygon fill="#63b8ff" stroke="#63b8ff" points="164.78,-18.68 154.25,-17.52 161.76,-24.99 164.78,-18.68"/>
<g id="a_edge4&#45;headlabel"><a xlink:href="dir_000302_000166.html" target="_top" xlink:title="14">
<text text-anchor="middle" x="167.88" y="-14.51" font-family="Helvetica,sans-Serif" font-size="10.00" fill="#63b8ff">14</text>
</a>
</g>
</g>
<!-- dir_bdd9a5d540de89e9fe90efdfc6973a4f -->
<g id="node6" class="node">
<title>dir_bdd9a5d540de89e9fe90efdfc6973a4f</title>
<g id="a_node6"><a xlink:href="dir_bdd9a5d540de89e9fe90efdfc6973a4f.html" target="_top" xlink:title="common">
<polygon fill="#deebf9" stroke="red" points="280,-74 226,-74 226,-55 280,-55 280,-74"/>
<text text-anchor="middle" x="253" y="-62" font-family="Helvetica,sans-Serif" font-size="10.00">common</text>
</a>
</g>
</g>
<!-- dir_ac1b9311aa44ad4cf108d5fb93dfb606&#45;&gt;dir_bdd9a5d540de89e9fe90efdfc6973a4f -->
<g id="edge5" class="edge">
<title>dir_ac1b9311aa44ad4cf108d5fb93dfb606&#45;&gt;dir_bdd9a5d540de89e9fe90efdfc6973a4f</title>
<path fill="none" stroke="#63b8ff" d="M54.26,-113.05C57.46,-111.98 60.83,-110.91 64,-110 91.93,-101.98 167.95,-84.58 214.63,-74.07"/>
<polygon fill="#63b8ff" stroke="#63b8ff" points="215.35,-77.5 224.34,-71.89 213.81,-70.67 215.35,-77.5"/>
<g id="a_edge5&#45;headlabel"><a xlink:href="dir_000302_000024.html" target="_top" xlink:title="1">
<text text-anchor="middle" x="213.94" y="-78.23" font-family="Helvetica,sans-Serif" font-size="10.00" fill="#63b8ff">1</text>
</a>
</g>
</g>
</g>
</svg>
