<?xml version="1.0" encoding="UTF-8" standalone="no"?>
<!DOCTYPE svg PUBLIC "-//W3C//DTD SVG 1.1//EN"
 "http://www.w3.org/Graphics/SVG/1.1/DTD/svg11.dtd">
<!-- Generated by graphviz version 7.0.5 (20221223.1930)
 -->
<!-- Title: iop/memorycard/mcserv Pages: 1 -->
<svg width="198pt" height="141pt"
 viewBox="0.00 0.00 197.50 141.00" xmlns="http://www.w3.org/2000/svg" xmlns:xlink="http://www.w3.org/1999/xlink">
<g id="graph0" class="graph" transform="scale(1 1) rotate(0) translate(4 137)">
<title>iop/memorycard/mcserv</title>
<g id="clust1" class="cluster">
<title>clusterdir_5805bfcfbe100e4767f47461b3e6402b</title>
<g id="a_clust1"><a xlink:href="dir_5805bfcfbe100e4767f47461b3e6402b.html" target="_top" xlink:title="memorycard">
<polygon fill="#deebf9" stroke="#7f7f7f" stroke-dasharray="5,2" points="8,-8 8,-125 138,-125 138,-8 8,-8"/>
<text text-anchor="middle" x="73" y="-113" font-family="Helvetica,sans-Serif" font-size="10.00">memorycard</text>
</a>
</g>
</g>
<g id="clust2" class="cluster">
<title>clusterdir_841d05e6e469c6e67dc741c932691089</title>
<g id="a_clust2"><a xlink:href="dir_841d05e6e469c6e67dc741c932691089.html" target="_top">
<polygon fill="#deebf9" stroke="#404040" stroke-width="2" points="16,-63 16,-98 130,-98 130,-63 16,-63"/>
</a>
</g>
</g>
<!-- dir_ae48e1b29bfa2db4ecbd893188b24955 -->
<g id="node1" class="node">
<title>dir_ae48e1b29bfa2db4ecbd893188b24955</title>
<g id="a_node1"><a xlink:href="dir_ae48e1b29bfa2db4ecbd893188b24955.html" target="_top" xlink:title="mcman">
<polygon fill="#60a2e3" stroke="red" points="65.5,-35 16.5,-35 16.5,-16 65.5,-16 65.5,-35"/>
<text text-anchor="middle" x="41" y="-23" font-family="Helvetica,sans-Serif" font-size="10.00">mcman</text>
</a>
</g>
</g>
<!-- dir_841d05e6e469c6e67dc741c932691089 -->
<g id="node2" class="node">
<title>dir_841d05e6e469c6e67dc741c932691089</title>
<text text-anchor="middle" x="97" y="-78" font-family="Helvetica,sans-Serif" font-size="10.00">mcserv</text>
</g>
<!-- dir_a05adc316625002d920f1719f73759f9 -->
<g id="node3" class="node">
<title>dir_a05adc316625002d920f1719f73759f9</title>
<g id="a_node3"><a xlink:href="dir_a05adc316625002d920f1719f73759f9.html" target="_top" xlink:title="src">
<polygon fill="#60a2e3" stroke="#404040" points="54,-90 24,-90 24,-71 54,-71 54,-90"/>
<text text-anchor="middle" x="39" y="-78" font-family="Helvetica,sans-Serif" font-size="10.00">src</text>
</a>
</g>
</g>
<!-- dir_a05adc316625002d920f1719f73759f9&#45;&gt;dir_ae48e1b29bfa2db4ecbd893188b24955 -->
<g id="edge2" class="edge">
<title>dir_a05adc316625002d920f1719f73759f9&#45;&gt;dir_ae48e1b29bfa2db4ecbd893188b24955</title>
<path fill="none" stroke="#63b8ff" d="M39.33,-70.75C39.57,-64.27 39.92,-55.16 40.23,-46.9"/>
<polygon fill="#63b8ff" stroke="#63b8ff" points="43.73,-47.08 40.61,-36.95 36.73,-46.82 43.73,-47.08"/>
<g id="a_edge2&#45;headlabel"><a xlink:href="dir_000321_000183.html" target="_top" xlink:title="2">
<text text-anchor="middle" x="46.48" y="-46.77" font-family="Helvetica,sans-Serif" font-size="10.00" fill="#63b8ff">2</text>
</a>
</g>
</g>
<!-- dir_9be0baa3d4a3e9f480a9ee70594037fa -->
<g id="node4" class="node">
<title>dir_9be0baa3d4a3e9f480a9ee70594037fa</title>
<g id="a_node4"><a xlink:href="dir_9be0baa3d4a3e9f480a9ee70594037fa.html" target="_top" xlink:title="kernel">
<polygon fill="#deebf9" stroke="red" stroke-dasharray="5,2" points="189.5,-35 146.5,-35 146.5,-16 189.5,-16 189.5,-35"/>
<text text-anchor="middle" x="168" y="-23" font-family="Helvetica,sans-Serif" font-size="10.00">kernel</text>
</a>
</g>
</g>
<!-- dir_a05adc316625002d920f1719f73759f9&#45;&gt;dir_9be0baa3d4a3e9f480a9ee70594037fa -->
<g id="edge1" class="edge">
<title>dir_a05adc316625002d920f1719f73759f9&#45;&gt;dir_9be0baa3d4a3e9f480a9ee70594037fa</title>
<path fill="none" stroke="#63b8ff" d="M51.1,-70.65C55.09,-67.97 59.62,-65.17 64,-63 70.66,-59.7 107.54,-46.96 135.51,-37.45"/>
<polygon fill="#63b8ff" stroke="#63b8ff" points="136.31,-40.88 144.66,-34.36 134.06,-34.25 136.31,-40.88"/>
<g id="a_edge1&#45;headlabel"><a xlink:href="dir_000321_000166.html" target="_top" xlink:title="13">
<text text-anchor="middle" x="135.25" y="-41.74" font-family="Helvetica,sans-Serif" font-size="10.00" fill="#63b8ff">13</text>
</a>
</g>
</g>
</g>
</svg>
