<?xml version="1.0" encoding="UTF-8" standalone="no"?>
<!DOCTYPE svg PUBLIC "-//W3C//DTD SVG 1.1//EN"
 "http://www.w3.org/Graphics/SVG/1.1/DTD/svg11.dtd">
<!-- Generated by graphviz version 7.0.5 (20221223.1930)
 -->
<!-- Title: ee/graph Pages: 1 -->
<svg width="349pt" height="149pt"
 viewBox="0.00 0.00 348.50 149.00" xmlns="http://www.w3.org/2000/svg" xmlns:xlink="http://www.w3.org/1999/xlink">
<g id="graph0" class="graph" transform="scale(1 1) rotate(0) translate(4 145)">
<title>ee/graph</title>
<g id="clust1" class="cluster">
<title>clusterdir_049738f1909e8dc3e45fe1f6b3faa109</title>
<g id="a_clust1"><a xlink:href="dir_049738f1909e8dc3e45fe1f6b3faa109.html" target="_top" xlink:title="ee">
<polygon fill="#deebf9" stroke="#404040" stroke-dasharray="5,2" points="8,-8 8,-133 229,-133 229,-8 8,-8"/>
<text text-anchor="middle" x="118.5" y="-121" font-family="Helvetica,sans-Serif" font-size="10.00">ee</text>
</a>
</g>
</g>
<g id="clust2" class="cluster">
<title>clusterdir_933591e1cd95ed33f946db8a4302cbd1</title>
<g id="a_clust2"><a xlink:href="dir_933591e1cd95ed33f946db8a4302cbd1.html" target="_top">
<polygon fill="#deebf9" stroke="#404040" stroke-width="2" points="16,-16 16,-106 122,-106 122,-16 16,-16"/>
</a>
</g>
</g>
<!-- dir_a0a8ac7efb6662b749c1285408048e6d -->
<g id="node1" class="node">
<title>dir_a0a8ac7efb6662b749c1285408048e6d</title>
<g id="a_node1"><a xlink:href="dir_a0a8ac7efb6662b749c1285408048e6d.html" target="_top" xlink:title="erl">
<polygon fill="#60a2e3" stroke="red" points="159.5,-43 130.5,-43 130.5,-24 159.5,-24 159.5,-43"/>
<text text-anchor="middle" x="145" y="-31" font-family="Helvetica,sans-Serif" font-size="10.00">erl</text>
</a>
</g>
</g>
<!-- dir_694ec83a64f58cbdefbefce65cd1011c -->
<g id="node2" class="node">
<title>dir_694ec83a64f58cbdefbefce65cd1011c</title>
<g id="a_node2"><a xlink:href="dir_694ec83a64f58cbdefbefce65cd1011c.html" target="_top" xlink:title="kernel">
<polygon fill="#60a2e3" stroke="red" points="220.5,-43 177.5,-43 177.5,-24 220.5,-24 220.5,-43"/>
<text text-anchor="middle" x="199" y="-31" font-family="Helvetica,sans-Serif" font-size="10.00">kernel</text>
</a>
</g>
</g>
<!-- dir_933591e1cd95ed33f946db8a4302cbd1 -->
<g id="node3" class="node">
<title>dir_933591e1cd95ed33f946db8a4302cbd1</title>
<text text-anchor="middle" x="93" y="-86" font-family="Helvetica,sans-Serif" font-size="10.00">graph</text>
</g>
<!-- dir_587f58ae6bff4b1360d4911800bd5f72 -->
<g id="node4" class="node">
<title>dir_587f58ae6bff4b1360d4911800bd5f72</title>
<g id="a_node4"><a xlink:href="dir_587f58ae6bff4b1360d4911800bd5f72.html" target="_top" xlink:title="include">
<polygon fill="#60a2e3" stroke="#404040" points="71.5,-43 24.5,-43 24.5,-24 71.5,-24 71.5,-43"/>
<text text-anchor="middle" x="48" y="-31" font-family="Helvetica,sans-Serif" font-size="10.00">include</text>
</a>
</g>
</g>
<!-- dir_1a15d16f9d67565cc9b389bcd85d26fc -->
<g id="node5" class="node">
<title>dir_1a15d16f9d67565cc9b389bcd85d26fc</title>
<g id="a_node5"><a xlink:href="dir_1a15d16f9d67565cc9b389bcd85d26fc.html" target="_top" xlink:title="src">
<polygon fill="#60a2e3" stroke="#404040" points="54,-98 24,-98 24,-79 54,-79 54,-98"/>
<text text-anchor="middle" x="39" y="-86" font-family="Helvetica,sans-Serif" font-size="10.00">src</text>
</a>
</g>
</g>
<!-- dir_1a15d16f9d67565cc9b389bcd85d26fc&#45;&gt;dir_a0a8ac7efb6662b749c1285408048e6d -->
<g id="edge4" class="edge">
<title>dir_1a15d16f9d67565cc9b389bcd85d26fc&#45;&gt;dir_a0a8ac7efb6662b749c1285408048e6d</title>
<path fill="none" stroke="#63b8ff" d="M54.19,-79.91C71.37,-71.32 99.6,-57.2 120.03,-46.98"/>
<polygon fill="#63b8ff" stroke="#63b8ff" points="121.45,-50.19 128.83,-42.59 118.32,-43.93 121.45,-50.19"/>
<g id="a_edge4&#45;headlabel"><a xlink:href="dir_000247_000045.html" target="_top" xlink:title="1">
<text text-anchor="middle" x="120.86" y="-51.16" font-family="Helvetica,sans-Serif" font-size="10.00" fill="#63b8ff">1</text>
</a>
</g>
</g>
<!-- dir_1a15d16f9d67565cc9b389bcd85d26fc&#45;&gt;dir_694ec83a64f58cbdefbefce65cd1011c -->
<g id="edge3" class="edge">
<title>dir_1a15d16f9d67565cc9b389bcd85d26fc&#45;&gt;dir_694ec83a64f58cbdefbefce65cd1011c</title>
<path fill="none" stroke="#63b8ff" d="M54.33,-82.26C57.52,-81.18 60.87,-80.05 64,-79 99.01,-67.28 139.22,-54.06 166.58,-45.09"/>
<polygon fill="#63b8ff" stroke="#63b8ff" points="167.62,-48.44 176.03,-42 165.44,-41.78 167.62,-48.44"/>
<g id="a_edge3&#45;headlabel"><a xlink:href="dir_000247_000165.html" target="_top" xlink:title="4">
<text text-anchor="middle" x="166.52" y="-49.28" font-family="Helvetica,sans-Serif" font-size="10.00" fill="#63b8ff">4</text>
</a>
</g>
</g>
<!-- dir_1a15d16f9d67565cc9b389bcd85d26fc&#45;&gt;dir_587f58ae6bff4b1360d4911800bd5f72 -->
<g id="edge2" class="edge">
<title>dir_1a15d16f9d67565cc9b389bcd85d26fc&#45;&gt;dir_587f58ae6bff4b1360d4911800bd5f72</title>
<path fill="none" stroke="#63b8ff" d="M40.49,-78.75C41.6,-72.19 43.17,-62.95 44.59,-54.6"/>
<polygon fill="#63b8ff" stroke="#63b8ff" points="48,-55.38 46.23,-44.93 41.1,-54.21 48,-55.38"/>
<g id="a_edge2&#45;headlabel"><a xlink:href="dir_000247_000075.html" target="_top" xlink:title="6">
<text text-anchor="middle" x="50.46" y="-55.41" font-family="Helvetica,sans-Serif" font-size="10.00" fill="#63b8ff">6</text>
</a>
</g>
</g>
<!-- dir_bdd9a5d540de89e9fe90efdfc6973a4f -->
<g id="node6" class="node">
<title>dir_bdd9a5d540de89e9fe90efdfc6973a4f</title>
<g id="a_node6"><a xlink:href="dir_bdd9a5d540de89e9fe90efdfc6973a4f.html" target="_top" xlink:title="common">
<polygon fill="#deebf9" stroke="red" points="293,-43 239,-43 239,-24 293,-24 293,-43"/>
<text text-anchor="middle" x="266" y="-31" font-family="Helvetica,sans-Serif" font-size="10.00">common</text>
</a>
</g>
</g>
<!-- dir_1a15d16f9d67565cc9b389bcd85d26fc&#45;&gt;dir_bdd9a5d540de89e9fe90efdfc6973a4f -->
<g id="edge5" class="edge">
<title>dir_1a15d16f9d67565cc9b389bcd85d26fc&#45;&gt;dir_bdd9a5d540de89e9fe90efdfc6973a4f</title>
<path fill="none" stroke="#63b8ff" d="M54.25,-82C57.45,-80.93 60.82,-79.88 64,-79 134.57,-59.56 156.23,-60.45 227.73,-44.17"/>
<polygon fill="#63b8ff" stroke="#63b8ff" points="228.22,-47.65 237.18,-41.98 226.64,-40.83 228.22,-47.65"/>
<g id="a_edge5&#45;headlabel"><a xlink:href="dir_000247_000024.html" target="_top" xlink:title="4">
<text text-anchor="middle" x="226.84" y="-48.38" font-family="Helvetica,sans-Serif" font-size="10.00" fill="#63b8ff">4</text>
</a>
</g>
</g>
<!-- dir_0981ace215aa2029f526b70c145b9fbe -->
<g id="node7" class="node">
<title>dir_0981ace215aa2029f526b70c145b9fbe</title>
<g id="a_node7"><a xlink:href="dir_0981ace215aa2029f526b70c145b9fbe.html" target="_top" xlink:title="iop">
<polygon fill="#deebf9" stroke="red" points="340.5,-43 311.5,-43 311.5,-24 340.5,-24 340.5,-43"/>
<text text-anchor="middle" x="326" y="-31" font-family="Helvetica,sans-Serif" font-size="10.00">iop</text>
</a>
</g>
</g>
<!-- dir_1a15d16f9d67565cc9b389bcd85d26fc&#45;&gt;dir_0981ace215aa2029f526b70c145b9fbe -->
<g id="edge1" class="edge">
<title>dir_1a15d16f9d67565cc9b389bcd85d26fc&#45;&gt;dir_0981ace215aa2029f526b70c145b9fbe</title>
<path fill="none" stroke="#63b8ff" d="M54.48,-81.76C57.6,-80.74 60.88,-79.76 64,-79 164.49,-54.52 196.13,-68 300.17,-42.97"/>
<polygon fill="#63b8ff" stroke="#63b8ff" points="300.82,-46.42 309.69,-40.61 299.14,-39.62 300.82,-46.42"/>
<g id="a_edge1&#45;headlabel"><a xlink:href="dir_000247_000159.html" target="_top" xlink:title="1">
<text text-anchor="middle" x="299.48" y="-47.17" font-family="Helvetica,sans-Serif" font-size="10.00" fill="#63b8ff">1</text>
</a>
</g>
</g>
</g>
</svg>
