<?xml version="1.0" encoding="UTF-8" standalone="no"?>
<!DOCTYPE svg PUBLIC "-//W3C//DTD SVG 1.1//EN"
 "http://www.w3.org/Graphics/SVG/1.1/DTD/svg11.dtd">
<!-- Generated by graphviz version 7.0.5 (20221223.1930)
 -->
<!-- Title: iop/memorycard Pages: 1 -->
<svg width="248pt" height="196pt"
 viewBox="0.00 0.00 248.00 196.00" xmlns="http://www.w3.org/2000/svg" xmlns:xlink="http://www.w3.org/1999/xlink">
<g id="graph0" class="graph" transform="scale(1 1) rotate(0) translate(4 192)">
<title>iop/memorycard</title>
<g id="clust1" class="cluster">
<title>clusterdir_0981ace215aa2029f526b70c145b9fbe</title>
<g id="a_clust1"><a xlink:href="dir_0981ace215aa2029f526b70c145b9fbe.html" target="_top" xlink:title="iop">
<polygon fill="#deebf9" stroke="#404040" stroke-dasharray="5,2" points="8,-8 8,-180 178,-180 178,-8 8,-8"/>
<text text-anchor="middle" x="93" y="-168" font-family="Helvetica,sans-Serif" font-size="10.00">iop</text>
</a>
</g>
</g>
<g id="clust2" class="cluster">
<title>clusterdir_5805bfcfbe100e4767f47461b3e6402b</title>
<g id="a_clust2"><a xlink:href="dir_5805bfcfbe100e4767f47461b3e6402b.html" target="_top">
<polygon fill="#deebf9" stroke="#404040" stroke-width="2" points="16,-63 16,-153 170,-153 170,-63 16,-63"/>
</a>
</g>
</g>
<!-- dir_9be0baa3d4a3e9f480a9ee70594037fa -->
<g id="node1" class="node">
<title>dir_9be0baa3d4a3e9f480a9ee70594037fa</title>
<g id="a_node1"><a xlink:href="dir_9be0baa3d4a3e9f480a9ee70594037fa.html" target="_top" xlink:title="kernel">
<polygon fill="#60a2e3" stroke="red" points="70.5,-35 27.5,-35 27.5,-16 70.5,-16 70.5,-35"/>
<text text-anchor="middle" x="49" y="-23" font-family="Helvetica,sans-Serif" font-size="10.00">kernel</text>
</a>
</g>
</g>
<!-- dir_40ac35421bc63b72c26b6c69b1517fd6 -->
<g id="node2" class="node">
<title>dir_40ac35421bc63b72c26b6c69b1517fd6</title>
<g id="a_node2"><a xlink:href="dir_40ac35421bc63b72c26b6c69b1517fd6.html" target="_top" xlink:title="system">
<polygon fill="#60a2e3" stroke="red" points="137,-35 89,-35 89,-16 137,-16 137,-35"/>
<text text-anchor="middle" x="113" y="-23" font-family="Helvetica,sans-Serif" font-size="10.00">system</text>
</a>
</g>
</g>
<!-- dir_5805bfcfbe100e4767f47461b3e6402b -->
<g id="node3" class="node">
<title>dir_5805bfcfbe100e4767f47461b3e6402b</title>
<text text-anchor="middle" x="127" y="-133" font-family="Helvetica,sans-Serif" font-size="10.00">memorycard</text>
</g>
<!-- dir_ae48e1b29bfa2db4ecbd893188b24955 -->
<g id="node4" class="node">
<title>dir_ae48e1b29bfa2db4ecbd893188b24955</title>
<g id="a_node4"><a xlink:href="dir_ae48e1b29bfa2db4ecbd893188b24955.html" target="_top" xlink:title="mcman">
<polygon fill="#60a2e3" stroke="#404040" points="127.5,-90 78.5,-90 78.5,-71 127.5,-71 127.5,-90"/>
<text text-anchor="middle" x="103" y="-78" font-family="Helvetica,sans-Serif" font-size="10.00">mcman</text>
</a>
</g>
</g>
<!-- dir_ae48e1b29bfa2db4ecbd893188b24955&#45;&gt;dir_9be0baa3d4a3e9f480a9ee70594037fa -->
<g id="edge1" class="edge">
<title>dir_ae48e1b29bfa2db4ecbd893188b24955&#45;&gt;dir_9be0baa3d4a3e9f480a9ee70594037fa</title>
<path fill="none" stroke="#63b8ff" d="M94.08,-70.75C86.55,-63.35 75.53,-52.54 66.27,-43.45"/>
<polygon fill="#63b8ff" stroke="#63b8ff" points="68.78,-41.01 59.19,-36.5 63.88,-46 68.78,-41.01"/>
<g id="a_edge1&#45;headlabel"><a xlink:href="dir_000183_000166.html" target="_top" xlink:title="24">
<text text-anchor="middle" x="72.25" y="-37.94" font-family="Helvetica,sans-Serif" font-size="10.00" fill="#63b8ff">24</text>
</a>
</g>
</g>
<!-- dir_ae48e1b29bfa2db4ecbd893188b24955&#45;&gt;dir_40ac35421bc63b72c26b6c69b1517fd6 -->
<g id="edge3" class="edge">
<title>dir_ae48e1b29bfa2db4ecbd893188b24955&#45;&gt;dir_40ac35421bc63b72c26b6c69b1517fd6</title>
<path fill="none" stroke="#63b8ff" d="M104.65,-70.75C105.89,-64.19 107.63,-54.95 109.21,-46.6"/>
<polygon fill="#63b8ff" stroke="#63b8ff" points="112.62,-47.4 111.03,-36.93 105.74,-46.11 112.62,-47.4"/>
<g id="a_edge3&#45;headlabel"><a xlink:href="dir_000183_000371.html" target="_top" xlink:title="2">
<text text-anchor="middle" x="115.02" y="-47.48" font-family="Helvetica,sans-Serif" font-size="10.00" fill="#63b8ff">2</text>
</a>
</g>
</g>
<!-- dir_bdd9a5d540de89e9fe90efdfc6973a4f -->
<g id="node6" class="node">
<title>dir_bdd9a5d540de89e9fe90efdfc6973a4f</title>
<g id="a_node6"><a xlink:href="dir_bdd9a5d540de89e9fe90efdfc6973a4f.html" target="_top" xlink:title="common">
<polygon fill="#deebf9" stroke="red" points="240,-35 186,-35 186,-16 240,-16 240,-35"/>
<text text-anchor="middle" x="213" y="-23" font-family="Helvetica,sans-Serif" font-size="10.00">common</text>
</a>
</g>
</g>
<!-- dir_ae48e1b29bfa2db4ecbd893188b24955&#45;&gt;dir_bdd9a5d540de89e9fe90efdfc6973a4f -->
<g id="edge2" class="edge">
<title>dir_ae48e1b29bfa2db4ecbd893188b24955&#45;&gt;dir_bdd9a5d540de89e9fe90efdfc6973a4f</title>
<path fill="none" stroke="#63b8ff" d="M121.66,-70.51C138.83,-62.24 164.55,-49.84 184.33,-40.31"/>
<polygon fill="#63b8ff" stroke="#63b8ff" points="185.76,-43.51 193.25,-36.01 182.72,-37.2 185.76,-43.51"/>
<g id="a_edge2&#45;headlabel"><a xlink:href="dir_000183_000024.html" target="_top" xlink:title="3">
<text text-anchor="middle" x="185.12" y="-44.47" font-family="Helvetica,sans-Serif" font-size="10.00" fill="#63b8ff">3</text>
</a>
</g>
</g>
<!-- dir_841d05e6e469c6e67dc741c932691089 -->
<g id="node5" class="node">
<title>dir_841d05e6e469c6e67dc741c932691089</title>
<g id="a_node5"><a xlink:href="dir_841d05e6e469c6e67dc741c932691089.html" target="_top" xlink:title="mcserv">
<polygon fill="#60a2e3" stroke="#404040" points="73.5,-145 24.5,-145 24.5,-126 73.5,-126 73.5,-145"/>
<text text-anchor="middle" x="49" y="-133" font-family="Helvetica,sans-Serif" font-size="10.00">mcserv</text>
</a>
</g>
</g>
<!-- dir_841d05e6e469c6e67dc741c932691089&#45;&gt;dir_9be0baa3d4a3e9f480a9ee70594037fa -->
<g id="edge4" class="edge">
<title>dir_841d05e6e469c6e67dc741c932691089&#45;&gt;dir_9be0baa3d4a3e9f480a9ee70594037fa</title>
<path fill="none" stroke="#63b8ff" d="M49,-125.66C49,-108.57 49,-70.61 49,-46.92"/>
<polygon fill="#63b8ff" stroke="#63b8ff" points="52.5,-46.97 49,-36.97 45.5,-46.97 52.5,-46.97"/>
<g id="a_edge4&#45;headlabel"><a xlink:href="dir_000184_000166.html" target="_top" xlink:title="13">
<text text-anchor="middle" x="55.34" y="-46.55" font-family="Helvetica,sans-Serif" font-size="10.00" fill="#63b8ff">13</text>
</a>
</g>
</g>
<!-- dir_841d05e6e469c6e67dc741c932691089&#45;&gt;dir_ae48e1b29bfa2db4ecbd893188b24955 -->
<g id="edge5" class="edge">
<title>dir_841d05e6e469c6e67dc741c932691089&#45;&gt;dir_ae48e1b29bfa2db4ecbd893188b24955</title>
<path fill="none" stroke="#63b8ff" d="M57.92,-125.75C65.45,-118.35 76.47,-107.54 85.73,-98.45"/>
<polygon fill="#63b8ff" stroke="#63b8ff" points="88.12,-101 92.81,-91.5 83.22,-96.01 88.12,-101"/>
<g id="a_edge5&#45;headlabel"><a xlink:href="dir_000184_000183.html" target="_top" xlink:title="2">
<text text-anchor="middle" x="88.63" y="-101.99" font-family="Helvetica,sans-Serif" font-size="10.00" fill="#63b8ff">2</text>
</a>
</g>
</g>
</g>
</svg>
