<?xml version="1.0" encoding="UTF-8" standalone="no"?>
<!DOCTYPE svg PUBLIC "-//W3C//DTD SVG 1.1//EN"
 "http://www.w3.org/Graphics/SVG/1.1/DTD/svg11.dtd">
<!-- Generated by graphviz version 7.0.5 (20221223.1930)
 -->
<!-- Title: ee/mpeg Pages: 1 -->
<svg width="315pt" height="180pt"
 viewBox="0.00 0.00 314.50 180.00" xmlns="http://www.w3.org/2000/svg" xmlns:xlink="http://www.w3.org/1999/xlink">
<g id="graph0" class="graph" transform="scale(1 1) rotate(0) translate(4 176)">
<title>ee/mpeg</title>
<g id="clust1" class="cluster">
<title>clusterdir_049738f1909e8dc3e45fe1f6b3faa109</title>
<g id="a_clust1"><a xlink:href="dir_049738f1909e8dc3e45fe1f6b3faa109.html" target="_top" xlink:title="ee">
<polygon fill="#deebf9" stroke="#404040" stroke-dasharray="5,2" points="8,-39 8,-164 229,-164 229,-39 8,-39"/>
<text text-anchor="middle" x="118.5" y="-152" font-family="Helvetica,sans-Serif" font-size="10.00">ee</text>
</a>
</g>
</g>
<g id="clust2" class="cluster">
<title>clusterdir_5a30d30e86afe8e71e8256ba8d77d003</title>
<g id="a_clust2"><a xlink:href="dir_5a30d30e86afe8e71e8256ba8d77d003.html" target="_top">
<polygon fill="#deebf9" stroke="#404040" stroke-width="2" points="16,-47 16,-137 122,-137 122,-47 16,-47"/>
</a>
</g>
</g>
<!-- dir_a0a8ac7efb6662b749c1285408048e6d -->
<g id="node1" class="node">
<title>dir_a0a8ac7efb6662b749c1285408048e6d</title>
<g id="a_node1"><a xlink:href="dir_a0a8ac7efb6662b749c1285408048e6d.html" target="_top" xlink:title="erl">
<polygon fill="#60a2e3" stroke="red" points="159.5,-74 130.5,-74 130.5,-55 159.5,-55 159.5,-74"/>
<text text-anchor="middle" x="145" y="-62" font-family="Helvetica,sans-Serif" font-size="10.00">erl</text>
</a>
</g>
</g>
<!-- dir_694ec83a64f58cbdefbefce65cd1011c -->
<g id="node2" class="node">
<title>dir_694ec83a64f58cbdefbefce65cd1011c</title>
<g id="a_node2"><a xlink:href="dir_694ec83a64f58cbdefbefce65cd1011c.html" target="_top" xlink:title="kernel">
<polygon fill="#60a2e3" stroke="red" points="220.5,-74 177.5,-74 177.5,-55 220.5,-55 220.5,-74"/>
<text text-anchor="middle" x="199" y="-62" font-family="Helvetica,sans-Serif" font-size="10.00">kernel</text>
</a>
</g>
</g>
<!-- dir_5a30d30e86afe8e71e8256ba8d77d003 -->
<g id="node3" class="node">
<title>dir_5a30d30e86afe8e71e8256ba8d77d003</title>
<text text-anchor="middle" x="93" y="-117" font-family="Helvetica,sans-Serif" font-size="10.00">mpeg</text>
</g>
<!-- dir_413ea6b66ae557d0d7cb038b88135642 -->
<g id="node4" class="node">
<title>dir_413ea6b66ae557d0d7cb038b88135642</title>
<g id="a_node4"><a xlink:href="dir_413ea6b66ae557d0d7cb038b88135642.html" target="_top" xlink:title="include">
<polygon fill="#60a2e3" stroke="#404040" points="91.5,-74 44.5,-74 44.5,-55 91.5,-55 91.5,-74"/>
<text text-anchor="middle" x="68" y="-62" font-family="Helvetica,sans-Serif" font-size="10.00">include</text>
</a>
</g>
</g>
<!-- dir_bdd9a5d540de89e9fe90efdfc6973a4f -->
<g id="node6" class="node">
<title>dir_bdd9a5d540de89e9fe90efdfc6973a4f</title>
<g id="a_node6"><a xlink:href="dir_bdd9a5d540de89e9fe90efdfc6973a4f.html" target="_top" xlink:title="common">
<polygon fill="#deebf9" stroke="red" points="185,-19 131,-19 131,0 185,0 185,-19"/>
<text text-anchor="middle" x="158" y="-7" font-family="Helvetica,sans-Serif" font-size="10.00">common</text>
</a>
</g>
</g>
<!-- dir_413ea6b66ae557d0d7cb038b88135642&#45;&gt;dir_bdd9a5d540de89e9fe90efdfc6973a4f -->
<g id="edge1" class="edge">
<title>dir_413ea6b66ae557d0d7cb038b88135642&#45;&gt;dir_bdd9a5d540de89e9fe90efdfc6973a4f</title>
<path fill="none" stroke="#63b8ff" d="M76.8,-54.62C82.06,-49.62 89.06,-43.5 96,-39 104.74,-33.34 114.79,-28.2 124.22,-23.9"/>
<polygon fill="#63b8ff" stroke="#63b8ff" points="125.34,-27.23 133.11,-20.02 122.54,-20.81 125.34,-27.23"/>
<g id="a_edge1&#45;headlabel"><a xlink:href="dir_000084_000024.html" target="_top" xlink:title="1">
<text text-anchor="middle" x="124.57" y="-28.16" font-family="Helvetica,sans-Serif" font-size="10.00" fill="#63b8ff">1</text>
</a>
</g>
</g>
<!-- dir_c15c3f3fb57f56539c5f292b37505da8 -->
<g id="node5" class="node">
<title>dir_c15c3f3fb57f56539c5f292b37505da8</title>
<g id="a_node5"><a xlink:href="dir_c15c3f3fb57f56539c5f292b37505da8.html" target="_top" xlink:title="src">
<polygon fill="#60a2e3" stroke="#404040" points="54,-129 24,-129 24,-110 54,-110 54,-129"/>
<text text-anchor="middle" x="39" y="-117" font-family="Helvetica,sans-Serif" font-size="10.00">src</text>
</a>
</g>
</g>
<!-- dir_c15c3f3fb57f56539c5f292b37505da8&#45;&gt;dir_a0a8ac7efb6662b749c1285408048e6d -->
<g id="edge5" class="edge">
<title>dir_c15c3f3fb57f56539c5f292b37505da8&#45;&gt;dir_a0a8ac7efb6662b749c1285408048e6d</title>
<path fill="none" stroke="#63b8ff" d="M54.19,-110.91C71.37,-102.32 99.6,-88.2 120.03,-77.98"/>
<polygon fill="#63b8ff" stroke="#63b8ff" points="121.45,-81.19 128.83,-73.59 118.32,-74.93 121.45,-81.19"/>
<g id="a_edge5&#45;headlabel"><a xlink:href="dir_000260_000045.html" target="_top" xlink:title="1">
<text text-anchor="middle" x="120.86" y="-82.16" font-family="Helvetica,sans-Serif" font-size="10.00" fill="#63b8ff">1</text>
</a>
</g>
</g>
<!-- dir_c15c3f3fb57f56539c5f292b37505da8&#45;&gt;dir_694ec83a64f58cbdefbefce65cd1011c -->
<g id="edge4" class="edge">
<title>dir_c15c3f3fb57f56539c5f292b37505da8&#45;&gt;dir_694ec83a64f58cbdefbefce65cd1011c</title>
<path fill="none" stroke="#63b8ff" d="M54.33,-113.26C57.52,-112.18 60.87,-111.05 64,-110 99.01,-98.28 139.22,-85.06 166.58,-76.09"/>
<polygon fill="#63b8ff" stroke="#63b8ff" points="167.62,-79.44 176.03,-73 165.44,-72.78 167.62,-79.44"/>
<g id="a_edge4&#45;headlabel"><a xlink:href="dir_000260_000165.html" target="_top" xlink:title="2">
<text text-anchor="middle" x="166.52" y="-80.28" font-family="Helvetica,sans-Serif" font-size="10.00" fill="#63b8ff">2</text>
</a>
</g>
</g>
<!-- dir_c15c3f3fb57f56539c5f292b37505da8&#45;&gt;dir_413ea6b66ae557d0d7cb038b88135642 -->
<g id="edge3" class="edge">
<title>dir_c15c3f3fb57f56539c5f292b37505da8&#45;&gt;dir_413ea6b66ae557d0d7cb038b88135642</title>
<path fill="none" stroke="#63b8ff" d="M43.79,-109.75C47.54,-102.88 52.91,-93.08 57.63,-84.45"/>
<polygon fill="#63b8ff" stroke="#63b8ff" points="60.65,-86.22 62.38,-75.77 54.51,-82.86 60.65,-86.22"/>
<g id="a_edge3&#45;headlabel"><a xlink:href="dir_000260_000084.html" target="_top" xlink:title="3">
<text text-anchor="middle" x="62.14" y="-86.91" font-family="Helvetica,sans-Serif" font-size="10.00" fill="#63b8ff">3</text>
</a>
</g>
</g>
<!-- dir_c15c3f3fb57f56539c5f292b37505da8&#45;&gt;dir_bdd9a5d540de89e9fe90efdfc6973a4f -->
<g id="edge6" class="edge">
<title>dir_c15c3f3fb57f56539c5f292b37505da8&#45;&gt;dir_bdd9a5d540de89e9fe90efdfc6973a4f</title>
<path fill="none" stroke="#63b8ff" d="M54.25,-113C57.45,-111.93 60.82,-110.88 64,-110 138.04,-89.6 184.68,-133.69 233,-74 242.79,-61.91 241.83,-51.8 233,-39 224.58,-26.79 210.18,-19.8 196.23,-15.81"/>
<polygon fill="#63b8ff" stroke="#63b8ff" points="197.28,-12.46 186.74,-13.56 195.66,-19.27 197.28,-12.46"/>
<g id="a_edge6&#45;headlabel"><a xlink:href="dir_000260_000024.html" target="_top" xlink:title="1">
<text text-anchor="middle" x="199.96" y="-7.68" font-family="Helvetica,sans-Serif" font-size="10.00" fill="#63b8ff">1</text>
</a>
</g>
</g>
<!-- dir_0981ace215aa2029f526b70c145b9fbe -->
<g id="node7" class="node">
<title>dir_0981ace215aa2029f526b70c145b9fbe</title>
<g id="a_node7"><a xlink:href="dir_0981ace215aa2029f526b70c145b9fbe.html" target="_top" xlink:title="iop">
<polygon fill="#deebf9" stroke="red" points="306.5,-74 277.5,-74 277.5,-55 306.5,-55 306.5,-74"/>
<text text-anchor="middle" x="292" y="-62" font-family="Helvetica,sans-Serif" font-size="10.00">iop</text>
</a>
</g>
</g>
<!-- dir_c15c3f3fb57f56539c5f292b37505da8&#45;&gt;dir_0981ace215aa2029f526b70c145b9fbe -->
<g id="edge2" class="edge">
<title>dir_c15c3f3fb57f56539c5f292b37505da8&#45;&gt;dir_0981ace215aa2029f526b70c145b9fbe</title>
<path fill="none" stroke="#63b8ff" d="M54.49,-112.83C57.62,-111.8 60.89,-110.8 64,-110 151.01,-87.47 175.53,-94.67 263,-74 264.01,-73.76 265.03,-73.51 266.06,-73.25"/>
<polygon fill="#63b8ff" stroke="#63b8ff" points="266.86,-76.66 275.57,-70.62 265,-69.91 266.86,-76.66"/>
<g id="a_edge2&#45;headlabel"><a xlink:href="dir_000260_000159.html" target="_top" xlink:title="2">
<text text-anchor="middle" x="265.61" y="-77.45" font-family="Helvetica,sans-Serif" font-size="10.00" fill="#63b8ff">2</text>
</a>
</g>
</g>
</g>
</svg>
