<?xml version="1.0" encoding="UTF-8" standalone="no"?>
<!DOCTYPE svg PUBLIC "-//W3C//DTD SVG 1.1//EN"
 "http://www.w3.org/Graphics/SVG/1.1/DTD/svg11.dtd">
<!-- Generated by graphviz version 7.0.5 (20221223.1930)
 -->
<!-- Title: ee/debug Pages: 1 -->
<svg width="317pt" height="180pt"
 viewBox="0.00 0.00 316.50 180.00" xmlns="http://www.w3.org/2000/svg" xmlns:xlink="http://www.w3.org/1999/xlink">
<g id="graph0" class="graph" transform="scale(1 1) rotate(0) translate(4 176)">
<title>ee/debug</title>
<g id="clust1" class="cluster">
<title>clusterdir_049738f1909e8dc3e45fe1f6b3faa109</title>
<g id="a_clust1"><a xlink:href="dir_049738f1909e8dc3e45fe1f6b3faa109.html" target="_top" xlink:title="ee">
<polygon fill="#deebf9" stroke="#404040" stroke-dasharray="5,2" points="8,-39 8,-164 231,-164 231,-39 8,-39"/>
<text text-anchor="middle" x="119.5" y="-152" font-family="Helvetica,sans-Serif" font-size="10.00">ee</text>
</a>
</g>
</g>
<g id="clust2" class="cluster">
<title>clusterdir_c7a9def6f98954b831c78937abc1a97c</title>
<g id="a_clust2"><a xlink:href="dir_c7a9def6f98954b831c78937abc1a97c.html" target="_top">
<polygon fill="#deebf9" stroke="#404040" stroke-width="2" points="16,-47 16,-137 124,-137 124,-47 16,-47"/>
</a>
</g>
</g>
<!-- dir_a0a8ac7efb6662b749c1285408048e6d -->
<g id="node1" class="node">
<title>dir_a0a8ac7efb6662b749c1285408048e6d</title>
<g id="a_node1"><a xlink:href="dir_a0a8ac7efb6662b749c1285408048e6d.html" target="_top" xlink:title="erl">
<polygon fill="#60a2e3" stroke="red" points="161.5,-74 132.5,-74 132.5,-55 161.5,-55 161.5,-74"/>
<text text-anchor="middle" x="147" y="-62" font-family="Helvetica,sans-Serif" font-size="10.00">erl</text>
</a>
</g>
</g>
<!-- dir_694ec83a64f58cbdefbefce65cd1011c -->
<g id="node2" class="node">
<title>dir_694ec83a64f58cbdefbefce65cd1011c</title>
<g id="a_node2"><a xlink:href="dir_694ec83a64f58cbdefbefce65cd1011c.html" target="_top" xlink:title="kernel">
<polygon fill="#60a2e3" stroke="red" points="222.5,-74 179.5,-74 179.5,-55 222.5,-55 222.5,-74"/>
<text text-anchor="middle" x="201" y="-62" font-family="Helvetica,sans-Serif" font-size="10.00">kernel</text>
</a>
</g>
</g>
<!-- dir_c7a9def6f98954b831c78937abc1a97c -->
<g id="node3" class="node">
<title>dir_c7a9def6f98954b831c78937abc1a97c</title>
<text text-anchor="middle" x="94" y="-117" font-family="Helvetica,sans-Serif" font-size="10.00">debug</text>
</g>
<!-- dir_9a2ed50503c4a05c33e063cab27eda7b -->
<g id="node4" class="node">
<title>dir_9a2ed50503c4a05c33e063cab27eda7b</title>
<g id="a_node4"><a xlink:href="dir_9a2ed50503c4a05c33e063cab27eda7b.html" target="_top" xlink:title="include">
<polygon fill="#60a2e3" stroke="#404040" points="92.5,-74 45.5,-74 45.5,-55 92.5,-55 92.5,-74"/>
<text text-anchor="middle" x="69" y="-62" font-family="Helvetica,sans-Serif" font-size="10.00">include</text>
</a>
</g>
</g>
<!-- dir_bdd9a5d540de89e9fe90efdfc6973a4f -->
<g id="node6" class="node">
<title>dir_bdd9a5d540de89e9fe90efdfc6973a4f</title>
<g id="a_node6"><a xlink:href="dir_bdd9a5d540de89e9fe90efdfc6973a4f.html" target="_top" xlink:title="common">
<polygon fill="#deebf9" stroke="red" points="187,-19 133,-19 133,0 187,0 187,-19"/>
<text text-anchor="middle" x="160" y="-7" font-family="Helvetica,sans-Serif" font-size="10.00">common</text>
</a>
</g>
</g>
<!-- dir_9a2ed50503c4a05c33e063cab27eda7b&#45;&gt;dir_bdd9a5d540de89e9fe90efdfc6973a4f -->
<g id="edge1" class="edge">
<title>dir_9a2ed50503c4a05c33e063cab27eda7b&#45;&gt;dir_bdd9a5d540de89e9fe90efdfc6973a4f</title>
<path fill="none" stroke="#63b8ff" d="M77.79,-54.61C83.05,-49.6 90.05,-43.47 97,-39 105.8,-33.34 115.92,-28.22 125.43,-23.95"/>
<polygon fill="#63b8ff" stroke="#63b8ff" points="126.61,-27.25 134.42,-20.08 123.85,-20.81 126.61,-27.25"/>
<g id="a_edge1&#45;headlabel"><a xlink:href="dir_000068_000024.html" target="_top" xlink:title="2">
<text text-anchor="middle" x="125.82" y="-28.18" font-family="Helvetica,sans-Serif" font-size="10.00" fill="#63b8ff">2</text>
</a>
</g>
</g>
<!-- dir_2348634bf16b768e7dee2a8a765970c1 -->
<g id="node5" class="node">
<title>dir_2348634bf16b768e7dee2a8a765970c1</title>
<g id="a_node5"><a xlink:href="dir_2348634bf16b768e7dee2a8a765970c1.html" target="_top" xlink:title="src">
<polygon fill="#60a2e3" stroke="#404040" points="54,-129 24,-129 24,-110 54,-110 54,-129"/>
<text text-anchor="middle" x="39" y="-117" font-family="Helvetica,sans-Serif" font-size="10.00">src</text>
</a>
</g>
</g>
<!-- dir_2348634bf16b768e7dee2a8a765970c1&#45;&gt;dir_a0a8ac7efb6662b749c1285408048e6d -->
<g id="edge5" class="edge">
<title>dir_2348634bf16b768e7dee2a8a765970c1&#45;&gt;dir_a0a8ac7efb6662b749c1285408048e6d</title>
<path fill="none" stroke="#63b8ff" d="M54.47,-110.91C72.07,-102.27 101.07,-88.04 121.91,-77.81"/>
<polygon fill="#63b8ff" stroke="#63b8ff" points="123.45,-80.95 130.89,-73.41 120.37,-74.67 123.45,-80.95"/>
<g id="a_edge5&#45;headlabel"><a xlink:href="dir_000238_000045.html" target="_top" xlink:title="1">
<text text-anchor="middle" x="122.84" y="-81.92" font-family="Helvetica,sans-Serif" font-size="10.00" fill="#63b8ff">1</text>
</a>
</g>
</g>
<!-- dir_2348634bf16b768e7dee2a8a765970c1&#45;&gt;dir_694ec83a64f58cbdefbefce65cd1011c -->
<g id="edge3" class="edge">
<title>dir_2348634bf16b768e7dee2a8a765970c1&#45;&gt;dir_694ec83a64f58cbdefbefce65cd1011c</title>
<path fill="none" stroke="#63b8ff" d="M54.33,-113.25C57.52,-112.17 60.87,-111.04 64,-110 99.67,-98.14 140.67,-84.87 168.46,-75.93"/>
<polygon fill="#63b8ff" stroke="#63b8ff" points="169.25,-79.35 177.7,-72.96 167.11,-72.69 169.25,-79.35"/>
<g id="a_edge3&#45;headlabel"><a xlink:href="dir_000238_000165.html" target="_top" xlink:title="3">
<text text-anchor="middle" x="168.14" y="-80.19" font-family="Helvetica,sans-Serif" font-size="10.00" fill="#63b8ff">3</text>
</a>
</g>
</g>
<!-- dir_2348634bf16b768e7dee2a8a765970c1&#45;&gt;dir_9a2ed50503c4a05c33e063cab27eda7b -->
<g id="edge4" class="edge">
<title>dir_2348634bf16b768e7dee2a8a765970c1&#45;&gt;dir_9a2ed50503c4a05c33e063cab27eda7b</title>
<path fill="none" stroke="#63b8ff" d="M43.95,-109.75C47.84,-102.88 53.39,-93.08 58.28,-84.45"/>
<polygon fill="#63b8ff" stroke="#63b8ff" points="61.31,-86.19 63.19,-75.76 55.22,-82.74 61.31,-86.19"/>
<g id="a_edge4&#45;headlabel"><a xlink:href="dir_000238_000068.html" target="_top" xlink:title="1">
<text text-anchor="middle" x="62.76" y="-86.9" font-family="Helvetica,sans-Serif" font-size="10.00" fill="#63b8ff">1</text>
</a>
</g>
</g>
<!-- dir_2348634bf16b768e7dee2a8a765970c1&#45;&gt;dir_bdd9a5d540de89e9fe90efdfc6973a4f -->
<g id="edge6" class="edge">
<title>dir_2348634bf16b768e7dee2a8a765970c1&#45;&gt;dir_bdd9a5d540de89e9fe90efdfc6973a4f</title>
<path fill="none" stroke="#63b8ff" d="M54.25,-112.99C57.45,-111.93 60.82,-110.87 64,-110 138.9,-89.46 186.06,-134.31 235,-74 244.8,-61.92 243.83,-51.8 235,-39 226.58,-26.79 212.18,-19.8 198.23,-15.81"/>
<polygon fill="#63b8ff" stroke="#63b8ff" points="199.28,-12.46 188.74,-13.56 197.66,-19.27 199.28,-12.46"/>
<g id="a_edge6&#45;headlabel"><a xlink:href="dir_000238_000024.html" target="_top" xlink:title="3">
<text text-anchor="middle" x="201.96" y="-7.68" font-family="Helvetica,sans-Serif" font-size="10.00" fill="#63b8ff">3</text>
</a>
</g>
</g>
<!-- dir_0981ace215aa2029f526b70c145b9fbe -->
<g id="node7" class="node">
<title>dir_0981ace215aa2029f526b70c145b9fbe</title>
<g id="a_node7"><a xlink:href="dir_0981ace215aa2029f526b70c145b9fbe.html" target="_top" xlink:title="iop">
<polygon fill="#deebf9" stroke="red" points="308.5,-74 279.5,-74 279.5,-55 308.5,-55 308.5,-74"/>
<text text-anchor="middle" x="294" y="-62" font-family="Helvetica,sans-Serif" font-size="10.00">iop</text>
</a>
</g>
</g>
<!-- dir_2348634bf16b768e7dee2a8a765970c1&#45;&gt;dir_0981ace215aa2029f526b70c145b9fbe -->
<g id="edge2" class="edge">
<title>dir_2348634bf16b768e7dee2a8a765970c1&#45;&gt;dir_0981ace215aa2029f526b70c145b9fbe</title>
<path fill="none" stroke="#63b8ff" d="M54.49,-112.83C57.62,-111.8 60.89,-110.8 64,-110 151.88,-87.33 176.66,-94.79 265,-74 266.01,-73.76 267.03,-73.51 268.06,-73.25"/>
<polygon fill="#63b8ff" stroke="#63b8ff" points="268.86,-76.66 277.57,-70.63 267,-69.91 268.86,-76.66"/>
<g id="a_edge2&#45;headlabel"><a xlink:href="dir_000238_000159.html" target="_top" xlink:title="1">
<text text-anchor="middle" x="267.61" y="-77.45" font-family="Helvetica,sans-Serif" font-size="10.00" fill="#63b8ff">1</text>
</a>
</g>
</g>
</g>
</svg>
