<?xml version="1.0" encoding="UTF-8" standalone="no"?>
<!DOCTYPE svg PUBLIC "-//W3C//DTD SVG 1.1//EN"
 "http://www.w3.org/Graphics/SVG/1.1/DTD/svg11.dtd">
<!-- Generated by graphviz version 7.0.5 (20221223.1930)
 -->
<!-- Title: ee/packet2 Pages: 1 -->
<svg width="324pt" height="141pt"
 viewBox="0.00 0.00 323.50 141.00" xmlns="http://www.w3.org/2000/svg" xmlns:xlink="http://www.w3.org/1999/xlink">
<g id="graph0" class="graph" transform="scale(1 1) rotate(0) translate(4 137)">
<title>ee/packet2</title>
<g id="clust1" class="cluster">
<title>clusterdir_049738f1909e8dc3e45fe1f6b3faa109</title>
<g id="a_clust1"><a xlink:href="dir_049738f1909e8dc3e45fe1f6b3faa109.html" target="_top" xlink:title="ee">
<polygon fill="#deebf9" stroke="#404040" stroke-dasharray="5,2" points="8,-8 8,-125 206,-125 206,-8 8,-8"/>
<text text-anchor="middle" x="107" y="-113" font-family="Helvetica,sans-Serif" font-size="10.00">ee</text>
</a>
</g>
</g>
<g id="clust2" class="cluster">
<title>clusterdir_1af66471b4b3ad2da2cd94ca709331b2</title>
<g id="a_clust2"><a xlink:href="dir_1af66471b4b3ad2da2cd94ca709331b2.html" target="_top">
<polygon fill="#deebf9" stroke="#404040" stroke-width="2" points="16,-63 16,-98 198,-98 198,-63 16,-63"/>
</a>
</g>
</g>
<!-- dir_2649a81c7f56a709216892bc1285ef27 -->
<g id="node1" class="node">
<title>dir_2649a81c7f56a709216892bc1285ef27</title>
<g id="a_node1"><a xlink:href="dir_2649a81c7f56a709216892bc1285ef27.html" target="_top" xlink:title="draw">
<polygon fill="#60a2e3" stroke="red" points="67,-35 29,-35 29,-16 67,-16 67,-35"/>
<text text-anchor="middle" x="48" y="-23" font-family="Helvetica,sans-Serif" font-size="10.00">draw</text>
</a>
</g>
</g>
<!-- dir_a0a8ac7efb6662b749c1285408048e6d -->
<g id="node2" class="node">
<title>dir_a0a8ac7efb6662b749c1285408048e6d</title>
<g id="a_node2"><a xlink:href="dir_a0a8ac7efb6662b749c1285408048e6d.html" target="_top" xlink:title="erl">
<polygon fill="#60a2e3" stroke="red" points="116.5,-35 87.5,-35 87.5,-16 116.5,-16 116.5,-35"/>
<text text-anchor="middle" x="102" y="-23" font-family="Helvetica,sans-Serif" font-size="10.00">erl</text>
</a>
</g>
</g>
<!-- dir_694ec83a64f58cbdefbefce65cd1011c -->
<g id="node3" class="node">
<title>dir_694ec83a64f58cbdefbefce65cd1011c</title>
<g id="a_node3"><a xlink:href="dir_694ec83a64f58cbdefbefce65cd1011c.html" target="_top" xlink:title="kernel">
<polygon fill="#60a2e3" stroke="red" points="177.5,-35 134.5,-35 134.5,-16 177.5,-16 177.5,-35"/>
<text text-anchor="middle" x="156" y="-23" font-family="Helvetica,sans-Serif" font-size="10.00">kernel</text>
</a>
</g>
</g>
<!-- dir_1af66471b4b3ad2da2cd94ca709331b2 -->
<g id="node4" class="node">
<title>dir_1af66471b4b3ad2da2cd94ca709331b2</title>
<text text-anchor="middle" x="164" y="-78" font-family="Helvetica,sans-Serif" font-size="10.00">packet2</text>
</g>
<!-- dir_cb50f4a8529b26463793155357bbfc11 -->
<g id="node5" class="node">
<title>dir_cb50f4a8529b26463793155357bbfc11</title>
<g id="a_node5"><a xlink:href="dir_cb50f4a8529b26463793155357bbfc11.html" target="_top" xlink:title="include">
<polygon fill="#60a2e3" stroke="#404040" points="71.5,-90 24.5,-90 24.5,-71 71.5,-71 71.5,-90"/>
<text text-anchor="middle" x="48" y="-78" font-family="Helvetica,sans-Serif" font-size="10.00">include</text>
</a>
</g>
</g>
<!-- dir_cb50f4a8529b26463793155357bbfc11&#45;&gt;dir_2649a81c7f56a709216892bc1285ef27 -->
<g id="edge1" class="edge">
<title>dir_cb50f4a8529b26463793155357bbfc11&#45;&gt;dir_2649a81c7f56a709216892bc1285ef27</title>
<path fill="none" stroke="#63b8ff" d="M48,-70.75C48,-64.27 48,-55.16 48,-46.9"/>
<polygon fill="#63b8ff" stroke="#63b8ff" points="51.5,-46.96 48,-36.96 44.5,-46.96 51.5,-46.96"/>
<g id="a_edge1&#45;headlabel"><a xlink:href="dir_000089_000032.html" target="_top" xlink:title="3">
<text text-anchor="middle" x="54.34" y="-46.54" font-family="Helvetica,sans-Serif" font-size="10.00" fill="#63b8ff">3</text>
</a>
</g>
</g>
<!-- dir_bdd9a5d540de89e9fe90efdfc6973a4f -->
<g id="node7" class="node">
<title>dir_bdd9a5d540de89e9fe90efdfc6973a4f</title>
<g id="a_node7"><a xlink:href="dir_bdd9a5d540de89e9fe90efdfc6973a4f.html" target="_top" xlink:title="common">
<polygon fill="#deebf9" stroke="red" points="268,-35 214,-35 214,-16 268,-16 268,-35"/>
<text text-anchor="middle" x="241" y="-23" font-family="Helvetica,sans-Serif" font-size="10.00">common</text>
</a>
</g>
</g>
<!-- dir_cb50f4a8529b26463793155357bbfc11&#45;&gt;dir_bdd9a5d540de89e9fe90efdfc6973a4f -->
<g id="edge2" class="edge">
<title>dir_cb50f4a8529b26463793155357bbfc11&#45;&gt;dir_bdd9a5d540de89e9fe90efdfc6973a4f</title>
<path fill="none" stroke="#63b8ff" d="M63.76,-70.61C69.11,-67.87 75.2,-65.04 81,-63 132.77,-44.76 150.71,-48.38 202.44,-36.73"/>
<polygon fill="#63b8ff" stroke="#63b8ff" points="203.23,-40.14 212.16,-34.44 201.63,-33.32 203.23,-40.14"/>
<g id="a_edge2&#45;headlabel"><a xlink:href="dir_000089_000024.html" target="_top" xlink:title="3">
<text text-anchor="middle" x="201.86" y="-40.88" font-family="Helvetica,sans-Serif" font-size="10.00" fill="#63b8ff">3</text>
</a>
</g>
</g>
<!-- dir_3a7a010c28010a16f6513751c6839763 -->
<g id="node6" class="node">
<title>dir_3a7a010c28010a16f6513751c6839763</title>
<g id="a_node6"><a xlink:href="dir_3a7a010c28010a16f6513751c6839763.html" target="_top" xlink:title="src">
<polygon fill="#60a2e3" stroke="#404040" points="120,-90 90,-90 90,-71 120,-71 120,-90"/>
<text text-anchor="middle" x="105" y="-78" font-family="Helvetica,sans-Serif" font-size="10.00">src</text>
</a>
</g>
</g>
<!-- dir_3a7a010c28010a16f6513751c6839763&#45;&gt;dir_a0a8ac7efb6662b749c1285408048e6d -->
<g id="edge5" class="edge">
<title>dir_3a7a010c28010a16f6513751c6839763&#45;&gt;dir_a0a8ac7efb6662b749c1285408048e6d</title>
<path fill="none" stroke="#63b8ff" d="M104.5,-70.75C104.14,-64.27 103.62,-55.16 103.15,-46.9"/>
<polygon fill="#63b8ff" stroke="#63b8ff" points="106.65,-46.74 102.59,-36.95 99.66,-47.13 106.65,-46.74"/>
<g id="a_edge5&#45;headlabel"><a xlink:href="dir_000264_000045.html" target="_top" xlink:title="1">
<text text-anchor="middle" x="109.6" y="-46.16" font-family="Helvetica,sans-Serif" font-size="10.00" fill="#63b8ff">1</text>
</a>
</g>
</g>
<!-- dir_3a7a010c28010a16f6513751c6839763&#45;&gt;dir_694ec83a64f58cbdefbefce65cd1011c -->
<g id="edge4" class="edge">
<title>dir_3a7a010c28010a16f6513751c6839763&#45;&gt;dir_694ec83a64f58cbdefbefce65cd1011c</title>
<path fill="none" stroke="#63b8ff" d="M113.42,-70.75C120.47,-63.43 130.73,-52.76 139.41,-43.74"/>
<polygon fill="#63b8ff" stroke="#63b8ff" points="141.93,-46.17 146.35,-36.53 136.89,-41.31 141.93,-46.17"/>
<g id="a_edge4&#45;headlabel"><a xlink:href="dir_000264_000165.html" target="_top" xlink:title="1">
<text text-anchor="middle" x="142.54" y="-47.13" font-family="Helvetica,sans-Serif" font-size="10.00" fill="#63b8ff">1</text>
</a>
</g>
</g>
<!-- dir_0981ace215aa2029f526b70c145b9fbe -->
<g id="node8" class="node">
<title>dir_0981ace215aa2029f526b70c145b9fbe</title>
<g id="a_node8"><a xlink:href="dir_0981ace215aa2029f526b70c145b9fbe.html" target="_top" xlink:title="iop">
<polygon fill="#deebf9" stroke="red" points="315.5,-35 286.5,-35 286.5,-16 315.5,-16 315.5,-35"/>
<text text-anchor="middle" x="301" y="-23" font-family="Helvetica,sans-Serif" font-size="10.00">iop</text>
</a>
</g>
</g>
<!-- dir_3a7a010c28010a16f6513751c6839763&#45;&gt;dir_0981ace215aa2029f526b70c145b9fbe -->
<g id="edge3" class="edge">
<title>dir_3a7a010c28010a16f6513751c6839763&#45;&gt;dir_0981ace215aa2029f526b70c145b9fbe</title>
<path fill="none" stroke="#63b8ff" d="M116.17,-70.77C120.31,-67.9 125.18,-64.96 130,-63 188.49,-39.24 210.55,-51.01 275.35,-34.98"/>
<polygon fill="#63b8ff" stroke="#63b8ff" points="275.88,-38.46 284.67,-32.54 274.11,-31.69 275.88,-38.46"/>
<g id="a_edge3&#45;headlabel"><a xlink:href="dir_000264_000159.html" target="_top" xlink:title="1">
<text text-anchor="middle" x="274.59" y="-39.24" font-family="Helvetica,sans-Serif" font-size="10.00" fill="#63b8ff">1</text>
</a>
</g>
</g>
</g>
</svg>
