<?xml version="1.0" encoding="UTF-8" standalone="no"?>
<!DOCTYPE svg PUBLIC "-//W3C//DTD SVG 1.1//EN"
 "http://www.w3.org/Graphics/SVG/1.1/DTD/svg11.dtd">
<!-- Generated by graphviz version 7.0.5 (20221223.1930)
 -->
<!-- Title: iop/network Pages: 1 -->
<svg width="422pt" height="141pt"
 viewBox="0.00 0.00 422.00 141.00" xmlns="http://www.w3.org/2000/svg" xmlns:xlink="http://www.w3.org/1999/xlink">
<g id="graph0" class="graph" transform="scale(1 1) rotate(0) translate(4 137)">
<title>iop/network</title>
<g id="clust1" class="cluster">
<title>clusterdir_0981ace215aa2029f526b70c145b9fbe</title>
<g id="a_clust1"><a xlink:href="dir_0981ace215aa2029f526b70c145b9fbe.html" target="_top" xlink:title="iop">
<polygon fill="#deebf9" stroke="#404040" stroke-dasharray="5,2" points="8,-8 8,-125 352,-125 352,-8 8,-8"/>
<text text-anchor="middle" x="180" y="-113" font-family="Helvetica,sans-Serif" font-size="10.00">iop</text>
</a>
</g>
</g>
<g id="clust2" class="cluster">
<title>clusterdir_f89050b4b7ba0179c2c7efd2300413d9</title>
<g id="a_clust2"><a xlink:href="dir_f89050b4b7ba0179c2c7efd2300413d9.html" target="_top">
<polygon fill="#deebf9" stroke="#404040" stroke-width="2" points="16,-63 16,-98 344,-98 344,-63 16,-63"/>
</a>
</g>
</g>
<!-- dir_6f16cad81de2453a6f48c5e272ba4a18 -->
<g id="node1" class="node">
<title>dir_6f16cad81de2453a6f48c5e272ba4a18</title>
<g id="a_node1"><a xlink:href="dir_6f16cad81de2453a6f48c5e272ba4a18.html" target="_top" xlink:title="dev9">
<polygon fill="#60a2e3" stroke="red" points="64,-35 26,-35 26,-16 64,-16 64,-35"/>
<text text-anchor="middle" x="45" y="-23" font-family="Helvetica,sans-Serif" font-size="10.00">dev9</text>
</a>
</g>
</g>
<!-- dir_9be0baa3d4a3e9f480a9ee70594037fa -->
<g id="node2" class="node">
<title>dir_9be0baa3d4a3e9f480a9ee70594037fa</title>
<g id="a_node2"><a xlink:href="dir_9be0baa3d4a3e9f480a9ee70594037fa.html" target="_top" xlink:title="kernel">
<polygon fill="#60a2e3" stroke="red" points="167.5,-35 124.5,-35 124.5,-16 167.5,-16 167.5,-35"/>
<text text-anchor="middle" x="146" y="-23" font-family="Helvetica,sans-Serif" font-size="10.00">kernel</text>
</a>
</g>
</g>
<!-- dir_f89050b4b7ba0179c2c7efd2300413d9 -->
<g id="node3" class="node">
<title>dir_f89050b4b7ba0179c2c7efd2300413d9</title>
<text text-anchor="middle" x="310" y="-78" font-family="Helvetica,sans-Serif" font-size="10.00">network</text>
</g>
<!-- dir_d3008f816dc1c94b20a03a6df12b797a -->
<g id="node4" class="node">
<title>dir_d3008f816dc1c94b20a03a6df12b797a</title>
<g id="a_node4"><a xlink:href="dir_d3008f816dc1c94b20a03a6df12b797a.html" target="_top" xlink:title="netman">
<polygon fill="#60a2e3" stroke="#404040" points="205.5,-90 156.5,-90 156.5,-71 205.5,-71 205.5,-90"/>
<text text-anchor="middle" x="181" y="-78" font-family="Helvetica,sans-Serif" font-size="10.00">netman</text>
</a>
</g>
</g>
<!-- dir_d3008f816dc1c94b20a03a6df12b797a&#45;&gt;dir_9be0baa3d4a3e9f480a9ee70594037fa -->
<g id="edge1" class="edge">
<title>dir_d3008f816dc1c94b20a03a6df12b797a&#45;&gt;dir_9be0baa3d4a3e9f480a9ee70594037fa</title>
<path fill="none" stroke="#63b8ff" d="M175.22,-70.75C170.59,-63.73 163.93,-53.64 158.13,-44.87"/>
<polygon fill="#63b8ff" stroke="#63b8ff" points="161.17,-43.12 152.74,-36.71 155.33,-46.98 161.17,-43.12"/>
<g id="a_edge1&#45;headlabel"><a xlink:href="dir_000198_000166.html" target="_top" xlink:title="33">
<text text-anchor="middle" x="164.69" y="-40.79" font-family="Helvetica,sans-Serif" font-size="10.00" fill="#63b8ff">33</text>
</a>
</g>
</g>
<!-- dir_bdd9a5d540de89e9fe90efdfc6973a4f -->
<g id="node8" class="node">
<title>dir_bdd9a5d540de89e9fe90efdfc6973a4f</title>
<g id="a_node8"><a xlink:href="dir_bdd9a5d540de89e9fe90efdfc6973a4f.html" target="_top" xlink:title="common">
<polygon fill="#deebf9" stroke="red" points="414,-35 360,-35 360,-16 414,-16 414,-35"/>
<text text-anchor="middle" x="387" y="-23" font-family="Helvetica,sans-Serif" font-size="10.00">common</text>
</a>
</g>
</g>
<!-- dir_d3008f816dc1c94b20a03a6df12b797a&#45;&gt;dir_bdd9a5d540de89e9fe90efdfc6973a4f -->
<g id="edge2" class="edge">
<title>dir_d3008f816dc1c94b20a03a6df12b797a&#45;&gt;dir_bdd9a5d540de89e9fe90efdfc6973a4f</title>
<path fill="none" stroke="#63b8ff" d="M196.74,-70.55C202.09,-67.81 208.18,-64.99 214,-63 271.31,-43.42 291.07,-48.95 348.47,-36.63"/>
<polygon fill="#63b8ff" stroke="#63b8ff" points="349.18,-40.06 358.17,-34.45 347.64,-33.23 349.18,-40.06"/>
<g id="a_edge2&#45;headlabel"><a xlink:href="dir_000198_000024.html" target="_top" xlink:title="9">
<text text-anchor="middle" x="347.77" y="-40.79" font-family="Helvetica,sans-Serif" font-size="10.00" fill="#63b8ff">9</text>
</a>
</g>
</g>
<!-- dir_7e8098252786d103c47acfa14c0859f4 -->
<g id="node5" class="node">
<title>dir_7e8098252786d103c47acfa14c0859f4</title>
<g id="a_node5"><a xlink:href="dir_7e8098252786d103c47acfa14c0859f4.html" target="_top" xlink:title="smap">
<polygon fill="#60a2e3" stroke="#404040" points="65.5,-90 24.5,-90 24.5,-71 65.5,-71 65.5,-90"/>
<text text-anchor="middle" x="45" y="-78" font-family="Helvetica,sans-Serif" font-size="10.00">smap</text>
</a>
</g>
</g>
<!-- dir_7e8098252786d103c47acfa14c0859f4&#45;&gt;dir_6f16cad81de2453a6f48c5e272ba4a18 -->
<g id="edge3" class="edge">
<title>dir_7e8098252786d103c47acfa14c0859f4&#45;&gt;dir_6f16cad81de2453a6f48c5e272ba4a18</title>
<path fill="none" stroke="#63b8ff" d="M45,-70.75C45,-64.27 45,-55.16 45,-46.9"/>
<polygon fill="#63b8ff" stroke="#63b8ff" points="48.5,-46.96 45,-36.96 41.5,-46.96 48.5,-46.96"/>
<g id="a_edge3&#45;headlabel"><a xlink:href="dir_000234_000028.html" target="_top" xlink:title="3">
<text text-anchor="middle" x="51.34" y="-46.54" font-family="Helvetica,sans-Serif" font-size="10.00" fill="#63b8ff">3</text>
</a>
</g>
</g>
<!-- dir_7e8098252786d103c47acfa14c0859f4&#45;&gt;dir_9be0baa3d4a3e9f480a9ee70594037fa -->
<g id="edge4" class="edge">
<title>dir_7e8098252786d103c47acfa14c0859f4&#45;&gt;dir_9be0baa3d4a3e9f480a9ee70594037fa</title>
<path fill="none" stroke="#63b8ff" d="M61.15,-70.51C65.62,-68.05 70.49,-65.4 75,-63 89.29,-55.4 105.32,-47.14 118.52,-40.4"/>
<polygon fill="#63b8ff" stroke="#63b8ff" points="119.75,-43.7 127.07,-36.05 116.57,-37.46 119.75,-43.7"/>
<g id="a_edge4&#45;headlabel"><a xlink:href="dir_000234_000166.html" target="_top" xlink:title="32">
<text text-anchor="middle" x="119.18" y="-44.68" font-family="Helvetica,sans-Serif" font-size="10.00" fill="#63b8ff">32</text>
</a>
</g>
</g>
<!-- dir_7e8098252786d103c47acfa14c0859f4&#45;&gt;dir_bdd9a5d540de89e9fe90efdfc6973a4f -->
<g id="edge5" class="edge">
<title>dir_7e8098252786d103c47acfa14c0859f4&#45;&gt;dir_bdd9a5d540de89e9fe90efdfc6973a4f</title>
<path fill="none" stroke="#63b8ff" d="M58.52,-70.55C63.5,-67.67 69.32,-64.76 75,-63 191.23,-26.91 230.24,-56.02 348.37,-36.26"/>
<polygon fill="#63b8ff" stroke="#63b8ff" points="348.94,-39.71 358.18,-34.52 347.73,-32.82 348.94,-39.71"/>
<g id="a_edge5&#45;headlabel"><a xlink:href="dir_000234_000024.html" target="_top" xlink:title="7">
<text text-anchor="middle" x="347.39" y="-40.37" font-family="Helvetica,sans-Serif" font-size="10.00" fill="#63b8ff">7</text>
</a>
</g>
</g>
<!-- dir_39d17f469530f79363f6574f3e93b68d -->
<g id="node6" class="node">
<title>dir_39d17f469530f79363f6574f3e93b68d</title>
<g id="a_node6"><a xlink:href="dir_39d17f469530f79363f6574f3e93b68d.html" target="_top" xlink:title="smbman">
<polygon fill="#60a2e3" stroke="#404040" points="138,-90 84,-90 84,-71 138,-71 138,-90"/>
<text text-anchor="middle" x="111" y="-78" font-family="Helvetica,sans-Serif" font-size="10.00">smbman</text>
</a>
</g>
</g>
<!-- dir_39d17f469530f79363f6574f3e93b68d&#45;&gt;dir_9be0baa3d4a3e9f480a9ee70594037fa -->
<g id="edge6" class="edge">
<title>dir_39d17f469530f79363f6574f3e93b68d&#45;&gt;dir_9be0baa3d4a3e9f480a9ee70594037fa</title>
<path fill="none" stroke="#63b8ff" d="M116.78,-70.75C121.41,-63.73 128.07,-53.64 133.87,-44.87"/>
<polygon fill="#63b8ff" stroke="#63b8ff" points="136.67,-46.98 139.26,-36.71 130.83,-43.12 136.67,-46.98"/>
<g id="a_edge6&#45;headlabel"><a xlink:href="dir_000235_000166.html" target="_top" xlink:title="38">
<text text-anchor="middle" x="137.89" y="-47.78" font-family="Helvetica,sans-Serif" font-size="10.00" fill="#63b8ff">38</text>
</a>
</g>
</g>
<!-- dir_39d17f469530f79363f6574f3e93b68d&#45;&gt;dir_bdd9a5d540de89e9fe90efdfc6973a4f -->
<g id="edge7" class="edge">
<title>dir_39d17f469530f79363f6574f3e93b68d&#45;&gt;dir_bdd9a5d540de89e9fe90efdfc6973a4f</title>
<path fill="none" stroke="#63b8ff" d="M127.82,-70.54C133.73,-67.73 140.53,-64.87 147,-63 233.43,-38.01 261.88,-52.39 348.51,-36.38"/>
<polygon fill="#63b8ff" stroke="#63b8ff" points="349.03,-39.84 358.18,-34.5 347.69,-32.97 349.03,-39.84"/>
<g id="a_edge7&#45;headlabel"><a xlink:href="dir_000235_000024.html" target="_top" xlink:title="5">
<text text-anchor="middle" x="347.53" y="-40.53" font-family="Helvetica,sans-Serif" font-size="10.00" fill="#63b8ff">5</text>
</a>
</g>
</g>
<!-- dir_c29ab4c22b7bc0d7876a510e876257b9 -->
<g id="node7" class="node">
<title>dir_c29ab4c22b7bc0d7876a510e876257b9</title>
<g id="a_node7"><a xlink:href="dir_c29ab4c22b7bc0d7876a510e876257b9.html" target="_top" xlink:title="udptty">
<polygon fill="#60a2e3" stroke="#404040" points="266.5,-90 223.5,-90 223.5,-71 266.5,-71 266.5,-90"/>
<text text-anchor="middle" x="245" y="-78" font-family="Helvetica,sans-Serif" font-size="10.00">udptty</text>
</a>
</g>
</g>
<!-- dir_c29ab4c22b7bc0d7876a510e876257b9&#45;&gt;dir_9be0baa3d4a3e9f480a9ee70594037fa -->
<g id="edge8" class="edge">
<title>dir_c29ab4c22b7bc0d7876a510e876257b9&#45;&gt;dir_9be0baa3d4a3e9f480a9ee70594037fa</title>
<path fill="none" stroke="#63b8ff" d="M228.21,-70.51C212.9,-62.31 190.03,-50.07 172.3,-40.58"/>
<polygon fill="#63b8ff" stroke="#63b8ff" points="174.35,-37.71 163.88,-36.07 171.04,-43.88 174.35,-37.71"/>
<g id="a_edge8&#45;headlabel"><a xlink:href="dir_000383_000166.html" target="_top" xlink:title="19">
<text text-anchor="middle" x="177.52" y="-33.69" font-family="Helvetica,sans-Serif" font-size="10.00" fill="#63b8ff">19</text>
</a>
</g>
</g>
<!-- dir_c29ab4c22b7bc0d7876a510e876257b9&#45;&gt;dir_bdd9a5d540de89e9fe90efdfc6973a4f -->
<g id="edge9" class="edge">
<title>dir_c29ab4c22b7bc0d7876a510e876257b9&#45;&gt;dir_bdd9a5d540de89e9fe90efdfc6973a4f</title>
<path fill="none" stroke="#63b8ff" d="M260.52,-70.57C265.39,-67.95 270.84,-65.2 276,-63 299.67,-52.9 327.15,-43.84 348.84,-37.28"/>
<polygon fill="#63b8ff" stroke="#63b8ff" points="349.56,-40.71 358.15,-34.51 347.57,-34 349.56,-40.71"/>
<g id="a_edge9&#45;headlabel"><a xlink:href="dir_000383_000024.html" target="_top" xlink:title="2">
<text text-anchor="middle" x="348.38" y="-41.53" font-family="Helvetica,sans-Serif" font-size="10.00" fill="#63b8ff">2</text>
</a>
</g>
</g>
</g>
</svg>
