<?xml version="1.0" encoding="UTF-8" standalone="no"?>
<!DOCTYPE svg PUBLIC "-//W3C//DTD SVG 1.1//EN"
 "http://www.w3.org/Graphics/SVG/1.1/DTD/svg11.dtd">
<!-- Generated by graphviz version 7.0.5 (20221223.1930)
 -->
<!-- Title: ee/packet Pages: 1 -->
<svg width="188pt" height="180pt"
 viewBox="0.00 0.00 188.00 180.00" xmlns="http://www.w3.org/2000/svg" xmlns:xlink="http://www.w3.org/1999/xlink">
<g id="graph0" class="graph" transform="scale(1 1) rotate(0) translate(4 176)">
<title>ee/packet</title>
<g id="clust1" class="cluster">
<title>clusterdir_049738f1909e8dc3e45fe1f6b3faa109</title>
<g id="a_clust1"><a xlink:href="dir_049738f1909e8dc3e45fe1f6b3faa109.html" target="_top" xlink:title="ee">
<polygon fill="#deebf9" stroke="#404040" stroke-dasharray="5,2" points="8,-39 8,-164 172,-164 172,-39 8,-39"/>
<text text-anchor="middle" x="90" y="-152" font-family="Helvetica,sans-Serif" font-size="10.00">ee</text>
</a>
</g>
</g>
<g id="clust2" class="cluster">
<title>clusterdir_ef7db18cfb93c4891bb35babb04f0d85</title>
<g id="a_clust2"><a xlink:href="dir_ef7db18cfb93c4891bb35babb04f0d85.html" target="_top">
<polygon fill="#deebf9" stroke="#404040" stroke-width="2" points="16,-47 16,-137 126,-137 126,-47 16,-47"/>
</a>
</g>
</g>
<!-- dir_a0a8ac7efb6662b749c1285408048e6d -->
<g id="node1" class="node">
<title>dir_a0a8ac7efb6662b749c1285408048e6d</title>
<g id="a_node1"><a xlink:href="dir_a0a8ac7efb6662b749c1285408048e6d.html" target="_top" xlink:title="erl">
<polygon fill="#60a2e3" stroke="red" points="163.5,-74 134.5,-74 134.5,-55 163.5,-55 163.5,-74"/>
<text text-anchor="middle" x="149" y="-62" font-family="Helvetica,sans-Serif" font-size="10.00">erl</text>
</a>
</g>
</g>
<!-- dir_ef7db18cfb93c4891bb35babb04f0d85 -->
<g id="node2" class="node">
<title>dir_ef7db18cfb93c4891bb35babb04f0d85</title>
<text text-anchor="middle" x="95" y="-117" font-family="Helvetica,sans-Serif" font-size="10.00">packet</text>
</g>
<!-- dir_045af3c93ddda0c519219edb2a8fe08a -->
<g id="node3" class="node">
<title>dir_045af3c93ddda0c519219edb2a8fe08a</title>
<g id="a_node3"><a xlink:href="dir_045af3c93ddda0c519219edb2a8fe08a.html" target="_top" xlink:title="include">
<polygon fill="#60a2e3" stroke="#404040" points="71.5,-74 24.5,-74 24.5,-55 71.5,-55 71.5,-74"/>
<text text-anchor="middle" x="48" y="-62" font-family="Helvetica,sans-Serif" font-size="10.00">include</text>
</a>
</g>
</g>
<!-- dir_bdd9a5d540de89e9fe90efdfc6973a4f -->
<g id="node5" class="node">
<title>dir_bdd9a5d540de89e9fe90efdfc6973a4f</title>
<g id="a_node5"><a xlink:href="dir_bdd9a5d540de89e9fe90efdfc6973a4f.html" target="_top" xlink:title="common">
<polygon fill="#deebf9" stroke="red" points="75,-19 21,-19 21,0 75,0 75,-19"/>
<text text-anchor="middle" x="48" y="-7" font-family="Helvetica,sans-Serif" font-size="10.00">common</text>
</a>
</g>
</g>
<!-- dir_045af3c93ddda0c519219edb2a8fe08a&#45;&gt;dir_bdd9a5d540de89e9fe90efdfc6973a4f -->
<g id="edge1" class="edge">
<title>dir_045af3c93ddda0c519219edb2a8fe08a&#45;&gt;dir_bdd9a5d540de89e9fe90efdfc6973a4f</title>
<path fill="none" stroke="#63b8ff" d="M48,-54.75C48,-48.27 48,-39.16 48,-30.9"/>
<polygon fill="#63b8ff" stroke="#63b8ff" points="51.5,-30.96 48,-20.96 44.5,-30.96 51.5,-30.96"/>
<g id="a_edge1&#45;headlabel"><a xlink:href="dir_000088_000024.html" target="_top" xlink:title="1">
<text text-anchor="middle" x="54.34" y="-30.54" font-family="Helvetica,sans-Serif" font-size="10.00" fill="#63b8ff">1</text>
</a>
</g>
</g>
<!-- dir_877a24e332e8fb1301c97400aa573f28 -->
<g id="node4" class="node">
<title>dir_877a24e332e8fb1301c97400aa573f28</title>
<g id="a_node4"><a xlink:href="dir_877a24e332e8fb1301c97400aa573f28.html" target="_top" xlink:title="src">
<polygon fill="#60a2e3" stroke="#404040" points="54,-129 24,-129 24,-110 54,-110 54,-129"/>
<text text-anchor="middle" x="39" y="-117" font-family="Helvetica,sans-Serif" font-size="10.00">src</text>
</a>
</g>
</g>
<!-- dir_877a24e332e8fb1301c97400aa573f28&#45;&gt;dir_a0a8ac7efb6662b749c1285408048e6d -->
<g id="edge3" class="edge">
<title>dir_877a24e332e8fb1301c97400aa573f28&#45;&gt;dir_a0a8ac7efb6662b749c1285408048e6d</title>
<path fill="none" stroke="#63b8ff" d="M54.3,-111.13C72.29,-102.46 102.43,-87.94 123.88,-77.61"/>
<polygon fill="#63b8ff" stroke="#63b8ff" points="125.33,-80.79 132.82,-73.29 122.29,-74.48 125.33,-80.79"/>
<g id="a_edge3&#45;headlabel"><a xlink:href="dir_000263_000045.html" target="_top" xlink:title="1">
<text text-anchor="middle" x="124.69" y="-81.75" font-family="Helvetica,sans-Serif" font-size="10.00" fill="#63b8ff">1</text>
</a>
</g>
</g>
<!-- dir_877a24e332e8fb1301c97400aa573f28&#45;&gt;dir_045af3c93ddda0c519219edb2a8fe08a -->
<g id="edge2" class="edge">
<title>dir_877a24e332e8fb1301c97400aa573f28&#45;&gt;dir_045af3c93ddda0c519219edb2a8fe08a</title>
<path fill="none" stroke="#63b8ff" d="M40.49,-109.75C41.6,-103.19 43.17,-93.95 44.59,-85.6"/>
<polygon fill="#63b8ff" stroke="#63b8ff" points="48,-86.38 46.23,-75.93 41.1,-85.21 48,-86.38"/>
<g id="a_edge2&#45;headlabel"><a xlink:href="dir_000263_000088.html" target="_top" xlink:title="1">
<text text-anchor="middle" x="50.46" y="-86.41" font-family="Helvetica,sans-Serif" font-size="10.00" fill="#63b8ff">1</text>
</a>
</g>
</g>
</g>
</svg>
