<?xml version="1.0" encoding="UTF-8" standalone="no"?>
<!DOCTYPE svg PUBLIC "-//W3C//DTD SVG 1.1//EN"
 "http://www.w3.org/Graphics/SVG/1.1/DTD/svg11.dtd">
<!-- Generated by graphviz version 7.0.5 (20221223.1930)
 -->
<!-- Title: ee/rpc/cdvd Pages: 1 -->
<svg width="280pt" height="180pt"
 viewBox="0.00 0.00 279.50 180.00" xmlns="http://www.w3.org/2000/svg" xmlns:xlink="http://www.w3.org/1999/xlink">
<g id="graph0" class="graph" transform="scale(1 1) rotate(0) translate(4 176)">
<title>ee/rpc/cdvd</title>
<g id="clust1" class="cluster">
<title>clusterdir_5b119dc963fa9b25ef41951231899460</title>
<g id="a_clust1"><a xlink:href="dir_5b119dc963fa9b25ef41951231899460.html" target="_top" xlink:title="rpc">
<polygon fill="#deebf9" stroke="#7f7f7f" stroke-dasharray="5,2" points="8,-39 8,-164 126,-164 126,-39 8,-39"/>
<text text-anchor="middle" x="67" y="-152" font-family="Helvetica,sans-Serif" font-size="10.00">rpc</text>
</a>
</g>
</g>
<g id="clust2" class="cluster">
<title>clusterdir_ba4b21ee1217591b79746c791fe162fc</title>
<g id="a_clust2"><a xlink:href="dir_ba4b21ee1217591b79746c791fe162fc.html" target="_top">
<polygon fill="#deebf9" stroke="#404040" stroke-width="2" points="16,-47 16,-137 118,-137 118,-47 16,-47"/>
</a>
</g>
</g>
<!-- dir_ba4b21ee1217591b79746c791fe162fc -->
<g id="node1" class="node">
<title>dir_ba4b21ee1217591b79746c791fe162fc</title>
<text text-anchor="middle" x="91" y="-117" font-family="Helvetica,sans-Serif" font-size="10.00">cdvd</text>
</g>
<!-- dir_aac407a7a5679478d0631d0d52d3c8a2 -->
<g id="node2" class="node">
<title>dir_aac407a7a5679478d0631d0d52d3c8a2</title>
<g id="a_node2"><a xlink:href="dir_aac407a7a5679478d0631d0d52d3c8a2.html" target="_top" xlink:title="include">
<polygon fill="#60a2e3" stroke="#404040" points="71.5,-74 24.5,-74 24.5,-55 71.5,-55 71.5,-74"/>
<text text-anchor="middle" x="48" y="-62" font-family="Helvetica,sans-Serif" font-size="10.00">include</text>
</a>
</g>
</g>
<!-- dir_bdd9a5d540de89e9fe90efdfc6973a4f -->
<g id="node4" class="node">
<title>dir_bdd9a5d540de89e9fe90efdfc6973a4f</title>
<g id="a_node4"><a xlink:href="dir_bdd9a5d540de89e9fe90efdfc6973a4f.html" target="_top" xlink:title="common">
<polygon fill="#deebf9" stroke="red" points="101,-19 47,-19 47,0 101,0 101,-19"/>
<text text-anchor="middle" x="74" y="-7" font-family="Helvetica,sans-Serif" font-size="10.00">common</text>
</a>
</g>
</g>
<!-- dir_aac407a7a5679478d0631d0d52d3c8a2&#45;&gt;dir_bdd9a5d540de89e9fe90efdfc6973a4f -->
<g id="edge1" class="edge">
<title>dir_aac407a7a5679478d0631d0d52d3c8a2&#45;&gt;dir_bdd9a5d540de89e9fe90efdfc6973a4f</title>
<path fill="none" stroke="#63b8ff" d="M52.29,-54.75C55.62,-47.96 60.36,-38.3 64.56,-29.73"/>
<polygon fill="#63b8ff" stroke="#63b8ff" points="67.68,-31.32 68.95,-20.8 61.4,-28.24 67.68,-31.32"/>
<g id="a_edge1&#45;headlabel"><a xlink:href="dir_000093_000024.html" target="_top" xlink:title="1">
<text text-anchor="middle" x="69.32" y="-31.94" font-family="Helvetica,sans-Serif" font-size="10.00" fill="#63b8ff">1</text>
</a>
</g>
</g>
<!-- dir_48185d4162af4b76c95e522da1e1d975 -->
<g id="node3" class="node">
<title>dir_48185d4162af4b76c95e522da1e1d975</title>
<g id="a_node3"><a xlink:href="dir_48185d4162af4b76c95e522da1e1d975.html" target="_top" xlink:title="src">
<polygon fill="#60a2e3" stroke="#404040" points="54,-129 24,-129 24,-110 54,-110 54,-129"/>
<text text-anchor="middle" x="39" y="-117" font-family="Helvetica,sans-Serif" font-size="10.00">src</text>
</a>
</g>
</g>
<!-- dir_48185d4162af4b76c95e522da1e1d975&#45;&gt;dir_aac407a7a5679478d0631d0d52d3c8a2 -->
<g id="edge5" class="edge">
<title>dir_48185d4162af4b76c95e522da1e1d975&#45;&gt;dir_aac407a7a5679478d0631d0d52d3c8a2</title>
<path fill="none" stroke="#63b8ff" d="M40.49,-109.75C41.6,-103.19 43.17,-93.95 44.59,-85.6"/>
<polygon fill="#63b8ff" stroke="#63b8ff" points="48,-86.38 46.23,-75.93 41.1,-85.21 48,-86.38"/>
<g id="a_edge5&#45;headlabel"><a xlink:href="dir_000268_000093.html" target="_top" xlink:title="3">
<text text-anchor="middle" x="50.46" y="-86.41" font-family="Helvetica,sans-Serif" font-size="10.00" fill="#63b8ff">3</text>
</a>
</g>
</g>
<!-- dir_48185d4162af4b76c95e522da1e1d975&#45;&gt;dir_bdd9a5d540de89e9fe90efdfc6973a4f -->
<g id="edge6" class="edge">
<title>dir_48185d4162af4b76c95e522da1e1d975&#45;&gt;dir_bdd9a5d540de89e9fe90efdfc6973a4f</title>
<path fill="none" stroke="#63b8ff" d="M51.61,-109.55C61.71,-101.54 75.12,-88.81 81,-74 86.52,-60.1 84.28,-43.21 80.93,-30.35"/>
<polygon fill="#63b8ff" stroke="#63b8ff" points="84.31,-29.46 78.03,-20.93 77.62,-31.52 84.31,-29.46"/>
<g id="a_edge6&#45;headlabel"><a xlink:href="dir_000268_000024.html" target="_top" xlink:title="3">
<text text-anchor="middle" x="87.64" y="-28.11" font-family="Helvetica,sans-Serif" font-size="10.00" fill="#63b8ff">3</text>
</a>
</g>
</g>
<!-- dir_a0a8ac7efb6662b749c1285408048e6d -->
<g id="node5" class="node">
<title>dir_a0a8ac7efb6662b749c1285408048e6d</title>
<g id="a_node5"><a xlink:href="dir_a0a8ac7efb6662b749c1285408048e6d.html" target="_top" xlink:title="erl">
<polygon fill="#deebf9" stroke="red" stroke-dasharray="5,2" points="163.5,-74 134.5,-74 134.5,-55 163.5,-55 163.5,-74"/>
<text text-anchor="middle" x="149" y="-62" font-family="Helvetica,sans-Serif" font-size="10.00">erl</text>
</a>
</g>
</g>
<!-- dir_48185d4162af4b76c95e522da1e1d975&#45;&gt;dir_a0a8ac7efb6662b749c1285408048e6d -->
<g id="edge4" class="edge">
<title>dir_48185d4162af4b76c95e522da1e1d975&#45;&gt;dir_a0a8ac7efb6662b749c1285408048e6d</title>
<path fill="none" stroke="#63b8ff" d="M54.3,-111.13C72.29,-102.46 102.43,-87.94 123.88,-77.61"/>
<polygon fill="#63b8ff" stroke="#63b8ff" points="125.33,-80.79 132.82,-73.29 122.29,-74.48 125.33,-80.79"/>
<g id="a_edge4&#45;headlabel"><a xlink:href="dir_000268_000045.html" target="_top" xlink:title="1">
<text text-anchor="middle" x="124.69" y="-81.75" font-family="Helvetica,sans-Serif" font-size="10.00" fill="#63b8ff">1</text>
</a>
</g>
</g>
<!-- dir_0981ace215aa2029f526b70c145b9fbe -->
<g id="node6" class="node">
<title>dir_0981ace215aa2029f526b70c145b9fbe</title>
<g id="a_node6"><a xlink:href="dir_0981ace215aa2029f526b70c145b9fbe.html" target="_top" xlink:title="iop">
<polygon fill="#deebf9" stroke="red" points="210.5,-74 181.5,-74 181.5,-55 210.5,-55 210.5,-74"/>
<text text-anchor="middle" x="196" y="-62" font-family="Helvetica,sans-Serif" font-size="10.00">iop</text>
</a>
</g>
</g>
<!-- dir_48185d4162af4b76c95e522da1e1d975&#45;&gt;dir_0981ace215aa2029f526b70c145b9fbe -->
<g id="edge2" class="edge">
<title>dir_48185d4162af4b76c95e522da1e1d975&#45;&gt;dir_0981ace215aa2029f526b70c145b9fbe</title>
<path fill="none" stroke="#63b8ff" d="M54.47,-112.96C57.31,-111.96 60.24,-110.94 63,-110 108.46,-94.51 122.57,-91.31 170.63,-74.73"/>
<polygon fill="#63b8ff" stroke="#63b8ff" points="171.7,-78.06 180,-71.48 169.4,-71.45 171.7,-78.06"/>
<g id="a_edge2&#45;headlabel"><a xlink:href="dir_000268_000159.html" target="_top" xlink:title="4">
<text text-anchor="middle" x="170.67" y="-78.93" font-family="Helvetica,sans-Serif" font-size="10.00" fill="#63b8ff">4</text>
</a>
</g>
</g>
<!-- dir_694ec83a64f58cbdefbefce65cd1011c -->
<g id="node7" class="node">
<title>dir_694ec83a64f58cbdefbefce65cd1011c</title>
<g id="a_node7"><a xlink:href="dir_694ec83a64f58cbdefbefce65cd1011c.html" target="_top" xlink:title="kernel">
<polygon fill="#deebf9" stroke="red" stroke-dasharray="5,2" points="271.5,-74 228.5,-74 228.5,-55 271.5,-55 271.5,-74"/>
<text text-anchor="middle" x="250" y="-62" font-family="Helvetica,sans-Serif" font-size="10.00">kernel</text>
</a>
</g>
</g>
<!-- dir_48185d4162af4b76c95e522da1e1d975&#45;&gt;dir_694ec83a64f58cbdefbefce65cd1011c -->
<g id="edge3" class="edge">
<title>dir_48185d4162af4b76c95e522da1e1d975&#45;&gt;dir_694ec83a64f58cbdefbefce65cd1011c</title>
<path fill="none" stroke="#63b8ff" d="M54.41,-112.75C57.25,-111.77 60.2,-110.81 63,-110 128.39,-90.99 148.68,-91.64 217.14,-74.62"/>
<polygon fill="#63b8ff" stroke="#63b8ff" points="217.78,-78.07 226.61,-72.22 216.06,-71.28 217.78,-78.07"/>
<g id="a_edge3&#45;headlabel"><a xlink:href="dir_000268_000165.html" target="_top" xlink:title="4">
<text text-anchor="middle" x="216.46" y="-78.83" font-family="Helvetica,sans-Serif" font-size="10.00" fill="#63b8ff">4</text>
</a>
</g>
</g>
</g>
</svg>
