<?xml version="1.0" encoding="UTF-8" standalone="no"?>
<!DOCTYPE svg PUBLIC "-//W3C//DTD SVG 1.1//EN"
 "http://www.w3.org/Graphics/SVG/1.1/DTD/svg11.dtd">
<!-- Generated by graphviz version 7.0.5 (20221223.1930)
 -->
<!-- Title: ee/network/tcpip/src Pages: 1 -->
<svg width="218pt" height="125pt"
 viewBox="0.00 0.00 217.50 125.00" xmlns="http://www.w3.org/2000/svg" xmlns:xlink="http://www.w3.org/1999/xlink">
<g id="graph0" class="graph" transform="scale(1 1) rotate(0) translate(4 121)">
<title>ee/network/tcpip/src</title>
<g id="clust1" class="cluster">
<title>clusterdir_ca24a423c1b235320d00c488564f2476</title>
<g id="a_clust1"><a xlink:href="dir_ca24a423c1b235320d00c488564f2476.html" target="_top" xlink:title="tcpip">
<polygon fill="#deebf9" stroke="#7f7f7f" stroke-dasharray="5,2" points="57.5,-39 57.5,-109 185.5,-109 185.5,-39 57.5,-39"/>
<text text-anchor="middle" x="121.5" y="-97" font-family="Helvetica,sans-Serif" font-size="10.00">tcpip</text>
</a>
</g>
</g>
<g id="clust2" class="cluster">
<title>clusterdir_72fd2ca65a98aa6f116e0a45d1317c83</title>
<g id="a_clust2"><a xlink:href="dir_72fd2ca65a98aa6f116e0a45d1317c83.html" target="_top">
<polygon fill="#deebf9" stroke="#404040" stroke-width="2" points="65.5,-47 65.5,-82 177.5,-82 177.5,-47 65.5,-47"/>
</a>
</g>
</g>
<!-- dir_72fd2ca65a98aa6f116e0a45d1317c83 -->
<g id="node1" class="node">
<title>dir_72fd2ca65a98aa6f116e0a45d1317c83</title>
<text text-anchor="middle" x="88.5" y="-62" font-family="Helvetica,sans-Serif" font-size="10.00">src</text>
</g>
<!-- dir_0981ace215aa2029f526b70c145b9fbe -->
<g id="node3" class="node">
<title>dir_0981ace215aa2029f526b70c145b9fbe</title>
<g id="a_node3"><a xlink:href="dir_0981ace215aa2029f526b70c145b9fbe.html" target="_top" xlink:title="iop">
<polygon fill="#deebf9" stroke="red" points="76,-19 47,-19 47,0 76,0 76,-19"/>
<text text-anchor="middle" x="61.5" y="-7" font-family="Helvetica,sans-Serif" font-size="10.00">iop</text>
</a>
</g>
</g>
<!-- dir_72fd2ca65a98aa6f116e0a45d1317c83&#45;&gt;dir_0981ace215aa2029f526b70c145b9fbe -->
<g id="edge1" class="edge">
<title>dir_72fd2ca65a98aa6f116e0a45d1317c83&#45;&gt;dir_0981ace215aa2029f526b70c145b9fbe</title>
<path fill="none" stroke="#63b8ff" d="M84.28,-55.22C80.78,-48.34 75.66,-38.29 71.16,-29.46"/>
<polygon fill="#63b8ff" stroke="#63b8ff" points="74.3,-27.92 66.65,-20.6 68.07,-31.1 74.3,-27.92"/>
<g id="a_edge1&#45;headlabel"><a xlink:href="dir_000262_000159.html" target="_top" xlink:title="4">
<text text-anchor="middle" x="77.78" y="-25.99" font-family="Helvetica,sans-Serif" font-size="10.00" fill="#63b8ff">4</text>
</a>
</g>
</g>
<!-- dir_694ec83a64f58cbdefbefce65cd1011c -->
<g id="node4" class="node">
<title>dir_694ec83a64f58cbdefbefce65cd1011c</title>
<g id="a_node4"><a xlink:href="dir_694ec83a64f58cbdefbefce65cd1011c.html" target="_top" xlink:title="kernel">
<polygon fill="#deebf9" stroke="red" stroke-dasharray="5,2" points="137,-19 94,-19 94,0 137,0 137,-19"/>
<text text-anchor="middle" x="115.5" y="-7" font-family="Helvetica,sans-Serif" font-size="10.00">kernel</text>
</a>
</g>
</g>
<!-- dir_72fd2ca65a98aa6f116e0a45d1317c83&#45;&gt;dir_694ec83a64f58cbdefbefce65cd1011c -->
<g id="edge2" class="edge">
<title>dir_72fd2ca65a98aa6f116e0a45d1317c83&#45;&gt;dir_694ec83a64f58cbdefbefce65cd1011c</title>
<path fill="none" stroke="#63b8ff" d="M92.72,-55.22C96.22,-48.34 101.34,-38.29 105.84,-29.46"/>
<polygon fill="#63b8ff" stroke="#63b8ff" points="108.93,-31.1 110.35,-20.6 102.7,-27.92 108.93,-31.1"/>
<g id="a_edge2&#45;headlabel"><a xlink:href="dir_000262_000165.html" target="_top" xlink:title="2">
<text text-anchor="middle" x="110.52" y="-31.74" font-family="Helvetica,sans-Serif" font-size="10.00" fill="#63b8ff">2</text>
</a>
</g>
</g>
<!-- dir_a0a8ac7efb6662b749c1285408048e6d -->
<g id="node5" class="node">
<title>dir_a0a8ac7efb6662b749c1285408048e6d</title>
<g id="a_node5"><a xlink:href="dir_a0a8ac7efb6662b749c1285408048e6d.html" target="_top" xlink:title="erl">
<polygon fill="#deebf9" stroke="red" stroke-dasharray="5,2" points="29,-19 0,-19 0,0 29,0 29,-19"/>
<text text-anchor="middle" x="14.5" y="-7" font-family="Helvetica,sans-Serif" font-size="10.00">erl</text>
</a>
</g>
</g>
<!-- dir_72fd2ca65a98aa6f116e0a45d1317c83&#45;&gt;dir_a0a8ac7efb6662b749c1285408048e6d -->
<g id="edge3" class="edge">
<title>dir_72fd2ca65a98aa6f116e0a45d1317c83&#45;&gt;dir_a0a8ac7efb6662b749c1285408048e6d</title>
<path fill="none" stroke="#63b8ff" d="M76.94,-55.22C66.01,-47.39 49.35,-35.46 35.99,-25.89"/>
<polygon fill="#63b8ff" stroke="#63b8ff" points="38.37,-23.29 28.2,-20.31 34.29,-28.98 38.37,-23.29"/>
<g id="a_edge3&#45;headlabel"><a xlink:href="dir_000262_000045.html" target="_top" xlink:title="1">
<text text-anchor="middle" x="41.71" y="-19.69" font-family="Helvetica,sans-Serif" font-size="10.00" fill="#63b8ff">1</text>
</a>
</g>
</g>
<!-- dir_bdd9a5d540de89e9fe90efdfc6973a4f -->
<g id="node6" class="node">
<title>dir_bdd9a5d540de89e9fe90efdfc6973a4f</title>
<g id="a_node6"><a xlink:href="dir_bdd9a5d540de89e9fe90efdfc6973a4f.html" target="_top" xlink:title="common">
<polygon fill="#deebf9" stroke="red" points="209.5,-19 155.5,-19 155.5,0 209.5,0 209.5,-19"/>
<text text-anchor="middle" x="182.5" y="-7" font-family="Helvetica,sans-Serif" font-size="10.00">common</text>
</a>
</g>
</g>
<!-- dir_72fd2ca65a98aa6f116e0a45d1317c83&#45;&gt;dir_bdd9a5d540de89e9fe90efdfc6973a4f -->
<g id="edge4" class="edge">
<title>dir_72fd2ca65a98aa6f116e0a45d1317c83&#45;&gt;dir_bdd9a5d540de89e9fe90efdfc6973a4f</title>
<path fill="none" stroke="#63b8ff" d="M94.94,-55.37C99.42,-50.15 105.78,-43.51 112.5,-39 122.31,-32.42 133.87,-26.94 144.74,-22.61"/>
<polygon fill="#63b8ff" stroke="#63b8ff" points="145.74,-25.97 153.87,-19.18 143.28,-19.42 145.74,-25.97"/>
<g id="a_edge4&#45;headlabel"><a xlink:href="dir_000262_000024.html" target="_top" xlink:title="2">
<text text-anchor="middle" x="144.79" y="-26.86" font-family="Helvetica,sans-Serif" font-size="10.00" fill="#63b8ff">2</text>
</a>
</g>
</g>
<!-- dir_d809a6a3c5621df28b9f2ead765ca843 -->
<g id="node2" class="node">
<title>dir_d809a6a3c5621df28b9f2ead765ca843</title>
<g id="a_node2"><a xlink:href="dir_d809a6a3c5621df28b9f2ead765ca843.html" target="_top" xlink:title="include">
<polygon fill="#60a2e3" stroke="#404040" points="169,-74 122,-74 122,-55 169,-55 169,-74"/>
<text text-anchor="middle" x="145.5" y="-62" font-family="Helvetica,sans-Serif" font-size="10.00">include</text>
</a>
</g>
</g>
<!-- dir_d809a6a3c5621df28b9f2ead765ca843&#45;&gt;dir_694ec83a64f58cbdefbefce65cd1011c -->
<g id="edge5" class="edge">
<title>dir_d809a6a3c5621df28b9f2ead765ca843&#45;&gt;dir_694ec83a64f58cbdefbefce65cd1011c</title>
<path fill="none" stroke="#63b8ff" d="M140.55,-54.75C136.66,-47.88 131.11,-38.08 126.22,-29.45"/>
<polygon fill="#63b8ff" stroke="#63b8ff" points="129.28,-27.74 121.31,-20.76 123.19,-31.19 129.28,-27.74"/>
<g id="a_edge5&#45;headlabel"><a xlink:href="dir_000087_000165.html" target="_top" xlink:title="1">
<text text-anchor="middle" x="132.78" y="-25.65" font-family="Helvetica,sans-Serif" font-size="10.00" fill="#63b8ff">1</text>
</a>
</g>
</g>
<!-- dir_d809a6a3c5621df28b9f2ead765ca843&#45;&gt;dir_bdd9a5d540de89e9fe90efdfc6973a4f -->
<g id="edge6" class="edge">
<title>dir_d809a6a3c5621df28b9f2ead765ca843&#45;&gt;dir_bdd9a5d540de89e9fe90efdfc6973a4f</title>
<path fill="none" stroke="#63b8ff" d="M151.61,-54.75C156.51,-47.73 163.55,-37.64 169.67,-28.87"/>
<polygon fill="#63b8ff" stroke="#63b8ff" points="172.54,-30.89 175.39,-20.68 166.8,-26.88 172.54,-30.89"/>
<g id="a_edge6&#45;headlabel"><a xlink:href="dir_000087_000024.html" target="_top" xlink:title="1">
<text text-anchor="middle" x="173.67" y="-31.72" font-family="Helvetica,sans-Serif" font-size="10.00" fill="#63b8ff">1</text>
</a>
</g>
</g>
</g>
</svg>
