<?xml version="1.0" encoding="UTF-8" standalone="no"?>
<!DOCTYPE svg PUBLIC "-//W3C//DTD SVG 1.1//EN"
 "http://www.w3.org/Graphics/SVG/1.1/DTD/svg11.dtd">
<!-- Generated by graphviz version 7.0.5 (20221223.1930)
 -->
<!-- Title: iop/iLink Pages: 1 -->
<svg width="414pt" height="141pt"
 viewBox="0.00 0.00 414.00 141.00" xmlns="http://www.w3.org/2000/svg" xmlns:xlink="http://www.w3.org/1999/xlink">
<g id="graph0" class="graph" transform="scale(1 1) rotate(0) translate(4 137)">
<title>iop/iLink</title>
<g id="clust1" class="cluster">
<title>clusterdir_0981ace215aa2029f526b70c145b9fbe</title>
<g id="a_clust1"><a xlink:href="dir_0981ace215aa2029f526b70c145b9fbe.html" target="_top" xlink:title="iop">
<polygon fill="#deebf9" stroke="#404040" stroke-dasharray="5,2" points="8,-8 8,-125 344,-125 344,-8 8,-8"/>
<text text-anchor="middle" x="176" y="-113" font-family="Helvetica,sans-Serif" font-size="10.00">iop</text>
</a>
</g>
</g>
<g id="clust2" class="cluster">
<title>clusterdir_fc941b9cdd19bfc53379effb1dbc42b0</title>
<g id="a_clust2"><a xlink:href="dir_fc941b9cdd19bfc53379effb1dbc42b0.html" target="_top">
<polygon fill="#deebf9" stroke="#404040" stroke-width="2" points="16,-63 16,-98 336,-98 336,-63 16,-63"/>
</a>
</g>
</g>
<!-- dir_9be0baa3d4a3e9f480a9ee70594037fa -->
<g id="node1" class="node">
<title>dir_9be0baa3d4a3e9f480a9ee70594037fa</title>
<g id="a_node1"><a xlink:href="dir_9be0baa3d4a3e9f480a9ee70594037fa.html" target="_top" xlink:title="kernel">
<polygon fill="#60a2e3" stroke="red" points="165.5,-35 122.5,-35 122.5,-16 165.5,-16 165.5,-35"/>
<text text-anchor="middle" x="144" y="-23" font-family="Helvetica,sans-Serif" font-size="10.00">kernel</text>
</a>
</g>
</g>
<!-- dir_f24daea2522ffa8b6dc5fa9cdf5b8f5c -->
<g id="node2" class="node">
<title>dir_f24daea2522ffa8b6dc5fa9cdf5b8f5c</title>
<g id="a_node2"><a xlink:href="dir_f24daea2522ffa8b6dc5fa9cdf5b8f5c.html" target="_top" xlink:title="fs">
<polygon fill="#60a2e3" stroke="red" points="75.5,-35 46.5,-35 46.5,-16 75.5,-16 75.5,-35"/>
<text text-anchor="middle" x="61" y="-23" font-family="Helvetica,sans-Serif" font-size="10.00">fs</text>
</a>
</g>
</g>
<!-- dir_fc941b9cdd19bfc53379effb1dbc42b0 -->
<g id="node3" class="node">
<title>dir_fc941b9cdd19bfc53379effb1dbc42b0</title>
<text text-anchor="middle" x="309" y="-78" font-family="Helvetica,sans-Serif" font-size="10.00">iLink</text>
</g>
<!-- dir_3bc9c0aee413f19edf678d71a08ea153 -->
<g id="node4" class="node">
<title>dir_3bc9c0aee413f19edf678d71a08ea153</title>
<g id="a_node4"><a xlink:href="dir_3bc9c0aee413f19edf678d71a08ea153.html" target="_top" xlink:title="IEEE1394_bd">
<polygon fill="#60a2e3" stroke="#404040" points="98,-90 24,-90 24,-71 98,-71 98,-90"/>
<text text-anchor="middle" x="61" y="-78" font-family="Helvetica,sans-Serif" font-size="10.00">IEEE1394_bd</text>
</a>
</g>
</g>
<!-- dir_3bc9c0aee413f19edf678d71a08ea153&#45;&gt;dir_9be0baa3d4a3e9f480a9ee70594037fa -->
<g id="edge2" class="edge">
<title>dir_3bc9c0aee413f19edf678d71a08ea153&#45;&gt;dir_9be0baa3d4a3e9f480a9ee70594037fa</title>
<path fill="none" stroke="#63b8ff" d="M75.08,-70.51C87.56,-62.54 106.02,-50.75 120.69,-41.38"/>
<polygon fill="#63b8ff" stroke="#63b8ff" points="122.31,-44.5 128.85,-36.17 118.54,-38.6 122.31,-44.5"/>
<g id="a_edge2&#45;headlabel"><a xlink:href="dir_000061_000166.html" target="_top" xlink:title="24">
<text text-anchor="middle" x="122.08" y="-45.52" font-family="Helvetica,sans-Serif" font-size="10.00" fill="#63b8ff">24</text>
</a>
</g>
</g>
<!-- dir_3bc9c0aee413f19edf678d71a08ea153&#45;&gt;dir_f24daea2522ffa8b6dc5fa9cdf5b8f5c -->
<g id="edge3" class="edge">
<title>dir_3bc9c0aee413f19edf678d71a08ea153&#45;&gt;dir_f24daea2522ffa8b6dc5fa9cdf5b8f5c</title>
<path fill="none" stroke="#63b8ff" d="M61,-70.75C61,-64.27 61,-55.16 61,-46.9"/>
<polygon fill="#63b8ff" stroke="#63b8ff" points="64.5,-46.96 61,-36.96 57.5,-46.96 64.5,-46.96"/>
<g id="a_edge3&#45;headlabel"><a xlink:href="dir_000061_000054.html" target="_top" xlink:title="2">
<text text-anchor="middle" x="67.34" y="-46.54" font-family="Helvetica,sans-Serif" font-size="10.00" fill="#63b8ff">2</text>
</a>
</g>
</g>
<!-- dir_bdd9a5d540de89e9fe90efdfc6973a4f -->
<g id="node7" class="node">
<title>dir_bdd9a5d540de89e9fe90efdfc6973a4f</title>
<g id="a_node7"><a xlink:href="dir_bdd9a5d540de89e9fe90efdfc6973a4f.html" target="_top" xlink:title="common">
<polygon fill="#deebf9" stroke="red" points="406,-35 352,-35 352,-16 406,-16 406,-35"/>
<text text-anchor="middle" x="379" y="-23" font-family="Helvetica,sans-Serif" font-size="10.00">common</text>
</a>
</g>
</g>
<!-- dir_3bc9c0aee413f19edf678d71a08ea153&#45;&gt;dir_bdd9a5d540de89e9fe90efdfc6973a4f -->
<g id="edge1" class="edge">
<title>dir_3bc9c0aee413f19edf678d71a08ea153&#45;&gt;dir_bdd9a5d540de89e9fe90efdfc6973a4f</title>
<path fill="none" stroke="#63b8ff" d="M82.69,-70.57C90.27,-67.76 98.9,-64.9 107,-63 208.3,-39.28 239.93,-54.39 340.4,-36.34"/>
<polygon fill="#63b8ff" stroke="#63b8ff" points="341,-39.79 350.18,-34.51 339.71,-32.91 341,-39.79"/>
<g id="a_edge1&#45;headlabel"><a xlink:href="dir_000061_000024.html" target="_top" xlink:title="3">
<text text-anchor="middle" x="339.47" y="-40.47" font-family="Helvetica,sans-Serif" font-size="10.00" fill="#63b8ff">3</text>
</a>
</g>
</g>
<!-- dir_6ca9d86174d61418b8e0fc2b61cd84c1 -->
<g id="node5" class="node">
<title>dir_6ca9d86174d61418b8e0fc2b61cd84c1</title>
<g id="a_node5"><a xlink:href="dir_6ca9d86174d61418b8e0fc2b61cd84c1.html" target="_top" xlink:title="IEEE1394_disk">
<polygon fill="#60a2e3" stroke="#404040" points="272,-90 190,-90 190,-71 272,-71 272,-90"/>
<text text-anchor="middle" x="231" y="-78" font-family="Helvetica,sans-Serif" font-size="10.00">IEEE1394_disk</text>
</a>
</g>
</g>
<!-- dir_6ca9d86174d61418b8e0fc2b61cd84c1&#45;&gt;dir_9be0baa3d4a3e9f480a9ee70594037fa -->
<g id="edge4" class="edge">
<title>dir_6ca9d86174d61418b8e0fc2b61cd84c1&#45;&gt;dir_9be0baa3d4a3e9f480a9ee70594037fa</title>
<path fill="none" stroke="#63b8ff" d="M216.24,-70.51C203.04,-62.47 183.44,-50.53 167.99,-41.11"/>
<polygon fill="#63b8ff" stroke="#63b8ff" points="170.19,-38.36 159.83,-36.15 166.55,-44.34 170.19,-38.36"/>
<g id="a_edge4&#45;headlabel"><a xlink:href="dir_000062_000166.html" target="_top" xlink:title="41">
<text text-anchor="middle" x="173.45" y="-34.52" font-family="Helvetica,sans-Serif" font-size="10.00" fill="#63b8ff">41</text>
</a>
</g>
</g>
<!-- dir_6ca9d86174d61418b8e0fc2b61cd84c1&#45;&gt;dir_bdd9a5d540de89e9fe90efdfc6973a4f -->
<g id="edge5" class="edge">
<title>dir_6ca9d86174d61418b8e0fc2b61cd84c1&#45;&gt;dir_bdd9a5d540de89e9fe90efdfc6973a4f</title>
<path fill="none" stroke="#63b8ff" d="M256.11,-70.51C280.17,-61.89 316.72,-48.8 343.71,-39.14"/>
<polygon fill="#63b8ff" stroke="#63b8ff" points="344.61,-42.53 352.84,-35.87 342.25,-35.94 344.61,-42.53"/>
<g id="a_edge5&#45;headlabel"><a xlink:href="dir_000062_000024.html" target="_top" xlink:title="8">
<text text-anchor="middle" x="343.6" y="-43.41" font-family="Helvetica,sans-Serif" font-size="10.00" fill="#63b8ff">8</text>
</a>
</g>
</g>
<!-- dir_3217d47ebe458155e7239d0a228ab153 -->
<g id="node6" class="node">
<title>dir_3217d47ebe458155e7239d0a228ab153</title>
<g id="a_node6"><a xlink:href="dir_3217d47ebe458155e7239d0a228ab153.html" target="_top" xlink:title="iLinkman">
<polygon fill="#60a2e3" stroke="#404040" points="172,-90 116,-90 116,-71 172,-71 172,-90"/>
<text text-anchor="middle" x="144" y="-78" font-family="Helvetica,sans-Serif" font-size="10.00">iLinkman</text>
</a>
</g>
</g>
<!-- dir_3217d47ebe458155e7239d0a228ab153&#45;&gt;dir_9be0baa3d4a3e9f480a9ee70594037fa -->
<g id="edge6" class="edge">
<title>dir_3217d47ebe458155e7239d0a228ab153&#45;&gt;dir_9be0baa3d4a3e9f480a9ee70594037fa</title>
<path fill="none" stroke="#63b8ff" d="M144,-70.75C144,-64.27 144,-55.16 144,-46.9"/>
<polygon fill="#63b8ff" stroke="#63b8ff" points="147.5,-46.96 144,-36.96 140.5,-46.96 147.5,-46.96"/>
<g id="a_edge6&#45;headlabel"><a xlink:href="dir_000064_000166.html" target="_top" xlink:title="52">
<text text-anchor="middle" x="150.34" y="-46.54" font-family="Helvetica,sans-Serif" font-size="10.00" fill="#63b8ff">52</text>
</a>
</g>
</g>
<!-- dir_3217d47ebe458155e7239d0a228ab153&#45;&gt;dir_bdd9a5d540de89e9fe90efdfc6973a4f -->
<g id="edge7" class="edge">
<title>dir_3217d47ebe458155e7239d0a228ab153&#45;&gt;dir_bdd9a5d540de89e9fe90efdfc6973a4f</title>
<path fill="none" stroke="#63b8ff" d="M161.72,-70.5C167.72,-67.76 174.54,-64.95 181,-63 249.54,-42.34 272.29,-50.3 340.74,-36.47"/>
<polygon fill="#63b8ff" stroke="#63b8ff" points="341.11,-39.97 350.17,-34.47 339.66,-33.12 341.11,-39.97"/>
<g id="a_edge7&#45;headlabel"><a xlink:href="dir_000064_000024.html" target="_top" xlink:title="1">
<text text-anchor="middle" x="339.66" y="-40.68" font-family="Helvetica,sans-Serif" font-size="10.00" fill="#63b8ff">1</text>
</a>
</g>
</g>
</g>
</svg>
