<?xml version="1.0" encoding="UTF-8" standalone="no"?>
<!DOCTYPE svg PUBLIC "-//W3C//DTD SVG 1.1//EN"
 "http://www.w3.org/Graphics/SVG/1.1/DTD/svg11.dtd">
<!-- Generated by graphviz version 7.0.5 (20221223.1930)
 -->
<!-- Title: iop/hdd Pages: 1 -->
<svg width="358pt" height="141pt"
 viewBox="0.00 0.00 358.00 141.00" xmlns="http://www.w3.org/2000/svg" xmlns:xlink="http://www.w3.org/1999/xlink">
<g id="graph0" class="graph" transform="scale(1 1) rotate(0) translate(4 137)">
<title>iop/hdd</title>
<g id="clust1" class="cluster">
<title>clusterdir_0981ace215aa2029f526b70c145b9fbe</title>
<g id="a_clust1"><a xlink:href="dir_0981ace215aa2029f526b70c145b9fbe.html" target="_top" xlink:title="iop">
<polygon fill="#deebf9" stroke="#404040" stroke-dasharray="5,2" points="8,-8 8,-125 288,-125 288,-8 8,-8"/>
<text text-anchor="middle" x="148" y="-113" font-family="Helvetica,sans-Serif" font-size="10.00">iop</text>
</a>
</g>
</g>
<g id="clust2" class="cluster">
<title>clusterdir_b6763ea08a8f9364194ebe3565e6b1f0</title>
<g id="a_clust2"><a xlink:href="dir_b6763ea08a8f9364194ebe3565e6b1f0.html" target="_top">
<polygon fill="#deebf9" stroke="#404040" stroke-width="2" points="16,-63 16,-98 280,-98 280,-63 16,-63"/>
</a>
</g>
</g>
<!-- dir_9be0baa3d4a3e9f480a9ee70594037fa -->
<g id="node1" class="node">
<title>dir_9be0baa3d4a3e9f480a9ee70594037fa</title>
<g id="a_node1"><a xlink:href="dir_9be0baa3d4a3e9f480a9ee70594037fa.html" target="_top" xlink:title="kernel">
<polygon fill="#60a2e3" stroke="red" points="158.5,-35 115.5,-35 115.5,-16 158.5,-16 158.5,-35"/>
<text text-anchor="middle" x="137" y="-23" font-family="Helvetica,sans-Serif" font-size="10.00">kernel</text>
</a>
</g>
</g>
<!-- dir_6f16cad81de2453a6f48c5e272ba4a18 -->
<g id="node2" class="node">
<title>dir_6f16cad81de2453a6f48c5e272ba4a18</title>
<g id="a_node2"><a xlink:href="dir_6f16cad81de2453a6f48c5e272ba4a18.html" target="_top" xlink:title="dev9">
<polygon fill="#60a2e3" stroke="red" points="75,-35 37,-35 37,-16 75,-16 75,-35"/>
<text text-anchor="middle" x="56" y="-23" font-family="Helvetica,sans-Serif" font-size="10.00">dev9</text>
</a>
</g>
</g>
<!-- dir_b6763ea08a8f9364194ebe3565e6b1f0 -->
<g id="node3" class="node">
<title>dir_b6763ea08a8f9364194ebe3565e6b1f0</title>
<text text-anchor="middle" x="256" y="-78" font-family="Helvetica,sans-Serif" font-size="10.00">hdd</text>
</g>
<!-- dir_3cf15560dfc813cf049b4197fff2fad4 -->
<g id="node4" class="node">
<title>dir_3cf15560dfc813cf049b4197fff2fad4</title>
<g id="a_node4"><a xlink:href="dir_3cf15560dfc813cf049b4197fff2fad4.html" target="_top" xlink:title="apa">
<polygon fill="#60a2e3" stroke="#404040" points="116,-90 84,-90 84,-71 116,-71 116,-90"/>
<text text-anchor="middle" x="100" y="-78" font-family="Helvetica,sans-Serif" font-size="10.00">apa</text>
</a>
</g>
</g>
<!-- dir_3cf15560dfc813cf049b4197fff2fad4&#45;&gt;dir_9be0baa3d4a3e9f480a9ee70594037fa -->
<g id="edge1" class="edge">
<title>dir_3cf15560dfc813cf049b4197fff2fad4&#45;&gt;dir_9be0baa3d4a3e9f480a9ee70594037fa</title>
<path fill="none" stroke="#63b8ff" d="M106.11,-70.75C111.01,-63.73 118.05,-53.64 124.17,-44.87"/>
<polygon fill="#63b8ff" stroke="#63b8ff" points="127.04,-46.89 129.89,-36.68 121.3,-42.88 127.04,-46.89"/>
<g id="a_edge1&#45;headlabel"><a xlink:href="dir_000006_000166.html" target="_top" xlink:title="15">
<text text-anchor="middle" x="128.17" y="-47.72" font-family="Helvetica,sans-Serif" font-size="10.00" fill="#63b8ff">15</text>
</a>
</g>
</g>
<!-- dir_3cf15560dfc813cf049b4197fff2fad4&#45;&gt;dir_6f16cad81de2453a6f48c5e272ba4a18 -->
<g id="edge2" class="edge">
<title>dir_3cf15560dfc813cf049b4197fff2fad4&#45;&gt;dir_6f16cad81de2453a6f48c5e272ba4a18</title>
<path fill="none" stroke="#63b8ff" d="M92.73,-70.75C86.72,-63.5 77.99,-52.98 70.54,-44.02"/>
<polygon fill="#63b8ff" stroke="#63b8ff" points="73.47,-42.07 64.39,-36.61 68.08,-46.54 73.47,-42.07"/>
<g id="a_edge2&#45;headlabel"><a xlink:href="dir_000006_000028.html" target="_top" xlink:title="6">
<text text-anchor="middle" x="76.98" y="-39.35" font-family="Helvetica,sans-Serif" font-size="10.00" fill="#63b8ff">6</text>
</a>
</g>
</g>
<!-- dir_bdd9a5d540de89e9fe90efdfc6973a4f -->
<g id="node8" class="node">
<title>dir_bdd9a5d540de89e9fe90efdfc6973a4f</title>
<g id="a_node8"><a xlink:href="dir_bdd9a5d540de89e9fe90efdfc6973a4f.html" target="_top" xlink:title="common">
<polygon fill="#deebf9" stroke="red" points="350,-35 296,-35 296,-16 350,-16 350,-35"/>
<text text-anchor="middle" x="323" y="-23" font-family="Helvetica,sans-Serif" font-size="10.00">common</text>
</a>
</g>
</g>
<!-- dir_3cf15560dfc813cf049b4197fff2fad4&#45;&gt;dir_bdd9a5d540de89e9fe90efdfc6973a4f -->
<g id="edge3" class="edge">
<title>dir_3cf15560dfc813cf049b4197fff2fad4&#45;&gt;dir_bdd9a5d540de89e9fe90efdfc6973a4f</title>
<path fill="none" stroke="#63b8ff" d="M111.14,-70.71C115.29,-67.84 120.16,-64.9 125,-63 191.62,-36.8 216.1,-49.76 284.72,-36.43"/>
<polygon fill="#63b8ff" stroke="#63b8ff" points="285.09,-39.93 294.17,-34.47 283.67,-33.07 285.09,-39.93"/>
<g id="a_edge3&#45;headlabel"><a xlink:href="dir_000006_000024.html" target="_top" xlink:title="4">
<text text-anchor="middle" x="283.63" y="-40.63" font-family="Helvetica,sans-Serif" font-size="10.00" fill="#63b8ff">4</text>
</a>
</g>
</g>
<!-- dir_74c6a9c949eb32128aa5a6adc613f35b -->
<g id="node5" class="node">
<title>dir_74c6a9c949eb32128aa5a6adc613f35b</title>
<g id="a_node5"><a xlink:href="dir_74c6a9c949eb32128aa5a6adc613f35b.html" target="_top" xlink:title="libapa">
<polygon fill="#60a2e3" stroke="#404040" points="66,-90 24,-90 24,-71 66,-71 66,-90"/>
<text text-anchor="middle" x="45" y="-78" font-family="Helvetica,sans-Serif" font-size="10.00">libapa</text>
</a>
</g>
</g>
<!-- dir_74c6a9c949eb32128aa5a6adc613f35b&#45;&gt;dir_9be0baa3d4a3e9f480a9ee70594037fa -->
<g id="edge5" class="edge">
<title>dir_74c6a9c949eb32128aa5a6adc613f35b&#45;&gt;dir_9be0baa3d4a3e9f480a9ee70594037fa</title>
<path fill="none" stroke="#63b8ff" d="M60.61,-70.51C74.7,-62.39 95.69,-50.3 112.1,-40.85"/>
<polygon fill="#63b8ff" stroke="#63b8ff" points="113.39,-44.14 120.31,-36.11 109.9,-38.07 113.39,-44.14"/>
<g id="a_edge5&#45;headlabel"><a xlink:href="dir_000169_000166.html" target="_top" xlink:title="13">
<text text-anchor="middle" x="113.01" y="-45.14" font-family="Helvetica,sans-Serif" font-size="10.00" fill="#63b8ff">13</text>
</a>
</g>
</g>
<!-- dir_74c6a9c949eb32128aa5a6adc613f35b&#45;&gt;dir_6f16cad81de2453a6f48c5e272ba4a18 -->
<g id="edge6" class="edge">
<title>dir_74c6a9c949eb32128aa5a6adc613f35b&#45;&gt;dir_6f16cad81de2453a6f48c5e272ba4a18</title>
<path fill="none" stroke="#63b8ff" d="M46.82,-70.75C48.18,-64.19 50.1,-54.95 51.83,-46.6"/>
<polygon fill="#63b8ff" stroke="#63b8ff" points="55.23,-47.43 53.84,-36.92 48.38,-46 55.23,-47.43"/>
<g id="a_edge6&#45;headlabel"><a xlink:href="dir_000169_000028.html" target="_top" xlink:title="4">
<text text-anchor="middle" x="57.59" y="-47.54" font-family="Helvetica,sans-Serif" font-size="10.00" fill="#63b8ff">4</text>
</a>
</g>
</g>
<!-- dir_74c6a9c949eb32128aa5a6adc613f35b&#45;&gt;dir_bdd9a5d540de89e9fe90efdfc6973a4f -->
<g id="edge4" class="edge">
<title>dir_74c6a9c949eb32128aa5a6adc613f35b&#45;&gt;dir_bdd9a5d540de89e9fe90efdfc6973a4f</title>
<path fill="none" stroke="#63b8ff" d="M58.55,-70.64C63.54,-67.77 69.35,-64.84 75,-63 163.83,-34 194.28,-52.54 284.37,-36.37"/>
<polygon fill="#63b8ff" stroke="#63b8ff" points="285.01,-39.81 294.18,-34.5 283.7,-32.93 285.01,-39.81"/>
<g id="a_edge4&#45;headlabel"><a xlink:href="dir_000169_000024.html" target="_top" xlink:title="13">
<text text-anchor="middle" x="283.5" y="-40.49" font-family="Helvetica,sans-Serif" font-size="10.00" fill="#63b8ff">13</text>
</a>
</g>
</g>
<!-- dir_5b638697113ca3fae3dbb2942f3ebff2 -->
<g id="node6" class="node">
<title>dir_5b638697113ca3fae3dbb2942f3ebff2</title>
<g id="a_node6"><a xlink:href="dir_5b638697113ca3fae3dbb2942f3ebff2.html" target="_top" xlink:title="libpfs">
<polygon fill="#60a2e3" stroke="#404040" points="222,-90 182,-90 182,-71 222,-71 222,-90"/>
<text text-anchor="middle" x="202" y="-78" font-family="Helvetica,sans-Serif" font-size="10.00">libpfs</text>
</a>
</g>
</g>
<!-- dir_5b638697113ca3fae3dbb2942f3ebff2&#45;&gt;dir_9be0baa3d4a3e9f480a9ee70594037fa -->
<g id="edge8" class="edge">
<title>dir_5b638697113ca3fae3dbb2942f3ebff2&#45;&gt;dir_9be0baa3d4a3e9f480a9ee70594037fa</title>
<path fill="none" stroke="#63b8ff" d="M190.97,-70.51C181.58,-62.85 167.85,-51.66 156.59,-42.47"/>
<polygon fill="#63b8ff" stroke="#63b8ff" points="159,-39.92 149.04,-36.31 154.57,-45.35 159,-39.92"/>
<g id="a_edge8&#45;headlabel"><a xlink:href="dir_000174_000166.html" target="_top" xlink:title="15">
<text text-anchor="middle" x="162.41" y="-36.54" font-family="Helvetica,sans-Serif" font-size="10.00" fill="#63b8ff">15</text>
</a>
</g>
</g>
<!-- dir_5b638697113ca3fae3dbb2942f3ebff2&#45;&gt;dir_bdd9a5d540de89e9fe90efdfc6973a4f -->
<g id="edge7" class="edge">
<title>dir_5b638697113ca3fae3dbb2942f3ebff2&#45;&gt;dir_bdd9a5d540de89e9fe90efdfc6973a4f</title>
<path fill="none" stroke="#63b8ff" d="M216.84,-70.53C221.32,-67.96 226.3,-65.26 231,-63 249.05,-54.34 269.72,-46 286.89,-39.49"/>
<polygon fill="#63b8ff" stroke="#63b8ff" points="288.04,-42.79 296.19,-36.02 285.59,-36.24 288.04,-42.79"/>
<g id="a_edge7&#45;headlabel"><a xlink:href="dir_000174_000024.html" target="_top" xlink:title="14">
<text text-anchor="middle" x="287.09" y="-43.68" font-family="Helvetica,sans-Serif" font-size="10.00" fill="#63b8ff">14</text>
</a>
</g>
</g>
<!-- dir_cece7c3de560cfc4de14abf3198b3696 -->
<g id="node7" class="node">
<title>dir_cece7c3de560cfc4de14abf3198b3696</title>
<g id="a_node7"><a xlink:href="dir_cece7c3de560cfc4de14abf3198b3696.html" target="_top" xlink:title="pfs">
<polygon fill="#60a2e3" stroke="#404040" points="164,-90 134,-90 134,-71 164,-71 164,-90"/>
<text text-anchor="middle" x="149" y="-78" font-family="Helvetica,sans-Serif" font-size="10.00">pfs</text>
</a>
</g>
</g>
<!-- dir_cece7c3de560cfc4de14abf3198b3696&#45;&gt;dir_9be0baa3d4a3e9f480a9ee70594037fa -->
<g id="edge9" class="edge">
<title>dir_cece7c3de560cfc4de14abf3198b3696&#45;&gt;dir_9be0baa3d4a3e9f480a9ee70594037fa</title>
<path fill="none" stroke="#63b8ff" d="M147.02,-70.75C145.53,-64.19 143.44,-54.95 141.55,-46.6"/>
<polygon fill="#63b8ff" stroke="#63b8ff" points="144.98,-45.9 139.36,-36.92 138.15,-47.44 144.98,-45.9"/>
<g id="a_edge9&#45;headlabel"><a xlink:href="dir_000208_000166.html" target="_top" xlink:title="19">
<text text-anchor="middle" x="148.21" y="-44.8" font-family="Helvetica,sans-Serif" font-size="10.00" fill="#63b8ff">19</text>
</a>
</g>
</g>
<!-- dir_cece7c3de560cfc4de14abf3198b3696&#45;&gt;dir_bdd9a5d540de89e9fe90efdfc6973a4f -->
<g id="edge10" class="edge">
<title>dir_cece7c3de560cfc4de14abf3198b3696&#45;&gt;dir_bdd9a5d540de89e9fe90efdfc6973a4f</title>
<path fill="none" stroke="#63b8ff" d="M160.2,-70.52C164.08,-67.78 168.56,-64.96 173,-63 219.29,-42.51 236.91,-47.53 284.62,-36.72"/>
<polygon fill="#63b8ff" stroke="#63b8ff" points="285.26,-40.16 294.16,-34.42 283.62,-33.36 285.26,-40.16"/>
<g id="a_edge10&#45;headlabel"><a xlink:href="dir_000208_000024.html" target="_top" xlink:title="5">
<text text-anchor="middle" x="283.9" y="-40.91" font-family="Helvetica,sans-Serif" font-size="10.00" fill="#63b8ff">5</text>
</a>
</g>
</g>
</g>
</svg>
