<?xml version="1.0" encoding="UTF-8" standalone="no"?>
<!DOCTYPE svg PUBLIC "-//W3C//DTD SVG 1.1//EN"
 "http://www.w3.org/Graphics/SVG/1.1/DTD/svg11.dtd">
<!-- Generated by graphviz version 7.0.5 (20221223.1930)
 -->
<!-- Title: ee/eedebug/src Pages: 1 -->
<svg width="180pt" height="133pt"
 viewBox="0.00 0.00 179.50 133.00" xmlns="http://www.w3.org/2000/svg" xmlns:xlink="http://www.w3.org/1999/xlink">
<g id="graph0" class="graph" transform="scale(1 1) rotate(0) translate(4 129)">
<title>ee/eedebug/src</title>
<g id="clust1" class="cluster">
<title>clusterdir_650207f478e190855aca53e9453b1a94</title>
<g id="a_clust1"><a xlink:href="dir_650207f478e190855aca53e9453b1a94.html" target="_top" xlink:title="eedebug">
<polygon fill="#deebf9" stroke="#7f7f7f" stroke-dasharray="5,2" points="8,-8 8,-117 72,-117 72,-8 8,-8"/>
<text text-anchor="middle" x="40" y="-105" font-family="Helvetica,sans-Serif" font-size="10.00">eedebug</text>
</a>
</g>
</g>
<!-- dir_60b92096f37991a4061e29e96b6ea950 -->
<g id="node1" class="node">
<title>dir_60b92096f37991a4061e29e96b6ea950</title>
<g id="a_node1"><a xlink:href="dir_60b92096f37991a4061e29e96b6ea950.html" target="_top" xlink:title="include">
<polygon fill="#60a2e3" stroke="#404040" points="63.5,-35 16.5,-35 16.5,-16 63.5,-16 63.5,-35"/>
<text text-anchor="middle" x="40" y="-23" font-family="Helvetica,sans-Serif" font-size="10.00">include</text>
</a>
</g>
</g>
<!-- dir_60c0b0581c07fba9514a94139971315c -->
<g id="node2" class="node">
<title>dir_60c0b0581c07fba9514a94139971315c</title>
<g id="a_node2"><a xlink:href="dir_60c0b0581c07fba9514a94139971315c.html" target="_top" xlink:title="src">
<polygon fill="#deebf9" stroke="#404040" stroke-width="2" points="64,-90 34,-90 34,-71 64,-71 64,-90"/>
<text text-anchor="middle" x="49" y="-78" font-family="Helvetica,sans-Serif" font-size="10.00">src</text>
</a>
</g>
</g>
<!-- dir_60c0b0581c07fba9514a94139971315c&#45;&gt;dir_60b92096f37991a4061e29e96b6ea950 -->
<g id="edge1" class="edge">
<title>dir_60c0b0581c07fba9514a94139971315c&#45;&gt;dir_60b92096f37991a4061e29e96b6ea950</title>
<path fill="none" stroke="#63b8ff" d="M47.51,-70.75C46.4,-64.19 44.83,-54.95 43.41,-46.6"/>
<polygon fill="#63b8ff" stroke="#63b8ff" points="46.9,-46.21 41.77,-36.93 40,-47.38 46.9,-46.21"/>
<g id="a_edge1&#45;headlabel"><a xlink:href="dir_000241_000071.html" target="_top" xlink:title="1">
<text text-anchor="middle" x="50.04" y="-45.28" font-family="Helvetica,sans-Serif" font-size="10.00" fill="#63b8ff">1</text>
</a>
</g>
</g>
<!-- dir_694ec83a64f58cbdefbefce65cd1011c -->
<g id="node3" class="node">
<title>dir_694ec83a64f58cbdefbefce65cd1011c</title>
<g id="a_node3"><a xlink:href="dir_694ec83a64f58cbdefbefce65cd1011c.html" target="_top" xlink:title="kernel">
<polygon fill="#deebf9" stroke="red" stroke-dasharray="5,2" points="124.5,-35 81.5,-35 81.5,-16 124.5,-16 124.5,-35"/>
<text text-anchor="middle" x="103" y="-23" font-family="Helvetica,sans-Serif" font-size="10.00">kernel</text>
</a>
</g>
</g>
<!-- dir_60c0b0581c07fba9514a94139971315c&#45;&gt;dir_694ec83a64f58cbdefbefce65cd1011c -->
<g id="edge2" class="edge">
<title>dir_60c0b0581c07fba9514a94139971315c&#45;&gt;dir_694ec83a64f58cbdefbefce65cd1011c</title>
<path fill="none" stroke="#63b8ff" d="M57.92,-70.75C65.45,-63.35 76.47,-52.54 85.73,-43.45"/>
<polygon fill="#63b8ff" stroke="#63b8ff" points="88.12,-46 92.81,-36.5 83.22,-41.01 88.12,-46"/>
<g id="a_edge2&#45;headlabel"><a xlink:href="dir_000241_000165.html" target="_top" xlink:title="1">
<text text-anchor="middle" x="88.63" y="-46.99" font-family="Helvetica,sans-Serif" font-size="10.00" fill="#63b8ff">1</text>
</a>
</g>
</g>
<!-- dir_a0a8ac7efb6662b749c1285408048e6d -->
<g id="node4" class="node">
<title>dir_a0a8ac7efb6662b749c1285408048e6d</title>
<g id="a_node4"><a xlink:href="dir_a0a8ac7efb6662b749c1285408048e6d.html" target="_top" xlink:title="erl">
<polygon fill="#deebf9" stroke="red" stroke-dasharray="5,2" points="171.5,-35 142.5,-35 142.5,-16 171.5,-16 171.5,-35"/>
<text text-anchor="middle" x="157" y="-23" font-family="Helvetica,sans-Serif" font-size="10.00">erl</text>
</a>
</g>
</g>
<!-- dir_60c0b0581c07fba9514a94139971315c&#45;&gt;dir_a0a8ac7efb6662b749c1285408048e6d -->
<g id="edge3" class="edge">
<title>dir_60c0b0581c07fba9514a94139971315c&#45;&gt;dir_a0a8ac7efb6662b749c1285408048e6d</title>
<path fill="none" stroke="#63b8ff" d="M64.47,-71.91C82.07,-63.27 111.07,-49.04 131.91,-38.81"/>
<polygon fill="#63b8ff" stroke="#63b8ff" points="133.45,-41.95 140.89,-34.41 130.37,-35.67 133.45,-41.95"/>
<g id="a_edge3&#45;headlabel"><a xlink:href="dir_000241_000045.html" target="_top" xlink:title="1">
<text text-anchor="middle" x="132.84" y="-42.92" font-family="Helvetica,sans-Serif" font-size="10.00" fill="#63b8ff">1</text>
</a>
</g>
</g>
</g>
</svg>
