<?xml version="1.0" encoding="UTF-8" standalone="no"?>
<!DOCTYPE svg PUBLIC "-//W3C//DTD SVG 1.1//EN"
 "http://www.w3.org/Graphics/SVG/1.1/DTD/svg11.dtd">
<!-- Generated by graphviz version 7.0.5 (20221223.1930)
 -->
<!-- Title: common Pages: 1 -->
<svg width="180pt" height="153pt"
 viewBox="0.00 0.00 179.50 153.00" xmlns="http://www.w3.org/2000/svg" xmlns:xlink="http://www.w3.org/1999/xlink">
<g id="graph0" class="graph" transform="scale(1 1) rotate(0) translate(4 149)">
<title>common</title>
<g id="clust1" class="cluster">
<title>clusterdir_bdd9a5d540de89e9fe90efdfc6973a4f</title>
<g id="a_clust1"><a xlink:href="dir_bdd9a5d540de89e9fe90efdfc6973a4f.html" target="_top">
<polygon fill="#deebf9" stroke="#404040" stroke-width="2" points="8,-47 8,-137 134,-137 134,-47 8,-47"/>
</a>
</g>
</g>
<!-- dir_bdd9a5d540de89e9fe90efdfc6973a4f -->
<g id="node1" class="node">
<title>dir_bdd9a5d540de89e9fe90efdfc6973a4f</title>
<text text-anchor="middle" x="99" y="-117" font-family="Helvetica,sans-Serif" font-size="10.00">common</text>
</g>
<!-- dir_11fbc4217d50ab21044e5ad6614aede5 -->
<g id="node2" class="node">
<title>dir_11fbc4217d50ab21044e5ad6614aede5</title>
<g id="a_node2"><a xlink:href="dir_11fbc4217d50ab21044e5ad6614aede5.html" target="_top" xlink:title="include">
<polygon fill="#60a2e3" stroke="#404040" points="63.5,-74 16.5,-74 16.5,-55 63.5,-55 63.5,-74"/>
<text text-anchor="middle" x="40" y="-62" font-family="Helvetica,sans-Serif" font-size="10.00">include</text>
</a>
</g>
</g>
<!-- dir_0981ace215aa2029f526b70c145b9fbe -->
<g id="node4" class="node">
<title>dir_0981ace215aa2029f526b70c145b9fbe</title>
<g id="a_node4"><a xlink:href="dir_0981ace215aa2029f526b70c145b9fbe.html" target="_top" xlink:title="iop">
<polygon fill="#deebf9" stroke="red" points="80.5,-19 51.5,-19 51.5,0 80.5,0 80.5,-19"/>
<text text-anchor="middle" x="66" y="-7" font-family="Helvetica,sans-Serif" font-size="10.00">iop</text>
</a>
</g>
</g>
<!-- dir_11fbc4217d50ab21044e5ad6614aede5&#45;&gt;dir_0981ace215aa2029f526b70c145b9fbe -->
<g id="edge1" class="edge">
<title>dir_11fbc4217d50ab21044e5ad6614aede5&#45;&gt;dir_0981ace215aa2029f526b70c145b9fbe</title>
<path fill="none" stroke="#63b8ff" d="M44.29,-54.75C47.62,-47.96 52.36,-38.3 56.56,-29.73"/>
<polygon fill="#63b8ff" stroke="#63b8ff" points="59.68,-31.32 60.95,-20.8 53.4,-28.24 59.68,-31.32"/>
<g id="a_edge1&#45;headlabel"><a xlink:href="dir_000066_000159.html" target="_top" xlink:title="2">
<text text-anchor="middle" x="61.32" y="-31.94" font-family="Helvetica,sans-Serif" font-size="10.00" fill="#63b8ff">2</text>
</a>
</g>
</g>
<!-- dir_58a8fc8f1a03774579661b06bb97dd1a -->
<g id="node3" class="node">
<title>dir_58a8fc8f1a03774579661b06bb97dd1a</title>
<g id="a_node3"><a xlink:href="dir_58a8fc8f1a03774579661b06bb97dd1a.html" target="_top" xlink:title="sbus">
<polygon fill="#60a2e3" stroke="#404040" points="54,-129 16,-129 16,-110 54,-110 54,-129"/>
<text text-anchor="middle" x="35" y="-117" font-family="Helvetica,sans-Serif" font-size="10.00">sbus</text>
</a>
</g>
</g>
<!-- dir_58a8fc8f1a03774579661b06bb97dd1a&#45;&gt;dir_11fbc4217d50ab21044e5ad6614aede5 -->
<g id="edge2" class="edge">
<title>dir_58a8fc8f1a03774579661b06bb97dd1a&#45;&gt;dir_11fbc4217d50ab21044e5ad6614aede5</title>
<path fill="none" stroke="#63b8ff" d="M35.83,-109.75C36.44,-103.27 37.3,-94.16 38.08,-85.9"/>
<polygon fill="#63b8ff" stroke="#63b8ff" points="41.56,-86.23 39.01,-75.95 34.59,-85.58 41.56,-86.23"/>
<g id="a_edge2&#45;headlabel"><a xlink:href="dir_000221_000066.html" target="_top" xlink:title="20">
<text text-anchor="middle" x="44.19" y="-86.07" font-family="Helvetica,sans-Serif" font-size="10.00" fill="#63b8ff">20</text>
</a>
</g>
</g>
<!-- dir_58a8fc8f1a03774579661b06bb97dd1a&#45;&gt;dir_0981ace215aa2029f526b70c145b9fbe -->
<g id="edge4" class="edge">
<title>dir_58a8fc8f1a03774579661b06bb97dd1a&#45;&gt;dir_0981ace215aa2029f526b70c145b9fbe</title>
<path fill="none" stroke="#63b8ff" d="M46.07,-109.61C55.26,-101.46 67.66,-88.49 73,-74 78.18,-59.96 75.96,-43.09 72.69,-30.26"/>
<polygon fill="#63b8ff" stroke="#63b8ff" points="76.11,-29.46 69.89,-20.88 69.4,-31.47 76.11,-29.46"/>
<g id="a_edge4&#45;headlabel"><a xlink:href="dir_000221_000159.html" target="_top" xlink:title="18">
<text text-anchor="middle" x="79.42" y="-28.14" font-family="Helvetica,sans-Serif" font-size="10.00" fill="#63b8ff">18</text>
</a>
</g>
</g>
<!-- dir_049738f1909e8dc3e45fe1f6b3faa109 -->
<g id="node5" class="node">
<title>dir_049738f1909e8dc3e45fe1f6b3faa109</title>
<g id="a_node5"><a xlink:href="dir_049738f1909e8dc3e45fe1f6b3faa109.html" target="_top" xlink:title="ee">
<polygon fill="#deebf9" stroke="red" points="171.5,-74 142.5,-74 142.5,-55 171.5,-55 171.5,-74"/>
<text text-anchor="middle" x="157" y="-62" font-family="Helvetica,sans-Serif" font-size="10.00">ee</text>
</a>
</g>
</g>
<!-- dir_58a8fc8f1a03774579661b06bb97dd1a&#45;&gt;dir_049738f1909e8dc3e45fe1f6b3faa109 -->
<g id="edge3" class="edge">
<title>dir_58a8fc8f1a03774579661b06bb97dd1a&#45;&gt;dir_049738f1909e8dc3e45fe1f6b3faa109</title>
<path fill="none" stroke="#63b8ff" d="M54.4,-110.21C72.94,-102.26 101.95,-89.79 131.58,-76.81"/>
<polygon fill="#63b8ff" stroke="#63b8ff" points="132.94,-80.03 140.69,-72.81 130.12,-73.62 132.94,-80.03"/>
<g id="a_edge3&#45;headlabel"><a xlink:href="dir_000221_000040.html" target="_top" xlink:title="1">
<text text-anchor="middle" x="132.17" y="-80.97" font-family="Helvetica,sans-Serif" font-size="10.00" fill="#63b8ff">1</text>
</a>
</g>
</g>
</g>
</svg>
