<?xml version="1.0" encoding="UTF-8" standalone="no"?>
<!DOCTYPE svg PUBLIC "-//W3C//DTD SVG 1.1//EN"
 "http://www.w3.org/Graphics/SVG/1.1/DTD/svg11.dtd">
<!-- Generated by graphviz version 7.0.5 (20221223.1930)
 -->
<!-- Title: iop/usb Pages: 1 -->
<svg width="572pt" height="196pt"
 viewBox="0.00 0.00 572.00 196.00" xmlns="http://www.w3.org/2000/svg" xmlns:xlink="http://www.w3.org/1999/xlink">
<g id="graph0" class="graph" transform="scale(1 1) rotate(0) translate(4 192)">
<title>iop/usb</title>
<g id="clust1" class="cluster">
<title>clusterdir_0981ace215aa2029f526b70c145b9fbe</title>
<g id="a_clust1"><a xlink:href="dir_0981ace215aa2029f526b70c145b9fbe.html" target="_top" xlink:title="iop">
<polygon fill="#deebf9" stroke="#404040" stroke-dasharray="5,2" points="8,-8 8,-180 500,-180 500,-8 8,-8"/>
<text text-anchor="middle" x="254" y="-168" font-family="Helvetica,sans-Serif" font-size="10.00">iop</text>
</a>
</g>
</g>
<g id="clust2" class="cluster">
<title>clusterdir_b6c875632944d243a548db157cd77ec2</title>
<g id="a_clust2"><a xlink:href="dir_b6c875632944d243a548db157cd77ec2.html" target="_top">
<polygon fill="#deebf9" stroke="#404040" stroke-width="2" points="16,-63 16,-153 434,-153 434,-63 16,-63"/>
</a>
</g>
</g>
<!-- dir_9be0baa3d4a3e9f480a9ee70594037fa -->
<g id="node1" class="node">
<title>dir_9be0baa3d4a3e9f480a9ee70594037fa</title>
<g id="a_node1"><a xlink:href="dir_9be0baa3d4a3e9f480a9ee70594037fa.html" target="_top" xlink:title="kernel">
<polygon fill="#60a2e3" stroke="red" points="223.5,-35 180.5,-35 180.5,-16 223.5,-16 223.5,-35"/>
<text text-anchor="middle" x="202" y="-23" font-family="Helvetica,sans-Serif" font-size="10.00">kernel</text>
</a>
</g>
</g>
<!-- dir_f24daea2522ffa8b6dc5fa9cdf5b8f5c -->
<g id="node2" class="node">
<title>dir_f24daea2522ffa8b6dc5fa9cdf5b8f5c</title>
<g id="a_node2"><a xlink:href="dir_f24daea2522ffa8b6dc5fa9cdf5b8f5c.html" target="_top" xlink:title="fs">
<polygon fill="#60a2e3" stroke="red" points="471.5,-90 442.5,-90 442.5,-71 471.5,-71 471.5,-90"/>
<text text-anchor="middle" x="457" y="-78" font-family="Helvetica,sans-Serif" font-size="10.00">fs</text>
</a>
</g>
</g>
<!-- dir_b6c875632944d243a548db157cd77ec2 -->
<g id="node3" class="node">
<title>dir_b6c875632944d243a548db157cd77ec2</title>
<text text-anchor="middle" x="410" y="-133" font-family="Helvetica,sans-Serif" font-size="10.00">usb</text>
</g>
<!-- dir_354d0fe30f8451f44d30d5ee272e7643 -->
<g id="node4" class="node">
<title>dir_354d0fe30f8451f44d30d5ee272e7643</title>
<g id="a_node4"><a xlink:href="dir_354d0fe30f8451f44d30d5ee272e7643.html" target="_top" xlink:title="camera">
<polygon fill="#60a2e3" stroke="#404040" points="375.5,-145 326.5,-145 326.5,-126 375.5,-126 375.5,-145"/>
<text text-anchor="middle" x="351" y="-133" font-family="Helvetica,sans-Serif" font-size="10.00">camera</text>
</a>
</g>
</g>
<!-- dir_354d0fe30f8451f44d30d5ee272e7643&#45;&gt;dir_9be0baa3d4a3e9f480a9ee70594037fa -->
<g id="edge1" class="edge">
<title>dir_354d0fe30f8451f44d30d5ee272e7643&#45;&gt;dir_9be0baa3d4a3e9f480a9ee70594037fa</title>
<path fill="none" stroke="#63b8ff" d="M375.73,-127.71C411.65,-117.6 474.69,-98.83 481,-90 487.98,-80.24 488.92,-72.02 481,-63 464.97,-44.74 305.29,-32.81 234.96,-28.41"/>
<polygon fill="#63b8ff" stroke="#63b8ff" points="235.41,-24.93 225.21,-27.81 234.98,-31.91 235.41,-24.93"/>
<g id="a_edge1&#45;headlabel"><a xlink:href="dir_000020_000166.html" target="_top" xlink:title="19">
<text text-anchor="middle" x="237.66" y="-19.72" font-family="Helvetica,sans-Serif" font-size="10.00" fill="#63b8ff">19</text>
</a>
</g>
</g>
<!-- dir_8f550b51c304fe10978bfd792866fae2 -->
<g id="node7" class="node">
<title>dir_8f550b51c304fe10978bfd792866fae2</title>
<g id="a_node7"><a xlink:href="dir_8f550b51c304fe10978bfd792866fae2.html" target="_top" xlink:title="usbd">
<polygon fill="#60a2e3" stroke="#404040" points="153,-90 115,-90 115,-71 153,-71 153,-90"/>
<text text-anchor="middle" x="134" y="-78" font-family="Helvetica,sans-Serif" font-size="10.00">usbd</text>
</a>
</g>
</g>
<!-- dir_354d0fe30f8451f44d30d5ee272e7643&#45;&gt;dir_8f550b51c304fe10978bfd792866fae2 -->
<g id="edge2" class="edge">
<title>dir_354d0fe30f8451f44d30d5ee272e7643&#45;&gt;dir_8f550b51c304fe10978bfd792866fae2</title>
<path fill="none" stroke="#63b8ff" d="M326.13,-128.21C323.06,-127.46 319.96,-126.7 317,-126 249.68,-110.01 228.98,-110.57 164.07,-91.98"/>
<polygon fill="#63b8ff" stroke="#63b8ff" points="165.3,-88.69 154.72,-89.25 163.34,-95.41 165.3,-88.69"/>
<g id="a_edge2&#45;headlabel"><a xlink:href="dir_000020_000385.html" target="_top" xlink:title="3">
<text text-anchor="middle" x="168.09" y="-84.05" font-family="Helvetica,sans-Serif" font-size="10.00" fill="#63b8ff">3</text>
</a>
</g>
</g>
<!-- dir_bdd9a5d540de89e9fe90efdfc6973a4f -->
<g id="node10" class="node">
<title>dir_bdd9a5d540de89e9fe90efdfc6973a4f</title>
<g id="a_node10"><a xlink:href="dir_bdd9a5d540de89e9fe90efdfc6973a4f.html" target="_top" xlink:title="common">
<polygon fill="#deebf9" stroke="red" points="564,-90 510,-90 510,-71 564,-71 564,-90"/>
<text text-anchor="middle" x="537" y="-78" font-family="Helvetica,sans-Serif" font-size="10.00">common</text>
</a>
</g>
</g>
<!-- dir_354d0fe30f8451f44d30d5ee272e7643&#45;&gt;dir_bdd9a5d540de89e9fe90efdfc6973a4f -->
<g id="edge3" class="edge">
<title>dir_354d0fe30f8451f44d30d5ee272e7643&#45;&gt;dir_bdd9a5d540de89e9fe90efdfc6973a4f</title>
<path fill="none" stroke="#63b8ff" d="M375.7,-127.46C407.22,-118.48 462.08,-102.85 498.96,-92.34"/>
<polygon fill="#63b8ff" stroke="#63b8ff" points="499.67,-95.78 508.32,-89.67 497.75,-89.05 499.67,-95.78"/>
<g id="a_edge3&#45;headlabel"><a xlink:href="dir_000020_000024.html" target="_top" xlink:title="1">
<text text-anchor="middle" x="498.44" y="-96.58" font-family="Helvetica,sans-Serif" font-size="10.00" fill="#63b8ff">1</text>
</a>
</g>
</g>
<!-- dir_dfd34f7999bdb28cb70101636e016b16 -->
<g id="node5" class="node">
<title>dir_dfd34f7999bdb28cb70101636e016b16</title>
<g id="a_node5"><a xlink:href="dir_dfd34f7999bdb28cb70101636e016b16.html" target="_top" xlink:title="keyboard">
<polygon fill="#60a2e3" stroke="#404040" points="80,-145 24,-145 24,-126 80,-126 80,-145"/>
<text text-anchor="middle" x="52" y="-133" font-family="Helvetica,sans-Serif" font-size="10.00">keyboard</text>
</a>
</g>
</g>
<!-- dir_dfd34f7999bdb28cb70101636e016b16&#45;&gt;dir_9be0baa3d4a3e9f480a9ee70594037fa -->
<g id="edge4" class="edge">
<title>dir_dfd34f7999bdb28cb70101636e016b16&#45;&gt;dir_9be0baa3d4a3e9f480a9ee70594037fa</title>
<path fill="none" stroke="#63b8ff" d="M80.02,-125.55C108.27,-116.12 149.42,-101.12 162,-90 172.28,-80.91 169.78,-74.68 177,-63 180.74,-56.96 185.04,-50.52 189.01,-44.75"/>
<polygon fill="#63b8ff" stroke="#63b8ff" points="191.86,-46.78 194.73,-36.58 186.12,-42.77 191.86,-46.78"/>
<g id="a_edge4&#45;headlabel"><a xlink:href="dir_000168_000166.html" target="_top" xlink:title="19">
<text text-anchor="middle" x="192.99" y="-47.62" font-family="Helvetica,sans-Serif" font-size="10.00" fill="#63b8ff">19</text>
</a>
</g>
</g>
<!-- dir_dfd34f7999bdb28cb70101636e016b16&#45;&gt;dir_8f550b51c304fe10978bfd792866fae2 -->
<g id="edge5" class="edge">
<title>dir_dfd34f7999bdb28cb70101636e016b16&#45;&gt;dir_8f550b51c304fe10978bfd792866fae2</title>
<path fill="none" stroke="#63b8ff" d="M65.91,-125.51C78.24,-117.54 96.47,-105.75 110.97,-96.38"/>
<polygon fill="#63b8ff" stroke="#63b8ff" points="112.53,-99.55 119.02,-91.18 108.73,-93.67 112.53,-99.55"/>
<g id="a_edge5&#45;headlabel"><a xlink:href="dir_000168_000385.html" target="_top" xlink:title="3">
<text text-anchor="middle" x="112.32" y="-100.56" font-family="Helvetica,sans-Serif" font-size="10.00" fill="#63b8ff">3</text>
</a>
</g>
</g>
<!-- dir_6c36fa94566b53a53d1b33c49cbff7fb -->
<g id="node6" class="node">
<title>dir_6c36fa94566b53a53d1b33c49cbff7fb</title>
<g id="a_node6"><a xlink:href="dir_6c36fa94566b53a53d1b33c49cbff7fb.html" target="_top" xlink:title="mouse">
<polygon fill="#60a2e3" stroke="#404040" points="144,-145 98,-145 98,-126 144,-126 144,-145"/>
<text text-anchor="middle" x="121" y="-133" font-family="Helvetica,sans-Serif" font-size="10.00">mouse</text>
</a>
</g>
</g>
<!-- dir_6c36fa94566b53a53d1b33c49cbff7fb&#45;&gt;dir_9be0baa3d4a3e9f480a9ee70594037fa -->
<g id="edge6" class="edge">
<title>dir_6c36fa94566b53a53d1b33c49cbff7fb&#45;&gt;dir_9be0baa3d4a3e9f480a9ee70594037fa</title>
<path fill="none" stroke="#63b8ff" d="M136.15,-125.63C148.6,-117.68 165.92,-104.97 177,-90 186.71,-76.88 193.21,-59.48 197.15,-46.21"/>
<polygon fill="#63b8ff" stroke="#63b8ff" points="200.43,-47.46 199.66,-36.9 193.68,-45.64 200.43,-47.46"/>
<g id="a_edge6&#45;headlabel"><a xlink:href="dir_000189_000166.html" target="_top" xlink:title="18">
<text text-anchor="middle" x="202.63" y="-47.71" font-family="Helvetica,sans-Serif" font-size="10.00" fill="#63b8ff">18</text>
</a>
</g>
</g>
<!-- dir_6c36fa94566b53a53d1b33c49cbff7fb&#45;&gt;dir_8f550b51c304fe10978bfd792866fae2 -->
<g id="edge7" class="edge">
<title>dir_6c36fa94566b53a53d1b33c49cbff7fb&#45;&gt;dir_8f550b51c304fe10978bfd792866fae2</title>
<path fill="none" stroke="#63b8ff" d="M123.15,-125.75C124.76,-119.19 127.02,-109.95 129.07,-101.6"/>
<polygon fill="#63b8ff" stroke="#63b8ff" points="132.46,-102.46 131.45,-91.91 125.66,-100.79 132.46,-102.46"/>
<g id="a_edge7&#45;headlabel"><a xlink:href="dir_000189_000385.html" target="_top" xlink:title="3">
<text text-anchor="middle" x="134.72" y="-102.66" font-family="Helvetica,sans-Serif" font-size="10.00" fill="#63b8ff">3</text>
</a>
</g>
</g>
<!-- dir_8f550b51c304fe10978bfd792866fae2&#45;&gt;dir_9be0baa3d4a3e9f480a9ee70594037fa -->
<g id="edge8" class="edge">
<title>dir_8f550b51c304fe10978bfd792866fae2&#45;&gt;dir_9be0baa3d4a3e9f480a9ee70594037fa</title>
<path fill="none" stroke="#63b8ff" d="M145.54,-70.51C155.46,-62.77 170.01,-51.43 181.86,-42.2"/>
<polygon fill="#63b8ff" stroke="#63b8ff" points="183.71,-45.2 189.44,-36.29 179.4,-39.68 183.71,-45.2"/>
<g id="a_edge8&#45;headlabel"><a xlink:href="dir_000385_000166.html" target="_top" xlink:title="37">
<text text-anchor="middle" x="183.81" y="-46.22" font-family="Helvetica,sans-Serif" font-size="10.00" fill="#63b8ff">37</text>
</a>
</g>
</g>
<!-- dir_b8874c233d466218401f983297aca89b -->
<g id="node8" class="node">
<title>dir_b8874c233d466218401f983297aca89b</title>
<g id="a_node8"><a xlink:href="dir_b8874c233d466218401f983297aca89b.html" target="_top" xlink:title="usbhdfsd">
<polygon fill="#60a2e3" stroke="#404040" points="218,-145 162,-145 162,-126 218,-126 218,-145"/>
<text text-anchor="middle" x="190" y="-133" font-family="Helvetica,sans-Serif" font-size="10.00">usbhdfsd</text>
</a>
</g>
</g>
<!-- dir_b8874c233d466218401f983297aca89b&#45;&gt;dir_9be0baa3d4a3e9f480a9ee70594037fa -->
<g id="edge10" class="edge">
<title>dir_b8874c233d466218401f983297aca89b&#45;&gt;dir_9be0baa3d4a3e9f480a9ee70594037fa</title>
<path fill="none" stroke="#63b8ff" d="M191.6,-125.66C193.17,-116.7 195.54,-102.43 197,-90 198.71,-75.49 199.99,-59.05 200.82,-46.53"/>
<polygon fill="#63b8ff" stroke="#63b8ff" points="204.31,-46.86 201.44,-36.66 197.32,-46.42 204.31,-46.86"/>
<g id="a_edge10&#45;headlabel"><a xlink:href="dir_000386_000166.html" target="_top" xlink:title="40">
<text text-anchor="middle" x="207.01" y="-46.61" font-family="Helvetica,sans-Serif" font-size="10.00" fill="#63b8ff">40</text>
</a>
</g>
</g>
<!-- dir_b8874c233d466218401f983297aca89b&#45;&gt;dir_8f550b51c304fe10978bfd792866fae2 -->
<g id="edge9" class="edge">
<title>dir_b8874c233d466218401f983297aca89b&#45;&gt;dir_8f550b51c304fe10978bfd792866fae2</title>
<path fill="none" stroke="#63b8ff" d="M180.5,-125.51C172.57,-118 161.05,-107.1 151.46,-98.03"/>
<polygon fill="#63b8ff" stroke="#63b8ff" points="154.13,-95.73 144.46,-91.4 149.32,-100.81 154.13,-95.73"/>
<g id="a_edge9&#45;headlabel"><a xlink:href="dir_000386_000385.html" target="_top" xlink:title="3">
<text text-anchor="middle" x="157.59" y="-92.6" font-family="Helvetica,sans-Serif" font-size="10.00" fill="#63b8ff">3</text>
</a>
</g>
</g>
<!-- dir_b8874c233d466218401f983297aca89b&#45;&gt;dir_bdd9a5d540de89e9fe90efdfc6973a4f -->
<g id="edge11" class="edge">
<title>dir_b8874c233d466218401f983297aca89b&#45;&gt;dir_bdd9a5d540de89e9fe90efdfc6973a4f</title>
<path fill="none" stroke="#63b8ff" d="M218.22,-127.72C221.18,-127.1 224.15,-126.51 227,-126 345.62,-104.72 380.1,-113 498.71,-90.9"/>
<polygon fill="#63b8ff" stroke="#63b8ff" points="499.03,-94.4 508.2,-89.09 497.72,-87.52 499.03,-94.4"/>
<g id="a_edge11&#45;headlabel"><a xlink:href="dir_000386_000024.html" target="_top" xlink:title="8">
<text text-anchor="middle" x="497.52" y="-95.08" font-family="Helvetica,sans-Serif" font-size="10.00" fill="#63b8ff">8</text>
</a>
</g>
</g>
<!-- dir_b21605a940872bbf5de5d8b063daf48d -->
<g id="node9" class="node">
<title>dir_b21605a940872bbf5de5d8b063daf48d</title>
<g id="a_node9"><a xlink:href="dir_b21605a940872bbf5de5d8b063daf48d.html" target="_top" xlink:title="usbmass_bd">
<polygon fill="#60a2e3" stroke="#404040" points="308,-145 236,-145 236,-126 308,-126 308,-145"/>
<text text-anchor="middle" x="272" y="-133" font-family="Helvetica,sans-Serif" font-size="10.00">usbmass_bd</text>
</a>
</g>
</g>
<!-- dir_b21605a940872bbf5de5d8b063daf48d&#45;&gt;dir_9be0baa3d4a3e9f480a9ee70594037fa -->
<g id="edge13" class="edge">
<title>dir_b21605a940872bbf5de5d8b063daf48d&#45;&gt;dir_9be0baa3d4a3e9f480a9ee70594037fa</title>
<path fill="none" stroke="#63b8ff" d="M266.27,-125.66C254.89,-108.1 229.21,-68.48 213.98,-44.98"/>
<polygon fill="#63b8ff" stroke="#63b8ff" points="217.01,-43.22 208.63,-36.73 211.13,-47.03 217.01,-43.22"/>
<g id="a_edge13&#45;headlabel"><a xlink:href="dir_000387_000166.html" target="_top" xlink:title="15">
<text text-anchor="middle" x="220.52" y="-40.92" font-family="Helvetica,sans-Serif" font-size="10.00" fill="#63b8ff">15</text>
</a>
</g>
</g>
<!-- dir_b21605a940872bbf5de5d8b063daf48d&#45;&gt;dir_f24daea2522ffa8b6dc5fa9cdf5b8f5c -->
<g id="edge15" class="edge">
<title>dir_b21605a940872bbf5de5d8b063daf48d&#45;&gt;dir_f24daea2522ffa8b6dc5fa9cdf5b8f5c</title>
<path fill="none" stroke="#63b8ff" d="M308.45,-126.49C339.9,-119.2 386.68,-107.44 431.44,-92.15"/>
<polygon fill="#63b8ff" stroke="#63b8ff" points="432.44,-95.51 440.73,-88.91 430.13,-88.9 432.44,-95.51"/>
<g id="a_edge15&#45;headlabel"><a xlink:href="dir_000387_000054.html" target="_top" xlink:title="2">
<text text-anchor="middle" x="431.41" y="-96.38" font-family="Helvetica,sans-Serif" font-size="10.00" fill="#63b8ff">2</text>
</a>
</g>
</g>
<!-- dir_b21605a940872bbf5de5d8b063daf48d&#45;&gt;dir_8f550b51c304fe10978bfd792866fae2 -->
<g id="edge12" class="edge">
<title>dir_b21605a940872bbf5de5d8b063daf48d&#45;&gt;dir_8f550b51c304fe10978bfd792866fae2</title>
<path fill="none" stroke="#63b8ff" d="M248.59,-125.51C225.15,-116.51 188.99,-102.62 163.57,-92.86"/>
<polygon fill="#63b8ff" stroke="#63b8ff" points="165.08,-89.69 154.49,-89.37 162.57,-96.22 165.08,-89.69"/>
<g id="a_edge12&#45;headlabel"><a xlink:href="dir_000387_000385.html" target="_top" xlink:title="3">
<text text-anchor="middle" x="168.04" y="-85.28" font-family="Helvetica,sans-Serif" font-size="10.00" fill="#63b8ff">3</text>
</a>
</g>
</g>
<!-- dir_b21605a940872bbf5de5d8b063daf48d&#45;&gt;dir_bdd9a5d540de89e9fe90efdfc6973a4f -->
<g id="edge14" class="edge">
<title>dir_b21605a940872bbf5de5d8b063daf48d&#45;&gt;dir_bdd9a5d540de89e9fe90efdfc6973a4f</title>
<path fill="none" stroke="#63b8ff" d="M308.43,-127.64C362.28,-117.49 460.42,-98.91 498.53,-91.06"/>
<polygon fill="#63b8ff" stroke="#63b8ff" points="499.13,-94.51 508.18,-89 497.67,-87.66 499.13,-94.51"/>
<g id="a_edge14&#45;headlabel"><a xlink:href="dir_000387_000024.html" target="_top" xlink:title="3">
<text text-anchor="middle" x="497.69" y="-95.22" font-family="Helvetica,sans-Serif" font-size="10.00" fill="#63b8ff">3</text>
</a>
</g>
</g>
</g>
</svg>
