<?xml version="1.0" encoding="UTF-8" standalone="no"?>
<!DOCTYPE svg PUBLIC "-//W3C//DTD SVG 1.1//EN"
 "http://www.w3.org/Graphics/SVG/1.1/DTD/svg11.dtd">
<!-- Generated by graphviz version 7.0.5 (20221223.1930)
 -->
<!-- Title: iop/sio/mx4sio_bd/src Pages: 1 -->
<svg width="238pt" height="117pt"
 viewBox="0.00 0.00 237.50 117.00" xmlns="http://www.w3.org/2000/svg" xmlns:xlink="http://www.w3.org/1999/xlink">
<g id="graph0" class="graph" transform="scale(1 1) rotate(0) translate(4 113)">
<title>iop/sio/mx4sio_bd/src</title>
<g id="clust1" class="cluster">
<title>clusterdir_1b4c53ad4cba67b900d09766188e54d5</title>
<g id="a_clust1"><a xlink:href="dir_1b4c53ad4cba67b900d09766188e54d5.html" target="_top" xlink:title="mx4sio_bd">
<polygon fill="#deebf9" stroke="#7f7f7f" stroke-dasharray="5,2" points="90,-47 90,-101 153,-101 153,-47 90,-47"/>
<text text-anchor="middle" x="121.5" y="-89" font-family="Helvetica,sans-Serif" font-size="10.00">mx4sio_bd</text>
</a>
</g>
</g>
<!-- dir_8f4cc36d3d091528309542afe6a411b5 -->
<g id="node1" class="node">
<title>dir_8f4cc36d3d091528309542afe6a411b5</title>
<g id="a_node1"><a xlink:href="dir_8f4cc36d3d091528309542afe6a411b5.html" target="_top" xlink:title="src">
<polygon fill="#deebf9" stroke="#404040" stroke-width="2" points="136,-74 106,-74 106,-55 136,-55 136,-74"/>
<text text-anchor="middle" x="121" y="-62" font-family="Helvetica,sans-Serif" font-size="10.00">src</text>
</a>
</g>
</g>
<!-- dir_40ac35421bc63b72c26b6c69b1517fd6 -->
<g id="node2" class="node">
<title>dir_40ac35421bc63b72c26b6c69b1517fd6</title>
<g id="a_node2"><a xlink:href="dir_40ac35421bc63b72c26b6c69b1517fd6.html" target="_top" xlink:title="system">
<polygon fill="#deebf9" stroke="red" stroke-dasharray="5,2" points="48,-19 0,-19 0,0 48,0 48,-19"/>
<text text-anchor="middle" x="24" y="-7" font-family="Helvetica,sans-Serif" font-size="10.00">system</text>
</a>
</g>
</g>
<!-- dir_8f4cc36d3d091528309542afe6a411b5&#45;&gt;dir_40ac35421bc63b72c26b6c69b1517fd6 -->
<g id="edge1" class="edge">
<title>dir_8f4cc36d3d091528309542afe6a411b5&#45;&gt;dir_40ac35421bc63b72c26b6c69b1517fd6</title>
<path fill="none" stroke="#63b8ff" d="M105.84,-55.22C91.04,-47.13 68.19,-34.65 50.4,-24.92"/>
<polygon fill="#63b8ff" stroke="#63b8ff" points="52.13,-21.88 41.67,-20.16 48.77,-28.02 52.13,-21.88"/>
<g id="a_edge1&#45;headlabel"><a xlink:href="dir_000328_000371.html" target="_top" xlink:title="1">
<text text-anchor="middle" x="55.31" y="-17.89" font-family="Helvetica,sans-Serif" font-size="10.00" fill="#63b8ff">1</text>
</a>
</g>
</g>
<!-- dir_9be0baa3d4a3e9f480a9ee70594037fa -->
<g id="node3" class="node">
<title>dir_9be0baa3d4a3e9f480a9ee70594037fa</title>
<g id="a_node3"><a xlink:href="dir_9be0baa3d4a3e9f480a9ee70594037fa.html" target="_top" xlink:title="kernel">
<polygon fill="#deebf9" stroke="red" stroke-dasharray="5,2" points="109.5,-19 66.5,-19 66.5,0 109.5,0 109.5,-19"/>
<text text-anchor="middle" x="88" y="-7" font-family="Helvetica,sans-Serif" font-size="10.00">kernel</text>
</a>
</g>
</g>
<!-- dir_8f4cc36d3d091528309542afe6a411b5&#45;&gt;dir_9be0baa3d4a3e9f480a9ee70594037fa -->
<g id="edge2" class="edge">
<title>dir_8f4cc36d3d091528309542afe6a411b5&#45;&gt;dir_9be0baa3d4a3e9f480a9ee70594037fa</title>
<path fill="none" stroke="#63b8ff" d="M115.55,-54.75C111.23,-47.81 105.04,-37.86 99.62,-29.16"/>
<polygon fill="#63b8ff" stroke="#63b8ff" points="102.62,-27.37 94.37,-20.73 96.68,-31.07 102.62,-27.37"/>
<g id="a_edge2&#45;headlabel"><a xlink:href="dir_000328_000166.html" target="_top" xlink:title="23">
<text text-anchor="middle" x="106.13" y="-25.13" font-family="Helvetica,sans-Serif" font-size="10.00" fill="#63b8ff">23</text>
</a>
</g>
</g>
<!-- dir_bdd9a5d540de89e9fe90efdfc6973a4f -->
<g id="node4" class="node">
<title>dir_bdd9a5d540de89e9fe90efdfc6973a4f</title>
<g id="a_node4"><a xlink:href="dir_bdd9a5d540de89e9fe90efdfc6973a4f.html" target="_top" xlink:title="common">
<polygon fill="#deebf9" stroke="red" points="182,-19 128,-19 128,0 182,0 182,-19"/>
<text text-anchor="middle" x="155" y="-7" font-family="Helvetica,sans-Serif" font-size="10.00">common</text>
</a>
</g>
</g>
<!-- dir_8f4cc36d3d091528309542afe6a411b5&#45;&gt;dir_bdd9a5d540de89e9fe90efdfc6973a4f -->
<g id="edge3" class="edge">
<title>dir_8f4cc36d3d091528309542afe6a411b5&#45;&gt;dir_bdd9a5d540de89e9fe90efdfc6973a4f</title>
<path fill="none" stroke="#63b8ff" d="M126.61,-54.75C131.12,-47.73 137.59,-37.64 143.21,-28.87"/>
<polygon fill="#63b8ff" stroke="#63b8ff" points="145.99,-31.02 148.45,-20.72 140.1,-27.24 145.99,-31.02"/>
<g id="a_edge3&#45;headlabel"><a xlink:href="dir_000328_000024.html" target="_top" xlink:title="2">
<text text-anchor="middle" x="147.26" y="-31.81" font-family="Helvetica,sans-Serif" font-size="10.00" fill="#63b8ff">2</text>
</a>
</g>
</g>
<!-- dir_f24daea2522ffa8b6dc5fa9cdf5b8f5c -->
<g id="node5" class="node">
<title>dir_f24daea2522ffa8b6dc5fa9cdf5b8f5c</title>
<g id="a_node5"><a xlink:href="dir_f24daea2522ffa8b6dc5fa9cdf5b8f5c.html" target="_top" xlink:title="fs">
<polygon fill="#deebf9" stroke="red" stroke-dasharray="5,2" points="229.5,-19 200.5,-19 200.5,0 229.5,0 229.5,-19"/>
<text text-anchor="middle" x="215" y="-7" font-family="Helvetica,sans-Serif" font-size="10.00">fs</text>
</a>
</g>
</g>
<!-- dir_8f4cc36d3d091528309542afe6a411b5&#45;&gt;dir_f24daea2522ffa8b6dc5fa9cdf5b8f5c -->
<g id="edge4" class="edge">
<title>dir_8f4cc36d3d091528309542afe6a411b5&#45;&gt;dir_f24daea2522ffa8b6dc5fa9cdf5b8f5c</title>
<path fill="none" stroke="#63b8ff" d="M136.1,-54.98C150.72,-46.75 173.12,-34.12 190.32,-24.42"/>
<polygon fill="#63b8ff" stroke="#63b8ff" points="191.93,-27.52 198.93,-19.56 188.5,-21.43 191.93,-27.52"/>
<g id="a_edge4&#45;headlabel"><a xlink:href="dir_000328_000054.html" target="_top" xlink:title="2">
<text text-anchor="middle" x="191.52" y="-28.52" font-family="Helvetica,sans-Serif" font-size="10.00" fill="#63b8ff">2</text>
</a>
</g>
</g>
</g>
</svg>
