<?xml version="1.0" encoding="UTF-8" standalone="no"?>
<!DOCTYPE svg PUBLIC "-//W3C//DTD SVG 1.1//EN"
 "http://www.w3.org/Graphics/SVG/1.1/DTD/svg11.dtd">
<!-- Generated by graphviz version 7.0.5 (20221223.1930)
 -->
<!-- Title: tools Pages: 1 -->
<svg width="560pt" height="98pt"
 viewBox="0.00 0.00 560.00 98.00" xmlns="http://www.w3.org/2000/svg" xmlns:xlink="http://www.w3.org/1999/xlink">
<g id="graph0" class="graph" transform="scale(1 1) rotate(0) translate(4 94)">
<title>tools</title>
<g id="clust1" class="cluster">
<title>clusterdir_4eeb864c4eec08c7d6b9d3b0352cfdde</title>
<g id="a_clust1"><a xlink:href="dir_4eeb864c4eec08c7d6b9d3b0352cfdde.html" target="_top">
<polygon fill="#deebf9" stroke="#404040" stroke-width="2" points="8,-47 8,-82 544,-82 544,-47 8,-47"/>
</a>
</g>
</g>
<!-- dir_4eeb864c4eec08c7d6b9d3b0352cfdde -->
<g id="node1" class="node">
<title>dir_4eeb864c4eec08c7d6b9d3b0352cfdde</title>
<text text-anchor="middle" x="517" y="-62" font-family="Helvetica,sans-Serif" font-size="10.00">tools</text>
</g>
<!-- dir_7ae3e066c48cbf1e456bf7b5af53fbfa -->
<g id="node2" class="node">
<title>dir_7ae3e066c48cbf1e456bf7b5af53fbfa</title>
<g id="a_node2"><a xlink:href="dir_7ae3e066c48cbf1e456bf7b5af53fbfa.html" target="_top" xlink:title="adpenc">
<polygon fill="#60a2e3" stroke="#404040" points="318,-74 270,-74 270,-55 318,-55 318,-74"/>
<text text-anchor="middle" x="294" y="-62" font-family="Helvetica,sans-Serif" font-size="10.00">adpenc</text>
</a>
</g>
</g>
<!-- dir_0981ace215aa2029f526b70c145b9fbe -->
<g id="node9" class="node">
<title>dir_0981ace215aa2029f526b70c145b9fbe</title>
<g id="a_node9"><a xlink:href="dir_0981ace215aa2029f526b70c145b9fbe.html" target="_top" xlink:title="iop">
<polygon fill="#deebf9" stroke="red" points="246.5,-19 217.5,-19 217.5,0 246.5,0 246.5,-19"/>
<text text-anchor="middle" x="232" y="-7" font-family="Helvetica,sans-Serif" font-size="10.00">iop</text>
</a>
</g>
</g>
<!-- dir_7ae3e066c48cbf1e456bf7b5af53fbfa&#45;&gt;dir_0981ace215aa2029f526b70c145b9fbe -->
<g id="edge1" class="edge">
<title>dir_7ae3e066c48cbf1e456bf7b5af53fbfa&#45;&gt;dir_0981ace215aa2029f526b70c145b9fbe</title>
<path fill="none" stroke="#63b8ff" d="M283.48,-54.51C274.61,-46.93 261.69,-35.88 251.01,-26.75"/>
<polygon fill="#63b8ff" stroke="#63b8ff" points="253.39,-24.18 243.51,-20.34 248.84,-29.5 253.39,-24.18"/>
<g id="a_edge1&#45;headlabel"><a xlink:href="dir_000002_000159.html" target="_top" xlink:title="4">
<text text-anchor="middle" x="256.81" y="-20.87" font-family="Helvetica,sans-Serif" font-size="10.00" fill="#63b8ff">4</text>
</a>
</g>
</g>
<!-- dir_bdd9a5d540de89e9fe90efdfc6973a4f -->
<g id="node10" class="node">
<title>dir_bdd9a5d540de89e9fe90efdfc6973a4f</title>
<g id="a_node10"><a xlink:href="dir_bdd9a5d540de89e9fe90efdfc6973a4f.html" target="_top" xlink:title="common">
<polygon fill="#deebf9" stroke="red" points="394,-19 340,-19 340,0 394,0 394,-19"/>
<text text-anchor="middle" x="367" y="-7" font-family="Helvetica,sans-Serif" font-size="10.00">common</text>
</a>
</g>
</g>
<!-- dir_7ae3e066c48cbf1e456bf7b5af53fbfa&#45;&gt;dir_bdd9a5d540de89e9fe90efdfc6973a4f -->
<g id="edge2" class="edge">
<title>dir_7ae3e066c48cbf1e456bf7b5af53fbfa&#45;&gt;dir_bdd9a5d540de89e9fe90efdfc6973a4f</title>
<path fill="none" stroke="#63b8ff" d="M306.38,-54.51C317.15,-46.7 332.97,-35.21 345.75,-25.93"/>
<polygon fill="#63b8ff" stroke="#63b8ff" points="347.54,-28.95 353.57,-20.25 343.43,-23.29 347.54,-28.95"/>
<g id="a_edge2&#45;headlabel"><a xlink:href="dir_000002_000024.html" target="_top" xlink:title="2">
<text text-anchor="middle" x="347.52" y="-29.97" font-family="Helvetica,sans-Serif" font-size="10.00" fill="#63b8ff">2</text>
</a>
</g>
</g>
<!-- dir_4aa7630bf94b1e948c1a72cd18b9557b -->
<g id="node3" class="node">
<title>dir_4aa7630bf94b1e948c1a72cd18b9557b</title>
<g id="a_node3"><a xlink:href="dir_4aa7630bf94b1e948c1a72cd18b9557b.html" target="_top" xlink:title="bin2c">
<polygon fill="#60a2e3" stroke="#404040" points="114,-74 74,-74 74,-55 114,-55 114,-74"/>
<text text-anchor="middle" x="94" y="-62" font-family="Helvetica,sans-Serif" font-size="10.00">bin2c</text>
</a>
</g>
</g>
<!-- dir_4aa7630bf94b1e948c1a72cd18b9557b&#45;&gt;dir_0981ace215aa2029f526b70c145b9fbe -->
<g id="edge3" class="edge">
<title>dir_4aa7630bf94b1e948c1a72cd18b9557b&#45;&gt;dir_0981ace215aa2029f526b70c145b9fbe</title>
<path fill="none" stroke="#63b8ff" d="M109,-54.57C113.71,-51.95 118.99,-49.2 124,-47 151.34,-34.98 183.96,-24.45 206.15,-17.83"/>
<polygon fill="#63b8ff" stroke="#63b8ff" points="206.94,-21.24 215.56,-15.08 204.98,-14.52 206.94,-21.24"/>
<g id="a_edge3&#45;headlabel"><a xlink:href="dir_000016_000159.html" target="_top" xlink:title="1">
<text text-anchor="middle" x="205.74" y="-22.05" font-family="Helvetica,sans-Serif" font-size="10.00" fill="#63b8ff">1</text>
</a>
</g>
</g>
<!-- dir_90d18d66127e5ec40df88c252424a1a5 -->
<g id="node4" class="node">
<title>dir_90d18d66127e5ec40df88c252424a1a5</title>
<g id="a_node4"><a xlink:href="dir_90d18d66127e5ec40df88c252424a1a5.html" target="_top" xlink:title="bin2o">
<polygon fill="#60a2e3" stroke="#404040" points="56,-74 16,-74 16,-55 56,-55 56,-74"/>
<text text-anchor="middle" x="36" y="-62" font-family="Helvetica,sans-Serif" font-size="10.00">bin2o</text>
</a>
</g>
</g>
<!-- dir_90d18d66127e5ec40df88c252424a1a5&#45;&gt;dir_0981ace215aa2029f526b70c145b9fbe -->
<g id="edge4" class="edge">
<title>dir_90d18d66127e5ec40df88c252424a1a5&#45;&gt;dir_0981ace215aa2029f526b70c145b9fbe</title>
<path fill="none" stroke="#63b8ff" d="M49.74,-54.55C54.43,-51.81 59.81,-48.99 65,-47 113.12,-28.54 172.81,-18.33 206.23,-13.67"/>
<polygon fill="#63b8ff" stroke="#63b8ff" points="206.33,-17.19 215.78,-12.4 205.4,-10.25 206.33,-17.19"/>
<g id="a_edge4&#45;headlabel"><a xlink:href="dir_000017_000159.html" target="_top" xlink:title="1">
<text text-anchor="middle" x="204.64" y="-17.78" font-family="Helvetica,sans-Serif" font-size="10.00" fill="#63b8ff">1</text>
</a>
</g>
</g>
<!-- dir_89b1a64fe2e6470e02bd91188984ecb8 -->
<g id="node5" class="node">
<title>dir_89b1a64fe2e6470e02bd91188984ecb8</title>
<g id="a_node5"><a xlink:href="dir_89b1a64fe2e6470e02bd91188984ecb8.html" target="_top" xlink:title="bin2s">
<polygon fill="#60a2e3" stroke="#404040" points="252,-74 212,-74 212,-55 252,-55 252,-74"/>
<text text-anchor="middle" x="232" y="-62" font-family="Helvetica,sans-Serif" font-size="10.00">bin2s</text>
</a>
</g>
</g>
<!-- dir_89b1a64fe2e6470e02bd91188984ecb8&#45;&gt;dir_0981ace215aa2029f526b70c145b9fbe -->
<g id="edge5" class="edge">
<title>dir_89b1a64fe2e6470e02bd91188984ecb8&#45;&gt;dir_0981ace215aa2029f526b70c145b9fbe</title>
<path fill="none" stroke="#63b8ff" d="M232,-54.75C232,-48.27 232,-39.16 232,-30.9"/>
<polygon fill="#63b8ff" stroke="#63b8ff" points="235.5,-30.96 232,-20.96 228.5,-30.96 235.5,-30.96"/>
<g id="a_edge5&#45;headlabel"><a xlink:href="dir_000018_000159.html" target="_top" xlink:title="1">
<text text-anchor="middle" x="238.34" y="-30.54" font-family="Helvetica,sans-Serif" font-size="10.00" fill="#63b8ff">1</text>
</a>
</g>
</g>
<!-- dir_2feef82756d5481f2e3fcf626f1975a7 -->
<g id="node6" class="node">
<title>dir_2feef82756d5481f2e3fcf626f1975a7</title>
<g id="a_node6"><a xlink:href="dir_2feef82756d5481f2e3fcf626f1975a7.html" target="_top" xlink:title="gensymtab">
<polygon fill="#60a2e3" stroke="#404040" points="480,-74 416,-74 416,-55 480,-55 480,-74"/>
<text text-anchor="middle" x="448" y="-62" font-family="Helvetica,sans-Serif" font-size="10.00">gensymtab</text>
</a>
</g>
</g>
<!-- dir_2feef82756d5481f2e3fcf626f1975a7&#45;&gt;dir_0981ace215aa2029f526b70c145b9fbe -->
<g id="edge6" class="edge">
<title>dir_2feef82756d5481f2e3fcf626f1975a7&#45;&gt;dir_0981ace215aa2029f526b70c145b9fbe</title>
<path fill="none" stroke="#63b8ff" d="M427.82,-54.55C421.26,-51.87 413.9,-49.09 407,-47 354.92,-31.23 292.09,-19.94 257.67,-14.39"/>
<polygon fill="#63b8ff" stroke="#63b8ff" points="258.66,-11 248.23,-12.9 257.57,-17.92 258.66,-11"/>
<g id="a_edge6&#45;headlabel"><a xlink:href="dir_000055_000159.html" target="_top" xlink:title="1">
<text text-anchor="middle" x="261.15" y="-6.02" font-family="Helvetica,sans-Serif" font-size="10.00" fill="#63b8ff">1</text>
</a>
</g>
</g>
<!-- dir_2feef82756d5481f2e3fcf626f1975a7&#45;&gt;dir_bdd9a5d540de89e9fe90efdfc6973a4f -->
<g id="edge7" class="edge">
<title>dir_2feef82756d5481f2e3fcf626f1975a7&#45;&gt;dir_bdd9a5d540de89e9fe90efdfc6973a4f</title>
<path fill="none" stroke="#63b8ff" d="M434.26,-54.51C422.2,-46.62 404.41,-34.98 390.16,-25.65"/>
<polygon fill="#63b8ff" stroke="#63b8ff" points="392.09,-22.73 381.8,-20.19 388.26,-28.59 392.09,-22.73"/>
<g id="a_edge7&#45;headlabel"><a xlink:href="dir_000055_000024.html" target="_top" xlink:title="1">
<text text-anchor="middle" x="395.38" y="-19" font-family="Helvetica,sans-Serif" font-size="10.00" fill="#63b8ff">1</text>
</a>
</g>
</g>
<!-- dir_92da0d7cbf784bf8c518f9b82538e0f7 -->
<g id="node7" class="node">
<title>dir_92da0d7cbf784bf8c518f9b82538e0f7</title>
<g id="a_node7"><a xlink:href="dir_92da0d7cbf784bf8c518f9b82538e0f7.html" target="_top" xlink:title="ps2&#45;irxgen">
<polygon fill="#60a2e3" stroke="#404040" points="193.5,-74 132.5,-74 132.5,-55 193.5,-55 193.5,-74"/>
<text text-anchor="middle" x="163" y="-62" font-family="Helvetica,sans-Serif" font-size="10.00">ps2&#45;irxgen</text>
</a>
</g>
</g>
<!-- dir_92da0d7cbf784bf8c518f9b82538e0f7&#45;&gt;dir_0981ace215aa2029f526b70c145b9fbe -->
<g id="edge8" class="edge">
<title>dir_92da0d7cbf784bf8c518f9b82538e0f7&#45;&gt;dir_0981ace215aa2029f526b70c145b9fbe</title>
<path fill="none" stroke="#63b8ff" d="M174.7,-54.51C184.78,-46.77 199.54,-35.43 211.56,-26.2"/>
<polygon fill="#63b8ff" stroke="#63b8ff" points="213.47,-29.15 219.27,-20.28 209.21,-23.6 213.47,-29.15"/>
<g id="a_edge8&#45;headlabel"><a xlink:href="dir_000211_000159.html" target="_top" xlink:title="3">
<text text-anchor="middle" x="213.55" y="-30.17" font-family="Helvetica,sans-Serif" font-size="10.00" fill="#63b8ff">3</text>
</a>
</g>
</g>
<!-- dir_47818b46b1cf08114dcb647bd070ea80 -->
<g id="node8" class="node">
<title>dir_47818b46b1cf08114dcb647bd070ea80</title>
<g id="a_node8"><a xlink:href="dir_47818b46b1cf08114dcb647bd070ea80.html" target="_top" xlink:title="ps2adpcm">
<polygon fill="#60a2e3" stroke="#404040" points="398,-74 336,-74 336,-55 398,-55 398,-74"/>
<text text-anchor="middle" x="367" y="-62" font-family="Helvetica,sans-Serif" font-size="10.00">ps2adpcm</text>
</a>
</g>
</g>
<!-- dir_47818b46b1cf08114dcb647bd070ea80&#45;&gt;dir_0981ace215aa2029f526b70c145b9fbe -->
<g id="edge9" class="edge">
<title>dir_47818b46b1cf08114dcb647bd070ea80&#45;&gt;dir_0981ace215aa2029f526b70c145b9fbe</title>
<path fill="none" stroke="#63b8ff" d="M345.86,-54.67C339.79,-52.16 333.14,-49.45 327,-47 303.51,-37.64 276.59,-27.34 257.42,-20.08"/>
<polygon fill="#63b8ff" stroke="#63b8ff" points="258.86,-16.88 248.27,-16.61 256.38,-23.42 258.86,-16.88"/>
<g id="a_edge9&#45;headlabel"><a xlink:href="dir_000212_000159.html" target="_top" xlink:title="4">
<text text-anchor="middle" x="261.81" y="-12.46" font-family="Helvetica,sans-Serif" font-size="10.00" fill="#63b8ff">4</text>
</a>
</g>
</g>
<!-- dir_47818b46b1cf08114dcb647bd070ea80&#45;&gt;dir_bdd9a5d540de89e9fe90efdfc6973a4f -->
<g id="edge10" class="edge">
<title>dir_47818b46b1cf08114dcb647bd070ea80&#45;&gt;dir_bdd9a5d540de89e9fe90efdfc6973a4f</title>
<path fill="none" stroke="#63b8ff" d="M367,-54.75C367,-48.27 367,-39.16 367,-30.9"/>
<polygon fill="#63b8ff" stroke="#63b8ff" points="370.5,-30.96 367,-20.96 363.5,-30.96 370.5,-30.96"/>
<g id="a_edge10&#45;headlabel"><a xlink:href="dir_000212_000024.html" target="_top" xlink:title="1">
<text text-anchor="middle" x="373.34" y="-30.54" font-family="Helvetica,sans-Serif" font-size="10.00" fill="#63b8ff">1</text>
</a>
</g>
</g>
</g>
</svg>
