<?xml version="1.0" encoding="UTF-8" standalone="no"?>
<!DOCTYPE svg PUBLIC "-//W3C//DTD SVG 1.1//EN"
 "http://www.w3.org/Graphics/SVG/1.1/DTD/svg11.dtd">
<!-- Generated by graphviz version 7.0.5 (20221223.1930)
 -->
<!-- Title: iop/dev9/extflash/src Pages: 1 -->
<svg width="262pt" height="133pt"
 viewBox="0.00 0.00 262.00 133.00" xmlns="http://www.w3.org/2000/svg" xmlns:xlink="http://www.w3.org/1999/xlink">
<g id="graph0" class="graph" transform="scale(1 1) rotate(0) translate(4 129)">
<title>iop/dev9/extflash/src</title>
<g id="clust1" class="cluster">
<title>clusterdir_f44f46f2cd21d59a913dd7de442a4869</title>
<g id="a_clust1"><a xlink:href="dir_f44f46f2cd21d59a913dd7de442a4869.html" target="_top" xlink:title="extflash">
<polygon fill="#deebf9" stroke="#7f7f7f" stroke-dasharray="5,2" points="8,-8 8,-117 72,-117 72,-8 8,-8"/>
<text text-anchor="middle" x="40" y="-105" font-family="Helvetica,sans-Serif" font-size="10.00">extflash</text>
</a>
</g>
</g>
<!-- dir_465291803e00dfefa1e1a83db7deacb1 -->
<g id="node1" class="node">
<title>dir_465291803e00dfefa1e1a83db7deacb1</title>
<g id="a_node1"><a xlink:href="dir_465291803e00dfefa1e1a83db7deacb1.html" target="_top" xlink:title="include">
<polygon fill="#60a2e3" stroke="#404040" points="63.5,-35 16.5,-35 16.5,-16 63.5,-16 63.5,-35"/>
<text text-anchor="middle" x="40" y="-23" font-family="Helvetica,sans-Serif" font-size="10.00">include</text>
</a>
</g>
</g>
<!-- dir_0a4671ad047c01d5afa56274ab81ddbc -->
<g id="node2" class="node">
<title>dir_0a4671ad047c01d5afa56274ab81ddbc</title>
<g id="a_node2"><a xlink:href="dir_0a4671ad047c01d5afa56274ab81ddbc.html" target="_top" xlink:title="src">
<polygon fill="#deebf9" stroke="#404040" stroke-width="2" points="64,-90 34,-90 34,-71 64,-71 64,-90"/>
<text text-anchor="middle" x="49" y="-78" font-family="Helvetica,sans-Serif" font-size="10.00">src</text>
</a>
</g>
</g>
<!-- dir_0a4671ad047c01d5afa56274ab81ddbc&#45;&gt;dir_465291803e00dfefa1e1a83db7deacb1 -->
<g id="edge2" class="edge">
<title>dir_0a4671ad047c01d5afa56274ab81ddbc&#45;&gt;dir_465291803e00dfefa1e1a83db7deacb1</title>
<path fill="none" stroke="#63b8ff" d="M47.51,-70.75C46.4,-64.19 44.83,-54.95 43.41,-46.6"/>
<polygon fill="#63b8ff" stroke="#63b8ff" points="46.9,-46.21 41.77,-36.93 40,-47.38 46.9,-46.21"/>
<g id="a_edge2&#45;headlabel"><a xlink:href="dir_000290_000113.html" target="_top" xlink:title="1">
<text text-anchor="middle" x="50.04" y="-45.28" font-family="Helvetica,sans-Serif" font-size="10.00" fill="#63b8ff">1</text>
</a>
</g>
</g>
<!-- dir_18566863331aaba44604539ca78be099 -->
<g id="node3" class="node">
<title>dir_18566863331aaba44604539ca78be099</title>
<g id="a_node3"><a xlink:href="dir_18566863331aaba44604539ca78be099.html" target="_top" xlink:title="dev9">
<polygon fill="#deebf9" stroke="red" stroke-dasharray="5,2" points="120,-35 82,-35 82,-16 120,-16 120,-35"/>
<text text-anchor="middle" x="101" y="-23" font-family="Helvetica,sans-Serif" font-size="10.00">dev9</text>
</a>
</g>
</g>
<!-- dir_0a4671ad047c01d5afa56274ab81ddbc&#45;&gt;dir_18566863331aaba44604539ca78be099 -->
<g id="edge1" class="edge">
<title>dir_0a4671ad047c01d5afa56274ab81ddbc&#45;&gt;dir_18566863331aaba44604539ca78be099</title>
<path fill="none" stroke="#63b8ff" d="M57.59,-70.75C64.84,-63.35 75.45,-52.54 84.37,-43.45"/>
<polygon fill="#63b8ff" stroke="#63b8ff" points="86.66,-46.11 91.17,-36.52 81.66,-41.21 86.66,-46.11"/>
<g id="a_edge1&#45;headlabel"><a xlink:href="dir_000290_000029.html" target="_top" xlink:title="1">
<text text-anchor="middle" x="87.23" y="-47.09" font-family="Helvetica,sans-Serif" font-size="10.00" fill="#63b8ff">1</text>
</a>
</g>
</g>
<!-- dir_9be0baa3d4a3e9f480a9ee70594037fa -->
<g id="node4" class="node">
<title>dir_9be0baa3d4a3e9f480a9ee70594037fa</title>
<g id="a_node4"><a xlink:href="dir_9be0baa3d4a3e9f480a9ee70594037fa.html" target="_top" xlink:title="kernel">
<polygon fill="#deebf9" stroke="red" stroke-dasharray="5,2" points="181.5,-35 138.5,-35 138.5,-16 181.5,-16 181.5,-35"/>
<text text-anchor="middle" x="160" y="-23" font-family="Helvetica,sans-Serif" font-size="10.00">kernel</text>
</a>
</g>
</g>
<!-- dir_0a4671ad047c01d5afa56274ab81ddbc&#45;&gt;dir_9be0baa3d4a3e9f480a9ee70594037fa -->
<g id="edge3" class="edge">
<title>dir_0a4671ad047c01d5afa56274ab81ddbc&#45;&gt;dir_9be0baa3d4a3e9f480a9ee70594037fa</title>
<path fill="none" stroke="#63b8ff" d="M64.43,-72.13C81.66,-63.91 109.91,-50.42 131.24,-40.23"/>
<polygon fill="#63b8ff" stroke="#63b8ff" points="132.48,-43.52 140,-36.05 129.47,-37.2 132.48,-43.52"/>
<g id="a_edge3&#45;headlabel"><a xlink:href="dir_000290_000166.html" target="_top" xlink:title="19">
<text text-anchor="middle" x="131.83" y="-44.48" font-family="Helvetica,sans-Serif" font-size="10.00" fill="#63b8ff">19</text>
</a>
</g>
</g>
<!-- dir_bdd9a5d540de89e9fe90efdfc6973a4f -->
<g id="node5" class="node">
<title>dir_bdd9a5d540de89e9fe90efdfc6973a4f</title>
<g id="a_node5"><a xlink:href="dir_bdd9a5d540de89e9fe90efdfc6973a4f.html" target="_top" xlink:title="common">
<polygon fill="#deebf9" stroke="red" points="254,-35 200,-35 200,-16 254,-16 254,-35"/>
<text text-anchor="middle" x="227" y="-23" font-family="Helvetica,sans-Serif" font-size="10.00">common</text>
</a>
</g>
</g>
<!-- dir_0a4671ad047c01d5afa56274ab81ddbc&#45;&gt;dir_bdd9a5d540de89e9fe90efdfc6973a4f -->
<g id="edge4" class="edge">
<title>dir_0a4671ad047c01d5afa56274ab81ddbc&#45;&gt;dir_bdd9a5d540de89e9fe90efdfc6973a4f</title>
<path fill="none" stroke="#63b8ff" d="M64.48,-74.89C91.97,-66.71 150.02,-49.42 188.77,-37.88"/>
<polygon fill="#63b8ff" stroke="#63b8ff" points="189.6,-41.29 198.19,-35.08 187.6,-34.58 189.6,-41.29"/>
<g id="a_edge4&#45;headlabel"><a xlink:href="dir_000290_000024.html" target="_top" xlink:title="2">
<text text-anchor="middle" x="188.42" y="-42.1" font-family="Helvetica,sans-Serif" font-size="10.00" fill="#63b8ff">2</text>
</a>
</g>
</g>
</g>
</svg>
