<?xml version="1.0" encoding="UTF-8" standalone="no"?>
<!DOCTYPE svg PUBLIC "-//W3C//DTD SVG 1.1//EN"
 "http://www.w3.org/Graphics/SVG/1.1/DTD/svg11.dtd">
<!-- Generated by graphviz version 7.0.5 (20221223.1930)
 -->
<!-- Title: ee/network/netman Pages: 1 -->
<svg width="223pt" height="125pt"
 viewBox="0.00 0.00 222.50 125.00" xmlns="http://www.w3.org/2000/svg" xmlns:xlink="http://www.w3.org/1999/xlink">
<g id="graph0" class="graph" transform="scale(1 1) rotate(0) translate(4 121)">
<title>ee/network/netman</title>
<g id="clust1" class="cluster">
<title>clusterdir_b47d22a23da27aa98d6e01bcdbde3243</title>
<g id="a_clust1"><a xlink:href="dir_b47d22a23da27aa98d6e01bcdbde3243.html" target="_top" xlink:title="network">
<polygon fill="#deebf9" stroke="#7f7f7f" stroke-dasharray="5,2" points="76.5,-39 76.5,-109 206.5,-109 206.5,-39 76.5,-39"/>
<text text-anchor="middle" x="141.5" y="-97" font-family="Helvetica,sans-Serif" font-size="10.00">network</text>
</a>
</g>
</g>
<g id="clust2" class="cluster">
<title>clusterdir_2103a4ed81746d00ca3b9488f9daf9c4</title>
<g id="a_clust2"><a xlink:href="dir_2103a4ed81746d00ca3b9488f9daf9c4.html" target="_top">
<polygon fill="#deebf9" stroke="#404040" stroke-width="2" points="84.5,-47 84.5,-82 198.5,-82 198.5,-47 84.5,-47"/>
</a>
</g>
</g>
<!-- dir_2103a4ed81746d00ca3b9488f9daf9c4 -->
<g id="node1" class="node">
<title>dir_2103a4ed81746d00ca3b9488f9daf9c4</title>
<text text-anchor="middle" x="165.5" y="-62" font-family="Helvetica,sans-Serif" font-size="10.00">netman</text>
</g>
<!-- dir_702336a0435434f6b8cf6e517dc2db4d -->
<g id="node2" class="node">
<title>dir_702336a0435434f6b8cf6e517dc2db4d</title>
<g id="a_node2"><a xlink:href="dir_702336a0435434f6b8cf6e517dc2db4d.html" target="_top" xlink:title="src">
<polygon fill="#60a2e3" stroke="#404040" points="122.5,-74 92.5,-74 92.5,-55 122.5,-55 122.5,-74"/>
<text text-anchor="middle" x="107.5" y="-62" font-family="Helvetica,sans-Serif" font-size="10.00">src</text>
</a>
</g>
</g>
<!-- dir_a0a8ac7efb6662b749c1285408048e6d -->
<g id="node3" class="node">
<title>dir_a0a8ac7efb6662b749c1285408048e6d</title>
<g id="a_node3"><a xlink:href="dir_a0a8ac7efb6662b749c1285408048e6d.html" target="_top" xlink:title="erl">
<polygon fill="#deebf9" stroke="red" stroke-dasharray="5,2" points="29,-19 0,-19 0,0 29,0 29,-19"/>
<text text-anchor="middle" x="14.5" y="-7" font-family="Helvetica,sans-Serif" font-size="10.00">erl</text>
</a>
</g>
</g>
<!-- dir_702336a0435434f6b8cf6e517dc2db4d&#45;&gt;dir_a0a8ac7efb6662b749c1285408048e6d -->
<g id="edge3" class="edge">
<title>dir_702336a0435434f6b8cf6e517dc2db4d&#45;&gt;dir_a0a8ac7efb6662b749c1285408048e6d</title>
<path fill="none" stroke="#63b8ff" d="M92.14,-54.75C77.7,-46.52 55.85,-34.06 39,-24.46"/>
<polygon fill="#63b8ff" stroke="#63b8ff" points="41,-21.57 30.58,-19.66 37.54,-27.66 41,-21.57"/>
<g id="a_edge3&#45;headlabel"><a xlink:href="dir_000261_000045.html" target="_top" xlink:title="1">
<text text-anchor="middle" x="44.22" y="-17.64" font-family="Helvetica,sans-Serif" font-size="10.00" fill="#63b8ff">1</text>
</a>
</g>
</g>
<!-- dir_bdd9a5d540de89e9fe90efdfc6973a4f -->
<g id="node4" class="node">
<title>dir_bdd9a5d540de89e9fe90efdfc6973a4f</title>
<g id="a_node4"><a xlink:href="dir_bdd9a5d540de89e9fe90efdfc6973a4f.html" target="_top" xlink:title="common">
<polygon fill="#deebf9" stroke="red" points="101.5,-19 47.5,-19 47.5,0 101.5,0 101.5,-19"/>
<text text-anchor="middle" x="74.5" y="-7" font-family="Helvetica,sans-Serif" font-size="10.00">common</text>
</a>
</g>
</g>
<!-- dir_702336a0435434f6b8cf6e517dc2db4d&#45;&gt;dir_bdd9a5d540de89e9fe90efdfc6973a4f -->
<g id="edge4" class="edge">
<title>dir_702336a0435434f6b8cf6e517dc2db4d&#45;&gt;dir_bdd9a5d540de89e9fe90efdfc6973a4f</title>
<path fill="none" stroke="#63b8ff" d="M102.05,-54.75C97.73,-47.81 91.54,-37.86 86.12,-29.16"/>
<polygon fill="#63b8ff" stroke="#63b8ff" points="89.12,-27.37 80.87,-20.73 83.18,-31.07 89.12,-27.37"/>
<g id="a_edge4&#45;headlabel"><a xlink:href="dir_000261_000024.html" target="_top" xlink:title="9">
<text text-anchor="middle" x="92.63" y="-25.13" font-family="Helvetica,sans-Serif" font-size="10.00" fill="#63b8ff">9</text>
</a>
</g>
</g>
<!-- dir_694ec83a64f58cbdefbefce65cd1011c -->
<g id="node5" class="node">
<title>dir_694ec83a64f58cbdefbefce65cd1011c</title>
<g id="a_node5"><a xlink:href="dir_694ec83a64f58cbdefbefce65cd1011c.html" target="_top" xlink:title="kernel">
<polygon fill="#deebf9" stroke="red" stroke-dasharray="5,2" points="163,-19 120,-19 120,0 163,0 163,-19"/>
<text text-anchor="middle" x="141.5" y="-7" font-family="Helvetica,sans-Serif" font-size="10.00">kernel</text>
</a>
</g>
</g>
<!-- dir_702336a0435434f6b8cf6e517dc2db4d&#45;&gt;dir_694ec83a64f58cbdefbefce65cd1011c -->
<g id="edge2" class="edge">
<title>dir_702336a0435434f6b8cf6e517dc2db4d&#45;&gt;dir_694ec83a64f58cbdefbefce65cd1011c</title>
<path fill="none" stroke="#63b8ff" d="M113.11,-54.75C117.62,-47.73 124.09,-37.64 129.71,-28.87"/>
<polygon fill="#63b8ff" stroke="#63b8ff" points="132.49,-31.02 134.95,-20.72 126.6,-27.24 132.49,-31.02"/>
<g id="a_edge2&#45;headlabel"><a xlink:href="dir_000261_000165.html" target="_top" xlink:title="3">
<text text-anchor="middle" x="133.76" y="-31.81" font-family="Helvetica,sans-Serif" font-size="10.00" fill="#63b8ff">3</text>
</a>
</g>
</g>
<!-- dir_0981ace215aa2029f526b70c145b9fbe -->
<g id="node6" class="node">
<title>dir_0981ace215aa2029f526b70c145b9fbe</title>
<g id="a_node6"><a xlink:href="dir_0981ace215aa2029f526b70c145b9fbe.html" target="_top" xlink:title="iop">
<polygon fill="#deebf9" stroke="red" points="210,-19 181,-19 181,0 210,0 210,-19"/>
<text text-anchor="middle" x="195.5" y="-7" font-family="Helvetica,sans-Serif" font-size="10.00">iop</text>
</a>
</g>
</g>
<!-- dir_702336a0435434f6b8cf6e517dc2db4d&#45;&gt;dir_0981ace215aa2029f526b70c145b9fbe -->
<g id="edge1" class="edge">
<title>dir_702336a0435434f6b8cf6e517dc2db4d&#45;&gt;dir_0981ace215aa2029f526b70c145b9fbe</title>
<path fill="none" stroke="#63b8ff" d="M115.19,-54.54C119.83,-49.52 126.08,-43.39 132.5,-39 139.05,-34.52 155.65,-27.06 170.17,-20.89"/>
<polygon fill="#63b8ff" stroke="#63b8ff" points="171.39,-24.18 179.27,-17.09 168.69,-17.72 171.39,-24.18"/>
<g id="a_edge1&#45;headlabel"><a xlink:href="dir_000261_000159.html" target="_top" xlink:title="1">
<text text-anchor="middle" x="170.57" y="-25.1" font-family="Helvetica,sans-Serif" font-size="10.00" fill="#63b8ff">1</text>
</a>
</g>
</g>
</g>
</svg>
