<?xml version="1.0" encoding="UTF-8" standalone="no"?>
<!DOCTYPE svg PUBLIC "-//W3C//DTD SVG 1.1//EN"
 "http://www.w3.org/Graphics/SVG/1.1/DTD/svg11.dtd">
<!-- Generated by graphviz version 7.0.5 (20221223.1930)
 -->
<!-- Title: iop/sio Pages: 1 -->
<svg width="253pt" height="141pt"
 viewBox="0.00 0.00 253.00 141.00" xmlns="http://www.w3.org/2000/svg" xmlns:xlink="http://www.w3.org/1999/xlink">
<g id="graph0" class="graph" transform="scale(1 1) rotate(0) translate(4 137)">
<title>iop/sio</title>
<g id="clust1" class="cluster">
<title>clusterdir_0981ace215aa2029f526b70c145b9fbe</title>
<g id="a_clust1"><a xlink:href="dir_0981ace215aa2029f526b70c145b9fbe.html" target="_top" xlink:title="iop">
<polygon fill="#deebf9" stroke="#404040" stroke-dasharray="5,2" points="8,-8 8,-125 181,-125 181,-8 8,-8"/>
<text text-anchor="middle" x="94.5" y="-113" font-family="Helvetica,sans-Serif" font-size="10.00">iop</text>
</a>
</g>
</g>
<g id="clust2" class="cluster">
<title>clusterdir_6133ef156cce03413acfdeebec722ba1</title>
<g id="a_clust2"><a xlink:href="dir_6133ef156cce03413acfdeebec722ba1.html" target="_top">
<polygon fill="#deebf9" stroke="#404040" stroke-width="2" points="46,-63 46,-98 173,-98 173,-63 46,-63"/>
</a>
</g>
</g>
<!-- dir_9be0baa3d4a3e9f480a9ee70594037fa -->
<g id="node1" class="node">
<title>dir_9be0baa3d4a3e9f480a9ee70594037fa</title>
<g id="a_node1"><a xlink:href="dir_9be0baa3d4a3e9f480a9ee70594037fa.html" target="_top" xlink:title="kernel">
<polygon fill="#60a2e3" stroke="red" points="59.5,-35 16.5,-35 16.5,-16 59.5,-16 59.5,-35"/>
<text text-anchor="middle" x="38" y="-23" font-family="Helvetica,sans-Serif" font-size="10.00">kernel</text>
</a>
</g>
</g>
<!-- dir_f24daea2522ffa8b6dc5fa9cdf5b8f5c -->
<g id="node2" class="node">
<title>dir_f24daea2522ffa8b6dc5fa9cdf5b8f5c</title>
<g id="a_node2"><a xlink:href="dir_f24daea2522ffa8b6dc5fa9cdf5b8f5c.html" target="_top" xlink:title="fs">
<polygon fill="#60a2e3" stroke="red" points="106.5,-35 77.5,-35 77.5,-16 106.5,-16 106.5,-35"/>
<text text-anchor="middle" x="92" y="-23" font-family="Helvetica,sans-Serif" font-size="10.00">fs</text>
</a>
</g>
</g>
<!-- dir_40ac35421bc63b72c26b6c69b1517fd6 -->
<g id="node3" class="node">
<title>dir_40ac35421bc63b72c26b6c69b1517fd6</title>
<g id="a_node3"><a xlink:href="dir_40ac35421bc63b72c26b6c69b1517fd6.html" target="_top" xlink:title="system">
<polygon fill="#60a2e3" stroke="red" points="173,-35 125,-35 125,-16 173,-16 173,-35"/>
<text text-anchor="middle" x="149" y="-23" font-family="Helvetica,sans-Serif" font-size="10.00">system</text>
</a>
</g>
</g>
<!-- dir_6133ef156cce03413acfdeebec722ba1 -->
<g id="node4" class="node">
<title>dir_6133ef156cce03413acfdeebec722ba1</title>
<text text-anchor="middle" x="150" y="-78" font-family="Helvetica,sans-Serif" font-size="10.00">sio</text>
</g>
<!-- dir_1b4c53ad4cba67b900d09766188e54d5 -->
<g id="node5" class="node">
<title>dir_1b4c53ad4cba67b900d09766188e54d5</title>
<g id="a_node5"><a xlink:href="dir_1b4c53ad4cba67b900d09766188e54d5.html" target="_top" xlink:title="mx4sio_bd">
<polygon fill="#60a2e3" stroke="#404040" points="117.5,-90 54.5,-90 54.5,-71 117.5,-71 117.5,-90"/>
<text text-anchor="middle" x="86" y="-78" font-family="Helvetica,sans-Serif" font-size="10.00">mx4sio_bd</text>
</a>
</g>
</g>
<!-- dir_1b4c53ad4cba67b900d09766188e54d5&#45;&gt;dir_9be0baa3d4a3e9f480a9ee70594037fa -->
<g id="edge1" class="edge">
<title>dir_1b4c53ad4cba67b900d09766188e54d5&#45;&gt;dir_9be0baa3d4a3e9f480a9ee70594037fa</title>
<path fill="none" stroke="#63b8ff" d="M78.07,-70.75C71.44,-63.43 61.78,-52.76 53.61,-43.74"/>
<polygon fill="#63b8ff" stroke="#63b8ff" points="56.42,-41.63 47.11,-36.56 51.23,-46.33 56.42,-41.63"/>
<g id="a_edge1&#45;headlabel"><a xlink:href="dir_000194_000166.html" target="_top" xlink:title="23">
<text text-anchor="middle" x="59.92" y="-38.76" font-family="Helvetica,sans-Serif" font-size="10.00" fill="#63b8ff">23</text>
</a>
</g>
</g>
<!-- dir_1b4c53ad4cba67b900d09766188e54d5&#45;&gt;dir_f24daea2522ffa8b6dc5fa9cdf5b8f5c -->
<g id="edge2" class="edge">
<title>dir_1b4c53ad4cba67b900d09766188e54d5&#45;&gt;dir_f24daea2522ffa8b6dc5fa9cdf5b8f5c</title>
<path fill="none" stroke="#63b8ff" d="M86.99,-70.75C87.73,-64.19 88.78,-54.95 89.72,-46.6"/>
<polygon fill="#63b8ff" stroke="#63b8ff" points="93.17,-47.28 90.82,-36.95 86.21,-46.49 93.17,-47.28"/>
<g id="a_edge2&#45;headlabel"><a xlink:href="dir_000194_000054.html" target="_top" xlink:title="2">
<text text-anchor="middle" x="95.76" y="-47.16" font-family="Helvetica,sans-Serif" font-size="10.00" fill="#63b8ff">2</text>
</a>
</g>
</g>
<!-- dir_1b4c53ad4cba67b900d09766188e54d5&#45;&gt;dir_40ac35421bc63b72c26b6c69b1517fd6 -->
<g id="edge3" class="edge">
<title>dir_1b4c53ad4cba67b900d09766188e54d5&#45;&gt;dir_40ac35421bc63b72c26b6c69b1517fd6</title>
<path fill="none" stroke="#63b8ff" d="M96.69,-70.51C105.7,-62.93 118.83,-51.88 129.68,-42.75"/>
<polygon fill="#63b8ff" stroke="#63b8ff" points="131.91,-45.45 137.31,-36.33 127.41,-40.09 131.91,-45.45"/>
<g id="a_edge3&#45;headlabel"><a xlink:href="dir_000194_000371.html" target="_top" xlink:title="1">
<text text-anchor="middle" x="132.15" y="-46.46" font-family="Helvetica,sans-Serif" font-size="10.00" fill="#63b8ff">1</text>
</a>
</g>
</g>
<!-- dir_bdd9a5d540de89e9fe90efdfc6973a4f -->
<g id="node6" class="node">
<title>dir_bdd9a5d540de89e9fe90efdfc6973a4f</title>
<g id="a_node6"><a xlink:href="dir_bdd9a5d540de89e9fe90efdfc6973a4f.html" target="_top" xlink:title="common">
<polygon fill="#deebf9" stroke="red" points="245,-35 191,-35 191,-16 245,-16 245,-35"/>
<text text-anchor="middle" x="218" y="-23" font-family="Helvetica,sans-Serif" font-size="10.00">common</text>
</a>
</g>
</g>
<!-- dir_1b4c53ad4cba67b900d09766188e54d5&#45;&gt;dir_bdd9a5d540de89e9fe90efdfc6973a4f -->
<g id="edge4" class="edge">
<title>dir_1b4c53ad4cba67b900d09766188e54d5&#45;&gt;dir_bdd9a5d540de89e9fe90efdfc6973a4f</title>
<path fill="none" stroke="#63b8ff" d="M108.13,-70.59C114.24,-68.13 120.88,-65.46 127,-63 146.18,-55.3 167.63,-46.69 184.89,-39.77"/>
<polygon fill="#63b8ff" stroke="#63b8ff" points="186.17,-43.03 194.15,-36.06 183.57,-36.53 186.17,-43.03"/>
<g id="a_edge4&#45;headlabel"><a xlink:href="dir_000194_000024.html" target="_top" xlink:title="2">
<text text-anchor="middle" x="185.3" y="-43.94" font-family="Helvetica,sans-Serif" font-size="10.00" fill="#63b8ff">2</text>
</a>
</g>
</g>
</g>
</svg>
