<?xml version="1.0" encoding="UTF-8" standalone="no"?>
<!DOCTYPE svg PUBLIC "-//W3C//DTD SVG 1.1//EN"
 "http://www.w3.org/Graphics/SVG/1.1/DTD/svg11.dtd">
<!-- Generated by graphviz version 7.0.5 (20221223.1930)
 -->
<!-- Title: iop/tcpip/tcpip Pages: 1 -->
<svg width="208pt" height="125pt"
 viewBox="0.00 0.00 208.00 125.00" xmlns="http://www.w3.org/2000/svg" xmlns:xlink="http://www.w3.org/1999/xlink">
<g id="graph0" class="graph" transform="scale(1 1) rotate(0) translate(4 121)">
<title>iop/tcpip/tcpip</title>
<g id="clust1" class="cluster">
<title>clusterdir_cb38d55d28446d14702541320714f23c</title>
<g id="a_clust1"><a xlink:href="dir_cb38d55d28446d14702541320714f23c.html" target="_top" xlink:title="tcpip">
<polygon fill="#deebf9" stroke="#7f7f7f" stroke-dasharray="5,2" points="8,-39 8,-109 192,-109 192,-39 8,-39"/>
<text text-anchor="middle" x="100" y="-97" font-family="Helvetica,sans-Serif" font-size="10.00">tcpip</text>
</a>
</g>
</g>
<g id="clust2" class="cluster">
<title>clusterdir_1e6823be46b3bf5bb635c8394bb31ba4</title>
<g id="a_clust2"><a xlink:href="dir_1e6823be46b3bf5bb635c8394bb31ba4.html" target="_top">
<polygon fill="#deebf9" stroke="#404040" stroke-width="2" points="16,-47 16,-82 184,-82 184,-47 16,-47"/>
</a>
</g>
</g>
<!-- dir_1e6823be46b3bf5bb635c8394bb31ba4 -->
<g id="node1" class="node">
<title>dir_1e6823be46b3bf5bb635c8394bb31ba4</title>
<text text-anchor="middle" x="157" y="-62" font-family="Helvetica,sans-Serif" font-size="10.00">tcpip</text>
</g>
<!-- dir_63f4f3a4e1ed51b283da57602199373c -->
<g id="node2" class="node">
<title>dir_63f4f3a4e1ed51b283da57602199373c</title>
<g id="a_node2"><a xlink:href="dir_63f4f3a4e1ed51b283da57602199373c.html" target="_top" xlink:title="include">
<polygon fill="#60a2e3" stroke="#404040" points="119.5,-74 72.5,-74 72.5,-55 119.5,-55 119.5,-74"/>
<text text-anchor="middle" x="96" y="-62" font-family="Helvetica,sans-Serif" font-size="10.00">include</text>
</a>
</g>
</g>
<!-- dir_9be0baa3d4a3e9f480a9ee70594037fa -->
<g id="node4" class="node">
<title>dir_9be0baa3d4a3e9f480a9ee70594037fa</title>
<g id="a_node4"><a xlink:href="dir_9be0baa3d4a3e9f480a9ee70594037fa.html" target="_top" xlink:title="kernel">
<polygon fill="#deebf9" stroke="red" stroke-dasharray="5,2" points="60.5,-19 17.5,-19 17.5,0 60.5,0 60.5,-19"/>
<text text-anchor="middle" x="39" y="-7" font-family="Helvetica,sans-Serif" font-size="10.00">kernel</text>
</a>
</g>
</g>
<!-- dir_63f4f3a4e1ed51b283da57602199373c&#45;&gt;dir_9be0baa3d4a3e9f480a9ee70594037fa -->
<g id="edge1" class="edge">
<title>dir_63f4f3a4e1ed51b283da57602199373c&#45;&gt;dir_9be0baa3d4a3e9f480a9ee70594037fa</title>
<path fill="none" stroke="#63b8ff" d="M86.33,-54.51C78.26,-47 66.53,-36.1 56.78,-27.03"/>
<polygon fill="#63b8ff" stroke="#63b8ff" points="59.34,-24.63 49.63,-20.39 54.57,-29.76 59.34,-24.63"/>
<g id="a_edge1&#45;headlabel"><a xlink:href="dir_000149_000166.html" target="_top" xlink:title="2">
<text text-anchor="middle" x="62.8" y="-21.47" font-family="Helvetica,sans-Serif" font-size="10.00" fill="#63b8ff">2</text>
</a>
</g>
</g>
<!-- dir_bdd9a5d540de89e9fe90efdfc6973a4f -->
<g id="node5" class="node">
<title>dir_bdd9a5d540de89e9fe90efdfc6973a4f</title>
<g id="a_node5"><a xlink:href="dir_bdd9a5d540de89e9fe90efdfc6973a4f.html" target="_top" xlink:title="common">
<polygon fill="#deebf9" stroke="red" points="133,-19 79,-19 79,0 133,0 133,-19"/>
<text text-anchor="middle" x="106" y="-7" font-family="Helvetica,sans-Serif" font-size="10.00">common</text>
</a>
</g>
</g>
<!-- dir_63f4f3a4e1ed51b283da57602199373c&#45;&gt;dir_bdd9a5d540de89e9fe90efdfc6973a4f -->
<g id="edge2" class="edge">
<title>dir_63f4f3a4e1ed51b283da57602199373c&#45;&gt;dir_bdd9a5d540de89e9fe90efdfc6973a4f</title>
<path fill="none" stroke="#63b8ff" d="M97.65,-54.75C98.89,-48.19 100.63,-38.95 102.21,-30.6"/>
<polygon fill="#63b8ff" stroke="#63b8ff" points="105.62,-31.4 104.03,-20.93 98.74,-30.11 105.62,-31.4"/>
<g id="a_edge2&#45;headlabel"><a xlink:href="dir_000149_000024.html" target="_top" xlink:title="1">
<text text-anchor="middle" x="108.02" y="-31.48" font-family="Helvetica,sans-Serif" font-size="10.00" fill="#63b8ff">1</text>
</a>
</g>
</g>
<!-- dir_7d0a621685e4738f4449cb73774f552c -->
<g id="node3" class="node">
<title>dir_7d0a621685e4738f4449cb73774f552c</title>
<g id="a_node3"><a xlink:href="dir_7d0a621685e4738f4449cb73774f552c.html" target="_top" xlink:title="src">
<polygon fill="#60a2e3" stroke="#404040" points="54,-74 24,-74 24,-55 54,-55 54,-74"/>
<text text-anchor="middle" x="39" y="-62" font-family="Helvetica,sans-Serif" font-size="10.00">src</text>
</a>
</g>
</g>
<!-- dir_7d0a621685e4738f4449cb73774f552c&#45;&gt;dir_9be0baa3d4a3e9f480a9ee70594037fa -->
<g id="edge3" class="edge">
<title>dir_7d0a621685e4738f4449cb73774f552c&#45;&gt;dir_9be0baa3d4a3e9f480a9ee70594037fa</title>
<path fill="none" stroke="#63b8ff" d="M39,-54.75C39,-48.27 39,-39.16 39,-30.9"/>
<polygon fill="#63b8ff" stroke="#63b8ff" points="42.5,-30.96 39,-20.96 35.5,-30.96 42.5,-30.96"/>
<g id="a_edge3&#45;headlabel"><a xlink:href="dir_000349_000166.html" target="_top" xlink:title="16">
<text text-anchor="middle" x="45.34" y="-30.54" font-family="Helvetica,sans-Serif" font-size="10.00" fill="#63b8ff">16</text>
</a>
</g>
</g>
</g>
</svg>
