<?xml version="1.0" encoding="UTF-8" standalone="no"?>
<!DOCTYPE svg PUBLIC "-//W3C//DTD SVG 1.1//EN"
 "http://www.w3.org/Graphics/SVG/1.1/DTD/svg11.dtd">
<!-- Generated by graphviz version 7.0.5 (20221223.1930)
 -->
<!-- Title: iop/system/padman Pages: 1 -->
<svg width="200pt" height="141pt"
 viewBox="0.00 0.00 199.50 141.00" xmlns="http://www.w3.org/2000/svg" xmlns:xlink="http://www.w3.org/1999/xlink">
<g id="graph0" class="graph" transform="scale(1 1) rotate(0) translate(4 137)">
<title>iop/system/padman</title>
<g id="clust1" class="cluster">
<title>clusterdir_40ac35421bc63b72c26b6c69b1517fd6</title>
<g id="a_clust1"><a xlink:href="dir_40ac35421bc63b72c26b6c69b1517fd6.html" target="_top" xlink:title="system">
<polygon fill="#deebf9" stroke="#7f7f7f" stroke-dasharray="5,2" points="8,-8 8,-125 140,-125 140,-8 8,-8"/>
<text text-anchor="middle" x="74" y="-113" font-family="Helvetica,sans-Serif" font-size="10.00">system</text>
</a>
</g>
</g>
<g id="clust2" class="cluster">
<title>clusterdir_cb26f304a37e679cc21ccc4e4a07be73</title>
<g id="a_clust2"><a xlink:href="dir_cb26f304a37e679cc21ccc4e4a07be73.html" target="_top">
<polygon fill="#deebf9" stroke="#404040" stroke-width="2" points="16,-63 16,-98 132,-98 132,-63 16,-63"/>
</a>
</g>
</g>
<!-- dir_1fd4d135da32a6b9ad91946f648cae84 -->
<g id="node1" class="node">
<title>dir_1fd4d135da32a6b9ad91946f648cae84</title>
<g id="a_node1"><a xlink:href="dir_1fd4d135da32a6b9ad91946f648cae84.html" target="_top" xlink:title="sio2man">
<polygon fill="#60a2e3" stroke="red" points="69.5,-35 16.5,-35 16.5,-16 69.5,-16 69.5,-35"/>
<text text-anchor="middle" x="43" y="-23" font-family="Helvetica,sans-Serif" font-size="10.00">sio2man</text>
</a>
</g>
</g>
<!-- dir_cb26f304a37e679cc21ccc4e4a07be73 -->
<g id="node2" class="node">
<title>dir_cb26f304a37e679cc21ccc4e4a07be73</title>
<text text-anchor="middle" x="98" y="-78" font-family="Helvetica,sans-Serif" font-size="10.00">padman</text>
</g>
<!-- dir_12dc7cff0c3b2c52dc4bc086c7616969 -->
<g id="node3" class="node">
<title>dir_12dc7cff0c3b2c52dc4bc086c7616969</title>
<g id="a_node3"><a xlink:href="dir_12dc7cff0c3b2c52dc4bc086c7616969.html" target="_top" xlink:title="src">
<polygon fill="#60a2e3" stroke="#404040" points="54,-90 24,-90 24,-71 54,-71 54,-90"/>
<text text-anchor="middle" x="39" y="-78" font-family="Helvetica,sans-Serif" font-size="10.00">src</text>
</a>
</g>
</g>
<!-- dir_12dc7cff0c3b2c52dc4bc086c7616969&#45;&gt;dir_1fd4d135da32a6b9ad91946f648cae84 -->
<g id="edge1" class="edge">
<title>dir_12dc7cff0c3b2c52dc4bc086c7616969&#45;&gt;dir_1fd4d135da32a6b9ad91946f648cae84</title>
<path fill="none" stroke="#63b8ff" d="M39.66,-70.75C40.15,-64.27 40.84,-55.16 41.46,-46.9"/>
<polygon fill="#63b8ff" stroke="#63b8ff" points="44.95,-47.19 42.21,-36.95 37.97,-46.66 44.95,-47.19"/>
<g id="a_edge1&#45;headlabel"><a xlink:href="dir_000339_000230.html" target="_top" xlink:title="2">
<text text-anchor="middle" x="47.62" y="-46.98" font-family="Helvetica,sans-Serif" font-size="10.00" fill="#63b8ff">2</text>
</a>
</g>
</g>
<!-- dir_9be0baa3d4a3e9f480a9ee70594037fa -->
<g id="node4" class="node">
<title>dir_9be0baa3d4a3e9f480a9ee70594037fa</title>
<g id="a_node4"><a xlink:href="dir_9be0baa3d4a3e9f480a9ee70594037fa.html" target="_top" xlink:title="kernel">
<polygon fill="#deebf9" stroke="red" stroke-dasharray="5,2" points="191.5,-35 148.5,-35 148.5,-16 191.5,-16 191.5,-35"/>
<text text-anchor="middle" x="170" y="-23" font-family="Helvetica,sans-Serif" font-size="10.00">kernel</text>
</a>
</g>
</g>
<!-- dir_12dc7cff0c3b2c52dc4bc086c7616969&#45;&gt;dir_9be0baa3d4a3e9f480a9ee70594037fa -->
<g id="edge2" class="edge">
<title>dir_12dc7cff0c3b2c52dc4bc086c7616969&#45;&gt;dir_9be0baa3d4a3e9f480a9ee70594037fa</title>
<path fill="none" stroke="#63b8ff" d="M51.09,-70.63C55.08,-67.96 59.61,-65.16 64,-63 70.82,-59.64 108.81,-46.78 137.37,-37.28"/>
<polygon fill="#63b8ff" stroke="#63b8ff" points="138.33,-40.65 146.72,-34.17 136.12,-34 138.33,-40.65"/>
<g id="a_edge2&#45;headlabel"><a xlink:href="dir_000339_000166.html" target="_top" xlink:title="43">
<text text-anchor="middle" x="137.25" y="-41.5" font-family="Helvetica,sans-Serif" font-size="10.00" fill="#63b8ff">43</text>
</a>
</g>
</g>
</g>
</svg>
