<?xml version="1.0" encoding="UTF-8" standalone="no"?>
<!DOCTYPE svg PUBLIC "-//W3C//DTD SVG 1.1//EN"
 "http://www.w3.org/Graphics/SVG/1.1/DTD/svg11.dtd">
<!-- Generated by graphviz version 7.0.5 (20221223.1930)
 -->
<!-- Title: iop/kernel Pages: 1 -->
<svg width="219pt" height="141pt"
 viewBox="0.00 0.00 219.00 141.00" xmlns="http://www.w3.org/2000/svg" xmlns:xlink="http://www.w3.org/1999/xlink">
<g id="graph0" class="graph" transform="scale(1 1) rotate(0) translate(4 137)">
<title>iop/kernel</title>
<g id="clust1" class="cluster">
<title>clusterdir_0981ace215aa2029f526b70c145b9fbe</title>
<g id="a_clust1"><a xlink:href="dir_0981ace215aa2029f526b70c145b9fbe.html" target="_top" xlink:title="iop">
<polygon fill="#deebf9" stroke="#404040" stroke-dasharray="5,2" points="8,-8 8,-125 149,-125 149,-8 8,-8"/>
<text text-anchor="middle" x="78.5" y="-113" font-family="Helvetica,sans-Serif" font-size="10.00">iop</text>
</a>
</g>
</g>
<g id="clust2" class="cluster">
<title>clusterdir_9be0baa3d4a3e9f480a9ee70594037fa</title>
<g id="a_clust2"><a xlink:href="dir_9be0baa3d4a3e9f480a9ee70594037fa.html" target="_top">
<polygon fill="#deebf9" stroke="#404040" stroke-width="2" points="16,-63 16,-98 141,-98 141,-63 16,-63"/>
</a>
</g>
</g>
<!-- dir_40ac35421bc63b72c26b6c69b1517fd6 -->
<g id="node1" class="node">
<title>dir_40ac35421bc63b72c26b6c69b1517fd6</title>
<g id="a_node1"><a xlink:href="dir_40ac35421bc63b72c26b6c69b1517fd6.html" target="_top" xlink:title="system">
<polygon fill="#60a2e3" stroke="red" points="72,-35 24,-35 24,-16 72,-16 72,-35"/>
<text text-anchor="middle" x="48" y="-23" font-family="Helvetica,sans-Serif" font-size="10.00">system</text>
</a>
</g>
</g>
<!-- dir_9be0baa3d4a3e9f480a9ee70594037fa -->
<g id="node2" class="node">
<title>dir_9be0baa3d4a3e9f480a9ee70594037fa</title>
<text text-anchor="middle" x="111" y="-78" font-family="Helvetica,sans-Serif" font-size="10.00">kernel</text>
</g>
<!-- dir_28a909d5f29a09cdabda212007cd73f7 -->
<g id="node3" class="node">
<title>dir_28a909d5f29a09cdabda212007cd73f7</title>
<g id="a_node3"><a xlink:href="dir_28a909d5f29a09cdabda212007cd73f7.html" target="_top" xlink:title="include">
<polygon fill="#60a2e3" stroke="#404040" points="71.5,-90 24.5,-90 24.5,-71 71.5,-71 71.5,-90"/>
<text text-anchor="middle" x="48" y="-78" font-family="Helvetica,sans-Serif" font-size="10.00">include</text>
</a>
</g>
</g>
<!-- dir_28a909d5f29a09cdabda212007cd73f7&#45;&gt;dir_40ac35421bc63b72c26b6c69b1517fd6 -->
<g id="edge1" class="edge">
<title>dir_28a909d5f29a09cdabda212007cd73f7&#45;&gt;dir_40ac35421bc63b72c26b6c69b1517fd6</title>
<path fill="none" stroke="#63b8ff" d="M48,-70.75C48,-64.27 48,-55.16 48,-46.9"/>
<polygon fill="#63b8ff" stroke="#63b8ff" points="51.5,-46.96 48,-36.96 44.5,-46.96 51.5,-46.96"/>
<g id="a_edge1&#45;headlabel"><a xlink:href="dir_000130_000371.html" target="_top" xlink:title="2">
<text text-anchor="middle" x="54.34" y="-46.54" font-family="Helvetica,sans-Serif" font-size="10.00" fill="#63b8ff">2</text>
</a>
</g>
</g>
<!-- dir_bdd9a5d540de89e9fe90efdfc6973a4f -->
<g id="node4" class="node">
<title>dir_bdd9a5d540de89e9fe90efdfc6973a4f</title>
<g id="a_node4"><a xlink:href="dir_bdd9a5d540de89e9fe90efdfc6973a4f.html" target="_top" xlink:title="common">
<polygon fill="#deebf9" stroke="red" points="211,-35 157,-35 157,-16 211,-16 211,-35"/>
<text text-anchor="middle" x="184" y="-23" font-family="Helvetica,sans-Serif" font-size="10.00">common</text>
</a>
</g>
</g>
<!-- dir_28a909d5f29a09cdabda212007cd73f7&#45;&gt;dir_bdd9a5d540de89e9fe90efdfc6973a4f -->
<g id="edge2" class="edge">
<title>dir_28a909d5f29a09cdabda212007cd73f7&#45;&gt;dir_bdd9a5d540de89e9fe90efdfc6973a4f</title>
<path fill="none" stroke="#63b8ff" d="M64.94,-70.53C70.04,-67.97 75.69,-65.26 81,-63 102.11,-54.02 126.27,-45.38 145.87,-38.76"/>
<polygon fill="#63b8ff" stroke="#63b8ff" points="146.72,-42.17 155.11,-35.69 144.51,-35.53 146.72,-42.17"/>
<g id="a_edge2&#45;headlabel"><a xlink:href="dir_000130_000024.html" target="_top" xlink:title="12">
<text text-anchor="middle" x="145.65" y="-43.02" font-family="Helvetica,sans-Serif" font-size="10.00" fill="#63b8ff">12</text>
</a>
</g>
</g>
</g>
</svg>
