<?xml version="1.0" encoding="UTF-8" standalone="no"?>
<!DOCTYPE svg PUBLIC "-//W3C//DTD SVG 1.1//EN"
 "http://www.w3.org/Graphics/SVG/1.1/DTD/svg11.dtd">
<!-- Generated by graphviz version 7.0.5 (20221223.1930)
 -->
<!-- Title: common/sbus/src Pages: 1 -->
<svg width="231pt" height="133pt"
 viewBox="0.00 0.00 230.50 133.00" xmlns="http://www.w3.org/2000/svg" xmlns:xlink="http://www.w3.org/1999/xlink">
<g id="graph0" class="graph" transform="scale(1 1) rotate(0) translate(4 129)">
<title>common/sbus/src</title>
<g id="clust1" class="cluster">
<title>clusterdir_58a8fc8f1a03774579661b06bb97dd1a</title>
<g id="a_clust1"><a xlink:href="dir_58a8fc8f1a03774579661b06bb97dd1a.html" target="_top" xlink:title="sbus">
<polygon fill="#deebf9" stroke="#7f7f7f" stroke-dasharray="5,2" points="8,-8 8,-117 72,-117 72,-8 8,-8"/>
<text text-anchor="middle" x="40" y="-105" font-family="Helvetica,sans-Serif" font-size="10.00">sbus</text>
</a>
</g>
</g>
<!-- dir_71fde4f0207fc0e816aa54ff3c3cace1 -->
<g id="node1" class="node">
<title>dir_71fde4f0207fc0e816aa54ff3c3cace1</title>
<g id="a_node1"><a xlink:href="dir_71fde4f0207fc0e816aa54ff3c3cace1.html" target="_top" xlink:title="include">
<polygon fill="#60a2e3" stroke="#404040" points="63.5,-35 16.5,-35 16.5,-16 63.5,-16 63.5,-35"/>
<text text-anchor="middle" x="40" y="-23" font-family="Helvetica,sans-Serif" font-size="10.00">include</text>
</a>
</g>
</g>
<!-- dir_b86d8e8cc4ff73a3835f86acf7570149 -->
<g id="node2" class="node">
<title>dir_b86d8e8cc4ff73a3835f86acf7570149</title>
<g id="a_node2"><a xlink:href="dir_b86d8e8cc4ff73a3835f86acf7570149.html" target="_top" xlink:title="src">
<polygon fill="#deebf9" stroke="#404040" stroke-width="2" points="64,-90 34,-90 34,-71 64,-71 64,-90"/>
<text text-anchor="middle" x="49" y="-78" font-family="Helvetica,sans-Serif" font-size="10.00">src</text>
</a>
</g>
</g>
<!-- dir_b86d8e8cc4ff73a3835f86acf7570149&#45;&gt;dir_71fde4f0207fc0e816aa54ff3c3cace1 -->
<g id="edge4" class="edge">
<title>dir_b86d8e8cc4ff73a3835f86acf7570149&#45;&gt;dir_71fde4f0207fc0e816aa54ff3c3cace1</title>
<path fill="none" stroke="#63b8ff" d="M47.51,-70.75C46.4,-64.19 44.83,-54.95 43.41,-46.6"/>
<polygon fill="#63b8ff" stroke="#63b8ff" points="46.9,-46.21 41.77,-36.93 40,-47.38 46.9,-46.21"/>
<g id="a_edge4&#45;headlabel"><a xlink:href="dir_000237_000067.html" target="_top" xlink:title="8">
<text text-anchor="middle" x="50.04" y="-45.28" font-family="Helvetica,sans-Serif" font-size="10.00" fill="#63b8ff">8</text>
</a>
</g>
</g>
<!-- dir_049738f1909e8dc3e45fe1f6b3faa109 -->
<g id="node3" class="node">
<title>dir_049738f1909e8dc3e45fe1f6b3faa109</title>
<g id="a_node3"><a xlink:href="dir_049738f1909e8dc3e45fe1f6b3faa109.html" target="_top" xlink:title="ee">
<polygon fill="#deebf9" stroke="red" points="110.5,-35 81.5,-35 81.5,-16 110.5,-16 110.5,-35"/>
<text text-anchor="middle" x="96" y="-23" font-family="Helvetica,sans-Serif" font-size="10.00">ee</text>
</a>
</g>
</g>
<!-- dir_b86d8e8cc4ff73a3835f86acf7570149&#45;&gt;dir_049738f1909e8dc3e45fe1f6b3faa109 -->
<g id="edge1" class="edge">
<title>dir_b86d8e8cc4ff73a3835f86acf7570149&#45;&gt;dir_049738f1909e8dc3e45fe1f6b3faa109</title>
<path fill="none" stroke="#63b8ff" d="M56.76,-70.75C63.19,-63.5 72.51,-52.98 80.46,-44.02"/>
<polygon fill="#63b8ff" stroke="#63b8ff" points="83.05,-46.38 87.07,-36.57 77.81,-41.73 83.05,-46.38"/>
<g id="a_edge1&#45;headlabel"><a xlink:href="dir_000237_000040.html" target="_top" xlink:title="1">
<text text-anchor="middle" x="83.79" y="-47.32" font-family="Helvetica,sans-Serif" font-size="10.00" fill="#63b8ff">1</text>
</a>
</g>
</g>
<!-- dir_0981ace215aa2029f526b70c145b9fbe -->
<g id="node4" class="node">
<title>dir_0981ace215aa2029f526b70c145b9fbe</title>
<g id="a_node4"><a xlink:href="dir_0981ace215aa2029f526b70c145b9fbe.html" target="_top" xlink:title="iop">
<polygon fill="#deebf9" stroke="red" points="157.5,-35 128.5,-35 128.5,-16 157.5,-16 157.5,-35"/>
<text text-anchor="middle" x="143" y="-23" font-family="Helvetica,sans-Serif" font-size="10.00">iop</text>
</a>
</g>
</g>
<!-- dir_b86d8e8cc4ff73a3835f86acf7570149&#45;&gt;dir_0981ace215aa2029f526b70c145b9fbe -->
<g id="edge2" class="edge">
<title>dir_b86d8e8cc4ff73a3835f86acf7570149&#45;&gt;dir_0981ace215aa2029f526b70c145b9fbe</title>
<path fill="none" stroke="#63b8ff" d="M64.1,-70.98C78.72,-62.75 101.12,-50.12 118.32,-40.42"/>
<polygon fill="#63b8ff" stroke="#63b8ff" points="119.93,-43.52 126.93,-35.56 116.5,-37.43 119.93,-43.52"/>
<g id="a_edge2&#45;headlabel"><a xlink:href="dir_000237_000159.html" target="_top" xlink:title="18">
<text text-anchor="middle" x="119.52" y="-44.52" font-family="Helvetica,sans-Serif" font-size="10.00" fill="#63b8ff">18</text>
</a>
</g>
</g>
<!-- dir_11fbc4217d50ab21044e5ad6614aede5 -->
<g id="node5" class="node">
<title>dir_11fbc4217d50ab21044e5ad6614aede5</title>
<g id="a_node5"><a xlink:href="dir_11fbc4217d50ab21044e5ad6614aede5.html" target="_top" xlink:title="include">
<polygon fill="#deebf9" stroke="red" stroke-dasharray="5,2" points="222.5,-35 175.5,-35 175.5,-16 222.5,-16 222.5,-35"/>
<text text-anchor="middle" x="199" y="-23" font-family="Helvetica,sans-Serif" font-size="10.00">include</text>
</a>
</g>
</g>
<!-- dir_b86d8e8cc4ff73a3835f86acf7570149&#45;&gt;dir_11fbc4217d50ab21044e5ad6614aede5 -->
<g id="edge3" class="edge">
<title>dir_b86d8e8cc4ff73a3835f86acf7570149&#45;&gt;dir_11fbc4217d50ab21044e5ad6614aede5</title>
<path fill="none" stroke="#63b8ff" d="M64.49,-74.03C87.99,-65.72 133.25,-49.73 164.75,-38.6"/>
<polygon fill="#63b8ff" stroke="#63b8ff" points="165.57,-42.03 173.83,-35.39 163.23,-35.43 165.57,-42.03"/>
<g id="a_edge3&#45;headlabel"><a xlink:href="dir_000237_000066.html" target="_top" xlink:title="18">
<text text-anchor="middle" x="164.55" y="-42.9" font-family="Helvetica,sans-Serif" font-size="10.00" fill="#63b8ff">18</text>
</a>
</g>
</g>
</g>
</svg>
