<?xml version="1.0" encoding="UTF-8" standalone="no"?>
<!DOCTYPE svg PUBLIC "-//W3C//DTD SVG 1.1//EN"
 "http://www.w3.org/Graphics/SVG/1.1/DTD/svg11.dtd">
<!-- Generated by graphviz version 7.0.5 (20221223.1930)
 -->
<!-- Title: iop/cdvd Pages: 1 -->
<svg width="202pt" height="141pt"
 viewBox="0.00 0.00 202.00 141.00" xmlns="http://www.w3.org/2000/svg" xmlns:xlink="http://www.w3.org/1999/xlink">
<g id="graph0" class="graph" transform="scale(1 1) rotate(0) translate(4 137)">
<title>iop/cdvd</title>
<g id="clust1" class="cluster">
<title>clusterdir_0981ace215aa2029f526b70c145b9fbe</title>
<g id="a_clust1"><a xlink:href="dir_0981ace215aa2029f526b70c145b9fbe.html" target="_top" xlink:title="iop">
<polygon fill="#deebf9" stroke="#404040" stroke-dasharray="5,2" points="8,-8 8,-125 132,-125 132,-8 8,-8"/>
<text text-anchor="middle" x="70" y="-113" font-family="Helvetica,sans-Serif" font-size="10.00">iop</text>
</a>
</g>
</g>
<g id="clust2" class="cluster">
<title>clusterdir_a12d8da7b0731a57c6a388326ad5e612</title>
<g id="a_clust2"><a xlink:href="dir_a12d8da7b0731a57c6a388326ad5e612.html" target="_top">
<polygon fill="#deebf9" stroke="#404040" stroke-width="2" points="16,-63 16,-98 124,-98 124,-63 16,-63"/>
</a>
</g>
</g>
<!-- dir_9be0baa3d4a3e9f480a9ee70594037fa -->
<g id="node1" class="node">
<title>dir_9be0baa3d4a3e9f480a9ee70594037fa</title>
<g id="a_node1"><a xlink:href="dir_9be0baa3d4a3e9f480a9ee70594037fa.html" target="_top" xlink:title="kernel">
<polygon fill="#60a2e3" stroke="red" points="63.5,-35 20.5,-35 20.5,-16 63.5,-16 63.5,-35"/>
<text text-anchor="middle" x="42" y="-23" font-family="Helvetica,sans-Serif" font-size="10.00">kernel</text>
</a>
</g>
</g>
<!-- dir_a12d8da7b0731a57c6a388326ad5e612 -->
<g id="node2" class="node">
<title>dir_a12d8da7b0731a57c6a388326ad5e612</title>
<text text-anchor="middle" x="97" y="-78" font-family="Helvetica,sans-Serif" font-size="10.00">cdvd</text>
</g>
<!-- dir_ae2e5b2d61c32fda6e87ab98b4cec460 -->
<g id="node3" class="node">
<title>dir_ae2e5b2d61c32fda6e87ab98b4cec460</title>
<g id="a_node3"><a xlink:href="dir_ae2e5b2d61c32fda6e87ab98b4cec460.html" target="_top" xlink:title="cdfs">
<polygon fill="#60a2e3" stroke="#404040" points="59.5,-90 24.5,-90 24.5,-71 59.5,-71 59.5,-90"/>
<text text-anchor="middle" x="42" y="-78" font-family="Helvetica,sans-Serif" font-size="10.00">cdfs</text>
</a>
</g>
</g>
<!-- dir_ae2e5b2d61c32fda6e87ab98b4cec460&#45;&gt;dir_9be0baa3d4a3e9f480a9ee70594037fa -->
<g id="edge1" class="edge">
<title>dir_ae2e5b2d61c32fda6e87ab98b4cec460&#45;&gt;dir_9be0baa3d4a3e9f480a9ee70594037fa</title>
<path fill="none" stroke="#63b8ff" d="M42,-70.75C42,-64.27 42,-55.16 42,-46.9"/>
<polygon fill="#63b8ff" stroke="#63b8ff" points="45.5,-46.96 42,-36.96 38.5,-46.96 45.5,-46.96"/>
<g id="a_edge1&#45;headlabel"><a xlink:href="dir_000021_000166.html" target="_top" xlink:title="16">
<text text-anchor="middle" x="48.34" y="-46.54" font-family="Helvetica,sans-Serif" font-size="10.00" fill="#63b8ff">16</text>
</a>
</g>
</g>
<!-- dir_bdd9a5d540de89e9fe90efdfc6973a4f -->
<g id="node4" class="node">
<title>dir_bdd9a5d540de89e9fe90efdfc6973a4f</title>
<g id="a_node4"><a xlink:href="dir_bdd9a5d540de89e9fe90efdfc6973a4f.html" target="_top" xlink:title="common">
<polygon fill="#deebf9" stroke="red" points="194,-35 140,-35 140,-16 194,-16 194,-35"/>
<text text-anchor="middle" x="167" y="-23" font-family="Helvetica,sans-Serif" font-size="10.00">common</text>
</a>
</g>
</g>
<!-- dir_ae2e5b2d61c32fda6e87ab98b4cec460&#45;&gt;dir_bdd9a5d540de89e9fe90efdfc6973a4f -->
<g id="edge2" class="edge">
<title>dir_ae2e5b2d61c32fda6e87ab98b4cec460&#45;&gt;dir_bdd9a5d540de89e9fe90efdfc6973a4f</title>
<path fill="none" stroke="#63b8ff" d="M55.45,-70.58C59.69,-67.96 64.45,-65.21 69,-63 88.29,-53.62 110.65,-45.12 129.14,-38.69"/>
<polygon fill="#63b8ff" stroke="#63b8ff" points="130.03,-42.09 138.37,-35.55 127.77,-35.46 130.03,-42.09"/>
<g id="a_edge2&#45;headlabel"><a xlink:href="dir_000021_000024.html" target="_top" xlink:title="2">
<text text-anchor="middle" x="128.98" y="-42.95" font-family="Helvetica,sans-Serif" font-size="10.00" fill="#63b8ff">2</text>
</a>
</g>
</g>
</g>
</svg>
