<?xml version="1.0" encoding="UTF-8" standalone="no"?>
<!DOCTYPE svg PUBLIC "-//W3C//DTD SVG 1.1//EN"
 "http://www.w3.org/Graphics/SVG/1.1/DTD/svg11.dtd">
<!-- Generated by graphviz version 7.0.5 (20221223.1930)
 -->
<!-- Title: iop/hdd/apa Pages: 1 -->
<svg width="180pt" height="125pt"
 viewBox="0.00 0.00 179.50 125.00" xmlns="http://www.w3.org/2000/svg" xmlns:xlink="http://www.w3.org/1999/xlink">
<g id="graph0" class="graph" transform="scale(1 1) rotate(0) translate(4 121)">
<title>iop/hdd/apa</title>
<g id="clust1" class="cluster">
<title>clusterdir_b6763ea08a8f9364194ebe3565e6b1f0</title>
<g id="a_clust1"><a xlink:href="dir_b6763ea08a8f9364194ebe3565e6b1f0.html" target="_top" xlink:title="hdd">
<polygon fill="#deebf9" stroke="#7f7f7f" stroke-dasharray="5,2" points="49.5,-39 49.5,-109 161.5,-109 161.5,-39 49.5,-39"/>
<text text-anchor="middle" x="105.5" y="-97" font-family="Helvetica,sans-Serif" font-size="10.00">hdd</text>
</a>
</g>
</g>
<g id="clust2" class="cluster">
<title>clusterdir_3cf15560dfc813cf049b4197fff2fad4</title>
<g id="a_clust2"><a xlink:href="dir_3cf15560dfc813cf049b4197fff2fad4.html" target="_top">
<polygon fill="#deebf9" stroke="#404040" stroke-width="2" points="57.5,-47 57.5,-82 153.5,-82 153.5,-47 57.5,-47"/>
</a>
</g>
</g>
<!-- dir_3cf15560dfc813cf049b4197fff2fad4 -->
<g id="node1" class="node">
<title>dir_3cf15560dfc813cf049b4197fff2fad4</title>
<text text-anchor="middle" x="129.5" y="-62" font-family="Helvetica,sans-Serif" font-size="10.00">apa</text>
</g>
<!-- dir_d56d07feea212d2cdb5d2d86474d890a -->
<g id="node2" class="node">
<title>dir_d56d07feea212d2cdb5d2d86474d890a</title>
<g id="a_node2"><a xlink:href="dir_d56d07feea212d2cdb5d2d86474d890a.html" target="_top" xlink:title="src">
<polygon fill="#60a2e3" stroke="#404040" points="95.5,-74 65.5,-74 65.5,-55 95.5,-55 95.5,-74"/>
<text text-anchor="middle" x="80.5" y="-62" font-family="Helvetica,sans-Serif" font-size="10.00">src</text>
</a>
</g>
</g>
<!-- dir_9be0baa3d4a3e9f480a9ee70594037fa -->
<g id="node3" class="node">
<title>dir_9be0baa3d4a3e9f480a9ee70594037fa</title>
<g id="a_node3"><a xlink:href="dir_9be0baa3d4a3e9f480a9ee70594037fa.html" target="_top" xlink:title="kernel">
<polygon fill="#deebf9" stroke="red" stroke-dasharray="5,2" points="43,-19 0,-19 0,0 43,0 43,-19"/>
<text text-anchor="middle" x="21.5" y="-7" font-family="Helvetica,sans-Serif" font-size="10.00">kernel</text>
</a>
</g>
</g>
<!-- dir_d56d07feea212d2cdb5d2d86474d890a&#45;&gt;dir_9be0baa3d4a3e9f480a9ee70594037fa -->
<g id="edge2" class="edge">
<title>dir_d56d07feea212d2cdb5d2d86474d890a&#45;&gt;dir_9be0baa3d4a3e9f480a9ee70594037fa</title>
<path fill="none" stroke="#63b8ff" d="M70.49,-54.51C62.13,-47 50,-36.1 39.9,-27.03"/>
<polygon fill="#63b8ff" stroke="#63b8ff" points="42.26,-24.45 32.49,-20.37 37.59,-29.66 42.26,-24.45"/>
<g id="a_edge2&#45;headlabel"><a xlink:href="dir_000313_000166.html" target="_top" xlink:title="15">
<text text-anchor="middle" x="45.71" y="-21.23" font-family="Helvetica,sans-Serif" font-size="10.00" fill="#63b8ff">15</text>
</a>
</g>
</g>
<!-- dir_6f16cad81de2453a6f48c5e272ba4a18 -->
<g id="node4" class="node">
<title>dir_6f16cad81de2453a6f48c5e272ba4a18</title>
<g id="a_node4"><a xlink:href="dir_6f16cad81de2453a6f48c5e272ba4a18.html" target="_top" xlink:title="dev9">
<polygon fill="#deebf9" stroke="red" stroke-dasharray="5,2" points="99.5,-19 61.5,-19 61.5,0 99.5,0 99.5,-19"/>
<text text-anchor="middle" x="80.5" y="-7" font-family="Helvetica,sans-Serif" font-size="10.00">dev9</text>
</a>
</g>
</g>
<!-- dir_d56d07feea212d2cdb5d2d86474d890a&#45;&gt;dir_6f16cad81de2453a6f48c5e272ba4a18 -->
<g id="edge1" class="edge">
<title>dir_d56d07feea212d2cdb5d2d86474d890a&#45;&gt;dir_6f16cad81de2453a6f48c5e272ba4a18</title>
<path fill="none" stroke="#63b8ff" d="M80.5,-54.75C80.5,-48.27 80.5,-39.16 80.5,-30.9"/>
<polygon fill="#63b8ff" stroke="#63b8ff" points="84,-30.96 80.5,-20.96 77,-30.96 84,-30.96"/>
<g id="a_edge1&#45;headlabel"><a xlink:href="dir_000313_000028.html" target="_top" xlink:title="6">
<text text-anchor="middle" x="86.84" y="-30.54" font-family="Helvetica,sans-Serif" font-size="10.00" fill="#63b8ff">6</text>
</a>
</g>
</g>
<!-- dir_bdd9a5d540de89e9fe90efdfc6973a4f -->
<g id="node5" class="node">
<title>dir_bdd9a5d540de89e9fe90efdfc6973a4f</title>
<g id="a_node5"><a xlink:href="dir_bdd9a5d540de89e9fe90efdfc6973a4f.html" target="_top" xlink:title="common">
<polygon fill="#deebf9" stroke="red" points="171.5,-19 117.5,-19 117.5,0 171.5,0 171.5,-19"/>
<text text-anchor="middle" x="144.5" y="-7" font-family="Helvetica,sans-Serif" font-size="10.00">common</text>
</a>
</g>
</g>
<!-- dir_d56d07feea212d2cdb5d2d86474d890a&#45;&gt;dir_bdd9a5d540de89e9fe90efdfc6973a4f -->
<g id="edge3" class="edge">
<title>dir_d56d07feea212d2cdb5d2d86474d890a&#45;&gt;dir_bdd9a5d540de89e9fe90efdfc6973a4f</title>
<path fill="none" stroke="#63b8ff" d="M88.59,-54.5C93.08,-49.7 98.89,-43.8 104.5,-39 109.81,-34.46 115.83,-29.9 121.55,-25.8"/>
<polygon fill="#63b8ff" stroke="#63b8ff" points="123.26,-28.87 129.48,-20.29 119.27,-23.13 123.26,-28.87"/>
<g id="a_edge3&#45;headlabel"><a xlink:href="dir_000313_000024.html" target="_top" xlink:title="4">
<text text-anchor="middle" x="123.17" y="-29.89" font-family="Helvetica,sans-Serif" font-size="10.00" fill="#63b8ff">4</text>
</a>
</g>
</g>
</g>
</svg>
