<?xml version="1.0" encoding="UTF-8" standalone="no"?>
<!DOCTYPE svg PUBLIC "-//W3C//DTD SVG 1.1//EN"
 "http://www.w3.org/Graphics/SVG/1.1/DTD/svg11.dtd">
<!-- Generated by graphviz version 7.0.5 (20221223.1930)
 -->
<!-- Title: iop/system/siftoo Pages: 1 -->
<svg width="209pt" height="180pt"
 viewBox="0.00 0.00 208.65 180.00" xmlns="http://www.w3.org/2000/svg" xmlns:xlink="http://www.w3.org/1999/xlink">
<g id="graph0" class="graph" transform="scale(1 1) rotate(0) translate(4 176)">
<title>iop/system/siftoo</title>
<g id="clust1" class="cluster">
<title>clusterdir_40ac35421bc63b72c26b6c69b1517fd6</title>
<g id="a_clust1"><a xlink:href="dir_40ac35421bc63b72c26b6c69b1517fd6.html" target="_top" xlink:title="system">
<polygon fill="#deebf9" stroke="#7f7f7f" stroke-dasharray="5,2" points="8,-39 8,-164 190,-164 190,-39 8,-39"/>
<text text-anchor="middle" x="99" y="-152" font-family="Helvetica,sans-Serif" font-size="10.00">system</text>
</a>
</g>
</g>
<g id="clust2" class="cluster">
<title>clusterdir_c3fae06f71c3e401160299d109ef6df7</title>
<g id="a_clust2"><a xlink:href="dir_c3fae06f71c3e401160299d109ef6df7.html" target="_top">
<polygon fill="#deebf9" stroke="#404040" stroke-width="2" points="16,-47 16,-137 122,-137 122,-47 16,-47"/>
</a>
</g>
</g>
<!-- dir_4bae4802256ab45fc18d13b3c6375605 -->
<g id="node1" class="node">
<title>dir_4bae4802256ab45fc18d13b3c6375605</title>
<g id="a_node1"><a xlink:href="dir_4bae4802256ab45fc18d13b3c6375605.html" target="_top" xlink:title="sbusintr">
<polygon fill="#60a2e3" stroke="red" points="181.5,-74 130.5,-74 130.5,-55 181.5,-55 181.5,-74"/>
<text text-anchor="middle" x="156" y="-62" font-family="Helvetica,sans-Serif" font-size="10.00">sbusintr</text>
</a>
</g>
</g>
<!-- dir_c3fae06f71c3e401160299d109ef6df7 -->
<g id="node2" class="node">
<title>dir_c3fae06f71c3e401160299d109ef6df7</title>
<text text-anchor="middle" x="93" y="-117" font-family="Helvetica,sans-Serif" font-size="10.00">siftoo</text>
</g>
<!-- dir_1a0c1cc6a62ce99b34521e1896eac836 -->
<g id="node3" class="node">
<title>dir_1a0c1cc6a62ce99b34521e1896eac836</title>
<g id="a_node3"><a xlink:href="dir_1a0c1cc6a62ce99b34521e1896eac836.html" target="_top" xlink:title="include">
<polygon fill="#60a2e3" stroke="#404040" points="91.5,-74 44.5,-74 44.5,-55 91.5,-55 91.5,-74"/>
<text text-anchor="middle" x="68" y="-62" font-family="Helvetica,sans-Serif" font-size="10.00">include</text>
</a>
</g>
</g>
<!-- dir_9be0baa3d4a3e9f480a9ee70594037fa -->
<g id="node5" class="node">
<title>dir_9be0baa3d4a3e9f480a9ee70594037fa</title>
<g id="a_node5"><a xlink:href="dir_9be0baa3d4a3e9f480a9ee70594037fa.html" target="_top" xlink:title="kernel">
<polygon fill="#deebf9" stroke="red" stroke-dasharray="5,2" points="160.5,-19 117.5,-19 117.5,0 160.5,0 160.5,-19"/>
<text text-anchor="middle" x="139" y="-7" font-family="Helvetica,sans-Serif" font-size="10.00">kernel</text>
</a>
</g>
</g>
<!-- dir_1a0c1cc6a62ce99b34521e1896eac836&#45;&gt;dir_9be0baa3d4a3e9f480a9ee70594037fa -->
<g id="edge1" class="edge">
<title>dir_1a0c1cc6a62ce99b34521e1896eac836&#45;&gt;dir_9be0baa3d4a3e9f480a9ee70594037fa</title>
<path fill="none" stroke="#63b8ff" d="M77.58,-54.55C82.87,-49.76 89.63,-43.86 96,-39 102.07,-34.36 108.87,-29.65 115.24,-25.43"/>
<polygon fill="#63b8ff" stroke="#63b8ff" points="116.97,-28.48 123.46,-20.1 113.16,-22.61 116.97,-28.48"/>
<g id="a_edge1&#45;headlabel"><a xlink:href="dir_000145_000166.html" target="_top" xlink:title="1">
<text text-anchor="middle" x="116.77" y="-29.5" font-family="Helvetica,sans-Serif" font-size="10.00" fill="#63b8ff">1</text>
</a>
</g>
</g>
<!-- dir_56c96d436b95cd5650376ca3df086363 -->
<g id="node4" class="node">
<title>dir_56c96d436b95cd5650376ca3df086363</title>
<g id="a_node4"><a xlink:href="dir_56c96d436b95cd5650376ca3df086363.html" target="_top" xlink:title="src">
<polygon fill="#60a2e3" stroke="#404040" points="54,-129 24,-129 24,-110 54,-110 54,-129"/>
<text text-anchor="middle" x="39" y="-117" font-family="Helvetica,sans-Serif" font-size="10.00">src</text>
</a>
</g>
</g>
<!-- dir_56c96d436b95cd5650376ca3df086363&#45;&gt;dir_4bae4802256ab45fc18d13b3c6375605 -->
<g id="edge3" class="edge">
<title>dir_56c96d436b95cd5650376ca3df086363&#45;&gt;dir_4bae4802256ab45fc18d13b3c6375605</title>
<path fill="none" stroke="#63b8ff" d="M54.3,-111.57C72.48,-103.34 103.24,-89.4 126.18,-79.01"/>
<polygon fill="#63b8ff" stroke="#63b8ff" points="127.37,-82.31 135.03,-75 124.48,-75.94 127.37,-82.31"/>
<g id="a_edge3&#45;headlabel"><a xlink:href="dir_000342_000222.html" target="_top" xlink:title="3">
<text text-anchor="middle" x="126.64" y="-83.26" font-family="Helvetica,sans-Serif" font-size="10.00" fill="#63b8ff">3</text>
</a>
</g>
</g>
<!-- dir_56c96d436b95cd5650376ca3df086363&#45;&gt;dir_1a0c1cc6a62ce99b34521e1896eac836 -->
<g id="edge2" class="edge">
<title>dir_56c96d436b95cd5650376ca3df086363&#45;&gt;dir_1a0c1cc6a62ce99b34521e1896eac836</title>
<path fill="none" stroke="#63b8ff" d="M43.79,-109.75C47.54,-102.88 52.91,-93.08 57.63,-84.45"/>
<polygon fill="#63b8ff" stroke="#63b8ff" points="60.65,-86.22 62.38,-75.77 54.51,-82.86 60.65,-86.22"/>
<g id="a_edge2&#45;headlabel"><a xlink:href="dir_000342_000145.html" target="_top" xlink:title="2">
<text text-anchor="middle" x="62.14" y="-86.91" font-family="Helvetica,sans-Serif" font-size="10.00" fill="#63b8ff">2</text>
</a>
</g>
</g>
<!-- dir_56c96d436b95cd5650376ca3df086363&#45;&gt;dir_9be0baa3d4a3e9f480a9ee70594037fa -->
<g id="edge4" class="edge">
<title>dir_56c96d436b95cd5650376ca3df086363&#45;&gt;dir_9be0baa3d4a3e9f480a9ee70594037fa</title>
<path fill="none" stroke="#63b8ff" d="M54.29,-113.15C57.49,-112.07 60.85,-110.97 64,-110 121.29,-92.34 157.7,-121.72 194,-74 203.42,-61.62 202.08,-52.29 194,-39 188.82,-30.48 180.18,-24.39 171.26,-20.09"/>
<polygon fill="#63b8ff" stroke="#63b8ff" points="172.84,-16.96 162.26,-16.41 170.18,-23.44 172.84,-16.96"/>
<g id="a_edge4&#45;headlabel"><a xlink:href="dir_000342_000166.html" target="_top" xlink:title="12">
<text text-anchor="middle" x="175.84" y="-12.62" font-family="Helvetica,sans-Serif" font-size="10.00" fill="#63b8ff">12</text>
</a>
</g>
</g>
</g>
</svg>
