<?xml version="1.0" encoding="UTF-8" standalone="no"?>
<!DOCTYPE svg PUBLIC "-//W3C//DTD SVG 1.1//EN"
 "http://www.w3.org/Graphics/SVG/1.1/DTD/svg11.dtd">
<!-- Generated by graphviz version 7.0.5 (20221223.1930)
 -->
<!-- Title: iop/usb/keyboard Pages: 1 -->
<svg width="270pt" height="141pt"
 viewBox="0.00 0.00 269.50 141.00" xmlns="http://www.w3.org/2000/svg" xmlns:xlink="http://www.w3.org/1999/xlink">
<g id="graph0" class="graph" transform="scale(1 1) rotate(0) translate(4 137)">
<title>iop/usb/keyboard</title>
<g id="clust1" class="cluster">
<title>clusterdir_b6c875632944d243a548db157cd77ec2</title>
<g id="a_clust1"><a xlink:href="dir_b6c875632944d243a548db157cd77ec2.html" target="_top" xlink:title="usb">
<polygon fill="#deebf9" stroke="#7f7f7f" stroke-dasharray="5,2" points="8,-8 8,-125 210,-125 210,-8 8,-8"/>
<text text-anchor="middle" x="109" y="-113" font-family="Helvetica,sans-Serif" font-size="10.00">usb</text>
</a>
</g>
</g>
<g id="clust2" class="cluster">
<title>clusterdir_dfd34f7999bdb28cb70101636e016b16</title>
<g id="a_clust2"><a xlink:href="dir_dfd34f7999bdb28cb70101636e016b16.html" target="_top">
<polygon fill="#deebf9" stroke="#404040" stroke-width="2" points="16,-63 16,-98 202,-98 202,-63 16,-63"/>
</a>
</g>
</g>
<!-- dir_8f550b51c304fe10978bfd792866fae2 -->
<g id="node1" class="node">
<title>dir_8f550b51c304fe10978bfd792866fae2</title>
<g id="a_node1"><a xlink:href="dir_8f550b51c304fe10978bfd792866fae2.html" target="_top" xlink:title="usbd">
<polygon fill="#60a2e3" stroke="red" points="58,-35 20,-35 20,-16 58,-16 58,-35"/>
<text text-anchor="middle" x="39" y="-23" font-family="Helvetica,sans-Serif" font-size="10.00">usbd</text>
</a>
</g>
</g>
<!-- dir_dfd34f7999bdb28cb70101636e016b16 -->
<g id="node2" class="node">
<title>dir_dfd34f7999bdb28cb70101636e016b16</title>
<text text-anchor="middle" x="166" y="-78" font-family="Helvetica,sans-Serif" font-size="10.00">keyboard</text>
</g>
<!-- dir_e958439eae9e499529b4758660d27573 -->
<g id="node3" class="node">
<title>dir_e958439eae9e499529b4758660d27573</title>
<g id="a_node3"><a xlink:href="dir_e958439eae9e499529b4758660d27573.html" target="_top" xlink:title="include">
<polygon fill="#60a2e3" stroke="#404040" points="119.5,-90 72.5,-90 72.5,-71 119.5,-71 119.5,-90"/>
<text text-anchor="middle" x="96" y="-78" font-family="Helvetica,sans-Serif" font-size="10.00">include</text>
</a>
</g>
</g>
<!-- dir_649efdce889a9164ac5e894f2ff13a76 -->
<g id="node4" class="node">
<title>dir_649efdce889a9164ac5e894f2ff13a76</title>
<g id="a_node4"><a xlink:href="dir_649efdce889a9164ac5e894f2ff13a76.html" target="_top" xlink:title="src">
<polygon fill="#60a2e3" stroke="#404040" points="54,-90 24,-90 24,-71 54,-71 54,-90"/>
<text text-anchor="middle" x="39" y="-78" font-family="Helvetica,sans-Serif" font-size="10.00">src</text>
</a>
</g>
</g>
<!-- dir_649efdce889a9164ac5e894f2ff13a76&#45;&gt;dir_8f550b51c304fe10978bfd792866fae2 -->
<g id="edge1" class="edge">
<title>dir_649efdce889a9164ac5e894f2ff13a76&#45;&gt;dir_8f550b51c304fe10978bfd792866fae2</title>
<path fill="none" stroke="#63b8ff" d="M39,-70.75C39,-64.27 39,-55.16 39,-46.9"/>
<polygon fill="#63b8ff" stroke="#63b8ff" points="42.5,-46.96 39,-36.96 35.5,-46.96 42.5,-46.96"/>
<g id="a_edge1&#45;headlabel"><a xlink:href="dir_000352_000385.html" target="_top" xlink:title="3">
<text text-anchor="middle" x="45.34" y="-46.54" font-family="Helvetica,sans-Serif" font-size="10.00" fill="#63b8ff">3</text>
</a>
</g>
</g>
<!-- dir_9be0baa3d4a3e9f480a9ee70594037fa -->
<g id="node5" class="node">
<title>dir_9be0baa3d4a3e9f480a9ee70594037fa</title>
<g id="a_node5"><a xlink:href="dir_9be0baa3d4a3e9f480a9ee70594037fa.html" target="_top" xlink:title="kernel">
<polygon fill="#deebf9" stroke="red" stroke-dasharray="5,2" points="261.5,-35 218.5,-35 218.5,-16 261.5,-16 261.5,-35"/>
<text text-anchor="middle" x="240" y="-23" font-family="Helvetica,sans-Serif" font-size="10.00">kernel</text>
</a>
</g>
</g>
<!-- dir_649efdce889a9164ac5e894f2ff13a76&#45;&gt;dir_9be0baa3d4a3e9f480a9ee70594037fa -->
<g id="edge2" class="edge">
<title>dir_649efdce889a9164ac5e894f2ff13a76&#45;&gt;dir_9be0baa3d4a3e9f480a9ee70594037fa</title>
<path fill="none" stroke="#63b8ff" d="M50.16,-70.76C54.31,-67.89 59.18,-64.95 64,-63 123.44,-38.99 145.83,-50.36 207.16,-36.52"/>
<polygon fill="#63b8ff" stroke="#63b8ff" points="207.84,-39.96 216.74,-34.21 206.2,-33.15 207.84,-39.96"/>
<g id="a_edge2&#45;headlabel"><a xlink:href="dir_000352_000166.html" target="_top" xlink:title="19">
<text text-anchor="middle" x="206.49" y="-40.7" font-family="Helvetica,sans-Serif" font-size="10.00" fill="#63b8ff">19</text>
</a>
</g>
</g>
</g>
</svg>
