<?xml version="1.0" encoding="UTF-8" standalone="no"?>
<!DOCTYPE svg PUBLIC "-//W3C//DTD SVG 1.1//EN"
 "http://www.w3.org/Graphics/SVG/1.1/DTD/svg11.dtd">
<!-- Generated by graphviz version 7.0.5 (20221223.1930)
 -->
<!-- Title: ee/input/src Pages: 1 -->
<svg width="215pt" height="133pt"
 viewBox="0.00 0.00 214.50 133.00" xmlns="http://www.w3.org/2000/svg" xmlns:xlink="http://www.w3.org/1999/xlink">
<g id="graph0" class="graph" transform="scale(1 1) rotate(0) translate(4 129)">
<title>ee/input/src</title>
<g id="clust1" class="cluster">
<title>clusterdir_39941762bcf6eb45f8acbe5afd6e1dcf</title>
<g id="a_clust1"><a xlink:href="dir_39941762bcf6eb45f8acbe5afd6e1dcf.html" target="_top" xlink:title="input">
<polygon fill="#deebf9" stroke="#7f7f7f" stroke-dasharray="5,2" points="8,-8 8,-117 72,-117 72,-8 8,-8"/>
<text text-anchor="middle" x="40" y="-105" font-family="Helvetica,sans-Serif" font-size="10.00">input</text>
</a>
</g>
</g>
<!-- dir_f6f36f3eb6875262b2c2259532f4a7d0 -->
<g id="node1" class="node">
<title>dir_f6f36f3eb6875262b2c2259532f4a7d0</title>
<g id="a_node1"><a xlink:href="dir_f6f36f3eb6875262b2c2259532f4a7d0.html" target="_top" xlink:title="include">
<polygon fill="#60a2e3" stroke="#404040" points="63.5,-35 16.5,-35 16.5,-16 63.5,-16 63.5,-35"/>
<text text-anchor="middle" x="40" y="-23" font-family="Helvetica,sans-Serif" font-size="10.00">include</text>
</a>
</g>
</g>
<!-- dir_9805d618bf049a122c516d9b6b072b3f -->
<g id="node2" class="node">
<title>dir_9805d618bf049a122c516d9b6b072b3f</title>
<g id="a_node2"><a xlink:href="dir_9805d618bf049a122c516d9b6b072b3f.html" target="_top" xlink:title="src">
<polygon fill="#deebf9" stroke="#404040" stroke-width="2" points="64,-90 34,-90 34,-71 64,-71 64,-90"/>
<text text-anchor="middle" x="49" y="-78" font-family="Helvetica,sans-Serif" font-size="10.00">src</text>
</a>
</g>
</g>
<!-- dir_9805d618bf049a122c516d9b6b072b3f&#45;&gt;dir_f6f36f3eb6875262b2c2259532f4a7d0 -->
<g id="edge4" class="edge">
<title>dir_9805d618bf049a122c516d9b6b072b3f&#45;&gt;dir_f6f36f3eb6875262b2c2259532f4a7d0</title>
<path fill="none" stroke="#63b8ff" d="M47.51,-70.75C46.4,-64.19 44.83,-54.95 43.41,-46.6"/>
<polygon fill="#63b8ff" stroke="#63b8ff" points="46.9,-46.21 41.77,-36.93 40,-47.38 46.9,-46.21"/>
<g id="a_edge4&#45;headlabel"><a xlink:href="dir_000248_000076.html" target="_top" xlink:title="1">
<text text-anchor="middle" x="50.04" y="-45.28" font-family="Helvetica,sans-Serif" font-size="10.00" fill="#63b8ff">1</text>
</a>
</g>
</g>
<!-- dir_0981ace215aa2029f526b70c145b9fbe -->
<g id="node3" class="node">
<title>dir_0981ace215aa2029f526b70c145b9fbe</title>
<g id="a_node3"><a xlink:href="dir_0981ace215aa2029f526b70c145b9fbe.html" target="_top" xlink:title="iop">
<polygon fill="#deebf9" stroke="red" points="110.5,-35 81.5,-35 81.5,-16 110.5,-16 110.5,-35"/>
<text text-anchor="middle" x="96" y="-23" font-family="Helvetica,sans-Serif" font-size="10.00">iop</text>
</a>
</g>
</g>
<!-- dir_9805d618bf049a122c516d9b6b072b3f&#45;&gt;dir_0981ace215aa2029f526b70c145b9fbe -->
<g id="edge1" class="edge">
<title>dir_9805d618bf049a122c516d9b6b072b3f&#45;&gt;dir_0981ace215aa2029f526b70c145b9fbe</title>
<path fill="none" stroke="#63b8ff" d="M56.76,-70.75C63.19,-63.5 72.51,-52.98 80.46,-44.02"/>
<polygon fill="#63b8ff" stroke="#63b8ff" points="83.05,-46.38 87.07,-36.57 77.81,-41.73 83.05,-46.38"/>
<g id="a_edge1&#45;headlabel"><a xlink:href="dir_000248_000159.html" target="_top" xlink:title="1">
<text text-anchor="middle" x="83.79" y="-47.32" font-family="Helvetica,sans-Serif" font-size="10.00" fill="#63b8ff">1</text>
</a>
</g>
</g>
<!-- dir_5b119dc963fa9b25ef41951231899460 -->
<g id="node4" class="node">
<title>dir_5b119dc963fa9b25ef41951231899460</title>
<g id="a_node4"><a xlink:href="dir_5b119dc963fa9b25ef41951231899460.html" target="_top" xlink:title="rpc">
<polygon fill="#deebf9" stroke="red" stroke-dasharray="5,2" points="159,-35 129,-35 129,-16 159,-16 159,-35"/>
<text text-anchor="middle" x="144" y="-23" font-family="Helvetica,sans-Serif" font-size="10.00">rpc</text>
</a>
</g>
</g>
<!-- dir_9805d618bf049a122c516d9b6b072b3f&#45;&gt;dir_5b119dc963fa9b25ef41951231899460 -->
<g id="edge2" class="edge">
<title>dir_9805d618bf049a122c516d9b6b072b3f&#45;&gt;dir_5b119dc963fa9b25ef41951231899460</title>
<path fill="none" stroke="#63b8ff" d="M64.26,-70.98C78.94,-62.79 101.4,-50.26 118.75,-40.59"/>
<polygon fill="#63b8ff" stroke="#63b8ff" points="120.43,-43.66 127.45,-35.73 117.01,-37.55 120.43,-43.66"/>
<g id="a_edge2&#45;headlabel"><a xlink:href="dir_000248_000219.html" target="_top" xlink:title="1">
<text text-anchor="middle" x="119.99" y="-44.65" font-family="Helvetica,sans-Serif" font-size="10.00" fill="#63b8ff">1</text>
</a>
</g>
</g>
<!-- dir_a0a8ac7efb6662b749c1285408048e6d -->
<g id="node5" class="node">
<title>dir_a0a8ac7efb6662b749c1285408048e6d</title>
<g id="a_node5"><a xlink:href="dir_a0a8ac7efb6662b749c1285408048e6d.html" target="_top" xlink:title="erl">
<polygon fill="#deebf9" stroke="red" stroke-dasharray="5,2" points="206.5,-35 177.5,-35 177.5,-16 206.5,-16 206.5,-35"/>
<text text-anchor="middle" x="192" y="-23" font-family="Helvetica,sans-Serif" font-size="10.00">erl</text>
</a>
</g>
</g>
<!-- dir_9805d618bf049a122c516d9b6b072b3f&#45;&gt;dir_a0a8ac7efb6662b749c1285408048e6d -->
<g id="edge3" class="edge">
<title>dir_9805d618bf049a122c516d9b6b072b3f&#45;&gt;dir_a0a8ac7efb6662b749c1285408048e6d</title>
<path fill="none" stroke="#63b8ff" d="M64.3,-73.83C88.73,-64.78 136.79,-46.96 166.48,-35.96"/>
<polygon fill="#63b8ff" stroke="#63b8ff" points="167.66,-39.26 175.82,-32.5 165.22,-32.69 167.66,-39.26"/>
<g id="a_edge3&#45;headlabel"><a xlink:href="dir_000248_000045.html" target="_top" xlink:title="1">
<text text-anchor="middle" x="166.69" y="-40.14" font-family="Helvetica,sans-Serif" font-size="10.00" fill="#63b8ff">1</text>
</a>
</g>
</g>
</g>
</svg>
