<?xml version="1.0" encoding="UTF-8" standalone="no"?>
<!DOCTYPE svg PUBLIC "-//W3C//DTD SVG 1.1//EN"
 "http://www.w3.org/Graphics/SVG/1.1/DTD/svg11.dtd">
<!-- Generated by graphviz version 7.0.5 (20221223.1930)
 -->
<!-- Title: iop/usb/usbmass_bd/src Pages: 1 -->
<svg width="228pt" height="125pt"
 viewBox="0.00 0.00 227.50 125.00" xmlns="http://www.w3.org/2000/svg" xmlns:xlink="http://www.w3.org/1999/xlink">
<g id="graph0" class="graph" transform="scale(1 1) rotate(0) translate(4 121)">
<title>iop/usb/usbmass_bd/src</title>
<g id="clust1" class="cluster">
<title>clusterdir_b21605a940872bbf5de5d8b063daf48d</title>
<g id="a_clust1"><a xlink:href="dir_b21605a940872bbf5de5d8b063daf48d.html" target="_top" xlink:title="usbmass_bd">
<polygon fill="#deebf9" stroke="#7f7f7f" stroke-dasharray="5,2" points="14,-39 14,-109 142,-109 142,-39 14,-39"/>
<text text-anchor="middle" x="78" y="-97" font-family="Helvetica,sans-Serif" font-size="10.00">usbmass_bd</text>
</a>
</g>
</g>
<g id="clust2" class="cluster">
<title>clusterdir_972b40c78cb4e5b6d65cc6bc53c22b1f</title>
<g id="a_clust2"><a xlink:href="dir_972b40c78cb4e5b6d65cc6bc53c22b1f.html" target="_top">
<polygon fill="#deebf9" stroke="#404040" stroke-width="2" points="22,-47 22,-82 134,-82 134,-47 22,-47"/>
</a>
</g>
</g>
<!-- dir_972b40c78cb4e5b6d65cc6bc53c22b1f -->
<g id="node1" class="node">
<title>dir_972b40c78cb4e5b6d65cc6bc53c22b1f</title>
<text text-anchor="middle" x="111" y="-62" font-family="Helvetica,sans-Serif" font-size="10.00">src</text>
</g>
<!-- dir_8f550b51c304fe10978bfd792866fae2 -->
<g id="node3" class="node">
<title>dir_8f550b51c304fe10978bfd792866fae2</title>
<g id="a_node3"><a xlink:href="dir_8f550b51c304fe10978bfd792866fae2.html" target="_top" xlink:title="usbd">
<polygon fill="#deebf9" stroke="red" stroke-dasharray="5,2" points="38,-19 0,-19 0,0 38,0 38,-19"/>
<text text-anchor="middle" x="19" y="-7" font-family="Helvetica,sans-Serif" font-size="10.00">usbd</text>
</a>
</g>
</g>
<!-- dir_972b40c78cb4e5b6d65cc6bc53c22b1f&#45;&gt;dir_8f550b51c304fe10978bfd792866fae2 -->
<g id="edge1" class="edge">
<title>dir_972b40c78cb4e5b6d65cc6bc53c22b1f&#45;&gt;dir_8f550b51c304fe10978bfd792866fae2</title>
<path fill="none" stroke="#63b8ff" d="M104.2,-55.42C99.5,-50.22 92.87,-43.59 86,-39 74.65,-31.42 60.96,-25.17 48.92,-20.47"/>
<polygon fill="#63b8ff" stroke="#63b8ff" points="50.45,-17.3 39.86,-17.12 48.03,-23.87 50.45,-17.3"/>
<g id="a_edge1&#45;headlabel"><a xlink:href="dir_000356_000385.html" target="_top" xlink:title="3">
<text text-anchor="middle" x="53.39" y="-12.86" font-family="Helvetica,sans-Serif" font-size="10.00" fill="#63b8ff">3</text>
</a>
</g>
</g>
<!-- dir_9be0baa3d4a3e9f480a9ee70594037fa -->
<g id="node4" class="node">
<title>dir_9be0baa3d4a3e9f480a9ee70594037fa</title>
<g id="a_node4"><a xlink:href="dir_9be0baa3d4a3e9f480a9ee70594037fa.html" target="_top" xlink:title="kernel">
<polygon fill="#deebf9" stroke="red" stroke-dasharray="5,2" points="99.5,-19 56.5,-19 56.5,0 99.5,0 99.5,-19"/>
<text text-anchor="middle" x="78" y="-7" font-family="Helvetica,sans-Serif" font-size="10.00">kernel</text>
</a>
</g>
</g>
<!-- dir_972b40c78cb4e5b6d65cc6bc53c22b1f&#45;&gt;dir_9be0baa3d4a3e9f480a9ee70594037fa -->
<g id="edge2" class="edge">
<title>dir_972b40c78cb4e5b6d65cc6bc53c22b1f&#45;&gt;dir_9be0baa3d4a3e9f480a9ee70594037fa</title>
<path fill="none" stroke="#63b8ff" d="M105.84,-55.22C101.47,-48.19 95.02,-37.84 89.44,-28.87"/>
<polygon fill="#63b8ff" stroke="#63b8ff" points="92.51,-27.18 84.25,-20.54 86.56,-30.88 92.51,-27.18"/>
<g id="a_edge2&#45;headlabel"><a xlink:href="dir_000356_000166.html" target="_top" xlink:title="15">
<text text-anchor="middle" x="96.02" y="-24.94" font-family="Helvetica,sans-Serif" font-size="10.00" fill="#63b8ff">15</text>
</a>
</g>
</g>
<!-- dir_bdd9a5d540de89e9fe90efdfc6973a4f -->
<g id="node5" class="node">
<title>dir_bdd9a5d540de89e9fe90efdfc6973a4f</title>
<g id="a_node5"><a xlink:href="dir_bdd9a5d540de89e9fe90efdfc6973a4f.html" target="_top" xlink:title="common">
<polygon fill="#deebf9" stroke="red" points="172,-19 118,-19 118,0 172,0 172,-19"/>
<text text-anchor="middle" x="145" y="-7" font-family="Helvetica,sans-Serif" font-size="10.00">common</text>
</a>
</g>
</g>
<!-- dir_972b40c78cb4e5b6d65cc6bc53c22b1f&#45;&gt;dir_bdd9a5d540de89e9fe90efdfc6973a4f -->
<g id="edge3" class="edge">
<title>dir_972b40c78cb4e5b6d65cc6bc53c22b1f&#45;&gt;dir_bdd9a5d540de89e9fe90efdfc6973a4f</title>
<path fill="none" stroke="#63b8ff" d="M116.31,-55.22C120.82,-48.19 127.46,-37.84 133.22,-28.87"/>
<polygon fill="#63b8ff" stroke="#63b8ff" points="136.11,-30.83 138.57,-20.53 130.22,-27.05 136.11,-30.83"/>
<g id="a_edge3&#45;headlabel"><a xlink:href="dir_000356_000024.html" target="_top" xlink:title="3">
<text text-anchor="middle" x="137.38" y="-31.62" font-family="Helvetica,sans-Serif" font-size="10.00" fill="#63b8ff">3</text>
</a>
</g>
</g>
<!-- dir_f24daea2522ffa8b6dc5fa9cdf5b8f5c -->
<g id="node6" class="node">
<title>dir_f24daea2522ffa8b6dc5fa9cdf5b8f5c</title>
<g id="a_node6"><a xlink:href="dir_f24daea2522ffa8b6dc5fa9cdf5b8f5c.html" target="_top" xlink:title="fs">
<polygon fill="#deebf9" stroke="red" stroke-dasharray="5,2" points="219.5,-19 190.5,-19 190.5,0 219.5,0 219.5,-19"/>
<text text-anchor="middle" x="205" y="-7" font-family="Helvetica,sans-Serif" font-size="10.00">fs</text>
</a>
</g>
</g>
<!-- dir_972b40c78cb4e5b6d65cc6bc53c22b1f&#45;&gt;dir_f24daea2522ffa8b6dc5fa9cdf5b8f5c -->
<g id="edge4" class="edge">
<title>dir_972b40c78cb4e5b6d65cc6bc53c22b1f&#45;&gt;dir_f24daea2522ffa8b6dc5fa9cdf5b8f5c</title>
<path fill="none" stroke="#63b8ff" d="M125.69,-55.22C140.23,-47.02 162.76,-34.32 180.1,-24.54"/>
<polygon fill="#63b8ff" stroke="#63b8ff" points="181.8,-27.6 188.79,-19.64 178.36,-21.5 181.8,-27.6"/>
<g id="a_edge4&#45;headlabel"><a xlink:href="dir_000356_000054.html" target="_top" xlink:title="2">
<text text-anchor="middle" x="181.38" y="-28.6" font-family="Helvetica,sans-Serif" font-size="10.00" fill="#63b8ff">2</text>
</a>
</g>
</g>
<!-- dir_f44fbee28c87ccaf0699713fb55dc4d0 -->
<g id="node2" class="node">
<title>dir_f44fbee28c87ccaf0699713fb55dc4d0</title>
<g id="a_node2"><a xlink:href="dir_f44fbee28c87ccaf0699713fb55dc4d0.html" target="_top" xlink:title="include">
<polygon fill="#60a2e3" stroke="#404040" points="77.5,-74 30.5,-74 30.5,-55 77.5,-55 77.5,-74"/>
<text text-anchor="middle" x="54" y="-62" font-family="Helvetica,sans-Serif" font-size="10.00">include</text>
</a>
</g>
</g>
</g>
</svg>
