<?xml version="1.0" encoding="UTF-8" standalone="no"?>
<!DOCTYPE svg PUBLIC "-//W3C//DTD SVG 1.1//EN"
 "http://www.w3.org/Graphics/SVG/1.1/DTD/svg11.dtd">
<!-- Generated by graphviz version 7.0.5 (20221223.1930)
 -->
<!-- Title: iop/usb/usbmass_bd Pages: 1 -->
<svg width="340pt" height="141pt"
 viewBox="0.00 0.00 339.50 141.00" xmlns="http://www.w3.org/2000/svg" xmlns:xlink="http://www.w3.org/1999/xlink">
<g id="graph0" class="graph" transform="scale(1 1) rotate(0) translate(4 137)">
<title>iop/usb/usbmass_bd</title>
<g id="clust1" class="cluster">
<title>clusterdir_b6c875632944d243a548db157cd77ec2</title>
<g id="a_clust1"><a xlink:href="dir_b6c875632944d243a548db157cd77ec2.html" target="_top" xlink:title="usb">
<polygon fill="#deebf9" stroke="#7f7f7f" stroke-dasharray="5,2" points="8,-8 8,-125 160,-125 160,-8 8,-8"/>
<text text-anchor="middle" x="84" y="-113" font-family="Helvetica,sans-Serif" font-size="10.00">usb</text>
</a>
</g>
</g>
<g id="clust2" class="cluster">
<title>clusterdir_b21605a940872bbf5de5d8b063daf48d</title>
<g id="a_clust2"><a xlink:href="dir_b21605a940872bbf5de5d8b063daf48d.html" target="_top">
<polygon fill="#deebf9" stroke="#404040" stroke-width="2" points="16,-63 16,-98 152,-98 152,-63 16,-63"/>
</a>
</g>
</g>
<!-- dir_8f550b51c304fe10978bfd792866fae2 -->
<g id="node1" class="node">
<title>dir_8f550b51c304fe10978bfd792866fae2</title>
<g id="a_node1"><a xlink:href="dir_8f550b51c304fe10978bfd792866fae2.html" target="_top" xlink:title="usbd">
<polygon fill="#60a2e3" stroke="red" points="58,-35 20,-35 20,-16 58,-16 58,-35"/>
<text text-anchor="middle" x="39" y="-23" font-family="Helvetica,sans-Serif" font-size="10.00">usbd</text>
</a>
</g>
</g>
<!-- dir_b21605a940872bbf5de5d8b063daf48d -->
<g id="node2" class="node">
<title>dir_b21605a940872bbf5de5d8b063daf48d</title>
<text text-anchor="middle" x="108" y="-78" font-family="Helvetica,sans-Serif" font-size="10.00">usbmass_bd</text>
</g>
<!-- dir_972b40c78cb4e5b6d65cc6bc53c22b1f -->
<g id="node3" class="node">
<title>dir_972b40c78cb4e5b6d65cc6bc53c22b1f</title>
<g id="a_node3"><a xlink:href="dir_972b40c78cb4e5b6d65cc6bc53c22b1f.html" target="_top" xlink:title="src">
<polygon fill="#60a2e3" stroke="#404040" points="54,-90 24,-90 24,-71 54,-71 54,-90"/>
<text text-anchor="middle" x="39" y="-78" font-family="Helvetica,sans-Serif" font-size="10.00">src</text>
</a>
</g>
</g>
<!-- dir_972b40c78cb4e5b6d65cc6bc53c22b1f&#45;&gt;dir_8f550b51c304fe10978bfd792866fae2 -->
<g id="edge1" class="edge">
<title>dir_972b40c78cb4e5b6d65cc6bc53c22b1f&#45;&gt;dir_8f550b51c304fe10978bfd792866fae2</title>
<path fill="none" stroke="#63b8ff" d="M39,-70.75C39,-64.27 39,-55.16 39,-46.9"/>
<polygon fill="#63b8ff" stroke="#63b8ff" points="42.5,-46.96 39,-36.96 35.5,-46.96 42.5,-46.96"/>
<g id="a_edge1&#45;headlabel"><a xlink:href="dir_000356_000385.html" target="_top" xlink:title="3">
<text text-anchor="middle" x="45.34" y="-46.54" font-family="Helvetica,sans-Serif" font-size="10.00" fill="#63b8ff">3</text>
</a>
</g>
</g>
<!-- dir_9be0baa3d4a3e9f480a9ee70594037fa -->
<g id="node4" class="node">
<title>dir_9be0baa3d4a3e9f480a9ee70594037fa</title>
<g id="a_node4"><a xlink:href="dir_9be0baa3d4a3e9f480a9ee70594037fa.html" target="_top" xlink:title="kernel">
<polygon fill="#deebf9" stroke="red" stroke-dasharray="5,2" points="211.5,-35 168.5,-35 168.5,-16 211.5,-16 211.5,-35"/>
<text text-anchor="middle" x="190" y="-23" font-family="Helvetica,sans-Serif" font-size="10.00">kernel</text>
</a>
</g>
</g>
<!-- dir_972b40c78cb4e5b6d65cc6bc53c22b1f&#45;&gt;dir_9be0baa3d4a3e9f480a9ee70594037fa -->
<g id="edge2" class="edge">
<title>dir_972b40c78cb4e5b6d65cc6bc53c22b1f&#45;&gt;dir_9be0baa3d4a3e9f480a9ee70594037fa</title>
<path fill="none" stroke="#63b8ff" d="M50.25,-70.62C54.13,-67.88 58.6,-65.05 63,-63 101.92,-44.85 117.02,-47.81 157.35,-36.83"/>
<polygon fill="#63b8ff" stroke="#63b8ff" points="158.08,-40.26 166.72,-34.13 156.14,-33.53 158.08,-40.26"/>
<g id="a_edge2&#45;headlabel"><a xlink:href="dir_000356_000166.html" target="_top" xlink:title="15">
<text text-anchor="middle" x="156.86" y="-41.06" font-family="Helvetica,sans-Serif" font-size="10.00" fill="#63b8ff">15</text>
</a>
</g>
</g>
<!-- dir_bdd9a5d540de89e9fe90efdfc6973a4f -->
<g id="node5" class="node">
<title>dir_bdd9a5d540de89e9fe90efdfc6973a4f</title>
<g id="a_node5"><a xlink:href="dir_bdd9a5d540de89e9fe90efdfc6973a4f.html" target="_top" xlink:title="common">
<polygon fill="#deebf9" stroke="red" points="284,-35 230,-35 230,-16 284,-16 284,-35"/>
<text text-anchor="middle" x="257" y="-23" font-family="Helvetica,sans-Serif" font-size="10.00">common</text>
</a>
</g>
</g>
<!-- dir_972b40c78cb4e5b6d65cc6bc53c22b1f&#45;&gt;dir_bdd9a5d540de89e9fe90efdfc6973a4f -->
<g id="edge3" class="edge">
<title>dir_972b40c78cb4e5b6d65cc6bc53c22b1f&#45;&gt;dir_bdd9a5d540de89e9fe90efdfc6973a4f</title>
<path fill="none" stroke="#63b8ff" d="M49.66,-70.72C53.64,-67.85 58.32,-64.92 63,-63 125.77,-37.28 148.89,-48.2 218.43,-35.34"/>
<polygon fill="#63b8ff" stroke="#63b8ff" points="218.9,-38.81 228.03,-33.45 217.55,-31.94 218.9,-38.81"/>
<g id="a_edge3&#45;headlabel"><a xlink:href="dir_000356_000024.html" target="_top" xlink:title="3">
<text text-anchor="middle" x="217.4" y="-39.5" font-family="Helvetica,sans-Serif" font-size="10.00" fill="#63b8ff">3</text>
</a>
</g>
</g>
<!-- dir_f24daea2522ffa8b6dc5fa9cdf5b8f5c -->
<g id="node6" class="node">
<title>dir_f24daea2522ffa8b6dc5fa9cdf5b8f5c</title>
<g id="a_node6"><a xlink:href="dir_f24daea2522ffa8b6dc5fa9cdf5b8f5c.html" target="_top" xlink:title="fs">
<polygon fill="#deebf9" stroke="red" stroke-dasharray="5,2" points="331.5,-35 302.5,-35 302.5,-16 331.5,-16 331.5,-35"/>
<text text-anchor="middle" x="317" y="-23" font-family="Helvetica,sans-Serif" font-size="10.00">fs</text>
</a>
</g>
</g>
<!-- dir_972b40c78cb4e5b6d65cc6bc53c22b1f&#45;&gt;dir_f24daea2522ffa8b6dc5fa9cdf5b8f5c -->
<g id="edge4" class="edge">
<title>dir_972b40c78cb4e5b6d65cc6bc53c22b1f&#45;&gt;dir_f24daea2522ffa8b6dc5fa9cdf5b8f5c</title>
<path fill="none" stroke="#63b8ff" d="M49.61,-70.58C53.57,-67.7 58.27,-64.79 63,-63 156.02,-27.8 190.39,-56.45 291.21,-34.81"/>
<polygon fill="#63b8ff" stroke="#63b8ff" points="291.72,-38.29 300.7,-32.66 290.17,-31.46 291.72,-38.29"/>
<g id="a_edge4&#45;headlabel"><a xlink:href="dir_000356_000054.html" target="_top" xlink:title="2">
<text text-anchor="middle" x="290.32" y="-39.01" font-family="Helvetica,sans-Serif" font-size="10.00" fill="#63b8ff">2</text>
</a>
</g>
</g>
</g>
</svg>
