<?xml version="1.0" encoding="UTF-8" standalone="no"?>
<!DOCTYPE svg PUBLIC "-//W3C//DTD SVG 1.1//EN"
 "http://www.w3.org/Graphics/SVG/1.1/DTD/svg11.dtd">
<!-- Generated by graphviz version 7.0.5 (20221223.1930)
 -->
<!-- Title: iop/iLink/iLinkman Pages: 1 -->
<svg width="226pt" height="125pt"
 viewBox="0.00 0.00 226.00 125.00" xmlns="http://www.w3.org/2000/svg" xmlns:xlink="http://www.w3.org/1999/xlink">
<g id="graph0" class="graph" transform="scale(1 1) rotate(0) translate(4 121)">
<title>iop/iLink/iLinkman</title>
<g id="clust1" class="cluster">
<title>clusterdir_fc941b9cdd19bfc53379effb1dbc42b0</title>
<g id="a_clust1"><a xlink:href="dir_fc941b9cdd19bfc53379effb1dbc42b0.html" target="_top" xlink:title="iLink">
<polygon fill="#deebf9" stroke="#7f7f7f" stroke-dasharray="5,2" points="8,-39 8,-109 210,-109 210,-39 8,-39"/>
<text text-anchor="middle" x="109" y="-97" font-family="Helvetica,sans-Serif" font-size="10.00">iLink</text>
</a>
</g>
</g>
<g id="clust2" class="cluster">
<title>clusterdir_3217d47ebe458155e7239d0a228ab153</title>
<g id="a_clust2"><a xlink:href="dir_3217d47ebe458155e7239d0a228ab153.html" target="_top">
<polygon fill="#deebf9" stroke="#404040" stroke-width="2" points="16,-47 16,-82 202,-82 202,-47 16,-47"/>
</a>
</g>
</g>
<!-- dir_3217d47ebe458155e7239d0a228ab153 -->
<g id="node1" class="node">
<title>dir_3217d47ebe458155e7239d0a228ab153</title>
<text text-anchor="middle" x="166" y="-62" font-family="Helvetica,sans-Serif" font-size="10.00">iLinkman</text>
</g>
<!-- dir_d61dc2cc7a3fea5cf83a4c127f7dea92 -->
<g id="node2" class="node">
<title>dir_d61dc2cc7a3fea5cf83a4c127f7dea92</title>
<g id="a_node2"><a xlink:href="dir_d61dc2cc7a3fea5cf83a4c127f7dea92.html" target="_top" xlink:title="include">
<polygon fill="#60a2e3" stroke="#404040" points="71.5,-74 24.5,-74 24.5,-55 71.5,-55 71.5,-74"/>
<text text-anchor="middle" x="48" y="-62" font-family="Helvetica,sans-Serif" font-size="10.00">include</text>
</a>
</g>
</g>
<!-- dir_9be0baa3d4a3e9f480a9ee70594037fa -->
<g id="node4" class="node">
<title>dir_9be0baa3d4a3e9f480a9ee70594037fa</title>
<g id="a_node4"><a xlink:href="dir_9be0baa3d4a3e9f480a9ee70594037fa.html" target="_top" xlink:title="kernel">
<polygon fill="#deebf9" stroke="red" stroke-dasharray="5,2" points="69.5,-19 26.5,-19 26.5,0 69.5,0 69.5,-19"/>
<text text-anchor="middle" x="48" y="-7" font-family="Helvetica,sans-Serif" font-size="10.00">kernel</text>
</a>
</g>
</g>
<!-- dir_d61dc2cc7a3fea5cf83a4c127f7dea92&#45;&gt;dir_9be0baa3d4a3e9f480a9ee70594037fa -->
<g id="edge1" class="edge">
<title>dir_d61dc2cc7a3fea5cf83a4c127f7dea92&#45;&gt;dir_9be0baa3d4a3e9f480a9ee70594037fa</title>
<path fill="none" stroke="#63b8ff" d="M48,-54.75C48,-48.27 48,-39.16 48,-30.9"/>
<polygon fill="#63b8ff" stroke="#63b8ff" points="51.5,-30.96 48,-20.96 44.5,-30.96 51.5,-30.96"/>
<g id="a_edge1&#45;headlabel"><a xlink:href="dir_000128_000166.html" target="_top" xlink:title="1">
<text text-anchor="middle" x="54.34" y="-30.54" font-family="Helvetica,sans-Serif" font-size="10.00" fill="#63b8ff">1</text>
</a>
</g>
</g>
<!-- dir_7ea4ab416d8e3e8b817386f3fccc52c9 -->
<g id="node3" class="node">
<title>dir_7ea4ab416d8e3e8b817386f3fccc52c9</title>
<g id="a_node3"><a xlink:href="dir_7ea4ab416d8e3e8b817386f3fccc52c9.html" target="_top" xlink:title="src">
<polygon fill="#60a2e3" stroke="#404040" points="120,-74 90,-74 90,-55 120,-55 120,-74"/>
<text text-anchor="middle" x="105" y="-62" font-family="Helvetica,sans-Serif" font-size="10.00">src</text>
</a>
</g>
</g>
<!-- dir_7ea4ab416d8e3e8b817386f3fccc52c9&#45;&gt;dir_9be0baa3d4a3e9f480a9ee70594037fa -->
<g id="edge2" class="edge">
<title>dir_7ea4ab416d8e3e8b817386f3fccc52c9&#45;&gt;dir_9be0baa3d4a3e9f480a9ee70594037fa</title>
<path fill="none" stroke="#63b8ff" d="M96.31,-54.78C91.54,-50.05 85.51,-44.14 80,-39 75.74,-35.02 71.09,-30.8 66.69,-26.87"/>
<polygon fill="#63b8ff" stroke="#63b8ff" points="69.14,-24.37 59.33,-20.37 64.5,-29.61 69.14,-24.37"/>
<g id="a_edge2&#45;headlabel"><a xlink:href="dir_000319_000166.html" target="_top" xlink:title="51">
<text text-anchor="middle" x="72.58" y="-21.13" font-family="Helvetica,sans-Serif" font-size="10.00" fill="#63b8ff">51</text>
</a>
</g>
</g>
<!-- dir_bdd9a5d540de89e9fe90efdfc6973a4f -->
<g id="node5" class="node">
<title>dir_bdd9a5d540de89e9fe90efdfc6973a4f</title>
<g id="a_node5"><a xlink:href="dir_bdd9a5d540de89e9fe90efdfc6973a4f.html" target="_top" xlink:title="common">
<polygon fill="#deebf9" stroke="red" points="142,-19 88,-19 88,0 142,0 142,-19"/>
<text text-anchor="middle" x="115" y="-7" font-family="Helvetica,sans-Serif" font-size="10.00">common</text>
</a>
</g>
</g>
<!-- dir_7ea4ab416d8e3e8b817386f3fccc52c9&#45;&gt;dir_bdd9a5d540de89e9fe90efdfc6973a4f -->
<g id="edge3" class="edge">
<title>dir_7ea4ab416d8e3e8b817386f3fccc52c9&#45;&gt;dir_bdd9a5d540de89e9fe90efdfc6973a4f</title>
<path fill="none" stroke="#63b8ff" d="M106.65,-54.75C107.89,-48.19 109.63,-38.95 111.21,-30.6"/>
<polygon fill="#63b8ff" stroke="#63b8ff" points="114.62,-31.4 113.03,-20.93 107.74,-30.11 114.62,-31.4"/>
<g id="a_edge3&#45;headlabel"><a xlink:href="dir_000319_000024.html" target="_top" xlink:title="1">
<text text-anchor="middle" x="117.02" y="-31.48" font-family="Helvetica,sans-Serif" font-size="10.00" fill="#63b8ff">1</text>
</a>
</g>
</g>
</g>
</svg>
