<?xml version="1.0" encoding="UTF-8" standalone="no"?>
<!DOCTYPE svg PUBLIC "-//W3C//DTD SVG 1.1//EN"
 "http://www.w3.org/Graphics/SVG/1.1/DTD/svg11.dtd">
<!-- Generated by graphviz version 7.0.5 (20221223.1930)
 -->
<!-- Title: ee/libgs Pages: 1 -->
<svg width="311pt" height="180pt"
 viewBox="0.00 0.00 310.50 180.00" xmlns="http://www.w3.org/2000/svg" xmlns:xlink="http://www.w3.org/1999/xlink">
<g id="graph0" class="graph" transform="scale(1 1) rotate(0) translate(4 176)">
<title>ee/libgs</title>
<g id="clust1" class="cluster">
<title>clusterdir_049738f1909e8dc3e45fe1f6b3faa109</title>
<g id="a_clust1"><a xlink:href="dir_049738f1909e8dc3e45fe1f6b3faa109.html" target="_top" xlink:title="ee">
<polygon fill="#deebf9" stroke="#404040" stroke-dasharray="5,2" points="8,-39 8,-164 225,-164 225,-39 8,-39"/>
<text text-anchor="middle" x="116.5" y="-152" font-family="Helvetica,sans-Serif" font-size="10.00">ee</text>
</a>
</g>
</g>
<g id="clust2" class="cluster">
<title>clusterdir_b6bcbdb02df18226d1f2b0d9af42cc14</title>
<g id="a_clust2"><a xlink:href="dir_b6bcbdb02df18226d1f2b0d9af42cc14.html" target="_top">
<polygon fill="#deebf9" stroke="#404040" stroke-width="2" points="16,-47 16,-137 118,-137 118,-47 16,-47"/>
</a>
</g>
</g>
<!-- dir_694ec83a64f58cbdefbefce65cd1011c -->
<g id="node1" class="node">
<title>dir_694ec83a64f58cbdefbefce65cd1011c</title>
<g id="a_node1"><a xlink:href="dir_694ec83a64f58cbdefbefce65cd1011c.html" target="_top" xlink:title="kernel">
<polygon fill="#60a2e3" stroke="red" points="169.5,-74 126.5,-74 126.5,-55 169.5,-55 169.5,-74"/>
<text text-anchor="middle" x="148" y="-62" font-family="Helvetica,sans-Serif" font-size="10.00">kernel</text>
</a>
</g>
</g>
<!-- dir_a0a8ac7efb6662b749c1285408048e6d -->
<g id="node2" class="node">
<title>dir_a0a8ac7efb6662b749c1285408048e6d</title>
<g id="a_node2"><a xlink:href="dir_a0a8ac7efb6662b749c1285408048e6d.html" target="_top" xlink:title="erl">
<polygon fill="#60a2e3" stroke="red" points="216.5,-74 187.5,-74 187.5,-55 216.5,-55 216.5,-74"/>
<text text-anchor="middle" x="202" y="-62" font-family="Helvetica,sans-Serif" font-size="10.00">erl</text>
</a>
</g>
</g>
<!-- dir_b6bcbdb02df18226d1f2b0d9af42cc14 -->
<g id="node3" class="node">
<title>dir_b6bcbdb02df18226d1f2b0d9af42cc14</title>
<text text-anchor="middle" x="91" y="-117" font-family="Helvetica,sans-Serif" font-size="10.00">libgs</text>
</g>
<!-- dir_bcd2c58d4ad7915f6bedffda715c21a5 -->
<g id="node4" class="node">
<title>dir_bcd2c58d4ad7915f6bedffda715c21a5</title>
<g id="a_node4"><a xlink:href="dir_bcd2c58d4ad7915f6bedffda715c21a5.html" target="_top" xlink:title="include">
<polygon fill="#60a2e3" stroke="#404040" points="89.5,-74 42.5,-74 42.5,-55 89.5,-55 89.5,-74"/>
<text text-anchor="middle" x="66" y="-62" font-family="Helvetica,sans-Serif" font-size="10.00">include</text>
</a>
</g>
</g>
<!-- dir_bdd9a5d540de89e9fe90efdfc6973a4f -->
<g id="node6" class="node">
<title>dir_bdd9a5d540de89e9fe90efdfc6973a4f</title>
<g id="a_node6"><a xlink:href="dir_bdd9a5d540de89e9fe90efdfc6973a4f.html" target="_top" xlink:title="common">
<polygon fill="#deebf9" stroke="red" points="182,-19 128,-19 128,0 182,0 182,-19"/>
<text text-anchor="middle" x="155" y="-7" font-family="Helvetica,sans-Serif" font-size="10.00">common</text>
</a>
</g>
</g>
<!-- dir_bcd2c58d4ad7915f6bedffda715c21a5&#45;&gt;dir_bdd9a5d540de89e9fe90efdfc6973a4f -->
<g id="edge1" class="edge">
<title>dir_bcd2c58d4ad7915f6bedffda715c21a5&#45;&gt;dir_bdd9a5d540de89e9fe90efdfc6973a4f</title>
<path fill="none" stroke="#63b8ff" d="M74.81,-54.64C80.07,-49.64 87.07,-43.52 94,-39 102.51,-33.45 112.28,-28.38 121.47,-24.1"/>
<polygon fill="#63b8ff" stroke="#63b8ff" points="122.79,-27.35 130.5,-20.09 119.94,-20.95 122.79,-27.35"/>
<g id="a_edge1&#45;headlabel"><a xlink:href="dir_000080_000024.html" target="_top" xlink:title="1">
<text text-anchor="middle" x="122.04" y="-28.29" font-family="Helvetica,sans-Serif" font-size="10.00" fill="#63b8ff">1</text>
</a>
</g>
</g>
<!-- dir_697e079727c0d4c73a79472c13971083 -->
<g id="node5" class="node">
<title>dir_697e079727c0d4c73a79472c13971083</title>
<g id="a_node5"><a xlink:href="dir_697e079727c0d4c73a79472c13971083.html" target="_top" xlink:title="src">
<polygon fill="#60a2e3" stroke="#404040" points="54,-129 24,-129 24,-110 54,-110 54,-129"/>
<text text-anchor="middle" x="39" y="-117" font-family="Helvetica,sans-Serif" font-size="10.00">src</text>
</a>
</g>
</g>
<!-- dir_697e079727c0d4c73a79472c13971083&#45;&gt;dir_694ec83a64f58cbdefbefce65cd1011c -->
<g id="edge3" class="edge">
<title>dir_697e079727c0d4c73a79472c13971083&#45;&gt;dir_694ec83a64f58cbdefbefce65cd1011c</title>
<path fill="none" stroke="#63b8ff" d="M54.16,-111.13C70.99,-102.94 98.56,-89.54 119.47,-79.37"/>
<polygon fill="#63b8ff" stroke="#63b8ff" points="120.88,-82.58 128.34,-75.06 117.82,-76.28 120.88,-82.58"/>
<g id="a_edge3&#45;headlabel"><a xlink:href="dir_000256_000165.html" target="_top" xlink:title="10">
<text text-anchor="middle" x="120.25" y="-83.54" font-family="Helvetica,sans-Serif" font-size="10.00" fill="#63b8ff">10</text>
</a>
</g>
</g>
<!-- dir_697e079727c0d4c73a79472c13971083&#45;&gt;dir_a0a8ac7efb6662b749c1285408048e6d -->
<g id="edge4" class="edge">
<title>dir_697e079727c0d4c73a79472c13971083&#45;&gt;dir_a0a8ac7efb6662b749c1285408048e6d</title>
<path fill="none" stroke="#63b8ff" d="M54.32,-113.23C57.51,-112.14 60.86,-111.02 64,-110 111.63,-94.45 126.43,-91.62 176.55,-74.71"/>
<polygon fill="#63b8ff" stroke="#63b8ff" points="177.67,-78.03 186.01,-71.5 175.41,-71.4 177.67,-78.03"/>
<g id="a_edge4&#45;headlabel"><a xlink:href="dir_000256_000045.html" target="_top" xlink:title="1">
<text text-anchor="middle" x="176.61" y="-78.89" font-family="Helvetica,sans-Serif" font-size="10.00" fill="#63b8ff">1</text>
</a>
</g>
</g>
<!-- dir_697e079727c0d4c73a79472c13971083&#45;&gt;dir_bcd2c58d4ad7915f6bedffda715c21a5 -->
<g id="edge5" class="edge">
<title>dir_697e079727c0d4c73a79472c13971083&#45;&gt;dir_bcd2c58d4ad7915f6bedffda715c21a5</title>
<path fill="none" stroke="#63b8ff" d="M43.46,-109.75C46.95,-102.88 51.95,-93.08 56.35,-84.45"/>
<polygon fill="#63b8ff" stroke="#63b8ff" points="59.34,-86.29 60.76,-75.79 53.1,-83.11 59.34,-86.29"/>
<g id="a_edge5&#45;headlabel"><a xlink:href="dir_000256_000080.html" target="_top" xlink:title="10">
<text text-anchor="middle" x="60.92" y="-86.93" font-family="Helvetica,sans-Serif" font-size="10.00" fill="#63b8ff">10</text>
</a>
</g>
</g>
<!-- dir_697e079727c0d4c73a79472c13971083&#45;&gt;dir_bdd9a5d540de89e9fe90efdfc6973a4f -->
<g id="edge6" class="edge">
<title>dir_697e079727c0d4c73a79472c13971083&#45;&gt;dir_bdd9a5d540de89e9fe90efdfc6973a4f</title>
<path fill="none" stroke="#63b8ff" d="M54.25,-113.01C57.45,-111.94 60.82,-110.88 64,-110 136.31,-89.89 181.92,-132.46 229,-74 238.76,-61.88 237.8,-51.82 229,-39 220.84,-27.12 206.98,-20.19 193.45,-16.15"/>
<polygon fill="#63b8ff" stroke="#63b8ff" points="194.3,-12.75 183.76,-13.75 192.62,-19.55 194.3,-12.75"/>
<g id="a_edge6&#45;headlabel"><a xlink:href="dir_000256_000024.html" target="_top" xlink:title="10">
<text text-anchor="middle" x="197.01" y="-8" font-family="Helvetica,sans-Serif" font-size="10.00" fill="#63b8ff">10</text>
</a>
</g>
</g>
<!-- dir_0981ace215aa2029f526b70c145b9fbe -->
<g id="node7" class="node">
<title>dir_0981ace215aa2029f526b70c145b9fbe</title>
<g id="a_node7"><a xlink:href="dir_0981ace215aa2029f526b70c145b9fbe.html" target="_top" xlink:title="iop">
<polygon fill="#deebf9" stroke="red" points="302.5,-74 273.5,-74 273.5,-55 302.5,-55 302.5,-74"/>
<text text-anchor="middle" x="288" y="-62" font-family="Helvetica,sans-Serif" font-size="10.00">iop</text>
</a>
</g>
</g>
<!-- dir_697e079727c0d4c73a79472c13971083&#45;&gt;dir_0981ace215aa2029f526b70c145b9fbe -->
<g id="edge2" class="edge">
<title>dir_697e079727c0d4c73a79472c13971083&#45;&gt;dir_0981ace215aa2029f526b70c145b9fbe</title>
<path fill="none" stroke="#63b8ff" d="M54.5,-112.84C57.62,-111.81 60.89,-110.81 64,-110 149.28,-87.76 173.27,-94.42 259,-74 260,-73.76 261.03,-73.51 262.06,-73.25"/>
<polygon fill="#63b8ff" stroke="#63b8ff" points="262.87,-76.65 271.57,-70.61 261,-69.91 262.87,-76.65"/>
<g id="a_edge2&#45;headlabel"><a xlink:href="dir_000256_000159.html" target="_top" xlink:title="10">
<text text-anchor="middle" x="261.62" y="-77.44" font-family="Helvetica,sans-Serif" font-size="10.00" fill="#63b8ff">10</text>
</a>
</g>
</g>
</g>
</svg>
