<?xml version="1.0" encoding="UTF-8" standalone="no"?>
<!DOCTYPE svg PUBLIC "-//W3C//DTD SVG 1.1//EN"
 "http://www.w3.org/Graphics/SVG/1.1/DTD/svg11.dtd">
<!-- Generated by graphviz version 7.0.5 (20221223.1930)
 -->
<!-- Title: ee/rpc/tcpips Pages: 1 -->
<svg width="255pt" height="180pt"
 viewBox="0.00 0.00 254.67 180.00" xmlns="http://www.w3.org/2000/svg" xmlns:xlink="http://www.w3.org/1999/xlink">
<g id="graph0" class="graph" transform="scale(1 1) rotate(0) translate(4 176)">
<title>ee/rpc/tcpips</title>
<g id="clust1" class="cluster">
<title>clusterdir_5b119dc963fa9b25ef41951231899460</title>
<g id="a_clust1"><a xlink:href="dir_5b119dc963fa9b25ef41951231899460.html" target="_top" xlink:title="rpc">
<polygon fill="#deebf9" stroke="#7f7f7f" stroke-dasharray="5,2" points="8,-39 8,-164 132,-164 132,-39 8,-39"/>
<text text-anchor="middle" x="70" y="-152" font-family="Helvetica,sans-Serif" font-size="10.00">rpc</text>
</a>
</g>
</g>
<g id="clust2" class="cluster">
<title>clusterdir_d367c99d526987235c59a734292a94e2</title>
<g id="a_clust2"><a xlink:href="dir_d367c99d526987235c59a734292a94e2.html" target="_top">
<polygon fill="#deebf9" stroke="#404040" stroke-width="2" points="16,-47 16,-137 124,-137 124,-47 16,-47"/>
</a>
</g>
</g>
<!-- dir_d367c99d526987235c59a734292a94e2 -->
<g id="node1" class="node">
<title>dir_d367c99d526987235c59a734292a94e2</title>
<text text-anchor="middle" x="94" y="-117" font-family="Helvetica,sans-Serif" font-size="10.00">tcpips</text>
</g>
<!-- dir_be6a4eb92b3e198248caebd4132877bb -->
<g id="node2" class="node">
<title>dir_be6a4eb92b3e198248caebd4132877bb</title>
<g id="a_node2"><a xlink:href="dir_be6a4eb92b3e198248caebd4132877bb.html" target="_top" xlink:title="include">
<polygon fill="#60a2e3" stroke="#404040" points="93.5,-74 46.5,-74 46.5,-55 93.5,-55 93.5,-74"/>
<text text-anchor="middle" x="70" y="-62" font-family="Helvetica,sans-Serif" font-size="10.00">include</text>
</a>
</g>
</g>
<!-- dir_0981ace215aa2029f526b70c145b9fbe -->
<g id="node4" class="node">
<title>dir_0981ace215aa2029f526b70c145b9fbe</title>
<g id="a_node4"><a xlink:href="dir_0981ace215aa2029f526b70c145b9fbe.html" target="_top" xlink:title="iop">
<polygon fill="#deebf9" stroke="red" points="84.5,-19 55.5,-19 55.5,0 84.5,0 84.5,-19"/>
<text text-anchor="middle" x="70" y="-7" font-family="Helvetica,sans-Serif" font-size="10.00">iop</text>
</a>
</g>
</g>
<!-- dir_be6a4eb92b3e198248caebd4132877bb&#45;&gt;dir_0981ace215aa2029f526b70c145b9fbe -->
<g id="edge1" class="edge">
<title>dir_be6a4eb92b3e198248caebd4132877bb&#45;&gt;dir_0981ace215aa2029f526b70c145b9fbe</title>
<path fill="none" stroke="#63b8ff" d="M70,-54.75C70,-48.27 70,-39.16 70,-30.9"/>
<polygon fill="#63b8ff" stroke="#63b8ff" points="73.5,-30.96 70,-20.96 66.5,-30.96 73.5,-30.96"/>
<g id="a_edge1&#45;headlabel"><a xlink:href="dir_000106_000159.html" target="_top" xlink:title="1">
<text text-anchor="middle" x="76.34" y="-30.54" font-family="Helvetica,sans-Serif" font-size="10.00" fill="#63b8ff">1</text>
</a>
</g>
</g>
<!-- dir_bdd9a5d540de89e9fe90efdfc6973a4f -->
<g id="node7" class="node">
<title>dir_bdd9a5d540de89e9fe90efdfc6973a4f</title>
<g id="a_node7"><a xlink:href="dir_bdd9a5d540de89e9fe90efdfc6973a4f.html" target="_top" xlink:title="common">
<polygon fill="#deebf9" stroke="red" points="221,-19 167,-19 167,0 221,0 221,-19"/>
<text text-anchor="middle" x="194" y="-7" font-family="Helvetica,sans-Serif" font-size="10.00">common</text>
</a>
</g>
</g>
<!-- dir_be6a4eb92b3e198248caebd4132877bb&#45;&gt;dir_bdd9a5d540de89e9fe90efdfc6973a4f -->
<g id="edge2" class="edge">
<title>dir_be6a4eb92b3e198248caebd4132877bb&#45;&gt;dir_bdd9a5d540de89e9fe90efdfc6973a4f</title>
<path fill="none" stroke="#63b8ff" d="M91.03,-54.51C110.75,-46.08 140.47,-33.38 162.91,-23.79"/>
<polygon fill="#63b8ff" stroke="#63b8ff" points="164.06,-27.1 171.88,-19.95 161.31,-20.66 164.06,-27.1"/>
<g id="a_edge2&#45;headlabel"><a xlink:href="dir_000106_000024.html" target="_top" xlink:title="1">
<text text-anchor="middle" x="163.27" y="-28.03" font-family="Helvetica,sans-Serif" font-size="10.00" fill="#63b8ff">1</text>
</a>
</g>
</g>
<!-- dir_06508ded56efeb0264642d328f7c09ba -->
<g id="node3" class="node">
<title>dir_06508ded56efeb0264642d328f7c09ba</title>
<g id="a_node3"><a xlink:href="dir_06508ded56efeb0264642d328f7c09ba.html" target="_top" xlink:title="src">
<polygon fill="#60a2e3" stroke="#404040" points="54,-129 24,-129 24,-110 54,-110 54,-129"/>
<text text-anchor="middle" x="39" y="-117" font-family="Helvetica,sans-Serif" font-size="10.00">src</text>
</a>
</g>
</g>
<!-- dir_06508ded56efeb0264642d328f7c09ba&#45;&gt;dir_be6a4eb92b3e198248caebd4132877bb -->
<g id="edge6" class="edge">
<title>dir_06508ded56efeb0264642d328f7c09ba&#45;&gt;dir_be6a4eb92b3e198248caebd4132877bb</title>
<path fill="none" stroke="#63b8ff" d="M44.12,-109.75C48.18,-102.81 53.99,-92.86 59.09,-84.16"/>
<polygon fill="#63b8ff" stroke="#63b8ff" points="61.98,-86.15 64.01,-75.75 55.94,-82.61 61.98,-86.15"/>
<g id="a_edge6&#45;headlabel"><a xlink:href="dir_000281_000106.html" target="_top" xlink:title="1">
<text text-anchor="middle" x="63.38" y="-86.88" font-family="Helvetica,sans-Serif" font-size="10.00" fill="#63b8ff">1</text>
</a>
</g>
</g>
<!-- dir_694ec83a64f58cbdefbefce65cd1011c -->
<g id="node5" class="node">
<title>dir_694ec83a64f58cbdefbefce65cd1011c</title>
<g id="a_node5"><a xlink:href="dir_694ec83a64f58cbdefbefce65cd1011c.html" target="_top" xlink:title="kernel">
<polygon fill="#deebf9" stroke="red" stroke-dasharray="5,2" points="183.5,-74 140.5,-74 140.5,-55 183.5,-55 183.5,-74"/>
<text text-anchor="middle" x="162" y="-62" font-family="Helvetica,sans-Serif" font-size="10.00">kernel</text>
</a>
</g>
</g>
<!-- dir_06508ded56efeb0264642d328f7c09ba&#45;&gt;dir_694ec83a64f58cbdefbefce65cd1011c -->
<g id="edge3" class="edge">
<title>dir_06508ded56efeb0264642d328f7c09ba&#45;&gt;dir_694ec83a64f58cbdefbefce65cd1011c</title>
<path fill="none" stroke="#63b8ff" d="M54.33,-111.89C73.32,-103.71 106.14,-89.57 130.57,-79.04"/>
<polygon fill="#63b8ff" stroke="#63b8ff" points="131.94,-82.27 139.73,-75.09 129.17,-75.84 131.94,-82.27"/>
<g id="a_edge3&#45;headlabel"><a xlink:href="dir_000281_000165.html" target="_top" xlink:title="1">
<text text-anchor="middle" x="131.15" y="-83.2" font-family="Helvetica,sans-Serif" font-size="10.00" fill="#63b8ff">1</text>
</a>
</g>
</g>
<!-- dir_a0a8ac7efb6662b749c1285408048e6d -->
<g id="node6" class="node">
<title>dir_a0a8ac7efb6662b749c1285408048e6d</title>
<g id="a_node6"><a xlink:href="dir_a0a8ac7efb6662b749c1285408048e6d.html" target="_top" xlink:title="erl">
<polygon fill="#deebf9" stroke="red" stroke-dasharray="5,2" points="230.5,-74 201.5,-74 201.5,-55 230.5,-55 230.5,-74"/>
<text text-anchor="middle" x="216" y="-62" font-family="Helvetica,sans-Serif" font-size="10.00">erl</text>
</a>
</g>
</g>
<!-- dir_06508ded56efeb0264642d328f7c09ba&#45;&gt;dir_a0a8ac7efb6662b749c1285408048e6d -->
<g id="edge4" class="edge">
<title>dir_06508ded56efeb0264642d328f7c09ba&#45;&gt;dir_a0a8ac7efb6662b749c1285408048e6d</title>
<path fill="none" stroke="#63b8ff" d="M54.44,-112.85C57.27,-111.87 60.22,-110.88 63,-110 116.94,-93 134.03,-92.42 190.79,-74.5"/>
<polygon fill="#63b8ff" stroke="#63b8ff" points="191.57,-77.93 200.02,-71.54 189.43,-71.26 191.57,-77.93"/>
<g id="a_edge4&#45;headlabel"><a xlink:href="dir_000281_000045.html" target="_top" xlink:title="1">
<text text-anchor="middle" x="190.45" y="-78.77" font-family="Helvetica,sans-Serif" font-size="10.00" fill="#63b8ff">1</text>
</a>
</g>
</g>
<!-- dir_06508ded56efeb0264642d328f7c09ba&#45;&gt;dir_bdd9a5d540de89e9fe90efdfc6973a4f -->
<g id="edge5" class="edge">
<title>dir_06508ded56efeb0264642d328f7c09ba&#45;&gt;dir_bdd9a5d540de89e9fe90efdfc6973a4f</title>
<path fill="none" stroke="#63b8ff" d="M54.39,-112.69C57.23,-111.72 60.19,-110.78 63,-110 140.36,-88.55 189.21,-136.16 240,-74 249.84,-61.95 247.57,-52.59 240,-39 236.97,-33.56 232.43,-29.03 227.36,-25.3"/>
<polygon fill="#63b8ff" stroke="#63b8ff" points="229.51,-22.51 219.17,-20.22 225.83,-28.47 229.51,-22.51"/>
<g id="a_edge5&#45;headlabel"><a xlink:href="dir_000281_000024.html" target="_top" xlink:title="2">
<text text-anchor="middle" x="232.78" y="-18.7" font-family="Helvetica,sans-Serif" font-size="10.00" fill="#63b8ff">2</text>
</a>
</g>
</g>
</g>
</svg>
