<?xml version="1.0" encoding="UTF-8" standalone="no"?>
<!DOCTYPE svg PUBLIC "-//W3C//DTD SVG 1.1//EN"
 "http://www.w3.org/Graphics/SVG/1.1/DTD/svg11.dtd">
<!-- Generated by graphviz version 7.0.5 (20221223.1930)
 -->
<!-- Title: ee/rpc/memorycard Pages: 1 -->
<svg width="265pt" height="180pt"
 viewBox="0.00 0.00 264.50 180.00" xmlns="http://www.w3.org/2000/svg" xmlns:xlink="http://www.w3.org/1999/xlink">
<g id="graph0" class="graph" transform="scale(1 1) rotate(0) translate(4 176)">
<title>ee/rpc/memorycard</title>
<g id="clust1" class="cluster">
<title>clusterdir_5b119dc963fa9b25ef41951231899460</title>
<g id="a_clust1"><a xlink:href="dir_5b119dc963fa9b25ef41951231899460.html" target="_top" xlink:title="rpc">
<polygon fill="#deebf9" stroke="#7f7f7f" stroke-dasharray="5,2" points="8,-39 8,-164 158,-164 158,-39 8,-39"/>
<text text-anchor="middle" x="83" y="-152" font-family="Helvetica,sans-Serif" font-size="10.00">rpc</text>
</a>
</g>
</g>
<g id="clust2" class="cluster">
<title>clusterdir_52af18bf396be92337d4eeddb9a1740b</title>
<g id="a_clust2"><a xlink:href="dir_52af18bf396be92337d4eeddb9a1740b.html" target="_top">
<polygon fill="#deebf9" stroke="#404040" stroke-width="2" points="16,-47 16,-137 150,-137 150,-47 16,-47"/>
</a>
</g>
</g>
<!-- dir_52af18bf396be92337d4eeddb9a1740b -->
<g id="node1" class="node">
<title>dir_52af18bf396be92337d4eeddb9a1740b</title>
<text text-anchor="middle" x="107" y="-117" font-family="Helvetica,sans-Serif" font-size="10.00">memorycard</text>
</g>
<!-- dir_76c0ea988611758bf556e82d119dc5f5 -->
<g id="node2" class="node">
<title>dir_76c0ea988611758bf556e82d119dc5f5</title>
<g id="a_node2"><a xlink:href="dir_76c0ea988611758bf556e82d119dc5f5.html" target="_top" xlink:title="include">
<polygon fill="#60a2e3" stroke="#404040" points="71.5,-74 24.5,-74 24.5,-55 71.5,-55 71.5,-74"/>
<text text-anchor="middle" x="48" y="-62" font-family="Helvetica,sans-Serif" font-size="10.00">include</text>
</a>
</g>
</g>
<!-- dir_bdd9a5d540de89e9fe90efdfc6973a4f -->
<g id="node4" class="node">
<title>dir_bdd9a5d540de89e9fe90efdfc6973a4f</title>
<g id="a_node4"><a xlink:href="dir_bdd9a5d540de89e9fe90efdfc6973a4f.html" target="_top" xlink:title="common">
<polygon fill="#deebf9" stroke="red" points="101,-19 47,-19 47,0 101,0 101,-19"/>
<text text-anchor="middle" x="74" y="-7" font-family="Helvetica,sans-Serif" font-size="10.00">common</text>
</a>
</g>
</g>
<!-- dir_76c0ea988611758bf556e82d119dc5f5&#45;&gt;dir_bdd9a5d540de89e9fe90efdfc6973a4f -->
<g id="edge1" class="edge">
<title>dir_76c0ea988611758bf556e82d119dc5f5&#45;&gt;dir_bdd9a5d540de89e9fe90efdfc6973a4f</title>
<path fill="none" stroke="#63b8ff" d="M52.29,-54.75C55.62,-47.96 60.36,-38.3 64.56,-29.73"/>
<polygon fill="#63b8ff" stroke="#63b8ff" points="67.68,-31.32 68.95,-20.8 61.4,-28.24 67.68,-31.32"/>
<g id="a_edge1&#45;headlabel"><a xlink:href="dir_000097_000024.html" target="_top" xlink:title="1">
<text text-anchor="middle" x="69.32" y="-31.94" font-family="Helvetica,sans-Serif" font-size="10.00" fill="#63b8ff">1</text>
</a>
</g>
</g>
<!-- dir_caf0af085a7c65a631c06dc345ebd7aa -->
<g id="node3" class="node">
<title>dir_caf0af085a7c65a631c06dc345ebd7aa</title>
<g id="a_node3"><a xlink:href="dir_caf0af085a7c65a631c06dc345ebd7aa.html" target="_top" xlink:title="src">
<polygon fill="#60a2e3" stroke="#404040" points="54,-129 24,-129 24,-110 54,-110 54,-129"/>
<text text-anchor="middle" x="39" y="-117" font-family="Helvetica,sans-Serif" font-size="10.00">src</text>
</a>
</g>
</g>
<!-- dir_caf0af085a7c65a631c06dc345ebd7aa&#45;&gt;dir_76c0ea988611758bf556e82d119dc5f5 -->
<g id="edge3" class="edge">
<title>dir_caf0af085a7c65a631c06dc345ebd7aa&#45;&gt;dir_76c0ea988611758bf556e82d119dc5f5</title>
<path fill="none" stroke="#63b8ff" d="M40.49,-109.75C41.6,-103.19 43.17,-93.95 44.59,-85.6"/>
<polygon fill="#63b8ff" stroke="#63b8ff" points="48,-86.38 46.23,-75.93 41.1,-85.21 48,-86.38"/>
<g id="a_edge3&#45;headlabel"><a xlink:href="dir_000272_000097.html" target="_top" xlink:title="1">
<text text-anchor="middle" x="50.46" y="-86.41" font-family="Helvetica,sans-Serif" font-size="10.00" fill="#63b8ff">1</text>
</a>
</g>
</g>
<!-- dir_caf0af085a7c65a631c06dc345ebd7aa&#45;&gt;dir_bdd9a5d540de89e9fe90efdfc6973a4f -->
<g id="edge5" class="edge">
<title>dir_caf0af085a7c65a631c06dc345ebd7aa&#45;&gt;dir_bdd9a5d540de89e9fe90efdfc6973a4f</title>
<path fill="none" stroke="#63b8ff" d="M51.61,-109.55C61.71,-101.54 75.12,-88.81 81,-74 86.52,-60.1 84.28,-43.21 80.93,-30.35"/>
<polygon fill="#63b8ff" stroke="#63b8ff" points="84.31,-29.46 78.03,-20.93 77.62,-31.52 84.31,-29.46"/>
<g id="a_edge5&#45;headlabel"><a xlink:href="dir_000272_000024.html" target="_top" xlink:title="1">
<text text-anchor="middle" x="87.64" y="-28.11" font-family="Helvetica,sans-Serif" font-size="10.00" fill="#63b8ff">1</text>
</a>
</g>
</g>
<!-- dir_a0a8ac7efb6662b749c1285408048e6d -->
<g id="node5" class="node">
<title>dir_a0a8ac7efb6662b749c1285408048e6d</title>
<g id="a_node5"><a xlink:href="dir_a0a8ac7efb6662b749c1285408048e6d.html" target="_top" xlink:title="erl">
<polygon fill="#deebf9" stroke="red" stroke-dasharray="5,2" points="195.5,-74 166.5,-74 166.5,-55 195.5,-55 195.5,-74"/>
<text text-anchor="middle" x="181" y="-62" font-family="Helvetica,sans-Serif" font-size="10.00">erl</text>
</a>
</g>
</g>
<!-- dir_caf0af085a7c65a631c06dc345ebd7aa&#45;&gt;dir_a0a8ac7efb6662b749c1285408048e6d -->
<g id="edge4" class="edge">
<title>dir_caf0af085a7c65a631c06dc345ebd7aa&#45;&gt;dir_a0a8ac7efb6662b749c1285408048e6d</title>
<path fill="none" stroke="#63b8ff" d="M54.47,-112.73C78.83,-103.63 126.4,-85.88 155.77,-74.92"/>
<polygon fill="#63b8ff" stroke="#63b8ff" points="156.84,-78.25 164.99,-71.48 154.39,-71.69 156.84,-78.25"/>
<g id="a_edge4&#45;headlabel"><a xlink:href="dir_000272_000045.html" target="_top" xlink:title="1">
<text text-anchor="middle" x="155.88" y="-79.14" font-family="Helvetica,sans-Serif" font-size="10.00" fill="#63b8ff">1</text>
</a>
</g>
</g>
<!-- dir_694ec83a64f58cbdefbefce65cd1011c -->
<g id="node6" class="node">
<title>dir_694ec83a64f58cbdefbefce65cd1011c</title>
<g id="a_node6"><a xlink:href="dir_694ec83a64f58cbdefbefce65cd1011c.html" target="_top" xlink:title="kernel">
<polygon fill="#deebf9" stroke="red" stroke-dasharray="5,2" points="256.5,-74 213.5,-74 213.5,-55 256.5,-55 256.5,-74"/>
<text text-anchor="middle" x="235" y="-62" font-family="Helvetica,sans-Serif" font-size="10.00">kernel</text>
</a>
</g>
</g>
<!-- dir_caf0af085a7c65a631c06dc345ebd7aa&#45;&gt;dir_694ec83a64f58cbdefbefce65cd1011c -->
<g id="edge2" class="edge">
<title>dir_caf0af085a7c65a631c06dc345ebd7aa&#45;&gt;dir_694ec83a64f58cbdefbefce65cd1011c</title>
<path fill="none" stroke="#63b8ff" d="M54.42,-112.8C57.26,-111.82 60.21,-110.85 63,-110 122.02,-92.11 140.22,-90.95 202.28,-74.66"/>
<polygon fill="#63b8ff" stroke="#63b8ff" points="202.84,-78.13 211.6,-72.18 201.04,-71.37 202.84,-78.13"/>
<g id="a_edge2&#45;headlabel"><a xlink:href="dir_000272_000165.html" target="_top" xlink:title="1">
<text text-anchor="middle" x="201.55" y="-78.91" font-family="Helvetica,sans-Serif" font-size="10.00" fill="#63b8ff">1</text>
</a>
</g>
</g>
</g>
</svg>
