<?xml version="1.0" encoding="UTF-8" standalone="no"?>
<!DOCTYPE svg PUBLIC "-//W3C//DTD SVG 1.1//EN"
 "http://www.w3.org/Graphics/SVG/1.1/DTD/svg11.dtd">
<!-- Generated by graphviz version 7.0.5 (20221223.1930)
 -->
<!-- Title: iop/usb/camera Pages: 1 -->
<svg width="318pt" height="149pt"
 viewBox="0.00 0.00 318.00 149.00" xmlns="http://www.w3.org/2000/svg" xmlns:xlink="http://www.w3.org/1999/xlink">
<g id="graph0" class="graph" transform="scale(1 1) rotate(0) translate(4 145)">
<title>iop/usb/camera</title>
<g id="clust1" class="cluster">
<title>clusterdir_b6c875632944d243a548db157cd77ec2</title>
<g id="a_clust1"><a xlink:href="dir_b6c875632944d243a548db157cd77ec2.html" target="_top" xlink:title="usb">
<polygon fill="#deebf9" stroke="#7f7f7f" stroke-dasharray="5,2" points="8,-8 8,-133 184,-133 184,-8 8,-8"/>
<text text-anchor="middle" x="96" y="-121" font-family="Helvetica,sans-Serif" font-size="10.00">usb</text>
</a>
</g>
</g>
<g id="clust2" class="cluster">
<title>clusterdir_354d0fe30f8451f44d30d5ee272e7643</title>
<g id="a_clust2"><a xlink:href="dir_354d0fe30f8451f44d30d5ee272e7643.html" target="_top">
<polygon fill="#deebf9" stroke="#404040" stroke-width="2" points="16,-16 16,-106 130,-106 130,-16 16,-16"/>
</a>
</g>
</g>
<!-- dir_8f550b51c304fe10978bfd792866fae2 -->
<g id="node1" class="node">
<title>dir_8f550b51c304fe10978bfd792866fae2</title>
<g id="a_node1"><a xlink:href="dir_8f550b51c304fe10978bfd792866fae2.html" target="_top" xlink:title="usbd">
<polygon fill="#60a2e3" stroke="red" points="176,-43 138,-43 138,-24 176,-24 176,-43"/>
<text text-anchor="middle" x="157" y="-31" font-family="Helvetica,sans-Serif" font-size="10.00">usbd</text>
</a>
</g>
</g>
<!-- dir_354d0fe30f8451f44d30d5ee272e7643 -->
<g id="node2" class="node">
<title>dir_354d0fe30f8451f44d30d5ee272e7643</title>
<text text-anchor="middle" x="97" y="-86" font-family="Helvetica,sans-Serif" font-size="10.00">camera</text>
</g>
<!-- dir_9a86dbb94afa354b42c3b83282a0ba50 -->
<g id="node3" class="node">
<title>dir_9a86dbb94afa354b42c3b83282a0ba50</title>
<g id="a_node3"><a xlink:href="dir_9a86dbb94afa354b42c3b83282a0ba50.html" target="_top" xlink:title="include">
<polygon fill="#60a2e3" stroke="#404040" points="71.5,-43 24.5,-43 24.5,-24 71.5,-24 71.5,-43"/>
<text text-anchor="middle" x="48" y="-31" font-family="Helvetica,sans-Serif" font-size="10.00">include</text>
</a>
</g>
</g>
<!-- dir_3df15571f2d889d39f44f0244a444c2b -->
<g id="node4" class="node">
<title>dir_3df15571f2d889d39f44f0244a444c2b</title>
<g id="a_node4"><a xlink:href="dir_3df15571f2d889d39f44f0244a444c2b.html" target="_top" xlink:title="src">
<polygon fill="#60a2e3" stroke="#404040" points="54,-98 24,-98 24,-79 54,-79 54,-98"/>
<text text-anchor="middle" x="39" y="-86" font-family="Helvetica,sans-Serif" font-size="10.00">src</text>
</a>
</g>
</g>
<!-- dir_3df15571f2d889d39f44f0244a444c2b&#45;&gt;dir_8f550b51c304fe10978bfd792866fae2 -->
<g id="edge1" class="edge">
<title>dir_3df15571f2d889d39f44f0244a444c2b&#45;&gt;dir_8f550b51c304fe10978bfd792866fae2</title>
<path fill="none" stroke="#63b8ff" d="M54.43,-80.57C72.87,-72.29 104.15,-58.24 127.33,-47.83"/>
<polygon fill="#63b8ff" stroke="#63b8ff" points="128.58,-51.1 136.27,-43.81 125.71,-44.72 128.58,-51.1"/>
<g id="a_edge1&#45;headlabel"><a xlink:href="dir_000351_000385.html" target="_top" xlink:title="3">
<text text-anchor="middle" x="127.85" y="-52.04" font-family="Helvetica,sans-Serif" font-size="10.00" fill="#63b8ff">3</text>
</a>
</g>
</g>
<!-- dir_3df15571f2d889d39f44f0244a444c2b&#45;&gt;dir_9a86dbb94afa354b42c3b83282a0ba50 -->
<g id="edge2" class="edge">
<title>dir_3df15571f2d889d39f44f0244a444c2b&#45;&gt;dir_9a86dbb94afa354b42c3b83282a0ba50</title>
<path fill="none" stroke="#63b8ff" d="M40.49,-78.75C41.6,-72.19 43.17,-62.95 44.59,-54.6"/>
<polygon fill="#63b8ff" stroke="#63b8ff" points="48,-55.38 46.23,-44.93 41.1,-54.21 48,-55.38"/>
<g id="a_edge2&#45;headlabel"><a xlink:href="dir_000351_000150.html" target="_top" xlink:title="1">
<text text-anchor="middle" x="50.46" y="-55.41" font-family="Helvetica,sans-Serif" font-size="10.00" fill="#63b8ff">1</text>
</a>
</g>
</g>
<!-- dir_9be0baa3d4a3e9f480a9ee70594037fa -->
<g id="node5" class="node">
<title>dir_9be0baa3d4a3e9f480a9ee70594037fa</title>
<g id="a_node5"><a xlink:href="dir_9be0baa3d4a3e9f480a9ee70594037fa.html" target="_top" xlink:title="kernel">
<polygon fill="#deebf9" stroke="red" stroke-dasharray="5,2" points="237.5,-43 194.5,-43 194.5,-24 237.5,-24 237.5,-43"/>
<text text-anchor="middle" x="216" y="-31" font-family="Helvetica,sans-Serif" font-size="10.00">kernel</text>
</a>
</g>
</g>
<!-- dir_3df15571f2d889d39f44f0244a444c2b&#45;&gt;dir_9be0baa3d4a3e9f480a9ee70594037fa -->
<g id="edge3" class="edge">
<title>dir_3df15571f2d889d39f44f0244a444c2b&#45;&gt;dir_9be0baa3d4a3e9f480a9ee70594037fa</title>
<path fill="none" stroke="#63b8ff" d="M54.3,-82.18C57.5,-81.1 60.85,-79.99 64,-79 115.31,-62.84 131.05,-59.7 183.34,-44.35"/>
<polygon fill="#63b8ff" stroke="#63b8ff" points="184.25,-47.73 192.85,-41.54 182.27,-41.02 184.25,-47.73"/>
<g id="a_edge3&#45;headlabel"><a xlink:href="dir_000351_000166.html" target="_top" xlink:title="19">
<text text-anchor="middle" x="183.06" y="-48.55" font-family="Helvetica,sans-Serif" font-size="10.00" fill="#63b8ff">19</text>
</a>
</g>
</g>
<!-- dir_bdd9a5d540de89e9fe90efdfc6973a4f -->
<g id="node6" class="node">
<title>dir_bdd9a5d540de89e9fe90efdfc6973a4f</title>
<g id="a_node6"><a xlink:href="dir_bdd9a5d540de89e9fe90efdfc6973a4f.html" target="_top" xlink:title="common">
<polygon fill="#deebf9" stroke="red" points="310,-43 256,-43 256,-24 310,-24 310,-43"/>
<text text-anchor="middle" x="283" y="-31" font-family="Helvetica,sans-Serif" font-size="10.00">common</text>
</a>
</g>
</g>
<!-- dir_3df15571f2d889d39f44f0244a444c2b&#45;&gt;dir_bdd9a5d540de89e9fe90efdfc6973a4f -->
<g id="edge4" class="edge">
<title>dir_3df15571f2d889d39f44f0244a444c2b&#45;&gt;dir_bdd9a5d540de89e9fe90efdfc6973a4f</title>
<path fill="none" stroke="#63b8ff" d="M54.24,-81.96C57.44,-80.9 60.81,-79.85 64,-79 140.64,-58.53 163.99,-60.32 244.33,-43.49"/>
<polygon fill="#63b8ff" stroke="#63b8ff" points="244.98,-46.93 254.03,-41.42 243.52,-40.08 244.98,-46.93"/>
<g id="a_edge4&#45;headlabel"><a xlink:href="dir_000351_000024.html" target="_top" xlink:title="1">
<text text-anchor="middle" x="243.53" y="-47.64" font-family="Helvetica,sans-Serif" font-size="10.00" fill="#63b8ff">1</text>
</a>
</g>
</g>
</g>
</svg>
