<?xml version="1.0" encoding="UTF-8" standalone="no"?>
<!DOCTYPE svg PUBLIC "-//W3C//DTD SVG 1.1//EN"
 "http://www.w3.org/Graphics/SVG/1.1/DTD/svg11.dtd">
<!-- Generated by graphviz version 7.0.5 (20221223.1930)
 -->
<!-- Title: iop/security Pages: 1 -->
<svg width="242pt" height="141pt"
 viewBox="0.00 0.00 242.00 141.00" xmlns="http://www.w3.org/2000/svg" xmlns:xlink="http://www.w3.org/1999/xlink">
<g id="graph0" class="graph" transform="scale(1 1) rotate(0) translate(4 137)">
<title>iop/security</title>
<g id="clust1" class="cluster">
<title>clusterdir_0981ace215aa2029f526b70c145b9fbe</title>
<g id="a_clust1"><a xlink:href="dir_0981ace215aa2029f526b70c145b9fbe.html" target="_top" xlink:title="iop">
<polygon fill="#deebf9" stroke="#404040" stroke-dasharray="5,2" points="8,-8 8,-125 226,-125 226,-8 8,-8"/>
<text text-anchor="middle" x="117" y="-113" font-family="Helvetica,sans-Serif" font-size="10.00">iop</text>
</a>
</g>
</g>
<g id="clust2" class="cluster">
<title>clusterdir_65b0066184b118a668041f55a1e77c0f</title>
<g id="a_clust2"><a xlink:href="dir_65b0066184b118a668041f55a1e77c0f.html" target="_top">
<polygon fill="#deebf9" stroke="#404040" stroke-width="2" points="16,-63 16,-98 218,-98 218,-63 16,-63"/>
</a>
</g>
</g>
<!-- dir_9be0baa3d4a3e9f480a9ee70594037fa -->
<g id="node1" class="node">
<title>dir_9be0baa3d4a3e9f480a9ee70594037fa</title>
<g id="a_node1"><a xlink:href="dir_9be0baa3d4a3e9f480a9ee70594037fa.html" target="_top" xlink:title="kernel">
<polygon fill="#60a2e3" stroke="red" points="70.5,-35 27.5,-35 27.5,-16 70.5,-16 70.5,-35"/>
<text text-anchor="middle" x="49" y="-23" font-family="Helvetica,sans-Serif" font-size="10.00">kernel</text>
</a>
</g>
</g>
<!-- dir_40ac35421bc63b72c26b6c69b1517fd6 -->
<g id="node2" class="node">
<title>dir_40ac35421bc63b72c26b6c69b1517fd6</title>
<g id="a_node2"><a xlink:href="dir_40ac35421bc63b72c26b6c69b1517fd6.html" target="_top" xlink:title="system">
<polygon fill="#60a2e3" stroke="red" points="139,-35 91,-35 91,-16 139,-16 139,-35"/>
<text text-anchor="middle" x="115" y="-23" font-family="Helvetica,sans-Serif" font-size="10.00">system</text>
</a>
</g>
</g>
<!-- dir_65b0066184b118a668041f55a1e77c0f -->
<g id="node3" class="node">
<title>dir_65b0066184b118a668041f55a1e77c0f</title>
<text text-anchor="middle" x="185" y="-78" font-family="Helvetica,sans-Serif" font-size="10.00">security</text>
</g>
<!-- dir_e87a748976a4b7d8bcde9ae973d63de3 -->
<g id="node4" class="node">
<title>dir_e87a748976a4b7d8bcde9ae973d63de3</title>
<g id="a_node4"><a xlink:href="dir_e87a748976a4b7d8bcde9ae973d63de3.html" target="_top" xlink:title="secrman">
<polygon fill="#60a2e3" stroke="#404040" points="142,-90 88,-90 88,-71 142,-71 142,-90"/>
<text text-anchor="middle" x="115" y="-78" font-family="Helvetica,sans-Serif" font-size="10.00">secrman</text>
</a>
</g>
</g>
<!-- dir_e87a748976a4b7d8bcde9ae973d63de3&#45;&gt;dir_9be0baa3d4a3e9f480a9ee70594037fa -->
<g id="edge1" class="edge">
<title>dir_e87a748976a4b7d8bcde9ae973d63de3&#45;&gt;dir_9be0baa3d4a3e9f480a9ee70594037fa</title>
<path fill="none" stroke="#63b8ff" d="M103.8,-70.51C94.26,-62.85 80.33,-51.66 68.89,-42.47"/>
<polygon fill="#63b8ff" stroke="#63b8ff" points="71.2,-39.84 61.21,-36.31 66.82,-45.3 71.2,-39.84"/>
<g id="a_edge1&#45;headlabel"><a xlink:href="dir_000225_000166.html" target="_top" xlink:title="24">
<text text-anchor="middle" x="74.6" y="-36.43" font-family="Helvetica,sans-Serif" font-size="10.00" fill="#63b8ff">24</text>
</a>
</g>
</g>
<!-- dir_e87a748976a4b7d8bcde9ae973d63de3&#45;&gt;dir_40ac35421bc63b72c26b6c69b1517fd6 -->
<g id="edge2" class="edge">
<title>dir_e87a748976a4b7d8bcde9ae973d63de3&#45;&gt;dir_40ac35421bc63b72c26b6c69b1517fd6</title>
<path fill="none" stroke="#63b8ff" d="M115,-70.75C115,-64.27 115,-55.16 115,-46.9"/>
<polygon fill="#63b8ff" stroke="#63b8ff" points="118.5,-46.96 115,-36.96 111.5,-46.96 118.5,-46.96"/>
<g id="a_edge2&#45;headlabel"><a xlink:href="dir_000225_000371.html" target="_top" xlink:title="1">
<text text-anchor="middle" x="121.34" y="-46.54" font-family="Helvetica,sans-Serif" font-size="10.00" fill="#63b8ff">1</text>
</a>
</g>
</g>
<!-- dir_a962c81a387027290051f8c67837a8ed -->
<g id="node5" class="node">
<title>dir_a962c81a387027290051f8c67837a8ed</title>
<g id="a_node5"><a xlink:href="dir_a962c81a387027290051f8c67837a8ed.html" target="_top" xlink:title="secrsif">
<polygon fill="#60a2e3" stroke="#404040" points="70,-90 24,-90 24,-71 70,-71 70,-90"/>
<text text-anchor="middle" x="47" y="-78" font-family="Helvetica,sans-Serif" font-size="10.00">secrsif</text>
</a>
</g>
</g>
<!-- dir_a962c81a387027290051f8c67837a8ed&#45;&gt;dir_9be0baa3d4a3e9f480a9ee70594037fa -->
<g id="edge3" class="edge">
<title>dir_a962c81a387027290051f8c67837a8ed&#45;&gt;dir_9be0baa3d4a3e9f480a9ee70594037fa</title>
<path fill="none" stroke="#63b8ff" d="M47.33,-70.75C47.57,-64.27 47.92,-55.16 48.23,-46.9"/>
<polygon fill="#63b8ff" stroke="#63b8ff" points="51.73,-47.08 48.61,-36.95 44.73,-46.82 51.73,-47.08"/>
<g id="a_edge3&#45;headlabel"><a xlink:href="dir_000226_000166.html" target="_top" xlink:title="13">
<text text-anchor="middle" x="54.48" y="-46.77" font-family="Helvetica,sans-Serif" font-size="10.00" fill="#63b8ff">13</text>
</a>
</g>
</g>
</g>
</svg>
