<?xml version="1.0" encoding="UTF-8" standalone="no"?>
<!DOCTYPE svg PUBLIC "-//W3C//DTD SVG 1.1//EN"
 "http://www.w3.org/Graphics/SVG/1.1/DTD/svg11.dtd">
<!-- Generated by graphviz version 7.0.5 (20221223.1930)
 -->
<!-- Title: iop/dev9/dev9/src Pages: 1 -->
<svg width="205pt" height="133pt"
 viewBox="0.00 0.00 205.00 133.00" xmlns="http://www.w3.org/2000/svg" xmlns:xlink="http://www.w3.org/1999/xlink">
<g id="graph0" class="graph" transform="scale(1 1) rotate(0) translate(4 129)">
<title>iop/dev9/dev9/src</title>
<g id="clust1" class="cluster">
<title>clusterdir_18566863331aaba44604539ca78be099</title>
<g id="a_clust1"><a xlink:href="dir_18566863331aaba44604539ca78be099.html" target="_top" xlink:title="dev9">
<polygon fill="#deebf9" stroke="#7f7f7f" stroke-dasharray="5,2" points="8,-8 8,-117 72,-117 72,-8 8,-8"/>
<text text-anchor="middle" x="40" y="-105" font-family="Helvetica,sans-Serif" font-size="10.00">dev9</text>
</a>
</g>
</g>
<!-- dir_58692563475c8582953c11bc1da04f9e -->
<g id="node1" class="node">
<title>dir_58692563475c8582953c11bc1da04f9e</title>
<g id="a_node1"><a xlink:href="dir_58692563475c8582953c11bc1da04f9e.html" target="_top" xlink:title="include">
<polygon fill="#60a2e3" stroke="#404040" points="63.5,-35 16.5,-35 16.5,-16 63.5,-16 63.5,-35"/>
<text text-anchor="middle" x="40" y="-23" font-family="Helvetica,sans-Serif" font-size="10.00">include</text>
</a>
</g>
</g>
<!-- dir_6ad7f2ab8ef00bea214c65f3ba81f481 -->
<g id="node2" class="node">
<title>dir_6ad7f2ab8ef00bea214c65f3ba81f481</title>
<g id="a_node2"><a xlink:href="dir_6ad7f2ab8ef00bea214c65f3ba81f481.html" target="_top" xlink:title="src">
<polygon fill="#deebf9" stroke="#404040" stroke-width="2" points="64,-90 34,-90 34,-71 64,-71 64,-90"/>
<text text-anchor="middle" x="49" y="-78" font-family="Helvetica,sans-Serif" font-size="10.00">src</text>
</a>
</g>
</g>
<!-- dir_6ad7f2ab8ef00bea214c65f3ba81f481&#45;&gt;dir_58692563475c8582953c11bc1da04f9e -->
<g id="edge1" class="edge">
<title>dir_6ad7f2ab8ef00bea214c65f3ba81f481&#45;&gt;dir_58692563475c8582953c11bc1da04f9e</title>
<path fill="none" stroke="#63b8ff" d="M47.51,-70.75C46.4,-64.19 44.83,-54.95 43.41,-46.6"/>
<polygon fill="#63b8ff" stroke="#63b8ff" points="46.9,-46.21 41.77,-36.93 40,-47.38 46.9,-46.21"/>
<g id="a_edge1&#45;headlabel"><a xlink:href="dir_000289_000112.html" target="_top" xlink:title="1">
<text text-anchor="middle" x="50.04" y="-45.28" font-family="Helvetica,sans-Serif" font-size="10.00" fill="#63b8ff">1</text>
</a>
</g>
</g>
<!-- dir_9be0baa3d4a3e9f480a9ee70594037fa -->
<g id="node3" class="node">
<title>dir_9be0baa3d4a3e9f480a9ee70594037fa</title>
<g id="a_node3"><a xlink:href="dir_9be0baa3d4a3e9f480a9ee70594037fa.html" target="_top" xlink:title="kernel">
<polygon fill="#deebf9" stroke="red" stroke-dasharray="5,2" points="124.5,-35 81.5,-35 81.5,-16 124.5,-16 124.5,-35"/>
<text text-anchor="middle" x="103" y="-23" font-family="Helvetica,sans-Serif" font-size="10.00">kernel</text>
</a>
</g>
</g>
<!-- dir_6ad7f2ab8ef00bea214c65f3ba81f481&#45;&gt;dir_9be0baa3d4a3e9f480a9ee70594037fa -->
<g id="edge2" class="edge">
<title>dir_6ad7f2ab8ef00bea214c65f3ba81f481&#45;&gt;dir_9be0baa3d4a3e9f480a9ee70594037fa</title>
<path fill="none" stroke="#63b8ff" d="M57.92,-70.75C65.45,-63.35 76.47,-52.54 85.73,-43.45"/>
<polygon fill="#63b8ff" stroke="#63b8ff" points="88.12,-46 92.81,-36.5 83.22,-41.01 88.12,-46"/>
<g id="a_edge2&#45;headlabel"><a xlink:href="dir_000289_000166.html" target="_top" xlink:title="18">
<text text-anchor="middle" x="88.63" y="-46.99" font-family="Helvetica,sans-Serif" font-size="10.00" fill="#63b8ff">18</text>
</a>
</g>
</g>
<!-- dir_bdd9a5d540de89e9fe90efdfc6973a4f -->
<g id="node4" class="node">
<title>dir_bdd9a5d540de89e9fe90efdfc6973a4f</title>
<g id="a_node4"><a xlink:href="dir_bdd9a5d540de89e9fe90efdfc6973a4f.html" target="_top" xlink:title="common">
<polygon fill="#deebf9" stroke="red" points="197,-35 143,-35 143,-16 197,-16 197,-35"/>
<text text-anchor="middle" x="170" y="-23" font-family="Helvetica,sans-Serif" font-size="10.00">common</text>
</a>
</g>
</g>
<!-- dir_6ad7f2ab8ef00bea214c65f3ba81f481&#45;&gt;dir_bdd9a5d540de89e9fe90efdfc6973a4f -->
<g id="edge3" class="edge">
<title>dir_6ad7f2ab8ef00bea214c65f3ba81f481&#45;&gt;dir_bdd9a5d540de89e9fe90efdfc6973a4f</title>
<path fill="none" stroke="#63b8ff" d="M64.32,-72.79C83.07,-64.57 115.27,-50.47 139.21,-39.98"/>
<polygon fill="#63b8ff" stroke="#63b8ff" points="140.41,-43.28 148.17,-36.06 137.6,-36.87 140.41,-43.28"/>
<g id="a_edge3&#45;headlabel"><a xlink:href="dir_000289_000024.html" target="_top" xlink:title="4">
<text text-anchor="middle" x="139.65" y="-44.22" font-family="Helvetica,sans-Serif" font-size="10.00" fill="#63b8ff">4</text>
</a>
</g>
</g>
</g>
</svg>
