<?xml version="1.0" encoding="UTF-8" standalone="no"?>
<!DOCTYPE svg PUBLIC "-//W3C//DTD SVG 1.1//EN"
 "http://www.w3.org/Graphics/SVG/1.1/DTD/svg11.dtd">
<!-- Generated by graphviz version 7.0.5 (20221223.1930)
 -->
<!-- Title: ee/rpc/ps2snd Pages: 1 -->
<svg width="236pt" height="125pt"
 viewBox="0.00 0.00 235.50 125.00" xmlns="http://www.w3.org/2000/svg" xmlns:xlink="http://www.w3.org/1999/xlink">
<g id="graph0" class="graph" transform="scale(1 1) rotate(0) translate(4 121)">
<title>ee/rpc/ps2snd</title>
<g id="clust1" class="cluster">
<title>clusterdir_5b119dc963fa9b25ef41951231899460</title>
<g id="a_clust1"><a xlink:href="dir_5b119dc963fa9b25ef41951231899460.html" target="_top" xlink:title="rpc">
<polygon fill="#deebf9" stroke="#7f7f7f" stroke-dasharray="5,2" points="8,-39 8,-109 202,-109 202,-39 8,-39"/>
<text text-anchor="middle" x="105" y="-97" font-family="Helvetica,sans-Serif" font-size="10.00">rpc</text>
</a>
</g>
</g>
<g id="clust2" class="cluster">
<title>clusterdir_9257be179ffb1bae505ffa73096b7986</title>
<g id="a_clust2"><a xlink:href="dir_9257be179ffb1bae505ffa73096b7986.html" target="_top">
<polygon fill="#deebf9" stroke="#404040" stroke-width="2" points="16,-47 16,-82 194,-82 194,-47 16,-47"/>
</a>
</g>
</g>
<!-- dir_9257be179ffb1bae505ffa73096b7986 -->
<g id="node1" class="node">
<title>dir_9257be179ffb1bae505ffa73096b7986</title>
<text text-anchor="middle" x="162" y="-62" font-family="Helvetica,sans-Serif" font-size="10.00">ps2snd</text>
</g>
<!-- dir_840d45e55d4a7bd01c453be7ad942e0e -->
<g id="node2" class="node">
<title>dir_840d45e55d4a7bd01c453be7ad942e0e</title>
<g id="a_node2"><a xlink:href="dir_840d45e55d4a7bd01c453be7ad942e0e.html" target="_top" xlink:title="include">
<polygon fill="#60a2e3" stroke="#404040" points="71.5,-74 24.5,-74 24.5,-55 71.5,-55 71.5,-74"/>
<text text-anchor="middle" x="48" y="-62" font-family="Helvetica,sans-Serif" font-size="10.00">include</text>
</a>
</g>
</g>
<!-- dir_bdd9a5d540de89e9fe90efdfc6973a4f -->
<g id="node4" class="node">
<title>dir_bdd9a5d540de89e9fe90efdfc6973a4f</title>
<g id="a_node4"><a xlink:href="dir_bdd9a5d540de89e9fe90efdfc6973a4f.html" target="_top" xlink:title="common">
<polygon fill="#deebf9" stroke="red" points="72,-19 18,-19 18,0 72,0 72,-19"/>
<text text-anchor="middle" x="45" y="-7" font-family="Helvetica,sans-Serif" font-size="10.00">common</text>
</a>
</g>
</g>
<!-- dir_840d45e55d4a7bd01c453be7ad942e0e&#45;&gt;dir_bdd9a5d540de89e9fe90efdfc6973a4f -->
<g id="edge1" class="edge">
<title>dir_840d45e55d4a7bd01c453be7ad942e0e&#45;&gt;dir_bdd9a5d540de89e9fe90efdfc6973a4f</title>
<path fill="none" stroke="#63b8ff" d="M47.5,-54.75C47.14,-48.27 46.62,-39.16 46.15,-30.9"/>
<polygon fill="#63b8ff" stroke="#63b8ff" points="49.65,-30.74 45.59,-20.95 42.66,-31.13 49.65,-30.74"/>
<g id="a_edge1&#45;headlabel"><a xlink:href="dir_000102_000024.html" target="_top" xlink:title="1">
<text text-anchor="middle" x="52.6" y="-30.16" font-family="Helvetica,sans-Serif" font-size="10.00" fill="#63b8ff">1</text>
</a>
</g>
</g>
<!-- dir_d236ca42f0241c3c711c47cabfd53918 -->
<g id="node3" class="node">
<title>dir_d236ca42f0241c3c711c47cabfd53918</title>
<g id="a_node3"><a xlink:href="dir_d236ca42f0241c3c711c47cabfd53918.html" target="_top" xlink:title="src">
<polygon fill="#60a2e3" stroke="#404040" points="120,-74 90,-74 90,-55 120,-55 120,-74"/>
<text text-anchor="middle" x="105" y="-62" font-family="Helvetica,sans-Serif" font-size="10.00">src</text>
</a>
</g>
</g>
<!-- dir_d236ca42f0241c3c711c47cabfd53918&#45;&gt;dir_bdd9a5d540de89e9fe90efdfc6973a4f -->
<g id="edge5" class="edge">
<title>dir_d236ca42f0241c3c711c47cabfd53918&#45;&gt;dir_bdd9a5d540de89e9fe90efdfc6973a4f</title>
<path fill="none" stroke="#63b8ff" d="M96.4,-54.68C91.66,-49.93 85.62,-44.02 80,-39 75.37,-34.86 70.26,-30.56 65.4,-26.58"/>
<polygon fill="#63b8ff" stroke="#63b8ff" points="67.74,-23.97 57.75,-20.43 63.35,-29.43 67.74,-23.97"/>
<g id="a_edge5&#45;headlabel"><a xlink:href="dir_000277_000024.html" target="_top" xlink:title="1">
<text text-anchor="middle" x="71.14" y="-20.56" font-family="Helvetica,sans-Serif" font-size="10.00" fill="#63b8ff">1</text>
</a>
</g>
</g>
<!-- dir_a0a8ac7efb6662b749c1285408048e6d -->
<g id="node5" class="node">
<title>dir_a0a8ac7efb6662b749c1285408048e6d</title>
<g id="a_node5"><a xlink:href="dir_a0a8ac7efb6662b749c1285408048e6d.html" target="_top" xlink:title="erl">
<polygon fill="#deebf9" stroke="red" stroke-dasharray="5,2" points="119.5,-19 90.5,-19 90.5,0 119.5,0 119.5,-19"/>
<text text-anchor="middle" x="105" y="-7" font-family="Helvetica,sans-Serif" font-size="10.00">erl</text>
</a>
</g>
</g>
<!-- dir_d236ca42f0241c3c711c47cabfd53918&#45;&gt;dir_a0a8ac7efb6662b749c1285408048e6d -->
<g id="edge4" class="edge">
<title>dir_d236ca42f0241c3c711c47cabfd53918&#45;&gt;dir_a0a8ac7efb6662b749c1285408048e6d</title>
<path fill="none" stroke="#63b8ff" d="M105,-54.75C105,-48.27 105,-39.16 105,-30.9"/>
<polygon fill="#63b8ff" stroke="#63b8ff" points="108.5,-30.96 105,-20.96 101.5,-30.96 108.5,-30.96"/>
<g id="a_edge4&#45;headlabel"><a xlink:href="dir_000277_000045.html" target="_top" xlink:title="1">
<text text-anchor="middle" x="111.34" y="-30.54" font-family="Helvetica,sans-Serif" font-size="10.00" fill="#63b8ff">1</text>
</a>
</g>
</g>
<!-- dir_694ec83a64f58cbdefbefce65cd1011c -->
<g id="node6" class="node">
<title>dir_694ec83a64f58cbdefbefce65cd1011c</title>
<g id="a_node6"><a xlink:href="dir_694ec83a64f58cbdefbefce65cd1011c.html" target="_top" xlink:title="kernel">
<polygon fill="#deebf9" stroke="red" stroke-dasharray="5,2" points="180.5,-19 137.5,-19 137.5,0 180.5,0 180.5,-19"/>
<text text-anchor="middle" x="159" y="-7" font-family="Helvetica,sans-Serif" font-size="10.00">kernel</text>
</a>
</g>
</g>
<!-- dir_d236ca42f0241c3c711c47cabfd53918&#45;&gt;dir_694ec83a64f58cbdefbefce65cd1011c -->
<g id="edge3" class="edge">
<title>dir_d236ca42f0241c3c711c47cabfd53918&#45;&gt;dir_694ec83a64f58cbdefbefce65cd1011c</title>
<path fill="none" stroke="#63b8ff" d="M113.37,-54.81C117.94,-50.09 123.74,-44.18 129,-39 132.91,-35.15 137.15,-31.07 141.18,-27.23"/>
<polygon fill="#63b8ff" stroke="#63b8ff" points="143.5,-29.85 148.36,-20.44 138.69,-24.77 143.5,-29.85"/>
<g id="a_edge3&#45;headlabel"><a xlink:href="dir_000277_000165.html" target="_top" xlink:title="2">
<text text-anchor="middle" x="143.94" y="-30.85" font-family="Helvetica,sans-Serif" font-size="10.00" fill="#63b8ff">2</text>
</a>
</g>
</g>
<!-- dir_0981ace215aa2029f526b70c145b9fbe -->
<g id="node7" class="node">
<title>dir_0981ace215aa2029f526b70c145b9fbe</title>
<g id="a_node7"><a xlink:href="dir_0981ace215aa2029f526b70c145b9fbe.html" target="_top" xlink:title="iop">
<polygon fill="#deebf9" stroke="red" points="227.5,-19 198.5,-19 198.5,0 227.5,0 227.5,-19"/>
<text text-anchor="middle" x="213" y="-7" font-family="Helvetica,sans-Serif" font-size="10.00">iop</text>
</a>
</g>
</g>
<!-- dir_d236ca42f0241c3c711c47cabfd53918&#45;&gt;dir_0981ace215aa2029f526b70c145b9fbe -->
<g id="edge2" class="edge">
<title>dir_d236ca42f0241c3c711c47cabfd53918&#45;&gt;dir_0981ace215aa2029f526b70c145b9fbe</title>
<path fill="none" stroke="#63b8ff" d="M111.74,-54.75C116.15,-49.53 122.33,-43.15 129,-39 150.58,-25.58 160.74,-27.65 187.69,-19.49"/>
<polygon fill="#63b8ff" stroke="#63b8ff" points="188.58,-22.89 196.99,-16.45 186.4,-16.23 188.58,-22.89"/>
<g id="a_edge2&#45;headlabel"><a xlink:href="dir_000277_000159.html" target="_top" xlink:title="1">
<text text-anchor="middle" x="187.48" y="-23.73" font-family="Helvetica,sans-Serif" font-size="10.00" fill="#63b8ff">1</text>
</a>
</g>
</g>
</g>
</svg>
