<?xml version="1.0" encoding="UTF-8" standalone="no"?>
<!DOCTYPE svg PUBLIC "-//W3C//DTD SVG 1.1//EN"
 "http://www.w3.org/Graphics/SVG/1.1/DTD/svg11.dtd">
<!-- Generated by graphviz version 7.0.5 (20221223.1930)
 -->
<!-- Title: iop/debug/iop_sbusdbg Pages: 1 -->
<svg width="357pt" height="141pt"
 viewBox="0.00 0.00 357.00 141.00" xmlns="http://www.w3.org/2000/svg" xmlns:xlink="http://www.w3.org/1999/xlink">
<g id="graph0" class="graph" transform="scale(1 1) rotate(0) translate(4 137)">
<title>iop/debug/iop_sbusdbg</title>
<g id="clust1" class="cluster">
<title>clusterdir_8494d76ae2586079db82d45fe3dd6aec</title>
<g id="a_clust1"><a xlink:href="dir_8494d76ae2586079db82d45fe3dd6aec.html" target="_top" xlink:title="debug">
<polygon fill="#deebf9" stroke="#7f7f7f" stroke-dasharray="5,2" points="8,-8 8,-125 225,-125 225,-8 8,-8"/>
<text text-anchor="middle" x="116.5" y="-113" font-family="Helvetica,sans-Serif" font-size="10.00">debug</text>
</a>
</g>
</g>
<g id="clust2" class="cluster">
<title>clusterdir_2f080771f6205bbf07c3b5e6545bd3fa</title>
<g id="a_clust2"><a xlink:href="dir_2f080771f6205bbf07c3b5e6545bd3fa.html" target="_top">
<polygon fill="#deebf9" stroke="#404040" stroke-width="2" points="16,-63 16,-98 217,-98 217,-63 16,-63"/>
</a>
</g>
</g>
<!-- dir_b128a11f24e38182ade4e9889f6c5833 -->
<g id="node1" class="node">
<title>dir_b128a11f24e38182ade4e9889f6c5833</title>
<g id="a_node1"><a xlink:href="dir_b128a11f24e38182ade4e9889f6c5833.html" target="_top" xlink:title="iopdebug">
<polygon fill="#60a2e3" stroke="red" points="72,-35 16,-35 16,-16 72,-16 72,-35"/>
<text text-anchor="middle" x="44" y="-23" font-family="Helvetica,sans-Serif" font-size="10.00">iopdebug</text>
</a>
</g>
</g>
<!-- dir_2f080771f6205bbf07c3b5e6545bd3fa -->
<g id="node2" class="node">
<title>dir_2f080771f6205bbf07c3b5e6545bd3fa</title>
<text text-anchor="middle" x="173" y="-78" font-family="Helvetica,sans-Serif" font-size="10.00">iop_sbusdbg</text>
</g>
<!-- dir_36b98ff8a35b2ed655cbfa91e3ae73e8 -->
<g id="node3" class="node">
<title>dir_36b98ff8a35b2ed655cbfa91e3ae73e8</title>
<g id="a_node3"><a xlink:href="dir_36b98ff8a35b2ed655cbfa91e3ae73e8.html" target="_top" xlink:title="include">
<polygon fill="#60a2e3" stroke="#404040" points="119.5,-90 72.5,-90 72.5,-71 119.5,-71 119.5,-90"/>
<text text-anchor="middle" x="96" y="-78" font-family="Helvetica,sans-Serif" font-size="10.00">include</text>
</a>
</g>
</g>
<!-- dir_bdd9a5d540de89e9fe90efdfc6973a4f -->
<g id="node5" class="node">
<title>dir_bdd9a5d540de89e9fe90efdfc6973a4f</title>
<g id="a_node5"><a xlink:href="dir_bdd9a5d540de89e9fe90efdfc6973a4f.html" target="_top" xlink:title="common">
<polygon fill="#deebf9" stroke="red" points="349,-35 295,-35 295,-16 349,-16 349,-35"/>
<text text-anchor="middle" x="322" y="-23" font-family="Helvetica,sans-Serif" font-size="10.00">common</text>
</a>
</g>
</g>
<!-- dir_36b98ff8a35b2ed655cbfa91e3ae73e8&#45;&gt;dir_bdd9a5d540de89e9fe90efdfc6973a4f -->
<g id="edge1" class="edge">
<title>dir_36b98ff8a35b2ed655cbfa91e3ae73e8&#45;&gt;dir_bdd9a5d540de89e9fe90efdfc6973a4f</title>
<path fill="none" stroke="#63b8ff" d="M111.39,-70.66C116.81,-67.86 123.04,-64.98 129,-63 192.99,-41.79 214.5,-48.6 283.5,-35.36"/>
<polygon fill="#63b8ff" stroke="#63b8ff" points="283.91,-38.85 293.03,-33.45 282.54,-31.98 283.91,-38.85"/>
<g id="a_edge1&#45;headlabel"><a xlink:href="dir_000108_000024.html" target="_top" xlink:title="1">
<text text-anchor="middle" x="282.43" y="-39.54" font-family="Helvetica,sans-Serif" font-size="10.00" fill="#63b8ff">1</text>
</a>
</g>
</g>
<!-- dir_b885b894e4096334a2f073c9bc278b43 -->
<g id="node4" class="node">
<title>dir_b885b894e4096334a2f073c9bc278b43</title>
<g id="a_node4"><a xlink:href="dir_b885b894e4096334a2f073c9bc278b43.html" target="_top" xlink:title="src">
<polygon fill="#60a2e3" stroke="#404040" points="54,-90 24,-90 24,-71 54,-71 54,-90"/>
<text text-anchor="middle" x="39" y="-78" font-family="Helvetica,sans-Serif" font-size="10.00">src</text>
</a>
</g>
</g>
<!-- dir_b885b894e4096334a2f073c9bc278b43&#45;&gt;dir_b128a11f24e38182ade4e9889f6c5833 -->
<g id="edge3" class="edge">
<title>dir_b885b894e4096334a2f073c9bc278b43&#45;&gt;dir_b128a11f24e38182ade4e9889f6c5833</title>
<path fill="none" stroke="#63b8ff" d="M39.83,-70.75C40.44,-64.27 41.3,-55.16 42.08,-46.9"/>
<polygon fill="#63b8ff" stroke="#63b8ff" points="45.56,-47.23 43.01,-36.95 38.59,-46.58 45.56,-47.23"/>
<g id="a_edge3&#45;headlabel"><a xlink:href="dir_000284_000161.html" target="_top" xlink:title="4">
<text text-anchor="middle" x="48.19" y="-47.07" font-family="Helvetica,sans-Serif" font-size="10.00" fill="#63b8ff">4</text>
</a>
</g>
</g>
<!-- dir_b885b894e4096334a2f073c9bc278b43&#45;&gt;dir_bdd9a5d540de89e9fe90efdfc6973a4f -->
<g id="edge4" class="edge">
<title>dir_b885b894e4096334a2f073c9bc278b43&#45;&gt;dir_bdd9a5d540de89e9fe90efdfc6973a4f</title>
<path fill="none" stroke="#63b8ff" d="M50.1,-70.6C54.24,-67.72 59.12,-64.8 64,-63 153.9,-29.73 185.82,-51 283.3,-35.23"/>
<polygon fill="#63b8ff" stroke="#63b8ff" points="283.79,-38.7 293.05,-33.56 282.61,-31.8 283.79,-38.7"/>
<g id="a_edge4&#45;headlabel"><a xlink:href="dir_000284_000024.html" target="_top" xlink:title="11">
<text text-anchor="middle" x="282.22" y="-39.35" font-family="Helvetica,sans-Serif" font-size="10.00" fill="#63b8ff">11</text>
</a>
</g>
</g>
<!-- dir_9be0baa3d4a3e9f480a9ee70594037fa -->
<g id="node6" class="node">
<title>dir_9be0baa3d4a3e9f480a9ee70594037fa</title>
<g id="a_node6"><a xlink:href="dir_9be0baa3d4a3e9f480a9ee70594037fa.html" target="_top" xlink:title="kernel">
<polygon fill="#deebf9" stroke="red" stroke-dasharray="5,2" points="276.5,-35 233.5,-35 233.5,-16 276.5,-16 276.5,-35"/>
<text text-anchor="middle" x="255" y="-23" font-family="Helvetica,sans-Serif" font-size="10.00">kernel</text>
</a>
</g>
</g>
<!-- dir_b885b894e4096334a2f073c9bc278b43&#45;&gt;dir_9be0baa3d4a3e9f480a9ee70594037fa -->
<g id="edge2" class="edge">
<title>dir_b885b894e4096334a2f073c9bc278b43&#45;&gt;dir_9be0baa3d4a3e9f480a9ee70594037fa</title>
<path fill="none" stroke="#63b8ff" d="M50.15,-70.71C54.29,-67.84 59.16,-64.91 64,-63 129.81,-37.04 154.37,-51.26 222.39,-36.41"/>
<polygon fill="#63b8ff" stroke="#63b8ff" points="222.8,-39.9 231.75,-34.22 221.21,-33.09 222.8,-39.9"/>
<g id="a_edge2&#45;headlabel"><a xlink:href="dir_000284_000166.html" target="_top" xlink:title="30">
<text text-anchor="middle" x="221.42" y="-40.64" font-family="Helvetica,sans-Serif" font-size="10.00" fill="#63b8ff">30</text>
</a>
</g>
</g>
</g>
</svg>
