<?xml version="1.0" encoding="UTF-8" standalone="no"?>
<!DOCTYPE svg PUBLIC "-//W3C//DTD SVG 1.1//EN"
 "http://www.w3.org/Graphics/SVG/1.1/DTD/svg11.dtd">
<!-- Generated by graphviz version 7.0.5 (20221223.1930)
 -->
<!-- Title: iop/iLink/IEEE1394_bd Pages: 1 -->
<svg width="233pt" height="125pt"
 viewBox="0.00 0.00 233.00 125.00" xmlns="http://www.w3.org/2000/svg" xmlns:xlink="http://www.w3.org/1999/xlink">
<g id="graph0" class="graph" transform="scale(1 1) rotate(0) translate(4 121)">
<title>iop/iLink/IEEE1394_bd</title>
<g id="clust1" class="cluster">
<title>clusterdir_fc941b9cdd19bfc53379effb1dbc42b0</title>
<g id="a_clust1"><a xlink:href="dir_fc941b9cdd19bfc53379effb1dbc42b0.html" target="_top" xlink:title="iLink">
<polygon fill="#deebf9" stroke="#7f7f7f" stroke-dasharray="5,2" points="63,-39 63,-109 217,-109 217,-39 63,-39"/>
<text text-anchor="middle" x="140" y="-97" font-family="Helvetica,sans-Serif" font-size="10.00">iLink</text>
</a>
</g>
</g>
<g id="clust2" class="cluster">
<title>clusterdir_3bc9c0aee413f19edf678d71a08ea153</title>
<g id="a_clust2"><a xlink:href="dir_3bc9c0aee413f19edf678d71a08ea153.html" target="_top">
<polygon fill="#deebf9" stroke="#404040" stroke-width="2" points="71,-47 71,-82 209,-82 209,-47 71,-47"/>
</a>
</g>
</g>
<!-- dir_3bc9c0aee413f19edf678d71a08ea153 -->
<g id="node1" class="node">
<title>dir_3bc9c0aee413f19edf678d71a08ea153</title>
<text text-anchor="middle" x="164" y="-62" font-family="Helvetica,sans-Serif" font-size="10.00">IEEE1394_bd</text>
</g>
<!-- dir_fc80c3c91208c3ad5a3a0585da287820 -->
<g id="node2" class="node">
<title>dir_fc80c3c91208c3ad5a3a0585da287820</title>
<g id="a_node2"><a xlink:href="dir_fc80c3c91208c3ad5a3a0585da287820.html" target="_top" xlink:title="src">
<polygon fill="#60a2e3" stroke="#404040" points="109,-74 79,-74 79,-55 109,-55 109,-74"/>
<text text-anchor="middle" x="94" y="-62" font-family="Helvetica,sans-Serif" font-size="10.00">src</text>
</a>
</g>
</g>
<!-- dir_bdd9a5d540de89e9fe90efdfc6973a4f -->
<g id="node3" class="node">
<title>dir_bdd9a5d540de89e9fe90efdfc6973a4f</title>
<g id="a_node3"><a xlink:href="dir_bdd9a5d540de89e9fe90efdfc6973a4f.html" target="_top" xlink:title="common">
<polygon fill="#deebf9" stroke="red" points="54,-19 0,-19 0,0 54,0 54,-19"/>
<text text-anchor="middle" x="27" y="-7" font-family="Helvetica,sans-Serif" font-size="10.00">common</text>
</a>
</g>
</g>
<!-- dir_fc80c3c91208c3ad5a3a0585da287820&#45;&gt;dir_bdd9a5d540de89e9fe90efdfc6973a4f -->
<g id="edge2" class="edge">
<title>dir_fc80c3c91208c3ad5a3a0585da287820&#45;&gt;dir_bdd9a5d540de89e9fe90efdfc6973a4f</title>
<path fill="none" stroke="#63b8ff" d="M82.63,-54.51C72.95,-46.85 58.8,-35.66 47.19,-26.47"/>
<polygon fill="#63b8ff" stroke="#63b8ff" points="49.4,-23.76 39.38,-20.3 45.06,-29.25 49.4,-23.76"/>
<g id="a_edge2&#45;headlabel"><a xlink:href="dir_000317_000024.html" target="_top" xlink:title="3">
<text text-anchor="middle" x="52.79" y="-20.32" font-family="Helvetica,sans-Serif" font-size="10.00" fill="#63b8ff">3</text>
</a>
</g>
</g>
<!-- dir_9be0baa3d4a3e9f480a9ee70594037fa -->
<g id="node4" class="node">
<title>dir_9be0baa3d4a3e9f480a9ee70594037fa</title>
<g id="a_node4"><a xlink:href="dir_9be0baa3d4a3e9f480a9ee70594037fa.html" target="_top" xlink:title="kernel">
<polygon fill="#deebf9" stroke="red" stroke-dasharray="5,2" points="115.5,-19 72.5,-19 72.5,0 115.5,0 115.5,-19"/>
<text text-anchor="middle" x="94" y="-7" font-family="Helvetica,sans-Serif" font-size="10.00">kernel</text>
</a>
</g>
</g>
<!-- dir_fc80c3c91208c3ad5a3a0585da287820&#45;&gt;dir_9be0baa3d4a3e9f480a9ee70594037fa -->
<g id="edge1" class="edge">
<title>dir_fc80c3c91208c3ad5a3a0585da287820&#45;&gt;dir_9be0baa3d4a3e9f480a9ee70594037fa</title>
<path fill="none" stroke="#63b8ff" d="M94,-54.75C94,-48.27 94,-39.16 94,-30.9"/>
<polygon fill="#63b8ff" stroke="#63b8ff" points="97.5,-30.96 94,-20.96 90.5,-30.96 97.5,-30.96"/>
<g id="a_edge1&#45;headlabel"><a xlink:href="dir_000317_000166.html" target="_top" xlink:title="24">
<text text-anchor="middle" x="100.34" y="-30.54" font-family="Helvetica,sans-Serif" font-size="10.00" fill="#63b8ff">24</text>
</a>
</g>
</g>
<!-- dir_f24daea2522ffa8b6dc5fa9cdf5b8f5c -->
<g id="node5" class="node">
<title>dir_f24daea2522ffa8b6dc5fa9cdf5b8f5c</title>
<g id="a_node5"><a xlink:href="dir_f24daea2522ffa8b6dc5fa9cdf5b8f5c.html" target="_top" xlink:title="fs">
<polygon fill="#deebf9" stroke="red" stroke-dasharray="5,2" points="162.5,-19 133.5,-19 133.5,0 162.5,0 162.5,-19"/>
<text text-anchor="middle" x="148" y="-7" font-family="Helvetica,sans-Serif" font-size="10.00">fs</text>
</a>
</g>
</g>
<!-- dir_fc80c3c91208c3ad5a3a0585da287820&#45;&gt;dir_f24daea2522ffa8b6dc5fa9cdf5b8f5c -->
<g id="edge3" class="edge">
<title>dir_fc80c3c91208c3ad5a3a0585da287820&#45;&gt;dir_f24daea2522ffa8b6dc5fa9cdf5b8f5c</title>
<path fill="none" stroke="#63b8ff" d="M102.37,-54.81C106.94,-50.09 112.74,-44.18 118,-39 121.91,-35.15 126.15,-31.07 130.18,-27.23"/>
<polygon fill="#63b8ff" stroke="#63b8ff" points="132.5,-29.85 137.36,-20.44 127.69,-24.77 132.5,-29.85"/>
<g id="a_edge3&#45;headlabel"><a xlink:href="dir_000317_000054.html" target="_top" xlink:title="2">
<text text-anchor="middle" x="132.94" y="-30.85" font-family="Helvetica,sans-Serif" font-size="10.00" fill="#63b8ff">2</text>
</a>
</g>
</g>
</g>
</svg>
