<?xml version="1.0" encoding="UTF-8" standalone="no"?>
<!DOCTYPE svg PUBLIC "-//W3C//DTD SVG 1.1//EN"
 "http://www.w3.org/Graphics/SVG/1.1/DTD/svg11.dtd">
<!-- Generated by graphviz version 7.0.5 (20221223.1930)
 -->
<!-- Title: ee/rpc/multitap Pages: 1 -->
<svg width="320pt" height="149pt"
 viewBox="0.00 0.00 319.50 149.00" xmlns="http://www.w3.org/2000/svg" xmlns:xlink="http://www.w3.org/1999/xlink">
<g id="graph0" class="graph" transform="scale(1 1) rotate(0) translate(4 145)">
<title>ee/rpc/multitap</title>
<g id="clust1" class="cluster">
<title>clusterdir_5b119dc963fa9b25ef41951231899460</title>
<g id="a_clust1"><a xlink:href="dir_5b119dc963fa9b25ef41951231899460.html" target="_top" xlink:title="rpc">
<polygon fill="#deebf9" stroke="#7f7f7f" stroke-dasharray="5,2" points="8,-8 8,-133 140,-133 140,-8 8,-8"/>
<text text-anchor="middle" x="74" y="-121" font-family="Helvetica,sans-Serif" font-size="10.00">rpc</text>
</a>
</g>
</g>
<g id="clust2" class="cluster">
<title>clusterdir_4fe02c3598ec986dac9823d5144e53a1</title>
<g id="a_clust2"><a xlink:href="dir_4fe02c3598ec986dac9823d5144e53a1.html" target="_top">
<polygon fill="#deebf9" stroke="#404040" stroke-width="2" points="16,-16 16,-106 132,-106 132,-16 16,-16"/>
</a>
</g>
</g>
<!-- dir_4fe02c3598ec986dac9823d5144e53a1 -->
<g id="node1" class="node">
<title>dir_4fe02c3598ec986dac9823d5144e53a1</title>
<text text-anchor="middle" x="98" y="-86" font-family="Helvetica,sans-Serif" font-size="10.00">multitap</text>
</g>
<!-- dir_e6a8a4ea8085298a3170c9700467a79c -->
<g id="node2" class="node">
<title>dir_e6a8a4ea8085298a3170c9700467a79c</title>
<g id="a_node2"><a xlink:href="dir_e6a8a4ea8085298a3170c9700467a79c.html" target="_top" xlink:title="include">
<polygon fill="#60a2e3" stroke="#404040" points="71.5,-43 24.5,-43 24.5,-24 71.5,-24 71.5,-43"/>
<text text-anchor="middle" x="48" y="-31" font-family="Helvetica,sans-Serif" font-size="10.00">include</text>
</a>
</g>
</g>
<!-- dir_674d4bf0891c267e7e23627b72783290 -->
<g id="node3" class="node">
<title>dir_674d4bf0891c267e7e23627b72783290</title>
<g id="a_node3"><a xlink:href="dir_674d4bf0891c267e7e23627b72783290.html" target="_top" xlink:title="src">
<polygon fill="#60a2e3" stroke="#404040" points="54,-98 24,-98 24,-79 54,-79 54,-98"/>
<text text-anchor="middle" x="39" y="-86" font-family="Helvetica,sans-Serif" font-size="10.00">src</text>
</a>
</g>
</g>
<!-- dir_674d4bf0891c267e7e23627b72783290&#45;&gt;dir_e6a8a4ea8085298a3170c9700467a79c -->
<g id="edge4" class="edge">
<title>dir_674d4bf0891c267e7e23627b72783290&#45;&gt;dir_e6a8a4ea8085298a3170c9700467a79c</title>
<path fill="none" stroke="#63b8ff" d="M40.49,-78.75C41.6,-72.19 43.17,-62.95 44.59,-54.6"/>
<polygon fill="#63b8ff" stroke="#63b8ff" points="48,-55.38 46.23,-44.93 41.1,-54.21 48,-55.38"/>
<g id="a_edge4&#45;headlabel"><a xlink:href="dir_000274_000099.html" target="_top" xlink:title="1">
<text text-anchor="middle" x="50.46" y="-55.41" font-family="Helvetica,sans-Serif" font-size="10.00" fill="#63b8ff">1</text>
</a>
</g>
</g>
<!-- dir_a0a8ac7efb6662b749c1285408048e6d -->
<g id="node4" class="node">
<title>dir_a0a8ac7efb6662b749c1285408048e6d</title>
<g id="a_node4"><a xlink:href="dir_a0a8ac7efb6662b749c1285408048e6d.html" target="_top" xlink:title="erl">
<polygon fill="#deebf9" stroke="red" stroke-dasharray="5,2" points="177.5,-43 148.5,-43 148.5,-24 177.5,-24 177.5,-43"/>
<text text-anchor="middle" x="163" y="-31" font-family="Helvetica,sans-Serif" font-size="10.00">erl</text>
</a>
</g>
</g>
<!-- dir_674d4bf0891c267e7e23627b72783290&#45;&gt;dir_a0a8ac7efb6662b749c1285408048e6d -->
<g id="edge2" class="edge">
<title>dir_674d4bf0891c267e7e23627b72783290&#45;&gt;dir_a0a8ac7efb6662b749c1285408048e6d</title>
<path fill="none" stroke="#63b8ff" d="M54.45,-80.89C75.29,-71.99 112.64,-56.03 137.62,-45.35"/>
<polygon fill="#63b8ff" stroke="#63b8ff" points="138.92,-48.6 146.73,-41.45 136.16,-42.16 138.92,-48.6"/>
<g id="a_edge2&#45;headlabel"><a xlink:href="dir_000274_000045.html" target="_top" xlink:title="1">
<text text-anchor="middle" x="138.12" y="-49.53" font-family="Helvetica,sans-Serif" font-size="10.00" fill="#63b8ff">1</text>
</a>
</g>
</g>
<!-- dir_bdd9a5d540de89e9fe90efdfc6973a4f -->
<g id="node5" class="node">
<title>dir_bdd9a5d540de89e9fe90efdfc6973a4f</title>
<g id="a_node5"><a xlink:href="dir_bdd9a5d540de89e9fe90efdfc6973a4f.html" target="_top" xlink:title="common">
<polygon fill="#deebf9" stroke="red" points="250,-43 196,-43 196,-24 250,-24 250,-43"/>
<text text-anchor="middle" x="223" y="-31" font-family="Helvetica,sans-Serif" font-size="10.00">common</text>
</a>
</g>
</g>
<!-- dir_674d4bf0891c267e7e23627b72783290&#45;&gt;dir_bdd9a5d540de89e9fe90efdfc6973a4f -->
<g id="edge3" class="edge">
<title>dir_674d4bf0891c267e7e23627b72783290&#45;&gt;dir_bdd9a5d540de89e9fe90efdfc6973a4f</title>
<path fill="none" stroke="#63b8ff" d="M54.29,-82.15C57.49,-81.08 60.85,-79.98 64,-79 105.03,-66.29 152.5,-53.22 184.81,-44.56"/>
<polygon fill="#63b8ff" stroke="#63b8ff" points="185.35,-48.03 194.11,-42.08 183.55,-41.27 185.35,-48.03"/>
<g id="a_edge3&#45;headlabel"><a xlink:href="dir_000274_000024.html" target="_top" xlink:title="1">
<text text-anchor="middle" x="184.07" y="-48.81" font-family="Helvetica,sans-Serif" font-size="10.00" fill="#63b8ff">1</text>
</a>
</g>
</g>
<!-- dir_694ec83a64f58cbdefbefce65cd1011c -->
<g id="node6" class="node">
<title>dir_694ec83a64f58cbdefbefce65cd1011c</title>
<g id="a_node6"><a xlink:href="dir_694ec83a64f58cbdefbefce65cd1011c.html" target="_top" xlink:title="kernel">
<polygon fill="#deebf9" stroke="red" stroke-dasharray="5,2" points="311.5,-43 268.5,-43 268.5,-24 311.5,-24 311.5,-43"/>
<text text-anchor="middle" x="290" y="-31" font-family="Helvetica,sans-Serif" font-size="10.00">kernel</text>
</a>
</g>
</g>
<!-- dir_674d4bf0891c267e7e23627b72783290&#45;&gt;dir_694ec83a64f58cbdefbefce65cd1011c -->
<g id="edge1" class="edge">
<title>dir_674d4bf0891c267e7e23627b72783290&#45;&gt;dir_694ec83a64f58cbdefbefce65cd1011c</title>
<path fill="none" stroke="#63b8ff" d="M54.5,-81.84C57.62,-80.81 60.89,-79.81 64,-79 145.86,-57.65 171.09,-62.24 256.97,-43.27"/>
<polygon fill="#63b8ff" stroke="#63b8ff" points="257.58,-46.72 266.57,-41.1 256.04,-39.89 257.58,-46.72"/>
<g id="a_edge1&#45;headlabel"><a xlink:href="dir_000274_000165.html" target="_top" xlink:title="1">
<text text-anchor="middle" x="256.18" y="-47.45" font-family="Helvetica,sans-Serif" font-size="10.00" fill="#63b8ff">1</text>
</a>
</g>
</g>
</g>
</svg>
