<?xml version="1.0" encoding="UTF-8" standalone="no"?>
<!DOCTYPE svg PUBLIC "-//W3C//DTD SVG 1.1//EN"
 "http://www.w3.org/Graphics/SVG/1.1/DTD/svg11.dtd">
<!-- Generated by graphviz version 7.0.5 (20221223.1930)
 -->
<!-- Title: iop/dev9/pvrdrv Pages: 1 -->
<svg width="288pt" height="180pt"
 viewBox="0.00 0.00 288.00 180.00" xmlns="http://www.w3.org/2000/svg" xmlns:xlink="http://www.w3.org/1999/xlink">
<g id="graph0" class="graph" transform="scale(1 1) rotate(0) translate(4 176)">
<title>iop/dev9/pvrdrv</title>
<g id="clust1" class="cluster">
<title>clusterdir_6f16cad81de2453a6f48c5e272ba4a18</title>
<g id="a_clust1"><a xlink:href="dir_6f16cad81de2453a6f48c5e272ba4a18.html" target="_top" xlink:title="dev9">
<polygon fill="#deebf9" stroke="#7f7f7f" stroke-dasharray="5,2" points="8,-39 8,-164 178,-164 178,-39 8,-39"/>
<text text-anchor="middle" x="93" y="-152" font-family="Helvetica,sans-Serif" font-size="10.00">dev9</text>
</a>
</g>
</g>
<g id="clust2" class="cluster">
<title>clusterdir_965b04ab41d8424e7ba3e3f78bb2fea4</title>
<g id="a_clust2"><a xlink:href="dir_965b04ab41d8424e7ba3e3f78bb2fea4.html" target="_top">
<polygon fill="#deebf9" stroke="#404040" stroke-width="2" points="16,-47 16,-137 124,-137 124,-47 16,-47"/>
</a>
</g>
</g>
<!-- dir_18566863331aaba44604539ca78be099 -->
<g id="node1" class="node">
<title>dir_18566863331aaba44604539ca78be099</title>
<g id="a_node1"><a xlink:href="dir_18566863331aaba44604539ca78be099.html" target="_top" xlink:title="dev9">
<polygon fill="#60a2e3" stroke="red" points="170,-74 132,-74 132,-55 170,-55 170,-74"/>
<text text-anchor="middle" x="151" y="-62" font-family="Helvetica,sans-Serif" font-size="10.00">dev9</text>
</a>
</g>
</g>
<!-- dir_965b04ab41d8424e7ba3e3f78bb2fea4 -->
<g id="node2" class="node">
<title>dir_965b04ab41d8424e7ba3e3f78bb2fea4</title>
<text text-anchor="middle" x="94" y="-117" font-family="Helvetica,sans-Serif" font-size="10.00">pvrdrv</text>
</g>
<!-- dir_a2c795235980acedb0cb99ba6b45f6fe -->
<g id="node3" class="node">
<title>dir_a2c795235980acedb0cb99ba6b45f6fe</title>
<g id="a_node3"><a xlink:href="dir_a2c795235980acedb0cb99ba6b45f6fe.html" target="_top" xlink:title="include">
<polygon fill="#60a2e3" stroke="#404040" points="92.5,-74 45.5,-74 45.5,-55 92.5,-55 92.5,-74"/>
<text text-anchor="middle" x="69" y="-62" font-family="Helvetica,sans-Serif" font-size="10.00">include</text>
</a>
</g>
</g>
<!-- dir_9be0baa3d4a3e9f480a9ee70594037fa -->
<g id="node5" class="node">
<title>dir_9be0baa3d4a3e9f480a9ee70594037fa</title>
<g id="a_node5"><a xlink:href="dir_9be0baa3d4a3e9f480a9ee70594037fa.html" target="_top" xlink:title="kernel">
<polygon fill="#deebf9" stroke="red" stroke-dasharray="5,2" points="154.5,-19 111.5,-19 111.5,0 154.5,0 154.5,-19"/>
<text text-anchor="middle" x="133" y="-7" font-family="Helvetica,sans-Serif" font-size="10.00">kernel</text>
</a>
</g>
</g>
<!-- dir_a2c795235980acedb0cb99ba6b45f6fe&#45;&gt;dir_9be0baa3d4a3e9f480a9ee70594037fa -->
<g id="edge1" class="edge">
<title>dir_a2c795235980acedb0cb99ba6b45f6fe&#45;&gt;dir_9be0baa3d4a3e9f480a9ee70594037fa</title>
<path fill="none" stroke="#63b8ff" d="M79.01,-54.53C84.3,-49.84 90.94,-44.04 97,-39 102.05,-34.79 107.59,-30.34 112.77,-26.23"/>
<polygon fill="#63b8ff" stroke="#63b8ff" points="114.64,-29.21 120.35,-20.28 110.32,-23.71 114.64,-29.21"/>
<g id="a_edge1&#45;headlabel"><a xlink:href="dir_000115_000166.html" target="_top" xlink:title="1">
<text text-anchor="middle" x="114.76" y="-30.23" font-family="Helvetica,sans-Serif" font-size="10.00" fill="#63b8ff">1</text>
</a>
</g>
</g>
<!-- dir_318f623de840e331e96f424145758455 -->
<g id="node4" class="node">
<title>dir_318f623de840e331e96f424145758455</title>
<g id="a_node4"><a xlink:href="dir_318f623de840e331e96f424145758455.html" target="_top" xlink:title="src">
<polygon fill="#60a2e3" stroke="#404040" points="54,-129 24,-129 24,-110 54,-110 54,-129"/>
<text text-anchor="middle" x="39" y="-117" font-family="Helvetica,sans-Serif" font-size="10.00">src</text>
</a>
</g>
</g>
<!-- dir_318f623de840e331e96f424145758455&#45;&gt;dir_18566863331aaba44604539ca78be099 -->
<g id="edge2" class="edge">
<title>dir_318f623de840e331e96f424145758455&#45;&gt;dir_18566863331aaba44604539ca78be099</title>
<path fill="none" stroke="#63b8ff" d="M54.1,-111.35C71.37,-103.18 100.04,-89.62 121.72,-79.35"/>
<polygon fill="#63b8ff" stroke="#63b8ff" points="123.12,-82.57 130.66,-75.13 120.12,-76.24 123.12,-82.57"/>
<g id="a_edge2&#45;headlabel"><a xlink:href="dir_000293_000029.html" target="_top" xlink:title="2">
<text text-anchor="middle" x="122.45" y="-83.52" font-family="Helvetica,sans-Serif" font-size="10.00" fill="#63b8ff">2</text>
</a>
</g>
</g>
<!-- dir_318f623de840e331e96f424145758455&#45;&gt;dir_a2c795235980acedb0cb99ba6b45f6fe -->
<g id="edge4" class="edge">
<title>dir_318f623de840e331e96f424145758455&#45;&gt;dir_a2c795235980acedb0cb99ba6b45f6fe</title>
<path fill="none" stroke="#63b8ff" d="M43.95,-109.75C47.84,-102.88 53.39,-93.08 58.28,-84.45"/>
<polygon fill="#63b8ff" stroke="#63b8ff" points="61.31,-86.19 63.19,-75.76 55.22,-82.74 61.31,-86.19"/>
<g id="a_edge4&#45;headlabel"><a xlink:href="dir_000293_000115.html" target="_top" xlink:title="1">
<text text-anchor="middle" x="62.76" y="-86.9" font-family="Helvetica,sans-Serif" font-size="10.00" fill="#63b8ff">1</text>
</a>
</g>
</g>
<!-- dir_318f623de840e331e96f424145758455&#45;&gt;dir_9be0baa3d4a3e9f480a9ee70594037fa -->
<g id="edge3" class="edge">
<title>dir_318f623de840e331e96f424145758455&#45;&gt;dir_9be0baa3d4a3e9f480a9ee70594037fa</title>
<path fill="none" stroke="#63b8ff" d="M54.46,-112.91C57.29,-111.92 60.23,-110.91 63,-110 115.5,-92.77 149.07,-118.37 182,-74 191.27,-61.51 189.76,-52.48 182,-39 178.04,-32.12 171.72,-26.75 164.91,-22.62"/>
<polygon fill="#63b8ff" stroke="#63b8ff" points="166.65,-19.57 156.15,-18.11 163.44,-25.8 166.65,-19.57"/>
<g id="a_edge3&#45;headlabel"><a xlink:href="dir_000293_000166.html" target="_top" xlink:title="14">
<text text-anchor="middle" x="169.8" y="-15.5" font-family="Helvetica,sans-Serif" font-size="10.00" fill="#63b8ff">14</text>
</a>
</g>
</g>
<!-- dir_bdd9a5d540de89e9fe90efdfc6973a4f -->
<g id="node6" class="node">
<title>dir_bdd9a5d540de89e9fe90efdfc6973a4f</title>
<g id="a_node6"><a xlink:href="dir_bdd9a5d540de89e9fe90efdfc6973a4f.html" target="_top" xlink:title="common">
<polygon fill="#deebf9" stroke="red" points="280,-74 226,-74 226,-55 280,-55 280,-74"/>
<text text-anchor="middle" x="253" y="-62" font-family="Helvetica,sans-Serif" font-size="10.00">common</text>
</a>
</g>
</g>
<!-- dir_318f623de840e331e96f424145758455&#45;&gt;dir_bdd9a5d540de89e9fe90efdfc6973a4f -->
<g id="edge5" class="edge">
<title>dir_318f623de840e331e96f424145758455&#45;&gt;dir_bdd9a5d540de89e9fe90efdfc6973a4f</title>
<path fill="none" stroke="#63b8ff" d="M54.41,-112.76C57.25,-111.78 60.2,-110.82 63,-110 91.08,-101.77 167.79,-84.38 214.7,-73.94"/>
<polygon fill="#63b8ff" stroke="#63b8ff" points="215.17,-77.42 224.18,-71.84 213.66,-70.59 215.17,-77.42"/>
<g id="a_edge5&#45;headlabel"><a xlink:href="dir_000293_000024.html" target="_top" xlink:title="2">
<text text-anchor="middle" x="213.76" y="-78.15" font-family="Helvetica,sans-Serif" font-size="10.00" fill="#63b8ff">2</text>
</a>
</g>
</g>
</g>
</svg>
