<?xml version="1.0" encoding="UTF-8" standalone="no"?>
<!DOCTYPE svg PUBLIC "-//W3C//DTD SVG 1.1//EN"
 "http://www.w3.org/Graphics/SVG/1.1/DTD/svg11.dtd">
<!-- Generated by graphviz version 7.0.5 (20221223.1930)
 -->
<!-- Title: ee/dma/include/dma.h Pages: 1 -->
<svg width="144pt" height="137pt"
 viewBox="0.00 0.00 143.50 137.00" xmlns="http://www.w3.org/2000/svg" xmlns:xlink="http://www.w3.org/1999/xlink">
<g id="graph0" class="graph" transform="scale(1 1) rotate(0) translate(4 133)">
<title>ee/dma/include/dma.h</title>
<!-- Node1 -->
<g id="node1" class="node">
<title>Node1</title>
<g id="a_node1"><a xlink:title=" ">
<polygon fill="#999999" stroke="#666666" points="112,-129 0,-129 0,-110 112,-110 112,-129"/>
<text text-anchor="middle" x="56" y="-117" font-family="Helvetica,sans-Serif" font-size="10.00">ee/dma/include/dma.h</text>
</a>
</g>
</g>
<!-- Node2 -->
<g id="node2" class="node">
<title>Node2</title>
<g id="a_node2"><a xlink:href="tamtypes_8h.html" target="_top" xlink:title=" ">
<polygon fill="white" stroke="#666666" points="88,-19 24,-19 24,0 88,0 88,-19"/>
<text text-anchor="middle" x="56" y="-7" font-family="Helvetica,sans-Serif" font-size="10.00">tamtypes.h</text>
</a>
</g>
</g>
<!-- Node1&#45;&gt;Node2 -->
<g id="edge1" class="edge">
<title>Node1&#45;&gt;Node2</title>
<path fill="none" stroke="#63b8ff" d="M51.48,-109.58C47.29,-100.79 41.37,-86.85 39,-74 36.21,-58.88 41.07,-42.08 46.29,-29.56"/>
<polygon fill="#63b8ff" stroke="#63b8ff" points="49.32,-31.36 50.35,-20.81 42.97,-28.41 49.32,-31.36"/>
</g>
<!-- Node3 -->
<g id="node3" class="node">
<title>Node3</title>
<g id="a_node3"><a xlink:href="packet2__types_8h_source.html" target="_top" xlink:title=" ">
<polygon fill="white" stroke="#666666" points="135.5,-74 48.5,-74 48.5,-55 135.5,-55 135.5,-74"/>
<text text-anchor="middle" x="92" y="-62" font-family="Helvetica,sans-Serif" font-size="10.00">packet2_types.h</text>
</a>
</g>
</g>
<!-- Node1&#45;&gt;Node3 -->
<g id="edge2" class="edge">
<title>Node1&#45;&gt;Node3</title>
<path fill="none" stroke="#63b8ff" d="M61.94,-109.75C66.71,-102.73 73.56,-92.64 79.52,-83.87"/>
<polygon fill="#63b8ff" stroke="#63b8ff" points="82.35,-85.93 85.08,-75.69 76.56,-82 82.35,-85.93"/>
</g>
<!-- Node3&#45;&gt;Node2 -->
<g id="edge3" class="edge">
<title>Node3&#45;&gt;Node2</title>
<path fill="none" stroke="#63b8ff" d="M86.06,-54.75C81.29,-47.73 74.44,-37.64 68.48,-28.87"/>
<polygon fill="#63b8ff" stroke="#63b8ff" points="71.44,-27 62.92,-20.69 65.65,-30.93 71.44,-27"/>
</g>
</g>
</svg>
