<?xml version="1.0" encoding="UTF-8" standalone="no"?>
<!DOCTYPE svg PUBLIC "-//W3C//DTD SVG 1.1//EN"
 "http://www.w3.org/Graphics/SVG/1.1/DTD/svg11.dtd">
<!-- Generated by graphviz version 7.0.5 (20221223.1930)
 -->
<!-- Title: ee/draw/include/draw_primitives.h Pages: 1 -->
<svg width="774pt" height="269pt"
 viewBox="0.00 0.00 773.62 269.00" xmlns="http://www.w3.org/2000/svg" xmlns:xlink="http://www.w3.org/1999/xlink">
<g id="graph0" class="graph" transform="scale(1 1) rotate(0) translate(4 265)">
<title>ee/draw/include/draw_primitives.h</title>
<!-- Node1 -->
<g id="node1" class="node">
<title>Node1</title>
<g id="a_node1"><a xlink:title=" ">
<polygon fill="#999999" stroke="#666666" points="543.2,-261 434.2,-261 434.2,-231 543.2,-231 543.2,-261"/>
<text text-anchor="start" x="442.2" y="-249" font-family="Helvetica,sans-Serif" font-size="10.00">ee/draw/include/draw</text>
<text text-anchor="middle" x="488.7" y="-238" font-family="Helvetica,sans-Serif" font-size="10.00">_primitives.h</text>
</a>
</g>
</g>
<!-- Node2 -->
<g id="node2" class="node">
<title>Node2</title>
<g id="a_node2"><a xlink:href="draw_8h.html" target="_top" xlink:title=" ">
<polygon fill="white" stroke="#666666" points="484.7,-134.5 368.7,-134.5 368.7,-115.5 484.7,-115.5 484.7,-134.5"/>
<text text-anchor="middle" x="426.7" y="-122.5" font-family="Helvetica,sans-Serif" font-size="10.00">ee/draw/include/draw.h</text>
</a>
</g>
</g>
<!-- Node1&#45;&gt;Node2 -->
<g id="edge1" class="edge">
<title>Node1&#45;&gt;Node2</title>
<path fill="none" stroke="#63b8ff" d="M476.09,-220.8C462.19,-194.12 440.57,-152.62 431.24,-134.71"/>
<polygon fill="#63b8ff" stroke="#63b8ff" points="472.92,-222.29 480.64,-229.54 479.13,-219.05 472.92,-222.29"/>
</g>
<!-- Node10 -->
<g id="node10" class="node">
<title>Node10</title>
<g id="a_node10"><a xlink:href="draw3d_8h.html" target="_top" xlink:title=" ">
<polygon fill="white" stroke="#666666" points="606.2,-195 479.2,-195 479.2,-176 606.2,-176 606.2,-195"/>
<text text-anchor="middle" x="542.7" y="-183" font-family="Helvetica,sans-Serif" font-size="10.00">ee/draw/include/draw3d.h</text>
</a>
</g>
</g>
<!-- Node1&#45;&gt;Node10 -->
<g id="edge11" class="edge">
<title>Node1&#45;&gt;Node10</title>
<path fill="none" stroke="#63b8ff" d="M509.72,-222.22C518.47,-212.74 528.11,-202.31 534.69,-195.18"/>
<polygon fill="#63b8ff" stroke="#63b8ff" points="507.28,-219.71 503.07,-229.43 512.43,-224.45 507.28,-219.71"/>
</g>
<!-- Node3 -->
<g id="node3" class="node">
<title>Node3</title>
<g id="a_node3"><a xlink:href="draw_2src_2draw_8c_source.html" target="_top" xlink:title=" ">
<polygon fill="white" stroke="#666666" points="331.2,-74 232.2,-74 232.2,-55 331.2,-55 331.2,-74"/>
<text text-anchor="middle" x="281.7" y="-62" font-family="Helvetica,sans-Serif" font-size="10.00">ee/draw/src/draw.c</text>
</a>
</g>
</g>
<!-- Node2&#45;&gt;Node3 -->
<g id="edge2" class="edge">
<title>Node2&#45;&gt;Node3</title>
<path fill="none" stroke="#63b8ff" d="M394.01,-110.81C366.52,-99.72 327.96,-84.17 303.93,-74.47"/>
<polygon fill="#63b8ff" stroke="#63b8ff" points="392.69,-114.05 403.27,-114.55 395.31,-107.56 392.69,-114.05"/>
</g>
<!-- Node4 -->
<g id="node4" class="node">
<title>Node4</title>
<g id="a_node4"><a xlink:href="draw2d_8c_source.html" target="_top" xlink:title=" ">
<polygon fill="white" stroke="#666666" points="751.7,-74 641.7,-74 641.7,-55 751.7,-55 751.7,-74"/>
<text text-anchor="middle" x="696.7" y="-62" font-family="Helvetica,sans-Serif" font-size="10.00">ee/draw/src/draw2d.c</text>
</a>
</g>
</g>
<!-- Node2&#45;&gt;Node4 -->
<g id="edge3" class="edge">
<title>Node2&#45;&gt;Node4</title>
<path fill="none" stroke="#63b8ff" d="M479.21,-112.62C530.7,-101.47 608.16,-84.68 655.4,-74.45"/>
<polygon fill="#63b8ff" stroke="#63b8ff" points="478.51,-109.19 469.48,-114.73 479.99,-116.03 478.51,-109.19"/>
</g>
<!-- Node5 -->
<g id="node5" class="node">
<title>Node5</title>
<g id="a_node5"><a xlink:href="draw3d_8c_source.html" target="_top" xlink:title=" ">
<polygon fill="white" stroke="#666666" points="459.7,-74 349.7,-74 349.7,-55 459.7,-55 459.7,-74"/>
<text text-anchor="middle" x="404.7" y="-62" font-family="Helvetica,sans-Serif" font-size="10.00">ee/draw/src/draw3d.c</text>
</a>
</g>
</g>
<!-- Node2&#45;&gt;Node5 -->
<g id="edge4" class="edge">
<title>Node2&#45;&gt;Node5</title>
<path fill="none" stroke="#63b8ff" d="M419.49,-104.83C415.6,-94.48 410.98,-82.22 407.96,-74.17"/>
<polygon fill="#63b8ff" stroke="#63b8ff" points="416.12,-105.82 422.92,-113.95 422.67,-103.36 416.12,-105.82"/>
</g>
<!-- Node6 -->
<g id="node6" class="node">
<title>Node6</title>
<g id="a_node6"><a xlink:href="draw__environment_8c_source.html" target="_top" xlink:title=" ">
<polygon fill="white" stroke="#666666" points="175.7,-74 17.7,-74 17.7,-55 175.7,-55 175.7,-74"/>
<text text-anchor="middle" x="96.7" y="-62" font-family="Helvetica,sans-Serif" font-size="10.00">ee/draw/src/draw_environment.c</text>
</a>
</g>
</g>
<!-- Node2&#45;&gt;Node6 -->
<g id="edge5" class="edge">
<title>Node2&#45;&gt;Node6</title>
<path fill="none" stroke="#63b8ff" d="M364.89,-113.04C302.08,-101.91 205.94,-84.87 147.44,-74.5"/>
<polygon fill="#63b8ff" stroke="#63b8ff" points="364.27,-116.49 374.73,-114.79 365.49,-109.6 364.27,-116.49"/>
</g>
<!-- Node7 -->
<g id="node7" class="node">
<title>Node7</title>
<g id="a_node7"><a xlink:href="font_8h.html" target="_top" xlink:title=" ">
<polygon fill="white" stroke="#666666" points="585.2,-74 478.2,-74 478.2,-55 585.2,-55 585.2,-74"/>
<text text-anchor="middle" x="531.7" y="-62" font-family="Helvetica,sans-Serif" font-size="10.00">ee/font/include/font.h</text>
</a>
</g>
</g>
<!-- Node2&#45;&gt;Node7 -->
<g id="edge6" class="edge">
<title>Node2&#45;&gt;Node7</title>
<path fill="none" stroke="#63b8ff" d="M452.52,-109.61C472.24,-98.62 498.81,-83.82 515.6,-74.47"/>
<polygon fill="#63b8ff" stroke="#63b8ff" points="451,-106.45 443.97,-114.38 454.41,-112.57 451,-106.45"/>
</g>
<!-- Node8 -->
<g id="node8" class="node">
<title>Node8</title>
<g id="a_node8"><a xlink:href="fontx_8c_source.html" target="_top" xlink:title=" ">
<polygon fill="white" stroke="#666666" points="251.2,-19 156.2,-19 156.2,0 251.2,0 251.2,-19"/>
<text text-anchor="middle" x="203.7" y="-7" font-family="Helvetica,sans-Serif" font-size="10.00">ee/font/src/fontx.c</text>
</a>
</g>
</g>
<!-- Node2&#45;&gt;Node8 -->
<g id="edge9" class="edge">
<title>Node2&#45;&gt;Node8</title>
<path fill="none" stroke="#63b8ff" d="M356.96,-114.43C305.8,-106.06 242.01,-92.37 222.7,-74 207.35,-59.41 204.25,-32.99 203.72,-19.28"/>
<polygon fill="#63b8ff" stroke="#63b8ff" points="356.41,-117.89 366.83,-116 357.5,-110.97 356.41,-117.89"/>
</g>
<!-- Node9 -->
<g id="node9" class="node">
<title>Node9</title>
<g id="a_node9"><a xlink:href="fsfont_8c_source.html" target="_top" xlink:title=" ">
<polygon fill="white" stroke="#666666" points="662.7,-19 564.7,-19 564.7,0 662.7,0 662.7,-19"/>
<text text-anchor="middle" x="613.7" y="-7" font-family="Helvetica,sans-Serif" font-size="10.00">ee/font/src/fsfont.c</text>
</a>
</g>
</g>
<!-- Node2&#45;&gt;Node9 -->
<g id="edge10" class="edge">
<title>Node2&#45;&gt;Node9</title>
<path fill="none" stroke="#63b8ff" d="M474.37,-112.28C520.91,-100.45 585.97,-82.72 594.7,-74 609.68,-59.04 612.94,-32.78 613.59,-19.19"/>
<polygon fill="#63b8ff" stroke="#63b8ff" points="473.59,-108.87 464.75,-114.71 475.3,-115.65 473.59,-108.87"/>
</g>
<!-- Node7&#45;&gt;Node8 -->
<g id="edge7" class="edge">
<title>Node7&#45;&gt;Node8</title>
<path fill="none" stroke="#63b8ff" d="M466.84,-53.02C403.47,-42.78 308.49,-27.43 251.65,-18.25"/>
<polygon fill="#63b8ff" stroke="#63b8ff" points="465.98,-56.43 476.41,-54.57 467.09,-49.52 465.98,-56.43"/>
</g>
<!-- Node7&#45;&gt;Node9 -->
<g id="edge8" class="edge">
<title>Node7&#45;&gt;Node9</title>
<path fill="none" stroke="#63b8ff" d="M554.97,-48.46C569.51,-39.06 587.73,-27.28 599.99,-19.36"/>
<polygon fill="#63b8ff" stroke="#63b8ff" points="553.38,-45.32 546.88,-53.69 557.18,-51.2 553.38,-45.32"/>
</g>
<!-- Node10&#45;&gt;Node2 -->
<g id="edge12" class="edge">
<title>Node10&#45;&gt;Node2</title>
<path fill="none" stroke="#63b8ff" d="M515.07,-170.57C493.19,-159.53 463.28,-144.45 444.48,-134.97"/>
<polygon fill="#63b8ff" stroke="#63b8ff" points="513.22,-173.56 523.73,-174.93 516.37,-167.31 513.22,-173.56"/>
</g>
<!-- Node10&#45;&gt;Node4 -->
<g id="edge13" class="edge">
<title>Node10&#45;&gt;Node4</title>
<path fill="none" stroke="#63b8ff" d="M566.79,-169.51C579.76,-161.19 595.9,-150.43 609.7,-140 639.2,-117.7 671.76,-88.48 687.36,-74.16"/>
<polygon fill="#63b8ff" stroke="#63b8ff" points="565.01,-166.49 558.44,-174.8 568.76,-172.4 565.01,-166.49"/>
</g>
<!-- Node10&#45;&gt;Node8 -->
<g id="edge14" class="edge">
<title>Node10&#45;&gt;Node8</title>
<path fill="none" stroke="#63b8ff" d="M467.81,-180.3C334.76,-171.09 65.76,-144.09 8.7,-74 -32.56,-23.34 85.52,-12.68 155.71,-10.7"/>
<polygon fill="#63b8ff" stroke="#63b8ff" points="467.36,-183.77 477.57,-180.95 467.83,-176.79 467.36,-183.77"/>
</g>
<!-- Node10&#45;&gt;Node9 -->
<g id="edge15" class="edge">
<title>Node10&#45;&gt;Node9</title>
<path fill="none" stroke="#63b8ff" d="M602.96,-172.72C655.21,-158.93 727.5,-130.38 760.7,-74 784.26,-33.99 714.52,-19.16 663.19,-13.68"/>
<polygon fill="#63b8ff" stroke="#63b8ff" points="602.12,-169.32 593.27,-175.15 603.83,-176.11 602.12,-169.32"/>
</g>
<!-- Node11 -->
<g id="node11" class="node">
<title>Node11</title>
<g id="a_node11"><a xlink:href="packet2__utils_8h_source.html" target="_top" xlink:title=" ">
<polygon fill="white" stroke="#666666" points="600.7,-140 502.7,-140 502.7,-110 600.7,-110 600.7,-140"/>
<text text-anchor="start" x="510.7" y="-128" font-family="Helvetica,sans-Serif" font-size="10.00">ee/packet2/include</text>
<text text-anchor="middle" x="551.7" y="-117" font-family="Helvetica,sans-Serif" font-size="10.00">/packet2_utils.h</text>
</a>
</g>
</g>
<!-- Node10&#45;&gt;Node11 -->
<g id="edge16" class="edge">
<title>Node10&#45;&gt;Node11</title>
<path fill="none" stroke="#63b8ff" d="M545.77,-164.51C547.01,-156.49 548.4,-147.43 549.53,-140.11"/>
<polygon fill="#63b8ff" stroke="#63b8ff" points="542.32,-163.96 544.25,-174.37 549.23,-165.02 542.32,-163.96"/>
</g>
</g>
</svg>
