<?xml version="1.0" encoding="UTF-8" standalone="no"?>
<!DOCTYPE svg PUBLIC "-//W3C//DTD SVG 1.1//EN"
 "http://www.w3.org/Graphics/SVG/1.1/DTD/svg11.dtd">
<!-- Generated by graphviz version 7.0.5 (20221223.1930)
 -->
<!-- Title: ee/draw/include/draw3d.h Pages: 1 -->
<svg width="248pt" height="192pt"
 viewBox="0.00 0.00 248.41 192.00" xmlns="http://www.w3.org/2000/svg" xmlns:xlink="http://www.w3.org/1999/xlink">
<g id="graph0" class="graph" transform="scale(1 1) rotate(0) translate(4 188)">
<title>ee/draw/include/draw3d.h</title>
<!-- Node1 -->
<g id="node1" class="node">
<title>Node1</title>
<g id="a_node1"><a xlink:title=" ">
<polygon fill="#999999" stroke="#666666" points="156.41,-184 29.41,-184 29.41,-165 156.41,-165 156.41,-184"/>
<text text-anchor="middle" x="92.91" y="-172" font-family="Helvetica,sans-Serif" font-size="10.00">ee/draw/include/draw3d.h</text>
</a>
</g>
</g>
<!-- Node2 -->
<g id="node2" class="node">
<title>Node2</title>
<g id="a_node2"><a xlink:href="tamtypes_8h.html" target="_top" xlink:title=" ">
<polygon fill="white" stroke="#666666" points="139.91,-19 75.91,-19 75.91,0 139.91,0 139.91,-19"/>
<text text-anchor="middle" x="107.91" y="-7" font-family="Helvetica,sans-Serif" font-size="10.00">tamtypes.h</text>
</a>
</g>
</g>
<!-- Node1&#45;&gt;Node2 -->
<g id="edge1" class="edge">
<title>Node1&#45;&gt;Node2</title>
<path fill="none" stroke="#63b8ff" d="M77.43,-164.5C45.9,-144.99 -20.59,-97.16 6.91,-55 19.69,-35.41 43.24,-24.38 64.39,-18.21"/>
<polygon fill="#63b8ff" stroke="#63b8ff" points="65.22,-21.61 74.02,-15.71 63.46,-14.83 65.22,-21.61"/>
</g>
<!-- Node3 -->
<g id="node3" class="node">
<title>Node3</title>
<g id="a_node3"><a xlink:href="draw__primitives_8h.html" target="_top" xlink:title=" ">
<polygon fill="white" stroke="#666666" points="107.91,-74 15.91,-74 15.91,-55 107.91,-55 107.91,-74"/>
<text text-anchor="middle" x="61.91" y="-62" font-family="Helvetica,sans-Serif" font-size="10.00">draw_primitives.h</text>
</a>
</g>
</g>
<!-- Node1&#45;&gt;Node3 -->
<g id="edge2" class="edge">
<title>Node1&#45;&gt;Node3</title>
<path fill="none" stroke="#63b8ff" d="M90.3,-164.64C87.66,-155.66 83.47,-141.38 79.91,-129 75.68,-114.3 70.96,-97.66 67.42,-85.11"/>
<polygon fill="#63b8ff" stroke="#63b8ff" points="70.82,-84.27 64.74,-75.59 64.08,-86.17 70.82,-84.27"/>
</g>
<!-- Node4 -->
<g id="node4" class="node">
<title>Node4</title>
<g id="a_node4"><a xlink:href="draw__types_8h.html" target="_top" xlink:title=" ">
<polygon fill="white" stroke="#666666" points="162.91,-129 88.91,-129 88.91,-110 162.91,-110 162.91,-129"/>
<text text-anchor="middle" x="125.91" y="-117" font-family="Helvetica,sans-Serif" font-size="10.00">draw_types.h</text>
</a>
</g>
</g>
<!-- Node1&#45;&gt;Node4 -->
<g id="edge4" class="edge">
<title>Node1&#45;&gt;Node4</title>
<path fill="none" stroke="#63b8ff" d="M98.36,-164.75C102.68,-157.81 108.87,-147.86 114.29,-139.16"/>
<polygon fill="#63b8ff" stroke="#63b8ff" points="117.23,-141.07 119.54,-130.73 111.28,-137.37 117.23,-141.07"/>
</g>
<!-- Node6 -->
<g id="node6" class="node">
<title>Node6</title>
<g id="a_node6"><a xlink:href="gif__tags_8h.html" target="_top" xlink:title=" ">
<polygon fill="white" stroke="#666666" points="240.41,-129 181.41,-129 181.41,-110 240.41,-110 240.41,-129"/>
<text text-anchor="middle" x="210.91" y="-117" font-family="Helvetica,sans-Serif" font-size="10.00">gif_tags.h</text>
</a>
</g>
</g>
<!-- Node1&#45;&gt;Node6 -->
<g id="edge7" class="edge">
<title>Node1&#45;&gt;Node6</title>
<path fill="none" stroke="#63b8ff" d="M112.93,-164.51C131.52,-156.16 159.45,-143.61 180.74,-134.05"/>
<polygon fill="#63b8ff" stroke="#63b8ff" points="182.12,-137.27 189.81,-129.98 179.25,-130.88 182.12,-137.27"/>
</g>
<!-- Node3&#45;&gt;Node2 -->
<g id="edge3" class="edge">
<title>Node3&#45;&gt;Node2</title>
<path fill="none" stroke="#63b8ff" d="M69.5,-54.75C75.79,-47.5 84.92,-36.98 92.7,-28.02"/>
<polygon fill="#63b8ff" stroke="#63b8ff" points="95.24,-30.43 99.16,-20.59 89.96,-25.84 95.24,-30.43"/>
</g>
<!-- Node5 -->
<g id="node5" class="node">
<title>Node5</title>
<g id="a_node5"><a xlink:href="math3d_8h.html" target="_top" xlink:title=" ">
<polygon fill="white" stroke="#666666" points="181.91,-74 125.91,-74 125.91,-55 181.91,-55 181.91,-74"/>
<text text-anchor="middle" x="153.91" y="-62" font-family="Helvetica,sans-Serif" font-size="10.00">math3d.h</text>
</a>
</g>
</g>
<!-- Node4&#45;&gt;Node5 -->
<g id="edge5" class="edge">
<title>Node4&#45;&gt;Node5</title>
<path fill="none" stroke="#63b8ff" d="M130.53,-109.75C134.16,-102.88 139.34,-93.08 143.9,-84.45"/>
<polygon fill="#63b8ff" stroke="#63b8ff" points="146.9,-86.26 148.48,-75.78 140.71,-82.99 146.9,-86.26"/>
</g>
<!-- Node5&#45;&gt;Node2 -->
<g id="edge6" class="edge">
<title>Node5&#45;&gt;Node2</title>
<path fill="none" stroke="#63b8ff" d="M146.31,-54.75C140.02,-47.5 130.89,-36.98 123.11,-28.02"/>
<polygon fill="#63b8ff" stroke="#63b8ff" points="125.86,-25.84 116.66,-20.59 120.57,-30.43 125.86,-25.84"/>
</g>
<!-- Node6&#45;&gt;Node2 -->
<g id="edge8" class="edge">
<title>Node6&#45;&gt;Node2</title>
<path fill="none" stroke="#63b8ff" d="M210.23,-109.71C208.78,-96.46 204.33,-71.2 190.91,-55 179.38,-41.09 162.34,-30.89 146.7,-23.8"/>
<polygon fill="#63b8ff" stroke="#63b8ff" points="148.14,-20.61 137.57,-19.97 145.43,-27.07 148.14,-20.61"/>
</g>
</g>
</svg>
