<?xml version="1.0" encoding="UTF-8" standalone="no"?>
<!DOCTYPE svg PUBLIC "-//W3C//DTD SVG 1.1//EN"
 "http://www.w3.org/Graphics/SVG/1.1/DTD/svg11.dtd">
<!-- Generated by graphviz version 7.0.5 (20221223.1930)
 -->
<!-- Title: ee/draw/include/draw_sampling.h Pages: 1 -->
<svg width="768pt" height="214pt"
 viewBox="0.00 0.00 767.50 214.00" xmlns="http://www.w3.org/2000/svg" xmlns:xlink="http://www.w3.org/1999/xlink">
<g id="graph0" class="graph" transform="scale(1 1) rotate(0) translate(4 210)">
<title>ee/draw/include/draw_sampling.h</title>
<!-- Node1 -->
<g id="node1" class="node">
<title>Node1</title>
<g id="a_node1"><a xlink:title=" ">
<polygon fill="#999999" stroke="#666666" points="569,-206 460,-206 460,-176 569,-176 569,-206"/>
<text text-anchor="start" x="468" y="-194" font-family="Helvetica,sans-Serif" font-size="10.00">ee/draw/include/draw</text>
<text text-anchor="middle" x="514.5" y="-183" font-family="Helvetica,sans-Serif" font-size="10.00">_sampling.h</text>
</a>
</g>
</g>
<!-- Node2 -->
<g id="node2" class="node">
<title>Node2</title>
<g id="a_node2"><a xlink:href="draw_8h.html" target="_top" xlink:title=" ">
<polygon fill="white" stroke="#666666" points="510.5,-134.5 394.5,-134.5 394.5,-115.5 510.5,-115.5 510.5,-134.5"/>
<text text-anchor="middle" x="452.5" y="-122.5" font-family="Helvetica,sans-Serif" font-size="10.00">ee/draw/include/draw.h</text>
</a>
</g>
</g>
<!-- Node1&#45;&gt;Node2 -->
<g id="edge1" class="edge">
<title>Node1&#45;&gt;Node2</title>
<path fill="none" stroke="#63b8ff" d="M492.81,-167.61C481.88,-156.32 469.24,-143.28 461.07,-134.84"/>
<polygon fill="#63b8ff" stroke="#63b8ff" points="490.22,-169.96 499.69,-174.71 495.24,-165.09 490.22,-169.96"/>
</g>
<!-- Node10 -->
<g id="node10" class="node">
<title>Node10</title>
<g id="a_node10"><a xlink:href="packet2__utils_8h_source.html" target="_top" xlink:title=" ">
<polygon fill="white" stroke="#666666" points="626.5,-140 528.5,-140 528.5,-110 626.5,-110 626.5,-140"/>
<text text-anchor="start" x="536.5" y="-128" font-family="Helvetica,sans-Serif" font-size="10.00">ee/packet2/include</text>
<text text-anchor="middle" x="577.5" y="-117" font-family="Helvetica,sans-Serif" font-size="10.00">/packet2_utils.h</text>
</a>
</g>
</g>
<!-- Node1&#45;&gt;Node10 -->
<g id="edge11" class="edge">
<title>Node1&#45;&gt;Node10</title>
<path fill="none" stroke="#63b8ff" d="M536.35,-167.81C545.37,-158.64 555.57,-148.28 563.56,-140.16"/>
<polygon fill="#63b8ff" stroke="#63b8ff" points="534.06,-165.14 529.54,-174.72 539.05,-170.05 534.06,-165.14"/>
</g>
<!-- Node3 -->
<g id="node3" class="node">
<title>Node3</title>
<g id="a_node3"><a xlink:href="draw_2src_2draw_8c_source.html" target="_top" xlink:title=" ">
<polygon fill="white" stroke="#666666" points="99,-74 0,-74 0,-55 99,-55 99,-74"/>
<text text-anchor="middle" x="49.5" y="-62" font-family="Helvetica,sans-Serif" font-size="10.00">ee/draw/src/draw.c</text>
</a>
</g>
</g>
<!-- Node2&#45;&gt;Node3 -->
<g id="edge2" class="edge">
<title>Node2&#45;&gt;Node3</title>
<path fill="none" stroke="#63b8ff" d="M383.28,-113.95C302.47,-102.22 170.81,-83.11 99.39,-72.74"/>
<polygon fill="#63b8ff" stroke="#63b8ff" points="382.43,-117.37 392.83,-115.34 383.44,-110.44 382.43,-117.37"/>
</g>
<!-- Node4 -->
<g id="node4" class="node">
<title>Node4</title>
<g id="a_node4"><a xlink:href="draw2d_8c_source.html" target="_top" xlink:title=" ">
<polygon fill="white" stroke="#666666" points="227.5,-74 117.5,-74 117.5,-55 227.5,-55 227.5,-74"/>
<text text-anchor="middle" x="172.5" y="-62" font-family="Helvetica,sans-Serif" font-size="10.00">ee/draw/src/draw2d.c</text>
</a>
</g>
</g>
<!-- Node2&#45;&gt;Node4 -->
<g id="edge3" class="edge">
<title>Node2&#45;&gt;Node4</title>
<path fill="none" stroke="#63b8ff" d="M398.71,-112.76C345.32,-101.61 264.52,-84.73 215.33,-74.45"/>
<polygon fill="#63b8ff" stroke="#63b8ff" points="397.68,-116.12 408.19,-114.74 399.11,-109.27 397.68,-116.12"/>
</g>
<!-- Node5 -->
<g id="node5" class="node">
<title>Node5</title>
<g id="a_node5"><a xlink:href="draw3d_8c_source.html" target="_top" xlink:title=" ">
<polygon fill="white" stroke="#666666" points="355.5,-74 245.5,-74 245.5,-55 355.5,-55 355.5,-74"/>
<text text-anchor="middle" x="300.5" y="-62" font-family="Helvetica,sans-Serif" font-size="10.00">ee/draw/src/draw3d.c</text>
</a>
</g>
</g>
<!-- Node2&#45;&gt;Node5 -->
<g id="edge4" class="edge">
<title>Node2&#45;&gt;Node5</title>
<path fill="none" stroke="#63b8ff" d="M419,-111.11C390.14,-100 349.22,-84.25 323.8,-74.47"/>
<polygon fill="#63b8ff" stroke="#63b8ff" points="417.41,-114.25 428,-114.57 419.93,-107.71 417.41,-114.25"/>
</g>
<!-- Node6 -->
<g id="node6" class="node">
<title>Node6</title>
<g id="a_node6"><a xlink:href="draw__environment_8c_source.html" target="_top" xlink:title=" ">
<polygon fill="white" stroke="#666666" points="531.5,-74 373.5,-74 373.5,-55 531.5,-55 531.5,-74"/>
<text text-anchor="middle" x="452.5" y="-62" font-family="Helvetica,sans-Serif" font-size="10.00">ee/draw/src/draw_environment.c</text>
</a>
</g>
</g>
<!-- Node2&#45;&gt;Node6 -->
<g id="edge5" class="edge">
<title>Node2&#45;&gt;Node6</title>
<path fill="none" stroke="#63b8ff" d="M452.5,-104.16C452.5,-93.95 452.5,-82.04 452.5,-74.17"/>
<polygon fill="#63b8ff" stroke="#63b8ff" points="449,-103.85 452.5,-113.85 456,-103.85 449,-103.85"/>
</g>
<!-- Node7 -->
<g id="node7" class="node">
<title>Node7</title>
<g id="a_node7"><a xlink:href="font_8h.html" target="_top" xlink:title=" ">
<polygon fill="white" stroke="#666666" points="695,-74 588,-74 588,-55 695,-55 695,-74"/>
<text text-anchor="middle" x="641.5" y="-62" font-family="Helvetica,sans-Serif" font-size="10.00">ee/font/include/font.h</text>
</a>
</g>
</g>
<!-- Node2&#45;&gt;Node7 -->
<g id="edge6" class="edge">
<title>Node2&#45;&gt;Node7</title>
<path fill="none" stroke="#63b8ff" d="M491.8,-111.83C527.79,-100.7 580.22,-84.47 612.52,-74.47"/>
<polygon fill="#63b8ff" stroke="#63b8ff" points="491.17,-108.37 482.65,-114.67 493.24,-115.05 491.17,-108.37"/>
</g>
<!-- Node8 -->
<g id="node8" class="node">
<title>Node8</title>
<g id="a_node8"><a xlink:href="fontx_8c_source.html" target="_top" xlink:title=" ">
<polygon fill="white" stroke="#666666" points="631,-19 536,-19 536,0 631,0 631,-19"/>
<text text-anchor="middle" x="583.5" y="-7" font-family="Helvetica,sans-Serif" font-size="10.00">ee/font/src/fontx.c</text>
</a>
</g>
</g>
<!-- Node2&#45;&gt;Node8 -->
<g id="edge9" class="edge">
<title>Node2&#45;&gt;Node8</title>
<path fill="none" stroke="#63b8ff" d="M484.41,-110.31C502.22,-101.63 524.07,-89.18 540.5,-74 558.29,-57.55 572.52,-32.4 579.26,-19.23"/>
<polygon fill="#63b8ff" stroke="#63b8ff" points="483.13,-107.04 475.56,-114.45 486.1,-113.38 483.13,-107.04"/>
</g>
<!-- Node9 -->
<g id="node9" class="node">
<title>Node9</title>
<g id="a_node9"><a xlink:href="fsfont_8c_source.html" target="_top" xlink:title=" ">
<polygon fill="white" stroke="#666666" points="759.5,-19 661.5,-19 661.5,0 759.5,0 759.5,-19"/>
<text text-anchor="middle" x="710.5" y="-7" font-family="Helvetica,sans-Serif" font-size="10.00">ee/font/src/fsfont.c</text>
</a>
</g>
</g>
<!-- Node2&#45;&gt;Node9 -->
<g id="edge10" class="edge">
<title>Node2&#45;&gt;Node9</title>
<path fill="none" stroke="#63b8ff" d="M506.18,-112.72C510.68,-111.79 515.17,-110.87 519.5,-110 601.61,-93.43 648.24,-136.06 704.5,-74 718.18,-58.9 715.3,-32.7 712.59,-19.16"/>
<polygon fill="#63b8ff" stroke="#63b8ff" points="505.58,-109.26 496.5,-114.72 507,-116.12 505.58,-109.26"/>
</g>
<!-- Node7&#45;&gt;Node8 -->
<g id="edge7" class="edge">
<title>Node7&#45;&gt;Node8</title>
<path fill="none" stroke="#63b8ff" d="M623.24,-46.81C613.28,-37.72 601.36,-26.82 593.19,-19.36"/>
<polygon fill="#63b8ff" stroke="#63b8ff" points="620.8,-49.33 630.54,-53.49 625.52,-44.16 620.8,-49.33"/>
</g>
<!-- Node7&#45;&gt;Node9 -->
<g id="edge8" class="edge">
<title>Node7&#45;&gt;Node9</title>
<path fill="none" stroke="#63b8ff" d="M662.15,-47.64C674.2,-38.39 688.95,-27.05 698.97,-19.36"/>
<polygon fill="#63b8ff" stroke="#63b8ff" points="660.2,-44.72 654.41,-53.59 664.47,-50.27 660.2,-44.72"/>
</g>
</g>
</svg>
