<?xml version="1.0" encoding="UTF-8" standalone="no"?>
<!DOCTYPE svg PUBLIC "-//W3C//DTD SVG 1.1//EN"
 "http://www.w3.org/Graphics/SVG/1.1/DTD/svg11.dtd">
<!-- Generated by graphviz version 7.0.5 (20221223.1930)
 -->
<!-- Title: ee/draw/include/draw2d.h Pages: 1 -->
<svg width="742pt" height="192pt"
 viewBox="0.00 0.00 741.50 192.00" xmlns="http://www.w3.org/2000/svg" xmlns:xlink="http://www.w3.org/1999/xlink">
<g id="graph0" class="graph" transform="scale(1 1) rotate(0) translate(4 188)">
<title>ee/draw/include/draw2d.h</title>
<!-- Node1 -->
<g id="node1" class="node">
<title>Node1</title>
<g id="a_node1"><a xlink:title=" ">
<polygon fill="#999999" stroke="#666666" points="236,-184 109,-184 109,-165 236,-165 236,-184"/>
<text text-anchor="middle" x="172.5" y="-172" font-family="Helvetica,sans-Serif" font-size="10.00">ee/draw/include/draw2d.h</text>
</a>
</g>
</g>
<!-- Node2 -->
<g id="node2" class="node">
<title>Node2</title>
<g id="a_node2"><a xlink:href="draw_8h.html" target="_top" xlink:title=" ">
<polygon fill="white" stroke="#666666" points="435.5,-129 319.5,-129 319.5,-110 435.5,-110 435.5,-129"/>
<text text-anchor="middle" x="377.5" y="-117" font-family="Helvetica,sans-Serif" font-size="10.00">ee/draw/include/draw.h</text>
</a>
</g>
</g>
<!-- Node1&#45;&gt;Node2 -->
<g id="edge1" class="edge">
<title>Node1&#45;&gt;Node2</title>
<path fill="none" stroke="#63b8ff" d="M217.97,-161.74C255.7,-151.99 308.54,-138.33 342.9,-129.45"/>
<polygon fill="#63b8ff" stroke="#63b8ff" points="217.55,-158.24 208.74,-164.13 219.3,-165.02 217.55,-158.24"/>
</g>
<!-- Node3 -->
<g id="node3" class="node">
<title>Node3</title>
<g id="a_node3"><a xlink:href="draw_2src_2draw_8c_source.html" target="_top" xlink:title=" ">
<polygon fill="white" stroke="#666666" points="99,-74 0,-74 0,-55 99,-55 99,-74"/>
<text text-anchor="middle" x="49.5" y="-62" font-family="Helvetica,sans-Serif" font-size="10.00">ee/draw/src/draw.c</text>
</a>
</g>
</g>
<!-- Node1&#45;&gt;Node3 -->
<g id="edge11" class="edge">
<title>Node1&#45;&gt;Node3</title>
<path fill="none" stroke="#63b8ff" d="M154.1,-157.34C127.83,-134.28 80.46,-92.68 59.7,-74.46"/>
<polygon fill="#63b8ff" stroke="#63b8ff" points="151.47,-159.7 161.3,-163.66 156.09,-154.44 151.47,-159.7"/>
</g>
<!-- Node4 -->
<g id="node4" class="node">
<title>Node4</title>
<g id="a_node4"><a xlink:href="draw2d_8c_source.html" target="_top" xlink:title=" ">
<polygon fill="white" stroke="#666666" points="227.5,-74 117.5,-74 117.5,-55 227.5,-55 227.5,-74"/>
<text text-anchor="middle" x="172.5" y="-62" font-family="Helvetica,sans-Serif" font-size="10.00">ee/draw/src/draw2d.c</text>
</a>
</g>
</g>
<!-- Node1&#45;&gt;Node4 -->
<g id="edge12" class="edge">
<title>Node1&#45;&gt;Node4</title>
<path fill="none" stroke="#63b8ff" d="M172.5,-153.24C172.5,-129.63 172.5,-91.65 172.5,-74.46"/>
<polygon fill="#63b8ff" stroke="#63b8ff" points="169,-153.15 172.5,-163.15 176,-153.15 169,-153.15"/>
</g>
<!-- Node2&#45;&gt;Node3 -->
<g id="edge2" class="edge">
<title>Node2&#45;&gt;Node3</title>
<path fill="none" stroke="#63b8ff" d="M310.53,-107.68C247.94,-97.56 155.9,-82.69 99.49,-73.58"/>
<polygon fill="#63b8ff" stroke="#63b8ff" points="309.93,-111.13 320.37,-109.27 311.05,-104.22 309.93,-111.13"/>
</g>
<!-- Node2&#45;&gt;Node4 -->
<g id="edge3" class="edge">
<title>Node2&#45;&gt;Node4</title>
<path fill="none" stroke="#63b8ff" d="M332.03,-106.74C294.3,-96.99 241.46,-83.33 207.1,-74.45"/>
<polygon fill="#63b8ff" stroke="#63b8ff" points="330.7,-110.02 341.26,-109.13 332.45,-103.24 330.7,-110.02"/>
</g>
<!-- Node5 -->
<g id="node5" class="node">
<title>Node5</title>
<g id="a_node5"><a xlink:href="draw3d_8c_source.html" target="_top" xlink:title=" ">
<polygon fill="white" stroke="#666666" points="733.5,-74 623.5,-74 623.5,-55 733.5,-55 733.5,-74"/>
<text text-anchor="middle" x="678.5" y="-62" font-family="Helvetica,sans-Serif" font-size="10.00">ee/draw/src/draw3d.c</text>
</a>
</g>
</g>
<!-- Node2&#45;&gt;Node5 -->
<g id="edge4" class="edge">
<title>Node2&#45;&gt;Node5</title>
<path fill="none" stroke="#63b8ff" d="M439.67,-107.55C495.2,-97.77 575.58,-83.62 627.44,-74.49"/>
<polygon fill="#63b8ff" stroke="#63b8ff" points="439.29,-104.07 430.05,-109.25 440.51,-110.96 439.29,-104.07"/>
</g>
<!-- Node6 -->
<g id="node6" class="node">
<title>Node6</title>
<g id="a_node6"><a xlink:href="draw__environment_8c_source.html" target="_top" xlink:title=" ">
<polygon fill="white" stroke="#666666" points="403.5,-74 245.5,-74 245.5,-55 403.5,-55 403.5,-74"/>
<text text-anchor="middle" x="324.5" y="-62" font-family="Helvetica,sans-Serif" font-size="10.00">ee/draw/src/draw_environment.c</text>
</a>
</g>
</g>
<!-- Node2&#45;&gt;Node6 -->
<g id="edge5" class="edge">
<title>Node2&#45;&gt;Node6</title>
<path fill="none" stroke="#63b8ff" d="M360.78,-101.78C351.72,-92.72 340.9,-81.9 333.44,-74.44"/>
<polygon fill="#63b8ff" stroke="#63b8ff" points="358.13,-104.08 367.68,-108.68 363.08,-99.13 358.13,-104.08"/>
</g>
<!-- Node7 -->
<g id="node7" class="node">
<title>Node7</title>
<g id="a_node7"><a xlink:href="font_8h.html" target="_top" xlink:title=" ">
<polygon fill="white" stroke="#666666" points="567,-74 460,-74 460,-55 567,-55 567,-74"/>
<text text-anchor="middle" x="513.5" y="-62" font-family="Helvetica,sans-Serif" font-size="10.00">ee/font/include/font.h</text>
</a>
</g>
</g>
<!-- Node2&#45;&gt;Node7 -->
<g id="edge6" class="edge">
<title>Node2&#45;&gt;Node7</title>
<path fill="none" stroke="#63b8ff" d="M410.98,-105.45C435.8,-95.78 468.97,-82.85 490.77,-74.36"/>
<polygon fill="#63b8ff" stroke="#63b8ff" points="410.03,-102.07 401.98,-108.96 412.57,-108.59 410.03,-102.07"/>
</g>
<!-- Node8 -->
<g id="node8" class="node">
<title>Node8</title>
<g id="a_node8"><a xlink:href="fontx_8c_source.html" target="_top" xlink:title=" ">
<polygon fill="white" stroke="#666666" points="503,-19 408,-19 408,0 503,0 503,-19"/>
<text text-anchor="middle" x="455.5" y="-7" font-family="Helvetica,sans-Serif" font-size="10.00">ee/font/src/fontx.c</text>
</a>
</g>
</g>
<!-- Node2&#45;&gt;Node8 -->
<g id="edge9" class="edge">
<title>Node2&#45;&gt;Node8</title>
<path fill="none" stroke="#63b8ff" d="M391.8,-100.91C398.26,-92.82 405.91,-83.03 412.5,-74 426.48,-54.86 441.81,-31.64 449.85,-19.26"/>
<polygon fill="#63b8ff" stroke="#63b8ff" points="389.16,-98.62 385.61,-108.6 394.61,-103.01 389.16,-98.62"/>
</g>
<!-- Node9 -->
<g id="node9" class="node">
<title>Node9</title>
<g id="a_node9"><a xlink:href="fsfont_8c_source.html" target="_top" xlink:title=" ">
<polygon fill="white" stroke="#666666" points="631.5,-19 533.5,-19 533.5,0 631.5,0 631.5,-19"/>
<text text-anchor="middle" x="582.5" y="-7" font-family="Helvetica,sans-Serif" font-size="10.00">ee/font/src/fsfont.c</text>
</a>
</g>
</g>
<!-- Node2&#45;&gt;Node9 -->
<g id="edge10" class="edge">
<title>Node2&#45;&gt;Node9</title>
<path fill="none" stroke="#63b8ff" d="M446.72,-111.65C497.12,-105.13 559.42,-93.38 576.5,-74 589.97,-58.72 587.18,-32.6 584.54,-19.12"/>
<polygon fill="#63b8ff" stroke="#63b8ff" points="446.51,-108.14 437.02,-112.85 447.38,-115.09 446.51,-108.14"/>
</g>
<!-- Node7&#45;&gt;Node8 -->
<g id="edge7" class="edge">
<title>Node7&#45;&gt;Node8</title>
<path fill="none" stroke="#63b8ff" d="M495.24,-46.81C485.28,-37.72 473.36,-26.82 465.19,-19.36"/>
<polygon fill="#63b8ff" stroke="#63b8ff" points="492.8,-49.33 502.54,-53.49 497.52,-44.16 492.8,-49.33"/>
</g>
<!-- Node7&#45;&gt;Node9 -->
<g id="edge8" class="edge">
<title>Node7&#45;&gt;Node9</title>
<path fill="none" stroke="#63b8ff" d="M534.15,-47.64C546.2,-38.39 560.95,-27.05 570.97,-19.36"/>
<polygon fill="#63b8ff" stroke="#63b8ff" points="532.2,-44.72 526.41,-53.59 536.47,-50.27 532.2,-44.72"/>
</g>
</g>
</svg>
