<?xml version="1.0" encoding="UTF-8" standalone="no"?>
<!DOCTYPE svg PUBLIC "-//W3C//DTD SVG 1.1//EN"
 "http://www.w3.org/Graphics/SVG/1.1/DTD/svg11.dtd">
<!-- Generated by graphviz version 7.0.5 (20221223.1930)
 -->
<!-- Title: ee/draw/include/draw3d.h Pages: 1 -->
<svg width="910pt" height="203pt"
 viewBox="0.00 0.00 909.97 203.00" xmlns="http://www.w3.org/2000/svg" xmlns:xlink="http://www.w3.org/1999/xlink">
<g id="graph0" class="graph" transform="scale(1 1) rotate(0) translate(4 199)">
<title>ee/draw/include/draw3d.h</title>
<!-- Node1 -->
<g id="node1" class="node">
<title>Node1</title>
<g id="a_node1"><a xlink:title=" ">
<polygon fill="#999999" stroke="#666666" points="419.47,-195 292.47,-195 292.47,-176 419.47,-176 419.47,-195"/>
<text text-anchor="middle" x="355.97" y="-183" font-family="Helvetica,sans-Serif" font-size="10.00">ee/draw/include/draw3d.h</text>
</a>
</g>
</g>
<!-- Node2 -->
<g id="node2" class="node">
<title>Node2</title>
<g id="a_node2"><a xlink:href="draw_8h.html" target="_top" xlink:title=" ">
<polygon fill="white" stroke="#666666" points="413.97,-134.5 297.97,-134.5 297.97,-115.5 413.97,-115.5 413.97,-134.5"/>
<text text-anchor="middle" x="355.97" y="-122.5" font-family="Helvetica,sans-Serif" font-size="10.00">ee/draw/include/draw.h</text>
</a>
</g>
</g>
<!-- Node1&#45;&gt;Node2 -->
<g id="edge1" class="edge">
<title>Node1&#45;&gt;Node2</title>
<path fill="none" stroke="#63b8ff" d="M355.97,-164.66C355.97,-154.45 355.97,-142.54 355.97,-134.67"/>
<polygon fill="#63b8ff" stroke="#63b8ff" points="352.47,-164.35 355.97,-174.35 359.47,-164.35 352.47,-164.35"/>
</g>
<!-- Node4 -->
<g id="node4" class="node">
<title>Node4</title>
<g id="a_node4"><a xlink:href="draw2d_8c_source.html" target="_top" xlink:title=" ">
<polygon fill="white" stroke="#666666" points="124.97,-74 14.97,-74 14.97,-55 124.97,-55 124.97,-74"/>
<text text-anchor="middle" x="69.97" y="-62" font-family="Helvetica,sans-Serif" font-size="10.00">ee/draw/src/draw2d.c</text>
</a>
</g>
</g>
<!-- Node1&#45;&gt;Node4 -->
<g id="edge11" class="edge">
<title>Node1&#45;&gt;Node4</title>
<path fill="none" stroke="#63b8ff" d="M323.94,-171.17C265.06,-146.67 141.1,-95.1 91.33,-74.39"/>
<polygon fill="#63b8ff" stroke="#63b8ff" points="322.5,-174.36 333.08,-174.97 325.19,-167.9 322.5,-174.36"/>
</g>
<!-- Node8 -->
<g id="node8" class="node">
<title>Node8</title>
<g id="a_node8"><a xlink:href="fontx_8c_source.html" target="_top" xlink:title=" ">
<polygon fill="white" stroke="#666666" points="200.47,-19 105.47,-19 105.47,0 200.47,0 200.47,-19"/>
<text text-anchor="middle" x="152.97" y="-7" font-family="Helvetica,sans-Serif" font-size="10.00">ee/font/src/fontx.c</text>
</a>
</g>
</g>
<!-- Node1&#45;&gt;Node8 -->
<g id="edge12" class="edge">
<title>Node1&#45;&gt;Node8</title>
<path fill="none" stroke="#63b8ff" d="M289.92,-173.52C197.77,-156.65 38.27,-121.29 5.97,-74 -20.68,-34.97 52.89,-19.78 105.32,-13.97"/>
<polygon fill="#63b8ff" stroke="#63b8ff" points="289.13,-176.93 299.59,-175.26 290.37,-170.04 289.13,-176.93"/>
</g>
<!-- Node9 -->
<g id="node9" class="node">
<title>Node9</title>
<g id="a_node9"><a xlink:href="fsfont_8c_source.html" target="_top" xlink:title=" ">
<polygon fill="white" stroke="#666666" points="786.97,-19 688.97,-19 688.97,0 786.97,0 786.97,-19"/>
<text text-anchor="middle" x="737.97" y="-7" font-family="Helvetica,sans-Serif" font-size="10.00">ee/font/src/fsfont.c</text>
</a>
</g>
</g>
<!-- Node1&#45;&gt;Node9 -->
<g id="edge13" class="edge">
<title>Node1&#45;&gt;Node9</title>
<path fill="none" stroke="#63b8ff" d="M430.62,-173.75C531.44,-157.53 702.81,-123.36 739.97,-74 752.05,-57.96 745.94,-32.63 741.4,-19.33"/>
<polygon fill="#63b8ff" stroke="#63b8ff" points="430.12,-170.29 420.79,-175.31 431.21,-177.2 430.12,-170.29"/>
</g>
<!-- Node10 -->
<g id="node10" class="node">
<title>Node10</title>
<g id="a_node10"><a xlink:href="packet2__utils_8h_source.html" target="_top" xlink:title=" ">
<polygon fill="white" stroke="#666666" points="901.97,-140 803.97,-140 803.97,-110 901.97,-110 901.97,-140"/>
<text text-anchor="start" x="811.97" y="-128" font-family="Helvetica,sans-Serif" font-size="10.00">ee/packet2/include</text>
<text text-anchor="middle" x="852.97" y="-117" font-family="Helvetica,sans-Serif" font-size="10.00">/packet2_utils.h</text>
</a>
</g>
</g>
<!-- Node1&#45;&gt;Node10 -->
<g id="edge14" class="edge">
<title>Node1&#45;&gt;Node10</title>
<path fill="none" stroke="#63b8ff" d="M431.21,-179.46C518.04,-173.02 664.93,-160.23 789.97,-140 794.4,-139.28 798.98,-138.45 803.55,-137.55"/>
<polygon fill="#63b8ff" stroke="#63b8ff" points="431.12,-175.96 421.4,-180.18 431.63,-182.94 431.12,-175.96"/>
</g>
<!-- Node3 -->
<g id="node3" class="node">
<title>Node3</title>
<g id="a_node3"><a xlink:href="draw_2src_2draw_8c_source.html" target="_top" xlink:title=" ">
<polygon fill="white" stroke="#666666" points="405.47,-74 306.47,-74 306.47,-55 405.47,-55 405.47,-74"/>
<text text-anchor="middle" x="355.97" y="-62" font-family="Helvetica,sans-Serif" font-size="10.00">ee/draw/src/draw.c</text>
</a>
</g>
</g>
<!-- Node2&#45;&gt;Node3 -->
<g id="edge2" class="edge">
<title>Node2&#45;&gt;Node3</title>
<path fill="none" stroke="#63b8ff" d="M355.97,-104.16C355.97,-93.95 355.97,-82.04 355.97,-74.17"/>
<polygon fill="#63b8ff" stroke="#63b8ff" points="352.47,-103.85 355.97,-113.85 359.47,-103.85 352.47,-103.85"/>
</g>
<!-- Node2&#45;&gt;Node4 -->
<g id="edge3" class="edge">
<title>Node2&#45;&gt;Node4</title>
<path fill="none" stroke="#63b8ff" d="M301.03,-112.76C246.49,-101.61 163.97,-84.73 113.72,-74.45"/>
<polygon fill="#63b8ff" stroke="#63b8ff" points="300.24,-116.17 310.74,-114.75 301.64,-109.32 300.24,-116.17"/>
</g>
<!-- Node5 -->
<g id="node5" class="node">
<title>Node5</title>
<g id="a_node5"><a xlink:href="draw3d_8c_source.html" target="_top" xlink:title=" ">
<polygon fill="white" stroke="#666666" points="533.97,-74 423.97,-74 423.97,-55 533.97,-55 533.97,-74"/>
<text text-anchor="middle" x="478.97" y="-62" font-family="Helvetica,sans-Serif" font-size="10.00">ee/draw/src/draw3d.c</text>
</a>
</g>
</g>
<!-- Node2&#45;&gt;Node5 -->
<g id="edge4" class="edge">
<title>Node2&#45;&gt;Node5</title>
<path fill="none" stroke="#63b8ff" d="M384.95,-110.22C408.18,-99.17 440.09,-83.99 460.11,-74.47"/>
<polygon fill="#63b8ff" stroke="#63b8ff" points="383.55,-107.01 376.02,-114.47 386.55,-113.33 383.55,-107.01"/>
</g>
<!-- Node6 -->
<g id="node6" class="node">
<title>Node6</title>
<g id="a_node6"><a xlink:href="draw__environment_8c_source.html" target="_top" xlink:title=" ">
<polygon fill="white" stroke="#666666" points="709.97,-74 551.97,-74 551.97,-55 709.97,-55 709.97,-74"/>
<text text-anchor="middle" x="630.97" y="-62" font-family="Helvetica,sans-Serif" font-size="10.00">ee/draw/src/draw_environment.c</text>
</a>
</g>
</g>
<!-- Node2&#45;&gt;Node6 -->
<g id="edge5" class="edge">
<title>Node2&#45;&gt;Node6</title>
<path fill="none" stroke="#63b8ff" d="M409.13,-112.69C461.57,-101.54 540.69,-84.7 588.91,-74.45"/>
<polygon fill="#63b8ff" stroke="#63b8ff" points="408.57,-109.23 399.52,-114.74 410.03,-116.08 408.57,-109.23"/>
</g>
<!-- Node7 -->
<g id="node7" class="node">
<title>Node7</title>
<g id="a_node7"><a xlink:href="font_8h.html" target="_top" xlink:title=" ">
<polygon fill="white" stroke="#666666" points="288.47,-74 181.47,-74 181.47,-55 288.47,-55 288.47,-74"/>
<text text-anchor="middle" x="234.97" y="-62" font-family="Helvetica,sans-Serif" font-size="10.00">ee/font/include/font.h</text>
</a>
</g>
</g>
<!-- Node2&#45;&gt;Node7 -->
<g id="edge6" class="edge">
<title>Node2&#45;&gt;Node7</title>
<path fill="none" stroke="#63b8ff" d="M327.46,-110.22C304.62,-99.17 273.22,-83.99 253.52,-74.47"/>
<polygon fill="#63b8ff" stroke="#63b8ff" points="325.71,-113.25 336.23,-114.46 328.75,-106.95 325.71,-113.25"/>
</g>
<!-- Node2&#45;&gt;Node8 -->
<g id="edge9" class="edge">
<title>Node2&#45;&gt;Node8</title>
<path fill="none" stroke="#63b8ff" d="M286.62,-121.17C248.22,-116.05 202.28,-103.55 171.97,-74 156.81,-59.22 153.63,-32.88 153.04,-19.24"/>
<polygon fill="#63b8ff" stroke="#63b8ff" points="285.9,-124.61 296.24,-122.3 286.72,-117.66 285.9,-124.61"/>
</g>
<!-- Node2&#45;&gt;Node9 -->
<g id="edge10" class="edge">
<title>Node2&#45;&gt;Node9</title>
<path fill="none" stroke="#63b8ff" d="M425.57,-123.14C518.43,-120.55 676.13,-110.71 718.97,-74 735.05,-60.22 737.83,-33.45 738.12,-19.47"/>
<polygon fill="#63b8ff" stroke="#63b8ff" points="425.73,-119.63 415.82,-123.38 425.9,-126.63 425.73,-119.63"/>
</g>
<!-- Node7&#45;&gt;Node8 -->
<g id="edge7" class="edge">
<title>Node7&#45;&gt;Node8</title>
<path fill="none" stroke="#63b8ff" d="M211.7,-48.46C197.16,-39.06 178.94,-27.28 166.68,-19.36"/>
<polygon fill="#63b8ff" stroke="#63b8ff" points="209.49,-51.2 219.79,-53.69 213.29,-45.32 209.49,-51.2"/>
</g>
<!-- Node7&#45;&gt;Node9 -->
<g id="edge8" class="edge">
<title>Node7&#45;&gt;Node9</title>
<path fill="none" stroke="#63b8ff" d="M299.76,-54.7C447.07,-37.35 609.04,-22.12 688.64,-14.9"/>
<polygon fill="#63b8ff" stroke="#63b8ff" points="299.75,-51.18 290.23,-55.83 300.57,-58.13 299.75,-51.18"/>
</g>
</g>
</svg>
