<?xml version="1.0" encoding="UTF-8" standalone="no"?>
<!DOCTYPE svg PUBLIC "-//W3C//DTD SVG 1.1//EN"
 "http://www.w3.org/Graphics/SVG/1.1/DTD/svg11.dtd">
<!-- Generated by graphviz version 7.0.5 (20221223.1930)
 -->
<!-- Title: ee/draw/include/draw_dithering.h Pages: 1 -->
<svg width="768pt" height="203pt"
 viewBox="0.00 0.00 767.50 203.00" xmlns="http://www.w3.org/2000/svg" xmlns:xlink="http://www.w3.org/1999/xlink">
<g id="graph0" class="graph" transform="scale(1 1) rotate(0) translate(4 199)">
<title>ee/draw/include/draw_dithering.h</title>
<!-- Node1 -->
<g id="node1" class="node">
<title>Node1</title>
<g id="a_node1"><a xlink:title=" ">
<polygon fill="#999999" stroke="#666666" points="507,-195 398,-195 398,-165 507,-165 507,-195"/>
<text text-anchor="start" x="406" y="-183" font-family="Helvetica,sans-Serif" font-size="10.00">ee/draw/include/draw</text>
<text text-anchor="middle" x="452.5" y="-172" font-family="Helvetica,sans-Serif" font-size="10.00">_dithering.h</text>
</a>
</g>
</g>
<!-- Node2 -->
<g id="node2" class="node">
<title>Node2</title>
<g id="a_node2"><a xlink:href="draw_8h.html" target="_top" xlink:title=" ">
<polygon fill="white" stroke="#666666" points="510.5,-129 394.5,-129 394.5,-110 510.5,-110 510.5,-129"/>
<text text-anchor="middle" x="452.5" y="-117" font-family="Helvetica,sans-Serif" font-size="10.00">ee/draw/include/draw.h</text>
</a>
</g>
</g>
<!-- Node1&#45;&gt;Node2 -->
<g id="edge1" class="edge">
<title>Node1&#45;&gt;Node2</title>
<path fill="none" stroke="#63b8ff" d="M452.5,-153.3C452.5,-144.65 452.5,-135.58 452.5,-129.18"/>
<polygon fill="#63b8ff" stroke="#63b8ff" points="449,-153.03 452.5,-163.03 456,-153.03 449,-153.03"/>
</g>
<!-- Node3 -->
<g id="node3" class="node">
<title>Node3</title>
<g id="a_node3"><a xlink:href="draw_2src_2draw_8c_source.html" target="_top" xlink:title=" ">
<polygon fill="white" stroke="#666666" points="99,-74 0,-74 0,-55 99,-55 99,-74"/>
<text text-anchor="middle" x="49.5" y="-62" font-family="Helvetica,sans-Serif" font-size="10.00">ee/draw/src/draw.c</text>
</a>
</g>
</g>
<!-- Node2&#45;&gt;Node3 -->
<g id="edge2" class="edge">
<title>Node2&#45;&gt;Node3</title>
<path fill="none" stroke="#63b8ff" d="M382.81,-109.78C313.29,-101.02 203.45,-86.98 108.5,-74 105.53,-73.59 102.47,-73.17 99.39,-72.74"/>
<polygon fill="#63b8ff" stroke="#63b8ff" points="382.17,-113.23 392.53,-111.01 383.05,-106.29 382.17,-113.23"/>
</g>
<!-- Node4 -->
<g id="node4" class="node">
<title>Node4</title>
<g id="a_node4"><a xlink:href="draw2d_8c_source.html" target="_top" xlink:title=" ">
<polygon fill="white" stroke="#666666" points="227.5,-74 117.5,-74 117.5,-55 227.5,-55 227.5,-74"/>
<text text-anchor="middle" x="172.5" y="-62" font-family="Helvetica,sans-Serif" font-size="10.00">ee/draw/src/draw2d.c</text>
</a>
</g>
</g>
<!-- Node2&#45;&gt;Node4 -->
<g id="edge3" class="edge">
<title>Node2&#45;&gt;Node4</title>
<path fill="none" stroke="#63b8ff" d="M394,-107.43C342.28,-97.64 267.79,-83.54 219.76,-74.45"/>
<polygon fill="#63b8ff" stroke="#63b8ff" points="393.04,-110.81 403.51,-109.23 394.34,-103.93 393.04,-110.81"/>
</g>
<!-- Node5 -->
<g id="node5" class="node">
<title>Node5</title>
<g id="a_node5"><a xlink:href="draw3d_8c_source.html" target="_top" xlink:title=" ">
<polygon fill="white" stroke="#666666" points="355.5,-74 245.5,-74 245.5,-55 355.5,-55 355.5,-74"/>
<text text-anchor="middle" x="300.5" y="-62" font-family="Helvetica,sans-Serif" font-size="10.00">ee/draw/src/draw3d.c</text>
</a>
</g>
</g>
<!-- Node2&#45;&gt;Node5 -->
<g id="edge4" class="edge">
<title>Node2&#45;&gt;Node5</title>
<path fill="none" stroke="#63b8ff" d="M415.86,-105.73C388.14,-96.06 350.75,-83.02 326.16,-74.45"/>
<polygon fill="#63b8ff" stroke="#63b8ff" points="414.69,-109.02 425.29,-109.01 417,-102.41 414.69,-109.02"/>
</g>
<!-- Node6 -->
<g id="node6" class="node">
<title>Node6</title>
<g id="a_node6"><a xlink:href="draw__environment_8c_source.html" target="_top" xlink:title=" ">
<polygon fill="white" stroke="#666666" points="531.5,-74 373.5,-74 373.5,-55 531.5,-55 531.5,-74"/>
<text text-anchor="middle" x="452.5" y="-62" font-family="Helvetica,sans-Serif" font-size="10.00">ee/draw/src/draw_environment.c</text>
</a>
</g>
</g>
<!-- Node2&#45;&gt;Node6 -->
<g id="edge5" class="edge">
<title>Node2&#45;&gt;Node6</title>
<path fill="none" stroke="#63b8ff" d="M452.5,-98.35C452.5,-90.1 452.5,-80.97 452.5,-74.44"/>
<polygon fill="#63b8ff" stroke="#63b8ff" points="449,-98.23 452.5,-108.23 456,-98.23 449,-98.23"/>
</g>
<!-- Node7 -->
<g id="node7" class="node">
<title>Node7</title>
<g id="a_node7"><a xlink:href="font_8h.html" target="_top" xlink:title=" ">
<polygon fill="white" stroke="#666666" points="695,-74 588,-74 588,-55 695,-55 695,-74"/>
<text text-anchor="middle" x="641.5" y="-62" font-family="Helvetica,sans-Serif" font-size="10.00">ee/font/include/font.h</text>
</a>
</g>
</g>
<!-- Node2&#45;&gt;Node7 -->
<g id="edge6" class="edge">
<title>Node2&#45;&gt;Node7</title>
<path fill="none" stroke="#63b8ff" d="M495.32,-106.49C530.04,-96.76 578.2,-83.25 609.6,-74.45"/>
<polygon fill="#63b8ff" stroke="#63b8ff" points="494.7,-103.03 486.02,-109.1 496.59,-109.77 494.7,-103.03"/>
</g>
<!-- Node8 -->
<g id="node8" class="node">
<title>Node8</title>
<g id="a_node8"><a xlink:href="fontx_8c_source.html" target="_top" xlink:title=" ">
<polygon fill="white" stroke="#666666" points="631,-19 536,-19 536,0 631,0 631,-19"/>
<text text-anchor="middle" x="583.5" y="-7" font-family="Helvetica,sans-Serif" font-size="10.00">ee/font/src/fontx.c</text>
</a>
</g>
</g>
<!-- Node2&#45;&gt;Node8 -->
<g id="edge9" class="edge">
<title>Node2&#45;&gt;Node8</title>
<path fill="none" stroke="#63b8ff" d="M488.24,-105.36C505.31,-97.92 525.28,-87.4 540.5,-74 558.69,-57.99 572.75,-32.65 579.36,-19.34"/>
<polygon fill="#63b8ff" stroke="#63b8ff" points="487.35,-101.95 479.46,-109.02 490.04,-108.41 487.35,-101.95"/>
</g>
<!-- Node9 -->
<g id="node9" class="node">
<title>Node9</title>
<g id="a_node9"><a xlink:href="fsfont_8c_source.html" target="_top" xlink:title=" ">
<polygon fill="white" stroke="#666666" points="759.5,-19 661.5,-19 661.5,0 759.5,0 759.5,-19"/>
<text text-anchor="middle" x="710.5" y="-7" font-family="Helvetica,sans-Serif" font-size="10.00">ee/font/src/fsfont.c</text>
</a>
</g>
</g>
<!-- Node2&#45;&gt;Node9 -->
<g id="edge10" class="edge">
<title>Node2&#45;&gt;Node9</title>
<path fill="none" stroke="#63b8ff" d="M522.07,-115.44C588,-110.97 680.4,-100.12 704.5,-74 718.32,-59.02 715.37,-32.77 712.62,-19.19"/>
<polygon fill="#63b8ff" stroke="#63b8ff" points="522.19,-111.93 512.43,-116.06 522.63,-118.91 522.19,-111.93"/>
</g>
<!-- Node7&#45;&gt;Node8 -->
<g id="edge7" class="edge">
<title>Node7&#45;&gt;Node8</title>
<path fill="none" stroke="#63b8ff" d="M623.24,-46.81C613.28,-37.72 601.36,-26.82 593.19,-19.36"/>
<polygon fill="#63b8ff" stroke="#63b8ff" points="620.8,-49.33 630.54,-53.49 625.52,-44.16 620.8,-49.33"/>
</g>
<!-- Node7&#45;&gt;Node9 -->
<g id="edge8" class="edge">
<title>Node7&#45;&gt;Node9</title>
<path fill="none" stroke="#63b8ff" d="M662.15,-47.64C674.2,-38.39 688.95,-27.05 698.97,-19.36"/>
<polygon fill="#63b8ff" stroke="#63b8ff" points="660.2,-44.72 654.41,-53.59 664.47,-50.27 660.2,-44.72"/>
</g>
</g>
</svg>
