<?xml version="1.0" encoding="UTF-8" standalone="no"?>
<!DOCTYPE svg PUBLIC "-//W3C//DTD SVG 1.1//EN"
 "http://www.w3.org/Graphics/SVG/1.1/DTD/svg11.dtd">
<!-- Generated by graphviz version 7.0.5 (20221223.1930)
 -->
<!-- Title: iop/usb/usbd/src/driver.c Pages: 1 -->
<svg width="528pt" height="357pt"
 viewBox="0.00 0.00 527.50 357.00" xmlns="http://www.w3.org/2000/svg" xmlns:xlink="http://www.w3.org/1999/xlink">
<g id="graph0" class="graph" transform="scale(1 1) rotate(0) translate(4 353)">
<title>iop/usb/usbd/src/driver.c</title>
<!-- Node1 -->
<g id="node1" class="node">
<title>Node1</title>
<g id="a_node1"><a xlink:title=" ">
<polygon fill="#999999" stroke="#666666" points="316.5,-349 193.5,-349 193.5,-330 316.5,-330 316.5,-349"/>
<text text-anchor="middle" x="255" y="-337" font-family="Helvetica,sans-Serif" font-size="10.00">iop/usb/usbd/src/driver.c</text>
</a>
</g>
</g>
<!-- Node2 -->
<g id="node2" class="node">
<title>Node2</title>
<g id="a_node2"><a xlink:href="usbdpriv_8h.html" target="_top" xlink:title=" ">
<polygon fill="white" stroke="#666666" points="118.5,-239 57.5,-239 57.5,-220 118.5,-220 118.5,-239"/>
<text text-anchor="middle" x="88" y="-227" font-family="Helvetica,sans-Serif" font-size="10.00">usbdpriv.h</text>
</a>
</g>
</g>
<!-- Node1&#45;&gt;Node2 -->
<g id="edge1" class="edge">
<title>Node1&#45;&gt;Node2</title>
<path fill="none" stroke="#63b8ff" d="M226.13,-329.53C204.37,-321.99 174.39,-309.89 151,-294 132.01,-281.09 113.93,-261.91 102.06,-248.01"/>
<polygon fill="#63b8ff" stroke="#63b8ff" points="104.93,-245.99 95.86,-240.53 99.55,-250.46 104.93,-245.99"/>
</g>
<!-- Node9 -->
<g id="node9" class="node">
<title>Node9</title>
<g id="a_node9"><a xlink:href="driver_8h.html" target="_top" xlink:title=" ">
<polygon fill="white" stroke="#666666" points="208,-294 160,-294 160,-275 208,-275 208,-294"/>
<text text-anchor="middle" x="184" y="-282" font-family="Helvetica,sans-Serif" font-size="10.00">driver.h</text>
</a>
</g>
</g>
<!-- Node1&#45;&gt;Node9 -->
<g id="edge9" class="edge">
<title>Node1&#45;&gt;Node9</title>
<path fill="none" stroke="#63b8ff" d="M242.96,-329.51C232.59,-321.77 217.4,-310.43 205.03,-301.2"/>
<polygon fill="#63b8ff" stroke="#63b8ff" points="207.19,-298.44 197.08,-295.26 203,-304.05 207.19,-298.44"/>
</g>
<!-- Node10 -->
<g id="node10" class="node">
<title>Node10</title>
<g id="a_node10"><a xlink:href="mem_8h.html" target="_top" xlink:title=" ">
<polygon fill="white" stroke="#666666" points="46,-294 0,-294 0,-275 46,-275 46,-294"/>
<text text-anchor="middle" x="23" y="-282" font-family="Helvetica,sans-Serif" font-size="10.00">mem.h</text>
</a>
</g>
</g>
<!-- Node1&#45;&gt;Node10 -->
<g id="edge11" class="edge">
<title>Node1&#45;&gt;Node10</title>
<path fill="none" stroke="#63b8ff" d="M212.36,-329.54C174.16,-321.39 116.35,-308.78 57.41,-294.51"/>
<polygon fill="#63b8ff" stroke="#63b8ff" points="58.41,-291.15 47.86,-292.19 56.75,-297.96 58.41,-291.15"/>
</g>
<!-- Node11 -->
<g id="node11" class="node">
<title>Node11</title>
<g id="a_node11"><a xlink:href="hub_8h.html" target="_top" xlink:title=" ">
<polygon fill="white" stroke="#666666" points="104,-294 64,-294 64,-275 104,-275 104,-294"/>
<text text-anchor="middle" x="84" y="-282" font-family="Helvetica,sans-Serif" font-size="10.00">hub.h</text>
</a>
</g>
</g>
<!-- Node1&#45;&gt;Node11 -->
<g id="edge13" class="edge">
<title>Node1&#45;&gt;Node11</title>
<path fill="none" stroke="#63b8ff" d="M225.99,-329.51C195.1,-319.93 146.4,-304.84 114.83,-295.06"/>
<polygon fill="#63b8ff" stroke="#63b8ff" points="116.07,-291.78 105.49,-292.16 114,-298.46 116.07,-291.78"/>
</g>
<!-- Node12 -->
<g id="node12" class="node">
<title>Node12</title>
<g id="a_node12"><a xlink:href="defs_8h.html" target="_top" xlink:title=" ">
<polygon fill="white" stroke="#666666" points="519.5,-239 476.5,-239 476.5,-220 519.5,-220 519.5,-239"/>
<text text-anchor="middle" x="498" y="-227" font-family="Helvetica,sans-Serif" font-size="10.00">defs.h</text>
</a>
</g>
</g>
<!-- Node1&#45;&gt;Node12 -->
<g id="edge15" class="edge">
<title>Node1&#45;&gt;Node12</title>
<path fill="none" stroke="#63b8ff" d="M316.96,-334.3C356.37,-329.25 407.12,-318.2 446,-294 463.74,-282.96 478.21,-263.73 487.35,-249.32"/>
<polygon fill="#63b8ff" stroke="#63b8ff" points="490.34,-251.13 492.48,-240.75 484.34,-247.54 490.34,-251.13"/>
</g>
<!-- Node13 -->
<g id="node13" class="node">
<title>Node13</title>
<g id="a_node13"><a xlink:href="stdio_8h.html" target="_top" xlink:title=" ">
<polygon fill="white" stroke="#666666" points="264.5,-184 219.5,-184 219.5,-165 264.5,-165 264.5,-184"/>
<text text-anchor="middle" x="242" y="-172" font-family="Helvetica,sans-Serif" font-size="10.00">stdio.h</text>
</a>
</g>
</g>
<!-- Node1&#45;&gt;Node13 -->
<g id="edge17" class="edge">
<title>Node1&#45;&gt;Node13</title>
<path fill="none" stroke="#63b8ff" d="M255.04,-329.55C255.02,-309.74 254.5,-260.73 250,-220 249.11,-211.91 247.62,-203.06 246.17,-195.41"/>
<polygon fill="#63b8ff" stroke="#63b8ff" points="249.65,-194.91 244.25,-185.8 242.78,-196.29 249.65,-194.91"/>
</g>
<!-- Node15 -->
<g id="node15" class="node">
<title>Node15</title>
<g id="a_node15"><a xlink:href="sysclib_8h.html" target="_top" xlink:title=" ">
<polygon fill="white" stroke="#666666" points="201,-184 147,-184 147,-165 201,-165 201,-184"/>
<text text-anchor="middle" x="174" y="-172" font-family="Helvetica,sans-Serif" font-size="10.00">sysclib.h</text>
</a>
</g>
</g>
<!-- Node1&#45;&gt;Node15 -->
<g id="edge20" class="edge">
<title>Node1&#45;&gt;Node15</title>
<path fill="none" stroke="#63b8ff" d="M250.65,-329.74C237.95,-304.2 200.8,-229.43 183.31,-194.23"/>
<polygon fill="#63b8ff" stroke="#63b8ff" points="186.63,-193.06 179.05,-185.66 180.37,-196.18 186.63,-193.06"/>
</g>
<!-- Node18 -->
<g id="node18" class="node">
<title>Node18</title>
<g id="a_node18"><a xlink:href="thbase_8h.html" target="_top" xlink:title=" ">
<polygon fill="white" stroke="#666666" points="484.5,-184 431.5,-184 431.5,-165 484.5,-165 484.5,-184"/>
<text text-anchor="middle" x="458" y="-172" font-family="Helvetica,sans-Serif" font-size="10.00">thbase.h</text>
</a>
</g>
</g>
<!-- Node1&#45;&gt;Node18 -->
<g id="edge27" class="edge">
<title>Node1&#45;&gt;Node18</title>
<path fill="none" stroke="#63b8ff" d="M266.41,-329.7C277.95,-320.77 296.28,-306.51 312,-294 357.47,-257.81 410.3,-214.65 438.26,-191.72"/>
<polygon fill="#63b8ff" stroke="#63b8ff" points="440.39,-194.5 445.9,-185.45 435.95,-189.09 440.39,-194.5"/>
</g>
<!-- Node19 -->
<g id="node19" class="node">
<title>Node19</title>
<g id="a_node19"><a xlink:href="thevent_8h.html" target="_top" xlink:title=" ">
<polygon fill="white" stroke="#666666" points="339,-184 283,-184 283,-165 339,-165 339,-184"/>
<text text-anchor="middle" x="311" y="-172" font-family="Helvetica,sans-Serif" font-size="10.00">thevent.h</text>
</a>
</g>
</g>
<!-- Node1&#45;&gt;Node19 -->
<g id="edge30" class="edge">
<title>Node1&#45;&gt;Node19</title>
<path fill="none" stroke="#63b8ff" d="M258.01,-329.74C266.71,-304.42 292.03,-230.72 304.25,-195.16"/>
<polygon fill="#63b8ff" stroke="#63b8ff" points="307.54,-196.33 307.48,-185.74 300.92,-194.06 307.54,-196.33"/>
</g>
<!-- Node20 -->
<g id="node20" class="node">
<title>Node20</title>
<g id="a_node20"><a xlink:href="intrman_8h.html" target="_top" xlink:title=" ">
<polygon fill="white" stroke="#666666" points="413,-184 357,-184 357,-165 413,-165 413,-184"/>
<text text-anchor="middle" x="385" y="-172" font-family="Helvetica,sans-Serif" font-size="10.00">intrman.h</text>
</a>
</g>
</g>
<!-- Node1&#45;&gt;Node20 -->
<g id="edge33" class="edge">
<title>Node1&#45;&gt;Node20</title>
<path fill="none" stroke="#63b8ff" d="M261.99,-329.74C282.62,-303.87 343.54,-227.48 371.14,-192.88"/>
<polygon fill="#63b8ff" stroke="#63b8ff" points="373.53,-195.49 377.03,-185.49 368.06,-191.13 373.53,-195.49"/>
</g>
<!-- Node3 -->
<g id="node3" class="node">
<title>Node3</title>
<g id="a_node3"><a xlink:href="usbd_8h.html" target="_top" xlink:title=" ">
<polygon fill="white" stroke="#666666" points="111.5,-184 66.5,-184 66.5,-165 111.5,-165 111.5,-184"/>
<text text-anchor="middle" x="89" y="-172" font-family="Helvetica,sans-Serif" font-size="10.00">usbd.h</text>
</a>
</g>
</g>
<!-- Node2&#45;&gt;Node3 -->
<g id="edge2" class="edge">
<title>Node2&#45;&gt;Node3</title>
<path fill="none" stroke="#63b8ff" d="M88.17,-219.75C88.29,-213.27 88.46,-204.16 88.62,-195.9"/>
<polygon fill="#63b8ff" stroke="#63b8ff" points="92.11,-196.02 88.8,-185.96 85.11,-195.89 92.11,-196.02"/>
</g>
<!-- Node4 -->
<g id="node4" class="node">
<title>Node4</title>
<g id="a_node4"><a xlink:title=" ">
<polygon fill="#e0e0e0" stroke="#999999" points="61.5,-129 14.5,-129 14.5,-110 61.5,-110 61.5,-129"/>
<text text-anchor="middle" x="38" y="-117" font-family="Helvetica,sans-Serif" font-size="10.00">types.h</text>
</a>
</g>
</g>
<!-- Node2&#45;&gt;Node4 -->
<g id="edge8" class="edge">
<title>Node2&#45;&gt;Node4</title>
<path fill="none" stroke="#63b8ff" d="M80.69,-219.82C73.76,-211.21 63.47,-197.4 57,-184 50.25,-170.02 45.34,-153.14 42.2,-140.3"/>
<polygon fill="#63b8ff" stroke="#63b8ff" points="45.7,-139.91 40.07,-130.93 38.88,-141.46 45.7,-139.91"/>
</g>
<!-- Node3&#45;&gt;Node4 -->
<g id="edge3" class="edge">
<title>Node3&#45;&gt;Node4</title>
<path fill="none" stroke="#63b8ff" d="M80.58,-164.75C73.53,-157.43 63.27,-146.76 54.59,-137.74"/>
<polygon fill="#63b8ff" stroke="#63b8ff" points="57.11,-135.31 47.65,-130.53 52.07,-140.17 57.11,-135.31"/>
</g>
<!-- Node5 -->
<g id="node5" class="node">
<title>Node5</title>
<g id="a_node5"><a xlink:href="irx_8h.html" target="_top" xlink:title=" ">
<polygon fill="white" stroke="#666666" points="326,-129 292,-129 292,-110 326,-110 326,-129"/>
<text text-anchor="middle" x="309" y="-117" font-family="Helvetica,sans-Serif" font-size="10.00">irx.h</text>
</a>
</g>
</g>
<!-- Node3&#45;&gt;Node5 -->
<g id="edge4" class="edge">
<title>Node3&#45;&gt;Node5</title>
<path fill="none" stroke="#63b8ff" d="M111.87,-168.96C146.4,-161.94 214.09,-147.62 280.63,-129.46"/>
<polygon fill="#63b8ff" stroke="#63b8ff" points="281.56,-132.83 290.27,-126.79 279.69,-126.08 281.56,-132.83"/>
</g>
<!-- Node6 -->
<g id="node6" class="node">
<title>Node6</title>
<g id="a_node6"><a xlink:href="iop_2kernel_2include_2types_8h_source.html" target="_top" xlink:title=" ">
<polygon fill="white" stroke="#666666" points="377.5,-74 330.5,-74 330.5,-55 377.5,-55 377.5,-74"/>
<text text-anchor="middle" x="354" y="-62" font-family="Helvetica,sans-Serif" font-size="10.00">types.h</text>
</a>
</g>
</g>
<!-- Node5&#45;&gt;Node6 -->
<g id="edge5" class="edge">
<title>Node5&#45;&gt;Node6</title>
<path fill="none" stroke="#63b8ff" d="M316.43,-109.75C322.58,-102.5 331.51,-91.98 339.13,-83.02"/>
<polygon fill="#63b8ff" stroke="#63b8ff" points="341.62,-85.48 345.43,-75.6 336.29,-80.95 341.62,-85.48"/>
</g>
<!-- Node7 -->
<g id="node7" class="node">
<title>Node7</title>
<g id="a_node7"><a xlink:title=" ">
<polygon fill="#e0e0e0" stroke="#999999" points="379.5,-19 328.5,-19 328.5,0 379.5,0 379.5,-19"/>
<text text-anchor="middle" x="354" y="-7" font-family="Helvetica,sans-Serif" font-size="10.00">stddef.h</text>
</a>
</g>
</g>
<!-- Node6&#45;&gt;Node7 -->
<g id="edge6" class="edge">
<title>Node6&#45;&gt;Node7</title>
<path fill="none" stroke="#63b8ff" d="M354,-54.75C354,-48.27 354,-39.16 354,-30.9"/>
<polygon fill="#63b8ff" stroke="#63b8ff" points="357.5,-30.96 354,-20.96 350.5,-30.96 357.5,-30.96"/>
</g>
<!-- Node8 -->
<g id="node8" class="node">
<title>Node8</title>
<g id="a_node8"><a xlink:href="tamtypes_8h.html" target="_top" xlink:title=" ">
<polygon fill="white" stroke="#666666" points="263,-19 199,-19 199,0 263,0 263,-19"/>
<text text-anchor="middle" x="231" y="-7" font-family="Helvetica,sans-Serif" font-size="10.00">tamtypes.h</text>
</a>
</g>
</g>
<!-- Node6&#45;&gt;Node8 -->
<g id="edge7" class="edge">
<title>Node6&#45;&gt;Node8</title>
<path fill="none" stroke="#63b8ff" d="M333.13,-54.51C313.58,-46.08 284.1,-33.38 261.83,-23.79"/>
<polygon fill="#63b8ff" stroke="#63b8ff" points="263.52,-20.7 252.95,-19.96 260.75,-27.13 263.52,-20.7"/>
</g>
<!-- Node9&#45;&gt;Node2 -->
<g id="edge10" class="edge">
<title>Node9&#45;&gt;Node2</title>
<path fill="none" stroke="#63b8ff" d="M167.71,-274.51C153.01,-266.39 131.11,-254.3 113.98,-244.85"/>
<polygon fill="#63b8ff" stroke="#63b8ff" points="115.82,-241.86 105.37,-240.09 112.43,-247.99 115.82,-241.86"/>
</g>
<!-- Node10&#45;&gt;Node2 -->
<g id="edge12" class="edge">
<title>Node10&#45;&gt;Node2</title>
<path fill="none" stroke="#63b8ff" d="M34.03,-274.51C43.42,-266.85 57.15,-255.66 68.41,-246.47"/>
<polygon fill="#63b8ff" stroke="#63b8ff" points="70.43,-249.35 75.96,-240.31 66,-243.92 70.43,-249.35"/>
</g>
<!-- Node11&#45;&gt;Node2 -->
<g id="edge14" class="edge">
<title>Node11&#45;&gt;Node2</title>
<path fill="none" stroke="#63b8ff" d="M84.66,-274.75C85.15,-268.27 85.84,-259.16 86.46,-250.9"/>
<polygon fill="#63b8ff" stroke="#63b8ff" points="89.95,-251.19 87.21,-240.95 82.97,-250.66 89.95,-251.19"/>
</g>
<!-- Node12&#45;&gt;Node6 -->
<g id="edge16" class="edge">
<title>Node12&#45;&gt;Node6</title>
<path fill="none" stroke="#63b8ff" d="M499.66,-219.65C501.61,-206.77 503.48,-182.47 494,-165 471.09,-122.79 421.59,-94.31 388.03,-78.99"/>
<polygon fill="#63b8ff" stroke="#63b8ff" points="389.69,-75.9 379.13,-75.08 386.88,-82.31 389.69,-75.9"/>
</g>
<!-- Node13&#45;&gt;Node5 -->
<g id="edge19" class="edge">
<title>Node13&#45;&gt;Node5</title>
<path fill="none" stroke="#63b8ff" d="M253.37,-164.51C263.05,-156.85 277.2,-145.66 288.81,-136.47"/>
<polygon fill="#63b8ff" stroke="#63b8ff" points="290.94,-139.25 296.62,-130.3 286.6,-133.76 290.94,-139.25"/>
</g>
<!-- Node14 -->
<g id="node14" class="node">
<title>Node14</title>
<g id="a_node14"><a xlink:title=" ">
<polygon fill="#e0e0e0" stroke="#999999" points="273.5,-129 222.5,-129 222.5,-110 273.5,-110 273.5,-129"/>
<text text-anchor="middle" x="248" y="-117" font-family="Helvetica,sans-Serif" font-size="10.00">stdarg.h</text>
</a>
</g>
</g>
<!-- Node13&#45;&gt;Node14 -->
<g id="edge18" class="edge">
<title>Node13&#45;&gt;Node14</title>
<path fill="none" stroke="#63b8ff" d="M242.99,-164.75C243.73,-158.19 244.78,-148.95 245.72,-140.6"/>
<polygon fill="#63b8ff" stroke="#63b8ff" points="249.17,-141.28 246.82,-130.95 242.21,-140.49 249.17,-141.28"/>
</g>
<!-- Node15&#45;&gt;Node5 -->
<g id="edge22" class="edge">
<title>Node15&#45;&gt;Node5</title>
<path fill="none" stroke="#63b8ff" d="M196.9,-164.51C220.12,-155.39 256.1,-141.27 281,-131.49"/>
<polygon fill="#63b8ff" stroke="#63b8ff" points="282.14,-134.8 290.17,-127.89 279.58,-128.29 282.14,-134.8"/>
</g>
<!-- Node15&#45;&gt;Node6 -->
<g id="edge21" class="edge">
<title>Node15&#45;&gt;Node6</title>
<path fill="none" stroke="#63b8ff" d="M177.07,-164.73C182.3,-151.04 194.24,-124.65 213,-110 244.04,-85.77 288.51,-74.6 319.17,-69.54"/>
<polygon fill="#63b8ff" stroke="#63b8ff" points="319.32,-73.05 328.69,-68.11 318.28,-66.13 319.32,-73.05"/>
</g>
<!-- Node15&#45;&gt;Node14 -->
<g id="edge23" class="edge">
<title>Node15&#45;&gt;Node14</title>
<path fill="none" stroke="#63b8ff" d="M186.55,-164.51C197.46,-156.7 213.5,-145.21 226.46,-135.93"/>
<polygon fill="#63b8ff" stroke="#63b8ff" points="228.31,-138.91 234.4,-130.24 224.23,-133.22 228.31,-138.91"/>
</g>
<!-- Node16 -->
<g id="node16" class="node">
<title>Node16</title>
<g id="a_node16"><a xlink:href="setjmp_8h.html" target="_top" xlink:title=" ">
<polygon fill="white" stroke="#666666" points="163.5,-74 110.5,-74 110.5,-55 163.5,-55 163.5,-74"/>
<text text-anchor="middle" x="137" y="-62" font-family="Helvetica,sans-Serif" font-size="10.00">setjmp.h</text>
</a>
</g>
</g>
<!-- Node15&#45;&gt;Node16 -->
<g id="edge24" class="edge">
<title>Node15&#45;&gt;Node16</title>
<path fill="none" stroke="#63b8ff" d="M151.24,-164.65C136.27,-157.49 117.87,-145.82 109,-129 100.95,-113.73 110.67,-95.67 120.8,-82.72"/>
<polygon fill="#63b8ff" stroke="#63b8ff" points="123.17,-85.33 127.02,-75.46 117.86,-80.78 123.17,-85.33"/>
</g>
<!-- Node17 -->
<g id="node17" class="node">
<title>Node17</title>
<g id="a_node17"><a xlink:href="ctype_8h.html" target="_top" xlink:title=" ">
<polygon fill="white" stroke="#666666" points="165.5,-129 118.5,-129 118.5,-110 165.5,-110 165.5,-129"/>
<text text-anchor="middle" x="142" y="-117" font-family="Helvetica,sans-Serif" font-size="10.00">ctype.h</text>
</a>
</g>
</g>
<!-- Node15&#45;&gt;Node17 -->
<g id="edge26" class="edge">
<title>Node15&#45;&gt;Node17</title>
<path fill="none" stroke="#63b8ff" d="M168.72,-164.75C164.53,-157.81 158.52,-147.86 153.27,-139.16"/>
<polygon fill="#63b8ff" stroke="#63b8ff" points="156.35,-137.49 148.18,-130.74 150.35,-141.11 156.35,-137.49"/>
</g>
<!-- Node16&#45;&gt;Node8 -->
<g id="edge25" class="edge">
<title>Node16&#45;&gt;Node8</title>
<path fill="none" stroke="#63b8ff" d="M152.95,-54.51C167.35,-46.39 188.79,-34.3 205.56,-24.85"/>
<polygon fill="#63b8ff" stroke="#63b8ff" points="206.98,-28.06 213.97,-20.1 203.54,-21.96 206.98,-28.06"/>
</g>
<!-- Node18&#45;&gt;Node5 -->
<g id="edge29" class="edge">
<title>Node18&#45;&gt;Node5</title>
<path fill="none" stroke="#63b8ff" d="M432.72,-164.51C406.16,-155.06 364.49,-140.24 336.96,-130.44"/>
<polygon fill="#63b8ff" stroke="#63b8ff" points="338.48,-127.27 327.89,-127.22 336.14,-133.87 338.48,-127.27"/>
</g>
<!-- Node18&#45;&gt;Node6 -->
<g id="edge28" class="edge">
<title>Node18&#45;&gt;Node6</title>
<path fill="none" stroke="#63b8ff" d="M449.49,-164.66C432.27,-146.78 393.05,-106.05 370.59,-82.73"/>
<polygon fill="#63b8ff" stroke="#63b8ff" points="373.14,-80.33 363.68,-75.55 368.09,-85.18 373.14,-80.33"/>
</g>
<!-- Node19&#45;&gt;Node5 -->
<g id="edge32" class="edge">
<title>Node19&#45;&gt;Node5</title>
<path fill="none" stroke="#63b8ff" d="M310.67,-164.75C310.43,-158.27 310.08,-149.16 309.77,-140.9"/>
<polygon fill="#63b8ff" stroke="#63b8ff" points="313.27,-140.82 309.39,-130.95 306.27,-141.08 313.27,-140.82"/>
</g>
<!-- Node19&#45;&gt;Node6 -->
<g id="edge31" class="edge">
<title>Node19&#45;&gt;Node6</title>
<path fill="none" stroke="#63b8ff" d="M316.53,-164.56C321.79,-155.76 329.69,-141.81 335,-129 340.88,-114.81 345.79,-98.15 349.15,-85.46"/>
<polygon fill="#63b8ff" stroke="#63b8ff" points="352.54,-86.34 351.6,-75.79 345.75,-84.63 352.54,-86.34"/>
</g>
<!-- Node20&#45;&gt;Node5 -->
<g id="edge35" class="edge">
<title>Node20&#45;&gt;Node5</title>
<path fill="none" stroke="#63b8ff" d="M372.11,-164.51C360.9,-156.7 344.43,-145.21 331.12,-135.93"/>
<polygon fill="#63b8ff" stroke="#63b8ff" points="333.15,-133.07 322.94,-130.22 329.14,-138.81 333.15,-133.07"/>
</g>
<!-- Node20&#45;&gt;Node6 -->
<g id="edge34" class="edge">
<title>Node20&#45;&gt;Node6</title>
<path fill="none" stroke="#63b8ff" d="M382.81,-164.84C379.68,-152.59 373.68,-129.51 368,-110 365.62,-101.83 362.84,-92.88 360.39,-85.16"/>
<polygon fill="#63b8ff" stroke="#63b8ff" points="363.76,-84.22 357.37,-75.77 357.1,-86.36 363.76,-84.22"/>
</g>
</g>
</svg>
