<?xml version="1.0" encoding="UTF-8" standalone="no"?>
<!DOCTYPE svg PUBLIC "-//W3C//DTD SVG 1.1//EN"
 "http://www.w3.org/Graphics/SVG/1.1/DTD/svg11.dtd">
<!-- Generated by graphviz version 7.0.5 (20221223.1930)
 -->
<!-- Title: iop/usb/usbd/src/driver.h Pages: 1 -->
<svg width="174pt" height="302pt"
 viewBox="0.00 0.00 173.50 302.00" xmlns="http://www.w3.org/2000/svg" xmlns:xlink="http://www.w3.org/1999/xlink">
<g id="graph0" class="graph" transform="scale(1 1) rotate(0) translate(4 298)">
<title>iop/usb/usbd/src/driver.h</title>
<!-- Node1 -->
<g id="node1" class="node">
<title>Node1</title>
<g id="a_node1"><a xlink:title=" ">
<polygon fill="#999999" stroke="#666666" points="123,-294 0,-294 0,-275 123,-275 123,-294"/>
<text text-anchor="middle" x="61.5" y="-282" font-family="Helvetica,sans-Serif" font-size="10.00">iop/usb/usbd/src/driver.h</text>
</a>
</g>
</g>
<!-- Node2 -->
<g id="node2" class="node">
<title>Node2</title>
<g id="a_node2"><a xlink:href="usbdpriv_8h.html" target="_top" xlink:title=" ">
<polygon fill="white" stroke="#666666" points="92,-239 31,-239 31,-220 92,-220 92,-239"/>
<text text-anchor="middle" x="61.5" y="-227" font-family="Helvetica,sans-Serif" font-size="10.00">usbdpriv.h</text>
</a>
</g>
</g>
<!-- Node1&#45;&gt;Node2 -->
<g id="edge1" class="edge">
<title>Node1&#45;&gt;Node2</title>
<path fill="none" stroke="#63b8ff" d="M61.5,-274.75C61.5,-268.27 61.5,-259.16 61.5,-250.9"/>
<polygon fill="#63b8ff" stroke="#63b8ff" points="65,-250.96 61.5,-240.96 58,-250.96 65,-250.96"/>
</g>
<!-- Node3 -->
<g id="node3" class="node">
<title>Node3</title>
<g id="a_node3"><a xlink:href="usbd_8h.html" target="_top" xlink:title=" ">
<polygon fill="white" stroke="#666666" points="110,-184 65,-184 65,-165 110,-165 110,-184"/>
<text text-anchor="middle" x="87.5" y="-172" font-family="Helvetica,sans-Serif" font-size="10.00">usbd.h</text>
</a>
</g>
</g>
<!-- Node2&#45;&gt;Node3 -->
<g id="edge2" class="edge">
<title>Node2&#45;&gt;Node3</title>
<path fill="none" stroke="#63b8ff" d="M65.79,-219.75C69.12,-212.96 73.86,-203.3 78.06,-194.73"/>
<polygon fill="#63b8ff" stroke="#63b8ff" points="81.18,-196.32 82.45,-185.8 74.9,-193.24 81.18,-196.32"/>
</g>
<!-- Node4 -->
<g id="node4" class="node">
<title>Node4</title>
<g id="a_node4"><a xlink:title=" ">
<polygon fill="#e0e0e0" stroke="#999999" points="60,-129 13,-129 13,-110 60,-110 60,-129"/>
<text text-anchor="middle" x="36.5" y="-117" font-family="Helvetica,sans-Serif" font-size="10.00">types.h</text>
</a>
</g>
</g>
<!-- Node2&#45;&gt;Node4 -->
<g id="edge8" class="edge">
<title>Node2&#45;&gt;Node4</title>
<path fill="none" stroke="#63b8ff" d="M59.45,-219.66C55.48,-202.5 46.63,-164.26 41.15,-140.6"/>
<polygon fill="#63b8ff" stroke="#63b8ff" points="44.58,-139.89 38.92,-130.93 37.76,-141.47 44.58,-139.89"/>
</g>
<!-- Node3&#45;&gt;Node4 -->
<g id="edge3" class="edge">
<title>Node3&#45;&gt;Node4</title>
<path fill="none" stroke="#63b8ff" d="M79.08,-164.75C72.03,-157.43 61.77,-146.76 53.09,-137.74"/>
<polygon fill="#63b8ff" stroke="#63b8ff" points="55.61,-135.31 46.15,-130.53 50.57,-140.17 55.61,-135.31"/>
</g>
<!-- Node5 -->
<g id="node5" class="node">
<title>Node5</title>
<g id="a_node5"><a xlink:href="irx_8h.html" target="_top" xlink:title=" ">
<polygon fill="white" stroke="#666666" points="112.5,-129 78.5,-129 78.5,-110 112.5,-110 112.5,-129"/>
<text text-anchor="middle" x="95.5" y="-117" font-family="Helvetica,sans-Serif" font-size="10.00">irx.h</text>
</a>
</g>
</g>
<!-- Node3&#45;&gt;Node5 -->
<g id="edge4" class="edge">
<title>Node3&#45;&gt;Node5</title>
<path fill="none" stroke="#63b8ff" d="M88.82,-164.75C89.81,-158.19 91.21,-148.95 92.47,-140.6"/>
<polygon fill="#63b8ff" stroke="#63b8ff" points="95.89,-141.35 93.92,-130.94 88.97,-140.3 95.89,-141.35"/>
</g>
<!-- Node6 -->
<g id="node6" class="node">
<title>Node6</title>
<g id="a_node6"><a xlink:href="iop_2kernel_2include_2types_8h_source.html" target="_top" xlink:title=" ">
<polygon fill="white" stroke="#666666" points="119,-74 72,-74 72,-55 119,-55 119,-74"/>
<text text-anchor="middle" x="95.5" y="-62" font-family="Helvetica,sans-Serif" font-size="10.00">types.h</text>
</a>
</g>
</g>
<!-- Node5&#45;&gt;Node6 -->
<g id="edge5" class="edge">
<title>Node5&#45;&gt;Node6</title>
<path fill="none" stroke="#63b8ff" d="M95.5,-109.75C95.5,-103.27 95.5,-94.16 95.5,-85.9"/>
<polygon fill="#63b8ff" stroke="#63b8ff" points="99,-85.96 95.5,-75.96 92,-85.96 99,-85.96"/>
</g>
<!-- Node7 -->
<g id="node7" class="node">
<title>Node7</title>
<g id="a_node7"><a xlink:title=" ">
<polygon fill="#e0e0e0" stroke="#999999" points="83,-19 32,-19 32,0 83,0 83,-19"/>
<text text-anchor="middle" x="57.5" y="-7" font-family="Helvetica,sans-Serif" font-size="10.00">stddef.h</text>
</a>
</g>
</g>
<!-- Node6&#45;&gt;Node7 -->
<g id="edge6" class="edge">
<title>Node6&#45;&gt;Node7</title>
<path fill="none" stroke="#63b8ff" d="M89.23,-54.75C84.14,-47.66 76.8,-37.42 70.47,-28.59"/>
<polygon fill="#63b8ff" stroke="#63b8ff" points="73.46,-26.76 64.79,-20.67 67.78,-30.84 73.46,-26.76"/>
</g>
<!-- Node8 -->
<g id="node8" class="node">
<title>Node8</title>
<g id="a_node8"><a xlink:href="tamtypes_8h.html" target="_top" xlink:title=" ">
<polygon fill="white" stroke="#666666" points="165.5,-19 101.5,-19 101.5,0 165.5,0 165.5,-19"/>
<text text-anchor="middle" x="133.5" y="-7" font-family="Helvetica,sans-Serif" font-size="10.00">tamtypes.h</text>
</a>
</g>
</g>
<!-- Node6&#45;&gt;Node8 -->
<g id="edge7" class="edge">
<title>Node6&#45;&gt;Node8</title>
<path fill="none" stroke="#63b8ff" d="M101.77,-54.75C106.86,-47.66 114.2,-37.42 120.53,-28.59"/>
<polygon fill="#63b8ff" stroke="#63b8ff" points="123.22,-30.84 126.21,-20.67 117.54,-26.76 123.22,-30.84"/>
</g>
</g>
</svg>
