<?xml version="1.0" encoding="UTF-8" standalone="no"?>
<!DOCTYPE svg PUBLIC "-//W3C//DTD SVG 1.1//EN"
 "http://www.w3.org/Graphics/SVG/1.1/DTD/svg11.dtd">
<!-- Generated by graphviz version 7.0.5 (20221223.1930)
 -->
<!-- Title: ee/sbv/src/smod.c Pages: 1 -->
<svg width="717pt" height="302pt"
 viewBox="0.00 0.00 716.50 302.00" xmlns="http://www.w3.org/2000/svg" xmlns:xlink="http://www.w3.org/1999/xlink">
<g id="graph0" class="graph" transform="scale(1 1) rotate(0) translate(4 298)">
<title>ee/sbv/src/smod.c</title>
<!-- Node1 -->
<g id="node1" class="node">
<title>Node1</title>
<g id="a_node1"><a xlink:title=" ">
<polygon fill="#999999" stroke="#666666" points="534,-294 437,-294 437,-275 534,-275 534,-294"/>
<text text-anchor="middle" x="485.5" y="-282" font-family="Helvetica,sans-Serif" font-size="10.00">ee/sbv/src/smod.c</text>
</a>
</g>
</g>
<!-- Node2 -->
<g id="node2" class="node">
<title>Node2</title>
<g id="a_node2"><a xlink:href="tamtypes_8h.html" target="_top" xlink:title=" ">
<polygon fill="white" stroke="#666666" points="422.5,-19 358.5,-19 358.5,0 422.5,0 422.5,-19"/>
<text text-anchor="middle" x="390.5" y="-7" font-family="Helvetica,sans-Serif" font-size="10.00">tamtypes.h</text>
</a>
</g>
</g>
<!-- Node1&#45;&gt;Node2 -->
<g id="edge1" class="edge">
<title>Node1&#45;&gt;Node2</title>
<path fill="none" stroke="#63b8ff" d="M495.97,-274.57C514.81,-257.43 552.5,-217.86 552.5,-175.5 552.5,-175.5 552.5,-175.5 552.5,-118.5 552.5,-89.04 554.22,-75.94 533.5,-55 507.28,-28.49 465.57,-17.72 433.95,-13.37"/>
<polygon fill="#63b8ff" stroke="#63b8ff" points="434.65,-9.93 424.3,-12.22 433.82,-16.88 434.65,-9.93"/>
</g>
<!-- Node3 -->
<g id="node3" class="node">
<title>Node3</title>
<g id="a_node3"><a xlink:href="kernel_8h.html" target="_top" xlink:title=" ">
<polygon fill="white" stroke="#666666" points="338.5,-184 288.5,-184 288.5,-165 338.5,-165 338.5,-184"/>
<text text-anchor="middle" x="313.5" y="-172" font-family="Helvetica,sans-Serif" font-size="10.00">kernel.h</text>
</a>
</g>
</g>
<!-- Node1&#45;&gt;Node3 -->
<g id="edge2" class="edge">
<title>Node1&#45;&gt;Node3</title>
<path fill="none" stroke="#63b8ff" d="M471.42,-274.66C441.94,-256.15 373.44,-213.13 337.1,-190.32"/>
<polygon fill="#63b8ff" stroke="#63b8ff" points="339.38,-187.62 329.05,-185.27 335.66,-193.55 339.38,-187.62"/>
</g>
<!-- Node7 -->
<g id="node7" class="node">
<title>Node7</title>
<g id="a_node7"><a xlink:href="string_8h_source.html" target="_top" xlink:title=" ">
<polygon fill="white" stroke="#666666" points="255.5,-239 207.5,-239 207.5,-220 255.5,-220 255.5,-239"/>
<text text-anchor="middle" x="231.5" y="-227" font-family="Helvetica,sans-Serif" font-size="10.00">string.h</text>
</a>
</g>
</g>
<!-- Node1&#45;&gt;Node7 -->
<g id="edge7" class="edge">
<title>Node1&#45;&gt;Node7</title>
<path fill="none" stroke="#63b8ff" d="M442.41,-274.51C393.07,-264.21 313.12,-247.53 267.14,-237.94"/>
<polygon fill="#63b8ff" stroke="#63b8ff" points="267.93,-234.53 257.42,-235.91 266.5,-241.38 267.93,-234.53"/>
</g>
<!-- Node13 -->
<g id="node13" class="node">
<title>Node13</title>
<g id="a_node13"><a xlink:title=" ">
<polygon fill="#e0e0e0" stroke="#999999" points="628.5,-239 580.5,-239 580.5,-220 628.5,-220 628.5,-239"/>
<text text-anchor="middle" x="604.5" y="-227" font-family="Helvetica,sans-Serif" font-size="10.00">sifrpc.h</text>
</a>
</g>
</g>
<!-- Node1&#45;&gt;Node13 -->
<g id="edge18" class="edge">
<title>Node1&#45;&gt;Node13</title>
<path fill="none" stroke="#63b8ff" d="M505.69,-274.51C524.52,-266.12 552.87,-253.5 574.37,-243.92"/>
<polygon fill="#63b8ff" stroke="#63b8ff" points="575.52,-247.24 583.23,-239.97 572.67,-240.85 575.52,-247.24"/>
</g>
<!-- Node14 -->
<g id="node14" class="node">
<title>Node14</title>
<g id="a_node14"><a xlink:href="smem_8h.html" target="_top" xlink:title=" ">
<polygon fill="white" stroke="#666666" points="420,-184 369,-184 369,-165 420,-165 420,-184"/>
<text text-anchor="middle" x="394.5" y="-172" font-family="Helvetica,sans-Serif" font-size="10.00">smem.h</text>
</a>
</g>
</g>
<!-- Node1&#45;&gt;Node14 -->
<g id="edge19" class="edge">
<title>Node1&#45;&gt;Node14</title>
<path fill="none" stroke="#63b8ff" d="M476.54,-274.54C467.84,-265.72 454.4,-251.76 443.5,-239 430.8,-224.13 417.28,-206.46 407.67,-193.54"/>
<polygon fill="#63b8ff" stroke="#63b8ff" points="410.54,-191.53 401.79,-185.56 404.91,-195.69 410.54,-191.53"/>
</g>
<!-- Node15 -->
<g id="node15" class="node">
<title>Node15</title>
<g id="a_node15"><a xlink:href="slib_8h.html" target="_top" xlink:title=" ">
<polygon fill="white" stroke="#666666" points="458,-74 419,-74 419,-55 458,-55 458,-74"/>
<text text-anchor="middle" x="438.5" y="-62" font-family="Helvetica,sans-Serif" font-size="10.00">slib.h</text>
</a>
</g>
</g>
<!-- Node1&#45;&gt;Node15 -->
<g id="edge21" class="edge">
<title>Node1&#45;&gt;Node15</title>
<path fill="none" stroke="#63b8ff" d="M483.6,-274.68C476.66,-242.5 452.59,-130.86 442.75,-85.2"/>
<polygon fill="#63b8ff" stroke="#63b8ff" points="446.22,-84.7 440.69,-75.67 439.38,-86.18 446.22,-84.7"/>
</g>
<!-- Node16 -->
<g id="node16" class="node">
<title>Node16</title>
<g id="a_node16"><a xlink:href="smod_8h.html" target="_top" xlink:title=" ">
<polygon fill="white" stroke="#666666" points="524.5,-74 476.5,-74 476.5,-55 524.5,-55 524.5,-74"/>
<text text-anchor="middle" x="500.5" y="-62" font-family="Helvetica,sans-Serif" font-size="10.00">smod.h</text>
</a>
</g>
</g>
<!-- Node1&#45;&gt;Node16 -->
<g id="edge23" class="edge">
<title>Node1&#45;&gt;Node16</title>
<path fill="none" stroke="#63b8ff" d="M486.11,-274.68C488.32,-242.57 495.97,-131.33 499.12,-85.49"/>
<polygon fill="#63b8ff" stroke="#63b8ff" points="502.6,-85.91 499.8,-75.7 495.62,-85.43 502.6,-85.91"/>
</g>
<!-- Node17 -->
<g id="node17" class="node">
<title>Node17</title>
<g id="a_node17"><a xlink:href="ee_2sbv_2src_2common_8h_source.html" target="_top" xlink:title=" ">
<polygon fill="white" stroke="#666666" points="708.5,-239 646.5,-239 646.5,-220 708.5,-220 708.5,-239"/>
<text text-anchor="middle" x="677.5" y="-227" font-family="Helvetica,sans-Serif" font-size="10.00">common.h</text>
</a>
</g>
</g>
<!-- Node1&#45;&gt;Node17 -->
<g id="edge25" class="edge">
<title>Node1&#45;&gt;Node17</title>
<path fill="none" stroke="#63b8ff" d="M518.07,-274.51C550.31,-265.61 599.84,-251.94 635.13,-242.2"/>
<polygon fill="#63b8ff" stroke="#63b8ff" points="635.88,-245.62 644.59,-239.59 634.02,-238.87 635.88,-245.62"/>
</g>
<!-- Node4 -->
<g id="node4" class="node">
<title>Node4</title>
<g id="a_node4"><a xlink:title=" ">
<polygon fill="#e0e0e0" stroke="#999999" points="238,-19 187,-19 187,0 238,0 238,-19"/>
<text text-anchor="middle" x="212.5" y="-7" font-family="Helvetica,sans-Serif" font-size="10.00">stddef.h</text>
</a>
</g>
</g>
<!-- Node3&#45;&gt;Node4 -->
<g id="edge3" class="edge">
<title>Node3&#45;&gt;Node4</title>
<path fill="none" stroke="#63b8ff" d="M310.46,-164.56C306.02,-151.97 297.11,-128.5 286.5,-110 268.91,-79.33 243.43,-47.05 227.42,-27.86"/>
<polygon fill="#63b8ff" stroke="#63b8ff" points="230.31,-25.86 221.18,-20.48 224.97,-30.38 230.31,-25.86"/>
</g>
<!-- Node5 -->
<g id="node5" class="node">
<title>Node5</title>
<g id="a_node5"><a xlink:title=" ">
<polygon fill="#e0e0e0" stroke="#999999" points="278,-129 227,-129 227,-110 278,-110 278,-129"/>
<text text-anchor="middle" x="252.5" y="-117" font-family="Helvetica,sans-Serif" font-size="10.00">stdarg.h</text>
</a>
</g>
</g>
<!-- Node3&#45;&gt;Node5 -->
<g id="edge4" class="edge">
<title>Node3&#45;&gt;Node5</title>
<path fill="none" stroke="#63b8ff" d="M303.15,-164.51C294.42,-156.93 281.71,-145.88 271.2,-136.75"/>
<polygon fill="#63b8ff" stroke="#63b8ff" points="273.68,-134.27 263.84,-130.35 269.09,-139.55 273.68,-134.27"/>
</g>
<!-- Node6 -->
<g id="node6" class="node">
<title>Node6</title>
<g id="a_node6"><a xlink:href="sifdma_8h.html" target="_top" xlink:title=" ">
<polygon fill="white" stroke="#666666" points="362,-74 309,-74 309,-55 362,-55 362,-74"/>
<text text-anchor="middle" x="335.5" y="-62" font-family="Helvetica,sans-Serif" font-size="10.00">sifdma.h</text>
</a>
</g>
</g>
<!-- Node3&#45;&gt;Node6 -->
<g id="edge5" class="edge">
<title>Node3&#45;&gt;Node6</title>
<path fill="none" stroke="#63b8ff" d="M315.3,-164.66C318.8,-147.5 326.59,-109.26 331.41,-85.6"/>
<polygon fill="#63b8ff" stroke="#63b8ff" points="334.81,-86.44 333.37,-75.94 327.95,-85.04 334.81,-86.44"/>
</g>
<!-- Node6&#45;&gt;Node2 -->
<g id="edge6" class="edge">
<title>Node6&#45;&gt;Node2</title>
<path fill="none" stroke="#63b8ff" d="M344.58,-54.75C352.34,-47.27 363.71,-36.32 373.2,-27.17"/>
<polygon fill="#63b8ff" stroke="#63b8ff" points="375.36,-29.95 380.13,-20.49 370.5,-24.91 375.36,-29.95"/>
</g>
<!-- Node8 -->
<g id="node8" class="node">
<title>Node8</title>
<g id="a_node8"><a xlink:href="sysclib_8h.html" target="_top" xlink:title=" ">
<polygon fill="white" stroke="#666666" points="182.5,-184 128.5,-184 128.5,-165 182.5,-165 182.5,-184"/>
<text text-anchor="middle" x="155.5" y="-172" font-family="Helvetica,sans-Serif" font-size="10.00">sysclib.h</text>
</a>
</g>
</g>
<!-- Node7&#45;&gt;Node8 -->
<g id="edge8" class="edge">
<title>Node7&#45;&gt;Node8</title>
<path fill="none" stroke="#63b8ff" d="M218.61,-219.51C207.4,-211.7 190.93,-200.21 177.62,-190.93"/>
<polygon fill="#63b8ff" stroke="#63b8ff" points="179.65,-188.07 169.44,-185.22 175.64,-193.81 179.65,-188.07"/>
</g>
<!-- Node8&#45;&gt;Node5 -->
<g id="edge14" class="edge">
<title>Node8&#45;&gt;Node5</title>
<path fill="none" stroke="#63b8ff" d="M171.95,-164.51C186.82,-156.39 208.94,-144.3 226.25,-134.85"/>
<polygon fill="#63b8ff" stroke="#63b8ff" points="227.86,-137.95 234.96,-130.08 224.51,-131.81 227.86,-137.95"/>
</g>
<!-- Node9 -->
<g id="node9" class="node">
<title>Node9</title>
<g id="a_node9"><a xlink:href="iop_2kernel_2include_2types_8h_source.html" target="_top" xlink:title=" ">
<polygon fill="white" stroke="#666666" points="167,-74 120,-74 120,-55 167,-55 167,-74"/>
<text text-anchor="middle" x="143.5" y="-62" font-family="Helvetica,sans-Serif" font-size="10.00">types.h</text>
</a>
</g>
</g>
<!-- Node8&#45;&gt;Node9 -->
<g id="edge9" class="edge">
<title>Node8&#45;&gt;Node9</title>
<path fill="none" stroke="#63b8ff" d="M153.31,-164.7C151.18,-155.77 148.05,-141.52 146.5,-129 144.71,-114.53 143.96,-98.08 143.67,-85.56"/>
<polygon fill="#63b8ff" stroke="#63b8ff" points="147.17,-85.62 143.52,-75.68 140.17,-85.73 147.17,-85.62"/>
</g>
<!-- Node10 -->
<g id="node10" class="node">
<title>Node10</title>
<g id="a_node10"><a xlink:href="irx_8h.html" target="_top" xlink:title=" ">
<polygon fill="white" stroke="#666666" points="99.5,-129 65.5,-129 65.5,-110 99.5,-110 99.5,-129"/>
<text text-anchor="middle" x="82.5" y="-117" font-family="Helvetica,sans-Serif" font-size="10.00">irx.h</text>
</a>
</g>
</g>
<!-- Node8&#45;&gt;Node10 -->
<g id="edge12" class="edge">
<title>Node8&#45;&gt;Node10</title>
<path fill="none" stroke="#63b8ff" d="M143.12,-164.51C132.35,-156.7 116.53,-145.21 103.75,-135.93"/>
<polygon fill="#63b8ff" stroke="#63b8ff" points="106.07,-133.29 95.93,-130.25 101.96,-138.95 106.07,-133.29"/>
</g>
<!-- Node11 -->
<g id="node11" class="node">
<title>Node11</title>
<g id="a_node11"><a xlink:href="setjmp_8h.html" target="_top" xlink:title=" ">
<polygon fill="white" stroke="#666666" points="209,-129 156,-129 156,-110 209,-110 209,-129"/>
<text text-anchor="middle" x="182.5" y="-117" font-family="Helvetica,sans-Serif" font-size="10.00">setjmp.h</text>
</a>
</g>
</g>
<!-- Node8&#45;&gt;Node11 -->
<g id="edge15" class="edge">
<title>Node8&#45;&gt;Node11</title>
<path fill="none" stroke="#63b8ff" d="M159.96,-164.75C163.45,-157.88 168.45,-148.08 172.85,-139.45"/>
<polygon fill="#63b8ff" stroke="#63b8ff" points="175.84,-141.29 177.26,-130.79 169.6,-138.11 175.84,-141.29"/>
</g>
<!-- Node12 -->
<g id="node12" class="node">
<title>Node12</title>
<g id="a_node12"><a xlink:href="ctype_8h.html" target="_top" xlink:title=" ">
<polygon fill="white" stroke="#666666" points="47,-129 0,-129 0,-110 47,-110 47,-129"/>
<text text-anchor="middle" x="23.5" y="-117" font-family="Helvetica,sans-Serif" font-size="10.00">ctype.h</text>
</a>
</g>
</g>
<!-- Node8&#45;&gt;Node12 -->
<g id="edge17" class="edge">
<title>Node8&#45;&gt;Node12</title>
<path fill="none" stroke="#63b8ff" d="M133.11,-164.51C111.93,-156.01 79.91,-143.15 55.94,-133.53"/>
<polygon fill="#63b8ff" stroke="#63b8ff" points="57.55,-130.4 46.97,-129.92 54.94,-136.9 57.55,-130.4"/>
</g>
<!-- Node9&#45;&gt;Node2 -->
<g id="edge11" class="edge">
<title>Node9&#45;&gt;Node2</title>
<path fill="none" stroke="#63b8ff" d="M167.18,-58.42C208.69,-49.51 295.14,-30.96 347.46,-19.73"/>
<polygon fill="#63b8ff" stroke="#63b8ff" points="347.87,-23.23 356.92,-17.71 346.41,-16.38 347.87,-23.23"/>
</g>
<!-- Node9&#45;&gt;Node4 -->
<g id="edge10" class="edge">
<title>Node9&#45;&gt;Node4</title>
<path fill="none" stroke="#63b8ff" d="M155.2,-54.51C165.28,-46.77 180.04,-35.43 192.06,-26.2"/>
<polygon fill="#63b8ff" stroke="#63b8ff" points="193.97,-29.15 199.77,-20.28 189.71,-23.6 193.97,-29.15"/>
</g>
<!-- Node10&#45;&gt;Node9 -->
<g id="edge13" class="edge">
<title>Node10&#45;&gt;Node9</title>
<path fill="none" stroke="#63b8ff" d="M92.85,-109.51C101.58,-101.93 114.29,-90.88 124.8,-81.75"/>
<polygon fill="#63b8ff" stroke="#63b8ff" points="126.91,-84.55 132.16,-75.35 122.32,-79.27 126.91,-84.55"/>
</g>
<!-- Node11&#45;&gt;Node2 -->
<g id="edge16" class="edge">
<title>Node11&#45;&gt;Node2</title>
<path fill="none" stroke="#63b8ff" d="M198.28,-109.66C220.65,-97.19 262.94,-73.85 299.5,-55 319.95,-44.46 343.27,-33.06 361.18,-24.45"/>
<polygon fill="#63b8ff" stroke="#63b8ff" points="362.69,-27.61 370.2,-20.13 359.67,-21.29 362.69,-27.61"/>
</g>
<!-- Node14&#45;&gt;Node2 -->
<g id="edge20" class="edge">
<title>Node14&#45;&gt;Node2</title>
<path fill="none" stroke="#63b8ff" d="M394.28,-164.74C393.67,-139.53 391.87,-66.36 390.99,-30.62"/>
<polygon fill="#63b8ff" stroke="#63b8ff" points="394.5,-30.73 390.75,-20.82 387.5,-30.9 394.5,-30.73"/>
</g>
<!-- Node15&#45;&gt;Node2 -->
<g id="edge22" class="edge">
<title>Node15&#45;&gt;Node2</title>
<path fill="none" stroke="#63b8ff" d="M430.57,-54.75C423.94,-47.43 414.28,-36.76 406.11,-27.74"/>
<polygon fill="#63b8ff" stroke="#63b8ff" points="408.92,-25.63 399.61,-20.56 403.73,-30.33 408.92,-25.63"/>
</g>
<!-- Node16&#45;&gt;Node2 -->
<g id="edge24" class="edge">
<title>Node16&#45;&gt;Node2</title>
<path fill="none" stroke="#63b8ff" d="M481.84,-54.51C464.67,-46.24 438.95,-33.84 419.17,-24.31"/>
<polygon fill="#63b8ff" stroke="#63b8ff" points="420.78,-21.2 410.25,-20.01 417.74,-27.51 420.78,-21.2"/>
</g>
</g>
</svg>
