<?xml version="1.0" encoding="UTF-8" standalone="no"?>
<!DOCTYPE svg PUBLIC "-//W3C//DTD SVG 1.1//EN"
 "http://www.w3.org/Graphics/SVG/1.1/DTD/svg11.dtd">
<!-- Generated by graphviz version 7.0.5 (20221223.1930)
 -->
<!-- Title: ee/network/tcpip/src/ps2ip.c Pages: 1 -->
<!--zoomable 313 -->
<svg id="main" version="1.1" xmlns="http://www.w3.org/2000/svg" xmlns:xlink="http://www.w3.org/1999/xlink" xml:space="preserve" onload="init(evt)">
<style type="text/css"><![CDATA[
.edge:hover path { stroke: red; }
.edge:hover polygon { stroke: red; fill: red; }
]]></style>
<script type="text/javascript"><![CDATA[
var edges = document.getElementsByTagName('g');
if (edges && edges.length) {
  for (var i=0;i<edges.length;i++) {
    if (edges[i].id.substr(0,4)=='edge') {
      edges[i].setAttribute('class','edge');
    }
  }
}
]]></script>
        <defs>
                <circle id="rim" cx="0" cy="0" r="7"/>
                <circle id="rim2" cx="0" cy="0" r="3.5"/>
                <g id="zoomPlus">
                        <use xlink:href="#rim" fill="#404040">
                                <set attributeName="fill" to="#808080" begin="zoomplus.mouseover" end="zoomplus.mouseout"/>
                        </use>
                        <path d="M-4,0h8M0,-4v8" fill="none" stroke="white" stroke-width="1.5" pointer-events="none"/>
                </g>
                <g id="zoomMin">
                        <use xlink:href="#rim" fill="#404040">
                                <set attributeName="fill" to="#808080" begin="zoomminus.mouseover" end="zoomminus.mouseout"/>
                        </use>
                        <path d="M-4,0h8" fill="none" stroke="white" stroke-width="1.5" pointer-events="none"/>
                </g>
                <g id="dirArrow">
                        <path fill="none" stroke="white" stroke-width="1.5" d="M0,-3.0v7 M-2.5,-0.5L0,-3.0L2.5,-0.5"/>
                </g>
               <g id="resetDef">
                       <use xlink:href="#rim2" fill="#404040">
                               <set attributeName="fill" to="#808080" begin="reset.mouseover" end="reset.mouseout"/>
                       </use>
               </g>
        </defs>

<script type="text/javascript">
var viewWidth = 1158;
var viewHeight = 313;
var sectionId = 'dynsection-0';
</script>
<script xlink:href="svgpan.js"/>
<svg id="graph" class="graph">
<g id="viewport">
<title>ee/network/tcpip/src/ps2ip.c</title>
<!-- Node1 -->
<g id="node1" class="node">
<title>Node1</title>
<g id="a_node1"><a xlink:title=" ">
<polygon fill="#999999" stroke="#666666" points="630,-305 525,-305 525,-275 630,-275 630,-305"/>
<text text-anchor="start" x="533" y="-293" font-family="Helvetica,sans-Serif" font-size="10.00">ee/network/tcpip/src</text>
<text text-anchor="middle" x="577.5" y="-282" font-family="Helvetica,sans-Serif" font-size="10.00">/ps2ip.c</text>
</a>
</g>
</g>
<!-- Node2 -->
<g id="node2" class="node">
<title>Node2</title>
<g id="a_node2"><a xlink:href="stdio_8h.html" target="_top" xlink:title=" ">
<polygon fill="white" stroke="#666666" points="109,-184 64,-184 64,-165 109,-165 109,-184"/>
<text text-anchor="middle" x="86.5" y="-172" font-family="Helvetica,sans-Serif" font-size="10.00">stdio.h</text>
</a>
</g>
</g>
<!-- Node1&#45;&gt;Node2 -->
<g id="edge1" class="edge">
<title>Node1&#45;&gt;Node2</title>
<path fill="none" stroke="#63b8ff" d="M524.79,-286.32C428.32,-280.81 227.38,-266.38 163.5,-239 138.97,-228.49 116.08,-207.64 101.74,-192.69"/>
<polygon fill="#63b8ff" stroke="#63b8ff" points="104.37,-190.38 95.01,-185.41 99.23,-195.13 104.37,-190.38"/>
</g>
<!-- Node8 -->
<g id="node8" class="node">
<title>Node8</title>
<g id="a_node8"><a xlink:href="string_8h_source.html" target="_top" xlink:title=" ">
<polygon fill="white" stroke="#666666" points="220.5,-239 172.5,-239 172.5,-220 220.5,-220 220.5,-239"/>
<text text-anchor="middle" x="196.5" y="-227" font-family="Helvetica,sans-Serif" font-size="10.00">string.h</text>
</a>
</g>
</g>
<!-- Node1&#45;&gt;Node8 -->
<g id="edge7" class="edge">
<title>Node1&#45;&gt;Node8</title>
<path fill="none" stroke="#63b8ff" d="M524.52,-280.87C445.63,-268.75 299.36,-246.29 232.07,-235.96"/>
<polygon fill="#63b8ff" stroke="#63b8ff" points="232.74,-232.52 222.33,-234.47 231.68,-239.44 232.74,-232.52"/>
</g>
<!-- Node12 -->
<g id="node12" class="node">
<title>Node12</title>
<g id="a_node12"><a xlink:href="netman_8h.html" target="_top" xlink:title=" ">
<polygon fill="white" stroke="#666666" points="302.5,-74 246.5,-74 246.5,-55 302.5,-55 302.5,-74"/>
<text text-anchor="middle" x="274.5" y="-62" font-family="Helvetica,sans-Serif" font-size="10.00">netman.h</text>
</a>
</g>
</g>
<!-- Node1&#45;&gt;Node12 -->
<g id="edge15" class="edge">
<title>Node1&#45;&gt;Node12</title>
<path fill="none" stroke="#63b8ff" d="M524.6,-287.11C450.99,-283.29 323.24,-271.98 292.5,-239 252.97,-196.59 262.5,-120.59 269.81,-84.95"/>
<polygon fill="#63b8ff" stroke="#63b8ff" points="273.13,-86.15 271.9,-75.63 266.3,-84.62 273.13,-86.15"/>
</g>
<!-- Node13 -->
<g id="node13" class="node">
<title>Node13</title>
<g id="a_node13"><a xlink:title=" ">
<polygon fill="#e0e0e0" stroke="#999999" points="373,-239 302,-239 302,-220 373,-220 373,-239"/>
<text text-anchor="middle" x="337.5" y="-227" font-family="Helvetica,sans-Serif" font-size="10.00">lwip/memp.h</text>
</a>
</g>
</g>
<!-- Node1&#45;&gt;Node13 -->
<g id="edge17" class="edge">
<title>Node1&#45;&gt;Node13</title>
<path fill="none" stroke="#63b8ff" d="M524.53,-276.09C482.61,-265.87 424.6,-251.73 384.35,-241.92"/>
<polygon fill="#63b8ff" stroke="#63b8ff" points="385.26,-238.54 374.71,-239.57 383.6,-245.34 385.26,-238.54"/>
</g>
<!-- Node14 -->
<g id="node14" class="node">
<title>Node14</title>
<g id="a_node14"><a xlink:title=" ">
<polygon fill="#e0e0e0" stroke="#999999" points="450,-239 391,-239 391,-220 450,-220 450,-239"/>
<text text-anchor="middle" x="420.5" y="-227" font-family="Helvetica,sans-Serif" font-size="10.00">lwip/sys.h</text>
</a>
</g>
</g>
<!-- Node1&#45;&gt;Node14 -->
<g id="edge18" class="edge">
<title>Node1&#45;&gt;Node14</title>
<path fill="none" stroke="#63b8ff" d="M538.69,-274.54C513.02,-264.97 479.66,-252.55 454.94,-243.33"/>
<polygon fill="#63b8ff" stroke="#63b8ff" points="456.25,-240.09 445.66,-239.87 453.81,-246.65 456.25,-240.09"/>
</g>
<!-- Node15 -->
<g id="node15" class="node">
<title>Node15</title>
<g id="a_node15"><a xlink:title=" ">
<polygon fill="#e0e0e0" stroke="#999999" points="526.5,-239 468.5,-239 468.5,-220 526.5,-220 526.5,-239"/>
<text text-anchor="middle" x="497.5" y="-227" font-family="Helvetica,sans-Serif" font-size="10.00">lwip/tcp.h</text>
</a>
</g>
</g>
<!-- Node1&#45;&gt;Node15 -->
<g id="edge19" class="edge">
<title>Node1&#45;&gt;Node15</title>
<path fill="none" stroke="#63b8ff" d="M557.72,-274.54C545.75,-265.78 530.49,-254.63 518.33,-245.73"/>
<polygon fill="#63b8ff" stroke="#63b8ff" points="520.72,-243.15 510.59,-240.07 516.59,-248.8 520.72,-243.15"/>
</g>
<!-- Node16 -->
<g id="node16" class="node">
<title>Node16</title>
<g id="a_node16"><a xlink:title=" ">
<polygon fill="#e0e0e0" stroke="#999999" points="610,-239 545,-239 545,-220 610,-220 610,-239"/>
<text text-anchor="middle" x="577.5" y="-227" font-family="Helvetica,sans-Serif" font-size="10.00">lwip/tcpip.h</text>
</a>
</g>
</g>
<!-- Node1&#45;&gt;Node16 -->
<g id="edge20" class="edge">
<title>Node1&#45;&gt;Node16</title>
<path fill="none" stroke="#63b8ff" d="M577.5,-274.54C577.5,-267.34 577.5,-258.53 577.5,-250.68"/>
<polygon fill="#63b8ff" stroke="#63b8ff" points="581,-250.69 577.5,-240.69 574,-250.69 581,-250.69"/>
</g>
<!-- Node17 -->
<g id="node17" class="node">
<title>Node17</title>
<g id="a_node17"><a xlink:title=" ">
<polygon fill="#e0e0e0" stroke="#999999" points="691,-239 628,-239 628,-220 691,-220 691,-239"/>
<text text-anchor="middle" x="659.5" y="-227" font-family="Helvetica,sans-Serif" font-size="10.00">lwip/netif.h</text>
</a>
</g>
</g>
<!-- Node1&#45;&gt;Node17 -->
<g id="edge21" class="edge">
<title>Node1&#45;&gt;Node17</title>
<path fill="none" stroke="#63b8ff" d="M597.77,-274.54C610.04,-265.78 625.68,-254.63 638.15,-245.73"/>
<polygon fill="#63b8ff" stroke="#63b8ff" points="640,-248.71 646.11,-240.05 635.93,-243.01 640,-248.71"/>
</g>
<!-- Node18 -->
<g id="node18" class="node">
<title>Node18</title>
<g id="a_node18"><a xlink:title=" ">
<polygon fill="#e0e0e0" stroke="#999999" points="774,-239 709,-239 709,-220 774,-220 774,-239"/>
<text text-anchor="middle" x="741.5" y="-227" font-family="Helvetica,sans-Serif" font-size="10.00">lwip/dhcp.h</text>
</a>
</g>
</g>
<!-- Node1&#45;&gt;Node18 -->
<g id="edge22" class="edge">
<title>Node1&#45;&gt;Node18</title>
<path fill="none" stroke="#63b8ff" d="M618.04,-274.54C644.98,-264.93 680.01,-252.43 705.88,-243.21"/>
<polygon fill="#63b8ff" stroke="#63b8ff" points="707.03,-246.51 715.27,-239.85 704.68,-239.92 707.03,-246.51"/>
</g>
<!-- Node19 -->
<g id="node19" class="node">
<title>Node19</title>
<g id="a_node19"><a xlink:title=" ">
<polygon fill="#e0e0e0" stroke="#999999" points="877,-239 792,-239 792,-220 877,-220 877,-239"/>
<text text-anchor="middle" x="834.5" y="-227" font-family="Helvetica,sans-Serif" font-size="10.00">lwip/prot/dhcp.h</text>
</a>
</g>
</g>
<!-- Node1&#45;&gt;Node19 -->
<g id="edge23" class="edge">
<title>Node1&#45;&gt;Node19</title>
<path fill="none" stroke="#63b8ff" d="M630.44,-276.95C675.45,-266.7 739.65,-252.09 783.96,-242"/>
<polygon fill="#63b8ff" stroke="#63b8ff" points="784.61,-245.45 793.58,-239.81 783.05,-238.62 784.61,-245.45"/>
</g>
<!-- Node20 -->
<g id="node20" class="node">
<title>Node20</title>
<g id="a_node20"><a xlink:title=" ">
<polygon fill="#e0e0e0" stroke="#999999" points="955.5,-239 895.5,-239 895.5,-220 955.5,-220 955.5,-239"/>
<text text-anchor="middle" x="925.5" y="-227" font-family="Helvetica,sans-Serif" font-size="10.00">lwip/inet.h</text>
</a>
</g>
</g>
<!-- Node1&#45;&gt;Node20 -->
<g id="edge24" class="edge">
<title>Node1&#45;&gt;Node20</title>
<path fill="none" stroke="#63b8ff" d="M630.23,-281.24C689.39,-272.35 788.48,-256.93 884.33,-239.13"/>
<polygon fill="#63b8ff" stroke="#63b8ff" points="884.72,-242.62 893.9,-237.34 883.43,-235.74 884.72,-242.62"/>
</g>
<!-- Node21 -->
<g id="node21" class="node">
<title>Node21</title>
<g id="a_node21"><a xlink:title=" ">
<polygon fill="#e0e0e0" stroke="#999999" points="1047,-239 974,-239 974,-220 1047,-220 1047,-239"/>
<text text-anchor="middle" x="1010.5" y="-227" font-family="Helvetica,sans-Serif" font-size="10.00">netif/etharp.h</text>
</a>
</g>
</g>
<!-- Node1&#45;&gt;Node21 -->
<g id="edge25" class="edge">
<title>Node1&#45;&gt;Node21</title>
<path fill="none" stroke="#63b8ff" d="M630.21,-283.11C702.62,-274.81 837.19,-258.67 962.55,-239.22"/>
<polygon fill="#63b8ff" stroke="#63b8ff" points="963.04,-242.69 972.38,-237.69 961.96,-235.77 963.04,-242.69"/>
</g>
<!-- Node22 -->
<g id="node22" class="node">
<title>Node22</title>
<g id="a_node22"><a xlink:href="ee_2network_2tcpip_2src_2ps2ip__internal_8h_source.html" target="_top" xlink:title=" ">
<polygon fill="white" stroke="#666666" points="1149.5,-239 1065.5,-239 1065.5,-220 1149.5,-220 1149.5,-239"/>
<text text-anchor="middle" x="1107.5" y="-227" font-family="Helvetica,sans-Serif" font-size="10.00">ps2ip_internal.h</text>
</a>
</g>
</g>
<!-- Node1&#45;&gt;Node22 -->
<g id="edge26" class="edge">
<title>Node1&#45;&gt;Node22</title>
<path fill="none" stroke="#63b8ff" d="M630.43,-284.54C716.88,-277.02 893.99,-260.65 1054.21,-239.23"/>
<polygon fill="#63b8ff" stroke="#63b8ff" points="1054.29,-242.76 1063.73,-237.95 1053.35,-235.82 1054.29,-242.76"/>
</g>
<!-- Node3 -->
<g id="node3" class="node">
<title>Node3</title>
<g id="a_node3"><a xlink:title=" ">
<polygon fill="#e0e0e0" stroke="#999999" points="51,-129 0,-129 0,-110 51,-110 51,-129"/>
<text text-anchor="middle" x="25.5" y="-117" font-family="Helvetica,sans-Serif" font-size="10.00">stdarg.h</text>
</a>
</g>
</g>
<!-- Node2&#45;&gt;Node3 -->
<g id="edge2" class="edge">
<title>Node2&#45;&gt;Node3</title>
<path fill="none" stroke="#63b8ff" d="M76.15,-164.51C67.42,-156.93 54.71,-145.88 44.2,-136.75"/>
<polygon fill="#63b8ff" stroke="#63b8ff" points="46.68,-134.27 36.84,-130.35 42.09,-139.55 46.68,-134.27"/>
</g>
<!-- Node4 -->
<g id="node4" class="node">
<title>Node4</title>
<g id="a_node4"><a xlink:href="irx_8h.html" target="_top" xlink:title=" ">
<polygon fill="white" stroke="#666666" points="103.5,-129 69.5,-129 69.5,-110 103.5,-110 103.5,-129"/>
<text text-anchor="middle" x="86.5" y="-117" font-family="Helvetica,sans-Serif" font-size="10.00">irx.h</text>
</a>
</g>
</g>
<!-- Node2&#45;&gt;Node4 -->
<g id="edge3" class="edge">
<title>Node2&#45;&gt;Node4</title>
<path fill="none" stroke="#63b8ff" d="M86.5,-164.75C86.5,-158.27 86.5,-149.16 86.5,-140.9"/>
<polygon fill="#63b8ff" stroke="#63b8ff" points="90,-140.96 86.5,-130.96 83,-140.96 90,-140.96"/>
</g>
<!-- Node5 -->
<g id="node5" class="node">
<title>Node5</title>
<g id="a_node5"><a xlink:href="iop_2kernel_2include_2types_8h_source.html" target="_top" xlink:title=" ">
<polygon fill="white" stroke="#666666" points="152,-74 105,-74 105,-55 152,-55 152,-74"/>
<text text-anchor="middle" x="128.5" y="-62" font-family="Helvetica,sans-Serif" font-size="10.00">types.h</text>
</a>
</g>
</g>
<!-- Node4&#45;&gt;Node5 -->
<g id="edge4" class="edge">
<title>Node4&#45;&gt;Node5</title>
<path fill="none" stroke="#63b8ff" d="M93.44,-109.75C99.12,-102.58 107.34,-92.2 114.39,-83.3"/>
<polygon fill="#63b8ff" stroke="#63b8ff" points="117.01,-85.64 120.47,-75.63 111.52,-81.29 117.01,-85.64"/>
</g>
<!-- Node6 -->
<g id="node6" class="node">
<title>Node6</title>
<g id="a_node6"><a xlink:title=" ">
<polygon fill="#e0e0e0" stroke="#999999" points="152,-19 101,-19 101,0 152,0 152,-19"/>
<text text-anchor="middle" x="126.5" y="-7" font-family="Helvetica,sans-Serif" font-size="10.00">stddef.h</text>
</a>
</g>
</g>
<!-- Node5&#45;&gt;Node6 -->
<g id="edge5" class="edge">
<title>Node5&#45;&gt;Node6</title>
<path fill="none" stroke="#63b8ff" d="M128.17,-54.75C127.93,-48.27 127.58,-39.16 127.27,-30.9"/>
<polygon fill="#63b8ff" stroke="#63b8ff" points="130.77,-30.82 126.89,-20.95 123.77,-31.08 130.77,-30.82"/>
</g>
<!-- Node7 -->
<g id="node7" class="node">
<title>Node7</title>
<g id="a_node7"><a xlink:href="tamtypes_8h.html" target="_top" xlink:title=" ">
<polygon fill="white" stroke="#666666" points="234.5,-19 170.5,-19 170.5,0 234.5,0 234.5,-19"/>
<text text-anchor="middle" x="202.5" y="-7" font-family="Helvetica,sans-Serif" font-size="10.00">tamtypes.h</text>
</a>
</g>
</g>
<!-- Node5&#45;&gt;Node7 -->
<g id="edge6" class="edge">
<title>Node5&#45;&gt;Node7</title>
<path fill="none" stroke="#63b8ff" d="M141.05,-54.51C151.96,-46.7 168,-35.21 180.96,-25.93"/>
<polygon fill="#63b8ff" stroke="#63b8ff" points="182.81,-28.91 188.9,-20.24 178.73,-23.22 182.81,-28.91"/>
</g>
<!-- Node9 -->
<g id="node9" class="node">
<title>Node9</title>
<g id="a_node9"><a xlink:href="sysclib_8h.html" target="_top" xlink:title=" ">
<polygon fill="white" stroke="#666666" points="199.5,-184 145.5,-184 145.5,-165 199.5,-165 199.5,-184"/>
<text text-anchor="middle" x="172.5" y="-172" font-family="Helvetica,sans-Serif" font-size="10.00">sysclib.h</text>
</a>
</g>
</g>
<!-- Node8&#45;&gt;Node9 -->
<g id="edge8" class="edge">
<title>Node8&#45;&gt;Node9</title>
<path fill="none" stroke="#63b8ff" d="M192.54,-219.75C189.46,-212.96 185.09,-203.3 181.21,-194.73"/>
<polygon fill="#63b8ff" stroke="#63b8ff" points="184.49,-193.49 177.17,-185.82 178.11,-196.37 184.49,-193.49"/>
</g>
<!-- Node9&#45;&gt;Node3 -->
<g id="edge11" class="edge">
<title>Node9&#45;&gt;Node3</title>
<path fill="none" stroke="#63b8ff" d="M147.56,-164.51C123.66,-155.89 87.36,-142.8 60.55,-133.14"/>
<polygon fill="#63b8ff" stroke="#63b8ff" points="62.09,-129.97 51.49,-129.87 59.71,-136.56 62.09,-129.97"/>
</g>
<!-- Node9&#45;&gt;Node4 -->
<g id="edge10" class="edge">
<title>Node9&#45;&gt;Node4</title>
<path fill="none" stroke="#63b8ff" d="M157.91,-164.51C144.98,-156.54 125.86,-144.75 110.65,-135.38"/>
<polygon fill="#63b8ff" stroke="#63b8ff" points="112.51,-132.42 102.16,-130.15 108.84,-138.38 112.51,-132.42"/>
</g>
<!-- Node9&#45;&gt;Node5 -->
<g id="edge9" class="edge">
<title>Node9&#45;&gt;Node5</title>
<path fill="none" stroke="#63b8ff" d="M167.78,-164.79C163.09,-155.92 155.82,-141.72 150.5,-129 144.42,-114.48 138.64,-97.63 134.53,-84.94"/>
<polygon fill="#63b8ff" stroke="#63b8ff" points="137.96,-84.18 131.61,-75.7 131.29,-86.29 137.96,-84.18"/>
</g>
<!-- Node10 -->
<g id="node10" class="node">
<title>Node10</title>
<g id="a_node10"><a xlink:href="setjmp_8h.html" target="_top" xlink:title=" ">
<polygon fill="white" stroke="#666666" points="228,-74 175,-74 175,-55 228,-55 228,-74"/>
<text text-anchor="middle" x="201.5" y="-62" font-family="Helvetica,sans-Serif" font-size="10.00">setjmp.h</text>
</a>
</g>
</g>
<!-- Node9&#45;&gt;Node10 -->
<g id="edge12" class="edge">
<title>Node9&#45;&gt;Node10</title>
<path fill="none" stroke="#63b8ff" d="M185.41,-164.61C195.74,-156.65 209.46,-143.94 215.5,-129 221.27,-114.74 216.92,-97.66 211.6,-84.81"/>
<polygon fill="#63b8ff" stroke="#63b8ff" points="214.77,-83.33 207.35,-75.77 208.44,-86.31 214.77,-83.33"/>
</g>
<!-- Node11 -->
<g id="node11" class="node">
<title>Node11</title>
<g id="a_node11"><a xlink:href="ctype_8h.html" target="_top" xlink:title=" ">
<polygon fill="white" stroke="#666666" points="207,-129 160,-129 160,-110 207,-110 207,-129"/>
<text text-anchor="middle" x="183.5" y="-117" font-family="Helvetica,sans-Serif" font-size="10.00">ctype.h</text>
</a>
</g>
</g>
<!-- Node9&#45;&gt;Node11 -->
<g id="edge14" class="edge">
<title>Node9&#45;&gt;Node11</title>
<path fill="none" stroke="#63b8ff" d="M174.32,-164.75C175.68,-158.19 177.6,-148.95 179.33,-140.6"/>
<polygon fill="#63b8ff" stroke="#63b8ff" points="182.73,-141.43 181.34,-130.92 175.88,-140 182.73,-141.43"/>
</g>
<!-- Node10&#45;&gt;Node7 -->
<g id="edge13" class="edge">
<title>Node10&#45;&gt;Node7</title>
<path fill="none" stroke="#63b8ff" d="M201.67,-54.75C201.79,-48.27 201.96,-39.16 202.12,-30.9"/>
<polygon fill="#63b8ff" stroke="#63b8ff" points="205.61,-31.02 202.3,-20.96 198.61,-30.89 205.61,-31.02"/>
</g>
<!-- Node12&#45;&gt;Node7 -->
<g id="edge16" class="edge">
<title>Node12&#45;&gt;Node7</title>
<path fill="none" stroke="#63b8ff" d="M262.29,-54.51C251.67,-46.7 236.06,-35.21 223.46,-25.93"/>
<polygon fill="#63b8ff" stroke="#63b8ff" points="225.88,-23.36 215.75,-20.26 221.73,-29 225.88,-23.36"/>
</g>
<!-- Node23 -->
<g id="node23" class="node">
<title>Node23</title>
<g id="a_node23"><a xlink:title=" ">
<polygon fill="#e0e0e0" stroke="#999999" points="1147,-184 1068,-184 1068,-165 1147,-165 1147,-184"/>
<text text-anchor="middle" x="1107.5" y="-172" font-family="Helvetica,sans-Serif" font-size="10.00">lwip/sockets.h</text>
</a>
</g>
</g>
<!-- Node22&#45;&gt;Node23 -->
<g id="edge27" class="edge">
<title>Node22&#45;&gt;Node23</title>
<path fill="none" stroke="#63b8ff" d="M1107.5,-219.75C1107.5,-213.27 1107.5,-204.16 1107.5,-195.9"/>
<polygon fill="#63b8ff" stroke="#63b8ff" points="1111,-195.96 1107.5,-185.96 1104,-195.96 1111,-195.96"/>
</g>
</g>
</svg>
        <g id="navigator" transform="translate(0 0)" fill="#404254">
                <rect fill="#f2f5e9" fill-opacity="0.5" stroke="#606060" stroke-width=".5" x="0" y="0" width="60" height="60"/>
                <use id="zoomplus" xlink:href="#zoomPlus" x="17" y="9" onmousedown="handleZoom(evt,'in')"/>
                <use id="zoomminus" xlink:href="#zoomMin" x="42" y="9" onmousedown="handleZoom(evt,'out')"/>
                <use id="reset" xlink:href="#resetDef" x="30" y="36" onmousedown="handleReset()"/>
                <g id="arrowUp" xlink:href="#dirArrow" transform="translate(30 24)" onmousedown="handlePan(0,-1)">
                  <use xlink:href="#rim" fill="#404040">
                        <set attributeName="fill" to="#808080" begin="arrowUp.mouseover" end="arrowUp.mouseout"/>
                  </use>
                  <path fill="none" stroke="white" stroke-width="1.5" d="M0,-3.0v7 M-2.5,-0.5L0,-3.0L2.5,-0.5"/>
                </g>
                <g id="arrowRight" xlink:href="#dirArrow" transform="rotate(90) translate(36 -43)" onmousedown="handlePan(1,0)">
                  <use xlink:href="#rim" fill="#404040">
                        <set attributeName="fill" to="#808080" begin="arrowRight.mouseover" end="arrowRight.mouseout"/>
                  </use>
                  <path fill="none" stroke="white" stroke-width="1.5" d="M0,-3.0v7 M-2.5,-0.5L0,-3.0L2.5,-0.5"/>
                </g>
                <g id="arrowDown" xlink:href="#dirArrow" transform="rotate(180) translate(-30 -48)" onmousedown="handlePan(0,1)">
                  <use xlink:href="#rim" fill="#404040">
                        <set attributeName="fill" to="#808080" begin="arrowDown.mouseover" end="arrowDown.mouseout"/>
                  </use>
                  <path fill="none" stroke="white" stroke-width="1.5" d="M0,-3.0v7 M-2.5,-0.5L0,-3.0L2.5,-0.5"/>
                </g>
                <g id="arrowLeft" xlink:href="#dirArrow" transform="rotate(270) translate(-36 17)" onmousedown="handlePan(-1,0)">
                  <use xlink:href="#rim" fill="#404040">
                        <set attributeName="fill" to="#808080" begin="arrowLeft.mouseover" end="arrowLeft.mouseout"/>
                  </use>
                  <path fill="none" stroke="white" stroke-width="1.5" d="M0,-3.0v7 M-2.5,-0.5L0,-3.0L2.5,-0.5"/>
                </g>
        </g>
        <svg viewBox="0 0 15 15" width="100%" height="30px" preserveAspectRatio="xMaxYMin meet">
         <g id="arrow_out" transform="scale(0.3 0.3)">
          <a xlink:href="ee_2network_2tcpip_2src_2ps2ip_8c__incl_org.svg" target="_base">
           <rect id="button" ry="5" rx="5" y="6" x="6" height="38" width="38"
                fill="#f2f5e9" fill-opacity="0.5" stroke="#606060" stroke-width="1.0"/>
           <path id="arrow"
             d="M 11.500037,31.436501 C 11.940474,20.09759 22.043105,11.32322 32.158766,21.979434 L 37.068811,17.246167 C 37.068811,17.246167 37.088388,32 37.088388,32 L 22.160133,31.978069 C 22.160133,31.978069 26.997745,27.140456 26.997745,27.140456 C 18.528582,18.264221 13.291696,25.230495 11.500037,31.436501 z"
             style="fill:#404040;"/>
          </a>
         </g>
        </svg>
</svg>
