<?xml version="1.0" encoding="UTF-8" standalone="no"?>
<!DOCTYPE svg PUBLIC "-//W3C//DTD SVG 1.1//EN"
 "http://www.w3.org/Graphics/SVG/1.1/DTD/svg11.dtd">
<!-- Generated by graphviz version 7.0.5 (20221223.1930)
 -->
<!-- Title: ee/sbv/src/slib.c Pages: 1 -->
<svg width="567pt" height="302pt"
 viewBox="0.00 0.00 567.00 302.00" xmlns="http://www.w3.org/2000/svg" xmlns:xlink="http://www.w3.org/1999/xlink">
<g id="graph0" class="graph" transform="scale(1 1) rotate(0) translate(4 298)">
<title>ee/sbv/src/slib.c</title>
<!-- Node1 -->
<g id="node1" class="node">
<title>Node1</title>
<g id="a_node1"><a xlink:title=" ">
<polygon fill="#999999" stroke="#666666" points="395,-294 307,-294 307,-275 395,-275 395,-294"/>
<text text-anchor="middle" x="351" y="-282" font-family="Helvetica,sans-Serif" font-size="10.00">ee/sbv/src/slib.c</text>
</a>
</g>
</g>
<!-- Node2 -->
<g id="node2" class="node">
<title>Node2</title>
<g id="a_node2"><a xlink:href="tamtypes_8h.html" target="_top" xlink:title=" ">
<polygon fill="white" stroke="#666666" points="301,-19 237,-19 237,0 301,0 301,-19"/>
<text text-anchor="middle" x="269" y="-7" font-family="Helvetica,sans-Serif" font-size="10.00">tamtypes.h</text>
</a>
</g>
</g>
<!-- Node1&#45;&gt;Node2 -->
<g id="edge1" class="edge">
<title>Node1&#45;&gt;Node2</title>
<path fill="none" stroke="#63b8ff" d="M358.67,-274.67C373.14,-257.08 403,-215.87 403,-175.5 403,-175.5 403,-175.5 403,-118.5 403,-69.61 348.26,-39.1 308.76,-23.44"/>
<polygon fill="#63b8ff" stroke="#63b8ff" points="310.08,-20.2 299.49,-19.95 307.62,-26.75 310.08,-20.2"/>
</g>
<!-- Node3 -->
<g id="node3" class="node">
<title>Node3</title>
<g id="a_node3"><a xlink:href="kernel_8h.html" target="_top" xlink:title=" ">
<polygon fill="white" stroke="#666666" points="50,-184 0,-184 0,-165 50,-165 50,-184"/>
<text text-anchor="middle" x="25" y="-172" font-family="Helvetica,sans-Serif" font-size="10.00">kernel.h</text>
</a>
</g>
</g>
<!-- Node1&#45;&gt;Node3 -->
<g id="edge2" class="edge">
<title>Node1&#45;&gt;Node3</title>
<path fill="none" stroke="#63b8ff" d="M319.89,-274.54C290.05,-265.84 243.77,-252.07 204,-239 153.47,-222.4 95.54,-201.51 59.61,-188.32"/>
<polygon fill="#63b8ff" stroke="#63b8ff" points="61.21,-185.18 50.62,-185.01 58.79,-191.75 61.21,-185.18"/>
</g>
<!-- Node7 -->
<g id="node7" class="node">
<title>Node7</title>
<g id="a_node7"><a xlink:href="string_8h_source.html" target="_top" xlink:title=" ">
<polygon fill="white" stroke="#666666" points="261,-239 213,-239 213,-220 261,-220 261,-239"/>
<text text-anchor="middle" x="237" y="-227" font-family="Helvetica,sans-Serif" font-size="10.00">string.h</text>
</a>
</g>
</g>
<!-- Node1&#45;&gt;Node7 -->
<g id="edge7" class="edge">
<title>Node1&#45;&gt;Node7</title>
<path fill="none" stroke="#63b8ff" d="M331.66,-274.51C313.78,-266.2 286.96,-253.73 266.43,-244.18"/>
<polygon fill="#63b8ff" stroke="#63b8ff" points="267.97,-241.04 257.43,-240 265.02,-247.39 267.97,-241.04"/>
</g>
<!-- Node13 -->
<g id="node13" class="node">
<title>Node13</title>
<g id="a_node13"><a xlink:title=" ">
<polygon fill="#e0e0e0" stroke="#999999" points="479,-239 431,-239 431,-220 479,-220 479,-239"/>
<text text-anchor="middle" x="455" y="-227" font-family="Helvetica,sans-Serif" font-size="10.00">sifrpc.h</text>
</a>
</g>
</g>
<!-- Node1&#45;&gt;Node13 -->
<g id="edge18" class="edge">
<title>Node1&#45;&gt;Node13</title>
<path fill="none" stroke="#63b8ff" d="M368.64,-274.51C384.73,-266.31 408.75,-254.07 427.37,-244.58"/>
<polygon fill="#63b8ff" stroke="#63b8ff" points="428.95,-247.7 436.27,-240.05 425.77,-241.47 428.95,-247.7"/>
</g>
<!-- Node14 -->
<g id="node14" class="node">
<title>Node14</title>
<g id="a_node14"><a xlink:href="slib_8h.html" target="_top" xlink:title=" ">
<polygon fill="white" stroke="#666666" points="320.5,-74 281.5,-74 281.5,-55 320.5,-55 320.5,-74"/>
<text text-anchor="middle" x="301" y="-62" font-family="Helvetica,sans-Serif" font-size="10.00">slib.h</text>
</a>
</g>
</g>
<!-- Node1&#45;&gt;Node14 -->
<g id="edge19" class="edge">
<title>Node1&#45;&gt;Node14</title>
<path fill="none" stroke="#63b8ff" d="M347.45,-274.6C340.72,-257.38 326.05,-218.19 318,-184 309.96,-149.86 305.13,-109.24 302.78,-85.52"/>
<polygon fill="#63b8ff" stroke="#63b8ff" points="306.28,-85.36 301.86,-75.73 299.31,-86.01 306.28,-85.36"/>
</g>
<!-- Node15 -->
<g id="node15" class="node">
<title>Node15</title>
<g id="a_node15"><a xlink:href="smod_8h.html" target="_top" xlink:title=" ">
<polygon fill="white" stroke="#666666" points="375,-184 327,-184 327,-165 375,-165 375,-184"/>
<text text-anchor="middle" x="351" y="-172" font-family="Helvetica,sans-Serif" font-size="10.00">smod.h</text>
</a>
</g>
</g>
<!-- Node1&#45;&gt;Node15 -->
<g id="edge21" class="edge">
<title>Node1&#45;&gt;Node15</title>
<path fill="none" stroke="#63b8ff" d="M351,-274.66C351,-257.57 351,-219.61 351,-195.92"/>
<polygon fill="#63b8ff" stroke="#63b8ff" points="354.5,-195.97 351,-185.97 347.5,-195.97 354.5,-195.97"/>
</g>
<!-- Node16 -->
<g id="node16" class="node">
<title>Node16</title>
<g id="a_node16"><a xlink:href="ee_2sbv_2src_2common_8h_source.html" target="_top" xlink:title=" ">
<polygon fill="white" stroke="#666666" points="559,-239 497,-239 497,-220 559,-220 559,-239"/>
<text text-anchor="middle" x="528" y="-227" font-family="Helvetica,sans-Serif" font-size="10.00">common.h</text>
</a>
</g>
</g>
<!-- Node1&#45;&gt;Node16 -->
<g id="edge23" class="edge">
<title>Node1&#45;&gt;Node16</title>
<path fill="none" stroke="#63b8ff" d="M381.03,-274.51C410.23,-265.76 454.81,-252.42 487.21,-242.71"/>
<polygon fill="#63b8ff" stroke="#63b8ff" points="488.1,-246.1 496.67,-239.88 486.09,-239.4 488.1,-246.1"/>
</g>
<!-- Node4 -->
<g id="node4" class="node">
<title>Node4</title>
<g id="a_node4"><a xlink:title=" ">
<polygon fill="#e0e0e0" stroke="#999999" points="89.5,-19 38.5,-19 38.5,0 89.5,0 89.5,-19"/>
<text text-anchor="middle" x="64" y="-7" font-family="Helvetica,sans-Serif" font-size="10.00">stddef.h</text>
</a>
</g>
</g>
<!-- Node3&#45;&gt;Node4 -->
<g id="edge3" class="edge">
<title>Node3&#45;&gt;Node4</title>
<path fill="none" stroke="#63b8ff" d="M21,-164.52C17.31,-155.68 12.08,-141.71 10,-129 4.62,-96.19 5.56,-84.45 21,-55 26.57,-44.38 35.46,-34.56 43.71,-26.86"/>
<polygon fill="#63b8ff" stroke="#63b8ff" points="45.87,-29.62 51.09,-20.4 41.26,-24.35 45.87,-29.62"/>
</g>
<!-- Node5 -->
<g id="node5" class="node">
<title>Node5</title>
<g id="a_node5"><a xlink:title=" ">
<polygon fill="#e0e0e0" stroke="#999999" points="77.5,-129 26.5,-129 26.5,-110 77.5,-110 77.5,-129"/>
<text text-anchor="middle" x="52" y="-117" font-family="Helvetica,sans-Serif" font-size="10.00">stdarg.h</text>
</a>
</g>
</g>
<!-- Node3&#45;&gt;Node5 -->
<g id="edge4" class="edge">
<title>Node3&#45;&gt;Node5</title>
<path fill="none" stroke="#63b8ff" d="M29.46,-164.75C32.95,-157.88 37.95,-148.08 42.35,-139.45"/>
<polygon fill="#63b8ff" stroke="#63b8ff" points="45.34,-141.29 46.76,-130.79 39.1,-138.11 45.34,-141.29"/>
</g>
<!-- Node6 -->
<g id="node6" class="node">
<title>Node6</title>
<g id="a_node6"><a xlink:href="sifdma_8h.html" target="_top" xlink:title=" ">
<polygon fill="white" stroke="#666666" points="83.5,-74 30.5,-74 30.5,-55 83.5,-55 83.5,-74"/>
<text text-anchor="middle" x="57" y="-62" font-family="Helvetica,sans-Serif" font-size="10.00">sifdma.h</text>
</a>
</g>
</g>
<!-- Node3&#45;&gt;Node6 -->
<g id="edge5" class="edge">
<title>Node3&#45;&gt;Node6</title>
<path fill="none" stroke="#63b8ff" d="M21.25,-164.55C16.55,-151.95 9.92,-128.47 17,-110 21.11,-99.29 29.11,-89.54 36.89,-81.91"/>
<polygon fill="#63b8ff" stroke="#63b8ff" points="39.16,-84.58 44.23,-75.28 34.47,-79.39 39.16,-84.58"/>
</g>
<!-- Node6&#45;&gt;Node2 -->
<g id="edge6" class="edge">
<title>Node6&#45;&gt;Node2</title>
<path fill="none" stroke="#63b8ff" d="M83.85,-56.79C119.57,-47.86 183.15,-31.96 225.7,-21.32"/>
<polygon fill="#63b8ff" stroke="#63b8ff" points="226.51,-24.73 235.37,-18.91 224.82,-17.94 226.51,-24.73"/>
</g>
<!-- Node8 -->
<g id="node8" class="node">
<title>Node8</title>
<g id="a_node8"><a xlink:href="sysclib_8h.html" target="_top" xlink:title=" ">
<polygon fill="white" stroke="#666666" points="225,-184 171,-184 171,-165 225,-165 225,-184"/>
<text text-anchor="middle" x="198" y="-172" font-family="Helvetica,sans-Serif" font-size="10.00">sysclib.h</text>
</a>
</g>
</g>
<!-- Node7&#45;&gt;Node8 -->
<g id="edge8" class="edge">
<title>Node7&#45;&gt;Node8</title>
<path fill="none" stroke="#63b8ff" d="M230.56,-219.75C225.34,-212.66 217.81,-202.42 211.31,-193.59"/>
<polygon fill="#63b8ff" stroke="#63b8ff" points="214.22,-191.64 205.48,-185.66 208.58,-195.79 214.22,-191.64"/>
</g>
<!-- Node8&#45;&gt;Node5 -->
<g id="edge14" class="edge">
<title>Node8&#45;&gt;Node5</title>
<path fill="none" stroke="#63b8ff" d="M173.23,-164.51C149.6,-155.93 113.76,-142.92 87.17,-133.27"/>
<polygon fill="#63b8ff" stroke="#63b8ff" points="88.42,-130 77.82,-129.87 86.03,-136.58 88.42,-130"/>
</g>
<!-- Node9 -->
<g id="node9" class="node">
<title>Node9</title>
<g id="a_node9"><a xlink:href="iop_2kernel_2include_2types_8h_source.html" target="_top" xlink:title=" ">
<polygon fill="white" stroke="#666666" points="163.5,-74 116.5,-74 116.5,-55 163.5,-55 163.5,-74"/>
<text text-anchor="middle" x="140" y="-62" font-family="Helvetica,sans-Serif" font-size="10.00">types.h</text>
</a>
</g>
</g>
<!-- Node8&#45;&gt;Node9 -->
<g id="edge9" class="edge">
<title>Node8&#45;&gt;Node9</title>
<path fill="none" stroke="#63b8ff" d="M201.71,-164.7C206.52,-151.88 213.23,-127.66 204,-110 197.19,-96.98 184.64,-86.99 172.45,-79.82"/>
<polygon fill="#63b8ff" stroke="#63b8ff" points="174.23,-76.8 163.76,-75.16 170.92,-82.97 174.23,-76.8"/>
</g>
<!-- Node10 -->
<g id="node10" class="node">
<title>Node10</title>
<g id="a_node10"><a xlink:href="irx_8h.html" target="_top" xlink:title=" ">
<polygon fill="white" stroke="#666666" points="130,-129 96,-129 96,-110 130,-110 130,-129"/>
<text text-anchor="middle" x="113" y="-117" font-family="Helvetica,sans-Serif" font-size="10.00">irx.h</text>
</a>
</g>
</g>
<!-- Node8&#45;&gt;Node10 -->
<g id="edge12" class="edge">
<title>Node8&#45;&gt;Node10</title>
<path fill="none" stroke="#63b8ff" d="M183.58,-164.51C170.8,-156.54 151.9,-144.75 136.87,-135.38"/>
<polygon fill="#63b8ff" stroke="#63b8ff" points="138.83,-132.48 128.49,-130.16 135.12,-138.42 138.83,-132.48"/>
</g>
<!-- Node11 -->
<g id="node11" class="node">
<title>Node11</title>
<g id="a_node11"><a xlink:href="setjmp_8h.html" target="_top" xlink:title=" ">
<polygon fill="white" stroke="#666666" points="263.5,-74 210.5,-74 210.5,-55 263.5,-55 263.5,-74"/>
<text text-anchor="middle" x="237" y="-62" font-family="Helvetica,sans-Serif" font-size="10.00">setjmp.h</text>
</a>
</g>
</g>
<!-- Node8&#45;&gt;Node11 -->
<g id="edge15" class="edge">
<title>Node8&#45;&gt;Node11</title>
<path fill="none" stroke="#63b8ff" d="M209.64,-164.73C219.31,-156.67 232.35,-143.74 238,-129 243.27,-115.26 242.77,-98.58 241.09,-85.76"/>
<polygon fill="#63b8ff" stroke="#63b8ff" points="244.55,-85.26 239.43,-75.98 237.65,-86.43 244.55,-85.26"/>
</g>
<!-- Node12 -->
<g id="node12" class="node">
<title>Node12</title>
<g id="a_node12"><a xlink:href="ctype_8h.html" target="_top" xlink:title=" ">
<polygon fill="white" stroke="#666666" points="195.5,-129 148.5,-129 148.5,-110 195.5,-110 195.5,-129"/>
<text text-anchor="middle" x="172" y="-117" font-family="Helvetica,sans-Serif" font-size="10.00">ctype.h</text>
</a>
</g>
</g>
<!-- Node8&#45;&gt;Node12 -->
<g id="edge17" class="edge">
<title>Node8&#45;&gt;Node12</title>
<path fill="none" stroke="#63b8ff" d="M193.71,-164.75C190.38,-157.96 185.64,-148.3 181.44,-139.73"/>
<polygon fill="#63b8ff" stroke="#63b8ff" points="184.6,-138.24 177.05,-130.8 178.32,-141.32 184.6,-138.24"/>
</g>
<!-- Node9&#45;&gt;Node2 -->
<g id="edge11" class="edge">
<title>Node9&#45;&gt;Node2</title>
<path fill="none" stroke="#63b8ff" d="M161.88,-54.51C182.49,-46.04 213.59,-33.27 236.98,-23.66"/>
<polygon fill="#63b8ff" stroke="#63b8ff" points="238.12,-26.97 246.04,-19.93 235.46,-20.5 238.12,-26.97"/>
</g>
<!-- Node9&#45;&gt;Node4 -->
<g id="edge10" class="edge">
<title>Node9&#45;&gt;Node4</title>
<path fill="none" stroke="#63b8ff" d="M127.11,-54.51C115.9,-46.7 99.43,-35.21 86.12,-25.93"/>
<polygon fill="#63b8ff" stroke="#63b8ff" points="88.15,-23.07 77.94,-20.22 84.14,-28.81 88.15,-23.07"/>
</g>
<!-- Node10&#45;&gt;Node9 -->
<g id="edge13" class="edge">
<title>Node10&#45;&gt;Node9</title>
<path fill="none" stroke="#63b8ff" d="M117.46,-109.75C120.95,-102.88 125.95,-93.08 130.35,-84.45"/>
<polygon fill="#63b8ff" stroke="#63b8ff" points="133.34,-86.29 134.76,-75.79 127.1,-83.11 133.34,-86.29"/>
</g>
<!-- Node11&#45;&gt;Node2 -->
<g id="edge16" class="edge">
<title>Node11&#45;&gt;Node2</title>
<path fill="none" stroke="#63b8ff" d="M242.28,-54.75C246.47,-47.81 252.48,-37.86 257.73,-29.16"/>
<polygon fill="#63b8ff" stroke="#63b8ff" points="260.65,-31.11 262.82,-20.74 254.65,-27.49 260.65,-31.11"/>
</g>
<!-- Node14&#45;&gt;Node2 -->
<g id="edge20" class="edge">
<title>Node14&#45;&gt;Node2</title>
<path fill="none" stroke="#63b8ff" d="M295.72,-54.75C291.53,-47.81 285.52,-37.86 280.27,-29.16"/>
<polygon fill="#63b8ff" stroke="#63b8ff" points="283.35,-27.49 275.18,-20.74 277.35,-31.11 283.35,-27.49"/>
</g>
<!-- Node15&#45;&gt;Node2 -->
<g id="edge22" class="edge">
<title>Node15&#45;&gt;Node2</title>
<path fill="none" stroke="#63b8ff" d="M351.46,-164.69C352.14,-143.91 351.38,-90.85 329,-55 321.3,-42.66 308.83,-32.59 297.25,-25.18"/>
<polygon fill="#63b8ff" stroke="#63b8ff" points="299.13,-22.22 288.74,-20.12 295.55,-28.24 299.13,-22.22"/>
</g>
</g>
</svg>
