<?xml version="1.0" encoding="UTF-8" standalone="no"?>
<!DOCTYPE svg PUBLIC "-//W3C//DTD SVG 1.1//EN"
 "http://www.w3.org/Graphics/SVG/1.1/DTD/svg11.dtd">
<!-- Generated by graphviz version 7.0.5 (20221223.1930)
 -->
<!-- Title: ee/rpc/cdvd/src/internal.h Pages: 1 -->
<svg width="407pt" height="82pt"
 viewBox="0.00 0.00 407.00 82.00" xmlns="http://www.w3.org/2000/svg" xmlns:xlink="http://www.w3.org/1999/xlink">
<g id="graph0" class="graph" transform="scale(1 1) rotate(0) translate(4 78)">
<title>ee/rpc/cdvd/src/internal.h</title>
<!-- Node1 -->
<g id="node1" class="node">
<title>Node1</title>
<g id="a_node1"><a xlink:title=" ">
<polygon fill="#999999" stroke="#666666" points="265.5,-74 139.5,-74 139.5,-55 265.5,-55 265.5,-74"/>
<text text-anchor="middle" x="202.5" y="-62" font-family="Helvetica,sans-Serif" font-size="10.00">ee/rpc/cdvd/src/internal.h</text>
</a>
</g>
</g>
<!-- Node2 -->
<g id="node2" class="node">
<title>Node2</title>
<g id="a_node2"><a xlink:href="libcdvd_8c.html" target="_top" xlink:title=" ">
<polygon fill="white" stroke="#666666" points="125,-19 0,-19 0,0 125,0 125,-19"/>
<text text-anchor="middle" x="62.5" y="-7" font-family="Helvetica,sans-Serif" font-size="10.00">ee/rpc/cdvd/src/libcdvd.c</text>
</a>
</g>
</g>
<!-- Node1&#45;&gt;Node2 -->
<g id="edge1" class="edge">
<title>Node1&#45;&gt;Node2</title>
<path fill="none" stroke="#63b8ff" d="M168.04,-50.45C142.49,-40.78 108.34,-27.85 85.9,-19.36"/>
<polygon fill="#63b8ff" stroke="#63b8ff" points="166.74,-53.71 177.34,-53.97 169.22,-47.16 166.74,-53.71"/>
</g>
<!-- Node3 -->
<g id="node3" class="node">
<title>Node3</title>
<g id="a_node3"><a xlink:href="ncmd_8c.html" target="_top" xlink:title=" ">
<polygon fill="white" stroke="#666666" points="262,-19 143,-19 143,0 262,0 262,-19"/>
<text text-anchor="middle" x="202.5" y="-7" font-family="Helvetica,sans-Serif" font-size="10.00">ee/rpc/cdvd/src/ncmd.c</text>
</a>
</g>
</g>
<!-- Node1&#45;&gt;Node3 -->
<g id="edge2" class="edge">
<title>Node1&#45;&gt;Node3</title>
<path fill="none" stroke="#63b8ff" d="M202.5,-43.35C202.5,-35.1 202.5,-25.97 202.5,-19.44"/>
<polygon fill="#63b8ff" stroke="#63b8ff" points="199,-43.23 202.5,-53.23 206,-43.23 199,-43.23"/>
</g>
<!-- Node4 -->
<g id="node4" class="node">
<title>Node4</title>
<g id="a_node4"><a xlink:href="scmd_8c.html" target="_top" xlink:title=" ">
<polygon fill="white" stroke="#666666" points="399,-19 280,-19 280,0 399,0 399,-19"/>
<text text-anchor="middle" x="339.5" y="-7" font-family="Helvetica,sans-Serif" font-size="10.00">ee/rpc/cdvd/src/scmd.c</text>
</a>
</g>
</g>
<!-- Node1&#45;&gt;Node4 -->
<g id="edge3" class="edge">
<title>Node1&#45;&gt;Node4</title>
<path fill="none" stroke="#63b8ff" d="M236.22,-50.45C261.23,-40.78 294.64,-27.85 316.6,-19.36"/>
<polygon fill="#63b8ff" stroke="#63b8ff" points="235.22,-47.09 227.15,-53.96 237.74,-53.62 235.22,-47.09"/>
</g>
</g>
</svg>
