<?xml version="1.0" encoding="UTF-8" standalone="no"?>
<!DOCTYPE svg PUBLIC "-//W3C//DTD SVG 1.1//EN"
 "http://www.w3.org/Graphics/SVG/1.1/DTD/svg11.dtd">
<!-- Generated by graphviz version 7.0.5 (20221223.1930)
 -->
<!-- Title: ee/kernel/include/sifrpc.h Pages: 1 -->
<svg width="133pt" height="137pt"
 viewBox="0.00 0.00 133.00 137.00" xmlns="http://www.w3.org/2000/svg" xmlns:xlink="http://www.w3.org/1999/xlink">
<g id="graph0" class="graph" transform="scale(1 1) rotate(0) translate(4 133)">
<title>ee/kernel/include/sifrpc.h</title>
<!-- Node1 -->
<g id="node1" class="node">
<title>Node1</title>
<g id="a_node1"><a xlink:title=" ">
<polygon fill="#999999" stroke="#666666" points="125,-129 0,-129 0,-110 125,-110 125,-129"/>
<text text-anchor="middle" x="62.5" y="-117" font-family="Helvetica,sans-Serif" font-size="10.00">ee/kernel/include/sifrpc.h</text>
</a>
</g>
</g>
<!-- Node2 -->
<g id="node2" class="node">
<title>Node2</title>
<g id="a_node2"><a xlink:href="ee_2kernel_2include_2sifcmd_8h.html" target="_top" xlink:title=" ">
<polygon fill="white" stroke="#666666" points="89,-74 36,-74 36,-55 89,-55 89,-74"/>
<text text-anchor="middle" x="62.5" y="-62" font-family="Helvetica,sans-Serif" font-size="10.00">sifcmd.h</text>
</a>
</g>
</g>
<!-- Node1&#45;&gt;Node2 -->
<g id="edge1" class="edge">
<title>Node1&#45;&gt;Node2</title>
<path fill="none" stroke="#63b8ff" d="M62.5,-109.75C62.5,-103.27 62.5,-94.16 62.5,-85.9"/>
<polygon fill="#63b8ff" stroke="#63b8ff" points="66,-85.96 62.5,-75.96 59,-85.96 66,-85.96"/>
</g>
<!-- Node3 -->
<g id="node3" class="node">
<title>Node3</title>
<g id="a_node3"><a xlink:href="tamtypes_8h.html" target="_top" xlink:title=" ">
<polygon fill="white" stroke="#666666" points="94.5,-19 30.5,-19 30.5,0 94.5,0 94.5,-19"/>
<text text-anchor="middle" x="62.5" y="-7" font-family="Helvetica,sans-Serif" font-size="10.00">tamtypes.h</text>
</a>
</g>
</g>
<!-- Node2&#45;&gt;Node3 -->
<g id="edge2" class="edge">
<title>Node2&#45;&gt;Node3</title>
<path fill="none" stroke="#63b8ff" d="M62.5,-54.75C62.5,-48.27 62.5,-39.16 62.5,-30.9"/>
<polygon fill="#63b8ff" stroke="#63b8ff" points="66,-30.96 62.5,-20.96 59,-30.96 66,-30.96"/>
</g>
</g>
</svg>
