<?xml version="1.0" encoding="UTF-8" standalone="no"?>
<!DOCTYPE svg PUBLIC "-//W3C//DTD SVG 1.1//EN"
 "http://www.w3.org/Graphics/SVG/1.1/DTD/svg11.dtd">
<!-- Generated by graphviz version 7.0.5 (20221223.1930)
 -->
<!-- Title: ee/kernel/src/loadfile.c Pages: 1 -->
<!--zoomable 302 -->
<svg id="main" version="1.1" xmlns="http://www.w3.org/2000/svg" xmlns:xlink="http://www.w3.org/1999/xlink" xml:space="preserve" onload="init(evt)">
<style type="text/css"><![CDATA[
.edge:hover path { stroke: red; }
.edge:hover polygon { stroke: red; fill: red; }
]]></style>
<script type="text/javascript"><![CDATA[
var edges = document.getElementsByTagName('g');
if (edges && edges.length) {
  for (var i=0;i<edges.length;i++) {
    if (edges[i].id.substr(0,4)=='edge') {
      edges[i].setAttribute('class','edge');
    }
  }
}
]]></script>
        <defs>
                <circle id="rim" cx="0" cy="0" r="7"/>
                <circle id="rim2" cx="0" cy="0" r="3.5"/>
                <g id="zoomPlus">
                        <use xlink:href="#rim" fill="#404040">
                                <set attributeName="fill" to="#808080" begin="zoomplus.mouseover" end="zoomplus.mouseout"/>
                        </use>
                        <path d="M-4,0h8M0,-4v8" fill="none" stroke="white" stroke-width="1.5" pointer-events="none"/>
                </g>
                <g id="zoomMin">
                        <use xlink:href="#rim" fill="#404040">
                                <set attributeName="fill" to="#808080" begin="zoomminus.mouseover" end="zoomminus.mouseout"/>
                        </use>
                        <path d="M-4,0h8" fill="none" stroke="white" stroke-width="1.5" pointer-events="none"/>
                </g>
                <g id="dirArrow">
                        <path fill="none" stroke="white" stroke-width="1.5" d="M0,-3.0v7 M-2.5,-0.5L0,-3.0L2.5,-0.5"/>
                </g>
               <g id="resetDef">
                       <use xlink:href="#rim2" fill="#404040">
                               <set attributeName="fill" to="#808080" begin="reset.mouseover" end="reset.mouseout"/>
                       </use>
               </g>
        </defs>

<script type="text/javascript">
var viewWidth = 866;
var viewHeight = 302;
var sectionId = 'dynsection-0';
</script>
<script xlink:href="svgpan.js"/>
<svg id="graph" class="graph">
<g id="viewport">
<title>ee/kernel/src/loadfile.c</title>
<!-- Node1 -->
<g id="node1" class="node">
<title>Node1</title>
<g id="a_node1"><a xlink:title=" ">
<polygon fill="#999999" stroke="#666666" points="609.17,-294 496.17,-294 496.17,-275 609.17,-275 609.17,-294"/>
<text text-anchor="middle" x="552.67" y="-282" font-family="Helvetica,sans-Serif" font-size="10.00">ee/kernel/src/loadfile.c</text>
</a>
</g>
</g>
<!-- Node2 -->
<g id="node2" class="node">
<title>Node2</title>
<g id="a_node2"><a xlink:href="tamtypes_8h.html" target="_top" xlink:title=" ">
<polygon fill="white" stroke="#666666" points="353.67,-19 289.67,-19 289.67,0 353.67,0 353.67,-19"/>
<text text-anchor="middle" x="321.67" y="-7" font-family="Helvetica,sans-Serif" font-size="10.00">tamtypes.h</text>
</a>
</g>
</g>
<!-- Node1&#45;&gt;Node2 -->
<g id="edge1" class="edge">
<title>Node1&#45;&gt;Node2</title>
<path fill="none" stroke="#63b8ff" d="M541.87,-274.68C532.39,-266.39 518.85,-253.17 510.67,-239 495.94,-213.49 491.67,-204.96 491.67,-175.5 491.67,-175.5 491.67,-175.5 491.67,-118.5 491.67,-58.52 415.35,-30.43 364.98,-18.43"/>
<polygon fill="#63b8ff" stroke="#63b8ff" points="366.04,-15.08 355.52,-16.3 364.51,-21.91 366.04,-15.08"/>
</g>
<!-- Node3 -->
<g id="node3" class="node">
<title>Node3</title>
<g id="a_node3"><a xlink:href="ps2lib__err_8h.html" target="_top" xlink:title=" ">
<polygon fill="white" stroke="#666666" points="585.67,-239 519.67,-239 519.67,-220 585.67,-220 585.67,-239"/>
<text text-anchor="middle" x="552.67" y="-227" font-family="Helvetica,sans-Serif" font-size="10.00">ps2lib_err.h</text>
</a>
</g>
</g>
<!-- Node1&#45;&gt;Node3 -->
<g id="edge2" class="edge">
<title>Node1&#45;&gt;Node3</title>
<path fill="none" stroke="#63b8ff" d="M552.67,-274.75C552.67,-268.27 552.67,-259.16 552.67,-250.9"/>
<polygon fill="#63b8ff" stroke="#63b8ff" points="556.17,-250.96 552.67,-240.96 549.17,-250.96 556.17,-250.96"/>
</g>
<!-- Node4 -->
<g id="node4" class="node">
<title>Node4</title>
<g id="a_node4"><a xlink:href="kernel_8h.html" target="_top" xlink:title=" ">
<polygon fill="white" stroke="#666666" points="293.67,-184 243.67,-184 243.67,-165 293.67,-165 293.67,-184"/>
<text text-anchor="middle" x="268.67" y="-172" font-family="Helvetica,sans-Serif" font-size="10.00">kernel.h</text>
</a>
</g>
</g>
<!-- Node1&#45;&gt;Node4 -->
<g id="edge3" class="edge">
<title>Node1&#45;&gt;Node4</title>
<path fill="none" stroke="#63b8ff" d="M527.84,-274.64C503.14,-265.78 464.2,-251.68 430.67,-239 385.61,-221.95 333.82,-201.5 301.18,-188.51"/>
<polygon fill="#63b8ff" stroke="#63b8ff" points="302.87,-185.41 292.28,-184.96 300.28,-191.91 302.87,-185.41"/>
</g>
<!-- Node8 -->
<g id="node8" class="node">
<title>Node8</title>
<g id="a_node8"><a xlink:title=" ">
<polygon fill="#e0e0e0" stroke="#999999" points="651.67,-239 603.67,-239 603.67,-220 651.67,-220 651.67,-239"/>
<text text-anchor="middle" x="627.67" y="-227" font-family="Helvetica,sans-Serif" font-size="10.00">sifrpc.h</text>
</a>
</g>
</g>
<!-- Node1&#45;&gt;Node8 -->
<g id="edge8" class="edge">
<title>Node1&#45;&gt;Node8</title>
<path fill="none" stroke="#63b8ff" d="M565.39,-274.51C576.45,-266.7 592.71,-255.21 605.84,-245.93"/>
<polygon fill="#63b8ff" stroke="#63b8ff" points="607.75,-248.86 613.9,-240.23 603.71,-243.14 607.75,-248.86"/>
</g>
<!-- Node9 -->
<g id="node9" class="node">
<title>Node9</title>
<g id="a_node9"><a xlink:href="string_8h_source.html" target="_top" xlink:title=" ">
<polygon fill="white" stroke="#666666" points="233.67,-239 185.67,-239 185.67,-220 233.67,-220 233.67,-239"/>
<text text-anchor="middle" x="209.67" y="-227" font-family="Helvetica,sans-Serif" font-size="10.00">string.h</text>
</a>
</g>
</g>
<!-- Node1&#45;&gt;Node9 -->
<g id="edge9" class="edge">
<title>Node1&#45;&gt;Node9</title>
<path fill="none" stroke="#63b8ff" d="M496.03,-274.75C424.67,-263.72 304.23,-245.11 244.88,-235.94"/>
<polygon fill="#63b8ff" stroke="#63b8ff" points="245.77,-232.54 235.35,-234.47 244.7,-239.45 245.77,-232.54"/>
</g>
<!-- Node15 -->
<g id="node15" class="node">
<title>Node15</title>
<g id="a_node15"><a xlink:href="loadfile_8h.html" target="_top" xlink:title=" ">
<polygon fill="white" stroke="#666666" points="463.67,-129 409.67,-129 409.67,-110 463.67,-110 463.67,-129"/>
<text text-anchor="middle" x="436.67" y="-117" font-family="Helvetica,sans-Serif" font-size="10.00">loadfile.h</text>
</a>
</g>
</g>
<!-- Node1&#45;&gt;Node15 -->
<g id="edge20" class="edge">
<title>Node1&#45;&gt;Node15</title>
<path fill="none" stroke="#63b8ff" d="M529.03,-274.64C512.54,-267.36 491.16,-255.54 477.67,-239 453.77,-209.7 443.43,-165.62 439.25,-140.3"/>
<polygon fill="#63b8ff" stroke="#63b8ff" points="442.76,-140.11 437.84,-130.73 435.83,-141.13 442.76,-140.11"/>
</g>
<!-- Node17 -->
<g id="node17" class="node">
<title>Node17</title>
<g id="a_node17"><a xlink:href="iopheap_8h.html" target="_top" xlink:title=" ">
<polygon fill="white" stroke="#666666" points="727.67,-239 669.67,-239 669.67,-220 727.67,-220 727.67,-239"/>
<text text-anchor="middle" x="698.67" y="-227" font-family="Helvetica,sans-Serif" font-size="10.00">iopheap.h</text>
</a>
</g>
</g>
<!-- Node1&#45;&gt;Node17 -->
<g id="edge24" class="edge">
<title>Node1&#45;&gt;Node17</title>
<path fill="none" stroke="#63b8ff" d="M577.43,-274.51C601.07,-265.93 636.91,-252.92 663.5,-243.27"/>
<polygon fill="#63b8ff" stroke="#63b8ff" points="664.64,-246.58 672.84,-239.87 662.25,-240 664.64,-246.58"/>
</g>
<!-- Node18 -->
<g id="node18" class="node">
<title>Node18</title>
<g id="a_node18"><a xlink:href="fcntl_8h_source.html" target="_top" xlink:title=" ">
<polygon fill="white" stroke="#666666" points="789.17,-239 746.17,-239 746.17,-220 789.17,-220 789.17,-239"/>
<text text-anchor="middle" x="767.67" y="-227" font-family="Helvetica,sans-Serif" font-size="10.00">fcntl.h</text>
</a>
</g>
</g>
<!-- Node1&#45;&gt;Node18 -->
<g id="edge25" class="edge">
<title>Node1&#45;&gt;Node18</title>
<path fill="none" stroke="#63b8ff" d="M591.17,-274.55C626.12,-266.34 679.37,-253.64 734.6,-239.47"/>
<polygon fill="#63b8ff" stroke="#63b8ff" points="735.4,-242.88 744.21,-237 733.65,-236.1 735.4,-242.88"/>
</g>
<!-- Node19 -->
<g id="node19" class="node">
<title>Node19</title>
<g id="a_node19"><a xlink:href="unistd_8h_source.html" target="_top" xlink:title=" ">
<polygon fill="white" stroke="#666666" points="857.67,-239 807.67,-239 807.67,-220 857.67,-220 857.67,-239"/>
<text text-anchor="middle" x="832.67" y="-227" font-family="Helvetica,sans-Serif" font-size="10.00">unistd.h</text>
</a>
</g>
</g>
<!-- Node1&#45;&gt;Node19 -->
<g id="edge26" class="edge">
<title>Node1&#45;&gt;Node19</title>
<path fill="none" stroke="#63b8ff" d="M608.07,-274.55C655.63,-266.63 726.23,-254.29 796.62,-239.32"/>
<polygon fill="#63b8ff" stroke="#63b8ff" points="796.94,-242.84 805.98,-237.32 795.47,-235.99 796.94,-242.84"/>
</g>
<!-- Node5 -->
<g id="node5" class="node">
<title>Node5</title>
<g id="a_node5"><a xlink:title=" ">
<polygon fill="#e0e0e0" stroke="#999999" points="220.17,-19 169.17,-19 169.17,0 220.17,0 220.17,-19"/>
<text text-anchor="middle" x="194.67" y="-7" font-family="Helvetica,sans-Serif" font-size="10.00">stddef.h</text>
</a>
</g>
</g>
<!-- Node4&#45;&gt;Node5 -->
<g id="edge4" class="edge">
<title>Node4&#45;&gt;Node5</title>
<path fill="none" stroke="#63b8ff" d="M264.69,-164.74C253.15,-139.31 219.45,-65.08 203.38,-29.69"/>
<polygon fill="#63b8ff" stroke="#63b8ff" points="206.61,-28.34 199.29,-20.69 200.24,-31.24 206.61,-28.34"/>
</g>
<!-- Node6 -->
<g id="node6" class="node">
<title>Node6</title>
<g id="a_node6"><a xlink:title=" ">
<polygon fill="#e0e0e0" stroke="#999999" points="221.17,-129 170.17,-129 170.17,-110 221.17,-110 221.17,-129"/>
<text text-anchor="middle" x="195.67" y="-117" font-family="Helvetica,sans-Serif" font-size="10.00">stdarg.h</text>
</a>
</g>
</g>
<!-- Node4&#45;&gt;Node6 -->
<g id="edge5" class="edge">
<title>Node4&#45;&gt;Node6</title>
<path fill="none" stroke="#63b8ff" d="M256.28,-164.51C245.52,-156.7 229.7,-145.21 216.92,-135.93"/>
<polygon fill="#63b8ff" stroke="#63b8ff" points="219.24,-133.29 209.09,-130.25 215.13,-138.95 219.24,-133.29"/>
</g>
<!-- Node7 -->
<g id="node7" class="node">
<title>Node7</title>
<g id="a_node7"><a xlink:href="sifdma_8h.html" target="_top" xlink:title=" ">
<polygon fill="white" stroke="#666666" points="312.17,-74 259.17,-74 259.17,-55 312.17,-55 312.17,-74"/>
<text text-anchor="middle" x="285.67" y="-62" font-family="Helvetica,sans-Serif" font-size="10.00">sifdma.h</text>
</a>
</g>
</g>
<!-- Node4&#45;&gt;Node7 -->
<g id="edge6" class="edge">
<title>Node4&#45;&gt;Node7</title>
<path fill="none" stroke="#63b8ff" d="M270.06,-164.66C272.76,-147.5 278.78,-109.26 282.5,-85.6"/>
<polygon fill="#63b8ff" stroke="#63b8ff" points="285.92,-86.38 284.02,-75.96 279.01,-85.29 285.92,-86.38"/>
</g>
<!-- Node7&#45;&gt;Node2 -->
<g id="edge7" class="edge">
<title>Node7&#45;&gt;Node2</title>
<path fill="none" stroke="#63b8ff" d="M291.61,-54.75C296.38,-47.73 303.23,-37.64 309.19,-28.87"/>
<polygon fill="#63b8ff" stroke="#63b8ff" points="312.02,-30.93 314.74,-20.69 306.23,-27 312.02,-30.93"/>
</g>
<!-- Node10 -->
<g id="node10" class="node">
<title>Node10</title>
<g id="a_node10"><a xlink:href="sysclib_8h.html" target="_top" xlink:title=" ">
<polygon fill="white" stroke="#666666" points="146.67,-184 92.67,-184 92.67,-165 146.67,-165 146.67,-184"/>
<text text-anchor="middle" x="119.67" y="-172" font-family="Helvetica,sans-Serif" font-size="10.00">sysclib.h</text>
</a>
</g>
</g>
<!-- Node9&#45;&gt;Node10 -->
<g id="edge10" class="edge">
<title>Node9&#45;&gt;Node10</title>
<path fill="none" stroke="#63b8ff" d="M194.4,-219.51C180.74,-211.47 160.47,-199.53 144.48,-190.11"/>
<polygon fill="#63b8ff" stroke="#63b8ff" points="146.41,-187.18 136.01,-185.13 142.85,-193.22 146.41,-187.18"/>
</g>
<!-- Node10&#45;&gt;Node6 -->
<g id="edge16" class="edge">
<title>Node10&#45;&gt;Node6</title>
<path fill="none" stroke="#63b8ff" d="M132.56,-164.51C143.76,-156.7 160.24,-145.21 173.55,-135.93"/>
<polygon fill="#63b8ff" stroke="#63b8ff" points="175.52,-138.81 181.72,-130.22 171.52,-133.07 175.52,-138.81"/>
</g>
<!-- Node11 -->
<g id="node11" class="node">
<title>Node11</title>
<g id="a_node11"><a xlink:href="iop_2kernel_2include_2types_8h_source.html" target="_top" xlink:title=" ">
<polygon fill="white" stroke="#666666" points="126.17,-74 79.17,-74 79.17,-55 126.17,-55 126.17,-74"/>
<text text-anchor="middle" x="102.67" y="-62" font-family="Helvetica,sans-Serif" font-size="10.00">types.h</text>
</a>
</g>
</g>
<!-- Node10&#45;&gt;Node11 -->
<g id="edge11" class="edge">
<title>Node10&#45;&gt;Node11</title>
<path fill="none" stroke="#63b8ff" d="M92.22,-171.44C64.87,-167.77 24.21,-157.52 4.67,-129 -14.36,-101.23 32.52,-82.77 67.81,-73.23"/>
<polygon fill="#63b8ff" stroke="#63b8ff" points="68.47,-76.67 77.3,-70.81 66.75,-69.89 68.47,-76.67"/>
</g>
<!-- Node12 -->
<g id="node12" class="node">
<title>Node12</title>
<g id="a_node12"><a xlink:href="irx_8h.html" target="_top" xlink:title=" ">
<polygon fill="white" stroke="#666666" points="113.67,-129 79.67,-129 79.67,-110 113.67,-110 113.67,-129"/>
<text text-anchor="middle" x="96.67" y="-117" font-family="Helvetica,sans-Serif" font-size="10.00">irx.h</text>
</a>
</g>
</g>
<!-- Node10&#45;&gt;Node12 -->
<g id="edge14" class="edge">
<title>Node10&#45;&gt;Node12</title>
<path fill="none" stroke="#63b8ff" d="M115.87,-164.75C112.92,-157.96 108.73,-148.3 105.02,-139.73"/>
<polygon fill="#63b8ff" stroke="#63b8ff" points="108.34,-138.61 101.15,-130.83 101.92,-141.4 108.34,-138.61"/>
</g>
<!-- Node13 -->
<g id="node13" class="node">
<title>Node13</title>
<g id="a_node13"><a xlink:href="setjmp_8h.html" target="_top" xlink:title=" ">
<polygon fill="white" stroke="#666666" points="200.17,-74 147.17,-74 147.17,-55 200.17,-55 200.17,-74"/>
<text text-anchor="middle" x="173.67" y="-62" font-family="Helvetica,sans-Serif" font-size="10.00">setjmp.h</text>
</a>
</g>
</g>
<!-- Node10&#45;&gt;Node13 -->
<g id="edge17" class="edge">
<title>Node10&#45;&gt;Node13</title>
<path fill="none" stroke="#63b8ff" d="M124.09,-164.66C132.79,-147.26 152.32,-108.19 164.11,-84.62"/>
<polygon fill="#63b8ff" stroke="#63b8ff" points="167.17,-86.32 168.51,-75.81 160.91,-83.19 167.17,-86.32"/>
</g>
<!-- Node14 -->
<g id="node14" class="node">
<title>Node14</title>
<g id="a_node14"><a xlink:href="ctype_8h.html" target="_top" xlink:title=" ">
<polygon fill="white" stroke="#666666" points="61.17,-129 14.17,-129 14.17,-110 61.17,-110 61.17,-129"/>
<text text-anchor="middle" x="37.67" y="-117" font-family="Helvetica,sans-Serif" font-size="10.00">ctype.h</text>
</a>
</g>
</g>
<!-- Node10&#45;&gt;Node14 -->
<g id="edge19" class="edge">
<title>Node10&#45;&gt;Node14</title>
<path fill="none" stroke="#63b8ff" d="M105.76,-164.51C93.43,-156.54 75.19,-144.75 60.69,-135.38"/>
<polygon fill="#63b8ff" stroke="#63b8ff" points="62.94,-132.67 52.64,-130.18 59.14,-138.55 62.94,-132.67"/>
</g>
<!-- Node11&#45;&gt;Node2 -->
<g id="edge13" class="edge">
<title>Node11&#45;&gt;Node2</title>
<path fill="none" stroke="#63b8ff" d="M126.39,-57.74C130.16,-56.82 134.02,-55.88 137.67,-55 185.86,-43.32 241.17,-29.95 278.46,-20.94"/>
<polygon fill="#63b8ff" stroke="#63b8ff" points="279.06,-24.39 287.95,-18.64 277.41,-17.59 279.06,-24.39"/>
</g>
<!-- Node11&#45;&gt;Node5 -->
<g id="edge12" class="edge">
<title>Node11&#45;&gt;Node5</title>
<path fill="none" stroke="#63b8ff" d="M118.27,-54.51C132.37,-46.39 153.36,-34.3 169.77,-24.85"/>
<polygon fill="#63b8ff" stroke="#63b8ff" points="171.06,-28.14 177.98,-20.11 167.57,-22.07 171.06,-28.14"/>
</g>
<!-- Node12&#45;&gt;Node11 -->
<g id="edge15" class="edge">
<title>Node12&#45;&gt;Node11</title>
<path fill="none" stroke="#63b8ff" d="M97.66,-109.75C98.4,-103.19 99.45,-93.95 100.39,-85.6"/>
<polygon fill="#63b8ff" stroke="#63b8ff" points="103.84,-86.28 101.49,-75.95 96.88,-85.49 103.84,-86.28"/>
</g>
<!-- Node13&#45;&gt;Node2 -->
<g id="edge18" class="edge">
<title>Node13&#45;&gt;Node2</title>
<path fill="none" stroke="#63b8ff" d="M198.77,-54.51C222.84,-45.89 259.39,-32.8 286.38,-23.14"/>
<polygon fill="#63b8ff" stroke="#63b8ff" points="287.27,-26.53 295.51,-19.87 284.91,-19.94 287.27,-26.53"/>
</g>
<!-- Node15&#45;&gt;Node2 -->
<g id="edge21" class="edge">
<title>Node15&#45;&gt;Node2</title>
<path fill="none" stroke="#63b8ff" d="M438.99,-109.75C441.93,-96.55 445.34,-71.35 433.67,-55 417.93,-32.95 389.45,-21.82 365.16,-16.2"/>
<polygon fill="#63b8ff" stroke="#63b8ff" points="365.97,-12.8 355.48,-14.23 364.58,-19.66 365.97,-12.8"/>
</g>
<!-- Node16 -->
<g id="node16" class="node">
<title>Node16</title>
<g id="a_node16"><a xlink:href="loadfile-common_8h.html" target="_top" xlink:title=" ">
<polygon fill="white" stroke="#666666" points="425.17,-74 330.17,-74 330.17,-55 425.17,-55 425.17,-74"/>
<text text-anchor="middle" x="377.67" y="-62" font-family="Helvetica,sans-Serif" font-size="10.00">loadfile&#45;common.h</text>
</a>
</g>
</g>
<!-- Node15&#45;&gt;Node16 -->
<g id="edge22" class="edge">
<title>Node15&#45;&gt;Node16</title>
<path fill="none" stroke="#63b8ff" d="M426.66,-109.51C418.3,-102 406.17,-91.1 396.07,-82.03"/>
<polygon fill="#63b8ff" stroke="#63b8ff" points="398.43,-79.45 388.65,-75.37 393.75,-84.66 398.43,-79.45"/>
</g>
<!-- Node16&#45;&gt;Node2 -->
<g id="edge23" class="edge">
<title>Node16&#45;&gt;Node2</title>
<path fill="none" stroke="#63b8ff" d="M368.17,-54.51C360.24,-47 348.72,-36.1 339.13,-27.03"/>
<polygon fill="#63b8ff" stroke="#63b8ff" points="341.8,-24.73 332.13,-20.4 336.98,-29.81 341.8,-24.73"/>
</g>
</g>
</svg>
        <g id="navigator" transform="translate(0 0)" fill="#404254">
                <rect fill="#f2f5e9" fill-opacity="0.5" stroke="#606060" stroke-width=".5" x="0" y="0" width="60" height="60"/>
                <use id="zoomplus" xlink:href="#zoomPlus" x="17" y="9" onmousedown="handleZoom(evt,'in')"/>
                <use id="zoomminus" xlink:href="#zoomMin" x="42" y="9" onmousedown="handleZoom(evt,'out')"/>
                <use id="reset" xlink:href="#resetDef" x="30" y="36" onmousedown="handleReset()"/>
                <g id="arrowUp" xlink:href="#dirArrow" transform="translate(30 24)" onmousedown="handlePan(0,-1)">
                  <use xlink:href="#rim" fill="#404040">
                        <set attributeName="fill" to="#808080" begin="arrowUp.mouseover" end="arrowUp.mouseout"/>
                  </use>
                  <path fill="none" stroke="white" stroke-width="1.5" d="M0,-3.0v7 M-2.5,-0.5L0,-3.0L2.5,-0.5"/>
                </g>
                <g id="arrowRight" xlink:href="#dirArrow" transform="rotate(90) translate(36 -43)" onmousedown="handlePan(1,0)">
                  <use xlink:href="#rim" fill="#404040">
                        <set attributeName="fill" to="#808080" begin="arrowRight.mouseover" end="arrowRight.mouseout"/>
                  </use>
                  <path fill="none" stroke="white" stroke-width="1.5" d="M0,-3.0v7 M-2.5,-0.5L0,-3.0L2.5,-0.5"/>
                </g>
                <g id="arrowDown" xlink:href="#dirArrow" transform="rotate(180) translate(-30 -48)" onmousedown="handlePan(0,1)">
                  <use xlink:href="#rim" fill="#404040">
                        <set attributeName="fill" to="#808080" begin="arrowDown.mouseover" end="arrowDown.mouseout"/>
                  </use>
                  <path fill="none" stroke="white" stroke-width="1.5" d="M0,-3.0v7 M-2.5,-0.5L0,-3.0L2.5,-0.5"/>
                </g>
                <g id="arrowLeft" xlink:href="#dirArrow" transform="rotate(270) translate(-36 17)" onmousedown="handlePan(-1,0)">
                  <use xlink:href="#rim" fill="#404040">
                        <set attributeName="fill" to="#808080" begin="arrowLeft.mouseover" end="arrowLeft.mouseout"/>
                  </use>
                  <path fill="none" stroke="white" stroke-width="1.5" d="M0,-3.0v7 M-2.5,-0.5L0,-3.0L2.5,-0.5"/>
                </g>
        </g>
        <svg viewBox="0 0 15 15" width="100%" height="30px" preserveAspectRatio="xMaxYMin meet">
         <g id="arrow_out" transform="scale(0.3 0.3)">
          <a xlink:href="ee_2kernel_2src_2loadfile_8c__incl_org.svg" target="_base">
           <rect id="button" ry="5" rx="5" y="6" x="6" height="38" width="38"
                fill="#f2f5e9" fill-opacity="0.5" stroke="#606060" stroke-width="1.0"/>
           <path id="arrow"
             d="M 11.500037,31.436501 C 11.940474,20.09759 22.043105,11.32322 32.158766,21.979434 L 37.068811,17.246167 C 37.068811,17.246167 37.088388,32 37.088388,32 L 22.160133,31.978069 C 22.160133,31.978069 26.997745,27.140456 26.997745,27.140456 C 18.528582,18.264221 13.291696,25.230495 11.500037,31.436501 z"
             style="fill:#404040;"/>
          </a>
         </g>
        </svg>
</svg>
