<?xml version="1.0" encoding="UTF-8" standalone="no"?>
<!DOCTYPE svg PUBLIC "-//W3C//DTD SVG 1.1//EN"
 "http://www.w3.org/Graphics/SVG/1.1/DTD/svg11.dtd">
<!-- Generated by graphviz version 7.0.5 (20221223.1930)
 -->
<!-- Title: common/include/ee_cop0_defs.h Pages: 1 -->
<svg width="245pt" height="159pt"
 viewBox="0.00 0.00 245.00 159.00" xmlns="http://www.w3.org/2000/svg" xmlns:xlink="http://www.w3.org/1999/xlink">
<g id="graph0" class="graph" transform="scale(1 1) rotate(0) translate(4 155)">
<title>common/include/ee_cop0_defs.h</title>
<!-- Node1 -->
<g id="node1" class="node">
<title>Node1</title>
<g id="a_node1"><a xlink:title=" ">
<polygon fill="#999999" stroke="#666666" points="191,-151 63,-151 63,-121 191,-121 191,-151"/>
<text text-anchor="start" x="71" y="-139" font-family="Helvetica,sans-Serif" font-size="10.00">common/include/ee_cop0</text>
<text text-anchor="middle" x="127" y="-128" font-family="Helvetica,sans-Serif" font-size="10.00">_defs.h</text>
</a>
</g>
</g>
<!-- Node2 -->
<g id="node2" class="node">
<title>Node2</title>
<g id="a_node2"><a xlink:href="ee__debug_8h.html" target="_top" xlink:title=" ">
<polygon fill="white" stroke="#666666" points="118.5,-85 17.5,-85 17.5,-55 118.5,-55 118.5,-85"/>
<text text-anchor="start" x="25.5" y="-73" font-family="Helvetica,sans-Serif" font-size="10.00">ee/eedebug/include</text>
<text text-anchor="middle" x="68" y="-62" font-family="Helvetica,sans-Serif" font-size="10.00">/ee_debug.h</text>
</a>
</g>
</g>
<!-- Node1&#45;&gt;Node2 -->
<g id="edge1" class="edge">
<title>Node1&#45;&gt;Node2</title>
<path fill="none" stroke="#63b8ff" d="M106.28,-112.53C97.89,-103.43 88.46,-93.19 81.06,-85.16"/>
<polygon fill="#63b8ff" stroke="#63b8ff" points="103.53,-114.7 112.88,-119.68 108.68,-109.96 103.53,-114.7"/>
</g>
<!-- Node4 -->
<g id="node4" class="node">
<title>Node4</title>
<g id="a_node4"><a xlink:href="tlbsrc_8c_source.html" target="_top" xlink:title=" ">
<polygon fill="white" stroke="#666666" points="237,-85 137,-85 137,-55 237,-55 237,-85"/>
<text text-anchor="start" x="145" y="-73" font-family="Helvetica,sans-Serif" font-size="10.00">ee/kernel/src/tlbsrc</text>
<text text-anchor="middle" x="187" y="-62" font-family="Helvetica,sans-Serif" font-size="10.00">/src/tlbsrc.c</text>
</a>
</g>
</g>
<!-- Node1&#45;&gt;Node4 -->
<g id="edge3" class="edge">
<title>Node1&#45;&gt;Node4</title>
<path fill="none" stroke="#63b8ff" d="M148.07,-112.53C156.6,-103.43 166.19,-93.19 173.72,-85.16"/>
<polygon fill="#63b8ff" stroke="#63b8ff" points="145.64,-110 141.35,-119.69 150.74,-114.79 145.64,-110"/>
</g>
<!-- Node3 -->
<g id="node3" class="node">
<title>Node3</title>
<g id="a_node3"><a xlink:href="ee__debug_8c_source.html" target="_top" xlink:title=" ">
<polygon fill="white" stroke="#666666" points="136,-19 0,-19 0,0 136,0 136,-19"/>
<text text-anchor="middle" x="68" y="-7" font-family="Helvetica,sans-Serif" font-size="10.00">ee/eedebug/src/ee_debug.c</text>
</a>
</g>
</g>
<!-- Node2&#45;&gt;Node3 -->
<g id="edge2" class="edge">
<title>Node2&#45;&gt;Node3</title>
<path fill="none" stroke="#63b8ff" d="M68,-43.3C68,-34.65 68,-25.58 68,-19.18"/>
<polygon fill="#63b8ff" stroke="#63b8ff" points="64.5,-43.03 68,-53.03 71.5,-43.03 64.5,-43.03"/>
</g>
</g>
</svg>
