<?xml version="1.0" encoding="UTF-8" standalone="no"?>
<!DOCTYPE svg PUBLIC "-//W3C//DTD SVG 1.1//EN"
 "http://www.w3.org/Graphics/SVG/1.1/DTD/svg11.dtd">
<!-- Generated by graphviz version 7.0.5 (20221223.1930)
 -->
<!-- Title: common/include/ee_regs.h Pages: 1 -->
<!--zoomable 225 -->
<svg id="main" version="1.1" xmlns="http://www.w3.org/2000/svg" xmlns:xlink="http://www.w3.org/1999/xlink" xml:space="preserve" onload="init(evt)">
<style type="text/css"><![CDATA[
.edge:hover path { stroke: red; }
.edge:hover polygon { stroke: red; fill: red; }
]]></style>
<script type="text/javascript"><![CDATA[
var edges = document.getElementsByTagName('g');
if (edges && edges.length) {
  for (var i=0;i<edges.length;i++) {
    if (edges[i].id.substr(0,4)=='edge') {
      edges[i].setAttribute('class','edge');
    }
  }
}
]]></script>
        <defs>
                <circle id="rim" cx="0" cy="0" r="7"/>
                <circle id="rim2" cx="0" cy="0" r="3.5"/>
                <g id="zoomPlus">
                        <use xlink:href="#rim" fill="#404040">
                                <set attributeName="fill" to="#808080" begin="zoomplus.mouseover" end="zoomplus.mouseout"/>
                        </use>
                        <path d="M-4,0h8M0,-4v8" fill="none" stroke="white" stroke-width="1.5" pointer-events="none"/>
                </g>
                <g id="zoomMin">
                        <use xlink:href="#rim" fill="#404040">
                                <set attributeName="fill" to="#808080" begin="zoomminus.mouseover" end="zoomminus.mouseout"/>
                        </use>
                        <path d="M-4,0h8" fill="none" stroke="white" stroke-width="1.5" pointer-events="none"/>
                </g>
                <g id="dirArrow">
                        <path fill="none" stroke="white" stroke-width="1.5" d="M0,-3.0v7 M-2.5,-0.5L0,-3.0L2.5,-0.5"/>
                </g>
               <g id="resetDef">
                       <use xlink:href="#rim2" fill="#404040">
                               <set attributeName="fill" to="#808080" begin="reset.mouseover" end="reset.mouseout"/>
                       </use>
               </g>
        </defs>

<script type="text/javascript">
var viewWidth = 1588;
var viewHeight = 225;
var sectionId = 'dynsection-1';
</script>
<script xlink:href="svgpan.js"/>
<svg id="graph" class="graph">
<g id="viewport">
<title>common/include/ee_regs.h</title>
<!-- Node1 -->
<g id="node1" class="node">
<title>Node1</title>
<g id="a_node1"><a xlink:title=" ">
<polygon fill="#999999" stroke="#666666" points="526.5,-217 393.5,-217 393.5,-198 526.5,-198 526.5,-217"/>
<text text-anchor="middle" x="460" y="-205" font-family="Helvetica,sans-Serif" font-size="10.00">common/include/ee_regs.h</text>
</a>
</g>
</g>
<!-- Node2 -->
<g id="node2" class="node">
<title>Node2</title>
<g id="a_node2"><a xlink:href="ps2__reg__defs_8h.html" target="_top" xlink:title=" ">
<polygon fill="white" stroke="#666666" points="452.5,-162 345.5,-162 345.5,-132 452.5,-132 452.5,-162"/>
<text text-anchor="start" x="353.5" y="-150" font-family="Helvetica,sans-Serif" font-size="10.00">common/include/ps2</text>
<text text-anchor="middle" x="399" y="-139" font-family="Helvetica,sans-Serif" font-size="10.00">_reg_defs.h</text>
</a>
</g>
</g>
<!-- Node1&#45;&gt;Node2 -->
<g id="edge1" class="edge">
<title>Node1&#45;&gt;Node2</title>
<path fill="none" stroke="#63b8ff" d="M442.51,-189.73C433.52,-181.11 422.67,-170.7 414.06,-162.44"/>
<polygon fill="#63b8ff" stroke="#63b8ff" points="440,-192.17 449.64,-196.57 444.85,-187.12 440,-192.17"/>
</g>
<!-- Node5 -->
<g id="node5" class="node">
<title>Node5</title>
<g id="a_node5"><a xlink:href="ee__sif2_8c_source.html" target="_top" xlink:title=" ">
<polygon fill="white" stroke="#666666" points="108,-30 0,-30 0,0 108,0 108,-30"/>
<text text-anchor="start" x="8" y="-18" font-family="Helvetica,sans-Serif" font-size="10.00">common/sbus/src/ee</text>
<text text-anchor="middle" x="54" y="-7" font-family="Helvetica,sans-Serif" font-size="10.00">_sif2.c</text>
</a>
</g>
</g>
<!-- Node1&#45;&gt;Node5 -->
<g id="edge30" class="edge">
<title>Node1&#45;&gt;Node5</title>
<path fill="none" stroke="#63b8ff" d="M422.4,-193.94C397.65,-185.44 364.65,-173.68 336,-162 270.81,-135.42 254.53,-128.36 192,-96 150.68,-74.62 104.16,-46.85 77.06,-30.28"/>
<polygon fill="#63b8ff" stroke="#63b8ff" points="421.12,-197.2 431.71,-197.11 423.37,-190.57 421.12,-197.2"/>
</g>
<!-- Node17 -->
<g id="node17" class="node">
<title>Node17</title>
<g id="a_node17"><a xlink:href="srcfile_2src_2alarm_8c_source.html" target="_top" xlink:title=" ">
<polygon fill="white" stroke="#666666" points="571.5,-162 470.5,-162 470.5,-132 571.5,-132 571.5,-162"/>
<text text-anchor="start" x="478.5" y="-150" font-family="Helvetica,sans-Serif" font-size="10.00">ee/kernel/src/srcfile</text>
<text text-anchor="middle" x="521" y="-139" font-family="Helvetica,sans-Serif" font-size="10.00">/src/alarm.c</text>
</a>
</g>
</g>
<!-- Node1&#45;&gt;Node17 -->
<g id="edge31" class="edge">
<title>Node1&#45;&gt;Node17</title>
<path fill="none" stroke="#63b8ff" d="M477.49,-189.73C486.48,-181.11 497.33,-170.7 505.94,-162.44"/>
<polygon fill="#63b8ff" stroke="#63b8ff" points="475.15,-187.12 470.36,-196.57 480,-192.17 475.15,-187.12"/>
</g>
<!-- Node18 -->
<g id="node18" class="node">
<title>Node18</title>
<g id="a_node18"><a xlink:href="libmpeg__core__c_8c_source.html" target="_top" xlink:title=" ">
<polygon fill="white" stroke="#666666" points="696.5,-162 589.5,-162 589.5,-132 696.5,-132 696.5,-162"/>
<text text-anchor="start" x="597.5" y="-150" font-family="Helvetica,sans-Serif" font-size="10.00">ee/mpeg/src/libmpeg</text>
<text text-anchor="middle" x="643" y="-139" font-family="Helvetica,sans-Serif" font-size="10.00">_core_c.c</text>
</a>
</g>
</g>
<!-- Node1&#45;&gt;Node18 -->
<g id="edge32" class="edge">
<title>Node1&#45;&gt;Node18</title>
<path fill="none" stroke="#63b8ff" d="M498.72,-194.12C527.7,-184.86 567.4,-172.17 597.83,-162.44"/>
<polygon fill="#63b8ff" stroke="#63b8ff" points="497.69,-190.78 489.24,-197.15 499.83,-197.44 497.69,-190.78"/>
</g>
<!-- Node3 -->
<g id="node3" class="node">
<title>Node3</title>
<g id="a_node3"><a xlink:href="ps2__sbus_8h.html" target="_top" xlink:title=" ">
<polygon fill="white" stroke="#666666" points="759,-96 647,-96 647,-66 759,-66 759,-96"/>
<text text-anchor="start" x="655" y="-84" font-family="Helvetica,sans-Serif" font-size="10.00">common/sbus/include</text>
<text text-anchor="middle" x="703" y="-73" font-family="Helvetica,sans-Serif" font-size="10.00">/ps2_sbus.h</text>
</a>
</g>
</g>
<!-- Node2&#45;&gt;Node3 -->
<g id="edge2" class="edge">
<title>Node2&#45;&gt;Node3</title>
<path fill="none" stroke="#63b8ff" d="M463.7,-131.44C531.89,-116.76 600.11,-102.77 646.7,-93.33"/>
<polygon fill="#63b8ff" stroke="#63b8ff" points="463.27,-127.95 454.23,-133.48 464.75,-134.79 463.27,-127.95"/>
</g>
<!-- Node4 -->
<g id="node4" class="node">
<title>Node4</title>
<g id="a_node4"><a xlink:href="ee__sbus_8c_source.html" target="_top" xlink:title=" ">
<polygon fill="white" stroke="#666666" points="1446,-30 1338,-30 1338,0 1446,0 1446,-30"/>
<text text-anchor="start" x="1346" y="-18" font-family="Helvetica,sans-Serif" font-size="10.00">common/sbus/src/ee</text>
<text text-anchor="middle" x="1392" y="-7" font-family="Helvetica,sans-Serif" font-size="10.00">_sbus.c</text>
</a>
</g>
</g>
<!-- Node2&#45;&gt;Node4 -->
<g id="edge15" class="edge">
<title>Node2&#45;&gt;Node4</title>
<path fill="none" stroke="#63b8ff" d="M463.8,-131.7C647.21,-103.94 697.4,-117.12 879,-96 1079.79,-72.65 1130.2,-66.62 1329,-30 1331.86,-29.47 1334.8,-28.91 1337.76,-28.32"/>
<polygon fill="#63b8ff" stroke="#63b8ff" points="463.53,-128.2 454.18,-133.18 464.59,-135.12 463.53,-128.2"/>
</g>
<!-- Node2&#45;&gt;Node5 -->
<g id="edge16" class="edge">
<title>Node2&#45;&gt;Node5</title>
<path fill="none" stroke="#63b8ff" d="M350.14,-127.59C280.85,-101.48 155.47,-54.24 92.41,-30.47"/>
<polygon fill="#63b8ff" stroke="#63b8ff" points="348.75,-130.81 359.34,-131.06 351.22,-124.26 348.75,-130.81"/>
</g>
<!-- Node7 -->
<g id="node7" class="node">
<title>Node7</title>
<g id="a_node7"><a xlink:href="iop__sif2_8c_source.html" target="_top" xlink:title=" ">
<polygon fill="white" stroke="#666666" points="368,-30 258,-30 258,0 368,0 368,-30"/>
<text text-anchor="start" x="266" y="-18" font-family="Helvetica,sans-Serif" font-size="10.00">common/sbus/src/iop</text>
<text text-anchor="middle" x="313" y="-7" font-family="Helvetica,sans-Serif" font-size="10.00">_sif2.c</text>
</a>
</g>
</g>
<!-- Node2&#45;&gt;Node7 -->
<g id="edge17" class="edge">
<title>Node2&#45;&gt;Node7</title>
<path fill="none" stroke="#63b8ff" d="M383.24,-122.17C365.5,-95.36 337.26,-52.67 322.57,-30.47"/>
<polygon fill="#63b8ff" stroke="#63b8ff" points="380.2,-123.92 388.63,-130.33 386.03,-120.06 380.2,-123.92"/>
</g>
<!-- Node9 -->
<g id="node9" class="node">
<title>Node9</title>
<g id="a_node9"><a xlink:href="ps2__sbus_8c_source.html" target="_top" xlink:title=" ">
<polygon fill="white" stroke="#666666" points="239.5,-30 126.5,-30 126.5,0 239.5,0 239.5,-30"/>
<text text-anchor="start" x="134.5" y="-18" font-family="Helvetica,sans-Serif" font-size="10.00">common/sbus/src/ps2</text>
<text text-anchor="middle" x="183" y="-7" font-family="Helvetica,sans-Serif" font-size="10.00">_sbus.c</text>
</a>
</g>
</g>
<!-- Node2&#45;&gt;Node9 -->
<g id="edge18" class="edge">
<title>Node2&#45;&gt;Node9</title>
<path fill="none" stroke="#63b8ff" d="M365.41,-125.78C321.5,-99.35 245.64,-53.7 207.05,-30.47"/>
<polygon fill="#63b8ff" stroke="#63b8ff" points="363.39,-128.65 373.76,-130.81 367,-122.66 363.39,-128.65"/>
</g>
<!-- Node10 -->
<g id="node10" class="node">
<title>Node10</title>
<g id="a_node10"><a xlink:href="ps2__sif_8c_source.html" target="_top" xlink:title=" ">
<polygon fill="white" stroke="#666666" points="499.5,-30 386.5,-30 386.5,0 499.5,0 499.5,-30"/>
<text text-anchor="start" x="394.5" y="-18" font-family="Helvetica,sans-Serif" font-size="10.00">common/sbus/src/ps2</text>
<text text-anchor="middle" x="443" y="-7" font-family="Helvetica,sans-Serif" font-size="10.00">_sif.c</text>
</a>
</g>
</g>
<!-- Node2&#45;&gt;Node10 -->
<g id="edge19" class="edge">
<title>Node2&#45;&gt;Node10</title>
<path fill="none" stroke="#63b8ff" d="M403.51,-120.44C406.7,-104.52 411.55,-83.75 418,-66 422.51,-53.59 429.28,-40.26 434.64,-30.48"/>
<polygon fill="#63b8ff" stroke="#63b8ff" points="400.11,-119.58 401.68,-130.06 406.98,-120.89 400.11,-119.58"/>
</g>
<!-- Node11 -->
<g id="node11" class="node">
<title>Node11</title>
<g id="a_node11"><a xlink:href="sif2cmd_8c_source.html" target="_top" xlink:title=" ">
<polygon fill="white" stroke="#666666" points="1320,-24.5 1180,-24.5 1180,-5.5 1320,-5.5 1320,-24.5"/>
<text text-anchor="middle" x="1250" y="-12.5" font-family="Helvetica,sans-Serif" font-size="10.00">common/sbus/src/sif2cmd.c</text>
</a>
</g>
</g>
<!-- Node2&#45;&gt;Node11 -->
<g id="edge29" class="edge">
<title>Node2&#45;&gt;Node11</title>
<path fill="none" stroke="#63b8ff" d="M463.85,-131.62C598.36,-109.15 635.54,-114.6 768,-96 947.73,-70.76 992.08,-60.5 1171,-30 1180.34,-28.41 1190.29,-26.67 1199.87,-24.99"/>
<polygon fill="#63b8ff" stroke="#63b8ff" points="463.47,-128.14 454.19,-133.26 464.64,-135.04 463.47,-128.14"/>
</g>
<!-- Node16 -->
<g id="node16" class="node">
<title>Node16</title>
<g id="a_node16"><a xlink:href="sbus__priv_8h_source.html" target="_top" xlink:title=" ">
<polygon fill="white" stroke="#666666" points="546.5,-96 427.5,-96 427.5,-66 546.5,-66 546.5,-96"/>
<text text-anchor="start" x="435.5" y="-84" font-family="Helvetica,sans-Serif" font-size="10.00">common/sbus/src/sbus</text>
<text text-anchor="middle" x="487" y="-73" font-family="Helvetica,sans-Serif" font-size="10.00">_priv.h</text>
</a>
</g>
</g>
<!-- Node2&#45;&gt;Node16 -->
<g id="edge20" class="edge">
<title>Node2&#45;&gt;Node16</title>
<path fill="none" stroke="#63b8ff" d="M427.53,-125.25C440.5,-115.82 455.52,-104.9 467.22,-96.39"/>
<polygon fill="#63b8ff" stroke="#63b8ff" points="425.78,-122.19 419.75,-130.91 429.9,-127.85 425.78,-122.19"/>
</g>
<!-- Node3&#45;&gt;Node4 -->
<g id="edge3" class="edge">
<title>Node3&#45;&gt;Node4</title>
<path fill="none" stroke="#63b8ff" d="M770.84,-77.67C886.1,-73.02 1127.3,-60.32 1329,-30 1331.88,-29.57 1334.83,-29.08 1337.79,-28.55"/>
<polygon fill="#63b8ff" stroke="#63b8ff" points="770.78,-74.17 760.93,-78.06 771.06,-81.16 770.78,-74.17"/>
</g>
<!-- Node3&#45;&gt;Node5 -->
<g id="edge4" class="edge">
<title>Node3&#45;&gt;Node5</title>
<path fill="none" stroke="#63b8ff" d="M635.47,-73.44C610.23,-71.03 581.31,-68.33 555,-66 360.44,-48.8 310.12,-59.25 117,-30 114.12,-29.56 111.17,-29.07 108.21,-28.54"/>
<polygon fill="#63b8ff" stroke="#63b8ff" points="635,-76.91 645.29,-74.37 635.66,-69.94 635,-76.91"/>
</g>
<!-- Node6 -->
<g id="node6" class="node">
<title>Node6</title>
<g id="a_node6"><a xlink:href="iop__sbus_8c_source.html" target="_top" xlink:title=" ">
<polygon fill="white" stroke="#666666" points="628,-30 518,-30 518,0 628,0 628,-30"/>
<text text-anchor="start" x="526" y="-18" font-family="Helvetica,sans-Serif" font-size="10.00">common/sbus/src/iop</text>
<text text-anchor="middle" x="573" y="-7" font-family="Helvetica,sans-Serif" font-size="10.00">_sbus.c</text>
</a>
</g>
</g>
<!-- Node3&#45;&gt;Node6 -->
<g id="edge5" class="edge">
<title>Node3&#45;&gt;Node6</title>
<path fill="none" stroke="#63b8ff" d="M663.57,-60.59C643.77,-50.84 620.21,-39.24 602.08,-30.31"/>
<polygon fill="#63b8ff" stroke="#63b8ff" points="661.95,-63.69 672.47,-64.97 665.04,-57.41 661.95,-63.69"/>
</g>
<!-- Node3&#45;&gt;Node7 -->
<g id="edge6" class="edge">
<title>Node3&#45;&gt;Node7</title>
<path fill="none" stroke="#63b8ff" d="M635.49,-70.91C569.41,-61.72 466,-46.54 377,-30 374.2,-29.48 371.34,-28.93 368.46,-28.36"/>
<polygon fill="#63b8ff" stroke="#63b8ff" points="634.69,-74.34 645.07,-72.24 635.65,-67.4 634.69,-74.34"/>
</g>
<!-- Node8 -->
<g id="node8" class="node">
<title>Node8</title>
<g id="a_node8"><a xlink:href="ps2__dbg_8c_source.html" target="_top" xlink:title=" ">
<polygon fill="white" stroke="#666666" points="759.5,-30 646.5,-30 646.5,0 759.5,0 759.5,-30"/>
<text text-anchor="start" x="654.5" y="-18" font-family="Helvetica,sans-Serif" font-size="10.00">common/sbus/src/ps2</text>
<text text-anchor="middle" x="703" y="-7" font-family="Helvetica,sans-Serif" font-size="10.00">_dbg.c</text>
</a>
</g>
</g>
<!-- Node3&#45;&gt;Node8 -->
<g id="edge7" class="edge">
<title>Node3&#45;&gt;Node8</title>
<path fill="none" stroke="#63b8ff" d="M703,-54.39C703,-46.13 703,-37.28 703,-30.16"/>
<polygon fill="#63b8ff" stroke="#63b8ff" points="699.5,-54.28 703,-64.28 706.5,-54.28 699.5,-54.28"/>
</g>
<!-- Node3&#45;&gt;Node9 -->
<g id="edge8" class="edge">
<title>Node3&#45;&gt;Node9</title>
<path fill="none" stroke="#63b8ff" d="M635.18,-73.37C527.35,-62.68 321.61,-41.67 249,-30 245.99,-29.52 242.92,-28.99 239.81,-28.43"/>
<polygon fill="#63b8ff" stroke="#63b8ff" points="634.76,-76.84 645.06,-74.34 635.45,-69.88 634.76,-76.84"/>
</g>
<!-- Node3&#45;&gt;Node10 -->
<g id="edge9" class="edge">
<title>Node3&#45;&gt;Node10</title>
<path fill="none" stroke="#63b8ff" d="M635.58,-63.4C593.42,-53.03 539.73,-39.81 499.75,-29.97"/>
<polygon fill="#63b8ff" stroke="#63b8ff" points="634.57,-66.76 645.11,-65.75 636.24,-59.96 634.57,-66.76"/>
</g>
<!-- Node3&#45;&gt;Node11 -->
<g id="edge10" class="edge">
<title>Node3&#45;&gt;Node11</title>
<path fill="none" stroke="#63b8ff" d="M770.62,-74.25C861.77,-66.16 1029.02,-50.14 1171,-30 1181.21,-28.55 1192.11,-26.77 1202.46,-24.97"/>
<polygon fill="#63b8ff" stroke="#63b8ff" points="770.51,-70.75 760.85,-75.11 771.12,-77.72 770.51,-70.75"/>
</g>
<!-- Node12 -->
<g id="node12" class="node">
<title>Node12</title>
<g id="a_node12"><a xlink:href="iop_2debug_2iop__sbusdbg_2src_2irx__imports_8h_source.html" target="_top" xlink:title=" ">
<polygon fill="white" stroke="#666666" points="894,-30 778,-30 778,0 894,0 894,-30"/>
<text text-anchor="start" x="786" y="-18" font-family="Helvetica,sans-Serif" font-size="10.00">iop/debug/iop_sbusdbg</text>
<text text-anchor="middle" x="836" y="-7" font-family="Helvetica,sans-Serif" font-size="10.00">/src/irx_imports.h</text>
</a>
</g>
</g>
<!-- Node3&#45;&gt;Node12 -->
<g id="edge11" class="edge">
<title>Node3&#45;&gt;Node12</title>
<path fill="none" stroke="#63b8ff" d="M743.06,-60.72C763.37,-50.95 787.62,-39.28 806.25,-30.31"/>
<polygon fill="#63b8ff" stroke="#63b8ff" points="741.7,-57.49 734.21,-64.98 744.74,-63.8 741.7,-57.49"/>
</g>
<!-- Node13 -->
<g id="node13" class="node">
<title>Node13</title>
<g id="a_node13"><a xlink:href="iop_2debug_2iop__sbusdbg_2src_2main_8c_source.html" target="_top" xlink:title=" ">
<polygon fill="white" stroke="#666666" points="1028,-30 912,-30 912,0 1028,0 1028,-30"/>
<text text-anchor="start" x="920" y="-18" font-family="Helvetica,sans-Serif" font-size="10.00">iop/debug/iop_sbusdbg</text>
<text text-anchor="middle" x="970" y="-7" font-family="Helvetica,sans-Serif" font-size="10.00">/src/main.c</text>
</a>
</g>
</g>
<!-- Node3&#45;&gt;Node13 -->
<g id="edge12" class="edge">
<title>Node3&#45;&gt;Node13</title>
<path fill="none" stroke="#63b8ff" d="M770.39,-63.85C814.03,-53.39 870.28,-39.9 911.93,-29.92"/>
<polygon fill="#63b8ff" stroke="#63b8ff" points="769.68,-60.42 760.77,-66.15 771.31,-67.23 769.68,-60.42"/>
</g>
<!-- Node14 -->
<g id="node14" class="node">
<title>Node14</title>
<g id="a_node14"><a xlink:href="sbus__dbg_8c_source.html" target="_top" xlink:title=" ">
<polygon fill="white" stroke="#666666" points="1162,-30 1046,-30 1046,0 1162,0 1162,-30"/>
<text text-anchor="start" x="1054" y="-18" font-family="Helvetica,sans-Serif" font-size="10.00">iop/debug/iop_sbusdbg</text>
<text text-anchor="middle" x="1104" y="-7" font-family="Helvetica,sans-Serif" font-size="10.00">/src/sbus_dbg.c</text>
</a>
</g>
</g>
<!-- Node3&#45;&gt;Node14 -->
<g id="edge13" class="edge">
<title>Node3&#45;&gt;Node14</title>
<path fill="none" stroke="#63b8ff" d="M770.63,-71.04C838.23,-61.8 945.07,-46.47 1037,-30 1039.81,-29.5 1042.68,-28.97 1045.57,-28.41"/>
<polygon fill="#63b8ff" stroke="#63b8ff" points="770.24,-67.56 760.8,-72.37 771.18,-74.49 770.24,-67.56"/>
</g>
<!-- Node15 -->
<g id="node15" class="node">
<title>Node15</title>
<g id="a_node15"><a xlink:href="sbus__tty_8c_source.html" target="_top" xlink:title=" ">
<polygon fill="white" stroke="#666666" points="1580,-30 1464,-30 1464,0 1580,0 1580,-30"/>
<text text-anchor="start" x="1472" y="-18" font-family="Helvetica,sans-Serif" font-size="10.00">iop/debug/iop_sbusdbg</text>
<text text-anchor="middle" x="1522" y="-7" font-family="Helvetica,sans-Serif" font-size="10.00">/src/sbus_tty.c</text>
</a>
</g>
</g>
<!-- Node3&#45;&gt;Node15 -->
<g id="edge14" class="edge">
<title>Node3&#45;&gt;Node15</title>
<path fill="none" stroke="#63b8ff" d="M770.91,-78.66C903.16,-75.34 1204.27,-64.36 1455,-30 1457.83,-29.61 1460.71,-29.18 1463.62,-28.7"/>
<polygon fill="#63b8ff" stroke="#63b8ff" points="770.83,-75.16 760.91,-78.9 771,-82.16 770.83,-75.16"/>
</g>
<!-- Node16&#45;&gt;Node4 -->
<g id="edge21" class="edge">
<title>Node16&#45;&gt;Node4</title>
<path fill="none" stroke="#63b8ff" d="M558.16,-72.81C583.36,-70.42 611.93,-67.89 638,-66 944.73,-43.8 1024.29,-71.5 1329,-30 1331.89,-29.61 1334.84,-29.15 1337.81,-28.64"/>
<polygon fill="#63b8ff" stroke="#63b8ff" points="557.97,-69.31 548.35,-73.75 558.64,-76.28 557.97,-69.31"/>
</g>
<!-- Node16&#45;&gt;Node5 -->
<g id="edge22" class="edge">
<title>Node16&#45;&gt;Node5</title>
<path fill="none" stroke="#63b8ff" d="M416.03,-72.21C341.35,-63.6 220.49,-48.46 117,-30 114.13,-29.49 111.2,-28.94 108.24,-28.36"/>
<polygon fill="#63b8ff" stroke="#63b8ff" points="415.32,-75.65 425.66,-73.31 416.12,-68.7 415.32,-75.65"/>
</g>
<!-- Node16&#45;&gt;Node6 -->
<g id="edge23" class="edge">
<title>Node16&#45;&gt;Node6</title>
<path fill="none" stroke="#63b8ff" d="M515.25,-58.97C527.84,-49.61 542.35,-38.81 553.67,-30.39"/>
<polygon fill="#63b8ff" stroke="#63b8ff" points="513.23,-56.11 507.3,-64.89 517.41,-61.73 513.23,-56.11"/>
</g>
<!-- Node16&#45;&gt;Node7 -->
<g id="edge24" class="edge">
<title>Node16&#45;&gt;Node7</title>
<path fill="none" stroke="#63b8ff" d="M437.17,-61.67C410.2,-51.75 377.35,-39.67 352.22,-30.43"/>
<polygon fill="#63b8ff" stroke="#63b8ff" points="435.94,-64.95 446.53,-65.11 438.35,-58.38 435.94,-64.95"/>
</g>
<!-- Node16&#45;&gt;Node8 -->
<g id="edge25" class="edge">
<title>Node16&#45;&gt;Node8</title>
<path fill="none" stroke="#63b8ff" d="M546.46,-62.38C580.42,-52.32 622.47,-39.86 654.43,-30.39"/>
<polygon fill="#63b8ff" stroke="#63b8ff" points="545.79,-58.93 537.2,-65.13 547.78,-65.64 545.79,-58.93"/>
</g>
<!-- Node16&#45;&gt;Node9 -->
<g id="edge26" class="edge">
<title>Node16&#45;&gt;Node9</title>
<path fill="none" stroke="#63b8ff" d="M416.27,-65.18C368.93,-55.25 305.22,-41.87 249,-30 246.02,-29.37 242.96,-28.73 239.88,-28.07"/>
<polygon fill="#63b8ff" stroke="#63b8ff" points="415.34,-68.56 425.85,-67.19 416.78,-61.71 415.34,-68.56"/>
</g>
<!-- Node16&#45;&gt;Node10 -->
<g id="edge27" class="edge">
<title>Node16&#45;&gt;Node10</title>
<path fill="none" stroke="#63b8ff" d="M470.77,-56.39C464.72,-47.59 458.03,-37.86 452.74,-30.16"/>
<polygon fill="#63b8ff" stroke="#63b8ff" points="467.83,-58.29 476.38,-64.55 473.6,-54.33 467.83,-58.29"/>
</g>
<!-- Node16&#45;&gt;Node11 -->
<g id="edge28" class="edge">
<title>Node16&#45;&gt;Node11</title>
<path fill="none" stroke="#63b8ff" d="M558.18,-73.03C583.38,-70.66 611.94,-68.09 638,-66 874.67,-47.04 935.32,-58.76 1171,-30 1181.78,-28.68 1193.33,-26.87 1204.17,-24.98"/>
<polygon fill="#63b8ff" stroke="#63b8ff" points="557.99,-69.53 548.37,-73.96 558.65,-76.5 557.99,-69.53"/>
</g>
</g>
</svg>
        <g id="navigator" transform="translate(0 0)" fill="#404254">
                <rect fill="#f2f5e9" fill-opacity="0.5" stroke="#606060" stroke-width=".5" x="0" y="0" width="60" height="60"/>
                <use id="zoomplus" xlink:href="#zoomPlus" x="17" y="9" onmousedown="handleZoom(evt,'in')"/>
                <use id="zoomminus" xlink:href="#zoomMin" x="42" y="9" onmousedown="handleZoom(evt,'out')"/>
                <use id="reset" xlink:href="#resetDef" x="30" y="36" onmousedown="handleReset()"/>
                <g id="arrowUp" xlink:href="#dirArrow" transform="translate(30 24)" onmousedown="handlePan(0,-1)">
                  <use xlink:href="#rim" fill="#404040">
                        <set attributeName="fill" to="#808080" begin="arrowUp.mouseover" end="arrowUp.mouseout"/>
                  </use>
                  <path fill="none" stroke="white" stroke-width="1.5" d="M0,-3.0v7 M-2.5,-0.5L0,-3.0L2.5,-0.5"/>
                </g>
                <g id="arrowRight" xlink:href="#dirArrow" transform="rotate(90) translate(36 -43)" onmousedown="handlePan(1,0)">
                  <use xlink:href="#rim" fill="#404040">
                        <set attributeName="fill" to="#808080" begin="arrowRight.mouseover" end="arrowRight.mouseout"/>
                  </use>
                  <path fill="none" stroke="white" stroke-width="1.5" d="M0,-3.0v7 M-2.5,-0.5L0,-3.0L2.5,-0.5"/>
                </g>
                <g id="arrowDown" xlink:href="#dirArrow" transform="rotate(180) translate(-30 -48)" onmousedown="handlePan(0,1)">
                  <use xlink:href="#rim" fill="#404040">
                        <set attributeName="fill" to="#808080" begin="arrowDown.mouseover" end="arrowDown.mouseout"/>
                  </use>
                  <path fill="none" stroke="white" stroke-width="1.5" d="M0,-3.0v7 M-2.5,-0.5L0,-3.0L2.5,-0.5"/>
                </g>
                <g id="arrowLeft" xlink:href="#dirArrow" transform="rotate(270) translate(-36 17)" onmousedown="handlePan(-1,0)">
                  <use xlink:href="#rim" fill="#404040">
                        <set attributeName="fill" to="#808080" begin="arrowLeft.mouseover" end="arrowLeft.mouseout"/>
                  </use>
                  <path fill="none" stroke="white" stroke-width="1.5" d="M0,-3.0v7 M-2.5,-0.5L0,-3.0L2.5,-0.5"/>
                </g>
        </g>
        <svg viewBox="0 0 15 15" width="100%" height="30px" preserveAspectRatio="xMaxYMin meet">
         <g id="arrow_out" transform="scale(0.3 0.3)">
          <a xlink:href="ee__regs_8h__dep__incl_org.svg" target="_base">
           <rect id="button" ry="5" rx="5" y="6" x="6" height="38" width="38"
                fill="#f2f5e9" fill-opacity="0.5" stroke="#606060" stroke-width="1.0"/>
           <path id="arrow"
             d="M 11.500037,31.436501 C 11.940474,20.09759 22.043105,11.32322 32.158766,21.979434 L 37.068811,17.246167 C 37.068811,17.246167 37.088388,32 37.088388,32 L 22.160133,31.978069 C 22.160133,31.978069 26.997745,27.140456 26.997745,27.140456 C 18.528582,18.264221 13.291696,25.230495 11.500037,31.436501 z"
             style="fill:#404040;"/>
          </a>
         </g>
        </svg>
</svg>
