<?xml version="1.0" encoding="UTF-8" standalone="no"?>
<!DOCTYPE svg PUBLIC "-//W3C//DTD SVG 1.1//EN"
 "http://www.w3.org/Graphics/SVG/1.1/DTD/svg11.dtd">
<!-- Generated by graphviz version 7.0.5 (20221223.1930)
 -->
<!-- Title: ee/eedebug/include/ee_debug.h Pages: 1 -->
<svg width="195pt" height="148pt"
 viewBox="0.00 0.00 194.87 148.00" xmlns="http://www.w3.org/2000/svg" xmlns:xlink="http://www.w3.org/1999/xlink">
<g id="graph0" class="graph" transform="scale(1 1) rotate(0) translate(4 144)">
<title>ee/eedebug/include/ee_debug.h</title>
<!-- Node1 -->
<g id="node1" class="node">
<title>Node1</title>
<g id="a_node1"><a xlink:title=" ">
<polygon fill="#999999" stroke="#666666" points="105.87,-140 4.87,-140 4.87,-110 105.87,-110 105.87,-140"/>
<text text-anchor="start" x="12.87" y="-128" font-family="Helvetica,sans-Serif" font-size="10.00">ee/eedebug/include</text>
<text text-anchor="middle" x="55.37" y="-117" font-family="Helvetica,sans-Serif" font-size="10.00">/ee_debug.h</text>
</a>
</g>
</g>
<!-- Node2 -->
<g id="node2" class="node">
<title>Node2</title>
<g id="a_node2"><a xlink:href="tamtypes_8h.html" target="_top" xlink:title=" ">
<polygon fill="white" stroke="#666666" points="99.37,-19 35.37,-19 35.37,0 99.37,0 99.37,-19"/>
<text text-anchor="middle" x="67.37" y="-7" font-family="Helvetica,sans-Serif" font-size="10.00">tamtypes.h</text>
</a>
</g>
</g>
<!-- Node1&#45;&gt;Node2 -->
<g id="edge1" class="edge">
<title>Node1&#45;&gt;Node2</title>
<path fill="none" stroke="#63b8ff" d="M32.09,-109.62C13.66,-96.28 -7.33,-75.47 3.37,-55 10.18,-41.98 22.72,-31.99 34.92,-24.82"/>
<polygon fill="#63b8ff" stroke="#63b8ff" points="36.45,-27.97 43.61,-20.16 33.14,-21.8 36.45,-27.97"/>
</g>
<!-- Node3 -->
<g id="node3" class="node">
<title>Node3</title>
<g id="a_node3"><a xlink:href="ee__cop0__defs_8h.html" target="_top" xlink:title=" ">
<polygon fill="white" stroke="#666666" points="97.87,-74 12.87,-74 12.87,-55 97.87,-55 97.87,-74"/>
<text text-anchor="middle" x="55.37" y="-62" font-family="Helvetica,sans-Serif" font-size="10.00">ee_cop0_defs.h</text>
</a>
</g>
</g>
<!-- Node1&#45;&gt;Node3 -->
<g id="edge2" class="edge">
<title>Node1&#45;&gt;Node3</title>
<path fill="none" stroke="#63b8ff" d="M55.37,-109.54C55.37,-102.34 55.37,-93.53 55.37,-85.68"/>
<polygon fill="#63b8ff" stroke="#63b8ff" points="58.87,-85.69 55.37,-75.69 51.87,-85.69 58.87,-85.69"/>
</g>
<!-- Node4 -->
<g id="node4" class="node">
<title>Node4</title>
<g id="a_node4"><a xlink:href="ps2__debug_8h.html" target="_top" xlink:title=" ">
<polygon fill="white" stroke="#666666" points="186.87,-74 115.87,-74 115.87,-55 186.87,-55 186.87,-74"/>
<text text-anchor="middle" x="151.37" y="-62" font-family="Helvetica,sans-Serif" font-size="10.00">ps2_debug.h</text>
</a>
</g>
</g>
<!-- Node1&#45;&gt;Node4 -->
<g id="edge3" class="edge">
<title>Node1&#45;&gt;Node4</title>
<path fill="none" stroke="#63b8ff" d="M79.1,-109.54C93.81,-100.58 112.64,-89.1 127.39,-80.11"/>
<polygon fill="#63b8ff" stroke="#63b8ff" points="128.84,-83.33 135.56,-75.13 125.2,-77.35 128.84,-83.33"/>
</g>
<!-- Node4&#45;&gt;Node2 -->
<g id="edge4" class="edge">
<title>Node4&#45;&gt;Node2</title>
<path fill="none" stroke="#63b8ff" d="M137.12,-54.51C124.49,-46.54 105.81,-34.75 90.96,-25.38"/>
<polygon fill="#63b8ff" stroke="#63b8ff" points="93.01,-22.54 82.69,-20.17 89.28,-28.46 93.01,-22.54"/>
</g>
</g>
</svg>
