<?xml version="1.0" encoding="UTF-8" standalone="no"?>
<!DOCTYPE svg PUBLIC "-//W3C//DTD SVG 1.1//EN"
 "http://www.w3.org/Graphics/SVG/1.1/DTD/svg11.dtd">
<!-- Generated by graphviz version 7.0.5 (20221223.1930)
 -->
<!-- Title: iop/sound/libsd/src/effect.c Pages: 1 -->
<svg width="374pt" height="258pt"
 viewBox="0.00 0.00 374.00 258.00" xmlns="http://www.w3.org/2000/svg" xmlns:xlink="http://www.w3.org/1999/xlink">
<g id="graph0" class="graph" transform="scale(1 1) rotate(0) translate(4 254)">
<title>iop/sound/libsd/src/effect.c</title>
<!-- Node1 -->
<g id="node1" class="node">
<title>Node1</title>
<g id="a_node1"><a xlink:title=" ">
<polygon fill="#999999" stroke="#666666" points="172.5,-250 74.5,-250 74.5,-220 172.5,-220 172.5,-250"/>
<text text-anchor="start" x="82.5" y="-238" font-family="Helvetica,sans-Serif" font-size="10.00">iop/sound/libsd/src</text>
<text text-anchor="middle" x="123.5" y="-227" font-family="Helvetica,sans-Serif" font-size="10.00">/effect.c</text>
</a>
</g>
</g>
<!-- Node2 -->
<g id="node2" class="node">
<title>Node2</title>
<g id="a_node2"><a xlink:title=" ">
<polygon fill="#e0e0e0" stroke="#999999" points="47,-184 0,-184 0,-165 47,-165 47,-184"/>
<text text-anchor="middle" x="23.5" y="-172" font-family="Helvetica,sans-Serif" font-size="10.00">types.h</text>
</a>
</g>
</g>
<!-- Node1&#45;&gt;Node2 -->
<g id="edge1" class="edge">
<title>Node1&#45;&gt;Node2</title>
<path fill="none" stroke="#63b8ff" d="M98.78,-219.54C83.46,-210.58 63.84,-199.1 48.48,-190.11"/>
<polygon fill="#63b8ff" stroke="#63b8ff" points="50.33,-187.14 39.93,-185.11 46.79,-193.18 50.33,-187.14"/>
</g>
<!-- Node3 -->
<g id="node3" class="node">
<title>Node3</title>
<g id="a_node3"><a xlink:title=" ">
<polygon fill="#e0e0e0" stroke="#999999" points="109.5,-184 65.5,-184 65.5,-165 109.5,-165 109.5,-184"/>
<text text-anchor="middle" x="87.5" y="-172" font-family="Helvetica,sans-Serif" font-size="10.00">libsd.h</text>
</a>
</g>
</g>
<!-- Node1&#45;&gt;Node3 -->
<g id="edge2" class="edge">
<title>Node1&#45;&gt;Node3</title>
<path fill="none" stroke="#63b8ff" d="M114.6,-219.54C109.8,-211.74 103.82,-202.03 98.71,-193.71"/>
<polygon fill="#63b8ff" stroke="#63b8ff" points="101.85,-192.15 93.63,-185.46 95.89,-195.82 101.85,-192.15"/>
</g>
<!-- Node4 -->
<g id="node4" class="node">
<title>Node4</title>
<g id="a_node4"><a xlink:href="spu2regs_8h.html" target="_top" xlink:title=" ">
<polygon fill="white" stroke="#666666" points="191.5,-184 127.5,-184 127.5,-165 191.5,-165 191.5,-184"/>
<text text-anchor="middle" x="159.5" y="-172" font-family="Helvetica,sans-Serif" font-size="10.00">spu2regs.h</text>
</a>
</g>
</g>
<!-- Node1&#45;&gt;Node4 -->
<g id="edge3" class="edge">
<title>Node1&#45;&gt;Node4</title>
<path fill="none" stroke="#63b8ff" d="M132.4,-219.54C137.2,-211.74 143.18,-202.03 148.29,-193.71"/>
<polygon fill="#63b8ff" stroke="#63b8ff" points="151.11,-195.82 153.37,-185.46 145.15,-192.15 151.11,-195.82"/>
</g>
<!-- Node5 -->
<g id="node5" class="node">
<title>Node5</title>
<g id="a_node5"><a xlink:href="sysclib_8h.html" target="_top" xlink:title=" ">
<polygon fill="white" stroke="#666666" points="263.5,-184 209.5,-184 209.5,-165 263.5,-165 263.5,-184"/>
<text text-anchor="middle" x="236.5" y="-172" font-family="Helvetica,sans-Serif" font-size="10.00">sysclib.h</text>
</a>
</g>
</g>
<!-- Node1&#45;&gt;Node5 -->
<g id="edge4" class="edge">
<title>Node1&#45;&gt;Node5</title>
<path fill="none" stroke="#63b8ff" d="M151.43,-219.54C169.08,-210.4 191.77,-198.66 209.27,-189.6"/>
<polygon fill="#63b8ff" stroke="#63b8ff" points="210.8,-192.75 218.07,-185.04 207.58,-186.53 210.8,-192.75"/>
</g>
<!-- Node6 -->
<g id="node6" class="node">
<title>Node6</title>
<g id="a_node6"><a xlink:href="iop_2kernel_2include_2types_8h_source.html" target="_top" xlink:title=" ">
<polygon fill="white" stroke="#666666" points="199,-74 152,-74 152,-55 199,-55 199,-74"/>
<text text-anchor="middle" x="175.5" y="-62" font-family="Helvetica,sans-Serif" font-size="10.00">types.h</text>
</a>
</g>
</g>
<!-- Node5&#45;&gt;Node6 -->
<g id="edge5" class="edge">
<title>Node5&#45;&gt;Node6</title>
<path fill="none" stroke="#63b8ff" d="M209.27,-167.62C188.91,-161.63 162.43,-150.13 149.5,-129 140.5,-114.28 150,-95.89 159.96,-82.69"/>
<polygon fill="#63b8ff" stroke="#63b8ff" points="162.4,-85.24 166.06,-75.3 157,-80.78 162.4,-85.24"/>
</g>
<!-- Node9 -->
<g id="node9" class="node">
<title>Node9</title>
<g id="a_node9"><a xlink:href="irx_8h.html" target="_top" xlink:title=" ">
<polygon fill="white" stroke="#666666" points="192.5,-129 158.5,-129 158.5,-110 192.5,-110 192.5,-129"/>
<text text-anchor="middle" x="175.5" y="-117" font-family="Helvetica,sans-Serif" font-size="10.00">irx.h</text>
</a>
</g>
</g>
<!-- Node5&#45;&gt;Node9 -->
<g id="edge8" class="edge">
<title>Node5&#45;&gt;Node9</title>
<path fill="none" stroke="#63b8ff" d="M226.15,-164.51C217.42,-156.93 204.71,-145.88 194.2,-136.75"/>
<polygon fill="#63b8ff" stroke="#63b8ff" points="196.68,-134.27 186.84,-130.35 192.09,-139.55 196.68,-134.27"/>
</g>
<!-- Node10 -->
<g id="node10" class="node">
<title>Node10</title>
<g id="a_node10"><a xlink:title=" ">
<polygon fill="#e0e0e0" stroke="#999999" points="262,-129 211,-129 211,-110 262,-110 262,-129"/>
<text text-anchor="middle" x="236.5" y="-117" font-family="Helvetica,sans-Serif" font-size="10.00">stdarg.h</text>
</a>
</g>
</g>
<!-- Node5&#45;&gt;Node10 -->
<g id="edge10" class="edge">
<title>Node5&#45;&gt;Node10</title>
<path fill="none" stroke="#63b8ff" d="M236.5,-164.75C236.5,-158.27 236.5,-149.16 236.5,-140.9"/>
<polygon fill="#63b8ff" stroke="#63b8ff" points="240,-140.96 236.5,-130.96 233,-140.96 240,-140.96"/>
</g>
<!-- Node11 -->
<g id="node11" class="node">
<title>Node11</title>
<g id="a_node11"><a xlink:href="setjmp_8h.html" target="_top" xlink:title=" ">
<polygon fill="white" stroke="#666666" points="307,-74 254,-74 254,-55 307,-55 307,-74"/>
<text text-anchor="middle" x="280.5" y="-62" font-family="Helvetica,sans-Serif" font-size="10.00">setjmp.h</text>
</a>
</g>
</g>
<!-- Node5&#45;&gt;Node11 -->
<g id="edge11" class="edge">
<title>Node5&#45;&gt;Node11</title>
<path fill="none" stroke="#63b8ff" d="M245.91,-164.57C254.1,-156.2 265.55,-142.92 271.5,-129 277.4,-115.18 279.58,-98.27 280.33,-85.38"/>
<polygon fill="#63b8ff" stroke="#63b8ff" points="283.82,-85.71 280.63,-75.61 276.82,-85.49 283.82,-85.71"/>
</g>
<!-- Node12 -->
<g id="node12" class="node">
<title>Node12</title>
<g id="a_node12"><a xlink:href="ctype_8h.html" target="_top" xlink:title=" ">
<polygon fill="white" stroke="#666666" points="366,-129 319,-129 319,-110 366,-110 366,-129"/>
<text text-anchor="middle" x="342.5" y="-117" font-family="Helvetica,sans-Serif" font-size="10.00">ctype.h</text>
</a>
</g>
</g>
<!-- Node5&#45;&gt;Node12 -->
<g id="edge13" class="edge">
<title>Node5&#45;&gt;Node12</title>
<path fill="none" stroke="#63b8ff" d="M254.48,-164.51C270.95,-156.27 295.59,-143.96 314.61,-134.45"/>
<polygon fill="#63b8ff" stroke="#63b8ff" points="316.05,-137.64 323.43,-130.03 312.92,-131.38 316.05,-137.64"/>
</g>
<!-- Node7 -->
<g id="node7" class="node">
<title>Node7</title>
<g id="a_node7"><a xlink:title=" ">
<polygon fill="#e0e0e0" stroke="#999999" points="201,-19 150,-19 150,0 201,0 201,-19"/>
<text text-anchor="middle" x="175.5" y="-7" font-family="Helvetica,sans-Serif" font-size="10.00">stddef.h</text>
</a>
</g>
</g>
<!-- Node6&#45;&gt;Node7 -->
<g id="edge6" class="edge">
<title>Node6&#45;&gt;Node7</title>
<path fill="none" stroke="#63b8ff" d="M175.5,-54.75C175.5,-48.27 175.5,-39.16 175.5,-30.9"/>
<polygon fill="#63b8ff" stroke="#63b8ff" points="179,-30.96 175.5,-20.96 172,-30.96 179,-30.96"/>
</g>
<!-- Node8 -->
<g id="node8" class="node">
<title>Node8</title>
<g id="a_node8"><a xlink:href="tamtypes_8h.html" target="_top" xlink:title=" ">
<polygon fill="white" stroke="#666666" points="302.5,-19 238.5,-19 238.5,0 302.5,0 302.5,-19"/>
<text text-anchor="middle" x="270.5" y="-7" font-family="Helvetica,sans-Serif" font-size="10.00">tamtypes.h</text>
</a>
</g>
</g>
<!-- Node6&#45;&gt;Node8 -->
<g id="edge7" class="edge">
<title>Node6&#45;&gt;Node8</title>
<path fill="none" stroke="#63b8ff" d="M191.62,-54.51C206.17,-46.39 227.84,-34.3 244.79,-24.85"/>
<polygon fill="#63b8ff" stroke="#63b8ff" points="246.27,-28.02 253.3,-20.1 242.86,-21.91 246.27,-28.02"/>
</g>
<!-- Node9&#45;&gt;Node6 -->
<g id="edge9" class="edge">
<title>Node9&#45;&gt;Node6</title>
<path fill="none" stroke="#63b8ff" d="M175.5,-109.75C175.5,-103.27 175.5,-94.16 175.5,-85.9"/>
<polygon fill="#63b8ff" stroke="#63b8ff" points="179,-85.96 175.5,-75.96 172,-85.96 179,-85.96"/>
</g>
<!-- Node11&#45;&gt;Node8 -->
<g id="edge12" class="edge">
<title>Node11&#45;&gt;Node8</title>
<path fill="none" stroke="#63b8ff" d="M278.85,-54.75C277.61,-48.19 275.87,-38.95 274.29,-30.6"/>
<polygon fill="#63b8ff" stroke="#63b8ff" points="277.76,-30.11 272.47,-20.93 270.88,-31.4 277.76,-30.11"/>
</g>
</g>
</svg>
