<?xml version="1.0" encoding="UTF-8" standalone="no"?>
<!DOCTYPE svg PUBLIC "-//W3C//DTD SVG 1.1//EN"
 "http://www.w3.org/Graphics/SVG/1.1/DTD/svg11.dtd">
<!-- Generated by graphviz version 7.0.5 (20221223.1930)
 -->
<!-- Title: ee/erl/include/erl.h Pages: 1 -->
<svg width="4698pt" height="93pt"
 viewBox="0.00 0.00 4698.00 93.00" xmlns="http://www.w3.org/2000/svg" xmlns:xlink="http://www.w3.org/1999/xlink">
<g id="graph0" class="graph" transform="scale(1 1) rotate(0) translate(4 89)">
<title>ee/erl/include/erl.h</title>
<!-- Node1 -->
<g id="node1" class="node">
<title>Node1</title>
<g id="a_node1"><a xlink:title=" ">
<polygon fill="#999999" stroke="#666666" points="2540,-85 2445,-85 2445,-66 2540,-66 2540,-85"/>
<text text-anchor="middle" x="2492.5" y="-73" font-family="Helvetica,sans-Serif" font-size="10.00">ee/erl/include/erl.h</text>
</a>
</g>
</g>
<!-- Node2 -->
<g id="node2" class="node">
<title>Node2</title>
<g id="a_node2"><a xlink:href="debug_2src_2erl-support_8c_source.html" target="_top" xlink:title=" ">
<polygon fill="white" stroke="#666666" points="129,-24.5 0,-24.5 0,-5.5 129,-5.5 129,-24.5"/>
<text text-anchor="middle" x="64.5" y="-12.5" font-family="Helvetica,sans-Serif" font-size="10.00">ee/debug/src/erl&#45;support.c</text>
</a>
</g>
</g>
<!-- Node1&#45;&gt;Node2 -->
<g id="edge1" class="edge">
<title>Node1&#45;&gt;Node2</title>
<path fill="none" stroke="#63b8ff" d="M2433.65,-74.73C2116.03,-75.76 603.38,-78.03 138.5,-30 127.58,-28.87 115.85,-26.98 105.03,-24.94"/>
<polygon fill="#63b8ff" stroke="#63b8ff" points="2433.38,-78.23 2443.36,-74.7 2433.35,-71.23 2433.38,-78.23"/>
</g>
<!-- Node3 -->
<g id="node3" class="node">
<title>Node3</title>
<g id="a_node3"><a xlink:href="dma_2src_2erl-support_8c_source.html" target="_top" xlink:title=" ">
<polygon fill="white" stroke="#666666" points="269.5,-24.5 147.5,-24.5 147.5,-5.5 269.5,-5.5 269.5,-24.5"/>
<text text-anchor="middle" x="208.5" y="-12.5" font-family="Helvetica,sans-Serif" font-size="10.00">ee/dma/src/erl&#45;support.c</text>
</a>
</g>
</g>
<!-- Node1&#45;&gt;Node3 -->
<g id="edge2" class="edge">
<title>Node1&#45;&gt;Node3</title>
<path fill="none" stroke="#63b8ff" d="M2433.25,-74.73C2126.22,-75.71 713.61,-77.5 278.5,-30 268.15,-28.87 257.06,-26.97 246.82,-24.94"/>
<polygon fill="#63b8ff" stroke="#63b8ff" points="2433.04,-78.23 2443.03,-74.7 2433.02,-71.23 2433.04,-78.23"/>
</g>
<!-- Node4 -->
<g id="node4" class="node">
<title>Node4</title>
<g id="a_node4"><a xlink:href="draw_2src_2erl-support_8c_source.html" target="_top" xlink:title=" ">
<polygon fill="white" stroke="#666666" points="411.5,-24.5 287.5,-24.5 287.5,-5.5 411.5,-5.5 411.5,-24.5"/>
<text text-anchor="middle" x="349.5" y="-12.5" font-family="Helvetica,sans-Serif" font-size="10.00">ee/draw/src/erl&#45;support.c</text>
</a>
</g>
</g>
<!-- Node1&#45;&gt;Node4 -->
<g id="edge3" class="edge">
<title>Node1&#45;&gt;Node4</title>
<path fill="none" stroke="#63b8ff" d="M2433.3,-74.61C2138.4,-74.97 826,-74 420.5,-30 410.13,-28.88 399.02,-27.01 388.75,-25"/>
<polygon fill="#63b8ff" stroke="#63b8ff" points="2433.06,-78.11 2443.06,-74.6 2433.05,-71.11 2433.06,-78.11"/>
</g>
<!-- Node5 -->
<g id="node5" class="node">
<title>Node5</title>
<g id="a_node5"><a xlink:href="eedebug_2src_2erl-support_8c_source.html" target="_top" xlink:title=" ">
<polygon fill="white" stroke="#666666" points="527,-30 430,-30 430,0 527,0 527,-30"/>
<text text-anchor="start" x="438" y="-18" font-family="Helvetica,sans-Serif" font-size="10.00">ee/eedebug/src/erl</text>
<text text-anchor="middle" x="478.5" y="-7" font-family="Helvetica,sans-Serif" font-size="10.00">&#45;support.c</text>
</a>
</g>
</g>
<!-- Node1&#45;&gt;Node5 -->
<g id="edge4" class="edge">
<title>Node1&#45;&gt;Node5</title>
<path fill="none" stroke="#63b8ff" d="M2433.59,-73.91C2127.82,-70.76 728.33,-55.04 536.5,-30 533.52,-29.61 530.47,-29.13 527.41,-28.58"/>
<polygon fill="#63b8ff" stroke="#63b8ff" points="2433.29,-77.41 2443.32,-74.01 2433.36,-70.41 2433.29,-77.41"/>
</g>
<!-- Node6 -->
<g id="node6" class="node">
<title>Node6</title>
<g id="a_node6"><a xlink:href="erl-loader_8c_source.html" target="_top" xlink:title=" ">
<polygon fill="white" stroke="#666666" points="645.5,-30 545.5,-30 545.5,0 645.5,0 645.5,-30"/>
<text text-anchor="start" x="553.5" y="-18" font-family="Helvetica,sans-Serif" font-size="10.00">ee/erl&#45;loader/src/erl</text>
<text text-anchor="middle" x="595.5" y="-7" font-family="Helvetica,sans-Serif" font-size="10.00">&#45;loader.c</text>
</a>
</g>
</g>
<!-- Node1&#45;&gt;Node6 -->
<g id="edge5" class="edge">
<title>Node1&#45;&gt;Node6</title>
<path fill="none" stroke="#63b8ff" d="M2433.45,-74.73C2159.48,-75.53 1010.46,-76.03 654.5,-30 651.68,-29.64 648.8,-29.19 645.9,-28.69"/>
<polygon fill="#63b8ff" stroke="#63b8ff" points="2433.21,-78.23 2443.2,-74.7 2433.19,-71.23 2433.21,-78.23"/>
</g>
<!-- Node7 -->
<g id="node7" class="node">
<title>Node7</title>
<g id="a_node7"><a xlink:href="erl_8c.html" target="_top" xlink:title=" ">
<polygon fill="white" stroke="#666666" points="741.5,-24.5 663.5,-24.5 663.5,-5.5 741.5,-5.5 741.5,-24.5"/>
<text text-anchor="middle" x="702.5" y="-12.5" font-family="Helvetica,sans-Serif" font-size="10.00">ee/erl/src/erl.c</text>
</a>
</g>
</g>
<!-- Node1&#45;&gt;Node7 -->
<g id="edge6" class="edge">
<title>Node1&#45;&gt;Node7</title>
<path fill="none" stroke="#63b8ff" d="M2433.27,-73.89C2147.64,-70.85 919.38,-56.33 750.5,-30 743.3,-28.88 735.65,-26.98 728.63,-24.95"/>
<polygon fill="#63b8ff" stroke="#63b8ff" points="2433.05,-77.39 2443.08,-74 2433.12,-70.39 2433.05,-77.39"/>
</g>
<!-- Node8 -->
<g id="node8" class="node">
<title>Node8</title>
<g id="a_node8"><a xlink:href="font_2src_2erl-support_8c_source.html" target="_top" xlink:title=" ">
<polygon fill="white" stroke="#666666" points="879,-24.5 760,-24.5 760,-5.5 879,-5.5 879,-24.5"/>
<text text-anchor="middle" x="819.5" y="-12.5" font-family="Helvetica,sans-Serif" font-size="10.00">ee/font/src/erl&#45;support.c</text>
</a>
</g>
</g>
<!-- Node1&#45;&gt;Node8 -->
<g id="edge7" class="edge">
<title>Node1&#45;&gt;Node8</title>
<path fill="none" stroke="#63b8ff" d="M2433.38,-74.25C2181.36,-72.97 1195.68,-65.72 887.5,-30 877.56,-28.85 866.92,-26.97 857.08,-24.96"/>
<polygon fill="#63b8ff" stroke="#63b8ff" points="2433.29,-77.75 2443.3,-74.3 2433.32,-70.75 2433.29,-77.75"/>
</g>
<!-- Node9 -->
<g id="node9" class="node">
<title>Node9</title>
<g id="a_node9"><a xlink:href="graph_2src_2erl-support_8c_source.html" target="_top" xlink:title=" ">
<polygon fill="white" stroke="#666666" points="1024,-24.5 897,-24.5 897,-5.5 1024,-5.5 1024,-24.5"/>
<text text-anchor="middle" x="960.5" y="-12.5" font-family="Helvetica,sans-Serif" font-size="10.00">ee/graph/src/erl&#45;support.c</text>
</a>
</g>
</g>
<!-- Node1&#45;&gt;Node9 -->
<g id="edge8" class="edge">
<title>Node1&#45;&gt;Node9</title>
<path fill="none" stroke="#63b8ff" d="M2433.02,-73.95C2195.12,-71.55 1311.55,-60.71 1033.5,-30 1022.85,-28.82 1011.44,-26.94 1000.87,-24.93"/>
<polygon fill="#63b8ff" stroke="#63b8ff" points="2432.96,-77.45 2443,-74.05 2433.03,-70.45 2432.96,-77.45"/>
</g>
<!-- Node10 -->
<g id="node10" class="node">
<title>Node10</title>
<g id="a_node10"><a xlink:href="input_2src_2erl-support_8c_source.html" target="_top" xlink:title=" ">
<polygon fill="white" stroke="#666666" points="1166.5,-24.5 1042.5,-24.5 1042.5,-5.5 1166.5,-5.5 1166.5,-24.5"/>
<text text-anchor="middle" x="1104.5" y="-12.5" font-family="Helvetica,sans-Serif" font-size="10.00">ee/input/src/erl&#45;support.c</text>
</a>
</g>
</g>
<!-- Node1&#45;&gt;Node10 -->
<g id="edge9" class="edge">
<title>Node1&#45;&gt;Node10</title>
<path fill="none" stroke="#63b8ff" d="M2433.39,-73.77C2210.95,-70.82 1424.33,-58.55 1175.5,-30 1165.26,-28.83 1154.3,-26.97 1144.13,-24.98"/>
<polygon fill="#63b8ff" stroke="#63b8ff" points="2433.22,-77.27 2443.26,-73.9 2433.31,-70.27 2433.22,-77.27"/>
</g>
<!-- Node11 -->
<g id="node11" class="node">
<title>Node11</title>
<g id="a_node11"><a xlink:href="iopreboot_2src_2erl-support_8c_source.html" target="_top" xlink:title=" ">
<polygon fill="white" stroke="#666666" points="1284.5,-30 1184.5,-30 1184.5,0 1284.5,0 1284.5,-30"/>
<text text-anchor="start" x="1192.5" y="-18" font-family="Helvetica,sans-Serif" font-size="10.00">ee/iopreboot/src/erl</text>
<text text-anchor="middle" x="1234.5" y="-7" font-family="Helvetica,sans-Serif" font-size="10.00">&#45;support.c</text>
</a>
</g>
</g>
<!-- Node1&#45;&gt;Node11 -->
<g id="edge10" class="edge">
<title>Node1&#45;&gt;Node11</title>
<path fill="none" stroke="#63b8ff" d="M2433.15,-73.84C2223.39,-71.25 1517.47,-60.43 1293.5,-30 1290.68,-29.62 1287.8,-29.16 1284.91,-28.65"/>
<polygon fill="#63b8ff" stroke="#63b8ff" points="2432.96,-77.33 2443,-73.96 2433.04,-70.33 2432.96,-77.33"/>
</g>
<!-- Node12 -->
<g id="node12" class="node">
<title>Node12</title>
<g id="a_node12"><a xlink:href="kernel_2src_2erl-support_8c_source.html" target="_top" xlink:title=" ">
<polygon fill="white" stroke="#666666" points="1432,-24.5 1303,-24.5 1303,-5.5 1432,-5.5 1432,-24.5"/>
<text text-anchor="middle" x="1367.5" y="-12.5" font-family="Helvetica,sans-Serif" font-size="10.00">ee/kernel/src/erl&#45;support.c</text>
</a>
</g>
</g>
<!-- Node1&#45;&gt;Node12 -->
<g id="edge11" class="edge">
<title>Node1&#45;&gt;Node12</title>
<path fill="none" stroke="#63b8ff" d="M2433.1,-75.04C2272.51,-75.84 1816.49,-73.76 1440.5,-30 1430.12,-28.79 1419,-26.95 1408.64,-24.99"/>
<polygon fill="#63b8ff" stroke="#63b8ff" points="2433.1,-78.54 2443.08,-74.98 2433.06,-71.54 2433.1,-78.54"/>
</g>
<!-- Node13 -->
<g id="node13" class="node">
<title>Node13</title>
<g id="a_node13"><a xlink:href="libgs_2src_2erl-support_8c_source.html" target="_top" xlink:title=" ">
<polygon fill="white" stroke="#666666" points="1573,-24.5 1450,-24.5 1450,-5.5 1573,-5.5 1573,-24.5"/>
<text text-anchor="middle" x="1511.5" y="-12.5" font-family="Helvetica,sans-Serif" font-size="10.00">ee/libgs/src/erl&#45;support.c</text>
</a>
</g>
</g>
<!-- Node1&#45;&gt;Node13 -->
<g id="edge12" class="edge">
<title>Node1&#45;&gt;Node13</title>
<path fill="none" stroke="#63b8ff" d="M2433.67,-74.59C2288.53,-74.16 1901.99,-69.1 1582.5,-30 1572.4,-28.76 1561.58,-26.91 1551.51,-24.95"/>
<polygon fill="#63b8ff" stroke="#63b8ff" points="2433.4,-78.09 2443.41,-74.61 2433.42,-71.09 2433.4,-78.09"/>
</g>
<!-- Node14 -->
<g id="node14" class="node">
<title>Node14</title>
<g id="a_node14"><a xlink:href="libvux_2src_2erl-support_8c_source.html" target="_top" xlink:title=" ">
<polygon fill="white" stroke="#666666" points="1719.5,-24.5 1591.5,-24.5 1591.5,-5.5 1719.5,-5.5 1719.5,-24.5"/>
<text text-anchor="middle" x="1655.5" y="-12.5" font-family="Helvetica,sans-Serif" font-size="10.00">ee/libvux/src/erl&#45;support.c</text>
</a>
</g>
</g>
<!-- Node1&#45;&gt;Node14 -->
<g id="edge13" class="edge">
<title>Node1&#45;&gt;Node14</title>
<path fill="none" stroke="#63b8ff" d="M2433.42,-73.7C2304.8,-71.37 1989.96,-62.54 1728.5,-30 1718.26,-28.72 1707.28,-26.88 1697.04,-24.94"/>
<polygon fill="#63b8ff" stroke="#63b8ff" points="2433.35,-77.2 2443.4,-73.87 2433.47,-70.2 2433.35,-77.2"/>
</g>
<!-- Node15 -->
<g id="node15" class="node">
<title>Node15</title>
<g id="a_node15"><a xlink:href="math3d_2src_2erl-support_8c_source.html" target="_top" xlink:title=" ">
<polygon fill="white" stroke="#666666" points="1873,-24.5 1738,-24.5 1738,-5.5 1873,-5.5 1873,-24.5"/>
<text text-anchor="middle" x="1805.5" y="-12.5" font-family="Helvetica,sans-Serif" font-size="10.00">ee/math3d/src/erl&#45;support.c</text>
</a>
</g>
</g>
<!-- Node1&#45;&gt;Node15 -->
<g id="edge14" class="edge">
<title>Node1&#45;&gt;Node15</title>
<path fill="none" stroke="#63b8ff" d="M2433.37,-72.35C2324.04,-67.89 2083.04,-55.82 1881.5,-30 1871.12,-28.67 1860.01,-26.85 1849.58,-24.96"/>
<polygon fill="#63b8ff" stroke="#63b8ff" points="2433.14,-75.84 2443.28,-72.74 2433.42,-68.85 2433.14,-75.84"/>
</g>
<!-- Node16 -->
<g id="node16" class="node">
<title>Node16</title>
<g id="a_node16"><a xlink:href="mpeg_2src_2erl-support_8c_source.html" target="_top" xlink:title=" ">
<polygon fill="white" stroke="#666666" points="2018,-24.5 1891,-24.5 1891,-5.5 2018,-5.5 2018,-24.5"/>
<text text-anchor="middle" x="1954.5" y="-12.5" font-family="Helvetica,sans-Serif" font-size="10.00">ee/mpeg/src/erl&#45;support.c</text>
</a>
</g>
</g>
<!-- Node1&#45;&gt;Node16 -->
<g id="edge15" class="edge">
<title>Node1&#45;&gt;Node16</title>
<path fill="none" stroke="#63b8ff" d="M2433.39,-70.63C2344.86,-64.44 2172.7,-50.82 2027.5,-30 2017.79,-28.61 2007.41,-26.81 1997.62,-24.97"/>
<polygon fill="#63b8ff" stroke="#63b8ff" points="2433.07,-74.12 2443.29,-71.32 2433.55,-67.14 2433.07,-74.12"/>
</g>
<!-- Node17 -->
<g id="node17" class="node">
<title>Node17</title>
<g id="a_node17"><a xlink:href="network_2netman_2src_2erl-support_8c_source.html" target="_top" xlink:title=" ">
<polygon fill="white" stroke="#666666" points="2152.5,-30 2036.5,-30 2036.5,0 2152.5,0 2152.5,-30"/>
<text text-anchor="start" x="2044.5" y="-18" font-family="Helvetica,sans-Serif" font-size="10.00">ee/network/netman/src</text>
<text text-anchor="middle" x="2094.5" y="-7" font-family="Helvetica,sans-Serif" font-size="10.00">/erl&#45;support.c</text>
</a>
</g>
</g>
<!-- Node1&#45;&gt;Node17 -->
<g id="edge16" class="edge">
<title>Node1&#45;&gt;Node17</title>
<path fill="none" stroke="#63b8ff" d="M2433.59,-67.88C2367.25,-60.13 2256.31,-46.26 2161.5,-30 2158.69,-29.52 2155.82,-29 2152.92,-28.47"/>
<polygon fill="#63b8ff" stroke="#63b8ff" points="2432.81,-71.32 2443.14,-68.99 2433.61,-64.36 2432.81,-71.32"/>
</g>
<!-- Node18 -->
<g id="node18" class="node">
<title>Node18</title>
<g id="a_node18"><a xlink:href="network_2tcpip_2src_2erl-support_8c_source.html" target="_top" xlink:title=" ">
<polygon fill="white" stroke="#666666" points="2276,-30 2171,-30 2171,0 2276,0 2276,-30"/>
<text text-anchor="start" x="2179" y="-18" font-family="Helvetica,sans-Serif" font-size="10.00">ee/network/tcpip/src</text>
<text text-anchor="middle" x="2223.5" y="-7" font-family="Helvetica,sans-Serif" font-size="10.00">/erl&#45;support.c</text>
</a>
</g>
</g>
<!-- Node1&#45;&gt;Node18 -->
<g id="edge17" class="edge">
<title>Node1&#45;&gt;Node18</title>
<path fill="none" stroke="#63b8ff" d="M2439.02,-63.16C2397.2,-54.26 2337.62,-41.49 2285.5,-30 2282.48,-29.34 2279.38,-28.65 2276.26,-27.95"/>
<polygon fill="#63b8ff" stroke="#63b8ff" points="2438.06,-66.54 2448.57,-65.19 2439.52,-59.69 2438.06,-66.54"/>
</g>
<!-- Node19 -->
<g id="node19" class="node">
<title>Node19</title>
<g id="a_node19"><a xlink:href="packet_2src_2erl-support_8c_source.html" target="_top" xlink:title=" ">
<polygon fill="white" stroke="#666666" points="2426.5,-24.5 2294.5,-24.5 2294.5,-5.5 2426.5,-5.5 2426.5,-24.5"/>
<text text-anchor="middle" x="2360.5" y="-12.5" font-family="Helvetica,sans-Serif" font-size="10.00">ee/packet/src/erl&#45;support.c</text>
</a>
</g>
</g>
<!-- Node1&#45;&gt;Node19 -->
<g id="edge18" class="edge">
<title>Node1&#45;&gt;Node19</title>
<path fill="none" stroke="#63b8ff" d="M2462.07,-61.02C2437.1,-49.95 2402.42,-34.58 2380.74,-24.97"/>
<polygon fill="#63b8ff" stroke="#63b8ff" points="2460.51,-64.15 2471.07,-65 2463.34,-57.75 2460.51,-64.15"/>
</g>
<!-- Node20 -->
<g id="node20" class="node">
<title>Node20</title>
<g id="a_node20"><a xlink:href="packet2_2src_2erl-support_8c_source.html" target="_top" xlink:title=" ">
<polygon fill="white" stroke="#666666" points="2540,-30 2445,-30 2445,0 2540,0 2540,-30"/>
<text text-anchor="start" x="2453" y="-18" font-family="Helvetica,sans-Serif" font-size="10.00">ee/packet2/src/erl</text>
<text text-anchor="middle" x="2492.5" y="-7" font-family="Helvetica,sans-Serif" font-size="10.00">&#45;support.c</text>
</a>
</g>
</g>
<!-- Node1&#45;&gt;Node20 -->
<g id="edge19" class="edge">
<title>Node1&#45;&gt;Node20</title>
<path fill="none" stroke="#63b8ff" d="M2492.5,-54.51C2492.5,-46.49 2492.5,-37.43 2492.5,-30.11"/>
<polygon fill="#63b8ff" stroke="#63b8ff" points="2489,-54.35 2492.5,-64.35 2496,-54.35 2489,-54.35"/>
</g>
<!-- Node21 -->
<g id="node21" class="node">
<title>Node21</title>
<g id="a_node21"><a xlink:href="rpc_2ahx_2src_2erl-support_8c_source.html" target="_top" xlink:title=" ">
<polygon fill="white" stroke="#666666" points="2650.5,-30 2558.5,-30 2558.5,0 2650.5,0 2650.5,-30"/>
<text text-anchor="start" x="2566.5" y="-18" font-family="Helvetica,sans-Serif" font-size="10.00">ee/rpc/ahx/src/erl</text>
<text text-anchor="middle" x="2604.5" y="-7" font-family="Helvetica,sans-Serif" font-size="10.00">&#45;support.c</text>
</a>
</g>
</g>
<!-- Node1&#45;&gt;Node21 -->
<g id="edge20" class="edge">
<title>Node1&#45;&gt;Node21</title>
<path fill="none" stroke="#63b8ff" d="M2519.57,-60.36C2536.92,-51.3 2559.39,-39.56 2576.86,-30.44"/>
<polygon fill="#63b8ff" stroke="#63b8ff" points="2518.1,-57.18 2510.85,-64.91 2521.34,-63.39 2518.1,-57.18"/>
</g>
<!-- Node22 -->
<g id="node22" class="node">
<title>Node22</title>
<g id="a_node22"><a xlink:href="rpc_2audsrv_2src_2erl-support_8c_source.html" target="_top" xlink:title=" ">
<polygon fill="white" stroke="#666666" points="2774.5,-30 2668.5,-30 2668.5,0 2774.5,0 2774.5,-30"/>
<text text-anchor="start" x="2676.5" y="-18" font-family="Helvetica,sans-Serif" font-size="10.00">ee/rpc/audsrv/src/erl</text>
<text text-anchor="middle" x="2721.5" y="-7" font-family="Helvetica,sans-Serif" font-size="10.00">&#45;support.c</text>
</a>
</g>
</g>
<!-- Node1&#45;&gt;Node22 -->
<g id="edge21" class="edge">
<title>Node1&#45;&gt;Node22</title>
<path fill="none" stroke="#63b8ff" d="M2538.36,-62.78C2575.79,-53.22 2628.71,-39.7 2668.05,-29.65"/>
<polygon fill="#63b8ff" stroke="#63b8ff" points="2537.57,-59.37 2528.75,-65.24 2539.3,-66.16 2537.57,-59.37"/>
</g>
<!-- Node23 -->
<g id="node23" class="node">
<title>Node23</title>
<g id="a_node23"><a xlink:href="rpc_2camera_2src_2erl-support_8c_source.html" target="_top" xlink:title=" ">
<polygon fill="white" stroke="#666666" points="2902,-30 2793,-30 2793,0 2902,0 2902,-30"/>
<text text-anchor="start" x="2801" y="-18" font-family="Helvetica,sans-Serif" font-size="10.00">ee/rpc/camera/src/erl</text>
<text text-anchor="middle" x="2847.5" y="-7" font-family="Helvetica,sans-Serif" font-size="10.00">&#45;support.c</text>
</a>
</g>
</g>
<!-- Node1&#45;&gt;Node23 -->
<g id="edge22" class="edge">
<title>Node1&#45;&gt;Node23</title>
<path fill="none" stroke="#63b8ff" d="M2551.61,-66.58C2610.53,-58.43 2703.53,-44.85 2783.5,-30 2786.52,-29.44 2789.61,-28.84 2792.73,-28.22"/>
<polygon fill="#63b8ff" stroke="#63b8ff" points="2551.22,-63.11 2541.79,-67.94 2552.17,-70.04 2551.22,-63.11"/>
</g>
<!-- Node24 -->
<g id="node24" class="node">
<title>Node24</title>
<g id="a_node24"><a xlink:href="rpc_2cdvd_2src_2erl-support_8c_source.html" target="_top" xlink:title=" ">
<polygon fill="white" stroke="#666666" points="3018.5,-30 2920.5,-30 2920.5,0 3018.5,0 3018.5,-30"/>
<text text-anchor="start" x="2928.5" y="-18" font-family="Helvetica,sans-Serif" font-size="10.00">ee/rpc/cdvd/src/erl</text>
<text text-anchor="middle" x="2969.5" y="-7" font-family="Helvetica,sans-Serif" font-size="10.00">&#45;support.c</text>
</a>
</g>
</g>
<!-- Node1&#45;&gt;Node24 -->
<g id="edge23" class="edge">
<title>Node1&#45;&gt;Node24</title>
<path fill="none" stroke="#63b8ff" d="M2551.23,-70.7C2632.58,-64.89 2783.97,-52.07 2911.5,-30 2914.36,-29.51 2917.28,-28.95 2920.23,-28.36"/>
<polygon fill="#63b8ff" stroke="#63b8ff" points="2551.46,-67.18 2541.73,-71.37 2551.95,-74.16 2551.46,-67.18"/>
</g>
<!-- Node25 -->
<g id="node25" class="node">
<title>Node25</title>
<g id="a_node25"><a xlink:href="rpc_2filexio_2src_2erl-support_8c_source.html" target="_top" xlink:title=" ">
<polygon fill="white" stroke="#666666" points="3124,-30 3037,-30 3037,0 3124,0 3124,-30"/>
<text text-anchor="start" x="3045" y="-18" font-family="Helvetica,sans-Serif" font-size="10.00">ee/rpc/filexio/src</text>
<text text-anchor="middle" x="3080.5" y="-7" font-family="Helvetica,sans-Serif" font-size="10.00">/erl&#45;support.c</text>
</a>
</g>
</g>
<!-- Node1&#45;&gt;Node25 -->
<g id="edge24" class="edge">
<title>Node1&#45;&gt;Node25</title>
<path fill="none" stroke="#63b8ff" d="M2551.71,-72.96C2650.83,-69.63 2856.32,-59.49 3027.5,-30 3030.5,-29.48 3033.58,-28.88 3036.67,-28.21"/>
<polygon fill="#63b8ff" stroke="#63b8ff" points="2551.84,-69.45 2541.96,-73.28 2552.07,-76.45 2551.84,-69.45"/>
</g>
<!-- Node26 -->
<g id="node26" class="node">
<title>Node26</title>
<g id="a_node26"><a xlink:href="rpc_2hdd_2src_2erl-support_8c_source.html" target="_top" xlink:title=" ">
<polygon fill="white" stroke="#666666" points="3234.5,-30 3142.5,-30 3142.5,0 3234.5,0 3234.5,-30"/>
<text text-anchor="start" x="3150.5" y="-18" font-family="Helvetica,sans-Serif" font-size="10.00">ee/rpc/hdd/src/erl</text>
<text text-anchor="middle" x="3188.5" y="-7" font-family="Helvetica,sans-Serif" font-size="10.00">&#45;support.c</text>
</a>
</g>
</g>
<!-- Node1&#45;&gt;Node26 -->
<g id="edge25" class="edge">
<title>Node1&#45;&gt;Node26</title>
<path fill="none" stroke="#63b8ff" d="M2551.45,-73.94C2664.88,-72.09 2921.07,-64.13 3133.5,-30 3136.32,-29.55 3139.21,-29.02 3142.11,-28.43"/>
<polygon fill="#63b8ff" stroke="#63b8ff" points="2551.74,-70.44 2541.79,-74.09 2551.84,-77.44 2551.74,-70.44"/>
</g>
<!-- Node27 -->
<g id="node27" class="node">
<title>Node27</title>
<g id="a_node27"><a xlink:href="rpc_2keyboard_2src_2erl-support_8c_source.html" target="_top" xlink:title=" ">
<polygon fill="white" stroke="#666666" points="3354.5,-30 3252.5,-30 3252.5,0 3354.5,0 3354.5,-30"/>
<text text-anchor="start" x="3260.5" y="-18" font-family="Helvetica,sans-Serif" font-size="10.00">ee/rpc/keyboard/src</text>
<text text-anchor="middle" x="3303.5" y="-7" font-family="Helvetica,sans-Serif" font-size="10.00">/erl&#45;support.c</text>
</a>
</g>
</g>
<!-- Node1&#45;&gt;Node27 -->
<g id="edge26" class="edge">
<title>Node1&#45;&gt;Node27</title>
<path fill="none" stroke="#63b8ff" d="M2551.61,-74.4C2678.83,-73.45 2987.8,-67.13 3243.5,-30 3246.36,-29.58 3249.28,-29.1 3252.22,-28.57"/>
<polygon fill="#63b8ff" stroke="#63b8ff" points="2551.72,-70.9 2541.75,-74.47 2551.77,-77.9 2551.72,-70.9"/>
</g>
<!-- Node28 -->
<g id="node28" class="node">
<title>Node28</title>
<g id="a_node28"><a xlink:href="rpc_2memorycard_2src_2erl-support_8c_source.html" target="_top" xlink:title=" ">
<polygon fill="white" stroke="#666666" points="3488.5,-30 3372.5,-30 3372.5,0 3488.5,0 3488.5,-30"/>
<text text-anchor="start" x="3380.5" y="-18" font-family="Helvetica,sans-Serif" font-size="10.00">ee/rpc/memorycard/src</text>
<text text-anchor="middle" x="3430.5" y="-7" font-family="Helvetica,sans-Serif" font-size="10.00">/erl&#45;support.c</text>
</a>
</g>
</g>
<!-- Node1&#45;&gt;Node28 -->
<g id="edge27" class="edge">
<title>Node1&#45;&gt;Node28</title>
<path fill="none" stroke="#63b8ff" d="M2551.78,-74.63C2692.98,-74.25 3060.07,-69.21 3363.5,-30 3366.33,-29.63 3369.22,-29.21 3372.13,-28.75"/>
<polygon fill="#63b8ff" stroke="#63b8ff" points="2551.92,-71.13 2541.93,-74.65 2551.93,-78.13 2551.92,-71.13"/>
</g>
<!-- Node29 -->
<g id="node29" class="node">
<title>Node29</title>
<g id="a_node29"><a xlink:href="rpc_2mouse_2src_2erl-support_8c_source.html" target="_top" xlink:title=" ">
<polygon fill="white" stroke="#666666" points="3612.5,-30 3506.5,-30 3506.5,0 3612.5,0 3612.5,-30"/>
<text text-anchor="start" x="3514.5" y="-18" font-family="Helvetica,sans-Serif" font-size="10.00">ee/rpc/mouse/src/erl</text>
<text text-anchor="middle" x="3559.5" y="-7" font-family="Helvetica,sans-Serif" font-size="10.00">&#45;support.c</text>
</a>
</g>
</g>
<!-- Node1&#45;&gt;Node29 -->
<g id="edge28" class="edge">
<title>Node1&#45;&gt;Node29</title>
<path fill="none" stroke="#63b8ff" d="M2551.97,-73.26C2738.87,-69.13 3312.99,-54.72 3497.5,-30 3500.34,-29.62 3503.25,-29.17 3506.17,-28.67"/>
<polygon fill="#63b8ff" stroke="#63b8ff" points="2551.92,-69.76 2541.99,-73.47 2552.07,-76.75 2551.92,-69.76"/>
</g>
<!-- Node30 -->
<g id="node30" class="node">
<title>Node30</title>
<g id="a_node30"><a xlink:href="rpc_2multitap_2src_2erl-support_8c_source.html" target="_top" xlink:title=" ">
<polygon fill="white" stroke="#666666" points="3728.5,-30 3630.5,-30 3630.5,0 3728.5,0 3728.5,-30"/>
<text text-anchor="start" x="3638.5" y="-18" font-family="Helvetica,sans-Serif" font-size="10.00">ee/rpc/multitap/src</text>
<text text-anchor="middle" x="3679.5" y="-7" font-family="Helvetica,sans-Serif" font-size="10.00">/erl&#45;support.c</text>
</a>
</g>
</g>
<!-- Node1&#45;&gt;Node30 -->
<g id="edge29" class="edge">
<title>Node1&#45;&gt;Node30</title>
<path fill="none" stroke="#63b8ff" d="M2551.7,-73.71C2753.24,-70.78 3411.84,-59.14 3621.5,-30 3624.37,-29.6 3627.31,-29.12 3630.27,-28.58"/>
<polygon fill="#63b8ff" stroke="#63b8ff" points="2551.66,-70.21 2541.72,-73.85 2551.76,-77.21 2551.66,-70.21"/>
</g>
<!-- Node31 -->
<g id="node31" class="node">
<title>Node31</title>
<g id="a_node31"><a xlink:href="rpc_2pad_2src_2erl-support_8c_source.html" target="_top" xlink:title=" ">
<polygon fill="white" stroke="#666666" points="3838.5,-30 3746.5,-30 3746.5,0 3838.5,0 3838.5,-30"/>
<text text-anchor="start" x="3754.5" y="-18" font-family="Helvetica,sans-Serif" font-size="10.00">ee/rpc/pad/src/erl</text>
<text text-anchor="middle" x="3792.5" y="-7" font-family="Helvetica,sans-Serif" font-size="10.00">&#45;support.c</text>
</a>
</g>
</g>
<!-- Node1&#45;&gt;Node31 -->
<g id="edge30" class="edge">
<title>Node1&#45;&gt;Node31</title>
<path fill="none" stroke="#63b8ff" d="M2551.62,-74.06C2766.3,-72.2 3504.28,-63.46 3737.5,-30 3740.33,-29.59 3743.22,-29.1 3746.13,-28.54"/>
<polygon fill="#63b8ff" stroke="#63b8ff" points="2551.79,-70.56 2541.82,-74.14 2551.85,-77.56 2551.79,-70.56"/>
</g>
<!-- Node32 -->
<g id="node32" class="node">
<title>Node32</title>
<g id="a_node32"><a xlink:href="rpc_2poweroff_2src_2erl-support_8c_source.html" target="_top" xlink:title=" ">
<polygon fill="white" stroke="#666666" points="3956.5,-30 3856.5,-30 3856.5,0 3956.5,0 3956.5,-30"/>
<text text-anchor="start" x="3864.5" y="-18" font-family="Helvetica,sans-Serif" font-size="10.00">ee/rpc/poweroff/src</text>
<text text-anchor="middle" x="3906.5" y="-7" font-family="Helvetica,sans-Serif" font-size="10.00">/erl&#45;support.c</text>
</a>
</g>
</g>
<!-- Node1&#45;&gt;Node32 -->
<g id="edge31" class="edge">
<title>Node1&#45;&gt;Node32</title>
<path fill="none" stroke="#63b8ff" d="M2551.49,-74.13C2777.9,-72.48 3591.39,-64.24 3847.5,-30 3850.32,-29.62 3853.2,-29.17 3856.09,-28.66"/>
<polygon fill="#63b8ff" stroke="#63b8ff" points="2551.7,-70.63 2541.73,-74.2 2551.75,-77.63 2551.7,-70.63"/>
</g>
<!-- Node33 -->
<g id="node33" class="node">
<title>Node33</title>
<g id="a_node33"><a xlink:href="rpc_2ps2snd_2src_2erl-support_8c_source.html" target="_top" xlink:title=" ">
<polygon fill="white" stroke="#666666" points="4082.5,-30 3974.5,-30 3974.5,0 4082.5,0 4082.5,-30"/>
<text text-anchor="start" x="3982.5" y="-18" font-family="Helvetica,sans-Serif" font-size="10.00">ee/rpc/ps2snd/src/erl</text>
<text text-anchor="middle" x="4028.5" y="-7" font-family="Helvetica,sans-Serif" font-size="10.00">&#45;support.c</text>
</a>
</g>
</g>
<!-- Node1&#45;&gt;Node33 -->
<g id="edge32" class="edge">
<title>Node1&#45;&gt;Node33</title>
<path fill="none" stroke="#63b8ff" d="M2551.42,-74.2C2789.99,-72.77 3684.81,-65.11 3965.5,-30 3968.39,-29.64 3971.34,-29.21 3974.32,-28.72"/>
<polygon fill="#63b8ff" stroke="#63b8ff" points="2551.73,-70.7 2541.75,-74.26 2551.77,-77.7 2551.73,-70.7"/>
</g>
<!-- Node34 -->
<g id="node34" class="node">
<title>Node34</title>
<g id="a_node34"><a xlink:href="rpc_2remote_2src_2erl-support_8c_source.html" target="_top" xlink:title=" ">
<polygon fill="white" stroke="#666666" points="4208,-30 4101,-30 4101,0 4208,0 4208,-30"/>
<text text-anchor="start" x="4109" y="-18" font-family="Helvetica,sans-Serif" font-size="10.00">ee/rpc/remote/src/erl</text>
<text text-anchor="middle" x="4154.5" y="-7" font-family="Helvetica,sans-Serif" font-size="10.00">&#45;support.c</text>
</a>
</g>
</g>
<!-- Node1&#45;&gt;Node34 -->
<g id="edge33" class="edge">
<title>Node1&#45;&gt;Node34</title>
<path fill="none" stroke="#63b8ff" d="M2551.83,-74.36C2803.64,-73.55 3784.93,-67.98 4091.5,-30 4094.5,-29.63 4097.57,-29.18 4100.66,-28.67"/>
<polygon fill="#63b8ff" stroke="#63b8ff" points="2551.9,-70.86 2541.91,-74.39 2551.92,-77.86 2551.9,-70.86"/>
</g>
<!-- Node35 -->
<g id="node35" class="node">
<title>Node35</title>
<g id="a_node35"><a xlink:href="rpc_2secr_2src_2erl-support_8c_source.html" target="_top" xlink:title=" ">
<polygon fill="white" stroke="#666666" points="4321,-30 4226,-30 4226,0 4321,0 4321,-30"/>
<text text-anchor="start" x="4234" y="-18" font-family="Helvetica,sans-Serif" font-size="10.00">ee/rpc/secr/src/erl</text>
<text text-anchor="middle" x="4273.5" y="-7" font-family="Helvetica,sans-Serif" font-size="10.00">&#45;support.c</text>
</a>
</g>
</g>
<!-- Node1&#45;&gt;Node35 -->
<g id="edge34" class="edge">
<title>Node1&#45;&gt;Node35</title>
<path fill="none" stroke="#63b8ff" d="M2551.31,-74.71C2814.44,-75.39 3885.16,-75.27 4217.5,-30 4220.18,-29.63 4222.92,-29.19 4225.67,-28.69"/>
<polygon fill="#63b8ff" stroke="#63b8ff" points="2551.64,-71.21 2541.63,-74.68 2551.62,-78.21 2551.64,-71.21"/>
</g>
<!-- Node36 -->
<g id="node36" class="node">
<title>Node36</title>
<g id="a_node36"><a xlink:href="rpc_2sior_2src_2erl-support_8c_source.html" target="_top" xlink:title=" ">
<polygon fill="white" stroke="#666666" points="4431.5,-30 4339.5,-30 4339.5,0 4431.5,0 4431.5,-30"/>
<text text-anchor="start" x="4347.5" y="-18" font-family="Helvetica,sans-Serif" font-size="10.00">ee/rpc/sior/src/erl</text>
<text text-anchor="middle" x="4385.5" y="-7" font-family="Helvetica,sans-Serif" font-size="10.00">&#45;support.c</text>
</a>
</g>
</g>
<!-- Node1&#45;&gt;Node36 -->
<g id="edge35" class="edge">
<title>Node1&#45;&gt;Node36</title>
<path fill="none" stroke="#63b8ff" d="M2551.56,-74.86C2825.61,-76.23 3974.93,-78.92 4330.5,-30 4333.33,-29.61 4336.23,-29.13 4339.13,-28.58"/>
<polygon fill="#63b8ff" stroke="#63b8ff" points="2551.83,-71.36 2541.81,-74.81 2551.8,-78.36 2551.83,-71.36"/>
</g>
<!-- Node37 -->
<g id="node37" class="node">
<title>Node37</title>
<g id="a_node37"><a xlink:href="rpc_2tcpips_2src_2erl-support_8c_source.html" target="_top" xlink:title=" ">
<polygon fill="white" stroke="#666666" points="4553,-30 4450,-30 4450,0 4553,0 4553,-30"/>
<text text-anchor="start" x="4458" y="-18" font-family="Helvetica,sans-Serif" font-size="10.00">ee/rpc/tcpips/src/erl</text>
<text text-anchor="middle" x="4501.5" y="-7" font-family="Helvetica,sans-Serif" font-size="10.00">&#45;support.c</text>
</a>
</g>
</g>
<!-- Node1&#45;&gt;Node37 -->
<g id="edge36" class="edge">
<title>Node1&#45;&gt;Node37</title>
<path fill="none" stroke="#63b8ff" d="M2551.35,-74.76C2834.83,-75.78 4061.41,-77.34 4440.5,-30 4443.52,-29.62 4446.61,-29.16 4449.71,-28.64"/>
<polygon fill="#63b8ff" stroke="#63b8ff" points="2551.64,-71.26 2541.62,-74.73 2551.61,-78.26 2551.64,-71.26"/>
</g>
<!-- Node38 -->
<g id="node38" class="node">
<title>Node38</title>
<g id="a_node38"><a xlink:href="sbv_2src_2erl-support_8c_source.html" target="_top" xlink:title=" ">
<polygon fill="white" stroke="#666666" points="4690,-24.5 4571,-24.5 4571,-5.5 4690,-5.5 4690,-24.5"/>
<text text-anchor="middle" x="4630.5" y="-12.5" font-family="Helvetica,sans-Serif" font-size="10.00">ee/sbv/src/erl&#45;support.c</text>
</a>
</g>
</g>
<!-- Node1&#45;&gt;Node38 -->
<g id="edge37" class="edge">
<title>Node1&#45;&gt;Node38</title>
<path fill="none" stroke="#63b8ff" d="M2551.65,-74.68C2846.3,-75.35 4157.58,-75.65 4562.5,-30 4572.56,-28.87 4583.34,-26.97 4593.28,-24.93"/>
<polygon fill="#63b8ff" stroke="#63b8ff" points="2551.91,-71.18 2541.9,-74.66 2551.89,-78.18 2551.91,-71.18"/>
</g>
</g>
</svg>
