<?xml version="1.0" encoding="UTF-8" standalone="no"?>
<!DOCTYPE svg PUBLIC "-//W3C//DTD SVG 1.1//EN"
 "http://www.w3.org/Graphics/SVG/1.1/DTD/svg11.dtd">
<!-- Generated by graphviz version 7.0.5 (20221223.1930)
 -->
<!-- Title: ee/erl/src/erl.c Pages: 1 -->
<svg width="508pt" height="357pt"
 viewBox="0.00 0.00 507.50 357.00" xmlns="http://www.w3.org/2000/svg" xmlns:xlink="http://www.w3.org/1999/xlink">
<g id="graph0" class="graph" transform="scale(1 1) rotate(0) translate(4 353)">
<title>ee/erl/src/erl.c</title>
<!-- Node1 -->
<g id="node1" class="node">
<title>Node1</title>
<g id="a_node1"><a xlink:title=" ">
<polygon fill="#999999" stroke="#666666" points="287.5,-349 209.5,-349 209.5,-330 287.5,-330 287.5,-349"/>
<text text-anchor="middle" x="248.5" y="-337" font-family="Helvetica,sans-Serif" font-size="10.00">ee/erl/src/erl.c</text>
</a>
</g>
</g>
<!-- Node2 -->
<g id="node2" class="node">
<title>Node2</title>
<g id="a_node2"><a xlink:title=" ">
<polygon fill="#e0e0e0" stroke="#999999" points="47,-294 0,-294 0,-275 47,-275 47,-294"/>
<text text-anchor="middle" x="23.5" y="-282" font-family="Helvetica,sans-Serif" font-size="10.00">stdlib.h</text>
</a>
</g>
</g>
<!-- Node1&#45;&gt;Node2 -->
<g id="edge1" class="edge">
<title>Node1&#45;&gt;Node2</title>
<path fill="none" stroke="#63b8ff" d="M209.23,-329.84C172.53,-321.67 115.94,-308.84 58.38,-294.66"/>
<polygon fill="#63b8ff" stroke="#63b8ff" points="59.26,-291.27 48.71,-292.26 57.58,-298.06 59.26,-291.27"/>
</g>
<!-- Node3 -->
<g id="node3" class="node">
<title>Node3</title>
<g id="a_node3"><a xlink:href="stdio_8h.html" target="_top" xlink:title=" ">
<polygon fill="white" stroke="#666666" points="152,-184 107,-184 107,-165 152,-165 152,-184"/>
<text text-anchor="middle" x="129.5" y="-172" font-family="Helvetica,sans-Serif" font-size="10.00">stdio.h</text>
</a>
</g>
</g>
<!-- Node1&#45;&gt;Node3 -->
<g id="edge2" class="edge">
<title>Node1&#45;&gt;Node3</title>
<path fill="none" stroke="#63b8ff" d="M242.81,-329.76C234.72,-317.42 219.34,-294.24 205.5,-275 184.54,-245.87 159,-212.93 143.51,-193.21"/>
<polygon fill="#63b8ff" stroke="#63b8ff" points="146.47,-191.3 137.53,-185.61 140.97,-195.63 146.47,-191.3"/>
</g>
<!-- Node9 -->
<g id="node9" class="node">
<title>Node9</title>
<g id="a_node9"><a xlink:href="string_8h_source.html" target="_top" xlink:title=" ">
<polygon fill="white" stroke="#666666" points="295.5,-239 247.5,-239 247.5,-220 295.5,-220 295.5,-239"/>
<text text-anchor="middle" x="271.5" y="-227" font-family="Helvetica,sans-Serif" font-size="10.00">string.h</text>
</a>
</g>
</g>
<!-- Node1&#45;&gt;Node9 -->
<g id="edge8" class="edge">
<title>Node1&#45;&gt;Node9</title>
<path fill="none" stroke="#63b8ff" d="M250.38,-329.66C254.04,-312.5 262.18,-274.26 267.22,-250.6"/>
<polygon fill="#63b8ff" stroke="#63b8ff" points="270.62,-251.45 269.28,-240.94 263.77,-249.99 270.62,-251.45"/>
</g>
<!-- Node13 -->
<g id="node13" class="node">
<title>Node13</title>
<g id="a_node13"><a xlink:href="fcntl_8h_source.html" target="_top" xlink:title=" ">
<polygon fill="white" stroke="#666666" points="413,-294 352,-294 352,-275 413,-275 413,-294"/>
<text text-anchor="middle" x="382.5" y="-282" font-family="Helvetica,sans-Serif" font-size="10.00">sys/fcntl.h</text>
</a>
</g>
</g>
<!-- Node1&#45;&gt;Node13 -->
<g id="edge16" class="edge">
<title>Node1&#45;&gt;Node13</title>
<path fill="none" stroke="#63b8ff" d="M271.23,-329.51C292.73,-321.01 325.23,-308.15 349.57,-298.53"/>
<polygon fill="#63b8ff" stroke="#63b8ff" points="350.69,-301.85 358.7,-294.91 348.11,-295.34 350.69,-301.85"/>
</g>
<!-- Node14 -->
<g id="node14" class="node">
<title>Node14</title>
<g id="a_node14"><a xlink:href="unistd_8h_source.html" target="_top" xlink:title=" ">
<polygon fill="white" stroke="#666666" points="499.5,-294 431.5,-294 431.5,-275 499.5,-275 499.5,-294"/>
<text text-anchor="middle" x="465.5" y="-282" font-family="Helvetica,sans-Serif" font-size="10.00">sys/unistd.h</text>
</a>
</g>
</g>
<!-- Node1&#45;&gt;Node14 -->
<g id="edge17" class="edge">
<title>Node1&#45;&gt;Node14</title>
<path fill="none" stroke="#63b8ff" d="M285.31,-329.51C322.48,-320.43 379.96,-306.39 419.97,-296.62"/>
<polygon fill="#63b8ff" stroke="#63b8ff" points="420.67,-300.05 429.55,-294.28 419,-293.25 420.67,-300.05"/>
</g>
<!-- Node15 -->
<g id="node15" class="node">
<title>Node15</title>
<g id="a_node15"><a xlink:href="erl_8h.html" target="_top" xlink:title=" ">
<polygon fill="white" stroke="#666666" points="341,-74 306,-74 306,-55 341,-55 341,-74"/>
<text text-anchor="middle" x="323.5" y="-62" font-family="Helvetica,sans-Serif" font-size="10.00">erl.h</text>
</a>
</g>
</g>
<!-- Node1&#45;&gt;Node15 -->
<g id="edge18" class="edge">
<title>Node1&#45;&gt;Node15</title>
<path fill="none" stroke="#63b8ff" d="M260.55,-329.58C281.75,-312.76 323.5,-274.1 323.5,-230.5 323.5,-230.5 323.5,-230.5 323.5,-173.5 323.5,-142.92 323.5,-107.48 323.5,-85.77"/>
<polygon fill="#63b8ff" stroke="#63b8ff" points="327,-85.97 323.5,-75.97 320,-85.97 327,-85.97"/>
</g>
<!-- Node16 -->
<g id="node16" class="node">
<title>Node16</title>
<g id="a_node16"><a xlink:href="hashtab_8h_source.html" target="_top" xlink:title=" ">
<polygon fill="white" stroke="#666666" points="197,-294 138,-294 138,-275 197,-275 197,-294"/>
<text text-anchor="middle" x="167.5" y="-282" font-family="Helvetica,sans-Serif" font-size="10.00">hashtab.h</text>
</a>
</g>
</g>
<!-- Node1&#45;&gt;Node16 -->
<g id="edge20" class="edge">
<title>Node1&#45;&gt;Node16</title>
<path fill="none" stroke="#63b8ff" d="M234.76,-329.51C222.7,-321.62 204.91,-309.98 190.66,-300.65"/>
<polygon fill="#63b8ff" stroke="#63b8ff" points="192.59,-297.73 182.3,-295.19 188.76,-303.59 192.59,-297.73"/>
</g>
<!-- Node18 -->
<g id="node18" class="node">
<title>Node18</title>
<g id="a_node18"><a xlink:href="recycle_8h_source.html" target="_top" xlink:title=" ">
<polygon fill="white" stroke="#666666" points="120,-294 65,-294 65,-275 120,-275 120,-294"/>
<text text-anchor="middle" x="92.5" y="-282" font-family="Helvetica,sans-Serif" font-size="10.00">recycle.h</text>
</a>
</g>
</g>
<!-- Node1&#45;&gt;Node18 -->
<g id="edge24" class="edge">
<title>Node1&#45;&gt;Node18</title>
<path fill="none" stroke="#63b8ff" d="M222.04,-329.51C196.64,-320.88 158.03,-307.76 129.58,-298.1"/>
<polygon fill="#63b8ff" stroke="#63b8ff" points="130.86,-294.84 120.27,-294.93 128.61,-301.46 130.86,-294.84"/>
</g>
<!-- Node4 -->
<g id="node4" class="node">
<title>Node4</title>
<g id="a_node4"><a xlink:title=" ">
<polygon fill="#e0e0e0" stroke="#999999" points="101,-129 50,-129 50,-110 101,-110 101,-129"/>
<text text-anchor="middle" x="75.5" y="-117" font-family="Helvetica,sans-Serif" font-size="10.00">stdarg.h</text>
</a>
</g>
</g>
<!-- Node3&#45;&gt;Node4 -->
<g id="edge3" class="edge">
<title>Node3&#45;&gt;Node4</title>
<path fill="none" stroke="#63b8ff" d="M120.58,-164.75C113.05,-157.35 102.03,-146.54 92.77,-137.45"/>
<polygon fill="#63b8ff" stroke="#63b8ff" points="95.28,-135.01 85.69,-130.5 90.38,-140 95.28,-135.01"/>
</g>
<!-- Node5 -->
<g id="node5" class="node">
<title>Node5</title>
<g id="a_node5"><a xlink:href="irx_8h.html" target="_top" xlink:title=" ">
<polygon fill="white" stroke="#666666" points="153.5,-129 119.5,-129 119.5,-110 153.5,-110 153.5,-129"/>
<text text-anchor="middle" x="136.5" y="-117" font-family="Helvetica,sans-Serif" font-size="10.00">irx.h</text>
</a>
</g>
</g>
<!-- Node3&#45;&gt;Node5 -->
<g id="edge4" class="edge">
<title>Node3&#45;&gt;Node5</title>
<path fill="none" stroke="#63b8ff" d="M130.66,-164.75C131.52,-158.19 132.74,-148.95 133.84,-140.6"/>
<polygon fill="#63b8ff" stroke="#63b8ff" points="137.28,-141.31 135.12,-130.94 130.34,-140.4 137.28,-141.31"/>
</g>
<!-- Node6 -->
<g id="node6" class="node">
<title>Node6</title>
<g id="a_node6"><a xlink:href="iop_2kernel_2include_2types_8h_source.html" target="_top" xlink:title=" ">
<polygon fill="white" stroke="#666666" points="182,-74 135,-74 135,-55 182,-55 182,-74"/>
<text text-anchor="middle" x="158.5" y="-62" font-family="Helvetica,sans-Serif" font-size="10.00">types.h</text>
</a>
</g>
</g>
<!-- Node5&#45;&gt;Node6 -->
<g id="edge5" class="edge">
<title>Node5&#45;&gt;Node6</title>
<path fill="none" stroke="#63b8ff" d="M140.13,-109.75C142.92,-103.04 146.87,-93.52 150.4,-85.02"/>
<polygon fill="#63b8ff" stroke="#63b8ff" points="153.61,-86.42 154.21,-75.84 147.14,-83.73 153.61,-86.42"/>
</g>
<!-- Node7 -->
<g id="node7" class="node">
<title>Node7</title>
<g id="a_node7"><a xlink:title=" ">
<polygon fill="#e0e0e0" stroke="#999999" points="127,-19 76,-19 76,0 127,0 127,-19"/>
<text text-anchor="middle" x="101.5" y="-7" font-family="Helvetica,sans-Serif" font-size="10.00">stddef.h</text>
</a>
</g>
</g>
<!-- Node6&#45;&gt;Node7 -->
<g id="edge6" class="edge">
<title>Node6&#45;&gt;Node7</title>
<path fill="none" stroke="#63b8ff" d="M148.83,-54.51C140.76,-47 129.03,-36.1 119.28,-27.03"/>
<polygon fill="#63b8ff" stroke="#63b8ff" points="121.84,-24.63 112.13,-20.39 117.07,-29.76 121.84,-24.63"/>
</g>
<!-- Node8 -->
<g id="node8" class="node">
<title>Node8</title>
<g id="a_node8"><a xlink:href="tamtypes_8h.html" target="_top" xlink:title=" ">
<polygon fill="white" stroke="#666666" points="293.5,-19 229.5,-19 229.5,0 293.5,0 293.5,-19"/>
<text text-anchor="middle" x="261.5" y="-7" font-family="Helvetica,sans-Serif" font-size="10.00">tamtypes.h</text>
</a>
</g>
</g>
<!-- Node6&#45;&gt;Node8 -->
<g id="edge7" class="edge">
<title>Node6&#45;&gt;Node8</title>
<path fill="none" stroke="#63b8ff" d="M175.97,-54.51C191.9,-46.31 215.69,-34.07 234.14,-24.58"/>
<polygon fill="#63b8ff" stroke="#63b8ff" points="235.65,-27.74 242.94,-20.05 232.45,-21.51 235.65,-27.74"/>
</g>
<!-- Node10 -->
<g id="node10" class="node">
<title>Node10</title>
<g id="a_node10"><a xlink:href="sysclib_8h.html" target="_top" xlink:title=" ">
<polygon fill="white" stroke="#666666" points="234.5,-184 180.5,-184 180.5,-165 234.5,-165 234.5,-184"/>
<text text-anchor="middle" x="207.5" y="-172" font-family="Helvetica,sans-Serif" font-size="10.00">sysclib.h</text>
</a>
</g>
</g>
<!-- Node9&#45;&gt;Node10 -->
<g id="edge9" class="edge">
<title>Node9&#45;&gt;Node10</title>
<path fill="none" stroke="#63b8ff" d="M260.64,-219.51C251.39,-211.85 237.88,-200.66 226.79,-191.47"/>
<polygon fill="#63b8ff" stroke="#63b8ff" points="229.3,-189.01 219.36,-185.32 224.83,-194.4 229.3,-189.01"/>
</g>
<!-- Node10&#45;&gt;Node4 -->
<g id="edge12" class="edge">
<title>Node10&#45;&gt;Node4</title>
<path fill="none" stroke="#63b8ff" d="M185.11,-164.51C163.93,-156.01 131.91,-143.15 107.94,-133.53"/>
<polygon fill="#63b8ff" stroke="#63b8ff" points="109.55,-130.4 98.97,-129.92 106.94,-136.9 109.55,-130.4"/>
</g>
<!-- Node10&#45;&gt;Node5 -->
<g id="edge11" class="edge">
<title>Node10&#45;&gt;Node5</title>
<path fill="none" stroke="#63b8ff" d="M195.46,-164.51C185.09,-156.77 169.9,-145.43 157.53,-136.2"/>
<polygon fill="#63b8ff" stroke="#63b8ff" points="159.69,-133.44 149.58,-130.26 155.5,-139.05 159.69,-133.44"/>
</g>
<!-- Node10&#45;&gt;Node6 -->
<g id="edge10" class="edge">
<title>Node10&#45;&gt;Node6</title>
<path fill="none" stroke="#63b8ff" d="M203.49,-164.66C195.59,-147.26 177.87,-108.19 167.18,-84.62"/>
<polygon fill="#63b8ff" stroke="#63b8ff" points="170.51,-83.5 163.19,-75.84 164.14,-86.39 170.51,-83.5"/>
</g>
<!-- Node11 -->
<g id="node11" class="node">
<title>Node11</title>
<g id="a_node11"><a xlink:href="setjmp_8h.html" target="_top" xlink:title=" ">
<polygon fill="white" stroke="#666666" points="288,-74 235,-74 235,-55 288,-55 288,-74"/>
<text text-anchor="middle" x="261.5" y="-62" font-family="Helvetica,sans-Serif" font-size="10.00">setjmp.h</text>
</a>
</g>
</g>
<!-- Node10&#45;&gt;Node11 -->
<g id="edge13" class="edge">
<title>Node10&#45;&gt;Node11</title>
<path fill="none" stroke="#63b8ff" d="M227.35,-164.59C241.11,-157.21 258.37,-145.31 266.5,-129 273.23,-115.5 271.37,-98.36 268.16,-85.29"/>
<polygon fill="#63b8ff" stroke="#63b8ff" points="271.52,-84.31 265.34,-75.71 264.81,-86.29 271.52,-84.31"/>
</g>
<!-- Node12 -->
<g id="node12" class="node">
<title>Node12</title>
<g id="a_node12"><a xlink:href="ctype_8h.html" target="_top" xlink:title=" ">
<polygon fill="white" stroke="#666666" points="257,-129 210,-129 210,-110 257,-110 257,-129"/>
<text text-anchor="middle" x="233.5" y="-117" font-family="Helvetica,sans-Serif" font-size="10.00">ctype.h</text>
</a>
</g>
</g>
<!-- Node10&#45;&gt;Node12 -->
<g id="edge15" class="edge">
<title>Node10&#45;&gt;Node12</title>
<path fill="none" stroke="#63b8ff" d="M211.79,-164.75C215.12,-157.96 219.86,-148.3 224.06,-139.73"/>
<polygon fill="#63b8ff" stroke="#63b8ff" points="227.18,-141.32 228.45,-130.8 220.9,-138.24 227.18,-141.32"/>
</g>
<!-- Node11&#45;&gt;Node8 -->
<g id="edge14" class="edge">
<title>Node11&#45;&gt;Node8</title>
<path fill="none" stroke="#63b8ff" d="M261.5,-54.75C261.5,-48.27 261.5,-39.16 261.5,-30.9"/>
<polygon fill="#63b8ff" stroke="#63b8ff" points="265,-30.96 261.5,-20.96 258,-30.96 265,-30.96"/>
</g>
<!-- Node15&#45;&gt;Node8 -->
<g id="edge19" class="edge">
<title>Node15&#45;&gt;Node8</title>
<path fill="none" stroke="#63b8ff" d="M312.98,-54.51C304.11,-46.93 291.19,-35.88 280.51,-26.75"/>
<polygon fill="#63b8ff" stroke="#63b8ff" points="282.89,-24.18 273.01,-20.34 278.34,-29.5 282.89,-24.18"/>
</g>
<!-- Node17 -->
<g id="node17" class="node">
<title>Node17</title>
<g id="a_node17"><a xlink:href="standard_8h_source.html" target="_top" xlink:title=" ">
<polygon fill="white" stroke="#666666" points="148.5,-239 86.5,-239 86.5,-220 148.5,-220 148.5,-239"/>
<text text-anchor="middle" x="117.5" y="-227" font-family="Helvetica,sans-Serif" font-size="10.00">standard.h</text>
</a>
</g>
</g>
<!-- Node16&#45;&gt;Node17 -->
<g id="edge21" class="edge">
<title>Node16&#45;&gt;Node17</title>
<path fill="none" stroke="#63b8ff" d="M159.24,-274.75C152.34,-267.43 142.28,-256.76 133.76,-247.74"/>
<polygon fill="#63b8ff" stroke="#63b8ff" points="136.38,-245.42 126.97,-240.54 131.29,-250.22 136.38,-245.42"/>
</g>
<!-- Node17&#45;&gt;Node3 -->
<g id="edge22" class="edge">
<title>Node17&#45;&gt;Node3</title>
<path fill="none" stroke="#63b8ff" d="M119.48,-219.75C120.97,-213.19 123.06,-203.95 124.95,-195.6"/>
<polygon fill="#63b8ff" stroke="#63b8ff" points="128.35,-196.44 127.14,-185.92 121.52,-194.9 128.35,-196.44"/>
</g>
<!-- Node17&#45;&gt;Node7 -->
<g id="edge23" class="edge">
<title>Node17&#45;&gt;Node7</title>
<path fill="none" stroke="#63b8ff" d="M107.18,-219.65C89.46,-203.68 53.85,-168.06 40.5,-129 27.42,-90.73 60.64,-49.47 83.03,-27.15"/>
<polygon fill="#63b8ff" stroke="#63b8ff" points="85.33,-29.8 90.15,-20.36 80.5,-24.73 85.33,-29.8"/>
</g>
<!-- Node18&#45;&gt;Node17 -->
<g id="edge25" class="edge">
<title>Node18&#45;&gt;Node17</title>
<path fill="none" stroke="#63b8ff" d="M96.63,-274.75C99.83,-267.96 104.39,-258.3 108.43,-249.73"/>
<polygon fill="#63b8ff" stroke="#63b8ff" points="111.54,-251.35 112.64,-240.81 105.2,-248.36 111.54,-251.35"/>
</g>
</g>
</svg>
