<?xml version="1.0" encoding="UTF-8" standalone="no"?>
<!DOCTYPE svg PUBLIC "-//W3C//DTD SVG 1.1//EN"
 "http://www.w3.org/Graphics/SVG/1.1/DTD/svg11.dtd">
<!-- Generated by graphviz version 7.0.5 (20221223.1930)
 -->
<!-- Title: ee/kernel/src/exit.c Pages: 1 -->
<svg width="286pt" height="302pt"
 viewBox="0.00 0.00 285.91 302.00" xmlns="http://www.w3.org/2000/svg" xmlns:xlink="http://www.w3.org/1999/xlink">
<g id="graph0" class="graph" transform="scale(1 1) rotate(0) translate(4 298)">
<title>ee/kernel/src/exit.c</title>
<!-- Node1 -->
<g id="node1" class="node">
<title>Node1</title>
<g id="a_node1"><a xlink:title=" ">
<polygon fill="#999999" stroke="#666666" points="148.5,-294 50.5,-294 50.5,-275 148.5,-275 148.5,-294"/>
<text text-anchor="middle" x="99.5" y="-282" font-family="Helvetica,sans-Serif" font-size="10.00">ee/kernel/src/exit.c</text>
</a>
</g>
</g>
<!-- Node2 -->
<g id="node2" class="node">
<title>Node2</title>
<g id="a_node2"><a xlink:href="kernel_8h.html" target="_top" xlink:title=" ">
<polygon fill="white" stroke="#666666" points="89.5,-184 39.5,-184 39.5,-165 89.5,-165 89.5,-184"/>
<text text-anchor="middle" x="64.5" y="-172" font-family="Helvetica,sans-Serif" font-size="10.00">kernel.h</text>
</a>
</g>
</g>
<!-- Node1&#45;&gt;Node2 -->
<g id="edge1" class="edge">
<title>Node1&#45;&gt;Node2</title>
<path fill="none" stroke="#63b8ff" d="M96.64,-274.66C91.05,-257.42 78.57,-218.9 70.91,-195.27"/>
<polygon fill="#63b8ff" stroke="#63b8ff" points="74.28,-194.33 67.87,-185.9 67.62,-196.49 74.28,-194.33"/>
</g>
<!-- Node7 -->
<g id="node7" class="node">
<title>Node7</title>
<g id="a_node7"><a xlink:href="string_8h_source.html" target="_top" xlink:title=" ">
<polygon fill="white" stroke="#666666" points="153.5,-239 105.5,-239 105.5,-220 153.5,-220 153.5,-239"/>
<text text-anchor="middle" x="129.5" y="-227" font-family="Helvetica,sans-Serif" font-size="10.00">string.h</text>
</a>
</g>
</g>
<!-- Node1&#45;&gt;Node7 -->
<g id="edge6" class="edge">
<title>Node1&#45;&gt;Node7</title>
<path fill="none" stroke="#63b8ff" d="M104.45,-274.75C108.34,-267.88 113.89,-258.08 118.78,-249.45"/>
<polygon fill="#63b8ff" stroke="#63b8ff" points="121.81,-251.19 123.69,-240.76 115.72,-247.74 121.81,-251.19"/>
</g>
<!-- Node3 -->
<g id="node3" class="node">
<title>Node3</title>
<g id="a_node3"><a xlink:title=" ">
<polygon fill="#e0e0e0" stroke="#999999" points="51,-19 0,-19 0,0 51,0 51,-19"/>
<text text-anchor="middle" x="25.5" y="-7" font-family="Helvetica,sans-Serif" font-size="10.00">stddef.h</text>
</a>
</g>
</g>
<!-- Node2&#45;&gt;Node3 -->
<g id="edge2" class="edge">
<title>Node2&#45;&gt;Node3</title>
<path fill="none" stroke="#63b8ff" d="M59.01,-164.62C48.96,-147.73 28.05,-109.53 21.5,-74 18.83,-59.5 20.03,-42.85 21.79,-30.24"/>
<polygon fill="#63b8ff" stroke="#63b8ff" points="25.19,-31.14 23.37,-20.7 18.29,-29.99 25.19,-31.14"/>
</g>
<!-- Node4 -->
<g id="node4" class="node">
<title>Node4</title>
<g id="a_node4"><a xlink:title=" ">
<polygon fill="#e0e0e0" stroke="#999999" points="108,-129 57,-129 57,-110 108,-110 108,-129"/>
<text text-anchor="middle" x="82.5" y="-117" font-family="Helvetica,sans-Serif" font-size="10.00">stdarg.h</text>
</a>
</g>
</g>
<!-- Node2&#45;&gt;Node4 -->
<g id="edge3" class="edge">
<title>Node2&#45;&gt;Node4</title>
<path fill="none" stroke="#63b8ff" d="M67.47,-164.75C69.73,-158.11 72.91,-148.73 75.77,-140.31"/>
<polygon fill="#63b8ff" stroke="#63b8ff" points="79.07,-141.47 78.98,-130.88 72.45,-139.22 79.07,-141.47"/>
</g>
<!-- Node5 -->
<g id="node5" class="node">
<title>Node5</title>
<g id="a_node5"><a xlink:href="sifdma_8h.html" target="_top" xlink:title=" ">
<polygon fill="white" stroke="#666666" points="84,-74 31,-74 31,-55 84,-55 84,-74"/>
<text text-anchor="middle" x="57.5" y="-62" font-family="Helvetica,sans-Serif" font-size="10.00">sifdma.h</text>
</a>
</g>
</g>
<!-- Node2&#45;&gt;Node5 -->
<g id="edge4" class="edge">
<title>Node2&#45;&gt;Node5</title>
<path fill="none" stroke="#63b8ff" d="M59.98,-164.58C55.79,-155.79 49.87,-141.85 47.5,-129 44.8,-114.35 47.63,-97.71 50.97,-85.14"/>
<polygon fill="#63b8ff" stroke="#63b8ff" points="54.31,-86.19 53.84,-75.6 47.6,-84.17 54.31,-86.19"/>
</g>
<!-- Node6 -->
<g id="node6" class="node">
<title>Node6</title>
<g id="a_node6"><a xlink:href="tamtypes_8h.html" target="_top" xlink:title=" ">
<polygon fill="white" stroke="#666666" points="168.5,-19 104.5,-19 104.5,0 168.5,0 168.5,-19"/>
<text text-anchor="middle" x="136.5" y="-7" font-family="Helvetica,sans-Serif" font-size="10.00">tamtypes.h</text>
</a>
</g>
</g>
<!-- Node5&#45;&gt;Node6 -->
<g id="edge5" class="edge">
<title>Node5&#45;&gt;Node6</title>
<path fill="none" stroke="#63b8ff" d="M70.9,-54.51C82.66,-46.62 100.01,-34.98 113.91,-25.65"/>
<polygon fill="#63b8ff" stroke="#63b8ff" points="115.69,-28.68 122.04,-20.2 111.79,-22.87 115.69,-28.68"/>
</g>
<!-- Node8 -->
<g id="node8" class="node">
<title>Node8</title>
<g id="a_node8"><a xlink:href="sysclib_8h.html" target="_top" xlink:title=" ">
<polygon fill="white" stroke="#666666" points="180.5,-184 126.5,-184 126.5,-165 180.5,-165 180.5,-184"/>
<text text-anchor="middle" x="153.5" y="-172" font-family="Helvetica,sans-Serif" font-size="10.00">sysclib.h</text>
</a>
</g>
</g>
<!-- Node7&#45;&gt;Node8 -->
<g id="edge7" class="edge">
<title>Node7&#45;&gt;Node8</title>
<path fill="none" stroke="#63b8ff" d="M133.46,-219.75C136.54,-212.96 140.91,-203.3 144.79,-194.73"/>
<polygon fill="#63b8ff" stroke="#63b8ff" points="147.89,-196.37 148.83,-185.82 141.51,-193.49 147.89,-196.37"/>
</g>
<!-- Node8&#45;&gt;Node4 -->
<g id="edge13" class="edge">
<title>Node8&#45;&gt;Node4</title>
<path fill="none" stroke="#63b8ff" d="M141.46,-164.51C131.09,-156.77 115.9,-145.43 103.53,-136.2"/>
<polygon fill="#63b8ff" stroke="#63b8ff" points="105.69,-133.44 95.58,-130.26 101.5,-139.05 105.69,-133.44"/>
</g>
<!-- Node9 -->
<g id="node9" class="node">
<title>Node9</title>
<g id="a_node9"><a xlink:href="iop_2kernel_2include_2types_8h_source.html" target="_top" xlink:title=" ">
<polygon fill="white" stroke="#666666" points="160,-74 113,-74 113,-55 160,-55 160,-74"/>
<text text-anchor="middle" x="136.5" y="-62" font-family="Helvetica,sans-Serif" font-size="10.00">types.h</text>
</a>
</g>
</g>
<!-- Node8&#45;&gt;Node9 -->
<g id="edge8" class="edge">
<title>Node8&#45;&gt;Node9</title>
<path fill="none" stroke="#63b8ff" d="M152.11,-164.66C149.41,-147.5 143.39,-109.26 139.66,-85.6"/>
<polygon fill="#63b8ff" stroke="#63b8ff" points="143.16,-85.29 138.15,-75.96 136.24,-86.38 143.16,-85.29"/>
</g>
<!-- Node10 -->
<g id="node10" class="node">
<title>Node10</title>
<g id="a_node10"><a xlink:href="irx_8h.html" target="_top" xlink:title=" ">
<polygon fill="white" stroke="#666666" points="264.5,-129 230.5,-129 230.5,-110 264.5,-110 264.5,-129"/>
<text text-anchor="middle" x="247.5" y="-117" font-family="Helvetica,sans-Serif" font-size="10.00">irx.h</text>
</a>
</g>
</g>
<!-- Node8&#45;&gt;Node10 -->
<g id="edge11" class="edge">
<title>Node8&#45;&gt;Node10</title>
<path fill="none" stroke="#63b8ff" d="M169.45,-164.51C183.85,-156.39 205.29,-144.3 222.06,-134.85"/>
<polygon fill="#63b8ff" stroke="#63b8ff" points="223.48,-138.06 230.47,-130.1 220.04,-131.96 223.48,-138.06"/>
</g>
<!-- Node11 -->
<g id="node11" class="node">
<title>Node11</title>
<g id="a_node11"><a xlink:href="setjmp_8h.html" target="_top" xlink:title=" ">
<polygon fill="white" stroke="#666666" points="275,-74 222,-74 222,-55 275,-55 275,-74"/>
<text text-anchor="middle" x="248.5" y="-62" font-family="Helvetica,sans-Serif" font-size="10.00">setjmp.h</text>
</a>
</g>
</g>
<!-- Node8&#45;&gt;Node11 -->
<g id="edge14" class="edge">
<title>Node8&#45;&gt;Node11</title>
<path fill="none" stroke="#63b8ff" d="M180.79,-171.98C209.29,-168.76 252.69,-158.91 273.5,-129 283.3,-114.91 274.01,-96.44 264.09,-83.05"/>
<polygon fill="#63b8ff" stroke="#63b8ff" points="266.99,-81.07 257.98,-75.51 261.56,-85.48 266.99,-81.07"/>
</g>
<!-- Node12 -->
<g id="node12" class="node">
<title>Node12</title>
<g id="a_node12"><a xlink:href="ctype_8h.html" target="_top" xlink:title=" ">
<polygon fill="white" stroke="#666666" points="212,-129 165,-129 165,-110 212,-110 212,-129"/>
<text text-anchor="middle" x="188.5" y="-117" font-family="Helvetica,sans-Serif" font-size="10.00">ctype.h</text>
</a>
</g>
</g>
<!-- Node8&#45;&gt;Node12 -->
<g id="edge16" class="edge">
<title>Node8&#45;&gt;Node12</title>
<path fill="none" stroke="#63b8ff" d="M159.28,-164.75C163.91,-157.73 170.57,-147.64 176.37,-138.87"/>
<polygon fill="#63b8ff" stroke="#63b8ff" points="179.17,-140.98 181.76,-130.71 173.33,-137.12 179.17,-140.98"/>
</g>
<!-- Node9&#45;&gt;Node3 -->
<g id="edge9" class="edge">
<title>Node9&#45;&gt;Node3</title>
<path fill="none" stroke="#63b8ff" d="M117.67,-54.51C100.34,-46.24 74.39,-33.84 54.43,-24.31"/>
<polygon fill="#63b8ff" stroke="#63b8ff" points="55.95,-21.16 45.42,-20.01 52.93,-27.48 55.95,-21.16"/>
</g>
<!-- Node9&#45;&gt;Node6 -->
<g id="edge10" class="edge">
<title>Node9&#45;&gt;Node6</title>
<path fill="none" stroke="#63b8ff" d="M136.5,-54.75C136.5,-48.27 136.5,-39.16 136.5,-30.9"/>
<polygon fill="#63b8ff" stroke="#63b8ff" points="140,-30.96 136.5,-20.96 133,-30.96 140,-30.96"/>
</g>
<!-- Node10&#45;&gt;Node9 -->
<g id="edge12" class="edge">
<title>Node10&#45;&gt;Node9</title>
<path fill="none" stroke="#63b8ff" d="M230.16,-110.22C212.89,-101.98 186.08,-89.18 165.57,-79.38"/>
<polygon fill="#63b8ff" stroke="#63b8ff" points="167.1,-76.23 156.57,-75.08 164.09,-82.55 167.1,-76.23"/>
</g>
<!-- Node11&#45;&gt;Node6 -->
<g id="edge15" class="edge">
<title>Node11&#45;&gt;Node6</title>
<path fill="none" stroke="#63b8ff" d="M229.5,-54.51C211.94,-46.2 185.58,-33.73 165.41,-24.18"/>
<polygon fill="#63b8ff" stroke="#63b8ff" points="167.12,-21.12 156.59,-20.01 164.13,-27.45 167.12,-21.12"/>
</g>
</g>
</svg>
