<?xml version="1.0" encoding="UTF-8" standalone="no"?>
<!DOCTYPE svg PUBLIC "-//W3C//DTD SVG 1.1//EN"
 "http://www.w3.org/Graphics/SVG/1.1/DTD/svg11.dtd">
<!-- Generated by graphviz version 7.0.5 (20221223.1930)
 -->
<!-- Title: iop/fs/fakehost/src/fakehost.c Pages: 1 -->
<svg width="897pt" height="258pt"
 viewBox="0.00 0.00 897.00 258.00" xmlns="http://www.w3.org/2000/svg" xmlns:xlink="http://www.w3.org/1999/xlink">
<g id="graph0" class="graph" transform="scale(1 1) rotate(0) translate(4 254)">
<title>iop/fs/fakehost/src/fakehost.c</title>
<!-- Node1 -->
<g id="node1" class="node">
<title>Node1</title>
<g id="a_node1"><a xlink:title=" ">
<polygon fill="#999999" stroke="#666666" points="432.5,-250 334.5,-250 334.5,-220 432.5,-220 432.5,-250"/>
<text text-anchor="start" x="342.5" y="-238" font-family="Helvetica,sans-Serif" font-size="10.00">iop/fs/fakehost/src</text>
<text text-anchor="middle" x="383.5" y="-227" font-family="Helvetica,sans-Serif" font-size="10.00">/fakehost.c</text>
</a>
</g>
</g>
<!-- Node2 -->
<g id="node2" class="node">
<title>Node2</title>
<g id="a_node2"><a xlink:title=" ">
<polygon fill="#e0e0e0" stroke="#999999" points="47,-184 0,-184 0,-165 47,-165 47,-184"/>
<text text-anchor="middle" x="23.5" y="-172" font-family="Helvetica,sans-Serif" font-size="10.00">types.h</text>
</a>
</g>
</g>
<!-- Node1&#45;&gt;Node2 -->
<g id="edge1" class="edge">
<title>Node1&#45;&gt;Node2</title>
<path fill="none" stroke="#63b8ff" d="M334.02,-228.16C271.82,-220.43 161.58,-205.51 58.44,-184.43"/>
<polygon fill="#63b8ff" stroke="#63b8ff" points="59.18,-181.01 48.68,-182.41 57.76,-187.86 59.18,-181.01"/>
</g>
<!-- Node3 -->
<g id="node3" class="node">
<title>Node3</title>
<g id="a_node3"><a xlink:href="loadcore_8h.html" target="_top" xlink:title=" ">
<polygon fill="white" stroke="#666666" points="126,-184 65,-184 65,-165 126,-165 126,-184"/>
<text text-anchor="middle" x="95.5" y="-172" font-family="Helvetica,sans-Serif" font-size="10.00">loadcore.h</text>
</a>
</g>
</g>
<!-- Node1&#45;&gt;Node3 -->
<g id="edge2" class="edge">
<title>Node1&#45;&gt;Node3</title>
<path fill="none" stroke="#63b8ff" d="M334.32,-224.37C286.41,-214.94 211.23,-199.99 137.08,-184.51"/>
<polygon fill="#63b8ff" stroke="#63b8ff" points="138.13,-181.16 127.63,-182.54 136.7,-188.01 138.13,-181.16"/>
</g>
<!-- Node8 -->
<g id="node8" class="node">
<title>Node8</title>
<g id="a_node8"><a xlink:href="stdio_8h.html" target="_top" xlink:title=" ">
<polygon fill="white" stroke="#666666" points="406,-184 361,-184 361,-165 406,-165 406,-184"/>
<text text-anchor="middle" x="383.5" y="-172" font-family="Helvetica,sans-Serif" font-size="10.00">stdio.h</text>
</a>
</g>
</g>
<!-- Node1&#45;&gt;Node8 -->
<g id="edge8" class="edge">
<title>Node1&#45;&gt;Node8</title>
<path fill="none" stroke="#63b8ff" d="M383.5,-219.54C383.5,-212.34 383.5,-203.53 383.5,-195.68"/>
<polygon fill="#63b8ff" stroke="#63b8ff" points="387,-195.69 383.5,-185.69 380,-195.69 387,-195.69"/>
</g>
<!-- Node10 -->
<g id="node10" class="node">
<title>Node10</title>
<g id="a_node10"><a xlink:href="sysclib_8h.html" target="_top" xlink:title=" ">
<polygon fill="white" stroke="#666666" points="557.5,-184 503.5,-184 503.5,-165 557.5,-165 557.5,-184"/>
<text text-anchor="middle" x="530.5" y="-172" font-family="Helvetica,sans-Serif" font-size="10.00">sysclib.h</text>
</a>
</g>
</g>
<!-- Node1&#45;&gt;Node10 -->
<g id="edge11" class="edge">
<title>Node1&#45;&gt;Node10</title>
<path fill="none" stroke="#63b8ff" d="M419.84,-219.54C443.66,-210.06 474.54,-197.77 497.63,-188.58"/>
<polygon fill="#63b8ff" stroke="#63b8ff" points="498.87,-191.86 506.86,-184.91 496.28,-185.35 498.87,-191.86"/>
</g>
<!-- Node13 -->
<g id="node13" class="node">
<title>Node13</title>
<g id="a_node13"><a xlink:href="thbase_8h.html" target="_top" xlink:title=" ">
<polygon fill="white" stroke="#666666" points="197,-184 144,-184 144,-165 197,-165 197,-184"/>
<text text-anchor="middle" x="170.5" y="-172" font-family="Helvetica,sans-Serif" font-size="10.00">thbase.h</text>
</a>
</g>
</g>
<!-- Node1&#45;&gt;Node13 -->
<g id="edge18" class="edge">
<title>Node1&#45;&gt;Node13</title>
<path fill="none" stroke="#63b8ff" d="M334.1,-220.43C295.62,-209.86 243.02,-195.42 207.96,-185.79"/>
<polygon fill="#63b8ff" stroke="#63b8ff" points="209.26,-182.52 198.69,-183.24 207.41,-189.27 209.26,-182.52"/>
</g>
<!-- Node14 -->
<g id="node14" class="node">
<title>Node14</title>
<g id="a_node14"><a xlink:href="intrman_8h.html" target="_top" xlink:title=" ">
<polygon fill="white" stroke="#666666" points="271.5,-184 215.5,-184 215.5,-165 271.5,-165 271.5,-184"/>
<text text-anchor="middle" x="243.5" y="-172" font-family="Helvetica,sans-Serif" font-size="10.00">intrman.h</text>
</a>
</g>
</g>
<!-- Node1&#45;&gt;Node14 -->
<g id="edge21" class="edge">
<title>Node1&#45;&gt;Node14</title>
<path fill="none" stroke="#63b8ff" d="M348.89,-219.54C326.31,-210.1 297.06,-197.88 275.11,-188.71"/>
<polygon fill="#63b8ff" stroke="#63b8ff" points="276.64,-185.56 266.07,-184.93 273.94,-192.01 276.64,-185.56"/>
</g>
<!-- Node15 -->
<g id="node15" class="node">
<title>Node15</title>
<g id="a_node15"><a xlink:href="sysmem_8h.html" target="_top" xlink:title=" ">
<polygon fill="white" stroke="#666666" points="485,-184 424,-184 424,-165 485,-165 485,-184"/>
<text text-anchor="middle" x="454.5" y="-172" font-family="Helvetica,sans-Serif" font-size="10.00">sysmem.h</text>
</a>
</g>
</g>
<!-- Node1&#45;&gt;Node15 -->
<g id="edge24" class="edge">
<title>Node1&#45;&gt;Node15</title>
<path fill="none" stroke="#63b8ff" d="M401.05,-219.54C411.47,-210.96 424.68,-200.07 435.37,-191.26"/>
<polygon fill="#63b8ff" stroke="#63b8ff" points="437.31,-194.2 442.8,-185.14 432.86,-188.8 437.31,-194.2"/>
</g>
<!-- Node16 -->
<g id="node16" class="node">
<title>Node16</title>
<g id="a_node16"><a xlink:href="sifman_8h.html" target="_top" xlink:title=" ">
<polygon fill="white" stroke="#666666" points="343,-184 290,-184 290,-165 343,-165 343,-184"/>
<text text-anchor="middle" x="316.5" y="-172" font-family="Helvetica,sans-Serif" font-size="10.00">sifman.h</text>
</a>
</g>
</g>
<!-- Node1&#45;&gt;Node16 -->
<g id="edge28" class="edge">
<title>Node1&#45;&gt;Node16</title>
<path fill="none" stroke="#63b8ff" d="M366.94,-219.54C357.21,-211.04 344.89,-200.29 334.86,-191.53"/>
<polygon fill="#63b8ff" stroke="#63b8ff" points="337.41,-189.11 327.58,-185.17 332.81,-194.38 337.41,-189.11"/>
</g>
<!-- Node17 -->
<g id="node17" class="node">
<title>Node17</title>
<g id="a_node17"><a xlink:title=" ">
<polygon fill="#e0e0e0" stroke="#999999" points="796,-184 743,-184 743,-165 796,-165 796,-184"/>
<text text-anchor="middle" x="769.5" y="-172" font-family="Helvetica,sans-Serif" font-size="10.00">sifcmd.h</text>
</a>
</g>
</g>
<!-- Node1&#45;&gt;Node17 -->
<g id="edge31" class="edge">
<title>Node1&#45;&gt;Node17</title>
<path fill="none" stroke="#63b8ff" d="M432.87,-228.49C498.84,-220.8 619.56,-205.56 731.64,-184.4"/>
<polygon fill="#63b8ff" stroke="#63b8ff" points="732.15,-187.86 741.32,-182.55 730.84,-180.99 732.15,-187.86"/>
</g>
<!-- Node18 -->
<g id="node18" class="node">
<title>Node18</title>
<g id="a_node18"><a xlink:href="ioman_x_8h.html" target="_top" xlink:title=" ">
<polygon fill="white" stroke="#666666" points="725,-184 668,-184 668,-165 725,-165 725,-184"/>
<text text-anchor="middle" x="696.5" y="-172" font-family="Helvetica,sans-Serif" font-size="10.00">iomanX.h</text>
</a>
</g>
</g>
<!-- Node1&#45;&gt;Node18 -->
<g id="edge32" class="edge">
<title>Node1&#45;&gt;Node18</title>
<path fill="none" stroke="#63b8ff" d="M432.79,-225.65C485.6,-216.57 572.14,-201.3 656.78,-184.28"/>
<polygon fill="#63b8ff" stroke="#63b8ff" points="657.3,-187.74 666.41,-182.33 655.91,-180.88 657.3,-187.74"/>
</g>
<!-- Node24 -->
<g id="node24" class="node">
<title>Node24</title>
<g id="a_node24"><a xlink:href="ioman__mod_8h.html" target="_top" xlink:title=" ">
<polygon fill="white" stroke="#666666" points="649.5,-184 575.5,-184 575.5,-165 649.5,-165 649.5,-184"/>
<text text-anchor="middle" x="612.5" y="-172" font-family="Helvetica,sans-Serif" font-size="10.00">ioman_mod.h</text>
</a>
</g>
</g>
<!-- Node1&#45;&gt;Node24 -->
<g id="edge40" class="edge">
<title>Node1&#45;&gt;Node24</title>
<path fill="none" stroke="#63b8ff" d="M432.91,-221.38C472.52,-211.26 527.69,-197.16 566.4,-187.28"/>
<polygon fill="#63b8ff" stroke="#63b8ff" points="567.06,-190.72 575.89,-184.85 565.33,-183.94 567.06,-190.72"/>
</g>
<!-- Node4 -->
<g id="node4" class="node">
<title>Node4</title>
<g id="a_node4"><a xlink:href="iop_2kernel_2include_2types_8h_source.html" target="_top" xlink:title=" ">
<polygon fill="white" stroke="#666666" points="367,-74 320,-74 320,-55 367,-55 367,-74"/>
<text text-anchor="middle" x="343.5" y="-62" font-family="Helvetica,sans-Serif" font-size="10.00">types.h</text>
</a>
</g>
</g>
<!-- Node3&#45;&gt;Node4 -->
<g id="edge3" class="edge">
<title>Node3&#45;&gt;Node4</title>
<path fill="none" stroke="#63b8ff" d="M115.5,-164.6C143.29,-152.25 195.14,-129.27 239.5,-110 263.78,-99.45 291.32,-87.68 311.96,-78.89"/>
<polygon fill="#63b8ff" stroke="#63b8ff" points="313.13,-82.19 320.96,-75.06 310.39,-75.75 313.13,-82.19"/>
</g>
<!-- Node7 -->
<g id="node7" class="node">
<title>Node7</title>
<g id="a_node7"><a xlink:href="irx_8h.html" target="_top" xlink:title=" ">
<polygon fill="white" stroke="#666666" points="338.5,-129 304.5,-129 304.5,-110 338.5,-110 338.5,-129"/>
<text text-anchor="middle" x="321.5" y="-117" font-family="Helvetica,sans-Serif" font-size="10.00">irx.h</text>
</a>
</g>
</g>
<!-- Node3&#45;&gt;Node7 -->
<g id="edge6" class="edge">
<title>Node3&#45;&gt;Node7</title>
<path fill="none" stroke="#63b8ff" d="M126.45,-166.24C170.45,-155.92 250.44,-137.16 293.04,-127.18"/>
<polygon fill="#63b8ff" stroke="#63b8ff" points="293.83,-130.58 302.77,-124.89 292.23,-123.77 293.83,-130.58"/>
</g>
<!-- Node5 -->
<g id="node5" class="node">
<title>Node5</title>
<g id="a_node5"><a xlink:title=" ">
<polygon fill="#e0e0e0" stroke="#999999" points="369,-19 318,-19 318,0 369,0 369,-19"/>
<text text-anchor="middle" x="343.5" y="-7" font-family="Helvetica,sans-Serif" font-size="10.00">stddef.h</text>
</a>
</g>
</g>
<!-- Node4&#45;&gt;Node5 -->
<g id="edge4" class="edge">
<title>Node4&#45;&gt;Node5</title>
<path fill="none" stroke="#63b8ff" d="M343.5,-54.75C343.5,-48.27 343.5,-39.16 343.5,-30.9"/>
<polygon fill="#63b8ff" stroke="#63b8ff" points="347,-30.96 343.5,-20.96 340,-30.96 347,-30.96"/>
</g>
<!-- Node6 -->
<g id="node6" class="node">
<title>Node6</title>
<g id="a_node6"><a xlink:href="tamtypes_8h.html" target="_top" xlink:title=" ">
<polygon fill="white" stroke="#666666" points="469.5,-19 405.5,-19 405.5,0 469.5,0 469.5,-19"/>
<text text-anchor="middle" x="437.5" y="-7" font-family="Helvetica,sans-Serif" font-size="10.00">tamtypes.h</text>
</a>
</g>
</g>
<!-- Node4&#45;&gt;Node6 -->
<g id="edge5" class="edge">
<title>Node4&#45;&gt;Node6</title>
<path fill="none" stroke="#63b8ff" d="M359.45,-54.51C373.85,-46.39 395.29,-34.3 412.06,-24.85"/>
<polygon fill="#63b8ff" stroke="#63b8ff" points="413.48,-28.06 420.47,-20.1 410.04,-21.96 413.48,-28.06"/>
</g>
<!-- Node7&#45;&gt;Node4 -->
<g id="edge7" class="edge">
<title>Node7&#45;&gt;Node4</title>
<path fill="none" stroke="#63b8ff" d="M325.13,-109.75C327.92,-103.04 331.87,-93.52 335.4,-85.02"/>
<polygon fill="#63b8ff" stroke="#63b8ff" points="338.61,-86.42 339.21,-75.84 332.14,-83.73 338.61,-86.42"/>
</g>
<!-- Node8&#45;&gt;Node7 -->
<g id="edge10" class="edge">
<title>Node8&#45;&gt;Node7</title>
<path fill="none" stroke="#63b8ff" d="M372.98,-164.51C364.11,-156.93 351.19,-145.88 340.51,-136.75"/>
<polygon fill="#63b8ff" stroke="#63b8ff" points="342.89,-134.18 333.01,-130.34 338.34,-139.5 342.89,-134.18"/>
</g>
<!-- Node9 -->
<g id="node9" class="node">
<title>Node9</title>
<g id="a_node9"><a xlink:title=" ">
<polygon fill="#e0e0e0" stroke="#999999" points="446,-129 395,-129 395,-110 446,-110 446,-129"/>
<text text-anchor="middle" x="420.5" y="-117" font-family="Helvetica,sans-Serif" font-size="10.00">stdarg.h</text>
</a>
</g>
</g>
<!-- Node8&#45;&gt;Node9 -->
<g id="edge9" class="edge">
<title>Node8&#45;&gt;Node9</title>
<path fill="none" stroke="#63b8ff" d="M389.61,-164.75C394.51,-157.73 401.55,-147.64 407.67,-138.87"/>
<polygon fill="#63b8ff" stroke="#63b8ff" points="410.54,-140.89 413.39,-130.68 404.8,-136.88 410.54,-140.89"/>
</g>
<!-- Node10&#45;&gt;Node4 -->
<g id="edge12" class="edge">
<title>Node10&#45;&gt;Node4</title>
<path fill="none" stroke="#63b8ff" d="M522,-164.65C508.8,-151.33 482.13,-125.97 455.5,-110 431.1,-95.36 401.01,-83.71 378.16,-76.01"/>
<polygon fill="#63b8ff" stroke="#63b8ff" points="379.3,-72.7 368.71,-72.92 377.12,-79.36 379.3,-72.7"/>
</g>
<!-- Node10&#45;&gt;Node7 -->
<g id="edge13" class="edge">
<title>Node10&#45;&gt;Node7</title>
<path fill="none" stroke="#63b8ff" d="M503.18,-166.57C463.48,-156.51 390.22,-137.93 349.92,-127.71"/>
<polygon fill="#63b8ff" stroke="#63b8ff" points="350.8,-124.32 340.25,-125.25 349.08,-131.1 350.8,-124.32"/>
</g>
<!-- Node10&#45;&gt;Node9 -->
<g id="edge14" class="edge">
<title>Node10&#45;&gt;Node9</title>
<path fill="none" stroke="#63b8ff" d="M511.84,-164.51C494.67,-156.24 468.95,-143.84 449.17,-134.31"/>
<polygon fill="#63b8ff" stroke="#63b8ff" points="450.78,-131.2 440.25,-130.01 447.74,-137.51 450.78,-131.2"/>
</g>
<!-- Node11 -->
<g id="node11" class="node">
<title>Node11</title>
<g id="a_node11"><a xlink:href="setjmp_8h.html" target="_top" xlink:title=" ">
<polygon fill="white" stroke="#666666" points="482,-74 429,-74 429,-55 482,-55 482,-74"/>
<text text-anchor="middle" x="455.5" y="-62" font-family="Helvetica,sans-Serif" font-size="10.00">setjmp.h</text>
</a>
</g>
</g>
<!-- Node10&#45;&gt;Node11 -->
<g id="edge15" class="edge">
<title>Node10&#45;&gt;Node11</title>
<path fill="none" stroke="#63b8ff" d="M524.94,-164.77C517.03,-152.44 502,-129.27 488.5,-110 482.29,-101.14 475.17,-91.47 469.13,-83.42"/>
<polygon fill="#63b8ff" stroke="#63b8ff" points="471.95,-81.34 463.13,-75.47 466.36,-85.56 471.95,-81.34"/>
</g>
<!-- Node12 -->
<g id="node12" class="node">
<title>Node12</title>
<g id="a_node12"><a xlink:href="ctype_8h.html" target="_top" xlink:title=" ">
<polygon fill="white" stroke="#666666" points="588,-129 541,-129 541,-110 588,-110 588,-129"/>
<text text-anchor="middle" x="564.5" y="-117" font-family="Helvetica,sans-Serif" font-size="10.00">ctype.h</text>
</a>
</g>
</g>
<!-- Node10&#45;&gt;Node12 -->
<g id="edge17" class="edge">
<title>Node10&#45;&gt;Node12</title>
<path fill="none" stroke="#63b8ff" d="M536.11,-164.75C540.62,-157.73 547.09,-147.64 552.71,-138.87"/>
<polygon fill="#63b8ff" stroke="#63b8ff" points="555.49,-141.02 557.95,-130.72 549.6,-137.24 555.49,-141.02"/>
</g>
<!-- Node11&#45;&gt;Node6 -->
<g id="edge16" class="edge">
<title>Node11&#45;&gt;Node6</title>
<path fill="none" stroke="#63b8ff" d="M452.53,-54.75C450.27,-48.11 447.09,-38.73 444.23,-30.31"/>
<polygon fill="#63b8ff" stroke="#63b8ff" points="447.55,-29.22 441.02,-20.88 440.93,-31.47 447.55,-29.22"/>
</g>
<!-- Node13&#45;&gt;Node4 -->
<g id="edge19" class="edge">
<title>Node13&#45;&gt;Node4</title>
<path fill="none" stroke="#63b8ff" d="M184.36,-164.58C203.62,-152.22 239.59,-129.23 270.5,-110 286.62,-99.97 304.87,-88.85 319.08,-80.23"/>
<polygon fill="#63b8ff" stroke="#63b8ff" points="320.59,-83.41 327.34,-75.24 316.97,-77.42 320.59,-83.41"/>
</g>
<!-- Node13&#45;&gt;Node7 -->
<g id="edge20" class="edge">
<title>Node13&#45;&gt;Node7</title>
<path fill="none" stroke="#63b8ff" d="M196.12,-164.51C223.18,-155.01 265.73,-140.07 293.62,-130.28"/>
<polygon fill="#63b8ff" stroke="#63b8ff" points="294.54,-133.67 302.81,-127.06 292.22,-127.07 294.54,-133.67"/>
</g>
<!-- Node14&#45;&gt;Node4 -->
<g id="edge22" class="edge">
<title>Node14&#45;&gt;Node4</title>
<path fill="none" stroke="#63b8ff" d="M248.82,-164.76C256.8,-152 272.72,-127.86 289.5,-110 299.44,-99.43 311.85,-89.03 322.28,-80.95"/>
<polygon fill="#63b8ff" stroke="#63b8ff" points="324.08,-83.98 329.95,-75.16 319.86,-78.39 324.08,-83.98"/>
</g>
<!-- Node14&#45;&gt;Node7 -->
<g id="edge23" class="edge">
<title>Node14&#45;&gt;Node7</title>
<path fill="none" stroke="#63b8ff" d="M256.73,-164.51C268.34,-156.62 285.47,-144.98 299.2,-135.65"/>
<polygon fill="#63b8ff" stroke="#63b8ff" points="300.91,-138.72 307.21,-130.21 296.97,-132.93 300.91,-138.72"/>
</g>
<!-- Node15&#45;&gt;Node4 -->
<g id="edge25" class="edge">
<title>Node15&#45;&gt;Node4</title>
<path fill="none" stroke="#63b8ff" d="M436.33,-164.5C421.5,-156.56 400.6,-143.93 385.5,-129 372.13,-115.79 360.66,-97.66 353.1,-84.16"/>
<polygon fill="#63b8ff" stroke="#63b8ff" points="356.24,-82.6 348.43,-75.44 350.07,-85.91 356.24,-82.6"/>
</g>
<!-- Node15&#45;&gt;Node7 -->
<g id="edge26" class="edge">
<title>Node15&#45;&gt;Node7</title>
<path fill="none" stroke="#63b8ff" d="M431.94,-164.51C409.06,-155.39 373.62,-141.27 349.08,-131.49"/>
<polygon fill="#63b8ff" stroke="#63b8ff" points="350.65,-128.35 340.07,-127.9 348.06,-134.85 350.65,-128.35"/>
</g>
<!-- Node15&#45;&gt;Node9 -->
<g id="edge27" class="edge">
<title>Node15&#45;&gt;Node9</title>
<path fill="none" stroke="#63b8ff" d="M448.89,-164.75C444.38,-157.73 437.91,-147.64 432.29,-138.87"/>
<polygon fill="#63b8ff" stroke="#63b8ff" points="435.4,-137.24 427.05,-130.72 429.51,-141.02 435.4,-137.24"/>
</g>
<!-- Node16&#45;&gt;Node4 -->
<g id="edge29" class="edge">
<title>Node16&#45;&gt;Node4</title>
<path fill="none" stroke="#63b8ff" d="M309.54,-164.68C300.61,-152.24 287.23,-128.94 295.5,-110 300.55,-98.44 310.24,-88.54 319.6,-81.03"/>
<polygon fill="#63b8ff" stroke="#63b8ff" points="321.48,-84 327.45,-75.25 317.33,-78.36 321.48,-84"/>
</g>
<!-- Node16&#45;&gt;Node7 -->
<g id="edge30" class="edge">
<title>Node16&#45;&gt;Node7</title>
<path fill="none" stroke="#63b8ff" d="M317.33,-164.75C317.94,-158.27 318.8,-149.16 319.58,-140.9"/>
<polygon fill="#63b8ff" stroke="#63b8ff" points="323.06,-141.23 320.51,-130.95 316.09,-140.58 323.06,-141.23"/>
</g>
<!-- Node18&#45;&gt;Node4 -->
<g id="edge33" class="edge">
<title>Node18&#45;&gt;Node4</title>
<path fill="none" stroke="#63b8ff" d="M702.96,-164.52C711.82,-151.01 725.18,-125.43 711.5,-110 708.74,-106.89 470.48,-79.79 378.86,-69.47"/>
<polygon fill="#63b8ff" stroke="#63b8ff" points="379.27,-65.99 368.94,-68.35 378.48,-72.95 379.27,-65.99"/>
</g>
<!-- Node18&#45;&gt;Node9 -->
<g id="edge34" class="edge">
<title>Node18&#45;&gt;Node9</title>
<path fill="none" stroke="#63b8ff" d="M667.89,-166.99C664.72,-166.3 661.55,-165.63 658.5,-165 587.51,-150.43 504.21,-135.3 457.36,-126.98"/>
<polygon fill="#63b8ff" stroke="#63b8ff" points="458.22,-123.57 447.76,-125.28 456.99,-130.47 458.22,-123.57"/>
</g>
<!-- Node19 -->
<g id="node19" class="node">
<title>Node19</title>
<g id="a_node19"><a xlink:href="io__common_8h.html" target="_top" xlink:title=" ">
<polygon fill="white" stroke="#666666" points="832.5,-129 758.5,-129 758.5,-110 832.5,-110 832.5,-129"/>
<text text-anchor="middle" x="795.5" y="-117" font-family="Helvetica,sans-Serif" font-size="10.00">io_common.h</text>
</a>
</g>
</g>
<!-- Node18&#45;&gt;Node19 -->
<g id="edge35" class="edge">
<title>Node18&#45;&gt;Node19</title>
<path fill="none" stroke="#63b8ff" d="M713.29,-164.51C728.6,-156.31 751.47,-144.07 769.2,-134.58"/>
<polygon fill="#63b8ff" stroke="#63b8ff" points="770.46,-137.88 777.62,-130.07 767.15,-131.71 770.46,-137.88"/>
</g>
<!-- Node22 -->
<g id="node22" class="node">
<title>Node22</title>
<g id="a_node22"><a xlink:href="iox__stat_8h.html" target="_top" xlink:title=" ">
<polygon fill="white" stroke="#666666" points="702.5,-129 644.5,-129 644.5,-110 702.5,-110 702.5,-129"/>
<text text-anchor="middle" x="673.5" y="-117" font-family="Helvetica,sans-Serif" font-size="10.00">iox_stat.h</text>
</a>
</g>
</g>
<!-- Node18&#45;&gt;Node22 -->
<g id="edge38" class="edge">
<title>Node18&#45;&gt;Node22</title>
<path fill="none" stroke="#63b8ff" d="M692.7,-164.75C689.76,-157.96 685.56,-148.3 681.85,-139.73"/>
<polygon fill="#63b8ff" stroke="#63b8ff" points="685.17,-138.61 677.98,-130.83 678.75,-141.4 685.17,-138.61"/>
</g>
<!-- Node20 -->
<g id="node20" class="node">
<title>Node20</title>
<g id="a_node20"><a xlink:href="fcntl_8h_source.html" target="_top" xlink:title=" ">
<polygon fill="white" stroke="#666666" points="889,-74 828,-74 828,-55 889,-55 889,-74"/>
<text text-anchor="middle" x="858.5" y="-62" font-family="Helvetica,sans-Serif" font-size="10.00">sys/fcntl.h</text>
</a>
</g>
</g>
<!-- Node19&#45;&gt;Node20 -->
<g id="edge36" class="edge">
<title>Node19&#45;&gt;Node20</title>
<path fill="none" stroke="#63b8ff" d="M806.19,-109.51C815.2,-101.93 828.33,-90.88 839.18,-81.75"/>
<polygon fill="#63b8ff" stroke="#63b8ff" points="841.41,-84.45 846.81,-75.33 836.91,-79.09 841.41,-84.45"/>
</g>
<!-- Node21 -->
<g id="node21" class="node">
<title>Node21</title>
<g id="a_node21"><a xlink:href="unistd_8h_source.html" target="_top" xlink:title=" ">
<polygon fill="white" stroke="#666666" points="809.5,-74 741.5,-74 741.5,-55 809.5,-55 809.5,-74"/>
<text text-anchor="middle" x="775.5" y="-62" font-family="Helvetica,sans-Serif" font-size="10.00">sys/unistd.h</text>
</a>
</g>
</g>
<!-- Node19&#45;&gt;Node21 -->
<g id="edge37" class="edge">
<title>Node19&#45;&gt;Node21</title>
<path fill="none" stroke="#63b8ff" d="M792.2,-109.75C789.67,-103.04 786.07,-93.52 782.87,-85.02"/>
<polygon fill="#63b8ff" stroke="#63b8ff" points="786.21,-83.98 779.41,-75.86 779.66,-86.45 786.21,-83.98"/>
</g>
<!-- Node23 -->
<g id="node23" class="node">
<title>Node23</title>
<g id="a_node23"><a xlink:href="time_8h.html" target="_top" xlink:title=" ">
<polygon fill="white" stroke="#666666" points="704,-74 643,-74 643,-55 704,-55 704,-74"/>
<text text-anchor="middle" x="673.5" y="-62" font-family="Helvetica,sans-Serif" font-size="10.00">sys/time.h</text>
</a>
</g>
</g>
<!-- Node22&#45;&gt;Node23 -->
<g id="edge39" class="edge">
<title>Node22&#45;&gt;Node23</title>
<path fill="none" stroke="#63b8ff" d="M673.5,-109.75C673.5,-103.27 673.5,-94.16 673.5,-85.9"/>
<polygon fill="#63b8ff" stroke="#63b8ff" points="677,-85.96 673.5,-75.96 670,-85.96 677,-85.96"/>
</g>
<!-- Node24&#45;&gt;Node4 -->
<g id="edge41" class="edge">
<title>Node24&#45;&gt;Node4</title>
<path fill="none" stroke="#63b8ff" d="M613.21,-164.65C613.78,-150.85 612.66,-124.3 597.5,-110 581.72,-95.11 444.18,-77.25 378.34,-69.46"/>
<polygon fill="#63b8ff" stroke="#63b8ff" points="379.14,-66.03 368.8,-68.35 378.33,-72.98 379.14,-66.03"/>
</g>
<!-- Node24&#45;&gt;Node7 -->
<g id="edge42" class="edge">
<title>Node24&#45;&gt;Node7</title>
<path fill="none" stroke="#63b8ff" d="M575.34,-166.62C572.35,-166.07 569.38,-165.53 566.5,-165 488.04,-150.63 395.41,-133.86 349.79,-125.61"/>
<polygon fill="#63b8ff" stroke="#63b8ff" points="350.68,-122.21 340.22,-123.88 349.44,-129.1 350.68,-122.21"/>
</g>
<!-- Node24&#45;&gt;Node19 -->
<g id="edge43" class="edge">
<title>Node24&#45;&gt;Node19</title>
<path fill="none" stroke="#63b8ff" d="M643.54,-164.51C673.87,-155.73 720.23,-142.3 753.77,-132.59"/>
<polygon fill="#63b8ff" stroke="#63b8ff" points="754.52,-136.01 763.16,-129.87 752.58,-129.29 754.52,-136.01"/>
</g>
<!-- Node24&#45;&gt;Node22 -->
<g id="edge44" class="edge">
<title>Node24&#45;&gt;Node22</title>
<path fill="none" stroke="#63b8ff" d="M622.85,-164.51C631.58,-156.93 644.29,-145.88 654.8,-136.75"/>
<polygon fill="#63b8ff" stroke="#63b8ff" points="656.91,-139.55 662.16,-130.35 652.32,-134.27 656.91,-139.55"/>
</g>
</g>
</svg>
