<?xml version="1.0" encoding="UTF-8" standalone="no"?>
<!DOCTYPE svg PUBLIC "-//W3C//DTD SVG 1.1//EN"
 "http://www.w3.org/Graphics/SVG/1.1/DTD/svg11.dtd">
<!-- Generated by graphviz version 7.0.5 (20221223.1930)
 -->
<!-- Title: common/include/fileio&#45;common.h Pages: 1 -->
<svg width="240pt" height="93pt"
 viewBox="0.00 0.00 239.50 93.00" xmlns="http://www.w3.org/2000/svg" xmlns:xlink="http://www.w3.org/1999/xlink">
<g id="graph0" class="graph" transform="scale(1 1) rotate(0) translate(4 89)">
<title>common/include/fileio&#45;common.h</title>
<!-- Node1 -->
<g id="node1" class="node">
<title>Node1</title>
<g id="a_node1"><a xlink:title=" ">
<polygon fill="#999999" stroke="#666666" points="168.5,-85 58.5,-85 58.5,-55 168.5,-55 168.5,-85"/>
<text text-anchor="start" x="66.5" y="-73" font-family="Helvetica,sans-Serif" font-size="10.00">common/include/fileio</text>
<text text-anchor="middle" x="113.5" y="-62" font-family="Helvetica,sans-Serif" font-size="10.00">&#45;common.h</text>
</a>
</g>
</g>
<!-- Node2 -->
<g id="node2" class="node">
<title>Node2</title>
<g id="a_node2"><a xlink:href="ee_2kernel_2src_2fileio_8c.html" target="_top" xlink:title=" ">
<polygon fill="white" stroke="#666666" points="103,-19 0,-19 0,0 103,0 103,-19"/>
<text text-anchor="middle" x="51.5" y="-7" font-family="Helvetica,sans-Serif" font-size="10.00">ee/kernel/src/fileio.c</text>
</a>
</g>
</g>
<!-- Node1&#45;&gt;Node2 -->
<g id="edge1" class="edge">
<title>Node1&#45;&gt;Node2</title>
<path fill="none" stroke="#63b8ff" d="M89.97,-46.8C79.77,-37.17 68.41,-26.45 60.69,-19.18"/>
<polygon fill="#63b8ff" stroke="#63b8ff" points="87.4,-49.18 97.07,-53.5 92.2,-44.09 87.4,-49.18"/>
</g>
<!-- Node3 -->
<g id="node3" class="node">
<title>Node3</title>
<g id="a_node3"><a xlink:href="iop_2fs_2fileio_2src_2fileio_8c_source.html" target="_top" xlink:title=" ">
<polygon fill="white" stroke="#666666" points="231.5,-19 121.5,-19 121.5,0 231.5,0 231.5,-19"/>
<text text-anchor="middle" x="176.5" y="-7" font-family="Helvetica,sans-Serif" font-size="10.00">iop/fs/fileio/src/fileio.c</text>
</a>
</g>
</g>
<!-- Node1&#45;&gt;Node3 -->
<g id="edge2" class="edge">
<title>Node1&#45;&gt;Node3</title>
<path fill="none" stroke="#63b8ff" d="M137.41,-46.8C147.78,-37.17 159.32,-26.45 167.16,-19.18"/>
<polygon fill="#63b8ff" stroke="#63b8ff" points="135.13,-44.14 130.18,-53.51 139.89,-49.27 135.13,-44.14"/>
</g>
</g>
</svg>
