<?xml version="1.0" encoding="UTF-8" standalone="no"?>
<!DOCTYPE svg PUBLIC "-//W3C//DTD SVG 1.1//EN"
 "http://www.w3.org/Graphics/SVG/1.1/DTD/svg11.dtd">
<!-- Generated by graphviz version 7.0.5 (20221223.1930)
 -->
<!-- Title: ee/kernel/include/fileio.h Pages: 1 -->
<svg width="354pt" height="93pt"
 viewBox="0.00 0.00 353.50 93.00" xmlns="http://www.w3.org/2000/svg" xmlns:xlink="http://www.w3.org/1999/xlink">
<g id="graph0" class="graph" transform="scale(1 1) rotate(0) translate(4 89)">
<title>ee/kernel/include/fileio.h</title>
<!-- Node1 -->
<g id="node1" class="node">
<title>Node1</title>
<g id="a_node1"><a xlink:title=" ">
<polygon fill="#999999" stroke="#666666" points="230.5,-85 110.5,-85 110.5,-66 230.5,-66 230.5,-85"/>
<text text-anchor="middle" x="170.5" y="-73" font-family="Helvetica,sans-Serif" font-size="10.00">ee/kernel/include/fileio.h</text>
</a>
</g>
</g>
<!-- Node2 -->
<g id="node2" class="node">
<title>Node2</title>
<g id="a_node2"><a xlink:href="ee_2kernel_2src_2fileio_8c.html" target="_top" xlink:title=" ">
<polygon fill="white" stroke="#666666" points="103,-24.5 0,-24.5 0,-5.5 103,-5.5 103,-24.5"/>
<text text-anchor="middle" x="51.5" y="-12.5" font-family="Helvetica,sans-Serif" font-size="10.00">ee/kernel/src/fileio.c</text>
</a>
</g>
</g>
<!-- Node1&#45;&gt;Node2 -->
<g id="edge1" class="edge">
<title>Node1&#45;&gt;Node2</title>
<path fill="none" stroke="#63b8ff" d="M142.16,-60.57C119.71,-49.53 89.03,-34.45 69.74,-24.97"/>
<polygon fill="#63b8ff" stroke="#63b8ff" points="140.55,-63.68 151.07,-64.95 143.64,-57.39 140.55,-63.68"/>
</g>
<!-- Node3 -->
<g id="node3" class="node">
<title>Node3</title>
<g id="a_node3"><a xlink:href="rom0__info_8c.html" target="_top" xlink:title=" ">
<polygon fill="white" stroke="#666666" points="219.5,-30 121.5,-30 121.5,0 219.5,0 219.5,-30"/>
<text text-anchor="start" x="129.5" y="-18" font-family="Helvetica,sans-Serif" font-size="10.00">ee/kernel/src/rom0</text>
<text text-anchor="middle" x="170.5" y="-7" font-family="Helvetica,sans-Serif" font-size="10.00">_info.c</text>
</a>
</g>
</g>
<!-- Node1&#45;&gt;Node3 -->
<g id="edge2" class="edge">
<title>Node1&#45;&gt;Node3</title>
<path fill="none" stroke="#63b8ff" d="M170.5,-54.51C170.5,-46.49 170.5,-37.43 170.5,-30.11"/>
<polygon fill="#63b8ff" stroke="#63b8ff" points="167,-54.35 170.5,-64.35 174,-54.35 167,-54.35"/>
</g>
<!-- Node4 -->
<g id="node4" class="node">
<title>Node4</title>
<g id="a_node4"><a xlink:href="libcglue_2src_2glue_8c_source.html" target="_top" xlink:title=" ">
<polygon fill="white" stroke="#666666" points="345.5,-24.5 237.5,-24.5 237.5,-5.5 345.5,-5.5 345.5,-24.5"/>
<text text-anchor="middle" x="291.5" y="-12.5" font-family="Helvetica,sans-Serif" font-size="10.00">ee/libcglue/src/glue.c</text>
</a>
</g>
</g>
<!-- Node1&#45;&gt;Node4 -->
<g id="edge3" class="edge">
<title>Node1&#45;&gt;Node4</title>
<path fill="none" stroke="#63b8ff" d="M199.01,-60.72C221.86,-49.67 253.25,-34.49 272.95,-24.97"/>
<polygon fill="#63b8ff" stroke="#63b8ff" points="197.72,-57.45 190.24,-64.96 200.77,-63.75 197.72,-57.45"/>
</g>
</g>
</svg>
