<?xml version="1.0" encoding="UTF-8" standalone="no"?>
<!DOCTYPE svg PUBLIC "-//W3C//DTD SVG 1.1//EN"
 "http://www.w3.org/Graphics/SVG/1.1/DTD/svg11.dtd">
<!-- Generated by graphviz version 7.0.5 (20221223.1930)
 -->
<!-- Title: ee/rpc/filexio/include/fileXio_rpc.h Pages: 1 -->
<svg width="228pt" height="104pt"
 viewBox="0.00 0.00 228.00 104.00" xmlns="http://www.w3.org/2000/svg" xmlns:xlink="http://www.w3.org/1999/xlink">
<g id="graph0" class="graph" transform="scale(1 1) rotate(0) translate(4 100)">
<title>ee/rpc/filexio/include/fileXio_rpc.h</title>
<!-- Node1 -->
<g id="node1" class="node">
<title>Node1</title>
<g id="a_node1"><a xlink:title=" ">
<polygon fill="#999999" stroke="#666666" points="154.5,-96 50.5,-96 50.5,-66 154.5,-66 154.5,-96"/>
<text text-anchor="start" x="58.5" y="-84" font-family="Helvetica,sans-Serif" font-size="10.00">ee/rpc/filexio/include</text>
<text text-anchor="middle" x="102.5" y="-73" font-family="Helvetica,sans-Serif" font-size="10.00">/fileXio_rpc.h</text>
</a>
</g>
</g>
<!-- Node2 -->
<g id="node2" class="node">
<title>Node2</title>
<g id="a_node2"><a xlink:href="file_xio__rpc_8c.html" target="_top" xlink:title=" ">
<polygon fill="white" stroke="#666666" points="87,-30 0,-30 0,0 87,0 87,-30"/>
<text text-anchor="start" x="8" y="-18" font-family="Helvetica,sans-Serif" font-size="10.00">ee/rpc/filexio/src</text>
<text text-anchor="middle" x="43.5" y="-7" font-family="Helvetica,sans-Serif" font-size="10.00">/fileXio_rpc.c</text>
</a>
</g>
</g>
<!-- Node1&#45;&gt;Node2 -->
<g id="edge1" class="edge">
<title>Node1&#45;&gt;Node2</title>
<path fill="none" stroke="#63b8ff" d="M81.78,-57.53C73.39,-48.43 63.96,-38.19 56.56,-30.16"/>
<polygon fill="#63b8ff" stroke="#63b8ff" points="79.03,-59.7 88.38,-64.68 84.18,-54.96 79.03,-59.7"/>
</g>
<!-- Node3 -->
<g id="node3" class="node">
<title>Node3</title>
<g id="a_node3"><a xlink:href="libhdd_8c_source.html" target="_top" xlink:title=" ">
<polygon fill="white" stroke="#666666" points="220,-24.5 105,-24.5 105,-5.5 220,-5.5 220,-24.5"/>
<text text-anchor="middle" x="162.5" y="-12.5" font-family="Helvetica,sans-Serif" font-size="10.00">ee/rpc/hdd/src/libhdd.c</text>
</a>
</g>
</g>
<!-- Node1&#45;&gt;Node3 -->
<g id="edge2" class="edge">
<title>Node1&#45;&gt;Node3</title>
<path fill="none" stroke="#63b8ff" d="M123.49,-57.61C134.07,-46.32 146.3,-33.28 154.21,-24.84"/>
<polygon fill="#63b8ff" stroke="#63b8ff" points="121.14,-55 116.85,-64.69 126.24,-59.79 121.14,-55"/>
</g>
</g>
</svg>
