<?xml version="1.0" encoding="UTF-8" standalone="no"?>
<!DOCTYPE svg PUBLIC "-//W3C//DTD SVG 1.1//EN"
 "http://www.w3.org/Graphics/SVG/1.1/DTD/svg11.dtd">
<!-- Generated by graphviz version 7.0.5 (20221223.1930)
 -->
<!-- Title: ee/rpc/filexio/include/fileXio_rpc.h Pages: 1 -->
<svg width="182pt" height="203pt"
 viewBox="0.00 0.00 181.50 203.00" xmlns="http://www.w3.org/2000/svg" xmlns:xlink="http://www.w3.org/1999/xlink">
<g id="graph0" class="graph" transform="scale(1 1) rotate(0) translate(4 199)">
<title>ee/rpc/filexio/include/fileXio_rpc.h</title>
<!-- Node1 -->
<g id="node1" class="node">
<title>Node1</title>
<g id="a_node1"><a xlink:title=" ">
<polygon fill="#999999" stroke="#666666" points="159,-195 55,-195 55,-165 159,-165 159,-195"/>
<text text-anchor="start" x="63" y="-183" font-family="Helvetica,sans-Serif" font-size="10.00">ee/rpc/filexio/include</text>
<text text-anchor="middle" x="107" y="-172" font-family="Helvetica,sans-Serif" font-size="10.00">/fileXio_rpc.h</text>
</a>
</g>
</g>
<!-- Node2 -->
<g id="node2" class="node">
<title>Node2</title>
<g id="a_node2"><a xlink:href="file_xio_8h.html" target="_top" xlink:title=" ">
<polygon fill="white" stroke="#666666" points="96,-129 46,-129 46,-110 96,-110 96,-129"/>
<text text-anchor="middle" x="71" y="-117" font-family="Helvetica,sans-Serif" font-size="10.00">fileXio.h</text>
</a>
</g>
</g>
<!-- Node1&#45;&gt;Node2 -->
<g id="edge1" class="edge">
<title>Node1&#45;&gt;Node2</title>
<path fill="none" stroke="#63b8ff" d="M98.1,-164.54C93.3,-156.74 87.32,-147.03 82.21,-138.71"/>
<polygon fill="#63b8ff" stroke="#63b8ff" points="85.35,-137.15 77.13,-130.46 79.39,-140.82 85.35,-137.15"/>
</g>
<!-- Node6 -->
<g id="node6" class="node">
<title>Node6</title>
<g id="a_node6"><a xlink:title=" ">
<polygon fill="#e0e0e0" stroke="#999999" points="173.5,-129 114.5,-129 114.5,-110 173.5,-110 173.5,-129"/>
<text text-anchor="middle" x="144" y="-117" font-family="Helvetica,sans-Serif" font-size="10.00">sys/stat.h</text>
</a>
</g>
</g>
<!-- Node1&#45;&gt;Node6 -->
<g id="edge5" class="edge">
<title>Node1&#45;&gt;Node6</title>
<path fill="none" stroke="#63b8ff" d="M116.15,-164.54C121.08,-156.74 127.22,-147.03 132.48,-138.71"/>
<polygon fill="#63b8ff" stroke="#63b8ff" points="135.32,-140.78 137.7,-130.45 129.4,-137.03 135.32,-140.78"/>
</g>
<!-- Node3 -->
<g id="node3" class="node">
<title>Node3</title>
<g id="a_node3"><a xlink:href="tamtypes_8h.html" target="_top" xlink:title=" ">
<polygon fill="white" stroke="#666666" points="64,-74 0,-74 0,-55 64,-55 64,-74"/>
<text text-anchor="middle" x="32" y="-62" font-family="Helvetica,sans-Serif" font-size="10.00">tamtypes.h</text>
</a>
</g>
</g>
<!-- Node2&#45;&gt;Node3 -->
<g id="edge2" class="edge">
<title>Node2&#45;&gt;Node3</title>
<path fill="none" stroke="#63b8ff" d="M64.56,-109.75C59.34,-102.66 51.81,-92.42 45.31,-83.59"/>
<polygon fill="#63b8ff" stroke="#63b8ff" points="48.22,-81.64 39.48,-75.66 42.58,-85.79 48.22,-81.64"/>
</g>
<!-- Node4 -->
<g id="node4" class="node">
<title>Node4</title>
<g id="a_node4"><a xlink:href="iox__stat_8h.html" target="_top" xlink:title=" ">
<polygon fill="white" stroke="#666666" points="140,-74 82,-74 82,-55 140,-55 140,-74"/>
<text text-anchor="middle" x="111" y="-62" font-family="Helvetica,sans-Serif" font-size="10.00">iox_stat.h</text>
</a>
</g>
</g>
<!-- Node2&#45;&gt;Node4 -->
<g id="edge3" class="edge">
<title>Node2&#45;&gt;Node4</title>
<path fill="none" stroke="#63b8ff" d="M77.61,-109.75C82.96,-102.66 90.68,-92.42 97.35,-83.59"/>
<polygon fill="#63b8ff" stroke="#63b8ff" points="100.11,-85.74 103.34,-75.65 94.52,-81.52 100.11,-85.74"/>
</g>
<!-- Node5 -->
<g id="node5" class="node">
<title>Node5</title>
<g id="a_node5"><a xlink:href="time_8h.html" target="_top" xlink:title=" ">
<polygon fill="white" stroke="#666666" points="141.5,-19 80.5,-19 80.5,0 141.5,0 141.5,-19"/>
<text text-anchor="middle" x="111" y="-7" font-family="Helvetica,sans-Serif" font-size="10.00">sys/time.h</text>
</a>
</g>
</g>
<!-- Node4&#45;&gt;Node5 -->
<g id="edge4" class="edge">
<title>Node4&#45;&gt;Node5</title>
<path fill="none" stroke="#63b8ff" d="M111,-54.75C111,-48.27 111,-39.16 111,-30.9"/>
<polygon fill="#63b8ff" stroke="#63b8ff" points="114.5,-30.96 111,-20.96 107.5,-30.96 114.5,-30.96"/>
</g>
</g>
</svg>
