<?xml version="1.0" encoding="UTF-8" standalone="no"?>
<!DOCTYPE svg PUBLIC "-//W3C//DTD SVG 1.1//EN"
 "http://www.w3.org/Graphics/SVG/1.1/DTD/svg11.dtd">
<!-- Generated by graphviz version 7.0.5 (20221223.1930)
 -->
<!-- Title: ee/rpc/filexio/src/fileXio_rpc.c Pages: 1 -->
<!--zoomable 313 -->
<svg id="main" version="1.1" xmlns="http://www.w3.org/2000/svg" xmlns:xlink="http://www.w3.org/1999/xlink" xml:space="preserve" onload="init(evt)">
<style type="text/css"><![CDATA[
.edge:hover path { stroke: red; }
.edge:hover polygon { stroke: red; fill: red; }
]]></style>
<script type="text/javascript"><![CDATA[
var edges = document.getElementsByTagName('g');
if (edges && edges.length) {
  for (var i=0;i<edges.length;i++) {
    if (edges[i].id.substr(0,4)=='edge') {
      edges[i].setAttribute('class','edge');
    }
  }
}
]]></script>
        <defs>
                <circle id="rim" cx="0" cy="0" r="7"/>
                <circle id="rim2" cx="0" cy="0" r="3.5"/>
                <g id="zoomPlus">
                        <use xlink:href="#rim" fill="#404040">
                                <set attributeName="fill" to="#808080" begin="zoomplus.mouseover" end="zoomplus.mouseout"/>
                        </use>
                        <path d="M-4,0h8M0,-4v8" fill="none" stroke="white" stroke-width="1.5" pointer-events="none"/>
                </g>
                <g id="zoomMin">
                        <use xlink:href="#rim" fill="#404040">
                                <set attributeName="fill" to="#808080" begin="zoomminus.mouseover" end="zoomminus.mouseout"/>
                        </use>
                        <path d="M-4,0h8" fill="none" stroke="white" stroke-width="1.5" pointer-events="none"/>
                </g>
                <g id="dirArrow">
                        <path fill="none" stroke="white" stroke-width="1.5" d="M0,-3.0v7 M-2.5,-0.5L0,-3.0L2.5,-0.5"/>
                </g>
               <g id="resetDef">
                       <use xlink:href="#rim2" fill="#404040">
                               <set attributeName="fill" to="#808080" begin="reset.mouseover" end="reset.mouseout"/>
                       </use>
               </g>
        </defs>

<script type="text/javascript">
var viewWidth = 863;
var viewHeight = 313;
var sectionId = 'dynsection-0';
</script>
<script xlink:href="svgpan.js"/>
<svg id="graph" class="graph">
<g id="viewport">
<title>ee/rpc/filexio/src/fileXio_rpc.c</title>
<!-- Node1 -->
<g id="node1" class="node">
<title>Node1</title>
<g id="a_node1"><a xlink:title=" ">
<polygon fill="#999999" stroke="#666666" points="518.5,-305 431.5,-305 431.5,-275 518.5,-275 518.5,-305"/>
<text text-anchor="start" x="439.5" y="-293" font-family="Helvetica,sans-Serif" font-size="10.00">ee/rpc/filexio/src</text>
<text text-anchor="middle" x="475" y="-282" font-family="Helvetica,sans-Serif" font-size="10.00">/fileXio_rpc.c</text>
</a>
</g>
</g>
<!-- Node2 -->
<g id="node2" class="node">
<title>Node2</title>
<g id="a_node2"><a xlink:href="tamtypes_8h.html" target="_top" xlink:title=" ">
<polygon fill="white" stroke="#666666" points="339,-19 275,-19 275,0 339,0 339,-19"/>
<text text-anchor="middle" x="307" y="-7" font-family="Helvetica,sans-Serif" font-size="10.00">tamtypes.h</text>
</a>
</g>
</g>
<!-- Node1&#45;&gt;Node2 -->
<g id="edge1" class="edge">
<title>Node1&#45;&gt;Node2</title>
<path fill="none" stroke="#63b8ff" d="M509.11,-274.57C524.35,-266.37 541.08,-254.59 551,-239 575.56,-200.4 572.09,-70.61 559,-55 532.93,-23.92 415.8,-14.54 350.81,-11.71"/>
<polygon fill="#63b8ff" stroke="#63b8ff" points="350.95,-8.21 340.82,-11.32 350.68,-15.21 350.95,-8.21"/>
</g>
<!-- Node3 -->
<g id="node3" class="node">
<title>Node3</title>
<g id="a_node3"><a xlink:href="kernel_8h.html" target="_top" xlink:title=" ">
<polygon fill="white" stroke="#666666" points="50,-184 0,-184 0,-165 50,-165 50,-184"/>
<text text-anchor="middle" x="25" y="-172" font-family="Helvetica,sans-Serif" font-size="10.00">kernel.h</text>
</a>
</g>
</g>
<!-- Node1&#45;&gt;Node3 -->
<g id="edge2" class="edge">
<title>Node1&#45;&gt;Node3</title>
<path fill="none" stroke="#63b8ff" d="M431.2,-288.4C338.08,-286.37 124.04,-277.53 64,-239 48.02,-228.74 37.54,-209.38 31.51,-194.72"/>
<polygon fill="#63b8ff" stroke="#63b8ff" points="34.91,-193.8 28.14,-185.65 28.35,-196.24 34.91,-193.8"/>
</g>
<!-- Node5 -->
<g id="node5" class="node">
<title>Node5</title>
<g id="a_node5"><a xlink:title=" ">
<polygon fill="#e0e0e0" stroke="#999999" points="103.5,-129 52.5,-129 52.5,-110 103.5,-110 103.5,-129"/>
<text text-anchor="middle" x="78" y="-117" font-family="Helvetica,sans-Serif" font-size="10.00">stdarg.h</text>
</a>
</g>
</g>
<!-- Node1&#45;&gt;Node5 -->
<g id="edge23" class="edge">
<title>Node1&#45;&gt;Node5</title>
<path fill="none" stroke="#63b8ff" d="M431.32,-285.65C375.42,-280.36 276.2,-267.57 196,-239 148.58,-222.11 128.54,-223.23 97,-184 87.05,-171.63 82.31,-154.16 80.05,-140.67"/>
<polygon fill="#63b8ff" stroke="#63b8ff" points="83.52,-140.22 78.75,-130.76 76.58,-141.13 83.52,-140.22"/>
</g>
<!-- Node7 -->
<g id="node7" class="node">
<title>Node7</title>
<g id="a_node7"><a xlink:title=" ">
<polygon fill="#e0e0e0" stroke="#999999" points="646,-239 598,-239 598,-220 646,-220 646,-239"/>
<text text-anchor="middle" x="622" y="-227" font-family="Helvetica,sans-Serif" font-size="10.00">sifrpc.h</text>
</a>
</g>
</g>
<!-- Node1&#45;&gt;Node7 -->
<g id="edge7" class="edge">
<title>Node1&#45;&gt;Node7</title>
<path fill="none" stroke="#63b8ff" d="M511.34,-274.54C535.16,-265.06 566.04,-252.77 589.13,-243.58"/>
<polygon fill="#63b8ff" stroke="#63b8ff" points="590.37,-246.86 598.36,-239.91 587.78,-240.35 590.37,-246.86"/>
</g>
<!-- Node8 -->
<g id="node8" class="node">
<title>Node8</title>
<g id="a_node8"><a xlink:href="stdio_8h.html" target="_top" xlink:title=" ">
<polygon fill="white" stroke="#666666" points="151.5,-184 106.5,-184 106.5,-165 151.5,-165 151.5,-184"/>
<text text-anchor="middle" x="129" y="-172" font-family="Helvetica,sans-Serif" font-size="10.00">stdio.h</text>
</a>
</g>
</g>
<!-- Node1&#45;&gt;Node8 -->
<g id="edge8" class="edge">
<title>Node1&#45;&gt;Node8</title>
<path fill="none" stroke="#63b8ff" d="M431.23,-284.13C382.54,-277.73 302.17,-264.22 237,-239 204.93,-226.59 171.27,-205.28 150.22,-190.8"/>
<polygon fill="#63b8ff" stroke="#63b8ff" points="152.4,-188.06 142.21,-185.18 148.39,-193.79 152.4,-188.06"/>
</g>
<!-- Node11 -->
<g id="node11" class="node">
<title>Node11</title>
<g id="a_node11"><a xlink:href="string_8h_source.html" target="_top" xlink:title=" ">
<polygon fill="white" stroke="#666666" points="294,-239 246,-239 246,-220 294,-220 294,-239"/>
<text text-anchor="middle" x="270" y="-227" font-family="Helvetica,sans-Serif" font-size="10.00">string.h</text>
</a>
</g>
</g>
<!-- Node1&#45;&gt;Node11 -->
<g id="edge14" class="edge">
<title>Node1&#45;&gt;Node11</title>
<path fill="none" stroke="#63b8ff" d="M431.02,-276.45C393.5,-265.74 340.24,-250.54 305.41,-240.61"/>
<polygon fill="#63b8ff" stroke="#63b8ff" points="306.39,-237.24 295.81,-237.87 304.47,-243.98 306.39,-237.24"/>
</g>
<!-- Node15 -->
<g id="node15" class="node">
<title>Node15</title>
<g id="a_node15"><a xlink:title=" ">
<polygon fill="#e0e0e0" stroke="#999999" points="711.5,-239 664.5,-239 664.5,-220 711.5,-220 711.5,-239"/>
<text text-anchor="middle" x="688" y="-227" font-family="Helvetica,sans-Serif" font-size="10.00">stdlib.h</text>
</a>
</g>
</g>
<!-- Node1&#45;&gt;Node15 -->
<g id="edge22" class="edge">
<title>Node1&#45;&gt;Node15</title>
<path fill="none" stroke="#63b8ff" d="M518.88,-276.95C558.72,-266.01 616.7,-250.08 653.37,-240.01"/>
<polygon fill="#63b8ff" stroke="#63b8ff" points="653.84,-243.51 662.56,-237.49 651.99,-236.76 653.84,-243.51"/>
</g>
<!-- Node16 -->
<g id="node16" class="node">
<title>Node16</title>
<g id="a_node16"><a xlink:href="fcntl_8h_source.html" target="_top" xlink:title=" ">
<polygon fill="white" stroke="#666666" points="790.5,-239 729.5,-239 729.5,-220 790.5,-220 790.5,-239"/>
<text text-anchor="middle" x="760" y="-227" font-family="Helvetica,sans-Serif" font-size="10.00">sys/fcntl.h</text>
</a>
</g>
</g>
<!-- Node1&#45;&gt;Node16 -->
<g id="edge24" class="edge">
<title>Node1&#45;&gt;Node16</title>
<path fill="none" stroke="#63b8ff" d="M518.59,-280.33C565.48,-270.97 642.55,-255.45 718.2,-239.57"/>
<polygon fill="#63b8ff" stroke="#63b8ff" points="718.81,-243.02 727.87,-237.53 717.36,-236.17 718.81,-243.02"/>
</g>
<!-- Node17 -->
<g id="node17" class="node">
<title>Node17</title>
<g id="a_node17"><a xlink:title=" ">
<polygon fill="#e0e0e0" stroke="#999999" points="481.5,-184 422.5,-184 422.5,-165 481.5,-165 481.5,-184"/>
<text text-anchor="middle" x="452" y="-172" font-family="Helvetica,sans-Serif" font-size="10.00">sys/stat.h</text>
</a>
</g>
</g>
<!-- Node1&#45;&gt;Node17 -->
<g id="edge25" class="edge">
<title>Node1&#45;&gt;Node17</title>
<path fill="none" stroke="#63b8ff" d="M471.71,-274.58C469.46,-264.61 466.46,-251.02 464,-239 461,-224.33 457.87,-207.69 455.55,-195.12"/>
<polygon fill="#63b8ff" stroke="#63b8ff" points="459.06,-194.84 453.82,-185.63 452.17,-196.1 459.06,-194.84"/>
</g>
<!-- Node18 -->
<g id="node18" class="node">
<title>Node18</title>
<g id="a_node18"><a xlink:href="ps2sdkapi_8h_source.html" target="_top" xlink:title=" ">
<polygon fill="white" stroke="#666666" points="409,-239 341,-239 341,-220 409,-220 409,-239"/>
<text text-anchor="middle" x="375" y="-227" font-family="Helvetica,sans-Serif" font-size="10.00">ps2sdkapi.h</text>
</a>
</g>
</g>
<!-- Node1&#45;&gt;Node18 -->
<g id="edge26" class="edge">
<title>Node1&#45;&gt;Node18</title>
<path fill="none" stroke="#63b8ff" d="M450.28,-274.54C434.96,-265.58 415.34,-254.1 399.98,-245.11"/>
<polygon fill="#63b8ff" stroke="#63b8ff" points="401.83,-242.14 391.43,-240.11 398.29,-248.18 401.83,-242.14"/>
</g>
<!-- Node22 -->
<g id="node22" class="node">
<title>Node22</title>
<g id="a_node22"><a xlink:href="file_xio__rpc_8h.html" target="_top" xlink:title=" ">
<polygon fill="white" stroke="#666666" points="541.5,-239 472.5,-239 472.5,-220 541.5,-220 541.5,-239"/>
<text text-anchor="middle" x="507" y="-227" font-family="Helvetica,sans-Serif" font-size="10.00">fileXio_rpc.h</text>
</a>
</g>
</g>
<!-- Node1&#45;&gt;Node22 -->
<g id="edge32" class="edge">
<title>Node1&#45;&gt;Node22</title>
<path fill="none" stroke="#63b8ff" d="M482.91,-274.54C487.08,-266.91 492.25,-257.46 496.73,-249.27"/>
<polygon fill="#63b8ff" stroke="#63b8ff" points="499.8,-250.96 501.53,-240.5 493.66,-247.6 499.8,-250.96"/>
</g>
<!-- Node26 -->
<g id="node26" class="node">
<title>Node26</title>
<g id="a_node26"><a xlink:href="errno_8h.html" target="_top" xlink:title=" ">
<polygon fill="white" stroke="#666666" points="855,-239 809,-239 809,-220 855,-220 855,-239"/>
<text text-anchor="middle" x="832" y="-227" font-family="Helvetica,sans-Serif" font-size="10.00">errno.h</text>
</a>
</g>
</g>
<!-- Node1&#45;&gt;Node26 -->
<g id="edge38" class="edge">
<title>Node1&#45;&gt;Node26</title>
<path fill="none" stroke="#63b8ff" d="M518.9,-283.76C579.46,-276.2 692.21,-260.95 797.5,-239.33"/>
<polygon fill="#63b8ff" stroke="#63b8ff" points="798.09,-242.78 807.17,-237.32 796.67,-235.93 798.09,-242.78"/>
</g>
<!-- Node4 -->
<g id="node4" class="node">
<title>Node4</title>
<g id="a_node4"><a xlink:title=" ">
<polygon fill="#e0e0e0" stroke="#999999" points="110.5,-19 59.5,-19 59.5,0 110.5,0 110.5,-19"/>
<text text-anchor="middle" x="85" y="-7" font-family="Helvetica,sans-Serif" font-size="10.00">stddef.h</text>
</a>
</g>
</g>
<!-- Node3&#45;&gt;Node4 -->
<g id="edge3" class="edge">
<title>Node3&#45;&gt;Node4</title>
<path fill="none" stroke="#63b8ff" d="M24.38,-164.59C23.33,-144.02 22.93,-92.17 42,-55 47.47,-44.33 56.35,-34.5 64.62,-26.82"/>
<polygon fill="#63b8ff" stroke="#63b8ff" points="66.78,-29.57 72.03,-20.37 62.19,-24.29 66.78,-29.57"/>
</g>
<!-- Node3&#45;&gt;Node5 -->
<g id="edge4" class="edge">
<title>Node3&#45;&gt;Node5</title>
<path fill="none" stroke="#63b8ff" d="M33.75,-164.75C41.15,-157.35 51.96,-146.54 61.05,-137.45"/>
<polygon fill="#63b8ff" stroke="#63b8ff" points="63.39,-140.06 67.99,-130.51 58.44,-135.11 63.39,-140.06"/>
</g>
<!-- Node6 -->
<g id="node6" class="node">
<title>Node6</title>
<g id="a_node6"><a xlink:href="sifdma_8h.html" target="_top" xlink:title=" ">
<polygon fill="white" stroke="#666666" points="104.5,-74 51.5,-74 51.5,-55 104.5,-55 104.5,-74"/>
<text text-anchor="middle" x="78" y="-62" font-family="Helvetica,sans-Serif" font-size="10.00">sifdma.h</text>
</a>
</g>
</g>
<!-- Node3&#45;&gt;Node6 -->
<g id="edge5" class="edge">
<title>Node3&#45;&gt;Node6</title>
<path fill="none" stroke="#63b8ff" d="M26.34,-164.89C28.54,-152.3 33.63,-128.38 43,-110 47.95,-100.29 55.18,-90.64 61.79,-82.82"/>
<polygon fill="#63b8ff" stroke="#63b8ff" points="64.31,-85.25 68.33,-75.44 59.08,-80.6 64.31,-85.25"/>
</g>
<!-- Node6&#45;&gt;Node2 -->
<g id="edge6" class="edge">
<title>Node6&#45;&gt;Node2</title>
<path fill="none" stroke="#63b8ff" d="M104.72,-57.32C143.74,-48.29 216.75,-31.39 263.56,-20.55"/>
<polygon fill="#63b8ff" stroke="#63b8ff" points="264.14,-24.01 273.1,-18.35 262.57,-17.19 264.14,-24.01"/>
</g>
<!-- Node8&#45;&gt;Node5 -->
<g id="edge9" class="edge">
<title>Node8&#45;&gt;Node5</title>
<path fill="none" stroke="#63b8ff" d="M120.58,-164.75C113.53,-157.43 103.27,-146.76 94.59,-137.74"/>
<polygon fill="#63b8ff" stroke="#63b8ff" points="97.11,-135.31 87.65,-130.53 92.07,-140.17 97.11,-135.31"/>
</g>
<!-- Node9 -->
<g id="node9" class="node">
<title>Node9</title>
<g id="a_node9"><a xlink:href="irx_8h.html" target="_top" xlink:title=" ">
<polygon fill="white" stroke="#666666" points="156,-129 122,-129 122,-110 156,-110 156,-129"/>
<text text-anchor="middle" x="139" y="-117" font-family="Helvetica,sans-Serif" font-size="10.00">irx.h</text>
</a>
</g>
</g>
<!-- Node8&#45;&gt;Node9 -->
<g id="edge10" class="edge">
<title>Node8&#45;&gt;Node9</title>
<path fill="none" stroke="#63b8ff" d="M130.65,-164.75C131.89,-158.19 133.63,-148.95 135.21,-140.6"/>
<polygon fill="#63b8ff" stroke="#63b8ff" points="138.62,-141.4 137.03,-130.93 131.74,-140.11 138.62,-141.4"/>
</g>
<!-- Node10 -->
<g id="node10" class="node">
<title>Node10</title>
<g id="a_node10"><a xlink:href="iop_2kernel_2include_2types_8h_source.html" target="_top" xlink:title=" ">
<polygon fill="white" stroke="#666666" points="184.5,-74 137.5,-74 137.5,-55 184.5,-55 184.5,-74"/>
<text text-anchor="middle" x="161" y="-62" font-family="Helvetica,sans-Serif" font-size="10.00">types.h</text>
</a>
</g>
</g>
<!-- Node9&#45;&gt;Node10 -->
<g id="edge11" class="edge">
<title>Node9&#45;&gt;Node10</title>
<path fill="none" stroke="#63b8ff" d="M142.63,-109.75C145.42,-103.04 149.37,-93.52 152.9,-85.02"/>
<polygon fill="#63b8ff" stroke="#63b8ff" points="156.11,-86.42 156.71,-75.84 149.64,-83.73 156.11,-86.42"/>
</g>
<!-- Node10&#45;&gt;Node2 -->
<g id="edge13" class="edge">
<title>Node10&#45;&gt;Node2</title>
<path fill="none" stroke="#63b8ff" d="M184.78,-54.87C208.36,-46.31 244.76,-33.09 271.71,-23.31"/>
<polygon fill="#63b8ff" stroke="#63b8ff" points="272.62,-26.7 280.83,-20 270.23,-20.12 272.62,-26.7"/>
</g>
<!-- Node10&#45;&gt;Node4 -->
<g id="edge12" class="edge">
<title>Node10&#45;&gt;Node4</title>
<path fill="none" stroke="#63b8ff" d="M148.11,-54.51C136.9,-46.7 120.43,-35.21 107.12,-25.93"/>
<polygon fill="#63b8ff" stroke="#63b8ff" points="109.15,-23.07 98.94,-20.22 105.14,-28.81 109.15,-23.07"/>
</g>
<!-- Node12 -->
<g id="node12" class="node">
<title>Node12</title>
<g id="a_node12"><a xlink:href="sysclib_8h.html" target="_top" xlink:title=" ">
<polygon fill="white" stroke="#666666" points="224,-184 170,-184 170,-165 224,-165 224,-184"/>
<text text-anchor="middle" x="197" y="-172" font-family="Helvetica,sans-Serif" font-size="10.00">sysclib.h</text>
</a>
</g>
</g>
<!-- Node11&#45;&gt;Node12 -->
<g id="edge15" class="edge">
<title>Node11&#45;&gt;Node12</title>
<path fill="none" stroke="#63b8ff" d="M257.62,-219.51C246.85,-211.7 231.03,-200.21 218.25,-190.93"/>
<polygon fill="#63b8ff" stroke="#63b8ff" points="220.57,-188.29 210.43,-185.25 216.46,-193.95 220.57,-188.29"/>
</g>
<!-- Node12&#45;&gt;Node5 -->
<g id="edge18" class="edge">
<title>Node12&#45;&gt;Node5</title>
<path fill="none" stroke="#63b8ff" d="M176.81,-164.51C157.98,-156.12 129.63,-143.5 108.13,-133.92"/>
<polygon fill="#63b8ff" stroke="#63b8ff" points="109.83,-130.85 99.27,-129.97 106.98,-137.24 109.83,-130.85"/>
</g>
<!-- Node12&#45;&gt;Node9 -->
<g id="edge17" class="edge">
<title>Node12&#45;&gt;Node9</title>
<path fill="none" stroke="#63b8ff" d="M187.16,-164.51C178.95,-157 167.02,-146.1 157.09,-137.03"/>
<polygon fill="#63b8ff" stroke="#63b8ff" points="159.55,-134.54 149.81,-130.38 154.83,-139.71 159.55,-134.54"/>
</g>
<!-- Node12&#45;&gt;Node10 -->
<g id="edge16" class="edge">
<title>Node12&#45;&gt;Node10</title>
<path fill="none" stroke="#63b8ff" d="M194.05,-164.66C188.31,-147.42 175.47,-108.9 167.59,-85.27"/>
<polygon fill="#63b8ff" stroke="#63b8ff" points="170.95,-84.28 164.47,-75.9 164.31,-86.49 170.95,-84.28"/>
</g>
<!-- Node13 -->
<g id="node13" class="node">
<title>Node13</title>
<g id="a_node13"><a xlink:href="setjmp_8h.html" target="_top" xlink:title=" ">
<polygon fill="white" stroke="#666666" points="299.5,-74 246.5,-74 246.5,-55 299.5,-55 299.5,-74"/>
<text text-anchor="middle" x="273" y="-62" font-family="Helvetica,sans-Serif" font-size="10.00">setjmp.h</text>
</a>
</g>
</g>
<!-- Node12&#45;&gt;Node13 -->
<g id="edge19" class="edge">
<title>Node12&#45;&gt;Node13</title>
<path fill="none" stroke="#63b8ff" d="M222.86,-164.63C239.05,-157.63 258.72,-146.14 269,-129 276.75,-116.08 277.37,-98.9 276.27,-85.67"/>
<polygon fill="#63b8ff" stroke="#63b8ff" points="279.77,-85.44 275.04,-75.96 272.82,-86.32 279.77,-85.44"/>
</g>
<!-- Node14 -->
<g id="node14" class="node">
<title>Node14</title>
<g id="a_node14"><a xlink:href="ctype_8h.html" target="_top" xlink:title=" ">
<polygon fill="white" stroke="#666666" points="259.5,-129 212.5,-129 212.5,-110 259.5,-110 259.5,-129"/>
<text text-anchor="middle" x="236" y="-117" font-family="Helvetica,sans-Serif" font-size="10.00">ctype.h</text>
</a>
</g>
</g>
<!-- Node12&#45;&gt;Node14 -->
<g id="edge21" class="edge">
<title>Node12&#45;&gt;Node14</title>
<path fill="none" stroke="#63b8ff" d="M203.44,-164.75C208.66,-157.66 216.19,-147.42 222.69,-138.59"/>
<polygon fill="#63b8ff" stroke="#63b8ff" points="225.42,-140.79 228.52,-130.66 219.78,-136.64 225.42,-140.79"/>
</g>
<!-- Node13&#45;&gt;Node2 -->
<g id="edge20" class="edge">
<title>Node13&#45;&gt;Node2</title>
<path fill="none" stroke="#63b8ff" d="M278.61,-54.75C283.12,-47.73 289.59,-37.64 295.21,-28.87"/>
<polygon fill="#63b8ff" stroke="#63b8ff" points="297.99,-31.02 300.45,-20.72 292.1,-27.24 297.99,-31.02"/>
</g>
<!-- Node18&#45;&gt;Node17 -->
<g id="edge29" class="edge">
<title>Node18&#45;&gt;Node17</title>
<path fill="none" stroke="#63b8ff" d="M388.06,-219.51C399.52,-211.62 416.43,-199.98 429.98,-190.65"/>
<polygon fill="#63b8ff" stroke="#63b8ff" points="431.63,-193.77 437.88,-185.22 427.66,-188 431.63,-193.77"/>
</g>
<!-- Node19 -->
<g id="node19" class="node">
<title>Node19</title>
<g id="a_node19"><a xlink:title=" ">
<polygon fill="#e0e0e0" stroke="#999999" points="328,-184 280,-184 280,-165 328,-165 328,-184"/>
<text text-anchor="middle" x="304" y="-172" font-family="Helvetica,sans-Serif" font-size="10.00">dirent.h</text>
</a>
</g>
</g>
<!-- Node18&#45;&gt;Node19 -->
<g id="edge27" class="edge">
<title>Node18&#45;&gt;Node19</title>
<path fill="none" stroke="#63b8ff" d="M362.96,-219.51C352.59,-211.77 337.4,-200.43 325.03,-191.2"/>
<polygon fill="#63b8ff" stroke="#63b8ff" points="327.19,-188.44 317.08,-185.26 323,-194.05 327.19,-188.44"/>
</g>
<!-- Node20 -->
<g id="node20" class="node">
<title>Node20</title>
<g id="a_node20"><a xlink:title=" ">
<polygon fill="#e0e0e0" stroke="#999999" points="404,-184 346,-184 346,-165 404,-165 404,-184"/>
<text text-anchor="middle" x="375" y="-172" font-family="Helvetica,sans-Serif" font-size="10.00">inttypes.h</text>
</a>
</g>
</g>
<!-- Node18&#45;&gt;Node20 -->
<g id="edge28" class="edge">
<title>Node18&#45;&gt;Node20</title>
<path fill="none" stroke="#63b8ff" d="M375,-219.75C375,-213.27 375,-204.16 375,-195.9"/>
<polygon fill="#63b8ff" stroke="#63b8ff" points="378.5,-195.96 375,-185.96 371.5,-195.96 378.5,-195.96"/>
</g>
<!-- Node21 -->
<g id="node21" class="node">
<title>Node21</title>
<g id="a_node21"><a xlink:href="timer_8h.html" target="_top" xlink:title=" ">
<polygon fill="white" stroke="#666666" points="364,-74 318,-74 318,-55 364,-55 364,-74"/>
<text text-anchor="middle" x="341" y="-62" font-family="Helvetica,sans-Serif" font-size="10.00">timer.h</text>
</a>
</g>
</g>
<!-- Node18&#45;&gt;Node21 -->
<g id="edge30" class="edge">
<title>Node18&#45;&gt;Node21</title>
<path fill="none" stroke="#63b8ff" d="M340.63,-223.73C316.68,-218.42 286.36,-207.28 271,-184 258.7,-165.36 301.66,-110.79 325.76,-82.68"/>
<polygon fill="#63b8ff" stroke="#63b8ff" points="328.17,-85.23 332.1,-75.39 322.9,-80.63 328.17,-85.23"/>
</g>
<!-- Node21&#45;&gt;Node2 -->
<g id="edge31" class="edge">
<title>Node21&#45;&gt;Node2</title>
<path fill="none" stroke="#63b8ff" d="M335.39,-54.75C330.88,-47.73 324.41,-37.64 318.79,-28.87"/>
<polygon fill="#63b8ff" stroke="#63b8ff" points="321.9,-27.24 313.55,-20.72 316.01,-31.02 321.9,-27.24"/>
</g>
<!-- Node22&#45;&gt;Node17 -->
<g id="edge37" class="edge">
<title>Node22&#45;&gt;Node17</title>
<path fill="none" stroke="#63b8ff" d="M497.92,-219.75C490.16,-212.27 478.79,-201.32 469.3,-192.17"/>
<polygon fill="#63b8ff" stroke="#63b8ff" points="472,-189.91 462.37,-185.49 467.14,-194.95 472,-189.91"/>
</g>
<!-- Node23 -->
<g id="node23" class="node">
<title>Node23</title>
<g id="a_node23"><a xlink:href="file_xio_8h.html" target="_top" xlink:title=" ">
<polygon fill="white" stroke="#666666" points="550,-184 500,-184 500,-165 550,-165 550,-184"/>
<text text-anchor="middle" x="525" y="-172" font-family="Helvetica,sans-Serif" font-size="10.00">fileXio.h</text>
</a>
</g>
</g>
<!-- Node22&#45;&gt;Node23 -->
<g id="edge33" class="edge">
<title>Node22&#45;&gt;Node23</title>
<path fill="none" stroke="#63b8ff" d="M509.97,-219.75C512.23,-213.11 515.41,-203.73 518.27,-195.31"/>
<polygon fill="#63b8ff" stroke="#63b8ff" points="521.57,-196.47 521.48,-185.88 514.95,-194.22 521.57,-196.47"/>
</g>
<!-- Node23&#45;&gt;Node2 -->
<g id="edge34" class="edge">
<title>Node23&#45;&gt;Node2</title>
<path fill="none" stroke="#63b8ff" d="M514.14,-164.61C489.47,-144.52 427.16,-94.3 373,-55 359.06,-44.88 343.04,-34.06 330.28,-25.63"/>
<polygon fill="#63b8ff" stroke="#63b8ff" points="332.39,-22.83 322.11,-20.26 328.54,-28.68 332.39,-22.83"/>
</g>
<!-- Node24 -->
<g id="node24" class="node">
<title>Node24</title>
<g id="a_node24"><a xlink:href="iox__stat_8h.html" target="_top" xlink:title=" ">
<polygon fill="white" stroke="#666666" points="549,-129 491,-129 491,-110 549,-110 549,-129"/>
<text text-anchor="middle" x="520" y="-117" font-family="Helvetica,sans-Serif" font-size="10.00">iox_stat.h</text>
</a>
</g>
</g>
<!-- Node23&#45;&gt;Node24 -->
<g id="edge35" class="edge">
<title>Node23&#45;&gt;Node24</title>
<path fill="none" stroke="#63b8ff" d="M524.17,-164.75C523.56,-158.27 522.7,-149.16 521.92,-140.9"/>
<polygon fill="#63b8ff" stroke="#63b8ff" points="525.41,-140.58 520.99,-130.95 518.44,-141.23 525.41,-140.58"/>
</g>
<!-- Node25 -->
<g id="node25" class="node">
<title>Node25</title>
<g id="a_node25"><a xlink:href="time_8h.html" target="_top" xlink:title=" ">
<polygon fill="white" stroke="#666666" points="549.5,-74 488.5,-74 488.5,-55 549.5,-55 549.5,-74"/>
<text text-anchor="middle" x="519" y="-62" font-family="Helvetica,sans-Serif" font-size="10.00">sys/time.h</text>
</a>
</g>
</g>
<!-- Node24&#45;&gt;Node25 -->
<g id="edge36" class="edge">
<title>Node24&#45;&gt;Node25</title>
<path fill="none" stroke="#63b8ff" d="M519.83,-109.75C519.71,-103.27 519.54,-94.16 519.38,-85.9"/>
<polygon fill="#63b8ff" stroke="#63b8ff" points="522.89,-85.89 519.2,-75.96 515.89,-86.02 522.89,-85.89"/>
</g>
</g>
</svg>
        <g id="navigator" transform="translate(0 0)" fill="#404254">
                <rect fill="#f2f5e9" fill-opacity="0.5" stroke="#606060" stroke-width=".5" x="0" y="0" width="60" height="60"/>
                <use id="zoomplus" xlink:href="#zoomPlus" x="17" y="9" onmousedown="handleZoom(evt,'in')"/>
                <use id="zoomminus" xlink:href="#zoomMin" x="42" y="9" onmousedown="handleZoom(evt,'out')"/>
                <use id="reset" xlink:href="#resetDef" x="30" y="36" onmousedown="handleReset()"/>
                <g id="arrowUp" xlink:href="#dirArrow" transform="translate(30 24)" onmousedown="handlePan(0,-1)">
                  <use xlink:href="#rim" fill="#404040">
                        <set attributeName="fill" to="#808080" begin="arrowUp.mouseover" end="arrowUp.mouseout"/>
                  </use>
                  <path fill="none" stroke="white" stroke-width="1.5" d="M0,-3.0v7 M-2.5,-0.5L0,-3.0L2.5,-0.5"/>
                </g>
                <g id="arrowRight" xlink:href="#dirArrow" transform="rotate(90) translate(36 -43)" onmousedown="handlePan(1,0)">
                  <use xlink:href="#rim" fill="#404040">
                        <set attributeName="fill" to="#808080" begin="arrowRight.mouseover" end="arrowRight.mouseout"/>
                  </use>
                  <path fill="none" stroke="white" stroke-width="1.5" d="M0,-3.0v7 M-2.5,-0.5L0,-3.0L2.5,-0.5"/>
                </g>
                <g id="arrowDown" xlink:href="#dirArrow" transform="rotate(180) translate(-30 -48)" onmousedown="handlePan(0,1)">
                  <use xlink:href="#rim" fill="#404040">
                        <set attributeName="fill" to="#808080" begin="arrowDown.mouseover" end="arrowDown.mouseout"/>
                  </use>
                  <path fill="none" stroke="white" stroke-width="1.5" d="M0,-3.0v7 M-2.5,-0.5L0,-3.0L2.5,-0.5"/>
                </g>
                <g id="arrowLeft" xlink:href="#dirArrow" transform="rotate(270) translate(-36 17)" onmousedown="handlePan(-1,0)">
                  <use xlink:href="#rim" fill="#404040">
                        <set attributeName="fill" to="#808080" begin="arrowLeft.mouseover" end="arrowLeft.mouseout"/>
                  </use>
                  <path fill="none" stroke="white" stroke-width="1.5" d="M0,-3.0v7 M-2.5,-0.5L0,-3.0L2.5,-0.5"/>
                </g>
        </g>
        <svg viewBox="0 0 15 15" width="100%" height="30px" preserveAspectRatio="xMaxYMin meet">
         <g id="arrow_out" transform="scale(0.3 0.3)">
          <a xlink:href="file_xio__rpc_8c__incl_org.svg" target="_base">
           <rect id="button" ry="5" rx="5" y="6" x="6" height="38" width="38"
                fill="#f2f5e9" fill-opacity="0.5" stroke="#606060" stroke-width="1.0"/>
           <path id="arrow"
             d="M 11.500037,31.436501 C 11.940474,20.09759 22.043105,11.32322 32.158766,21.979434 L 37.068811,17.246167 C 37.068811,17.246167 37.088388,32 37.088388,32 L 22.160133,31.978069 C 22.160133,31.978069 26.997745,27.140456 26.997745,27.140456 C 18.528582,18.264221 13.291696,25.230495 11.500037,31.436501 z"
             style="fill:#404040;"/>
          </a>
         </g>
        </svg>
</svg>
