<?xml version="1.0" encoding="UTF-8" standalone="no"?>
<!DOCTYPE svg PUBLIC "-//W3C//DTD SVG 1.1//EN"
 "http://www.w3.org/Graphics/SVG/1.1/DTD/svg11.dtd">
<!-- Generated by graphviz version 7.0.5 (20221223.1930)
 -->
<!-- Title: common/include/fileXio.h Pages: 1 -->
<svg width="265pt" height="159pt"
 viewBox="0.00 0.00 264.50 159.00" xmlns="http://www.w3.org/2000/svg" xmlns:xlink="http://www.w3.org/1999/xlink">
<g id="graph0" class="graph" transform="scale(1 1) rotate(0) translate(4 155)">
<title>common/include/fileXio.h</title>
<!-- Node1 -->
<g id="node1" class="node">
<title>Node1</title>
<g id="a_node1"><a xlink:title=" ">
<polygon fill="#999999" stroke="#666666" points="221,-151 96,-151 96,-132 221,-132 221,-151"/>
<text text-anchor="middle" x="158.5" y="-139" font-family="Helvetica,sans-Serif" font-size="10.00">common/include/fileXio.h</text>
</a>
</g>
</g>
<!-- Node2 -->
<g id="node2" class="node">
<title>Node2</title>
<g id="a_node2"><a xlink:href="file_xio__rpc_8h.html" target="_top" xlink:title=" ">
<polygon fill="white" stroke="#666666" points="154.5,-96 50.5,-96 50.5,-66 154.5,-66 154.5,-96"/>
<text text-anchor="start" x="58.5" y="-84" font-family="Helvetica,sans-Serif" font-size="10.00">ee/rpc/filexio/include</text>
<text text-anchor="middle" x="102.5" y="-73" font-family="Helvetica,sans-Serif" font-size="10.00">/fileXio_rpc.h</text>
</a>
</g>
</g>
<!-- Node1&#45;&gt;Node2 -->
<g id="edge1" class="edge">
<title>Node1&#45;&gt;Node2</title>
<path fill="none" stroke="#63b8ff" d="M142.33,-123.61C133.99,-114.89 123.93,-104.39 116.01,-96.11"/>
<polygon fill="#63b8ff" stroke="#63b8ff" points="139.75,-125.97 149.19,-130.77 144.8,-121.13 139.75,-125.97"/>
</g>
<!-- Node5 -->
<g id="node5" class="node">
<title>Node5</title>
<g id="a_node5"><a xlink:href="file_xio__iop_8c.html" target="_top" xlink:title=" ">
<polygon fill="white" stroke="#666666" points="256.5,-96 172.5,-96 172.5,-66 256.5,-66 256.5,-96"/>
<text text-anchor="start" x="180.5" y="-84" font-family="Helvetica,sans-Serif" font-size="10.00">iop/fs/filexio/src</text>
<text text-anchor="middle" x="214.5" y="-73" font-family="Helvetica,sans-Serif" font-size="10.00">/fileXio_iop.c</text>
</a>
</g>
</g>
<!-- Node1&#45;&gt;Node5 -->
<g id="edge4" class="edge">
<title>Node1&#45;&gt;Node5</title>
<path fill="none" stroke="#63b8ff" d="M174.67,-123.61C183.01,-114.89 193.07,-104.39 200.99,-96.11"/>
<polygon fill="#63b8ff" stroke="#63b8ff" points="172.2,-121.13 167.81,-130.77 177.25,-125.97 172.2,-121.13"/>
</g>
<!-- Node3 -->
<g id="node3" class="node">
<title>Node3</title>
<g id="a_node3"><a xlink:href="file_xio__rpc_8c.html" target="_top" xlink:title=" ">
<polygon fill="white" stroke="#666666" points="87,-30 0,-30 0,0 87,0 87,-30"/>
<text text-anchor="start" x="8" y="-18" font-family="Helvetica,sans-Serif" font-size="10.00">ee/rpc/filexio/src</text>
<text text-anchor="middle" x="43.5" y="-7" font-family="Helvetica,sans-Serif" font-size="10.00">/fileXio_rpc.c</text>
</a>
</g>
</g>
<!-- Node2&#45;&gt;Node3 -->
<g id="edge2" class="edge">
<title>Node2&#45;&gt;Node3</title>
<path fill="none" stroke="#63b8ff" d="M81.78,-57.53C73.39,-48.43 63.96,-38.19 56.56,-30.16"/>
<polygon fill="#63b8ff" stroke="#63b8ff" points="79.03,-59.7 88.38,-64.68 84.18,-54.96 79.03,-59.7"/>
</g>
<!-- Node4 -->
<g id="node4" class="node">
<title>Node4</title>
<g id="a_node4"><a xlink:href="libhdd_8c_source.html" target="_top" xlink:title=" ">
<polygon fill="white" stroke="#666666" points="220,-24.5 105,-24.5 105,-5.5 220,-5.5 220,-24.5"/>
<text text-anchor="middle" x="162.5" y="-12.5" font-family="Helvetica,sans-Serif" font-size="10.00">ee/rpc/hdd/src/libhdd.c</text>
</a>
</g>
</g>
<!-- Node2&#45;&gt;Node4 -->
<g id="edge3" class="edge">
<title>Node2&#45;&gt;Node4</title>
<path fill="none" stroke="#63b8ff" d="M123.49,-57.61C134.07,-46.32 146.3,-33.28 154.21,-24.84"/>
<polygon fill="#63b8ff" stroke="#63b8ff" points="121.14,-55 116.85,-64.69 126.24,-59.79 121.14,-55"/>
</g>
</g>
</svg>
