<?xml version="1.0" encoding="UTF-8" standalone="no"?>
<!DOCTYPE svg PUBLIC "-//W3C//DTD SVG 1.1//EN"
 "http://www.w3.org/Graphics/SVG/1.1/DTD/svg11.dtd">
<!-- Generated by graphviz version 7.0.5 (20221223.1930)
 -->
<!-- Title: iop/fs/filexio/src/fileXio_iop.c Pages: 1 -->
<svg width="845pt" height="258pt"
 viewBox="0.00 0.00 844.50 258.00" xmlns="http://www.w3.org/2000/svg" xmlns:xlink="http://www.w3.org/1999/xlink">
<g id="graph0" class="graph" transform="scale(1 1) rotate(0) translate(4 254)">
<title>iop/fs/filexio/src/fileXio_iop.c</title>
<!-- Node1 -->
<g id="node1" class="node">
<title>Node1</title>
<g id="a_node1"><a xlink:title=" ">
<polygon fill="#999999" stroke="#666666" points="468.5,-250 384.5,-250 384.5,-220 468.5,-220 468.5,-250"/>
<text text-anchor="start" x="392.5" y="-238" font-family="Helvetica,sans-Serif" font-size="10.00">iop/fs/filexio/src</text>
<text text-anchor="middle" x="426.5" y="-227" font-family="Helvetica,sans-Serif" font-size="10.00">/fileXio_iop.c</text>
</a>
</g>
</g>
<!-- Node2 -->
<g id="node2" class="node">
<title>Node2</title>
<g id="a_node2"><a xlink:title=" ">
<polygon fill="#e0e0e0" stroke="#999999" points="47,-184 0,-184 0,-165 47,-165 47,-184"/>
<text text-anchor="middle" x="23.5" y="-172" font-family="Helvetica,sans-Serif" font-size="10.00">types.h</text>
</a>
</g>
</g>
<!-- Node1&#45;&gt;Node2 -->
<g id="edge1" class="edge">
<title>Node1&#45;&gt;Node2</title>
<path fill="none" stroke="#63b8ff" d="M384.21,-230.05C317.06,-223.4 181.8,-208.45 58.33,-184.35"/>
<polygon fill="#63b8ff" stroke="#63b8ff" points="59.16,-180.95 48.67,-182.44 57.8,-187.82 59.16,-180.95"/>
</g>
<!-- Node3 -->
<g id="node3" class="node">
<title>Node3</title>
<g id="a_node3"><a xlink:href="stdio_8h.html" target="_top" xlink:title=" ">
<polygon fill="white" stroke="#666666" points="485,-184 440,-184 440,-165 485,-165 485,-184"/>
<text text-anchor="middle" x="462.5" y="-172" font-family="Helvetica,sans-Serif" font-size="10.00">stdio.h</text>
</a>
</g>
</g>
<!-- Node1&#45;&gt;Node3 -->
<g id="edge2" class="edge">
<title>Node1&#45;&gt;Node3</title>
<path fill="none" stroke="#63b8ff" d="M435.4,-219.54C440.2,-211.74 446.18,-202.03 451.29,-193.71"/>
<polygon fill="#63b8ff" stroke="#63b8ff" points="454.11,-195.82 456.37,-185.46 448.15,-192.15 454.11,-195.82"/>
</g>
<!-- Node9 -->
<g id="node9" class="node">
<title>Node9</title>
<g id="a_node9"><a xlink:href="sysclib_8h.html" target="_top" xlink:title=" ">
<polygon fill="white" stroke="#666666" points="557.5,-184 503.5,-184 503.5,-165 557.5,-165 557.5,-184"/>
<text text-anchor="middle" x="530.5" y="-172" font-family="Helvetica,sans-Serif" font-size="10.00">sysclib.h</text>
</a>
</g>
</g>
<!-- Node1&#45;&gt;Node9 -->
<g id="edge8" class="edge">
<title>Node1&#45;&gt;Node9</title>
<path fill="none" stroke="#63b8ff" d="M452.21,-219.54C468.29,-210.49 488.93,-198.88 504.98,-189.85"/>
<polygon fill="#63b8ff" stroke="#63b8ff" points="506.45,-193.04 513.45,-185.09 503.02,-186.94 506.45,-193.04"/>
</g>
<!-- Node12 -->
<g id="node12" class="node">
<title>Node12</title>
<g id="a_node12"><a xlink:href="thbase_8h.html" target="_top" xlink:title=" ">
<polygon fill="white" stroke="#666666" points="343,-184 290,-184 290,-165 343,-165 343,-184"/>
<text text-anchor="middle" x="316.5" y="-172" font-family="Helvetica,sans-Serif" font-size="10.00">thbase.h</text>
</a>
</g>
</g>
<!-- Node1&#45;&gt;Node12 -->
<g id="edge15" class="edge">
<title>Node1&#45;&gt;Node12</title>
<path fill="none" stroke="#63b8ff" d="M399.31,-219.54C382.13,-210.4 360.05,-198.66 343,-189.6"/>
<polygon fill="#63b8ff" stroke="#63b8ff" points="344.94,-186.66 334.47,-185.06 341.66,-192.84 344.94,-186.66"/>
</g>
<!-- Node13 -->
<g id="node13" class="node">
<title>Node13</title>
<g id="a_node13"><a xlink:href="intrman_8h.html" target="_top" xlink:title=" ">
<polygon fill="white" stroke="#666666" points="200.5,-184 144.5,-184 144.5,-165 200.5,-165 200.5,-184"/>
<text text-anchor="middle" x="172.5" y="-172" font-family="Helvetica,sans-Serif" font-size="10.00">intrman.h</text>
</a>
</g>
</g>
<!-- Node1&#45;&gt;Node13 -->
<g id="edge18" class="edge">
<title>Node1&#45;&gt;Node13</title>
<path fill="none" stroke="#63b8ff" d="M384.27,-224.27C336.29,-213.22 258.58,-195.33 211.83,-184.56"/>
<polygon fill="#63b8ff" stroke="#63b8ff" points="212.65,-181.16 202.12,-182.32 211.08,-187.98 212.65,-181.16"/>
</g>
<!-- Node14 -->
<g id="node14" class="node">
<title>Node14</title>
<g id="a_node14"><a xlink:href="ioman_x_8h.html" target="_top" xlink:title=" ">
<polygon fill="white" stroke="#666666" points="633,-184 576,-184 576,-165 633,-165 633,-184"/>
<text text-anchor="middle" x="604.5" y="-172" font-family="Helvetica,sans-Serif" font-size="10.00">iomanX.h</text>
</a>
</g>
</g>
<!-- Node1&#45;&gt;Node14 -->
<g id="edge21" class="edge">
<title>Node1&#45;&gt;Node14</title>
<path fill="none" stroke="#63b8ff" d="M468.68,-220.14C498.36,-210.38 537.75,-197.44 566.46,-188"/>
<polygon fill="#63b8ff" stroke="#63b8ff" points="567.44,-191.36 575.85,-184.92 565.25,-184.71 567.44,-191.36"/>
</g>
<!-- Node20 -->
<g id="node20" class="node">
<title>Node20</title>
<g id="a_node20"><a xlink:href="loadcore_8h.html" target="_top" xlink:title=" ">
<polygon fill="white" stroke="#666666" points="126,-184 65,-184 65,-165 126,-165 126,-184"/>
<text text-anchor="middle" x="95.5" y="-172" font-family="Helvetica,sans-Serif" font-size="10.00">loadcore.h</text>
</a>
</g>
</g>
<!-- Node1&#45;&gt;Node20 -->
<g id="edge29" class="edge">
<title>Node1&#45;&gt;Node20</title>
<path fill="none" stroke="#63b8ff" d="M384.48,-227.31C329.98,-218.52 231.7,-202.27 137.63,-184.35"/>
<polygon fill="#63b8ff" stroke="#63b8ff" points="138.45,-180.94 127.97,-182.49 137.13,-187.81 138.45,-180.94"/>
</g>
<!-- Node21 -->
<g id="node21" class="node">
<title>Node21</title>
<g id="a_node21"><a xlink:href="sysmem_8h.html" target="_top" xlink:title=" ">
<polygon fill="white" stroke="#666666" points="422,-184 361,-184 361,-165 422,-165 422,-184"/>
<text text-anchor="middle" x="391.5" y="-172" font-family="Helvetica,sans-Serif" font-size="10.00">sysmem.h</text>
</a>
</g>
</g>
<!-- Node1&#45;&gt;Node21 -->
<g id="edge32" class="edge">
<title>Node1&#45;&gt;Node21</title>
<path fill="none" stroke="#63b8ff" d="M417.85,-219.54C413.23,-211.82 407.5,-202.24 402.56,-193.99"/>
<polygon fill="#63b8ff" stroke="#63b8ff" points="405.61,-192.26 397.47,-185.47 399.6,-195.85 405.61,-192.26"/>
</g>
<!-- Node22 -->
<g id="node22" class="node">
<title>Node22</title>
<g id="a_node22"><a xlink:href="sifman_8h.html" target="_top" xlink:title=" ">
<polygon fill="white" stroke="#666666" points="272,-184 219,-184 219,-165 272,-165 272,-184"/>
<text text-anchor="middle" x="245.5" y="-172" font-family="Helvetica,sans-Serif" font-size="10.00">sifman.h</text>
</a>
</g>
</g>
<!-- Node1&#45;&gt;Node22 -->
<g id="edge36" class="edge">
<title>Node1&#45;&gt;Node22</title>
<path fill="none" stroke="#63b8ff" d="M384.06,-220.28C353.4,-210.37 312.35,-197.11 282.91,-187.59"/>
<polygon fill="#63b8ff" stroke="#63b8ff" points="284.27,-184.35 273.68,-184.61 282.12,-191.01 284.27,-184.35"/>
</g>
<!-- Node23 -->
<g id="node23" class="node">
<title>Node23</title>
<g id="a_node23"><a xlink:title=" ">
<polygon fill="#e0e0e0" stroke="#999999" points="704,-184 651,-184 651,-165 704,-165 704,-184"/>
<text text-anchor="middle" x="677.5" y="-172" font-family="Helvetica,sans-Serif" font-size="10.00">sifcmd.h</text>
</a>
</g>
</g>
<!-- Node1&#45;&gt;Node23 -->
<g id="edge39" class="edge">
<title>Node1&#45;&gt;Node23</title>
<path fill="none" stroke="#63b8ff" d="M468.75,-224.36C510.02,-214.92 574.9,-199.98 639.9,-184.6"/>
<polygon fill="#63b8ff" stroke="#63b8ff" points="640.36,-188.09 649.28,-182.38 638.74,-181.28 640.36,-188.09"/>
</g>
<!-- Node24 -->
<g id="node24" class="node">
<title>Node24</title>
<g id="a_node24"><a xlink:href="errno_8h.html" target="_top" xlink:title=" ">
<polygon fill="white" stroke="#666666" points="768.5,-184 722.5,-184 722.5,-165 768.5,-165 768.5,-184"/>
<text text-anchor="middle" x="745.5" y="-172" font-family="Helvetica,sans-Serif" font-size="10.00">errno.h</text>
</a>
</g>
</g>
<!-- Node1&#45;&gt;Node24 -->
<g id="edge40" class="edge">
<title>Node1&#45;&gt;Node24</title>
<path fill="none" stroke="#63b8ff" d="M468.55,-227.85C522.48,-219.7 619.12,-204.24 710.97,-184.4"/>
<polygon fill="#63b8ff" stroke="#63b8ff" points="711.64,-187.83 720.66,-182.28 710.14,-181 711.64,-187.83"/>
</g>
<!-- Node25 -->
<g id="node25" class="node">
<title>Node25</title>
<g id="a_node25"><a xlink:href="file_xio_8h.html" target="_top" xlink:title=" ">
<polygon fill="white" stroke="#666666" points="836.5,-184 786.5,-184 786.5,-165 836.5,-165 836.5,-184"/>
<text text-anchor="middle" x="811.5" y="-172" font-family="Helvetica,sans-Serif" font-size="10.00">fileXio.h</text>
</a>
</g>
</g>
<!-- Node1&#45;&gt;Node25 -->
<g id="edge41" class="edge">
<title>Node1&#45;&gt;Node25</title>
<path fill="none" stroke="#63b8ff" d="M468.88,-229.4C533.02,-222.12 658.78,-206.64 775.09,-184.29"/>
<polygon fill="#63b8ff" stroke="#63b8ff" points="775.68,-187.74 784.83,-182.39 774.34,-180.87 775.68,-187.74"/>
</g>
<!-- Node4 -->
<g id="node4" class="node">
<title>Node4</title>
<g id="a_node4"><a xlink:title=" ">
<polygon fill="#e0e0e0" stroke="#999999" points="445,-129 394,-129 394,-110 445,-110 445,-129"/>
<text text-anchor="middle" x="419.5" y="-117" font-family="Helvetica,sans-Serif" font-size="10.00">stdarg.h</text>
</a>
</g>
</g>
<!-- Node3&#45;&gt;Node4 -->
<g id="edge3" class="edge">
<title>Node3&#45;&gt;Node4</title>
<path fill="none" stroke="#63b8ff" d="M455.4,-164.75C449.58,-157.58 441.17,-147.2 433.94,-138.3"/>
<polygon fill="#63b8ff" stroke="#63b8ff" points="436.73,-136.18 427.71,-130.62 431.29,-140.59 436.73,-136.18"/>
</g>
<!-- Node5 -->
<g id="node5" class="node">
<title>Node5</title>
<g id="a_node5"><a xlink:href="irx_8h.html" target="_top" xlink:title=" ">
<polygon fill="white" stroke="#666666" points="337.5,-129 303.5,-129 303.5,-110 337.5,-110 337.5,-129"/>
<text text-anchor="middle" x="320.5" y="-117" font-family="Helvetica,sans-Serif" font-size="10.00">irx.h</text>
</a>
</g>
</g>
<!-- Node3&#45;&gt;Node5 -->
<g id="edge4" class="edge">
<title>Node3&#45;&gt;Node5</title>
<path fill="none" stroke="#63b8ff" d="M439.69,-164.98C414.85,-155.72 375.13,-140.89 348.44,-130.93"/>
<polygon fill="#63b8ff" stroke="#63b8ff" points="349.9,-127.74 339.31,-127.52 347.45,-134.29 349.9,-127.74"/>
</g>
<!-- Node6 -->
<g id="node6" class="node">
<title>Node6</title>
<g id="a_node6"><a xlink:href="iop_2kernel_2include_2types_8h_source.html" target="_top" xlink:title=" ">
<polygon fill="white" stroke="#666666" points="344,-74 297,-74 297,-55 344,-55 344,-74"/>
<text text-anchor="middle" x="320.5" y="-62" font-family="Helvetica,sans-Serif" font-size="10.00">types.h</text>
</a>
</g>
</g>
<!-- Node5&#45;&gt;Node6 -->
<g id="edge5" class="edge">
<title>Node5&#45;&gt;Node6</title>
<path fill="none" stroke="#63b8ff" d="M320.5,-109.75C320.5,-103.27 320.5,-94.16 320.5,-85.9"/>
<polygon fill="#63b8ff" stroke="#63b8ff" points="324,-85.96 320.5,-75.96 317,-85.96 324,-85.96"/>
</g>
<!-- Node7 -->
<g id="node7" class="node">
<title>Node7</title>
<g id="a_node7"><a xlink:title=" ">
<polygon fill="#e0e0e0" stroke="#999999" points="346,-19 295,-19 295,0 346,0 346,-19"/>
<text text-anchor="middle" x="320.5" y="-7" font-family="Helvetica,sans-Serif" font-size="10.00">stddef.h</text>
</a>
</g>
</g>
<!-- Node6&#45;&gt;Node7 -->
<g id="edge6" class="edge">
<title>Node6&#45;&gt;Node7</title>
<path fill="none" stroke="#63b8ff" d="M320.5,-54.75C320.5,-48.27 320.5,-39.16 320.5,-30.9"/>
<polygon fill="#63b8ff" stroke="#63b8ff" points="324,-30.96 320.5,-20.96 317,-30.96 324,-30.96"/>
</g>
<!-- Node8 -->
<g id="node8" class="node">
<title>Node8</title>
<g id="a_node8"><a xlink:href="tamtypes_8h.html" target="_top" xlink:title=" ">
<polygon fill="white" stroke="#666666" points="554.5,-19 490.5,-19 490.5,0 554.5,0 554.5,-19"/>
<text text-anchor="middle" x="522.5" y="-7" font-family="Helvetica,sans-Serif" font-size="10.00">tamtypes.h</text>
</a>
</g>
</g>
<!-- Node6&#45;&gt;Node8 -->
<g id="edge7" class="edge">
<title>Node6&#45;&gt;Node8</title>
<path fill="none" stroke="#63b8ff" d="M344.47,-57.21C377.61,-48.51 438.02,-32.67 479.18,-21.87"/>
<polygon fill="#63b8ff" stroke="#63b8ff" points="480,-25.27 488.78,-19.35 478.22,-18.5 480,-25.27"/>
</g>
<!-- Node9&#45;&gt;Node4 -->
<g id="edge11" class="edge">
<title>Node9&#45;&gt;Node4</title>
<path fill="none" stroke="#63b8ff" d="M511.67,-164.51C494.34,-156.24 468.39,-143.84 448.43,-134.31"/>
<polygon fill="#63b8ff" stroke="#63b8ff" points="449.95,-131.16 439.42,-130.01 446.93,-137.48 449.95,-131.16"/>
</g>
<!-- Node9&#45;&gt;Node5 -->
<g id="edge10" class="edge">
<title>Node9&#45;&gt;Node5</title>
<path fill="none" stroke="#63b8ff" d="M503.05,-166.57C463.08,-156.48 389.23,-137.85 348.8,-127.64"/>
<polygon fill="#63b8ff" stroke="#63b8ff" points="349.88,-124.31 339.33,-125.25 348.17,-131.09 349.88,-124.31"/>
</g>
<!-- Node9&#45;&gt;Node6 -->
<g id="edge9" class="edge">
<title>Node9&#45;&gt;Node6</title>
<path fill="none" stroke="#63b8ff" d="M522.4,-164.91C509.31,-151.47 482.14,-125.4 454.5,-110 422.88,-92.38 383.16,-80.28 355.2,-73.2"/>
<polygon fill="#63b8ff" stroke="#63b8ff" points="356.38,-69.88 345.83,-70.91 354.72,-76.68 356.38,-69.88"/>
</g>
<!-- Node10 -->
<g id="node10" class="node">
<title>Node10</title>
<g id="a_node10"><a xlink:href="setjmp_8h.html" target="_top" xlink:title=" ">
<polygon fill="white" stroke="#666666" points="549,-74 496,-74 496,-55 549,-55 549,-74"/>
<text text-anchor="middle" x="522.5" y="-62" font-family="Helvetica,sans-Serif" font-size="10.00">setjmp.h</text>
</a>
</g>
</g>
<!-- Node9&#45;&gt;Node10 -->
<g id="edge12" class="edge">
<title>Node9&#45;&gt;Node10</title>
<path fill="none" stroke="#63b8ff" d="M539.07,-164.63C549.69,-152.51 565.57,-129.99 558.5,-110 554.83,-99.63 547.6,-89.91 540.58,-82.21"/>
<polygon fill="#63b8ff" stroke="#63b8ff" points="543.24,-79.92 533.72,-75.27 538.26,-84.84 543.24,-79.92"/>
</g>
<!-- Node11 -->
<g id="node11" class="node">
<title>Node11</title>
<g id="a_node11"><a xlink:href="ctype_8h.html" target="_top" xlink:title=" ">
<polygon fill="white" stroke="#666666" points="549,-129 502,-129 502,-110 549,-110 549,-129"/>
<text text-anchor="middle" x="525.5" y="-117" font-family="Helvetica,sans-Serif" font-size="10.00">ctype.h</text>
</a>
</g>
</g>
<!-- Node9&#45;&gt;Node11 -->
<g id="edge14" class="edge">
<title>Node9&#45;&gt;Node11</title>
<path fill="none" stroke="#63b8ff" d="M529.67,-164.75C529.06,-158.27 528.2,-149.16 527.42,-140.9"/>
<polygon fill="#63b8ff" stroke="#63b8ff" points="530.91,-140.58 526.49,-130.95 523.94,-141.23 530.91,-140.58"/>
</g>
<!-- Node10&#45;&gt;Node8 -->
<g id="edge13" class="edge">
<title>Node10&#45;&gt;Node8</title>
<path fill="none" stroke="#63b8ff" d="M522.5,-54.75C522.5,-48.27 522.5,-39.16 522.5,-30.9"/>
<polygon fill="#63b8ff" stroke="#63b8ff" points="526,-30.96 522.5,-20.96 519,-30.96 526,-30.96"/>
</g>
<!-- Node12&#45;&gt;Node5 -->
<g id="edge17" class="edge">
<title>Node12&#45;&gt;Node5</title>
<path fill="none" stroke="#63b8ff" d="M317.16,-164.75C317.65,-158.27 318.34,-149.16 318.96,-140.9"/>
<polygon fill="#63b8ff" stroke="#63b8ff" points="322.45,-141.19 319.71,-130.95 315.47,-140.66 322.45,-141.19"/>
</g>
<!-- Node12&#45;&gt;Node6 -->
<g id="edge16" class="edge">
<title>Node12&#45;&gt;Node6</title>
<path fill="none" stroke="#63b8ff" d="M309.83,-164.58C301.54,-152.4 289.13,-129.82 294.5,-110 297.01,-100.74 301.98,-91.42 306.91,-83.73"/>
<polygon fill="#63b8ff" stroke="#63b8ff" points="309.69,-85.86 312.51,-75.64 303.94,-81.87 309.69,-85.86"/>
</g>
<!-- Node13&#45;&gt;Node5 -->
<g id="edge20" class="edge">
<title>Node13&#45;&gt;Node5</title>
<path fill="none" stroke="#63b8ff" d="M197.61,-164.51C223.87,-155.1 265.02,-140.37 292.36,-130.58"/>
<polygon fill="#63b8ff" stroke="#63b8ff" points="293.5,-133.89 301.73,-127.22 291.14,-127.3 293.5,-133.89"/>
</g>
<!-- Node13&#45;&gt;Node6 -->
<g id="edge19" class="edge">
<title>Node13&#45;&gt;Node6</title>
<path fill="none" stroke="#63b8ff" d="M184.61,-164.66C209.65,-146.39 267.42,-104.23 298.97,-81.21"/>
<polygon fill="#63b8ff" stroke="#63b8ff" points="300.98,-84.07 307,-75.35 296.86,-78.42 300.98,-84.07"/>
</g>
<!-- Node14&#45;&gt;Node4 -->
<g id="edge23" class="edge">
<title>Node14&#45;&gt;Node4</title>
<path fill="none" stroke="#63b8ff" d="M575.59,-165.22C543.32,-155.97 491.01,-140.99 455.95,-130.94"/>
<polygon fill="#63b8ff" stroke="#63b8ff" points="457.26,-127.68 446.68,-128.29 455.33,-134.41 457.26,-127.68"/>
</g>
<!-- Node14&#45;&gt;Node6 -->
<g id="edge22" class="edge">
<title>Node14&#45;&gt;Node6</title>
<path fill="none" stroke="#63b8ff" d="M600.86,-164.89C594.48,-150.93 579.89,-123.54 558.5,-110 525.26,-88.96 413.38,-74.9 355.64,-68.86"/>
<polygon fill="#63b8ff" stroke="#63b8ff" points="356,-65.37 345.69,-67.84 355.29,-72.34 356,-65.37"/>
</g>
<!-- Node15 -->
<g id="node15" class="node">
<title>Node15</title>
<g id="a_node15"><a xlink:href="io__common_8h.html" target="_top" xlink:title=" ">
<polygon fill="white" stroke="#666666" points="717.5,-129 643.5,-129 643.5,-110 717.5,-110 717.5,-129"/>
<text text-anchor="middle" x="680.5" y="-117" font-family="Helvetica,sans-Serif" font-size="10.00">io_common.h</text>
</a>
</g>
</g>
<!-- Node14&#45;&gt;Node15 -->
<g id="edge24" class="edge">
<title>Node14&#45;&gt;Node15</title>
<path fill="none" stroke="#63b8ff" d="M617.39,-164.51C628.6,-156.7 645.07,-145.21 658.38,-135.93"/>
<polygon fill="#63b8ff" stroke="#63b8ff" points="660.36,-138.81 666.56,-130.22 656.35,-133.07 660.36,-138.81"/>
</g>
<!-- Node18 -->
<g id="node18" class="node">
<title>Node18</title>
<g id="a_node18"><a xlink:href="iox__stat_8h.html" target="_top" xlink:title=" ">
<polygon fill="white" stroke="#666666" points="793.5,-129 735.5,-129 735.5,-110 793.5,-110 793.5,-129"/>
<text text-anchor="middle" x="764.5" y="-117" font-family="Helvetica,sans-Serif" font-size="10.00">iox_stat.h</text>
</a>
</g>
</g>
<!-- Node14&#45;&gt;Node18 -->
<g id="edge27" class="edge">
<title>Node14&#45;&gt;Node18</title>
<path fill="none" stroke="#63b8ff" d="M631.64,-164.51C657.81,-155.84 697.64,-142.65 726.86,-132.97"/>
<polygon fill="#63b8ff" stroke="#63b8ff" points="727.66,-136.39 736.06,-129.92 725.46,-129.74 727.66,-136.39"/>
</g>
<!-- Node16 -->
<g id="node16" class="node">
<title>Node16</title>
<g id="a_node16"><a xlink:href="fcntl_8h_source.html" target="_top" xlink:title=" ">
<polygon fill="white" stroke="#666666" points="628,-74 567,-74 567,-55 628,-55 628,-74"/>
<text text-anchor="middle" x="597.5" y="-62" font-family="Helvetica,sans-Serif" font-size="10.00">sys/fcntl.h</text>
</a>
</g>
</g>
<!-- Node15&#45;&gt;Node16 -->
<g id="edge25" class="edge">
<title>Node15&#45;&gt;Node16</title>
<path fill="none" stroke="#63b8ff" d="M666.42,-109.51C653.94,-101.54 635.48,-89.75 620.81,-80.38"/>
<polygon fill="#63b8ff" stroke="#63b8ff" points="622.96,-77.6 612.65,-75.17 619.19,-83.5 622.96,-77.6"/>
</g>
<!-- Node17 -->
<g id="node17" class="node">
<title>Node17</title>
<g id="a_node17"><a xlink:href="unistd_8h_source.html" target="_top" xlink:title=" ">
<polygon fill="white" stroke="#666666" points="714.5,-74 646.5,-74 646.5,-55 714.5,-55 714.5,-74"/>
<text text-anchor="middle" x="680.5" y="-62" font-family="Helvetica,sans-Serif" font-size="10.00">sys/unistd.h</text>
</a>
</g>
</g>
<!-- Node15&#45;&gt;Node17 -->
<g id="edge26" class="edge">
<title>Node15&#45;&gt;Node17</title>
<path fill="none" stroke="#63b8ff" d="M680.5,-109.75C680.5,-103.27 680.5,-94.16 680.5,-85.9"/>
<polygon fill="#63b8ff" stroke="#63b8ff" points="684,-85.96 680.5,-75.96 677,-85.96 684,-85.96"/>
</g>
<!-- Node19 -->
<g id="node19" class="node">
<title>Node19</title>
<g id="a_node19"><a xlink:href="time_8h.html" target="_top" xlink:title=" ">
<polygon fill="white" stroke="#666666" points="794,-74 733,-74 733,-55 794,-55 794,-74"/>
<text text-anchor="middle" x="763.5" y="-62" font-family="Helvetica,sans-Serif" font-size="10.00">sys/time.h</text>
</a>
</g>
</g>
<!-- Node18&#45;&gt;Node19 -->
<g id="edge28" class="edge">
<title>Node18&#45;&gt;Node19</title>
<path fill="none" stroke="#63b8ff" d="M764.33,-109.75C764.21,-103.27 764.04,-94.16 763.88,-85.9"/>
<polygon fill="#63b8ff" stroke="#63b8ff" points="767.39,-85.89 763.7,-75.96 760.39,-86.02 767.39,-85.89"/>
</g>
<!-- Node20&#45;&gt;Node5 -->
<g id="edge31" class="edge">
<title>Node20&#45;&gt;Node5</title>
<path fill="none" stroke="#63b8ff" d="M126.31,-166.24C170,-155.95 249.36,-137.26 291.84,-127.25"/>
<polygon fill="#63b8ff" stroke="#63b8ff" points="292.63,-130.66 301.56,-124.96 291.02,-123.85 292.63,-130.66"/>
</g>
<!-- Node20&#45;&gt;Node6 -->
<g id="edge30" class="edge">
<title>Node20&#45;&gt;Node6</title>
<path fill="none" stroke="#63b8ff" d="M113.91,-164.66C153.06,-145.87 244.79,-101.84 291.73,-79.31"/>
<polygon fill="#63b8ff" stroke="#63b8ff" points="292.97,-82.6 300.47,-75.12 289.94,-76.29 292.97,-82.6"/>
</g>
<!-- Node21&#45;&gt;Node4 -->
<g id="edge35" class="edge">
<title>Node21&#45;&gt;Node4</title>
<path fill="none" stroke="#63b8ff" d="M396.12,-164.75C399.75,-157.88 404.93,-148.08 409.49,-139.45"/>
<polygon fill="#63b8ff" stroke="#63b8ff" points="412.49,-141.26 414.07,-130.78 406.3,-137.99 412.49,-141.26"/>
</g>
<!-- Node21&#45;&gt;Node5 -->
<g id="edge34" class="edge">
<title>Node21&#45;&gt;Node5</title>
<path fill="none" stroke="#63b8ff" d="M379.46,-164.51C369.09,-156.77 353.9,-145.43 341.53,-136.2"/>
<polygon fill="#63b8ff" stroke="#63b8ff" points="343.69,-133.44 333.58,-130.26 339.5,-139.05 343.69,-133.44"/>
</g>
<!-- Node21&#45;&gt;Node6 -->
<g id="edge33" class="edge">
<title>Node21&#45;&gt;Node6</title>
<path fill="none" stroke="#63b8ff" d="M385.69,-164.66C374.14,-147.1 348.1,-107.48 332.65,-83.98"/>
<polygon fill="#63b8ff" stroke="#63b8ff" points="335.64,-82.16 327.22,-75.72 329.79,-86 335.64,-82.16"/>
</g>
<!-- Node22&#45;&gt;Node5 -->
<g id="edge38" class="edge">
<title>Node22&#45;&gt;Node5</title>
<path fill="none" stroke="#63b8ff" d="M258.22,-164.51C269.28,-156.7 285.54,-145.21 298.67,-135.93"/>
<polygon fill="#63b8ff" stroke="#63b8ff" points="300.58,-138.86 306.73,-130.23 296.54,-133.14 300.58,-138.86"/>
</g>
<!-- Node22&#45;&gt;Node6 -->
<g id="edge37" class="edge">
<title>Node22&#45;&gt;Node6</title>
<path fill="none" stroke="#63b8ff" d="M251.47,-164.87C259.93,-152.65 275.88,-129.61 289.5,-110 295.54,-101.3 302.26,-91.65 307.9,-83.57"/>
<polygon fill="#63b8ff" stroke="#63b8ff" points="310.6,-85.81 313.45,-75.6 304.86,-81.8 310.6,-85.81"/>
</g>
<!-- Node25&#45;&gt;Node8 -->
<g id="edge42" class="edge">
<title>Node25&#45;&gt;Node8</title>
<path fill="none" stroke="#63b8ff" d="M814.16,-164.66C820.11,-142.86 831.88,-86.05 803.5,-55 772.37,-20.94 636.99,-12.89 566.12,-11.03"/>
<polygon fill="#63b8ff" stroke="#63b8ff" points="566.5,-7.54 556.43,-10.81 566.34,-14.54 566.5,-7.54"/>
</g>
<!-- Node25&#45;&gt;Node18 -->
<g id="edge43" class="edge">
<title>Node25&#45;&gt;Node18</title>
<path fill="none" stroke="#63b8ff" d="M803.74,-164.75C797.31,-157.5 787.99,-146.98 780.04,-138.02"/>
<polygon fill="#63b8ff" stroke="#63b8ff" points="782.69,-135.73 773.43,-130.57 777.45,-140.38 782.69,-135.73"/>
</g>
</g>
</svg>
