<?xml version="1.0" encoding="UTF-8" standalone="no"?>
<!DOCTYPE svg PUBLIC "-//W3C//DTD SVG 1.1//EN"
 "http://www.w3.org/Graphics/SVG/1.1/DTD/svg11.dtd">
<!-- Generated by graphviz version 7.0.5 (20221223.1930)
 -->
<!-- Title: ee/font/include/font.h Pages: 1 -->
<!--zoomable 302 -->
<svg id="main" version="1.1" xmlns="http://www.w3.org/2000/svg" xmlns:xlink="http://www.w3.org/1999/xlink" xml:space="preserve" onload="init(evt)">
<style type="text/css"><![CDATA[
.edge:hover path { stroke: red; }
.edge:hover polygon { stroke: red; fill: red; }
]]></style>
<script type="text/javascript"><![CDATA[
var edges = document.getElementsByTagName('g');
if (edges && edges.length) {
  for (var i=0;i<edges.length;i++) {
    if (edges[i].id.substr(0,4)=='edge') {
      edges[i].setAttribute('class','edge');
    }
  }
}
]]></script>
        <defs>
                <circle id="rim" cx="0" cy="0" r="7"/>
                <circle id="rim2" cx="0" cy="0" r="3.5"/>
                <g id="zoomPlus">
                        <use xlink:href="#rim" fill="#404040">
                                <set attributeName="fill" to="#808080" begin="zoomplus.mouseover" end="zoomplus.mouseout"/>
                        </use>
                        <path d="M-4,0h8M0,-4v8" fill="none" stroke="white" stroke-width="1.5" pointer-events="none"/>
                </g>
                <g id="zoomMin">
                        <use xlink:href="#rim" fill="#404040">
                                <set attributeName="fill" to="#808080" begin="zoomminus.mouseover" end="zoomminus.mouseout"/>
                        </use>
                        <path d="M-4,0h8" fill="none" stroke="white" stroke-width="1.5" pointer-events="none"/>
                </g>
                <g id="dirArrow">
                        <path fill="none" stroke="white" stroke-width="1.5" d="M0,-3.0v7 M-2.5,-0.5L0,-3.0L2.5,-0.5"/>
                </g>
               <g id="resetDef">
                       <use xlink:href="#rim2" fill="#404040">
                               <set attributeName="fill" to="#808080" begin="reset.mouseover" end="reset.mouseout"/>
                       </use>
               </g>
        </defs>

<script type="text/javascript">
var viewWidth = 899;
var viewHeight = 302;
var sectionId = 'dynsection-0';
</script>
<script xlink:href="svgpan.js"/>
<svg id="graph" class="graph">
<g id="viewport">
<title>ee/font/include/font.h</title>
<!-- Node1 -->
<g id="node1" class="node">
<title>Node1</title>
<g id="a_node1"><a xlink:title=" ">
<polygon fill="#999999" stroke="#666666" points="274.41,-294 167.41,-294 167.41,-275 274.41,-275 274.41,-294"/>
<text text-anchor="middle" x="220.91" y="-282" font-family="Helvetica,sans-Serif" font-size="10.00">ee/font/include/font.h</text>
</a>
</g>
</g>
<!-- Node2 -->
<g id="node2" class="node">
<title>Node2</title>
<g id="a_node2"><a xlink:href="draw_8h.html" target="_top" xlink:title=" ">
<polygon fill="white" stroke="#666666" points="467.41,-239 422.41,-239 422.41,-220 467.41,-220 467.41,-239"/>
<text text-anchor="middle" x="444.91" y="-227" font-family="Helvetica,sans-Serif" font-size="10.00">draw.h</text>
</a>
</g>
</g>
<!-- Node1&#45;&gt;Node2 -->
<g id="edge1" class="edge">
<title>Node1&#45;&gt;Node2</title>
<path fill="none" stroke="#63b8ff" d="M258.91,-274.51C301.61,-264.41 370.27,-248.16 411.15,-238.49"/>
<polygon fill="#63b8ff" stroke="#63b8ff" points="411.74,-241.94 420.67,-236.24 410.13,-235.13 411.74,-241.94"/>
</g>
<!-- Node3 -->
<g id="node3" class="node">
<title>Node3</title>
<g id="a_node3"><a xlink:href="tamtypes_8h.html" target="_top" xlink:title=" ">
<polygon fill="white" stroke="#666666" points="465.91,-19 401.91,-19 401.91,0 465.91,0 465.91,-19"/>
<text text-anchor="middle" x="433.91" y="-7" font-family="Helvetica,sans-Serif" font-size="10.00">tamtypes.h</text>
</a>
</g>
</g>
<!-- Node1&#45;&gt;Node3 -->
<g id="edge32" class="edge">
<title>Node1&#45;&gt;Node3</title>
<path fill="none" stroke="#63b8ff" d="M167.1,-280.08C101.96,-272.69 0.91,-249.32 0.91,-175.5 0.91,-175.5 0.91,-175.5 0.91,-118.5 0.91,-89.04 -2.74,-73.83 19.91,-55 47.99,-31.66 289.53,-17.45 390.17,-12.49"/>
<polygon fill="#63b8ff" stroke="#63b8ff" points="390.11,-16 399.93,-12.02 389.77,-9 390.11,-16"/>
</g>
<!-- Node2&#45;&gt;Node3 -->
<g id="edge2" class="edge">
<title>Node2&#45;&gt;Node3</title>
<path fill="none" stroke="#63b8ff" d="M467.82,-226.36C520.93,-221.08 650.73,-206.22 687.91,-184 743.91,-150.54 800.79,-104.16 757.91,-55 722.03,-13.86 557.25,-9.41 477.46,-9.75"/>
<polygon fill="#63b8ff" stroke="#63b8ff" points="477.81,-6.25 467.84,-9.82 477.86,-13.25 477.81,-6.25"/>
</g>
<!-- Node4 -->
<g id="node4" class="node">
<title>Node4</title>
<g id="a_node4"><a xlink:href="draw__blending_8h.html" target="_top" xlink:title=" ">
<polygon fill="white" stroke="#666666" points="890.91,-74 804.91,-74 804.91,-55 890.91,-55 890.91,-74"/>
<text text-anchor="middle" x="847.91" y="-62" font-family="Helvetica,sans-Serif" font-size="10.00">draw_blending.h</text>
</a>
</g>
</g>
<!-- Node2&#45;&gt;Node4 -->
<g id="edge3" class="edge">
<title>Node2&#45;&gt;Node4</title>
<path fill="none" stroke="#63b8ff" d="M467.45,-228.34C535.74,-227.43 738.86,-221.57 790.91,-184 823.67,-160.36 838.38,-112.77 844.34,-85.65"/>
<polygon fill="#63b8ff" stroke="#63b8ff" points="847.75,-86.45 846.25,-75.96 840.88,-85.09 847.75,-86.45"/>
</g>
<!-- Node5 -->
<g id="node5" class="node">
<title>Node5</title>
<g id="a_node5"><a xlink:href="draw__buffers_8h.html" target="_top" xlink:title=" ">
<polygon fill="white" stroke="#666666" points="432.91,-129 352.91,-129 352.91,-110 432.91,-110 432.91,-129"/>
<text text-anchor="middle" x="392.91" y="-117" font-family="Helvetica,sans-Serif" font-size="10.00">draw_buffers.h</text>
</a>
</g>
</g>
<!-- Node2&#45;&gt;Node5 -->
<g id="edge5" class="edge">
<title>Node2&#45;&gt;Node5</title>
<path fill="none" stroke="#63b8ff" d="M443.25,-219.51C440.69,-206.86 435.09,-183.31 425.91,-165 421.19,-155.57 414.45,-146.05 408.3,-138.25"/>
<polygon fill="#63b8ff" stroke="#63b8ff" points="411.04,-136.07 401.97,-130.59 405.64,-140.53 411.04,-136.07"/>
</g>
<!-- Node6 -->
<g id="node6" class="node">
<title>Node6</title>
<g id="a_node6"><a xlink:href="draw__dithering_8h.html" target="_top" xlink:title=" ">
<polygon fill="white" stroke="#666666" points="116.41,-74 29.41,-74 29.41,-55 116.41,-55 116.41,-74"/>
<text text-anchor="middle" x="72.91" y="-62" font-family="Helvetica,sans-Serif" font-size="10.00">draw_dithering.h</text>
</a>
</g>
</g>
<!-- Node2&#45;&gt;Node6 -->
<g id="edge7" class="edge">
<title>Node2&#45;&gt;Node6</title>
<path fill="none" stroke="#63b8ff" d="M421.99,-228.85C373.25,-228.74 256.68,-223.94 169.91,-184 135.54,-168.18 128.34,-158.72 104.91,-129 94.27,-115.5 85.74,-97.91 80.17,-84.66"/>
<polygon fill="#63b8ff" stroke="#63b8ff" points="83.58,-83.75 76.62,-75.76 77.08,-86.34 83.58,-83.75"/>
</g>
<!-- Node7 -->
<g id="node7" class="node">
<title>Node7</title>
<g id="a_node7"><a xlink:href="draw__fog_8h.html" target="_top" xlink:title=" ">
<polygon fill="white" stroke="#666666" points="177.91,-129 113.91,-129 113.91,-110 177.91,-110 177.91,-129"/>
<text text-anchor="middle" x="145.91" y="-117" font-family="Helvetica,sans-Serif" font-size="10.00">draw_fog.h</text>
</a>
</g>
</g>
<!-- Node2&#45;&gt;Node7 -->
<g id="edge9" class="edge">
<title>Node2&#45;&gt;Node7</title>
<path fill="none" stroke="#63b8ff" d="M422.12,-226.55C367.96,-221.58 233.18,-207.19 194.91,-184 177.26,-173.3 163.62,-153.71 155.27,-139.1"/>
<polygon fill="#63b8ff" stroke="#63b8ff" points="158.45,-137.63 150.65,-130.47 152.28,-140.94 158.45,-137.63"/>
</g>
<!-- Node8 -->
<g id="node8" class="node">
<title>Node8</title>
<g id="a_node8"><a xlink:href="draw__masking_8h.html" target="_top" xlink:title=" ">
<polygon fill="white" stroke="#666666" points="260.41,-74 173.41,-74 173.41,-55 260.41,-55 260.41,-74"/>
<text text-anchor="middle" x="216.91" y="-62" font-family="Helvetica,sans-Serif" font-size="10.00">draw_masking.h</text>
</a>
</g>
</g>
<!-- Node2&#45;&gt;Node8 -->
<g id="edge11" class="edge">
<title>Node2&#45;&gt;Node8</title>
<path fill="none" stroke="#63b8ff" d="M421.99,-227.16C371.59,-223.69 253.58,-212.64 227.91,-184 203.74,-157.02 207.52,-111.42 212.3,-85.36"/>
<polygon fill="#63b8ff" stroke="#63b8ff" points="215.68,-86.28 214.3,-75.78 208.83,-84.85 215.68,-86.28"/>
</g>
<!-- Node9 -->
<g id="node9" class="node">
<title>Node9</title>
<g id="a_node9"><a xlink:href="draw__primitives_8h.html" target="_top" xlink:title=" ">
<polygon fill="white" stroke="#666666" points="672.91,-129 580.91,-129 580.91,-110 672.91,-110 672.91,-129"/>
<text text-anchor="middle" x="626.91" y="-117" font-family="Helvetica,sans-Serif" font-size="10.00">draw_primitives.h</text>
</a>
</g>
</g>
<!-- Node2&#45;&gt;Node9 -->
<g id="edge13" class="edge">
<title>Node2&#45;&gt;Node9</title>
<path fill="none" stroke="#63b8ff" d="M467.65,-221.65C490.45,-214.24 526.06,-201.14 553.91,-184 575.47,-170.73 596.95,-151.07 610.97,-137.15"/>
<polygon fill="#63b8ff" stroke="#63b8ff" points="613.08,-139.99 617.6,-130.41 608.09,-135.08 613.08,-139.99"/>
</g>
<!-- Node10 -->
<g id="node10" class="node">
<title>Node10</title>
<g id="a_node10"><a xlink:href="draw__sampling_8h.html" target="_top" xlink:title=" ">
<polygon fill="white" stroke="#666666" points="326.41,-184 237.41,-184 237.41,-165 326.41,-165 326.41,-184"/>
<text text-anchor="middle" x="281.91" y="-172" font-family="Helvetica,sans-Serif" font-size="10.00">draw_sampling.h</text>
</a>
</g>
</g>
<!-- Node2&#45;&gt;Node10 -->
<g id="edge15" class="edge">
<title>Node2&#45;&gt;Node10</title>
<path fill="none" stroke="#63b8ff" d="M422.25,-221.13C395.88,-212.56 351.91,-198.26 320.21,-187.95"/>
<polygon fill="#63b8ff" stroke="#63b8ff" points="321.59,-184.72 311,-184.96 319.43,-191.38 321.59,-184.72"/>
</g>
<!-- Node11 -->
<g id="node11" class="node">
<title>Node11</title>
<g id="a_node11"><a xlink:href="draw__tests_8h.html" target="_top" xlink:title=" ">
<polygon fill="white" stroke="#666666" points="416.91,-184 344.91,-184 344.91,-165 416.91,-165 416.91,-184"/>
<text text-anchor="middle" x="380.91" y="-172" font-family="Helvetica,sans-Serif" font-size="10.00">draw_tests.h</text>
</a>
</g>
</g>
<!-- Node2&#45;&gt;Node11 -->
<g id="edge17" class="edge">
<title>Node2&#45;&gt;Node11</title>
<path fill="none" stroke="#63b8ff" d="M434.06,-219.51C424.81,-211.85 411.29,-200.66 400.2,-191.47"/>
<polygon fill="#63b8ff" stroke="#63b8ff" points="402.71,-189.01 392.78,-185.32 398.24,-194.4 402.71,-189.01"/>
</g>
<!-- Node12 -->
<g id="node12" class="node">
<title>Node12</title>
<g id="a_node12"><a xlink:href="draw__types_8h.html" target="_top" xlink:title=" ">
<polygon fill="white" stroke="#666666" points="562.91,-129 488.91,-129 488.91,-110 562.91,-110 562.91,-129"/>
<text text-anchor="middle" x="525.91" y="-117" font-family="Helvetica,sans-Serif" font-size="10.00">draw_types.h</text>
</a>
</g>
</g>
<!-- Node2&#45;&gt;Node12 -->
<g id="edge20" class="edge">
<title>Node2&#45;&gt;Node12</title>
<path fill="none" stroke="#63b8ff" d="M467.9,-224.64C490.13,-219.56 522.65,-208.23 537.91,-184 546.32,-170.65 541.87,-152.81 536.15,-139.43"/>
<polygon fill="#63b8ff" stroke="#63b8ff" points="539.48,-138.28 531.97,-130.81 533.19,-141.33 539.48,-138.28"/>
</g>
<!-- Node14 -->
<g id="node14" class="node">
<title>Node14</title>
<g id="a_node14"><a xlink:href="draw2d_8h.html" target="_top" xlink:title=" ">
<polygon fill="white" stroke="#666666" points="528.91,-184 472.91,-184 472.91,-165 528.91,-165 528.91,-184"/>
<text text-anchor="middle" x="500.91" y="-172" font-family="Helvetica,sans-Serif" font-size="10.00">draw2d.h</text>
</a>
</g>
</g>
<!-- Node2&#45;&gt;Node14 -->
<g id="edge23" class="edge">
<title>Node2&#45;&gt;Node14</title>
<path fill="none" stroke="#63b8ff" d="M454.41,-219.51C462.34,-212 473.86,-201.1 483.45,-192.03"/>
<polygon fill="#63b8ff" stroke="#63b8ff" points="485.6,-194.81 490.45,-185.4 480.79,-189.73 485.6,-194.81"/>
</g>
<!-- Node15 -->
<g id="node15" class="node">
<title>Node15</title>
<g id="a_node15"><a xlink:href="draw3d_8h.html" target="_top" xlink:title=" ">
<polygon fill="white" stroke="#666666" points="678.91,-184 622.91,-184 622.91,-165 678.91,-165 678.91,-184"/>
<text text-anchor="middle" x="650.91" y="-172" font-family="Helvetica,sans-Serif" font-size="10.00">draw3d.h</text>
</a>
</g>
</g>
<!-- Node2&#45;&gt;Node15 -->
<g id="edge26" class="edge">
<title>Node2&#45;&gt;Node15</title>
<path fill="none" stroke="#63b8ff" d="M467.75,-222.63C502.48,-213.69 569.05,-196.56 611.66,-185.6"/>
<polygon fill="#63b8ff" stroke="#63b8ff" points="612.45,-189.01 621.26,-183.13 610.7,-182.23 612.45,-189.01"/>
</g>
<!-- Node4&#45;&gt;Node3 -->
<g id="edge4" class="edge">
<title>Node4&#45;&gt;Node3</title>
<path fill="none" stroke="#63b8ff" d="M804.67,-56.94C800.03,-56.27 795.37,-55.61 790.91,-55 677.95,-39.54 544.57,-23.5 477.33,-15.57"/>
<polygon fill="#63b8ff" stroke="#63b8ff" points="477.79,-12.1 467.45,-14.41 476.97,-19.05 477.79,-12.1"/>
</g>
<!-- Node5&#45;&gt;Node3 -->
<g id="edge6" class="edge">
<title>Node5&#45;&gt;Node3</title>
<path fill="none" stroke="#63b8ff" d="M396.27,-109.66C402.85,-92.34 417.57,-53.55 426.53,-29.95"/>
<polygon fill="#63b8ff" stroke="#63b8ff" points="429.7,-31.47 429.97,-20.88 423.15,-28.98 429.7,-31.47"/>
</g>
<!-- Node6&#45;&gt;Node3 -->
<g id="edge8" class="edge">
<title>Node6&#45;&gt;Node3</title>
<path fill="none" stroke="#63b8ff" d="M116.82,-57.05C186.27,-46.86 320.7,-27.12 390.1,-16.93"/>
<polygon fill="#63b8ff" stroke="#63b8ff" points="390.58,-20.4 399.97,-15.48 389.56,-13.47 390.58,-20.4"/>
</g>
<!-- Node7&#45;&gt;Node3 -->
<g id="edge10" class="edge">
<title>Node7&#45;&gt;Node3</title>
<path fill="none" stroke="#63b8ff" d="M145.65,-109.59C145.77,-95.7 148.19,-69.04 163.91,-55 196.66,-25.76 322.84,-15.55 390.48,-12.13"/>
<polygon fill="#63b8ff" stroke="#63b8ff" points="390.27,-15.64 400.09,-11.67 389.94,-8.65 390.27,-15.64"/>
</g>
<!-- Node8&#45;&gt;Node3 -->
<g id="edge12" class="edge">
<title>Node8&#45;&gt;Node3</title>
<path fill="none" stroke="#63b8ff" d="M253.72,-54.51C291.55,-45.27 350.43,-30.89 390.51,-21.1"/>
<polygon fill="#63b8ff" stroke="#63b8ff" points="391.18,-24.54 400.06,-18.77 389.52,-17.74 391.18,-24.54"/>
</g>
<!-- Node9&#45;&gt;Node3 -->
<g id="edge14" class="edge">
<title>Node9&#45;&gt;Node3</title>
<path fill="none" stroke="#63b8ff" d="M619.83,-109.92C608.32,-96.49 584.3,-70.45 558.91,-55 533.66,-39.63 502.31,-28.49 477.32,-21.2"/>
<polygon fill="#63b8ff" stroke="#63b8ff" points="478.36,-17.85 467.79,-18.52 476.47,-24.59 478.36,-17.85"/>
</g>
<!-- Node10&#45;&gt;Node3 -->
<g id="edge16" class="edge">
<title>Node10&#45;&gt;Node3</title>
<path fill="none" stroke="#63b8ff" d="M286.26,-164.54C296.85,-143.43 325.75,-89.73 361.91,-55 374.5,-42.91 390.9,-32.47 404.86,-24.74"/>
<polygon fill="#63b8ff" stroke="#63b8ff" points="406.44,-27.86 413.63,-20.08 403.16,-21.68 406.44,-27.86"/>
</g>
<!-- Node11&#45;&gt;Node3 -->
<g id="edge18" class="edge">
<title>Node11&#45;&gt;Node3</title>
<path fill="none" stroke="#63b8ff" d="M369.5,-164.51C355.89,-152.61 335.93,-130.72 343.91,-110 357.55,-74.59 390.27,-43.96 412.27,-26.36"/>
<polygon fill="#63b8ff" stroke="#63b8ff" points="414.27,-29.24 420.04,-20.36 409.99,-23.7 414.27,-29.24"/>
</g>
<!-- Node11&#45;&gt;Node5 -->
<g id="edge19" class="edge">
<title>Node11&#45;&gt;Node5</title>
<path fill="none" stroke="#63b8ff" d="M382.89,-164.75C384.38,-158.19 386.47,-148.95 388.36,-140.6"/>
<polygon fill="#63b8ff" stroke="#63b8ff" points="391.76,-141.44 390.55,-130.92 384.93,-139.9 391.76,-141.44"/>
</g>
<!-- Node13 -->
<g id="node13" class="node">
<title>Node13</title>
<g id="a_node13"><a xlink:href="math3d_8h.html" target="_top" xlink:title=" ">
<polygon fill="white" stroke="#666666" points="549.91,-74 493.91,-74 493.91,-55 549.91,-55 549.91,-74"/>
<text text-anchor="middle" x="521.91" y="-62" font-family="Helvetica,sans-Serif" font-size="10.00">math3d.h</text>
</a>
</g>
</g>
<!-- Node12&#45;&gt;Node13 -->
<g id="edge21" class="edge">
<title>Node12&#45;&gt;Node13</title>
<path fill="none" stroke="#63b8ff" d="M525.25,-109.75C524.76,-103.27 524.08,-94.16 523.45,-85.9"/>
<polygon fill="#63b8ff" stroke="#63b8ff" points="526.94,-85.66 522.7,-75.95 519.96,-86.19 526.94,-85.66"/>
</g>
<!-- Node13&#45;&gt;Node3 -->
<g id="edge22" class="edge">
<title>Node13&#45;&gt;Node3</title>
<path fill="none" stroke="#63b8ff" d="M506.99,-54.51C493.63,-46.47 473.81,-34.53 458.18,-25.11"/>
<polygon fill="#63b8ff" stroke="#63b8ff" points="460.29,-22.3 449.92,-20.14 456.68,-28.3 460.29,-22.3"/>
</g>
<!-- Node14&#45;&gt;Node3 -->
<g id="edge24" class="edge">
<title>Node14&#45;&gt;Node3</title>
<path fill="none" stroke="#63b8ff" d="M496.54,-164.72C492.16,-155.8 485.31,-141.56 479.91,-129 465.08,-94.46 449.63,-53.43 440.94,-29.83"/>
<polygon fill="#63b8ff" stroke="#63b8ff" points="444.3,-28.82 437.57,-20.63 437.72,-31.22 444.3,-28.82"/>
</g>
<!-- Node14&#45;&gt;Node12 -->
<g id="edge25" class="edge">
<title>Node14&#45;&gt;Node12</title>
<path fill="none" stroke="#63b8ff" d="M505.04,-164.75C508.24,-157.96 512.8,-148.3 516.84,-139.73"/>
<polygon fill="#63b8ff" stroke="#63b8ff" points="519.95,-141.35 521.05,-130.81 513.62,-138.36 519.95,-141.35"/>
</g>
<!-- Node15&#45;&gt;Node3 -->
<g id="edge27" class="edge">
<title>Node15&#45;&gt;Node3</title>
<path fill="none" stroke="#63b8ff" d="M660.85,-164.66C673.62,-152.2 692.91,-128.87 681.91,-110 640.32,-38.6 536.54,-18.39 477.25,-12.7"/>
<polygon fill="#63b8ff" stroke="#63b8ff" points="477.79,-9.23 467.53,-11.87 477.19,-16.21 477.79,-9.23"/>
</g>
<!-- Node15&#45;&gt;Node9 -->
<g id="edge28" class="edge">
<title>Node15&#45;&gt;Node9</title>
<path fill="none" stroke="#63b8ff" d="M646.95,-164.75C643.88,-157.96 639.5,-148.3 635.62,-139.73"/>
<polygon fill="#63b8ff" stroke="#63b8ff" points="638.9,-138.49 631.59,-130.82 632.52,-141.37 638.9,-138.49"/>
</g>
<!-- Node15&#45;&gt;Node12 -->
<g id="edge29" class="edge">
<title>Node15&#45;&gt;Node12</title>
<path fill="none" stroke="#63b8ff" d="M629.71,-164.51C609.84,-156.08 579.88,-143.38 557.25,-133.79"/>
<polygon fill="#63b8ff" stroke="#63b8ff" points="558.77,-130.63 548.2,-129.95 556.04,-137.07 558.77,-130.63"/>
</g>
<!-- Node16 -->
<g id="node16" class="node">
<title>Node16</title>
<g id="a_node16"><a xlink:href="gif__tags_8h.html" target="_top" xlink:title=" ">
<polygon fill="white" stroke="#666666" points="748.41,-74 689.41,-74 689.41,-55 748.41,-55 748.41,-74"/>
<text text-anchor="middle" x="718.91" y="-62" font-family="Helvetica,sans-Serif" font-size="10.00">gif_tags.h</text>
</a>
</g>
</g>
<!-- Node15&#45;&gt;Node16 -->
<g id="edge30" class="edge">
<title>Node15&#45;&gt;Node16</title>
<path fill="none" stroke="#63b8ff" d="M672.7,-164.54C687.34,-157.27 705.61,-145.51 714.91,-129 722.31,-115.87 722.96,-98.71 721.95,-85.53"/>
<polygon fill="#63b8ff" stroke="#63b8ff" points="725.46,-85.41 720.82,-75.89 718.51,-86.23 725.46,-85.41"/>
</g>
<!-- Node16&#45;&gt;Node3 -->
<g id="edge31" class="edge">
<title>Node16&#45;&gt;Node3</title>
<path fill="none" stroke="#63b8ff" d="M689.1,-57.71C684.35,-56.79 679.5,-55.87 674.91,-55 605.97,-41.98 525.85,-27.27 477.56,-18.45"/>
<polygon fill="#63b8ff" stroke="#63b8ff" points="478.24,-15.01 467.77,-16.66 476.98,-21.9 478.24,-15.01"/>
</g>
</g>
</svg>
        <g id="navigator" transform="translate(0 0)" fill="#404254">
                <rect fill="#f2f5e9" fill-opacity="0.5" stroke="#606060" stroke-width=".5" x="0" y="0" width="60" height="60"/>
                <use id="zoomplus" xlink:href="#zoomPlus" x="17" y="9" onmousedown="handleZoom(evt,'in')"/>
                <use id="zoomminus" xlink:href="#zoomMin" x="42" y="9" onmousedown="handleZoom(evt,'out')"/>
                <use id="reset" xlink:href="#resetDef" x="30" y="36" onmousedown="handleReset()"/>
                <g id="arrowUp" xlink:href="#dirArrow" transform="translate(30 24)" onmousedown="handlePan(0,-1)">
                  <use xlink:href="#rim" fill="#404040">
                        <set attributeName="fill" to="#808080" begin="arrowUp.mouseover" end="arrowUp.mouseout"/>
                  </use>
                  <path fill="none" stroke="white" stroke-width="1.5" d="M0,-3.0v7 M-2.5,-0.5L0,-3.0L2.5,-0.5"/>
                </g>
                <g id="arrowRight" xlink:href="#dirArrow" transform="rotate(90) translate(36 -43)" onmousedown="handlePan(1,0)">
                  <use xlink:href="#rim" fill="#404040">
                        <set attributeName="fill" to="#808080" begin="arrowRight.mouseover" end="arrowRight.mouseout"/>
                  </use>
                  <path fill="none" stroke="white" stroke-width="1.5" d="M0,-3.0v7 M-2.5,-0.5L0,-3.0L2.5,-0.5"/>
                </g>
                <g id="arrowDown" xlink:href="#dirArrow" transform="rotate(180) translate(-30 -48)" onmousedown="handlePan(0,1)">
                  <use xlink:href="#rim" fill="#404040">
                        <set attributeName="fill" to="#808080" begin="arrowDown.mouseover" end="arrowDown.mouseout"/>
                  </use>
                  <path fill="none" stroke="white" stroke-width="1.5" d="M0,-3.0v7 M-2.5,-0.5L0,-3.0L2.5,-0.5"/>
                </g>
                <g id="arrowLeft" xlink:href="#dirArrow" transform="rotate(270) translate(-36 17)" onmousedown="handlePan(-1,0)">
                  <use xlink:href="#rim" fill="#404040">
                        <set attributeName="fill" to="#808080" begin="arrowLeft.mouseover" end="arrowLeft.mouseout"/>
                  </use>
                  <path fill="none" stroke="white" stroke-width="1.5" d="M0,-3.0v7 M-2.5,-0.5L0,-3.0L2.5,-0.5"/>
                </g>
        </g>
        <svg viewBox="0 0 15 15" width="100%" height="30px" preserveAspectRatio="xMaxYMin meet">
         <g id="arrow_out" transform="scale(0.3 0.3)">
          <a xlink:href="font_8h__incl_org.svg" target="_base">
           <rect id="button" ry="5" rx="5" y="6" x="6" height="38" width="38"
                fill="#f2f5e9" fill-opacity="0.5" stroke="#606060" stroke-width="1.0"/>
           <path id="arrow"
             d="M 11.500037,31.436501 C 11.940474,20.09759 22.043105,11.32322 32.158766,21.979434 L 37.068811,17.246167 C 37.068811,17.246167 37.088388,32 37.088388,32 L 22.160133,31.978069 C 22.160133,31.978069 26.997745,27.140456 26.997745,27.140456 C 18.528582,18.264221 13.291696,25.230495 11.500037,31.436501 z"
             style="fill:#404040;"/>
          </a>
         </g>
        </svg>
</svg>
