<?xml version="1.0" encoding="UTF-8" standalone="no"?>
<!DOCTYPE svg PUBLIC "-//W3C//DTD SVG 1.1//EN"
 "http://www.w3.org/Graphics/SVG/1.1/DTD/svg11.dtd">
<!-- Generated by graphviz version 7.0.5 (20221223.1930)
 -->
<!-- Title: iop/system/mtapman/src/freemtap.c Pages: 1 -->
<svg width="461pt" height="313pt"
 viewBox="0.00 0.00 461.00 313.00" xmlns="http://www.w3.org/2000/svg" xmlns:xlink="http://www.w3.org/1999/xlink">
<g id="graph0" class="graph" transform="scale(1 1) rotate(0) translate(4 309)">
<title>iop/system/mtapman/src/freemtap.c</title>
<!-- Node1 -->
<g id="node1" class="node">
<title>Node1</title>
<g id="a_node1"><a xlink:title=" ">
<polygon fill="#999999" stroke="#666666" points="264,-305 157,-305 157,-275 264,-275 264,-305"/>
<text text-anchor="start" x="165" y="-293" font-family="Helvetica,sans-Serif" font-size="10.00">iop/system/mtapman</text>
<text text-anchor="middle" x="210.5" y="-282" font-family="Helvetica,sans-Serif" font-size="10.00">/src/freemtap.c</text>
</a>
</g>
</g>
<!-- Node2 -->
<g id="node2" class="node">
<title>Node2</title>
<g id="a_node2"><a xlink:title=" ">
<polygon fill="#e0e0e0" stroke="#999999" points="47,-129 0,-129 0,-110 47,-110 47,-129"/>
<text text-anchor="middle" x="23.5" y="-117" font-family="Helvetica,sans-Serif" font-size="10.00">types.h</text>
</a>
</g>
</g>
<!-- Node1&#45;&gt;Node2 -->
<g id="edge1" class="edge">
<title>Node1&#45;&gt;Node2</title>
<path fill="none" stroke="#63b8ff" d="M156.65,-281.54C107.05,-273.52 38.51,-259.16 20.5,-239 -3.64,-211.97 6.85,-166.05 15.75,-140.02"/>
<polygon fill="#63b8ff" stroke="#63b8ff" points="19,-141.32 19.19,-130.73 12.44,-138.89 19,-141.32"/>
</g>
<!-- Node3 -->
<g id="node3" class="node">
<title>Node3</title>
<g id="a_node3"><a xlink:href="irx_8h.html" target="_top" xlink:title=" ">
<polygon fill="white" stroke="#666666" points="240.5,-129 206.5,-129 206.5,-110 240.5,-110 240.5,-129"/>
<text text-anchor="middle" x="223.5" y="-117" font-family="Helvetica,sans-Serif" font-size="10.00">irx.h</text>
</a>
</g>
</g>
<!-- Node1&#45;&gt;Node3 -->
<g id="edge2" class="edge">
<title>Node1&#45;&gt;Node3</title>
<path fill="none" stroke="#63b8ff" d="M208.67,-274.59C207.51,-264.61 206.1,-251.02 205.5,-239 203.75,-203.94 212.12,-163.64 218.04,-140.22"/>
<polygon fill="#63b8ff" stroke="#63b8ff" points="221.35,-141.38 220.53,-130.82 214.58,-139.59 221.35,-141.38"/>
</g>
<!-- Node7 -->
<g id="node7" class="node">
<title>Node7</title>
<g id="a_node7"><a xlink:href="stdio_8h.html" target="_top" xlink:title=" ">
<polygon fill="white" stroke="#666666" points="259,-239 214,-239 214,-220 259,-220 259,-239"/>
<text text-anchor="middle" x="236.5" y="-227" font-family="Helvetica,sans-Serif" font-size="10.00">stdio.h</text>
</a>
</g>
</g>
<!-- Node1&#45;&gt;Node7 -->
<g id="edge6" class="edge">
<title>Node1&#45;&gt;Node7</title>
<path fill="none" stroke="#63b8ff" d="M216.93,-274.54C220.28,-267 224.42,-257.67 228.03,-249.55"/>
<polygon fill="#63b8ff" stroke="#63b8ff" points="231.17,-251.12 232.03,-240.56 224.77,-248.27 231.17,-251.12"/>
</g>
<!-- Node9 -->
<g id="node9" class="node">
<title>Node9</title>
<g id="a_node9"><a xlink:href="loadcore_8h.html" target="_top" xlink:title=" ">
<polygon fill="white" stroke="#666666" points="453,-184 392,-184 392,-165 453,-165 453,-184"/>
<text text-anchor="middle" x="422.5" y="-172" font-family="Helvetica,sans-Serif" font-size="10.00">loadcore.h</text>
</a>
</g>
</g>
<!-- Node1&#45;&gt;Node9 -->
<g id="edge9" class="edge">
<title>Node1&#45;&gt;Node9</title>
<path fill="none" stroke="#63b8ff" d="M237.35,-274.63C278.16,-252.78 355.33,-211.46 395.96,-189.71"/>
<polygon fill="#63b8ff" stroke="#63b8ff" points="397.42,-192.9 404.59,-185.09 394.12,-186.72 397.42,-192.9"/>
</g>
<!-- Node10 -->
<g id="node10" class="node">
<title>Node10</title>
<g id="a_node10"><a xlink:href="thevent_8h.html" target="_top" xlink:title=" ">
<polygon fill="white" stroke="#666666" points="157.5,-184 101.5,-184 101.5,-165 157.5,-165 157.5,-184"/>
<text text-anchor="middle" x="129.5" y="-172" font-family="Helvetica,sans-Serif" font-size="10.00">thevent.h</text>
</a>
</g>
</g>
<!-- Node1&#45;&gt;Node10 -->
<g id="edge12" class="edge">
<title>Node1&#45;&gt;Node10</title>
<path fill="none" stroke="#63b8ff" d="M198.93,-274.79C191.01,-264.9 180.37,-251.33 171.5,-239 160.77,-224.08 149.3,-206.63 141.07,-193.8"/>
<polygon fill="#63b8ff" stroke="#63b8ff" points="144.13,-192.1 135.81,-185.55 138.23,-195.86 144.13,-192.1"/>
</g>
<!-- Node11 -->
<g id="node11" class="node">
<title>Node11</title>
<g id="a_node11"><a xlink:href="thbase_8h.html" target="_top" xlink:title=" ">
<polygon fill="white" stroke="#666666" points="374,-184 321,-184 321,-165 374,-165 374,-184"/>
<text text-anchor="middle" x="347.5" y="-172" font-family="Helvetica,sans-Serif" font-size="10.00">thbase.h</text>
</a>
</g>
</g>
<!-- Node1&#45;&gt;Node11 -->
<g id="edge15" class="edge">
<title>Node1&#45;&gt;Node11</title>
<path fill="none" stroke="#63b8ff" d="M227.85,-274.63C253.5,-253.37 301.38,-213.71 328.14,-191.54"/>
<polygon fill="#63b8ff" stroke="#63b8ff" points="330.33,-194.27 335.8,-185.2 325.86,-188.88 330.33,-194.27"/>
</g>
<!-- Node12 -->
<g id="node12" class="node">
<title>Node12</title>
<g id="a_node12"><a xlink:href="xsio2man_8h.html" target="_top" xlink:title=" ">
<polygon fill="white" stroke="#666666" points="95,-239 30,-239 30,-220 95,-220 95,-239"/>
<text text-anchor="middle" x="62.5" y="-227" font-family="Helvetica,sans-Serif" font-size="10.00">xsio2man.h</text>
</a>
</g>
</g>
<!-- Node1&#45;&gt;Node12 -->
<g id="edge18" class="edge">
<title>Node1&#45;&gt;Node12</title>
<path fill="none" stroke="#63b8ff" d="M173.92,-274.54C149.83,-265.02 118.56,-252.66 95.28,-243.46"/>
<polygon fill="#63b8ff" stroke="#63b8ff" points="96.87,-240.32 86.29,-239.9 94.3,-246.83 96.87,-240.32"/>
</g>
<!-- Node14 -->
<g id="node14" class="node">
<title>Node14</title>
<g id="a_node14"><a xlink:href="freemtap_8h.html" target="_top" xlink:title=" ">
<polygon fill="white" stroke="#666666" points="415.5,-239 353.5,-239 353.5,-220 415.5,-220 415.5,-239"/>
<text text-anchor="middle" x="384.5" y="-227" font-family="Helvetica,sans-Serif" font-size="10.00">freemtap.h</text>
</a>
</g>
</g>
<!-- Node1&#45;&gt;Node14 -->
<g id="edge22" class="edge">
<title>Node1&#45;&gt;Node14</title>
<path fill="none" stroke="#63b8ff" d="M253.51,-274.54C282.26,-264.87 319.7,-252.29 347.19,-243.04"/>
<polygon fill="#63b8ff" stroke="#63b8ff" points="348.13,-246.42 356.5,-239.91 345.9,-239.78 348.13,-246.42"/>
</g>
<!-- Node4 -->
<g id="node4" class="node">
<title>Node4</title>
<g id="a_node4"><a xlink:href="iop_2kernel_2include_2types_8h_source.html" target="_top" xlink:title=" ">
<polygon fill="white" stroke="#666666" points="269,-74 222,-74 222,-55 269,-55 269,-74"/>
<text text-anchor="middle" x="245.5" y="-62" font-family="Helvetica,sans-Serif" font-size="10.00">types.h</text>
</a>
</g>
</g>
<!-- Node3&#45;&gt;Node4 -->
<g id="edge3" class="edge">
<title>Node3&#45;&gt;Node4</title>
<path fill="none" stroke="#63b8ff" d="M227.13,-109.75C229.92,-103.04 233.87,-93.52 237.4,-85.02"/>
<polygon fill="#63b8ff" stroke="#63b8ff" points="240.61,-86.42 241.21,-75.84 234.14,-83.73 240.61,-86.42"/>
</g>
<!-- Node5 -->
<g id="node5" class="node">
<title>Node5</title>
<g id="a_node5"><a xlink:title=" ">
<polygon fill="#e0e0e0" stroke="#999999" points="233,-19 182,-19 182,0 233,0 233,-19"/>
<text text-anchor="middle" x="207.5" y="-7" font-family="Helvetica,sans-Serif" font-size="10.00">stddef.h</text>
</a>
</g>
</g>
<!-- Node4&#45;&gt;Node5 -->
<g id="edge4" class="edge">
<title>Node4&#45;&gt;Node5</title>
<path fill="none" stroke="#63b8ff" d="M239.23,-54.75C234.14,-47.66 226.8,-37.42 220.47,-28.59"/>
<polygon fill="#63b8ff" stroke="#63b8ff" points="223.46,-26.76 214.79,-20.67 217.78,-30.84 223.46,-26.76"/>
</g>
<!-- Node6 -->
<g id="node6" class="node">
<title>Node6</title>
<g id="a_node6"><a xlink:href="tamtypes_8h.html" target="_top" xlink:title=" ">
<polygon fill="white" stroke="#666666" points="315.5,-19 251.5,-19 251.5,0 315.5,0 315.5,-19"/>
<text text-anchor="middle" x="283.5" y="-7" font-family="Helvetica,sans-Serif" font-size="10.00">tamtypes.h</text>
</a>
</g>
</g>
<!-- Node4&#45;&gt;Node6 -->
<g id="edge5" class="edge">
<title>Node4&#45;&gt;Node6</title>
<path fill="none" stroke="#63b8ff" d="M251.77,-54.75C256.86,-47.66 264.2,-37.42 270.53,-28.59"/>
<polygon fill="#63b8ff" stroke="#63b8ff" points="273.22,-30.84 276.21,-20.67 267.54,-26.76 273.22,-30.84"/>
</g>
<!-- Node7&#45;&gt;Node3 -->
<g id="edge8" class="edge">
<title>Node7&#45;&gt;Node3</title>
<path fill="none" stroke="#63b8ff" d="M235.44,-219.66C233.37,-202.5 228.77,-164.26 225.92,-140.6"/>
<polygon fill="#63b8ff" stroke="#63b8ff" points="229.43,-140.47 224.76,-130.96 222.48,-141.31 229.43,-140.47"/>
</g>
<!-- Node8 -->
<g id="node8" class="node">
<title>Node8</title>
<g id="a_node8"><a xlink:title=" ">
<polygon fill="#e0e0e0" stroke="#999999" points="303,-184 252,-184 252,-165 303,-165 303,-184"/>
<text text-anchor="middle" x="277.5" y="-172" font-family="Helvetica,sans-Serif" font-size="10.00">stdarg.h</text>
</a>
</g>
</g>
<!-- Node7&#45;&gt;Node8 -->
<g id="edge7" class="edge">
<title>Node7&#45;&gt;Node8</title>
<path fill="none" stroke="#63b8ff" d="M243.27,-219.75C248.82,-212.58 256.84,-202.2 263.73,-193.3"/>
<polygon fill="#63b8ff" stroke="#63b8ff" points="266.31,-195.69 269.66,-185.64 260.77,-191.41 266.31,-195.69"/>
</g>
<!-- Node9&#45;&gt;Node3 -->
<g id="edge11" class="edge">
<title>Node9&#45;&gt;Node3</title>
<path fill="none" stroke="#63b8ff" d="M391.84,-165.33C353.67,-155.17 288.99,-137.94 251.9,-128.06"/>
<polygon fill="#63b8ff" stroke="#63b8ff" points="252.92,-124.71 242.36,-125.52 251.12,-131.48 252.92,-124.71"/>
</g>
<!-- Node9&#45;&gt;Node4 -->
<g id="edge10" class="edge">
<title>Node9&#45;&gt;Node4</title>
<path fill="none" stroke="#63b8ff" d="M408.02,-164.66C377.68,-146.15 307.18,-103.13 269.79,-80.32"/>
<polygon fill="#63b8ff" stroke="#63b8ff" points="271.84,-77.47 261.48,-75.25 268.19,-83.44 271.84,-77.47"/>
</g>
<!-- Node10&#45;&gt;Node3 -->
<g id="edge14" class="edge">
<title>Node10&#45;&gt;Node3</title>
<path fill="none" stroke="#63b8ff" d="M145.45,-164.51C159.85,-156.39 181.29,-144.3 198.06,-134.85"/>
<polygon fill="#63b8ff" stroke="#63b8ff" points="199.48,-138.06 206.47,-130.1 196.04,-131.96 199.48,-138.06"/>
</g>
<!-- Node10&#45;&gt;Node4 -->
<g id="edge13" class="edge">
<title>Node10&#45;&gt;Node4</title>
<path fill="none" stroke="#63b8ff" d="M138.73,-164.86C151.8,-152.63 176.45,-129.59 197.5,-110 207.48,-100.71 218.65,-90.35 227.71,-81.97"/>
<polygon fill="#63b8ff" stroke="#63b8ff" points="229.86,-84.75 234.82,-75.38 225.1,-79.61 229.86,-84.75"/>
</g>
<!-- Node11&#45;&gt;Node3 -->
<g id="edge17" class="edge">
<title>Node11&#45;&gt;Node3</title>
<path fill="none" stroke="#63b8ff" d="M326.47,-164.51C305.68,-155.63 273.78,-141.99 251,-132.25"/>
<polygon fill="#63b8ff" stroke="#63b8ff" points="252.6,-129.13 242.03,-128.42 249.85,-135.57 252.6,-129.13"/>
</g>
<!-- Node11&#45;&gt;Node4 -->
<g id="edge16" class="edge">
<title>Node11&#45;&gt;Node4</title>
<path fill="none" stroke="#63b8ff" d="M339.15,-164.66C322.27,-146.78 283.79,-106.05 261.77,-82.73"/>
<polygon fill="#63b8ff" stroke="#63b8ff" points="264.41,-80.43 255,-75.56 259.32,-85.23 264.41,-80.43"/>
</g>
<!-- Node13 -->
<g id="node13" class="node">
<title>Node13</title>
<g id="a_node13"><a xlink:href="sio2man_8h.html" target="_top" xlink:title=" ">
<polygon fill="white" stroke="#666666" points="83,-184 22,-184 22,-165 83,-165 83,-184"/>
<text text-anchor="middle" x="52.5" y="-172" font-family="Helvetica,sans-Serif" font-size="10.00">sio2man.h</text>
</a>
</g>
</g>
<!-- Node12&#45;&gt;Node13 -->
<g id="edge19" class="edge">
<title>Node12&#45;&gt;Node13</title>
<path fill="none" stroke="#63b8ff" d="M60.85,-219.75C59.61,-213.19 57.87,-203.95 56.29,-195.6"/>
<polygon fill="#63b8ff" stroke="#63b8ff" points="59.76,-195.11 54.47,-185.93 52.88,-196.4 59.76,-195.11"/>
</g>
<!-- Node13&#45;&gt;Node2 -->
<g id="edge20" class="edge">
<title>Node13&#45;&gt;Node2</title>
<path fill="none" stroke="#63b8ff" d="M47.71,-164.75C43.96,-157.88 38.59,-148.08 33.87,-139.45"/>
<polygon fill="#63b8ff" stroke="#63b8ff" points="36.99,-137.86 29.12,-130.77 30.85,-141.22 36.99,-137.86"/>
</g>
<!-- Node13&#45;&gt;Node3 -->
<g id="edge21" class="edge">
<title>Node13&#45;&gt;Node3</title>
<path fill="none" stroke="#63b8ff" d="M81.51,-164.51C113.42,-154.62 164.33,-138.84 195.73,-129.11"/>
<polygon fill="#63b8ff" stroke="#63b8ff" points="196.39,-132.57 204.9,-126.26 194.32,-125.88 196.39,-132.57"/>
</g>
</g>
</svg>
