<?xml version="1.0" encoding="UTF-8" standalone="no"?>
<!DOCTYPE svg PUBLIC "-//W3C//DTD SVG 1.1//EN"
 "http://www.w3.org/Graphics/SVG/1.1/DTD/svg11.dtd">
<!-- Generated by graphviz version 7.0.5 (20221223.1930)
 -->
<!-- Title: iop/sound/libsd/src/freesd.c Pages: 1 -->
<svg width="462pt" height="258pt"
 viewBox="0.00 0.00 461.50 258.00" xmlns="http://www.w3.org/2000/svg" xmlns:xlink="http://www.w3.org/1999/xlink">
<g id="graph0" class="graph" transform="scale(1 1) rotate(0) translate(4 254)">
<title>iop/sound/libsd/src/freesd.c</title>
<!-- Node1 -->
<g id="node1" class="node">
<title>Node1</title>
<g id="a_node1"><a xlink:title=" ">
<polygon fill="#999999" stroke="#666666" points="257.5,-250 159.5,-250 159.5,-220 257.5,-220 257.5,-250"/>
<text text-anchor="start" x="167.5" y="-238" font-family="Helvetica,sans-Serif" font-size="10.00">iop/sound/libsd/src</text>
<text text-anchor="middle" x="208.5" y="-227" font-family="Helvetica,sans-Serif" font-size="10.00">/freesd.c</text>
</a>
</g>
</g>
<!-- Node2 -->
<g id="node2" class="node">
<title>Node2</title>
<g id="a_node2"><a xlink:title=" ">
<polygon fill="#e0e0e0" stroke="#999999" points="47,-184 0,-184 0,-165 47,-165 47,-184"/>
<text text-anchor="middle" x="23.5" y="-172" font-family="Helvetica,sans-Serif" font-size="10.00">types.h</text>
</a>
</g>
</g>
<!-- Node1&#45;&gt;Node2 -->
<g id="edge1" class="edge">
<title>Node1&#45;&gt;Node2</title>
<path fill="none" stroke="#63b8ff" d="M162.77,-219.54C130.32,-209.28 87.45,-195.72 57.89,-186.38"/>
<polygon fill="#63b8ff" stroke="#63b8ff" points="59.3,-183.15 48.71,-183.47 57.19,-189.82 59.3,-183.15"/>
</g>
<!-- Node3 -->
<g id="node3" class="node">
<title>Node3</title>
<g id="a_node3"><a xlink:href="irx_8h.html" target="_top" xlink:title=" ">
<polygon fill="white" stroke="#666666" points="169.5,-129 135.5,-129 135.5,-110 169.5,-110 169.5,-129"/>
<text text-anchor="middle" x="152.5" y="-117" font-family="Helvetica,sans-Serif" font-size="10.00">irx.h</text>
</a>
</g>
</g>
<!-- Node1&#45;&gt;Node3 -->
<g id="edge2" class="edge">
<title>Node1&#45;&gt;Node3</title>
<path fill="none" stroke="#63b8ff" d="M194.42,-219.85C185.77,-210.42 175.12,-197.34 168.5,-184 161.68,-170.25 157.6,-153.35 155.27,-140.43"/>
<polygon fill="#63b8ff" stroke="#63b8ff" points="158.74,-139.95 153.72,-130.62 151.82,-141.04 158.74,-139.95"/>
</g>
<!-- Node7 -->
<g id="node7" class="node">
<title>Node7</title>
<g id="a_node7"><a xlink:href="loadcore_8h.html" target="_top" xlink:title=" ">
<polygon fill="white" stroke="#666666" points="239,-184 178,-184 178,-165 239,-165 239,-184"/>
<text text-anchor="middle" x="208.5" y="-172" font-family="Helvetica,sans-Serif" font-size="10.00">loadcore.h</text>
</a>
</g>
</g>
<!-- Node1&#45;&gt;Node7 -->
<g id="edge6" class="edge">
<title>Node1&#45;&gt;Node7</title>
<path fill="none" stroke="#63b8ff" d="M208.5,-219.54C208.5,-212.34 208.5,-203.53 208.5,-195.68"/>
<polygon fill="#63b8ff" stroke="#63b8ff" points="212,-195.69 208.5,-185.69 205,-195.69 212,-195.69"/>
</g>
<!-- Node8 -->
<g id="node8" class="node">
<title>Node8</title>
<g id="a_node8"><a xlink:href="stdio_8h.html" target="_top" xlink:title=" ">
<polygon fill="white" stroke="#666666" points="302,-184 257,-184 257,-165 302,-165 302,-184"/>
<text text-anchor="middle" x="279.5" y="-172" font-family="Helvetica,sans-Serif" font-size="10.00">stdio.h</text>
</a>
</g>
</g>
<!-- Node1&#45;&gt;Node8 -->
<g id="edge9" class="edge">
<title>Node1&#45;&gt;Node8</title>
<path fill="none" stroke="#63b8ff" d="M226.05,-219.54C236.47,-210.96 249.68,-200.07 260.37,-191.26"/>
<polygon fill="#63b8ff" stroke="#63b8ff" points="262.31,-194.2 267.8,-185.14 257.86,-188.8 262.31,-194.2"/>
</g>
<!-- Node10 -->
<g id="node10" class="node">
<title>Node10</title>
<g id="a_node10"><a xlink:href="intrman_8h.html" target="_top" xlink:title=" ">
<polygon fill="white" stroke="#666666" points="121.5,-184 65.5,-184 65.5,-165 121.5,-165 121.5,-184"/>
<text text-anchor="middle" x="93.5" y="-172" font-family="Helvetica,sans-Serif" font-size="10.00">intrman.h</text>
</a>
</g>
</g>
<!-- Node1&#45;&gt;Node10 -->
<g id="edge12" class="edge">
<title>Node1&#45;&gt;Node10</title>
<path fill="none" stroke="#63b8ff" d="M180.07,-219.54C162.03,-210.36 138.81,-198.55 120.96,-189.47"/>
<polygon fill="#63b8ff" stroke="#63b8ff" points="122.74,-186.45 112.24,-185.03 119.57,-192.69 122.74,-186.45"/>
</g>
<!-- Node11 -->
<g id="node11" class="node">
<title>Node11</title>
<g id="a_node11"><a xlink:title=" ">
<polygon fill="#e0e0e0" stroke="#999999" points="371,-184 320,-184 320,-165 371,-165 371,-184"/>
<text text-anchor="middle" x="345.5" y="-172" font-family="Helvetica,sans-Serif" font-size="10.00">freesd.h</text>
</a>
</g>
</g>
<!-- Node1&#45;&gt;Node11 -->
<g id="edge15" class="edge">
<title>Node1&#45;&gt;Node11</title>
<path fill="none" stroke="#63b8ff" d="M242.37,-219.54C264.36,-210.15 292.83,-197.99 314.28,-188.83"/>
<polygon fill="#63b8ff" stroke="#63b8ff" points="315.57,-192.09 323.39,-184.94 312.82,-185.65 315.57,-192.09"/>
</g>
<!-- Node12 -->
<g id="node12" class="node">
<title>Node12</title>
<g id="a_node12"><a xlink:href="spu2regs_8h.html" target="_top" xlink:title=" ">
<polygon fill="white" stroke="#666666" points="453.5,-184 389.5,-184 389.5,-165 453.5,-165 453.5,-184"/>
<text text-anchor="middle" x="421.5" y="-172" font-family="Helvetica,sans-Serif" font-size="10.00">spu2regs.h</text>
</a>
</g>
</g>
<!-- Node1&#45;&gt;Node12 -->
<g id="edge16" class="edge">
<title>Node1&#45;&gt;Node12</title>
<path fill="none" stroke="#63b8ff" d="M257.9,-220.43C294.39,-210.41 343.56,-196.91 378.45,-187.32"/>
<polygon fill="#63b8ff" stroke="#63b8ff" points="379.06,-190.79 387.78,-184.76 377.21,-184.04 379.06,-190.79"/>
</g>
<!-- Node4 -->
<g id="node4" class="node">
<title>Node4</title>
<g id="a_node4"><a xlink:href="iop_2kernel_2include_2types_8h_source.html" target="_top" xlink:title=" ">
<polygon fill="white" stroke="#666666" points="176,-74 129,-74 129,-55 176,-55 176,-74"/>
<text text-anchor="middle" x="152.5" y="-62" font-family="Helvetica,sans-Serif" font-size="10.00">types.h</text>
</a>
</g>
</g>
<!-- Node3&#45;&gt;Node4 -->
<g id="edge3" class="edge">
<title>Node3&#45;&gt;Node4</title>
<path fill="none" stroke="#63b8ff" d="M152.5,-109.75C152.5,-103.27 152.5,-94.16 152.5,-85.9"/>
<polygon fill="#63b8ff" stroke="#63b8ff" points="156,-85.96 152.5,-75.96 149,-85.96 156,-85.96"/>
</g>
<!-- Node5 -->
<g id="node5" class="node">
<title>Node5</title>
<g id="a_node5"><a xlink:title=" ">
<polygon fill="#e0e0e0" stroke="#999999" points="140,-19 89,-19 89,0 140,0 140,-19"/>
<text text-anchor="middle" x="114.5" y="-7" font-family="Helvetica,sans-Serif" font-size="10.00">stddef.h</text>
</a>
</g>
</g>
<!-- Node4&#45;&gt;Node5 -->
<g id="edge4" class="edge">
<title>Node4&#45;&gt;Node5</title>
<path fill="none" stroke="#63b8ff" d="M146.23,-54.75C141.14,-47.66 133.8,-37.42 127.47,-28.59"/>
<polygon fill="#63b8ff" stroke="#63b8ff" points="130.46,-26.76 121.79,-20.67 124.78,-30.84 130.46,-26.76"/>
</g>
<!-- Node6 -->
<g id="node6" class="node">
<title>Node6</title>
<g id="a_node6"><a xlink:href="tamtypes_8h.html" target="_top" xlink:title=" ">
<polygon fill="white" stroke="#666666" points="222.5,-19 158.5,-19 158.5,0 222.5,0 222.5,-19"/>
<text text-anchor="middle" x="190.5" y="-7" font-family="Helvetica,sans-Serif" font-size="10.00">tamtypes.h</text>
</a>
</g>
</g>
<!-- Node4&#45;&gt;Node6 -->
<g id="edge5" class="edge">
<title>Node4&#45;&gt;Node6</title>
<path fill="none" stroke="#63b8ff" d="M158.77,-54.75C163.86,-47.66 171.2,-37.42 177.53,-28.59"/>
<polygon fill="#63b8ff" stroke="#63b8ff" points="180.22,-30.84 183.21,-20.67 174.54,-26.76 180.22,-30.84"/>
</g>
<!-- Node7&#45;&gt;Node3 -->
<g id="edge8" class="edge">
<title>Node7&#45;&gt;Node3</title>
<path fill="none" stroke="#63b8ff" d="M199,-164.51C191.07,-157 179.55,-146.1 169.96,-137.03"/>
<polygon fill="#63b8ff" stroke="#63b8ff" points="172.63,-134.73 162.96,-130.4 167.82,-139.81 172.63,-134.73"/>
</g>
<!-- Node7&#45;&gt;Node4 -->
<g id="edge7" class="edge">
<title>Node7&#45;&gt;Node4</title>
<path fill="none" stroke="#63b8ff" d="M204.66,-164.75C199.17,-152.4 188.62,-129.2 178.5,-110 173.91,-101.29 168.47,-91.85 163.75,-83.92"/>
<polygon fill="#63b8ff" stroke="#63b8ff" points="166.85,-82.29 158.69,-75.53 160.86,-85.9 166.85,-82.29"/>
</g>
<!-- Node8&#45;&gt;Node3 -->
<g id="edge11" class="edge">
<title>Node8&#45;&gt;Node3</title>
<path fill="none" stroke="#63b8ff" d="M257.96,-164.51C236.55,-155.58 203.63,-141.84 180.27,-132.09"/>
<polygon fill="#63b8ff" stroke="#63b8ff" points="181.63,-128.87 171.06,-128.24 178.94,-135.33 181.63,-128.87"/>
</g>
<!-- Node9 -->
<g id="node9" class="node">
<title>Node9</title>
<g id="a_node9"><a xlink:title=" ">
<polygon fill="#e0e0e0" stroke="#999999" points="305,-129 254,-129 254,-110 305,-110 305,-129"/>
<text text-anchor="middle" x="279.5" y="-117" font-family="Helvetica,sans-Serif" font-size="10.00">stdarg.h</text>
</a>
</g>
</g>
<!-- Node8&#45;&gt;Node9 -->
<g id="edge10" class="edge">
<title>Node8&#45;&gt;Node9</title>
<path fill="none" stroke="#63b8ff" d="M279.5,-164.75C279.5,-158.27 279.5,-149.16 279.5,-140.9"/>
<polygon fill="#63b8ff" stroke="#63b8ff" points="283,-140.96 279.5,-130.96 276,-140.96 283,-140.96"/>
</g>
<!-- Node10&#45;&gt;Node3 -->
<g id="edge14" class="edge">
<title>Node10&#45;&gt;Node3</title>
<path fill="none" stroke="#63b8ff" d="M103.51,-164.51C111.87,-157 124,-146.1 134.1,-137.03"/>
<polygon fill="#63b8ff" stroke="#63b8ff" points="136.41,-139.66 141.51,-130.37 131.74,-134.45 136.41,-139.66"/>
</g>
<!-- Node10&#45;&gt;Node4 -->
<g id="edge13" class="edge">
<title>Node10&#45;&gt;Node4</title>
<path fill="none" stroke="#63b8ff" d="M97.85,-164.8C104.04,-152.5 115.82,-129.36 126.5,-110 131.25,-101.38 136.72,-91.95 141.41,-84"/>
<polygon fill="#63b8ff" stroke="#63b8ff" points="144.31,-85.98 146.42,-75.59 138.3,-82.4 144.31,-85.98"/>
</g>
</g>
</svg>
