<?xml version="1.0" encoding="UTF-8" standalone="no"?>
<!DOCTYPE svg PUBLIC "-//W3C//DTD SVG 1.1//EN"
 "http://www.w3.org/Graphics/SVG/1.1/DTD/svg11.dtd">
<!-- Generated by graphviz version 7.0.5 (20221223.1930)
 -->
<!-- Title: ee/kernel/src/getkernel.c Pages: 1 -->
<svg width="205pt" height="192pt"
 viewBox="0.00 0.00 204.50 192.00" xmlns="http://www.w3.org/2000/svg" xmlns:xlink="http://www.w3.org/1999/xlink">
<g id="graph0" class="graph" transform="scale(1 1) rotate(0) translate(4 188)">
<title>ee/kernel/src/getkernel.c</title>
<!-- Node1 -->
<g id="node1" class="node">
<title>Node1</title>
<g id="a_node1"><a xlink:title=" ">
<polygon fill="#999999" stroke="#666666" points="156,-184 33,-184 33,-165 156,-165 156,-184"/>
<text text-anchor="middle" x="94.5" y="-172" font-family="Helvetica,sans-Serif" font-size="10.00">ee/kernel/src/getkernel.c</text>
</a>
</g>
</g>
<!-- Node2 -->
<g id="node2" class="node">
<title>Node2</title>
<g id="a_node2"><a xlink:href="kernel_8h.html" target="_top" xlink:title=" ">
<polygon fill="white" stroke="#666666" points="119.5,-129 69.5,-129 69.5,-110 119.5,-110 119.5,-129"/>
<text text-anchor="middle" x="94.5" y="-117" font-family="Helvetica,sans-Serif" font-size="10.00">kernel.h</text>
</a>
</g>
</g>
<!-- Node1&#45;&gt;Node2 -->
<g id="edge1" class="edge">
<title>Node1&#45;&gt;Node2</title>
<path fill="none" stroke="#63b8ff" d="M94.5,-164.75C94.5,-158.27 94.5,-149.16 94.5,-140.9"/>
<polygon fill="#63b8ff" stroke="#63b8ff" points="98,-140.96 94.5,-130.96 91,-140.96 98,-140.96"/>
</g>
<!-- Node3 -->
<g id="node3" class="node">
<title>Node3</title>
<g id="a_node3"><a xlink:title=" ">
<polygon fill="#e0e0e0" stroke="#999999" points="51,-74 0,-74 0,-55 51,-55 51,-74"/>
<text text-anchor="middle" x="25.5" y="-62" font-family="Helvetica,sans-Serif" font-size="10.00">stddef.h</text>
</a>
</g>
</g>
<!-- Node2&#45;&gt;Node3 -->
<g id="edge2" class="edge">
<title>Node2&#45;&gt;Node3</title>
<path fill="none" stroke="#63b8ff" d="M82.8,-109.51C72.72,-101.77 57.96,-90.43 45.94,-81.2"/>
<polygon fill="#63b8ff" stroke="#63b8ff" points="48.29,-78.6 38.23,-75.28 44.03,-84.15 48.29,-78.6"/>
</g>
<!-- Node4 -->
<g id="node4" class="node">
<title>Node4</title>
<g id="a_node4"><a xlink:title=" ">
<polygon fill="#e0e0e0" stroke="#999999" points="120,-74 69,-74 69,-55 120,-55 120,-74"/>
<text text-anchor="middle" x="94.5" y="-62" font-family="Helvetica,sans-Serif" font-size="10.00">stdarg.h</text>
</a>
</g>
</g>
<!-- Node2&#45;&gt;Node4 -->
<g id="edge3" class="edge">
<title>Node2&#45;&gt;Node4</title>
<path fill="none" stroke="#63b8ff" d="M94.5,-109.75C94.5,-103.27 94.5,-94.16 94.5,-85.9"/>
<polygon fill="#63b8ff" stroke="#63b8ff" points="98,-85.96 94.5,-75.96 91,-85.96 98,-85.96"/>
</g>
<!-- Node5 -->
<g id="node5" class="node">
<title>Node5</title>
<g id="a_node5"><a xlink:href="sifdma_8h.html" target="_top" xlink:title=" ">
<polygon fill="white" stroke="#666666" points="191,-74 138,-74 138,-55 191,-55 191,-74"/>
<text text-anchor="middle" x="164.5" y="-62" font-family="Helvetica,sans-Serif" font-size="10.00">sifdma.h</text>
</a>
</g>
</g>
<!-- Node2&#45;&gt;Node5 -->
<g id="edge4" class="edge">
<title>Node2&#45;&gt;Node5</title>
<path fill="none" stroke="#63b8ff" d="M106.37,-109.51C116.59,-101.77 131.57,-90.43 143.76,-81.2"/>
<polygon fill="#63b8ff" stroke="#63b8ff" points="145.73,-84.1 151.59,-75.27 141.51,-78.52 145.73,-84.1"/>
</g>
<!-- Node6 -->
<g id="node6" class="node">
<title>Node6</title>
<g id="a_node6"><a xlink:href="tamtypes_8h.html" target="_top" xlink:title=" ">
<polygon fill="white" stroke="#666666" points="196.5,-19 132.5,-19 132.5,0 196.5,0 196.5,-19"/>
<text text-anchor="middle" x="164.5" y="-7" font-family="Helvetica,sans-Serif" font-size="10.00">tamtypes.h</text>
</a>
</g>
</g>
<!-- Node5&#45;&gt;Node6 -->
<g id="edge5" class="edge">
<title>Node5&#45;&gt;Node6</title>
<path fill="none" stroke="#63b8ff" d="M164.5,-54.75C164.5,-48.27 164.5,-39.16 164.5,-30.9"/>
<polygon fill="#63b8ff" stroke="#63b8ff" points="168,-30.96 164.5,-20.96 161,-30.96 168,-30.96"/>
</g>
</g>
</svg>
