<?xml version="1.0" encoding="UTF-8" standalone="no"?>
<!DOCTYPE svg PUBLIC "-//W3C//DTD SVG 1.1//EN"
 "http://www.w3.org/Graphics/SVG/1.1/DTD/svg11.dtd">
<!-- Generated by graphviz version 7.0.5 (20221223.1930)
 -->
<!-- Title: ee/graph/include/graph.h Pages: 1 -->
<svg width="486pt" height="93pt"
 viewBox="0.00 0.00 485.50 93.00" xmlns="http://www.w3.org/2000/svg" xmlns:xlink="http://www.w3.org/1999/xlink">
<g id="graph0" class="graph" transform="scale(1 1) rotate(0) translate(4 89)">
<title>ee/graph/include/graph.h</title>
<!-- Node1 -->
<g id="node1" class="node">
<title>Node1</title>
<g id="a_node1"><a xlink:title=" ">
<polygon fill="#999999" stroke="#666666" points="291.5,-85 169.5,-85 169.5,-66 291.5,-66 291.5,-85"/>
<text text-anchor="middle" x="230.5" y="-73" font-family="Helvetica,sans-Serif" font-size="10.00">ee/graph/include/graph.h</text>
</a>
</g>
</g>
<!-- Node2 -->
<g id="node2" class="node">
<title>Node2</title>
<g id="a_node2"><a xlink:href="graph_8c_source.html" target="_top" xlink:title=" ">
<polygon fill="white" stroke="#666666" points="105,-24.5 0,-24.5 0,-5.5 105,-5.5 105,-24.5"/>
<text text-anchor="middle" x="52.5" y="-12.5" font-family="Helvetica,sans-Serif" font-size="10.00">ee/graph/src/graph.c</text>
</a>
</g>
</g>
<!-- Node1&#45;&gt;Node2 -->
<g id="edge1" class="edge">
<title>Node1&#45;&gt;Node2</title>
<path fill="none" stroke="#63b8ff" d="M192.6,-62.05C158.74,-50.92 109.95,-34.88 79.79,-24.97"/>
<polygon fill="#63b8ff" stroke="#63b8ff" points="191.43,-65.35 202.03,-65.14 193.62,-58.7 191.43,-65.35"/>
</g>
<!-- Node3 -->
<g id="node3" class="node">
<title>Node3</title>
<g id="a_node3"><a xlink:href="graph__config_8c_source.html" target="_top" xlink:title=" ">
<polygon fill="white" stroke="#666666" points="221.5,-30 123.5,-30 123.5,0 221.5,0 221.5,-30"/>
<text text-anchor="start" x="131.5" y="-18" font-family="Helvetica,sans-Serif" font-size="10.00">ee/graph/src/graph</text>
<text text-anchor="middle" x="172.5" y="-7" font-family="Helvetica,sans-Serif" font-size="10.00">_config.c</text>
</a>
</g>
</g>
<!-- Node1&#45;&gt;Node3 -->
<g id="edge2" class="edge">
<title>Node1&#45;&gt;Node3</title>
<path fill="none" stroke="#63b8ff" d="M214.02,-57.88C205.33,-49.11 194.78,-38.48 186.49,-30.11"/>
<polygon fill="#63b8ff" stroke="#63b8ff" points="211.35,-60.16 220.88,-64.79 216.32,-55.23 211.35,-60.16"/>
</g>
<!-- Node4 -->
<g id="node4" class="node">
<title>Node4</title>
<g id="a_node4"><a xlink:href="graph__mode_8c_source.html" target="_top" xlink:title=" ">
<polygon fill="white" stroke="#666666" points="337.5,-30 239.5,-30 239.5,0 337.5,0 337.5,-30"/>
<text text-anchor="start" x="247.5" y="-18" font-family="Helvetica,sans-Serif" font-size="10.00">ee/graph/src/graph</text>
<text text-anchor="middle" x="288.5" y="-7" font-family="Helvetica,sans-Serif" font-size="10.00">_mode.c</text>
</a>
</g>
</g>
<!-- Node1&#45;&gt;Node4 -->
<g id="edge3" class="edge">
<title>Node1&#45;&gt;Node4</title>
<path fill="none" stroke="#63b8ff" d="M246.98,-57.88C255.67,-49.11 266.22,-38.48 274.51,-30.11"/>
<polygon fill="#63b8ff" stroke="#63b8ff" points="244.68,-55.23 240.12,-64.79 249.65,-60.16 244.68,-55.23"/>
</g>
<!-- Node5 -->
<g id="node5" class="node">
<title>Node5</title>
<g id="a_node5"><a xlink:href="math3d_8c_source.html" target="_top" xlink:title=" ">
<polygon fill="white" stroke="#666666" points="477.5,-24.5 355.5,-24.5 355.5,-5.5 477.5,-5.5 477.5,-24.5"/>
<text text-anchor="middle" x="416.5" y="-12.5" font-family="Helvetica,sans-Serif" font-size="10.00">ee/math3d/src/math3d.c</text>
</a>
</g>
</g>
<!-- Node1&#45;&gt;Node5 -->
<g id="edge4" class="edge">
<title>Node1&#45;&gt;Node5</title>
<path fill="none" stroke="#63b8ff" d="M269.64,-62.19C305.04,-51.06 356.33,-34.92 387.98,-24.97"/>
<polygon fill="#63b8ff" stroke="#63b8ff" points="268.68,-58.82 260.19,-65.16 270.78,-65.5 268.68,-58.82"/>
</g>
</g>
</svg>
