<?xml version="1.0" encoding="UTF-8" standalone="no"?>
<!DOCTYPE svg PUBLIC "-//W3C//DTD SVG 1.1//EN"
 "http://www.w3.org/Graphics/SVG/1.1/DTD/svg11.dtd">
<!-- Generated by graphviz version 7.0.5 (20221223.1930)
 -->
<!-- Title: ee/graph/include/graph_vram.h Pages: 1 -->
<svg width="486pt" height="170pt"
 viewBox="0.00 0.00 485.50 170.00" xmlns="http://www.w3.org/2000/svg" xmlns:xlink="http://www.w3.org/1999/xlink">
<g id="graph0" class="graph" transform="scale(1 1) rotate(0) translate(4 166)">
<title>ee/graph/include/graph_vram.h</title>
<!-- Node1 -->
<g id="node1" class="node">
<title>Node1</title>
<g id="a_node1"><a xlink:title=" ">
<polygon fill="#999999" stroke="#666666" points="352,-162 237,-162 237,-132 352,-132 352,-162"/>
<text text-anchor="start" x="245" y="-150" font-family="Helvetica,sans-Serif" font-size="10.00">ee/graph/include/graph</text>
<text text-anchor="middle" x="294.5" y="-139" font-family="Helvetica,sans-Serif" font-size="10.00">_vram.h</text>
</a>
</g>
</g>
<!-- Node2 -->
<g id="node2" class="node">
<title>Node2</title>
<g id="a_node2"><a xlink:href="graph_8h.html" target="_top" xlink:title=" ">
<polygon fill="white" stroke="#666666" points="291.5,-90.5 169.5,-90.5 169.5,-71.5 291.5,-71.5 291.5,-90.5"/>
<text text-anchor="middle" x="230.5" y="-78.5" font-family="Helvetica,sans-Serif" font-size="10.00">ee/graph/include/graph.h</text>
</a>
</g>
</g>
<!-- Node1&#45;&gt;Node2 -->
<g id="edge1" class="edge">
<title>Node1&#45;&gt;Node2</title>
<path fill="none" stroke="#63b8ff" d="M272.44,-123.94C261.08,-112.58 247.86,-99.36 239.34,-90.84"/>
<polygon fill="#63b8ff" stroke="#63b8ff" points="269.68,-126.13 279.23,-130.73 274.63,-121.18 269.68,-126.13"/>
</g>
<!-- Node7 -->
<g id="node7" class="node">
<title>Node7</title>
<g id="a_node7"><a xlink:href="graph__vram_8c_source.html" target="_top" xlink:title=" ">
<polygon fill="white" stroke="#666666" points="407.5,-96 309.5,-96 309.5,-66 407.5,-66 407.5,-96"/>
<text text-anchor="start" x="317.5" y="-84" font-family="Helvetica,sans-Serif" font-size="10.00">ee/graph/src/graph</text>
<text text-anchor="middle" x="358.5" y="-73" font-family="Helvetica,sans-Serif" font-size="10.00">_vram.c</text>
</a>
</g>
</g>
<!-- Node1&#45;&gt;Node7 -->
<g id="edge6" class="edge">
<title>Node1&#45;&gt;Node7</title>
<path fill="none" stroke="#63b8ff" d="M316.69,-123.81C325.86,-114.64 336.22,-104.28 344.34,-96.16"/>
<polygon fill="#63b8ff" stroke="#63b8ff" points="314.37,-121.18 309.77,-130.73 319.32,-126.13 314.37,-121.18"/>
</g>
<!-- Node3 -->
<g id="node3" class="node">
<title>Node3</title>
<g id="a_node3"><a xlink:href="graph_8c_source.html" target="_top" xlink:title=" ">
<polygon fill="white" stroke="#666666" points="105,-24.5 0,-24.5 0,-5.5 105,-5.5 105,-24.5"/>
<text text-anchor="middle" x="52.5" y="-12.5" font-family="Helvetica,sans-Serif" font-size="10.00">ee/graph/src/graph.c</text>
</a>
</g>
</g>
<!-- Node2&#45;&gt;Node3 -->
<g id="edge2" class="edge">
<title>Node2&#45;&gt;Node3</title>
<path fill="none" stroke="#63b8ff" d="M195.1,-67.27C160.26,-54.75 107.96,-35.94 77.33,-24.93"/>
<polygon fill="#63b8ff" stroke="#63b8ff" points="193.73,-70.5 204.33,-70.59 196.1,-63.91 193.73,-70.5"/>
</g>
<!-- Node4 -->
<g id="node4" class="node">
<title>Node4</title>
<g id="a_node4"><a xlink:href="graph__config_8c_source.html" target="_top" xlink:title=" ">
<polygon fill="white" stroke="#666666" points="221.5,-30 123.5,-30 123.5,0 221.5,0 221.5,-30"/>
<text text-anchor="start" x="131.5" y="-18" font-family="Helvetica,sans-Serif" font-size="10.00">ee/graph/src/graph</text>
<text text-anchor="middle" x="172.5" y="-7" font-family="Helvetica,sans-Serif" font-size="10.00">_config.c</text>
</a>
</g>
</g>
<!-- Node2&#45;&gt;Node4 -->
<g id="edge3" class="edge">
<title>Node2&#45;&gt;Node4</title>
<path fill="none" stroke="#63b8ff" d="M214.76,-62.64C205.55,-52.47 194.07,-39.8 185.4,-30.23"/>
<polygon fill="#63b8ff" stroke="#63b8ff" points="212.11,-64.92 221.42,-69.98 217.3,-60.22 212.11,-64.92"/>
</g>
<!-- Node5 -->
<g id="node5" class="node">
<title>Node5</title>
<g id="a_node5"><a xlink:href="graph__mode_8c_source.html" target="_top" xlink:title=" ">
<polygon fill="white" stroke="#666666" points="337.5,-30 239.5,-30 239.5,0 337.5,0 337.5,-30"/>
<text text-anchor="start" x="247.5" y="-18" font-family="Helvetica,sans-Serif" font-size="10.00">ee/graph/src/graph</text>
<text text-anchor="middle" x="288.5" y="-7" font-family="Helvetica,sans-Serif" font-size="10.00">_mode.c</text>
</a>
</g>
</g>
<!-- Node2&#45;&gt;Node5 -->
<g id="edge4" class="edge">
<title>Node2&#45;&gt;Node5</title>
<path fill="none" stroke="#63b8ff" d="M246.24,-62.64C255.45,-52.47 266.93,-39.8 275.6,-30.23"/>
<polygon fill="#63b8ff" stroke="#63b8ff" points="243.7,-60.22 239.58,-69.98 248.89,-64.92 243.7,-60.22"/>
</g>
<!-- Node6 -->
<g id="node6" class="node">
<title>Node6</title>
<g id="a_node6"><a xlink:href="math3d_8c_source.html" target="_top" xlink:title=" ">
<polygon fill="white" stroke="#666666" points="477.5,-24.5 355.5,-24.5 355.5,-5.5 477.5,-5.5 477.5,-24.5"/>
<text text-anchor="middle" x="416.5" y="-12.5" font-family="Helvetica,sans-Serif" font-size="10.00">ee/math3d/src/math3d.c</text>
</a>
</g>
</g>
<!-- Node2&#45;&gt;Node6 -->
<g id="edge5" class="edge">
<title>Node2&#45;&gt;Node6</title>
<path fill="none" stroke="#63b8ff" d="M267.02,-67.43C303.42,-54.91 358.41,-35.99 390.56,-24.93"/>
<polygon fill="#63b8ff" stroke="#63b8ff" points="266.11,-64.05 257.79,-70.61 268.39,-70.66 266.11,-64.05"/>
</g>
</g>
</svg>
