<?xml version="1.0" encoding="UTF-8" standalone="no"?>
<!DOCTYPE svg PUBLIC "-//W3C//DTD SVG 1.1//EN"
 "http://www.w3.org/Graphics/SVG/1.1/DTD/svg11.dtd">
<!-- Generated by graphviz version 7.0.5 (20221223.1930)
 -->
<!-- Title: Packet2 library Pages: 1 -->
<svg width="167pt" height="138pt"
 viewBox="0.00 0.00 167.00 138.00" xmlns="http://www.w3.org/2000/svg" xmlns:xlink="http://www.w3.org/1999/xlink">
<g id="graph0" class="graph" transform="scale(1 1) rotate(0) translate(4 134)">
<title>Packet2 library</title>
<!-- Node1 -->
<g id="node1" class="node">
<title>Node1</title>
<g id="a_node1"><a xlink:title=" ">
<polygon fill="#999999" stroke="#666666" points="80,-74 0,-74 0,-55 80,-55 80,-74"/>
<text text-anchor="middle" x="40" y="-62" font-family="Helvetica,sans-Serif" font-size="10.00">Packet2 library</text>
</a>
</g>
</g>
<!-- Node2 -->
<g id="node2" class="node">
<title>Node2</title>
<g id="a_node2"><a xlink:href="group__packet2__chain.html" target="_top" xlink:title=" ">
<polygon fill="white" stroke="#666666" points="158,-130 117,-130 117,-111 158,-111 158,-130"/>
<text text-anchor="middle" x="137.5" y="-118" font-family="Helvetica,sans-Serif" font-size="10.00">Chain</text>
</a>
</g>
</g>
<!-- Node1&#45;&gt;Node2 -->
<g id="edge1" class="edge">
<title>Node1&#45;&gt;Node2</title>
<path fill="none" stroke="black" d="M67.39,-79.97C84.12,-89.79 105.27,-102.19 119.74,-110.67"/>
<polygon fill="black" stroke="black" points="69.34,-77.06 58.94,-75.02 65.8,-83.1 69.34,-77.06"/>
</g>
<!-- Node3 -->
<g id="node3" class="node">
<title>Node3</title>
<g id="a_node3"><a xlink:href="group__packet2__types.html" target="_top" xlink:title=" ">
<polygon fill="white" stroke="#666666" points="159,-93 116,-93 116,-74 159,-74 159,-93"/>
<text text-anchor="middle" x="137.5" y="-81" font-family="Helvetica,sans-Serif" font-size="10.00">Types</text>
</a>
</g>
</g>
<!-- Node1&#45;&gt;Node3 -->
<g id="edge2" class="edge">
<title>Node1&#45;&gt;Node3</title>
<path fill="none" stroke="black" d="M91.59,-74.57C100.13,-76.26 108.54,-77.94 115.74,-79.37"/>
<polygon fill="black" stroke="black" points="92.37,-71.15 81.88,-72.63 91,-78.02 92.37,-71.15"/>
</g>
<!-- Node4 -->
<g id="node4" class="node">
<title>Node4</title>
<g id="a_node4"><a xlink:href="group__packet2__utils.html" target="_top" xlink:title=" ">
<polygon fill="white" stroke="#666666" points="156,-56 119,-56 119,-37 156,-37 156,-56"/>
<text text-anchor="middle" x="137.5" y="-44" font-family="Helvetica,sans-Serif" font-size="10.00">Utils</text>
</a>
</g>
</g>
<!-- Node1&#45;&gt;Node4 -->
<g id="edge3" class="edge">
<title>Node1&#45;&gt;Node4</title>
<path fill="none" stroke="black" d="M91.47,-54.99C101.29,-53.14 110.97,-51.31 118.81,-49.83"/>
<polygon fill="black" stroke="black" points="91.06,-51.5 81.88,-56.79 92.36,-58.38 91.06,-51.5"/>
</g>
<!-- Node5 -->
<g id="node5" class="node">
<title>Node5</title>
<g id="a_node5"><a xlink:href="group__packet2__vif.html" target="_top" xlink:title=" ">
<polygon fill="white" stroke="#666666" points="153.5,-19 121.5,-19 121.5,0 153.5,0 153.5,-19"/>
<text text-anchor="middle" x="137.5" y="-7" font-family="Helvetica,sans-Serif" font-size="10.00">VIF</text>
</a>
</g>
</g>
<!-- Node1&#45;&gt;Node5 -->
<g id="edge4" class="edge">
<title>Node1&#45;&gt;Node5</title>
<path fill="none" stroke="black" d="M67.61,-49.18C84.87,-39.24 106.74,-26.64 121.15,-18.34"/>
<polygon fill="black" stroke="black" points="66.3,-45.89 59.39,-53.91 69.8,-51.95 66.3,-45.89"/>
</g>
</g>
</svg>
