<?xml version="1.0" encoding="UTF-8" standalone="no"?>
<!DOCTYPE svg PUBLIC "-//W3C//DTD SVG 1.1//EN"
 "http://www.w3.org/Graphics/SVG/1.1/DTD/svg11.dtd">
<!-- Generated by graphviz version 7.0.5 (20221223.1930)
 -->
<!-- Title: common/include/gs_privileged.h Pages: 1 -->
<svg width="476pt" height="93pt"
 viewBox="0.00 0.00 475.50 93.00" xmlns="http://www.w3.org/2000/svg" xmlns:xlink="http://www.w3.org/1999/xlink">
<g id="graph0" class="graph" transform="scale(1 1) rotate(0) translate(4 89)">
<title>common/include/gs_privileged.h</title>
<!-- Node1 -->
<g id="node1" class="node">
<title>Node1</title>
<g id="a_node1"><a xlink:title=" ">
<polygon fill="#999999" stroke="#666666" points="313,-85 158,-85 158,-66 313,-66 313,-85"/>
<text text-anchor="middle" x="235.5" y="-73" font-family="Helvetica,sans-Serif" font-size="10.00">common/include/gs_privileged.h</text>
</a>
</g>
</g>
<!-- Node2 -->
<g id="node2" class="node">
<title>Node2</title>
<g id="a_node2"><a xlink:href="draw_2src_2draw_8c_source.html" target="_top" xlink:title=" ">
<polygon fill="white" stroke="#666666" points="99,-24.5 0,-24.5 0,-5.5 99,-5.5 99,-24.5"/>
<text text-anchor="middle" x="49.5" y="-12.5" font-family="Helvetica,sans-Serif" font-size="10.00">ee/draw/src/draw.c</text>
</a>
</g>
</g>
<!-- Node1&#45;&gt;Node2 -->
<g id="edge1" class="edge">
<title>Node1&#45;&gt;Node2</title>
<path fill="none" stroke="#63b8ff" d="M196.36,-62.19C160.96,-51.06 109.67,-34.92 78.02,-24.97"/>
<polygon fill="#63b8ff" stroke="#63b8ff" points="195.22,-65.5 205.81,-65.16 197.32,-58.82 195.22,-65.5"/>
</g>
<!-- Node3 -->
<g id="node3" class="node">
<title>Node3</title>
<g id="a_node3"><a xlink:href="draw3d_8c_source.html" target="_top" xlink:title=" ">
<polygon fill="white" stroke="#666666" points="227.5,-24.5 117.5,-24.5 117.5,-5.5 227.5,-5.5 227.5,-24.5"/>
<text text-anchor="middle" x="172.5" y="-12.5" font-family="Helvetica,sans-Serif" font-size="10.00">ee/draw/src/draw3d.c</text>
</a>
</g>
</g>
<!-- Node1&#45;&gt;Node3 -->
<g id="edge2" class="edge">
<title>Node1&#45;&gt;Node3</title>
<path fill="none" stroke="#63b8ff" d="M217.5,-57.78C206,-47.1 191.53,-33.67 182.16,-24.97"/>
<polygon fill="#63b8ff" stroke="#63b8ff" points="215.11,-60.35 224.82,-64.59 219.88,-55.22 215.11,-60.35"/>
</g>
<!-- Node4 -->
<g id="node4" class="node">
<title>Node4</title>
<g id="a_node4"><a xlink:href="graph_8c_source.html" target="_top" xlink:title=" ">
<polygon fill="white" stroke="#666666" points="351,-24.5 246,-24.5 246,-5.5 351,-5.5 351,-24.5"/>
<text text-anchor="middle" x="298.5" y="-12.5" font-family="Helvetica,sans-Serif" font-size="10.00">ee/graph/src/graph.c</text>
</a>
</g>
</g>
<!-- Node1&#45;&gt;Node4 -->
<g id="edge3" class="edge">
<title>Node1&#45;&gt;Node4</title>
<path fill="none" stroke="#63b8ff" d="M253.5,-57.78C265,-47.1 279.47,-33.67 288.84,-24.97"/>
<polygon fill="#63b8ff" stroke="#63b8ff" points="251.12,-55.22 246.18,-64.59 255.89,-60.35 251.12,-55.22"/>
</g>
<!-- Node5 -->
<g id="node5" class="node">
<title>Node5</title>
<g id="a_node5"><a xlink:href="graph__mode_8c_source.html" target="_top" xlink:title=" ">
<polygon fill="white" stroke="#666666" points="467.5,-30 369.5,-30 369.5,0 467.5,0 467.5,-30"/>
<text text-anchor="start" x="377.5" y="-18" font-family="Helvetica,sans-Serif" font-size="10.00">ee/graph/src/graph</text>
<text text-anchor="middle" x="418.5" y="-7" font-family="Helvetica,sans-Serif" font-size="10.00">_mode.c</text>
</a>
</g>
</g>
<!-- Node1&#45;&gt;Node5 -->
<g id="edge4" class="edge">
<title>Node1&#45;&gt;Node5</title>
<path fill="none" stroke="#63b8ff" d="M274.22,-62.12C303.2,-52.86 342.9,-40.17 373.33,-30.44"/>
<polygon fill="#63b8ff" stroke="#63b8ff" points="273.19,-58.78 264.74,-65.15 275.33,-65.44 273.19,-58.78"/>
</g>
</g>
</svg>
