<?xml version="1.0" encoding="UTF-8" standalone="no"?>
<!DOCTYPE svg PUBLIC "-//W3C//DTD SVG 1.1//EN"
 "http://www.w3.org/Graphics/SVG/1.1/DTD/svg11.dtd">
<!-- Generated by graphviz version 7.0.5 (20221223.1930)
 -->
<!-- Title: iop/usb/usbd/src/hcd.c Pages: 1 -->
<svg width="612pt" height="357pt"
 viewBox="0.00 0.00 611.50 357.00" xmlns="http://www.w3.org/2000/svg" xmlns:xlink="http://www.w3.org/1999/xlink">
<g id="graph0" class="graph" transform="scale(1 1) rotate(0) translate(4 353)">
<title>iop/usb/usbd/src/hcd.c</title>
<!-- Node1 -->
<g id="node1" class="node">
<title>Node1</title>
<g id="a_node1"><a xlink:title=" ">
<polygon fill="#999999" stroke="#666666" points="349,-349 234,-349 234,-330 349,-330 349,-349"/>
<text text-anchor="middle" x="291.5" y="-337" font-family="Helvetica,sans-Serif" font-size="10.00">iop/usb/usbd/src/hcd.c</text>
</a>
</g>
</g>
<!-- Node2 -->
<g id="node2" class="node">
<title>Node2</title>
<g id="a_node2"><a xlink:href="usbdpriv_8h.html" target="_top" xlink:title=" ">
<polygon fill="white" stroke="#666666" points="93,-239 32,-239 32,-220 93,-220 93,-239"/>
<text text-anchor="middle" x="62.5" y="-227" font-family="Helvetica,sans-Serif" font-size="10.00">usbdpriv.h</text>
</a>
</g>
</g>
<!-- Node1&#45;&gt;Node2 -->
<g id="edge1" class="edge">
<title>Node1&#45;&gt;Node2</title>
<path fill="none" stroke="#63b8ff" d="M233.52,-337.14C163.93,-334.15 53.35,-324.57 27.5,-294 15.38,-279.67 29.24,-260.5 42.94,-246.98"/>
<polygon fill="#63b8ff" stroke="#63b8ff" points="45.09,-249.76 50.09,-240.42 40.36,-244.6 45.09,-249.76"/>
</g>
<!-- Node9 -->
<g id="node9" class="node">
<title>Node9</title>
<g id="a_node9"><a xlink:href="mem_8h.html" target="_top" xlink:title=" ">
<polygon fill="white" stroke="#666666" points="82.5,-294 36.5,-294 36.5,-275 82.5,-275 82.5,-294"/>
<text text-anchor="middle" x="59.5" y="-282" font-family="Helvetica,sans-Serif" font-size="10.00">mem.h</text>
</a>
</g>
</g>
<!-- Node1&#45;&gt;Node9 -->
<g id="edge9" class="edge">
<title>Node1&#45;&gt;Node9</title>
<path fill="none" stroke="#63b8ff" d="M248.86,-329.54C210.66,-321.39 152.85,-308.78 93.91,-294.51"/>
<polygon fill="#63b8ff" stroke="#63b8ff" points="94.91,-291.15 84.36,-292.19 93.25,-297.96 94.91,-291.15"/>
</g>
<!-- Node10 -->
<g id="node10" class="node">
<title>Node10</title>
<g id="a_node10"><a xlink:href="usbio_8h.html" target="_top" xlink:title=" ">
<polygon fill="white" stroke="#666666" points="538,-294 491,-294 491,-275 538,-275 538,-294"/>
<text text-anchor="middle" x="514.5" y="-282" font-family="Helvetica,sans-Serif" font-size="10.00">usbio.h</text>
</a>
</g>
</g>
<!-- Node1&#45;&gt;Node10 -->
<g id="edge11" class="edge">
<title>Node1&#45;&gt;Node10</title>
<path fill="none" stroke="#63b8ff" d="M329.33,-329.51C371.38,-319.52 438.73,-303.51 479.57,-293.8"/>
<polygon fill="#63b8ff" stroke="#63b8ff" points="480.2,-297.25 489.12,-291.53 478.58,-290.44 480.2,-297.25"/>
</g>
<!-- Node11 -->
<g id="node11" class="node">
<title>Node11</title>
<g id="a_node11"><a xlink:href="hub_8h.html" target="_top" xlink:title=" ">
<polygon fill="white" stroke="#666666" points="140.5,-294 100.5,-294 100.5,-275 140.5,-275 140.5,-294"/>
<text text-anchor="middle" x="120.5" y="-282" font-family="Helvetica,sans-Serif" font-size="10.00">hub.h</text>
</a>
</g>
</g>
<!-- Node1&#45;&gt;Node11 -->
<g id="edge12" class="edge">
<title>Node1&#45;&gt;Node11</title>
<path fill="none" stroke="#63b8ff" d="M262.49,-329.51C231.6,-319.93 182.9,-304.84 151.33,-295.06"/>
<polygon fill="#63b8ff" stroke="#63b8ff" points="152.57,-291.78 141.99,-292.16 150.5,-298.46 152.57,-291.78"/>
</g>
<!-- Node12 -->
<g id="node12" class="node">
<title>Node12</title>
<g id="a_node12"><a xlink:href="driver_8h.html" target="_top" xlink:title=" ">
<polygon fill="white" stroke="#666666" points="206.5,-294 158.5,-294 158.5,-275 206.5,-275 206.5,-294"/>
<text text-anchor="middle" x="182.5" y="-282" font-family="Helvetica,sans-Serif" font-size="10.00">driver.h</text>
</a>
</g>
</g>
<!-- Node1&#45;&gt;Node12 -->
<g id="edge14" class="edge">
<title>Node1&#45;&gt;Node12</title>
<path fill="none" stroke="#63b8ff" d="M273.01,-329.51C256,-321.24 230.51,-308.84 210.91,-299.31"/>
<polygon fill="#63b8ff" stroke="#63b8ff" points="212.6,-296.25 202.08,-295.02 209.54,-302.54 212.6,-296.25"/>
</g>
<!-- Node13 -->
<g id="node13" class="node">
<title>Node13</title>
<g id="a_node13"><a xlink:href="stdio_8h.html" target="_top" xlink:title=" ">
<polygon fill="white" stroke="#666666" points="225,-184 180,-184 180,-165 225,-165 225,-184"/>
<text text-anchor="middle" x="202.5" y="-172" font-family="Helvetica,sans-Serif" font-size="10.00">stdio.h</text>
</a>
</g>
</g>
<!-- Node1&#45;&gt;Node13 -->
<g id="edge16" class="edge">
<title>Node1&#45;&gt;Node13</title>
<path fill="none" stroke="#63b8ff" d="M286.71,-329.74C272.77,-304.2 231.95,-229.43 212.73,-194.23"/>
<polygon fill="#63b8ff" stroke="#63b8ff" points="215.9,-192.73 208.03,-185.64 209.75,-196.09 215.9,-192.73"/>
</g>
<!-- Node15 -->
<g id="node15" class="node">
<title>Node15</title>
<g id="a_node15"><a xlink:href="sysclib_8h.html" target="_top" xlink:title=" ">
<polygon fill="white" stroke="#666666" points="161.5,-184 107.5,-184 107.5,-165 161.5,-165 161.5,-184"/>
<text text-anchor="middle" x="134.5" y="-172" font-family="Helvetica,sans-Serif" font-size="10.00">sysclib.h</text>
</a>
</g>
</g>
<!-- Node1&#45;&gt;Node15 -->
<g id="edge19" class="edge">
<title>Node1&#45;&gt;Node15</title>
<path fill="none" stroke="#63b8ff" d="M283.06,-329.74C258.03,-303.76 183.94,-226.83 150.82,-192.44"/>
<polygon fill="#63b8ff" stroke="#63b8ff" points="153.49,-190.17 144.03,-185.4 148.45,-195.03 153.49,-190.17"/>
</g>
<!-- Node18 -->
<g id="node18" class="node">
<title>Node18</title>
<g id="a_node18"><a xlink:href="sysmem_8h.html" target="_top" xlink:title=" ">
<polygon fill="white" stroke="#666666" points="304,-184 243,-184 243,-165 304,-165 304,-184"/>
<text text-anchor="middle" x="273.5" y="-172" font-family="Helvetica,sans-Serif" font-size="10.00">sysmem.h</text>
</a>
</g>
</g>
<!-- Node1&#45;&gt;Node18 -->
<g id="edge26" class="edge">
<title>Node1&#45;&gt;Node18</title>
<path fill="none" stroke="#63b8ff" d="M291.86,-329.51C292.49,-309.61 293.16,-260.43 286.5,-220 285.13,-211.66 282.69,-202.68 280.3,-194.98"/>
<polygon fill="#63b8ff" stroke="#63b8ff" points="283.68,-194.05 277.21,-185.66 277.03,-196.25 283.68,-194.05"/>
</g>
<!-- Node19 -->
<g id="node19" class="node">
<title>Node19</title>
<g id="a_node19"><a xlink:href="thbase_8h.html" target="_top" xlink:title=" ">
<polygon fill="white" stroke="#666666" points="375,-184 322,-184 322,-165 375,-165 375,-184"/>
<text text-anchor="middle" x="348.5" y="-172" font-family="Helvetica,sans-Serif" font-size="10.00">thbase.h</text>
</a>
</g>
</g>
<!-- Node1&#45;&gt;Node19 -->
<g id="edge30" class="edge">
<title>Node1&#45;&gt;Node19</title>
<path fill="none" stroke="#63b8ff" d="M294.56,-329.74C303.42,-304.42 329.19,-230.72 341.63,-195.16"/>
<polygon fill="#63b8ff" stroke="#63b8ff" points="344.92,-196.33 344.92,-185.74 338.32,-194.02 344.92,-196.33"/>
</g>
<!-- Node20 -->
<g id="node20" class="node">
<title>Node20</title>
<g id="a_node20"><a xlink:href="thevent_8h.html" target="_top" xlink:title=" ">
<polygon fill="white" stroke="#666666" points="449.5,-184 393.5,-184 393.5,-165 449.5,-165 449.5,-184"/>
<text text-anchor="middle" x="421.5" y="-172" font-family="Helvetica,sans-Serif" font-size="10.00">thevent.h</text>
</a>
</g>
</g>
<!-- Node1&#45;&gt;Node20 -->
<g id="edge33" class="edge">
<title>Node1&#45;&gt;Node20</title>
<path fill="none" stroke="#63b8ff" d="M298.49,-329.74C319.12,-303.87 380.04,-227.48 407.64,-192.88"/>
<polygon fill="#63b8ff" stroke="#63b8ff" points="410.03,-195.49 413.53,-185.49 404.56,-191.13 410.03,-195.49"/>
</g>
<!-- Node21 -->
<g id="node21" class="node">
<title>Node21</title>
<g id="a_node21"><a xlink:href="thsemap_8h.html" target="_top" xlink:title=" ">
<polygon fill="white" stroke="#666666" points="529.5,-184 467.5,-184 467.5,-165 529.5,-165 529.5,-184"/>
<text text-anchor="middle" x="498.5" y="-172" font-family="Helvetica,sans-Serif" font-size="10.00">thsemap.h</text>
</a>
</g>
</g>
<!-- Node1&#45;&gt;Node21 -->
<g id="edge36" class="edge">
<title>Node1&#45;&gt;Node21</title>
<path fill="none" stroke="#63b8ff" d="M303.1,-329.69C314.84,-320.76 333.5,-306.5 349.5,-294 396.07,-257.62 450.27,-214.26 478.72,-191.41"/>
<polygon fill="#63b8ff" stroke="#63b8ff" points="480.55,-194.43 486.16,-185.43 476.17,-188.97 480.55,-194.43"/>
</g>
<!-- Node22 -->
<g id="node22" class="node">
<title>Node22</title>
<g id="a_node22"><a xlink:href="intrman_8h.html" target="_top" xlink:title=" ">
<polygon fill="white" stroke="#666666" points="603.5,-184 547.5,-184 547.5,-165 603.5,-165 603.5,-184"/>
<text text-anchor="middle" x="575.5" y="-172" font-family="Helvetica,sans-Serif" font-size="10.00">intrman.h</text>
</a>
</g>
</g>
<!-- Node1&#45;&gt;Node22 -->
<g id="edge39" class="edge">
<title>Node1&#45;&gt;Node22</title>
<path fill="none" stroke="#63b8ff" d="M308.46,-329.66C325.31,-320.83 351.84,-306.75 374.5,-294 438.88,-257.78 513.53,-213.03 551.15,-190.29"/>
<polygon fill="#63b8ff" stroke="#63b8ff" points="552.71,-193.44 559.45,-185.26 549.08,-187.45 552.71,-193.44"/>
</g>
<!-- Node3 -->
<g id="node3" class="node">
<title>Node3</title>
<g id="a_node3"><a xlink:href="usbd_8h.html" target="_top" xlink:title=" ">
<polygon fill="white" stroke="#666666" points="89,-184 44,-184 44,-165 89,-165 89,-184"/>
<text text-anchor="middle" x="66.5" y="-172" font-family="Helvetica,sans-Serif" font-size="10.00">usbd.h</text>
</a>
</g>
</g>
<!-- Node2&#45;&gt;Node3 -->
<g id="edge2" class="edge">
<title>Node2&#45;&gt;Node3</title>
<path fill="none" stroke="#63b8ff" d="M63.16,-219.75C63.65,-213.27 64.34,-204.16 64.96,-195.9"/>
<polygon fill="#63b8ff" stroke="#63b8ff" points="68.45,-196.19 65.71,-185.95 61.47,-195.66 68.45,-196.19"/>
</g>
<!-- Node4 -->
<g id="node4" class="node">
<title>Node4</title>
<g id="a_node4"><a xlink:title=" ">
<polygon fill="#e0e0e0" stroke="#999999" points="47,-129 0,-129 0,-110 47,-110 47,-129"/>
<text text-anchor="middle" x="23.5" y="-117" font-family="Helvetica,sans-Serif" font-size="10.00">types.h</text>
</a>
</g>
</g>
<!-- Node2&#45;&gt;Node4 -->
<g id="edge8" class="edge">
<title>Node2&#45;&gt;Node4</title>
<path fill="none" stroke="#63b8ff" d="M55.36,-219.52C48.88,-210.91 39.6,-197.29 34.5,-184 29.15,-170.06 26.39,-153.39 24.97,-140.63"/>
<polygon fill="#63b8ff" stroke="#63b8ff" points="28.48,-140.57 24.09,-130.92 21.51,-141.2 28.48,-140.57"/>
</g>
<!-- Node3&#45;&gt;Node4 -->
<g id="edge3" class="edge">
<title>Node3&#45;&gt;Node4</title>
<path fill="none" stroke="#63b8ff" d="M59.4,-164.75C53.58,-157.58 45.17,-147.2 37.94,-138.3"/>
<polygon fill="#63b8ff" stroke="#63b8ff" points="40.73,-136.18 31.71,-130.62 35.29,-140.59 40.73,-136.18"/>
</g>
<!-- Node5 -->
<g id="node5" class="node">
<title>Node5</title>
<g id="a_node5"><a xlink:href="irx_8h.html" target="_top" xlink:title=" ">
<polygon fill="white" stroke="#666666" points="355.5,-129 321.5,-129 321.5,-110 355.5,-110 355.5,-129"/>
<text text-anchor="middle" x="338.5" y="-117" font-family="Helvetica,sans-Serif" font-size="10.00">irx.h</text>
</a>
</g>
</g>
<!-- Node3&#45;&gt;Node5 -->
<g id="edge4" class="edge">
<title>Node3&#45;&gt;Node5</title>
<path fill="none" stroke="#63b8ff" d="M89.17,-167.25C92.3,-166.45 95.47,-165.68 98.5,-165 174.43,-147.9 264.94,-132.43 310.03,-125.06"/>
<polygon fill="#63b8ff" stroke="#63b8ff" points="310.43,-128.54 319.74,-123.48 309.31,-121.63 310.43,-128.54"/>
</g>
<!-- Node6 -->
<g id="node6" class="node">
<title>Node6</title>
<g id="a_node6"><a xlink:href="iop_2kernel_2include_2types_8h_source.html" target="_top" xlink:title=" ">
<polygon fill="white" stroke="#666666" points="384,-74 337,-74 337,-55 384,-55 384,-74"/>
<text text-anchor="middle" x="360.5" y="-62" font-family="Helvetica,sans-Serif" font-size="10.00">types.h</text>
</a>
</g>
</g>
<!-- Node5&#45;&gt;Node6 -->
<g id="edge5" class="edge">
<title>Node5&#45;&gt;Node6</title>
<path fill="none" stroke="#63b8ff" d="M342.13,-109.75C344.92,-103.04 348.87,-93.52 352.4,-85.02"/>
<polygon fill="#63b8ff" stroke="#63b8ff" points="355.61,-86.42 356.21,-75.84 349.14,-83.73 355.61,-86.42"/>
</g>
<!-- Node7 -->
<g id="node7" class="node">
<title>Node7</title>
<g id="a_node7"><a xlink:title=" ">
<polygon fill="#e0e0e0" stroke="#999999" points="386,-19 335,-19 335,0 386,0 386,-19"/>
<text text-anchor="middle" x="360.5" y="-7" font-family="Helvetica,sans-Serif" font-size="10.00">stddef.h</text>
</a>
</g>
</g>
<!-- Node6&#45;&gt;Node7 -->
<g id="edge6" class="edge">
<title>Node6&#45;&gt;Node7</title>
<path fill="none" stroke="#63b8ff" d="M360.5,-54.75C360.5,-48.27 360.5,-39.16 360.5,-30.9"/>
<polygon fill="#63b8ff" stroke="#63b8ff" points="364,-30.96 360.5,-20.96 357,-30.96 364,-30.96"/>
</g>
<!-- Node8 -->
<g id="node8" class="node">
<title>Node8</title>
<g id="a_node8"><a xlink:href="tamtypes_8h.html" target="_top" xlink:title=" ">
<polygon fill="white" stroke="#666666" points="271.5,-19 207.5,-19 207.5,0 271.5,0 271.5,-19"/>
<text text-anchor="middle" x="239.5" y="-7" font-family="Helvetica,sans-Serif" font-size="10.00">tamtypes.h</text>
</a>
</g>
</g>
<!-- Node6&#45;&gt;Node8 -->
<g id="edge7" class="edge">
<title>Node6&#45;&gt;Node8</title>
<path fill="none" stroke="#63b8ff" d="M339.97,-54.51C320.82,-46.12 292,-33.5 270.13,-23.92"/>
<polygon fill="#63b8ff" stroke="#63b8ff" points="271.67,-20.77 261.11,-19.97 268.86,-27.18 271.67,-20.77"/>
</g>
<!-- Node9&#45;&gt;Node2 -->
<g id="edge10" class="edge">
<title>Node9&#45;&gt;Node2</title>
<path fill="none" stroke="#63b8ff" d="M60,-274.75C60.36,-268.27 60.88,-259.16 61.35,-250.9"/>
<polygon fill="#63b8ff" stroke="#63b8ff" points="64.84,-251.13 61.91,-240.95 57.85,-250.74 64.84,-251.13"/>
</g>
<!-- Node11&#45;&gt;Node2 -->
<g id="edge13" class="edge">
<title>Node11&#45;&gt;Node2</title>
<path fill="none" stroke="#63b8ff" d="M110.66,-274.51C102.45,-267 90.52,-256.1 80.59,-247.03"/>
<polygon fill="#63b8ff" stroke="#63b8ff" points="83.05,-244.54 73.31,-240.38 78.33,-249.71 83.05,-244.54"/>
</g>
<!-- Node12&#45;&gt;Node2 -->
<g id="edge15" class="edge">
<title>Node12&#45;&gt;Node2</title>
<path fill="none" stroke="#63b8ff" d="M162.14,-274.51C143.15,-266.12 114.57,-253.5 92.88,-243.92"/>
<polygon fill="#63b8ff" stroke="#63b8ff" points="94.5,-240.81 83.94,-239.97 91.67,-247.21 94.5,-240.81"/>
</g>
<!-- Node13&#45;&gt;Node5 -->
<g id="edge18" class="edge">
<title>Node13&#45;&gt;Node5</title>
<path fill="none" stroke="#63b8ff" d="M225.26,-164.63C248.74,-155.48 285.38,-141.2 310.59,-131.38"/>
<polygon fill="#63b8ff" stroke="#63b8ff" points="311.82,-134.65 319.87,-127.76 309.28,-128.13 311.82,-134.65"/>
</g>
<!-- Node14 -->
<g id="node14" class="node">
<title>Node14</title>
<g id="a_node14"><a xlink:title=" ">
<polygon fill="#e0e0e0" stroke="#999999" points="265,-129 214,-129 214,-110 265,-110 265,-129"/>
<text text-anchor="middle" x="239.5" y="-117" font-family="Helvetica,sans-Serif" font-size="10.00">stdarg.h</text>
</a>
</g>
</g>
<!-- Node13&#45;&gt;Node14 -->
<g id="edge17" class="edge">
<title>Node13&#45;&gt;Node14</title>
<path fill="none" stroke="#63b8ff" d="M208.61,-164.75C213.51,-157.73 220.55,-147.64 226.67,-138.87"/>
<polygon fill="#63b8ff" stroke="#63b8ff" points="229.54,-140.89 232.39,-130.68 223.8,-136.88 229.54,-140.89"/>
</g>
<!-- Node15&#45;&gt;Node5 -->
<g id="edge21" class="edge">
<title>Node15&#45;&gt;Node5</title>
<path fill="none" stroke="#63b8ff" d="M161.59,-166.46C200.19,-156.43 270.69,-138.12 310.04,-127.9"/>
<polygon fill="#63b8ff" stroke="#63b8ff" points="310.91,-131.28 319.71,-125.38 309.15,-124.51 310.91,-131.28"/>
</g>
<!-- Node15&#45;&gt;Node6 -->
<g id="edge20" class="edge">
<title>Node15&#45;&gt;Node6</title>
<path fill="none" stroke="#63b8ff" d="M132.26,-164.87C129.32,-151.37 126,-125.23 139.5,-110 163.63,-82.78 269.21,-71.63 325.26,-67.56"/>
<polygon fill="#63b8ff" stroke="#63b8ff" points="325.49,-71.05 335.23,-66.88 325.02,-64.07 325.49,-71.05"/>
</g>
<!-- Node15&#45;&gt;Node14 -->
<g id="edge22" class="edge">
<title>Node15&#45;&gt;Node14</title>
<path fill="none" stroke="#63b8ff" d="M152.31,-164.51C168.63,-156.27 193.03,-143.96 211.87,-134.45"/>
<polygon fill="#63b8ff" stroke="#63b8ff" points="213.25,-137.67 220.6,-130.04 210.1,-131.42 213.25,-137.67"/>
</g>
<!-- Node16 -->
<g id="node16" class="node">
<title>Node16</title>
<g id="a_node16"><a xlink:href="setjmp_8h.html" target="_top" xlink:title=" ">
<polygon fill="white" stroke="#666666" points="176,-74 123,-74 123,-55 176,-55 176,-74"/>
<text text-anchor="middle" x="149.5" y="-62" font-family="Helvetica,sans-Serif" font-size="10.00">setjmp.h</text>
</a>
</g>
</g>
<!-- Node15&#45;&gt;Node16 -->
<g id="edge23" class="edge">
<title>Node15&#45;&gt;Node16</title>
<path fill="none" stroke="#63b8ff" d="M125.68,-164.53C114.77,-152.3 98.55,-129.66 106.5,-110 110.93,-99.03 119.51,-89.26 127.85,-81.69"/>
<polygon fill="#63b8ff" stroke="#63b8ff" points="130,-84.45 135.43,-75.36 125.51,-79.08 130,-84.45"/>
</g>
<!-- Node17 -->
<g id="node17" class="node">
<title>Node17</title>
<g id="a_node17"><a xlink:href="ctype_8h.html" target="_top" xlink:title=" ">
<polygon fill="white" stroke="#666666" points="196,-129 149,-129 149,-110 196,-110 196,-129"/>
<text text-anchor="middle" x="172.5" y="-117" font-family="Helvetica,sans-Serif" font-size="10.00">ctype.h</text>
</a>
</g>
</g>
<!-- Node15&#45;&gt;Node17 -->
<g id="edge25" class="edge">
<title>Node15&#45;&gt;Node17</title>
<path fill="none" stroke="#63b8ff" d="M140.77,-164.75C145.86,-157.66 153.2,-147.42 159.53,-138.59"/>
<polygon fill="#63b8ff" stroke="#63b8ff" points="162.22,-140.84 165.21,-130.67 156.54,-136.76 162.22,-140.84"/>
</g>
<!-- Node16&#45;&gt;Node8 -->
<g id="edge24" class="edge">
<title>Node16&#45;&gt;Node8</title>
<path fill="none" stroke="#63b8ff" d="M164.77,-54.51C178.43,-46.47 198.7,-34.53 214.68,-25.11"/>
<polygon fill="#63b8ff" stroke="#63b8ff" points="216.31,-28.22 223.15,-20.13 212.76,-22.18 216.31,-28.22"/>
</g>
<!-- Node18&#45;&gt;Node5 -->
<g id="edge28" class="edge">
<title>Node18&#45;&gt;Node5</title>
<path fill="none" stroke="#63b8ff" d="M284.53,-164.51C293.92,-156.85 307.65,-145.66 318.91,-136.47"/>
<polygon fill="#63b8ff" stroke="#63b8ff" points="320.93,-139.35 326.46,-130.31 316.5,-133.92 320.93,-139.35"/>
</g>
<!-- Node18&#45;&gt;Node6 -->
<g id="edge27" class="edge">
<title>Node18&#45;&gt;Node6</title>
<path fill="none" stroke="#63b8ff" d="M277.87,-164.79C284.45,-152.08 297.73,-128 312.5,-110 320.93,-99.72 331.68,-89.54 340.87,-81.52"/>
<polygon fill="#63b8ff" stroke="#63b8ff" points="342.88,-84.41 348.24,-75.27 338.35,-79.07 342.88,-84.41"/>
</g>
<!-- Node18&#45;&gt;Node14 -->
<g id="edge29" class="edge">
<title>Node18&#45;&gt;Node14</title>
<path fill="none" stroke="#63b8ff" d="M267.89,-164.75C263.38,-157.73 256.91,-147.64 251.29,-138.87"/>
<polygon fill="#63b8ff" stroke="#63b8ff" points="254.4,-137.24 246.05,-130.72 248.51,-141.02 254.4,-137.24"/>
</g>
<!-- Node19&#45;&gt;Node5 -->
<g id="edge32" class="edge">
<title>Node19&#45;&gt;Node5</title>
<path fill="none" stroke="#63b8ff" d="M346.85,-164.75C345.61,-158.19 343.87,-148.95 342.29,-140.6"/>
<polygon fill="#63b8ff" stroke="#63b8ff" points="345.76,-140.11 340.47,-130.93 338.88,-141.4 345.76,-140.11"/>
</g>
<!-- Node19&#45;&gt;Node6 -->
<g id="edge31" class="edge">
<title>Node19&#45;&gt;Node6</title>
<path fill="none" stroke="#63b8ff" d="M352.76,-164.55C356.7,-155.73 362.27,-141.78 364.5,-129 367.03,-114.47 365.84,-97.83 364.11,-85.23"/>
<polygon fill="#63b8ff" stroke="#63b8ff" points="367.62,-85.01 362.57,-75.69 360.71,-86.12 367.62,-85.01"/>
</g>
<!-- Node20&#45;&gt;Node5 -->
<g id="edge35" class="edge">
<title>Node20&#45;&gt;Node5</title>
<path fill="none" stroke="#63b8ff" d="M407.42,-164.51C394.94,-156.54 376.48,-144.75 361.81,-135.38"/>
<polygon fill="#63b8ff" stroke="#63b8ff" points="363.96,-132.6 353.65,-130.17 360.19,-138.5 363.96,-132.6"/>
</g>
<!-- Node20&#45;&gt;Node6 -->
<g id="edge34" class="edge">
<title>Node20&#45;&gt;Node6</title>
<path fill="none" stroke="#63b8ff" d="M416.51,-164.66C406.63,-147.18 384.41,-107.84 371.12,-84.3"/>
<polygon fill="#63b8ff" stroke="#63b8ff" points="374.27,-82.76 366.31,-75.78 368.18,-86.21 374.27,-82.76"/>
</g>
<!-- Node21&#45;&gt;Node5 -->
<g id="edge38" class="edge">
<title>Node21&#45;&gt;Node5</title>
<path fill="none" stroke="#63b8ff" d="M471.36,-164.51C442.24,-154.86 396.2,-139.61 366.68,-129.83"/>
<polygon fill="#63b8ff" stroke="#63b8ff" points="367.91,-126.55 357.31,-126.73 365.71,-133.2 367.91,-126.55"/>
</g>
<!-- Node21&#45;&gt;Node6 -->
<g id="edge37" class="edge">
<title>Node21&#45;&gt;Node6</title>
<path fill="none" stroke="#63b8ff" d="M487.21,-164.66C463.96,-146.47 410.46,-104.6 380.96,-81.51"/>
<polygon fill="#63b8ff" stroke="#63b8ff" points="383.17,-78.8 373.14,-75.39 378.86,-84.31 383.17,-78.8"/>
</g>
<!-- Node22&#45;&gt;Node5 -->
<g id="edge41" class="edge">
<title>Node22&#45;&gt;Node5</title>
<path fill="none" stroke="#63b8ff" d="M547.22,-166.98C544.28,-166.31 541.33,-165.64 538.5,-165 477.48,-151.2 405.9,-135.36 367.07,-126.79"/>
<polygon fill="#63b8ff" stroke="#63b8ff" points="367.9,-123.39 357.38,-124.65 366.39,-130.23 367.9,-123.39"/>
</g>
<!-- Node22&#45;&gt;Node6 -->
<g id="edge40" class="edge">
<title>Node22&#45;&gt;Node6</title>
<path fill="none" stroke="#63b8ff" d="M557.91,-164.66C520.66,-145.95 433.59,-102.21 388.56,-79.6"/>
<polygon fill="#63b8ff" stroke="#63b8ff" points="390.2,-76.5 379.69,-75.14 387.05,-82.76 390.2,-76.5"/>
</g>
</g>
</svg>
