<?xml version="1.0" encoding="UTF-8" standalone="no"?>
<!DOCTYPE svg PUBLIC "-//W3C//DTD SVG 1.1//EN"
 "http://www.w3.org/Graphics/SVG/1.1/DTD/svg11.dtd">
<!-- Generated by graphviz version 7.0.5 (20221223.1930)
 -->
<!-- Title: common/include/hdd&#45;ioctl.h Pages: 1 -->
<svg width="2851pt" height="170pt"
 viewBox="0.00 0.00 2850.50 170.00" xmlns="http://www.w3.org/2000/svg" xmlns:xlink="http://www.w3.org/1999/xlink">
<g id="graph0" class="graph" transform="scale(1 1) rotate(0) translate(4 166)">
<title>common/include/hdd&#45;ioctl.h</title>
<!-- Node1 -->
<g id="node1" class="node">
<title>Node1</title>
<g id="a_node1"><a xlink:title=" ">
<polygon fill="#999999" stroke="#666666" points="2051,-162 1944,-162 1944,-132 2051,-132 2051,-162"/>
<text text-anchor="start" x="1952" y="-150" font-family="Helvetica,sans-Serif" font-size="10.00">common/include/hdd</text>
<text text-anchor="middle" x="1997.5" y="-139" font-family="Helvetica,sans-Serif" font-size="10.00">&#45;ioctl.h</text>
</a>
</g>
</g>
<!-- Node2 -->
<g id="node2" class="node">
<title>Node2</title>
<g id="a_node2"><a xlink:href="libhdd_8h.html" target="_top" xlink:title=" ">
<polygon fill="white" stroke="#666666" points="519.5,-96 423.5,-96 423.5,-66 519.5,-66 519.5,-96"/>
<text text-anchor="start" x="431.5" y="-84" font-family="Helvetica,sans-Serif" font-size="10.00">ee/rpc/hdd/include</text>
<text text-anchor="middle" x="471.5" y="-73" font-family="Helvetica,sans-Serif" font-size="10.00">/libhdd.h</text>
</a>
</g>
</g>
<!-- Node1&#45;&gt;Node2 -->
<g id="edge1" class="edge">
<title>Node1&#45;&gt;Node2</title>
<path fill="none" stroke="#63b8ff" d="M1932.32,-143.27C1676.37,-132.53 743.21,-93.4 519.8,-84.03"/>
<polygon fill="#63b8ff" stroke="#63b8ff" points="1931.99,-146.76 1942.12,-143.68 1932.28,-139.76 1931.99,-146.76"/>
</g>
<!-- Node4 -->
<g id="node4" class="node">
<title>Node4</title>
<g id="a_node4"><a xlink:href="dev9_8h.html" target="_top" xlink:title=" ">
<polygon fill="white" stroke="#666666" points="1063,-96 952,-96 952,-66 1063,-66 1063,-96"/>
<text text-anchor="start" x="960" y="-84" font-family="Helvetica,sans-Serif" font-size="10.00">iop/dev9/dev9/include</text>
<text text-anchor="middle" x="1007.5" y="-73" font-family="Helvetica,sans-Serif" font-size="10.00">/dev9.h</text>
</a>
</g>
</g>
<!-- Node1&#45;&gt;Node4 -->
<g id="edge3" class="edge">
<title>Node1&#45;&gt;Node4</title>
<path fill="none" stroke="#63b8ff" d="M1932.27,-141.78C1749.42,-129.96 1234.14,-96.65 1063.31,-85.61"/>
<polygon fill="#63b8ff" stroke="#63b8ff" points="1931.85,-145.26 1942.06,-142.42 1932.31,-138.28 1931.85,-145.26"/>
</g>
<!-- Node11 -->
<g id="node11" class="node">
<title>Node11</title>
<g id="a_node11"><a xlink:href="hdd_8c_source.html" target="_top" xlink:title=" ">
<polygon fill="white" stroke="#666666" points="1538.5,-24.5 1428.5,-24.5 1428.5,-5.5 1538.5,-5.5 1538.5,-24.5"/>
<text text-anchor="middle" x="1483.5" y="-12.5" font-family="Helvetica,sans-Serif" font-size="10.00">iop/hdd/apa/src/hdd.c</text>
</a>
</g>
</g>
<!-- Node1&#45;&gt;Node11 -->
<g id="edge16" class="edge">
<title>Node1&#45;&gt;Node11</title>
<path fill="none" stroke="#63b8ff" d="M1932.21,-139.65C1868.67,-132.51 1769.79,-118.82 1686.5,-96 1616.35,-76.78 1537.24,-41.39 1502.07,-24.9"/>
<polygon fill="#63b8ff" stroke="#63b8ff" points="1931.82,-143.13 1942.14,-140.75 1932.59,-136.18 1931.82,-143.13"/>
</g>
<!-- Node12 -->
<g id="node12" class="node">
<title>Node12</title>
<g id="a_node12"><a xlink:href="hdd__fio_8c_source.html" target="_top" xlink:title=" ">
<polygon fill="white" stroke="#666666" points="1658.5,-30 1556.5,-30 1556.5,0 1658.5,0 1658.5,-30"/>
<text text-anchor="start" x="1564.5" y="-18" font-family="Helvetica,sans-Serif" font-size="10.00">iop/hdd/apa/src/hdd</text>
<text text-anchor="middle" x="1607.5" y="-7" font-family="Helvetica,sans-Serif" font-size="10.00">_fio.c</text>
</a>
</g>
</g>
<!-- Node1&#45;&gt;Node12 -->
<g id="edge17" class="edge">
<title>Node1&#45;&gt;Node12</title>
<path fill="none" stroke="#63b8ff" d="M1932.81,-138.37C1882.31,-131.12 1810.98,-117.97 1751.5,-96 1705.09,-78.86 1655.64,-48.35 1628.46,-30.37"/>
<polygon fill="#63b8ff" stroke="#63b8ff" points="1932.01,-141.8 1942.4,-139.71 1932.98,-134.86 1932.01,-141.8"/>
</g>
<!-- Node17 -->
<g id="node17" class="node">
<title>Node17</title>
<g id="a_node17"><a xlink:href="libapa_8h_source.html" target="_top" xlink:title=" ">
<polygon fill="white" stroke="#666666" points="1912.5,-96 1802.5,-96 1802.5,-66 1912.5,-66 1912.5,-96"/>
<text text-anchor="start" x="1810.5" y="-84" font-family="Helvetica,sans-Serif" font-size="10.00">iop/hdd/libapa/include</text>
<text text-anchor="middle" x="1857.5" y="-73" font-family="Helvetica,sans-Serif" font-size="10.00">/libapa.h</text>
</a>
</g>
</g>
<!-- Node1&#45;&gt;Node17 -->
<g id="edge18" class="edge">
<title>Node1&#45;&gt;Node17</title>
<path fill="none" stroke="#63b8ff" d="M1955.62,-126.86C1934.18,-117.05 1908.52,-105.32 1888.81,-96.31"/>
<polygon fill="#63b8ff" stroke="#63b8ff" points="1954.15,-130.03 1964.7,-131.01 1957.07,-123.67 1954.15,-130.03"/>
</g>
<!-- Node18 -->
<g id="node18" class="node">
<title>Node18</title>
<g id="a_node18"><a xlink:href="apa_8c_source.html" target="_top" xlink:title=" ">
<polygon fill="white" stroke="#666666" points="1770,-30 1677,-30 1677,0 1770,0 1770,-30"/>
<text text-anchor="start" x="1685" y="-18" font-family="Helvetica,sans-Serif" font-size="10.00">iop/hdd/libapa/src</text>
<text text-anchor="middle" x="1723.5" y="-7" font-family="Helvetica,sans-Serif" font-size="10.00">/apa.c</text>
</a>
</g>
</g>
<!-- Node1&#45;&gt;Node18 -->
<g id="edge27" class="edge">
<title>Node1&#45;&gt;Node18</title>
<path fill="none" stroke="#63b8ff" d="M1932.37,-142.2C1887.72,-136.97 1828.78,-124.69 1784.5,-96 1759,-79.47 1739.98,-48.45 1730.42,-30.28"/>
<polygon fill="#63b8ff" stroke="#63b8ff" points="1931.87,-145.66 1942.18,-143.25 1932.61,-138.7 1931.87,-145.66"/>
</g>
<!-- Node19 -->
<g id="node19" class="node">
<title>Node19</title>
<g id="a_node19"><a xlink:href="libapa_2src_2cache_8c_source.html" target="_top" xlink:title=" ">
<polygon fill="white" stroke="#666666" points="1881,-30 1788,-30 1788,0 1881,0 1881,-30"/>
<text text-anchor="start" x="1796" y="-18" font-family="Helvetica,sans-Serif" font-size="10.00">iop/hdd/libapa/src</text>
<text text-anchor="middle" x="1834.5" y="-7" font-family="Helvetica,sans-Serif" font-size="10.00">/cache.c</text>
</a>
</g>
</g>
<!-- Node1&#45;&gt;Node19 -->
<g id="edge28" class="edge">
<title>Node1&#45;&gt;Node19</title>
<path fill="none" stroke="#63b8ff" d="M1932.17,-138.72C1879.19,-131.32 1810.59,-117.78 1793.5,-96 1777.22,-75.25 1800.3,-47.03 1817.87,-30.25"/>
<polygon fill="#63b8ff" stroke="#63b8ff" points="1931.68,-142.19 1942.06,-140.05 1932.61,-135.25 1931.68,-142.19"/>
</g>
<!-- Node20 -->
<g id="node20" class="node">
<title>Node20</title>
<g id="a_node20"><a xlink:href="free_8c_source.html" target="_top" xlink:title=" ">
<polygon fill="white" stroke="#666666" points="1992,-30 1899,-30 1899,0 1992,0 1992,-30"/>
<text text-anchor="start" x="1907" y="-18" font-family="Helvetica,sans-Serif" font-size="10.00">iop/hdd/libapa/src</text>
<text text-anchor="middle" x="1945.5" y="-7" font-family="Helvetica,sans-Serif" font-size="10.00">/free.c</text>
</a>
</g>
</g>
<!-- Node1&#45;&gt;Node20 -->
<g id="edge29" class="edge">
<title>Node1&#45;&gt;Node20</title>
<path fill="none" stroke="#63b8ff" d="M1979.7,-122.73C1974.18,-114.62 1968.49,-105.23 1964.5,-96 1955.04,-74.12 1949.83,-46.74 1947.36,-30.35"/>
<polygon fill="#63b8ff" stroke="#63b8ff" points="1976.71,-124.56 1985.37,-130.67 1982.41,-120.49 1976.71,-124.56"/>
</g>
<!-- Node21 -->
<g id="node21" class="node">
<title>Node21</title>
<g id="a_node21"><a xlink:href="libapa_2src_2journal_8c_source.html" target="_top" xlink:title=" ">
<polygon fill="white" stroke="#666666" points="2103,-30 2010,-30 2010,0 2103,0 2103,-30"/>
<text text-anchor="start" x="2018" y="-18" font-family="Helvetica,sans-Serif" font-size="10.00">iop/hdd/libapa/src</text>
<text text-anchor="middle" x="2056.5" y="-7" font-family="Helvetica,sans-Serif" font-size="10.00">/journal.c</text>
</a>
</g>
</g>
<!-- Node1&#45;&gt;Node21 -->
<g id="edge30" class="edge">
<title>Node1&#45;&gt;Node21</title>
<path fill="none" stroke="#63b8ff" d="M1994.37,-120.24C1993.51,-103.94 1994.51,-82.83 2002.5,-66 2009.4,-51.46 2022.59,-39.12 2034.21,-30.33"/>
<polygon fill="#63b8ff" stroke="#63b8ff" points="1990.88,-120.44 1995.19,-130.12 1997.85,-119.86 1990.88,-120.44"/>
</g>
<!-- Node22 -->
<g id="node22" class="node">
<title>Node22</title>
<g id="a_node22"><a xlink:href="libapa_2src_2misc_8c_source.html" target="_top" xlink:title=" ">
<polygon fill="white" stroke="#666666" points="2214,-30 2121,-30 2121,0 2214,0 2214,-30"/>
<text text-anchor="start" x="2129" y="-18" font-family="Helvetica,sans-Serif" font-size="10.00">iop/hdd/libapa/src</text>
<text text-anchor="middle" x="2167.5" y="-7" font-family="Helvetica,sans-Serif" font-size="10.00">/misc.c</text>
</a>
</g>
</g>
<!-- Node1&#45;&gt;Node22 -->
<g id="edge31" class="edge">
<title>Node1&#45;&gt;Node22</title>
<path fill="none" stroke="#63b8ff" d="M2005.66,-121.05C2012.51,-103.57 2023.87,-80.78 2040.5,-66 2052.99,-54.91 2090.25,-40.86 2121.2,-30.49"/>
<polygon fill="#63b8ff" stroke="#63b8ff" points="2002.46,-119.61 2002.32,-130.21 2009.03,-122.01 2002.46,-119.61"/>
</g>
<!-- Node23 -->
<g id="node23" class="node">
<title>Node23</title>
<g id="a_node23"><a xlink:href="password_8c_source.html" target="_top" xlink:title=" ">
<polygon fill="white" stroke="#666666" points="2325,-30 2232,-30 2232,0 2325,0 2325,-30"/>
<text text-anchor="start" x="2240" y="-18" font-family="Helvetica,sans-Serif" font-size="10.00">iop/hdd/libapa/src</text>
<text text-anchor="middle" x="2278.5" y="-7" font-family="Helvetica,sans-Serif" font-size="10.00">/password.c</text>
</a>
</g>
</g>
<!-- Node1&#45;&gt;Node23 -->
<g id="edge32" class="edge">
<title>Node1&#45;&gt;Node23</title>
<path fill="none" stroke="#63b8ff" d="M2017.02,-123C2035.17,-102.15 2061.32,-73.56 2074.5,-66 2133.6,-32.1 2157.38,-46.4 2223.5,-30 2226.18,-29.34 2228.93,-28.65 2231.7,-27.95"/>
<polygon fill="#63b8ff" stroke="#63b8ff" points="2014.43,-120.65 2010.55,-130.51 2019.73,-125.22 2014.43,-120.65"/>
</g>
<!-- Node24 -->
<g id="node24" class="node">
<title>Node24</title>
<g id="a_node24"><a xlink:href="libpfs_2src_2cache_8c_source.html" target="_top" xlink:title=" ">
<polygon fill="white" stroke="#666666" points="2174,-96 2083,-96 2083,-66 2174,-66 2174,-96"/>
<text text-anchor="start" x="2091" y="-84" font-family="Helvetica,sans-Serif" font-size="10.00">iop/hdd/libpfs/src</text>
<text text-anchor="middle" x="2128.5" y="-73" font-family="Helvetica,sans-Serif" font-size="10.00">/cache.c</text>
</a>
</g>
</g>
<!-- Node1&#45;&gt;Node24 -->
<g id="edge33" class="edge">
<title>Node1&#45;&gt;Node24</title>
<path fill="none" stroke="#63b8ff" d="M2037.23,-126.59C2057.19,-116.84 2080.93,-105.24 2099.2,-96.31"/>
<polygon fill="#63b8ff" stroke="#63b8ff" points="2035.71,-123.44 2028.26,-130.97 2038.78,-129.73 2035.71,-123.44"/>
</g>
<!-- Node25 -->
<g id="node25" class="node">
<title>Node25</title>
<g id="a_node25"><a xlink:href="libpfs_2src_2journal_8c_source.html" target="_top" xlink:title=" ">
<polygon fill="white" stroke="#666666" points="2283,-96 2192,-96 2192,-66 2283,-66 2283,-96"/>
<text text-anchor="start" x="2200" y="-84" font-family="Helvetica,sans-Serif" font-size="10.00">iop/hdd/libpfs/src</text>
<text text-anchor="middle" x="2237.5" y="-73" font-family="Helvetica,sans-Serif" font-size="10.00">/journal.c</text>
</a>
</g>
</g>
<!-- Node1&#45;&gt;Node25 -->
<g id="edge34" class="edge">
<title>Node1&#45;&gt;Node25</title>
<path fill="none" stroke="#63b8ff" d="M2062.33,-128.71C2103.3,-117.79 2155.24,-103.94 2191.89,-94.16"/>
<polygon fill="#63b8ff" stroke="#63b8ff" points="2061.58,-125.29 2052.82,-131.25 2063.39,-132.05 2061.58,-125.29"/>
</g>
<!-- Node26 -->
<g id="node26" class="node">
<title>Node26</title>
<g id="a_node26"><a xlink:href="libpfs_2src_2misc_8c_source.html" target="_top" xlink:title=" ">
<polygon fill="white" stroke="#666666" points="2392,-96 2301,-96 2301,-66 2392,-66 2392,-96"/>
<text text-anchor="start" x="2309" y="-84" font-family="Helvetica,sans-Serif" font-size="10.00">iop/hdd/libpfs/src</text>
<text text-anchor="middle" x="2346.5" y="-73" font-family="Helvetica,sans-Serif" font-size="10.00">/misc.c</text>
</a>
</g>
</g>
<!-- Node1&#45;&gt;Node26 -->
<g id="edge35" class="edge">
<title>Node1&#45;&gt;Node26</title>
<path fill="none" stroke="#63b8ff" d="M2062.52,-136.62C2122.5,-127.58 2213.88,-112.82 2292.5,-96 2295.15,-95.43 2297.87,-94.82 2300.61,-94.18"/>
<polygon fill="#63b8ff" stroke="#63b8ff" points="2062.19,-133.13 2052.82,-138.07 2063.23,-140.05 2062.19,-133.13"/>
</g>
<!-- Node27 -->
<g id="node27" class="node">
<title>Node27</title>
<g id="a_node27"><a xlink:href="super_8c_source.html" target="_top" xlink:title=" ">
<polygon fill="white" stroke="#666666" points="2501,-96 2410,-96 2410,-66 2501,-66 2501,-96"/>
<text text-anchor="start" x="2418" y="-84" font-family="Helvetica,sans-Serif" font-size="10.00">iop/hdd/libpfs/src</text>
<text text-anchor="middle" x="2455.5" y="-73" font-family="Helvetica,sans-Serif" font-size="10.00">/super.c</text>
</a>
</g>
</g>
<!-- Node1&#45;&gt;Node27 -->
<g id="edge36" class="edge">
<title>Node1&#45;&gt;Node27</title>
<path fill="none" stroke="#63b8ff" d="M2062.83,-140.56C2143.05,-133.27 2283.06,-118.58 2401.5,-96 2404.16,-95.49 2406.89,-94.93 2409.64,-94.33"/>
<polygon fill="#63b8ff" stroke="#63b8ff" points="2062.59,-137.07 2052.94,-141.45 2063.21,-144.04 2062.59,-137.07"/>
</g>
<!-- Node28 -->
<g id="node28" class="node">
<title>Node28</title>
<g id="a_node28"><a xlink:href="super_write_8c_source.html" target="_top" xlink:title=" ">
<polygon fill="white" stroke="#666666" points="2610,-96 2519,-96 2519,-66 2610,-66 2610,-96"/>
<text text-anchor="start" x="2527" y="-84" font-family="Helvetica,sans-Serif" font-size="10.00">iop/hdd/libpfs/src</text>
<text text-anchor="middle" x="2564.5" y="-73" font-family="Helvetica,sans-Serif" font-size="10.00">/superWrite.c</text>
</a>
</g>
</g>
<!-- Node1&#45;&gt;Node28 -->
<g id="edge37" class="edge">
<title>Node1&#45;&gt;Node28</title>
<path fill="none" stroke="#63b8ff" d="M2062.9,-142.91C2160.83,-137.54 2351.11,-124.25 2510.5,-96 2513.17,-95.53 2515.9,-94.99 2518.65,-94.41"/>
<polygon fill="#63b8ff" stroke="#63b8ff" points="2062.73,-139.41 2052.93,-143.44 2063.1,-146.4 2062.73,-139.41"/>
</g>
<!-- Node29 -->
<g id="node29" class="node">
<title>Node29</title>
<g id="a_node29"><a xlink:href="pfs__fio_8c_source.html" target="_top" xlink:title=" ">
<polygon fill="white" stroke="#666666" points="2726.5,-96 2628.5,-96 2628.5,-66 2726.5,-66 2726.5,-96"/>
<text text-anchor="start" x="2636.5" y="-84" font-family="Helvetica,sans-Serif" font-size="10.00">iop/hdd/pfs/src/pfs</text>
<text text-anchor="middle" x="2677.5" y="-73" font-family="Helvetica,sans-Serif" font-size="10.00">_fio.c</text>
</a>
</g>
</g>
<!-- Node1&#45;&gt;Node29 -->
<g id="edge38" class="edge">
<title>Node1&#45;&gt;Node29</title>
<path fill="none" stroke="#63b8ff" d="M2062.32,-144.13C2175.86,-140.11 2417.82,-128.24 2619.5,-96 2622.36,-95.54 2625.3,-95.02 2628.25,-94.44"/>
<polygon fill="#63b8ff" stroke="#63b8ff" points="2062.47,-140.62 2052.6,-144.46 2062.71,-147.62 2062.47,-140.62"/>
</g>
<!-- Node30 -->
<g id="node30" class="node">
<title>Node30</title>
<g id="a_node30"><a xlink:href="pfs__fioctl_8c_source.html" target="_top" xlink:title=" ">
<polygon fill="white" stroke="#666666" points="2842.5,-96 2744.5,-96 2744.5,-66 2842.5,-66 2842.5,-96"/>
<text text-anchor="start" x="2752.5" y="-84" font-family="Helvetica,sans-Serif" font-size="10.00">iop/hdd/pfs/src/pfs</text>
<text text-anchor="middle" x="2793.5" y="-73" font-family="Helvetica,sans-Serif" font-size="10.00">_fioctl.c</text>
</a>
</g>
</g>
<!-- Node1&#45;&gt;Node30 -->
<g id="edge39" class="edge">
<title>Node1&#45;&gt;Node30</title>
<path fill="none" stroke="#63b8ff" d="M2062.3,-145.28C2191.23,-143.05 2488.76,-133.86 2735.5,-96 2738.37,-95.56 2741.3,-95.05 2744.25,-94.49"/>
<polygon fill="#63b8ff" stroke="#63b8ff" points="2062.55,-141.78 2052.6,-145.44 2062.66,-148.78 2062.55,-141.78"/>
</g>
<!-- Node3 -->
<g id="node3" class="node">
<title>Node3</title>
<g id="a_node3"><a xlink:href="libhdd_8c_source.html" target="_top" xlink:title=" ">
<polygon fill="white" stroke="#666666" points="115,-24.5 0,-24.5 0,-5.5 115,-5.5 115,-24.5"/>
<text text-anchor="middle" x="57.5" y="-12.5" font-family="Helvetica,sans-Serif" font-size="10.00">ee/rpc/hdd/src/libhdd.c</text>
</a>
</g>
</g>
<!-- Node2&#45;&gt;Node3 -->
<g id="edge2" class="edge">
<title>Node2&#45;&gt;Node3</title>
<path fill="none" stroke="#63b8ff" d="M411.96,-72.58C342.7,-63.68 225,-47.72 124.5,-30 116.07,-28.51 107.09,-26.76 98.52,-25"/>
<polygon fill="#63b8ff" stroke="#63b8ff" points="411.21,-76.01 421.57,-73.81 412.09,-69.07 411.21,-76.01"/>
</g>
<!-- Node5 -->
<g id="node5" class="node">
<title>Node5</title>
<g id="a_node5"><a xlink:href="iop_2dev9_2atad_2src_2irx__imports_8h_source.html" target="_top" xlink:title=" ">
<polygon fill="white" stroke="#666666" points="621.5,-30 517.5,-30 517.5,0 621.5,0 621.5,-30"/>
<text text-anchor="start" x="525.5" y="-18" font-family="Helvetica,sans-Serif" font-size="10.00">iop/dev9/atad/src/irx</text>
<text text-anchor="middle" x="569.5" y="-7" font-family="Helvetica,sans-Serif" font-size="10.00">_imports.h</text>
</a>
</g>
</g>
<!-- Node4&#45;&gt;Node5 -->
<g id="edge4" class="edge">
<title>Node4&#45;&gt;Node5</title>
<path fill="none" stroke="#63b8ff" d="M940.44,-73.03C864.82,-64.72 738.34,-49.48 630.5,-30 627.61,-29.48 624.66,-28.91 621.68,-28.31"/>
<polygon fill="#63b8ff" stroke="#63b8ff" points="939.85,-76.48 950.17,-74.09 940.61,-69.52 939.85,-76.48"/>
</g>
<!-- Node6 -->
<g id="node6" class="node">
<title>Node6</title>
<g id="a_node6"><a xlink:href="ps2atad_8c.html" target="_top" xlink:title=" ">
<polygon fill="white" stroke="#666666" points="777,-24.5 640,-24.5 640,-5.5 777,-5.5 777,-24.5"/>
<text text-anchor="middle" x="708.5" y="-12.5" font-family="Helvetica,sans-Serif" font-size="10.00">iop/dev9/atad/src/ps2atad.c</text>
</a>
</g>
</g>
<!-- Node4&#45;&gt;Node6 -->
<g id="edge5" class="edge">
<title>Node4&#45;&gt;Node6</title>
<path fill="none" stroke="#63b8ff" d="M940.65,-65.69C882.31,-53.2 799.48,-35.48 750.15,-24.92"/>
<polygon fill="#63b8ff" stroke="#63b8ff" points="939.62,-69.05 950.13,-67.72 941.09,-62.2 939.62,-69.05"/>
</g>
<!-- Node7 -->
<g id="node7" class="node">
<title>Node7</title>
<g id="a_node7"><a xlink:href="ps2dev9_8c.html" target="_top" xlink:title=" ">
<polygon fill="white" stroke="#666666" points="936,-24.5 795,-24.5 795,-5.5 936,-5.5 936,-24.5"/>
<text text-anchor="middle" x="865.5" y="-12.5" font-family="Helvetica,sans-Serif" font-size="10.00">iop/dev9/dev9/src/ps2dev9.c</text>
</a>
</g>
</g>
<!-- Node4&#45;&gt;Node7 -->
<g id="edge6" class="edge">
<title>Node4&#45;&gt;Node7</title>
<path fill="none" stroke="#63b8ff" d="M965.49,-61.06C939.04,-49.14 906.11,-34.3 885.44,-24.99"/>
<polygon fill="#63b8ff" stroke="#63b8ff" points="963.7,-64.1 974.25,-65.02 966.57,-57.72 963.7,-64.1"/>
</g>
<!-- Node8 -->
<g id="node8" class="node">
<title>Node8</title>
<g id="a_node8"><a xlink:href="iop_2dev9_2extflash_2src_2irx__imports_8h_source.html" target="_top" xlink:title=" ">
<polygon fill="white" stroke="#666666" points="1060.5,-30 954.5,-30 954.5,0 1060.5,0 1060.5,-30"/>
<text text-anchor="start" x="962.5" y="-18" font-family="Helvetica,sans-Serif" font-size="10.00">iop/dev9/extflash/src</text>
<text text-anchor="middle" x="1007.5" y="-7" font-family="Helvetica,sans-Serif" font-size="10.00">/irx_imports.h</text>
</a>
</g>
</g>
<!-- Node4&#45;&gt;Node8 -->
<g id="edge7" class="edge">
<title>Node4&#45;&gt;Node8</title>
<path fill="none" stroke="#63b8ff" d="M1007.5,-54.39C1007.5,-46.13 1007.5,-37.28 1007.5,-30.16"/>
<polygon fill="#63b8ff" stroke="#63b8ff" points="1004,-54.28 1007.5,-64.28 1011,-54.28 1004,-54.28"/>
</g>
<!-- Node9 -->
<g id="node9" class="node">
<title>Node9</title>
<g id="a_node9"><a xlink:href="dvrdrv_8c_source.html" target="_top" xlink:title=" ">
<polygon fill="white" stroke="#666666" points="1178.5,-30 1078.5,-30 1078.5,0 1178.5,0 1178.5,-30"/>
<text text-anchor="start" x="1086.5" y="-18" font-family="Helvetica,sans-Serif" font-size="10.00">iop/dev9/pvrdrv/src</text>
<text text-anchor="middle" x="1128.5" y="-7" font-family="Helvetica,sans-Serif" font-size="10.00">/dvrdrv.c</text>
</a>
</g>
</g>
<!-- Node4&#45;&gt;Node9 -->
<g id="edge8" class="edge">
<title>Node4&#45;&gt;Node9</title>
<path fill="none" stroke="#63b8ff" d="M1044.71,-60.32C1063.03,-50.63 1084.72,-39.16 1101.44,-30.31"/>
<polygon fill="#63b8ff" stroke="#63b8ff" points="1043.2,-57.16 1035.99,-64.93 1046.47,-63.35 1043.2,-57.16"/>
</g>
<!-- Node10 -->
<g id="node10" class="node">
<title>Node10</title>
<g id="a_node10"><a xlink:href="iop_2dev9_2pvrdrv_2src_2irx__imports_8h_source.html" target="_top" xlink:title=" ">
<polygon fill="white" stroke="#666666" points="1296.5,-30 1196.5,-30 1196.5,0 1296.5,0 1296.5,-30"/>
<text text-anchor="start" x="1204.5" y="-18" font-family="Helvetica,sans-Serif" font-size="10.00">iop/dev9/pvrdrv/src</text>
<text text-anchor="middle" x="1246.5" y="-7" font-family="Helvetica,sans-Serif" font-size="10.00">/irx_imports.h</text>
</a>
</g>
</g>
<!-- Node4&#45;&gt;Node10 -->
<g id="edge9" class="edge">
<title>Node4&#45;&gt;Node10</title>
<path fill="none" stroke="#63b8ff" d="M1072.14,-62.69C1111.08,-52.26 1159.94,-39.18 1196.03,-29.52"/>
<polygon fill="#63b8ff" stroke="#63b8ff" points="1071.65,-59.2 1062.9,-65.17 1073.46,-65.96 1071.65,-59.2"/>
</g>
<!-- Node4&#45;&gt;Node11 -->
<g id="edge10" class="edge">
<title>Node4&#45;&gt;Node11</title>
<path fill="none" stroke="#63b8ff" d="M1074.76,-73.81C1156.56,-65.83 1298.69,-50.5 1419.5,-30 1427.91,-28.57 1436.89,-26.78 1445.37,-24.96"/>
<polygon fill="#63b8ff" stroke="#63b8ff" points="1074.51,-70.32 1064.89,-74.76 1075.18,-77.29 1074.51,-70.32"/>
</g>
<!-- Node4&#45;&gt;Node12 -->
<g id="edge11" class="edge">
<title>Node4&#45;&gt;Node12</title>
<path fill="none" stroke="#63b8ff" d="M1074.81,-76.73C1177.34,-71.09 1378.59,-57.39 1547.5,-30 1550.35,-29.54 1553.27,-29.02 1556.2,-28.46"/>
<polygon fill="#63b8ff" stroke="#63b8ff" points="1074.71,-73.23 1064.91,-77.27 1075.09,-80.22 1074.71,-73.23"/>
</g>
<!-- Node13 -->
<g id="node13" class="node">
<title>Node13</title>
<g id="a_node13"><a xlink:href="iop_2hdd_2apa_2src_2irx__imports_8h_source.html" target="_top" xlink:title=" ">
<polygon fill="white" stroke="#666666" points="1410.5,-30 1314.5,-30 1314.5,0 1410.5,0 1410.5,-30"/>
<text text-anchor="start" x="1322.5" y="-18" font-family="Helvetica,sans-Serif" font-size="10.00">iop/hdd/apa/src/irx</text>
<text text-anchor="middle" x="1362.5" y="-7" font-family="Helvetica,sans-Serif" font-size="10.00">_imports.h</text>
</a>
</g>
</g>
<!-- Node4&#45;&gt;Node13 -->
<g id="edge12" class="edge">
<title>Node4&#45;&gt;Node13</title>
<path fill="none" stroke="#63b8ff" d="M1074.79,-70.18C1135.37,-60.99 1226.71,-46.26 1305.5,-30 1308.29,-29.42 1311.16,-28.81 1314.05,-28.16"/>
<polygon fill="#63b8ff" stroke="#63b8ff" points="1074.34,-66.7 1064.97,-71.66 1075.38,-73.63 1074.34,-66.7"/>
</g>
<!-- Node14 -->
<g id="node14" class="node">
<title>Node14</title>
<g id="a_node14"><a xlink:href="iop_2network_2smap_2src_2include_2irx__imports_8h_source.html" target="_top" xlink:title=" ">
<polygon fill="white" stroke="#666666" points="243.5,-30 133.5,-30 133.5,0 243.5,0 243.5,-30"/>
<text text-anchor="start" x="141.5" y="-18" font-family="Helvetica,sans-Serif" font-size="10.00">iop/network/smap/src</text>
<text text-anchor="middle" x="188.5" y="-7" font-family="Helvetica,sans-Serif" font-size="10.00">/include/irx_imports.h</text>
</a>
</g>
</g>
<!-- Node4&#45;&gt;Node14 -->
<g id="edge13" class="edge">
<title>Node4&#45;&gt;Node14</title>
<path fill="none" stroke="#63b8ff" d="M940.29,-78.91C807.98,-76.02 504.69,-65.73 252.5,-30 249.68,-29.6 246.81,-29.15 243.91,-28.65"/>
<polygon fill="#63b8ff" stroke="#63b8ff" points="940.21,-82.41 950.28,-79.12 940.36,-75.41 940.21,-82.41"/>
</g>
<!-- Node15 -->
<g id="node15" class="node">
<title>Node15</title>
<g id="a_node15"><a xlink:href="smap_8c_source.html" target="_top" xlink:title=" ">
<polygon fill="white" stroke="#666666" points="371.5,-30 261.5,-30 261.5,0 371.5,0 371.5,-30"/>
<text text-anchor="start" x="269.5" y="-18" font-family="Helvetica,sans-Serif" font-size="10.00">iop/network/smap/src</text>
<text text-anchor="middle" x="316.5" y="-7" font-family="Helvetica,sans-Serif" font-size="10.00">/smap.c</text>
</a>
</g>
</g>
<!-- Node4&#45;&gt;Node15 -->
<g id="edge14" class="edge">
<title>Node4&#45;&gt;Node15</title>
<path fill="none" stroke="#63b8ff" d="M940.46,-77.64C825.38,-72.93 583.09,-60.09 380.5,-30 377.69,-29.58 374.81,-29.11 371.92,-28.6"/>
<polygon fill="#63b8ff" stroke="#63b8ff" points="940.21,-81.14 950.34,-78.04 940.49,-74.14 940.21,-81.14"/>
</g>
<!-- Node16 -->
<g id="node16" class="node">
<title>Node16</title>
<g id="a_node16"><a xlink:href="xfer_8c_source.html" target="_top" xlink:title=" ">
<polygon fill="white" stroke="#666666" points="499.5,-30 389.5,-30 389.5,0 499.5,0 499.5,-30"/>
<text text-anchor="start" x="397.5" y="-18" font-family="Helvetica,sans-Serif" font-size="10.00">iop/network/smap/src</text>
<text text-anchor="middle" x="444.5" y="-7" font-family="Helvetica,sans-Serif" font-size="10.00">/xfer.c</text>
</a>
</g>
</g>
<!-- Node4&#45;&gt;Node16 -->
<g id="edge15" class="edge">
<title>Node4&#45;&gt;Node16</title>
<path fill="none" stroke="#63b8ff" d="M940.57,-75.76C844.51,-69.12 662.19,-54.43 508.5,-30 505.69,-29.55 502.82,-29.06 499.93,-28.54"/>
<polygon fill="#63b8ff" stroke="#63b8ff" points="940.12,-79.24 950.34,-76.43 940.6,-72.25 940.12,-79.24"/>
</g>
<!-- Node17&#45;&gt;Node11 -->
<g id="edge19" class="edge">
<title>Node17&#45;&gt;Node11</title>
<path fill="none" stroke="#63b8ff" d="M1790.84,-70.34C1727.94,-60.97 1631.07,-45.87 1547.5,-30 1539.45,-28.47 1530.87,-26.7 1522.69,-24.93"/>
<polygon fill="#63b8ff" stroke="#63b8ff" points="1790.28,-73.8 1800.68,-71.8 1791.31,-66.87 1790.28,-73.8"/>
</g>
<!-- Node17&#45;&gt;Node12 -->
<g id="edge20" class="edge">
<title>Node17&#45;&gt;Node12</title>
<path fill="none" stroke="#63b8ff" d="M1790.94,-62.96C1749.57,-52.37 1697.18,-38.96 1658.99,-29.18"/>
<polygon fill="#63b8ff" stroke="#63b8ff" points="1790,-66.33 1800.55,-65.42 1791.73,-59.55 1790,-66.33"/>
</g>
<!-- Node17&#45;&gt;Node18 -->
<g id="edge21" class="edge">
<title>Node17&#45;&gt;Node18</title>
<path fill="none" stroke="#63b8ff" d="M1817.14,-60.72C1796.67,-50.95 1772.24,-39.28 1753.47,-30.31"/>
<polygon fill="#63b8ff" stroke="#63b8ff" points="1815.53,-63.83 1826.06,-64.98 1818.55,-57.52 1815.53,-63.83"/>
</g>
<!-- Node17&#45;&gt;Node19 -->
<g id="edge22" class="edge">
<title>Node17&#45;&gt;Node19</title>
<path fill="none" stroke="#63b8ff" d="M1848.5,-54.97C1845.48,-46.55 1842.21,-37.45 1839.59,-30.16"/>
<polygon fill="#63b8ff" stroke="#63b8ff" points="1845.21,-56.14 1851.88,-64.37 1851.8,-53.78 1845.21,-56.14"/>
</g>
<!-- Node17&#45;&gt;Node20 -->
<g id="edge23" class="edge">
<title>Node17&#45;&gt;Node20</title>
<path fill="none" stroke="#63b8ff" d="M1886.03,-59.25C1899,-49.82 1914.02,-38.9 1925.72,-30.39"/>
<polygon fill="#63b8ff" stroke="#63b8ff" points="1884.28,-56.19 1878.25,-64.91 1888.4,-61.85 1884.28,-56.19"/>
</g>
<!-- Node17&#45;&gt;Node21 -->
<g id="edge24" class="edge">
<title>Node17&#45;&gt;Node21</title>
<path fill="none" stroke="#63b8ff" d="M1912.85,-62.2C1944,-52.18 1982.39,-39.83 2011.65,-30.43"/>
<polygon fill="#63b8ff" stroke="#63b8ff" points="1912.05,-58.78 1903.6,-65.17 1914.19,-65.44 1912.05,-58.78"/>
</g>
<!-- Node17&#45;&gt;Node22 -->
<g id="edge25" class="edge">
<title>Node17&#45;&gt;Node22</title>
<path fill="none" stroke="#63b8ff" d="M1924.22,-67.97C1975.79,-58.42 2048.87,-44.32 2112.5,-30 2115.19,-29.39 2117.95,-28.75 2120.73,-28.09"/>
<polygon fill="#63b8ff" stroke="#63b8ff" points="1923.59,-64.53 1914.39,-69.78 1924.86,-71.41 1923.59,-64.53"/>
</g>
<!-- Node17&#45;&gt;Node23 -->
<g id="edge26" class="edge">
<title>Node17&#45;&gt;Node23</title>
<path fill="none" stroke="#63b8ff" d="M1924.09,-73.2C1997.72,-65.15 2119.68,-50.24 2223.5,-30 2226.21,-29.47 2228.98,-28.89 2231.77,-28.28"/>
<polygon fill="#63b8ff" stroke="#63b8ff" points="1923.77,-69.72 1914.2,-74.27 1924.52,-76.68 1923.77,-69.72"/>
</g>
</g>
</svg>
