<?xml version="1.0" encoding="UTF-8" standalone="no"?>
<!DOCTYPE svg PUBLIC "-//W3C//DTD SVG 1.1//EN"
 "http://www.w3.org/Graphics/SVG/1.1/DTD/svg11.dtd">
<!-- Generated by graphviz version 7.0.5 (20221223.1930)
 -->
<!-- Title: iop/usb/usbd/src/hub.h Pages: 1 -->
<svg width="170pt" height="302pt"
 viewBox="0.00 0.00 169.50 302.00" xmlns="http://www.w3.org/2000/svg" xmlns:xlink="http://www.w3.org/1999/xlink">
<g id="graph0" class="graph" transform="scale(1 1) rotate(0) translate(4 298)">
<title>iop/usb/usbd/src/hub.h</title>
<!-- Node1 -->
<g id="node1" class="node">
<title>Node1</title>
<g id="a_node1"><a xlink:title=" ">
<polygon fill="#999999" stroke="#666666" points="115,-294 0,-294 0,-275 115,-275 115,-294"/>
<text text-anchor="middle" x="57.5" y="-282" font-family="Helvetica,sans-Serif" font-size="10.00">iop/usb/usbd/src/hub.h</text>
</a>
</g>
</g>
<!-- Node2 -->
<g id="node2" class="node">
<title>Node2</title>
<g id="a_node2"><a xlink:href="usbdpriv_8h.html" target="_top" xlink:title=" ">
<polygon fill="white" stroke="#666666" points="88,-239 27,-239 27,-220 88,-220 88,-239"/>
<text text-anchor="middle" x="57.5" y="-227" font-family="Helvetica,sans-Serif" font-size="10.00">usbdpriv.h</text>
</a>
</g>
</g>
<!-- Node1&#45;&gt;Node2 -->
<g id="edge1" class="edge">
<title>Node1&#45;&gt;Node2</title>
<path fill="none" stroke="#63b8ff" d="M57.5,-274.75C57.5,-268.27 57.5,-259.16 57.5,-250.9"/>
<polygon fill="#63b8ff" stroke="#63b8ff" points="61,-250.96 57.5,-240.96 54,-250.96 61,-250.96"/>
</g>
<!-- Node3 -->
<g id="node3" class="node">
<title>Node3</title>
<g id="a_node3"><a xlink:href="usbd_8h.html" target="_top" xlink:title=" ">
<polygon fill="white" stroke="#666666" points="106,-184 61,-184 61,-165 106,-165 106,-184"/>
<text text-anchor="middle" x="83.5" y="-172" font-family="Helvetica,sans-Serif" font-size="10.00">usbd.h</text>
</a>
</g>
</g>
<!-- Node2&#45;&gt;Node3 -->
<g id="edge2" class="edge">
<title>Node2&#45;&gt;Node3</title>
<path fill="none" stroke="#63b8ff" d="M61.79,-219.75C65.12,-212.96 69.86,-203.3 74.06,-194.73"/>
<polygon fill="#63b8ff" stroke="#63b8ff" points="77.18,-196.32 78.45,-185.8 70.9,-193.24 77.18,-196.32"/>
</g>
<!-- Node4 -->
<g id="node4" class="node">
<title>Node4</title>
<g id="a_node4"><a xlink:title=" ">
<polygon fill="#e0e0e0" stroke="#999999" points="56,-129 9,-129 9,-110 56,-110 56,-129"/>
<text text-anchor="middle" x="32.5" y="-117" font-family="Helvetica,sans-Serif" font-size="10.00">types.h</text>
</a>
</g>
</g>
<!-- Node2&#45;&gt;Node4 -->
<g id="edge8" class="edge">
<title>Node2&#45;&gt;Node4</title>
<path fill="none" stroke="#63b8ff" d="M55.45,-219.66C51.48,-202.5 42.63,-164.26 37.15,-140.6"/>
<polygon fill="#63b8ff" stroke="#63b8ff" points="40.58,-139.89 34.92,-130.93 33.76,-141.47 40.58,-139.89"/>
</g>
<!-- Node3&#45;&gt;Node4 -->
<g id="edge3" class="edge">
<title>Node3&#45;&gt;Node4</title>
<path fill="none" stroke="#63b8ff" d="M75.08,-164.75C68.03,-157.43 57.77,-146.76 49.09,-137.74"/>
<polygon fill="#63b8ff" stroke="#63b8ff" points="51.61,-135.31 42.15,-130.53 46.57,-140.17 51.61,-135.31"/>
</g>
<!-- Node5 -->
<g id="node5" class="node">
<title>Node5</title>
<g id="a_node5"><a xlink:href="irx_8h.html" target="_top" xlink:title=" ">
<polygon fill="white" stroke="#666666" points="108.5,-129 74.5,-129 74.5,-110 108.5,-110 108.5,-129"/>
<text text-anchor="middle" x="91.5" y="-117" font-family="Helvetica,sans-Serif" font-size="10.00">irx.h</text>
</a>
</g>
</g>
<!-- Node3&#45;&gt;Node5 -->
<g id="edge4" class="edge">
<title>Node3&#45;&gt;Node5</title>
<path fill="none" stroke="#63b8ff" d="M84.82,-164.75C85.81,-158.19 87.21,-148.95 88.47,-140.6"/>
<polygon fill="#63b8ff" stroke="#63b8ff" points="91.89,-141.35 89.92,-130.94 84.97,-140.3 91.89,-141.35"/>
</g>
<!-- Node6 -->
<g id="node6" class="node">
<title>Node6</title>
<g id="a_node6"><a xlink:href="iop_2kernel_2include_2types_8h_source.html" target="_top" xlink:title=" ">
<polygon fill="white" stroke="#666666" points="115,-74 68,-74 68,-55 115,-55 115,-74"/>
<text text-anchor="middle" x="91.5" y="-62" font-family="Helvetica,sans-Serif" font-size="10.00">types.h</text>
</a>
</g>
</g>
<!-- Node5&#45;&gt;Node6 -->
<g id="edge5" class="edge">
<title>Node5&#45;&gt;Node6</title>
<path fill="none" stroke="#63b8ff" d="M91.5,-109.75C91.5,-103.27 91.5,-94.16 91.5,-85.9"/>
<polygon fill="#63b8ff" stroke="#63b8ff" points="95,-85.96 91.5,-75.96 88,-85.96 95,-85.96"/>
</g>
<!-- Node7 -->
<g id="node7" class="node">
<title>Node7</title>
<g id="a_node7"><a xlink:title=" ">
<polygon fill="#e0e0e0" stroke="#999999" points="79,-19 28,-19 28,0 79,0 79,-19"/>
<text text-anchor="middle" x="53.5" y="-7" font-family="Helvetica,sans-Serif" font-size="10.00">stddef.h</text>
</a>
</g>
</g>
<!-- Node6&#45;&gt;Node7 -->
<g id="edge6" class="edge">
<title>Node6&#45;&gt;Node7</title>
<path fill="none" stroke="#63b8ff" d="M85.23,-54.75C80.14,-47.66 72.8,-37.42 66.47,-28.59"/>
<polygon fill="#63b8ff" stroke="#63b8ff" points="69.46,-26.76 60.79,-20.67 63.78,-30.84 69.46,-26.76"/>
</g>
<!-- Node8 -->
<g id="node8" class="node">
<title>Node8</title>
<g id="a_node8"><a xlink:href="tamtypes_8h.html" target="_top" xlink:title=" ">
<polygon fill="white" stroke="#666666" points="161.5,-19 97.5,-19 97.5,0 161.5,0 161.5,-19"/>
<text text-anchor="middle" x="129.5" y="-7" font-family="Helvetica,sans-Serif" font-size="10.00">tamtypes.h</text>
</a>
</g>
</g>
<!-- Node6&#45;&gt;Node8 -->
<g id="edge7" class="edge">
<title>Node6&#45;&gt;Node8</title>
<path fill="none" stroke="#63b8ff" d="M97.77,-54.75C102.86,-47.66 110.2,-37.42 116.53,-28.59"/>
<polygon fill="#63b8ff" stroke="#63b8ff" points="119.22,-30.84 122.21,-20.67 113.54,-26.76 119.22,-30.84"/>
</g>
</g>
</svg>
