<?xml version="1.0" encoding="UTF-8" standalone="no"?>
<!DOCTYPE svg PUBLIC "-//W3C//DTD SVG 1.1//EN"
 "http://www.w3.org/Graphics/SVG/1.1/DTD/svg11.dtd">
<!-- Generated by graphviz version 7.0.5 (20221223.1930)
 -->
<!-- Title: iop/sound/audsrv/src/hw.h Pages: 1 -->
<svg width="240pt" height="93pt"
 viewBox="0.00 0.00 240.00 93.00" xmlns="http://www.w3.org/2000/svg" xmlns:xlink="http://www.w3.org/1999/xlink">
<g id="graph0" class="graph" transform="scale(1 1) rotate(0) translate(4 89)">
<title>iop/sound/audsrv/src/hw.h</title>
<!-- Node1 -->
<g id="node1" class="node">
<title>Node1</title>
<g id="a_node1"><a xlink:title=" ">
<polygon fill="#999999" stroke="#666666" points="181,-85 50,-85 50,-66 181,-66 181,-85"/>
<text text-anchor="middle" x="115.5" y="-73" font-family="Helvetica,sans-Serif" font-size="10.00">iop/sound/audsrv/src/hw.h</text>
</a>
</g>
</g>
<!-- Node2 -->
<g id="node2" class="node">
<title>Node2</title>
<g id="a_node2"><a xlink:href="audsrv_8c.html" target="_top" xlink:title=" ">
<polygon fill="white" stroke="#666666" points="107,-30 0,-30 0,0 107,0 107,-30"/>
<text text-anchor="start" x="8" y="-18" font-family="Helvetica,sans-Serif" font-size="10.00">iop/sound/audsrv/src</text>
<text text-anchor="middle" x="53.5" y="-7" font-family="Helvetica,sans-Serif" font-size="10.00">/audsrv.c</text>
</a>
</g>
</g>
<!-- Node1&#45;&gt;Node2 -->
<g id="edge1" class="edge">
<title>Node1&#45;&gt;Node2</title>
<path fill="none" stroke="#63b8ff" d="M97.73,-57.73C88.59,-49.11 77.56,-38.7 68.8,-30.44"/>
<polygon fill="#63b8ff" stroke="#63b8ff" points="95.31,-60.26 104.98,-64.58 100.11,-55.17 95.31,-60.26"/>
</g>
<!-- Node3 -->
<g id="node3" class="node">
<title>Node3</title>
<g id="a_node3"><a xlink:href="cdrom_8c.html" target="_top" xlink:title=" ">
<polygon fill="white" stroke="#666666" points="232,-30 125,-30 125,0 232,0 232,-30"/>
<text text-anchor="start" x="133" y="-18" font-family="Helvetica,sans-Serif" font-size="10.00">iop/sound/audsrv/src</text>
<text text-anchor="middle" x="178.5" y="-7" font-family="Helvetica,sans-Serif" font-size="10.00">/cdrom.c</text>
</a>
</g>
</g>
<!-- Node1&#45;&gt;Node3 -->
<g id="edge2" class="edge">
<title>Node1&#45;&gt;Node3</title>
<path fill="none" stroke="#63b8ff" d="M133.27,-58C142.61,-49.32 153.96,-38.79 162.95,-30.44"/>
<polygon fill="#63b8ff" stroke="#63b8ff" points="131.12,-55.22 126.18,-64.59 135.89,-60.35 131.12,-55.22"/>
</g>
</g>
</svg>
