<?xml version="1.0" encoding="UTF-8" standalone="no"?>
<!DOCTYPE svg PUBLIC "-//W3C//DTD SVG 1.1//EN"
 "http://www.w3.org/Graphics/SVG/1.1/DTD/svg11.dtd">
<!-- Generated by graphviz version 7.0.5 (20221223.1930)
 -->
<!-- Title: ee/iopreboot/src/imgdrv/src/imgdrv.c Pages: 1 -->
<svg width="300pt" height="258pt"
 viewBox="0.00 0.00 300.00 258.00" xmlns="http://www.w3.org/2000/svg" xmlns:xlink="http://www.w3.org/1999/xlink">
<g id="graph0" class="graph" transform="scale(1 1) rotate(0) translate(4 254)">
<title>ee/iopreboot/src/imgdrv/src/imgdrv.c</title>
<!-- Node1 -->
<g id="node1" class="node">
<title>Node1</title>
<g id="a_node1"><a xlink:title=" ">
<polygon fill="#999999" stroke="#666666" points="262,-250 143,-250 143,-220 262,-220 262,-250"/>
<text text-anchor="start" x="151" y="-238" font-family="Helvetica,sans-Serif" font-size="10.00">ee/iopreboot/src/imgdrv</text>
<text text-anchor="middle" x="202.5" y="-227" font-family="Helvetica,sans-Serif" font-size="10.00">/src/imgdrv.c</text>
</a>
</g>
</g>
<!-- Node2 -->
<g id="node2" class="node">
<title>Node2</title>
<g id="a_node2"><a xlink:href="ioman_8h.html" target="_top" xlink:title=" ">
<polygon fill="white" stroke="#666666" points="174.5,-184 124.5,-184 124.5,-165 174.5,-165 174.5,-184"/>
<text text-anchor="middle" x="149.5" y="-172" font-family="Helvetica,sans-Serif" font-size="10.00">ioman.h</text>
</a>
</g>
</g>
<!-- Node1&#45;&gt;Node2 -->
<g id="edge1" class="edge">
<title>Node1&#45;&gt;Node2</title>
<path fill="none" stroke="#63b8ff" d="M189.4,-219.54C182.02,-211.39 172.75,-201.16 165,-192.61"/>
<polygon fill="#63b8ff" stroke="#63b8ff" points="167.68,-190.36 158.38,-185.3 162.5,-195.06 167.68,-190.36"/>
</g>
<!-- Node6 -->
<g id="node6" class="node">
<title>Node6</title>
<g id="a_node6"><a xlink:href="irx_8h.html" target="_top" xlink:title=" ">
<polygon fill="white" stroke="#666666" points="223.5,-129 189.5,-129 189.5,-110 223.5,-110 223.5,-129"/>
<text text-anchor="middle" x="206.5" y="-117" font-family="Helvetica,sans-Serif" font-size="10.00">irx.h</text>
</a>
</g>
</g>
<!-- Node1&#45;&gt;Node6 -->
<g id="edge10" class="edge">
<title>Node1&#45;&gt;Node6</title>
<path fill="none" stroke="#63b8ff" d="M203.01,-219.63C203.71,-199.59 205,-163.17 205.8,-140.49"/>
<polygon fill="#63b8ff" stroke="#63b8ff" points="209.28,-140.86 206.14,-130.74 202.29,-140.61 209.28,-140.86"/>
</g>
<!-- Node10 -->
<g id="node10" class="node">
<title>Node10</title>
<g id="a_node10"><a xlink:href="loadcore_8h.html" target="_top" xlink:title=" ">
<polygon fill="white" stroke="#666666" points="292,-184 231,-184 231,-165 292,-165 292,-184"/>
<text text-anchor="middle" x="261.5" y="-172" font-family="Helvetica,sans-Serif" font-size="10.00">loadcore.h</text>
</a>
</g>
</g>
<!-- Node1&#45;&gt;Node10 -->
<g id="edge11" class="edge">
<title>Node1&#45;&gt;Node10</title>
<path fill="none" stroke="#63b8ff" d="M217.08,-219.54C225.48,-211.22 236.06,-200.72 244.79,-192.07"/>
<polygon fill="#63b8ff" stroke="#63b8ff" points="247.04,-194.77 251.68,-185.24 242.11,-189.8 247.04,-194.77"/>
</g>
<!-- Node3 -->
<g id="node3" class="node">
<title>Node3</title>
<g id="a_node3"><a xlink:href="iop_2kernel_2include_2types_8h_source.html" target="_top" xlink:title=" ">
<polygon fill="white" stroke="#666666" points="230,-74 183,-74 183,-55 230,-55 230,-74"/>
<text text-anchor="middle" x="206.5" y="-62" font-family="Helvetica,sans-Serif" font-size="10.00">types.h</text>
</a>
</g>
</g>
<!-- Node2&#45;&gt;Node3 -->
<g id="edge2" class="edge">
<title>Node2&#45;&gt;Node3</title>
<path fill="none" stroke="#63b8ff" d="M153.51,-164.77C159.23,-152.43 170.19,-129.25 180.5,-110 185.14,-101.32 190.6,-91.89 195.31,-83.95"/>
<polygon fill="#63b8ff" stroke="#63b8ff" points="198.2,-85.93 200.34,-75.55 192.2,-82.33 198.2,-85.93"/>
</g>
<!-- Node2&#45;&gt;Node6 -->
<g id="edge5" class="edge">
<title>Node2&#45;&gt;Node6</title>
<path fill="none" stroke="#63b8ff" d="M159.17,-164.51C167.24,-157 178.97,-146.1 188.72,-137.03"/>
<polygon fill="#63b8ff" stroke="#63b8ff" points="190.93,-139.76 195.87,-130.39 186.16,-134.63 190.93,-139.76"/>
</g>
<!-- Node7 -->
<g id="node7" class="node">
<title>Node7</title>
<g id="a_node7"><a xlink:href="io__common_8h.html" target="_top" xlink:title=" ">
<polygon fill="white" stroke="#666666" points="133.5,-129 59.5,-129 59.5,-110 133.5,-110 133.5,-129"/>
<text text-anchor="middle" x="96.5" y="-117" font-family="Helvetica,sans-Serif" font-size="10.00">io_common.h</text>
</a>
</g>
</g>
<!-- Node2&#45;&gt;Node7 -->
<g id="edge7" class="edge">
<title>Node2&#45;&gt;Node7</title>
<path fill="none" stroke="#63b8ff" d="M140.75,-164.75C133.35,-157.35 122.54,-146.54 113.45,-137.45"/>
<polygon fill="#63b8ff" stroke="#63b8ff" points="116.06,-135.11 106.51,-130.51 111.11,-140.06 116.06,-135.11"/>
</g>
<!-- Node4 -->
<g id="node4" class="node">
<title>Node4</title>
<g id="a_node4"><a xlink:title=" ">
<polygon fill="#e0e0e0" stroke="#999999" points="194,-19 143,-19 143,0 194,0 194,-19"/>
<text text-anchor="middle" x="168.5" y="-7" font-family="Helvetica,sans-Serif" font-size="10.00">stddef.h</text>
</a>
</g>
</g>
<!-- Node3&#45;&gt;Node4 -->
<g id="edge3" class="edge">
<title>Node3&#45;&gt;Node4</title>
<path fill="none" stroke="#63b8ff" d="M200.23,-54.75C195.14,-47.66 187.8,-37.42 181.47,-28.59"/>
<polygon fill="#63b8ff" stroke="#63b8ff" points="184.46,-26.76 175.79,-20.67 178.78,-30.84 184.46,-26.76"/>
</g>
<!-- Node5 -->
<g id="node5" class="node">
<title>Node5</title>
<g id="a_node5"><a xlink:href="tamtypes_8h.html" target="_top" xlink:title=" ">
<polygon fill="white" stroke="#666666" points="276.5,-19 212.5,-19 212.5,0 276.5,0 276.5,-19"/>
<text text-anchor="middle" x="244.5" y="-7" font-family="Helvetica,sans-Serif" font-size="10.00">tamtypes.h</text>
</a>
</g>
</g>
<!-- Node3&#45;&gt;Node5 -->
<g id="edge4" class="edge">
<title>Node3&#45;&gt;Node5</title>
<path fill="none" stroke="#63b8ff" d="M212.77,-54.75C217.86,-47.66 225.2,-37.42 231.53,-28.59"/>
<polygon fill="#63b8ff" stroke="#63b8ff" points="234.22,-30.84 237.21,-20.67 228.54,-26.76 234.22,-30.84"/>
</g>
<!-- Node6&#45;&gt;Node3 -->
<g id="edge6" class="edge">
<title>Node6&#45;&gt;Node3</title>
<path fill="none" stroke="#63b8ff" d="M206.5,-109.75C206.5,-103.27 206.5,-94.16 206.5,-85.9"/>
<polygon fill="#63b8ff" stroke="#63b8ff" points="210,-85.96 206.5,-75.96 203,-85.96 210,-85.96"/>
</g>
<!-- Node8 -->
<g id="node8" class="node">
<title>Node8</title>
<g id="a_node8"><a xlink:href="fcntl_8h_source.html" target="_top" xlink:title=" ">
<polygon fill="white" stroke="#666666" points="61,-74 0,-74 0,-55 61,-55 61,-74"/>
<text text-anchor="middle" x="30.5" y="-62" font-family="Helvetica,sans-Serif" font-size="10.00">sys/fcntl.h</text>
</a>
</g>
</g>
<!-- Node7&#45;&gt;Node8 -->
<g id="edge8" class="edge">
<title>Node7&#45;&gt;Node8</title>
<path fill="none" stroke="#63b8ff" d="M85.3,-109.51C75.76,-101.85 61.83,-90.66 50.39,-81.47"/>
<polygon fill="#63b8ff" stroke="#63b8ff" points="52.7,-78.84 42.71,-75.31 48.32,-84.3 52.7,-78.84"/>
</g>
<!-- Node9 -->
<g id="node9" class="node">
<title>Node9</title>
<g id="a_node9"><a xlink:href="unistd_8h_source.html" target="_top" xlink:title=" ">
<polygon fill="white" stroke="#666666" points="147.5,-74 79.5,-74 79.5,-55 147.5,-55 147.5,-74"/>
<text text-anchor="middle" x="113.5" y="-62" font-family="Helvetica,sans-Serif" font-size="10.00">sys/unistd.h</text>
</a>
</g>
</g>
<!-- Node7&#45;&gt;Node9 -->
<g id="edge9" class="edge">
<title>Node7&#45;&gt;Node9</title>
<path fill="none" stroke="#63b8ff" d="M99.31,-109.75C101.44,-103.11 104.44,-93.73 107.14,-85.31"/>
<polygon fill="#63b8ff" stroke="#63b8ff" points="110.45,-86.47 110.17,-75.88 103.78,-84.34 110.45,-86.47"/>
</g>
<!-- Node10&#45;&gt;Node3 -->
<g id="edge12" class="edge">
<title>Node10&#45;&gt;Node3</title>
<path fill="none" stroke="#63b8ff" d="M257.83,-164.74C252.57,-152.37 242.43,-129.15 232.5,-110 227.97,-101.26 222.53,-91.82 217.8,-83.89"/>
<polygon fill="#63b8ff" stroke="#63b8ff" points="220.9,-82.25 212.73,-75.51 214.92,-85.88 220.9,-82.25"/>
</g>
<!-- Node10&#45;&gt;Node6 -->
<g id="edge13" class="edge">
<title>Node10&#45;&gt;Node6</title>
<path fill="none" stroke="#63b8ff" d="M252.42,-164.75C244.66,-157.27 233.29,-146.32 223.8,-137.17"/>
<polygon fill="#63b8ff" stroke="#63b8ff" points="226.5,-134.91 216.87,-130.49 221.64,-139.95 226.5,-134.91"/>
</g>
</g>
</svg>
