<?xml version="1.0" encoding="UTF-8" standalone="no"?>
<!DOCTYPE svg PUBLIC "-//W3C//DTD SVG 1.1//EN"
 "http://www.w3.org/Graphics/SVG/1.1/DTD/svg11.dtd">
<!-- Generated by graphviz version 7.0.5 (20221223.1930)
 -->
<!-- Title: ee/kernel/src/initsys.c Pages: 1 -->
<svg width="335pt" height="302pt"
 viewBox="0.00 0.00 334.97 302.00" xmlns="http://www.w3.org/2000/svg" xmlns:xlink="http://www.w3.org/1999/xlink">
<g id="graph0" class="graph" transform="scale(1 1) rotate(0) translate(4 298)">
<title>ee/kernel/src/initsys.c</title>
<!-- Node1 -->
<g id="node1" class="node">
<title>Node1</title>
<g id="a_node1"><a xlink:title=" ">
<polygon fill="#999999" stroke="#666666" points="246.5,-294 135.5,-294 135.5,-275 246.5,-275 246.5,-294"/>
<text text-anchor="middle" x="191" y="-282" font-family="Helvetica,sans-Serif" font-size="10.00">ee/kernel/src/initsys.c</text>
</a>
</g>
</g>
<!-- Node2 -->
<g id="node2" class="node">
<title>Node2</title>
<g id="a_node2"><a xlink:href="kernel_8h.html" target="_top" xlink:title=" ">
<polygon fill="white" stroke="#666666" points="50,-184 0,-184 0,-165 50,-165 50,-184"/>
<text text-anchor="middle" x="25" y="-172" font-family="Helvetica,sans-Serif" font-size="10.00">kernel.h</text>
</a>
</g>
</g>
<!-- Node1&#45;&gt;Node2 -->
<g id="edge1" class="edge">
<title>Node1&#45;&gt;Node2</title>
<path fill="none" stroke="#63b8ff" d="M177.42,-274.66C149.08,-256.23 83.41,-213.5 48.23,-190.62"/>
<polygon fill="#63b8ff" stroke="#63b8ff" points="50.33,-187.81 40.04,-185.29 46.51,-193.67 50.33,-187.81"/>
</g>
<!-- Node7 -->
<g id="node7" class="node">
<title>Node7</title>
<g id="a_node7"><a xlink:href="timer_8h.html" target="_top" xlink:title=" ">
<polygon fill="white" stroke="#666666" points="307,-184 261,-184 261,-165 307,-165 307,-184"/>
<text text-anchor="middle" x="284" y="-172" font-family="Helvetica,sans-Serif" font-size="10.00">timer.h</text>
</a>
</g>
</g>
<!-- Node1&#45;&gt;Node7 -->
<g id="edge6" class="edge">
<title>Node1&#45;&gt;Node7</title>
<path fill="none" stroke="#63b8ff" d="M196.95,-274.52C205.47,-261.89 221.91,-238.36 238,-220 246.59,-210.2 256.96,-200.04 265.68,-191.91"/>
<polygon fill="#63b8ff" stroke="#63b8ff" points="267.9,-194.62 272.91,-185.29 263.17,-189.46 267.9,-194.62"/>
</g>
<!-- Node8 -->
<g id="node8" class="node">
<title>Node8</title>
<g id="a_node8"><a xlink:href="string_8h_source.html" target="_top" xlink:title=" ">
<polygon fill="white" stroke="#666666" points="184,-239 136,-239 136,-220 184,-220 184,-239"/>
<text text-anchor="middle" x="160" y="-227" font-family="Helvetica,sans-Serif" font-size="10.00">string.h</text>
</a>
</g>
</g>
<!-- Node1&#45;&gt;Node8 -->
<g id="edge8" class="edge">
<title>Node1&#45;&gt;Node8</title>
<path fill="none" stroke="#63b8ff" d="M185.88,-274.75C181.82,-267.81 176.01,-257.86 170.91,-249.16"/>
<polygon fill="#63b8ff" stroke="#63b8ff" points="174.06,-247.61 165.99,-240.75 168.02,-251.15 174.06,-247.61"/>
</g>
<!-- Node14 -->
<g id="node14" class="node">
<title>Node14</title>
<g id="a_node14"><a xlink:href="timer__alarm_8h_source.html" target="_top" xlink:title=" ">
<polygon fill="white" stroke="#666666" points="321.5,-239 246.5,-239 246.5,-220 321.5,-220 321.5,-239"/>
<text text-anchor="middle" x="284" y="-227" font-family="Helvetica,sans-Serif" font-size="10.00">timer_alarm.h</text>
</a>
</g>
</g>
<!-- Node1&#45;&gt;Node14 -->
<g id="edge19" class="edge">
<title>Node1&#45;&gt;Node14</title>
<path fill="none" stroke="#63b8ff" d="M206.78,-274.51C221.02,-266.39 242.24,-254.3 258.83,-244.85"/>
<polygon fill="#63b8ff" stroke="#63b8ff" points="260.19,-248.1 267.14,-240.11 256.72,-242.02 260.19,-248.1"/>
</g>
<!-- Node3 -->
<g id="node3" class="node">
<title>Node3</title>
<g id="a_node3"><a xlink:title=" ">
<polygon fill="#e0e0e0" stroke="#999999" points="84.5,-19 33.5,-19 33.5,0 84.5,0 84.5,-19"/>
<text text-anchor="middle" x="59" y="-7" font-family="Helvetica,sans-Serif" font-size="10.00">stddef.h</text>
</a>
</g>
</g>
<!-- Node2&#45;&gt;Node3 -->
<g id="edge2" class="edge">
<title>Node2&#45;&gt;Node3</title>
<path fill="none" stroke="#63b8ff" d="M21.4,-164.82C17.94,-155.99 12.97,-141.81 11,-129 7.86,-108.53 14.29,-58.73 16,-55 20.99,-44.1 29.81,-34.24 38.16,-26.59"/>
<polygon fill="#63b8ff" stroke="#63b8ff" points="40.34,-29.34 45.69,-20.19 35.8,-24 40.34,-29.34"/>
</g>
<!-- Node4 -->
<g id="node4" class="node">
<title>Node4</title>
<g id="a_node4"><a xlink:title=" ">
<polygon fill="#e0e0e0" stroke="#999999" points="77.5,-129 26.5,-129 26.5,-110 77.5,-110 77.5,-129"/>
<text text-anchor="middle" x="52" y="-117" font-family="Helvetica,sans-Serif" font-size="10.00">stdarg.h</text>
</a>
</g>
</g>
<!-- Node2&#45;&gt;Node4 -->
<g id="edge3" class="edge">
<title>Node2&#45;&gt;Node4</title>
<path fill="none" stroke="#63b8ff" d="M29.46,-164.75C32.95,-157.88 37.95,-148.08 42.35,-139.45"/>
<polygon fill="#63b8ff" stroke="#63b8ff" points="45.34,-141.29 46.76,-130.79 39.1,-138.11 45.34,-141.29"/>
</g>
<!-- Node5 -->
<g id="node5" class="node">
<title>Node5</title>
<g id="a_node5"><a xlink:href="sifdma_8h.html" target="_top" xlink:title=" ">
<polygon fill="white" stroke="#666666" points="78.5,-74 25.5,-74 25.5,-55 78.5,-55 78.5,-74"/>
<text text-anchor="middle" x="52" y="-62" font-family="Helvetica,sans-Serif" font-size="10.00">sifdma.h</text>
</a>
</g>
</g>
<!-- Node2&#45;&gt;Node5 -->
<g id="edge4" class="edge">
<title>Node2&#45;&gt;Node5</title>
<path fill="none" stroke="#63b8ff" d="M21.42,-164.61C16.93,-152.09 10.53,-128.69 17,-110 20.52,-99.83 27.43,-90.22 34.19,-82.55"/>
<polygon fill="#63b8ff" stroke="#63b8ff" points="36.69,-84.99 41.07,-75.35 31.63,-80.16 36.69,-84.99"/>
</g>
<!-- Node6 -->
<g id="node6" class="node">
<title>Node6</title>
<g id="a_node6"><a xlink:href="tamtypes_8h.html" target="_top" xlink:title=" ">
<polygon fill="white" stroke="#666666" points="277,-19 213,-19 213,0 277,0 277,-19"/>
<text text-anchor="middle" x="245" y="-7" font-family="Helvetica,sans-Serif" font-size="10.00">tamtypes.h</text>
</a>
</g>
</g>
<!-- Node5&#45;&gt;Node6 -->
<g id="edge5" class="edge">
<title>Node5&#45;&gt;Node6</title>
<path fill="none" stroke="#63b8ff" d="M78.84,-56.13C110.7,-47.38 164.26,-32.67 201.94,-22.32"/>
<polygon fill="#63b8ff" stroke="#63b8ff" points="202.43,-25.82 211.14,-19.8 200.57,-19.07 202.43,-25.82"/>
</g>
<!-- Node7&#45;&gt;Node6 -->
<g id="edge7" class="edge">
<title>Node7&#45;&gt;Node6</title>
<path fill="none" stroke="#63b8ff" d="M285.67,-164.51C289.05,-144.22 295.22,-93.62 281,-55 277.2,-44.68 269.96,-34.96 262.96,-27.26"/>
<polygon fill="#63b8ff" stroke="#63b8ff" points="265.63,-24.99 256.13,-20.3 260.64,-29.89 265.63,-24.99"/>
</g>
<!-- Node9 -->
<g id="node9" class="node">
<title>Node9</title>
<g id="a_node9"><a xlink:href="sysclib_8h.html" target="_top" xlink:title=" ">
<polygon fill="white" stroke="#666666" points="186,-184 132,-184 132,-165 186,-165 186,-184"/>
<text text-anchor="middle" x="159" y="-172" font-family="Helvetica,sans-Serif" font-size="10.00">sysclib.h</text>
</a>
</g>
</g>
<!-- Node8&#45;&gt;Node9 -->
<g id="edge9" class="edge">
<title>Node8&#45;&gt;Node9</title>
<path fill="none" stroke="#63b8ff" d="M159.83,-219.75C159.71,-213.27 159.54,-204.16 159.38,-195.9"/>
<polygon fill="#63b8ff" stroke="#63b8ff" points="162.89,-195.89 159.2,-185.96 155.89,-196.02 162.89,-195.89"/>
</g>
<!-- Node9&#45;&gt;Node4 -->
<g id="edge15" class="edge">
<title>Node9&#45;&gt;Node4</title>
<path fill="none" stroke="#63b8ff" d="M140.85,-164.51C124.22,-156.27 99.36,-143.96 80.15,-134.45"/>
<polygon fill="#63b8ff" stroke="#63b8ff" points="81.75,-131.33 71.24,-130.03 78.65,-137.6 81.75,-131.33"/>
</g>
<!-- Node10 -->
<g id="node10" class="node">
<title>Node10</title>
<g id="a_node10"><a xlink:href="iop_2kernel_2include_2types_8h_source.html" target="_top" xlink:title=" ">
<polygon fill="white" stroke="#666666" points="158.5,-74 111.5,-74 111.5,-55 158.5,-55 158.5,-74"/>
<text text-anchor="middle" x="135" y="-62" font-family="Helvetica,sans-Serif" font-size="10.00">types.h</text>
</a>
</g>
</g>
<!-- Node9&#45;&gt;Node10 -->
<g id="edge10" class="edge">
<title>Node9&#45;&gt;Node10</title>
<path fill="none" stroke="#63b8ff" d="M157.04,-164.66C153.22,-147.5 144.72,-109.26 139.47,-85.6"/>
<polygon fill="#63b8ff" stroke="#63b8ff" points="142.91,-84.94 137.32,-75.94 136.07,-86.46 142.91,-84.94"/>
</g>
<!-- Node11 -->
<g id="node11" class="node">
<title>Node11</title>
<g id="a_node11"><a xlink:href="irx_8h.html" target="_top" xlink:title=" ">
<polygon fill="white" stroke="#666666" points="130,-129 96,-129 96,-110 130,-110 130,-129"/>
<text text-anchor="middle" x="113" y="-117" font-family="Helvetica,sans-Serif" font-size="10.00">irx.h</text>
</a>
</g>
</g>
<!-- Node9&#45;&gt;Node11 -->
<g id="edge13" class="edge">
<title>Node9&#45;&gt;Node11</title>
<path fill="none" stroke="#63b8ff" d="M151.4,-164.75C145.12,-157.5 135.99,-146.98 128.2,-138.02"/>
<polygon fill="#63b8ff" stroke="#63b8ff" points="130.95,-135.84 121.75,-130.59 125.66,-140.43 130.95,-135.84"/>
</g>
<!-- Node12 -->
<g id="node12" class="node">
<title>Node12</title>
<g id="a_node12"><a xlink:href="setjmp_8h.html" target="_top" xlink:title=" ">
<polygon fill="white" stroke="#666666" points="271.5,-74 218.5,-74 218.5,-55 271.5,-55 271.5,-74"/>
<text text-anchor="middle" x="245" y="-62" font-family="Helvetica,sans-Serif" font-size="10.00">setjmp.h</text>
</a>
</g>
</g>
<!-- Node9&#45;&gt;Node12 -->
<g id="edge16" class="edge">
<title>Node9&#45;&gt;Node12</title>
<path fill="none" stroke="#63b8ff" d="M186.35,-166.85C205.77,-160.56 230.51,-149.03 243,-129 251.05,-116.09 251.01,-98.66 249.25,-85.33"/>
<polygon fill="#63b8ff" stroke="#63b8ff" points="252.72,-84.81 247.52,-75.57 245.82,-86.03 252.72,-84.81"/>
</g>
<!-- Node13 -->
<g id="node13" class="node">
<title>Node13</title>
<g id="a_node13"><a xlink:href="ctype_8h.html" target="_top" xlink:title=" ">
<polygon fill="white" stroke="#666666" points="233.5,-129 186.5,-129 186.5,-110 233.5,-110 233.5,-129"/>
<text text-anchor="middle" x="210" y="-117" font-family="Helvetica,sans-Serif" font-size="10.00">ctype.h</text>
</a>
</g>
</g>
<!-- Node9&#45;&gt;Node13 -->
<g id="edge18" class="edge">
<title>Node9&#45;&gt;Node13</title>
<path fill="none" stroke="#63b8ff" d="M167.42,-164.75C174.47,-157.43 184.73,-146.76 193.41,-137.74"/>
<polygon fill="#63b8ff" stroke="#63b8ff" points="195.93,-140.17 200.35,-130.53 190.89,-135.31 195.93,-140.17"/>
</g>
<!-- Node10&#45;&gt;Node3 -->
<g id="edge11" class="edge">
<title>Node10&#45;&gt;Node3</title>
<path fill="none" stroke="#63b8ff" d="M122.11,-54.51C110.9,-46.7 94.43,-35.21 81.12,-25.93"/>
<polygon fill="#63b8ff" stroke="#63b8ff" points="83.15,-23.07 72.94,-20.22 79.14,-28.81 83.15,-23.07"/>
</g>
<!-- Node10&#45;&gt;Node6 -->
<g id="edge12" class="edge">
<title>Node10&#45;&gt;Node6</title>
<path fill="none" stroke="#63b8ff" d="M153.66,-54.51C170.83,-46.24 196.55,-33.84 216.33,-24.31"/>
<polygon fill="#63b8ff" stroke="#63b8ff" points="217.76,-27.51 225.25,-20.01 214.72,-21.2 217.76,-27.51"/>
</g>
<!-- Node11&#45;&gt;Node10 -->
<g id="edge14" class="edge">
<title>Node11&#45;&gt;Node10</title>
<path fill="none" stroke="#63b8ff" d="M116.63,-109.75C119.42,-103.04 123.37,-93.52 126.9,-85.02"/>
<polygon fill="#63b8ff" stroke="#63b8ff" points="130.11,-86.42 130.71,-75.84 123.64,-83.73 130.11,-86.42"/>
</g>
<!-- Node12&#45;&gt;Node6 -->
<g id="edge17" class="edge">
<title>Node12&#45;&gt;Node6</title>
<path fill="none" stroke="#63b8ff" d="M245,-54.75C245,-48.27 245,-39.16 245,-30.9"/>
<polygon fill="#63b8ff" stroke="#63b8ff" points="248.5,-30.96 245,-20.96 241.5,-30.96 248.5,-30.96"/>
</g>
<!-- Node14&#45;&gt;Node6 -->
<g id="edge20" class="edge">
<title>Node14&#45;&gt;Node6</title>
<path fill="none" stroke="#63b8ff" d="M293.05,-219.58C300.84,-211.22 311.51,-197.95 316,-184 327.64,-147.89 338.6,-128.16 297,-55 290.41,-43.42 279.62,-33.44 269.56,-25.89"/>
<polygon fill="#63b8ff" stroke="#63b8ff" points="271.75,-23.15 261.55,-20.28 267.74,-28.88 271.75,-23.15"/>
</g>
<!-- Node14&#45;&gt;Node7 -->
<g id="edge21" class="edge">
<title>Node14&#45;&gt;Node7</title>
<path fill="none" stroke="#63b8ff" d="M284,-219.75C284,-213.27 284,-204.16 284,-195.9"/>
<polygon fill="#63b8ff" stroke="#63b8ff" points="287.5,-195.96 284,-185.96 280.5,-195.96 287.5,-195.96"/>
</g>
</g>
</svg>
