<?xml version="1.0" encoding="UTF-8" standalone="no"?>
<!DOCTYPE svg PUBLIC "-//W3C//DTD SVG 1.1//EN"
 "http://www.w3.org/Graphics/SVG/1.1/DTD/svg11.dtd">
<!-- Generated by graphviz version 7.0.5 (20221223.1930)
 -->
<!-- Title: iop/usb/usbd/src/interface.c Pages: 1 -->
<svg width="382pt" height="357pt"
 viewBox="0.00 0.00 382.00 357.00" xmlns="http://www.w3.org/2000/svg" xmlns:xlink="http://www.w3.org/1999/xlink">
<g id="graph0" class="graph" transform="scale(1 1) rotate(0) translate(4 353)">
<title>iop/usb/usbd/src/interface.c</title>
<!-- Node1 -->
<g id="node1" class="node">
<title>Node1</title>
<g id="a_node1"><a xlink:title=" ">
<polygon fill="#999999" stroke="#666666" points="231,-349 94,-349 94,-330 231,-330 231,-349"/>
<text text-anchor="middle" x="162.5" y="-337" font-family="Helvetica,sans-Serif" font-size="10.00">iop/usb/usbd/src/interface.c</text>
</a>
</g>
</g>
<!-- Node2 -->
<g id="node2" class="node">
<title>Node2</title>
<g id="a_node2"><a xlink:href="defs_8h.html" target="_top" xlink:title=" ">
<polygon fill="white" stroke="#666666" points="43,-239 0,-239 0,-220 43,-220 43,-239"/>
<text text-anchor="middle" x="21.5" y="-227" font-family="Helvetica,sans-Serif" font-size="10.00">defs.h</text>
</a>
</g>
</g>
<!-- Node1&#45;&gt;Node2 -->
<g id="edge1" class="edge">
<title>Node1&#45;&gt;Node2</title>
<path fill="none" stroke="#63b8ff" d="M127.1,-329.53C105.38,-322.63 78.07,-311.3 58.5,-294 44.91,-281.99 35,-263.73 28.88,-249.87"/>
<polygon fill="#63b8ff" stroke="#63b8ff" points="32.23,-248.82 25.2,-240.9 25.75,-251.48 32.23,-248.82"/>
</g>
<!-- Node6 -->
<g id="node6" class="node">
<title>Node6</title>
<g id="a_node6"><a xlink:href="thbase_8h.html" target="_top" xlink:title=" ">
<polygon fill="white" stroke="#666666" points="101,-184 48,-184 48,-165 101,-165 101,-184"/>
<text text-anchor="middle" x="74.5" y="-172" font-family="Helvetica,sans-Serif" font-size="10.00">thbase.h</text>
</a>
</g>
</g>
<!-- Node1&#45;&gt;Node6 -->
<g id="edge5" class="edge">
<title>Node1&#45;&gt;Node6</title>
<path fill="none" stroke="#63b8ff" d="M152.89,-329.73C144.06,-321.26 131.09,-307.74 122.5,-294 102.37,-261.78 87.7,-219.67 80.19,-195.3"/>
<polygon fill="#63b8ff" stroke="#63b8ff" points="83.56,-194.36 77.35,-185.77 76.85,-196.35 83.56,-194.36"/>
</g>
<!-- Node8 -->
<g id="node8" class="node">
<title>Node8</title>
<g id="a_node8"><a xlink:href="usbdpriv_8h.html" target="_top" xlink:title=" ">
<polygon fill="white" stroke="#666666" points="208,-239 147,-239 147,-220 208,-220 208,-239"/>
<text text-anchor="middle" x="177.5" y="-227" font-family="Helvetica,sans-Serif" font-size="10.00">usbdpriv.h</text>
</a>
</g>
</g>
<!-- Node1&#45;&gt;Node8 -->
<g id="edge9" class="edge">
<title>Node1&#45;&gt;Node8</title>
<path fill="none" stroke="#63b8ff" d="M152.28,-329.64C139.63,-317.54 120.75,-295.04 129.5,-275 134.55,-263.44 144.24,-253.54 153.6,-246.03"/>
<polygon fill="#63b8ff" stroke="#63b8ff" points="155.48,-249 161.45,-240.25 151.33,-243.36 155.48,-249"/>
</g>
<!-- Node11 -->
<g id="node11" class="node">
<title>Node11</title>
<g id="a_node11"><a xlink:href="driver_8h.html" target="_top" xlink:title=" ">
<polygon fill="white" stroke="#666666" points="186.5,-294 138.5,-294 138.5,-275 186.5,-275 186.5,-294"/>
<text text-anchor="middle" x="162.5" y="-282" font-family="Helvetica,sans-Serif" font-size="10.00">driver.h</text>
</a>
</g>
</g>
<!-- Node1&#45;&gt;Node11 -->
<g id="edge14" class="edge">
<title>Node1&#45;&gt;Node11</title>
<path fill="none" stroke="#63b8ff" d="M162.5,-329.75C162.5,-323.27 162.5,-314.16 162.5,-305.9"/>
<polygon fill="#63b8ff" stroke="#63b8ff" points="166,-305.96 162.5,-295.96 159,-305.96 166,-305.96"/>
</g>
<!-- Node12 -->
<g id="node12" class="node">
<title>Node12</title>
<g id="a_node12"><a xlink:href="mem_8h.html" target="_top" xlink:title=" ">
<polygon fill="white" stroke="#666666" points="250.5,-294 204.5,-294 204.5,-275 250.5,-275 250.5,-294"/>
<text text-anchor="middle" x="227.5" y="-282" font-family="Helvetica,sans-Serif" font-size="10.00">mem.h</text>
</a>
</g>
</g>
<!-- Node1&#45;&gt;Node12 -->
<g id="edge16" class="edge">
<title>Node1&#45;&gt;Node12</title>
<path fill="none" stroke="#63b8ff" d="M173.53,-329.51C182.92,-321.85 196.65,-310.66 207.91,-301.47"/>
<polygon fill="#63b8ff" stroke="#63b8ff" points="209.93,-304.35 215.46,-295.31 205.5,-298.92 209.93,-304.35"/>
</g>
<!-- Node13 -->
<g id="node13" class="node">
<title>Node13</title>
<g id="a_node13"><a xlink:href="hcd_8h.html" target="_top" xlink:title=" ">
<polygon fill="white" stroke="#666666" points="308.5,-294 268.5,-294 268.5,-275 308.5,-275 308.5,-294"/>
<text text-anchor="middle" x="288.5" y="-282" font-family="Helvetica,sans-Serif" font-size="10.00">hcd.h</text>
</a>
</g>
</g>
<!-- Node1&#45;&gt;Node13 -->
<g id="edge18" class="edge">
<title>Node1&#45;&gt;Node13</title>
<path fill="none" stroke="#63b8ff" d="M183.87,-329.51C204.15,-320.98 234.83,-308.08 257.73,-298.44"/>
<polygon fill="#63b8ff" stroke="#63b8ff" points="259.02,-301.7 266.88,-294.59 256.3,-295.25 259.02,-301.7"/>
</g>
<!-- Node14 -->
<g id="node14" class="node">
<title>Node14</title>
<g id="a_node14"><a xlink:href="usbio_8h.html" target="_top" xlink:title=" ">
<polygon fill="white" stroke="#666666" points="374,-294 327,-294 327,-275 374,-275 374,-294"/>
<text text-anchor="middle" x="350.5" y="-282" font-family="Helvetica,sans-Serif" font-size="10.00">usbio.h</text>
</a>
</g>
</g>
<!-- Node1&#45;&gt;Node14 -->
<g id="edge20" class="edge">
<title>Node1&#45;&gt;Node14</title>
<path fill="none" stroke="#63b8ff" d="M194.39,-329.51C227.99,-320.04 280.76,-305.16 315.49,-295.37"/>
<polygon fill="#63b8ff" stroke="#63b8ff" points="316.39,-298.75 325.07,-292.67 314.49,-292.01 316.39,-298.75"/>
</g>
<!-- Node3 -->
<g id="node3" class="node">
<title>Node3</title>
<g id="a_node3"><a xlink:href="iop_2kernel_2include_2types_8h_source.html" target="_top" xlink:title=" ">
<polygon fill="white" stroke="#666666" points="89,-74 42,-74 42,-55 89,-55 89,-74"/>
<text text-anchor="middle" x="65.5" y="-62" font-family="Helvetica,sans-Serif" font-size="10.00">types.h</text>
</a>
</g>
</g>
<!-- Node2&#45;&gt;Node3 -->
<g id="edge2" class="edge">
<title>Node2&#45;&gt;Node3</title>
<path fill="none" stroke="#63b8ff" d="M23.8,-219.87C27.06,-207.65 33.21,-184.61 38.5,-165 45.95,-137.37 54.63,-105.43 60.09,-85.36"/>
<polygon fill="#63b8ff" stroke="#63b8ff" points="63.46,-86.31 62.71,-75.74 56.7,-84.47 63.46,-86.31"/>
</g>
<!-- Node4 -->
<g id="node4" class="node">
<title>Node4</title>
<g id="a_node4"><a xlink:title=" ">
<polygon fill="#e0e0e0" stroke="#999999" points="53,-19 2,-19 2,0 53,0 53,-19"/>
<text text-anchor="middle" x="27.5" y="-7" font-family="Helvetica,sans-Serif" font-size="10.00">stddef.h</text>
</a>
</g>
</g>
<!-- Node3&#45;&gt;Node4 -->
<g id="edge3" class="edge">
<title>Node3&#45;&gt;Node4</title>
<path fill="none" stroke="#63b8ff" d="M59.23,-54.75C54.14,-47.66 46.8,-37.42 40.47,-28.59"/>
<polygon fill="#63b8ff" stroke="#63b8ff" points="43.46,-26.76 34.79,-20.67 37.78,-30.84 43.46,-26.76"/>
</g>
<!-- Node5 -->
<g id="node5" class="node">
<title>Node5</title>
<g id="a_node5"><a xlink:href="tamtypes_8h.html" target="_top" xlink:title=" ">
<polygon fill="white" stroke="#666666" points="135.5,-19 71.5,-19 71.5,0 135.5,0 135.5,-19"/>
<text text-anchor="middle" x="103.5" y="-7" font-family="Helvetica,sans-Serif" font-size="10.00">tamtypes.h</text>
</a>
</g>
</g>
<!-- Node3&#45;&gt;Node5 -->
<g id="edge4" class="edge">
<title>Node3&#45;&gt;Node5</title>
<path fill="none" stroke="#63b8ff" d="M71.77,-54.75C76.86,-47.66 84.2,-37.42 90.53,-28.59"/>
<polygon fill="#63b8ff" stroke="#63b8ff" points="93.22,-30.84 96.21,-20.67 87.54,-26.76 93.22,-30.84"/>
</g>
<!-- Node6&#45;&gt;Node3 -->
<g id="edge6" class="edge">
<title>Node6&#45;&gt;Node3</title>
<path fill="none" stroke="#63b8ff" d="M73.76,-164.66C72.34,-147.57 69.18,-109.61 67.2,-85.92"/>
<polygon fill="#63b8ff" stroke="#63b8ff" points="70.69,-85.64 66.37,-75.97 63.72,-86.22 70.69,-85.64"/>
</g>
<!-- Node7 -->
<g id="node7" class="node">
<title>Node7</title>
<g id="a_node7"><a xlink:href="irx_8h.html" target="_top" xlink:title=" ">
<polygon fill="white" stroke="#666666" points="127.5,-129 93.5,-129 93.5,-110 127.5,-110 127.5,-129"/>
<text text-anchor="middle" x="110.5" y="-117" font-family="Helvetica,sans-Serif" font-size="10.00">irx.h</text>
</a>
</g>
</g>
<!-- Node6&#45;&gt;Node7 -->
<g id="edge7" class="edge">
<title>Node6&#45;&gt;Node7</title>
<path fill="none" stroke="#63b8ff" d="M80.44,-164.75C85.21,-157.73 92.06,-147.64 98.02,-138.87"/>
<polygon fill="#63b8ff" stroke="#63b8ff" points="100.85,-140.93 103.58,-130.69 95.06,-137 100.85,-140.93"/>
</g>
<!-- Node7&#45;&gt;Node3 -->
<g id="edge8" class="edge">
<title>Node7&#45;&gt;Node3</title>
<path fill="none" stroke="#63b8ff" d="M103.07,-109.75C96.92,-102.5 87.99,-91.98 80.37,-83.02"/>
<polygon fill="#63b8ff" stroke="#63b8ff" points="83.21,-80.95 74.07,-75.6 77.88,-85.48 83.21,-80.95"/>
</g>
<!-- Node9 -->
<g id="node9" class="node">
<title>Node9</title>
<g id="a_node9"><a xlink:href="usbd_8h.html" target="_top" xlink:title=" ">
<polygon fill="white" stroke="#666666" points="164,-184 119,-184 119,-165 164,-165 164,-184"/>
<text text-anchor="middle" x="141.5" y="-172" font-family="Helvetica,sans-Serif" font-size="10.00">usbd.h</text>
</a>
</g>
</g>
<!-- Node8&#45;&gt;Node9 -->
<g id="edge10" class="edge">
<title>Node8&#45;&gt;Node9</title>
<path fill="none" stroke="#63b8ff" d="M171.56,-219.75C166.79,-212.73 159.94,-202.64 153.98,-193.87"/>
<polygon fill="#63b8ff" stroke="#63b8ff" points="156.94,-192 148.42,-185.69 151.15,-195.93 156.94,-192"/>
</g>
<!-- Node10 -->
<g id="node10" class="node">
<title>Node10</title>
<g id="a_node10"><a xlink:title=" ">
<polygon fill="#e0e0e0" stroke="#999999" points="204,-129 157,-129 157,-110 204,-110 204,-129"/>
<text text-anchor="middle" x="180.5" y="-117" font-family="Helvetica,sans-Serif" font-size="10.00">types.h</text>
</a>
</g>
</g>
<!-- Node8&#45;&gt;Node10 -->
<g id="edge13" class="edge">
<title>Node8&#45;&gt;Node10</title>
<path fill="none" stroke="#63b8ff" d="M177.75,-219.66C178.22,-202.57 179.27,-164.61 179.93,-140.92"/>
<polygon fill="#63b8ff" stroke="#63b8ff" points="183.43,-141.07 180.21,-130.97 176.43,-140.87 183.43,-141.07"/>
</g>
<!-- Node9&#45;&gt;Node7 -->
<g id="edge12" class="edge">
<title>Node9&#45;&gt;Node7</title>
<path fill="none" stroke="#63b8ff" d="M136.38,-164.75C132.32,-157.81 126.51,-147.86 121.41,-139.16"/>
<polygon fill="#63b8ff" stroke="#63b8ff" points="124.56,-137.61 116.49,-130.75 118.52,-141.15 124.56,-137.61"/>
</g>
<!-- Node9&#45;&gt;Node10 -->
<g id="edge11" class="edge">
<title>Node9&#45;&gt;Node10</title>
<path fill="none" stroke="#63b8ff" d="M147.94,-164.75C153.16,-157.66 160.69,-147.42 167.19,-138.59"/>
<polygon fill="#63b8ff" stroke="#63b8ff" points="169.92,-140.79 173.02,-130.66 164.28,-136.64 169.92,-140.79"/>
</g>
<!-- Node11&#45;&gt;Node8 -->
<g id="edge15" class="edge">
<title>Node11&#45;&gt;Node8</title>
<path fill="none" stroke="#63b8ff" d="M164.98,-274.75C166.85,-268.11 169.51,-258.73 171.89,-250.31"/>
<polygon fill="#63b8ff" stroke="#63b8ff" points="175.2,-251.47 174.56,-240.9 168.47,-249.57 175.2,-251.47"/>
</g>
<!-- Node12&#45;&gt;Node8 -->
<g id="edge17" class="edge">
<title>Node12&#45;&gt;Node8</title>
<path fill="none" stroke="#63b8ff" d="M219.24,-274.75C212.34,-267.43 202.28,-256.76 193.76,-247.74"/>
<polygon fill="#63b8ff" stroke="#63b8ff" points="196.38,-245.42 186.97,-240.54 191.29,-250.22 196.38,-245.42"/>
</g>
<!-- Node13&#45;&gt;Node8 -->
<g id="edge19" class="edge">
<title>Node13&#45;&gt;Node8</title>
<path fill="none" stroke="#63b8ff" d="M269.67,-274.51C252.34,-266.24 226.39,-253.84 206.43,-244.31"/>
<polygon fill="#63b8ff" stroke="#63b8ff" points="207.95,-241.16 197.42,-240.01 204.93,-247.48 207.95,-241.16"/>
</g>
</g>
</svg>
