<?xml version="1.0" encoding="UTF-8" standalone="no"?>
<!DOCTYPE svg PUBLIC "-//W3C//DTD SVG 1.1//EN"
 "http://www.w3.org/Graphics/SVG/1.1/DTD/svg11.dtd">
<!-- Generated by graphviz version 7.0.5 (20221223.1930)
 -->
<!-- Title: common/include/io_common.h Pages: 1 -->
<svg width="159pt" height="82pt"
 viewBox="0.00 0.00 158.50 82.00" xmlns="http://www.w3.org/2000/svg" xmlns:xlink="http://www.w3.org/1999/xlink">
<g id="graph0" class="graph" transform="scale(1 1) rotate(0) translate(4 78)">
<title>common/include/io_common.h</title>
<!-- Node1 -->
<g id="node1" class="node">
<title>Node1</title>
<g id="a_node1"><a xlink:title=" ">
<polygon fill="#999999" stroke="#666666" points="149,-74 0,-74 0,-55 149,-55 149,-74"/>
<text text-anchor="middle" x="74.5" y="-62" font-family="Helvetica,sans-Serif" font-size="10.00">common/include/io_common.h</text>
</a>
</g>
</g>
<!-- Node2 -->
<g id="node2" class="node">
<title>Node2</title>
<g id="a_node2"><a xlink:href="fcntl_8h_source.html" target="_top" xlink:title=" ">
<polygon fill="white" stroke="#666666" points="64,-19 3,-19 3,0 64,0 64,-19"/>
<text text-anchor="middle" x="33.5" y="-7" font-family="Helvetica,sans-Serif" font-size="10.00">sys/fcntl.h</text>
</a>
</g>
</g>
<!-- Node1&#45;&gt;Node2 -->
<g id="edge1" class="edge">
<title>Node1&#45;&gt;Node2</title>
<path fill="none" stroke="#63b8ff" d="M67.73,-54.75C62.18,-47.58 54.16,-37.2 47.27,-28.3"/>
<polygon fill="#63b8ff" stroke="#63b8ff" points="50.23,-26.41 41.34,-20.64 44.69,-30.69 50.23,-26.41"/>
</g>
<!-- Node3 -->
<g id="node3" class="node">
<title>Node3</title>
<g id="a_node3"><a xlink:href="unistd_8h_source.html" target="_top" xlink:title=" ">
<polygon fill="white" stroke="#666666" points="150.5,-19 82.5,-19 82.5,0 150.5,0 150.5,-19"/>
<text text-anchor="middle" x="116.5" y="-7" font-family="Helvetica,sans-Serif" font-size="10.00">sys/unistd.h</text>
</a>
</g>
</g>
<!-- Node1&#45;&gt;Node3 -->
<g id="edge2" class="edge">
<title>Node1&#45;&gt;Node3</title>
<path fill="none" stroke="#63b8ff" d="M81.44,-54.75C87.12,-47.58 95.34,-37.2 102.39,-28.3"/>
<polygon fill="#63b8ff" stroke="#63b8ff" points="105.01,-30.64 108.47,-20.63 99.52,-26.29 105.01,-30.64"/>
</g>
</g>
</svg>
