<?xml version="1.0" encoding="UTF-8" standalone="no"?>
<!DOCTYPE svg PUBLIC "-//W3C//DTD SVG 1.1//EN"
 "http://www.w3.org/Graphics/SVG/1.1/DTD/svg11.dtd">
<!-- Generated by graphviz version 7.0.5 (20221223.1930)
 -->
<!-- Title: iop/kernel/include/iomanX.h Pages: 1 -->
<!--zoomable 104 -->
<svg id="main" version="1.1" xmlns="http://www.w3.org/2000/svg" xmlns:xlink="http://www.w3.org/1999/xlink" xml:space="preserve" onload="init(evt)">
<style type="text/css"><![CDATA[
.edge:hover path { stroke: red; }
.edge:hover polygon { stroke: red; fill: red; }
]]></style>
<script type="text/javascript"><![CDATA[
var edges = document.getElementsByTagName('g');
if (edges && edges.length) {
  for (var i=0;i<edges.length;i++) {
    if (edges[i].id.substr(0,4)=='edge') {
      edges[i].setAttribute('class','edge');
    }
  }
}
]]></script>
        <defs>
                <circle id="rim" cx="0" cy="0" r="7"/>
                <circle id="rim2" cx="0" cy="0" r="3.5"/>
                <g id="zoomPlus">
                        <use xlink:href="#rim" fill="#404040">
                                <set attributeName="fill" to="#808080" begin="zoomplus.mouseover" end="zoomplus.mouseout"/>
                        </use>
                        <path d="M-4,0h8M0,-4v8" fill="none" stroke="white" stroke-width="1.5" pointer-events="none"/>
                </g>
                <g id="zoomMin">
                        <use xlink:href="#rim" fill="#404040">
                                <set attributeName="fill" to="#808080" begin="zoomminus.mouseover" end="zoomminus.mouseout"/>
                        </use>
                        <path d="M-4,0h8" fill="none" stroke="white" stroke-width="1.5" pointer-events="none"/>
                </g>
                <g id="dirArrow">
                        <path fill="none" stroke="white" stroke-width="1.5" d="M0,-3.0v7 M-2.5,-0.5L0,-3.0L2.5,-0.5"/>
                </g>
               <g id="resetDef">
                       <use xlink:href="#rim2" fill="#404040">
                               <set attributeName="fill" to="#808080" begin="reset.mouseover" end="reset.mouseout"/>
                       </use>
               </g>
        </defs>

<script type="text/javascript">
var viewWidth = 5991;
var viewHeight = 104;
var sectionId = 'dynsection-1';
</script>
<script xlink:href="svgpan.js"/>
<svg id="graph" class="graph">
<g id="viewport">
<title>iop/kernel/include/iomanX.h</title>
<!-- Node1 -->
<g id="node1" class="node">
<title>Node1</title>
<g id="a_node1"><a xlink:title=" ">
<polygon fill="#999999" stroke="#666666" points="3010.5,-96 2918.5,-96 2918.5,-66 3010.5,-66 3010.5,-96"/>
<text text-anchor="start" x="2926.5" y="-84" font-family="Helvetica,sans-Serif" font-size="10.00">iop/kernel/include</text>
<text text-anchor="middle" x="2964.5" y="-73" font-family="Helvetica,sans-Serif" font-size="10.00">/iomanX.h</text>
</a>
</g>
</g>
<!-- Node2 -->
<g id="node2" class="node">
<title>Node2</title>
<g id="a_node2"><a xlink:href="ps2dev9_8c.html" target="_top" xlink:title=" ">
<polygon fill="white" stroke="#666666" points="141,-24.5 0,-24.5 0,-5.5 141,-5.5 141,-24.5"/>
<text text-anchor="middle" x="70.5" y="-12.5" font-family="Helvetica,sans-Serif" font-size="10.00">iop/dev9/dev9/src/ps2dev9.c</text>
</a>
</g>
</g>
<!-- Node1&#45;&gt;Node2 -->
<g id="edge1" class="edge">
<title>Node1&#45;&gt;Node2</title>
<path fill="none" stroke="#63b8ff" d="M2906.72,-80.2C2556.39,-81.22 713.04,-83.89 150.5,-30 138.71,-28.87 126.04,-26.97 114.35,-24.94"/>
<polygon fill="#63b8ff" stroke="#63b8ff" points="2906.58,-83.7 2916.56,-80.17 2906.55,-76.7 2906.58,-83.7"/>
</g>
<!-- Node3 -->
<g id="node3" class="node">
<title>Node3</title>
<g id="a_node3"><a xlink:href="iop_2dev9_2extflash_2src_2irx__imports_8h_source.html" target="_top" xlink:title=" ">
<polygon fill="white" stroke="#666666" points="265.5,-30 159.5,-30 159.5,0 265.5,0 265.5,-30"/>
<text text-anchor="start" x="167.5" y="-18" font-family="Helvetica,sans-Serif" font-size="10.00">iop/dev9/extflash/src</text>
<text text-anchor="middle" x="212.5" y="-7" font-family="Helvetica,sans-Serif" font-size="10.00">/irx_imports.h</text>
</a>
</g>
</g>
<!-- Node1&#45;&gt;Node3 -->
<g id="edge2" class="edge">
<title>Node1&#45;&gt;Node3</title>
<path fill="none" stroke="#63b8ff" d="M2906.77,-79.63C2540.24,-77.21 543.86,-62.57 274.5,-30 271.65,-29.66 268.74,-29.24 265.81,-28.76"/>
<polygon fill="#63b8ff" stroke="#63b8ff" points="2906.6,-83.13 2916.62,-79.7 2906.64,-76.13 2906.6,-83.13"/>
</g>
<!-- Node4 -->
<g id="node4" class="node">
<title>Node4</title>
<g id="a_node4"><a xlink:href="dvr_8c_source.html" target="_top" xlink:title=" ">
<polygon fill="white" stroke="#666666" points="391.5,-24.5 283.5,-24.5 283.5,-5.5 391.5,-5.5 391.5,-24.5"/>
<text text-anchor="middle" x="337.5" y="-12.5" font-family="Helvetica,sans-Serif" font-size="10.00">iop/dvrp/dvr/src/dvr.c</text>
</a>
</g>
</g>
<!-- Node1&#45;&gt;Node4 -->
<g id="edge3" class="edge">
<title>Node1&#45;&gt;Node4</title>
<path fill="none" stroke="#63b8ff" d="M2906.96,-79.57C2551.09,-76.79 656.68,-60.65 400.5,-30 391.16,-28.88 381.16,-26.99 371.95,-24.95"/>
<polygon fill="#63b8ff" stroke="#63b8ff" points="2906.71,-83.06 2916.74,-79.64 2906.76,-76.06 2906.71,-83.06"/>
</g>
<!-- Node5 -->
<g id="node5" class="node">
<title>Node5</title>
<g id="a_node5"><a xlink:href="iop_2dvrp_2dvr_2src_2irx__imports_8h_source.html" target="_top" xlink:title=" ">
<polygon fill="white" stroke="#666666" points="507,-30 410,-30 410,0 507,0 507,-30"/>
<text text-anchor="start" x="418" y="-18" font-family="Helvetica,sans-Serif" font-size="10.00">iop/dvrp/dvr/src/irx</text>
<text text-anchor="middle" x="458.5" y="-7" font-family="Helvetica,sans-Serif" font-size="10.00">_imports.h</text>
</a>
</g>
</g>
<!-- Node1&#45;&gt;Node5 -->
<g id="edge4" class="edge">
<title>Node1&#45;&gt;Node5</title>
<path fill="none" stroke="#63b8ff" d="M2906.55,-79.58C2559.11,-76.98 759.13,-62.01 515.5,-30 512.87,-29.65 510.19,-29.24 507.49,-28.76"/>
<polygon fill="#63b8ff" stroke="#63b8ff" points="2906.52,-83.08 2916.54,-79.66 2906.57,-76.08 2906.52,-83.08"/>
</g>
<!-- Node6 -->
<g id="node6" class="node">
<title>Node6</title>
<g id="a_node6"><a xlink:href="dvrav_8c_source.html" target="_top" xlink:title=" ">
<polygon fill="white" stroke="#666666" points="620,-30 525,-30 525,0 620,0 620,-30"/>
<text text-anchor="start" x="533" y="-18" font-family="Helvetica,sans-Serif" font-size="10.00">iop/dvrp/dvrav/src</text>
<text text-anchor="middle" x="572.5" y="-7" font-family="Helvetica,sans-Serif" font-size="10.00">/dvrav.c</text>
</a>
</g>
</g>
<!-- Node1&#45;&gt;Node6 -->
<g id="edge5" class="edge">
<title>Node1&#45;&gt;Node6</title>
<path fill="none" stroke="#63b8ff" d="M2907.1,-79.54C2570.54,-76.74 860.33,-61.06 628.5,-30 625.82,-29.64 623.08,-29.2 620.32,-28.7"/>
<polygon fill="#63b8ff" stroke="#63b8ff" points="2906.94,-83.04 2916.97,-79.62 2907,-76.04 2906.94,-83.04"/>
</g>
<!-- Node7 -->
<g id="node7" class="node">
<title>Node7</title>
<g id="a_node7"><a xlink:href="iop_2dvrp_2dvrav_2src_2irx__imports_8h_source.html" target="_top" xlink:title=" ">
<polygon fill="white" stroke="#666666" points="733,-30 638,-30 638,0 733,0 733,-30"/>
<text text-anchor="start" x="646" y="-18" font-family="Helvetica,sans-Serif" font-size="10.00">iop/dvrp/dvrav/src</text>
<text text-anchor="middle" x="685.5" y="-7" font-family="Helvetica,sans-Serif" font-size="10.00">/irx_imports.h</text>
</a>
</g>
</g>
<!-- Node1&#45;&gt;Node7 -->
<g id="edge6" class="edge">
<title>Node1&#45;&gt;Node7</title>
<path fill="none" stroke="#63b8ff" d="M2907.27,-79.47C2580.88,-76.37 961.51,-59.6 741.5,-30 738.82,-29.64 736.08,-29.2 733.33,-28.7"/>
<polygon fill="#63b8ff" stroke="#63b8ff" points="2906.79,-82.97 2916.82,-79.56 2906.85,-75.97 2906.79,-82.97"/>
</g>
<!-- Node8 -->
<g id="node8" class="node">
<title>Node8</title>
<g id="a_node8"><a xlink:href="dvrdv_8c_source.html" target="_top" xlink:title=" ">
<polygon fill="white" stroke="#666666" points="846,-30 751,-30 751,0 846,0 846,-30"/>
<text text-anchor="start" x="759" y="-18" font-family="Helvetica,sans-Serif" font-size="10.00">iop/dvrp/dvrdv/src</text>
<text text-anchor="middle" x="798.5" y="-7" font-family="Helvetica,sans-Serif" font-size="10.00">/dvrdv.c</text>
</a>
</g>
</g>
<!-- Node1&#45;&gt;Node8 -->
<g id="edge7" class="edge">
<title>Node1&#45;&gt;Node8</title>
<path fill="none" stroke="#63b8ff" d="M2907.19,-79.4C2590.63,-75.98 1062.65,-58.13 854.5,-30 851.82,-29.64 849.08,-29.2 846.33,-28.7"/>
<polygon fill="#63b8ff" stroke="#63b8ff" points="2906.81,-82.9 2916.85,-79.5 2906.89,-75.9 2906.81,-82.9"/>
</g>
<!-- Node9 -->
<g id="node9" class="node">
<title>Node9</title>
<g id="a_node9"><a xlink:href="iop_2dvrp_2dvrdv_2src_2irx__imports_8h_source.html" target="_top" xlink:title=" ">
<polygon fill="white" stroke="#666666" points="959,-30 864,-30 864,0 959,0 959,-30"/>
<text text-anchor="start" x="872" y="-18" font-family="Helvetica,sans-Serif" font-size="10.00">iop/dvrp/dvrdv/src</text>
<text text-anchor="middle" x="911.5" y="-7" font-family="Helvetica,sans-Serif" font-size="10.00">/irx_imports.h</text>
</a>
</g>
</g>
<!-- Node1&#45;&gt;Node9 -->
<g id="edge8" class="edge">
<title>Node1&#45;&gt;Node9</title>
<path fill="none" stroke="#63b8ff" d="M2907.01,-80.23C2621.88,-81.13 1357.79,-82.06 968.5,-30 965.47,-29.59 962.37,-29.09 959.25,-28.52"/>
<polygon fill="#63b8ff" stroke="#63b8ff" points="2906.79,-83.73 2916.78,-80.2 2906.77,-76.73 2906.79,-83.73"/>
</g>
<!-- Node10 -->
<g id="node10" class="node">
<title>Node10</title>
<g id="a_node10"><a xlink:href="dvrfile_8c_source.html" target="_top" xlink:title=" ">
<polygon fill="white" stroke="#666666" points="1073.5,-30 977.5,-30 977.5,0 1073.5,0 1073.5,-30"/>
<text text-anchor="start" x="985.5" y="-18" font-family="Helvetica,sans-Serif" font-size="10.00">iop/dvrp/dvrfile/src</text>
<text text-anchor="middle" x="1025.5" y="-7" font-family="Helvetica,sans-Serif" font-size="10.00">/dvrfile.c</text>
</a>
</g>
</g>
<!-- Node1&#45;&gt;Node10 -->
<g id="edge9" class="edge">
<title>Node1&#45;&gt;Node10</title>
<path fill="none" stroke="#63b8ff" d="M2906.77,-80.13C2631.2,-80.5 1447.95,-79.16 1082.5,-30 1079.67,-29.62 1076.78,-29.16 1073.87,-28.63"/>
<polygon fill="#63b8ff" stroke="#63b8ff" points="2906.57,-83.63 2916.56,-80.12 2906.56,-76.63 2906.57,-83.63"/>
</g>
<!-- Node11 -->
<g id="node11" class="node">
<title>Node11</title>
<g id="a_node11"><a xlink:href="iop_2dvrp_2dvrfile_2src_2irx__imports_8h_source.html" target="_top" xlink:title=" ">
<polygon fill="white" stroke="#666666" points="1187.5,-30 1091.5,-30 1091.5,0 1187.5,0 1187.5,-30"/>
<text text-anchor="start" x="1099.5" y="-18" font-family="Helvetica,sans-Serif" font-size="10.00">iop/dvrp/dvrfile/src</text>
<text text-anchor="middle" x="1139.5" y="-7" font-family="Helvetica,sans-Serif" font-size="10.00">/irx_imports.h</text>
</a>
</g>
</g>
<!-- Node1&#45;&gt;Node11 -->
<g id="edge10" class="edge">
<title>Node1&#45;&gt;Node11</title>
<path fill="none" stroke="#63b8ff" d="M2906.86,-80.02C2641.81,-79.84 1538.31,-76.27 1196.5,-30 1193.67,-29.62 1190.78,-29.15 1187.88,-28.62"/>
<polygon fill="#63b8ff" stroke="#63b8ff" points="2906.61,-83.52 2916.61,-80.02 2906.61,-76.52 2906.61,-83.52"/>
</g>
<!-- Node12 -->
<g id="node12" class="node">
<title>Node12</title>
<g id="a_node12"><a xlink:href="dvripl_8c_source.html" target="_top" xlink:title=" ">
<polygon fill="white" stroke="#666666" points="1299.5,-30 1205.5,-30 1205.5,0 1299.5,0 1299.5,-30"/>
<text text-anchor="start" x="1213.5" y="-18" font-family="Helvetica,sans-Serif" font-size="10.00">iop/dvrp/dvripl/src</text>
<text text-anchor="middle" x="1252.5" y="-7" font-family="Helvetica,sans-Serif" font-size="10.00">/dvripl.c</text>
</a>
</g>
</g>
<!-- Node1&#45;&gt;Node12 -->
<g id="edge11" class="edge">
<title>Node1&#45;&gt;Node12</title>
<path fill="none" stroke="#63b8ff" d="M2906.82,-79.92C2652.15,-79.31 1626.98,-74.1 1308.5,-30 1305.62,-29.6 1302.68,-29.11 1299.72,-28.56"/>
<polygon fill="#63b8ff" stroke="#63b8ff" points="2906.49,-83.42 2916.5,-79.94 2906.51,-76.42 2906.49,-83.42"/>
</g>
<!-- Node13 -->
<g id="node13" class="node">
<title>Node13</title>
<g id="a_node13"><a xlink:href="iop_2dvrp_2dvripl_2src_2irx__imports_8h_source.html" target="_top" xlink:title=" ">
<polygon fill="white" stroke="#666666" points="1411.5,-30 1317.5,-30 1317.5,0 1411.5,0 1411.5,-30"/>
<text text-anchor="start" x="1325.5" y="-18" font-family="Helvetica,sans-Serif" font-size="10.00">iop/dvrp/dvripl/src</text>
<text text-anchor="middle" x="1364.5" y="-7" font-family="Helvetica,sans-Serif" font-size="10.00">/irx_imports.h</text>
</a>
</g>
</g>
<!-- Node1&#45;&gt;Node13 -->
<g id="edge12" class="edge">
<title>Node1&#45;&gt;Node13</title>
<path fill="none" stroke="#63b8ff" d="M2906.82,-79.77C2662.98,-78.56 1715.82,-71.22 1420.5,-30 1417.62,-29.6 1414.68,-29.11 1411.72,-28.55"/>
<polygon fill="#63b8ff" stroke="#63b8ff" points="2906.69,-83.27 2916.71,-79.82 2906.73,-76.27 2906.69,-83.27"/>
</g>
<!-- Node14 -->
<g id="node14" class="node">
<title>Node14</title>
<g id="a_node14"><a xlink:href="dvrmisc_8c_source.html" target="_top" xlink:title=" ">
<polygon fill="white" stroke="#666666" points="1535,-30 1430,-30 1430,0 1535,0 1535,-30"/>
<text text-anchor="start" x="1438" y="-18" font-family="Helvetica,sans-Serif" font-size="10.00">iop/dvrp/dvrmisc/src</text>
<text text-anchor="middle" x="1482.5" y="-7" font-family="Helvetica,sans-Serif" font-size="10.00">/dvrmisc.c</text>
</a>
</g>
</g>
<!-- Node1&#45;&gt;Node14 -->
<g id="edge13" class="edge">
<title>Node1&#45;&gt;Node14</title>
<path fill="none" stroke="#63b8ff" d="M2906.57,-79.43C2674.79,-76.94 1813.7,-65.43 1543.5,-30 1540.81,-29.65 1538.06,-29.23 1535.29,-28.76"/>
<polygon fill="#63b8ff" stroke="#63b8ff" points="2906.54,-82.93 2916.57,-79.54 2906.61,-75.93 2906.54,-82.93"/>
</g>
<!-- Node15 -->
<g id="node15" class="node">
<title>Node15</title>
<g id="a_node15"><a xlink:href="iop_2dvrp_2dvrmisc_2src_2irx__imports_8h_source.html" target="_top" xlink:title=" ">
<polygon fill="white" stroke="#666666" points="1658,-30 1553,-30 1553,0 1658,0 1658,-30"/>
<text text-anchor="start" x="1561" y="-18" font-family="Helvetica,sans-Serif" font-size="10.00">iop/dvrp/dvrmisc/src</text>
<text text-anchor="middle" x="1605.5" y="-7" font-family="Helvetica,sans-Serif" font-size="10.00">/irx_imports.h</text>
</a>
</g>
</g>
<!-- Node1&#45;&gt;Node15 -->
<g id="edge14" class="edge">
<title>Node1&#45;&gt;Node15</title>
<path fill="none" stroke="#63b8ff" d="M2906.62,-79.21C2687.84,-76 1911.39,-62.53 1666.5,-30 1663.81,-29.64 1661.06,-29.22 1658.29,-28.75"/>
<polygon fill="#63b8ff" stroke="#63b8ff" points="2906.56,-82.71 2916.61,-79.36 2906.66,-75.71 2906.56,-82.71"/>
</g>
<!-- Node16 -->
<g id="node16" class="node">
<title>Node16</title>
<g id="a_node16"><a xlink:href="fs_2bdmfs__fatfs_2src_2fs__driver_8c_source.html" target="_top" xlink:title=" ">
<polygon fill="white" stroke="#666666" points="1771,-30 1676,-30 1676,0 1771,0 1771,-30"/>
<text text-anchor="start" x="1684" y="-18" font-family="Helvetica,sans-Serif" font-size="10.00">iop/fs/bdmfs_fatfs</text>
<text text-anchor="middle" x="1723.5" y="-7" font-family="Helvetica,sans-Serif" font-size="10.00">/src/fs_driver.c</text>
</a>
</g>
</g>
<!-- Node1&#45;&gt;Node16 -->
<g id="edge15" class="edge">
<title>Node1&#45;&gt;Node16</title>
<path fill="none" stroke="#63b8ff" d="M2906.57,-79.11C2700.13,-75.7 2000.9,-62.01 1779.5,-30 1776.82,-29.61 1774.09,-29.15 1771.33,-28.64"/>
<polygon fill="#63b8ff" stroke="#63b8ff" points="2906.46,-82.61 2916.52,-79.27 2906.58,-75.61 2906.46,-82.61"/>
</g>
<!-- Node17 -->
<g id="node17" class="node">
<title>Node17</title>
<g id="a_node17"><a xlink:href="fs_2bdmfs__vfat_2src_2fs__driver_8c_source.html" target="_top" xlink:title=" ">
<polygon fill="white" stroke="#666666" points="1898,-30 1789,-30 1789,0 1898,0 1898,-30"/>
<text text-anchor="start" x="1797" y="-18" font-family="Helvetica,sans-Serif" font-size="10.00">iop/fs/bdmfs_vfat/src</text>
<text text-anchor="middle" x="1843.5" y="-7" font-family="Helvetica,sans-Serif" font-size="10.00">/fs_driver.c</text>
</a>
</g>
</g>
<!-- Node1&#45;&gt;Node17 -->
<g id="edge16" class="edge">
<title>Node1&#45;&gt;Node17</title>
<path fill="none" stroke="#63b8ff" d="M2906.53,-78.57C2714.8,-73.64 2102.32,-56.19 1906.5,-30 1903.83,-29.64 1901.12,-29.23 1898.38,-28.78"/>
<polygon fill="#63b8ff" stroke="#63b8ff" points="2906.41,-82.07 2916.49,-78.83 2906.59,-75.07 2906.41,-82.07"/>
</g>
<!-- Node18 -->
<g id="node18" class="node">
<title>Node18</title>
<g id="a_node18"><a xlink:href="devfs_8c.html" target="_top" xlink:title=" ">
<polygon fill="white" stroke="#666666" points="2035,-24.5 1916,-24.5 1916,-5.5 2035,-5.5 2035,-24.5"/>
<text text-anchor="middle" x="1975.5" y="-12.5" font-family="Helvetica,sans-Serif" font-size="10.00">iop/fs/devfs/src/devfs.c</text>
</a>
</g>
</g>
<!-- Node1&#45;&gt;Node18 -->
<g id="edge17" class="edge">
<title>Node1&#45;&gt;Node18</title>
<path fill="none" stroke="#63b8ff" d="M2907.03,-79.84C2761.74,-78.81 2368.2,-72 2043.5,-30 2033.94,-28.76 2023.71,-26.93 2014.17,-25"/>
<polygon fill="#63b8ff" stroke="#63b8ff" points="2906.74,-83.34 2916.77,-79.91 2906.79,-76.34 2906.74,-83.34"/>
</g>
<!-- Node19 -->
<g id="node19" class="node">
<title>Node19</title>
<g id="a_node19"><a xlink:href="iop_2fs_2devfs_2src_2irx__imports_8h_source.html" target="_top" xlink:title=" ">
<polygon fill="white" stroke="#666666" points="2150,-30 2053,-30 2053,0 2150,0 2150,-30"/>
<text text-anchor="start" x="2061" y="-18" font-family="Helvetica,sans-Serif" font-size="10.00">iop/fs/devfs/src/irx</text>
<text text-anchor="middle" x="2101.5" y="-7" font-family="Helvetica,sans-Serif" font-size="10.00">_imports.h</text>
</a>
</g>
</g>
<!-- Node1&#45;&gt;Node19 -->
<g id="edge18" class="edge">
<title>Node1&#45;&gt;Node19</title>
<path fill="none" stroke="#63b8ff" d="M2906.93,-79.87C2774.32,-78.81 2437.39,-71.84 2159.5,-30 2156.53,-29.55 2153.49,-29.03 2150.43,-28.45"/>
<polygon fill="#63b8ff" stroke="#63b8ff" points="2906.83,-83.37 2916.85,-79.94 2906.88,-76.37 2906.83,-83.37"/>
</g>
<!-- Node20 -->
<g id="node20" class="node">
<title>Node20</title>
<g id="a_node20"><a xlink:href="fakehost_8c.html" target="_top" xlink:title=" ">
<polygon fill="white" stroke="#666666" points="2266.5,-30 2168.5,-30 2168.5,0 2266.5,0 2266.5,-30"/>
<text text-anchor="start" x="2176.5" y="-18" font-family="Helvetica,sans-Serif" font-size="10.00">iop/fs/fakehost/src</text>
<text text-anchor="middle" x="2217.5" y="-7" font-family="Helvetica,sans-Serif" font-size="10.00">/fakehost.c</text>
</a>
</g>
</g>
<!-- Node1&#45;&gt;Node20 -->
<g id="edge19" class="edge">
<title>Node1&#45;&gt;Node20</title>
<path fill="none" stroke="#63b8ff" d="M2906.93,-79.01C2788.18,-76.28 2507.73,-66.2 2275.5,-30 2272.63,-29.55 2269.7,-29.04 2266.75,-28.47"/>
<polygon fill="#63b8ff" stroke="#63b8ff" points="2906.66,-82.51 2916.73,-79.23 2906.81,-75.51 2906.66,-82.51"/>
</g>
<!-- Node21 -->
<g id="node21" class="node">
<title>Node21</title>
<g id="a_node21"><a xlink:href="iop_2fs_2fakehost_2src_2irx__imports_8h_source.html" target="_top" xlink:title=" ">
<polygon fill="white" stroke="#666666" points="2382.5,-30 2284.5,-30 2284.5,0 2382.5,0 2382.5,-30"/>
<text text-anchor="start" x="2292.5" y="-18" font-family="Helvetica,sans-Serif" font-size="10.00">iop/fs/fakehost/src</text>
<text text-anchor="middle" x="2333.5" y="-7" font-family="Helvetica,sans-Serif" font-size="10.00">/irx_imports.h</text>
</a>
</g>
</g>
<!-- Node1&#45;&gt;Node21 -->
<g id="edge20" class="edge">
<title>Node1&#45;&gt;Node21</title>
<path fill="none" stroke="#63b8ff" d="M2906.71,-77.82C2802.95,-73.27 2578.44,-60.54 2391.5,-30 2388.64,-29.53 2385.71,-29 2382.76,-28.42"/>
<polygon fill="#63b8ff" stroke="#63b8ff" points="2906.51,-81.32 2916.65,-78.25 2906.81,-74.32 2906.51,-81.32"/>
</g>
<!-- Node22 -->
<g id="node22" class="node">
<title>Node22</title>
<g id="a_node22"><a xlink:href="file_xio__iop_8c.html" target="_top" xlink:title=" ">
<polygon fill="white" stroke="#666666" points="2484.5,-30 2400.5,-30 2400.5,0 2484.5,0 2484.5,-30"/>
<text text-anchor="start" x="2408.5" y="-18" font-family="Helvetica,sans-Serif" font-size="10.00">iop/fs/filexio/src</text>
<text text-anchor="middle" x="2442.5" y="-7" font-family="Helvetica,sans-Serif" font-size="10.00">/fileXio_iop.c</text>
</a>
</g>
</g>
<!-- Node1&#45;&gt;Node22 -->
<g id="edge21" class="edge">
<title>Node1&#45;&gt;Node22</title>
<path fill="none" stroke="#63b8ff" d="M2906.78,-76.9C2817.54,-71.42 2640.96,-57.88 2493.5,-30 2490.7,-29.47 2487.84,-28.87 2484.96,-28.21"/>
<polygon fill="#63b8ff" stroke="#63b8ff" points="2906.3,-80.37 2916.5,-77.48 2906.72,-73.39 2906.3,-80.37"/>
</g>
<!-- Node23 -->
<g id="node23" class="node">
<title>Node23</title>
<g id="a_node23"><a xlink:href="iop_2fs_2filexio_2src_2irx__imports_8h_source.html" target="_top" xlink:title=" ">
<polygon fill="white" stroke="#666666" points="2586.5,-30 2502.5,-30 2502.5,0 2586.5,0 2586.5,-30"/>
<text text-anchor="start" x="2510.5" y="-18" font-family="Helvetica,sans-Serif" font-size="10.00">iop/fs/filexio/src</text>
<text text-anchor="middle" x="2544.5" y="-7" font-family="Helvetica,sans-Serif" font-size="10.00">/irx_imports.h</text>
</a>
</g>
</g>
<!-- Node1&#45;&gt;Node23 -->
<g id="edge22" class="edge">
<title>Node1&#45;&gt;Node23</title>
<path fill="none" stroke="#63b8ff" d="M2906.94,-74.6C2834,-67.21 2704.63,-52.27 2595.5,-30 2592.71,-29.43 2589.85,-28.79 2586.97,-28.12"/>
<polygon fill="#63b8ff" stroke="#63b8ff" points="2906.34,-78.06 2916.64,-75.57 2907.04,-71.09 2906.34,-78.06"/>
</g>
<!-- Node24 -->
<g id="node24" class="node">
<title>Node24</title>
<g id="a_node24"><a xlink:href="iop_2fs_2http_2src_2irx__imports_8h_source.html" target="_top" xlink:title=" ">
<polygon fill="white" stroke="#666666" points="2694,-30 2605,-30 2605,0 2694,0 2694,-30"/>
<text text-anchor="start" x="2613" y="-18" font-family="Helvetica,sans-Serif" font-size="10.00">iop/fs/http/src/irx</text>
<text text-anchor="middle" x="2649.5" y="-7" font-family="Helvetica,sans-Serif" font-size="10.00">_imports.h</text>
</a>
</g>
</g>
<!-- Node1&#45;&gt;Node24 -->
<g id="edge23" class="edge">
<title>Node1&#45;&gt;Node24</title>
<path fill="none" stroke="#63b8ff" d="M2907.14,-70.24C2853.9,-60.9 2772.55,-45.91 2702.5,-30 2699.81,-29.39 2697.05,-28.74 2694.27,-28.06"/>
<polygon fill="#63b8ff" stroke="#63b8ff" points="2906.45,-73.67 2916.9,-71.94 2907.65,-66.78 2906.45,-73.67"/>
</g>
<!-- Node25 -->
<g id="node25" class="node">
<title>Node25</title>
<g id="a_node25"><a xlink:href="devscan_8c.html" target="_top" xlink:title=" ">
<polygon fill="white" stroke="#666666" points="2841,-24.5 2712,-24.5 2712,-5.5 2841,-5.5 2841,-24.5"/>
<text text-anchor="middle" x="2776.5" y="-12.5" font-family="Helvetica,sans-Serif" font-size="10.00">iop/fs/netfs/src/devscan.c</text>
</a>
</g>
</g>
<!-- Node1&#45;&gt;Node25 -->
<g id="edge24" class="edge">
<title>Node1&#45;&gt;Node25</title>
<path fill="none" stroke="#63b8ff" d="M2911.65,-62.01C2876.18,-49.93 2830.99,-34.55 2802.9,-24.99"/>
<polygon fill="#63b8ff" stroke="#63b8ff" points="2910.28,-65.24 2920.88,-65.15 2912.54,-58.61 2910.28,-65.24"/>
</g>
<!-- Node26 -->
<g id="node26" class="node">
<title>Node26</title>
<g id="a_node26"><a xlink:href="iop_2fs_2netfs_2src_2irx__imports_8h_source.html" target="_top" xlink:title=" ">
<polygon fill="white" stroke="#666666" points="2954,-30 2859,-30 2859,0 2954,0 2954,-30"/>
<text text-anchor="start" x="2867" y="-18" font-family="Helvetica,sans-Serif" font-size="10.00">iop/fs/netfs/src/irx</text>
<text text-anchor="middle" x="2906.5" y="-7" font-family="Helvetica,sans-Serif" font-size="10.00">_imports.h</text>
</a>
</g>
</g>
<!-- Node1&#45;&gt;Node26 -->
<g id="edge25" class="edge">
<title>Node1&#45;&gt;Node26</title>
<path fill="none" stroke="#63b8ff" d="M2944.13,-57.53C2935.89,-48.43 2926.61,-38.19 2919.34,-30.16"/>
<polygon fill="#63b8ff" stroke="#63b8ff" points="2941.3,-59.62 2950.61,-64.67 2946.49,-54.91 2941.3,-59.62"/>
</g>
<!-- Node27 -->
<g id="node27" class="node">
<title>Node27</title>
<g id="a_node27"><a xlink:href="ps2__fio_8c.html" target="_top" xlink:title=" ">
<polygon fill="white" stroke="#666666" points="3073,-30 2972,-30 2972,0 3073,0 3073,-30"/>
<text text-anchor="start" x="2980" y="-18" font-family="Helvetica,sans-Serif" font-size="10.00">iop/fs/netfs/src/ps2</text>
<text text-anchor="middle" x="3022.5" y="-7" font-family="Helvetica,sans-Serif" font-size="10.00">_fio.c</text>
</a>
</g>
</g>
<!-- Node1&#45;&gt;Node27 -->
<g id="edge26" class="edge">
<title>Node1&#45;&gt;Node27</title>
<path fill="none" stroke="#63b8ff" d="M2984.87,-57.53C2993.11,-48.43 3002.39,-38.19 3009.66,-30.16"/>
<polygon fill="#63b8ff" stroke="#63b8ff" points="2982.51,-54.91 2978.39,-64.67 2987.7,-59.62 2982.51,-54.91"/>
</g>
<!-- Node28 -->
<g id="node28" class="node">
<title>Node28</title>
<g id="a_node28"><a xlink:href="hdd_8c_source.html" target="_top" xlink:title=" ">
<polygon fill="white" stroke="#666666" points="3201.5,-24.5 3091.5,-24.5 3091.5,-5.5 3201.5,-5.5 3201.5,-24.5"/>
<text text-anchor="middle" x="3146.5" y="-12.5" font-family="Helvetica,sans-Serif" font-size="10.00">iop/hdd/apa/src/hdd.c</text>
</a>
</g>
</g>
<!-- Node1&#45;&gt;Node28 -->
<g id="edge27" class="edge">
<title>Node1&#45;&gt;Node28</title>
<path fill="none" stroke="#63b8ff" d="M3016.11,-61.85C3050.37,-49.8 3093.87,-34.51 3120.95,-24.99"/>
<polygon fill="#63b8ff" stroke="#63b8ff" points="3015.04,-58.52 3006.77,-65.14 3017.37,-65.12 3015.04,-58.52"/>
</g>
<!-- Node29 -->
<g id="node29" class="node">
<title>Node29</title>
<g id="a_node29"><a xlink:href="hdd__fio_8c_source.html" target="_top" xlink:title=" ">
<polygon fill="white" stroke="#666666" points="3321.5,-30 3219.5,-30 3219.5,0 3321.5,0 3321.5,-30"/>
<text text-anchor="start" x="3227.5" y="-18" font-family="Helvetica,sans-Serif" font-size="10.00">iop/hdd/apa/src/hdd</text>
<text text-anchor="middle" x="3270.5" y="-7" font-family="Helvetica,sans-Serif" font-size="10.00">_fio.c</text>
</a>
</g>
</g>
<!-- Node1&#45;&gt;Node29 -->
<g id="edge28" class="edge">
<title>Node1&#45;&gt;Node29</title>
<path fill="none" stroke="#63b8ff" d="M3022.04,-68.79C3071.95,-58.95 3146.11,-44.05 3210.5,-30 3213.32,-29.38 3216.22,-28.74 3219.13,-28.09"/>
<polygon fill="#63b8ff" stroke="#63b8ff" points="3021.45,-65.34 3012.31,-70.7 3022.8,-72.21 3021.45,-65.34"/>
</g>
<!-- Node30 -->
<g id="node30" class="node">
<title>Node30</title>
<g id="a_node30"><a xlink:href="iop_2hdd_2apa_2src_2irx__imports_8h_source.html" target="_top" xlink:title=" ">
<polygon fill="white" stroke="#666666" points="3435.5,-30 3339.5,-30 3339.5,0 3435.5,0 3435.5,-30"/>
<text text-anchor="start" x="3347.5" y="-18" font-family="Helvetica,sans-Serif" font-size="10.00">iop/hdd/apa/src/irx</text>
<text text-anchor="middle" x="3387.5" y="-7" font-family="Helvetica,sans-Serif" font-size="10.00">_imports.h</text>
</a>
</g>
</g>
<!-- Node1&#45;&gt;Node30 -->
<g id="edge29" class="edge">
<title>Node1&#45;&gt;Node30</title>
<path fill="none" stroke="#63b8ff" d="M3022.1,-74.03C3094.46,-66.09 3222.26,-50.63 3330.5,-30 3333.3,-29.47 3336.17,-28.88 3339.07,-28.26"/>
<polygon fill="#63b8ff" stroke="#63b8ff" points="3022.04,-70.51 3012.48,-75.07 3022.8,-77.47 3022.04,-70.51"/>
</g>
<!-- Node31 -->
<g id="node31" class="node">
<title>Node31</title>
<g id="a_node31"><a xlink:href="apa_8c_source.html" target="_top" xlink:title=" ">
<polygon fill="white" stroke="#666666" points="3547,-30 3454,-30 3454,0 3547,0 3547,-30"/>
<text text-anchor="start" x="3462" y="-18" font-family="Helvetica,sans-Serif" font-size="10.00">iop/hdd/libapa/src</text>
<text text-anchor="middle" x="3500.5" y="-7" font-family="Helvetica,sans-Serif" font-size="10.00">/apa.c</text>
</a>
</g>
</g>
<!-- Node1&#45;&gt;Node31 -->
<g id="edge30" class="edge">
<title>Node1&#45;&gt;Node31</title>
<path fill="none" stroke="#63b8ff" d="M3022.17,-76.63C3112.67,-70.76 3293.32,-56.63 3444.5,-30 3447.46,-29.48 3450.5,-28.89 3453.55,-28.25"/>
<polygon fill="#63b8ff" stroke="#63b8ff" points="3022.07,-73.13 3012.31,-77.26 3022.51,-80.12 3022.07,-73.13"/>
</g>
<!-- Node32 -->
<g id="node32" class="node">
<title>Node32</title>
<g id="a_node32"><a xlink:href="libapa_2src_2cache_8c_source.html" target="_top" xlink:title=" ">
<polygon fill="white" stroke="#666666" points="3658,-30 3565,-30 3565,0 3658,0 3658,-30"/>
<text text-anchor="start" x="3573" y="-18" font-family="Helvetica,sans-Serif" font-size="10.00">iop/hdd/libapa/src</text>
<text text-anchor="middle" x="3611.5" y="-7" font-family="Helvetica,sans-Serif" font-size="10.00">/cache.c</text>
</a>
</g>
</g>
<!-- Node1&#45;&gt;Node32 -->
<g id="edge31" class="edge">
<title>Node1&#45;&gt;Node32</title>
<path fill="none" stroke="#63b8ff" d="M3022.3,-78.28C3128.68,-74.42 3362.39,-62.67 3556.5,-30 3559.12,-29.56 3561.81,-29.05 3564.5,-28.51"/>
<polygon fill="#63b8ff" stroke="#63b8ff" points="3022.26,-74.78 3012.39,-78.63 3022.51,-81.78 3022.26,-74.78"/>
</g>
<!-- Node33 -->
<g id="node33" class="node">
<title>Node33</title>
<g id="a_node33"><a xlink:href="free_8c_source.html" target="_top" xlink:title=" ">
<polygon fill="white" stroke="#666666" points="3769,-30 3676,-30 3676,0 3769,0 3769,-30"/>
<text text-anchor="start" x="3684" y="-18" font-family="Helvetica,sans-Serif" font-size="10.00">iop/hdd/libapa/src</text>
<text text-anchor="middle" x="3722.5" y="-7" font-family="Helvetica,sans-Serif" font-size="10.00">/free.c</text>
</a>
</g>
</g>
<!-- Node1&#45;&gt;Node33 -->
<g id="edge32" class="edge">
<title>Node1&#45;&gt;Node33</title>
<path fill="none" stroke="#63b8ff" d="M3022.39,-79.36C3143.1,-77.28 3430.2,-68.33 3667.5,-30 3670.13,-29.58 3672.81,-29.09 3675.51,-28.55"/>
<polygon fill="#63b8ff" stroke="#63b8ff" points="3022.34,-75.86 3012.4,-79.53 3022.46,-82.86 3022.34,-75.86"/>
</g>
<!-- Node34 -->
<g id="node34" class="node">
<title>Node34</title>
<g id="a_node34"><a xlink:href="libapa_2src_2journal_8c_source.html" target="_top" xlink:title=" ">
<polygon fill="white" stroke="#666666" points="3880,-30 3787,-30 3787,0 3880,0 3880,-30"/>
<text text-anchor="start" x="3795" y="-18" font-family="Helvetica,sans-Serif" font-size="10.00">iop/hdd/libapa/src</text>
<text text-anchor="middle" x="3833.5" y="-7" font-family="Helvetica,sans-Serif" font-size="10.00">/journal.c</text>
</a>
</g>
</g>
<!-- Node1&#45;&gt;Node34 -->
<g id="edge33" class="edge">
<title>Node1&#45;&gt;Node34</title>
<path fill="none" stroke="#63b8ff" d="M3021.86,-80.16C3155.41,-79.75 3497.14,-74.05 3778.5,-30 3781.13,-29.59 3783.81,-29.11 3786.52,-28.58"/>
<polygon fill="#63b8ff" stroke="#63b8ff" points="3022.23,-76.66 3012.24,-80.19 3022.25,-83.66 3022.23,-76.66"/>
</g>
<!-- Node35 -->
<g id="node35" class="node">
<title>Node35</title>
<g id="a_node35"><a xlink:href="libapa_2src_2misc_8c_source.html" target="_top" xlink:title=" ">
<polygon fill="white" stroke="#666666" points="3991,-30 3898,-30 3898,0 3991,0 3991,-30"/>
<text text-anchor="start" x="3906" y="-18" font-family="Helvetica,sans-Serif" font-size="10.00">iop/hdd/libapa/src</text>
<text text-anchor="middle" x="3944.5" y="-7" font-family="Helvetica,sans-Serif" font-size="10.00">/misc.c</text>
</a>
</g>
</g>
<!-- Node1&#45;&gt;Node35 -->
<g id="edge34" class="edge">
<title>Node1&#45;&gt;Node35</title>
<path fill="none" stroke="#63b8ff" d="M3021.83,-80.77C3167.63,-81.9 3564.06,-79.73 3889.5,-30 3892.13,-29.6 3894.82,-29.13 3897.52,-28.6"/>
<polygon fill="#63b8ff" stroke="#63b8ff" points="3022.09,-77.27 3012.06,-80.69 3022.02,-84.27 3022.09,-77.27"/>
</g>
<!-- Node36 -->
<g id="node36" class="node">
<title>Node36</title>
<g id="a_node36"><a xlink:href="password_8c_source.html" target="_top" xlink:title=" ">
<polygon fill="white" stroke="#666666" points="4102,-30 4009,-30 4009,0 4102,0 4102,-30"/>
<text text-anchor="start" x="4017" y="-18" font-family="Helvetica,sans-Serif" font-size="10.00">iop/hdd/libapa/src</text>
<text text-anchor="middle" x="4055.5" y="-7" font-family="Helvetica,sans-Serif" font-size="10.00">/password.c</text>
</a>
</g>
</g>
<!-- Node1&#45;&gt;Node36 -->
<g id="edge35" class="edge">
<title>Node1&#45;&gt;Node36</title>
<path fill="none" stroke="#63b8ff" d="M3022.27,-78.74C3211.19,-74.38 3809.5,-58.62 4000.5,-30 4003.13,-29.61 4005.82,-29.14 4008.52,-28.62"/>
<polygon fill="#63b8ff" stroke="#63b8ff" points="3022.38,-75.24 3012.46,-78.97 3022.54,-82.24 3022.38,-75.24"/>
</g>
<!-- Node37 -->
<g id="node37" class="node">
<title>Node37</title>
<g id="a_node37"><a xlink:href="dir_8c_source.html" target="_top" xlink:title=" ">
<polygon fill="white" stroke="#666666" points="4211,-30 4120,-30 4120,0 4211,0 4211,-30"/>
<text text-anchor="start" x="4128" y="-18" font-family="Helvetica,sans-Serif" font-size="10.00">iop/hdd/libpfs/src</text>
<text text-anchor="middle" x="4165.5" y="-7" font-family="Helvetica,sans-Serif" font-size="10.00">/dir.c</text>
</a>
</g>
</g>
<!-- Node1&#45;&gt;Node37 -->
<g id="edge36" class="edge">
<title>Node1&#45;&gt;Node37</title>
<path fill="none" stroke="#63b8ff" d="M3022.24,-79.09C3224.16,-75.64 3897.93,-61.98 4111.5,-30 4114.18,-29.6 4116.92,-29.12 4119.68,-28.58"/>
<polygon fill="#63b8ff" stroke="#63b8ff" points="3022.2,-75.59 3012.26,-79.26 3022.31,-82.59 3022.2,-75.59"/>
</g>
<!-- Node38 -->
<g id="node38" class="node">
<title>Node38</title>
<g id="a_node38"><a xlink:href="libpfs_2src_2misc_8c_source.html" target="_top" xlink:title=" ">
<polygon fill="white" stroke="#666666" points="4320,-30 4229,-30 4229,0 4320,0 4320,-30"/>
<text text-anchor="start" x="4237" y="-18" font-family="Helvetica,sans-Serif" font-size="10.00">iop/hdd/libpfs/src</text>
<text text-anchor="middle" x="4274.5" y="-7" font-family="Helvetica,sans-Serif" font-size="10.00">/misc.c</text>
</a>
</g>
</g>
<!-- Node1&#45;&gt;Node38 -->
<g id="edge37" class="edge">
<title>Node1&#45;&gt;Node38</title>
<path fill="none" stroke="#63b8ff" d="M3021.97,-79.34C3235.72,-76.65 3984.54,-64.87 4220.5,-30 4223.18,-29.6 4225.92,-29.13 4228.68,-28.59"/>
<polygon fill="#63b8ff" stroke="#63b8ff" points="3022.19,-75.84 3012.24,-79.46 3022.28,-82.84 3022.19,-75.84"/>
</g>
<!-- Node39 -->
<g id="node39" class="node">
<title>Node39</title>
<g id="a_node39"><a xlink:href="iop_2hdd_2pfs_2src_2irx__imports_8h_source.html" target="_top" xlink:title=" ">
<polygon fill="white" stroke="#666666" points="4432.5,-30 4338.5,-30 4338.5,0 4432.5,0 4432.5,-30"/>
<text text-anchor="start" x="4346.5" y="-18" font-family="Helvetica,sans-Serif" font-size="10.00">iop/hdd/pfs/src/irx</text>
<text text-anchor="middle" x="4385.5" y="-7" font-family="Helvetica,sans-Serif" font-size="10.00">_imports.h</text>
</a>
</g>
</g>
<!-- Node1&#45;&gt;Node39 -->
<g id="edge38" class="edge">
<title>Node1&#45;&gt;Node39</title>
<path fill="none" stroke="#63b8ff" d="M3022.04,-79.49C3247.49,-77.24 4071.03,-66.63 4329.5,-30 4332.38,-29.59 4335.32,-29.1 4338.28,-28.54"/>
<polygon fill="#63b8ff" stroke="#63b8ff" points="3022.3,-75.99 3012.34,-79.58 3022.37,-82.99 3022.3,-75.99"/>
</g>
<!-- Node40 -->
<g id="node40" class="node">
<title>Node40</title>
<g id="a_node40"><a xlink:href="pfs_8c_source.html" target="_top" xlink:title=" ">
<polygon fill="white" stroke="#666666" points="4556,-24.5 4451,-24.5 4451,-5.5 4556,-5.5 4556,-24.5"/>
<text text-anchor="middle" x="4503.5" y="-12.5" font-family="Helvetica,sans-Serif" font-size="10.00">iop/hdd/pfs/src/pfs.c</text>
</a>
</g>
</g>
<!-- Node1&#45;&gt;Node40 -->
<g id="edge39" class="edge">
<title>Node1&#45;&gt;Node40</title>
<path fill="none" stroke="#63b8ff" d="M3022.36,-79.5C3259.73,-77.21 4159.66,-66.26 4441.5,-30 4450.58,-28.83 4460.3,-26.95 4469.27,-24.94"/>
<polygon fill="#63b8ff" stroke="#63b8ff" points="3022.39,-76 3012.42,-79.59 3022.45,-83 3022.39,-76"/>
</g>
<!-- Node41 -->
<g id="node41" class="node">
<title>Node41</title>
<g id="a_node41"><a xlink:href="pfs__fio_8c_source.html" target="_top" xlink:title=" ">
<polygon fill="white" stroke="#666666" points="4672.5,-30 4574.5,-30 4574.5,0 4672.5,0 4672.5,-30"/>
<text text-anchor="start" x="4582.5" y="-18" font-family="Helvetica,sans-Serif" font-size="10.00">iop/hdd/pfs/src/pfs</text>
<text text-anchor="middle" x="4623.5" y="-7" font-family="Helvetica,sans-Serif" font-size="10.00">_fio.c</text>
</a>
</g>
</g>
<!-- Node1&#45;&gt;Node41 -->
<g id="edge40" class="edge">
<title>Node1&#45;&gt;Node41</title>
<path fill="none" stroke="#63b8ff" d="M3022.26,-79.79C3271.78,-78.62 4258.27,-71.43 4565.5,-30 4568.37,-29.61 4571.31,-29.14 4574.27,-28.61"/>
<polygon fill="#63b8ff" stroke="#63b8ff" points="3022.44,-76.29 3012.46,-79.83 3022.47,-83.29 3022.44,-76.29"/>
</g>
<!-- Node42 -->
<g id="node42" class="node">
<title>Node42</title>
<g id="a_node42"><a xlink:href="pfs__fioctl_8c_source.html" target="_top" xlink:title=" ">
<polygon fill="white" stroke="#666666" points="4788.5,-30 4690.5,-30 4690.5,0 4788.5,0 4788.5,-30"/>
<text text-anchor="start" x="4698.5" y="-18" font-family="Helvetica,sans-Serif" font-size="10.00">iop/hdd/pfs/src/pfs</text>
<text text-anchor="middle" x="4739.5" y="-7" font-family="Helvetica,sans-Serif" font-size="10.00">_fioctl.c</text>
</a>
</g>
</g>
<!-- Node1&#45;&gt;Node42 -->
<g id="edge41" class="edge">
<title>Node1&#45;&gt;Node42</title>
<path fill="none" stroke="#63b8ff" d="M3022.13,-79.93C3282.45,-79.36 4350.18,-74.32 4681.5,-30 4684.37,-29.62 4687.31,-29.15 4690.27,-28.62"/>
<polygon fill="#63b8ff" stroke="#63b8ff" points="3022.21,-76.43 3012.22,-79.95 3022.23,-83.43 3022.21,-76.43"/>
</g>
<!-- Node43 -->
<g id="node43" class="node">
<title>Node43</title>
<g id="a_node43"><a xlink:href="i_link_2_i_e_e_e1394__disk_2src_2fs__driver_8c_source.html" target="_top" xlink:title=" ">
<polygon fill="white" stroke="#666666" points="4910.5,-30 4806.5,-30 4806.5,0 4910.5,0 4910.5,-30"/>
<text text-anchor="start" x="4814.5" y="-18" font-family="Helvetica,sans-Serif" font-size="10.00">iop/iLink/IEEE1394</text>
<text text-anchor="middle" x="4858.5" y="-7" font-family="Helvetica,sans-Serif" font-size="10.00">_disk/src/fs_driver.c</text>
</a>
</g>
</g>
<!-- Node1&#45;&gt;Node43 -->
<g id="edge42" class="edge">
<title>Node1&#45;&gt;Node43</title>
<path fill="none" stroke="#63b8ff" d="M3022.04,-79.97C3292.81,-79.57 4441.8,-75.21 4797.5,-30 4800.3,-29.64 4803.16,-29.22 4806.05,-28.73"/>
<polygon fill="#63b8ff" stroke="#63b8ff" points="3022.43,-76.47 3012.43,-79.98 3022.44,-83.47 3022.43,-76.47"/>
</g>
<!-- Node44 -->
<g id="node44" class="node">
<title>Node44</title>
<g id="a_node44"><a xlink:href="smb__fio_8c_source.html" target="_top" xlink:title=" ">
<polygon fill="white" stroke="#666666" points="5036,-30 4929,-30 4929,0 5036,0 5036,-30"/>
<text text-anchor="start" x="4937" y="-18" font-family="Helvetica,sans-Serif" font-size="10.00">iop/network/smbman</text>
<text text-anchor="middle" x="4982.5" y="-7" font-family="Helvetica,sans-Serif" font-size="10.00">/src/smb_fio.c</text>
</a>
</g>
</g>
<!-- Node1&#45;&gt;Node44 -->
<g id="edge43" class="edge">
<title>Node1&#45;&gt;Node44</title>
<path fill="none" stroke="#63b8ff" d="M3021.71,-80.03C3302.65,-79.93 4538.09,-76.81 4919.5,-30 4922.5,-29.63 4925.57,-29.18 4928.66,-28.68"/>
<polygon fill="#63b8ff" stroke="#63b8ff" points="3022.09,-76.53 3012.09,-80.03 3022.09,-83.53 3022.09,-76.53"/>
</g>
<!-- Node45 -->
<g id="node45" class="node">
<title>Node45</title>
<g id="a_node45"><a xlink:href="smbman_8c_source.html" target="_top" xlink:title=" ">
<polygon fill="white" stroke="#666666" points="5161,-30 5054,-30 5054,0 5161,0 5161,-30"/>
<text text-anchor="start" x="5062" y="-18" font-family="Helvetica,sans-Serif" font-size="10.00">iop/network/smbman</text>
<text text-anchor="middle" x="5107.5" y="-7" font-family="Helvetica,sans-Serif" font-size="10.00">/src/smbman.c</text>
</a>
</g>
</g>
<!-- Node1&#45;&gt;Node45 -->
<g id="edge44" class="edge">
<title>Node1&#45;&gt;Node45</title>
<path fill="none" stroke="#63b8ff" d="M3022.06,-80.16C3314.55,-80.72 4638.04,-80.39 5045.5,-30 5048.13,-29.67 5050.81,-29.29 5053.51,-28.85"/>
<polygon fill="#63b8ff" stroke="#63b8ff" points="3022.42,-76.66 3012.41,-80.14 3022.4,-83.66 3022.42,-76.66"/>
</g>
<!-- Node46 -->
<g id="node46" class="node">
<title>Node46</title>
<g id="a_node46"><a xlink:href="ioman_x_8c.html" target="_top" xlink:title=" ">
<polygon fill="white" stroke="#666666" points="5293.5,-30 5179.5,-30 5179.5,0 5293.5,0 5293.5,-30"/>
<text text-anchor="start" x="5187.5" y="-18" font-family="Helvetica,sans-Serif" font-size="10.00">iop/system/iomanx/src</text>
<text text-anchor="middle" x="5236.5" y="-7" font-family="Helvetica,sans-Serif" font-size="10.00">/iomanX.c</text>
</a>
</g>
</g>
<!-- Node1&#45;&gt;Node46 -->
<g id="edge45" class="edge">
<title>Node1&#45;&gt;Node46</title>
<path fill="none" stroke="#63b8ff" d="M3022.06,-80.15C3324.95,-80.7 4736.58,-80.49 5170.5,-30 5173.29,-29.68 5176.14,-29.29 5179.01,-28.85"/>
<polygon fill="#63b8ff" stroke="#63b8ff" points="3022.45,-76.65 3012.44,-80.13 3022.44,-83.65 3022.45,-76.65"/>
</g>
<!-- Node47 -->
<g id="node47" class="node">
<title>Node47</title>
<g id="a_node47"><a xlink:href="commandline_8c.html" target="_top" xlink:title=" ">
<polygon fill="white" stroke="#666666" points="5425,-30 5312,-30 5312,0 5425,0 5425,-30"/>
<text text-anchor="start" x="5320" y="-18" font-family="Helvetica,sans-Serif" font-size="10.00">iop/system/iopmgr/src</text>
<text text-anchor="middle" x="5368.5" y="-7" font-family="Helvetica,sans-Serif" font-size="10.00">/commandline.c</text>
</a>
</g>
</g>
<!-- Node1&#45;&gt;Node47 -->
<g id="edge46" class="edge">
<title>Node1&#45;&gt;Node47</title>
<path fill="none" stroke="#63b8ff" d="M3021.95,-80.23C3335.3,-81.28 4840.88,-83.42 5302.5,-30 5305.53,-29.65 5308.62,-29.23 5311.73,-28.75"/>
<polygon fill="#63b8ff" stroke="#63b8ff" points="3022.41,-76.73 3012.4,-80.2 3022.38,-83.73 3022.41,-76.73"/>
</g>
<!-- Node48 -->
<g id="node48" class="node">
<title>Node48</title>
<g id="a_node48"><a xlink:href="devices_8c.html" target="_top" xlink:title=" ">
<polygon fill="white" stroke="#666666" points="5556,-30 5443,-30 5443,0 5556,0 5556,-30"/>
<text text-anchor="start" x="5451" y="-18" font-family="Helvetica,sans-Serif" font-size="10.00">iop/system/iopmgr/src</text>
<text text-anchor="middle" x="5499.5" y="-7" font-family="Helvetica,sans-Serif" font-size="10.00">/devices.c</text>
</a>
</g>
</g>
<!-- Node1&#45;&gt;Node48 -->
<g id="edge47" class="edge">
<title>Node1&#45;&gt;Node48</title>
<path fill="none" stroke="#63b8ff" d="M3022.12,-79.5C3370.44,-76.37 5188.15,-58.75 5434.5,-30 5437.14,-29.69 5439.83,-29.33 5442.53,-28.92"/>
<polygon fill="#63b8ff" stroke="#63b8ff" points="3022.3,-75.99 3012.34,-79.58 3022.37,-82.99 3022.3,-75.99"/>
</g>
<!-- Node49 -->
<g id="node49" class="node">
<title>Node49</title>
<g id="a_node49"><a xlink:href="iop_2system_2iopmgr_2src_2main_8c.html" target="_top" xlink:title=" ">
<polygon fill="white" stroke="#666666" points="5687,-30 5574,-30 5574,0 5687,0 5687,-30"/>
<text text-anchor="start" x="5582" y="-18" font-family="Helvetica,sans-Serif" font-size="10.00">iop/system/iopmgr/src</text>
<text text-anchor="middle" x="5630.5" y="-7" font-family="Helvetica,sans-Serif" font-size="10.00">/main.c</text>
</a>
</g>
</g>
<!-- Node1&#45;&gt;Node49 -->
<g id="edge48" class="edge">
<title>Node1&#45;&gt;Node49</title>
<path fill="none" stroke="#63b8ff" d="M3022.29,-79.56C3381.8,-76.72 5305.38,-60.23 5565.5,-30 5568.14,-29.69 5570.83,-29.33 5573.53,-28.92"/>
<polygon fill="#63b8ff" stroke="#63b8ff" points="3022.38,-76.06 3012.4,-79.64 3022.43,-83.06 3022.38,-76.06"/>
</g>
<!-- Node50 -->
<g id="node50" class="node">
<title>Node50</title>
<g id="a_node50"><a xlink:href="ps2mouse_8c.html" target="_top" xlink:title=" ">
<polygon fill="white" stroke="#666666" points="5857.5,-24.5 5705.5,-24.5 5705.5,-5.5 5857.5,-5.5 5857.5,-24.5"/>
<text text-anchor="middle" x="5781.5" y="-12.5" font-family="Helvetica,sans-Serif" font-size="10.00">iop/usb/mouse/src/ps2mouse.c</text>
</a>
</g>
</g>
<!-- Node1&#45;&gt;Node50 -->
<g id="edge49" class="edge">
<title>Node1&#45;&gt;Node50</title>
<path fill="none" stroke="#63b8ff" d="M3022.21,-80.08C3366.33,-80.41 5150.97,-79.65 5696.5,-30 5708.86,-28.87 5722.14,-27.01 5734.45,-25"/>
<polygon fill="#63b8ff" stroke="#63b8ff" points="3022.33,-76.58 3012.33,-80.07 3022.33,-83.58 3022.33,-76.58"/>
</g>
<!-- Node51 -->
<g id="node51" class="node">
<title>Node51</title>
<g id="a_node51"><a xlink:href="usb_2usbhdfsd_2src_2fs__driver_8c_source.html" target="_top" xlink:title=" ">
<polygon fill="white" stroke="#666666" points="5983,-30 5876,-30 5876,0 5983,0 5983,-30"/>
<text text-anchor="start" x="5884" y="-18" font-family="Helvetica,sans-Serif" font-size="10.00">iop/usb/usbhdfsd/src</text>
<text text-anchor="middle" x="5929.5" y="-7" font-family="Helvetica,sans-Serif" font-size="10.00">/fs_driver.c</text>
</a>
</g>
</g>
<!-- Node1&#45;&gt;Node51 -->
<g id="edge50" class="edge">
<title>Node1&#45;&gt;Node51</title>
<path fill="none" stroke="#63b8ff" d="M3022.17,-79.71C3405.12,-77.66 5574.68,-64.58 5866.5,-30 5869.5,-29.64 5872.58,-29.21 5875.67,-28.71"/>
<polygon fill="#63b8ff" stroke="#63b8ff" points="3022.34,-76.2 3012.36,-79.76 3022.37,-83.2 3022.34,-76.2"/>
</g>
</g>
</svg>
        <g id="navigator" transform="translate(0 0)" fill="#404254">
                <rect fill="#f2f5e9" fill-opacity="0.5" stroke="#606060" stroke-width=".5" x="0" y="0" width="60" height="60"/>
                <use id="zoomplus" xlink:href="#zoomPlus" x="17" y="9" onmousedown="handleZoom(evt,'in')"/>
                <use id="zoomminus" xlink:href="#zoomMin" x="42" y="9" onmousedown="handleZoom(evt,'out')"/>
                <use id="reset" xlink:href="#resetDef" x="30" y="36" onmousedown="handleReset()"/>
                <g id="arrowUp" xlink:href="#dirArrow" transform="translate(30 24)" onmousedown="handlePan(0,-1)">
                  <use xlink:href="#rim" fill="#404040">
                        <set attributeName="fill" to="#808080" begin="arrowUp.mouseover" end="arrowUp.mouseout"/>
                  </use>
                  <path fill="none" stroke="white" stroke-width="1.5" d="M0,-3.0v7 M-2.5,-0.5L0,-3.0L2.5,-0.5"/>
                </g>
                <g id="arrowRight" xlink:href="#dirArrow" transform="rotate(90) translate(36 -43)" onmousedown="handlePan(1,0)">
                  <use xlink:href="#rim" fill="#404040">
                        <set attributeName="fill" to="#808080" begin="arrowRight.mouseover" end="arrowRight.mouseout"/>
                  </use>
                  <path fill="none" stroke="white" stroke-width="1.5" d="M0,-3.0v7 M-2.5,-0.5L0,-3.0L2.5,-0.5"/>
                </g>
                <g id="arrowDown" xlink:href="#dirArrow" transform="rotate(180) translate(-30 -48)" onmousedown="handlePan(0,1)">
                  <use xlink:href="#rim" fill="#404040">
                        <set attributeName="fill" to="#808080" begin="arrowDown.mouseover" end="arrowDown.mouseout"/>
                  </use>
                  <path fill="none" stroke="white" stroke-width="1.5" d="M0,-3.0v7 M-2.5,-0.5L0,-3.0L2.5,-0.5"/>
                </g>
                <g id="arrowLeft" xlink:href="#dirArrow" transform="rotate(270) translate(-36 17)" onmousedown="handlePan(-1,0)">
                  <use xlink:href="#rim" fill="#404040">
                        <set attributeName="fill" to="#808080" begin="arrowLeft.mouseover" end="arrowLeft.mouseout"/>
                  </use>
                  <path fill="none" stroke="white" stroke-width="1.5" d="M0,-3.0v7 M-2.5,-0.5L0,-3.0L2.5,-0.5"/>
                </g>
        </g>
        <svg viewBox="0 0 15 15" width="100%" height="30px" preserveAspectRatio="xMaxYMin meet">
         <g id="arrow_out" transform="scale(0.3 0.3)">
          <a xlink:href="ioman_x_8h__dep__incl_org.svg" target="_base">
           <rect id="button" ry="5" rx="5" y="6" x="6" height="38" width="38"
                fill="#f2f5e9" fill-opacity="0.5" stroke="#606060" stroke-width="1.0"/>
           <path id="arrow"
             d="M 11.500037,31.436501 C 11.940474,20.09759 22.043105,11.32322 32.158766,21.979434 L 37.068811,17.246167 C 37.068811,17.246167 37.088388,32 37.088388,32 L 22.160133,31.978069 C 22.160133,31.978069 26.997745,27.140456 26.997745,27.140456 C 18.528582,18.264221 13.291696,25.230495 11.500037,31.436501 z"
             style="fill:#404040;"/>
          </a>
         </g>
        </svg>
</svg>
