<?xml version="1.0" encoding="UTF-8" standalone="no"?>
<!DOCTYPE svg PUBLIC "-//W3C//DTD SVG 1.1//EN"
 "http://www.w3.org/Graphics/SVG/1.1/DTD/svg11.dtd">
<!-- Generated by graphviz version 7.0.5 (20221223.1930)
 -->
<!-- Title: iop/kernel/include/ioman.h Pages: 1 -->
<svg width="5175pt" height="170pt"
 viewBox="0.00 0.00 5175.00 170.00" xmlns="http://www.w3.org/2000/svg" xmlns:xlink="http://www.w3.org/1999/xlink">
<g id="graph0" class="graph" transform="scale(1 1) rotate(0) translate(4 166)">
<title>iop/kernel/include/ioman.h</title>
<!-- Node1 -->
<g id="node1" class="node">
<title>Node1</title>
<g id="a_node1"><a xlink:title=" ">
<polygon fill="#999999" stroke="#666666" points="2548.5,-162 2456.5,-162 2456.5,-132 2548.5,-132 2548.5,-162"/>
<text text-anchor="start" x="2464.5" y="-150" font-family="Helvetica,sans-Serif" font-size="10.00">iop/kernel/include</text>
<text text-anchor="middle" x="2502.5" y="-139" font-family="Helvetica,sans-Serif" font-size="10.00">/ioman.h</text>
</a>
</g>
</g>
<!-- Node2 -->
<g id="node2" class="node">
<title>Node2</title>
<g id="a_node2"><a xlink:href="common_2sbus_2src_2irx__imports_8h_source.html" target="_top" xlink:title=" ">
<polygon fill="white" stroke="#666666" points="107,-96 0,-96 0,-66 107,-66 107,-96"/>
<text text-anchor="start" x="8" y="-84" font-family="Helvetica,sans-Serif" font-size="10.00">common/sbus/src/irx</text>
<text text-anchor="middle" x="53.5" y="-73" font-family="Helvetica,sans-Serif" font-size="10.00">_imports.h</text>
</a>
</g>
</g>
<!-- Node1&#45;&gt;Node2 -->
<g id="edge1" class="edge">
<title>Node1&#45;&gt;Node2</title>
<path fill="none" stroke="#63b8ff" d="M2445.21,-145.49C2104.62,-142.37 353.05,-125.01 115.5,-96 112.87,-95.68 110.19,-95.3 107.49,-94.86"/>
<polygon fill="#63b8ff" stroke="#63b8ff" points="2444.95,-148.99 2454.98,-145.58 2445.01,-141.99 2444.95,-148.99"/>
</g>
<!-- Node3 -->
<g id="node3" class="node">
<title>Node3</title>
<g id="a_node3"><a xlink:href="imgdrv_8c.html" target="_top" xlink:title=" ">
<polygon fill="white" stroke="#666666" points="244,-96 125,-96 125,-66 244,-66 244,-96"/>
<text text-anchor="start" x="133" y="-84" font-family="Helvetica,sans-Serif" font-size="10.00">ee/iopreboot/src/imgdrv</text>
<text text-anchor="middle" x="184.5" y="-73" font-family="Helvetica,sans-Serif" font-size="10.00">/src/imgdrv.c</text>
</a>
</g>
</g>
<!-- Node1&#45;&gt;Node3 -->
<g id="edge2" class="edge">
<title>Node1&#45;&gt;Node3</title>
<path fill="none" stroke="#63b8ff" d="M2444.8,-146.13C2138.02,-146.61 695.71,-146.13 252.5,-96 249.87,-95.7 247.18,-95.35 244.48,-94.96"/>
<polygon fill="#63b8ff" stroke="#63b8ff" points="2444.55,-149.63 2454.55,-146.11 2444.54,-142.63 2444.55,-149.63"/>
</g>
<!-- Node4 -->
<g id="node4" class="node">
<title>Node4</title>
<g id="a_node4"><a xlink:href="ee_2iopreboot_2src_2imgdrv_2src_2irx__imports_8h_source.html" target="_top" xlink:title=" ">
<polygon fill="white" stroke="#666666" points="381,-96 262,-96 262,-66 381,-66 381,-96"/>
<text text-anchor="start" x="270" y="-84" font-family="Helvetica,sans-Serif" font-size="10.00">ee/iopreboot/src/imgdrv</text>
<text text-anchor="middle" x="321.5" y="-73" font-family="Helvetica,sans-Serif" font-size="10.00">/src/irx_imports.h</text>
</a>
</g>
</g>
<!-- Node1&#45;&gt;Node4 -->
<g id="edge3" class="edge">
<title>Node1&#45;&gt;Node4</title>
<path fill="none" stroke="#63b8ff" d="M2445.06,-146.01C2150.28,-145.86 805.02,-142.59 390.5,-96 387.46,-95.66 384.36,-95.25 381.24,-94.79"/>
<polygon fill="#63b8ff" stroke="#63b8ff" points="2444.8,-149.51 2454.8,-146.02 2444.8,-142.51 2444.8,-149.51"/>
</g>
<!-- Node5 -->
<g id="node5" class="node">
<title>Node5</title>
<g id="a_node5"><a xlink:href="iop_2cdvd_2cdfs_2src_2irx__imports_8h_source.html" target="_top" xlink:title=" ">
<polygon fill="white" stroke="#666666" points="503.5,-96 399.5,-96 399.5,-66 503.5,-66 503.5,-96"/>
<text text-anchor="start" x="407.5" y="-84" font-family="Helvetica,sans-Serif" font-size="10.00">iop/cdvd/cdfs/src/irx</text>
<text text-anchor="middle" x="451.5" y="-73" font-family="Helvetica,sans-Serif" font-size="10.00">_imports.h</text>
</a>
</g>
</g>
<!-- Node1&#45;&gt;Node5 -->
<g id="edge4" class="edge">
<title>Node1&#45;&gt;Node5</title>
<path fill="none" stroke="#63b8ff" d="M2444.73,-146.11C2159.63,-146.42 900.79,-144.93 512.5,-96 509.7,-95.65 506.83,-95.22 503.95,-94.74"/>
<polygon fill="#63b8ff" stroke="#63b8ff" points="2444.51,-149.61 2454.51,-146.1 2444.5,-142.61 2444.51,-149.61"/>
</g>
<!-- Node6 -->
<g id="node6" class="node">
<title>Node6</title>
<g id="a_node6"><a xlink:href="iop_2cdvd_2cdfs_2src_2main_8c_source.html" target="_top" xlink:title=" ">
<polygon fill="white" stroke="#666666" points="645,-90.5 522,-90.5 522,-71.5 645,-71.5 645,-90.5"/>
<text text-anchor="middle" x="583.5" y="-78.5" font-family="Helvetica,sans-Serif" font-size="10.00">iop/cdvd/cdfs/src/main.c</text>
</a>
</g>
</g>
<!-- Node1&#45;&gt;Node6 -->
<g id="edge5" class="edge">
<title>Node1&#45;&gt;Node6</title>
<path fill="none" stroke="#63b8ff" d="M2444.97,-145.74C2172.93,-144.33 1013.97,-136.02 654.5,-96 644.14,-94.85 633.03,-92.97 622.75,-90.96"/>
<polygon fill="#63b8ff" stroke="#63b8ff" points="2444.6,-149.24 2454.62,-145.79 2444.64,-142.24 2444.6,-149.24"/>
</g>
<!-- Node7 -->
<g id="node7" class="node">
<title>Node7</title>
<g id="a_node7"><a xlink:href="iop_2debug_2iop__sbusdbg_2src_2irx__imports_8h_source.html" target="_top" xlink:title=" ">
<polygon fill="white" stroke="#666666" points="779.5,-96 663.5,-96 663.5,-66 779.5,-66 779.5,-96"/>
<text text-anchor="start" x="671.5" y="-84" font-family="Helvetica,sans-Serif" font-size="10.00">iop/debug/iop_sbusdbg</text>
<text text-anchor="middle" x="721.5" y="-73" font-family="Helvetica,sans-Serif" font-size="10.00">/src/irx_imports.h</text>
</a>
</g>
</g>
<!-- Node1&#45;&gt;Node7 -->
<g id="edge6" class="edge">
<title>Node1&#45;&gt;Node7</title>
<path fill="none" stroke="#63b8ff" d="M2444.57,-145.69C2184.1,-144.06 1119.7,-135.12 788.5,-96 785.67,-95.67 782.78,-95.27 779.87,-94.83"/>
<polygon fill="#63b8ff" stroke="#63b8ff" points="2444.47,-149.19 2454.49,-145.75 2444.51,-142.19 2444.47,-149.19"/>
</g>
<!-- Node8 -->
<g id="node8" class="node">
<title>Node8</title>
<g id="a_node8"><a xlink:href="sbus__dbg_8c_source.html" target="_top" xlink:title=" ">
<polygon fill="white" stroke="#666666" points="913.5,-96 797.5,-96 797.5,-66 913.5,-66 913.5,-96"/>
<text text-anchor="start" x="805.5" y="-84" font-family="Helvetica,sans-Serif" font-size="10.00">iop/debug/iop_sbusdbg</text>
<text text-anchor="middle" x="855.5" y="-73" font-family="Helvetica,sans-Serif" font-size="10.00">/src/sbus_dbg.c</text>
</a>
</g>
</g>
<!-- Node1&#45;&gt;Node8 -->
<g id="edge7" class="edge">
<title>Node1&#45;&gt;Node8</title>
<path fill="none" stroke="#63b8ff" d="M2445.11,-145.52C2198.33,-143.28 1226.13,-132.25 922.5,-96 919.67,-95.66 916.78,-95.26 913.87,-94.82"/>
<polygon fill="#63b8ff" stroke="#63b8ff" points="2444.77,-149.02 2454.8,-145.61 2444.83,-142.02 2444.77,-149.02"/>
</g>
<!-- Node9 -->
<g id="node9" class="node">
<title>Node9</title>
<g id="a_node9"><a xlink:href="sbus__tty_8c_source.html" target="_top" xlink:title=" ">
<polygon fill="white" stroke="#666666" points="1047.5,-96 931.5,-96 931.5,-66 1047.5,-66 1047.5,-96"/>
<text text-anchor="start" x="939.5" y="-84" font-family="Helvetica,sans-Serif" font-size="10.00">iop/debug/iop_sbusdbg</text>
<text text-anchor="middle" x="989.5" y="-73" font-family="Helvetica,sans-Serif" font-size="10.00">/src/sbus_tty.c</text>
</a>
</g>
</g>
<!-- Node1&#45;&gt;Node9 -->
<g id="edge8" class="edge">
<title>Node1&#45;&gt;Node9</title>
<path fill="none" stroke="#63b8ff" d="M2444.71,-145.33C2210.61,-142.39 1332.24,-129.33 1056.5,-96 1053.67,-95.66 1050.78,-95.26 1047.87,-94.81"/>
<polygon fill="#63b8ff" stroke="#63b8ff" points="2444.45,-148.82 2454.49,-145.45 2444.54,-141.82 2444.45,-148.82"/>
</g>
<!-- Node10 -->
<g id="node10" class="node">
<title>Node10</title>
<g id="a_node10"><a xlink:href="iop_2debug_2iopdebug_2src_2irx__imports_8h_source.html" target="_top" xlink:title=" ">
<polygon fill="white" stroke="#666666" points="1167,-96 1066,-96 1066,-66 1167,-66 1167,-96"/>
<text text-anchor="start" x="1074" y="-84" font-family="Helvetica,sans-Serif" font-size="10.00">iop/debug/iopdebug</text>
<text text-anchor="middle" x="1116.5" y="-73" font-family="Helvetica,sans-Serif" font-size="10.00">/src/irx_imports.h</text>
</a>
</g>
</g>
<!-- Node1&#45;&gt;Node10 -->
<g id="edge9" class="edge">
<title>Node1&#45;&gt;Node10</title>
<path fill="none" stroke="#63b8ff" d="M2444.77,-145.33C2223.08,-142.5 1426.29,-130.15 1175.5,-96 1172.79,-95.63 1170.02,-95.19 1167.23,-94.7"/>
<polygon fill="#63b8ff" stroke="#63b8ff" points="2444.55,-148.82 2454.6,-145.45 2444.64,-141.82 2444.55,-148.82"/>
</g>
<!-- Node11 -->
<g id="node11" class="node">
<title>Node11</title>
<g id="a_node11"><a xlink:href="iop_2dev9_2dev9_2src_2irx__imports_8h_source.html" target="_top" xlink:title=" ">
<polygon fill="white" stroke="#666666" points="1292,-96 1185,-96 1185,-66 1292,-66 1292,-96"/>
<text text-anchor="start" x="1193" y="-84" font-family="Helvetica,sans-Serif" font-size="10.00">iop/dev9/dev9/src/irx</text>
<text text-anchor="middle" x="1238.5" y="-73" font-family="Helvetica,sans-Serif" font-size="10.00">_imports.h</text>
</a>
</g>
</g>
<!-- Node1&#45;&gt;Node11 -->
<g id="edge10" class="edge">
<title>Node1&#45;&gt;Node11</title>
<path fill="none" stroke="#63b8ff" d="M2444.79,-144.98C2236.76,-141.09 1525.81,-125.87 1300.5,-96 1297.87,-95.65 1295.2,-95.25 1292.5,-94.8"/>
<polygon fill="#63b8ff" stroke="#63b8ff" points="2444.46,-148.48 2454.53,-145.16 2444.59,-141.48 2444.46,-148.48"/>
</g>
<!-- Node12 -->
<g id="node12" class="node">
<title>Node12</title>
<g id="a_node12"><a xlink:href="iop_2fs_2bdmfs__fatfs_2src_2irx__imports_8h_source.html" target="_top" xlink:title=" ">
<polygon fill="white" stroke="#666666" points="1405,-96 1310,-96 1310,-66 1405,-66 1405,-96"/>
<text text-anchor="start" x="1318" y="-84" font-family="Helvetica,sans-Serif" font-size="10.00">iop/fs/bdmfs_fatfs</text>
<text text-anchor="middle" x="1357.5" y="-73" font-family="Helvetica,sans-Serif" font-size="10.00">/src/irx_imports.h</text>
</a>
</g>
</g>
<!-- Node1&#45;&gt;Node12 -->
<g id="edge11" class="edge">
<title>Node1&#45;&gt;Node12</title>
<path fill="none" stroke="#63b8ff" d="M2444.77,-144.87C2249.6,-140.8 1615.37,-125.57 1413.5,-96 1410.82,-95.61 1408.09,-95.14 1405.34,-94.62"/>
<polygon fill="#63b8ff" stroke="#63b8ff" points="2444.59,-148.36 2454.66,-145.07 2444.73,-141.36 2444.59,-148.36"/>
</g>
<!-- Node13 -->
<g id="node13" class="node">
<title>Node13</title>
<g id="a_node13"><a xlink:href="iop_2fs_2bdmfs__vfat_2src_2irx__imports_8h_source.html" target="_top" xlink:title=" ">
<polygon fill="white" stroke="#666666" points="1532,-96 1423,-96 1423,-66 1532,-66 1532,-96"/>
<text text-anchor="start" x="1431" y="-84" font-family="Helvetica,sans-Serif" font-size="10.00">iop/fs/bdmfs_vfat/src</text>
<text text-anchor="middle" x="1477.5" y="-73" font-family="Helvetica,sans-Serif" font-size="10.00">/irx_imports.h</text>
</a>
</g>
</g>
<!-- Node1&#45;&gt;Node13 -->
<g id="edge12" class="edge">
<title>Node1&#45;&gt;Node13</title>
<path fill="none" stroke="#63b8ff" d="M2444.91,-145.95C2295.8,-145.18 1885.16,-138.97 1546.5,-96 1541.89,-95.42 1537.13,-94.7 1532.37,-93.89"/>
<polygon fill="#63b8ff" stroke="#63b8ff" points="2444.49,-149.45 2454.51,-145.99 2444.52,-142.45 2444.49,-149.45"/>
</g>
<!-- Node14 -->
<g id="node14" class="node">
<title>Node14</title>
<g id="a_node14"><a xlink:href="ps2netfs_8c.html" target="_top" xlink:title=" ">
<polygon fill="white" stroke="#666666" points="1181.5,-24.5 1051.5,-24.5 1051.5,-5.5 1181.5,-5.5 1181.5,-24.5"/>
<text text-anchor="middle" x="1116.5" y="-12.5" font-family="Helvetica,sans-Serif" font-size="10.00">iop/fs/netfs/src/ps2netfs.c</text>
</a>
</g>
</g>
<!-- Node1&#45;&gt;Node14 -->
<g id="edge13" class="edge">
<title>Node1&#45;&gt;Node14</title>
<path fill="none" stroke="#63b8ff" d="M2444.96,-144.86C2255.75,-140.85 1660.33,-125.96 1579.5,-96 1558.99,-88.4 1560.82,-74.09 1540.5,-66 1395.23,-8.13 1345.24,-52.55 1190.5,-30 1180.8,-28.59 1170.43,-26.8 1160.61,-24.98"/>
<polygon fill="#63b8ff" stroke="#63b8ff" points="2444.71,-148.36 2454.78,-145.07 2444.86,-141.36 2444.71,-148.36"/>
</g>
<!-- Node15 -->
<g id="node15" class="node">
<title>Node15</title>
<g id="a_node15"><a xlink:href="iop_2fs_2romdrv_2src_2irx__imports_8h_source.html" target="_top" xlink:title=" ">
<polygon fill="white" stroke="#666666" points="1916,-96 1813,-96 1813,-66 1916,-66 1916,-96"/>
<text text-anchor="start" x="1821" y="-84" font-family="Helvetica,sans-Serif" font-size="10.00">iop/fs/romdrv/src/irx</text>
<text text-anchor="middle" x="1864.5" y="-73" font-family="Helvetica,sans-Serif" font-size="10.00">_imports.h</text>
</a>
</g>
</g>
<!-- Node1&#45;&gt;Node15 -->
<g id="edge14" class="edge">
<title>Node1&#45;&gt;Node15</title>
<path fill="none" stroke="#63b8ff" d="M2444.94,-143.75C2340.63,-139.06 2113.62,-126.09 1924.5,-96 1921.86,-95.58 1919.16,-95.11 1916.44,-94.6"/>
<polygon fill="#63b8ff" stroke="#63b8ff" points="2444.49,-147.23 2454.64,-144.17 2444.8,-140.24 2444.49,-147.23"/>
</g>
<!-- Node16 -->
<g id="node16" class="node">
<title>Node16</title>
<g id="a_node16"><a xlink:href="romdrv_8c_source.html" target="_top" xlink:title=" ">
<polygon fill="white" stroke="#666666" points="2065,-90.5 1934,-90.5 1934,-71.5 2065,-71.5 2065,-90.5"/>
<text text-anchor="middle" x="1999.5" y="-78.5" font-family="Helvetica,sans-Serif" font-size="10.00">iop/fs/romdrv/src/romdrv.c</text>
</a>
</g>
</g>
<!-- Node1&#45;&gt;Node16 -->
<g id="edge15" class="edge">
<title>Node1&#45;&gt;Node16</title>
<path fill="none" stroke="#63b8ff" d="M2444.62,-140.57C2362.04,-132.52 2205.75,-116.19 2073.5,-96 2063.94,-94.54 2053.72,-92.75 2044.02,-90.95"/>
<polygon fill="#63b8ff" stroke="#63b8ff" points="2444.22,-144.05 2454.51,-141.53 2444.89,-137.08 2444.22,-144.05"/>
</g>
<!-- Node17 -->
<g id="node17" class="node">
<title>Node17</title>
<g id="a_node17"><a xlink:href="iop_2i_link_2_i_e_e_e1394__bd_2src_2irx__imports_8h_source.html" target="_top" xlink:title=" ">
<polygon fill="white" stroke="#666666" points="2190,-96 2083,-96 2083,-66 2190,-66 2190,-96"/>
<text text-anchor="start" x="2091" y="-84" font-family="Helvetica,sans-Serif" font-size="10.00">iop/iLink/IEEE1394</text>
<text text-anchor="middle" x="2136.5" y="-73" font-family="Helvetica,sans-Serif" font-size="10.00">_bd/src/irx_imports.h</text>
</a>
</g>
</g>
<!-- Node1&#45;&gt;Node17 -->
<g id="edge16" class="edge">
<title>Node1&#45;&gt;Node17</title>
<path fill="none" stroke="#63b8ff" d="M2444.84,-137.45C2383.75,-128.17 2284.57,-112.46 2199.5,-96 2196.53,-95.43 2193.49,-94.82 2190.42,-94.19"/>
<polygon fill="#63b8ff" stroke="#63b8ff" points="2444.25,-140.9 2454.66,-138.94 2445.3,-133.98 2444.25,-140.9"/>
</g>
<!-- Node18 -->
<g id="node18" class="node">
<title>Node18</title>
<g id="a_node18"><a xlink:href="iop_2i_link_2_i_e_e_e1394__disk_2src_2irx__imports_8h_source.html" target="_top" xlink:title=" ">
<polygon fill="white" stroke="#666666" points="2322.5,-96 2208.5,-96 2208.5,-66 2322.5,-66 2322.5,-96"/>
<text text-anchor="start" x="2216.5" y="-84" font-family="Helvetica,sans-Serif" font-size="10.00">iop/iLink/IEEE1394</text>
<text text-anchor="middle" x="2265.5" y="-73" font-family="Helvetica,sans-Serif" font-size="10.00">_disk/src/irx_imports.h</text>
</a>
</g>
</g>
<!-- Node1&#45;&gt;Node18 -->
<g id="edge17" class="edge">
<title>Node1&#45;&gt;Node18</title>
<path fill="none" stroke="#63b8ff" d="M2445.25,-130.54C2406.88,-120.18 2356.69,-106.62 2319.1,-96.47"/>
<polygon fill="#63b8ff" stroke="#63b8ff" points="2444.21,-133.89 2454.78,-133.11 2446.04,-127.13 2444.21,-133.89"/>
</g>
<!-- Node19 -->
<g id="node19" class="node">
<title>Node19</title>
<g id="a_node19"><a xlink:href="i_link_8c_source.html" target="_top" xlink:title=" ">
<polygon fill="white" stroke="#666666" points="2436.5,-96 2340.5,-96 2340.5,-66 2436.5,-66 2436.5,-96"/>
<text text-anchor="start" x="2348.5" y="-84" font-family="Helvetica,sans-Serif" font-size="10.00">iop/iLink/iLinkman</text>
<text text-anchor="middle" x="2388.5" y="-73" font-family="Helvetica,sans-Serif" font-size="10.00">/src/iLink.c</text>
</a>
</g>
</g>
<!-- Node1&#45;&gt;Node19 -->
<g id="edge18" class="edge">
<title>Node1&#45;&gt;Node19</title>
<path fill="none" stroke="#63b8ff" d="M2467.2,-126.18C2449.99,-116.52 2429.68,-105.12 2414,-96.31"/>
<polygon fill="#63b8ff" stroke="#63b8ff" points="2465.16,-129.05 2475.6,-130.9 2468.59,-122.95 2465.16,-129.05"/>
</g>
<!-- Node20 -->
<g id="node20" class="node">
<title>Node20</title>
<g id="a_node20"><a xlink:href="iop_2i_link_2i_linkman_2src_2irx__imports_8h_source.html" target="_top" xlink:title=" ">
<polygon fill="white" stroke="#666666" points="2550.5,-96 2454.5,-96 2454.5,-66 2550.5,-66 2550.5,-96"/>
<text text-anchor="start" x="2462.5" y="-84" font-family="Helvetica,sans-Serif" font-size="10.00">iop/iLink/iLinkman</text>
<text text-anchor="middle" x="2502.5" y="-73" font-family="Helvetica,sans-Serif" font-size="10.00">/src/irx_imports.h</text>
</a>
</g>
</g>
<!-- Node1&#45;&gt;Node20 -->
<g id="edge19" class="edge">
<title>Node1&#45;&gt;Node20</title>
<path fill="none" stroke="#63b8ff" d="M2502.5,-120.39C2502.5,-112.13 2502.5,-103.28 2502.5,-96.16"/>
<polygon fill="#63b8ff" stroke="#63b8ff" points="2499,-120.28 2502.5,-130.28 2506,-120.28 2499,-120.28"/>
</g>
<!-- Node21 -->
<g id="node21" class="node">
<title>Node21</title>
<g id="a_node21"><a xlink:href="iop_2memorycard_2mcman_2src_2irx__imports_8h_source.html" target="_top" xlink:title=" ">
<polygon fill="white" stroke="#666666" points="2690,-96 2569,-96 2569,-66 2690,-66 2690,-96"/>
<text text-anchor="start" x="2577" y="-84" font-family="Helvetica,sans-Serif" font-size="10.00">iop/memorycard/mcman</text>
<text text-anchor="middle" x="2629.5" y="-73" font-family="Helvetica,sans-Serif" font-size="10.00">/src/irx_imports.h</text>
</a>
</g>
</g>
<!-- Node1&#45;&gt;Node21 -->
<g id="edge20" class="edge">
<title>Node1&#45;&gt;Node21</title>
<path fill="none" stroke="#63b8ff" d="M2541.02,-126.59C2560.36,-116.84 2583.38,-105.24 2601.09,-96.31"/>
<polygon fill="#63b8ff" stroke="#63b8ff" points="2539.71,-123.33 2532.35,-130.96 2542.86,-129.58 2539.71,-123.33"/>
</g>
<!-- Node22 -->
<g id="node22" class="node">
<title>Node22</title>
<g id="a_node22"><a xlink:href="mcman-internal_8h_source.html" target="_top" xlink:title=" ">
<polygon fill="white" stroke="#666666" points="2829,-96 2708,-96 2708,-66 2829,-66 2829,-96"/>
<text text-anchor="start" x="2716" y="-84" font-family="Helvetica,sans-Serif" font-size="10.00">iop/memorycard/mcman</text>
<text text-anchor="middle" x="2768.5" y="-73" font-family="Helvetica,sans-Serif" font-size="10.00">/src/mcman&#45;internal.h</text>
</a>
</g>
</g>
<!-- Node1&#45;&gt;Node22 -->
<g id="edge21" class="edge">
<title>Node1&#45;&gt;Node22</title>
<path fill="none" stroke="#63b8ff" d="M2559.91,-132.19C2603.82,-121.62 2664.2,-107.09 2708.7,-96.39"/>
<polygon fill="#63b8ff" stroke="#63b8ff" points="2559.21,-128.76 2550.31,-134.5 2560.85,-135.56 2559.21,-128.76"/>
</g>
<!-- Node28 -->
<g id="node28" class="node">
<title>Node28</title>
<g id="a_node28"><a xlink:href="iop_2network_2smbman_2src_2irx__imports_8h_source.html" target="_top" xlink:title=" ">
<polygon fill="white" stroke="#666666" points="2954,-96 2847,-96 2847,-66 2954,-66 2954,-96"/>
<text text-anchor="start" x="2855" y="-84" font-family="Helvetica,sans-Serif" font-size="10.00">iop/network/smbman</text>
<text text-anchor="middle" x="2900.5" y="-73" font-family="Helvetica,sans-Serif" font-size="10.00">/src/irx_imports.h</text>
</a>
</g>
</g>
<!-- Node1&#45;&gt;Node28 -->
<g id="edge27" class="edge">
<title>Node1&#45;&gt;Node28</title>
<path fill="none" stroke="#63b8ff" d="M2559.85,-138.69C2626.73,-129.88 2740.49,-114 2837.5,-96 2840.47,-95.45 2843.52,-94.86 2846.59,-94.24"/>
<polygon fill="#63b8ff" stroke="#63b8ff" points="2559.69,-135.18 2550.23,-139.95 2560.6,-142.12 2559.69,-135.18"/>
</g>
<!-- Node29 -->
<g id="node29" class="node">
<title>Node29</title>
<g id="a_node29"><a xlink:href="smb_8c_source.html" target="_top" xlink:title=" ">
<polygon fill="white" stroke="#666666" points="3079,-96 2972,-96 2972,-66 3079,-66 3079,-96"/>
<text text-anchor="start" x="2980" y="-84" font-family="Helvetica,sans-Serif" font-size="10.00">iop/network/smbman</text>
<text text-anchor="middle" x="3025.5" y="-73" font-family="Helvetica,sans-Serif" font-size="10.00">/src/smb.c</text>
</a>
</g>
</g>
<!-- Node1&#45;&gt;Node29 -->
<g id="edge28" class="edge">
<title>Node1&#45;&gt;Node29</title>
<path fill="none" stroke="#63b8ff" d="M2560.01,-141.8C2647.36,-134.96 2818.57,-119.74 2962.5,-96 2965.48,-95.51 2968.54,-94.96 2971.62,-94.38"/>
<polygon fill="#63b8ff" stroke="#63b8ff" points="2559.97,-138.29 2550.27,-142.55 2560.51,-145.27 2559.97,-138.29"/>
</g>
<!-- Node30 -->
<g id="node30" class="node">
<title>Node30</title>
<g id="a_node30"><a xlink:href="iop_2network_2udptty_2src_2irx__imports_8h_source.html" target="_top" xlink:title=" ">
<polygon fill="white" stroke="#666666" points="3193.5,-96 3097.5,-96 3097.5,-66 3193.5,-66 3193.5,-96"/>
<text text-anchor="start" x="3105.5" y="-84" font-family="Helvetica,sans-Serif" font-size="10.00">iop/network/udptty</text>
<text text-anchor="middle" x="3145.5" y="-73" font-family="Helvetica,sans-Serif" font-size="10.00">/src/irx_imports.h</text>
</a>
</g>
</g>
<!-- Node1&#45;&gt;Node30 -->
<g id="edge29" class="edge">
<title>Node1&#45;&gt;Node30</title>
<path fill="none" stroke="#63b8ff" d="M2559.98,-143.98C2665.23,-139.64 2895.73,-127.16 3087.5,-96 3090.67,-95.49 3093.92,-94.89 3097.19,-94.24"/>
<polygon fill="#63b8ff" stroke="#63b8ff" points="2560.04,-140.47 2550.19,-144.37 2560.32,-147.47 2560.04,-140.47"/>
</g>
<!-- Node31 -->
<g id="node31" class="node">
<title>Node31</title>
<g id="a_node31"><a xlink:href="udptty_8c_source.html" target="_top" xlink:title=" ">
<polygon fill="white" stroke="#666666" points="3307.5,-96 3211.5,-96 3211.5,-66 3307.5,-66 3307.5,-96"/>
<text text-anchor="start" x="3219.5" y="-84" font-family="Helvetica,sans-Serif" font-size="10.00">iop/network/udptty</text>
<text text-anchor="middle" x="3259.5" y="-73" font-family="Helvetica,sans-Serif" font-size="10.00">/src/udptty.c</text>
</a>
</g>
</g>
<!-- Node1&#45;&gt;Node31 -->
<g id="edge30" class="edge">
<title>Node1&#45;&gt;Node31</title>
<path fill="none" stroke="#63b8ff" d="M2560.11,-145.18C2680.26,-142.75 2966.05,-133.21 3202.5,-96 3205.32,-95.56 3208.2,-95.04 3211.1,-94.48"/>
<polygon fill="#63b8ff" stroke="#63b8ff" points="2560.11,-141.68 2550.18,-145.37 2560.25,-148.68 2560.11,-141.68"/>
</g>
<!-- Node32 -->
<g id="node32" class="node">
<title>Node32</title>
<g id="a_node32"><a xlink:href="iop_2security_2secrman_2src_2irx__imports_8h_source.html" target="_top" xlink:title=" ">
<polygon fill="white" stroke="#666666" points="3433,-96 3326,-96 3326,-66 3433,-66 3433,-96"/>
<text text-anchor="start" x="3334" y="-84" font-family="Helvetica,sans-Serif" font-size="10.00">iop/security/secrman</text>
<text text-anchor="middle" x="3379.5" y="-73" font-family="Helvetica,sans-Serif" font-size="10.00">/src/irx_imports.h</text>
</a>
</g>
</g>
<!-- Node1&#45;&gt;Node32 -->
<g id="edge31" class="edge">
<title>Node1&#45;&gt;Node32</title>
<path fill="none" stroke="#63b8ff" d="M2559.78,-145.57C2693.14,-143.9 3034.5,-135.74 3316.5,-96 3319.5,-95.58 3322.56,-95.09 3325.65,-94.55"/>
<polygon fill="#63b8ff" stroke="#63b8ff" points="2560.12,-142.07 2550.17,-145.68 2560.21,-149.07 2560.12,-142.07"/>
</g>
<!-- Node33 -->
<g id="node33" class="node">
<title>Node33</title>
<g id="a_node33"><a xlink:href="secrman_8c_source.html" target="_top" xlink:title=" ">
<polygon fill="white" stroke="#666666" points="3558,-96 3451,-96 3451,-66 3558,-66 3558,-96"/>
<text text-anchor="start" x="3459" y="-84" font-family="Helvetica,sans-Serif" font-size="10.00">iop/security/secrman</text>
<text text-anchor="middle" x="3504.5" y="-73" font-family="Helvetica,sans-Serif" font-size="10.00">/src/secrman.c</text>
</a>
</g>
</g>
<!-- Node1&#45;&gt;Node33 -->
<g id="edge32" class="edge">
<title>Node1&#45;&gt;Node33</title>
<path fill="none" stroke="#63b8ff" d="M2560.08,-146.24C2707.45,-146.13 3110,-141.34 3441.5,-96 3444.5,-95.59 3447.56,-95.11 3450.65,-94.58"/>
<polygon fill="#63b8ff" stroke="#63b8ff" points="2560.19,-142.74 2550.19,-146.24 2560.19,-149.74 2560.19,-142.74"/>
</g>
<!-- Node34 -->
<g id="node34" class="node">
<title>Node34</title>
<g id="a_node34"><a xlink:href="adpcm-stream_8c_source.html" target="_top" xlink:title=" ">
<polygon fill="white" stroke="#666666" points="3686.5,-96 3576.5,-96 3576.5,-66 3686.5,-66 3686.5,-96"/>
<text text-anchor="start" x="3584.5" y="-84" font-family="Helvetica,sans-Serif" font-size="10.00">iop/sound/ps2snd/src</text>
<text text-anchor="middle" x="3631.5" y="-73" font-family="Helvetica,sans-Serif" font-size="10.00">/adpcm&#45;stream.c</text>
</a>
</g>
</g>
<!-- Node1&#45;&gt;Node34 -->
<g id="edge33" class="edge">
<title>Node1&#45;&gt;Node34</title>
<path fill="none" stroke="#63b8ff" d="M2560.36,-146.63C2720.87,-147.64 3185,-145.7 3566.5,-96 3569.71,-95.58 3572.99,-95.09 3576.29,-94.54"/>
<polygon fill="#63b8ff" stroke="#63b8ff" points="2560.43,-143.13 2550.4,-146.56 2560.38,-150.13 2560.43,-143.13"/>
</g>
<!-- Node35 -->
<g id="node35" class="node">
<title>Node35</title>
<g id="a_node35"><a xlink:href="iop_2sound_2ps2snd_2src_2irx__imports_8h_source.html" target="_top" xlink:title=" ">
<polygon fill="white" stroke="#666666" points="3814.5,-96 3704.5,-96 3704.5,-66 3814.5,-66 3814.5,-96"/>
<text text-anchor="start" x="3712.5" y="-84" font-family="Helvetica,sans-Serif" font-size="10.00">iop/sound/ps2snd/src</text>
<text text-anchor="middle" x="3759.5" y="-73" font-family="Helvetica,sans-Serif" font-size="10.00">/irx_imports.h</text>
</a>
</g>
</g>
<!-- Node1&#45;&gt;Node35 -->
<g id="edge34" class="edge">
<title>Node1&#45;&gt;Node35</title>
<path fill="none" stroke="#63b8ff" d="M2560.43,-144.9C2767.72,-140.78 3472.02,-124.9 3695.5,-96 3698.32,-95.64 3701.2,-95.21 3704.1,-94.73"/>
<polygon fill="#63b8ff" stroke="#63b8ff" points="2560.37,-141.4 2550.44,-145.1 2560.51,-148.4 2560.37,-141.4"/>
</g>
<!-- Node36 -->
<g id="node36" class="node">
<title>Node36</title>
<g id="a_node36"><a xlink:href="eesync_8c_source.html" target="_top" xlink:title=" ">
<polygon fill="white" stroke="#666666" points="3946.5,-96 3832.5,-96 3832.5,-66 3946.5,-66 3946.5,-96"/>
<text text-anchor="start" x="3840.5" y="-84" font-family="Helvetica,sans-Serif" font-size="10.00">iop/system/eesync/src</text>
<text text-anchor="middle" x="3889.5" y="-73" font-family="Helvetica,sans-Serif" font-size="10.00">/eesync.c</text>
</a>
</g>
</g>
<!-- Node1&#45;&gt;Node36 -->
<g id="edge35" class="edge">
<title>Node1&#45;&gt;Node36</title>
<path fill="none" stroke="#63b8ff" d="M2559.95,-145.14C2780.54,-141.61 3573.45,-127.02 3823.5,-96 3826.29,-95.65 3829.14,-95.25 3832.01,-94.8"/>
<polygon fill="#63b8ff" stroke="#63b8ff" points="2560.12,-141.63 2550.17,-145.29 2560.23,-148.63 2560.12,-141.63"/>
</g>
<!-- Node37 -->
<g id="node37" class="node">
<title>Node37</title>
<g id="a_node37"><a xlink:href="iop_2system_2eesync_2src_2irx__imports_8h_source.html" target="_top" xlink:title=" ">
<polygon fill="white" stroke="#666666" points="4078.5,-96 3964.5,-96 3964.5,-66 4078.5,-66 4078.5,-96"/>
<text text-anchor="start" x="3972.5" y="-84" font-family="Helvetica,sans-Serif" font-size="10.00">iop/system/eesync/src</text>
<text text-anchor="middle" x="4021.5" y="-73" font-family="Helvetica,sans-Serif" font-size="10.00">/irx_imports.h</text>
</a>
</g>
</g>
<!-- Node1&#45;&gt;Node37 -->
<g id="edge36" class="edge">
<title>Node1&#45;&gt;Node37</title>
<path fill="none" stroke="#63b8ff" d="M2560.18,-145.36C2794.83,-142.55 3678.32,-129.9 3955.5,-96 3958.29,-95.66 3961.14,-95.26 3964.01,-94.81"/>
<polygon fill="#63b8ff" stroke="#63b8ff" points="2560.33,-141.86 2550.37,-145.48 2560.41,-148.86 2560.33,-141.86"/>
</g>
<!-- Node38 -->
<g id="node38" class="node">
<title>Node38</title>
<g id="a_node38"><a xlink:href="iopmgr_8h.html" target="_top" xlink:title=" ">
<polygon fill="white" stroke="#666666" points="1718.5,-96 1588.5,-96 1588.5,-66 1718.5,-66 1718.5,-96"/>
<text text-anchor="start" x="1596.5" y="-84" font-family="Helvetica,sans-Serif" font-size="10.00">iop/system/iopmgr/include</text>
<text text-anchor="middle" x="1653.5" y="-73" font-family="Helvetica,sans-Serif" font-size="10.00">/iopmgr.h</text>
</a>
</g>
</g>
<!-- Node1&#45;&gt;Node38 -->
<g id="edge37" class="edge">
<title>Node1&#45;&gt;Node38</title>
<path fill="none" stroke="#63b8ff" d="M2444.88,-144.44C2316.53,-140.47 1997.53,-127.99 1732.5,-96 1728.07,-95.47 1723.52,-94.85 1718.94,-94.17"/>
<polygon fill="#63b8ff" stroke="#63b8ff" points="2444.72,-147.93 2454.82,-144.74 2444.93,-140.94 2444.72,-147.93"/>
</g>
<!-- Node44 -->
<g id="node44" class="node">
<title>Node44</title>
<g id="a_node44"><a xlink:href="iop_2system_2iopmgr_2src_2slib_8c.html" target="_top" xlink:title=" ">
<polygon fill="white" stroke="#666666" points="1972,-30 1859,-30 1859,0 1972,0 1972,-30"/>
<text text-anchor="start" x="1867" y="-18" font-family="Helvetica,sans-Serif" font-size="10.00">iop/system/iopmgr/src</text>
<text text-anchor="middle" x="1915.5" y="-7" font-family="Helvetica,sans-Serif" font-size="10.00">/slib.c</text>
</a>
</g>
</g>
<!-- Node1&#45;&gt;Node44 -->
<g id="edge46" class="edge">
<title>Node1&#45;&gt;Node44</title>
<path fill="none" stroke="#63b8ff" d="M2444.84,-146.48C2279.78,-147.26 1814.32,-145.05 1768.5,-96 1759.4,-86.26 1760.74,-76.84 1768.5,-66 1779.45,-50.71 1822.11,-37.24 1858.68,-28.14"/>
<polygon fill="#63b8ff" stroke="#63b8ff" points="2444.7,-149.98 2454.68,-146.43 2444.66,-142.98 2444.7,-149.98"/>
</g>
<!-- Node45 -->
<g id="node45" class="node">
<title>Node45</title>
<g id="a_node45"><a xlink:href="iop_2system_2iopmgr_2src_2smod_8c.html" target="_top" xlink:title=" ">
<polygon fill="white" stroke="#666666" points="2103,-30 1990,-30 1990,0 2103,0 2103,-30"/>
<text text-anchor="start" x="1998" y="-18" font-family="Helvetica,sans-Serif" font-size="10.00">iop/system/iopmgr/src</text>
<text text-anchor="middle" x="2046.5" y="-7" font-family="Helvetica,sans-Serif" font-size="10.00">/smod.c</text>
</a>
</g>
</g>
<!-- Node1&#45;&gt;Node45 -->
<g id="edge47" class="edge">
<title>Node1&#45;&gt;Node45</title>
<path fill="none" stroke="#63b8ff" d="M2444.61,-146.27C2284.87,-146.41 1846.8,-142.5 1803.5,-96 1709.53,4.93 1663.78,-95.8 1980.5,-30 1983.48,-29.38 1986.54,-28.74 1989.62,-28.1"/>
<polygon fill="#63b8ff" stroke="#63b8ff" points="2444.56,-149.77 2454.56,-146.25 2444.55,-142.77 2444.56,-149.77"/>
</g>
<!-- Node46 -->
<g id="node46" class="node">
<title>Node46</title>
<g id="a_node46"><a xlink:href="iop_2system_2loadfile_2src_2irx__imports_8h_source.html" target="_top" xlink:title=" ">
<polygon fill="white" stroke="#666666" points="4194,-96 4097,-96 4097,-66 4194,-66 4194,-96"/>
<text text-anchor="start" x="4105" y="-84" font-family="Helvetica,sans-Serif" font-size="10.00">iop/system/loadfile</text>
<text text-anchor="middle" x="4145.5" y="-73" font-family="Helvetica,sans-Serif" font-size="10.00">/src/irx_imports.h</text>
</a>
</g>
</g>
<!-- Node1&#45;&gt;Node46 -->
<g id="edge48" class="edge">
<title>Node1&#45;&gt;Node46</title>
<path fill="none" stroke="#63b8ff" d="M2560.1,-145.77C2807.79,-144.52 3783.51,-137.04 4087.5,-96 4090.48,-95.6 4093.52,-95.11 4096.59,-94.55"/>
<polygon fill="#63b8ff" stroke="#63b8ff" points="2560.35,-142.26 2550.37,-145.81 2560.39,-149.26 2560.35,-142.26"/>
</g>
<!-- Node49 -->
<g id="node49" class="node">
<title>Node49</title>
<g id="a_node49"><a xlink:href="sio2man_8c.html" target="_top" xlink:title=" ">
<polygon fill="white" stroke="#666666" points="4316.5,-96 4212.5,-96 4212.5,-66 4316.5,-66 4316.5,-96"/>
<text text-anchor="start" x="4220.5" y="-84" font-family="Helvetica,sans-Serif" font-size="10.00">iop/system/sio2man</text>
<text text-anchor="middle" x="4264.5" y="-73" font-family="Helvetica,sans-Serif" font-size="10.00">/src/sio2man.c</text>
</a>
</g>
</g>
<!-- Node1&#45;&gt;Node49 -->
<g id="edge51" class="edge">
<title>Node1&#45;&gt;Node49</title>
<path fill="none" stroke="#63b8ff" d="M2560.01,-145.82C2818.59,-144.8 3875.21,-138.08 4203.5,-96 4206.3,-95.64 4209.16,-95.21 4212.05,-94.73"/>
<polygon fill="#63b8ff" stroke="#63b8ff" points="2560.16,-142.32 2550.17,-145.86 2560.19,-149.32 2560.16,-142.32"/>
</g>
<!-- Node50 -->
<g id="node50" class="node">
<title>Node50</title>
<g id="a_node50"><a xlink:href="iop_2system_2udnl_2src_2irx__imports_8h_source.html" target="_top" xlink:title=" ">
<polygon fill="white" stroke="#666666" points="4436,-96 4335,-96 4335,-66 4436,-66 4436,-96"/>
<text text-anchor="start" x="4343" y="-84" font-family="Helvetica,sans-Serif" font-size="10.00">iop/system/udnl/src</text>
<text text-anchor="middle" x="4385.5" y="-73" font-family="Helvetica,sans-Serif" font-size="10.00">/irx_imports.h</text>
</a>
</g>
</g>
<!-- Node1&#45;&gt;Node50 -->
<g id="edge52" class="edge">
<title>Node1&#45;&gt;Node50</title>
<path fill="none" stroke="#63b8ff" d="M2560.13,-145.98C2830.17,-145.67 3972,-141.61 4325.5,-96 4328.47,-95.62 4331.51,-95.15 4334.56,-94.62"/>
<polygon fill="#63b8ff" stroke="#63b8ff" points="2560.18,-142.48 2550.18,-145.99 2560.19,-149.48 2560.18,-142.48"/>
</g>
<!-- Node51 -->
<g id="node51" class="node">
<title>Node51</title>
<g id="a_node51"><a xlink:href="udnl_8c_source.html" target="_top" xlink:title=" ">
<polygon fill="white" stroke="#666666" points="4555,-96 4454,-96 4454,-66 4555,-66 4555,-96"/>
<text text-anchor="start" x="4462" y="-84" font-family="Helvetica,sans-Serif" font-size="10.00">iop/system/udnl/src</text>
<text text-anchor="middle" x="4504.5" y="-73" font-family="Helvetica,sans-Serif" font-size="10.00">/udnl.c</text>
</a>
</g>
</g>
<!-- Node1&#45;&gt;Node51 -->
<g id="edge53" class="edge">
<title>Node1&#45;&gt;Node51</title>
<path fill="none" stroke="#63b8ff" d="M2559.83,-146.13C2839.99,-146.5 4066.98,-145.24 4445.5,-96 4448.21,-95.65 4450.99,-95.22 4453.77,-94.74"/>
<polygon fill="#63b8ff" stroke="#63b8ff" points="2560.24,-142.63 2550.24,-146.11 2560.23,-149.63 2560.24,-142.63"/>
</g>
<!-- Node52 -->
<g id="node52" class="node">
<title>Node52</title>
<g id="a_node52"><a xlink:href="iop_2usb_2camera_2src_2irx__imports_8h_source.html" target="_top" xlink:title=" ">
<polygon fill="white" stroke="#666666" points="4673.5,-96 4573.5,-96 4573.5,-66 4673.5,-66 4673.5,-96"/>
<text text-anchor="start" x="4581.5" y="-84" font-family="Helvetica,sans-Serif" font-size="10.00">iop/usb/camera/src</text>
<text text-anchor="middle" x="4623.5" y="-73" font-family="Helvetica,sans-Serif" font-size="10.00">/irx_imports.h</text>
</a>
</g>
</g>
<!-- Node1&#45;&gt;Node52 -->
<g id="edge54" class="edge">
<title>Node1&#45;&gt;Node52</title>
<path fill="none" stroke="#63b8ff" d="M2560.02,-146.23C2850.84,-147.12 4161.26,-148.15 4564.5,-96 4567.32,-95.64 4570.2,-95.19 4573.1,-94.69"/>
<polygon fill="#63b8ff" stroke="#63b8ff" points="2560.44,-142.73 2550.43,-146.2 2560.42,-149.73 2560.44,-142.73"/>
</g>
<!-- Node53 -->
<g id="node53" class="node">
<title>Node53</title>
<g id="a_node53"><a xlink:href="ps2cam_8c.html" target="_top" xlink:title=" ">
<polygon fill="white" stroke="#666666" points="4791.5,-96 4691.5,-96 4691.5,-66 4791.5,-66 4791.5,-96"/>
<text text-anchor="start" x="4699.5" y="-84" font-family="Helvetica,sans-Serif" font-size="10.00">iop/usb/camera/src</text>
<text text-anchor="middle" x="4741.5" y="-73" font-family="Helvetica,sans-Serif" font-size="10.00">/ps2cam.c</text>
</a>
</g>
</g>
<!-- Node1&#45;&gt;Node53 -->
<g id="edge55" class="edge">
<title>Node1&#45;&gt;Node53</title>
<path fill="none" stroke="#63b8ff" d="M2560.34,-146.32C2861.73,-147.71 4254.77,-151.03 4682.5,-96 4685.32,-95.64 4688.2,-95.2 4691.1,-94.69"/>
<polygon fill="#63b8ff" stroke="#63b8ff" points="2560.38,-142.82 2550.36,-146.27 2560.35,-149.82 2560.38,-142.82"/>
</g>
<!-- Node54 -->
<g id="node54" class="node">
<title>Node54</title>
<g id="a_node54"><a xlink:href="iop_2usb_2keyboard_2src_2irx__imports_8h_source.html" target="_top" xlink:title=" ">
<polygon fill="white" stroke="#666666" points="4917,-96 4810,-96 4810,-66 4917,-66 4917,-96"/>
<text text-anchor="start" x="4818" y="-84" font-family="Helvetica,sans-Serif" font-size="10.00">iop/usb/keyboard/src</text>
<text text-anchor="middle" x="4863.5" y="-73" font-family="Helvetica,sans-Serif" font-size="10.00">/irx_imports.h</text>
</a>
</g>
</g>
<!-- Node1&#45;&gt;Node54 -->
<g id="edge56" class="edge">
<title>Node1&#45;&gt;Node54</title>
<path fill="none" stroke="#63b8ff" d="M2559.93,-146.28C2870.07,-147.58 4347.51,-150.72 4800.5,-96 4803.5,-95.64 4806.57,-95.2 4809.66,-94.69"/>
<polygon fill="#63b8ff" stroke="#63b8ff" points="2560.08,-142.78 2550.07,-146.24 2560.05,-149.78 2560.08,-142.78"/>
</g>
<!-- Node55 -->
<g id="node55" class="node">
<title>Node55</title>
<g id="a_node55"><a xlink:href="ps2kbd_8c.html" target="_top" xlink:title=" ">
<polygon fill="white" stroke="#666666" points="5042,-96 4935,-96 4935,-66 5042,-66 5042,-96"/>
<text text-anchor="start" x="4943" y="-84" font-family="Helvetica,sans-Serif" font-size="10.00">iop/usb/keyboard/src</text>
<text text-anchor="middle" x="4988.5" y="-73" font-family="Helvetica,sans-Serif" font-size="10.00">/ps2kbd.c</text>
</a>
</g>
</g>
<!-- Node1&#45;&gt;Node55 -->
<g id="edge57" class="edge">
<title>Node1&#45;&gt;Node55</title>
<path fill="none" stroke="#63b8ff" d="M2560.41,-145.5C2905.6,-142.46 4685.2,-125.43 4926.5,-96 4929.13,-95.68 4931.81,-95.3 4934.51,-94.86"/>
<polygon fill="#63b8ff" stroke="#63b8ff" points="2560.45,-142 2550.48,-145.59 2560.51,-149 2560.45,-142"/>
</g>
<!-- Node56 -->
<g id="node56" class="node">
<title>Node56</title>
<g id="a_node56"><a xlink:href="iop_2usb_2usbhdfsd_2src_2irx__imports_8h_source.html" target="_top" xlink:title=" ">
<polygon fill="white" stroke="#666666" points="5167,-96 5060,-96 5060,-66 5167,-66 5167,-96"/>
<text text-anchor="start" x="5068" y="-84" font-family="Helvetica,sans-Serif" font-size="10.00">iop/usb/usbhdfsd/src</text>
<text text-anchor="middle" x="5113.5" y="-73" font-family="Helvetica,sans-Serif" font-size="10.00">/irx_imports.h</text>
</a>
</g>
</g>
<!-- Node1&#45;&gt;Node56 -->
<g id="edge58" class="edge">
<title>Node1&#45;&gt;Node56</title>
<path fill="none" stroke="#63b8ff" d="M2560.25,-145.57C2915.43,-142.82 4797,-126.91 5051.5,-96 5054.13,-95.68 5056.81,-95.3 5059.51,-94.87"/>
<polygon fill="#63b8ff" stroke="#63b8ff" points="2560.23,-142.07 2550.25,-145.65 2560.28,-149.07 2560.23,-142.07"/>
</g>
<!-- Node23 -->
<g id="node23" class="node">
<title>Node23</title>
<g id="a_node23"><a xlink:href="iop_2memorycard_2mcman_2src_2main_8c_source.html" target="_top" xlink:title=" ">
<polygon fill="white" stroke="#666666" points="2551,-30 2430,-30 2430,0 2551,0 2551,-30"/>
<text text-anchor="start" x="2438" y="-18" font-family="Helvetica,sans-Serif" font-size="10.00">iop/memorycard/mcman</text>
<text text-anchor="middle" x="2490.5" y="-7" font-family="Helvetica,sans-Serif" font-size="10.00">/src/main.c</text>
</a>
</g>
</g>
<!-- Node22&#45;&gt;Node23 -->
<g id="edge22" class="edge">
<title>Node22&#45;&gt;Node23</title>
<path fill="none" stroke="#63b8ff" d="M2696.64,-63.46C2651.47,-53.06 2593.86,-39.8 2551.04,-29.94"/>
<polygon fill="#63b8ff" stroke="#63b8ff" points="2695.83,-66.86 2706.36,-65.69 2697.4,-60.04 2695.83,-66.86"/>
</g>
<!-- Node24 -->
<g id="node24" class="node">
<title>Node24</title>
<g id="a_node24"><a xlink:href="mcdev_8c_source.html" target="_top" xlink:title=" ">
<polygon fill="white" stroke="#666666" points="2690,-30 2569,-30 2569,0 2690,0 2690,-30"/>
<text text-anchor="start" x="2577" y="-18" font-family="Helvetica,sans-Serif" font-size="10.00">iop/memorycard/mcman</text>
<text text-anchor="middle" x="2629.5" y="-7" font-family="Helvetica,sans-Serif" font-size="10.00">/src/mcdev.c</text>
</a>
</g>
</g>
<!-- Node22&#45;&gt;Node24 -->
<g id="edge23" class="edge">
<title>Node22&#45;&gt;Node24</title>
<path fill="none" stroke="#63b8ff" d="M2726.92,-60.86C2705.63,-51.05 2680.15,-39.32 2660.59,-30.31"/>
<polygon fill="#63b8ff" stroke="#63b8ff" points="2725.38,-64 2735.93,-65 2728.31,-57.64 2725.38,-64"/>
</g>
<!-- Node25 -->
<g id="node25" class="node">
<title>Node25</title>
<g id="a_node25"><a xlink:href="mcsio2_8c_source.html" target="_top" xlink:title=" ">
<polygon fill="white" stroke="#666666" points="2829,-30 2708,-30 2708,0 2829,0 2829,-30"/>
<text text-anchor="start" x="2716" y="-18" font-family="Helvetica,sans-Serif" font-size="10.00">iop/memorycard/mcman</text>
<text text-anchor="middle" x="2768.5" y="-7" font-family="Helvetica,sans-Serif" font-size="10.00">/src/mcsio2.c</text>
</a>
</g>
</g>
<!-- Node22&#45;&gt;Node25 -->
<g id="edge24" class="edge">
<title>Node22&#45;&gt;Node25</title>
<path fill="none" stroke="#63b8ff" d="M2768.5,-54.39C2768.5,-46.13 2768.5,-37.28 2768.5,-30.16"/>
<polygon fill="#63b8ff" stroke="#63b8ff" points="2765,-54.28 2768.5,-64.28 2772,-54.28 2765,-54.28"/>
</g>
<!-- Node26 -->
<g id="node26" class="node">
<title>Node26</title>
<g id="a_node26"><a xlink:href="ps1mc__fio_8c_source.html" target="_top" xlink:title=" ">
<polygon fill="white" stroke="#666666" points="2968,-30 2847,-30 2847,0 2968,0 2968,-30"/>
<text text-anchor="start" x="2855" y="-18" font-family="Helvetica,sans-Serif" font-size="10.00">iop/memorycard/mcman</text>
<text text-anchor="middle" x="2907.5" y="-7" font-family="Helvetica,sans-Serif" font-size="10.00">/src/ps1mc_fio.c</text>
</a>
</g>
</g>
<!-- Node22&#45;&gt;Node26 -->
<g id="edge25" class="edge">
<title>Node22&#45;&gt;Node26</title>
<path fill="none" stroke="#63b8ff" d="M2810.08,-60.86C2831.37,-51.05 2856.85,-39.32 2876.41,-30.31"/>
<polygon fill="#63b8ff" stroke="#63b8ff" points="2808.69,-57.64 2801.07,-65 2811.62,-64 2808.69,-57.64"/>
</g>
<!-- Node27 -->
<g id="node27" class="node">
<title>Node27</title>
<g id="a_node27"><a xlink:href="ps2mc__fio_8c_source.html" target="_top" xlink:title=" ">
<polygon fill="white" stroke="#666666" points="3107,-30 2986,-30 2986,0 3107,0 3107,-30"/>
<text text-anchor="start" x="2994" y="-18" font-family="Helvetica,sans-Serif" font-size="10.00">iop/memorycard/mcman</text>
<text text-anchor="middle" x="3046.5" y="-7" font-family="Helvetica,sans-Serif" font-size="10.00">/src/ps2mc_fio.c</text>
</a>
</g>
</g>
<!-- Node22&#45;&gt;Node27 -->
<g id="edge26" class="edge">
<title>Node22&#45;&gt;Node27</title>
<path fill="none" stroke="#63b8ff" d="M2840.36,-63.46C2885.53,-53.06 2943.14,-39.8 2985.96,-29.94"/>
<polygon fill="#63b8ff" stroke="#63b8ff" points="2839.6,-60.04 2830.64,-65.69 2841.17,-66.86 2839.6,-60.04"/>
</g>
<!-- Node38&#45;&gt;Node14 -->
<g id="edge40" class="edge">
<title>Node38&#45;&gt;Node14</title>
<path fill="none" stroke="#63b8ff" d="M1577,-66.34C1576.16,-66.23 1575.33,-66.11 1574.5,-66 1404.63,-43.03 1360.23,-53.96 1190.5,-30 1180.66,-28.61 1170.14,-26.81 1160.21,-24.97"/>
<polygon fill="#63b8ff" stroke="#63b8ff" points="1576.14,-69.75 1586.54,-67.75 1577.16,-62.83 1576.14,-69.75"/>
</g>
<!-- Node39 -->
<g id="node39" class="node">
<title>Node39</title>
<g id="a_node39"><a xlink:href="devscan_8c.html" target="_top" xlink:title=" ">
<polygon fill="white" stroke="#666666" points="1329,-24.5 1200,-24.5 1200,-5.5 1329,-5.5 1329,-24.5"/>
<text text-anchor="middle" x="1264.5" y="-12.5" font-family="Helvetica,sans-Serif" font-size="10.00">iop/fs/netfs/src/devscan.c</text>
</a>
</g>
</g>
<!-- Node38&#45;&gt;Node39 -->
<g id="edge38" class="edge">
<title>Node38&#45;&gt;Node39</title>
<path fill="none" stroke="#63b8ff" d="M1577.5,-66.5C1576.49,-66.33 1575.49,-66.16 1574.5,-66 1469.37,-48.7 1442.5,-48.04 1337.5,-30 1328.47,-28.45 1318.83,-26.68 1309.62,-24.94"/>
<polygon fill="#63b8ff" stroke="#63b8ff" points="1576.49,-69.87 1586.93,-68.09 1577.65,-62.97 1576.49,-69.87"/>
</g>
<!-- Node40 -->
<g id="node40" class="node">
<title>Node40</title>
<g id="a_node40"><a xlink:href="ps2__fio_8c.html" target="_top" xlink:title=" ">
<polygon fill="white" stroke="#666666" points="1448,-30 1347,-30 1347,0 1448,0 1448,-30"/>
<text text-anchor="start" x="1355" y="-18" font-family="Helvetica,sans-Serif" font-size="10.00">iop/fs/netfs/src/ps2</text>
<text text-anchor="middle" x="1397.5" y="-7" font-family="Helvetica,sans-Serif" font-size="10.00">_fio.c</text>
</a>
</g>
</g>
<!-- Node38&#45;&gt;Node40 -->
<g id="edge39" class="edge">
<title>Node38&#45;&gt;Node40</title>
<path fill="none" stroke="#63b8ff" d="M1584.77,-62.82C1541.73,-52.06 1487.23,-38.43 1448.13,-28.66"/>
<polygon fill="#63b8ff" stroke="#63b8ff" points="1583.71,-66.16 1594.26,-65.19 1585.41,-59.37 1583.71,-66.16"/>
</g>
<!-- Node41 -->
<g id="node41" class="node">
<title>Node41</title>
<g id="a_node41"><a xlink:href="commandline_8c.html" target="_top" xlink:title=" ">
<polygon fill="white" stroke="#666666" points="1579,-30 1466,-30 1466,0 1579,0 1579,-30"/>
<text text-anchor="start" x="1474" y="-18" font-family="Helvetica,sans-Serif" font-size="10.00">iop/system/iopmgr/src</text>
<text text-anchor="middle" x="1522.5" y="-7" font-family="Helvetica,sans-Serif" font-size="10.00">/commandline.c</text>
</a>
</g>
</g>
<!-- Node38&#45;&gt;Node41 -->
<g id="edge41" class="edge">
<title>Node38&#45;&gt;Node41</title>
<path fill="none" stroke="#63b8ff" d="M1613.77,-60.59C1593.81,-50.84 1570.07,-39.24 1551.8,-30.31"/>
<polygon fill="#63b8ff" stroke="#63b8ff" points="1612.22,-63.73 1622.74,-64.97 1615.29,-57.44 1612.22,-63.73"/>
</g>
<!-- Node42 -->
<g id="node42" class="node">
<title>Node42</title>
<g id="a_node42"><a xlink:href="devices_8c.html" target="_top" xlink:title=" ">
<polygon fill="white" stroke="#666666" points="1710,-30 1597,-30 1597,0 1710,0 1710,-30"/>
<text text-anchor="start" x="1605" y="-18" font-family="Helvetica,sans-Serif" font-size="10.00">iop/system/iopmgr/src</text>
<text text-anchor="middle" x="1653.5" y="-7" font-family="Helvetica,sans-Serif" font-size="10.00">/devices.c</text>
</a>
</g>
</g>
<!-- Node38&#45;&gt;Node42 -->
<g id="edge42" class="edge">
<title>Node38&#45;&gt;Node42</title>
<path fill="none" stroke="#63b8ff" d="M1653.5,-54.39C1653.5,-46.13 1653.5,-37.28 1653.5,-30.16"/>
<polygon fill="#63b8ff" stroke="#63b8ff" points="1650,-54.28 1653.5,-64.28 1657,-54.28 1650,-54.28"/>
</g>
<!-- Node43 -->
<g id="node43" class="node">
<title>Node43</title>
<g id="a_node43"><a xlink:href="iop_2system_2iopmgr_2src_2main_8c.html" target="_top" xlink:title=" ">
<polygon fill="white" stroke="#666666" points="1841,-30 1728,-30 1728,0 1841,0 1841,-30"/>
<text text-anchor="start" x="1736" y="-18" font-family="Helvetica,sans-Serif" font-size="10.00">iop/system/iopmgr/src</text>
<text text-anchor="middle" x="1784.5" y="-7" font-family="Helvetica,sans-Serif" font-size="10.00">/main.c</text>
</a>
</g>
</g>
<!-- Node38&#45;&gt;Node43 -->
<g id="edge43" class="edge">
<title>Node38&#45;&gt;Node43</title>
<path fill="none" stroke="#63b8ff" d="M1693.23,-60.59C1713.19,-50.84 1736.93,-39.24 1755.2,-30.31"/>
<polygon fill="#63b8ff" stroke="#63b8ff" points="1691.71,-57.44 1684.26,-64.97 1694.78,-63.73 1691.71,-57.44"/>
</g>
<!-- Node38&#45;&gt;Node44 -->
<g id="edge44" class="edge">
<title>Node38&#45;&gt;Node44</title>
<path fill="none" stroke="#63b8ff" d="M1723.69,-62.85C1766.01,-52.52 1819.21,-39.52 1858.84,-29.84"/>
<polygon fill="#63b8ff" stroke="#63b8ff" points="1722.98,-59.43 1714.09,-65.2 1724.64,-66.23 1722.98,-59.43"/>
</g>
<!-- Node38&#45;&gt;Node45 -->
<g id="edge45" class="edge">
<title>Node38&#45;&gt;Node45</title>
<path fill="none" stroke="#63b8ff" d="M1730.02,-69.56C1796.42,-60.21 1895.05,-45.58 1980.5,-30 1983.5,-29.45 1986.56,-28.87 1989.66,-28.27"/>
<polygon fill="#63b8ff" stroke="#63b8ff" points="1729.74,-66.07 1720.33,-70.92 1730.72,-73 1729.74,-66.07"/>
</g>
<!-- Node47 -->
<g id="node47" class="node">
<title>Node47</title>
<g id="a_node47"><a xlink:href="eeelfloader_8c_source.html" target="_top" xlink:title=" ">
<polygon fill="white" stroke="#666666" points="4251,-30 4154,-30 4154,0 4251,0 4251,-30"/>
<text text-anchor="start" x="4162" y="-18" font-family="Helvetica,sans-Serif" font-size="10.00">iop/system/loadfile</text>
<text text-anchor="middle" x="4202.5" y="-7" font-family="Helvetica,sans-Serif" font-size="10.00">/src/eeelfloader.c</text>
</a>
</g>
</g>
<!-- Node46&#45;&gt;Node47 -->
<g id="edge49" class="edge">
<title>Node46&#45;&gt;Node47</title>
<path fill="none" stroke="#63b8ff" d="M4165.77,-57.24C4173.81,-48.21 4182.81,-38.11 4189.89,-30.16"/>
<polygon fill="#63b8ff" stroke="#63b8ff" points="4163.19,-54.87 4159.16,-64.67 4168.42,-59.53 4163.19,-54.87"/>
</g>
<!-- Node48 -->
<g id="node48" class="node">
<title>Node48</title>
<g id="a_node48"><a xlink:href="iop_2system_2loadfile_2src_2loadfile_8c_source.html" target="_top" xlink:title=" ">
<polygon fill="white" stroke="#666666" points="4136,-30 4039,-30 4039,0 4136,0 4136,-30"/>
<text text-anchor="start" x="4047" y="-18" font-family="Helvetica,sans-Serif" font-size="10.00">iop/system/loadfile</text>
<text text-anchor="middle" x="4087.5" y="-7" font-family="Helvetica,sans-Serif" font-size="10.00">/src/loadfile.c</text>
</a>
</g>
</g>
<!-- Node46&#45;&gt;Node48 -->
<g id="edge50" class="edge">
<title>Node46&#45;&gt;Node48</title>
<path fill="none" stroke="#63b8ff" d="M4125.13,-57.53C4116.89,-48.43 4107.61,-38.19 4100.34,-30.16"/>
<polygon fill="#63b8ff" stroke="#63b8ff" points="4122.3,-59.62 4131.61,-64.67 4127.49,-54.91 4122.3,-59.62"/>
</g>
</g>
</svg>
