<?xml version="1.0" encoding="UTF-8" standalone="no"?>
<!DOCTYPE svg PUBLIC "-//W3C//DTD SVG 1.1//EN"
 "http://www.w3.org/Graphics/SVG/1.1/DTD/svg11.dtd">
<!-- Generated by graphviz version 7.0.5 (20221223.1930)
 -->
<!-- Title: iop/kernel/include/ioman.h Pages: 1 -->
<svg width="272pt" height="203pt"
 viewBox="0.00 0.00 271.50 203.00" xmlns="http://www.w3.org/2000/svg" xmlns:xlink="http://www.w3.org/1999/xlink">
<g id="graph0" class="graph" transform="scale(1 1) rotate(0) translate(4 199)">
<title>iop/kernel/include/ioman.h</title>
<!-- Node1 -->
<g id="node1" class="node">
<title>Node1</title>
<g id="a_node1"><a xlink:title=" ">
<polygon fill="#999999" stroke="#666666" points="132.5,-195 40.5,-195 40.5,-165 132.5,-165 132.5,-195"/>
<text text-anchor="start" x="48.5" y="-183" font-family="Helvetica,sans-Serif" font-size="10.00">iop/kernel/include</text>
<text text-anchor="middle" x="86.5" y="-172" font-family="Helvetica,sans-Serif" font-size="10.00">/ioman.h</text>
</a>
</g>
</g>
<!-- Node2 -->
<g id="node2" class="node">
<title>Node2</title>
<g id="a_node2"><a xlink:href="iop_2kernel_2include_2types_8h_source.html" target="_top" xlink:title=" ">
<polygon fill="white" stroke="#666666" points="87,-74 40,-74 40,-55 87,-55 87,-74"/>
<text text-anchor="middle" x="63.5" y="-62" font-family="Helvetica,sans-Serif" font-size="10.00">types.h</text>
</a>
</g>
</g>
<!-- Node1&#45;&gt;Node2 -->
<g id="edge1" class="edge">
<title>Node1&#45;&gt;Node2</title>
<path fill="none" stroke="#63b8ff" d="M76.8,-164.86C70.8,-155.23 63.66,-141.93 60.5,-129 57,-114.69 57.97,-98.03 59.69,-85.37"/>
<polygon fill="#63b8ff" stroke="#63b8ff" points="63.1,-86.21 61.29,-75.77 56.2,-85.06 63.1,-86.21"/>
</g>
<!-- Node5 -->
<g id="node5" class="node">
<title>Node5</title>
<g id="a_node5"><a xlink:href="irx_8h.html" target="_top" xlink:title=" ">
<polygon fill="white" stroke="#666666" points="103.5,-129 69.5,-129 69.5,-110 103.5,-110 103.5,-129"/>
<text text-anchor="middle" x="86.5" y="-117" font-family="Helvetica,sans-Serif" font-size="10.00">irx.h</text>
</a>
</g>
</g>
<!-- Node1&#45;&gt;Node5 -->
<g id="edge4" class="edge">
<title>Node1&#45;&gt;Node5</title>
<path fill="none" stroke="#63b8ff" d="M86.5,-164.54C86.5,-157.34 86.5,-148.53 86.5,-140.68"/>
<polygon fill="#63b8ff" stroke="#63b8ff" points="90,-140.69 86.5,-130.69 83,-140.69 90,-140.69"/>
</g>
<!-- Node6 -->
<g id="node6" class="node">
<title>Node6</title>
<g id="a_node6"><a xlink:href="io__common_8h.html" target="_top" xlink:title=" ">
<polygon fill="white" stroke="#666666" points="195.5,-129 121.5,-129 121.5,-110 195.5,-110 195.5,-129"/>
<text text-anchor="middle" x="158.5" y="-117" font-family="Helvetica,sans-Serif" font-size="10.00">io_common.h</text>
</a>
</g>
</g>
<!-- Node1&#45;&gt;Node6 -->
<g id="edge6" class="edge">
<title>Node1&#45;&gt;Node6</title>
<path fill="none" stroke="#63b8ff" d="M104.3,-164.54C114.86,-155.96 128.26,-145.07 139.1,-136.26"/>
<polygon fill="#63b8ff" stroke="#63b8ff" points="141.09,-139.15 146.65,-130.13 136.68,-133.72 141.09,-139.15"/>
</g>
<!-- Node3 -->
<g id="node3" class="node">
<title>Node3</title>
<g id="a_node3"><a xlink:title=" ">
<polygon fill="#e0e0e0" stroke="#999999" points="51,-19 0,-19 0,0 51,0 51,-19"/>
<text text-anchor="middle" x="25.5" y="-7" font-family="Helvetica,sans-Serif" font-size="10.00">stddef.h</text>
</a>
</g>
</g>
<!-- Node2&#45;&gt;Node3 -->
<g id="edge2" class="edge">
<title>Node2&#45;&gt;Node3</title>
<path fill="none" stroke="#63b8ff" d="M57.23,-54.75C52.14,-47.66 44.8,-37.42 38.47,-28.59"/>
<polygon fill="#63b8ff" stroke="#63b8ff" points="41.46,-26.76 32.79,-20.67 35.78,-30.84 41.46,-26.76"/>
</g>
<!-- Node4 -->
<g id="node4" class="node">
<title>Node4</title>
<g id="a_node4"><a xlink:href="tamtypes_8h.html" target="_top" xlink:title=" ">
<polygon fill="white" stroke="#666666" points="133.5,-19 69.5,-19 69.5,0 133.5,0 133.5,-19"/>
<text text-anchor="middle" x="101.5" y="-7" font-family="Helvetica,sans-Serif" font-size="10.00">tamtypes.h</text>
</a>
</g>
</g>
<!-- Node2&#45;&gt;Node4 -->
<g id="edge3" class="edge">
<title>Node2&#45;&gt;Node4</title>
<path fill="none" stroke="#63b8ff" d="M69.77,-54.75C74.86,-47.66 82.2,-37.42 88.53,-28.59"/>
<polygon fill="#63b8ff" stroke="#63b8ff" points="91.22,-30.84 94.21,-20.67 85.54,-26.76 91.22,-30.84"/>
</g>
<!-- Node5&#45;&gt;Node2 -->
<g id="edge5" class="edge">
<title>Node5&#45;&gt;Node2</title>
<path fill="none" stroke="#63b8ff" d="M82.7,-109.75C79.76,-102.96 75.56,-93.3 71.85,-84.73"/>
<polygon fill="#63b8ff" stroke="#63b8ff" points="75.17,-83.61 67.98,-75.83 68.75,-86.4 75.17,-83.61"/>
</g>
<!-- Node7 -->
<g id="node7" class="node">
<title>Node7</title>
<g id="a_node7"><a xlink:href="fcntl_8h_source.html" target="_top" xlink:title=" ">
<polygon fill="white" stroke="#666666" points="177,-74 116,-74 116,-55 177,-55 177,-74"/>
<text text-anchor="middle" x="146.5" y="-62" font-family="Helvetica,sans-Serif" font-size="10.00">sys/fcntl.h</text>
</a>
</g>
</g>
<!-- Node6&#45;&gt;Node7 -->
<g id="edge7" class="edge">
<title>Node6&#45;&gt;Node7</title>
<path fill="none" stroke="#63b8ff" d="M156.52,-109.75C155.03,-103.19 152.94,-93.95 151.05,-85.6"/>
<polygon fill="#63b8ff" stroke="#63b8ff" points="154.48,-84.9 148.86,-75.92 147.65,-86.44 154.48,-84.9"/>
</g>
<!-- Node8 -->
<g id="node8" class="node">
<title>Node8</title>
<g id="a_node8"><a xlink:href="unistd_8h_source.html" target="_top" xlink:title=" ">
<polygon fill="white" stroke="#666666" points="263.5,-74 195.5,-74 195.5,-55 263.5,-55 263.5,-74"/>
<text text-anchor="middle" x="229.5" y="-62" font-family="Helvetica,sans-Serif" font-size="10.00">sys/unistd.h</text>
</a>
</g>
</g>
<!-- Node6&#45;&gt;Node8 -->
<g id="edge8" class="edge">
<title>Node6&#45;&gt;Node8</title>
<path fill="none" stroke="#63b8ff" d="M170.54,-109.51C180.91,-101.77 196.1,-90.43 208.47,-81.2"/>
<polygon fill="#63b8ff" stroke="#63b8ff" points="210.5,-84.05 216.42,-75.26 206.31,-78.44 210.5,-84.05"/>
</g>
</g>
</svg>
