<?xml version="1.0" encoding="UTF-8" standalone="no"?>
<!DOCTYPE svg PUBLIC "-//W3C//DTD SVG 1.1//EN"
 "http://www.w3.org/Graphics/SVG/1.1/DTD/svg11.dtd">
<!-- Generated by graphviz version 7.0.5 (20221223.1930)
 -->
<!-- Title: iop/kernel/include/ioman_mod.h Pages: 1 -->
<!--zoomable 170 -->
<svg id="main" version="1.1" xmlns="http://www.w3.org/2000/svg" xmlns:xlink="http://www.w3.org/1999/xlink" xml:space="preserve" onload="init(evt)">
<style type="text/css"><![CDATA[
.edge:hover path { stroke: red; }
.edge:hover polygon { stroke: red; fill: red; }
]]></style>
<script type="text/javascript"><![CDATA[
var edges = document.getElementsByTagName('g');
if (edges && edges.length) {
  for (var i=0;i<edges.length;i++) {
    if (edges[i].id.substr(0,4)=='edge') {
      edges[i].setAttribute('class','edge');
    }
  }
}
]]></script>
        <defs>
                <circle id="rim" cx="0" cy="0" r="7"/>
                <circle id="rim2" cx="0" cy="0" r="3.5"/>
                <g id="zoomPlus">
                        <use xlink:href="#rim" fill="#404040">
                                <set attributeName="fill" to="#808080" begin="zoomplus.mouseover" end="zoomplus.mouseout"/>
                        </use>
                        <path d="M-4,0h8M0,-4v8" fill="none" stroke="white" stroke-width="1.5" pointer-events="none"/>
                </g>
                <g id="zoomMin">
                        <use xlink:href="#rim" fill="#404040">
                                <set attributeName="fill" to="#808080" begin="zoomminus.mouseover" end="zoomminus.mouseout"/>
                        </use>
                        <path d="M-4,0h8" fill="none" stroke="white" stroke-width="1.5" pointer-events="none"/>
                </g>
                <g id="dirArrow">
                        <path fill="none" stroke="white" stroke-width="1.5" d="M0,-3.0v7 M-2.5,-0.5L0,-3.0L2.5,-0.5"/>
                </g>
               <g id="resetDef">
                       <use xlink:href="#rim2" fill="#404040">
                               <set attributeName="fill" to="#808080" begin="reset.mouseover" end="reset.mouseout"/>
                       </use>
               </g>
        </defs>

<script type="text/javascript">
var viewWidth = 1078;
var viewHeight = 170;
var sectionId = 'dynsection-1';
</script>
<script xlink:href="svgpan.js"/>
<svg id="graph" class="graph">
<g id="viewport">
<title>iop/kernel/include/ioman_mod.h</title>
<!-- Node1 -->
<g id="node1" class="node">
<title>Node1</title>
<g id="a_node1"><a xlink:title=" ">
<polygon fill="#999999" stroke="#666666" points="555,-162 463,-162 463,-132 555,-132 555,-162"/>
<text text-anchor="start" x="471" y="-150" font-family="Helvetica,sans-Serif" font-size="10.00">iop/kernel/include</text>
<text text-anchor="middle" x="509" y="-139" font-family="Helvetica,sans-Serif" font-size="10.00">/ioman_mod.h</text>
</a>
</g>
</g>
<!-- Node2 -->
<g id="node2" class="node">
<title>Node2</title>
<g id="a_node2"><a xlink:href="fakehost_8c.html" target="_top" xlink:title=" ">
<polygon fill="white" stroke="#666666" points="98,-96 0,-96 0,-66 98,-66 98,-96"/>
<text text-anchor="start" x="8" y="-84" font-family="Helvetica,sans-Serif" font-size="10.00">iop/fs/fakehost/src</text>
<text text-anchor="middle" x="49" y="-73" font-family="Helvetica,sans-Serif" font-size="10.00">/fakehost.c</text>
</a>
</g>
</g>
<!-- Node1&#45;&gt;Node2 -->
<g id="edge1" class="edge">
<title>Node1&#45;&gt;Node2</title>
<path fill="none" stroke="#63b8ff" d="M451.56,-140.92C373.26,-133.52 228.84,-118.21 107,-96 104.15,-95.48 101.22,-94.91 98.28,-94.3"/>
<polygon fill="#63b8ff" stroke="#63b8ff" points="450.83,-144.36 461.11,-141.81 451.48,-137.39 450.83,-144.36"/>
</g>
<!-- Node3 -->
<g id="node3" class="node">
<title>Node3</title>
<g id="a_node3"><a xlink:href="iop_2fs_2fakehost_2src_2irx__imports_8h_source.html" target="_top" xlink:title=" ">
<polygon fill="white" stroke="#666666" points="214,-96 116,-96 116,-66 214,-66 214,-96"/>
<text text-anchor="start" x="124" y="-84" font-family="Helvetica,sans-Serif" font-size="10.00">iop/fs/fakehost/src</text>
<text text-anchor="middle" x="165" y="-73" font-family="Helvetica,sans-Serif" font-size="10.00">/irx_imports.h</text>
</a>
</g>
</g>
<!-- Node1&#45;&gt;Node3 -->
<g id="edge2" class="edge">
<title>Node1&#45;&gt;Node3</title>
<path fill="none" stroke="#63b8ff" d="M451.65,-137.08C393.76,-127.81 301.88,-112.4 223,-96 220.16,-95.41 217.25,-94.78 214.31,-94.13"/>
<polygon fill="#63b8ff" stroke="#63b8ff" points="450.84,-140.49 461.27,-138.61 451.94,-133.58 450.84,-140.49"/>
</g>
<!-- Node4 -->
<g id="node4" class="node">
<title>Node4</title>
<g id="a_node4"><a xlink:href="iop_2fs_2fileio_2src_2irx__imports_8h_source.html" target="_top" xlink:title=" ">
<polygon fill="white" stroke="#666666" points="324,-96 232,-96 232,-66 324,-66 324,-96"/>
<text text-anchor="start" x="240" y="-84" font-family="Helvetica,sans-Serif" font-size="10.00">iop/fs/fileio/src/irx</text>
<text text-anchor="middle" x="278" y="-73" font-family="Helvetica,sans-Serif" font-size="10.00">_imports.h</text>
</a>
</g>
</g>
<!-- Node1&#45;&gt;Node4 -->
<g id="edge3" class="edge">
<title>Node1&#45;&gt;Node4</title>
<path fill="none" stroke="#63b8ff" d="M451.55,-130.08C412.33,-119.22 361.03,-105 324.39,-94.85"/>
<polygon fill="#63b8ff" stroke="#63b8ff" points="450.5,-133.42 461.07,-132.72 452.37,-126.68 450.5,-133.42"/>
</g>
<!-- Node6 -->
<g id="node6" class="node">
<title>Node6</title>
<g id="a_node6"><a xlink:href="iop_2fs_2http_2src_2irx__imports_8h_source.html" target="_top" xlink:title=" ">
<polygon fill="white" stroke="#666666" points="431.5,-96 342.5,-96 342.5,-66 431.5,-66 431.5,-96"/>
<text text-anchor="start" x="350.5" y="-84" font-family="Helvetica,sans-Serif" font-size="10.00">iop/fs/http/src/irx</text>
<text text-anchor="middle" x="387" y="-73" font-family="Helvetica,sans-Serif" font-size="10.00">_imports.h</text>
</a>
</g>
</g>
<!-- Node1&#45;&gt;Node6 -->
<g id="edge5" class="edge">
<title>Node1&#45;&gt;Node6</title>
<path fill="none" stroke="#63b8ff" d="M471.48,-126.32C453.01,-116.63 431.14,-105.16 414.29,-96.31"/>
<polygon fill="#63b8ff" stroke="#63b8ff" points="469.8,-129.39 480.28,-130.93 473.05,-123.19 469.8,-129.39"/>
</g>
<!-- Node7 -->
<g id="node7" class="node">
<title>Node7</title>
<g id="a_node7"><a xlink:href="ps2http_8c_source.html" target="_top" xlink:title=" ">
<polygon fill="white" stroke="#666666" points="568.5,-90.5 449.5,-90.5 449.5,-71.5 568.5,-71.5 568.5,-90.5"/>
<text text-anchor="middle" x="509" y="-78.5" font-family="Helvetica,sans-Serif" font-size="10.00">iop/fs/http/src/ps2http.c</text>
</a>
</g>
</g>
<!-- Node1&#45;&gt;Node7 -->
<g id="edge6" class="edge">
<title>Node1&#45;&gt;Node7</title>
<path fill="none" stroke="#63b8ff" d="M509,-120.59C509,-110.06 509,-98.53 509,-90.84"/>
<polygon fill="#63b8ff" stroke="#63b8ff" points="505.5,-120.28 509,-130.28 512.5,-120.28 505.5,-120.28"/>
</g>
<!-- Node8 -->
<g id="node8" class="node">
<title>Node8</title>
<g id="a_node8"><a xlink:href="devscan_8c.html" target="_top" xlink:title=" ">
<polygon fill="white" stroke="#666666" points="715.5,-90.5 586.5,-90.5 586.5,-71.5 715.5,-71.5 715.5,-90.5"/>
<text text-anchor="middle" x="651" y="-78.5" font-family="Helvetica,sans-Serif" font-size="10.00">iop/fs/netfs/src/devscan.c</text>
</a>
</g>
</g>
<!-- Node1&#45;&gt;Node8 -->
<g id="edge7" class="edge">
<title>Node1&#45;&gt;Node8</title>
<path fill="none" stroke="#63b8ff" d="M551.01,-127.06C577.46,-115.14 610.39,-100.3 631.06,-90.99"/>
<polygon fill="#63b8ff" stroke="#63b8ff" points="549.93,-123.72 542.25,-131.02 552.8,-130.1 549.93,-123.72"/>
</g>
<!-- Node9 -->
<g id="node9" class="node">
<title>Node9</title>
<g id="a_node9"><a xlink:href="iop_2fs_2netfs_2src_2irx__imports_8h_source.html" target="_top" xlink:title=" ">
<polygon fill="white" stroke="#666666" points="828.5,-96 733.5,-96 733.5,-66 828.5,-66 828.5,-96"/>
<text text-anchor="start" x="741.5" y="-84" font-family="Helvetica,sans-Serif" font-size="10.00">iop/fs/netfs/src/irx</text>
<text text-anchor="middle" x="781" y="-73" font-family="Helvetica,sans-Serif" font-size="10.00">_imports.h</text>
</a>
</g>
</g>
<!-- Node1&#45;&gt;Node9 -->
<g id="edge8" class="edge">
<title>Node1&#45;&gt;Node9</title>
<path fill="none" stroke="#63b8ff" d="M566.35,-132.87C609.69,-122.89 670.63,-108.76 724,-96 726.97,-95.29 730.03,-94.55 733.12,-93.81"/>
<polygon fill="#63b8ff" stroke="#63b8ff" points="565.61,-129.44 556.65,-135.1 567.18,-136.27 565.61,-129.44"/>
</g>
<!-- Node10 -->
<g id="node10" class="node">
<title>Node10</title>
<g id="a_node10"><a xlink:href="ps2__fio_8c.html" target="_top" xlink:title=" ">
<polygon fill="white" stroke="#666666" points="947.5,-96 846.5,-96 846.5,-66 947.5,-66 947.5,-96"/>
<text text-anchor="start" x="854.5" y="-84" font-family="Helvetica,sans-Serif" font-size="10.00">iop/fs/netfs/src/ps2</text>
<text text-anchor="middle" x="897" y="-73" font-family="Helvetica,sans-Serif" font-size="10.00">_fio.c</text>
</a>
</g>
</g>
<!-- Node1&#45;&gt;Node10 -->
<g id="edge9" class="edge">
<title>Node1&#45;&gt;Node10</title>
<path fill="none" stroke="#63b8ff" d="M566.7,-138.59C632.4,-129.83 742.82,-114.14 837,-96 840.05,-95.41 843.17,-94.78 846.32,-94.12"/>
<polygon fill="#63b8ff" stroke="#63b8ff" points="566.32,-135.11 556.87,-139.89 567.24,-142.05 566.32,-135.11"/>
</g>
<!-- Node11 -->
<g id="node11" class="node">
<title>Node11</title>
<g id="a_node11"><a xlink:href="iop_2system_2stdio_2src_2irx__imports_8h_source.html" target="_top" xlink:title=" ">
<polygon fill="white" stroke="#666666" points="1070,-96 966,-96 966,-66 1070,-66 1070,-96"/>
<text text-anchor="start" x="974" y="-84" font-family="Helvetica,sans-Serif" font-size="10.00">iop/system/stdio/src</text>
<text text-anchor="middle" x="1018" y="-73" font-family="Helvetica,sans-Serif" font-size="10.00">/irx_imports.h</text>
</a>
</g>
</g>
<!-- Node1&#45;&gt;Node11 -->
<g id="edge10" class="edge">
<title>Node1&#45;&gt;Node11</title>
<path fill="none" stroke="#63b8ff" d="M566.64,-141.69C652.22,-134.81 817.77,-119.67 957,-96 959.79,-95.53 962.63,-95 965.5,-94.45"/>
<polygon fill="#63b8ff" stroke="#63b8ff" points="566.56,-138.19 556.86,-142.47 567.11,-145.16 566.56,-138.19"/>
</g>
<!-- Node5 -->
<g id="node5" class="node">
<title>Node5</title>
<g id="a_node5"><a xlink:href="iop_2fs_2fileio_2src_2fileio_8c_source.html" target="_top" xlink:title=" ">
<polygon fill="white" stroke="#666666" points="333,-24.5 223,-24.5 223,-5.5 333,-5.5 333,-24.5"/>
<text text-anchor="middle" x="278" y="-12.5" font-family="Helvetica,sans-Serif" font-size="10.00">iop/fs/fileio/src/fileio.c</text>
</a>
</g>
</g>
<!-- Node4&#45;&gt;Node5 -->
<g id="edge4" class="edge">
<title>Node4&#45;&gt;Node5</title>
<path fill="none" stroke="#63b8ff" d="M278,-54.59C278,-44.06 278,-32.53 278,-24.84"/>
<polygon fill="#63b8ff" stroke="#63b8ff" points="274.5,-54.28 278,-64.28 281.5,-54.28 274.5,-54.28"/>
</g>
<!-- Node12 -->
<g id="node12" class="node">
<title>Node12</title>
<g id="a_node12"><a xlink:href="stdio_8c_source.html" target="_top" xlink:title=" ">
<polygon fill="white" stroke="#666666" points="1070,-30 966,-30 966,0 1070,0 1070,-30"/>
<text text-anchor="start" x="974" y="-18" font-family="Helvetica,sans-Serif" font-size="10.00">iop/system/stdio/src</text>
<text text-anchor="middle" x="1018" y="-7" font-family="Helvetica,sans-Serif" font-size="10.00">/stdio.c</text>
</a>
</g>
</g>
<!-- Node11&#45;&gt;Node12 -->
<g id="edge11" class="edge">
<title>Node11&#45;&gt;Node12</title>
<path fill="none" stroke="#63b8ff" d="M1018,-54.39C1018,-46.13 1018,-37.28 1018,-30.16"/>
<polygon fill="#63b8ff" stroke="#63b8ff" points="1014.5,-54.28 1018,-64.28 1021.5,-54.28 1014.5,-54.28"/>
</g>
</g>
</svg>
        <g id="navigator" transform="translate(0 0)" fill="#404254">
                <rect fill="#f2f5e9" fill-opacity="0.5" stroke="#606060" stroke-width=".5" x="0" y="0" width="60" height="60"/>
                <use id="zoomplus" xlink:href="#zoomPlus" x="17" y="9" onmousedown="handleZoom(evt,'in')"/>
                <use id="zoomminus" xlink:href="#zoomMin" x="42" y="9" onmousedown="handleZoom(evt,'out')"/>
                <use id="reset" xlink:href="#resetDef" x="30" y="36" onmousedown="handleReset()"/>
                <g id="arrowUp" xlink:href="#dirArrow" transform="translate(30 24)" onmousedown="handlePan(0,-1)">
                  <use xlink:href="#rim" fill="#404040">
                        <set attributeName="fill" to="#808080" begin="arrowUp.mouseover" end="arrowUp.mouseout"/>
                  </use>
                  <path fill="none" stroke="white" stroke-width="1.5" d="M0,-3.0v7 M-2.5,-0.5L0,-3.0L2.5,-0.5"/>
                </g>
                <g id="arrowRight" xlink:href="#dirArrow" transform="rotate(90) translate(36 -43)" onmousedown="handlePan(1,0)">
                  <use xlink:href="#rim" fill="#404040">
                        <set attributeName="fill" to="#808080" begin="arrowRight.mouseover" end="arrowRight.mouseout"/>
                  </use>
                  <path fill="none" stroke="white" stroke-width="1.5" d="M0,-3.0v7 M-2.5,-0.5L0,-3.0L2.5,-0.5"/>
                </g>
                <g id="arrowDown" xlink:href="#dirArrow" transform="rotate(180) translate(-30 -48)" onmousedown="handlePan(0,1)">
                  <use xlink:href="#rim" fill="#404040">
                        <set attributeName="fill" to="#808080" begin="arrowDown.mouseover" end="arrowDown.mouseout"/>
                  </use>
                  <path fill="none" stroke="white" stroke-width="1.5" d="M0,-3.0v7 M-2.5,-0.5L0,-3.0L2.5,-0.5"/>
                </g>
                <g id="arrowLeft" xlink:href="#dirArrow" transform="rotate(270) translate(-36 17)" onmousedown="handlePan(-1,0)">
                  <use xlink:href="#rim" fill="#404040">
                        <set attributeName="fill" to="#808080" begin="arrowLeft.mouseover" end="arrowLeft.mouseout"/>
                  </use>
                  <path fill="none" stroke="white" stroke-width="1.5" d="M0,-3.0v7 M-2.5,-0.5L0,-3.0L2.5,-0.5"/>
                </g>
        </g>
        <svg viewBox="0 0 15 15" width="100%" height="30px" preserveAspectRatio="xMaxYMin meet">
         <g id="arrow_out" transform="scale(0.3 0.3)">
          <a xlink:href="ioman__mod_8h__dep__incl_org.svg" target="_base">
           <rect id="button" ry="5" rx="5" y="6" x="6" height="38" width="38"
                fill="#f2f5e9" fill-opacity="0.5" stroke="#606060" stroke-width="1.0"/>
           <path id="arrow"
             d="M 11.500037,31.436501 C 11.940474,20.09759 22.043105,11.32322 32.158766,21.979434 L 37.068811,17.246167 C 37.068811,17.246167 37.088388,32 37.088388,32 L 22.160133,31.978069 C 22.160133,31.978069 26.997745,27.140456 26.997745,27.140456 C 18.528582,18.264221 13.291696,25.230495 11.500037,31.436501 z"
             style="fill:#404040;"/>
          </a>
         </g>
        </svg>
</svg>
