<?xml version="1.0" encoding="UTF-8" standalone="no"?>
<!DOCTYPE svg PUBLIC "-//W3C//DTD SVG 1.1//EN"
 "http://www.w3.org/Graphics/SVG/1.1/DTD/svg11.dtd">
<!-- Generated by graphviz version 7.0.5 (20221223.1930)
 -->
<!-- Title: iop/kernel/include/iomanX.h Pages: 1 -->
<svg width="387pt" height="148pt"
 viewBox="0.00 0.00 387.00 148.00" xmlns="http://www.w3.org/2000/svg" xmlns:xlink="http://www.w3.org/1999/xlink">
<g id="graph0" class="graph" transform="scale(1 1) rotate(0) translate(4 144)">
<title>iop/kernel/include/iomanX.h</title>
<!-- Node1 -->
<g id="node1" class="node">
<title>Node1</title>
<g id="a_node1"><a xlink:title=" ">
<polygon fill="#999999" stroke="#666666" points="261.5,-140 169.5,-140 169.5,-110 261.5,-110 261.5,-140"/>
<text text-anchor="start" x="177.5" y="-128" font-family="Helvetica,sans-Serif" font-size="10.00">iop/kernel/include</text>
<text text-anchor="middle" x="215.5" y="-117" font-family="Helvetica,sans-Serif" font-size="10.00">/iomanX.h</text>
</a>
</g>
</g>
<!-- Node2 -->
<g id="node2" class="node">
<title>Node2</title>
<g id="a_node2"><a xlink:href="iop_2kernel_2include_2types_8h_source.html" target="_top" xlink:title=" ">
<polygon fill="white" stroke="#666666" points="125,-74 78,-74 78,-55 125,-55 125,-74"/>
<text text-anchor="middle" x="101.5" y="-62" font-family="Helvetica,sans-Serif" font-size="10.00">types.h</text>
</a>
</g>
</g>
<!-- Node1&#45;&gt;Node2 -->
<g id="edge1" class="edge">
<title>Node1&#45;&gt;Node2</title>
<path fill="none" stroke="#63b8ff" d="M187.32,-109.54C169.52,-100.4 146.63,-88.66 128.97,-79.6"/>
<polygon fill="#63b8ff" stroke="#63b8ff" points="130.58,-76.49 120.09,-75.04 127.38,-82.72 130.58,-76.49"/>
</g>
<!-- Node5 -->
<g id="node5" class="node">
<title>Node5</title>
<g id="a_node5"><a xlink:title=" ">
<polygon fill="#e0e0e0" stroke="#999999" points="201,-74 150,-74 150,-55 201,-55 201,-74"/>
<text text-anchor="middle" x="175.5" y="-62" font-family="Helvetica,sans-Serif" font-size="10.00">stdarg.h</text>
</a>
</g>
</g>
<!-- Node1&#45;&gt;Node5 -->
<g id="edge4" class="edge">
<title>Node1&#45;&gt;Node5</title>
<path fill="none" stroke="#63b8ff" d="M205.61,-109.54C200.22,-101.65 193.49,-91.81 187.76,-83.44"/>
<polygon fill="#63b8ff" stroke="#63b8ff" points="190.82,-81.7 182.29,-75.42 185.04,-85.65 190.82,-81.7"/>
</g>
<!-- Node6 -->
<g id="node6" class="node">
<title>Node6</title>
<g id="a_node6"><a xlink:href="io__common_8h.html" target="_top" xlink:title=" ">
<polygon fill="white" stroke="#666666" points="293.5,-74 219.5,-74 219.5,-55 293.5,-55 293.5,-74"/>
<text text-anchor="middle" x="256.5" y="-62" font-family="Helvetica,sans-Serif" font-size="10.00">io_common.h</text>
</a>
</g>
</g>
<!-- Node1&#45;&gt;Node6 -->
<g id="edge5" class="edge">
<title>Node1&#45;&gt;Node6</title>
<path fill="none" stroke="#63b8ff" d="M225.63,-109.54C231.16,-101.65 238.06,-91.81 243.93,-83.44"/>
<polygon fill="#63b8ff" stroke="#63b8ff" points="246.68,-85.61 249.55,-75.41 240.95,-81.59 246.68,-85.61"/>
</g>
<!-- Node9 -->
<g id="node9" class="node">
<title>Node9</title>
<g id="a_node9"><a xlink:href="iox__stat_8h.html" target="_top" xlink:title=" ">
<polygon fill="white" stroke="#666666" points="373.5,-74 315.5,-74 315.5,-55 373.5,-55 373.5,-74"/>
<text text-anchor="middle" x="344.5" y="-62" font-family="Helvetica,sans-Serif" font-size="10.00">iox_stat.h</text>
</a>
</g>
</g>
<!-- Node1&#45;&gt;Node9 -->
<g id="edge8" class="edge">
<title>Node1&#45;&gt;Node9</title>
<path fill="none" stroke="#63b8ff" d="M247.39,-109.54C267.91,-100.23 294.41,-88.22 314.54,-79.09"/>
<polygon fill="#63b8ff" stroke="#63b8ff" points="315.95,-82.29 323.61,-74.97 313.06,-75.91 315.95,-82.29"/>
</g>
<!-- Node3 -->
<g id="node3" class="node">
<title>Node3</title>
<g id="a_node3"><a xlink:title=" ">
<polygon fill="#e0e0e0" stroke="#999999" points="51,-19 0,-19 0,0 51,0 51,-19"/>
<text text-anchor="middle" x="25.5" y="-7" font-family="Helvetica,sans-Serif" font-size="10.00">stddef.h</text>
</a>
</g>
</g>
<!-- Node2&#45;&gt;Node3 -->
<g id="edge2" class="edge">
<title>Node2&#45;&gt;Node3</title>
<path fill="none" stroke="#63b8ff" d="M88.61,-54.51C77.4,-46.7 60.93,-35.21 47.62,-25.93"/>
<polygon fill="#63b8ff" stroke="#63b8ff" points="49.65,-23.07 39.44,-20.22 45.64,-28.81 49.65,-23.07"/>
</g>
<!-- Node4 -->
<g id="node4" class="node">
<title>Node4</title>
<g id="a_node4"><a xlink:href="tamtypes_8h.html" target="_top" xlink:title=" ">
<polygon fill="white" stroke="#666666" points="133.5,-19 69.5,-19 69.5,0 133.5,0 133.5,-19"/>
<text text-anchor="middle" x="101.5" y="-7" font-family="Helvetica,sans-Serif" font-size="10.00">tamtypes.h</text>
</a>
</g>
</g>
<!-- Node2&#45;&gt;Node4 -->
<g id="edge3" class="edge">
<title>Node2&#45;&gt;Node4</title>
<path fill="none" stroke="#63b8ff" d="M101.5,-54.75C101.5,-48.27 101.5,-39.16 101.5,-30.9"/>
<polygon fill="#63b8ff" stroke="#63b8ff" points="105,-30.96 101.5,-20.96 98,-30.96 105,-30.96"/>
</g>
<!-- Node7 -->
<g id="node7" class="node">
<title>Node7</title>
<g id="a_node7"><a xlink:href="fcntl_8h_source.html" target="_top" xlink:title=" ">
<polygon fill="white" stroke="#666666" points="213,-19 152,-19 152,0 213,0 213,-19"/>
<text text-anchor="middle" x="182.5" y="-7" font-family="Helvetica,sans-Serif" font-size="10.00">sys/fcntl.h</text>
</a>
</g>
</g>
<!-- Node6&#45;&gt;Node7 -->
<g id="edge6" class="edge">
<title>Node6&#45;&gt;Node7</title>
<path fill="none" stroke="#63b8ff" d="M243.95,-54.51C233.04,-46.7 217,-35.21 204.04,-25.93"/>
<polygon fill="#63b8ff" stroke="#63b8ff" points="206.27,-23.22 196.1,-20.24 202.19,-28.91 206.27,-23.22"/>
</g>
<!-- Node8 -->
<g id="node8" class="node">
<title>Node8</title>
<g id="a_node8"><a xlink:href="unistd_8h_source.html" target="_top" xlink:title=" ">
<polygon fill="white" stroke="#666666" points="299.5,-19 231.5,-19 231.5,0 299.5,0 299.5,-19"/>
<text text-anchor="middle" x="265.5" y="-7" font-family="Helvetica,sans-Serif" font-size="10.00">sys/unistd.h</text>
</a>
</g>
</g>
<!-- Node6&#45;&gt;Node8 -->
<g id="edge7" class="edge">
<title>Node6&#45;&gt;Node8</title>
<path fill="none" stroke="#63b8ff" d="M257.99,-54.75C259.1,-48.19 260.67,-38.95 262.09,-30.6"/>
<polygon fill="#63b8ff" stroke="#63b8ff" points="265.5,-31.38 263.73,-20.93 258.6,-30.21 265.5,-31.38"/>
</g>
<!-- Node10 -->
<g id="node10" class="node">
<title>Node10</title>
<g id="a_node10"><a xlink:href="time_8h.html" target="_top" xlink:title=" ">
<polygon fill="white" stroke="#666666" points="379,-19 318,-19 318,0 379,0 379,-19"/>
<text text-anchor="middle" x="348.5" y="-7" font-family="Helvetica,sans-Serif" font-size="10.00">sys/time.h</text>
</a>
</g>
</g>
<!-- Node9&#45;&gt;Node10 -->
<g id="edge9" class="edge">
<title>Node9&#45;&gt;Node10</title>
<path fill="none" stroke="#63b8ff" d="M345.16,-54.75C345.65,-48.27 346.34,-39.16 346.96,-30.9"/>
<polygon fill="#63b8ff" stroke="#63b8ff" points="350.45,-31.19 347.71,-20.95 343.47,-30.66 350.45,-31.19"/>
</g>
</g>
</svg>
