<?xml version="1.0" encoding="UTF-8" standalone="no"?>
<!DOCTYPE svg PUBLIC "-//W3C//DTD SVG 1.1//EN"
 "http://www.w3.org/Graphics/SVG/1.1/DTD/svg11.dtd">
<!-- Generated by graphviz version 7.0.5 (20221223.1930)
 -->
<!-- Title: iop/kernel/include/ioman_mod.h Pages: 1 -->
<svg width="340pt" height="203pt"
 viewBox="0.00 0.00 340.00 203.00" xmlns="http://www.w3.org/2000/svg" xmlns:xlink="http://www.w3.org/1999/xlink">
<g id="graph0" class="graph" transform="scale(1 1) rotate(0) translate(4 199)">
<title>iop/kernel/include/ioman_mod.h</title>
<!-- Node1 -->
<g id="node1" class="node">
<title>Node1</title>
<g id="a_node1"><a xlink:title=" ">
<polygon fill="#999999" stroke="#666666" points="190.5,-195 98.5,-195 98.5,-165 190.5,-165 190.5,-195"/>
<text text-anchor="start" x="106.5" y="-183" font-family="Helvetica,sans-Serif" font-size="10.00">iop/kernel/include</text>
<text text-anchor="middle" x="144.5" y="-172" font-family="Helvetica,sans-Serif" font-size="10.00">/ioman_mod.h</text>
</a>
</g>
</g>
<!-- Node2 -->
<g id="node2" class="node">
<title>Node2</title>
<g id="a_node2"><a xlink:href="iop_2kernel_2include_2types_8h_source.html" target="_top" xlink:title=" ">
<polygon fill="white" stroke="#666666" points="87,-74 40,-74 40,-55 87,-55 87,-74"/>
<text text-anchor="middle" x="63.5" y="-62" font-family="Helvetica,sans-Serif" font-size="10.00">types.h</text>
</a>
</g>
</g>
<!-- Node1&#45;&gt;Node2 -->
<g id="edge1" class="edge">
<title>Node1&#45;&gt;Node2</title>
<path fill="none" stroke="#63b8ff" d="M120.29,-164.6C107.39,-155.8 92.21,-143.46 82.5,-129 73.75,-115.97 68.93,-98.8 66.34,-85.6"/>
<polygon fill="#63b8ff" stroke="#63b8ff" points="69.82,-85.2 64.72,-75.91 62.91,-86.35 69.82,-85.2"/>
</g>
<!-- Node5 -->
<g id="node5" class="node">
<title>Node5</title>
<g id="a_node5"><a xlink:href="irx_8h.html" target="_top" xlink:title=" ">
<polygon fill="white" stroke="#666666" points="125.5,-129 91.5,-129 91.5,-110 125.5,-110 125.5,-129"/>
<text text-anchor="middle" x="108.5" y="-117" font-family="Helvetica,sans-Serif" font-size="10.00">irx.h</text>
</a>
</g>
</g>
<!-- Node1&#45;&gt;Node5 -->
<g id="edge4" class="edge">
<title>Node1&#45;&gt;Node5</title>
<path fill="none" stroke="#63b8ff" d="M135.6,-164.54C130.8,-156.74 124.82,-147.03 119.71,-138.71"/>
<polygon fill="#63b8ff" stroke="#63b8ff" points="122.85,-137.15 114.63,-130.46 116.89,-140.82 122.85,-137.15"/>
</g>
<!-- Node6 -->
<g id="node6" class="node">
<title>Node6</title>
<g id="a_node6"><a xlink:href="io__common_8h.html" target="_top" xlink:title=" ">
<polygon fill="white" stroke="#666666" points="217.5,-129 143.5,-129 143.5,-110 217.5,-110 217.5,-129"/>
<text text-anchor="middle" x="180.5" y="-117" font-family="Helvetica,sans-Serif" font-size="10.00">io_common.h</text>
</a>
</g>
</g>
<!-- Node1&#45;&gt;Node6 -->
<g id="edge6" class="edge">
<title>Node1&#45;&gt;Node6</title>
<path fill="none" stroke="#63b8ff" d="M153.4,-164.54C158.2,-156.74 164.18,-147.03 169.29,-138.71"/>
<polygon fill="#63b8ff" stroke="#63b8ff" points="172.11,-140.82 174.37,-130.46 166.15,-137.15 172.11,-140.82"/>
</g>
<!-- Node9 -->
<g id="node9" class="node">
<title>Node9</title>
<g id="a_node9"><a xlink:href="iox__stat_8h.html" target="_top" xlink:title=" ">
<polygon fill="white" stroke="#666666" points="311.5,-129 253.5,-129 253.5,-110 311.5,-110 311.5,-129"/>
<text text-anchor="middle" x="282.5" y="-117" font-family="Helvetica,sans-Serif" font-size="10.00">iox_stat.h</text>
</a>
</g>
</g>
<!-- Node1&#45;&gt;Node9 -->
<g id="edge9" class="edge">
<title>Node1&#45;&gt;Node9</title>
<path fill="none" stroke="#63b8ff" d="M178.61,-164.54C200.77,-155.15 229.44,-142.99 251.05,-133.83"/>
<polygon fill="#63b8ff" stroke="#63b8ff" points="252.4,-137.06 260.24,-129.94 249.67,-130.62 252.4,-137.06"/>
</g>
<!-- Node3 -->
<g id="node3" class="node">
<title>Node3</title>
<g id="a_node3"><a xlink:title=" ">
<polygon fill="#e0e0e0" stroke="#999999" points="51,-19 0,-19 0,0 51,0 51,-19"/>
<text text-anchor="middle" x="25.5" y="-7" font-family="Helvetica,sans-Serif" font-size="10.00">stddef.h</text>
</a>
</g>
</g>
<!-- Node2&#45;&gt;Node3 -->
<g id="edge2" class="edge">
<title>Node2&#45;&gt;Node3</title>
<path fill="none" stroke="#63b8ff" d="M57.23,-54.75C52.14,-47.66 44.8,-37.42 38.47,-28.59"/>
<polygon fill="#63b8ff" stroke="#63b8ff" points="41.46,-26.76 32.79,-20.67 35.78,-30.84 41.46,-26.76"/>
</g>
<!-- Node4 -->
<g id="node4" class="node">
<title>Node4</title>
<g id="a_node4"><a xlink:href="tamtypes_8h.html" target="_top" xlink:title=" ">
<polygon fill="white" stroke="#666666" points="133.5,-19 69.5,-19 69.5,0 133.5,0 133.5,-19"/>
<text text-anchor="middle" x="101.5" y="-7" font-family="Helvetica,sans-Serif" font-size="10.00">tamtypes.h</text>
</a>
</g>
</g>
<!-- Node2&#45;&gt;Node4 -->
<g id="edge3" class="edge">
<title>Node2&#45;&gt;Node4</title>
<path fill="none" stroke="#63b8ff" d="M69.77,-54.75C74.86,-47.66 82.2,-37.42 88.53,-28.59"/>
<polygon fill="#63b8ff" stroke="#63b8ff" points="91.22,-30.84 94.21,-20.67 85.54,-26.76 91.22,-30.84"/>
</g>
<!-- Node5&#45;&gt;Node2 -->
<g id="edge5" class="edge">
<title>Node5&#45;&gt;Node2</title>
<path fill="none" stroke="#63b8ff" d="M101.07,-109.75C94.92,-102.5 85.99,-91.98 78.37,-83.02"/>
<polygon fill="#63b8ff" stroke="#63b8ff" points="81.21,-80.95 72.07,-75.6 75.88,-85.48 81.21,-80.95"/>
</g>
<!-- Node7 -->
<g id="node7" class="node">
<title>Node7</title>
<g id="a_node7"><a xlink:href="fcntl_8h_source.html" target="_top" xlink:title=" ">
<polygon fill="white" stroke="#666666" points="166,-74 105,-74 105,-55 166,-55 166,-74"/>
<text text-anchor="middle" x="135.5" y="-62" font-family="Helvetica,sans-Serif" font-size="10.00">sys/fcntl.h</text>
</a>
</g>
</g>
<!-- Node6&#45;&gt;Node7 -->
<g id="edge7" class="edge">
<title>Node6&#45;&gt;Node7</title>
<path fill="none" stroke="#63b8ff" d="M173.07,-109.75C166.92,-102.5 157.99,-91.98 150.37,-83.02"/>
<polygon fill="#63b8ff" stroke="#63b8ff" points="153.21,-80.95 144.07,-75.6 147.88,-85.48 153.21,-80.95"/>
</g>
<!-- Node8 -->
<g id="node8" class="node">
<title>Node8</title>
<g id="a_node8"><a xlink:href="unistd_8h_source.html" target="_top" xlink:title=" ">
<polygon fill="white" stroke="#666666" points="252.5,-74 184.5,-74 184.5,-55 252.5,-55 252.5,-74"/>
<text text-anchor="middle" x="218.5" y="-62" font-family="Helvetica,sans-Serif" font-size="10.00">sys/unistd.h</text>
</a>
</g>
</g>
<!-- Node6&#45;&gt;Node8 -->
<g id="edge8" class="edge">
<title>Node6&#45;&gt;Node8</title>
<path fill="none" stroke="#63b8ff" d="M186.77,-109.75C191.86,-102.66 199.2,-92.42 205.53,-83.59"/>
<polygon fill="#63b8ff" stroke="#63b8ff" points="208.22,-85.84 211.21,-75.67 202.54,-81.76 208.22,-85.84"/>
</g>
<!-- Node10 -->
<g id="node10" class="node">
<title>Node10</title>
<g id="a_node10"><a xlink:href="time_8h.html" target="_top" xlink:title=" ">
<polygon fill="white" stroke="#666666" points="332,-74 271,-74 271,-55 332,-55 332,-74"/>
<text text-anchor="middle" x="301.5" y="-62" font-family="Helvetica,sans-Serif" font-size="10.00">sys/time.h</text>
</a>
</g>
</g>
<!-- Node9&#45;&gt;Node10 -->
<g id="edge10" class="edge">
<title>Node9&#45;&gt;Node10</title>
<path fill="none" stroke="#63b8ff" d="M285.64,-109.75C288.04,-103.04 291.46,-93.52 294.5,-85.02"/>
<polygon fill="#63b8ff" stroke="#63b8ff" points="297.7,-86.46 297.78,-75.87 291.11,-84.1 297.7,-86.46"/>
</g>
</g>
</svg>
