<?xml version="1.0" encoding="UTF-8" standalone="no"?>
<!DOCTYPE svg PUBLIC "-//W3C//DTD SVG 1.1//EN"
 "http://www.w3.org/Graphics/SVG/1.1/DTD/svg11.dtd">
<!-- Generated by graphviz version 7.0.5 (20221223.1930)
 -->
<!-- Title: iop/system/iomanx/src/iomanX.c Pages: 1 -->
<svg width="474pt" height="313pt"
 viewBox="0.00 0.00 473.96 313.00" xmlns="http://www.w3.org/2000/svg" xmlns:xlink="http://www.w3.org/1999/xlink">
<g id="graph0" class="graph" transform="scale(1 1) rotate(0) translate(4 309)">
<title>iop/system/iomanx/src/iomanX.c</title>
<!-- Node1 -->
<g id="node1" class="node">
<title>Node1</title>
<g id="a_node1"><a xlink:title=" ">
<polygon fill="#999999" stroke="#666666" points="236.46,-305 122.46,-305 122.46,-275 236.46,-275 236.46,-305"/>
<text text-anchor="start" x="130.46" y="-293" font-family="Helvetica,sans-Serif" font-size="10.00">iop/system/iomanx/src</text>
<text text-anchor="middle" x="179.46" y="-282" font-family="Helvetica,sans-Serif" font-size="10.00">/iomanX.c</text>
</a>
</g>
</g>
<!-- Node2 -->
<g id="node2" class="node">
<title>Node2</title>
<g id="a_node2"><a xlink:title=" ">
<polygon fill="#e0e0e0" stroke="#999999" points="72.96,-239 25.96,-239 25.96,-220 72.96,-220 72.96,-239"/>
<text text-anchor="middle" x="49.46" y="-227" font-family="Helvetica,sans-Serif" font-size="10.00">types.h</text>
</a>
</g>
</g>
<!-- Node1&#45;&gt;Node2 -->
<g id="edge1" class="edge">
<title>Node1&#45;&gt;Node2</title>
<path fill="none" stroke="#63b8ff" d="M147.32,-274.54C126.54,-265.19 99.69,-253.1 79.36,-243.96"/>
<polygon fill="#63b8ff" stroke="#63b8ff" points="81.05,-240.88 70.49,-239.97 78.18,-247.26 81.05,-240.88"/>
</g>
<!-- Node3 -->
<g id="node3" class="node">
<title>Node3</title>
<g id="a_node3"><a xlink:href="ioman_x_8h.html" target="_top" xlink:title=" ">
<polygon fill="white" stroke="#666666" points="314.96,-184 257.96,-184 257.96,-165 314.96,-165 314.96,-184"/>
<text text-anchor="middle" x="286.46" y="-172" font-family="Helvetica,sans-Serif" font-size="10.00">iomanX.h</text>
</a>
</g>
</g>
<!-- Node1&#45;&gt;Node3 -->
<g id="edge2" class="edge">
<title>Node1&#45;&gt;Node3</title>
<path fill="none" stroke="#63b8ff" d="M193.01,-274.63C212.78,-253.65 249.46,-214.75 270.5,-192.42"/>
<polygon fill="#63b8ff" stroke="#63b8ff" points="272.88,-195.01 277.19,-185.33 267.78,-190.21 272.88,-195.01"/>
</g>
<!-- Node7 -->
<g id="node7" class="node">
<title>Node7</title>
<g id="a_node7"><a xlink:title=" ">
<polygon fill="#e0e0e0" stroke="#999999" points="257.96,-129 206.96,-129 206.96,-110 257.96,-110 257.96,-129"/>
<text text-anchor="middle" x="232.46" y="-117" font-family="Helvetica,sans-Serif" font-size="10.00">stdarg.h</text>
</a>
</g>
</g>
<!-- Node1&#45;&gt;Node7 -->
<g id="edge21" class="edge">
<title>Node1&#45;&gt;Node7</title>
<path fill="none" stroke="#63b8ff" d="M183.97,-274.63C193.47,-244.44 215.52,-174.36 226.3,-140.08"/>
<polygon fill="#63b8ff" stroke="#63b8ff" points="229.6,-141.25 229.26,-130.66 222.92,-139.15 229.6,-141.25"/>
</g>
<!-- Node13 -->
<g id="node13" class="node">
<title>Node13</title>
<g id="a_node13"><a xlink:href="string_8h_source.html" target="_top" xlink:title=" ">
<polygon fill="white" stroke="#666666" points="177.46,-239 129.46,-239 129.46,-220 177.46,-220 177.46,-239"/>
<text text-anchor="middle" x="153.46" y="-227" font-family="Helvetica,sans-Serif" font-size="10.00">string.h</text>
</a>
</g>
</g>
<!-- Node1&#45;&gt;Node13 -->
<g id="edge12" class="edge">
<title>Node1&#45;&gt;Node13</title>
<path fill="none" stroke="#63b8ff" d="M173.03,-274.54C169.68,-267 165.53,-257.67 161.92,-249.55"/>
<polygon fill="#63b8ff" stroke="#63b8ff" points="165.19,-248.27 157.93,-240.56 158.79,-251.12 165.19,-248.27"/>
</g>
<!-- Node18 -->
<g id="node18" class="node">
<title>Node18</title>
<g id="a_node18"><a xlink:href="intrman_8h.html" target="_top" xlink:title=" ">
<polygon fill="white" stroke="#666666" points="57.46,-184 1.46,-184 1.46,-165 57.46,-165 57.46,-184"/>
<text text-anchor="middle" x="29.46" y="-172" font-family="Helvetica,sans-Serif" font-size="10.00">intrman.h</text>
</a>
</g>
</g>
<!-- Node1&#45;&gt;Node18 -->
<g id="edge22" class="edge">
<title>Node1&#45;&gt;Node18</title>
<path fill="none" stroke="#63b8ff" d="M160.46,-274.63C132.13,-253.19 79.03,-213.01 49.89,-190.96"/>
<polygon fill="#63b8ff" stroke="#63b8ff" points="52.29,-188.39 42.2,-185.14 48.06,-193.97 52.29,-188.39"/>
</g>
<!-- Node19 -->
<g id="node19" class="node">
<title>Node19</title>
<g id="a_node19"><a xlink:href="errno_8h.html" target="_top" xlink:title=" ">
<polygon fill="white" stroke="#666666" points="317.46,-239 271.46,-239 271.46,-220 317.46,-220 317.46,-239"/>
<text text-anchor="middle" x="294.46" y="-227" font-family="Helvetica,sans-Serif" font-size="10.00">errno.h</text>
</a>
</g>
</g>
<!-- Node1&#45;&gt;Node19 -->
<g id="edge25" class="edge">
<title>Node1&#45;&gt;Node19</title>
<path fill="none" stroke="#63b8ff" d="M207.88,-274.54C225.92,-265.36 249.15,-253.55 267,-244.47"/>
<polygon fill="#63b8ff" stroke="#63b8ff" points="268.39,-247.69 275.72,-240.03 265.22,-241.45 268.39,-247.69"/>
</g>
<!-- Node4 -->
<g id="node4" class="node">
<title>Node4</title>
<g id="a_node4"><a xlink:href="iop_2kernel_2include_2types_8h_source.html" target="_top" xlink:title=" ">
<polygon fill="white" stroke="#666666" points="97.96,-74 50.96,-74 50.96,-55 97.96,-55 97.96,-74"/>
<text text-anchor="middle" x="74.46" y="-62" font-family="Helvetica,sans-Serif" font-size="10.00">types.h</text>
</a>
</g>
</g>
<!-- Node3&#45;&gt;Node4 -->
<g id="edge3" class="edge">
<title>Node3&#45;&gt;Node4</title>
<path fill="none" stroke="#63b8ff" d="M286.3,-164.68C285.57,-150.93 282.06,-124.45 266.46,-110 254.96,-99.36 161.64,-81.17 109.46,-71.67"/>
<polygon fill="#63b8ff" stroke="#63b8ff" points="110.33,-68.28 99.87,-69.95 109.09,-75.16 110.33,-68.28"/>
</g>
<!-- Node3&#45;&gt;Node7 -->
<g id="edge6" class="edge">
<title>Node3&#45;&gt;Node7</title>
<path fill="none" stroke="#63b8ff" d="M277.54,-164.75C270,-157.35 258.99,-146.54 249.73,-137.45"/>
<polygon fill="#63b8ff" stroke="#63b8ff" points="252.24,-135.01 242.65,-130.5 247.33,-140 252.24,-135.01"/>
</g>
<!-- Node8 -->
<g id="node8" class="node">
<title>Node8</title>
<g id="a_node8"><a xlink:href="io__common_8h.html" target="_top" xlink:title=" ">
<polygon fill="white" stroke="#666666" points="388.46,-129 314.46,-129 314.46,-110 388.46,-110 388.46,-129"/>
<text text-anchor="middle" x="351.46" y="-117" font-family="Helvetica,sans-Serif" font-size="10.00">io_common.h</text>
</a>
</g>
</g>
<!-- Node3&#45;&gt;Node8 -->
<g id="edge7" class="edge">
<title>Node3&#45;&gt;Node8</title>
<path fill="none" stroke="#63b8ff" d="M297.48,-164.51C306.88,-156.85 320.6,-145.66 331.86,-136.47"/>
<polygon fill="#63b8ff" stroke="#63b8ff" points="333.88,-139.35 339.42,-130.31 329.46,-133.92 333.88,-139.35"/>
</g>
<!-- Node11 -->
<g id="node11" class="node">
<title>Node11</title>
<g id="a_node11"><a xlink:href="iox__stat_8h.html" target="_top" xlink:title=" ">
<polygon fill="white" stroke="#666666" points="464.46,-129 406.46,-129 406.46,-110 464.46,-110 464.46,-129"/>
<text text-anchor="middle" x="435.46" y="-117" font-family="Helvetica,sans-Serif" font-size="10.00">iox_stat.h</text>
</a>
</g>
</g>
<!-- Node3&#45;&gt;Node11 -->
<g id="edge10" class="edge">
<title>Node3&#45;&gt;Node11</title>
<path fill="none" stroke="#63b8ff" d="M311.73,-164.51C335.96,-155.89 372.76,-142.8 399.93,-133.14"/>
<polygon fill="#63b8ff" stroke="#63b8ff" points="400.88,-136.51 409.13,-129.87 398.53,-129.92 400.88,-136.51"/>
</g>
<!-- Node5 -->
<g id="node5" class="node">
<title>Node5</title>
<g id="a_node5"><a xlink:title=" ">
<polygon fill="#e0e0e0" stroke="#999999" points="99.96,-19 48.96,-19 48.96,0 99.96,0 99.96,-19"/>
<text text-anchor="middle" x="74.46" y="-7" font-family="Helvetica,sans-Serif" font-size="10.00">stddef.h</text>
</a>
</g>
</g>
<!-- Node4&#45;&gt;Node5 -->
<g id="edge4" class="edge">
<title>Node4&#45;&gt;Node5</title>
<path fill="none" stroke="#63b8ff" d="M74.46,-54.75C74.46,-48.27 74.46,-39.16 74.46,-30.9"/>
<polygon fill="#63b8ff" stroke="#63b8ff" points="77.96,-30.96 74.46,-20.96 70.96,-30.96 77.96,-30.96"/>
</g>
<!-- Node6 -->
<g id="node6" class="node">
<title>Node6</title>
<g id="a_node6"><a xlink:href="tamtypes_8h.html" target="_top" xlink:title=" ">
<polygon fill="white" stroke="#666666" points="189.46,-19 125.46,-19 125.46,0 189.46,0 189.46,-19"/>
<text text-anchor="middle" x="157.46" y="-7" font-family="Helvetica,sans-Serif" font-size="10.00">tamtypes.h</text>
</a>
</g>
</g>
<!-- Node4&#45;&gt;Node6 -->
<g id="edge5" class="edge">
<title>Node4&#45;&gt;Node6</title>
<path fill="none" stroke="#63b8ff" d="M88.54,-54.51C101.01,-46.54 119.47,-34.75 134.15,-25.38"/>
<polygon fill="#63b8ff" stroke="#63b8ff" points="135.76,-28.5 142.31,-20.17 132,-22.6 135.76,-28.5"/>
</g>
<!-- Node9 -->
<g id="node9" class="node">
<title>Node9</title>
<g id="a_node9"><a xlink:href="fcntl_8h_source.html" target="_top" xlink:title=" ">
<polygon fill="white" stroke="#666666" points="383.96,-74 322.96,-74 322.96,-55 383.96,-55 383.96,-74"/>
<text text-anchor="middle" x="353.46" y="-62" font-family="Helvetica,sans-Serif" font-size="10.00">sys/fcntl.h</text>
</a>
</g>
</g>
<!-- Node8&#45;&gt;Node9 -->
<g id="edge8" class="edge">
<title>Node8&#45;&gt;Node9</title>
<path fill="none" stroke="#63b8ff" d="M351.79,-109.75C352.03,-103.27 352.37,-94.16 352.69,-85.9"/>
<polygon fill="#63b8ff" stroke="#63b8ff" points="356.18,-86.08 353.06,-75.95 349.19,-85.82 356.18,-86.08"/>
</g>
<!-- Node10 -->
<g id="node10" class="node">
<title>Node10</title>
<g id="a_node10"><a xlink:href="unistd_8h_source.html" target="_top" xlink:title=" ">
<polygon fill="white" stroke="#666666" points="304.46,-74 236.46,-74 236.46,-55 304.46,-55 304.46,-74"/>
<text text-anchor="middle" x="270.46" y="-62" font-family="Helvetica,sans-Serif" font-size="10.00">sys/unistd.h</text>
</a>
</g>
</g>
<!-- Node8&#45;&gt;Node10 -->
<g id="edge9" class="edge">
<title>Node8&#45;&gt;Node10</title>
<path fill="none" stroke="#63b8ff" d="M337.72,-109.51C325.66,-101.62 307.87,-89.98 293.62,-80.65"/>
<polygon fill="#63b8ff" stroke="#63b8ff" points="295.54,-77.73 285.26,-75.19 291.71,-83.59 295.54,-77.73"/>
</g>
<!-- Node12 -->
<g id="node12" class="node">
<title>Node12</title>
<g id="a_node12"><a xlink:href="time_8h.html" target="_top" xlink:title=" ">
<polygon fill="white" stroke="#666666" points="465.96,-74 404.96,-74 404.96,-55 465.96,-55 465.96,-74"/>
<text text-anchor="middle" x="435.46" y="-62" font-family="Helvetica,sans-Serif" font-size="10.00">sys/time.h</text>
</a>
</g>
</g>
<!-- Node11&#45;&gt;Node12 -->
<g id="edge11" class="edge">
<title>Node11&#45;&gt;Node12</title>
<path fill="none" stroke="#63b8ff" d="M435.46,-109.75C435.46,-103.27 435.46,-94.16 435.46,-85.9"/>
<polygon fill="#63b8ff" stroke="#63b8ff" points="438.96,-85.96 435.46,-75.96 431.96,-85.96 438.96,-85.96"/>
</g>
<!-- Node14 -->
<g id="node14" class="node">
<title>Node14</title>
<g id="a_node14"><a xlink:href="sysclib_8h.html" target="_top" xlink:title=" ">
<polygon fill="white" stroke="#666666" points="165.46,-184 111.46,-184 111.46,-165 165.46,-165 165.46,-184"/>
<text text-anchor="middle" x="138.46" y="-172" font-family="Helvetica,sans-Serif" font-size="10.00">sysclib.h</text>
</a>
</g>
</g>
<!-- Node13&#45;&gt;Node14 -->
<g id="edge13" class="edge">
<title>Node13&#45;&gt;Node14</title>
<path fill="none" stroke="#63b8ff" d="M150.98,-219.75C149.1,-213.11 146.45,-203.73 144.06,-195.31"/>
<polygon fill="#63b8ff" stroke="#63b8ff" points="147.49,-194.57 141.4,-185.9 140.75,-196.47 147.49,-194.57"/>
</g>
<!-- Node14&#45;&gt;Node4 -->
<g id="edge14" class="edge">
<title>Node14&#45;&gt;Node4</title>
<path fill="none" stroke="#63b8ff" d="M126.47,-164.52C116.31,-156.32 102.05,-143.32 93.46,-129 85.37,-115.54 80.51,-98.4 77.73,-85.32"/>
<polygon fill="#63b8ff" stroke="#63b8ff" points="81.22,-84.95 75.94,-75.76 74.34,-86.23 81.22,-84.95"/>
</g>
<!-- Node14&#45;&gt;Node7 -->
<g id="edge17" class="edge">
<title>Node14&#45;&gt;Node7</title>
<path fill="none" stroke="#63b8ff" d="M154.4,-164.51C168.8,-156.39 190.24,-144.3 207.01,-134.85"/>
<polygon fill="#63b8ff" stroke="#63b8ff" points="208.44,-138.06 215.43,-130.1 205,-131.96 208.44,-138.06"/>
</g>
<!-- Node15 -->
<g id="node15" class="node">
<title>Node15</title>
<g id="a_node15"><a xlink:href="irx_8h.html" target="_top" xlink:title=" ">
<polygon fill="white" stroke="#666666" points="46.46,-129 12.46,-129 12.46,-110 46.46,-110 46.46,-129"/>
<text text-anchor="middle" x="29.46" y="-117" font-family="Helvetica,sans-Serif" font-size="10.00">irx.h</text>
</a>
</g>
</g>
<!-- Node14&#45;&gt;Node15 -->
<g id="edge15" class="edge">
<title>Node14&#45;&gt;Node15</title>
<path fill="none" stroke="#63b8ff" d="M119.97,-164.51C102.75,-156.14 76.85,-143.54 57.16,-133.97"/>
<polygon fill="#63b8ff" stroke="#63b8ff" points="58.84,-130.9 48.31,-129.67 55.78,-137.19 58.84,-130.9"/>
</g>
<!-- Node16 -->
<g id="node16" class="node">
<title>Node16</title>
<g id="a_node16"><a xlink:href="setjmp_8h.html" target="_top" xlink:title=" ">
<polygon fill="white" stroke="#666666" points="190.96,-74 137.96,-74 137.96,-55 190.96,-55 190.96,-74"/>
<text text-anchor="middle" x="164.46" y="-62" font-family="Helvetica,sans-Serif" font-size="10.00">setjmp.h</text>
</a>
</g>
</g>
<!-- Node14&#45;&gt;Node16 -->
<g id="edge18" class="edge">
<title>Node14&#45;&gt;Node16</title>
<path fill="none" stroke="#63b8ff" d="M143.5,-164.62C148.22,-155.86 155.04,-141.94 158.46,-129 162.19,-114.86 163.67,-98.4 164.23,-85.78"/>
<polygon fill="#63b8ff" stroke="#63b8ff" points="167.72,-85.89 164.49,-75.8 160.73,-85.7 167.72,-85.89"/>
</g>
<!-- Node17 -->
<g id="node17" class="node">
<title>Node17</title>
<g id="a_node17"><a xlink:href="ctype_8h.html" target="_top" xlink:title=" ">
<polygon fill="white" stroke="#666666" points="149.96,-129 102.96,-129 102.96,-110 149.96,-110 149.96,-129"/>
<text text-anchor="middle" x="126.46" y="-117" font-family="Helvetica,sans-Serif" font-size="10.00">ctype.h</text>
</a>
</g>
</g>
<!-- Node14&#45;&gt;Node17 -->
<g id="edge20" class="edge">
<title>Node14&#45;&gt;Node17</title>
<path fill="none" stroke="#63b8ff" d="M136.47,-164.75C134.99,-158.19 132.9,-148.95 131.01,-140.6"/>
<polygon fill="#63b8ff" stroke="#63b8ff" points="134.44,-139.9 128.81,-130.92 127.61,-141.44 134.44,-139.9"/>
</g>
<!-- Node15&#45;&gt;Node4 -->
<g id="edge16" class="edge">
<title>Node15&#45;&gt;Node4</title>
<path fill="none" stroke="#63b8ff" d="M36.89,-109.75C43.04,-102.5 51.97,-91.98 59.58,-83.02"/>
<polygon fill="#63b8ff" stroke="#63b8ff" points="62.08,-85.48 65.88,-75.6 56.74,-80.95 62.08,-85.48"/>
</g>
<!-- Node16&#45;&gt;Node6 -->
<g id="edge19" class="edge">
<title>Node16&#45;&gt;Node6</title>
<path fill="none" stroke="#63b8ff" d="M163.3,-54.75C162.43,-48.19 161.21,-38.95 160.11,-30.6"/>
<polygon fill="#63b8ff" stroke="#63b8ff" points="163.61,-30.4 158.83,-20.94 156.67,-31.31 163.61,-30.4"/>
</g>
<!-- Node18&#45;&gt;Node4 -->
<g id="edge23" class="edge">
<title>Node18&#45;&gt;Node4</title>
<path fill="none" stroke="#63b8ff" d="M20.83,-164.57C9.77,-152.01 -6.81,-128.55 3.46,-110 11.43,-95.6 26.22,-85.23 40.25,-78.15"/>
<polygon fill="#63b8ff" stroke="#63b8ff" points="41.7,-81.34 49.33,-73.99 38.78,-74.97 41.7,-81.34"/>
</g>
<!-- Node18&#45;&gt;Node15 -->
<g id="edge24" class="edge">
<title>Node18&#45;&gt;Node15</title>
<path fill="none" stroke="#63b8ff" d="M29.46,-164.75C29.46,-158.27 29.46,-149.16 29.46,-140.9"/>
<polygon fill="#63b8ff" stroke="#63b8ff" points="32.96,-140.96 29.46,-130.96 25.96,-140.96 32.96,-140.96"/>
</g>
</g>
</svg>
