<?xml version="1.0" encoding="UTF-8" standalone="no"?>
<!DOCTYPE svg PUBLIC "-//W3C//DTD SVG 1.1//EN"
 "http://www.w3.org/Graphics/SVG/1.1/DTD/svg11.dtd">
<!-- Generated by graphviz version 7.0.5 (20221223.1930)
 -->
<!-- Title: iop/sound/audsrv/src/rpc_server.c Pages: 1 -->
<svg width="853pt" height="258pt"
 viewBox="0.00 0.00 852.50 258.00" xmlns="http://www.w3.org/2000/svg" xmlns:xlink="http://www.w3.org/1999/xlink">
<g id="graph0" class="graph" transform="scale(1 1) rotate(0) translate(4 254)">
<title>iop/sound/audsrv/src/rpc_server.c</title>
<!-- Node1 -->
<g id="node1" class="node">
<title>Node1</title>
<g id="a_node1"><a xlink:title=" ">
<polygon fill="#999999" stroke="#666666" points="457,-250 350,-250 350,-220 457,-220 457,-250"/>
<text text-anchor="start" x="358" y="-238" font-family="Helvetica,sans-Serif" font-size="10.00">iop/sound/audsrv/src</text>
<text text-anchor="middle" x="403.5" y="-227" font-family="Helvetica,sans-Serif" font-size="10.00">/rpc_server.c</text>
</a>
</g>
</g>
<!-- Node2 -->
<g id="node2" class="node">
<title>Node2</title>
<g id="a_node2"><a xlink:href="stdio_8h.html" target="_top" xlink:title=" ">
<polygon fill="white" stroke="#666666" points="124,-184 79,-184 79,-165 124,-165 124,-184"/>
<text text-anchor="middle" x="101.5" y="-172" font-family="Helvetica,sans-Serif" font-size="10.00">stdio.h</text>
</a>
</g>
</g>
<!-- Node1&#45;&gt;Node2 -->
<g id="edge1" class="edge">
<title>Node1&#45;&gt;Node2</title>
<path fill="none" stroke="#63b8ff" d="M349.72,-225.29C297.4,-216.53 215.45,-202.08 135,-184.18"/>
<polygon fill="#63b8ff" stroke="#63b8ff" points="136.17,-180.86 125.65,-182.08 134.64,-187.69 136.17,-180.86"/>
</g>
<!-- Node8 -->
<g id="node8" class="node">
<title>Node8</title>
<g id="a_node8"><a xlink:href="thbase_8h.html" target="_top" xlink:title=" ">
<polygon fill="white" stroke="#666666" points="430,-184 377,-184 377,-165 430,-165 430,-184"/>
<text text-anchor="middle" x="403.5" y="-172" font-family="Helvetica,sans-Serif" font-size="10.00">thbase.h</text>
</a>
</g>
</g>
<!-- Node1&#45;&gt;Node8 -->
<g id="edge7" class="edge">
<title>Node1&#45;&gt;Node8</title>
<path fill="none" stroke="#63b8ff" d="M403.5,-219.54C403.5,-212.34 403.5,-203.53 403.5,-195.68"/>
<polygon fill="#63b8ff" stroke="#63b8ff" points="407,-195.69 403.5,-185.69 400,-195.69 407,-195.69"/>
</g>
<!-- Node9 -->
<g id="node9" class="node">
<title>Node9</title>
<g id="a_node9"><a xlink:href="thsemap_8h.html" target="_top" xlink:title=" ">
<polygon fill="white" stroke="#666666" points="204.5,-184 142.5,-184 142.5,-165 204.5,-165 204.5,-184"/>
<text text-anchor="middle" x="173.5" y="-172" font-family="Helvetica,sans-Serif" font-size="10.00">thsemap.h</text>
</a>
</g>
</g>
<!-- Node1&#45;&gt;Node9 -->
<g id="edge10" class="edge">
<title>Node1&#45;&gt;Node9</title>
<path fill="none" stroke="#63b8ff" d="M349.58,-220.28C308.78,-209.91 253.55,-195.86 215.89,-186.28"/>
<polygon fill="#63b8ff" stroke="#63b8ff" points="216.83,-182.91 206.27,-183.84 215.1,-189.69 216.83,-182.91"/>
</g>
<!-- Node10 -->
<g id="node10" class="node">
<title>Node10</title>
<g id="a_node10"><a xlink:href="loadcore_8h.html" target="_top" xlink:title=" ">
<polygon fill="white" stroke="#666666" points="284,-184 223,-184 223,-165 284,-165 284,-184"/>
<text text-anchor="middle" x="253.5" y="-172" font-family="Helvetica,sans-Serif" font-size="10.00">loadcore.h</text>
</a>
</g>
</g>
<!-- Node1&#45;&gt;Node10 -->
<g id="edge13" class="edge">
<title>Node1&#45;&gt;Node10</title>
<path fill="none" stroke="#63b8ff" d="M366.42,-219.54C342.01,-210.02 310.31,-197.66 286.72,-188.46"/>
<polygon fill="#63b8ff" stroke="#63b8ff" points="288.18,-185.27 277.59,-184.9 285.64,-191.79 288.18,-185.27"/>
</g>
<!-- Node11 -->
<g id="node11" class="node">
<title>Node11</title>
<g id="a_node11"><a xlink:href="sysmem_8h.html" target="_top" xlink:title=" ">
<polygon fill="white" stroke="#666666" points="61,-184 0,-184 0,-165 61,-165 61,-184"/>
<text text-anchor="middle" x="30.5" y="-172" font-family="Helvetica,sans-Serif" font-size="10.00">sysmem.h</text>
</a>
</g>
</g>
<!-- Node1&#45;&gt;Node11 -->
<g id="edge16" class="edge">
<title>Node1&#45;&gt;Node11</title>
<path fill="none" stroke="#63b8ff" d="M349.52,-227.04C285.66,-218.55 175.88,-203.18 72.4,-184.44"/>
<polygon fill="#63b8ff" stroke="#63b8ff" points="73.07,-181 62.61,-182.65 71.81,-187.89 73.07,-181"/>
</g>
<!-- Node12 -->
<g id="node12" class="node">
<title>Node12</title>
<g id="a_node12"><a xlink:href="intrman_8h.html" target="_top" xlink:title=" ">
<polygon fill="white" stroke="#666666" points="358.5,-184 302.5,-184 302.5,-165 358.5,-165 358.5,-184"/>
<text text-anchor="middle" x="330.5" y="-172" font-family="Helvetica,sans-Serif" font-size="10.00">intrman.h</text>
</a>
</g>
</g>
<!-- Node1&#45;&gt;Node12 -->
<g id="edge20" class="edge">
<title>Node1&#45;&gt;Node12</title>
<path fill="none" stroke="#63b8ff" d="M385.46,-219.54C374.74,-210.96 361.16,-200.07 350.17,-191.26"/>
<polygon fill="#63b8ff" stroke="#63b8ff" points="352.5,-188.64 342.51,-185.12 348.12,-194.11 352.5,-188.64"/>
</g>
<!-- Node13 -->
<g id="node13" class="node">
<title>Node13</title>
<g id="a_node13"><a xlink:title=" ">
<polygon fill="#e0e0e0" stroke="#999999" points="501,-184 448,-184 448,-165 501,-165 501,-184"/>
<text text-anchor="middle" x="474.5" y="-172" font-family="Helvetica,sans-Serif" font-size="10.00">sifcmd.h</text>
</a>
</g>
</g>
<!-- Node1&#45;&gt;Node13 -->
<g id="edge23" class="edge">
<title>Node1&#45;&gt;Node13</title>
<path fill="none" stroke="#63b8ff" d="M421.05,-219.54C431.47,-210.96 444.68,-200.07 455.37,-191.26"/>
<polygon fill="#63b8ff" stroke="#63b8ff" points="457.31,-194.2 462.8,-185.14 452.86,-188.8 457.31,-194.2"/>
</g>
<!-- Node14 -->
<g id="node14" class="node">
<title>Node14</title>
<g id="a_node14"><a xlink:title=" ">
<polygon fill="#e0e0e0" stroke="#999999" points="572,-184 519,-184 519,-165 572,-165 572,-184"/>
<text text-anchor="middle" x="545.5" y="-172" font-family="Helvetica,sans-Serif" font-size="10.00">audsrv.h</text>
</a>
</g>
</g>
<!-- Node1&#45;&gt;Node14 -->
<g id="edge24" class="edge">
<title>Node1&#45;&gt;Node14</title>
<path fill="none" stroke="#63b8ff" d="M438.6,-219.54C461.51,-210.1 491.17,-197.88 513.44,-188.71"/>
<polygon fill="#63b8ff" stroke="#63b8ff" points="514.71,-191.97 522.63,-184.92 512.05,-185.5 514.71,-191.97"/>
</g>
<!-- Node15 -->
<g id="node15" class="node">
<title>Node15</title>
<g id="a_node15"><a xlink:href="audsrv__internal_8h.html" target="_top" xlink:title=" ">
<polygon fill="white" stroke="#666666" points="680.5,-184 590.5,-184 590.5,-165 680.5,-165 680.5,-184"/>
<text text-anchor="middle" x="635.5" y="-172" font-family="Helvetica,sans-Serif" font-size="10.00">audsrv_internal.h</text>
</a>
</g>
</g>
<!-- Node1&#45;&gt;Node15 -->
<g id="edge25" class="edge">
<title>Node1&#45;&gt;Node15</title>
<path fill="none" stroke="#63b8ff" d="M457.31,-220.43C497.27,-210.36 551.21,-196.75 589.24,-187.16"/>
<polygon fill="#63b8ff" stroke="#63b8ff" points="589.7,-190.66 598.54,-184.82 587.99,-183.87 589.7,-190.66"/>
</g>
<!-- Node16 -->
<g id="node16" class="node">
<title>Node16</title>
<g id="a_node16"><a xlink:href="iop_2sound_2audsrv_2src_2common_8h.html" target="_top" xlink:title=" ">
<polygon fill="white" stroke="#666666" points="760.5,-184 698.5,-184 698.5,-165 760.5,-165 760.5,-184"/>
<text text-anchor="middle" x="729.5" y="-172" font-family="Helvetica,sans-Serif" font-size="10.00">common.h</text>
</a>
</g>
</g>
<!-- Node1&#45;&gt;Node16 -->
<g id="edge26" class="edge">
<title>Node1&#45;&gt;Node16</title>
<path fill="none" stroke="#63b8ff" d="M457.37,-225.18C512.53,-216.02 601.01,-200.95 686.81,-184.46"/>
<polygon fill="#63b8ff" stroke="#63b8ff" points="687.44,-187.91 696.59,-182.58 686.11,-181.04 687.44,-187.91"/>
</g>
<!-- Node17 -->
<g id="node17" class="node">
<title>Node17</title>
<g id="a_node17"><a xlink:href="iop_2sound_2audsrv_2src_2rpc__client_8h.html" target="_top" xlink:title=" ">
<polygon fill="white" stroke="#666666" points="844.5,-184 778.5,-184 778.5,-165 844.5,-165 844.5,-184"/>
<text text-anchor="middle" x="811.5" y="-172" font-family="Helvetica,sans-Serif" font-size="10.00">rpc_client.h</text>
</a>
</g>
</g>
<!-- Node1&#45;&gt;Node17 -->
<g id="edge27" class="edge">
<title>Node1&#45;&gt;Node17</title>
<path fill="none" stroke="#63b8ff" d="M457.31,-227.74C526.58,-219.44 650.92,-203.73 766.87,-184.35"/>
<polygon fill="#63b8ff" stroke="#63b8ff" points="767.29,-187.83 776.57,-182.72 766.13,-180.93 767.29,-187.83"/>
</g>
<!-- Node3 -->
<g id="node3" class="node">
<title>Node3</title>
<g id="a_node3"><a xlink:title=" ">
<polygon fill="#e0e0e0" stroke="#999999" points="119,-129 68,-129 68,-110 119,-110 119,-129"/>
<text text-anchor="middle" x="93.5" y="-117" font-family="Helvetica,sans-Serif" font-size="10.00">stdarg.h</text>
</a>
</g>
</g>
<!-- Node2&#45;&gt;Node3 -->
<g id="edge2" class="edge">
<title>Node2&#45;&gt;Node3</title>
<path fill="none" stroke="#63b8ff" d="M100.18,-164.75C99.19,-158.19 97.79,-148.95 96.53,-140.6"/>
<polygon fill="#63b8ff" stroke="#63b8ff" points="100.03,-140.3 95.08,-130.94 93.11,-141.35 100.03,-140.3"/>
</g>
<!-- Node4 -->
<g id="node4" class="node">
<title>Node4</title>
<g id="a_node4"><a xlink:href="irx_8h.html" target="_top" xlink:title=" ">
<polygon fill="white" stroke="#666666" points="235.5,-129 201.5,-129 201.5,-110 235.5,-110 235.5,-129"/>
<text text-anchor="middle" x="218.5" y="-117" font-family="Helvetica,sans-Serif" font-size="10.00">irx.h</text>
</a>
</g>
</g>
<!-- Node2&#45;&gt;Node4 -->
<g id="edge3" class="edge">
<title>Node2&#45;&gt;Node4</title>
<path fill="none" stroke="#63b8ff" d="M121.35,-164.51C140.45,-155.86 169.49,-142.7 190.85,-133.02"/>
<polygon fill="#63b8ff" stroke="#63b8ff" points="192.18,-136.26 199.85,-128.95 189.3,-129.89 192.18,-136.26"/>
</g>
<!-- Node5 -->
<g id="node5" class="node">
<title>Node5</title>
<g id="a_node5"><a xlink:href="iop_2kernel_2include_2types_8h_source.html" target="_top" xlink:title=" ">
<polygon fill="white" stroke="#666666" points="264,-74 217,-74 217,-55 264,-55 264,-74"/>
<text text-anchor="middle" x="240.5" y="-62" font-family="Helvetica,sans-Serif" font-size="10.00">types.h</text>
</a>
</g>
</g>
<!-- Node4&#45;&gt;Node5 -->
<g id="edge4" class="edge">
<title>Node4&#45;&gt;Node5</title>
<path fill="none" stroke="#63b8ff" d="M222.13,-109.75C224.92,-103.04 228.87,-93.52 232.4,-85.02"/>
<polygon fill="#63b8ff" stroke="#63b8ff" points="235.61,-86.42 236.21,-75.84 229.14,-83.73 235.61,-86.42"/>
</g>
<!-- Node6 -->
<g id="node6" class="node">
<title>Node6</title>
<g id="a_node6"><a xlink:title=" ">
<polygon fill="#e0e0e0" stroke="#999999" points="228,-19 177,-19 177,0 228,0 228,-19"/>
<text text-anchor="middle" x="202.5" y="-7" font-family="Helvetica,sans-Serif" font-size="10.00">stddef.h</text>
</a>
</g>
</g>
<!-- Node5&#45;&gt;Node6 -->
<g id="edge5" class="edge">
<title>Node5&#45;&gt;Node6</title>
<path fill="none" stroke="#63b8ff" d="M234.23,-54.75C229.14,-47.66 221.8,-37.42 215.47,-28.59"/>
<polygon fill="#63b8ff" stroke="#63b8ff" points="218.46,-26.76 209.79,-20.67 212.78,-30.84 218.46,-26.76"/>
</g>
<!-- Node7 -->
<g id="node7" class="node">
<title>Node7</title>
<g id="a_node7"><a xlink:href="tamtypes_8h.html" target="_top" xlink:title=" ">
<polygon fill="white" stroke="#666666" points="310.5,-19 246.5,-19 246.5,0 310.5,0 310.5,-19"/>
<text text-anchor="middle" x="278.5" y="-7" font-family="Helvetica,sans-Serif" font-size="10.00">tamtypes.h</text>
</a>
</g>
</g>
<!-- Node5&#45;&gt;Node7 -->
<g id="edge6" class="edge">
<title>Node5&#45;&gt;Node7</title>
<path fill="none" stroke="#63b8ff" d="M246.77,-54.75C251.86,-47.66 259.2,-37.42 265.53,-28.59"/>
<polygon fill="#63b8ff" stroke="#63b8ff" points="268.22,-30.84 271.21,-20.67 262.54,-26.76 268.22,-30.84"/>
</g>
<!-- Node8&#45;&gt;Node4 -->
<g id="edge9" class="edge">
<title>Node8&#45;&gt;Node4</title>
<path fill="none" stroke="#63b8ff" d="M376.6,-165.79C342.03,-155.89 282.26,-138.77 246.95,-128.65"/>
<polygon fill="#63b8ff" stroke="#63b8ff" points="248.02,-125.32 237.44,-125.93 246.09,-132.05 248.02,-125.32"/>
</g>
<!-- Node8&#45;&gt;Node5 -->
<g id="edge8" class="edge">
<title>Node8&#45;&gt;Node5</title>
<path fill="none" stroke="#63b8ff" d="M390.16,-164.66C362.34,-146.23 297.85,-103.5 263.31,-80.62"/>
<polygon fill="#63b8ff" stroke="#63b8ff" points="265.55,-77.9 255.29,-75.3 261.69,-83.74 265.55,-77.9"/>
</g>
<!-- Node9&#45;&gt;Node4 -->
<g id="edge12" class="edge">
<title>Node9&#45;&gt;Node4</title>
<path fill="none" stroke="#63b8ff" d="M180.93,-164.75C187.08,-157.5 196.01,-146.98 203.63,-138.02"/>
<polygon fill="#63b8ff" stroke="#63b8ff" points="206.12,-140.48 209.93,-130.6 200.79,-135.95 206.12,-140.48"/>
</g>
<!-- Node9&#45;&gt;Node5 -->
<g id="edge11" class="edge">
<title>Node9&#45;&gt;Node5</title>
<path fill="none" stroke="#63b8ff" d="M174.63,-164.68C176.61,-151.83 181.55,-127.58 192.5,-110 199.35,-99 209.62,-88.98 218.9,-81.24"/>
<polygon fill="#63b8ff" stroke="#63b8ff" points="220.82,-84.18 226.5,-75.24 216.48,-78.68 220.82,-84.18"/>
</g>
<!-- Node10&#45;&gt;Node4 -->
<g id="edge15" class="edge">
<title>Node10&#45;&gt;Node4</title>
<path fill="none" stroke="#63b8ff" d="M247.72,-164.75C243.09,-157.73 236.43,-147.64 230.63,-138.87"/>
<polygon fill="#63b8ff" stroke="#63b8ff" points="233.67,-137.12 225.24,-130.71 227.83,-140.98 233.67,-137.12"/>
</g>
<!-- Node10&#45;&gt;Node5 -->
<g id="edge14" class="edge">
<title>Node10&#45;&gt;Node5</title>
<path fill="none" stroke="#63b8ff" d="M252.44,-164.66C250.37,-147.5 245.77,-109.26 242.92,-85.6"/>
<polygon fill="#63b8ff" stroke="#63b8ff" points="246.43,-85.47 241.76,-75.96 239.48,-86.31 246.43,-85.47"/>
</g>
<!-- Node11&#45;&gt;Node3 -->
<g id="edge19" class="edge">
<title>Node11&#45;&gt;Node3</title>
<path fill="none" stroke="#63b8ff" d="M41.19,-164.51C50.2,-156.93 63.33,-145.88 74.18,-136.75"/>
<polygon fill="#63b8ff" stroke="#63b8ff" points="76.41,-139.45 81.81,-130.33 71.91,-134.09 76.41,-139.45"/>
</g>
<!-- Node11&#45;&gt;Node4 -->
<g id="edge18" class="edge">
<title>Node11&#45;&gt;Node4</title>
<path fill="none" stroke="#63b8ff" d="M61.12,-164.87C96.93,-154.77 155.69,-138.21 190.38,-128.43"/>
<polygon fill="#63b8ff" stroke="#63b8ff" points="191.02,-131.88 199.7,-125.8 189.12,-125.15 191.02,-131.88"/>
</g>
<!-- Node11&#45;&gt;Node5 -->
<g id="edge17" class="edge">
<title>Node11&#45;&gt;Node5</title>
<path fill="none" stroke="#63b8ff" d="M31.87,-164.64C34.48,-150.82 41.51,-124.24 58.5,-110 100.27,-74.98 165.33,-66.74 205.3,-65.23"/>
<polygon fill="#63b8ff" stroke="#63b8ff" points="205.18,-68.73 215.09,-64.99 205.01,-61.73 205.18,-68.73"/>
</g>
<!-- Node12&#45;&gt;Node4 -->
<g id="edge22" class="edge">
<title>Node12&#45;&gt;Node4</title>
<path fill="none" stroke="#63b8ff" d="M311.5,-164.51C293.51,-156 266.31,-143.12 245.96,-133.5"/>
<polygon fill="#63b8ff" stroke="#63b8ff" points="247.65,-130.42 237.12,-129.31 244.66,-136.75 247.65,-130.42"/>
</g>
<!-- Node12&#45;&gt;Node5 -->
<g id="edge21" class="edge">
<title>Node12&#45;&gt;Node5</title>
<path fill="none" stroke="#63b8ff" d="M323.13,-164.66C308.3,-146.86 274.59,-106.41 255.12,-83.04"/>
<polygon fill="#63b8ff" stroke="#63b8ff" points="258.03,-81.06 248.94,-75.62 252.65,-85.55 258.03,-81.06"/>
</g>
</g>
</svg>
