<?xml version="1.0" encoding="UTF-8" standalone="no"?>
<!DOCTYPE svg PUBLIC "-//W3C//DTD SVG 1.1//EN"
 "http://www.w3.org/Graphics/SVG/1.1/DTD/svg11.dtd">
<!-- Generated by graphviz version 7.0.5 (20221223.1930)
 -->
<!-- Title: iop/tcpip/tcpip&#45;netman/src/ps2ip.c Pages: 1 -->
<!--zoomable 258 -->
<svg id="main" version="1.1" xmlns="http://www.w3.org/2000/svg" xmlns:xlink="http://www.w3.org/1999/xlink" xml:space="preserve" onload="init(evt)">
<style type="text/css"><![CDATA[
.edge:hover path { stroke: red; }
.edge:hover polygon { stroke: red; fill: red; }
]]></style>
<script type="text/javascript"><![CDATA[
var edges = document.getElementsByTagName('g');
if (edges && edges.length) {
  for (var i=0;i<edges.length;i++) {
    if (edges[i].id.substr(0,4)=='edge') {
      edges[i].setAttribute('class','edge');
    }
  }
}
]]></script>
        <defs>
                <circle id="rim" cx="0" cy="0" r="7"/>
                <circle id="rim2" cx="0" cy="0" r="3.5"/>
                <g id="zoomPlus">
                        <use xlink:href="#rim" fill="#404040">
                                <set attributeName="fill" to="#808080" begin="zoomplus.mouseover" end="zoomplus.mouseout"/>
                        </use>
                        <path d="M-4,0h8M0,-4v8" fill="none" stroke="white" stroke-width="1.5" pointer-events="none"/>
                </g>
                <g id="zoomMin">
                        <use xlink:href="#rim" fill="#404040">
                                <set attributeName="fill" to="#808080" begin="zoomminus.mouseover" end="zoomminus.mouseout"/>
                        </use>
                        <path d="M-4,0h8" fill="none" stroke="white" stroke-width="1.5" pointer-events="none"/>
                </g>
                <g id="dirArrow">
                        <path fill="none" stroke="white" stroke-width="1.5" d="M0,-3.0v7 M-2.5,-0.5L0,-3.0L2.5,-0.5"/>
                </g>
               <g id="resetDef">
                       <use xlink:href="#rim2" fill="#404040">
                               <set attributeName="fill" to="#808080" begin="reset.mouseover" end="reset.mouseout"/>
                       </use>
               </g>
        </defs>

<script type="text/javascript">
var viewWidth = 1473;
var viewHeight = 258;
var sectionId = 'dynsection-0';
</script>
<script xlink:href="svgpan.js"/>
<svg id="graph" class="graph">
<g id="viewport">
<title>iop/tcpip/tcpip&#45;netman/src/ps2ip.c</title>
<!-- Node1 -->
<g id="node1" class="node">
<title>Node1</title>
<g id="a_node1"><a xlink:title=" ">
<polygon fill="#999999" stroke="#666666" points="709,-250 596,-250 596,-220 709,-220 709,-250"/>
<text text-anchor="start" x="604" y="-238" font-family="Helvetica,sans-Serif" font-size="10.00">iop/tcpip/tcpip&#45;netman</text>
<text text-anchor="middle" x="652.5" y="-227" font-family="Helvetica,sans-Serif" font-size="10.00">/src/ps2ip.c</text>
</a>
</g>
</g>
<!-- Node2 -->
<g id="node2" class="node">
<title>Node2</title>
<g id="a_node2"><a xlink:title=" ">
<polygon fill="#e0e0e0" stroke="#999999" points="47,-184 0,-184 0,-165 47,-165 47,-184"/>
<text text-anchor="middle" x="23.5" y="-172" font-family="Helvetica,sans-Serif" font-size="10.00">types.h</text>
</a>
</g>
</g>
<!-- Node1&#45;&gt;Node2 -->
<g id="edge1" class="edge">
<title>Node1&#45;&gt;Node2</title>
<path fill="none" stroke="#63b8ff" d="M595.81,-232.42C491.34,-228.82 261.31,-217.68 58.36,-183.99"/>
<polygon fill="#63b8ff" stroke="#63b8ff" points="59.13,-180.57 48.68,-182.36 57.96,-187.48 59.13,-180.57"/>
</g>
<!-- Node3 -->
<g id="node3" class="node">
<title>Node3</title>
<g id="a_node3"><a xlink:href="stdio_8h.html" target="_top" xlink:title=" ">
<polygon fill="white" stroke="#666666" points="414,-184 369,-184 369,-165 414,-165 414,-184"/>
<text text-anchor="middle" x="391.5" y="-172" font-family="Helvetica,sans-Serif" font-size="10.00">stdio.h</text>
</a>
</g>
</g>
<!-- Node1&#45;&gt;Node3 -->
<g id="edge2" class="edge">
<title>Node1&#45;&gt;Node3</title>
<path fill="none" stroke="#63b8ff" d="M595.87,-222.37C551.97,-213.19 489.35,-199.73 425.32,-184.35"/>
<polygon fill="#63b8ff" stroke="#63b8ff" points="426.21,-180.96 415.66,-182.02 424.56,-187.77 426.21,-180.96"/>
</g>
<!-- Node9 -->
<g id="node9" class="node">
<title>Node9</title>
<g id="a_node9"><a xlink:href="intrman_8h.html" target="_top" xlink:title=" ">
<polygon fill="white" stroke="#666666" points="488.5,-184 432.5,-184 432.5,-165 488.5,-165 488.5,-184"/>
<text text-anchor="middle" x="460.5" y="-172" font-family="Helvetica,sans-Serif" font-size="10.00">intrman.h</text>
</a>
</g>
</g>
<!-- Node1&#45;&gt;Node9 -->
<g id="edge8" class="edge">
<title>Node1&#45;&gt;Node9</title>
<path fill="none" stroke="#63b8ff" d="M605.04,-219.54C572.6,-209.66 530.12,-196.71 499.63,-187.42"/>
<polygon fill="#63b8ff" stroke="#63b8ff" points="501.01,-184.18 490.42,-184.62 498.97,-190.88 501.01,-184.18"/>
</g>
<!-- Node10 -->
<g id="node10" class="node">
<title>Node10</title>
<g id="a_node10"><a xlink:href="netman_8h.html" target="_top" xlink:title=" ">
<polygon fill="white" stroke="#666666" points="629.5,-74 573.5,-74 573.5,-55 629.5,-55 629.5,-74"/>
<text text-anchor="middle" x="601.5" y="-62" font-family="Helvetica,sans-Serif" font-size="10.00">netman.h</text>
</a>
</g>
</g>
<!-- Node1&#45;&gt;Node10 -->
<g id="edge11" class="edge">
<title>Node1&#45;&gt;Node10</title>
<path fill="none" stroke="#63b8ff" d="M635.17,-219.69C625.48,-210.58 614.22,-197.9 608.5,-184 595.14,-151.53 596.46,-109.79 598.84,-85.5"/>
<polygon fill="#63b8ff" stroke="#63b8ff" points="602.3,-86.09 599.97,-75.76 595.34,-85.29 602.3,-86.09"/>
</g>
<!-- Node11 -->
<g id="node11" class="node">
<title>Node11</title>
<g id="a_node11"><a xlink:href="loadcore_8h.html" target="_top" xlink:title=" ">
<polygon fill="white" stroke="#666666" points="201,-184 140,-184 140,-165 201,-165 201,-184"/>
<text text-anchor="middle" x="170.5" y="-172" font-family="Helvetica,sans-Serif" font-size="10.00">loadcore.h</text>
</a>
</g>
</g>
<!-- Node1&#45;&gt;Node11 -->
<g id="edge13" class="edge">
<title>Node1&#45;&gt;Node11</title>
<path fill="none" stroke="#63b8ff" d="M595.6,-229.45C513.18,-222.45 355.6,-207.52 212.27,-184.31"/>
<polygon fill="#63b8ff" stroke="#63b8ff" points="213.03,-180.89 202.59,-182.72 211.9,-187.79 213.03,-180.89"/>
</g>
<!-- Node12 -->
<g id="node12" class="node">
<title>Node12</title>
<g id="a_node12"><a xlink:href="thbase_8h.html" target="_top" xlink:title=" ">
<polygon fill="white" stroke="#666666" points="272,-184 219,-184 219,-165 272,-165 272,-184"/>
<text text-anchor="middle" x="245.5" y="-172" font-family="Helvetica,sans-Serif" font-size="10.00">thbase.h</text>
</a>
</g>
</g>
<!-- Node1&#45;&gt;Node12 -->
<g id="edge16" class="edge">
<title>Node1&#45;&gt;Node12</title>
<path fill="none" stroke="#63b8ff" d="M595.8,-228.25C524.89,-220.64 399.59,-205.83 283.4,-184.38"/>
<polygon fill="#63b8ff" stroke="#63b8ff" points="284.15,-180.96 273.68,-182.56 282.86,-187.84 284.15,-180.96"/>
</g>
<!-- Node13 -->
<g id="node13" class="node">
<title>Node13</title>
<g id="a_node13"><a xlink:href="sysclib_8h.html" target="_top" xlink:title=" ">
<polygon fill="white" stroke="#666666" points="560.5,-184 506.5,-184 506.5,-165 560.5,-165 560.5,-184"/>
<text text-anchor="middle" x="533.5" y="-172" font-family="Helvetica,sans-Serif" font-size="10.00">sysclib.h</text>
</a>
</g>
</g>
<!-- Node1&#45;&gt;Node13 -->
<g id="edge19" class="edge">
<title>Node1&#45;&gt;Node13</title>
<path fill="none" stroke="#63b8ff" d="M623.08,-219.54C604.33,-210.32 580.16,-198.44 561.65,-189.34"/>
<polygon fill="#63b8ff" stroke="#63b8ff" points="563.37,-186.28 552.85,-185.01 560.28,-192.57 563.37,-186.28"/>
</g>
<!-- Node16 -->
<g id="node16" class="node">
<title>Node16</title>
<g id="a_node16"><a xlink:href="thevent_8h.html" target="_top" xlink:title=" ">
<polygon fill="white" stroke="#666666" points="121.5,-184 65.5,-184 65.5,-165 121.5,-165 121.5,-184"/>
<text text-anchor="middle" x="93.5" y="-172" font-family="Helvetica,sans-Serif" font-size="10.00">thevent.h</text>
</a>
</g>
</g>
<!-- Node1&#45;&gt;Node16 -->
<g id="edge26" class="edge">
<title>Node1&#45;&gt;Node16</title>
<path fill="none" stroke="#63b8ff" d="M595.8,-231C501.64,-225.48 306.95,-211.82 132.88,-184.18"/>
<polygon fill="#63b8ff" stroke="#63b8ff" points="133.63,-180.75 123.2,-182.62 132.52,-187.66 133.63,-180.75"/>
</g>
<!-- Node17 -->
<g id="node17" class="node">
<title>Node17</title>
<g id="a_node17"><a xlink:href="sysmem_8h.html" target="_top" xlink:title=" ">
<polygon fill="white" stroke="#666666" points="351,-184 290,-184 290,-165 351,-165 351,-184"/>
<text text-anchor="middle" x="320.5" y="-172" font-family="Helvetica,sans-Serif" font-size="10.00">sysmem.h</text>
</a>
</g>
</g>
<!-- Node1&#45;&gt;Node17 -->
<g id="edge29" class="edge">
<title>Node1&#45;&gt;Node17</title>
<path fill="none" stroke="#63b8ff" d="M595.58,-224.94C539.06,-215.79 449.66,-200.91 362.63,-184.34"/>
<polygon fill="#63b8ff" stroke="#63b8ff" points="363.45,-180.94 352.97,-182.5 362.13,-187.81 363.45,-180.94"/>
</g>
<!-- Node18 -->
<g id="node18" class="node">
<title>Node18</title>
<g id="a_node18"><a xlink:title=" ">
<polygon fill="#e0e0e0" stroke="#999999" points="688,-184 617,-184 617,-165 688,-165 688,-184"/>
<text text-anchor="middle" x="652.5" y="-172" font-family="Helvetica,sans-Serif" font-size="10.00">lwip/memp.h</text>
</a>
</g>
</g>
<!-- Node1&#45;&gt;Node18 -->
<g id="edge33" class="edge">
<title>Node1&#45;&gt;Node18</title>
<path fill="none" stroke="#63b8ff" d="M652.5,-219.54C652.5,-212.34 652.5,-203.53 652.5,-195.68"/>
<polygon fill="#63b8ff" stroke="#63b8ff" points="656,-195.69 652.5,-185.69 649,-195.69 656,-195.69"/>
</g>
<!-- Node19 -->
<g id="node19" class="node">
<title>Node19</title>
<g id="a_node19"><a xlink:title=" ">
<polygon fill="#e0e0e0" stroke="#999999" points="765,-184 706,-184 706,-165 765,-165 765,-184"/>
<text text-anchor="middle" x="735.5" y="-172" font-family="Helvetica,sans-Serif" font-size="10.00">lwip/sys.h</text>
</a>
</g>
</g>
<!-- Node1&#45;&gt;Node19 -->
<g id="edge34" class="edge">
<title>Node1&#45;&gt;Node19</title>
<path fill="none" stroke="#63b8ff" d="M673.02,-219.54C685.44,-210.78 701.27,-199.63 713.89,-190.73"/>
<polygon fill="#63b8ff" stroke="#63b8ff" points="715.8,-193.67 721.95,-185.05 711.76,-187.95 715.8,-193.67"/>
</g>
<!-- Node20 -->
<g id="node20" class="node">
<title>Node20</title>
<g id="a_node20"><a xlink:title=" ">
<polygon fill="#e0e0e0" stroke="#999999" points="841.5,-184 783.5,-184 783.5,-165 841.5,-165 841.5,-184"/>
<text text-anchor="middle" x="812.5" y="-172" font-family="Helvetica,sans-Serif" font-size="10.00">lwip/tcp.h</text>
</a>
</g>
</g>
<!-- Node1&#45;&gt;Node20 -->
<g id="edge35" class="edge">
<title>Node1&#45;&gt;Node20</title>
<path fill="none" stroke="#63b8ff" d="M692.05,-219.54C718.33,-209.93 752.51,-197.43 777.75,-188.21"/>
<polygon fill="#63b8ff" stroke="#63b8ff" points="778.69,-191.59 786.88,-184.87 776.29,-185.01 778.69,-191.59"/>
</g>
<!-- Node21 -->
<g id="node21" class="node">
<title>Node21</title>
<g id="a_node21"><a xlink:title=" ">
<polygon fill="#e0e0e0" stroke="#999999" points="925,-184 860,-184 860,-165 925,-165 925,-184"/>
<text text-anchor="middle" x="892.5" y="-172" font-family="Helvetica,sans-Serif" font-size="10.00">lwip/tcpip.h</text>
</a>
</g>
</g>
<!-- Node1&#45;&gt;Node21 -->
<g id="edge36" class="edge">
<title>Node1&#45;&gt;Node21</title>
<path fill="none" stroke="#63b8ff" d="M709.38,-220.14C752.02,-209.74 809.53,-195.72 848.65,-186.19"/>
<polygon fill="#63b8ff" stroke="#63b8ff" points="849.3,-189.63 858.19,-183.86 847.64,-182.83 849.3,-189.63"/>
</g>
<!-- Node22 -->
<g id="node22" class="node">
<title>Node22</title>
<g id="a_node22"><a xlink:title=" ">
<polygon fill="#e0e0e0" stroke="#999999" points="1028,-184 943,-184 943,-165 1028,-165 1028,-184"/>
<text text-anchor="middle" x="985.5" y="-172" font-family="Helvetica,sans-Serif" font-size="10.00">lwip/prot/dhcp.h</text>
</a>
</g>
</g>
<!-- Node1&#45;&gt;Node22 -->
<g id="edge37" class="edge">
<title>Node1&#45;&gt;Node22</title>
<path fill="none" stroke="#63b8ff" d="M709.37,-224.01C771.49,-213.1 870.28,-195.74 931.32,-185.02"/>
<polygon fill="#63b8ff" stroke="#63b8ff" points="931.9,-188.47 941.14,-183.29 930.69,-181.58 931.9,-188.47"/>
</g>
<!-- Node23 -->
<g id="node23" class="node">
<title>Node23</title>
<g id="a_node23"><a xlink:title=" ">
<polygon fill="#e0e0e0" stroke="#999999" points="1109,-184 1046,-184 1046,-165 1109,-165 1109,-184"/>
<text text-anchor="middle" x="1077.5" y="-172" font-family="Helvetica,sans-Serif" font-size="10.00">lwip/netif.h</text>
</a>
</g>
</g>
<!-- Node1&#45;&gt;Node23 -->
<g id="edge38" class="edge">
<title>Node1&#45;&gt;Node23</title>
<path fill="none" stroke="#63b8ff" d="M709.47,-228.05C782.52,-220.1 913.34,-204.78 1034.36,-184.43"/>
<polygon fill="#63b8ff" stroke="#63b8ff" points="1034.9,-187.88 1044.18,-182.76 1033.73,-180.98 1034.9,-187.88"/>
</g>
<!-- Node24 -->
<g id="node24" class="node">
<title>Node24</title>
<g id="a_node24"><a xlink:title=" ">
<polygon fill="#e0e0e0" stroke="#999999" points="1192,-184 1127,-184 1127,-165 1192,-165 1192,-184"/>
<text text-anchor="middle" x="1159.5" y="-172" font-family="Helvetica,sans-Serif" font-size="10.00">lwip/dhcp.h</text>
</a>
</g>
</g>
<!-- Node1&#45;&gt;Node24 -->
<g id="edge39" class="edge">
<title>Node1&#45;&gt;Node24</title>
<path fill="none" stroke="#63b8ff" d="M709.4,-229.69C795.37,-222.8 963.67,-207.75 1115.94,-184.27"/>
<polygon fill="#63b8ff" stroke="#63b8ff" points="1116.04,-187.79 1125.38,-182.8 1114.96,-180.88 1116.04,-187.79"/>
</g>
<!-- Node25 -->
<g id="node25" class="node">
<title>Node25</title>
<g id="a_node25"><a xlink:title=" ">
<polygon fill="#e0e0e0" stroke="#999999" points="1270.5,-184 1210.5,-184 1210.5,-165 1270.5,-165 1270.5,-184"/>
<text text-anchor="middle" x="1240.5" y="-172" font-family="Helvetica,sans-Serif" font-size="10.00">lwip/inet.h</text>
</a>
</g>
</g>
<!-- Node1&#45;&gt;Node25 -->
<g id="edge40" class="edge">
<title>Node1&#45;&gt;Node25</title>
<path fill="none" stroke="#63b8ff" d="M709.29,-231.15C807.25,-225.73 1014.44,-212.04 1199.05,-184.19"/>
<polygon fill="#63b8ff" stroke="#63b8ff" points="1199.48,-187.66 1208.84,-182.69 1198.43,-180.74 1199.48,-187.66"/>
</g>
<!-- Node26 -->
<g id="node26" class="node">
<title>Node26</title>
<g id="a_node26"><a xlink:title=" ">
<polygon fill="#e0e0e0" stroke="#999999" points="1362,-184 1289,-184 1289,-165 1362,-165 1362,-184"/>
<text text-anchor="middle" x="1325.5" y="-172" font-family="Helvetica,sans-Serif" font-size="10.00">netif/etharp.h</text>
</a>
</g>
</g>
<!-- Node1&#45;&gt;Node26 -->
<g id="edge41" class="edge">
<title>Node1&#45;&gt;Node26</title>
<path fill="none" stroke="#63b8ff" d="M709.34,-231.43C817.76,-226.11 1061.76,-212.09 1277.42,-184.13"/>
<polygon fill="#63b8ff" stroke="#63b8ff" points="1277.68,-187.62 1287.14,-182.85 1276.77,-180.68 1277.68,-187.62"/>
</g>
<!-- Node27 -->
<g id="node27" class="node">
<title>Node27</title>
<g id="a_node27"><a xlink:title=" ">
<polygon fill="#e0e0e0" stroke="#999999" points="1464.5,-184 1380.5,-184 1380.5,-165 1464.5,-165 1464.5,-184"/>
<text text-anchor="middle" x="1422.5" y="-172" font-family="Helvetica,sans-Serif" font-size="10.00">ps2ip_internal.h</text>
</a>
</g>
</g>
<!-- Node1&#45;&gt;Node27 -->
<g id="edge42" class="edge">
<title>Node1&#45;&gt;Node27</title>
<path fill="none" stroke="#63b8ff" d="M709.07,-231.91C828.86,-227.08 1117.15,-213.37 1369.03,-184.17"/>
<polygon fill="#63b8ff" stroke="#63b8ff" points="1369.22,-187.68 1378.74,-183.04 1368.4,-180.73 1369.22,-187.68"/>
</g>
<!-- Node4 -->
<g id="node4" class="node">
<title>Node4</title>
<g id="a_node4"><a xlink:title=" ">
<polygon fill="#e0e0e0" stroke="#999999" points="393,-129 342,-129 342,-110 393,-110 393,-129"/>
<text text-anchor="middle" x="367.5" y="-117" font-family="Helvetica,sans-Serif" font-size="10.00">stdarg.h</text>
</a>
</g>
</g>
<!-- Node3&#45;&gt;Node4 -->
<g id="edge3" class="edge">
<title>Node3&#45;&gt;Node4</title>
<path fill="none" stroke="#63b8ff" d="M387.54,-164.75C384.46,-157.96 380.09,-148.3 376.21,-139.73"/>
<polygon fill="#63b8ff" stroke="#63b8ff" points="379.49,-138.49 372.17,-130.82 373.11,-141.37 379.49,-138.49"/>
</g>
<!-- Node5 -->
<g id="node5" class="node">
<title>Node5</title>
<g id="a_node5"><a xlink:href="irx_8h.html" target="_top" xlink:title=" ">
<polygon fill="white" stroke="#666666" points="323.5,-129 289.5,-129 289.5,-110 323.5,-110 323.5,-129"/>
<text text-anchor="middle" x="306.5" y="-117" font-family="Helvetica,sans-Serif" font-size="10.00">irx.h</text>
</a>
</g>
</g>
<!-- Node3&#45;&gt;Node5 -->
<g id="edge4" class="edge">
<title>Node3&#45;&gt;Node5</title>
<path fill="none" stroke="#63b8ff" d="M377.08,-164.51C364.3,-156.54 345.4,-144.75 330.37,-135.38"/>
<polygon fill="#63b8ff" stroke="#63b8ff" points="332.33,-132.48 321.99,-130.16 328.62,-138.42 332.33,-132.48"/>
</g>
<!-- Node6 -->
<g id="node6" class="node">
<title>Node6</title>
<g id="a_node6"><a xlink:href="iop_2kernel_2include_2types_8h_source.html" target="_top" xlink:title=" ">
<polygon fill="white" stroke="#666666" points="308,-74 261,-74 261,-55 308,-55 308,-74"/>
<text text-anchor="middle" x="284.5" y="-62" font-family="Helvetica,sans-Serif" font-size="10.00">types.h</text>
</a>
</g>
</g>
<!-- Node5&#45;&gt;Node6 -->
<g id="edge5" class="edge">
<title>Node5&#45;&gt;Node6</title>
<path fill="none" stroke="#63b8ff" d="M302.87,-109.75C300.08,-103.04 296.13,-93.52 292.6,-85.02"/>
<polygon fill="#63b8ff" stroke="#63b8ff" points="295.86,-83.73 288.79,-75.84 289.39,-86.42 295.86,-83.73"/>
</g>
<!-- Node7 -->
<g id="node7" class="node">
<title>Node7</title>
<g id="a_node7"><a xlink:title=" ">
<polygon fill="#e0e0e0" stroke="#999999" points="310,-19 259,-19 259,0 310,0 310,-19"/>
<text text-anchor="middle" x="284.5" y="-7" font-family="Helvetica,sans-Serif" font-size="10.00">stddef.h</text>
</a>
</g>
</g>
<!-- Node6&#45;&gt;Node7 -->
<g id="edge6" class="edge">
<title>Node6&#45;&gt;Node7</title>
<path fill="none" stroke="#63b8ff" d="M284.5,-54.75C284.5,-48.27 284.5,-39.16 284.5,-30.9"/>
<polygon fill="#63b8ff" stroke="#63b8ff" points="288,-30.96 284.5,-20.96 281,-30.96 288,-30.96"/>
</g>
<!-- Node8 -->
<g id="node8" class="node">
<title>Node8</title>
<g id="a_node8"><a xlink:href="tamtypes_8h.html" target="_top" xlink:title=" ">
<polygon fill="white" stroke="#666666" points="560.5,-19 496.5,-19 496.5,0 560.5,0 560.5,-19"/>
<text text-anchor="middle" x="528.5" y="-7" font-family="Helvetica,sans-Serif" font-size="10.00">tamtypes.h</text>
</a>
</g>
</g>
<!-- Node6&#45;&gt;Node8 -->
<g id="edge7" class="edge">
<title>Node6&#45;&gt;Node8</title>
<path fill="none" stroke="#63b8ff" d="M308.34,-58.32C349.25,-49.43 433.41,-31.16 485,-19.95"/>
<polygon fill="#63b8ff" stroke="#63b8ff" points="485.61,-23.4 494.64,-17.86 484.12,-16.56 485.61,-23.4"/>
</g>
<!-- Node9&#45;&gt;Node5 -->
<g id="edge10" class="edge">
<title>Node9&#45;&gt;Node5</title>
<path fill="none" stroke="#63b8ff" d="M434.38,-164.51C406.62,-154.96 362.9,-139.91 334.46,-130.12"/>
<polygon fill="#63b8ff" stroke="#63b8ff" points="335.69,-126.84 325.09,-126.9 333.41,-133.46 335.69,-126.84"/>
</g>
<!-- Node9&#45;&gt;Node6 -->
<g id="edge9" class="edge">
<title>Node9&#45;&gt;Node6</title>
<path fill="none" stroke="#63b8ff" d="M454.71,-164.91C445.26,-151.47 425.24,-125.41 402.5,-110 377,-92.72 343.88,-80.99 319.22,-73.93"/>
<polygon fill="#63b8ff" stroke="#63b8ff" points="320.24,-70.58 309.67,-71.32 318.39,-77.33 320.24,-70.58"/>
</g>
<!-- Node10&#45;&gt;Node8 -->
<g id="edge12" class="edge">
<title>Node10&#45;&gt;Node8</title>
<path fill="none" stroke="#63b8ff" d="M589.12,-54.51C578.35,-46.7 562.53,-35.21 549.75,-25.93"/>
<polygon fill="#63b8ff" stroke="#63b8ff" points="552.07,-23.29 541.93,-20.25 547.96,-28.95 552.07,-23.29"/>
</g>
<!-- Node11&#45;&gt;Node5 -->
<g id="edge15" class="edge">
<title>Node11&#45;&gt;Node5</title>
<path fill="none" stroke="#63b8ff" d="M193.57,-164.51C217.1,-155.34 253.61,-141.11 278.72,-131.33"/>
<polygon fill="#63b8ff" stroke="#63b8ff" points="279.9,-134.62 287.95,-127.73 277.36,-128.1 279.9,-134.62"/>
</g>
<!-- Node11&#45;&gt;Node6 -->
<g id="edge14" class="edge">
<title>Node11&#45;&gt;Node6</title>
<path fill="none" stroke="#63b8ff" d="M179.83,-164.66C198.87,-146.62 242.46,-105.32 266.96,-82.12"/>
<polygon fill="#63b8ff" stroke="#63b8ff" points="269.09,-84.92 273.94,-75.5 264.28,-79.84 269.09,-84.92"/>
</g>
<!-- Node12&#45;&gt;Node5 -->
<g id="edge18" class="edge">
<title>Node12&#45;&gt;Node5</title>
<path fill="none" stroke="#63b8ff" d="M255.85,-164.51C264.58,-156.93 277.29,-145.88 287.8,-136.75"/>
<polygon fill="#63b8ff" stroke="#63b8ff" points="289.91,-139.55 295.16,-130.35 285.32,-134.27 289.91,-139.55"/>
</g>
<!-- Node12&#45;&gt;Node6 -->
<g id="edge17" class="edge">
<title>Node12&#45;&gt;Node6</title>
<path fill="none" stroke="#63b8ff" d="M248.69,-164.66C254.92,-147.42 268.83,-108.9 277.36,-85.27"/>
<polygon fill="#63b8ff" stroke="#63b8ff" points="280.65,-86.48 280.75,-75.88 274.06,-84.1 280.65,-86.48"/>
</g>
<!-- Node13&#45;&gt;Node4 -->
<g id="edge22" class="edge">
<title>Node13&#45;&gt;Node4</title>
<path fill="none" stroke="#63b8ff" d="M506.09,-164.75C478.2,-155.85 434.83,-142 404.03,-132.16"/>
<polygon fill="#63b8ff" stroke="#63b8ff" points="405.34,-128.91 394.75,-129.2 403.22,-135.58 405.34,-128.91"/>
</g>
<!-- Node13&#45;&gt;Node5 -->
<g id="edge21" class="edge">
<title>Node13&#45;&gt;Node5</title>
<path fill="none" stroke="#63b8ff" d="M506.38,-167.05C503.39,-166.35 500.38,-165.66 497.5,-165 428.15,-149.2 407.52,-148.28 334.96,-129.17"/>
<polygon fill="#63b8ff" stroke="#63b8ff" points="335.89,-125.8 325.33,-126.61 334.09,-132.56 335.89,-125.8"/>
</g>
<!-- Node13&#45;&gt;Node6 -->
<g id="edge20" class="edge">
<title>Node13&#45;&gt;Node6</title>
<path fill="none" stroke="#63b8ff" d="M520.85,-164.67C501.34,-151.36 462.4,-126.02 426.5,-110 391.2,-94.25 348.65,-81.71 319.39,-74.01"/>
<polygon fill="#63b8ff" stroke="#63b8ff" points="320.51,-70.68 309.95,-71.57 318.76,-77.46 320.51,-70.68"/>
</g>
<!-- Node14 -->
<g id="node14" class="node">
<title>Node14</title>
<g id="a_node14"><a xlink:href="setjmp_8h.html" target="_top" xlink:title=" ">
<polygon fill="white" stroke="#666666" points="555,-74 502,-74 502,-55 555,-55 555,-74"/>
<text text-anchor="middle" x="528.5" y="-62" font-family="Helvetica,sans-Serif" font-size="10.00">setjmp.h</text>
</a>
</g>
</g>
<!-- Node13&#45;&gt;Node14 -->
<g id="edge23" class="edge">
<title>Node13&#45;&gt;Node14</title>
<path fill="none" stroke="#63b8ff" d="M536.89,-164.87C541.27,-152.66 547.92,-129.62 544.5,-110 543.02,-101.51 540.07,-92.51 537.09,-84.84"/>
<polygon fill="#63b8ff" stroke="#63b8ff" points="540.43,-83.73 533.34,-75.85 533.97,-86.43 540.43,-83.73"/>
</g>
<!-- Node15 -->
<g id="node15" class="node">
<title>Node15</title>
<g id="a_node15"><a xlink:href="ctype_8h.html" target="_top" xlink:title=" ">
<polygon fill="white" stroke="#666666" points="535,-129 488,-129 488,-110 535,-110 535,-129"/>
<text text-anchor="middle" x="511.5" y="-117" font-family="Helvetica,sans-Serif" font-size="10.00">ctype.h</text>
</a>
</g>
</g>
<!-- Node13&#45;&gt;Node15 -->
<g id="edge25" class="edge">
<title>Node13&#45;&gt;Node15</title>
<path fill="none" stroke="#63b8ff" d="M529.87,-164.75C527.08,-158.04 523.13,-148.52 519.6,-140.02"/>
<polygon fill="#63b8ff" stroke="#63b8ff" points="522.86,-138.73 515.79,-130.84 516.39,-141.42 522.86,-138.73"/>
</g>
<!-- Node14&#45;&gt;Node8 -->
<g id="edge24" class="edge">
<title>Node14&#45;&gt;Node8</title>
<path fill="none" stroke="#63b8ff" d="M528.5,-54.75C528.5,-48.27 528.5,-39.16 528.5,-30.9"/>
<polygon fill="#63b8ff" stroke="#63b8ff" points="532,-30.96 528.5,-20.96 525,-30.96 532,-30.96"/>
</g>
<!-- Node16&#45;&gt;Node5 -->
<g id="edge28" class="edge">
<title>Node16&#45;&gt;Node5</title>
<path fill="none" stroke="#63b8ff" d="M121.78,-166.46C162.57,-156.31 237.47,-137.68 278.24,-127.53"/>
<polygon fill="#63b8ff" stroke="#63b8ff" points="278.92,-130.97 287.78,-125.16 277.23,-124.18 278.92,-130.97"/>
</g>
<!-- Node16&#45;&gt;Node6 -->
<g id="edge27" class="edge">
<title>Node16&#45;&gt;Node6</title>
<path fill="none" stroke="#63b8ff" d="M109.13,-164.66C142.01,-146.07 218.59,-102.77 258.8,-80.03"/>
<polygon fill="#63b8ff" stroke="#63b8ff" points="260.35,-83.17 267.34,-75.21 256.91,-77.08 260.35,-83.17"/>
</g>
<!-- Node17&#45;&gt;Node4 -->
<g id="edge32" class="edge">
<title>Node17&#45;&gt;Node4</title>
<path fill="none" stroke="#63b8ff" d="M328.26,-164.75C334.69,-157.5 344.01,-146.98 351.96,-138.02"/>
<polygon fill="#63b8ff" stroke="#63b8ff" points="354.55,-140.38 358.57,-130.57 349.31,-135.73 354.55,-140.38"/>
</g>
<!-- Node17&#45;&gt;Node5 -->
<g id="edge31" class="edge">
<title>Node17&#45;&gt;Node5</title>
<path fill="none" stroke="#63b8ff" d="M318.19,-164.75C316.44,-158.11 313.96,-148.73 311.73,-140.31"/>
<polygon fill="#63b8ff" stroke="#63b8ff" points="315.19,-139.68 309.25,-130.91 308.42,-141.47 315.19,-139.68"/>
</g>
<!-- Node17&#45;&gt;Node6 -->
<g id="edge30" class="edge">
<title>Node17&#45;&gt;Node6</title>
<path fill="none" stroke="#63b8ff" d="M308.86,-164.73C299.19,-156.67 286.15,-143.74 280.5,-129 275.17,-115.09 276.56,-98.21 279.08,-85.35"/>
<polygon fill="#63b8ff" stroke="#63b8ff" points="282.41,-86.49 281.3,-75.95 275.59,-84.88 282.41,-86.49"/>
</g>
</g>
</svg>
        <g id="navigator" transform="translate(0 0)" fill="#404254">
                <rect fill="#f2f5e9" fill-opacity="0.5" stroke="#606060" stroke-width=".5" x="0" y="0" width="60" height="60"/>
                <use id="zoomplus" xlink:href="#zoomPlus" x="17" y="9" onmousedown="handleZoom(evt,'in')"/>
                <use id="zoomminus" xlink:href="#zoomMin" x="42" y="9" onmousedown="handleZoom(evt,'out')"/>
                <use id="reset" xlink:href="#resetDef" x="30" y="36" onmousedown="handleReset()"/>
                <g id="arrowUp" xlink:href="#dirArrow" transform="translate(30 24)" onmousedown="handlePan(0,-1)">
                  <use xlink:href="#rim" fill="#404040">
                        <set attributeName="fill" to="#808080" begin="arrowUp.mouseover" end="arrowUp.mouseout"/>
                  </use>
                  <path fill="none" stroke="white" stroke-width="1.5" d="M0,-3.0v7 M-2.5,-0.5L0,-3.0L2.5,-0.5"/>
                </g>
                <g id="arrowRight" xlink:href="#dirArrow" transform="rotate(90) translate(36 -43)" onmousedown="handlePan(1,0)">
                  <use xlink:href="#rim" fill="#404040">
                        <set attributeName="fill" to="#808080" begin="arrowRight.mouseover" end="arrowRight.mouseout"/>
                  </use>
                  <path fill="none" stroke="white" stroke-width="1.5" d="M0,-3.0v7 M-2.5,-0.5L0,-3.0L2.5,-0.5"/>
                </g>
                <g id="arrowDown" xlink:href="#dirArrow" transform="rotate(180) translate(-30 -48)" onmousedown="handlePan(0,1)">
                  <use xlink:href="#rim" fill="#404040">
                        <set attributeName="fill" to="#808080" begin="arrowDown.mouseover" end="arrowDown.mouseout"/>
                  </use>
                  <path fill="none" stroke="white" stroke-width="1.5" d="M0,-3.0v7 M-2.5,-0.5L0,-3.0L2.5,-0.5"/>
                </g>
                <g id="arrowLeft" xlink:href="#dirArrow" transform="rotate(270) translate(-36 17)" onmousedown="handlePan(-1,0)">
                  <use xlink:href="#rim" fill="#404040">
                        <set attributeName="fill" to="#808080" begin="arrowLeft.mouseover" end="arrowLeft.mouseout"/>
                  </use>
                  <path fill="none" stroke="white" stroke-width="1.5" d="M0,-3.0v7 M-2.5,-0.5L0,-3.0L2.5,-0.5"/>
                </g>
        </g>
        <svg viewBox="0 0 15 15" width="100%" height="30px" preserveAspectRatio="xMaxYMin meet">
         <g id="arrow_out" transform="scale(0.3 0.3)">
          <a xlink:href="iop_2tcpip_2tcpip-netman_2src_2ps2ip_8c__incl_org.svg" target="_base">
           <rect id="button" ry="5" rx="5" y="6" x="6" height="38" width="38"
                fill="#f2f5e9" fill-opacity="0.5" stroke="#606060" stroke-width="1.0"/>
           <path id="arrow"
             d="M 11.500037,31.436501 C 11.940474,20.09759 22.043105,11.32322 32.158766,21.979434 L 37.068811,17.246167 C 37.068811,17.246167 37.088388,32 37.088388,32 L 22.160133,31.978069 C 22.160133,31.978069 26.997745,27.140456 26.997745,27.140456 C 18.528582,18.264221 13.291696,25.230495 11.500037,31.436501 z"
             style="fill:#404040;"/>
          </a>
         </g>
        </svg>
</svg>
