<?xml version="1.0" encoding="UTF-8" standalone="no"?>
<!DOCTYPE svg PUBLIC "-//W3C//DTD SVG 1.1//EN"
 "http://www.w3.org/Graphics/SVG/1.1/DTD/svg11.dtd">
<!-- Generated by graphviz version 7.0.5 (20221223.1930)
 -->
<!-- Title: iop/sound/audsrv/src/common.c Pages: 1 -->
<!--zoomable 258 -->
<svg id="main" version="1.1" xmlns="http://www.w3.org/2000/svg" xmlns:xlink="http://www.w3.org/1999/xlink" xml:space="preserve" onload="init(evt)">
<style type="text/css"><![CDATA[
.edge:hover path { stroke: red; }
.edge:hover polygon { stroke: red; fill: red; }
]]></style>
<script type="text/javascript"><![CDATA[
var edges = document.getElementsByTagName('g');
if (edges && edges.length) {
  for (var i=0;i<edges.length;i++) {
    if (edges[i].id.substr(0,4)=='edge') {
      edges[i].setAttribute('class','edge');
    }
  }
}
]]></script>
        <defs>
                <circle id="rim" cx="0" cy="0" r="7"/>
                <circle id="rim2" cx="0" cy="0" r="3.5"/>
                <g id="zoomPlus">
                        <use xlink:href="#rim" fill="#404040">
                                <set attributeName="fill" to="#808080" begin="zoomplus.mouseover" end="zoomplus.mouseout"/>
                        </use>
                        <path d="M-4,0h8M0,-4v8" fill="none" stroke="white" stroke-width="1.5" pointer-events="none"/>
                </g>
                <g id="zoomMin">
                        <use xlink:href="#rim" fill="#404040">
                                <set attributeName="fill" to="#808080" begin="zoomminus.mouseover" end="zoomminus.mouseout"/>
                        </use>
                        <path d="M-4,0h8" fill="none" stroke="white" stroke-width="1.5" pointer-events="none"/>
                </g>
                <g id="dirArrow">
                        <path fill="none" stroke="white" stroke-width="1.5" d="M0,-3.0v7 M-2.5,-0.5L0,-3.0L2.5,-0.5"/>
                </g>
               <g id="resetDef">
                       <use xlink:href="#rim2" fill="#404040">
                               <set attributeName="fill" to="#808080" begin="reset.mouseover" end="reset.mouseout"/>
                       </use>
               </g>
        </defs>

<script type="text/javascript">
var viewWidth = 591;
var viewHeight = 258;
var sectionId = 'dynsection-0';
</script>
<script xlink:href="svgpan.js"/>
<svg id="graph" class="graph">
<g id="viewport">
<title>iop/sound/audsrv/src/common.c</title>
<!-- Node1 -->
<g id="node1" class="node">
<title>Node1</title>
<g id="a_node1"><a xlink:title=" ">
<polygon fill="#999999" stroke="#666666" points="350,-250 243,-250 243,-220 350,-220 350,-250"/>
<text text-anchor="start" x="251" y="-238" font-family="Helvetica,sans-Serif" font-size="10.00">iop/sound/audsrv/src</text>
<text text-anchor="middle" x="296.5" y="-227" font-family="Helvetica,sans-Serif" font-size="10.00">/common.c</text>
</a>
</g>
</g>
<!-- Node2 -->
<g id="node2" class="node">
<title>Node2</title>
<g id="a_node2"><a xlink:href="stdio_8h.html" target="_top" xlink:title=" ">
<polygon fill="white" stroke="#666666" points="430,-184 385,-184 385,-165 430,-165 430,-184"/>
<text text-anchor="middle" x="407.5" y="-172" font-family="Helvetica,sans-Serif" font-size="10.00">stdio.h</text>
</a>
</g>
</g>
<!-- Node1&#45;&gt;Node2 -->
<g id="edge1" class="edge">
<title>Node1&#45;&gt;Node2</title>
<path fill="none" stroke="#63b8ff" d="M323.94,-219.54C341.27,-210.4 363.56,-198.66 380.75,-189.6"/>
<polygon fill="#63b8ff" stroke="#63b8ff" points="382.16,-192.81 389.38,-185.05 378.9,-186.62 382.16,-192.81"/>
</g>
<!-- Node8 -->
<g id="node8" class="node">
<title>Node8</title>
<g id="a_node8"><a xlink:href="thbase_8h.html" target="_top" xlink:title=" ">
<polygon fill="white" stroke="#666666" points="207,-184 154,-184 154,-165 207,-165 207,-184"/>
<text text-anchor="middle" x="180.5" y="-172" font-family="Helvetica,sans-Serif" font-size="10.00">thbase.h</text>
</a>
</g>
</g>
<!-- Node1&#45;&gt;Node8 -->
<g id="edge7" class="edge">
<title>Node1&#45;&gt;Node8</title>
<path fill="none" stroke="#63b8ff" d="M267.83,-219.54C249.63,-210.36 226.2,-198.55 208.2,-189.47"/>
<polygon fill="#63b8ff" stroke="#63b8ff" points="209.9,-186.41 199.39,-185.03 206.75,-192.66 209.9,-186.41"/>
</g>
<!-- Node9 -->
<g id="node9" class="node">
<title>Node9</title>
<g id="a_node9"><a xlink:href="thsemap_8h.html" target="_top" xlink:title=" ">
<polygon fill="white" stroke="#666666" points="287.5,-184 225.5,-184 225.5,-165 287.5,-165 287.5,-184"/>
<text text-anchor="middle" x="256.5" y="-172" font-family="Helvetica,sans-Serif" font-size="10.00">thsemap.h</text>
</a>
</g>
</g>
<!-- Node1&#45;&gt;Node9 -->
<g id="edge10" class="edge">
<title>Node1&#45;&gt;Node9</title>
<path fill="none" stroke="#63b8ff" d="M286.61,-219.54C281.22,-211.65 274.49,-201.81 268.76,-193.44"/>
<polygon fill="#63b8ff" stroke="#63b8ff" points="271.82,-191.7 263.29,-185.42 266.04,-195.65 271.82,-191.7"/>
</g>
<!-- Node10 -->
<g id="node10" class="node">
<title>Node10</title>
<g id="a_node10"><a xlink:href="loadcore_8h.html" target="_top" xlink:title=" ">
<polygon fill="white" stroke="#666666" points="61,-184 0,-184 0,-165 61,-165 61,-184"/>
<text text-anchor="middle" x="30.5" y="-172" font-family="Helvetica,sans-Serif" font-size="10.00">loadcore.h</text>
</a>
</g>
</g>
<!-- Node1&#45;&gt;Node10 -->
<g id="edge13" class="edge">
<title>Node1&#45;&gt;Node10</title>
<path fill="none" stroke="#63b8ff" d="M242.67,-222.16C192.43,-211.11 118.49,-194.85 72.48,-184.73"/>
<polygon fill="#63b8ff" stroke="#63b8ff" points="73.41,-181.35 62.89,-182.62 71.91,-188.19 73.41,-181.35"/>
</g>
<!-- Node11 -->
<g id="node11" class="node">
<title>Node11</title>
<g id="a_node11"><a xlink:href="sysmem_8h.html" target="_top" xlink:title=" ">
<polygon fill="white" stroke="#666666" points="367,-184 306,-184 306,-165 367,-165 367,-184"/>
<text text-anchor="middle" x="336.5" y="-172" font-family="Helvetica,sans-Serif" font-size="10.00">sysmem.h</text>
</a>
</g>
</g>
<!-- Node1&#45;&gt;Node11 -->
<g id="edge16" class="edge">
<title>Node1&#45;&gt;Node11</title>
<path fill="none" stroke="#63b8ff" d="M306.39,-219.54C311.78,-211.65 318.51,-201.81 324.24,-193.44"/>
<polygon fill="#63b8ff" stroke="#63b8ff" points="326.96,-195.65 329.71,-185.42 321.18,-191.7 326.96,-195.65"/>
</g>
<!-- Node12 -->
<g id="node12" class="node">
<title>Node12</title>
<g id="a_node12"><a xlink:href="intrman_8h.html" target="_top" xlink:title=" ">
<polygon fill="white" stroke="#666666" points="135.5,-184 79.5,-184 79.5,-165 135.5,-165 135.5,-184"/>
<text text-anchor="middle" x="107.5" y="-172" font-family="Helvetica,sans-Serif" font-size="10.00">intrman.h</text>
</a>
</g>
</g>
<!-- Node1&#45;&gt;Node12 -->
<g id="edge20" class="edge">
<title>Node1&#45;&gt;Node12</title>
<path fill="none" stroke="#63b8ff" d="M249.78,-219.54C218.08,-209.73 176.66,-196.91 146.68,-187.63"/>
<polygon fill="#63b8ff" stroke="#63b8ff" points="147.84,-184.32 137.25,-184.71 145.77,-191.01 147.84,-184.32"/>
</g>
<!-- Node13 -->
<g id="node13" class="node">
<title>Node13</title>
<g id="a_node13"><a xlink:href="sysclib_8h.html" target="_top" xlink:title=" ">
<polygon fill="white" stroke="#666666" points="502.5,-184 448.5,-184 448.5,-165 502.5,-165 502.5,-184"/>
<text text-anchor="middle" x="475.5" y="-172" font-family="Helvetica,sans-Serif" font-size="10.00">sysclib.h</text>
</a>
</g>
</g>
<!-- Node1&#45;&gt;Node13 -->
<g id="edge23" class="edge">
<title>Node1&#45;&gt;Node13</title>
<path fill="none" stroke="#63b8ff" d="M340.75,-219.54C370.45,-209.83 409.18,-197.17 437.49,-187.92"/>
<polygon fill="#63b8ff" stroke="#63b8ff" points="438.31,-191.34 446.73,-184.9 436.14,-184.68 438.31,-191.34"/>
</g>
<!-- Node16 -->
<g id="node16" class="node">
<title>Node16</title>
<g id="a_node16"><a xlink:href="iop_2sound_2audsrv_2src_2common_8h.html" target="_top" xlink:title=" ">
<polygon fill="white" stroke="#666666" points="582.5,-184 520.5,-184 520.5,-165 582.5,-165 582.5,-184"/>
<text text-anchor="middle" x="551.5" y="-172" font-family="Helvetica,sans-Serif" font-size="10.00">common.h</text>
</a>
</g>
</g>
<!-- Node1&#45;&gt;Node16 -->
<g id="edge30" class="edge">
<title>Node1&#45;&gt;Node16</title>
<path fill="none" stroke="#63b8ff" d="M350.27,-221.67C397.62,-210.8 465.64,-195.2 509.2,-185.2"/>
<polygon fill="#63b8ff" stroke="#63b8ff" points="509.82,-188.65 518.78,-183.01 508.25,-181.83 509.82,-188.65"/>
</g>
<!-- Node3 -->
<g id="node3" class="node">
<title>Node3</title>
<g id="a_node3"><a xlink:title=" ">
<polygon fill="#e0e0e0" stroke="#999999" points="385,-129 334,-129 334,-110 385,-110 385,-129"/>
<text text-anchor="middle" x="359.5" y="-117" font-family="Helvetica,sans-Serif" font-size="10.00">stdarg.h</text>
</a>
</g>
</g>
<!-- Node2&#45;&gt;Node3 -->
<g id="edge2" class="edge">
<title>Node2&#45;&gt;Node3</title>
<path fill="none" stroke="#63b8ff" d="M399.57,-164.75C392.94,-157.43 383.28,-146.76 375.11,-137.74"/>
<polygon fill="#63b8ff" stroke="#63b8ff" points="377.92,-135.63 368.61,-130.56 372.73,-140.33 377.92,-135.63"/>
</g>
<!-- Node4 -->
<g id="node4" class="node">
<title>Node4</title>
<g id="a_node4"><a xlink:href="irx_8h.html" target="_top" xlink:title=" ">
<polygon fill="white" stroke="#666666" points="239.5,-129 205.5,-129 205.5,-110 239.5,-110 239.5,-129"/>
<text text-anchor="middle" x="222.5" y="-117" font-family="Helvetica,sans-Serif" font-size="10.00">irx.h</text>
</a>
</g>
</g>
<!-- Node2&#45;&gt;Node4 -->
<g id="edge3" class="edge">
<title>Node2&#45;&gt;Node4</title>
<path fill="none" stroke="#63b8ff" d="M384.82,-167C351.04,-157.32 287.56,-139.14 250.79,-128.6"/>
<polygon fill="#63b8ff" stroke="#63b8ff" points="251.89,-125.28 241.32,-125.89 249.97,-132.01 251.89,-125.28"/>
</g>
<!-- Node5 -->
<g id="node5" class="node">
<title>Node5</title>
<g id="a_node5"><a xlink:href="iop_2kernel_2include_2types_8h_source.html" target="_top" xlink:title=" ">
<polygon fill="white" stroke="#666666" points="268,-74 221,-74 221,-55 268,-55 268,-74"/>
<text text-anchor="middle" x="244.5" y="-62" font-family="Helvetica,sans-Serif" font-size="10.00">types.h</text>
</a>
</g>
</g>
<!-- Node4&#45;&gt;Node5 -->
<g id="edge4" class="edge">
<title>Node4&#45;&gt;Node5</title>
<path fill="none" stroke="#63b8ff" d="M226.13,-109.75C228.92,-103.04 232.87,-93.52 236.4,-85.02"/>
<polygon fill="#63b8ff" stroke="#63b8ff" points="239.61,-86.42 240.21,-75.84 233.14,-83.73 239.61,-86.42"/>
</g>
<!-- Node6 -->
<g id="node6" class="node">
<title>Node6</title>
<g id="a_node6"><a xlink:title=" ">
<polygon fill="#e0e0e0" stroke="#999999" points="270,-19 219,-19 219,0 270,0 270,-19"/>
<text text-anchor="middle" x="244.5" y="-7" font-family="Helvetica,sans-Serif" font-size="10.00">stddef.h</text>
</a>
</g>
</g>
<!-- Node5&#45;&gt;Node6 -->
<g id="edge5" class="edge">
<title>Node5&#45;&gt;Node6</title>
<path fill="none" stroke="#63b8ff" d="M244.5,-54.75C244.5,-48.27 244.5,-39.16 244.5,-30.9"/>
<polygon fill="#63b8ff" stroke="#63b8ff" points="248,-30.96 244.5,-20.96 241,-30.96 248,-30.96"/>
</g>
<!-- Node7 -->
<g id="node7" class="node">
<title>Node7</title>
<g id="a_node7"><a xlink:href="tamtypes_8h.html" target="_top" xlink:title=" ">
<polygon fill="white" stroke="#666666" points="450.5,-19 386.5,-19 386.5,0 450.5,0 450.5,-19"/>
<text text-anchor="middle" x="418.5" y="-7" font-family="Helvetica,sans-Serif" font-size="10.00">tamtypes.h</text>
</a>
</g>
</g>
<!-- Node5&#45;&gt;Node7 -->
<g id="edge6" class="edge">
<title>Node5&#45;&gt;Node7</title>
<path fill="none" stroke="#63b8ff" d="M268.33,-56.24C296.59,-47.63 344.16,-33.14 378.18,-22.78"/>
<polygon fill="#63b8ff" stroke="#63b8ff" points="379.16,-26.14 387.71,-19.88 377.12,-19.44 379.16,-26.14"/>
</g>
<!-- Node8&#45;&gt;Node4 -->
<g id="edge9" class="edge">
<title>Node8&#45;&gt;Node4</title>
<path fill="none" stroke="#63b8ff" d="M187.44,-164.75C193.12,-157.58 201.34,-147.2 208.39,-138.3"/>
<polygon fill="#63b8ff" stroke="#63b8ff" points="211.01,-140.64 214.47,-130.63 205.52,-136.29 211.01,-140.64"/>
</g>
<!-- Node8&#45;&gt;Node5 -->
<g id="edge8" class="edge">
<title>Node8&#45;&gt;Node5</title>
<path fill="none" stroke="#63b8ff" d="M181.13,-164.69C182.39,-151.85 186.07,-127.6 196.5,-110 203.1,-98.86 213.35,-88.81 222.67,-81.1"/>
<polygon fill="#63b8ff" stroke="#63b8ff" points="224.59,-84.04 230.34,-75.14 220.29,-78.52 224.59,-84.04"/>
</g>
<!-- Node9&#45;&gt;Node4 -->
<g id="edge12" class="edge">
<title>Node9&#45;&gt;Node4</title>
<path fill="none" stroke="#63b8ff" d="M250.89,-164.75C246.38,-157.73 239.91,-147.64 234.29,-138.87"/>
<polygon fill="#63b8ff" stroke="#63b8ff" points="237.4,-137.24 229.05,-130.72 231.51,-141.02 237.4,-137.24"/>
</g>
<!-- Node9&#45;&gt;Node5 -->
<g id="edge11" class="edge">
<title>Node9&#45;&gt;Node5</title>
<path fill="none" stroke="#63b8ff" d="M255.52,-164.66C253.61,-147.5 249.36,-109.26 246.73,-85.6"/>
<polygon fill="#63b8ff" stroke="#63b8ff" points="250.25,-85.52 245.66,-75.96 243.29,-86.29 250.25,-85.52"/>
</g>
<!-- Node10&#45;&gt;Node4 -->
<g id="edge15" class="edge">
<title>Node10&#45;&gt;Node4</title>
<path fill="none" stroke="#63b8ff" d="M61.35,-164.98C98.01,-154.86 158.69,-138.11 194.2,-128.31"/>
<polygon fill="#63b8ff" stroke="#63b8ff" points="195.04,-131.71 203.75,-125.68 193.18,-124.96 195.04,-131.71"/>
</g>
<!-- Node10&#45;&gt;Node5 -->
<g id="edge14" class="edge">
<title>Node10&#45;&gt;Node5</title>
<path fill="none" stroke="#63b8ff" d="M48.01,-164.66C85.08,-145.95 171.75,-102.21 216.57,-79.6"/>
<polygon fill="#63b8ff" stroke="#63b8ff" points="218.04,-82.77 225.39,-75.14 214.89,-76.52 218.04,-82.77"/>
</g>
<!-- Node11&#45;&gt;Node3 -->
<g id="edge19" class="edge">
<title>Node11&#45;&gt;Node3</title>
<path fill="none" stroke="#63b8ff" d="M340.3,-164.75C343.24,-157.96 347.44,-148.3 351.15,-139.73"/>
<polygon fill="#63b8ff" stroke="#63b8ff" points="354.25,-141.4 355.02,-130.83 347.83,-138.61 354.25,-141.4"/>
</g>
<!-- Node11&#45;&gt;Node4 -->
<g id="edge18" class="edge">
<title>Node11&#45;&gt;Node4</title>
<path fill="none" stroke="#63b8ff" d="M317.16,-164.51C298.75,-155.95 270.84,-142.97 250.09,-133.33"/>
<polygon fill="#63b8ff" stroke="#63b8ff" points="251.61,-130.17 241.06,-129.13 248.66,-136.52 251.61,-130.17"/>
</g>
<!-- Node11&#45;&gt;Node5 -->
<g id="edge17" class="edge">
<title>Node11&#45;&gt;Node5</title>
<path fill="none" stroke="#63b8ff" d="M328.97,-164.66C313.81,-146.86 279.35,-106.41 259.44,-83.04"/>
<polygon fill="#63b8ff" stroke="#63b8ff" points="262.26,-80.96 253.11,-75.61 256.93,-85.49 262.26,-80.96"/>
</g>
<!-- Node12&#45;&gt;Node4 -->
<g id="edge22" class="edge">
<title>Node12&#45;&gt;Node4</title>
<path fill="none" stroke="#63b8ff" d="M127.01,-164.51C145.67,-155.91 174,-142.85 194.96,-133.19"/>
<polygon fill="#63b8ff" stroke="#63b8ff" points="196.17,-136.49 203.78,-129.13 193.24,-130.13 196.17,-136.49"/>
</g>
<!-- Node12&#45;&gt;Node5 -->
<g id="edge21" class="edge">
<title>Node12&#45;&gt;Node5</title>
<path fill="none" stroke="#63b8ff" d="M117.82,-164.7C132.47,-152.28 160.21,-129 184.5,-110 197.14,-100.11 211.58,-89.38 223.13,-80.94"/>
<polygon fill="#63b8ff" stroke="#63b8ff" points="225.16,-83.79 231.19,-75.08 221.04,-78.13 225.16,-83.79"/>
</g>
<!-- Node13&#45;&gt;Node3 -->
<g id="edge26" class="edge">
<title>Node13&#45;&gt;Node3</title>
<path fill="none" stroke="#63b8ff" d="M455.82,-164.51C437.55,-156.16 410.09,-143.61 389.15,-134.05"/>
<polygon fill="#63b8ff" stroke="#63b8ff" points="390.81,-130.96 380.26,-129.99 387.9,-137.33 390.81,-130.96"/>
</g>
<!-- Node13&#45;&gt;Node4 -->
<g id="edge25" class="edge">
<title>Node13&#45;&gt;Node4</title>
<path fill="none" stroke="#63b8ff" d="M448,-166.92C445.13,-166.26 442.26,-165.61 439.5,-165 372.16,-150.15 292.7,-134.27 251.13,-126.09"/>
<polygon fill="#63b8ff" stroke="#63b8ff" points="251.95,-122.68 241.46,-124.19 250.6,-129.55 251.95,-122.68"/>
</g>
<!-- Node13&#45;&gt;Node5 -->
<g id="edge24" class="edge">
<title>Node13&#45;&gt;Node5</title>
<path fill="none" stroke="#63b8ff" d="M476,-164.69C476.26,-150.94 474.6,-124.47 459.5,-110 434.17,-85.73 334.1,-73.35 279.88,-68.32"/>
<polygon fill="#63b8ff" stroke="#63b8ff" points="280.19,-64.83 269.92,-67.43 279.57,-71.8 280.19,-64.83"/>
</g>
<!-- Node14 -->
<g id="node14" class="node">
<title>Node14</title>
<g id="a_node14"><a xlink:href="setjmp_8h.html" target="_top" xlink:title=" ">
<polygon fill="white" stroke="#666666" points="494,-74 441,-74 441,-55 494,-55 494,-74"/>
<text text-anchor="middle" x="467.5" y="-62" font-family="Helvetica,sans-Serif" font-size="10.00">setjmp.h</text>
</a>
</g>
</g>
<!-- Node13&#45;&gt;Node14 -->
<g id="edge27" class="edge">
<title>Node13&#45;&gt;Node14</title>
<path fill="none" stroke="#63b8ff" d="M480.71,-164.88C487.41,-152.68 497.64,-129.65 492.5,-110 490.09,-100.81 485.32,-91.5 480.58,-83.8"/>
<polygon fill="#63b8ff" stroke="#63b8ff" points="483.65,-82.1 475.2,-75.7 477.82,-85.97 483.65,-82.1"/>
</g>
<!-- Node15 -->
<g id="node15" class="node">
<title>Node15</title>
<g id="a_node15"><a xlink:href="ctype_8h.html" target="_top" xlink:title=" ">
<polygon fill="white" stroke="#666666" points="450,-129 403,-129 403,-110 450,-110 450,-129"/>
<text text-anchor="middle" x="426.5" y="-117" font-family="Helvetica,sans-Serif" font-size="10.00">ctype.h</text>
</a>
</g>
</g>
<!-- Node13&#45;&gt;Node15 -->
<g id="edge29" class="edge">
<title>Node13&#45;&gt;Node15</title>
<path fill="none" stroke="#63b8ff" d="M467.41,-164.75C460.64,-157.43 450.78,-146.76 442.44,-137.74"/>
<polygon fill="#63b8ff" stroke="#63b8ff" points="445.15,-135.52 435.79,-130.55 440.01,-140.27 445.15,-135.52"/>
</g>
<!-- Node14&#45;&gt;Node7 -->
<g id="edge28" class="edge">
<title>Node14&#45;&gt;Node7</title>
<path fill="none" stroke="#63b8ff" d="M459.41,-54.75C452.64,-47.43 442.78,-36.76 434.44,-27.74"/>
<polygon fill="#63b8ff" stroke="#63b8ff" points="437.15,-25.52 427.79,-20.55 432.01,-30.27 437.15,-25.52"/>
</g>
</g>
</svg>
        <g id="navigator" transform="translate(0 0)" fill="#404254">
                <rect fill="#f2f5e9" fill-opacity="0.5" stroke="#606060" stroke-width=".5" x="0" y="0" width="60" height="60"/>
                <use id="zoomplus" xlink:href="#zoomPlus" x="17" y="9" onmousedown="handleZoom(evt,'in')"/>
                <use id="zoomminus" xlink:href="#zoomMin" x="42" y="9" onmousedown="handleZoom(evt,'out')"/>
                <use id="reset" xlink:href="#resetDef" x="30" y="36" onmousedown="handleReset()"/>
                <g id="arrowUp" xlink:href="#dirArrow" transform="translate(30 24)" onmousedown="handlePan(0,-1)">
                  <use xlink:href="#rim" fill="#404040">
                        <set attributeName="fill" to="#808080" begin="arrowUp.mouseover" end="arrowUp.mouseout"/>
                  </use>
                  <path fill="none" stroke="white" stroke-width="1.5" d="M0,-3.0v7 M-2.5,-0.5L0,-3.0L2.5,-0.5"/>
                </g>
                <g id="arrowRight" xlink:href="#dirArrow" transform="rotate(90) translate(36 -43)" onmousedown="handlePan(1,0)">
                  <use xlink:href="#rim" fill="#404040">
                        <set attributeName="fill" to="#808080" begin="arrowRight.mouseover" end="arrowRight.mouseout"/>
                  </use>
                  <path fill="none" stroke="white" stroke-width="1.5" d="M0,-3.0v7 M-2.5,-0.5L0,-3.0L2.5,-0.5"/>
                </g>
                <g id="arrowDown" xlink:href="#dirArrow" transform="rotate(180) translate(-30 -48)" onmousedown="handlePan(0,1)">
                  <use xlink:href="#rim" fill="#404040">
                        <set attributeName="fill" to="#808080" begin="arrowDown.mouseover" end="arrowDown.mouseout"/>
                  </use>
                  <path fill="none" stroke="white" stroke-width="1.5" d="M0,-3.0v7 M-2.5,-0.5L0,-3.0L2.5,-0.5"/>
                </g>
                <g id="arrowLeft" xlink:href="#dirArrow" transform="rotate(270) translate(-36 17)" onmousedown="handlePan(-1,0)">
                  <use xlink:href="#rim" fill="#404040">
                        <set attributeName="fill" to="#808080" begin="arrowLeft.mouseover" end="arrowLeft.mouseout"/>
                  </use>
                  <path fill="none" stroke="white" stroke-width="1.5" d="M0,-3.0v7 M-2.5,-0.5L0,-3.0L2.5,-0.5"/>
                </g>
        </g>
        <svg viewBox="0 0 15 15" width="100%" height="30px" preserveAspectRatio="xMaxYMin meet">
         <g id="arrow_out" transform="scale(0.3 0.3)">
          <a xlink:href="iop_2sound_2audsrv_2src_2common_8c__incl_org.svg" target="_base">
           <rect id="button" ry="5" rx="5" y="6" x="6" height="38" width="38"
                fill="#f2f5e9" fill-opacity="0.5" stroke="#606060" stroke-width="1.0"/>
           <path id="arrow"
             d="M 11.500037,31.436501 C 11.940474,20.09759 22.043105,11.32322 32.158766,21.979434 L 37.068811,17.246167 C 37.068811,17.246167 37.088388,32 37.088388,32 L 22.160133,31.978069 C 22.160133,31.978069 26.997745,27.140456 26.997745,27.140456 C 18.528582,18.264221 13.291696,25.230495 11.500037,31.436501 z"
             style="fill:#404040;"/>
          </a>
         </g>
        </svg>
</svg>
