<?xml version="1.0" encoding="UTF-8" standalone="no"?>
<!DOCTYPE svg PUBLIC "-//W3C//DTD SVG 1.1//EN"
 "http://www.w3.org/Graphics/SVG/1.1/DTD/svg11.dtd">
<!-- Generated by graphviz version 7.0.5 (20221223.1930)
 -->
<!-- Title: iop/system/iopmgr/src/main.c Pages: 1 -->
<svg width="552pt" height="313pt"
 viewBox="0.00 0.00 552.00 313.00" xmlns="http://www.w3.org/2000/svg" xmlns:xlink="http://www.w3.org/1999/xlink">
<g id="graph0" class="graph" transform="scale(1 1) rotate(0) translate(4 309)">
<title>iop/system/iopmgr/src/main.c</title>
<!-- Node1 -->
<g id="node1" class="node">
<title>Node1</title>
<g id="a_node1"><a xlink:title=" ">
<polygon fill="#999999" stroke="#666666" points="255,-305 142,-305 142,-275 255,-275 255,-305"/>
<text text-anchor="start" x="150" y="-293" font-family="Helvetica,sans-Serif" font-size="10.00">iop/system/iopmgr/src</text>
<text text-anchor="middle" x="198.5" y="-282" font-family="Helvetica,sans-Serif" font-size="10.00">/main.c</text>
</a>
</g>
</g>
<!-- Node2 -->
<g id="node2" class="node">
<title>Node2</title>
<g id="a_node2"><a xlink:title=" ">
<polygon fill="#e0e0e0" stroke="#999999" points="81,-184 34,-184 34,-165 81,-165 81,-184"/>
<text text-anchor="middle" x="57.5" y="-172" font-family="Helvetica,sans-Serif" font-size="10.00">types.h</text>
</a>
</g>
</g>
<!-- Node1&#45;&gt;Node2 -->
<g id="edge1" class="edge">
<title>Node1&#45;&gt;Node2</title>
<path fill="none" stroke="#63b8ff" d="M180.26,-274.62C167.65,-264.66 150.52,-251.07 135.5,-239 115.44,-222.87 92.62,-204.27 76.87,-191.38"/>
<polygon fill="#63b8ff" stroke="#63b8ff" points="79.19,-188.76 69.23,-185.13 74.75,-194.17 79.19,-188.76"/>
</g>
<!-- Node3 -->
<g id="node3" class="node">
<title>Node3</title>
<g id="a_node3"><a xlink:href="defs_8h.html" target="_top" xlink:title=" ">
<polygon fill="white" stroke="#666666" points="43,-239 0,-239 0,-220 43,-220 43,-239"/>
<text text-anchor="middle" x="21.5" y="-227" font-family="Helvetica,sans-Serif" font-size="10.00">defs.h</text>
</a>
</g>
</g>
<!-- Node1&#45;&gt;Node3 -->
<g id="edge2" class="edge">
<title>Node1&#45;&gt;Node3</title>
<path fill="none" stroke="#63b8ff" d="M154.75,-274.54C123.62,-264.25 82.46,-250.65 54.17,-241.3"/>
<polygon fill="#63b8ff" stroke="#63b8ff" points="55.3,-237.98 44.7,-238.17 53.1,-244.63 55.3,-237.98"/>
</g>
<!-- Node7 -->
<g id="node7" class="node">
<title>Node7</title>
<g id="a_node7"><a xlink:href="irx_8h.html" target="_top" xlink:title=" ">
<polygon fill="white" stroke="#666666" points="228.5,-129 194.5,-129 194.5,-110 228.5,-110 228.5,-129"/>
<text text-anchor="middle" x="211.5" y="-117" font-family="Helvetica,sans-Serif" font-size="10.00">irx.h</text>
</a>
</g>
</g>
<!-- Node1&#45;&gt;Node7 -->
<g id="edge6" class="edge">
<title>Node1&#45;&gt;Node7</title>
<path fill="none" stroke="#63b8ff" d="M201.65,-274.64C203.7,-264.69 206.21,-251.1 207.5,-239 211.15,-204.63 211.74,-164.37 211.7,-140.73"/>
<polygon fill="#63b8ff" stroke="#63b8ff" points="215.2,-140.94 211.65,-130.96 208.2,-140.98 215.2,-140.94"/>
</g>
<!-- Node8 -->
<g id="node8" class="node">
<title>Node8</title>
<g id="a_node8"><a xlink:href="ioman_x_8h.html" target="_top" xlink:title=" ">
<polygon fill="white" stroke="#666666" points="443,-184 386,-184 386,-165 443,-165 443,-184"/>
<text text-anchor="middle" x="414.5" y="-172" font-family="Helvetica,sans-Serif" font-size="10.00">iomanX.h</text>
</a>
</g>
</g>
<!-- Node1&#45;&gt;Node8 -->
<g id="edge8" class="edge">
<title>Node1&#45;&gt;Node8</title>
<path fill="none" stroke="#63b8ff" d="M225.86,-274.63C267.44,-252.78 346.07,-211.46 387.46,-189.71"/>
<polygon fill="#63b8ff" stroke="#63b8ff" points="389.04,-192.83 396.27,-185.08 385.79,-186.63 389.04,-192.83"/>
</g>
<!-- Node15 -->
<g id="node15" class="node">
<title>Node15</title>
<g id="a_node15"><a xlink:href="stdio_8h.html" target="_top" xlink:title=" ">
<polygon fill="white" stroke="#666666" points="368,-184 323,-184 323,-165 368,-165 368,-184"/>
<text text-anchor="middle" x="345.5" y="-172" font-family="Helvetica,sans-Serif" font-size="10.00">stdio.h</text>
</a>
</g>
</g>
<!-- Node1&#45;&gt;Node15 -->
<g id="edge16" class="edge">
<title>Node1&#45;&gt;Node15</title>
<path fill="none" stroke="#63b8ff" d="M217.12,-274.63C244.76,-253.28 296.47,-213.36 325.1,-191.25"/>
<polygon fill="#63b8ff" stroke="#63b8ff" points="327.22,-194.04 333,-185.15 322.94,-188.5 327.22,-194.04"/>
</g>
<!-- Node16 -->
<g id="node16" class="node">
<title>Node16</title>
<g id="a_node16"><a xlink:href="iopmgr_8h.html" target="_top" xlink:title=" ">
<polygon fill="white" stroke="#666666" points="198,-239 145,-239 145,-220 198,-220 198,-239"/>
<text text-anchor="middle" x="171.5" y="-227" font-family="Helvetica,sans-Serif" font-size="10.00">iopmgr.h</text>
</a>
</g>
</g>
<!-- Node1&#45;&gt;Node16 -->
<g id="edge19" class="edge">
<title>Node1&#45;&gt;Node16</title>
<path fill="none" stroke="#63b8ff" d="M191.83,-274.54C188.34,-267 184.04,-257.67 180.29,-249.55"/>
<polygon fill="#63b8ff" stroke="#63b8ff" points="183.51,-248.16 176.14,-240.55 177.15,-251.1 183.51,-248.16"/>
</g>
<!-- Node4 -->
<g id="node4" class="node">
<title>Node4</title>
<g id="a_node4"><a xlink:href="iop_2kernel_2include_2types_8h_source.html" target="_top" xlink:title=" ">
<polygon fill="white" stroke="#666666" points="235,-74 188,-74 188,-55 235,-55 235,-74"/>
<text text-anchor="middle" x="211.5" y="-62" font-family="Helvetica,sans-Serif" font-size="10.00">types.h</text>
</a>
</g>
</g>
<!-- Node3&#45;&gt;Node4 -->
<g id="edge3" class="edge">
<title>Node3&#45;&gt;Node4</title>
<path fill="none" stroke="#63b8ff" d="M19.41,-219.9C16.77,-206.91 13.75,-181.97 24.5,-165 58.73,-110.95 132.78,-84.41 176.74,-72.96"/>
<polygon fill="#63b8ff" stroke="#63b8ff" points="177.41,-76.39 186.28,-70.6 175.73,-69.6 177.41,-76.39"/>
</g>
<!-- Node5 -->
<g id="node5" class="node">
<title>Node5</title>
<g id="a_node5"><a xlink:title=" ">
<polygon fill="#e0e0e0" stroke="#999999" points="199,-19 148,-19 148,0 199,0 199,-19"/>
<text text-anchor="middle" x="173.5" y="-7" font-family="Helvetica,sans-Serif" font-size="10.00">stddef.h</text>
</a>
</g>
</g>
<!-- Node4&#45;&gt;Node5 -->
<g id="edge4" class="edge">
<title>Node4&#45;&gt;Node5</title>
<path fill="none" stroke="#63b8ff" d="M205.23,-54.75C200.14,-47.66 192.8,-37.42 186.47,-28.59"/>
<polygon fill="#63b8ff" stroke="#63b8ff" points="189.46,-26.76 180.79,-20.67 183.78,-30.84 189.46,-26.76"/>
</g>
<!-- Node6 -->
<g id="node6" class="node">
<title>Node6</title>
<g id="a_node6"><a xlink:href="tamtypes_8h.html" target="_top" xlink:title=" ">
<polygon fill="white" stroke="#666666" points="281.5,-19 217.5,-19 217.5,0 281.5,0 281.5,-19"/>
<text text-anchor="middle" x="249.5" y="-7" font-family="Helvetica,sans-Serif" font-size="10.00">tamtypes.h</text>
</a>
</g>
</g>
<!-- Node4&#45;&gt;Node6 -->
<g id="edge5" class="edge">
<title>Node4&#45;&gt;Node6</title>
<path fill="none" stroke="#63b8ff" d="M217.77,-54.75C222.86,-47.66 230.2,-37.42 236.53,-28.59"/>
<polygon fill="#63b8ff" stroke="#63b8ff" points="239.22,-30.84 242.21,-20.67 233.54,-26.76 239.22,-30.84"/>
</g>
<!-- Node7&#45;&gt;Node4 -->
<g id="edge7" class="edge">
<title>Node7&#45;&gt;Node4</title>
<path fill="none" stroke="#63b8ff" d="M211.5,-109.75C211.5,-103.27 211.5,-94.16 211.5,-85.9"/>
<polygon fill="#63b8ff" stroke="#63b8ff" points="215,-85.96 211.5,-75.96 208,-85.96 215,-85.96"/>
</g>
<!-- Node8&#45;&gt;Node4 -->
<g id="edge9" class="edge">
<title>Node8&#45;&gt;Node4</title>
<path fill="none" stroke="#63b8ff" d="M407.32,-164.86C395.66,-151.36 371.31,-125.2 345.5,-110 314.13,-91.52 274.05,-79.51 245.93,-72.67"/>
<polygon fill="#63b8ff" stroke="#63b8ff" points="247.05,-69.34 236.52,-70.48 245.46,-76.16 247.05,-69.34"/>
</g>
<!-- Node9 -->
<g id="node9" class="node">
<title>Node9</title>
<g id="a_node9"><a xlink:title=" ">
<polygon fill="#e0e0e0" stroke="#999999" points="336,-129 285,-129 285,-110 336,-110 336,-129"/>
<text text-anchor="middle" x="310.5" y="-117" font-family="Helvetica,sans-Serif" font-size="10.00">stdarg.h</text>
</a>
</g>
</g>
<!-- Node8&#45;&gt;Node9 -->
<g id="edge10" class="edge">
<title>Node8&#45;&gt;Node9</title>
<path fill="none" stroke="#63b8ff" d="M396.86,-164.51C380.77,-156.31 356.75,-144.07 338.13,-134.58"/>
<polygon fill="#63b8ff" stroke="#63b8ff" points="339.73,-131.47 329.23,-130.05 336.55,-137.7 339.73,-131.47"/>
</g>
<!-- Node10 -->
<g id="node10" class="node">
<title>Node10</title>
<g id="a_node10"><a xlink:href="io__common_8h.html" target="_top" xlink:title=" ">
<polygon fill="white" stroke="#666666" points="466.5,-129 392.5,-129 392.5,-110 466.5,-110 466.5,-129"/>
<text text-anchor="middle" x="429.5" y="-117" font-family="Helvetica,sans-Serif" font-size="10.00">io_common.h</text>
</a>
</g>
</g>
<!-- Node8&#45;&gt;Node10 -->
<g id="edge11" class="edge">
<title>Node8&#45;&gt;Node10</title>
<path fill="none" stroke="#63b8ff" d="M416.98,-164.75C418.85,-158.11 421.51,-148.73 423.89,-140.31"/>
<polygon fill="#63b8ff" stroke="#63b8ff" points="427.2,-141.47 426.56,-130.9 420.47,-139.57 427.2,-141.47"/>
</g>
<!-- Node13 -->
<g id="node13" class="node">
<title>Node13</title>
<g id="a_node13"><a xlink:href="iox__stat_8h.html" target="_top" xlink:title=" ">
<polygon fill="white" stroke="#666666" points="542.5,-129 484.5,-129 484.5,-110 542.5,-110 542.5,-129"/>
<text text-anchor="middle" x="513.5" y="-117" font-family="Helvetica,sans-Serif" font-size="10.00">iox_stat.h</text>
</a>
</g>
</g>
<!-- Node8&#45;&gt;Node13 -->
<g id="edge14" class="edge">
<title>Node8&#45;&gt;Node13</title>
<path fill="none" stroke="#63b8ff" d="M431.29,-164.51C446.6,-156.31 469.47,-144.07 487.2,-134.58"/>
<polygon fill="#63b8ff" stroke="#63b8ff" points="488.46,-137.88 495.62,-130.07 485.15,-131.71 488.46,-137.88"/>
</g>
<!-- Node11 -->
<g id="node11" class="node">
<title>Node11</title>
<g id="a_node11"><a xlink:href="fcntl_8h_source.html" target="_top" xlink:title=" ">
<polygon fill="white" stroke="#666666" points="377,-74 316,-74 316,-55 377,-55 377,-74"/>
<text text-anchor="middle" x="346.5" y="-62" font-family="Helvetica,sans-Serif" font-size="10.00">sys/fcntl.h</text>
</a>
</g>
</g>
<!-- Node10&#45;&gt;Node11 -->
<g id="edge12" class="edge">
<title>Node10&#45;&gt;Node11</title>
<path fill="none" stroke="#63b8ff" d="M415.42,-109.51C402.94,-101.54 384.48,-89.75 369.81,-80.38"/>
<polygon fill="#63b8ff" stroke="#63b8ff" points="371.96,-77.6 361.65,-75.17 368.19,-83.5 371.96,-77.6"/>
</g>
<!-- Node12 -->
<g id="node12" class="node">
<title>Node12</title>
<g id="a_node12"><a xlink:href="unistd_8h_source.html" target="_top" xlink:title=" ">
<polygon fill="white" stroke="#666666" points="463.5,-74 395.5,-74 395.5,-55 463.5,-55 463.5,-74"/>
<text text-anchor="middle" x="429.5" y="-62" font-family="Helvetica,sans-Serif" font-size="10.00">sys/unistd.h</text>
</a>
</g>
</g>
<!-- Node10&#45;&gt;Node12 -->
<g id="edge13" class="edge">
<title>Node10&#45;&gt;Node12</title>
<path fill="none" stroke="#63b8ff" d="M429.5,-109.75C429.5,-103.27 429.5,-94.16 429.5,-85.9"/>
<polygon fill="#63b8ff" stroke="#63b8ff" points="433,-85.96 429.5,-75.96 426,-85.96 433,-85.96"/>
</g>
<!-- Node14 -->
<g id="node14" class="node">
<title>Node14</title>
<g id="a_node14"><a xlink:href="time_8h.html" target="_top" xlink:title=" ">
<polygon fill="white" stroke="#666666" points="544,-74 483,-74 483,-55 544,-55 544,-74"/>
<text text-anchor="middle" x="513.5" y="-62" font-family="Helvetica,sans-Serif" font-size="10.00">sys/time.h</text>
</a>
</g>
</g>
<!-- Node13&#45;&gt;Node14 -->
<g id="edge15" class="edge">
<title>Node13&#45;&gt;Node14</title>
<path fill="none" stroke="#63b8ff" d="M513.5,-109.75C513.5,-103.27 513.5,-94.16 513.5,-85.9"/>
<polygon fill="#63b8ff" stroke="#63b8ff" points="517,-85.96 513.5,-75.96 510,-85.96 517,-85.96"/>
</g>
<!-- Node15&#45;&gt;Node7 -->
<g id="edge18" class="edge">
<title>Node15&#45;&gt;Node7</title>
<path fill="none" stroke="#63b8ff" d="M322.77,-164.51C299.72,-155.39 264.01,-141.27 239.29,-131.49"/>
<polygon fill="#63b8ff" stroke="#63b8ff" points="240.78,-128.32 230.2,-127.9 238.21,-134.83 240.78,-128.32"/>
</g>
<!-- Node15&#45;&gt;Node9 -->
<g id="edge17" class="edge">
<title>Node15&#45;&gt;Node9</title>
<path fill="none" stroke="#63b8ff" d="M339.72,-164.75C335.09,-157.73 328.43,-147.64 322.63,-138.87"/>
<polygon fill="#63b8ff" stroke="#63b8ff" points="325.67,-137.12 317.24,-130.71 319.83,-140.98 325.67,-137.12"/>
</g>
<!-- Node16&#45;&gt;Node2 -->
<g id="edge20" class="edge">
<title>Node16&#45;&gt;Node2</title>
<path fill="none" stroke="#63b8ff" d="M152.16,-219.51C134.28,-211.2 107.46,-198.73 86.93,-189.18"/>
<polygon fill="#63b8ff" stroke="#63b8ff" points="88.47,-186.04 77.93,-185 85.52,-192.39 88.47,-186.04"/>
</g>
<!-- Node16&#45;&gt;Node7 -->
<g id="edge21" class="edge">
<title>Node16&#45;&gt;Node7</title>
<path fill="none" stroke="#63b8ff" d="M174.77,-219.66C181.19,-202.34 195.56,-163.55 204.3,-139.95"/>
<polygon fill="#63b8ff" stroke="#63b8ff" points="207.46,-141.47 207.66,-130.88 200.9,-139.04 207.46,-141.47"/>
</g>
<!-- Node17 -->
<g id="node17" class="node">
<title>Node17</title>
<g id="a_node17"><a xlink:href="ioman_8h.html" target="_top" xlink:title=" ">
<polygon fill="white" stroke="#666666" points="304.5,-184 254.5,-184 254.5,-165 304.5,-165 304.5,-184"/>
<text text-anchor="middle" x="279.5" y="-172" font-family="Helvetica,sans-Serif" font-size="10.00">ioman.h</text>
</a>
</g>
</g>
<!-- Node16&#45;&gt;Node17 -->
<g id="edge22" class="edge">
<title>Node16&#45;&gt;Node17</title>
<path fill="none" stroke="#63b8ff" d="M189.82,-219.51C206.68,-211.24 231.93,-198.84 251.35,-189.31"/>
<polygon fill="#63b8ff" stroke="#63b8ff" points="252.66,-192.57 260.09,-185.02 249.57,-186.29 252.66,-192.57"/>
</g>
<!-- Node18 -->
<g id="node18" class="node">
<title>Node18</title>
<g id="a_node18"><a xlink:href="loadcore_8h.html" target="_top" xlink:title=" ">
<polygon fill="white" stroke="#666666" points="160,-184 99,-184 99,-165 160,-165 160,-184"/>
<text text-anchor="middle" x="129.5" y="-172" font-family="Helvetica,sans-Serif" font-size="10.00">loadcore.h</text>
</a>
</g>
</g>
<!-- Node16&#45;&gt;Node18 -->
<g id="edge26" class="edge">
<title>Node16&#45;&gt;Node18</title>
<path fill="none" stroke="#63b8ff" d="M164.56,-219.75C158.88,-212.58 150.66,-202.2 143.61,-193.3"/>
<polygon fill="#63b8ff" stroke="#63b8ff" points="146.48,-191.29 137.53,-185.63 140.99,-195.64 146.48,-191.29"/>
</g>
<!-- Node17&#45;&gt;Node4 -->
<g id="edge23" class="edge">
<title>Node17&#45;&gt;Node4</title>
<path fill="none" stroke="#63b8ff" d="M273.94,-164.66C262.88,-147.1 237.93,-107.48 223.14,-83.98"/>
<polygon fill="#63b8ff" stroke="#63b8ff" points="226.24,-82.34 217.95,-75.74 220.31,-86.07 226.24,-82.34"/>
</g>
<!-- Node17&#45;&gt;Node7 -->
<g id="edge24" class="edge">
<title>Node17&#45;&gt;Node7</title>
<path fill="none" stroke="#63b8ff" d="M267.96,-164.51C258.04,-156.77 243.49,-145.43 231.64,-136.2"/>
<polygon fill="#63b8ff" stroke="#63b8ff" points="234.1,-133.68 224.06,-130.29 229.79,-139.2 234.1,-133.68"/>
</g>
<!-- Node17&#45;&gt;Node10 -->
<g id="edge25" class="edge">
<title>Node17&#45;&gt;Node10</title>
<path fill="none" stroke="#63b8ff" d="M304.95,-164.51C329.26,-155.92 366.16,-142.88 393.49,-133.22"/>
<polygon fill="#63b8ff" stroke="#63b8ff" points="394.49,-136.58 402.75,-129.95 392.16,-129.98 394.49,-136.58"/>
</g>
<!-- Node18&#45;&gt;Node4 -->
<g id="edge27" class="edge">
<title>Node18&#45;&gt;Node4</title>
<path fill="none" stroke="#63b8ff" d="M136.21,-164.66C149.66,-146.94 180.17,-106.77 197.94,-83.35"/>
<polygon fill="#63b8ff" stroke="#63b8ff" points="200.52,-85.75 203.78,-75.67 194.95,-81.51 200.52,-85.75"/>
</g>
<!-- Node18&#45;&gt;Node7 -->
<g id="edge28" class="edge">
<title>Node18&#45;&gt;Node7</title>
<path fill="none" stroke="#63b8ff" d="M143.41,-164.51C155.74,-156.54 173.97,-144.75 188.47,-135.38"/>
<polygon fill="#63b8ff" stroke="#63b8ff" points="190.03,-138.55 196.52,-130.18 186.23,-132.67 190.03,-138.55"/>
</g>
</g>
</svg>
