<?xml version="1.0" encoding="UTF-8" standalone="no"?>
<!DOCTYPE svg PUBLIC "-//W3C//DTD SVG 1.1//EN"
 "http://www.w3.org/Graphics/SVG/1.1/DTD/svg11.dtd">
<!-- Generated by graphviz version 7.0.5 (20221223.1930)
 -->
<!-- Title: iop/system/iopmgr/src/smod.c Pages: 1 -->
<!--zoomable 313 -->
<svg id="main" version="1.1" xmlns="http://www.w3.org/2000/svg" xmlns:xlink="http://www.w3.org/1999/xlink" xml:space="preserve" onload="init(evt)">
<style type="text/css"><![CDATA[
.edge:hover path { stroke: red; }
.edge:hover polygon { stroke: red; fill: red; }
]]></style>
<script type="text/javascript"><![CDATA[
var edges = document.getElementsByTagName('g');
if (edges && edges.length) {
  for (var i=0;i<edges.length;i++) {
    if (edges[i].id.substr(0,4)=='edge') {
      edges[i].setAttribute('class','edge');
    }
  }
}
]]></script>
        <defs>
                <circle id="rim" cx="0" cy="0" r="7"/>
                <circle id="rim2" cx="0" cy="0" r="3.5"/>
                <g id="zoomPlus">
                        <use xlink:href="#rim" fill="#404040">
                                <set attributeName="fill" to="#808080" begin="zoomplus.mouseover" end="zoomplus.mouseout"/>
                        </use>
                        <path d="M-4,0h8M0,-4v8" fill="none" stroke="white" stroke-width="1.5" pointer-events="none"/>
                </g>
                <g id="zoomMin">
                        <use xlink:href="#rim" fill="#404040">
                                <set attributeName="fill" to="#808080" begin="zoomminus.mouseover" end="zoomminus.mouseout"/>
                        </use>
                        <path d="M-4,0h8" fill="none" stroke="white" stroke-width="1.5" pointer-events="none"/>
                </g>
                <g id="dirArrow">
                        <path fill="none" stroke="white" stroke-width="1.5" d="M0,-3.0v7 M-2.5,-0.5L0,-3.0L2.5,-0.5"/>
                </g>
               <g id="resetDef">
                       <use xlink:href="#rim2" fill="#404040">
                               <set attributeName="fill" to="#808080" begin="reset.mouseover" end="reset.mouseout"/>
                       </use>
               </g>
        </defs>

<script type="text/javascript">
var viewWidth = 551;
var viewHeight = 313;
var sectionId = 'dynsection-0';
</script>
<script xlink:href="svgpan.js"/>
<svg id="graph" class="graph">
<g id="viewport">
<title>iop/system/iopmgr/src/smod.c</title>
<!-- Node1 -->
<g id="node1" class="node">
<title>Node1</title>
<g id="a_node1"><a xlink:title=" ">
<polygon fill="#999999" stroke="#666666" points="265,-305 152,-305 152,-275 265,-275 265,-305"/>
<text text-anchor="start" x="160" y="-293" font-family="Helvetica,sans-Serif" font-size="10.00">iop/system/iopmgr/src</text>
<text text-anchor="middle" x="208.5" y="-282" font-family="Helvetica,sans-Serif" font-size="10.00">/smod.c</text>
</a>
</g>
</g>
<!-- Node2 -->
<g id="node2" class="node">
<title>Node2</title>
<g id="a_node2"><a xlink:title=" ">
<polygon fill="#e0e0e0" stroke="#999999" points="91,-184 44,-184 44,-165 91,-165 91,-184"/>
<text text-anchor="middle" x="67.5" y="-172" font-family="Helvetica,sans-Serif" font-size="10.00">types.h</text>
</a>
</g>
</g>
<!-- Node1&#45;&gt;Node2 -->
<g id="edge1" class="edge">
<title>Node1&#45;&gt;Node2</title>
<path fill="none" stroke="#63b8ff" d="M185.51,-274.53C170.81,-264.97 151.56,-251.88 135.5,-239 116.89,-224.08 97.13,-205.25 83.73,-191.98"/>
<polygon fill="#63b8ff" stroke="#63b8ff" points="86.54,-189.83 76.99,-185.23 81.58,-194.78 86.54,-189.83"/>
</g>
<!-- Node3 -->
<g id="node3" class="node">
<title>Node3</title>
<g id="a_node3"><a xlink:href="defs_8h.html" target="_top" xlink:title=" ">
<polygon fill="white" stroke="#666666" points="43,-239 0,-239 0,-220 43,-220 43,-239"/>
<text text-anchor="middle" x="21.5" y="-227" font-family="Helvetica,sans-Serif" font-size="10.00">defs.h</text>
</a>
</g>
</g>
<!-- Node1&#45;&gt;Node3 -->
<g id="edge2" class="edge">
<title>Node1&#45;&gt;Node3</title>
<path fill="none" stroke="#63b8ff" d="M162.28,-274.54C128.71,-264.04 84.11,-250.09 54.19,-240.73"/>
<polygon fill="#63b8ff" stroke="#63b8ff" points="55.53,-237.48 44.94,-237.83 53.44,-244.16 55.53,-237.48"/>
</g>
<!-- Node7 -->
<g id="node7" class="node">
<title>Node7</title>
<g id="a_node7"><a xlink:href="irx_8h.html" target="_top" xlink:title=" ">
<polygon fill="white" stroke="#666666" points="201.5,-129 167.5,-129 167.5,-110 201.5,-110 201.5,-129"/>
<text text-anchor="middle" x="184.5" y="-117" font-family="Helvetica,sans-Serif" font-size="10.00">irx.h</text>
</a>
</g>
</g>
<!-- Node1&#45;&gt;Node7 -->
<g id="edge6" class="edge">
<title>Node1&#45;&gt;Node7</title>
<path fill="none" stroke="#63b8ff" d="M211.78,-274.65C213.89,-264.71 216.42,-251.12 217.5,-239 220.73,-202.79 205.07,-162.34 194.22,-139.29"/>
<polygon fill="#63b8ff" stroke="#63b8ff" points="197.48,-137.99 189.91,-130.57 191.2,-141.09 197.48,-137.99"/>
</g>
<!-- Node8 -->
<g id="node8" class="node">
<title>Node8</title>
<g id="a_node8"><a xlink:href="loadcore_8h.html" target="_top" xlink:title=" ">
<polygon fill="white" stroke="#666666" points="170,-184 109,-184 109,-165 170,-165 170,-184"/>
<text text-anchor="middle" x="139.5" y="-172" font-family="Helvetica,sans-Serif" font-size="10.00">loadcore.h</text>
</a>
</g>
</g>
<!-- Node1&#45;&gt;Node8 -->
<g id="edge8" class="edge">
<title>Node1&#45;&gt;Node8</title>
<path fill="none" stroke="#63b8ff" d="M182.3,-274.62C169.3,-266.04 154.67,-253.92 146.5,-239 139.23,-225.73 137.72,-208.57 137.9,-195.44"/>
<polygon fill="#63b8ff" stroke="#63b8ff" points="141.37,-196.01 138.37,-185.85 134.38,-195.66 141.37,-196.01"/>
</g>
<!-- Node9 -->
<g id="node9" class="node">
<title>Node9</title>
<g id="a_node9"><a xlink:href="ioman_8h.html" target="_top" xlink:title=" ">
<polygon fill="white" stroke="#666666" points="314.5,-184 264.5,-184 264.5,-165 314.5,-165 314.5,-184"/>
<text text-anchor="middle" x="289.5" y="-172" font-family="Helvetica,sans-Serif" font-size="10.00">ioman.h</text>
</a>
</g>
</g>
<!-- Node1&#45;&gt;Node9 -->
<g id="edge11" class="edge">
<title>Node1&#45;&gt;Node9</title>
<path fill="none" stroke="#63b8ff" d="M221.59,-274.58C230.19,-264.84 241.48,-251.51 250.5,-239 261.02,-224.41 271.62,-206.93 279.11,-194.01"/>
<polygon fill="#63b8ff" stroke="#63b8ff" points="281.93,-196.13 283.85,-185.71 275.85,-192.66 281.93,-196.13"/>
</g>
<!-- Node13 -->
<g id="node13" class="node">
<title>Node13</title>
<g id="a_node13"><a xlink:href="stdio_8h.html" target="_top" xlink:title=" ">
<polygon fill="white" stroke="#666666" points="378,-184 333,-184 333,-165 378,-165 378,-184"/>
<text text-anchor="middle" x="355.5" y="-172" font-family="Helvetica,sans-Serif" font-size="10.00">stdio.h</text>
</a>
</g>
</g>
<!-- Node1&#45;&gt;Node13 -->
<g id="edge17" class="edge">
<title>Node1&#45;&gt;Node13</title>
<path fill="none" stroke="#63b8ff" d="M227.12,-274.63C254.76,-253.28 306.47,-213.36 335.1,-191.25"/>
<polygon fill="#63b8ff" stroke="#63b8ff" points="337.22,-194.04 343,-185.15 332.94,-188.5 337.22,-194.04"/>
</g>
<!-- Node15 -->
<g id="node15" class="node">
<title>Node15</title>
<g id="a_node15"><a xlink:href="sysclib_8h.html" target="_top" xlink:title=" ">
<polygon fill="white" stroke="#666666" points="453.5,-184 399.5,-184 399.5,-165 453.5,-165 453.5,-184"/>
<text text-anchor="middle" x="426.5" y="-172" font-family="Helvetica,sans-Serif" font-size="10.00">sysclib.h</text>
</a>
</g>
</g>
<!-- Node1&#45;&gt;Node15 -->
<g id="edge20" class="edge">
<title>Node1&#45;&gt;Node15</title>
<path fill="none" stroke="#63b8ff" d="M236.11,-274.63C278.16,-252.73 357.77,-211.28 399.47,-189.57"/>
<polygon fill="#63b8ff" stroke="#63b8ff" points="400.86,-192.8 408.11,-185.07 397.62,-186.59 400.86,-192.8"/>
</g>
<!-- Node18 -->
<g id="node18" class="node">
<title>Node18</title>
<g id="a_node18"><a xlink:href="iopmgr_8h.html" target="_top" xlink:title=" ">
<polygon fill="white" stroke="#666666" points="208,-239 155,-239 155,-220 208,-220 208,-239"/>
<text text-anchor="middle" x="181.5" y="-227" font-family="Helvetica,sans-Serif" font-size="10.00">iopmgr.h</text>
</a>
</g>
</g>
<!-- Node1&#45;&gt;Node18 -->
<g id="edge27" class="edge">
<title>Node1&#45;&gt;Node18</title>
<path fill="none" stroke="#63b8ff" d="M201.83,-274.54C198.34,-267 194.04,-257.67 190.29,-249.55"/>
<polygon fill="#63b8ff" stroke="#63b8ff" points="193.51,-248.16 186.14,-240.55 187.15,-251.1 193.51,-248.16"/>
</g>
<!-- Node4 -->
<g id="node4" class="node">
<title>Node4</title>
<g id="a_node4"><a xlink:href="iop_2kernel_2include_2types_8h_source.html" target="_top" xlink:title=" ">
<polygon fill="white" stroke="#666666" points="225,-74 178,-74 178,-55 225,-55 225,-74"/>
<text text-anchor="middle" x="201.5" y="-62" font-family="Helvetica,sans-Serif" font-size="10.00">types.h</text>
</a>
</g>
</g>
<!-- Node3&#45;&gt;Node4 -->
<g id="edge3" class="edge">
<title>Node3&#45;&gt;Node4</title>
<path fill="none" stroke="#63b8ff" d="M21.16,-219.84C21.07,-206.75 22.64,-181.7 34.5,-165 67.14,-119.05 128.27,-90.71 166.83,-76.55"/>
<polygon fill="#63b8ff" stroke="#63b8ff" points="167.84,-79.91 176.11,-73.28 165.51,-73.31 167.84,-79.91"/>
</g>
<!-- Node5 -->
<g id="node5" class="node">
<title>Node5</title>
<g id="a_node5"><a xlink:title=" ">
<polygon fill="#e0e0e0" stroke="#999999" points="227,-19 176,-19 176,0 227,0 227,-19"/>
<text text-anchor="middle" x="201.5" y="-7" font-family="Helvetica,sans-Serif" font-size="10.00">stddef.h</text>
</a>
</g>
</g>
<!-- Node4&#45;&gt;Node5 -->
<g id="edge4" class="edge">
<title>Node4&#45;&gt;Node5</title>
<path fill="none" stroke="#63b8ff" d="M201.5,-54.75C201.5,-48.27 201.5,-39.16 201.5,-30.9"/>
<polygon fill="#63b8ff" stroke="#63b8ff" points="205,-30.96 201.5,-20.96 198,-30.96 205,-30.96"/>
</g>
<!-- Node6 -->
<g id="node6" class="node">
<title>Node6</title>
<g id="a_node6"><a xlink:href="tamtypes_8h.html" target="_top" xlink:title=" ">
<polygon fill="white" stroke="#666666" points="388.5,-19 324.5,-19 324.5,0 388.5,0 388.5,-19"/>
<text text-anchor="middle" x="356.5" y="-7" font-family="Helvetica,sans-Serif" font-size="10.00">tamtypes.h</text>
</a>
</g>
</g>
<!-- Node4&#45;&gt;Node6 -->
<g id="edge5" class="edge">
<title>Node4&#45;&gt;Node6</title>
<path fill="none" stroke="#63b8ff" d="M225.38,-55.33C250.53,-46.74 290.46,-33.08 319.65,-23.1"/>
<polygon fill="#63b8ff" stroke="#63b8ff" points="320.5,-26.51 328.83,-19.96 318.23,-19.89 320.5,-26.51"/>
</g>
<!-- Node7&#45;&gt;Node4 -->
<g id="edge7" class="edge">
<title>Node7&#45;&gt;Node4</title>
<path fill="none" stroke="#63b8ff" d="M187.31,-109.75C189.44,-103.11 192.44,-93.73 195.14,-85.31"/>
<polygon fill="#63b8ff" stroke="#63b8ff" points="198.45,-86.47 198.17,-75.88 191.78,-84.34 198.45,-86.47"/>
</g>
<!-- Node8&#45;&gt;Node4 -->
<g id="edge9" class="edge">
<title>Node8&#45;&gt;Node4</title>
<path fill="none" stroke="#63b8ff" d="M140.76,-164.76C142.89,-152.01 148.04,-127.88 158.5,-110 164.64,-99.51 173.74,-89.61 182,-81.82"/>
<polygon fill="#63b8ff" stroke="#63b8ff" points="184.19,-84.55 189.31,-75.27 179.53,-79.33 184.19,-84.55"/>
</g>
<!-- Node8&#45;&gt;Node7 -->
<g id="edge10" class="edge">
<title>Node8&#45;&gt;Node7</title>
<path fill="none" stroke="#63b8ff" d="M146.93,-164.75C153.08,-157.5 162.01,-146.98 169.63,-138.02"/>
<polygon fill="#63b8ff" stroke="#63b8ff" points="172.12,-140.48 175.93,-130.6 166.79,-135.95 172.12,-140.48"/>
</g>
<!-- Node9&#45;&gt;Node4 -->
<g id="edge12" class="edge">
<title>Node9&#45;&gt;Node4</title>
<path fill="none" stroke="#63b8ff" d="M280.72,-164.55C272.21,-155.74 259.08,-141.79 248.5,-129 236.23,-114.15 223.27,-96.48 214.08,-83.56"/>
<polygon fill="#63b8ff" stroke="#63b8ff" points="217.09,-81.75 208.47,-75.59 211.37,-85.78 217.09,-81.75"/>
</g>
<!-- Node9&#45;&gt;Node7 -->
<g id="edge13" class="edge">
<title>Node9&#45;&gt;Node7</title>
<path fill="none" stroke="#63b8ff" d="M271.69,-164.51C255.28,-156.22 230.68,-143.81 211.79,-134.27"/>
<polygon fill="#63b8ff" stroke="#63b8ff" points="213.56,-131.25 203.05,-129.86 210.4,-137.5 213.56,-131.25"/>
</g>
<!-- Node10 -->
<g id="node10" class="node">
<title>Node10</title>
<g id="a_node10"><a xlink:href="io__common_8h.html" target="_top" xlink:title=" ">
<polygon fill="white" stroke="#666666" points="331.5,-129 257.5,-129 257.5,-110 331.5,-110 331.5,-129"/>
<text text-anchor="middle" x="294.5" y="-117" font-family="Helvetica,sans-Serif" font-size="10.00">io_common.h</text>
</a>
</g>
</g>
<!-- Node9&#45;&gt;Node10 -->
<g id="edge14" class="edge">
<title>Node9&#45;&gt;Node10</title>
<path fill="none" stroke="#63b8ff" d="M290.33,-164.75C290.94,-158.27 291.8,-149.16 292.58,-140.9"/>
<polygon fill="#63b8ff" stroke="#63b8ff" points="296.06,-141.23 293.51,-130.95 289.09,-140.58 296.06,-141.23"/>
</g>
<!-- Node11 -->
<g id="node11" class="node">
<title>Node11</title>
<g id="a_node11"><a xlink:href="fcntl_8h_source.html" target="_top" xlink:title=" ">
<polygon fill="white" stroke="#666666" points="399,-74 338,-74 338,-55 399,-55 399,-74"/>
<text text-anchor="middle" x="368.5" y="-62" font-family="Helvetica,sans-Serif" font-size="10.00">sys/fcntl.h</text>
</a>
</g>
</g>
<!-- Node10&#45;&gt;Node11 -->
<g id="edge15" class="edge">
<title>Node10&#45;&gt;Node11</title>
<path fill="none" stroke="#63b8ff" d="M307.05,-109.51C317.96,-101.7 334,-90.21 346.96,-80.93"/>
<polygon fill="#63b8ff" stroke="#63b8ff" points="348.81,-83.91 354.9,-75.24 344.73,-78.22 348.81,-83.91"/>
</g>
<!-- Node12 -->
<g id="node12" class="node">
<title>Node12</title>
<g id="a_node12"><a xlink:href="unistd_8h_source.html" target="_top" xlink:title=" ">
<polygon fill="white" stroke="#666666" points="319.5,-74 251.5,-74 251.5,-55 319.5,-55 319.5,-74"/>
<text text-anchor="middle" x="285.5" y="-62" font-family="Helvetica,sans-Serif" font-size="10.00">sys/unistd.h</text>
</a>
</g>
</g>
<!-- Node10&#45;&gt;Node12 -->
<g id="edge16" class="edge">
<title>Node10&#45;&gt;Node12</title>
<path fill="none" stroke="#63b8ff" d="M293.01,-109.75C291.9,-103.19 290.33,-93.95 288.91,-85.6"/>
<polygon fill="#63b8ff" stroke="#63b8ff" points="292.4,-85.21 287.27,-75.93 285.5,-86.38 292.4,-85.21"/>
</g>
<!-- Node13&#45;&gt;Node7 -->
<g id="edge19" class="edge">
<title>Node13&#45;&gt;Node7</title>
<path fill="none" stroke="#63b8ff" d="M332.79,-166.46C301.75,-156.84 246.09,-139.59 212.5,-129.18"/>
<polygon fill="#63b8ff" stroke="#63b8ff" points="213.65,-125.87 203.06,-126.25 211.57,-132.56 213.65,-125.87"/>
</g>
<!-- Node14 -->
<g id="node14" class="node">
<title>Node14</title>
<g id="a_node14"><a xlink:title=" ">
<polygon fill="#e0e0e0" stroke="#999999" points="401,-129 350,-129 350,-110 401,-110 401,-129"/>
<text text-anchor="middle" x="375.5" y="-117" font-family="Helvetica,sans-Serif" font-size="10.00">stdarg.h</text>
</a>
</g>
</g>
<!-- Node13&#45;&gt;Node14 -->
<g id="edge18" class="edge">
<title>Node13&#45;&gt;Node14</title>
<path fill="none" stroke="#63b8ff" d="M358.8,-164.75C361.33,-158.04 364.93,-148.52 368.13,-140.02"/>
<polygon fill="#63b8ff" stroke="#63b8ff" points="371.34,-141.45 371.59,-130.86 364.79,-138.98 371.34,-141.45"/>
</g>
<!-- Node15&#45;&gt;Node4 -->
<g id="edge21" class="edge">
<title>Node15&#45;&gt;Node4</title>
<path fill="none" stroke="#63b8ff" d="M426.99,-164.7C427.24,-150.97 425.56,-124.52 410.5,-110 409.71,-109.24 295.72,-85.25 236.44,-72.82"/>
<polygon fill="#63b8ff" stroke="#63b8ff" points="237.35,-69.43 226.84,-70.81 235.91,-76.28 237.35,-69.43"/>
</g>
<!-- Node15&#45;&gt;Node7 -->
<g id="edge22" class="edge">
<title>Node15&#45;&gt;Node7</title>
<path fill="none" stroke="#63b8ff" d="M399.21,-167.52C353.04,-157.41 259.98,-137.03 213,-126.74"/>
<polygon fill="#63b8ff" stroke="#63b8ff" points="213.84,-123.34 203.32,-124.62 212.34,-130.18 213.84,-123.34"/>
</g>
<!-- Node15&#45;&gt;Node14 -->
<g id="edge23" class="edge">
<title>Node15&#45;&gt;Node14</title>
<path fill="none" stroke="#63b8ff" d="M418.08,-164.75C411.03,-157.43 400.77,-146.76 392.09,-137.74"/>
<polygon fill="#63b8ff" stroke="#63b8ff" points="394.61,-135.31 385.15,-130.53 389.57,-140.17 394.61,-135.31"/>
</g>
<!-- Node16 -->
<g id="node16" class="node">
<title>Node16</title>
<g id="a_node16"><a xlink:href="setjmp_8h.html" target="_top" xlink:title=" ">
<polygon fill="white" stroke="#666666" points="482,-74 429,-74 429,-55 482,-55 482,-74"/>
<text text-anchor="middle" x="455.5" y="-62" font-family="Helvetica,sans-Serif" font-size="10.00">setjmp.h</text>
</a>
</g>
</g>
<!-- Node15&#45;&gt;Node16 -->
<g id="edge24" class="edge">
<title>Node15&#45;&gt;Node16</title>
<path fill="none" stroke="#63b8ff" d="M430.36,-164.79C434.16,-155.93 439.9,-141.73 443.5,-129 447.58,-114.59 450.67,-97.94 452.69,-85.31"/>
<polygon fill="#63b8ff" stroke="#63b8ff" points="456.1,-86.15 454.13,-75.74 449.18,-85.11 456.1,-86.15"/>
</g>
<!-- Node17 -->
<g id="node17" class="node">
<title>Node17</title>
<g id="a_node17"><a xlink:href="ctype_8h.html" target="_top" xlink:title=" ">
<polygon fill="white" stroke="#666666" points="543,-129 496,-129 496,-110 543,-110 543,-129"/>
<text text-anchor="middle" x="519.5" y="-117" font-family="Helvetica,sans-Serif" font-size="10.00">ctype.h</text>
</a>
</g>
</g>
<!-- Node15&#45;&gt;Node17 -->
<g id="edge26" class="edge">
<title>Node15&#45;&gt;Node17</title>
<path fill="none" stroke="#63b8ff" d="M442.28,-164.51C456.52,-156.39 477.74,-144.3 494.33,-134.85"/>
<polygon fill="#63b8ff" stroke="#63b8ff" points="495.69,-138.1 502.64,-130.11 492.22,-132.02 495.69,-138.1"/>
</g>
<!-- Node16&#45;&gt;Node6 -->
<g id="edge25" class="edge">
<title>Node16&#45;&gt;Node6</title>
<path fill="none" stroke="#63b8ff" d="M438.71,-54.51C423.4,-46.31 400.53,-34.07 382.8,-24.58"/>
<polygon fill="#63b8ff" stroke="#63b8ff" points="384.85,-21.71 374.38,-20.07 381.54,-27.88 384.85,-21.71"/>
</g>
<!-- Node18&#45;&gt;Node2 -->
<g id="edge28" class="edge">
<title>Node18&#45;&gt;Node2</title>
<path fill="none" stroke="#63b8ff" d="M162.16,-219.51C144.28,-211.2 117.46,-198.73 96.93,-189.18"/>
<polygon fill="#63b8ff" stroke="#63b8ff" points="98.47,-186.04 87.93,-185 95.52,-192.39 98.47,-186.04"/>
</g>
<!-- Node18&#45;&gt;Node7 -->
<g id="edge29" class="edge">
<title>Node18&#45;&gt;Node7</title>
<path fill="none" stroke="#63b8ff" d="M181.75,-219.66C182.22,-202.57 183.27,-164.61 183.93,-140.92"/>
<polygon fill="#63b8ff" stroke="#63b8ff" points="187.43,-141.07 184.21,-130.97 180.43,-140.87 187.43,-141.07"/>
</g>
<!-- Node18&#45;&gt;Node8 -->
<g id="edge31" class="edge">
<title>Node18&#45;&gt;Node8</title>
<path fill="none" stroke="#63b8ff" d="M174.56,-219.75C168.88,-212.58 160.66,-202.2 153.61,-193.3"/>
<polygon fill="#63b8ff" stroke="#63b8ff" points="156.48,-191.29 147.53,-185.63 150.99,-195.64 156.48,-191.29"/>
</g>
<!-- Node18&#45;&gt;Node9 -->
<g id="edge30" class="edge">
<title>Node18&#45;&gt;Node9</title>
<path fill="none" stroke="#63b8ff" d="M199.82,-219.51C216.68,-211.24 241.93,-198.84 261.35,-189.31"/>
<polygon fill="#63b8ff" stroke="#63b8ff" points="262.66,-192.57 270.09,-185.02 259.57,-186.29 262.66,-192.57"/>
</g>
</g>
</svg>
        <g id="navigator" transform="translate(0 0)" fill="#404254">
                <rect fill="#f2f5e9" fill-opacity="0.5" stroke="#606060" stroke-width=".5" x="0" y="0" width="60" height="60"/>
                <use id="zoomplus" xlink:href="#zoomPlus" x="17" y="9" onmousedown="handleZoom(evt,'in')"/>
                <use id="zoomminus" xlink:href="#zoomMin" x="42" y="9" onmousedown="handleZoom(evt,'out')"/>
                <use id="reset" xlink:href="#resetDef" x="30" y="36" onmousedown="handleReset()"/>
                <g id="arrowUp" xlink:href="#dirArrow" transform="translate(30 24)" onmousedown="handlePan(0,-1)">
                  <use xlink:href="#rim" fill="#404040">
                        <set attributeName="fill" to="#808080" begin="arrowUp.mouseover" end="arrowUp.mouseout"/>
                  </use>
                  <path fill="none" stroke="white" stroke-width="1.5" d="M0,-3.0v7 M-2.5,-0.5L0,-3.0L2.5,-0.5"/>
                </g>
                <g id="arrowRight" xlink:href="#dirArrow" transform="rotate(90) translate(36 -43)" onmousedown="handlePan(1,0)">
                  <use xlink:href="#rim" fill="#404040">
                        <set attributeName="fill" to="#808080" begin="arrowRight.mouseover" end="arrowRight.mouseout"/>
                  </use>
                  <path fill="none" stroke="white" stroke-width="1.5" d="M0,-3.0v7 M-2.5,-0.5L0,-3.0L2.5,-0.5"/>
                </g>
                <g id="arrowDown" xlink:href="#dirArrow" transform="rotate(180) translate(-30 -48)" onmousedown="handlePan(0,1)">
                  <use xlink:href="#rim" fill="#404040">
                        <set attributeName="fill" to="#808080" begin="arrowDown.mouseover" end="arrowDown.mouseout"/>
                  </use>
                  <path fill="none" stroke="white" stroke-width="1.5" d="M0,-3.0v7 M-2.5,-0.5L0,-3.0L2.5,-0.5"/>
                </g>
                <g id="arrowLeft" xlink:href="#dirArrow" transform="rotate(270) translate(-36 17)" onmousedown="handlePan(-1,0)">
                  <use xlink:href="#rim" fill="#404040">
                        <set attributeName="fill" to="#808080" begin="arrowLeft.mouseover" end="arrowLeft.mouseout"/>
                  </use>
                  <path fill="none" stroke="white" stroke-width="1.5" d="M0,-3.0v7 M-2.5,-0.5L0,-3.0L2.5,-0.5"/>
                </g>
        </g>
        <svg viewBox="0 0 15 15" width="100%" height="30px" preserveAspectRatio="xMaxYMin meet">
         <g id="arrow_out" transform="scale(0.3 0.3)">
          <a xlink:href="iop_2system_2iopmgr_2src_2smod_8c__incl_org.svg" target="_base">
           <rect id="button" ry="5" rx="5" y="6" x="6" height="38" width="38"
                fill="#f2f5e9" fill-opacity="0.5" stroke="#606060" stroke-width="1.0"/>
           <path id="arrow"
             d="M 11.500037,31.436501 C 11.940474,20.09759 22.043105,11.32322 32.158766,21.979434 L 37.068811,17.246167 C 37.068811,17.246167 37.088388,32 37.088388,32 L 22.160133,31.978069 C 22.160133,31.978069 26.997745,27.140456 26.997745,27.140456 C 18.528582,18.264221 13.291696,25.230495 11.500037,31.436501 z"
             style="fill:#404040;"/>
          </a>
         </g>
        </svg>
</svg>
