<?xml version="1.0" encoding="UTF-8" standalone="no"?>
<!DOCTYPE svg PUBLIC "-//W3C//DTD SVG 1.1//EN"
 "http://www.w3.org/Graphics/SVG/1.1/DTD/svg11.dtd">
<!-- Generated by graphviz version 7.0.5 (20221223.1930)
 -->
<!-- Title: iop/sound/audsrv/src/adpcm.c Pages: 1 -->
<!--zoomable 258 -->
<svg id="main" version="1.1" xmlns="http://www.w3.org/2000/svg" xmlns:xlink="http://www.w3.org/1999/xlink" xml:space="preserve" onload="init(evt)">
<style type="text/css"><![CDATA[
.edge:hover path { stroke: red; }
.edge:hover polygon { stroke: red; fill: red; }
]]></style>
<script type="text/javascript"><![CDATA[
var edges = document.getElementsByTagName('g');
if (edges && edges.length) {
  for (var i=0;i<edges.length;i++) {
    if (edges[i].id.substr(0,4)=='edge') {
      edges[i].setAttribute('class','edge');
    }
  }
}
]]></script>
        <defs>
                <circle id="rim" cx="0" cy="0" r="7"/>
                <circle id="rim2" cx="0" cy="0" r="3.5"/>
                <g id="zoomPlus">
                        <use xlink:href="#rim" fill="#404040">
                                <set attributeName="fill" to="#808080" begin="zoomplus.mouseover" end="zoomplus.mouseout"/>
                        </use>
                        <path d="M-4,0h8M0,-4v8" fill="none" stroke="white" stroke-width="1.5" pointer-events="none"/>
                </g>
                <g id="zoomMin">
                        <use xlink:href="#rim" fill="#404040">
                                <set attributeName="fill" to="#808080" begin="zoomminus.mouseover" end="zoomminus.mouseout"/>
                        </use>
                        <path d="M-4,0h8" fill="none" stroke="white" stroke-width="1.5" pointer-events="none"/>
                </g>
                <g id="dirArrow">
                        <path fill="none" stroke="white" stroke-width="1.5" d="M0,-3.0v7 M-2.5,-0.5L0,-3.0L2.5,-0.5"/>
                </g>
               <g id="resetDef">
                       <use xlink:href="#rim2" fill="#404040">
                               <set attributeName="fill" to="#808080" begin="reset.mouseover" end="reset.mouseout"/>
                       </use>
               </g>
        </defs>

<script type="text/javascript">
var viewWidth = 979;
var viewHeight = 258;
var sectionId = 'dynsection-0';
</script>
<script xlink:href="svgpan.js"/>
<svg id="graph" class="graph">
<g id="viewport">
<title>iop/sound/audsrv/src/adpcm.c</title>
<!-- Node1 -->
<g id="node1" class="node">
<title>Node1</title>
<g id="a_node1"><a xlink:title=" ">
<polygon fill="#999999" stroke="#666666" points="524,-250 417,-250 417,-220 524,-220 524,-250"/>
<text text-anchor="start" x="425" y="-238" font-family="Helvetica,sans-Serif" font-size="10.00">iop/sound/audsrv/src</text>
<text text-anchor="middle" x="470.5" y="-227" font-family="Helvetica,sans-Serif" font-size="10.00">/adpcm.c</text>
</a>
</g>
</g>
<!-- Node2 -->
<g id="node2" class="node">
<title>Node2</title>
<g id="a_node2"><a xlink:href="stdio_8h.html" target="_top" xlink:title=" ">
<polygon fill="white" stroke="#666666" points="430,-184 385,-184 385,-165 430,-165 430,-184"/>
<text text-anchor="middle" x="407.5" y="-172" font-family="Helvetica,sans-Serif" font-size="10.00">stdio.h</text>
</a>
</g>
</g>
<!-- Node1&#45;&gt;Node2 -->
<g id="edge1" class="edge">
<title>Node1&#45;&gt;Node2</title>
<path fill="none" stroke="#63b8ff" d="M454.93,-219.54C445.87,-211.13 434.43,-200.51 425.05,-191.8"/>
<polygon fill="#63b8ff" stroke="#63b8ff" points="427.66,-189.44 417.95,-185.21 422.9,-194.57 427.66,-189.44"/>
</g>
<!-- Node8 -->
<g id="node8" class="node">
<title>Node8</title>
<g id="a_node8"><a xlink:href="thbase_8h.html" target="_top" xlink:title=" ">
<polygon fill="white" stroke="#666666" points="207,-184 154,-184 154,-165 207,-165 207,-184"/>
<text text-anchor="middle" x="180.5" y="-172" font-family="Helvetica,sans-Serif" font-size="10.00">thbase.h</text>
</a>
</g>
</g>
<!-- Node1&#45;&gt;Node8 -->
<g id="edge7" class="edge">
<title>Node1&#45;&gt;Node8</title>
<path fill="none" stroke="#63b8ff" d="M416.86,-224.05C367.79,-214.8 292.89,-200.36 218.22,-184.3"/>
<polygon fill="#63b8ff" stroke="#63b8ff" points="219.2,-180.94 208.69,-182.24 217.73,-187.78 219.2,-180.94"/>
</g>
<!-- Node9 -->
<g id="node9" class="node">
<title>Node9</title>
<g id="a_node9"><a xlink:href="thsemap_8h.html" target="_top" xlink:title=" ">
<polygon fill="white" stroke="#666666" points="287.5,-184 225.5,-184 225.5,-165 287.5,-165 287.5,-184"/>
<text text-anchor="middle" x="256.5" y="-172" font-family="Helvetica,sans-Serif" font-size="10.00">thsemap.h</text>
</a>
</g>
</g>
<!-- Node1&#45;&gt;Node9 -->
<g id="edge10" class="edge">
<title>Node1&#45;&gt;Node9</title>
<path fill="none" stroke="#63b8ff" d="M417.6,-219.54C381.02,-209.54 332.98,-196.41 298.91,-187.09"/>
<polygon fill="#63b8ff" stroke="#63b8ff" points="299.95,-183.75 289.38,-184.49 298.11,-190.5 299.95,-183.75"/>
</g>
<!-- Node10 -->
<g id="node10" class="node">
<title>Node10</title>
<g id="a_node10"><a xlink:href="loadcore_8h.html" target="_top" xlink:title=" ">
<polygon fill="white" stroke="#666666" points="61,-184 0,-184 0,-165 61,-165 61,-184"/>
<text text-anchor="middle" x="30.5" y="-172" font-family="Helvetica,sans-Serif" font-size="10.00">loadcore.h</text>
</a>
</g>
</g>
<!-- Node1&#45;&gt;Node10 -->
<g id="edge13" class="edge">
<title>Node1&#45;&gt;Node10</title>
<path fill="none" stroke="#63b8ff" d="M416.59,-228.73C341.74,-221.09 201.89,-205.66 72.72,-184.24"/>
<polygon fill="#63b8ff" stroke="#63b8ff" points="73.39,-180.8 62.95,-182.6 72.24,-187.71 73.39,-180.8"/>
</g>
<!-- Node11 -->
<g id="node11" class="node">
<title>Node11</title>
<g id="a_node11"><a xlink:href="sysmem_8h.html" target="_top" xlink:title=" ">
<polygon fill="white" stroke="#666666" points="367,-184 306,-184 306,-165 367,-165 367,-184"/>
<text text-anchor="middle" x="336.5" y="-172" font-family="Helvetica,sans-Serif" font-size="10.00">sysmem.h</text>
</a>
</g>
</g>
<!-- Node1&#45;&gt;Node11 -->
<g id="edge16" class="edge">
<title>Node1&#45;&gt;Node11</title>
<path fill="none" stroke="#63b8ff" d="M437.38,-219.54C415.86,-210.15 388.02,-197.99 367.04,-188.83"/>
<polygon fill="#63b8ff" stroke="#63b8ff" points="368.72,-185.75 358.15,-184.95 365.91,-192.16 368.72,-185.75"/>
</g>
<!-- Node12 -->
<g id="node12" class="node">
<title>Node12</title>
<g id="a_node12"><a xlink:href="intrman_8h.html" target="_top" xlink:title=" ">
<polygon fill="white" stroke="#666666" points="135.5,-184 79.5,-184 79.5,-165 135.5,-165 135.5,-184"/>
<text text-anchor="middle" x="107.5" y="-172" font-family="Helvetica,sans-Serif" font-size="10.00">intrman.h</text>
</a>
</g>
</g>
<!-- Node1&#45;&gt;Node12 -->
<g id="edge20" class="edge">
<title>Node1&#45;&gt;Node12</title>
<path fill="none" stroke="#63b8ff" d="M416.64,-226.98C354.11,-218.55 247.64,-203.35 146.74,-184.31"/>
<polygon fill="#63b8ff" stroke="#63b8ff" points="147.7,-180.93 137.22,-182.5 146.39,-187.81 147.7,-180.93"/>
</g>
<!-- Node13 -->
<g id="node13" class="node">
<title>Node13</title>
<g id="a_node13"><a xlink:title=" ">
<polygon fill="#e0e0e0" stroke="#999999" points="492.5,-184 448.5,-184 448.5,-165 492.5,-165 492.5,-184"/>
<text text-anchor="middle" x="470.5" y="-172" font-family="Helvetica,sans-Serif" font-size="10.00">libsd.h</text>
</a>
</g>
</g>
<!-- Node1&#45;&gt;Node13 -->
<g id="edge23" class="edge">
<title>Node1&#45;&gt;Node13</title>
<path fill="none" stroke="#63b8ff" d="M470.5,-219.54C470.5,-212.34 470.5,-203.53 470.5,-195.68"/>
<polygon fill="#63b8ff" stroke="#63b8ff" points="474,-195.69 470.5,-185.69 467,-195.69 474,-195.69"/>
</g>
<!-- Node14 -->
<g id="node14" class="node">
<title>Node14</title>
<g id="a_node14"><a xlink:href="sysclib_8h.html" target="_top" xlink:title=" ">
<polygon fill="white" stroke="#666666" points="564.5,-184 510.5,-184 510.5,-165 564.5,-165 564.5,-184"/>
<text text-anchor="middle" x="537.5" y="-172" font-family="Helvetica,sans-Serif" font-size="10.00">sysclib.h</text>
</a>
</g>
</g>
<!-- Node1&#45;&gt;Node14 -->
<g id="edge24" class="edge">
<title>Node1&#45;&gt;Node14</title>
<path fill="none" stroke="#63b8ff" d="M487.06,-219.54C496.79,-211.04 509.11,-200.29 519.14,-191.53"/>
<polygon fill="#63b8ff" stroke="#63b8ff" points="521.19,-194.38 526.42,-185.17 516.59,-189.11 521.19,-194.38"/>
</g>
<!-- Node17 -->
<g id="node17" class="node">
<title>Node17</title>
<g id="a_node17"><a xlink:title=" ">
<polygon fill="#e0e0e0" stroke="#999999" points="636,-184 583,-184 583,-165 636,-165 636,-184"/>
<text text-anchor="middle" x="609.5" y="-172" font-family="Helvetica,sans-Serif" font-size="10.00">audsrv.h</text>
</a>
</g>
</g>
<!-- Node1&#45;&gt;Node17 -->
<g id="edge31" class="edge">
<title>Node1&#45;&gt;Node17</title>
<path fill="none" stroke="#63b8ff" d="M504.86,-219.54C527.28,-210.1 556.32,-197.88 578.12,-188.71"/>
<polygon fill="#63b8ff" stroke="#63b8ff" points="579.23,-192.04 587.09,-184.93 576.51,-185.59 579.23,-192.04"/>
</g>
<!-- Node18 -->
<g id="node18" class="node">
<title>Node18</title>
<g id="a_node18"><a xlink:href="audsrv__internal_8h.html" target="_top" xlink:title=" ">
<polygon fill="white" stroke="#666666" points="744.5,-184 654.5,-184 654.5,-165 744.5,-165 744.5,-184"/>
<text text-anchor="middle" x="699.5" y="-172" font-family="Helvetica,sans-Serif" font-size="10.00">audsrv_internal.h</text>
</a>
</g>
</g>
<!-- Node1&#45;&gt;Node18 -->
<g id="edge32" class="edge">
<title>Node1&#45;&gt;Node18</title>
<path fill="none" stroke="#63b8ff" d="M524.48,-220.21C563.67,-210.2 616.12,-196.8 653.36,-187.29"/>
<polygon fill="#63b8ff" stroke="#63b8ff" points="654.11,-190.71 662.93,-184.84 652.38,-183.93 654.11,-190.71"/>
</g>
<!-- Node19 -->
<g id="node19" class="node">
<title>Node19</title>
<g id="a_node19"><a xlink:href="iop_2sound_2audsrv_2src_2common_8h.html" target="_top" xlink:title=" ">
<polygon fill="white" stroke="#666666" points="824.5,-184 762.5,-184 762.5,-165 824.5,-165 824.5,-184"/>
<text text-anchor="middle" x="793.5" y="-172" font-family="Helvetica,sans-Serif" font-size="10.00">common.h</text>
</a>
</g>
</g>
<!-- Node1&#45;&gt;Node19 -->
<g id="edge33" class="edge">
<title>Node1&#45;&gt;Node19</title>
<path fill="none" stroke="#63b8ff" d="M524.33,-225.06C578.94,-215.86 666.2,-200.81 750.95,-184.44"/>
<polygon fill="#63b8ff" stroke="#63b8ff" points="751.44,-187.91 760.59,-182.57 750.11,-181.04 751.44,-187.91"/>
</g>
<!-- Node20 -->
<g id="node20" class="node">
<title>Node20</title>
<g id="a_node20"><a xlink:href="iop_2sound_2audsrv_2src_2rpc__server_8h.html" target="_top" xlink:title=" ">
<polygon fill="white" stroke="#666666" points="912.5,-184 842.5,-184 842.5,-165 912.5,-165 912.5,-184"/>
<text text-anchor="middle" x="877.5" y="-172" font-family="Helvetica,sans-Serif" font-size="10.00">rpc_server.h</text>
</a>
</g>
</g>
<!-- Node1&#45;&gt;Node20 -->
<g id="edge34" class="edge">
<title>Node1&#45;&gt;Node20</title>
<path fill="none" stroke="#63b8ff" d="M524.45,-227.49C593.25,-218.99 716.15,-203.11 831.34,-184.28"/>
<polygon fill="#63b8ff" stroke="#63b8ff" points="831.67,-187.77 840.97,-182.69 830.54,-180.86 831.67,-187.77"/>
</g>
<!-- Node21 -->
<g id="node21" class="node">
<title>Node21</title>
<g id="a_node21"><a xlink:href="spu_8h.html" target="_top" xlink:title=" ">
<polygon fill="white" stroke="#666666" points="970.5,-184 930.5,-184 930.5,-165 970.5,-165 970.5,-184"/>
<text text-anchor="middle" x="950.5" y="-172" font-family="Helvetica,sans-Serif" font-size="10.00">spu.h</text>
</a>
</g>
</g>
<!-- Node1&#45;&gt;Node21 -->
<g id="edge35" class="edge">
<title>Node1&#45;&gt;Node21</title>
<path fill="none" stroke="#63b8ff" d="M524.42,-231.07C607.42,-225.91 771.5,-213.05 918.98,-184.18"/>
<polygon fill="#63b8ff" stroke="#63b8ff" points="919.41,-187.67 928.53,-182.28 918.04,-180.8 919.41,-187.67"/>
</g>
<!-- Node3 -->
<g id="node3" class="node">
<title>Node3</title>
<g id="a_node3"><a xlink:title=" ">
<polygon fill="#e0e0e0" stroke="#999999" points="413,-129 362,-129 362,-110 413,-110 413,-129"/>
<text text-anchor="middle" x="387.5" y="-117" font-family="Helvetica,sans-Serif" font-size="10.00">stdarg.h</text>
</a>
</g>
</g>
<!-- Node2&#45;&gt;Node3 -->
<g id="edge2" class="edge">
<title>Node2&#45;&gt;Node3</title>
<path fill="none" stroke="#63b8ff" d="M404.2,-164.75C401.67,-158.04 398.07,-148.52 394.87,-140.02"/>
<polygon fill="#63b8ff" stroke="#63b8ff" points="398.21,-138.98 391.41,-130.86 391.66,-141.45 398.21,-138.98"/>
</g>
<!-- Node4 -->
<g id="node4" class="node">
<title>Node4</title>
<g id="a_node4"><a xlink:href="irx_8h.html" target="_top" xlink:title=" ">
<polygon fill="white" stroke="#666666" points="254.5,-129 220.5,-129 220.5,-110 254.5,-110 254.5,-129"/>
<text text-anchor="middle" x="237.5" y="-117" font-family="Helvetica,sans-Serif" font-size="10.00">irx.h</text>
</a>
</g>
</g>
<!-- Node2&#45;&gt;Node4 -->
<g id="edge3" class="edge">
<title>Node2&#45;&gt;Node4</title>
<path fill="none" stroke="#63b8ff" d="M384.57,-166.35C353.77,-156.75 299.04,-139.69 265.73,-129.3"/>
<polygon fill="#63b8ff" stroke="#63b8ff" points="266.95,-126.02 256.36,-126.38 264.87,-132.7 266.95,-126.02"/>
</g>
<!-- Node5 -->
<g id="node5" class="node">
<title>Node5</title>
<g id="a_node5"><a xlink:href="iop_2kernel_2include_2types_8h_source.html" target="_top" xlink:title=" ">
<polygon fill="white" stroke="#666666" points="283,-74 236,-74 236,-55 283,-55 283,-74"/>
<text text-anchor="middle" x="259.5" y="-62" font-family="Helvetica,sans-Serif" font-size="10.00">types.h</text>
</a>
</g>
</g>
<!-- Node4&#45;&gt;Node5 -->
<g id="edge4" class="edge">
<title>Node4&#45;&gt;Node5</title>
<path fill="none" stroke="#63b8ff" d="M241.13,-109.75C243.92,-103.04 247.87,-93.52 251.4,-85.02"/>
<polygon fill="#63b8ff" stroke="#63b8ff" points="254.61,-86.42 255.21,-75.84 248.14,-83.73 254.61,-86.42"/>
</g>
<!-- Node6 -->
<g id="node6" class="node">
<title>Node6</title>
<g id="a_node6"><a xlink:title=" ">
<polygon fill="#e0e0e0" stroke="#999999" points="285,-19 234,-19 234,0 285,0 285,-19"/>
<text text-anchor="middle" x="259.5" y="-7" font-family="Helvetica,sans-Serif" font-size="10.00">stddef.h</text>
</a>
</g>
</g>
<!-- Node5&#45;&gt;Node6 -->
<g id="edge5" class="edge">
<title>Node5&#45;&gt;Node6</title>
<path fill="none" stroke="#63b8ff" d="M259.5,-54.75C259.5,-48.27 259.5,-39.16 259.5,-30.9"/>
<polygon fill="#63b8ff" stroke="#63b8ff" points="263,-30.96 259.5,-20.96 256,-30.96 263,-30.96"/>
</g>
<!-- Node7 -->
<g id="node7" class="node">
<title>Node7</title>
<g id="a_node7"><a xlink:href="tamtypes_8h.html" target="_top" xlink:title=" ">
<polygon fill="white" stroke="#666666" points="465.5,-19 401.5,-19 401.5,0 465.5,0 465.5,-19"/>
<text text-anchor="middle" x="433.5" y="-7" font-family="Helvetica,sans-Serif" font-size="10.00">tamtypes.h</text>
</a>
</g>
</g>
<!-- Node5&#45;&gt;Node7 -->
<g id="edge6" class="edge">
<title>Node5&#45;&gt;Node7</title>
<path fill="none" stroke="#63b8ff" d="M283.33,-56.24C311.59,-47.63 359.16,-33.14 393.18,-22.78"/>
<polygon fill="#63b8ff" stroke="#63b8ff" points="394.16,-26.14 402.71,-19.88 392.12,-19.44 394.16,-26.14"/>
</g>
<!-- Node8&#45;&gt;Node4 -->
<g id="edge9" class="edge">
<title>Node8&#45;&gt;Node4</title>
<path fill="none" stroke="#63b8ff" d="M190.17,-164.51C198.24,-157 209.97,-146.1 219.72,-137.03"/>
<polygon fill="#63b8ff" stroke="#63b8ff" points="221.93,-139.76 226.87,-130.39 217.16,-134.63 221.93,-139.76"/>
</g>
<!-- Node8&#45;&gt;Node5 -->
<g id="edge8" class="edge">
<title>Node8&#45;&gt;Node5</title>
<path fill="none" stroke="#63b8ff" d="M183.59,-164.72C188.36,-151.92 198.34,-127.73 211.5,-110 219.32,-99.46 229.86,-89.37 239.07,-81.48"/>
<polygon fill="#63b8ff" stroke="#63b8ff" points="241.02,-84.4 246.51,-75.34 236.57,-79 241.02,-84.4"/>
</g>
<!-- Node9&#45;&gt;Node4 -->
<g id="edge12" class="edge">
<title>Node9&#45;&gt;Node4</title>
<path fill="none" stroke="#63b8ff" d="M253.36,-164.75C250.96,-158.04 247.54,-148.52 244.5,-140.02"/>
<polygon fill="#63b8ff" stroke="#63b8ff" points="247.89,-139.1 241.22,-130.87 241.3,-141.46 247.89,-139.1"/>
</g>
<!-- Node9&#45;&gt;Node5 -->
<g id="edge11" class="edge">
<title>Node9&#45;&gt;Node5</title>
<path fill="none" stroke="#63b8ff" d="M258.3,-164.68C260.03,-155.74 262.52,-141.48 263.5,-129 264.64,-114.45 263.54,-98.01 262.2,-85.5"/>
<polygon fill="#63b8ff" stroke="#63b8ff" points="265.68,-85.14 261,-75.64 258.74,-85.99 265.68,-85.14"/>
</g>
<!-- Node10&#45;&gt;Node4 -->
<g id="edge15" class="edge">
<title>Node10&#45;&gt;Node4</title>
<path fill="none" stroke="#63b8ff" d="M61.49,-165.57C101.45,-155.33 170.41,-137.68 209.08,-127.78"/>
<polygon fill="#63b8ff" stroke="#63b8ff" points="209.76,-131.22 218.58,-125.34 208.02,-124.43 209.76,-131.22"/>
</g>
<!-- Node10&#45;&gt;Node5 -->
<g id="edge14" class="edge">
<title>Node10&#45;&gt;Node5</title>
<path fill="none" stroke="#63b8ff" d="M49.24,-164.66C89.08,-145.87 182.44,-101.84 230.21,-79.31"/>
<polygon fill="#63b8ff" stroke="#63b8ff" points="231.58,-82.54 239.13,-75.11 228.59,-76.21 231.58,-82.54"/>
</g>
<!-- Node11&#45;&gt;Node3 -->
<g id="edge19" class="edge">
<title>Node11&#45;&gt;Node3</title>
<path fill="none" stroke="#63b8ff" d="M344.92,-164.75C351.97,-157.43 362.23,-146.76 370.91,-137.74"/>
<polygon fill="#63b8ff" stroke="#63b8ff" points="373.43,-140.17 377.85,-130.53 368.39,-135.31 373.43,-140.17"/>
</g>
<!-- Node11&#45;&gt;Node4 -->
<g id="edge18" class="edge">
<title>Node11&#45;&gt;Node4</title>
<path fill="none" stroke="#63b8ff" d="M319.71,-164.51C304.4,-156.31 281.53,-144.07 263.8,-134.58"/>
<polygon fill="#63b8ff" stroke="#63b8ff" points="265.85,-131.71 255.38,-130.07 262.54,-137.88 265.85,-131.71"/>
</g>
<!-- Node11&#45;&gt;Node5 -->
<g id="edge17" class="edge">
<title>Node11&#45;&gt;Node5</title>
<path fill="none" stroke="#63b8ff" d="M330.2,-164.66C317.62,-147.02 289.18,-107.12 272.45,-83.67"/>
<polygon fill="#63b8ff" stroke="#63b8ff" points="275.42,-81.8 266.77,-75.69 269.72,-85.87 275.42,-81.8"/>
</g>
<!-- Node12&#45;&gt;Node4 -->
<g id="edge22" class="edge">
<title>Node12&#45;&gt;Node4</title>
<path fill="none" stroke="#63b8ff" d="M129.55,-164.51C151.69,-155.48 185.86,-141.55 209.81,-131.79"/>
<polygon fill="#63b8ff" stroke="#63b8ff" points="210.99,-135.09 218.93,-128.07 208.35,-128.61 210.99,-135.09"/>
</g>
<!-- Node12&#45;&gt;Node5 -->
<g id="edge21" class="edge">
<title>Node12&#45;&gt;Node5</title>
<path fill="none" stroke="#63b8ff" d="M119.69,-164.6C136.64,-152.25 168.29,-129.28 195.5,-110 209.44,-100.12 225.2,-89.17 237.59,-80.6"/>
<polygon fill="#63b8ff" stroke="#63b8ff" points="239.22,-83.72 245.46,-75.16 235.24,-77.96 239.22,-83.72"/>
</g>
<!-- Node14&#45;&gt;Node3 -->
<g id="edge27" class="edge">
<title>Node14&#45;&gt;Node3</title>
<path fill="none" stroke="#63b8ff" d="M512.05,-164.51C487.74,-155.92 450.84,-142.88 423.51,-133.22"/>
<polygon fill="#63b8ff" stroke="#63b8ff" points="424.84,-129.98 414.25,-129.95 422.51,-136.58 424.84,-129.98"/>
</g>
<!-- Node14&#45;&gt;Node4 -->
<g id="edge26" class="edge">
<title>Node14&#45;&gt;Node4</title>
<path fill="none" stroke="#63b8ff" d="M510.02,-166.82C507.15,-166.18 504.27,-165.56 501.5,-165 416.24,-147.77 314.56,-131.95 266.02,-124.69"/>
<polygon fill="#63b8ff" stroke="#63b8ff" points="266.77,-121.26 256.37,-123.25 265.74,-128.18 266.77,-121.26"/>
</g>
<!-- Node14&#45;&gt;Node5 -->
<g id="edge25" class="edge">
<title>Node14&#45;&gt;Node5</title>
<path fill="none" stroke="#63b8ff" d="M533.33,-164.9C526.08,-150.96 509.77,-123.6 487.5,-110 427.02,-73.07 342.16,-65.87 294.87,-64.99"/>
<polygon fill="#63b8ff" stroke="#63b8ff" points="294.96,-61.49 284.93,-64.9 294.9,-68.49 294.96,-61.49"/>
</g>
<!-- Node15 -->
<g id="node15" class="node">
<title>Node15</title>
<g id="a_node15"><a xlink:href="setjmp_8h.html" target="_top" xlink:title=" ">
<polygon fill="white" stroke="#666666" points="515,-74 462,-74 462,-55 515,-55 515,-74"/>
<text text-anchor="middle" x="488.5" y="-62" font-family="Helvetica,sans-Serif" font-size="10.00">setjmp.h</text>
</a>
</g>
</g>
<!-- Node14&#45;&gt;Node15 -->
<g id="edge28" class="edge">
<title>Node14&#45;&gt;Node15</title>
<path fill="none" stroke="#63b8ff" d="M536.15,-164.52C534.02,-151.89 529.2,-128.36 520.5,-110 516.03,-100.57 509.52,-91.05 503.53,-83.25"/>
<polygon fill="#63b8ff" stroke="#63b8ff" points="506.37,-81.2 497.37,-75.6 500.92,-85.59 506.37,-81.2"/>
</g>
<!-- Node16 -->
<g id="node16" class="node">
<title>Node16</title>
<g id="a_node16"><a xlink:href="ctype_8h.html" target="_top" xlink:title=" ">
<polygon fill="white" stroke="#666666" points="478,-129 431,-129 431,-110 478,-110 478,-129"/>
<text text-anchor="middle" x="454.5" y="-117" font-family="Helvetica,sans-Serif" font-size="10.00">ctype.h</text>
</a>
</g>
</g>
<!-- Node14&#45;&gt;Node16 -->
<g id="edge30" class="edge">
<title>Node14&#45;&gt;Node16</title>
<path fill="none" stroke="#63b8ff" d="M523.42,-164.51C510.94,-156.54 492.48,-144.75 477.81,-135.38"/>
<polygon fill="#63b8ff" stroke="#63b8ff" points="479.96,-132.6 469.65,-130.17 476.19,-138.5 479.96,-132.6"/>
</g>
<!-- Node15&#45;&gt;Node7 -->
<g id="edge29" class="edge">
<title>Node15&#45;&gt;Node7</title>
<path fill="none" stroke="#63b8ff" d="M479.42,-54.75C471.66,-47.27 460.29,-36.32 450.8,-27.17"/>
<polygon fill="#63b8ff" stroke="#63b8ff" points="453.5,-24.91 443.87,-20.49 448.64,-29.95 453.5,-24.91"/>
</g>
</g>
</svg>
        <g id="navigator" transform="translate(0 0)" fill="#404254">
                <rect fill="#f2f5e9" fill-opacity="0.5" stroke="#606060" stroke-width=".5" x="0" y="0" width="60" height="60"/>
                <use id="zoomplus" xlink:href="#zoomPlus" x="17" y="9" onmousedown="handleZoom(evt,'in')"/>
                <use id="zoomminus" xlink:href="#zoomMin" x="42" y="9" onmousedown="handleZoom(evt,'out')"/>
                <use id="reset" xlink:href="#resetDef" x="30" y="36" onmousedown="handleReset()"/>
                <g id="arrowUp" xlink:href="#dirArrow" transform="translate(30 24)" onmousedown="handlePan(0,-1)">
                  <use xlink:href="#rim" fill="#404040">
                        <set attributeName="fill" to="#808080" begin="arrowUp.mouseover" end="arrowUp.mouseout"/>
                  </use>
                  <path fill="none" stroke="white" stroke-width="1.5" d="M0,-3.0v7 M-2.5,-0.5L0,-3.0L2.5,-0.5"/>
                </g>
                <g id="arrowRight" xlink:href="#dirArrow" transform="rotate(90) translate(36 -43)" onmousedown="handlePan(1,0)">
                  <use xlink:href="#rim" fill="#404040">
                        <set attributeName="fill" to="#808080" begin="arrowRight.mouseover" end="arrowRight.mouseout"/>
                  </use>
                  <path fill="none" stroke="white" stroke-width="1.5" d="M0,-3.0v7 M-2.5,-0.5L0,-3.0L2.5,-0.5"/>
                </g>
                <g id="arrowDown" xlink:href="#dirArrow" transform="rotate(180) translate(-30 -48)" onmousedown="handlePan(0,1)">
                  <use xlink:href="#rim" fill="#404040">
                        <set attributeName="fill" to="#808080" begin="arrowDown.mouseover" end="arrowDown.mouseout"/>
                  </use>
                  <path fill="none" stroke="white" stroke-width="1.5" d="M0,-3.0v7 M-2.5,-0.5L0,-3.0L2.5,-0.5"/>
                </g>
                <g id="arrowLeft" xlink:href="#dirArrow" transform="rotate(270) translate(-36 17)" onmousedown="handlePan(-1,0)">
                  <use xlink:href="#rim" fill="#404040">
                        <set attributeName="fill" to="#808080" begin="arrowLeft.mouseover" end="arrowLeft.mouseout"/>
                  </use>
                  <path fill="none" stroke="white" stroke-width="1.5" d="M0,-3.0v7 M-2.5,-0.5L0,-3.0L2.5,-0.5"/>
                </g>
        </g>
        <svg viewBox="0 0 15 15" width="100%" height="30px" preserveAspectRatio="xMaxYMin meet">
         <g id="arrow_out" transform="scale(0.3 0.3)">
          <a xlink:href="iop_2sound_2audsrv_2src_2adpcm_8c__incl_org.svg" target="_base">
           <rect id="button" ry="5" rx="5" y="6" x="6" height="38" width="38"
                fill="#f2f5e9" fill-opacity="0.5" stroke="#606060" stroke-width="1.0"/>
           <path id="arrow"
             d="M 11.500037,31.436501 C 11.940474,20.09759 22.043105,11.32322 32.158766,21.979434 L 37.068811,17.246167 C 37.068811,17.246167 37.088388,32 37.088388,32 L 22.160133,31.978069 C 22.160133,31.978069 26.997745,27.140456 26.997745,27.140456 C 18.528582,18.264221 13.291696,25.230495 11.500037,31.436501 z"
             style="fill:#404040;"/>
          </a>
         </g>
        </svg>
</svg>
