<?xml version="1.0" encoding="UTF-8" standalone="no"?>
<!DOCTYPE svg PUBLIC "-//W3C//DTD SVG 1.1//EN"
 "http://www.w3.org/Graphics/SVG/1.1/DTD/svg11.dtd">
<!-- Generated by graphviz version 7.0.5 (20221223.1930)
 -->
<!-- Title: ee/kernel/include/iopcontrol.h Pages: 1 -->
<svg width="432pt" height="93pt"
 viewBox="0.00 0.00 431.50 93.00" xmlns="http://www.w3.org/2000/svg" xmlns:xlink="http://www.w3.org/1999/xlink">
<g id="graph0" class="graph" transform="scale(1 1) rotate(0) translate(4 89)">
<title>ee/kernel/include/iopcontrol.h</title>
<!-- Node1 -->
<g id="node1" class="node">
<title>Node1</title>
<g id="a_node1"><a xlink:title=" ">
<polygon fill="#999999" stroke="#666666" points="278.5,-85 135.5,-85 135.5,-66 278.5,-66 278.5,-85"/>
<text text-anchor="middle" x="207" y="-73" font-family="Helvetica,sans-Serif" font-size="10.00">ee/kernel/include/iopcontrol.h</text>
</a>
</g>
</g>
<!-- Node2 -->
<g id="node2" class="node">
<title>Node2</title>
<g id="a_node2"><a xlink:href="loader_8c_source.html" target="_top" xlink:title=" ">
<polygon fill="white" stroke="#666666" points="116,-30 0,-30 0,0 116,0 116,-30"/>
<text text-anchor="start" x="8" y="-18" font-family="Helvetica,sans-Serif" font-size="10.00">ee/elf&#45;loader/src/loader</text>
<text text-anchor="middle" x="58" y="-7" font-family="Helvetica,sans-Serif" font-size="10.00">/src/loader.c</text>
</a>
</g>
</g>
<!-- Node1&#45;&gt;Node2 -->
<g id="edge1" class="edge">
<title>Node1&#45;&gt;Node2</title>
<path fill="none" stroke="#63b8ff" d="M173.9,-61.5C150.45,-52.3 119,-39.95 94.78,-30.44"/>
<polygon fill="#63b8ff" stroke="#63b8ff" points="172.37,-64.67 182.96,-65.06 174.93,-58.15 172.37,-64.67"/>
</g>
<!-- Node3 -->
<g id="node3" class="node">
<title>Node3</title>
<g id="a_node3"><a xlink:href="_sif_iop_reboot_buffer_8c.html" target="_top" xlink:title=" ">
<polygon fill="white" stroke="#666666" points="280,-30 134,-30 134,0 280,0 280,-30"/>
<text text-anchor="start" x="142" y="-18" font-family="Helvetica,sans-Serif" font-size="10.00">ee/iopreboot/src/SifIopReboot</text>
<text text-anchor="middle" x="207" y="-7" font-family="Helvetica,sans-Serif" font-size="10.00">Buffer.c</text>
</a>
</g>
</g>
<!-- Node1&#45;&gt;Node3 -->
<g id="edge2" class="edge">
<title>Node1&#45;&gt;Node3</title>
<path fill="none" stroke="#63b8ff" d="M207,-54.51C207,-46.49 207,-37.43 207,-30.11"/>
<polygon fill="#63b8ff" stroke="#63b8ff" points="203.5,-54.35 207,-64.35 210.5,-54.35 203.5,-54.35"/>
</g>
<!-- Node4 -->
<g id="node4" class="node">
<title>Node4</title>
<g id="a_node4"><a xlink:href="iopcontrol_8c.html" target="_top" xlink:title=" ">
<polygon fill="white" stroke="#666666" points="423.5,-24.5 298.5,-24.5 298.5,-5.5 423.5,-5.5 423.5,-24.5"/>
<text text-anchor="middle" x="361" y="-12.5" font-family="Helvetica,sans-Serif" font-size="10.00">ee/kernel/src/iopcontrol.c</text>
</a>
</g>
</g>
<!-- Node1&#45;&gt;Node4 -->
<g id="edge3" class="edge">
<title>Node1&#45;&gt;Node4</title>
<path fill="none" stroke="#63b8ff" d="M240.94,-61.61C270.18,-50.5 311.63,-34.75 337.39,-24.97"/>
<polygon fill="#63b8ff" stroke="#63b8ff" points="239.91,-58.25 231.8,-65.08 242.4,-64.8 239.91,-58.25"/>
</g>
</g>
</svg>
