<?xml version="1.0" encoding="UTF-8" standalone="no"?>
<!DOCTYPE svg PUBLIC "-//W3C//DTD SVG 1.1//EN"
 "http://www.w3.org/Graphics/SVG/1.1/DTD/svg11.dtd">
<!-- Generated by graphviz version 7.0.5 (20221223.1930)
 -->
<!-- Title: ee/kernel/src/iopcontrol.c Pages: 1 -->
<svg width="470pt" height="302pt"
 viewBox="0.00 0.00 470.00 302.00" xmlns="http://www.w3.org/2000/svg" xmlns:xlink="http://www.w3.org/1999/xlink">
<g id="graph0" class="graph" transform="scale(1 1) rotate(0) translate(4 298)">
<title>ee/kernel/src/iopcontrol.c</title>
<!-- Node1 -->
<g id="node1" class="node">
<title>Node1</title>
<g id="a_node1"><a xlink:title=" ">
<polygon fill="#999999" stroke="#666666" points="292.5,-294 167.5,-294 167.5,-275 292.5,-275 292.5,-294"/>
<text text-anchor="middle" x="230" y="-282" font-family="Helvetica,sans-Serif" font-size="10.00">ee/kernel/src/iopcontrol.c</text>
</a>
</g>
</g>
<!-- Node2 -->
<g id="node2" class="node">
<title>Node2</title>
<g id="a_node2"><a xlink:href="tamtypes_8h.html" target="_top" xlink:title=" ">
<polygon fill="white" stroke="#666666" points="149,-19 85,-19 85,0 149,0 149,-19"/>
<text text-anchor="middle" x="117" y="-7" font-family="Helvetica,sans-Serif" font-size="10.00">tamtypes.h</text>
</a>
</g>
</g>
<!-- Node1&#45;&gt;Node2 -->
<g id="edge1" class="edge">
<title>Node1&#45;&gt;Node2</title>
<path fill="none" stroke="#63b8ff" d="M167.15,-280.26C99.05,-272.96 0,-249.61 0,-175.5 0,-175.5 0,-175.5 0,-118.5 0,-86.69 10.6,-77.58 33,-55 46.44,-41.45 64.89,-31.06 81.07,-23.74"/>
<polygon fill="#63b8ff" stroke="#63b8ff" points="82.08,-27.11 89.91,-19.97 79.34,-20.67 82.08,-27.11"/>
</g>
<!-- Node3 -->
<g id="node3" class="node">
<title>Node3</title>
<g id="a_node3"><a xlink:href="kernel_8h.html" target="_top" xlink:title=" ">
<polygon fill="white" stroke="#666666" points="307,-184 257,-184 257,-165 307,-165 307,-184"/>
<text text-anchor="middle" x="282" y="-172" font-family="Helvetica,sans-Serif" font-size="10.00">kernel.h</text>
</a>
</g>
</g>
<!-- Node1&#45;&gt;Node3 -->
<g id="edge2" class="edge">
<title>Node1&#45;&gt;Node3</title>
<path fill="none" stroke="#63b8ff" d="M231.87,-274.53C234.72,-261.91 240.79,-238.4 250,-220 254.67,-210.67 261.22,-201.16 267.17,-193.35"/>
<polygon fill="#63b8ff" stroke="#63b8ff" points="269.79,-195.68 273.27,-185.67 264.31,-191.33 269.79,-195.68"/>
</g>
<!-- Node7 -->
<g id="node7" class="node">
<title>Node7</title>
<g id="a_node7"><a xlink:title=" ">
<polygon fill="#e0e0e0" stroke="#999999" points="311.5,-239 258.5,-239 258.5,-220 311.5,-220 311.5,-239"/>
<text text-anchor="middle" x="285" y="-227" font-family="Helvetica,sans-Serif" font-size="10.00">sifcmd.h</text>
</a>
</g>
</g>
<!-- Node1&#45;&gt;Node7 -->
<g id="edge7" class="edge">
<title>Node1&#45;&gt;Node7</title>
<path fill="none" stroke="#63b8ff" d="M239.08,-274.75C246.84,-267.27 258.21,-256.32 267.7,-247.17"/>
<polygon fill="#63b8ff" stroke="#63b8ff" points="269.86,-249.95 274.63,-240.49 265,-244.91 269.86,-249.95"/>
</g>
<!-- Node8 -->
<g id="node8" class="node">
<title>Node8</title>
<g id="a_node8"><a xlink:title=" ">
<polygon fill="#e0e0e0" stroke="#999999" points="378,-239 330,-239 330,-220 378,-220 378,-239"/>
<text text-anchor="middle" x="354" y="-227" font-family="Helvetica,sans-Serif" font-size="10.00">sifrpc.h</text>
</a>
</g>
</g>
<!-- Node1&#45;&gt;Node8 -->
<g id="edge8" class="edge">
<title>Node1&#45;&gt;Node8</title>
<path fill="none" stroke="#63b8ff" d="M251.03,-274.51C270.75,-266.08 300.47,-253.38 322.91,-243.79"/>
<polygon fill="#63b8ff" stroke="#63b8ff" points="324.06,-247.1 331.88,-239.95 321.31,-240.66 324.06,-247.1"/>
</g>
<!-- Node9 -->
<g id="node9" class="node">
<title>Node9</title>
<g id="a_node9"><a xlink:href="string_8h_source.html" target="_top" xlink:title=" ">
<polygon fill="white" stroke="#666666" points="156,-239 108,-239 108,-220 156,-220 156,-239"/>
<text text-anchor="middle" x="132" y="-227" font-family="Helvetica,sans-Serif" font-size="10.00">string.h</text>
</a>
</g>
</g>
<!-- Node1&#45;&gt;Node9 -->
<g id="edge9" class="edge">
<title>Node1&#45;&gt;Node9</title>
<path fill="none" stroke="#63b8ff" d="M213.38,-274.51C198.22,-266.31 175.58,-254.07 158.03,-244.58"/>
<polygon fill="#63b8ff" stroke="#63b8ff" points="160.17,-241.76 149.71,-240.08 156.84,-247.91 160.17,-241.76"/>
</g>
<!-- Node15 -->
<g id="node15" class="node">
<title>Node15</title>
<g id="a_node15"><a xlink:href="stdio_8h.html" target="_top" xlink:title=" ">
<polygon fill="white" stroke="#666666" points="218.5,-184 173.5,-184 173.5,-165 218.5,-165 218.5,-184"/>
<text text-anchor="middle" x="196" y="-172" font-family="Helvetica,sans-Serif" font-size="10.00">stdio.h</text>
</a>
</g>
</g>
<!-- Node1&#45;&gt;Node15 -->
<g id="edge20" class="edge">
<title>Node1&#45;&gt;Node15</title>
<path fill="none" stroke="#63b8ff" d="M227.22,-274.66C221.79,-257.42 209.66,-218.9 202.22,-195.27"/>
<polygon fill="#63b8ff" stroke="#63b8ff" points="205.62,-194.39 199.28,-185.9 198.94,-196.49 205.62,-194.39"/>
</g>
<!-- Node16 -->
<g id="node16" class="node">
<title>Node16</title>
<g id="a_node16"><a xlink:href="iopcontrol_8h.html" target="_top" xlink:title=" ">
<polygon fill="white" stroke="#666666" points="462,-239 396,-239 396,-220 462,-220 462,-239"/>
<text text-anchor="middle" x="429" y="-227" font-family="Helvetica,sans-Serif" font-size="10.00">iopcontrol.h</text>
</a>
</g>
</g>
<!-- Node1&#45;&gt;Node16 -->
<g id="edge23" class="edge">
<title>Node1&#45;&gt;Node16</title>
<path fill="none" stroke="#63b8ff" d="M263.76,-274.51C297.12,-265.62 348.34,-251.98 384.9,-242.25"/>
<polygon fill="#63b8ff" stroke="#63b8ff" points="385.52,-245.7 394.28,-239.75 383.71,-238.94 385.52,-245.7"/>
</g>
<!-- Node4 -->
<g id="node4" class="node">
<title>Node4</title>
<g id="a_node4"><a xlink:title=" ">
<polygon fill="#e0e0e0" stroke="#999999" points="225.5,-19 174.5,-19 174.5,0 225.5,0 225.5,-19"/>
<text text-anchor="middle" x="200" y="-7" font-family="Helvetica,sans-Serif" font-size="10.00">stddef.h</text>
</a>
</g>
</g>
<!-- Node3&#45;&gt;Node4 -->
<g id="edge3" class="edge">
<title>Node3&#45;&gt;Node4</title>
<path fill="none" stroke="#63b8ff" d="M286.22,-164.77C295.72,-143.69 316.16,-89.25 292,-55 279.03,-36.62 256.33,-25.53 236.73,-19.01"/>
<polygon fill="#63b8ff" stroke="#63b8ff" points="237.97,-15.73 227.39,-16.21 235.96,-22.44 237.97,-15.73"/>
</g>
<!-- Node5 -->
<g id="node5" class="node">
<title>Node5</title>
<g id="a_node5"><a xlink:title=" ">
<polygon fill="#e0e0e0" stroke="#999999" points="273.5,-129 222.5,-129 222.5,-110 273.5,-110 273.5,-129"/>
<text text-anchor="middle" x="248" y="-117" font-family="Helvetica,sans-Serif" font-size="10.00">stdarg.h</text>
</a>
</g>
</g>
<!-- Node3&#45;&gt;Node5 -->
<g id="edge4" class="edge">
<title>Node3&#45;&gt;Node5</title>
<path fill="none" stroke="#63b8ff" d="M276.39,-164.75C271.88,-157.73 265.41,-147.64 259.79,-138.87"/>
<polygon fill="#63b8ff" stroke="#63b8ff" points="262.9,-137.24 254.55,-130.72 257.01,-141.02 262.9,-137.24"/>
</g>
<!-- Node6 -->
<g id="node6" class="node">
<title>Node6</title>
<g id="a_node6"><a xlink:href="sifdma_8h.html" target="_top" xlink:title=" ">
<polygon fill="white" stroke="#666666" points="282.5,-74 229.5,-74 229.5,-55 282.5,-55 282.5,-74"/>
<text text-anchor="middle" x="256" y="-62" font-family="Helvetica,sans-Serif" font-size="10.00">sifdma.h</text>
</a>
</g>
</g>
<!-- Node3&#45;&gt;Node6 -->
<g id="edge5" class="edge">
<title>Node3&#45;&gt;Node6</title>
<path fill="none" stroke="#63b8ff" d="M283.69,-164.67C285.74,-152.22 288.29,-128.9 283,-110 280.39,-100.67 275.23,-91.34 270.11,-83.66"/>
<polygon fill="#63b8ff" stroke="#63b8ff" points="272.97,-81.65 264.29,-75.58 267.29,-85.74 272.97,-81.65"/>
</g>
<!-- Node6&#45;&gt;Node2 -->
<g id="edge6" class="edge">
<title>Node6&#45;&gt;Node2</title>
<path fill="none" stroke="#63b8ff" d="M232.42,-54.51C210.02,-45.97 176.1,-33.03 150.82,-23.4"/>
<polygon fill="#63b8ff" stroke="#63b8ff" points="152.24,-20.19 141.65,-19.9 149.74,-26.73 152.24,-20.19"/>
</g>
<!-- Node10 -->
<g id="node10" class="node">
<title>Node10</title>
<g id="a_node10"><a xlink:href="sysclib_8h.html" target="_top" xlink:title=" ">
<polygon fill="white" stroke="#666666" points="155,-184 101,-184 101,-165 155,-165 155,-184"/>
<text text-anchor="middle" x="128" y="-172" font-family="Helvetica,sans-Serif" font-size="10.00">sysclib.h</text>
</a>
</g>
</g>
<!-- Node9&#45;&gt;Node10 -->
<g id="edge10" class="edge">
<title>Node9&#45;&gt;Node10</title>
<path fill="none" stroke="#63b8ff" d="M131.34,-219.75C130.85,-213.27 130.16,-204.16 129.54,-195.9"/>
<polygon fill="#63b8ff" stroke="#63b8ff" points="133.03,-195.66 128.79,-185.95 126.05,-196.19 133.03,-195.66"/>
</g>
<!-- Node10&#45;&gt;Node5 -->
<g id="edge16" class="edge">
<title>Node10&#45;&gt;Node5</title>
<path fill="none" stroke="#63b8ff" d="M148.36,-164.51C167.35,-156.12 195.93,-143.5 217.62,-133.92"/>
<polygon fill="#63b8ff" stroke="#63b8ff" points="218.83,-137.21 226.56,-129.97 216,-130.81 218.83,-137.21"/>
</g>
<!-- Node11 -->
<g id="node11" class="node">
<title>Node11</title>
<g id="a_node11"><a xlink:href="iop_2kernel_2include_2types_8h_source.html" target="_top" xlink:title=" ">
<polygon fill="white" stroke="#666666" points="182.5,-74 135.5,-74 135.5,-55 182.5,-55 182.5,-74"/>
<text text-anchor="middle" x="159" y="-62" font-family="Helvetica,sans-Serif" font-size="10.00">types.h</text>
</a>
</g>
</g>
<!-- Node10&#45;&gt;Node11 -->
<g id="edge11" class="edge">
<title>Node10&#45;&gt;Node11</title>
<path fill="none" stroke="#63b8ff" d="M117.82,-164.87C104.71,-152.64 84.76,-129.6 95,-110 101.81,-96.98 114.36,-86.99 126.55,-79.82"/>
<polygon fill="#63b8ff" stroke="#63b8ff" points="128.08,-82.97 135.24,-75.16 124.77,-76.8 128.08,-82.97"/>
</g>
<!-- Node12 -->
<g id="node12" class="node">
<title>Node12</title>
<g id="a_node12"><a xlink:href="irx_8h.html" target="_top" xlink:title=" ">
<polygon fill="white" stroke="#666666" points="204,-129 170,-129 170,-110 204,-110 204,-129"/>
<text text-anchor="middle" x="187" y="-117" font-family="Helvetica,sans-Serif" font-size="10.00">irx.h</text>
</a>
</g>
</g>
<!-- Node10&#45;&gt;Node12 -->
<g id="edge14" class="edge">
<title>Node10&#45;&gt;Node12</title>
<path fill="none" stroke="#63b8ff" d="M138.01,-164.51C146.37,-157 158.5,-146.1 168.6,-137.03"/>
<polygon fill="#63b8ff" stroke="#63b8ff" points="170.91,-139.66 176.01,-130.37 166.24,-134.45 170.91,-139.66"/>
</g>
<!-- Node13 -->
<g id="node13" class="node">
<title>Node13</title>
<g id="a_node13"><a xlink:href="setjmp_8h.html" target="_top" xlink:title=" ">
<polygon fill="white" stroke="#666666" points="95.5,-74 42.5,-74 42.5,-55 95.5,-55 95.5,-74"/>
<text text-anchor="middle" x="69" y="-62" font-family="Helvetica,sans-Serif" font-size="10.00">setjmp.h</text>
</a>
</g>
</g>
<!-- Node10&#45;&gt;Node13 -->
<g id="edge17" class="edge">
<title>Node10&#45;&gt;Node13</title>
<path fill="none" stroke="#63b8ff" d="M118.05,-164.5C109.29,-156.09 96.76,-142.79 89,-129 81.27,-115.26 76.1,-98.13 72.96,-85.13"/>
<polygon fill="#63b8ff" stroke="#63b8ff" points="76.44,-84.66 70.87,-75.65 69.6,-86.17 76.44,-84.66"/>
</g>
<!-- Node14 -->
<g id="node14" class="node">
<title>Node14</title>
<g id="a_node14"><a xlink:href="ctype_8h.html" target="_top" xlink:title=" ">
<polygon fill="white" stroke="#666666" points="151.5,-129 104.5,-129 104.5,-110 151.5,-110 151.5,-129"/>
<text text-anchor="middle" x="128" y="-117" font-family="Helvetica,sans-Serif" font-size="10.00">ctype.h</text>
</a>
</g>
</g>
<!-- Node10&#45;&gt;Node14 -->
<g id="edge19" class="edge">
<title>Node10&#45;&gt;Node14</title>
<path fill="none" stroke="#63b8ff" d="M128,-164.75C128,-158.27 128,-149.16 128,-140.9"/>
<polygon fill="#63b8ff" stroke="#63b8ff" points="131.5,-140.96 128,-130.96 124.5,-140.96 131.5,-140.96"/>
</g>
<!-- Node11&#45;&gt;Node2 -->
<g id="edge13" class="edge">
<title>Node11&#45;&gt;Node2</title>
<path fill="none" stroke="#63b8ff" d="M152.06,-54.75C146.38,-47.58 138.16,-37.2 131.11,-28.3"/>
<polygon fill="#63b8ff" stroke="#63b8ff" points="133.98,-26.29 125.03,-20.63 128.49,-30.64 133.98,-26.29"/>
</g>
<!-- Node11&#45;&gt;Node4 -->
<g id="edge12" class="edge">
<title>Node11&#45;&gt;Node4</title>
<path fill="none" stroke="#63b8ff" d="M165.77,-54.75C171.32,-47.58 179.34,-37.2 186.23,-28.3"/>
<polygon fill="#63b8ff" stroke="#63b8ff" points="188.81,-30.69 192.16,-20.64 183.27,-26.41 188.81,-30.69"/>
</g>
<!-- Node12&#45;&gt;Node11 -->
<g id="edge15" class="edge">
<title>Node12&#45;&gt;Node11</title>
<path fill="none" stroke="#63b8ff" d="M182.38,-109.75C178.75,-102.88 173.57,-93.08 169.01,-84.45"/>
<polygon fill="#63b8ff" stroke="#63b8ff" points="172.2,-82.99 164.43,-75.78 166.01,-86.26 172.2,-82.99"/>
</g>
<!-- Node13&#45;&gt;Node2 -->
<g id="edge18" class="edge">
<title>Node13&#45;&gt;Node2</title>
<path fill="none" stroke="#63b8ff" d="M76.93,-54.75C83.56,-47.43 93.22,-36.76 101.39,-27.74"/>
<polygon fill="#63b8ff" stroke="#63b8ff" points="103.77,-30.33 107.89,-20.56 98.58,-25.63 103.77,-30.33"/>
</g>
<!-- Node15&#45;&gt;Node5 -->
<g id="edge21" class="edge">
<title>Node15&#45;&gt;Node5</title>
<path fill="none" stroke="#63b8ff" d="M204.59,-164.75C211.84,-157.35 222.45,-146.54 231.37,-137.45"/>
<polygon fill="#63b8ff" stroke="#63b8ff" points="233.66,-140.11 238.17,-130.52 228.66,-135.21 233.66,-140.11"/>
</g>
<!-- Node15&#45;&gt;Node12 -->
<g id="edge22" class="edge">
<title>Node15&#45;&gt;Node12</title>
<path fill="none" stroke="#63b8ff" d="M194.51,-164.75C193.4,-158.19 191.83,-148.95 190.41,-140.6"/>
<polygon fill="#63b8ff" stroke="#63b8ff" points="193.9,-140.21 188.77,-130.93 187,-141.38 193.9,-140.21"/>
</g>
</g>
</svg>
