<?xml version="1.0" encoding="UTF-8" standalone="no"?>
<!DOCTYPE svg PUBLIC "-//W3C//DTD SVG 1.1//EN"
 "http://www.w3.org/Graphics/SVG/1.1/DTD/svg11.dtd">
<!-- Generated by graphviz version 7.0.5 (20221223.1930)
 -->
<!-- Title: iop/debug/iopdebug/src/iopdebug_priv.h Pages: 1 -->
<svg width="147pt" height="258pt"
 viewBox="0.00 0.00 147.00 258.00" xmlns="http://www.w3.org/2000/svg" xmlns:xlink="http://www.w3.org/1999/xlink">
<g id="graph0" class="graph" transform="scale(1 1) rotate(0) translate(4 254)">
<title>iop/debug/iopdebug/src/iopdebug_priv.h</title>
<!-- Node1 -->
<g id="node1" class="node">
<title>Node1</title>
<g id="a_node1"><a xlink:title=" ">
<polygon fill="#999999" stroke="#666666" points="112,-250 8,-250 8,-220 112,-220 112,-250"/>
<text text-anchor="start" x="16" y="-238" font-family="Helvetica,sans-Serif" font-size="10.00">iop/debug/iopdebug</text>
<text text-anchor="middle" x="60" y="-227" font-family="Helvetica,sans-Serif" font-size="10.00">/src/iopdebug_priv.h</text>
</a>
</g>
</g>
<!-- Node2 -->
<g id="node2" class="node">
<title>Node2</title>
<g id="a_node2"><a xlink:href="tamtypes_8h.html" target="_top" xlink:title=" ">
<polygon fill="white" stroke="#666666" points="64,-19 0,-19 0,0 64,0 64,-19"/>
<text text-anchor="middle" x="32" y="-7" font-family="Helvetica,sans-Serif" font-size="10.00">tamtypes.h</text>
</a>
</g>
</g>
<!-- Node1&#45;&gt;Node2 -->
<g id="edge1" class="edge">
<title>Node1&#45;&gt;Node2</title>
<path fill="none" stroke="#63b8ff" d="M57.14,-219.6C55.22,-209.63 52.74,-196.05 51,-184 43,-128.65 36.66,-62.92 33.74,-30.56"/>
<polygon fill="#63b8ff" stroke="#63b8ff" points="37.24,-30.35 32.87,-20.7 30.27,-30.97 37.24,-30.35"/>
</g>
<!-- Node3 -->
<g id="node3" class="node">
<title>Node3</title>
<g id="a_node3"><a xlink:href="intrman_8h.html" target="_top" xlink:title=" ">
<polygon fill="white" stroke="#666666" points="116,-184 60,-184 60,-165 116,-165 116,-184"/>
<text text-anchor="middle" x="88" y="-172" font-family="Helvetica,sans-Serif" font-size="10.00">intrman.h</text>
</a>
</g>
</g>
<!-- Node1&#45;&gt;Node3 -->
<g id="edge2" class="edge">
<title>Node1&#45;&gt;Node3</title>
<path fill="none" stroke="#63b8ff" d="M66.92,-219.54C70.53,-212 74.99,-202.67 78.88,-194.55"/>
<polygon fill="#63b8ff" stroke="#63b8ff" points="82.03,-196.07 83.19,-185.54 75.72,-193.05 82.03,-196.07"/>
</g>
<!-- Node4 -->
<g id="node4" class="node">
<title>Node4</title>
<g id="a_node4"><a xlink:href="iop_2kernel_2include_2types_8h_source.html" target="_top" xlink:title=" ">
<polygon fill="white" stroke="#666666" points="119.5,-74 72.5,-74 72.5,-55 119.5,-55 119.5,-74"/>
<text text-anchor="middle" x="96" y="-62" font-family="Helvetica,sans-Serif" font-size="10.00">types.h</text>
</a>
</g>
</g>
<!-- Node3&#45;&gt;Node4 -->
<g id="edge3" class="edge">
<title>Node3&#45;&gt;Node4</title>
<path fill="none" stroke="#63b8ff" d="M88.65,-164.66C89.92,-147.57 92.73,-109.61 94.49,-85.92"/>
<polygon fill="#63b8ff" stroke="#63b8ff" points="97.98,-86.2 95.22,-75.97 91,-85.68 97.98,-86.2"/>
</g>
<!-- Node6 -->
<g id="node6" class="node">
<title>Node6</title>
<g id="a_node6"><a xlink:href="irx_8h.html" target="_top" xlink:title=" ">
<polygon fill="white" stroke="#666666" points="139,-129 105,-129 105,-110 139,-110 139,-129"/>
<text text-anchor="middle" x="122" y="-117" font-family="Helvetica,sans-Serif" font-size="10.00">irx.h</text>
</a>
</g>
</g>
<!-- Node3&#45;&gt;Node6 -->
<g id="edge6" class="edge">
<title>Node3&#45;&gt;Node6</title>
<path fill="none" stroke="#63b8ff" d="M93.61,-164.75C98.12,-157.73 104.59,-147.64 110.21,-138.87"/>
<polygon fill="#63b8ff" stroke="#63b8ff" points="112.99,-141.02 115.45,-130.72 107.1,-137.24 112.99,-141.02"/>
</g>
<!-- Node4&#45;&gt;Node2 -->
<g id="edge5" class="edge">
<title>Node4&#45;&gt;Node2</title>
<path fill="none" stroke="#63b8ff" d="M85.14,-54.51C75.89,-46.85 62.38,-35.66 51.29,-26.47"/>
<polygon fill="#63b8ff" stroke="#63b8ff" points="53.8,-24.01 43.86,-20.32 49.33,-29.4 53.8,-24.01"/>
</g>
<!-- Node5 -->
<g id="node5" class="node">
<title>Node5</title>
<g id="a_node5"><a xlink:title=" ">
<polygon fill="#e0e0e0" stroke="#999999" points="133.5,-19 82.5,-19 82.5,0 133.5,0 133.5,-19"/>
<text text-anchor="middle" x="108" y="-7" font-family="Helvetica,sans-Serif" font-size="10.00">stddef.h</text>
</a>
</g>
</g>
<!-- Node4&#45;&gt;Node5 -->
<g id="edge4" class="edge">
<title>Node4&#45;&gt;Node5</title>
<path fill="none" stroke="#63b8ff" d="M97.98,-54.75C99.47,-48.19 101.56,-38.95 103.45,-30.6"/>
<polygon fill="#63b8ff" stroke="#63b8ff" points="106.85,-31.44 105.64,-20.92 100.02,-29.9 106.85,-31.44"/>
</g>
<!-- Node6&#45;&gt;Node4 -->
<g id="edge7" class="edge">
<title>Node6&#45;&gt;Node4</title>
<path fill="none" stroke="#63b8ff" d="M117.71,-109.75C114.38,-102.96 109.64,-93.3 105.44,-84.73"/>
<polygon fill="#63b8ff" stroke="#63b8ff" points="108.6,-83.24 101.05,-75.8 102.32,-86.32 108.6,-83.24"/>
</g>
</g>
</svg>
