<?xml version="1.0" encoding="UTF-8" standalone="no"?>
<!DOCTYPE svg PUBLIC "-//W3C//DTD SVG 1.1//EN"
 "http://www.w3.org/Graphics/SVG/1.1/DTD/svg11.dtd">
<!-- Generated by graphviz version 7.0.5 (20221223.1930)
 -->
<!-- Title: ee/kernel/include/iopheap.h Pages: 1 -->
<svg width="1133pt" height="93pt"
 viewBox="0.00 0.00 1133.00 93.00" xmlns="http://www.w3.org/2000/svg" xmlns:xlink="http://www.w3.org/1999/xlink">
<g id="graph0" class="graph" transform="scale(1 1) rotate(0) translate(4 89)">
<title>ee/kernel/include/iopheap.h</title>
<!-- Node1 -->
<g id="node1" class="node">
<title>Node1</title>
<g id="a_node1"><a xlink:title=" ">
<polygon fill="#999999" stroke="#666666" points="629,-85 495,-85 495,-66 629,-66 629,-85"/>
<text text-anchor="middle" x="562" y="-73" font-family="Helvetica,sans-Serif" font-size="10.00">ee/kernel/include/iopheap.h</text>
</a>
</g>
</g>
<!-- Node2 -->
<g id="node2" class="node">
<title>Node2</title>
<g id="a_node2"><a xlink:href="_sif_iop_reboot_buffer_8c.html" target="_top" xlink:title=" ">
<polygon fill="white" stroke="#666666" points="146,-30 0,-30 0,0 146,0 146,-30"/>
<text text-anchor="start" x="8" y="-18" font-family="Helvetica,sans-Serif" font-size="10.00">ee/iopreboot/src/SifIopReboot</text>
<text text-anchor="middle" x="73" y="-7" font-family="Helvetica,sans-Serif" font-size="10.00">Buffer.c</text>
</a>
</g>
</g>
<!-- Node1&#45;&gt;Node2 -->
<g id="edge1" class="edge">
<title>Node1&#45;&gt;Node2</title>
<path fill="none" stroke="#63b8ff" d="M483.26,-67.31C401.15,-59.48 268.79,-45.92 155,-30 152.14,-29.6 149.23,-29.18 146.28,-28.74"/>
<polygon fill="#63b8ff" stroke="#63b8ff" points="482.72,-70.77 493,-68.23 483.38,-63.8 482.72,-70.77"/>
</g>
<!-- Node3 -->
<g id="node3" class="node">
<title>Node3</title>
<g id="a_node3"><a xlink:href="iopheap_8c_source.html" target="_top" xlink:title=" ">
<polygon fill="white" stroke="#666666" points="281.5,-24.5 164.5,-24.5 164.5,-5.5 281.5,-5.5 281.5,-24.5"/>
<text text-anchor="middle" x="223" y="-12.5" font-family="Helvetica,sans-Serif" font-size="10.00">ee/kernel/src/iopheap.c</text>
</a>
</g>
</g>
<!-- Node1&#45;&gt;Node3 -->
<g id="edge2" class="edge">
<title>Node1&#45;&gt;Node3</title>
<path fill="none" stroke="#63b8ff" d="M491.07,-63.77C436.1,-55.24 358.07,-42.67 290,-30 281.71,-28.46 272.86,-26.69 264.4,-24.95"/>
<polygon fill="#63b8ff" stroke="#63b8ff" points="490.53,-67.23 500.95,-65.29 491.6,-60.31 490.53,-67.23"/>
</g>
<!-- Node4 -->
<g id="node4" class="node">
<title>Node4</title>
<g id="a_node4"><a xlink:href="ee_2kernel_2src_2loadfile_8c.html" target="_top" xlink:title=" ">
<polygon fill="white" stroke="#666666" points="412.5,-24.5 299.5,-24.5 299.5,-5.5 412.5,-5.5 412.5,-24.5"/>
<text text-anchor="middle" x="356" y="-12.5" font-family="Helvetica,sans-Serif" font-size="10.00">ee/kernel/src/loadfile.c</text>
</a>
</g>
</g>
<!-- Node1&#45;&gt;Node4 -->
<g id="edge3" class="edge">
<title>Node1&#45;&gt;Node4</title>
<path fill="none" stroke="#63b8ff" d="M519.67,-62.48C480.43,-51.34 422.94,-35.01 387.58,-24.97"/>
<polygon fill="#63b8ff" stroke="#63b8ff" points="518.68,-65.84 529.26,-65.2 520.59,-59.1 518.68,-65.84"/>
</g>
<!-- Node5 -->
<g id="node5" class="node">
<title>Node5</title>
<g id="a_node5"><a xlink:href="audsrv__rpc_8c.html" target="_top" xlink:title=" ">
<polygon fill="white" stroke="#666666" points="555.5,-30 430.5,-30 430.5,0 555.5,0 555.5,-30"/>
<text text-anchor="start" x="438.5" y="-18" font-family="Helvetica,sans-Serif" font-size="10.00">ee/rpc/audsrv/src/audsrv</text>
<text text-anchor="middle" x="493" y="-7" font-family="Helvetica,sans-Serif" font-size="10.00">_rpc.c</text>
</a>
</g>
</g>
<!-- Node1&#45;&gt;Node5 -->
<g id="edge4" class="edge">
<title>Node1&#45;&gt;Node5</title>
<path fill="none" stroke="#63b8ff" d="M542.85,-58.27C532.56,-49.54 519.98,-38.87 510.03,-30.44"/>
<polygon fill="#63b8ff" stroke="#63b8ff" points="540.47,-60.84 550.37,-64.64 545,-55.5 540.47,-60.84"/>
</g>
<!-- Node6 -->
<g id="node6" class="node">
<title>Node6</title>
<g id="a_node6"><a xlink:href="libhdd_8c_source.html" target="_top" xlink:title=" ">
<polygon fill="white" stroke="#666666" points="688.5,-24.5 573.5,-24.5 573.5,-5.5 688.5,-5.5 688.5,-24.5"/>
<text text-anchor="middle" x="631" y="-12.5" font-family="Helvetica,sans-Serif" font-size="10.00">ee/rpc/hdd/src/libhdd.c</text>
</a>
</g>
</g>
<!-- Node1&#45;&gt;Node6 -->
<g id="edge5" class="edge">
<title>Node1&#45;&gt;Node6</title>
<path fill="none" stroke="#63b8ff" d="M580.97,-58.41C593.69,-47.64 609.95,-33.85 620.42,-24.97"/>
<polygon fill="#63b8ff" stroke="#63b8ff" points="579,-55.5 573.63,-64.64 583.53,-60.84 579,-55.5"/>
</g>
<!-- Node7 -->
<g id="node7" class="node">
<title>Node7</title>
<g id="a_node7"><a xlink:href="ee_2rpc_2ps2snd_2src_2ps2snd_8c_source.html" target="_top" xlink:title=" ">
<polygon fill="white" stroke="#666666" points="843.5,-24.5 706.5,-24.5 706.5,-5.5 843.5,-5.5 843.5,-24.5"/>
<text text-anchor="middle" x="775" y="-12.5" font-family="Helvetica,sans-Serif" font-size="10.00">ee/rpc/ps2snd/src/ps2snd.c</text>
</a>
</g>
</g>
<!-- Node1&#45;&gt;Node7 -->
<g id="edge6" class="edge">
<title>Node1&#45;&gt;Node7</title>
<path fill="none" stroke="#63b8ff" d="M605.25,-62.62C645.83,-51.48 705.62,-35.05 742.35,-24.97"/>
<polygon fill="#63b8ff" stroke="#63b8ff" points="604.53,-59.19 595.81,-65.21 606.38,-65.94 604.53,-59.19"/>
</g>
<!-- Node8 -->
<g id="node8" class="node">
<title>Node8</title>
<g id="a_node8"><a xlink:href="patch__enable__lmb_8c.html" target="_top" xlink:title=" ">
<polygon fill="white" stroke="#666666" points="984.5,-30 861.5,-30 861.5,0 984.5,0 984.5,-30"/>
<text text-anchor="start" x="869.5" y="-18" font-family="Helvetica,sans-Serif" font-size="10.00">ee/sbv/src/patch_enable</text>
<text text-anchor="middle" x="923" y="-7" font-family="Helvetica,sans-Serif" font-size="10.00">_lmb.c</text>
</a>
</g>
</g>
<!-- Node1&#45;&gt;Node8 -->
<g id="edge7" class="edge">
<title>Node1&#45;&gt;Node8</title>
<path fill="none" stroke="#63b8ff" d="M637.35,-63.94C696.19,-55.46 779.95,-42.88 853,-30 855.69,-29.53 858.43,-29.03 861.19,-28.52"/>
<polygon fill="#63b8ff" stroke="#63b8ff" points="637.19,-60.43 627.79,-65.31 638.18,-67.36 637.19,-60.43"/>
</g>
<!-- Node9 -->
<g id="node9" class="node">
<title>Node9</title>
<g id="a_node9"><a xlink:href="patch__fileio_8c_source.html" target="_top" xlink:title=" ">
<polygon fill="white" stroke="#666666" points="1125,-24.5 1003,-24.5 1003,-5.5 1125,-5.5 1125,-24.5"/>
<text text-anchor="middle" x="1064" y="-12.5" font-family="Helvetica,sans-Serif" font-size="10.00">ee/sbv/src/patch_fileio.c</text>
</a>
</g>
</g>
<!-- Node1&#45;&gt;Node9 -->
<g id="edge8" class="edge">
<title>Node1&#45;&gt;Node9</title>
<path fill="none" stroke="#63b8ff" d="M640.56,-68.66C727.35,-61.68 871.11,-48.58 994,-30 1003.31,-28.59 1013.27,-26.79 1022.66,-24.94"/>
<polygon fill="#63b8ff" stroke="#63b8ff" points="640.42,-65.16 630.73,-69.44 640.98,-72.14 640.42,-65.16"/>
</g>
</g>
</svg>
