<?xml version="1.0" encoding="UTF-8" standalone="no"?>
<!DOCTYPE svg PUBLIC "-//W3C//DTD SVG 1.1//EN"
 "http://www.w3.org/Graphics/SVG/1.1/DTD/svg11.dtd">
<!-- Generated by graphviz version 7.0.5 (20221223.1930)
 -->
<!-- Title: iop/system/iopmgr/include/iopmgr.h Pages: 1 -->
<svg width="365pt" height="258pt"
 viewBox="0.00 0.00 365.00 258.00" xmlns="http://www.w3.org/2000/svg" xmlns:xlink="http://www.w3.org/1999/xlink">
<g id="graph0" class="graph" transform="scale(1 1) rotate(0) translate(4 254)">
<title>iop/system/iopmgr/include/iopmgr.h</title>
<!-- Node1 -->
<g id="node1" class="node">
<title>Node1</title>
<g id="a_node1"><a xlink:title=" ">
<polygon fill="#999999" stroke="#666666" points="189.5,-250 59.5,-250 59.5,-220 189.5,-220 189.5,-250"/>
<text text-anchor="start" x="67.5" y="-238" font-family="Helvetica,sans-Serif" font-size="10.00">iop/system/iopmgr/include</text>
<text text-anchor="middle" x="124.5" y="-227" font-family="Helvetica,sans-Serif" font-size="10.00">/iopmgr.h</text>
</a>
</g>
</g>
<!-- Node2 -->
<g id="node2" class="node">
<title>Node2</title>
<g id="a_node2"><a xlink:title=" ">
<polygon fill="#e0e0e0" stroke="#999999" points="47,-184 0,-184 0,-165 47,-165 47,-184"/>
<text text-anchor="middle" x="23.5" y="-172" font-family="Helvetica,sans-Serif" font-size="10.00">types.h</text>
</a>
</g>
</g>
<!-- Node1&#45;&gt;Node2 -->
<g id="edge1" class="edge">
<title>Node1&#45;&gt;Node2</title>
<path fill="none" stroke="#63b8ff" d="M99.53,-219.54C84.06,-210.58 64.25,-199.1 48.73,-190.11"/>
<polygon fill="#63b8ff" stroke="#63b8ff" points="50.49,-187.09 40.08,-185.1 46.98,-193.15 50.49,-187.09"/>
</g>
<!-- Node3 -->
<g id="node3" class="node">
<title>Node3</title>
<g id="a_node3"><a xlink:href="irx_8h.html" target="_top" xlink:title=" ">
<polygon fill="white" stroke="#666666" points="167.5,-129 133.5,-129 133.5,-110 167.5,-110 167.5,-129"/>
<text text-anchor="middle" x="150.5" y="-117" font-family="Helvetica,sans-Serif" font-size="10.00">irx.h</text>
</a>
</g>
</g>
<!-- Node1&#45;&gt;Node3 -->
<g id="edge2" class="edge">
<title>Node1&#45;&gt;Node3</title>
<path fill="none" stroke="#63b8ff" d="M127.79,-219.63C132.4,-199.49 140.8,-162.83 145.99,-140.18"/>
<polygon fill="#63b8ff" stroke="#63b8ff" points="149.34,-141.23 148.16,-130.7 142.52,-139.67 149.34,-141.23"/>
</g>
<!-- Node7 -->
<g id="node7" class="node">
<title>Node7</title>
<g id="a_node7"><a xlink:href="ioman_8h.html" target="_top" xlink:title=" ">
<polygon fill="white" stroke="#666666" points="232.5,-184 182.5,-184 182.5,-165 232.5,-165 232.5,-184"/>
<text text-anchor="middle" x="207.5" y="-172" font-family="Helvetica,sans-Serif" font-size="10.00">ioman.h</text>
</a>
</g>
</g>
<!-- Node1&#45;&gt;Node7 -->
<g id="edge6" class="edge">
<title>Node1&#45;&gt;Node7</title>
<path fill="none" stroke="#63b8ff" d="M145.02,-219.54C157.44,-210.78 173.27,-199.63 185.89,-190.73"/>
<polygon fill="#63b8ff" stroke="#63b8ff" points="187.8,-193.67 193.95,-185.05 183.76,-187.95 187.8,-193.67"/>
</g>
<!-- Node11 -->
<g id="node11" class="node">
<title>Node11</title>
<g id="a_node11"><a xlink:href="loadcore_8h.html" target="_top" xlink:title=" ">
<polygon fill="white" stroke="#666666" points="126,-184 65,-184 65,-165 126,-165 126,-184"/>
<text text-anchor="middle" x="95.5" y="-172" font-family="Helvetica,sans-Serif" font-size="10.00">loadcore.h</text>
</a>
</g>
</g>
<!-- Node1&#45;&gt;Node11 -->
<g id="edge12" class="edge">
<title>Node1&#45;&gt;Node11</title>
<path fill="none" stroke="#63b8ff" d="M117.33,-219.54C113.55,-211.91 108.86,-202.46 104.8,-194.27"/>
<polygon fill="#63b8ff" stroke="#63b8ff" points="108.05,-192.94 100.47,-185.53 101.78,-196.05 108.05,-192.94"/>
</g>
<!-- Node4 -->
<g id="node4" class="node">
<title>Node4</title>
<g id="a_node4"><a xlink:href="iop_2kernel_2include_2types_8h_source.html" target="_top" xlink:title=" ">
<polygon fill="white" stroke="#666666" points="174,-74 127,-74 127,-55 174,-55 174,-74"/>
<text text-anchor="middle" x="150.5" y="-62" font-family="Helvetica,sans-Serif" font-size="10.00">types.h</text>
</a>
</g>
</g>
<!-- Node3&#45;&gt;Node4 -->
<g id="edge3" class="edge">
<title>Node3&#45;&gt;Node4</title>
<path fill="none" stroke="#63b8ff" d="M150.5,-109.75C150.5,-103.27 150.5,-94.16 150.5,-85.9"/>
<polygon fill="#63b8ff" stroke="#63b8ff" points="154,-85.96 150.5,-75.96 147,-85.96 154,-85.96"/>
</g>
<!-- Node5 -->
<g id="node5" class="node">
<title>Node5</title>
<g id="a_node5"><a xlink:title=" ">
<polygon fill="#e0e0e0" stroke="#999999" points="138,-19 87,-19 87,0 138,0 138,-19"/>
<text text-anchor="middle" x="112.5" y="-7" font-family="Helvetica,sans-Serif" font-size="10.00">stddef.h</text>
</a>
</g>
</g>
<!-- Node4&#45;&gt;Node5 -->
<g id="edge4" class="edge">
<title>Node4&#45;&gt;Node5</title>
<path fill="none" stroke="#63b8ff" d="M144.23,-54.75C139.14,-47.66 131.8,-37.42 125.47,-28.59"/>
<polygon fill="#63b8ff" stroke="#63b8ff" points="128.46,-26.76 119.79,-20.67 122.78,-30.84 128.46,-26.76"/>
</g>
<!-- Node6 -->
<g id="node6" class="node">
<title>Node6</title>
<g id="a_node6"><a xlink:href="tamtypes_8h.html" target="_top" xlink:title=" ">
<polygon fill="white" stroke="#666666" points="220.5,-19 156.5,-19 156.5,0 220.5,0 220.5,-19"/>
<text text-anchor="middle" x="188.5" y="-7" font-family="Helvetica,sans-Serif" font-size="10.00">tamtypes.h</text>
</a>
</g>
</g>
<!-- Node4&#45;&gt;Node6 -->
<g id="edge5" class="edge">
<title>Node4&#45;&gt;Node6</title>
<path fill="none" stroke="#63b8ff" d="M156.77,-54.75C161.86,-47.66 169.2,-37.42 175.53,-28.59"/>
<polygon fill="#63b8ff" stroke="#63b8ff" points="178.22,-30.84 181.21,-20.67 172.54,-26.76 178.22,-30.84"/>
</g>
<!-- Node7&#45;&gt;Node3 -->
<g id="edge8" class="edge">
<title>Node7&#45;&gt;Node3</title>
<path fill="none" stroke="#63b8ff" d="M197.83,-164.51C189.76,-157 178.03,-146.1 168.28,-137.03"/>
<polygon fill="#63b8ff" stroke="#63b8ff" points="170.84,-134.63 161.13,-130.39 166.07,-139.76 170.84,-134.63"/>
</g>
<!-- Node7&#45;&gt;Node4 -->
<g id="edge7" class="edge">
<title>Node7&#45;&gt;Node4</title>
<path fill="none" stroke="#63b8ff" d="M203.49,-164.77C197.77,-152.43 186.81,-129.25 176.5,-110 171.86,-101.32 166.4,-91.89 161.69,-83.95"/>
<polygon fill="#63b8ff" stroke="#63b8ff" points="164.8,-82.33 156.66,-75.55 158.8,-85.93 164.8,-82.33"/>
</g>
<!-- Node8 -->
<g id="node8" class="node">
<title>Node8</title>
<g id="a_node8"><a xlink:href="io__common_8h.html" target="_top" xlink:title=" ">
<polygon fill="white" stroke="#666666" points="297.5,-129 223.5,-129 223.5,-110 297.5,-110 297.5,-129"/>
<text text-anchor="middle" x="260.5" y="-117" font-family="Helvetica,sans-Serif" font-size="10.00">io_common.h</text>
</a>
</g>
</g>
<!-- Node7&#45;&gt;Node8 -->
<g id="edge9" class="edge">
<title>Node7&#45;&gt;Node8</title>
<path fill="none" stroke="#63b8ff" d="M216.25,-164.75C223.65,-157.35 234.46,-146.54 243.55,-137.45"/>
<polygon fill="#63b8ff" stroke="#63b8ff" points="245.89,-140.06 250.49,-130.51 240.94,-135.11 245.89,-140.06"/>
</g>
<!-- Node9 -->
<g id="node9" class="node">
<title>Node9</title>
<g id="a_node9"><a xlink:href="fcntl_8h_source.html" target="_top" xlink:title=" ">
<polygon fill="white" stroke="#666666" points="357,-74 296,-74 296,-55 357,-55 357,-74"/>
<text text-anchor="middle" x="326.5" y="-62" font-family="Helvetica,sans-Serif" font-size="10.00">sys/fcntl.h</text>
</a>
</g>
</g>
<!-- Node8&#45;&gt;Node9 -->
<g id="edge10" class="edge">
<title>Node8&#45;&gt;Node9</title>
<path fill="none" stroke="#63b8ff" d="M271.7,-109.51C281.24,-101.85 295.17,-90.66 306.61,-81.47"/>
<polygon fill="#63b8ff" stroke="#63b8ff" points="308.68,-84.3 314.29,-75.31 304.3,-78.84 308.68,-84.3"/>
</g>
<!-- Node10 -->
<g id="node10" class="node">
<title>Node10</title>
<g id="a_node10"><a xlink:href="unistd_8h_source.html" target="_top" xlink:title=" ">
<polygon fill="white" stroke="#666666" points="277.5,-74 209.5,-74 209.5,-55 277.5,-55 277.5,-74"/>
<text text-anchor="middle" x="243.5" y="-62" font-family="Helvetica,sans-Serif" font-size="10.00">sys/unistd.h</text>
</a>
</g>
</g>
<!-- Node8&#45;&gt;Node10 -->
<g id="edge11" class="edge">
<title>Node8&#45;&gt;Node10</title>
<path fill="none" stroke="#63b8ff" d="M257.69,-109.75C255.56,-103.11 252.56,-93.73 249.86,-85.31"/>
<polygon fill="#63b8ff" stroke="#63b8ff" points="253.22,-84.34 246.83,-75.88 246.55,-86.47 253.22,-84.34"/>
</g>
<!-- Node11&#45;&gt;Node3 -->
<g id="edge14" class="edge">
<title>Node11&#45;&gt;Node3</title>
<path fill="none" stroke="#63b8ff" d="M104.58,-164.75C112.34,-157.27 123.71,-146.32 133.2,-137.17"/>
<polygon fill="#63b8ff" stroke="#63b8ff" points="135.36,-139.95 140.13,-130.49 130.5,-134.91 135.36,-139.95"/>
</g>
<!-- Node11&#45;&gt;Node4 -->
<g id="edge13" class="edge">
<title>Node11&#45;&gt;Node4</title>
<path fill="none" stroke="#63b8ff" d="M99.17,-164.74C104.43,-152.37 114.57,-129.15 124.5,-110 129.03,-101.26 134.47,-91.82 139.2,-83.89"/>
<polygon fill="#63b8ff" stroke="#63b8ff" points="142.08,-85.88 144.27,-75.51 136.1,-82.25 142.08,-85.88"/>
</g>
</g>
</svg>
