<?xml version="1.0" encoding="UTF-8" standalone="no"?>
<!DOCTYPE svg PUBLIC "-//W3C//DTD SVG 1.1//EN"
 "http://www.w3.org/Graphics/SVG/1.1/DTD/svg11.dtd">
<!-- Generated by graphviz version 7.0.5 (20221223.1930)
 -->
<!-- Title: iop/system/iopmgr/include/iopmgr.h Pages: 1 -->
<!--zoomable 104 -->
<svg id="main" version="1.1" xmlns="http://www.w3.org/2000/svg" xmlns:xlink="http://www.w3.org/1999/xlink" xml:space="preserve" onload="init(evt)">
<style type="text/css"><![CDATA[
.edge:hover path { stroke: red; }
.edge:hover polygon { stroke: red; fill: red; }
]]></style>
<script type="text/javascript"><![CDATA[
var edges = document.getElementsByTagName('g');
if (edges && edges.length) {
  for (var i=0;i<edges.length;i++) {
    if (edges[i].id.substr(0,4)=='edge') {
      edges[i].setAttribute('class','edge');
    }
  }
}
]]></script>
        <defs>
                <circle id="rim" cx="0" cy="0" r="7"/>
                <circle id="rim2" cx="0" cy="0" r="3.5"/>
                <g id="zoomPlus">
                        <use xlink:href="#rim" fill="#404040">
                                <set attributeName="fill" to="#808080" begin="zoomplus.mouseover" end="zoomplus.mouseout"/>
                        </use>
                        <path d="M-4,0h8M0,-4v8" fill="none" stroke="white" stroke-width="1.5" pointer-events="none"/>
                </g>
                <g id="zoomMin">
                        <use xlink:href="#rim" fill="#404040">
                                <set attributeName="fill" to="#808080" begin="zoomminus.mouseover" end="zoomminus.mouseout"/>
                        </use>
                        <path d="M-4,0h8" fill="none" stroke="white" stroke-width="1.5" pointer-events="none"/>
                </g>
                <g id="dirArrow">
                        <path fill="none" stroke="white" stroke-width="1.5" d="M0,-3.0v7 M-2.5,-0.5L0,-3.0L2.5,-0.5"/>
                </g>
               <g id="resetDef">
                       <use xlink:href="#rim2" fill="#404040">
                               <set attributeName="fill" to="#808080" begin="reset.mouseover" end="reset.mouseout"/>
                       </use>
               </g>
        </defs>

<script type="text/javascript">
var viewWidth = 1060;
var viewHeight = 104;
var sectionId = 'dynsection-1';
</script>
<script xlink:href="svgpan.js"/>
<svg id="graph" class="graph">
<g id="viewport">
<title>iop/system/iopmgr/include/iopmgr.h</title>
<!-- Node1 -->
<g id="node1" class="node">
<title>Node1</title>
<g id="a_node1"><a xlink:title=" ">
<polygon fill="#999999" stroke="#666666" points="601.5,-96 471.5,-96 471.5,-66 601.5,-66 601.5,-96"/>
<text text-anchor="start" x="479.5" y="-84" font-family="Helvetica,sans-Serif" font-size="10.00">iop/system/iopmgr/include</text>
<text text-anchor="middle" x="536.5" y="-73" font-family="Helvetica,sans-Serif" font-size="10.00">/iopmgr.h</text>
</a>
</g>
</g>
<!-- Node2 -->
<g id="node2" class="node">
<title>Node2</title>
<g id="a_node2"><a xlink:href="devscan_8c.html" target="_top" xlink:title=" ">
<polygon fill="white" stroke="#666666" points="129,-24.5 0,-24.5 0,-5.5 129,-5.5 129,-24.5"/>
<text text-anchor="middle" x="64.5" y="-12.5" font-family="Helvetica,sans-Serif" font-size="10.00">iop/fs/netfs/src/devscan.c</text>
</a>
</g>
</g>
<!-- Node1&#45;&gt;Node2 -->
<g id="edge1" class="edge">
<title>Node1&#45;&gt;Node2</title>
<path fill="none" stroke="#63b8ff" d="M459.99,-71.9C379.51,-63.04 249.29,-47.7 137.5,-30 128.2,-28.53 118.26,-26.75 108.81,-24.98"/>
<polygon fill="#63b8ff" stroke="#63b8ff" points="459.18,-75.34 469.5,-72.95 459.94,-68.38 459.18,-75.34"/>
</g>
<!-- Node3 -->
<g id="node3" class="node">
<title>Node3</title>
<g id="a_node3"><a xlink:href="ps2__fio_8c.html" target="_top" xlink:title=" ">
<polygon fill="white" stroke="#666666" points="248,-30 147,-30 147,0 248,0 248,-30"/>
<text text-anchor="start" x="155" y="-18" font-family="Helvetica,sans-Serif" font-size="10.00">iop/fs/netfs/src/ps2</text>
<text text-anchor="middle" x="197.5" y="-7" font-family="Helvetica,sans-Serif" font-size="10.00">_fio.c</text>
</a>
</g>
</g>
<!-- Node1&#45;&gt;Node3 -->
<g id="edge2" class="edge">
<title>Node1&#45;&gt;Node3</title>
<path fill="none" stroke="#63b8ff" d="M459.92,-67.38C403.74,-57.85 325.7,-44.06 257.5,-30 254.46,-29.37 251.34,-28.71 248.2,-28.02"/>
<polygon fill="#63b8ff" stroke="#63b8ff" points="459.27,-70.82 469.71,-69.03 460.44,-63.91 459.27,-70.82"/>
</g>
<!-- Node4 -->
<g id="node4" class="node">
<title>Node4</title>
<g id="a_node4"><a xlink:href="ps2netfs_8c.html" target="_top" xlink:title=" ">
<polygon fill="white" stroke="#666666" points="396.5,-24.5 266.5,-24.5 266.5,-5.5 396.5,-5.5 396.5,-24.5"/>
<text text-anchor="middle" x="331.5" y="-12.5" font-family="Helvetica,sans-Serif" font-size="10.00">iop/fs/netfs/src/ps2netfs.c</text>
</a>
</g>
</g>
<!-- Node1&#45;&gt;Node4 -->
<g id="edge3" class="edge">
<title>Node1&#45;&gt;Node4</title>
<path fill="none" stroke="#63b8ff" d="M479.61,-62.24C440.8,-50.12 391.03,-34.59 360.21,-24.96"/>
<polygon fill="#63b8ff" stroke="#63b8ff" points="478.2,-65.47 488.79,-65.11 480.29,-58.79 478.2,-65.47"/>
</g>
<!-- Node5 -->
<g id="node5" class="node">
<title>Node5</title>
<g id="a_node5"><a xlink:href="commandline_8c.html" target="_top" xlink:title=" ">
<polygon fill="white" stroke="#666666" points="528,-30 415,-30 415,0 528,0 528,-30"/>
<text text-anchor="start" x="423" y="-18" font-family="Helvetica,sans-Serif" font-size="10.00">iop/system/iopmgr/src</text>
<text text-anchor="middle" x="471.5" y="-7" font-family="Helvetica,sans-Serif" font-size="10.00">/commandline.c</text>
</a>
</g>
</g>
<!-- Node1&#45;&gt;Node5 -->
<g id="edge4" class="edge">
<title>Node1&#45;&gt;Node5</title>
<path fill="none" stroke="#63b8ff" d="M513.96,-57.81C504.65,-48.64 494.12,-38.28 485.89,-30.16"/>
<polygon fill="#63b8ff" stroke="#63b8ff" points="511.41,-60.21 521,-64.73 516.33,-55.22 511.41,-60.21"/>
</g>
<!-- Node6 -->
<g id="node6" class="node">
<title>Node6</title>
<g id="a_node6"><a xlink:href="devices_8c.html" target="_top" xlink:title=" ">
<polygon fill="white" stroke="#666666" points="659,-30 546,-30 546,0 659,0 659,-30"/>
<text text-anchor="start" x="554" y="-18" font-family="Helvetica,sans-Serif" font-size="10.00">iop/system/iopmgr/src</text>
<text text-anchor="middle" x="602.5" y="-7" font-family="Helvetica,sans-Serif" font-size="10.00">/devices.c</text>
</a>
</g>
</g>
<!-- Node1&#45;&gt;Node6 -->
<g id="edge5" class="edge">
<title>Node1&#45;&gt;Node6</title>
<path fill="none" stroke="#63b8ff" d="M559.39,-57.81C568.84,-48.64 579.53,-38.28 587.89,-30.16"/>
<polygon fill="#63b8ff" stroke="#63b8ff" points="556.98,-55.27 552.23,-64.74 561.85,-60.29 556.98,-55.27"/>
</g>
<!-- Node7 -->
<g id="node7" class="node">
<title>Node7</title>
<g id="a_node7"><a xlink:href="iop_2system_2iopmgr_2src_2main_8c.html" target="_top" xlink:title=" ">
<polygon fill="white" stroke="#666666" points="790,-30 677,-30 677,0 790,0 790,-30"/>
<text text-anchor="start" x="685" y="-18" font-family="Helvetica,sans-Serif" font-size="10.00">iop/system/iopmgr/src</text>
<text text-anchor="middle" x="733.5" y="-7" font-family="Helvetica,sans-Serif" font-size="10.00">/main.c</text>
</a>
</g>
</g>
<!-- Node1&#45;&gt;Node7 -->
<g id="edge6" class="edge">
<title>Node1&#45;&gt;Node7</title>
<path fill="none" stroke="#63b8ff" d="M591.29,-62.2C622.13,-52.18 660.14,-39.83 689.1,-30.43"/>
<polygon fill="#63b8ff" stroke="#63b8ff" points="590.58,-58.75 582.15,-65.17 592.74,-65.41 590.58,-58.75"/>
</g>
<!-- Node8 -->
<g id="node8" class="node">
<title>Node8</title>
<g id="a_node8"><a xlink:href="iop_2system_2iopmgr_2src_2slib_8c.html" target="_top" xlink:title=" ">
<polygon fill="white" stroke="#666666" points="921,-30 808,-30 808,0 921,0 921,-30"/>
<text text-anchor="start" x="816" y="-18" font-family="Helvetica,sans-Serif" font-size="10.00">iop/system/iopmgr/src</text>
<text text-anchor="middle" x="864.5" y="-7" font-family="Helvetica,sans-Serif" font-size="10.00">/slib.c</text>
</a>
</g>
</g>
<!-- Node1&#45;&gt;Node8 -->
<g id="edge7" class="edge">
<title>Node1&#45;&gt;Node8</title>
<path fill="none" stroke="#63b8ff" d="M613.22,-65.92C665.73,-56.16 736.91,-42.69 799.5,-30 802.22,-29.45 804.99,-28.88 807.8,-28.3"/>
<polygon fill="#63b8ff" stroke="#63b8ff" points="612.66,-62.47 603.46,-67.73 613.93,-69.35 612.66,-62.47"/>
</g>
<!-- Node9 -->
<g id="node9" class="node">
<title>Node9</title>
<g id="a_node9"><a xlink:href="iop_2system_2iopmgr_2src_2smod_8c.html" target="_top" xlink:title=" ">
<polygon fill="white" stroke="#666666" points="1052,-30 939,-30 939,0 1052,0 1052,-30"/>
<text text-anchor="start" x="947" y="-18" font-family="Helvetica,sans-Serif" font-size="10.00">iop/system/iopmgr/src</text>
<text text-anchor="middle" x="995.5" y="-7" font-family="Helvetica,sans-Serif" font-size="10.00">/smod.c</text>
</a>
</g>
</g>
<!-- Node1&#45;&gt;Node9 -->
<g id="edge8" class="edge">
<title>Node1&#45;&gt;Node9</title>
<path fill="none" stroke="#63b8ff" d="M613.33,-72.23C692.95,-63.71 820.86,-48.73 930.5,-30 933.23,-29.53 936.02,-29.03 938.84,-28.5"/>
<polygon fill="#63b8ff" stroke="#63b8ff" points="613.02,-68.74 603.44,-73.28 613.76,-75.7 613.02,-68.74"/>
</g>
</g>
</svg>
        <g id="navigator" transform="translate(0 0)" fill="#404254">
                <rect fill="#f2f5e9" fill-opacity="0.5" stroke="#606060" stroke-width=".5" x="0" y="0" width="60" height="60"/>
                <use id="zoomplus" xlink:href="#zoomPlus" x="17" y="9" onmousedown="handleZoom(evt,'in')"/>
                <use id="zoomminus" xlink:href="#zoomMin" x="42" y="9" onmousedown="handleZoom(evt,'out')"/>
                <use id="reset" xlink:href="#resetDef" x="30" y="36" onmousedown="handleReset()"/>
                <g id="arrowUp" xlink:href="#dirArrow" transform="translate(30 24)" onmousedown="handlePan(0,-1)">
                  <use xlink:href="#rim" fill="#404040">
                        <set attributeName="fill" to="#808080" begin="arrowUp.mouseover" end="arrowUp.mouseout"/>
                  </use>
                  <path fill="none" stroke="white" stroke-width="1.5" d="M0,-3.0v7 M-2.5,-0.5L0,-3.0L2.5,-0.5"/>
                </g>
                <g id="arrowRight" xlink:href="#dirArrow" transform="rotate(90) translate(36 -43)" onmousedown="handlePan(1,0)">
                  <use xlink:href="#rim" fill="#404040">
                        <set attributeName="fill" to="#808080" begin="arrowRight.mouseover" end="arrowRight.mouseout"/>
                  </use>
                  <path fill="none" stroke="white" stroke-width="1.5" d="M0,-3.0v7 M-2.5,-0.5L0,-3.0L2.5,-0.5"/>
                </g>
                <g id="arrowDown" xlink:href="#dirArrow" transform="rotate(180) translate(-30 -48)" onmousedown="handlePan(0,1)">
                  <use xlink:href="#rim" fill="#404040">
                        <set attributeName="fill" to="#808080" begin="arrowDown.mouseover" end="arrowDown.mouseout"/>
                  </use>
                  <path fill="none" stroke="white" stroke-width="1.5" d="M0,-3.0v7 M-2.5,-0.5L0,-3.0L2.5,-0.5"/>
                </g>
                <g id="arrowLeft" xlink:href="#dirArrow" transform="rotate(270) translate(-36 17)" onmousedown="handlePan(-1,0)">
                  <use xlink:href="#rim" fill="#404040">
                        <set attributeName="fill" to="#808080" begin="arrowLeft.mouseover" end="arrowLeft.mouseout"/>
                  </use>
                  <path fill="none" stroke="white" stroke-width="1.5" d="M0,-3.0v7 M-2.5,-0.5L0,-3.0L2.5,-0.5"/>
                </g>
        </g>
        <svg viewBox="0 0 15 15" width="100%" height="30px" preserveAspectRatio="xMaxYMin meet">
         <g id="arrow_out" transform="scale(0.3 0.3)">
          <a xlink:href="iopmgr_8h__dep__incl_org.svg" target="_base">
           <rect id="button" ry="5" rx="5" y="6" x="6" height="38" width="38"
                fill="#f2f5e9" fill-opacity="0.5" stroke="#606060" stroke-width="1.0"/>
           <path id="arrow"
             d="M 11.500037,31.436501 C 11.940474,20.09759 22.043105,11.32322 32.158766,21.979434 L 37.068811,17.246167 C 37.068811,17.246167 37.088388,32 37.088388,32 L 22.160133,31.978069 C 22.160133,31.978069 26.997745,27.140456 26.997745,27.140456 C 18.528582,18.264221 13.291696,25.230495 11.500037,31.436501 z"
             style="fill:#404040;"/>
          </a>
         </g>
        </svg>
</svg>
