<?xml version="1.0" encoding="UTF-8" standalone="no"?>
<!DOCTYPE svg PUBLIC "-//W3C//DTD SVG 1.1//EN"
 "http://www.w3.org/Graphics/SVG/1.1/DTD/svg11.dtd">
<!-- Generated by graphviz version 7.0.5 (20221223.1930)
 -->
<!-- Title: iop/debug/ioptrap/src/ioptrap.c Pages: 1 -->
<svg width="671pt" height="258pt"
 viewBox="0.00 0.00 671.00 258.00" xmlns="http://www.w3.org/2000/svg" xmlns:xlink="http://www.w3.org/1999/xlink">
<g id="graph0" class="graph" transform="scale(1 1) rotate(0) translate(4 254)">
<title>iop/debug/ioptrap/src/ioptrap.c</title>
<!-- Node1 -->
<g id="node1" class="node">
<title>Node1</title>
<g id="a_node1"><a xlink:title=" ">
<polygon fill="#999999" stroke="#666666" points="341,-250 234,-250 234,-220 341,-220 341,-250"/>
<text text-anchor="start" x="242" y="-238" font-family="Helvetica,sans-Serif" font-size="10.00">iop/debug/ioptrap/src</text>
<text text-anchor="middle" x="287.5" y="-227" font-family="Helvetica,sans-Serif" font-size="10.00">/ioptrap.c</text>
</a>
</g>
</g>
<!-- Node2 -->
<g id="node2" class="node">
<title>Node2</title>
<g id="a_node2"><a xlink:title=" ">
<polygon fill="#e0e0e0" stroke="#999999" points="115,-129 68,-129 68,-110 115,-110 115,-129"/>
<text text-anchor="middle" x="91.5" y="-117" font-family="Helvetica,sans-Serif" font-size="10.00">types.h</text>
</a>
</g>
</g>
<!-- Node1&#45;&gt;Node2 -->
<g id="edge1" class="edge">
<title>Node1&#45;&gt;Node2</title>
<path fill="none" stroke="#63b8ff" d="M233.57,-229.14C176.05,-222.72 90.51,-209.15 70.5,-184 59.91,-170.69 68.31,-151.83 77.44,-138.12"/>
<polygon fill="#63b8ff" stroke="#63b8ff" points="79.99,-140.57 83.06,-130.43 74.33,-136.44 79.99,-140.57"/>
</g>
<!-- Node3 -->
<g id="node3" class="node">
<title>Node3</title>
<g id="a_node3"><a xlink:href="defs_8h.html" target="_top" xlink:title=" ">
<polygon fill="white" stroke="#666666" points="43,-129 0,-129 0,-110 43,-110 43,-129"/>
<text text-anchor="middle" x="21.5" y="-117" font-family="Helvetica,sans-Serif" font-size="10.00">defs.h</text>
</a>
</g>
</g>
<!-- Node1&#45;&gt;Node3 -->
<g id="edge2" class="edge">
<title>Node1&#45;&gt;Node3</title>
<path fill="none" stroke="#63b8ff" d="M233.84,-233.34C185.15,-230.29 113.41,-219.43 62.5,-184 46.86,-173.12 35.77,-154.15 29.11,-139.78"/>
<polygon fill="#63b8ff" stroke="#63b8ff" points="32.45,-138.68 25.3,-130.86 26.01,-141.43 32.45,-138.68"/>
</g>
<!-- Node7 -->
<g id="node7" class="node">
<title>Node7</title>
<g id="a_node7"><a xlink:href="irx_8h.html" target="_top" xlink:title=" ">
<polygon fill="white" stroke="#666666" points="389.5,-129 355.5,-129 355.5,-110 389.5,-110 389.5,-129"/>
<text text-anchor="middle" x="372.5" y="-117" font-family="Helvetica,sans-Serif" font-size="10.00">irx.h</text>
</a>
</g>
</g>
<!-- Node1&#45;&gt;Node7 -->
<g id="edge6" class="edge">
<title>Node1&#45;&gt;Node7</title>
<path fill="none" stroke="#63b8ff" d="M328.13,-219.55C344.2,-211.65 361.06,-200.11 370.5,-184 378.11,-171.02 378.17,-153.84 376.58,-140.63"/>
<polygon fill="#63b8ff" stroke="#63b8ff" points="380.06,-140.23 374.98,-130.93 373.15,-141.37 380.06,-140.23"/>
</g>
<!-- Node8 -->
<g id="node8" class="node">
<title>Node8</title>
<g id="a_node8"><a xlink:href="ioptrap_8h.html" target="_top" xlink:title=" ">
<polygon fill="white" stroke="#666666" points="133,-184 80,-184 80,-165 133,-165 133,-184"/>
<text text-anchor="middle" x="106.5" y="-172" font-family="Helvetica,sans-Serif" font-size="10.00">ioptrap.h</text>
</a>
</g>
</g>
<!-- Node1&#45;&gt;Node8 -->
<g id="edge8" class="edge">
<title>Node1&#45;&gt;Node8</title>
<path fill="none" stroke="#63b8ff" d="M242.76,-219.54C212.45,-209.74 172.84,-196.94 144.14,-187.67"/>
<polygon fill="#63b8ff" stroke="#63b8ff" points="145.37,-184.39 134.78,-184.64 143.22,-191.05 145.37,-184.39"/>
</g>
<!-- Node9 -->
<g id="node9" class="node">
<title>Node9</title>
<g id="a_node9"><a xlink:href="excepman_8h.html" target="_top" xlink:title=" ">
<polygon fill="white" stroke="#666666" points="361.5,-184 293.5,-184 293.5,-165 361.5,-165 361.5,-184"/>
<text text-anchor="middle" x="327.5" y="-172" font-family="Helvetica,sans-Serif" font-size="10.00">excepman.h</text>
</a>
</g>
</g>
<!-- Node1&#45;&gt;Node9 -->
<g id="edge11" class="edge">
<title>Node1&#45;&gt;Node9</title>
<path fill="none" stroke="#63b8ff" d="M297.39,-219.54C302.78,-211.65 309.51,-201.81 315.24,-193.44"/>
<polygon fill="#63b8ff" stroke="#63b8ff" points="317.96,-195.65 320.71,-185.42 312.18,-191.7 317.96,-195.65"/>
</g>
<!-- Node10 -->
<g id="node10" class="node">
<title>Node10</title>
<g id="a_node10"><a xlink:href="loadcore_8h.html" target="_top" xlink:title=" ">
<polygon fill="white" stroke="#666666" points="479,-184 418,-184 418,-165 479,-165 479,-184"/>
<text text-anchor="middle" x="448.5" y="-172" font-family="Helvetica,sans-Serif" font-size="10.00">loadcore.h</text>
</a>
</g>
</g>
<!-- Node1&#45;&gt;Node10 -->
<g id="edge14" class="edge">
<title>Node1&#45;&gt;Node10</title>
<path fill="none" stroke="#63b8ff" d="M327.3,-219.54C353.74,-209.93 388.14,-197.43 413.53,-188.21"/>
<polygon fill="#63b8ff" stroke="#63b8ff" points="414.53,-191.57 422.73,-184.86 412.14,-184.99 414.53,-191.57"/>
</g>
<!-- Node11 -->
<g id="node11" class="node">
<title>Node11</title>
<g id="a_node11"><a xlink:href="sifman_8h.html" target="_top" xlink:title=" ">
<polygon fill="white" stroke="#666666" points="204,-184 151,-184 151,-165 204,-165 204,-184"/>
<text text-anchor="middle" x="177.5" y="-172" font-family="Helvetica,sans-Serif" font-size="10.00">sifman.h</text>
</a>
</g>
</g>
<!-- Node1&#45;&gt;Node11 -->
<g id="edge17" class="edge">
<title>Node1&#45;&gt;Node11</title>
<path fill="none" stroke="#63b8ff" d="M260.31,-219.54C243.13,-210.4 221.05,-198.66 204,-189.6"/>
<polygon fill="#63b8ff" stroke="#63b8ff" points="205.94,-186.66 195.47,-185.06 202.66,-192.84 205.94,-186.66"/>
</g>
<!-- Node12 -->
<g id="node12" class="node">
<title>Node12</title>
<g id="a_node12"><a xlink:href="stdio_8h.html" target="_top" xlink:title=" ">
<polygon fill="white" stroke="#666666" points="542,-184 497,-184 497,-165 542,-165 542,-184"/>
<text text-anchor="middle" x="519.5" y="-172" font-family="Helvetica,sans-Serif" font-size="10.00">stdio.h</text>
</a>
</g>
</g>
<!-- Node1&#45;&gt;Node12 -->
<g id="edge20" class="edge">
<title>Node1&#45;&gt;Node12</title>
<path fill="none" stroke="#63b8ff" d="M341.34,-220.98C379.33,-211.7 431.7,-198.75 485.96,-184.62"/>
<polygon fill="#63b8ff" stroke="#63b8ff" points="486.57,-188.08 495.37,-182.17 484.81,-181.31 486.57,-188.08"/>
</g>
<!-- Node14 -->
<g id="node14" class="node">
<title>Node14</title>
<g id="a_node14"><a xlink:href="sysclib_8h.html" target="_top" xlink:title=" ">
<polygon fill="white" stroke="#666666" points="614.5,-184 560.5,-184 560.5,-165 614.5,-165 614.5,-184"/>
<text text-anchor="middle" x="587.5" y="-172" font-family="Helvetica,sans-Serif" font-size="10.00">sysclib.h</text>
</a>
</g>
</g>
<!-- Node1&#45;&gt;Node14 -->
<g id="edge23" class="edge">
<title>Node1&#45;&gt;Node14</title>
<path fill="none" stroke="#63b8ff" d="M341.49,-224.5C392.55,-215.36 471.57,-200.79 549.09,-184.44"/>
<polygon fill="#63b8ff" stroke="#63b8ff" points="549.47,-187.94 558.53,-182.44 548.02,-181.09 549.47,-187.94"/>
</g>
<!-- Node17 -->
<g id="node17" class="node">
<title>Node17</title>
<g id="a_node17"><a xlink:href="thbase_8h.html" target="_top" xlink:title=" ">
<polygon fill="white" stroke="#666666" points="275,-184 222,-184 222,-165 275,-165 275,-184"/>
<text text-anchor="middle" x="248.5" y="-172" font-family="Helvetica,sans-Serif" font-size="10.00">thbase.h</text>
</a>
</g>
</g>
<!-- Node1&#45;&gt;Node17 -->
<g id="edge30" class="edge">
<title>Node1&#45;&gt;Node17</title>
<path fill="none" stroke="#63b8ff" d="M277.86,-219.54C272.66,-211.74 266.18,-202.03 260.64,-193.71"/>
<polygon fill="#63b8ff" stroke="#63b8ff" points="263.58,-191.81 255.12,-185.43 257.76,-195.7 263.58,-191.81"/>
</g>
<!-- Node4 -->
<g id="node4" class="node">
<title>Node4</title>
<g id="a_node4"><a xlink:href="iop_2kernel_2include_2types_8h_source.html" target="_top" xlink:title=" ">
<polygon fill="white" stroke="#666666" points="373,-74 326,-74 326,-55 373,-55 373,-74"/>
<text text-anchor="middle" x="349.5" y="-62" font-family="Helvetica,sans-Serif" font-size="10.00">types.h</text>
</a>
</g>
</g>
<!-- Node3&#45;&gt;Node4 -->
<g id="edge3" class="edge">
<title>Node3&#45;&gt;Node4</title>
<path fill="none" stroke="#63b8ff" d="M43.36,-113.2C48.32,-112.07 53.58,-110.94 58.5,-110 150.4,-92.44 259.67,-77.24 314.48,-70"/>
<polygon fill="#63b8ff" stroke="#63b8ff" points="314.67,-73.51 324.13,-68.74 313.76,-66.57 314.67,-73.51"/>
</g>
<!-- Node5 -->
<g id="node5" class="node">
<title>Node5</title>
<g id="a_node5"><a xlink:title=" ">
<polygon fill="#e0e0e0" stroke="#999999" points="375,-19 324,-19 324,0 375,0 375,-19"/>
<text text-anchor="middle" x="349.5" y="-7" font-family="Helvetica,sans-Serif" font-size="10.00">stddef.h</text>
</a>
</g>
</g>
<!-- Node4&#45;&gt;Node5 -->
<g id="edge4" class="edge">
<title>Node4&#45;&gt;Node5</title>
<path fill="none" stroke="#63b8ff" d="M349.5,-54.75C349.5,-48.27 349.5,-39.16 349.5,-30.9"/>
<polygon fill="#63b8ff" stroke="#63b8ff" points="353,-30.96 349.5,-20.96 346,-30.96 353,-30.96"/>
</g>
<!-- Node6 -->
<g id="node6" class="node">
<title>Node6</title>
<g id="a_node6"><a xlink:href="tamtypes_8h.html" target="_top" xlink:title=" ">
<polygon fill="white" stroke="#666666" points="549.5,-19 485.5,-19 485.5,0 549.5,0 549.5,-19"/>
<text text-anchor="middle" x="517.5" y="-7" font-family="Helvetica,sans-Serif" font-size="10.00">tamtypes.h</text>
</a>
</g>
</g>
<!-- Node4&#45;&gt;Node6 -->
<g id="edge5" class="edge">
<title>Node4&#45;&gt;Node6</title>
<path fill="none" stroke="#63b8ff" d="M373.21,-56.02C400.48,-47.42 445.66,-33.16 478.2,-22.9"/>
<polygon fill="#63b8ff" stroke="#63b8ff" points="479.21,-26.25 487.69,-19.9 477.1,-19.57 479.21,-26.25"/>
</g>
<!-- Node7&#45;&gt;Node4 -->
<g id="edge7" class="edge">
<title>Node7&#45;&gt;Node4</title>
<path fill="none" stroke="#63b8ff" d="M368.7,-109.75C365.76,-102.96 361.56,-93.3 357.85,-84.73"/>
<polygon fill="#63b8ff" stroke="#63b8ff" points="361.17,-83.61 353.98,-75.83 354.75,-86.4 361.17,-83.61"/>
</g>
<!-- Node8&#45;&gt;Node2 -->
<g id="edge9" class="edge">
<title>Node8&#45;&gt;Node2</title>
<path fill="none" stroke="#63b8ff" d="M104.02,-164.75C102.15,-158.11 99.49,-148.73 97.11,-140.31"/>
<polygon fill="#63b8ff" stroke="#63b8ff" points="100.53,-139.57 94.44,-130.9 93.8,-141.47 100.53,-139.57"/>
</g>
<!-- Node8&#45;&gt;Node7 -->
<g id="edge10" class="edge">
<title>Node8&#45;&gt;Node7</title>
<path fill="none" stroke="#63b8ff" d="M133.22,-166.87C136.01,-166.22 138.81,-165.59 141.5,-165 214.09,-149.2 300.15,-133.39 343.89,-125.56"/>
<polygon fill="#63b8ff" stroke="#63b8ff" points="344.33,-129.03 353.56,-123.83 343.11,-122.14 344.33,-129.03"/>
</g>
<!-- Node9&#45;&gt;Node4 -->
<g id="edge12" class="edge">
<title>Node9&#45;&gt;Node4</title>
<path fill="none" stroke="#63b8ff" d="M329.3,-164.66C332.8,-147.5 340.59,-109.26 345.41,-85.6"/>
<polygon fill="#63b8ff" stroke="#63b8ff" points="348.81,-86.44 347.37,-75.94 341.95,-85.04 348.81,-86.44"/>
</g>
<!-- Node9&#45;&gt;Node7 -->
<g id="edge13" class="edge">
<title>Node9&#45;&gt;Node7</title>
<path fill="none" stroke="#63b8ff" d="M334.93,-164.75C341.08,-157.5 350.01,-146.98 357.63,-138.02"/>
<polygon fill="#63b8ff" stroke="#63b8ff" points="360.12,-140.48 363.93,-130.6 354.79,-135.95 360.12,-140.48"/>
</g>
<!-- Node10&#45;&gt;Node4 -->
<g id="edge15" class="edge">
<title>Node10&#45;&gt;Node4</title>
<path fill="none" stroke="#63b8ff" d="M442.45,-164.92C433.44,-152.36 415.72,-128.48 398.5,-110 389.22,-100.04 378.03,-89.76 368.69,-81.6"/>
<polygon fill="#63b8ff" stroke="#63b8ff" points="371.12,-79.08 361.25,-75.22 366.56,-84.39 371.12,-79.08"/>
</g>
<!-- Node10&#45;&gt;Node7 -->
<g id="edge16" class="edge">
<title>Node10&#45;&gt;Node7</title>
<path fill="none" stroke="#63b8ff" d="M435.61,-164.51C424.4,-156.7 407.93,-145.21 394.62,-135.93"/>
<polygon fill="#63b8ff" stroke="#63b8ff" points="396.65,-133.07 386.44,-130.22 392.64,-138.81 396.65,-133.07"/>
</g>
<!-- Node11&#45;&gt;Node4 -->
<g id="edge18" class="edge">
<title>Node11&#45;&gt;Node4</title>
<path fill="none" stroke="#63b8ff" d="M191.58,-164.66C221.06,-146.15 289.56,-103.13 325.9,-80.32"/>
<polygon fill="#63b8ff" stroke="#63b8ff" points="327.34,-83.55 333.95,-75.27 323.62,-77.62 327.34,-83.55"/>
</g>
<!-- Node11&#45;&gt;Node7 -->
<g id="edge19" class="edge">
<title>Node11&#45;&gt;Node7</title>
<path fill="none" stroke="#63b8ff" d="M204.21,-166.24C240.98,-156.25 306.9,-138.33 344.39,-128.14"/>
<polygon fill="#63b8ff" stroke="#63b8ff" points="344.86,-131.64 353.59,-125.64 343.03,-124.88 344.86,-131.64"/>
</g>
<!-- Node12&#45;&gt;Node7 -->
<g id="edge22" class="edge">
<title>Node12&#45;&gt;Node7</title>
<path fill="none" stroke="#63b8ff" d="M496.53,-165.22C470.56,-155.85 428.26,-140.6 400.41,-130.56"/>
<polygon fill="#63b8ff" stroke="#63b8ff" points="401.81,-127.35 391.22,-127.25 399.44,-133.93 401.81,-127.35"/>
</g>
<!-- Node13 -->
<g id="node13" class="node">
<title>Node13</title>
<g id="a_node13"><a xlink:title=" ">
<polygon fill="#e0e0e0" stroke="#999999" points="521,-129 470,-129 470,-110 521,-110 521,-129"/>
<text text-anchor="middle" x="495.5" y="-117" font-family="Helvetica,sans-Serif" font-size="10.00">stdarg.h</text>
</a>
</g>
</g>
<!-- Node12&#45;&gt;Node13 -->
<g id="edge21" class="edge">
<title>Node12&#45;&gt;Node13</title>
<path fill="none" stroke="#63b8ff" d="M515.54,-164.75C512.46,-157.96 508.09,-148.3 504.21,-139.73"/>
<polygon fill="#63b8ff" stroke="#63b8ff" points="507.49,-138.49 500.17,-130.82 501.11,-141.37 507.49,-138.49"/>
</g>
<!-- Node14&#45;&gt;Node4 -->
<g id="edge24" class="edge">
<title>Node14&#45;&gt;Node4</title>
<path fill="none" stroke="#63b8ff" d="M582.06,-164.58C573.1,-150.69 553.88,-124.02 530.5,-110 484.73,-82.55 422.8,-72 384.54,-67.97"/>
<polygon fill="#63b8ff" stroke="#63b8ff" points="385.26,-64.52 374.97,-67.06 384.6,-71.49 385.26,-64.52"/>
</g>
<!-- Node14&#45;&gt;Node7 -->
<g id="edge25" class="edge">
<title>Node14&#45;&gt;Node7</title>
<path fill="none" stroke="#63b8ff" d="M560.27,-166.79C519.35,-156.7 442.39,-137.73 400.84,-127.49"/>
<polygon fill="#63b8ff" stroke="#63b8ff" points="401.89,-124.14 391.34,-125.15 400.22,-130.94 401.89,-124.14"/>
</g>
<!-- Node14&#45;&gt;Node13 -->
<g id="edge26" class="edge">
<title>Node14&#45;&gt;Node13</title>
<path fill="none" stroke="#63b8ff" d="M571.89,-164.51C557.8,-156.39 536.81,-144.3 520.4,-134.85"/>
<polygon fill="#63b8ff" stroke="#63b8ff" points="522.6,-132.07 512.19,-130.11 519.11,-138.14 522.6,-132.07"/>
</g>
<!-- Node15 -->
<g id="node15" class="node">
<title>Node15</title>
<g id="a_node15"><a xlink:href="setjmp_8h.html" target="_top" xlink:title=" ">
<polygon fill="white" stroke="#666666" points="579,-74 526,-74 526,-55 579,-55 579,-74"/>
<text text-anchor="middle" x="552.5" y="-62" font-family="Helvetica,sans-Serif" font-size="10.00">setjmp.h</text>
</a>
</g>
</g>
<!-- Node14&#45;&gt;Node15 -->
<g id="edge27" class="edge">
<title>Node14&#45;&gt;Node15</title>
<path fill="none" stroke="#63b8ff" d="M584.64,-164.66C579.05,-147.42 566.57,-108.9 558.91,-85.27"/>
<polygon fill="#63b8ff" stroke="#63b8ff" points="562.28,-84.33 555.87,-75.9 555.62,-86.49 562.28,-84.33"/>
</g>
<!-- Node16 -->
<g id="node16" class="node">
<title>Node16</title>
<g id="a_node16"><a xlink:href="ctype_8h.html" target="_top" xlink:title=" ">
<polygon fill="white" stroke="#666666" points="663,-129 616,-129 616,-110 663,-110 663,-129"/>
<text text-anchor="middle" x="639.5" y="-117" font-family="Helvetica,sans-Serif" font-size="10.00">ctype.h</text>
</a>
</g>
</g>
<!-- Node14&#45;&gt;Node16 -->
<g id="edge29" class="edge">
<title>Node14&#45;&gt;Node16</title>
<path fill="none" stroke="#63b8ff" d="M596.09,-164.75C603.34,-157.35 613.95,-146.54 622.87,-137.45"/>
<polygon fill="#63b8ff" stroke="#63b8ff" points="625.16,-140.11 629.67,-130.52 620.16,-135.21 625.16,-140.11"/>
</g>
<!-- Node15&#45;&gt;Node6 -->
<g id="edge28" class="edge">
<title>Node15&#45;&gt;Node6</title>
<path fill="none" stroke="#63b8ff" d="M546.72,-54.75C542.09,-47.73 535.43,-37.64 529.63,-28.87"/>
<polygon fill="#63b8ff" stroke="#63b8ff" points="532.67,-27.12 524.24,-20.71 526.83,-30.98 532.67,-27.12"/>
</g>
<!-- Node17&#45;&gt;Node4 -->
<g id="edge31" class="edge">
<title>Node17&#45;&gt;Node4</title>
<path fill="none" stroke="#63b8ff" d="M256.77,-164.66C273.49,-146.78 311.58,-106.05 333.39,-82.73"/>
<polygon fill="#63b8ff" stroke="#63b8ff" points="335.81,-85.26 340.09,-75.57 330.7,-80.48 335.81,-85.26"/>
</g>
<!-- Node17&#45;&gt;Node7 -->
<g id="edge32" class="edge">
<title>Node17&#45;&gt;Node7</title>
<path fill="none" stroke="#63b8ff" d="M269.53,-164.51C290.32,-155.63 322.22,-141.99 345,-132.25"/>
<polygon fill="#63b8ff" stroke="#63b8ff" points="346.15,-135.57 353.97,-128.42 343.4,-129.13 346.15,-135.57"/>
</g>
</g>
</svg>
