<?xml version="1.0" encoding="UTF-8" standalone="no"?>
<!DOCTYPE svg PUBLIC "-//W3C//DTD SVG 1.1//EN"
 "http://www.w3.org/Graphics/SVG/1.1/DTD/svg11.dtd">
<!-- Generated by graphviz version 7.0.5 (20221223.1930)
 -->
<!-- Title: iop/kernel/include/kerr.h Pages: 1 -->
<svg width="341pt" height="104pt"
 viewBox="0.00 0.00 340.50 104.00" xmlns="http://www.w3.org/2000/svg" xmlns:xlink="http://www.w3.org/1999/xlink">
<g id="graph0" class="graph" transform="scale(1 1) rotate(0) translate(4 100)">
<title>iop/kernel/include/kerr.h</title>
<!-- Node1 -->
<g id="node1" class="node">
<title>Node1</title>
<g id="a_node1"><a xlink:title=" ">
<polygon fill="#999999" stroke="#666666" points="209.5,-96 117.5,-96 117.5,-66 209.5,-66 209.5,-96"/>
<text text-anchor="start" x="125.5" y="-84" font-family="Helvetica,sans-Serif" font-size="10.00">iop/kernel/include</text>
<text text-anchor="middle" x="163.5" y="-73" font-family="Helvetica,sans-Serif" font-size="10.00">/kerr.h</text>
</a>
</g>
</g>
<!-- Node2 -->
<g id="node2" class="node">
<title>Node2</title>
<g id="a_node2"><a xlink:href="eeelfloader_8c_source.html" target="_top" xlink:title=" ">
<polygon fill="white" stroke="#666666" points="97,-30 0,-30 0,0 97,0 97,-30"/>
<text text-anchor="start" x="8" y="-18" font-family="Helvetica,sans-Serif" font-size="10.00">iop/system/loadfile</text>
<text text-anchor="middle" x="48.5" y="-7" font-family="Helvetica,sans-Serif" font-size="10.00">/src/eeelfloader.c</text>
</a>
</g>
</g>
<!-- Node1&#45;&gt;Node2 -->
<g id="edge1" class="edge">
<title>Node1&#45;&gt;Node2</title>
<path fill="none" stroke="#63b8ff" d="M127.89,-60.18C110.53,-50.52 90.04,-39.12 74.22,-30.31"/>
<polygon fill="#63b8ff" stroke="#63b8ff" points="125.93,-63.1 136.37,-64.9 129.33,-56.98 125.93,-63.1"/>
</g>
<!-- Node3 -->
<g id="node3" class="node">
<title>Node3</title>
<g id="a_node3"><a xlink:href="iop_2system_2loadfile_2src_2loadfile_8c_source.html" target="_top" xlink:title=" ">
<polygon fill="white" stroke="#666666" points="212,-30 115,-30 115,0 212,0 212,-30"/>
<text text-anchor="start" x="123" y="-18" font-family="Helvetica,sans-Serif" font-size="10.00">iop/system/loadfile</text>
<text text-anchor="middle" x="163.5" y="-7" font-family="Helvetica,sans-Serif" font-size="10.00">/src/loadfile.c</text>
</a>
</g>
</g>
<!-- Node1&#45;&gt;Node3 -->
<g id="edge2" class="edge">
<title>Node1&#45;&gt;Node3</title>
<path fill="none" stroke="#63b8ff" d="M163.5,-54.39C163.5,-46.13 163.5,-37.28 163.5,-30.16"/>
<polygon fill="#63b8ff" stroke="#63b8ff" points="160,-54.28 163.5,-64.28 167,-54.28 160,-54.28"/>
</g>
<!-- Node4 -->
<g id="node4" class="node">
<title>Node4</title>
<g id="a_node4"><a xlink:href="timrman_8c_source.html" target="_top" xlink:title=" ">
<polygon fill="white" stroke="#666666" points="332.5,-30 230.5,-30 230.5,0 332.5,0 332.5,-30"/>
<text text-anchor="start" x="238.5" y="-18" font-family="Helvetica,sans-Serif" font-size="10.00">iop/system/timrman</text>
<text text-anchor="middle" x="281.5" y="-7" font-family="Helvetica,sans-Serif" font-size="10.00">/src/timrman.c</text>
</a>
</g>
</g>
<!-- Node1&#45;&gt;Node4 -->
<g id="edge3" class="edge">
<title>Node1&#45;&gt;Node4</title>
<path fill="none" stroke="#63b8ff" d="M200.04,-60.18C217.85,-50.52 238.88,-39.12 255.11,-30.31"/>
<polygon fill="#63b8ff" stroke="#63b8ff" points="198.43,-57.07 191.31,-64.92 201.77,-63.22 198.43,-57.07"/>
</g>
</g>
</svg>
