<?xml version="1.0" encoding="UTF-8" standalone="no"?>
<!DOCTYPE svg PUBLIC "-//W3C//DTD SVG 1.1//EN"
 "http://www.w3.org/Graphics/SVG/1.1/DTD/svg11.dtd">
<!-- Generated by graphviz version 7.0.5 (20221223.1930)
 -->
<!-- Title: ee/rpc/cdvd/include/libcdvd.h Pages: 1 -->
<svg width="1283pt" height="170pt"
 viewBox="0.00 0.00 1282.50 170.00" xmlns="http://www.w3.org/2000/svg" xmlns:xlink="http://www.w3.org/1999/xlink">
<g id="graph0" class="graph" transform="scale(1 1) rotate(0) translate(4 166)">
<title>ee/rpc/cdvd/include/libcdvd.h</title>
<!-- Node1 -->
<g id="node1" class="node">
<title>Node1</title>
<g id="a_node1"><a xlink:title=" ">
<polygon fill="#999999" stroke="#666666" points="1079.5,-162 978.5,-162 978.5,-132 1079.5,-132 1079.5,-162"/>
<text text-anchor="start" x="986.5" y="-150" font-family="Helvetica,sans-Serif" font-size="10.00">ee/rpc/cdvd/include</text>
<text text-anchor="middle" x="1029" y="-139" font-family="Helvetica,sans-Serif" font-size="10.00">/libcdvd.h</text>
</a>
</g>
</g>
<!-- Node2 -->
<g id="node2" class="node">
<title>Node2</title>
<g id="a_node2"><a xlink:href="osd__config_8h.html" target="_top" xlink:title=" ">
<polygon fill="white" stroke="#666666" points="737.5,-96 628.5,-96 628.5,-66 737.5,-66 737.5,-96"/>
<text text-anchor="start" x="636.5" y="-84" font-family="Helvetica,sans-Serif" font-size="10.00">ee/kernel/include/osd</text>
<text text-anchor="middle" x="683" y="-73" font-family="Helvetica,sans-Serif" font-size="10.00">_config.h</text>
</a>
</g>
</g>
<!-- Node1&#45;&gt;Node2 -->
<g id="edge1" class="edge">
<title>Node1&#45;&gt;Node2</title>
<path fill="none" stroke="#63b8ff" d="M967.39,-134.6C902.2,-122.55 800.31,-103.7 737.82,-92.14"/>
<polygon fill="#63b8ff" stroke="#63b8ff" points="966.36,-137.97 976.83,-136.35 967.63,-131.09 966.36,-137.97"/>
</g>
<!-- Node12 -->
<g id="node12" class="node">
<title>Node12</title>
<g id="a_node12"><a xlink:href="scmd_8c.html" target="_top" xlink:title=" ">
<polygon fill="white" stroke="#666666" points="1261.5,-24.5 1142.5,-24.5 1142.5,-5.5 1261.5,-5.5 1261.5,-24.5"/>
<text text-anchor="middle" x="1202" y="-12.5" font-family="Helvetica,sans-Serif" font-size="10.00">ee/rpc/cdvd/src/scmd.c</text>
</a>
</g>
</g>
<!-- Node1&#45;&gt;Node12 -->
<g id="edge14" class="edge">
<title>Node1&#45;&gt;Node12</title>
<path fill="none" stroke="#63b8ff" d="M1011.01,-122.27C1000.4,-105.17 991.29,-82.31 1004,-66 1008.9,-59.71 1104.8,-37.54 1161.31,-24.94"/>
<polygon fill="#63b8ff" stroke="#63b8ff" points="1007.95,-123.99 1016.44,-130.33 1013.76,-120.08 1007.95,-123.99"/>
</g>
<!-- Node13 -->
<g id="node13" class="node">
<title>Node13</title>
<g id="a_node13"><a xlink:href="libcdvd_8c.html" target="_top" xlink:title=" ">
<polygon fill="white" stroke="#666666" points="1137.5,-90.5 1012.5,-90.5 1012.5,-71.5 1137.5,-71.5 1137.5,-90.5"/>
<text text-anchor="middle" x="1075" y="-78.5" font-family="Helvetica,sans-Serif" font-size="10.00">ee/rpc/cdvd/src/libcdvd.c</text>
</a>
</g>
</g>
<!-- Node1&#45;&gt;Node13 -->
<g id="edge12" class="edge">
<title>Node1&#45;&gt;Node13</title>
<path fill="none" stroke="#63b8ff" d="M1045.81,-122.61C1053.75,-111.56 1062.76,-99.03 1068.64,-90.84"/>
<polygon fill="#63b8ff" stroke="#63b8ff" points="1043.09,-120.4 1040.09,-130.57 1048.77,-124.49 1043.09,-120.4"/>
</g>
<!-- Node14 -->
<g id="node14" class="node">
<title>Node14</title>
<g id="a_node14"><a xlink:href="ncmd_8c.html" target="_top" xlink:title=" ">
<polygon fill="white" stroke="#666666" points="1274.5,-90.5 1155.5,-90.5 1155.5,-71.5 1274.5,-71.5 1274.5,-90.5"/>
<text text-anchor="middle" x="1215" y="-78.5" font-family="Helvetica,sans-Serif" font-size="10.00">ee/rpc/cdvd/src/ncmd.c</text>
</a>
</g>
</g>
<!-- Node1&#45;&gt;Node14 -->
<g id="edge13" class="edge">
<title>Node1&#45;&gt;Node14</title>
<path fill="none" stroke="#63b8ff" d="M1081.29,-128.01C1116.38,-115.93 1161.09,-100.55 1188.88,-90.99"/>
<polygon fill="#63b8ff" stroke="#63b8ff" points="1080.49,-124.58 1072.17,-131.14 1082.77,-131.2 1080.49,-124.58"/>
</g>
<!-- Node3 -->
<g id="node3" class="node">
<title>Node3</title>
<g id="a_node3"><a xlink:href="graph__mode_8c_source.html" target="_top" xlink:title=" ">
<polygon fill="white" stroke="#666666" points="98,-30 0,-30 0,0 98,0 98,-30"/>
<text text-anchor="start" x="8" y="-18" font-family="Helvetica,sans-Serif" font-size="10.00">ee/graph/src/graph</text>
<text text-anchor="middle" x="49" y="-7" font-family="Helvetica,sans-Serif" font-size="10.00">_mode.c</text>
</a>
</g>
</g>
<!-- Node2&#45;&gt;Node3 -->
<g id="edge2" class="edge">
<title>Node2&#45;&gt;Node3</title>
<path fill="none" stroke="#63b8ff" d="M616.97,-77.5C509.49,-72.7 290.28,-59.9 107,-30 104.14,-29.53 101.21,-29 98.26,-28.42"/>
<polygon fill="#63b8ff" stroke="#63b8ff" points="616.61,-80.98 626.75,-77.92 616.91,-73.99 616.61,-80.98"/>
</g>
<!-- Node4 -->
<g id="node4" class="node">
<title>Node4</title>
<g id="a_node4"><a xlink:href="libosd_8c.html" target="_top" xlink:title=" ">
<polygon fill="white" stroke="#666666" points="225.5,-24.5 116.5,-24.5 116.5,-5.5 225.5,-5.5 225.5,-24.5"/>
<text text-anchor="middle" x="171" y="-12.5" font-family="Helvetica,sans-Serif" font-size="10.00">ee/kernel/src/libosd.c</text>
</a>
</g>
</g>
<!-- Node2&#45;&gt;Node4 -->
<g id="edge3" class="edge">
<title>Node2&#45;&gt;Node4</title>
<path fill="none" stroke="#63b8ff" d="M616.74,-74.87C528.87,-67.55 369.13,-52.47 234,-30 225.6,-28.6 216.64,-26.8 208.18,-24.96"/>
<polygon fill="#63b8ff" stroke="#63b8ff" points="616.37,-78.35 626.63,-75.68 616.95,-71.38 616.37,-78.35"/>
</g>
<!-- Node5 -->
<g id="node5" class="node">
<title>Node5</title>
<g id="a_node5"><a xlink:href="libosd__common_8c.html" target="_top" xlink:title=" ">
<polygon fill="white" stroke="#666666" points="344.5,-30 243.5,-30 243.5,0 344.5,0 344.5,-30"/>
<text text-anchor="start" x="251.5" y="-18" font-family="Helvetica,sans-Serif" font-size="10.00">ee/kernel/src/libosd</text>
<text text-anchor="middle" x="294" y="-7" font-family="Helvetica,sans-Serif" font-size="10.00">_common.c</text>
</a>
</g>
</g>
<!-- Node2&#45;&gt;Node5 -->
<g id="edge4" class="edge">
<title>Node2&#45;&gt;Node5</title>
<path fill="none" stroke="#63b8ff" d="M616.98,-71.63C550.16,-62.78 444.01,-47.66 353,-30 350.31,-29.48 347.56,-28.92 344.79,-28.33"/>
<polygon fill="#63b8ff" stroke="#63b8ff" points="616.29,-75.07 626.67,-72.91 617.21,-68.13 616.29,-75.07"/>
</g>
<!-- Node6 -->
<g id="node6" class="node">
<title>Node6</title>
<g id="a_node6"><a xlink:href="libosd__full_8c.html" target="_top" xlink:title=" ">
<polygon fill="white" stroke="#666666" points="463.5,-30 362.5,-30 362.5,0 463.5,0 463.5,-30"/>
<text text-anchor="start" x="370.5" y="-18" font-family="Helvetica,sans-Serif" font-size="10.00">ee/kernel/src/libosd</text>
<text text-anchor="middle" x="413" y="-7" font-family="Helvetica,sans-Serif" font-size="10.00">_full.c</text>
</a>
</g>
</g>
<!-- Node2&#45;&gt;Node6 -->
<g id="edge5" class="edge">
<title>Node2&#45;&gt;Node6</title>
<path fill="none" stroke="#63b8ff" d="M616.99,-64.35C569.76,-53.16 507.13,-38.31 463.78,-28.04"/>
<polygon fill="#63b8ff" stroke="#63b8ff" points="616.03,-67.72 626.56,-66.62 617.64,-60.91 616.03,-67.72"/>
</g>
<!-- Node7 -->
<g id="node7" class="node">
<title>Node7</title>
<g id="a_node7"><a xlink:href="osd__config_8c.html" target="_top" xlink:title=" ">
<polygon fill="white" stroke="#666666" points="612,-24.5 482,-24.5 482,-5.5 612,-5.5 612,-24.5"/>
<text text-anchor="middle" x="547" y="-12.5" font-family="Helvetica,sans-Serif" font-size="10.00">ee/kernel/src/osd_config.c</text>
</a>
</g>
</g>
<!-- Node2&#45;&gt;Node7 -->
<g id="edge6" class="edge">
<title>Node2&#45;&gt;Node7</title>
<path fill="none" stroke="#63b8ff" d="M642.09,-60.75C616.87,-48.88 585.72,-34.22 566.09,-24.99"/>
<polygon fill="#63b8ff" stroke="#63b8ff" points="640.57,-63.9 651.11,-64.99 643.55,-57.57 640.57,-63.9"/>
</g>
<!-- Node8 -->
<g id="node8" class="node">
<title>Node8</title>
<g id="a_node8"><a xlink:href="osd_8c_source.html" target="_top" xlink:title=" ">
<polygon fill="white" stroke="#666666" points="735.5,-30 630.5,-30 630.5,0 735.5,0 735.5,-30"/>
<text text-anchor="start" x="638.5" y="-18" font-family="Helvetica,sans-Serif" font-size="10.00">ee/kernel/src/osdsrc</text>
<text text-anchor="middle" x="683" y="-7" font-family="Helvetica,sans-Serif" font-size="10.00">/src/osd.c</text>
</a>
</g>
</g>
<!-- Node2&#45;&gt;Node8 -->
<g id="edge7" class="edge">
<title>Node2&#45;&gt;Node8</title>
<path fill="none" stroke="#63b8ff" d="M683,-54.39C683,-46.13 683,-37.28 683,-30.16"/>
<polygon fill="#63b8ff" stroke="#63b8ff" points="679.5,-54.28 683,-64.28 686.5,-54.28 679.5,-54.28"/>
</g>
<!-- Node9 -->
<g id="node9" class="node">
<title>Node9</title>
<g id="a_node9"><a xlink:href="osdsrc_8c_source.html" target="_top" xlink:title=" ">
<polygon fill="white" stroke="#666666" points="858.5,-30 753.5,-30 753.5,0 858.5,0 858.5,-30"/>
<text text-anchor="start" x="761.5" y="-18" font-family="Helvetica,sans-Serif" font-size="10.00">ee/kernel/src/osdsrc</text>
<text text-anchor="middle" x="806" y="-7" font-family="Helvetica,sans-Serif" font-size="10.00">/src/osdsrc.c</text>
</a>
</g>
</g>
<!-- Node2&#45;&gt;Node9 -->
<g id="edge8" class="edge">
<title>Node2&#45;&gt;Node9</title>
<path fill="none" stroke="#63b8ff" d="M720.57,-60.45C739.25,-50.73 761.41,-39.2 778.49,-30.31"/>
<polygon fill="#63b8ff" stroke="#63b8ff" points="719.2,-57.22 711.95,-64.94 722.43,-63.43 719.2,-57.22"/>
</g>
<!-- Node10 -->
<g id="node10" class="node">
<title>Node10</title>
<g id="a_node10"><a xlink:href="rtc_8c.html" target="_top" xlink:title=" ">
<polygon fill="white" stroke="#666666" points="977.5,-24.5 876.5,-24.5 876.5,-5.5 977.5,-5.5 977.5,-24.5"/>
<text text-anchor="middle" x="927" y="-12.5" font-family="Helvetica,sans-Serif" font-size="10.00">ee/libcglue/src/rtc.c</text>
</a>
</g>
</g>
<!-- Node2&#45;&gt;Node10 -->
<g id="edge9" class="edge">
<title>Node2&#45;&gt;Node10</title>
<path fill="none" stroke="#63b8ff" d="M748.64,-62.78C795.08,-50.6 855.5,-34.76 892.74,-24.99"/>
<polygon fill="#63b8ff" stroke="#63b8ff" points="748.01,-59.33 739.22,-65.25 749.78,-66.1 748.01,-59.33"/>
</g>
<!-- Node11 -->
<g id="node11" class="node">
<title>Node11</title>
<g id="a_node11"><a xlink:href="timezone_8c.html" target="_top" xlink:title=" ">
<polygon fill="white" stroke="#666666" points="1124.5,-24.5 995.5,-24.5 995.5,-5.5 1124.5,-5.5 1124.5,-24.5"/>
<text text-anchor="middle" x="1060" y="-12.5" font-family="Helvetica,sans-Serif" font-size="10.00">ee/libcglue/src/timezone.c</text>
</a>
</g>
</g>
<!-- Node2&#45;&gt;Node11 -->
<g id="edge10" class="edge">
<title>Node2&#45;&gt;Node11</title>
<path fill="none" stroke="#63b8ff" d="M749.11,-69.64C810.75,-59.86 905.2,-44.57 987,-30 995.77,-28.44 1005.11,-26.7 1014.08,-25"/>
<polygon fill="#63b8ff" stroke="#63b8ff" points="748.82,-66.15 739.49,-71.17 749.91,-73.06 748.82,-66.15"/>
</g>
<!-- Node2&#45;&gt;Node12 -->
<g id="edge11" class="edge">
<title>Node2&#45;&gt;Node12</title>
<path fill="none" stroke="#63b8ff" d="M749.14,-74.6C837.26,-66.96 997.91,-51.51 1134,-30 1142.93,-28.59 1152.46,-26.8 1161.48,-24.98"/>
<polygon fill="#63b8ff" stroke="#63b8ff" points="748.89,-71.11 739.22,-75.45 749.49,-78.08 748.89,-71.11"/>
</g>
</g>
</svg>
