<?xml version="1.0" encoding="UTF-8" standalone="no"?>
<!DOCTYPE svg PUBLIC "-//W3C//DTD SVG 1.1//EN"
 "http://www.w3.org/Graphics/SVG/1.1/DTD/svg11.dtd">
<!-- Generated by graphviz version 7.0.5 (20221223.1930)
 -->
<!-- Title: common/include/libcdvd&#45;common.h Pages: 1 -->
<svg width="4371pt" height="236pt"
 viewBox="0.00 0.00 4370.50 236.00" xmlns="http://www.w3.org/2000/svg" xmlns:xlink="http://www.w3.org/1999/xlink">
<g id="graph0" class="graph" transform="scale(1 1) rotate(0) translate(4 232)">
<title>common/include/libcdvd&#45;common.h</title>
<!-- Node1 -->
<g id="node1" class="node">
<title>Node1</title>
<g id="a_node1"><a xlink:title=" ">
<polygon fill="#999999" stroke="#666666" points="1934,-228 1812,-228 1812,-198 1934,-198 1934,-228"/>
<text text-anchor="start" x="1820" y="-216" font-family="Helvetica,sans-Serif" font-size="10.00">common/include/libcdvd</text>
<text text-anchor="middle" x="1873" y="-205" font-family="Helvetica,sans-Serif" font-size="10.00">&#45;common.h</text>
</a>
</g>
</g>
<!-- Node2 -->
<g id="node2" class="node">
<title>Node2</title>
<g id="a_node2"><a xlink:href="libcdvd_8h.html" target="_top" xlink:title=" ">
<polygon fill="white" stroke="#666666" points="1125.5,-162 1024.5,-162 1024.5,-132 1125.5,-132 1125.5,-162"/>
<text text-anchor="start" x="1032.5" y="-150" font-family="Helvetica,sans-Serif" font-size="10.00">ee/rpc/cdvd/include</text>
<text text-anchor="middle" x="1075" y="-139" font-family="Helvetica,sans-Serif" font-size="10.00">/libcdvd.h</text>
</a>
</g>
</g>
<!-- Node1&#45;&gt;Node2 -->
<g id="edge1" class="edge">
<title>Node1&#45;&gt;Node2</title>
<path fill="none" stroke="#63b8ff" d="M1800.62,-206.19C1641.24,-193.41 1263.25,-163.1 1125.96,-152.09"/>
<polygon fill="#63b8ff" stroke="#63b8ff" points="1799.95,-209.65 1810.2,-206.96 1800.51,-202.67 1799.95,-209.65"/>
</g>
<!-- Node16 -->
<g id="node16" class="node">
<title>Node16</title>
<g id="a_node16"><a xlink:href="cdfs__iop_8c_source.html" target="_top" xlink:title=" ">
<polygon fill="white" stroke="#666666" points="1929.5,-162 1816.5,-162 1816.5,-132 1929.5,-132 1929.5,-162"/>
<text text-anchor="start" x="1824.5" y="-150" font-family="Helvetica,sans-Serif" font-size="10.00">iop/cdvd/cdfs/src/cdfs</text>
<text text-anchor="middle" x="1873" y="-139" font-family="Helvetica,sans-Serif" font-size="10.00">_iop.c</text>
</a>
</g>
</g>
<!-- Node1&#45;&gt;Node16 -->
<g id="edge16" class="edge">
<title>Node1&#45;&gt;Node16</title>
<path fill="none" stroke="#63b8ff" d="M1873,-186.39C1873,-178.13 1873,-169.28 1873,-162.16"/>
<polygon fill="#63b8ff" stroke="#63b8ff" points="1869.5,-186.28 1873,-196.28 1876.5,-186.28 1869.5,-186.28"/>
</g>
<!-- Node17 -->
<g id="node17" class="node">
<title>Node17</title>
<g id="a_node17"><a xlink:href="cdvdman_8h.html" target="_top" xlink:title=" ">
<polygon fill="white" stroke="#666666" points="2775,-162 2683,-162 2683,-132 2775,-132 2775,-162"/>
<text text-anchor="start" x="2691" y="-150" font-family="Helvetica,sans-Serif" font-size="10.00">iop/kernel/include</text>
<text text-anchor="middle" x="2729" y="-139" font-family="Helvetica,sans-Serif" font-size="10.00">/cdvdman.h</text>
</a>
</g>
</g>
<!-- Node1&#45;&gt;Node17 -->
<g id="edge17" class="edge">
<title>Node1&#45;&gt;Node17</title>
<path fill="none" stroke="#63b8ff" d="M1945.6,-206.57C2116.7,-193.78 2541.39,-162.03 2682.55,-151.47"/>
<polygon fill="#63b8ff" stroke="#63b8ff" points="1945.44,-203.07 1935.73,-207.31 1945.96,-210.05 1945.44,-203.07"/>
</g>
<!-- Node3 -->
<g id="node3" class="node">
<title>Node3</title>
<g id="a_node3"><a xlink:href="osd__config_8h.html" target="_top" xlink:title=" ">
<polygon fill="white" stroke="#666666" points="737.5,-96 628.5,-96 628.5,-66 737.5,-66 737.5,-96"/>
<text text-anchor="start" x="636.5" y="-84" font-family="Helvetica,sans-Serif" font-size="10.00">ee/kernel/include/osd</text>
<text text-anchor="middle" x="683" y="-73" font-family="Helvetica,sans-Serif" font-size="10.00">_config.h</text>
</a>
</g>
</g>
<!-- Node2&#45;&gt;Node3 -->
<g id="edge2" class="edge">
<title>Node2&#45;&gt;Node3</title>
<path fill="none" stroke="#63b8ff" d="M1012.9,-135.86C937.13,-123.49 810.18,-102.76 737.85,-90.96"/>
<polygon fill="#63b8ff" stroke="#63b8ff" points="1012.23,-139.3 1022.66,-137.45 1013.36,-132.39 1012.23,-139.3"/>
</g>
<!-- Node13 -->
<g id="node13" class="node">
<title>Node13</title>
<g id="a_node13"><a xlink:href="scmd_8c.html" target="_top" xlink:title=" ">
<polygon fill="white" stroke="#666666" points="1261.5,-24.5 1142.5,-24.5 1142.5,-5.5 1261.5,-5.5 1261.5,-24.5"/>
<text text-anchor="middle" x="1202" y="-12.5" font-family="Helvetica,sans-Serif" font-size="10.00">ee/rpc/cdvd/src/scmd.c</text>
</a>
</g>
</g>
<!-- Node2&#45;&gt;Node13 -->
<g id="edge15" class="edge">
<title>Node2&#45;&gt;Node13</title>
<path fill="none" stroke="#63b8ff" d="M1036.16,-125.61C1011.27,-109.85 986.47,-87.2 1003,-66 1007.93,-59.68 1104.31,-37.53 1161.1,-24.93"/>
<polygon fill="#63b8ff" stroke="#63b8ff" points="1034.31,-128.58 1044.68,-130.73 1037.91,-122.58 1034.31,-128.58"/>
</g>
<!-- Node14 -->
<g id="node14" class="node">
<title>Node14</title>
<g id="a_node14"><a xlink:href="libcdvd_8c.html" target="_top" xlink:title=" ">
<polygon fill="white" stroke="#666666" points="1137.5,-90.5 1012.5,-90.5 1012.5,-71.5 1137.5,-71.5 1137.5,-90.5"/>
<text text-anchor="middle" x="1075" y="-78.5" font-family="Helvetica,sans-Serif" font-size="10.00">ee/rpc/cdvd/src/libcdvd.c</text>
</a>
</g>
</g>
<!-- Node2&#45;&gt;Node14 -->
<g id="edge13" class="edge">
<title>Node2&#45;&gt;Node14</title>
<path fill="none" stroke="#63b8ff" d="M1075,-120.59C1075,-110.06 1075,-98.53 1075,-90.84"/>
<polygon fill="#63b8ff" stroke="#63b8ff" points="1071.5,-120.28 1075,-130.28 1078.5,-120.28 1071.5,-120.28"/>
</g>
<!-- Node15 -->
<g id="node15" class="node">
<title>Node15</title>
<g id="a_node15"><a xlink:href="ncmd_8c.html" target="_top" xlink:title=" ">
<polygon fill="white" stroke="#666666" points="1274.5,-90.5 1155.5,-90.5 1155.5,-71.5 1274.5,-71.5 1274.5,-90.5"/>
<text text-anchor="middle" x="1215" y="-78.5" font-family="Helvetica,sans-Serif" font-size="10.00">ee/rpc/cdvd/src/ncmd.c</text>
</a>
</g>
</g>
<!-- Node2&#45;&gt;Node15 -->
<g id="edge14" class="edge">
<title>Node2&#45;&gt;Node15</title>
<path fill="none" stroke="#63b8ff" d="M1116.77,-126.91C1142.79,-115.01 1175.06,-100.26 1195.34,-90.99"/>
<polygon fill="#63b8ff" stroke="#63b8ff" points="1115.43,-123.67 1107.8,-131.01 1118.35,-130.03 1115.43,-123.67"/>
</g>
<!-- Node4 -->
<g id="node4" class="node">
<title>Node4</title>
<g id="a_node4"><a xlink:href="graph__mode_8c_source.html" target="_top" xlink:title=" ">
<polygon fill="white" stroke="#666666" points="98,-30 0,-30 0,0 98,0 98,-30"/>
<text text-anchor="start" x="8" y="-18" font-family="Helvetica,sans-Serif" font-size="10.00">ee/graph/src/graph</text>
<text text-anchor="middle" x="49" y="-7" font-family="Helvetica,sans-Serif" font-size="10.00">_mode.c</text>
</a>
</g>
</g>
<!-- Node3&#45;&gt;Node4 -->
<g id="edge3" class="edge">
<title>Node3&#45;&gt;Node4</title>
<path fill="none" stroke="#63b8ff" d="M616.97,-77.5C509.49,-72.7 290.28,-59.9 107,-30 104.14,-29.53 101.21,-29 98.26,-28.42"/>
<polygon fill="#63b8ff" stroke="#63b8ff" points="616.61,-80.98 626.75,-77.92 616.91,-73.99 616.61,-80.98"/>
</g>
<!-- Node5 -->
<g id="node5" class="node">
<title>Node5</title>
<g id="a_node5"><a xlink:href="libosd_8c.html" target="_top" xlink:title=" ">
<polygon fill="white" stroke="#666666" points="225.5,-24.5 116.5,-24.5 116.5,-5.5 225.5,-5.5 225.5,-24.5"/>
<text text-anchor="middle" x="171" y="-12.5" font-family="Helvetica,sans-Serif" font-size="10.00">ee/kernel/src/libosd.c</text>
</a>
</g>
</g>
<!-- Node3&#45;&gt;Node5 -->
<g id="edge4" class="edge">
<title>Node3&#45;&gt;Node5</title>
<path fill="none" stroke="#63b8ff" d="M616.74,-74.87C528.87,-67.55 369.13,-52.47 234,-30 225.6,-28.6 216.64,-26.8 208.18,-24.96"/>
<polygon fill="#63b8ff" stroke="#63b8ff" points="616.37,-78.35 626.63,-75.68 616.95,-71.38 616.37,-78.35"/>
</g>
<!-- Node6 -->
<g id="node6" class="node">
<title>Node6</title>
<g id="a_node6"><a xlink:href="libosd__common_8c.html" target="_top" xlink:title=" ">
<polygon fill="white" stroke="#666666" points="344.5,-30 243.5,-30 243.5,0 344.5,0 344.5,-30"/>
<text text-anchor="start" x="251.5" y="-18" font-family="Helvetica,sans-Serif" font-size="10.00">ee/kernel/src/libosd</text>
<text text-anchor="middle" x="294" y="-7" font-family="Helvetica,sans-Serif" font-size="10.00">_common.c</text>
</a>
</g>
</g>
<!-- Node3&#45;&gt;Node6 -->
<g id="edge5" class="edge">
<title>Node3&#45;&gt;Node6</title>
<path fill="none" stroke="#63b8ff" d="M616.98,-71.63C550.16,-62.78 444.01,-47.66 353,-30 350.31,-29.48 347.56,-28.92 344.79,-28.33"/>
<polygon fill="#63b8ff" stroke="#63b8ff" points="616.29,-75.07 626.67,-72.91 617.21,-68.13 616.29,-75.07"/>
</g>
<!-- Node7 -->
<g id="node7" class="node">
<title>Node7</title>
<g id="a_node7"><a xlink:href="libosd__full_8c.html" target="_top" xlink:title=" ">
<polygon fill="white" stroke="#666666" points="463.5,-30 362.5,-30 362.5,0 463.5,0 463.5,-30"/>
<text text-anchor="start" x="370.5" y="-18" font-family="Helvetica,sans-Serif" font-size="10.00">ee/kernel/src/libosd</text>
<text text-anchor="middle" x="413" y="-7" font-family="Helvetica,sans-Serif" font-size="10.00">_full.c</text>
</a>
</g>
</g>
<!-- Node3&#45;&gt;Node7 -->
<g id="edge6" class="edge">
<title>Node3&#45;&gt;Node7</title>
<path fill="none" stroke="#63b8ff" d="M616.99,-64.35C569.76,-53.16 507.13,-38.31 463.78,-28.04"/>
<polygon fill="#63b8ff" stroke="#63b8ff" points="616.03,-67.72 626.56,-66.62 617.64,-60.91 616.03,-67.72"/>
</g>
<!-- Node8 -->
<g id="node8" class="node">
<title>Node8</title>
<g id="a_node8"><a xlink:href="osd__config_8c.html" target="_top" xlink:title=" ">
<polygon fill="white" stroke="#666666" points="612,-24.5 482,-24.5 482,-5.5 612,-5.5 612,-24.5"/>
<text text-anchor="middle" x="547" y="-12.5" font-family="Helvetica,sans-Serif" font-size="10.00">ee/kernel/src/osd_config.c</text>
</a>
</g>
</g>
<!-- Node3&#45;&gt;Node8 -->
<g id="edge7" class="edge">
<title>Node3&#45;&gt;Node8</title>
<path fill="none" stroke="#63b8ff" d="M642.09,-60.75C616.87,-48.88 585.72,-34.22 566.09,-24.99"/>
<polygon fill="#63b8ff" stroke="#63b8ff" points="640.57,-63.9 651.11,-64.99 643.55,-57.57 640.57,-63.9"/>
</g>
<!-- Node9 -->
<g id="node9" class="node">
<title>Node9</title>
<g id="a_node9"><a xlink:href="osd_8c_source.html" target="_top" xlink:title=" ">
<polygon fill="white" stroke="#666666" points="735.5,-30 630.5,-30 630.5,0 735.5,0 735.5,-30"/>
<text text-anchor="start" x="638.5" y="-18" font-family="Helvetica,sans-Serif" font-size="10.00">ee/kernel/src/osdsrc</text>
<text text-anchor="middle" x="683" y="-7" font-family="Helvetica,sans-Serif" font-size="10.00">/src/osd.c</text>
</a>
</g>
</g>
<!-- Node3&#45;&gt;Node9 -->
<g id="edge8" class="edge">
<title>Node3&#45;&gt;Node9</title>
<path fill="none" stroke="#63b8ff" d="M683,-54.39C683,-46.13 683,-37.28 683,-30.16"/>
<polygon fill="#63b8ff" stroke="#63b8ff" points="679.5,-54.28 683,-64.28 686.5,-54.28 679.5,-54.28"/>
</g>
<!-- Node10 -->
<g id="node10" class="node">
<title>Node10</title>
<g id="a_node10"><a xlink:href="osdsrc_8c_source.html" target="_top" xlink:title=" ">
<polygon fill="white" stroke="#666666" points="858.5,-30 753.5,-30 753.5,0 858.5,0 858.5,-30"/>
<text text-anchor="start" x="761.5" y="-18" font-family="Helvetica,sans-Serif" font-size="10.00">ee/kernel/src/osdsrc</text>
<text text-anchor="middle" x="806" y="-7" font-family="Helvetica,sans-Serif" font-size="10.00">/src/osdsrc.c</text>
</a>
</g>
</g>
<!-- Node3&#45;&gt;Node10 -->
<g id="edge9" class="edge">
<title>Node3&#45;&gt;Node10</title>
<path fill="none" stroke="#63b8ff" d="M720.57,-60.45C739.25,-50.73 761.41,-39.2 778.49,-30.31"/>
<polygon fill="#63b8ff" stroke="#63b8ff" points="719.2,-57.22 711.95,-64.94 722.43,-63.43 719.2,-57.22"/>
</g>
<!-- Node11 -->
<g id="node11" class="node">
<title>Node11</title>
<g id="a_node11"><a xlink:href="rtc_8c.html" target="_top" xlink:title=" ">
<polygon fill="white" stroke="#666666" points="977.5,-24.5 876.5,-24.5 876.5,-5.5 977.5,-5.5 977.5,-24.5"/>
<text text-anchor="middle" x="927" y="-12.5" font-family="Helvetica,sans-Serif" font-size="10.00">ee/libcglue/src/rtc.c</text>
</a>
</g>
</g>
<!-- Node3&#45;&gt;Node11 -->
<g id="edge10" class="edge">
<title>Node3&#45;&gt;Node11</title>
<path fill="none" stroke="#63b8ff" d="M748.64,-62.78C795.08,-50.6 855.5,-34.76 892.74,-24.99"/>
<polygon fill="#63b8ff" stroke="#63b8ff" points="748.01,-59.33 739.22,-65.25 749.78,-66.1 748.01,-59.33"/>
</g>
<!-- Node12 -->
<g id="node12" class="node">
<title>Node12</title>
<g id="a_node12"><a xlink:href="timezone_8c.html" target="_top" xlink:title=" ">
<polygon fill="white" stroke="#666666" points="1124.5,-24.5 995.5,-24.5 995.5,-5.5 1124.5,-5.5 1124.5,-24.5"/>
<text text-anchor="middle" x="1060" y="-12.5" font-family="Helvetica,sans-Serif" font-size="10.00">ee/libcglue/src/timezone.c</text>
</a>
</g>
</g>
<!-- Node3&#45;&gt;Node12 -->
<g id="edge11" class="edge">
<title>Node3&#45;&gt;Node12</title>
<path fill="none" stroke="#63b8ff" d="M748.88,-69.58C810.31,-59.77 904.45,-44.44 986,-30 994.88,-28.43 1004.35,-26.68 1013.45,-24.98"/>
<polygon fill="#63b8ff" stroke="#63b8ff" points="748.62,-66.08 739.3,-71.11 749.72,-72.99 748.62,-66.08"/>
</g>
<!-- Node3&#45;&gt;Node13 -->
<g id="edge12" class="edge">
<title>Node3&#45;&gt;Node13</title>
<path fill="none" stroke="#63b8ff" d="M749.34,-74.5C837.34,-66.78 997.36,-51.25 1133,-30 1142.06,-28.58 1151.73,-26.79 1160.88,-24.97"/>
<polygon fill="#63b8ff" stroke="#63b8ff" points="749.1,-71.01 739.44,-75.36 749.71,-77.98 749.1,-71.01"/>
</g>
<!-- Node18 -->
<g id="node18" class="node">
<title>Node18</title>
<g id="a_node18"><a xlink:href="common_2sbus_2src_2irx__imports_8h_source.html" target="_top" xlink:title=" ">
<polygon fill="white" stroke="#666666" points="1399.5,-96 1292.5,-96 1292.5,-66 1399.5,-66 1399.5,-96"/>
<text text-anchor="start" x="1300.5" y="-84" font-family="Helvetica,sans-Serif" font-size="10.00">common/sbus/src/irx</text>
<text text-anchor="middle" x="1346" y="-73" font-family="Helvetica,sans-Serif" font-size="10.00">_imports.h</text>
</a>
</g>
</g>
<!-- Node17&#45;&gt;Node18 -->
<g id="edge18" class="edge">
<title>Node17&#45;&gt;Node18</title>
<path fill="none" stroke="#63b8ff" d="M2671.22,-145.2C2450.24,-141.93 1658.56,-128.19 1409,-96 1406,-95.61 1402.93,-95.15 1399.84,-94.64"/>
<polygon fill="#63b8ff" stroke="#63b8ff" points="2670.96,-148.7 2681.01,-145.34 2671.06,-141.7 2670.96,-148.7"/>
</g>
<!-- Node19 -->
<g id="node19" class="node">
<title>Node19</title>
<g id="a_node19"><a xlink:href="iop_2cdvd_2cdfs_2src_2irx__imports_8h_source.html" target="_top" xlink:title=" ">
<polygon fill="white" stroke="#666666" points="1522,-96 1418,-96 1418,-66 1522,-66 1522,-96"/>
<text text-anchor="start" x="1426" y="-84" font-family="Helvetica,sans-Serif" font-size="10.00">iop/cdvd/cdfs/src/irx</text>
<text text-anchor="middle" x="1470" y="-73" font-family="Helvetica,sans-Serif" font-size="10.00">_imports.h</text>
</a>
</g>
</g>
<!-- Node17&#45;&gt;Node19 -->
<g id="edge19" class="edge">
<title>Node17&#45;&gt;Node19</title>
<path fill="none" stroke="#63b8ff" d="M2671.47,-145C2464.13,-141.18 1755.5,-126.19 1531,-96 1528.2,-95.62 1525.34,-95.18 1522.46,-94.68"/>
<polygon fill="#63b8ff" stroke="#63b8ff" points="2671.11,-148.5 2681.18,-145.18 2671.24,-141.5 2671.11,-148.5"/>
</g>
<!-- Node20 -->
<g id="node20" class="node">
<title>Node20</title>
<g id="a_node20"><a xlink:href="iop_2debug_2iop__sbusdbg_2src_2irx__imports_8h_source.html" target="_top" xlink:title=" ">
<polygon fill="white" stroke="#666666" points="1656,-96 1540,-96 1540,-66 1656,-66 1656,-96"/>
<text text-anchor="start" x="1548" y="-84" font-family="Helvetica,sans-Serif" font-size="10.00">iop/debug/iop_sbusdbg</text>
<text text-anchor="middle" x="1598" y="-73" font-family="Helvetica,sans-Serif" font-size="10.00">/src/irx_imports.h</text>
</a>
</g>
</g>
<!-- Node17&#45;&gt;Node20 -->
<g id="edge20" class="edge">
<title>Node17&#45;&gt;Node20</title>
<path fill="none" stroke="#63b8ff" d="M2671.15,-146.5C2510.69,-147.2 2046.65,-144.53 1665,-96 1662.17,-95.64 1659.28,-95.22 1656.37,-94.77"/>
<polygon fill="#63b8ff" stroke="#63b8ff" points="2671.13,-150 2681.11,-146.45 2671.09,-143 2671.13,-150"/>
</g>
<!-- Node21 -->
<g id="node21" class="node">
<title>Node21</title>
<g id="a_node21"><a xlink:href="iop_2debug_2iopdebug_2src_2irx__imports_8h_source.html" target="_top" xlink:title=" ">
<polygon fill="white" stroke="#666666" points="1775.5,-96 1674.5,-96 1674.5,-66 1775.5,-66 1775.5,-96"/>
<text text-anchor="start" x="1682.5" y="-84" font-family="Helvetica,sans-Serif" font-size="10.00">iop/debug/iopdebug</text>
<text text-anchor="middle" x="1725" y="-73" font-family="Helvetica,sans-Serif" font-size="10.00">/src/irx_imports.h</text>
</a>
</g>
</g>
<!-- Node17&#45;&gt;Node21 -->
<g id="edge21" class="edge">
<title>Node17&#45;&gt;Node21</title>
<path fill="none" stroke="#63b8ff" d="M2671.54,-146.55C2523.57,-147.18 2117.68,-144.02 1784,-96 1781.29,-95.61 1778.52,-95.16 1775.74,-94.65"/>
<polygon fill="#63b8ff" stroke="#63b8ff" points="2671.49,-150.05 2681.47,-146.5 2671.45,-143.05 2671.49,-150.05"/>
</g>
<!-- Node22 -->
<g id="node22" class="node">
<title>Node22</title>
<g id="a_node22"><a xlink:href="diskio_8c_source.html" target="_top" xlink:title=" ">
<polygon fill="white" stroke="#666666" points="1888.5,-96 1793.5,-96 1793.5,-66 1888.5,-66 1888.5,-96"/>
<text text-anchor="start" x="1801.5" y="-84" font-family="Helvetica,sans-Serif" font-size="10.00">iop/fs/bdmfs_fatfs</text>
<text text-anchor="middle" x="1841" y="-73" font-family="Helvetica,sans-Serif" font-size="10.00">/src/diskio.c</text>
</a>
</g>
</g>
<!-- Node17&#45;&gt;Node22 -->
<g id="edge22" class="edge">
<title>Node17&#45;&gt;Node22</title>
<path fill="none" stroke="#63b8ff" d="M2671.37,-146.19C2535.6,-145.84 2185.37,-140.32 1897,-96 1894.33,-95.59 1891.59,-95.11 1888.84,-94.58"/>
<polygon fill="#63b8ff" stroke="#63b8ff" points="2671.16,-149.69 2681.17,-146.21 2671.18,-142.69 2671.16,-149.69"/>
</g>
<!-- Node23 -->
<g id="node23" class="node">
<title>Node23</title>
<g id="a_node23"><a xlink:href="iop_2fs_2bdmfs__fatfs_2src_2irx__imports_8h_source.html" target="_top" xlink:title=" ">
<polygon fill="white" stroke="#666666" points="2001.5,-96 1906.5,-96 1906.5,-66 2001.5,-66 2001.5,-96"/>
<text text-anchor="start" x="1914.5" y="-84" font-family="Helvetica,sans-Serif" font-size="10.00">iop/fs/bdmfs_fatfs</text>
<text text-anchor="middle" x="1954" y="-73" font-family="Helvetica,sans-Serif" font-size="10.00">/src/irx_imports.h</text>
</a>
</g>
</g>
<!-- Node17&#45;&gt;Node23 -->
<g id="edge23" class="edge">
<title>Node17&#45;&gt;Node23</title>
<path fill="none" stroke="#63b8ff" d="M2671.54,-145.42C2549.14,-143.43 2253.94,-134.67 2010,-96 2007.33,-95.58 2004.6,-95.09 2001.85,-94.55"/>
<polygon fill="#63b8ff" stroke="#63b8ff" points="2671.27,-148.91 2681.33,-145.57 2671.38,-141.91 2671.27,-148.91"/>
</g>
<!-- Node24 -->
<g id="node24" class="node">
<title>Node24</title>
<g id="a_node24"><a xlink:href="iop_2fs_2bdmfs__fatfs_2src_2main_8c_source.html" target="_top" xlink:title=" ">
<polygon fill="white" stroke="#666666" points="2114.5,-96 2019.5,-96 2019.5,-66 2114.5,-66 2114.5,-96"/>
<text text-anchor="start" x="2027.5" y="-84" font-family="Helvetica,sans-Serif" font-size="10.00">iop/fs/bdmfs_fatfs</text>
<text text-anchor="middle" x="2067" y="-73" font-family="Helvetica,sans-Serif" font-size="10.00">/src/main.c</text>
</a>
</g>
</g>
<!-- Node17&#45;&gt;Node24 -->
<g id="edge24" class="edge">
<title>Node17&#45;&gt;Node24</title>
<path fill="none" stroke="#63b8ff" d="M2671.41,-144.37C2563.27,-140.61 2322.73,-128.98 2123,-96 2120.33,-95.56 2117.6,-95.06 2114.85,-94.51"/>
<polygon fill="#63b8ff" stroke="#63b8ff" points="2671.07,-147.86 2681.18,-144.69 2671.3,-140.86 2671.07,-147.86"/>
</g>
<!-- Node25 -->
<g id="node25" class="node">
<title>Node25</title>
<g id="a_node25"><a xlink:href="fs_2bdmfs__vfat_2src_2fat__write_8c_source.html" target="_top" xlink:title=" ">
<polygon fill="white" stroke="#666666" points="2241.5,-96 2132.5,-96 2132.5,-66 2241.5,-66 2241.5,-96"/>
<text text-anchor="start" x="2140.5" y="-84" font-family="Helvetica,sans-Serif" font-size="10.00">iop/fs/bdmfs_vfat/src</text>
<text text-anchor="middle" x="2187" y="-73" font-family="Helvetica,sans-Serif" font-size="10.00">/fat_write.c</text>
</a>
</g>
</g>
<!-- Node17&#45;&gt;Node25 -->
<g id="edge25" class="edge">
<title>Node17&#45;&gt;Node25</title>
<path fill="none" stroke="#63b8ff" d="M2671.18,-142.12C2580.86,-135.56 2401.01,-120.58 2250,-96 2247.35,-95.57 2244.64,-95.09 2241.9,-94.59"/>
<polygon fill="#63b8ff" stroke="#63b8ff" points="2670.79,-145.6 2681.02,-142.82 2671.29,-138.61 2670.79,-145.6"/>
</g>
<!-- Node26 -->
<g id="node26" class="node">
<title>Node26</title>
<g id="a_node26"><a xlink:href="iop_2fs_2bdmfs__vfat_2src_2irx__imports_8h_source.html" target="_top" xlink:title=" ">
<polygon fill="white" stroke="#666666" points="2368.5,-96 2259.5,-96 2259.5,-66 2368.5,-66 2368.5,-96"/>
<text text-anchor="start" x="2267.5" y="-84" font-family="Helvetica,sans-Serif" font-size="10.00">iop/fs/bdmfs_vfat/src</text>
<text text-anchor="middle" x="2314" y="-73" font-family="Helvetica,sans-Serif" font-size="10.00">/irx_imports.h</text>
</a>
</g>
</g>
<!-- Node17&#45;&gt;Node26 -->
<g id="edge26" class="edge">
<title>Node17&#45;&gt;Node26</title>
<path fill="none" stroke="#63b8ff" d="M2671.39,-139.12C2601.68,-130.49 2480.86,-114.55 2378,-96 2374.98,-95.45 2371.88,-94.87 2368.76,-94.26"/>
<polygon fill="#63b8ff" stroke="#63b8ff" points="2670.69,-142.56 2681.05,-140.31 2671.55,-135.61 2670.69,-142.56"/>
</g>
<!-- Node27 -->
<g id="node27" class="node">
<title>Node27</title>
<g id="a_node27"><a xlink:href="iop_2hdd_2apa_2src_2irx__imports_8h_source.html" target="_top" xlink:title=" ">
<polygon fill="white" stroke="#666666" points="2483,-96 2387,-96 2387,-66 2483,-66 2483,-96"/>
<text text-anchor="start" x="2395" y="-84" font-family="Helvetica,sans-Serif" font-size="10.00">iop/hdd/apa/src/irx</text>
<text text-anchor="middle" x="2435" y="-73" font-family="Helvetica,sans-Serif" font-size="10.00">_imports.h</text>
</a>
</g>
</g>
<!-- Node17&#45;&gt;Node27 -->
<g id="edge27" class="edge">
<title>Node17&#45;&gt;Node27</title>
<path fill="none" stroke="#63b8ff" d="M2671.46,-134.41C2623.4,-124.6 2553.11,-109.95 2492,-96 2489.22,-95.37 2486.36,-94.7 2483.48,-94.02"/>
<polygon fill="#63b8ff" stroke="#63b8ff" points="2670.6,-137.81 2681.1,-136.38 2672,-130.95 2670.6,-137.81"/>
</g>
<!-- Node28 -->
<g id="node28" class="node">
<title>Node28</title>
<g id="a_node28"><a xlink:href="iop_2hdd_2pfs_2src_2irx__imports_8h_source.html" target="_top" xlink:title=" ">
<polygon fill="white" stroke="#666666" points="2595,-96 2501,-96 2501,-66 2595,-66 2595,-96"/>
<text text-anchor="start" x="2509" y="-84" font-family="Helvetica,sans-Serif" font-size="10.00">iop/hdd/pfs/src/irx</text>
<text text-anchor="middle" x="2548" y="-73" font-family="Helvetica,sans-Serif" font-size="10.00">_imports.h</text>
</a>
</g>
</g>
<!-- Node17&#45;&gt;Node28 -->
<g id="edge28" class="edge">
<title>Node17&#45;&gt;Node28</title>
<path fill="none" stroke="#63b8ff" d="M2677.54,-127.8C2649.41,-117.86 2615.06,-105.71 2588.8,-96.43"/>
<polygon fill="#63b8ff" stroke="#63b8ff" points="2676.36,-131.1 2686.95,-131.13 2678.69,-124.5 2676.36,-131.1"/>
</g>
<!-- Node29 -->
<g id="node29" class="node">
<title>Node29</title>
<g id="a_node29"><a xlink:href="iop_2i_link_2_i_e_e_e1394__bd_2src_2irx__imports_8h_source.html" target="_top" xlink:title=" ">
<polygon fill="white" stroke="#666666" points="2720.5,-96 2613.5,-96 2613.5,-66 2720.5,-66 2720.5,-96"/>
<text text-anchor="start" x="2621.5" y="-84" font-family="Helvetica,sans-Serif" font-size="10.00">iop/iLink/IEEE1394</text>
<text text-anchor="middle" x="2667" y="-73" font-family="Helvetica,sans-Serif" font-size="10.00">_bd/src/irx_imports.h</text>
</a>
</g>
</g>
<!-- Node17&#45;&gt;Node29 -->
<g id="edge29" class="edge">
<title>Node17&#45;&gt;Node29</title>
<path fill="none" stroke="#63b8ff" d="M2707.5,-123.81C2698.62,-114.64 2688.58,-104.28 2680.72,-96.16"/>
<polygon fill="#63b8ff" stroke="#63b8ff" points="2704.72,-125.96 2714.19,-130.71 2709.74,-121.09 2704.72,-125.96"/>
</g>
<!-- Node30 -->
<g id="node30" class="node">
<title>Node30</title>
<g id="a_node30"><a xlink:href="i_link_2_i_e_e_e1394__disk_2src_2fat__write_8c_source.html" target="_top" xlink:title=" ">
<polygon fill="white" stroke="#666666" points="2843,-96 2739,-96 2739,-66 2843,-66 2843,-96"/>
<text text-anchor="start" x="2747" y="-84" font-family="Helvetica,sans-Serif" font-size="10.00">iop/iLink/IEEE1394</text>
<text text-anchor="middle" x="2791" y="-73" font-family="Helvetica,sans-Serif" font-size="10.00">_disk/src/fat_write.c</text>
</a>
</g>
</g>
<!-- Node17&#45;&gt;Node30 -->
<g id="edge30" class="edge">
<title>Node17&#45;&gt;Node30</title>
<path fill="none" stroke="#63b8ff" d="M2750.5,-123.81C2759.38,-114.64 2769.42,-104.28 2777.28,-96.16"/>
<polygon fill="#63b8ff" stroke="#63b8ff" points="2748.26,-121.09 2743.81,-130.71 2753.28,-125.96 2748.26,-121.09"/>
</g>
<!-- Node31 -->
<g id="node31" class="node">
<title>Node31</title>
<g id="a_node31"><a xlink:href="iop_2i_link_2_i_e_e_e1394__disk_2src_2irx__imports_8h_source.html" target="_top" xlink:title=" ">
<polygon fill="white" stroke="#666666" points="2975,-96 2861,-96 2861,-66 2975,-66 2975,-96"/>
<text text-anchor="start" x="2869" y="-84" font-family="Helvetica,sans-Serif" font-size="10.00">iop/iLink/IEEE1394</text>
<text text-anchor="middle" x="2918" y="-73" font-family="Helvetica,sans-Serif" font-size="10.00">_disk/src/irx_imports.h</text>
</a>
</g>
</g>
<!-- Node17&#45;&gt;Node31 -->
<g id="edge31" class="edge">
<title>Node17&#45;&gt;Node31</title>
<path fill="none" stroke="#63b8ff" d="M2781.96,-128.07C2811.47,-118.07 2847.74,-105.79 2875.4,-96.43"/>
<polygon fill="#63b8ff" stroke="#63b8ff" points="2781.2,-124.63 2772.85,-131.15 2783.44,-131.26 2781.2,-124.63"/>
</g>
<!-- Node32 -->
<g id="node32" class="node">
<title>Node32</title>
<g id="a_node32"><a xlink:href="i_link__internal_8c_source.html" target="_top" xlink:title=" ">
<polygon fill="white" stroke="#666666" points="3094.5,-96 2993.5,-96 2993.5,-66 3094.5,-66 3094.5,-96"/>
<text text-anchor="start" x="3001.5" y="-84" font-family="Helvetica,sans-Serif" font-size="10.00">iop/iLink/iLinkman</text>
<text text-anchor="middle" x="3044" y="-73" font-family="Helvetica,sans-Serif" font-size="10.00">/src/iLink_internal.c</text>
</a>
</g>
</g>
<!-- Node17&#45;&gt;Node32 -->
<g id="edge32" class="edge">
<title>Node17&#45;&gt;Node32</title>
<path fill="none" stroke="#63b8ff" d="M2786.44,-135.34C2838.2,-125.59 2916.34,-110.52 2984,-96 2987.03,-95.35 2990.15,-94.67 2993.29,-93.97"/>
<polygon fill="#63b8ff" stroke="#63b8ff" points="2785.84,-131.89 2776.65,-137.18 2787.13,-138.77 2785.84,-131.89"/>
</g>
<!-- Node33 -->
<g id="node33" class="node">
<title>Node33</title>
<g id="a_node33"><a xlink:href="iop_2i_link_2i_linkman_2src_2irx__imports_8h_source.html" target="_top" xlink:title=" ">
<polygon fill="white" stroke="#666666" points="3209,-96 3113,-96 3113,-66 3209,-66 3209,-96"/>
<text text-anchor="start" x="3121" y="-84" font-family="Helvetica,sans-Serif" font-size="10.00">iop/iLink/iLinkman</text>
<text text-anchor="middle" x="3161" y="-73" font-family="Helvetica,sans-Serif" font-size="10.00">/src/irx_imports.h</text>
</a>
</g>
</g>
<!-- Node17&#45;&gt;Node33 -->
<g id="edge33" class="edge">
<title>Node17&#45;&gt;Node33</title>
<path fill="none" stroke="#63b8ff" d="M2786.63,-140.18C2860.34,-132.3 2991.76,-116.8 3103,-96 3106.16,-95.41 3109.4,-94.76 3112.66,-94.07"/>
<polygon fill="#63b8ff" stroke="#63b8ff" points="2786.39,-136.68 2776.81,-141.22 2787.13,-143.64 2786.39,-136.68"/>
</g>
<!-- Node34 -->
<g id="node34" class="node">
<title>Node34</title>
<g id="a_node34"><a xlink:href="iop_2memorycard_2mcman_2src_2irx__imports_8h_source.html" target="_top" xlink:title=" ">
<polygon fill="white" stroke="#666666" points="3348.5,-96 3227.5,-96 3227.5,-66 3348.5,-66 3348.5,-96"/>
<text text-anchor="start" x="3235.5" y="-84" font-family="Helvetica,sans-Serif" font-size="10.00">iop/memorycard/mcman</text>
<text text-anchor="middle" x="3288" y="-73" font-family="Helvetica,sans-Serif" font-size="10.00">/src/irx_imports.h</text>
</a>
</g>
</g>
<!-- Node17&#45;&gt;Node34 -->
<g id="edge34" class="edge">
<title>Node17&#45;&gt;Node34</title>
<path fill="none" stroke="#63b8ff" d="M2786.61,-141.9C2878.27,-134.98 3062.83,-119.4 3218,-96 3221.06,-95.54 3224.2,-95.03 3227.36,-94.5"/>
<polygon fill="#63b8ff" stroke="#63b8ff" points="2786.59,-138.39 2776.88,-142.63 2787.11,-145.37 2786.59,-138.39"/>
</g>
<!-- Node35 -->
<g id="node35" class="node">
<title>Node35</title>
<g id="a_node35"><a xlink:href="mcman-internal_8h_source.html" target="_top" xlink:title=" ">
<polygon fill="white" stroke="#666666" points="3487.5,-96 3366.5,-96 3366.5,-66 3487.5,-66 3487.5,-96"/>
<text text-anchor="start" x="3374.5" y="-84" font-family="Helvetica,sans-Serif" font-size="10.00">iop/memorycard/mcman</text>
<text text-anchor="middle" x="3427" y="-73" font-family="Helvetica,sans-Serif" font-size="10.00">/src/mcman&#45;internal.h</text>
</a>
</g>
</g>
<!-- Node17&#45;&gt;Node35 -->
<g id="edge35" class="edge">
<title>Node17&#45;&gt;Node35</title>
<path fill="none" stroke="#63b8ff" d="M2786.63,-143.75C2897.65,-138.9 3148.72,-125.44 3358,-96 3360.66,-95.63 3363.38,-95.21 3366.12,-94.77"/>
<polygon fill="#63b8ff" stroke="#63b8ff" points="2786.73,-140.24 2776.89,-144.17 2787.03,-147.24 2786.73,-140.24"/>
</g>
<!-- Node41 -->
<g id="node41" class="node">
<title>Node41</title>
<g id="a_node41"><a xlink:href="_mecha_auth_8c_source.html" target="_top" xlink:title=" ">
<polygon fill="white" stroke="#666666" points="3612.5,-96 3505.5,-96 3505.5,-66 3612.5,-66 3612.5,-96"/>
<text text-anchor="start" x="3513.5" y="-84" font-family="Helvetica,sans-Serif" font-size="10.00">iop/security/secrman</text>
<text text-anchor="middle" x="3559" y="-73" font-family="Helvetica,sans-Serif" font-size="10.00">/src/MechaAuth.c</text>
</a>
</g>
</g>
<!-- Node17&#45;&gt;Node41 -->
<g id="edge41" class="edge">
<title>Node17&#45;&gt;Node41</title>
<path fill="none" stroke="#63b8ff" d="M2786.59,-145.33C2914.85,-143.18 3233.47,-134.09 3497,-96 3499.73,-95.61 3502.52,-95.15 3505.33,-94.66"/>
<polygon fill="#63b8ff" stroke="#63b8ff" points="2786.6,-141.83 2776.65,-145.49 2786.71,-148.83 2786.6,-141.83"/>
</g>
<!-- Node42 -->
<g id="node42" class="node">
<title>Node42</title>
<g id="a_node42"><a xlink:href="iop_2security_2secrman_2src_2irx__imports_8h_source.html" target="_top" xlink:title=" ">
<polygon fill="white" stroke="#666666" points="3737.5,-96 3630.5,-96 3630.5,-66 3737.5,-66 3737.5,-96"/>
<text text-anchor="start" x="3638.5" y="-84" font-family="Helvetica,sans-Serif" font-size="10.00">iop/security/secrman</text>
<text text-anchor="middle" x="3684" y="-73" font-family="Helvetica,sans-Serif" font-size="10.00">/src/irx_imports.h</text>
</a>
</g>
</g>
<!-- Node17&#45;&gt;Node42 -->
<g id="edge42" class="edge">
<title>Node17&#45;&gt;Node42</title>
<path fill="none" stroke="#63b8ff" d="M2786.72,-146.08C2929.25,-145.55 3309.01,-139.79 3622,-96 3624.73,-95.62 3627.52,-95.18 3630.33,-94.69"/>
<polygon fill="#63b8ff" stroke="#63b8ff" points="2786.78,-142.58 2776.79,-146.11 2786.8,-149.58 2786.78,-142.58"/>
</g>
<!-- Node43 -->
<g id="node43" class="node">
<title>Node43</title>
<g id="a_node43"><a xlink:href="cdrom_8c.html" target="_top" xlink:title=" ">
<polygon fill="white" stroke="#666666" points="3862.5,-96 3755.5,-96 3755.5,-66 3862.5,-66 3862.5,-96"/>
<text text-anchor="start" x="3763.5" y="-84" font-family="Helvetica,sans-Serif" font-size="10.00">iop/sound/audsrv/src</text>
<text text-anchor="middle" x="3809" y="-73" font-family="Helvetica,sans-Serif" font-size="10.00">/cdrom.c</text>
</a>
</g>
</g>
<!-- Node17&#45;&gt;Node43 -->
<g id="edge43" class="edge">
<title>Node17&#45;&gt;Node43</title>
<path fill="none" stroke="#63b8ff" d="M2786.57,-146.65C2942.19,-147.65 3383.96,-145.52 3747,-96 3749.73,-95.63 3752.52,-95.19 3755.34,-94.71"/>
<polygon fill="#63b8ff" stroke="#63b8ff" points="2786.97,-143.15 2776.94,-146.58 2786.92,-150.15 2786.97,-143.15"/>
</g>
<!-- Node44 -->
<g id="node44" class="node">
<title>Node44</title>
<g id="a_node44"><a xlink:href="iop_2sound_2audsrv_2src_2irx__imports_8h_source.html" target="_top" xlink:title=" ">
<polygon fill="white" stroke="#666666" points="3987.5,-96 3880.5,-96 3880.5,-66 3987.5,-66 3987.5,-96"/>
<text text-anchor="start" x="3888.5" y="-84" font-family="Helvetica,sans-Serif" font-size="10.00">iop/sound/audsrv/src</text>
<text text-anchor="middle" x="3934" y="-73" font-family="Helvetica,sans-Serif" font-size="10.00">/irx_imports.h</text>
</a>
</g>
</g>
<!-- Node17&#45;&gt;Node44 -->
<g id="edge44" class="edge">
<title>Node17&#45;&gt;Node44</title>
<path fill="none" stroke="#63b8ff" d="M2786.85,-144.83C2988.37,-140.56 3658.82,-124.5 3872,-96 3874.63,-95.65 3877.3,-95.24 3880,-94.79"/>
<polygon fill="#63b8ff" stroke="#63b8ff" points="2786.81,-141.33 2776.88,-145.04 2786.95,-148.33 2786.81,-141.33"/>
</g>
<!-- Node45 -->
<g id="node45" class="node">
<title>Node45</title>
<g id="a_node45"><a xlink:href="api_8c_source.html" target="_top" xlink:title=" ">
<polygon fill="white" stroke="#666666" points="4112.5,-96 4005.5,-96 4005.5,-66 4112.5,-66 4112.5,-96"/>
<text text-anchor="start" x="4013.5" y="-84" font-family="Helvetica,sans-Serif" font-size="10.00">iop/usb/usbhdfsd/src</text>
<text text-anchor="middle" x="4059" y="-73" font-family="Helvetica,sans-Serif" font-size="10.00">/api.c</text>
</a>
</g>
</g>
<!-- Node17&#45;&gt;Node45 -->
<g id="edge45" class="edge">
<title>Node17&#45;&gt;Node45</title>
<path fill="none" stroke="#63b8ff" d="M2786.62,-145.13C3001.8,-141.65 3758.12,-127.41 3997,-96 3999.63,-95.65 4002.3,-95.25 4005,-94.8"/>
<polygon fill="#63b8ff" stroke="#63b8ff" points="2786.76,-141.62 2776.82,-145.28 2786.87,-148.62 2786.76,-141.62"/>
</g>
<!-- Node46 -->
<g id="node46" class="node">
<title>Node46</title>
<g id="a_node46"><a xlink:href="usb_2usbhdfsd_2src_2fat__write_8c_source.html" target="_top" xlink:title=" ">
<polygon fill="white" stroke="#666666" points="4237.5,-96 4130.5,-96 4130.5,-66 4237.5,-66 4237.5,-96"/>
<text text-anchor="start" x="4138.5" y="-84" font-family="Helvetica,sans-Serif" font-size="10.00">iop/usb/usbhdfsd/src</text>
<text text-anchor="middle" x="4184" y="-73" font-family="Helvetica,sans-Serif" font-size="10.00">/fat_write.c</text>
</a>
</g>
</g>
<!-- Node17&#45;&gt;Node46 -->
<g id="edge46" class="edge">
<title>Node17&#45;&gt;Node46</title>
<path fill="none" stroke="#63b8ff" d="M2786.54,-145.36C3014.86,-142.62 3857.37,-130.32 4122,-96 4124.63,-95.66 4127.31,-95.26 4130,-94.81"/>
<polygon fill="#63b8ff" stroke="#63b8ff" points="2786.67,-141.86 2776.71,-145.48 2786.75,-148.86 2786.67,-141.86"/>
</g>
<!-- Node47 -->
<g id="node47" class="node">
<title>Node47</title>
<g id="a_node47"><a xlink:href="iop_2usb_2usbhdfsd_2src_2irx__imports_8h_source.html" target="_top" xlink:title=" ">
<polygon fill="white" stroke="#666666" points="4362.5,-96 4255.5,-96 4255.5,-66 4362.5,-66 4362.5,-96"/>
<text text-anchor="start" x="4263.5" y="-84" font-family="Helvetica,sans-Serif" font-size="10.00">iop/usb/usbhdfsd/src</text>
<text text-anchor="middle" x="4309" y="-73" font-family="Helvetica,sans-Serif" font-size="10.00">/irx_imports.h</text>
</a>
</g>
</g>
<!-- Node17&#45;&gt;Node47 -->
<g id="edge47" class="edge">
<title>Node17&#45;&gt;Node47</title>
<path fill="none" stroke="#63b8ff" d="M2786.49,-145.56C3027.39,-143.5 3956.54,-133.24 4247,-96 4249.63,-95.66 4252.31,-95.27 4255,-94.82"/>
<polygon fill="#63b8ff" stroke="#63b8ff" points="2786.69,-142.06 2776.72,-145.64 2786.75,-149.06 2786.69,-142.06"/>
</g>
<!-- Node36 -->
<g id="node36" class="node">
<title>Node36</title>
<g id="a_node36"><a xlink:href="iop_2memorycard_2mcman_2src_2main_8c_source.html" target="_top" xlink:title=" ">
<polygon fill="white" stroke="#666666" points="3209.5,-30 3088.5,-30 3088.5,0 3209.5,0 3209.5,-30"/>
<text text-anchor="start" x="3096.5" y="-18" font-family="Helvetica,sans-Serif" font-size="10.00">iop/memorycard/mcman</text>
<text text-anchor="middle" x="3149" y="-7" font-family="Helvetica,sans-Serif" font-size="10.00">/src/main.c</text>
</a>
</g>
</g>
<!-- Node35&#45;&gt;Node36 -->
<g id="edge36" class="edge">
<title>Node35&#45;&gt;Node36</title>
<path fill="none" stroke="#63b8ff" d="M3355.14,-63.46C3309.97,-53.06 3252.36,-39.8 3209.54,-29.94"/>
<polygon fill="#63b8ff" stroke="#63b8ff" points="3354.33,-66.86 3364.86,-65.69 3355.9,-60.04 3354.33,-66.86"/>
</g>
<!-- Node37 -->
<g id="node37" class="node">
<title>Node37</title>
<g id="a_node37"><a xlink:href="mcdev_8c_source.html" target="_top" xlink:title=" ">
<polygon fill="white" stroke="#666666" points="3348.5,-30 3227.5,-30 3227.5,0 3348.5,0 3348.5,-30"/>
<text text-anchor="start" x="3235.5" y="-18" font-family="Helvetica,sans-Serif" font-size="10.00">iop/memorycard/mcman</text>
<text text-anchor="middle" x="3288" y="-7" font-family="Helvetica,sans-Serif" font-size="10.00">/src/mcdev.c</text>
</a>
</g>
</g>
<!-- Node35&#45;&gt;Node37 -->
<g id="edge37" class="edge">
<title>Node35&#45;&gt;Node37</title>
<path fill="none" stroke="#63b8ff" d="M3385.42,-60.86C3364.13,-51.05 3338.65,-39.32 3319.09,-30.31"/>
<polygon fill="#63b8ff" stroke="#63b8ff" points="3383.88,-64 3394.43,-65 3386.81,-57.64 3383.88,-64"/>
</g>
<!-- Node38 -->
<g id="node38" class="node">
<title>Node38</title>
<g id="a_node38"><a xlink:href="mcsio2_8c_source.html" target="_top" xlink:title=" ">
<polygon fill="white" stroke="#666666" points="3487.5,-30 3366.5,-30 3366.5,0 3487.5,0 3487.5,-30"/>
<text text-anchor="start" x="3374.5" y="-18" font-family="Helvetica,sans-Serif" font-size="10.00">iop/memorycard/mcman</text>
<text text-anchor="middle" x="3427" y="-7" font-family="Helvetica,sans-Serif" font-size="10.00">/src/mcsio2.c</text>
</a>
</g>
</g>
<!-- Node35&#45;&gt;Node38 -->
<g id="edge38" class="edge">
<title>Node35&#45;&gt;Node38</title>
<path fill="none" stroke="#63b8ff" d="M3427,-54.39C3427,-46.13 3427,-37.28 3427,-30.16"/>
<polygon fill="#63b8ff" stroke="#63b8ff" points="3423.5,-54.28 3427,-64.28 3430.5,-54.28 3423.5,-54.28"/>
</g>
<!-- Node39 -->
<g id="node39" class="node">
<title>Node39</title>
<g id="a_node39"><a xlink:href="ps1mc__fio_8c_source.html" target="_top" xlink:title=" ">
<polygon fill="white" stroke="#666666" points="3626.5,-30 3505.5,-30 3505.5,0 3626.5,0 3626.5,-30"/>
<text text-anchor="start" x="3513.5" y="-18" font-family="Helvetica,sans-Serif" font-size="10.00">iop/memorycard/mcman</text>
<text text-anchor="middle" x="3566" y="-7" font-family="Helvetica,sans-Serif" font-size="10.00">/src/ps1mc_fio.c</text>
</a>
</g>
</g>
<!-- Node35&#45;&gt;Node39 -->
<g id="edge39" class="edge">
<title>Node35&#45;&gt;Node39</title>
<path fill="none" stroke="#63b8ff" d="M3468.58,-60.86C3489.87,-51.05 3515.35,-39.32 3534.91,-30.31"/>
<polygon fill="#63b8ff" stroke="#63b8ff" points="3467.19,-57.64 3459.57,-65 3470.12,-64 3467.19,-57.64"/>
</g>
<!-- Node40 -->
<g id="node40" class="node">
<title>Node40</title>
<g id="a_node40"><a xlink:href="ps2mc__fio_8c_source.html" target="_top" xlink:title=" ">
<polygon fill="white" stroke="#666666" points="3765.5,-30 3644.5,-30 3644.5,0 3765.5,0 3765.5,-30"/>
<text text-anchor="start" x="3652.5" y="-18" font-family="Helvetica,sans-Serif" font-size="10.00">iop/memorycard/mcman</text>
<text text-anchor="middle" x="3705" y="-7" font-family="Helvetica,sans-Serif" font-size="10.00">/src/ps2mc_fio.c</text>
</a>
</g>
</g>
<!-- Node35&#45;&gt;Node40 -->
<g id="edge40" class="edge">
<title>Node35&#45;&gt;Node40</title>
<path fill="none" stroke="#63b8ff" d="M3498.86,-63.46C3544.03,-53.06 3601.64,-39.8 3644.46,-29.94"/>
<polygon fill="#63b8ff" stroke="#63b8ff" points="3498.1,-60.04 3489.14,-65.69 3499.67,-66.86 3498.1,-60.04"/>
</g>
</g>
</svg>
