<?xml version="1.0" encoding="UTF-8" standalone="no"?>
<!DOCTYPE svg PUBLIC "-//W3C//DTD SVG 1.1//EN"
 "http://www.w3.org/Graphics/SVG/1.1/DTD/svg11.dtd">
<!-- Generated by graphviz version 7.0.5 (20221223.1930)
 -->
<!-- Title: ee/rpc/cdvd/src/libcdvd.c Pages: 1 -->
<svg width="582pt" height="302pt"
 viewBox="0.00 0.00 581.50 302.00" xmlns="http://www.w3.org/2000/svg" xmlns:xlink="http://www.w3.org/1999/xlink">
<g id="graph0" class="graph" transform="scale(1 1) rotate(0) translate(4 298)">
<title>ee/rpc/cdvd/src/libcdvd.c</title>
<!-- Node1 -->
<g id="node1" class="node">
<title>Node1</title>
<g id="a_node1"><a xlink:title=" ">
<polygon fill="#999999" stroke="#666666" points="389,-294 264,-294 264,-275 389,-275 389,-294"/>
<text text-anchor="middle" x="326.5" y="-282" font-family="Helvetica,sans-Serif" font-size="10.00">ee/rpc/cdvd/src/libcdvd.c</text>
</a>
</g>
</g>
<!-- Node2 -->
<g id="node2" class="node">
<title>Node2</title>
<g id="a_node2"><a xlink:href="stdio_8h.html" target="_top" xlink:title=" ">
<polygon fill="white" stroke="#666666" points="126,-184 81,-184 81,-165 126,-165 126,-184"/>
<text text-anchor="middle" x="103.5" y="-172" font-family="Helvetica,sans-Serif" font-size="10.00">stdio.h</text>
</a>
</g>
</g>
<!-- Node1&#45;&gt;Node2 -->
<g id="edge1" class="edge">
<title>Node1&#45;&gt;Node2</title>
<path fill="none" stroke="#63b8ff" d="M300.2,-274.55C276.78,-266.27 241.77,-253.13 212.5,-239 181.99,-224.27 148.56,-204.16 126.87,-190.54"/>
<polygon fill="#63b8ff" stroke="#63b8ff" points="128.83,-187.64 118.51,-185.24 125.08,-193.55 128.83,-187.64"/>
</g>
<!-- Node3 -->
<g id="node3" class="node">
<title>Node3</title>
<g id="a_node3"><a xlink:title=" ">
<polygon fill="#e0e0e0" stroke="#999999" points="51,-129 0,-129 0,-110 51,-110 51,-129"/>
<text text-anchor="middle" x="25.5" y="-117" font-family="Helvetica,sans-Serif" font-size="10.00">stdarg.h</text>
</a>
</g>
</g>
<!-- Node1&#45;&gt;Node3 -->
<g id="edge25" class="edge">
<title>Node1&#45;&gt;Node3</title>
<path fill="none" stroke="#63b8ff" d="M276.69,-274.54C221.14,-262.37 131.24,-235.88 71.5,-184 56.74,-171.18 44.06,-152.76 35.78,-139.06"/>
<polygon fill="#63b8ff" stroke="#63b8ff" points="38.92,-137.49 30.88,-130.59 32.86,-141 38.92,-137.49"/>
</g>
<!-- Node7 -->
<g id="node7" class="node">
<title>Node7</title>
<g id="a_node7"><a xlink:href="tamtypes_8h.html" target="_top" xlink:title=" ">
<polygon fill="white" stroke="#666666" points="326.5,-19 262.5,-19 262.5,0 326.5,0 326.5,-19"/>
<text text-anchor="middle" x="294.5" y="-7" font-family="Helvetica,sans-Serif" font-size="10.00">tamtypes.h</text>
</a>
</g>
</g>
<!-- Node1&#45;&gt;Node7 -->
<g id="edge7" class="edge">
<title>Node1&#45;&gt;Node7</title>
<path fill="none" stroke="#63b8ff" d="M329.7,-274.68C336.02,-256.42 349.5,-213.07 349.5,-175.5 349.5,-175.5 349.5,-175.5 349.5,-118.5 349.5,-89.04 344.25,-81.05 330.5,-55 325.36,-45.25 317.91,-35.6 311.13,-27.79"/>
<polygon fill="#63b8ff" stroke="#63b8ff" points="313.72,-25.44 304.4,-20.41 308.55,-30.15 313.72,-25.44"/>
</g>
<!-- Node8 -->
<g id="node8" class="node">
<title>Node8</title>
<g id="a_node8"><a xlink:href="kernel_8h.html" target="_top" xlink:title=" ">
<polygon fill="white" stroke="#666666" points="194.5,-184 144.5,-184 144.5,-165 194.5,-165 194.5,-184"/>
<text text-anchor="middle" x="169.5" y="-172" font-family="Helvetica,sans-Serif" font-size="10.00">kernel.h</text>
</a>
</g>
</g>
<!-- Node1&#45;&gt;Node8 -->
<g id="edge8" class="edge">
<title>Node1&#45;&gt;Node8</title>
<path fill="none" stroke="#63b8ff" d="M304.95,-274.61C286.55,-266.56 259.75,-253.73 238.5,-239 218.52,-225.16 198.38,-205.86 185.06,-192.18"/>
<polygon fill="#63b8ff" stroke="#63b8ff" points="187.84,-190.03 178.4,-185.21 182.78,-194.86 187.84,-190.03"/>
</g>
<!-- Node10 -->
<g id="node10" class="node">
<title>Node10</title>
<g id="a_node10"><a xlink:title=" ">
<polygon fill="#e0e0e0" stroke="#999999" points="499.5,-239 451.5,-239 451.5,-220 499.5,-220 499.5,-239"/>
<text text-anchor="middle" x="475.5" y="-227" font-family="Helvetica,sans-Serif" font-size="10.00">sifrpc.h</text>
</a>
</g>
</g>
<!-- Node1&#45;&gt;Node10 -->
<g id="edge13" class="edge">
<title>Node1&#45;&gt;Node10</title>
<path fill="none" stroke="#63b8ff" d="M351.78,-274.51C376.15,-265.84 413.25,-252.64 440.46,-242.96"/>
<polygon fill="#63b8ff" stroke="#63b8ff" points="441.42,-246.34 449.67,-239.69 439.07,-239.74 441.42,-246.34"/>
</g>
<!-- Node11 -->
<g id="node11" class="node">
<title>Node11</title>
<g id="a_node11"><a xlink:href="string_8h_source.html" target="_top" xlink:title=" ">
<polygon fill="white" stroke="#666666" points="295.5,-239 247.5,-239 247.5,-220 295.5,-220 295.5,-239"/>
<text text-anchor="middle" x="271.5" y="-227" font-family="Helvetica,sans-Serif" font-size="10.00">string.h</text>
</a>
</g>
</g>
<!-- Node1&#45;&gt;Node11 -->
<g id="edge14" class="edge">
<title>Node1&#45;&gt;Node11</title>
<path fill="none" stroke="#63b8ff" d="M317.42,-274.75C309.66,-267.27 298.29,-256.32 288.8,-247.17"/>
<polygon fill="#63b8ff" stroke="#63b8ff" points="291.5,-244.91 281.87,-240.49 286.64,-249.95 291.5,-244.91"/>
</g>
<!-- Node15 -->
<g id="node15" class="node">
<title>Node15</title>
<g id="a_node15"><a xlink:href="libcdvd_8h.html" target="_top" xlink:title=" ">
<polygon fill="white" stroke="#666666" points="433,-239 378,-239 378,-220 433,-220 433,-239"/>
<text text-anchor="middle" x="405.5" y="-227" font-family="Helvetica,sans-Serif" font-size="10.00">libcdvd.h</text>
</a>
</g>
</g>
<!-- Node1&#45;&gt;Node15 -->
<g id="edge22" class="edge">
<title>Node1&#45;&gt;Node15</title>
<path fill="none" stroke="#63b8ff" d="M339.9,-274.51C351.66,-266.62 369.01,-254.98 382.91,-245.65"/>
<polygon fill="#63b8ff" stroke="#63b8ff" points="384.69,-248.68 391.04,-240.2 380.79,-242.87 384.69,-248.68"/>
</g>
<!-- Node17 -->
<g id="node17" class="node">
<title>Node17</title>
<g id="a_node17"><a xlink:href="ee_2rpc_2cdvd_2src_2internal_8h.html" target="_top" xlink:title=" ">
<polygon fill="white" stroke="#666666" points="573.5,-239 517.5,-239 517.5,-220 573.5,-220 573.5,-239"/>
<text text-anchor="middle" x="545.5" y="-227" font-family="Helvetica,sans-Serif" font-size="10.00">internal.h</text>
</a>
</g>
</g>
<!-- Node1&#45;&gt;Node17 -->
<g id="edge26" class="edge">
<title>Node1&#45;&gt;Node17</title>
<path fill="none" stroke="#63b8ff" d="M363.65,-274.51C403.28,-264.92 465.78,-249.79 506.21,-240.01"/>
<polygon fill="#63b8ff" stroke="#63b8ff" points="506.87,-243.45 515.77,-237.69 505.23,-236.65 506.87,-243.45"/>
</g>
<!-- Node2&#45;&gt;Node3 -->
<g id="edge2" class="edge">
<title>Node2&#45;&gt;Node3</title>
<path fill="none" stroke="#63b8ff" d="M90.27,-164.51C78.66,-156.62 61.53,-144.98 47.8,-135.65"/>
<polygon fill="#63b8ff" stroke="#63b8ff" points="50.03,-132.93 39.79,-130.21 46.09,-138.72 50.03,-132.93"/>
</g>
<!-- Node4 -->
<g id="node4" class="node">
<title>Node4</title>
<g id="a_node4"><a xlink:href="irx_8h.html" target="_top" xlink:title=" ">
<polygon fill="white" stroke="#666666" points="141.5,-129 107.5,-129 107.5,-110 141.5,-110 141.5,-129"/>
<text text-anchor="middle" x="124.5" y="-117" font-family="Helvetica,sans-Serif" font-size="10.00">irx.h</text>
</a>
</g>
</g>
<!-- Node2&#45;&gt;Node4 -->
<g id="edge3" class="edge">
<title>Node2&#45;&gt;Node4</title>
<path fill="none" stroke="#63b8ff" d="M106.97,-164.75C109.63,-158.04 113.4,-148.52 116.76,-140.02"/>
<polygon fill="#63b8ff" stroke="#63b8ff" points="119.97,-141.44 120.4,-130.85 113.46,-138.86 119.97,-141.44"/>
</g>
<!-- Node5 -->
<g id="node5" class="node">
<title>Node5</title>
<g id="a_node5"><a xlink:href="iop_2kernel_2include_2types_8h_source.html" target="_top" xlink:title=" ">
<polygon fill="white" stroke="#666666" points="161,-74 114,-74 114,-55 161,-55 161,-74"/>
<text text-anchor="middle" x="137.5" y="-62" font-family="Helvetica,sans-Serif" font-size="10.00">types.h</text>
</a>
</g>
</g>
<!-- Node4&#45;&gt;Node5 -->
<g id="edge4" class="edge">
<title>Node4&#45;&gt;Node5</title>
<path fill="none" stroke="#63b8ff" d="M126.65,-109.75C128.26,-103.19 130.52,-93.95 132.57,-85.6"/>
<polygon fill="#63b8ff" stroke="#63b8ff" points="135.96,-86.46 134.95,-75.91 129.16,-84.79 135.96,-86.46"/>
</g>
<!-- Node6 -->
<g id="node6" class="node">
<title>Node6</title>
<g id="a_node6"><a xlink:title=" ">
<polygon fill="#e0e0e0" stroke="#999999" points="134,-19 83,-19 83,0 134,0 134,-19"/>
<text text-anchor="middle" x="108.5" y="-7" font-family="Helvetica,sans-Serif" font-size="10.00">stddef.h</text>
</a>
</g>
</g>
<!-- Node5&#45;&gt;Node6 -->
<g id="edge5" class="edge">
<title>Node5&#45;&gt;Node6</title>
<path fill="none" stroke="#63b8ff" d="M132.71,-54.75C128.96,-47.88 123.59,-38.08 118.87,-29.45"/>
<polygon fill="#63b8ff" stroke="#63b8ff" points="121.99,-27.86 114.12,-20.77 115.85,-31.22 121.99,-27.86"/>
</g>
<!-- Node5&#45;&gt;Node7 -->
<g id="edge6" class="edge">
<title>Node5&#45;&gt;Node7</title>
<path fill="none" stroke="#63b8ff" d="M161.34,-55.45C186.83,-46.85 227.56,-33.1 257.27,-23.07"/>
<polygon fill="#63b8ff" stroke="#63b8ff" points="258.28,-26.42 266.63,-19.91 256.04,-19.79 258.28,-26.42"/>
</g>
<!-- Node8&#45;&gt;Node3 -->
<g id="edge10" class="edge">
<title>Node8&#45;&gt;Node3</title>
<path fill="none" stroke="#63b8ff" d="M145.07,-164.51C121.76,-155.93 86.41,-142.92 60.19,-133.27"/>
<polygon fill="#63b8ff" stroke="#63b8ff" points="61.58,-130.05 50.99,-129.88 59.16,-136.62 61.58,-130.05"/>
</g>
<!-- Node8&#45;&gt;Node6 -->
<g id="edge9" class="edge">
<title>Node8&#45;&gt;Node6</title>
<path fill="none" stroke="#63b8ff" d="M144.35,-165.05C128.09,-158.12 108.22,-146.56 98.5,-129 81.15,-97.64 91.93,-54.32 100.66,-29.68"/>
<polygon fill="#63b8ff" stroke="#63b8ff" points="103.82,-31.23 104.12,-20.64 97.28,-28.73 103.82,-31.23"/>
</g>
<!-- Node9 -->
<g id="node9" class="node">
<title>Node9</title>
<g id="a_node9"><a xlink:href="sifdma_8h.html" target="_top" xlink:title=" ">
<polygon fill="white" stroke="#666666" points="244,-74 191,-74 191,-55 244,-55 244,-74"/>
<text text-anchor="middle" x="217.5" y="-62" font-family="Helvetica,sans-Serif" font-size="10.00">sifdma.h</text>
</a>
</g>
</g>
<!-- Node8&#45;&gt;Node9 -->
<g id="edge11" class="edge">
<title>Node8&#45;&gt;Node9</title>
<path fill="none" stroke="#63b8ff" d="M173.43,-164.66C181.13,-147.34 198.37,-108.55 208.86,-84.95"/>
<polygon fill="#63b8ff" stroke="#63b8ff" points="212.04,-86.4 212.9,-75.84 205.64,-83.56 212.04,-86.4"/>
</g>
<!-- Node9&#45;&gt;Node7 -->
<g id="edge12" class="edge">
<title>Node9&#45;&gt;Node7</title>
<path fill="none" stroke="#63b8ff" d="M230.56,-54.51C242.02,-46.62 258.93,-34.98 272.48,-25.65"/>
<polygon fill="#63b8ff" stroke="#63b8ff" points="274.13,-28.77 280.38,-20.22 270.16,-23 274.13,-28.77"/>
</g>
<!-- Node12 -->
<g id="node12" class="node">
<title>Node12</title>
<g id="a_node12"><a xlink:href="sysclib_8h.html" target="_top" xlink:title=" ">
<polygon fill="white" stroke="#666666" points="276.5,-184 222.5,-184 222.5,-165 276.5,-165 276.5,-184"/>
<text text-anchor="middle" x="249.5" y="-172" font-family="Helvetica,sans-Serif" font-size="10.00">sysclib.h</text>
</a>
</g>
</g>
<!-- Node11&#45;&gt;Node12 -->
<g id="edge15" class="edge">
<title>Node11&#45;&gt;Node12</title>
<path fill="none" stroke="#63b8ff" d="M267.87,-219.75C265.08,-213.04 261.13,-203.52 257.6,-195.02"/>
<polygon fill="#63b8ff" stroke="#63b8ff" points="260.86,-193.73 253.79,-185.84 254.39,-196.42 260.86,-193.73"/>
</g>
<!-- Node12&#45;&gt;Node3 -->
<g id="edge18" class="edge">
<title>Node12&#45;&gt;Node3</title>
<path fill="none" stroke="#63b8ff" d="M222.03,-167C181.95,-157.52 107.32,-139.86 62.45,-129.24"/>
<polygon fill="#63b8ff" stroke="#63b8ff" points="63.47,-125.89 52.93,-126.99 61.85,-132.7 63.47,-125.89"/>
</g>
<!-- Node12&#45;&gt;Node4 -->
<g id="edge17" class="edge">
<title>Node12&#45;&gt;Node4</title>
<path fill="none" stroke="#63b8ff" d="M228.3,-164.51C207.34,-155.63 175.19,-141.99 152.22,-132.25"/>
<polygon fill="#63b8ff" stroke="#63b8ff" points="153.74,-129.1 143.17,-128.42 151.01,-135.54 153.74,-129.1"/>
</g>
<!-- Node12&#45;&gt;Node5 -->
<g id="edge16" class="edge">
<title>Node12&#45;&gt;Node5</title>
<path fill="none" stroke="#63b8ff" d="M240.33,-164.66C221.71,-146.7 179.17,-105.69 155.05,-82.42"/>
<polygon fill="#63b8ff" stroke="#63b8ff" points="157.51,-79.93 147.88,-75.51 152.65,-84.97 157.51,-79.93"/>
</g>
<!-- Node13 -->
<g id="node13" class="node">
<title>Node13</title>
<g id="a_node13"><a xlink:href="setjmp_8h.html" target="_top" xlink:title=" ">
<polygon fill="white" stroke="#666666" points="321,-74 268,-74 268,-55 321,-55 321,-74"/>
<text text-anchor="middle" x="294.5" y="-62" font-family="Helvetica,sans-Serif" font-size="10.00">setjmp.h</text>
</a>
</g>
</g>
<!-- Node12&#45;&gt;Node13 -->
<g id="edge19" class="edge">
<title>Node12&#45;&gt;Node13</title>
<path fill="none" stroke="#63b8ff" d="M261.54,-164.79C271.56,-156.76 285.18,-143.86 291.5,-129 297.33,-115.29 297.84,-98.38 297.03,-85.46"/>
<polygon fill="#63b8ff" stroke="#63b8ff" points="300.53,-85.25 296.07,-75.64 293.56,-85.93 300.53,-85.25"/>
</g>
<!-- Node14 -->
<g id="node14" class="node">
<title>Node14</title>
<g id="a_node14"><a xlink:href="ctype_8h.html" target="_top" xlink:title=" ">
<polygon fill="white" stroke="#666666" points="283,-129 236,-129 236,-110 283,-110 283,-129"/>
<text text-anchor="middle" x="259.5" y="-117" font-family="Helvetica,sans-Serif" font-size="10.00">ctype.h</text>
</a>
</g>
</g>
<!-- Node12&#45;&gt;Node14 -->
<g id="edge21" class="edge">
<title>Node12&#45;&gt;Node14</title>
<path fill="none" stroke="#63b8ff" d="M251.15,-164.75C252.39,-158.19 254.13,-148.95 255.71,-140.6"/>
<polygon fill="#63b8ff" stroke="#63b8ff" points="259.12,-141.4 257.53,-130.93 252.24,-140.11 259.12,-141.4"/>
</g>
<!-- Node13&#45;&gt;Node7 -->
<g id="edge20" class="edge">
<title>Node13&#45;&gt;Node7</title>
<path fill="none" stroke="#63b8ff" d="M294.5,-54.75C294.5,-48.27 294.5,-39.16 294.5,-30.9"/>
<polygon fill="#63b8ff" stroke="#63b8ff" points="298,-30.96 294.5,-20.96 291,-30.96 298,-30.96"/>
</g>
<!-- Node16 -->
<g id="node16" class="node">
<title>Node16</title>
<g id="a_node16"><a xlink:href="libcdvd-common_8h.html" target="_top" xlink:title=" ">
<polygon fill="white" stroke="#666666" points="473,-74 378,-74 378,-55 473,-55 473,-74"/>
<text text-anchor="middle" x="425.5" y="-62" font-family="Helvetica,sans-Serif" font-size="10.00">libcdvd&#45;common.h</text>
</a>
</g>
</g>
<!-- Node15&#45;&gt;Node16 -->
<g id="edge23" class="edge">
<title>Node15&#45;&gt;Node16</title>
<path fill="none" stroke="#63b8ff" d="M406.58,-219.74C409.67,-194.53 418.65,-121.36 423.03,-85.62"/>
<polygon fill="#63b8ff" stroke="#63b8ff" points="426.49,-86.16 424.24,-75.81 419.54,-85.31 426.49,-86.16"/>
</g>
<!-- Node16&#45;&gt;Node7 -->
<g id="edge24" class="edge">
<title>Node16&#45;&gt;Node7</title>
<path fill="none" stroke="#63b8ff" d="M403.28,-54.51C382.36,-46.04 350.77,-33.27 327.02,-23.66"/>
<polygon fill="#63b8ff" stroke="#63b8ff" points="328.38,-20.43 317.8,-19.93 325.75,-26.92 328.38,-20.43"/>
</g>
</g>
</svg>
