<?xml version="1.0" encoding="UTF-8" standalone="no"?>
<!DOCTYPE svg PUBLIC "-//W3C//DTD SVG 1.1//EN"
 "http://www.w3.org/Graphics/SVG/1.1/DTD/svg11.dtd">
<!-- Generated by graphviz version 7.0.5 (20221223.1930)
 -->
<!-- Title: ee/libgs/include/libgs.h Pages: 1 -->
<svg width="1246pt" height="82pt"
 viewBox="0.00 0.00 1246.00 82.00" xmlns="http://www.w3.org/2000/svg" xmlns:xlink="http://www.w3.org/1999/xlink">
<g id="graph0" class="graph" transform="scale(1 1) rotate(0) translate(4 78)">
<title>ee/libgs/include/libgs.h</title>
<!-- Node1 -->
<g id="node1" class="node">
<title>Node1</title>
<g id="a_node1"><a xlink:title=" ">
<polygon fill="#999999" stroke="#666666" points="667,-74 552,-74 552,-55 667,-55 667,-74"/>
<text text-anchor="middle" x="609.5" y="-62" font-family="Helvetica,sans-Serif" font-size="10.00">ee/libgs/include/libgs.h</text>
</a>
</g>
</g>
<!-- Node2 -->
<g id="node2" class="node">
<title>Node2</title>
<g id="a_node2"><a xlink:href="_double_buff_8c_source.html" target="_top" xlink:title=" ">
<polygon fill="white" stroke="#666666" points="125,-19 0,-19 0,0 125,0 125,-19"/>
<text text-anchor="middle" x="62.5" y="-7" font-family="Helvetica,sans-Serif" font-size="10.00">ee/libgs/src/DoubleBuff.c</text>
</a>
</g>
</g>
<!-- Node1&#45;&gt;Node2 -->
<g id="edge1" class="edge">
<title>Node1&#45;&gt;Node2</title>
<path fill="none" stroke="#63b8ff" d="M540.1,-57.58C447.36,-49.54 277.94,-34.4 133.5,-19 130.78,-18.71 128.01,-18.41 125.21,-18.1"/>
<polygon fill="#63b8ff" stroke="#63b8ff" points="539.79,-61.07 550.06,-58.44 540.4,-54.09 539.79,-61.07"/>
</g>
<!-- Node3 -->
<g id="node3" class="node">
<title>Node3</title>
<g id="a_node3"><a xlink:href="_zbuffer_8c_source.html" target="_top" xlink:title=" ">
<polygon fill="white" stroke="#666666" points="250,-19 143,-19 143,0 250,0 250,-19"/>
<text text-anchor="middle" x="196.5" y="-7" font-family="Helvetica,sans-Serif" font-size="10.00">ee/libgs/src/Zbuffer.c</text>
</a>
</g>
</g>
<!-- Node1&#45;&gt;Node3 -->
<g id="edge2" class="edge">
<title>Node1&#45;&gt;Node3</title>
<path fill="none" stroke="#63b8ff" d="M540.18,-54.85C469.56,-45.99 356.87,-31.76 259.5,-19 256.55,-18.61 253.51,-18.21 250.45,-17.81"/>
<polygon fill="#63b8ff" stroke="#63b8ff" points="539.72,-58.31 550.08,-56.08 540.59,-51.37 539.72,-58.31"/>
</g>
<!-- Node4 -->
<g id="node4" class="node">
<title>Node4</title>
<g id="a_node4"><a xlink:href="libgs_2src_2dma_8c_source.html" target="_top" xlink:title=" ">
<polygon fill="white" stroke="#666666" points="364.5,-19 268.5,-19 268.5,0 364.5,0 364.5,-19"/>
<text text-anchor="middle" x="316.5" y="-7" font-family="Helvetica,sans-Serif" font-size="10.00">ee/libgs/src/dma.c</text>
</a>
</g>
</g>
<!-- Node1&#45;&gt;Node4 -->
<g id="edge3" class="edge">
<title>Node1&#45;&gt;Node4</title>
<path fill="none" stroke="#63b8ff" d="M548.56,-52.48C494.08,-42.62 415.29,-28.37 364.98,-19.27"/>
<polygon fill="#63b8ff" stroke="#63b8ff" points="547.84,-55.9 558.31,-54.24 549.09,-49.02 547.84,-55.9"/>
</g>
<!-- Node5 -->
<g id="node5" class="node">
<title>Node5</title>
<g id="a_node5"><a xlink:href="libgs_2src_2draw_8c_source.html" target="_top" xlink:title=" ">
<polygon fill="white" stroke="#666666" points="480.5,-19 382.5,-19 382.5,0 480.5,0 480.5,-19"/>
<text text-anchor="middle" x="431.5" y="-7" font-family="Helvetica,sans-Serif" font-size="10.00">ee/libgs/src/draw.c</text>
</a>
</g>
</g>
<!-- Node1&#45;&gt;Node5 -->
<g id="edge4" class="edge">
<title>Node1&#45;&gt;Node5</title>
<path fill="none" stroke="#63b8ff" d="M568.32,-51.24C535.69,-41.52 490.86,-28.18 461.55,-19.45"/>
<polygon fill="#63b8ff" stroke="#63b8ff" points="567.27,-54.58 577.85,-54.08 569.27,-47.87 567.27,-54.58"/>
</g>
<!-- Node6 -->
<g id="node6" class="node">
<title>Node6</title>
<g id="a_node6"><a xlink:href="libgs_8c_source.html" target="_top" xlink:title=" ">
<polygon fill="white" stroke="#666666" points="596.5,-19 498.5,-19 498.5,0 596.5,0 596.5,-19"/>
<text text-anchor="middle" x="547.5" y="-7" font-family="Helvetica,sans-Serif" font-size="10.00">ee/libgs/src/libgs.c</text>
</a>
</g>
</g>
<!-- Node1&#45;&gt;Node6 -->
<g id="edge5" class="edge">
<title>Node1&#45;&gt;Node6</title>
<path fill="none" stroke="#63b8ff" d="M590.3,-47.09C579.6,-37.94 566.69,-26.9 557.86,-19.36"/>
<polygon fill="#63b8ff" stroke="#63b8ff" points="587.96,-49.69 597.83,-53.53 592.51,-44.37 587.96,-49.69"/>
</g>
<!-- Node7 -->
<g id="node7" class="node">
<title>Node7</title>
<g id="a_node7"><a xlink:href="lowlevel_8c_source.html" target="_top" xlink:title=" ">
<polygon fill="white" stroke="#666666" points="728,-19 615,-19 615,0 728,0 728,-19"/>
<text text-anchor="middle" x="671.5" y="-7" font-family="Helvetica,sans-Serif" font-size="10.00">ee/libgs/src/lowlevel.c</text>
</a>
</g>
</g>
<!-- Node1&#45;&gt;Node7 -->
<g id="edge6" class="edge">
<title>Node1&#45;&gt;Node7</title>
<path fill="none" stroke="#63b8ff" d="M628.7,-47.09C639.4,-37.94 652.31,-26.9 661.14,-19.36"/>
<polygon fill="#63b8ff" stroke="#63b8ff" points="626.49,-44.37 621.17,-53.53 631.04,-49.69 626.49,-44.37"/>
</g>
<!-- Node8 -->
<g id="node8" class="node">
<title>Node8</title>
<g id="a_node8"><a xlink:href="packets_8c_source.html" target="_top" xlink:title=" ">
<polygon fill="white" stroke="#666666" points="858.5,-19 746.5,-19 746.5,0 858.5,0 858.5,-19"/>
<text text-anchor="middle" x="802.5" y="-7" font-family="Helvetica,sans-Serif" font-size="10.00">ee/libgs/src/packets.c</text>
</a>
</g>
</g>
<!-- Node1&#45;&gt;Node8 -->
<g id="edge7" class="edge">
<title>Node1&#45;&gt;Node8</title>
<path fill="none" stroke="#63b8ff" d="M653.23,-51.49C688.68,-41.76 737.86,-28.25 769.92,-19.45"/>
<polygon fill="#63b8ff" stroke="#63b8ff" points="652.42,-48.09 643.7,-54.11 654.27,-54.84 652.42,-48.09"/>
</g>
<!-- Node9 -->
<g id="node9" class="node">
<title>Node9</title>
<g id="a_node9"><a xlink:href="primitives_8c_source.html" target="_top" xlink:title=" ">
<polygon fill="white" stroke="#666666" points="996,-19 877,-19 877,0 996,0 996,-19"/>
<text text-anchor="middle" x="936.5" y="-7" font-family="Helvetica,sans-Serif" font-size="10.00">ee/libgs/src/primitives.c</text>
</a>
</g>
</g>
<!-- Node1&#45;&gt;Node9 -->
<g id="edge8" class="edge">
<title>Node1&#45;&gt;Node9</title>
<path fill="none" stroke="#63b8ff" d="M676.28,-52.68C736.64,-42.89 824.45,-28.66 881.03,-19.49"/>
<polygon fill="#63b8ff" stroke="#63b8ff" points="675.78,-49.21 666.47,-54.27 676.9,-56.12 675.78,-49.21"/>
</g>
<!-- Node10 -->
<g id="node10" class="node">
<title>Node10</title>
<g id="a_node10"><a xlink:href="sync_8c_source.html" target="_top" xlink:title=" ">
<polygon fill="white" stroke="#666666" points="1112.5,-19 1014.5,-19 1014.5,0 1112.5,0 1112.5,-19"/>
<text text-anchor="middle" x="1063.5" y="-7" font-family="Helvetica,sans-Serif" font-size="10.00">ee/libgs/src/sync.c</text>
</a>
</g>
</g>
<!-- Node1&#45;&gt;Node10 -->
<g id="edge9" class="edge">
<title>Node1&#45;&gt;Node10</title>
<path fill="none" stroke="#63b8ff" d="M678.55,-56.45C757.64,-48.21 891.06,-33.81 1005.5,-19 1008.33,-18.63 1011.23,-18.25 1014.15,-17.85"/>
<polygon fill="#63b8ff" stroke="#63b8ff" points="678.38,-52.95 668.79,-57.46 679.1,-59.91 678.38,-52.95"/>
</g>
<!-- Node11 -->
<g id="node11" class="node">
<title>Node11</title>
<g id="a_node11"><a xlink:href="texture_8c_source.html" target="_top" xlink:title=" ">
<polygon fill="white" stroke="#666666" points="1238,-19 1131,-19 1131,0 1238,0 1238,-19"/>
<text text-anchor="middle" x="1184.5" y="-7" font-family="Helvetica,sans-Serif" font-size="10.00">ee/libgs/src/texture.c</text>
</a>
</g>
</g>
<!-- Node1&#45;&gt;Node11 -->
<g id="edge10" class="edge">
<title>Node1&#45;&gt;Node11</title>
<path fill="none" stroke="#63b8ff" d="M678.45,-58.55C776.87,-51.25 963.26,-36.54 1121.5,-19 1124.46,-18.67 1127.5,-18.32 1130.56,-17.95"/>
<polygon fill="#63b8ff" stroke="#63b8ff" points="678.4,-55.04 668.69,-59.27 678.92,-62.03 678.4,-55.04"/>
</g>
</g>
</svg>
