<?xml version="1.0" encoding="UTF-8" standalone="no"?>
<!DOCTYPE svg PUBLIC "-//W3C//DTD SVG 1.1//EN"
 "http://www.w3.org/Graphics/SVG/1.1/DTD/svg11.dtd">
<!-- Generated by graphviz version 7.0.5 (20221223.1930)
 -->
<!-- Title: ee/rpc/hdd/include/libhdd.h Pages: 1 -->
<svg width="179pt" height="148pt"
 viewBox="0.00 0.00 179.00 148.00" xmlns="http://www.w3.org/2000/svg" xmlns:xlink="http://www.w3.org/1999/xlink">
<g id="graph0" class="graph" transform="scale(1 1) rotate(0) translate(4 144)">
<title>ee/rpc/hdd/include/libhdd.h</title>
<!-- Node1 -->
<g id="node1" class="node">
<title>Node1</title>
<g id="a_node1"><a xlink:title=" ">
<polygon fill="#999999" stroke="#666666" points="110,-140 14,-140 14,-110 110,-110 110,-140"/>
<text text-anchor="start" x="22" y="-128" font-family="Helvetica,sans-Serif" font-size="10.00">ee/rpc/hdd/include</text>
<text text-anchor="middle" x="62" y="-117" font-family="Helvetica,sans-Serif" font-size="10.00">/libhdd.h</text>
</a>
</g>
</g>
<!-- Node2 -->
<g id="node2" class="node">
<title>Node2</title>
<g id="a_node2"><a xlink:href="tamtypes_8h.html" target="_top" xlink:title=" ">
<polygon fill="white" stroke="#666666" points="64,-19 0,-19 0,0 64,0 64,-19"/>
<text text-anchor="middle" x="32" y="-7" font-family="Helvetica,sans-Serif" font-size="10.00">tamtypes.h</text>
</a>
</g>
</g>
<!-- Node1&#45;&gt;Node2 -->
<g id="edge1" class="edge">
<title>Node1&#45;&gt;Node2</title>
<path fill="none" stroke="#63b8ff" d="M46.36,-109.92C37.34,-100.71 26.86,-87.85 22,-74 17.02,-59.79 20.06,-42.93 24.06,-30.15"/>
<polygon fill="#63b8ff" stroke="#63b8ff" points="27.33,-31.39 27.44,-20.8 20.75,-29.01 27.33,-31.39"/>
</g>
<!-- Node3 -->
<g id="node3" class="node">
<title>Node3</title>
<g id="a_node3"><a xlink:href="hdd-ioctl_8h.html" target="_top" xlink:title=" ">
<polygon fill="white" stroke="#666666" points="92.5,-74 31.5,-74 31.5,-55 92.5,-55 92.5,-74"/>
<text text-anchor="middle" x="62" y="-62" font-family="Helvetica,sans-Serif" font-size="10.00">hdd&#45;ioctl.h</text>
</a>
</g>
</g>
<!-- Node1&#45;&gt;Node3 -->
<g id="edge2" class="edge">
<title>Node1&#45;&gt;Node3</title>
<path fill="none" stroke="#63b8ff" d="M62,-109.54C62,-102.34 62,-93.53 62,-85.68"/>
<polygon fill="#63b8ff" stroke="#63b8ff" points="65.5,-85.69 62,-75.69 58.5,-85.69 65.5,-85.69"/>
</g>
<!-- Node4 -->
<g id="node4" class="node">
<title>Node4</title>
<g id="a_node4"><a xlink:href="libpwroff_8h.html" target="_top" xlink:title="Power&#45;off library.">
<polygon fill="white" stroke="#666666" points="171,-74 111,-74 111,-55 171,-55 171,-74"/>
<text text-anchor="middle" x="141" y="-62" font-family="Helvetica,sans-Serif" font-size="10.00">libpwroff.h</text>
</a>
</g>
</g>
<!-- Node1&#45;&gt;Node4 -->
<g id="edge4" class="edge">
<title>Node1&#45;&gt;Node4</title>
<path fill="none" stroke="#63b8ff" d="M81.53,-109.54C93.24,-100.87 108.12,-89.85 120.07,-81"/>
<polygon fill="#63b8ff" stroke="#63b8ff" points="122.11,-83.84 128.07,-75.08 117.95,-78.21 122.11,-83.84"/>
</g>
<!-- Node3&#45;&gt;Node2 -->
<g id="edge3" class="edge">
<title>Node3&#45;&gt;Node2</title>
<path fill="none" stroke="#63b8ff" d="M57.05,-54.75C53.16,-47.88 47.61,-38.08 42.72,-29.45"/>
<polygon fill="#63b8ff" stroke="#63b8ff" points="45.78,-27.74 37.81,-20.76 39.69,-31.19 45.78,-27.74"/>
</g>
</g>
</svg>
