<?xml version="1.0" encoding="UTF-8" standalone="no"?>
<!DOCTYPE svg PUBLIC "-//W3C//DTD SVG 1.1//EN"
 "http://www.w3.org/Graphics/SVG/1.1/DTD/svg11.dtd">
<!-- Generated by graphviz version 7.0.5 (20221223.1930)
 -->
<!-- Title: common/include/libmc&#45;common.h Pages: 1 -->
<svg width="1098pt" height="236pt"
 viewBox="0.00 0.00 1097.50 236.00" xmlns="http://www.w3.org/2000/svg" xmlns:xlink="http://www.w3.org/1999/xlink">
<g id="graph0" class="graph" transform="scale(1 1) rotate(0) translate(4 232)">
<title>common/include/libmc&#45;common.h</title>
<!-- Node1 -->
<g id="node1" class="node">
<title>Node1</title>
<g id="a_node1"><a xlink:title=" ">
<polygon fill="#999999" stroke="#666666" points="392,-228 278,-228 278,-198 392,-198 392,-228"/>
<text text-anchor="start" x="286" y="-216" font-family="Helvetica,sans-Serif" font-size="10.00">common/include/libmc</text>
<text text-anchor="middle" x="335" y="-205" font-family="Helvetica,sans-Serif" font-size="10.00">&#45;common.h</text>
</a>
</g>
</g>
<!-- Node2 -->
<g id="node2" class="node">
<title>Node2</title>
<g id="a_node2"><a xlink:href="libmc_8h.html" target="_top" xlink:title=" ">
<polygon fill="white" stroke="#666666" points="329,-162 195,-162 195,-132 329,-132 329,-162"/>
<text text-anchor="start" x="203" y="-150" font-family="Helvetica,sans-Serif" font-size="10.00">ee/rpc/memorycard/include</text>
<text text-anchor="middle" x="262" y="-139" font-family="Helvetica,sans-Serif" font-size="10.00">/libmc.h</text>
</a>
</g>
</g>
<!-- Node1&#45;&gt;Node2 -->
<g id="edge1" class="edge">
<title>Node1&#45;&gt;Node2</title>
<path fill="none" stroke="#63b8ff" d="M310.39,-190.42C299.85,-181.18 287.83,-170.65 278.41,-162.39"/>
<polygon fill="#63b8ff" stroke="#63b8ff" points="307.83,-192.84 317.66,-196.8 312.45,-187.57 307.83,-192.84"/>
</g>
<!-- Node4 -->
<g id="node4" class="node">
<title>Node4</title>
<g id="a_node4"><a xlink:href="mcman_8h.html" target="_top" xlink:title=" ">
<polygon fill="white" stroke="#666666" points="602.5,-162 481.5,-162 481.5,-132 602.5,-132 602.5,-162"/>
<text text-anchor="start" x="489.5" y="-150" font-family="Helvetica,sans-Serif" font-size="10.00">iop/memorycard/mcman</text>
<text text-anchor="middle" x="542" y="-139" font-family="Helvetica,sans-Serif" font-size="10.00">/include/mcman.h</text>
</a>
</g>
</g>
<!-- Node1&#45;&gt;Node4 -->
<g id="edge3" class="edge">
<title>Node1&#45;&gt;Node4</title>
<path fill="none" stroke="#63b8ff" d="M392.41,-194.25C424.88,-184.21 464.96,-171.82 495.46,-162.39"/>
<polygon fill="#63b8ff" stroke="#63b8ff" points="391.68,-190.81 383.16,-197.11 393.75,-197.5 391.68,-190.81"/>
</g>
<!-- Node3 -->
<g id="node3" class="node">
<title>Node3</title>
<g id="a_node3"><a xlink:href="libmc_8c.html" target="_top" xlink:title=" ">
<polygon fill="white" stroke="#666666" points="116,-96 0,-96 0,-66 116,-66 116,-96"/>
<text text-anchor="start" x="8" y="-84" font-family="Helvetica,sans-Serif" font-size="10.00">ee/rpc/memorycard/src</text>
<text text-anchor="middle" x="58" y="-73" font-family="Helvetica,sans-Serif" font-size="10.00">/libmc.c</text>
</a>
</g>
</g>
<!-- Node2&#45;&gt;Node3 -->
<g id="edge2" class="edge">
<title>Node2&#45;&gt;Node3</title>
<path fill="none" stroke="#63b8ff" d="M205.01,-128.12C173.08,-118.1 133.79,-105.78 103.87,-96.39"/>
<polygon fill="#63b8ff" stroke="#63b8ff" points="203.93,-131.45 214.52,-131.1 206.03,-124.77 203.93,-131.45"/>
</g>
<!-- Node5 -->
<g id="node5" class="node">
<title>Node5</title>
<g id="a_node5"><a xlink:href="iop_2memorycard_2mcman_2src_2main_8c_source.html" target="_top" xlink:title=" ">
<polygon fill="white" stroke="#666666" points="255.5,-96 134.5,-96 134.5,-66 255.5,-66 255.5,-96"/>
<text text-anchor="start" x="142.5" y="-84" font-family="Helvetica,sans-Serif" font-size="10.00">iop/memorycard/mcman</text>
<text text-anchor="middle" x="195" y="-73" font-family="Helvetica,sans-Serif" font-size="10.00">/src/main.c</text>
</a>
</g>
</g>
<!-- Node4&#45;&gt;Node5 -->
<g id="edge4" class="edge">
<title>Node4&#45;&gt;Node5</title>
<path fill="none" stroke="#63b8ff" d="M469.93,-133.37C413.98,-123.48 334.5,-109.22 265,-96 261.96,-95.42 258.84,-94.82 255.69,-94.21"/>
<polygon fill="#63b8ff" stroke="#63b8ff" points="469.2,-136.8 479.66,-135.09 470.42,-129.91 469.2,-136.8"/>
</g>
<!-- Node6 -->
<g id="node6" class="node">
<title>Node6</title>
<g id="a_node6"><a xlink:href="mcdev_8c_source.html" target="_top" xlink:title=" ">
<polygon fill="white" stroke="#666666" points="394.5,-96 273.5,-96 273.5,-66 394.5,-66 394.5,-96"/>
<text text-anchor="start" x="281.5" y="-84" font-family="Helvetica,sans-Serif" font-size="10.00">iop/memorycard/mcman</text>
<text text-anchor="middle" x="334" y="-73" font-family="Helvetica,sans-Serif" font-size="10.00">/src/mcdev.c</text>
</a>
</g>
</g>
<!-- Node4&#45;&gt;Node6 -->
<g id="edge5" class="edge">
<title>Node4&#45;&gt;Node6</title>
<path fill="none" stroke="#63b8ff" d="M484.31,-128.25C451.68,-118.21 411.41,-105.82 380.77,-96.39"/>
<polygon fill="#63b8ff" stroke="#63b8ff" points="483.03,-131.52 493.61,-131.11 485.09,-124.83 483.03,-131.52"/>
</g>
<!-- Node7 -->
<g id="node7" class="node">
<title>Node7</title>
<g id="a_node7"><a xlink:href="mcsio2_8c_source.html" target="_top" xlink:title=" ">
<polygon fill="white" stroke="#666666" points="533.5,-96 412.5,-96 412.5,-66 533.5,-66 533.5,-96"/>
<text text-anchor="start" x="420.5" y="-84" font-family="Helvetica,sans-Serif" font-size="10.00">iop/memorycard/mcman</text>
<text text-anchor="middle" x="473" y="-73" font-family="Helvetica,sans-Serif" font-size="10.00">/src/mcsio2.c</text>
</a>
</g>
</g>
<!-- Node4&#45;&gt;Node7 -->
<g id="edge6" class="edge">
<title>Node4&#45;&gt;Node7</title>
<path fill="none" stroke="#63b8ff" d="M518.38,-124.09C508.41,-114.85 497.11,-104.36 488.27,-96.16"/>
<polygon fill="#63b8ff" stroke="#63b8ff" points="515.87,-126.53 525.58,-130.77 520.63,-121.4 515.87,-126.53"/>
</g>
<!-- Node8 -->
<g id="node8" class="node">
<title>Node8</title>
<g id="a_node8"><a xlink:href="ps1mc__fio_8c_source.html" target="_top" xlink:title=" ">
<polygon fill="white" stroke="#666666" points="672.5,-96 551.5,-96 551.5,-66 672.5,-66 672.5,-96"/>
<text text-anchor="start" x="559.5" y="-84" font-family="Helvetica,sans-Serif" font-size="10.00">iop/memorycard/mcman</text>
<text text-anchor="middle" x="612" y="-73" font-family="Helvetica,sans-Serif" font-size="10.00">/src/ps1mc_fio.c</text>
</a>
</g>
</g>
<!-- Node4&#45;&gt;Node8 -->
<g id="edge7" class="edge">
<title>Node4&#45;&gt;Node8</title>
<path fill="none" stroke="#63b8ff" d="M565.97,-124.09C576.07,-114.85 587.54,-104.36 596.51,-96.16"/>
<polygon fill="#63b8ff" stroke="#63b8ff" points="563.67,-121.44 558.65,-130.78 568.39,-126.61 563.67,-121.44"/>
</g>
<!-- Node9 -->
<g id="node9" class="node">
<title>Node9</title>
<g id="a_node9"><a xlink:href="ps2mc__fio_8c_source.html" target="_top" xlink:title=" ">
<polygon fill="white" stroke="#666666" points="811.5,-96 690.5,-96 690.5,-66 811.5,-66 811.5,-96"/>
<text text-anchor="start" x="698.5" y="-84" font-family="Helvetica,sans-Serif" font-size="10.00">iop/memorycard/mcman</text>
<text text-anchor="middle" x="751" y="-73" font-family="Helvetica,sans-Serif" font-size="10.00">/src/ps2mc_fio.c</text>
</a>
</g>
</g>
<!-- Node4&#45;&gt;Node9 -->
<g id="edge8" class="edge">
<title>Node4&#45;&gt;Node9</title>
<path fill="none" stroke="#63b8ff" d="M599.96,-128.25C632.75,-118.21 673.22,-105.82 704.01,-96.39"/>
<polygon fill="#63b8ff" stroke="#63b8ff" points="599.15,-124.84 590.61,-131.11 601.2,-131.53 599.15,-124.84"/>
</g>
<!-- Node10 -->
<g id="node10" class="node">
<title>Node10</title>
<g id="a_node10"><a xlink:href="iop_2memorycard_2mcserv_2src_2irx__imports_8h_source.html" target="_top" xlink:title=" ">
<polygon fill="white" stroke="#666666" points="950.5,-96 829.5,-96 829.5,-66 950.5,-66 950.5,-96"/>
<text text-anchor="start" x="837.5" y="-84" font-family="Helvetica,sans-Serif" font-size="10.00">iop/memorycard/mcserv</text>
<text text-anchor="middle" x="890" y="-73" font-family="Helvetica,sans-Serif" font-size="10.00">/src/irx_imports.h</text>
</a>
</g>
</g>
<!-- Node4&#45;&gt;Node10 -->
<g id="edge9" class="edge">
<title>Node4&#45;&gt;Node10</title>
<path fill="none" stroke="#63b8ff" d="M614.06,-133.55C670.45,-123.7 750.8,-109.41 821,-96 823.64,-95.5 826.34,-94.97 829.06,-94.44"/>
<polygon fill="#63b8ff" stroke="#63b8ff" points="613.5,-130.1 604.25,-135.26 614.7,-136.99 613.5,-130.1"/>
</g>
<!-- Node11 -->
<g id="node11" class="node">
<title>Node11</title>
<g id="a_node11"><a xlink:href="mcserv_8h_source.html" target="_top" xlink:title=" ">
<polygon fill="white" stroke="#666666" points="1089.5,-96 968.5,-96 968.5,-66 1089.5,-66 1089.5,-96"/>
<text text-anchor="start" x="976.5" y="-84" font-family="Helvetica,sans-Serif" font-size="10.00">iop/memorycard/mcserv</text>
<text text-anchor="middle" x="1029" y="-73" font-family="Helvetica,sans-Serif" font-size="10.00">/src/mcserv.h</text>
</a>
</g>
</g>
<!-- Node4&#45;&gt;Node11 -->
<g id="edge10" class="edge">
<title>Node4&#45;&gt;Node11</title>
<path fill="none" stroke="#63b8ff" d="M614.18,-139.16C697.69,-130.84 839.22,-115.44 960,-96 962.65,-95.57 965.36,-95.12 968.1,-94.64"/>
<polygon fill="#63b8ff" stroke="#63b8ff" points="613.9,-135.67 604.29,-140.14 614.59,-142.64 613.9,-135.67"/>
</g>
<!-- Node12 -->
<g id="node12" class="node">
<title>Node12</title>
<g id="a_node12"><a xlink:href="mcserv_8c_source.html" target="_top" xlink:title=" ">
<polygon fill="white" stroke="#666666" points="1089.5,-30 968.5,-30 968.5,0 1089.5,0 1089.5,-30"/>
<text text-anchor="start" x="976.5" y="-18" font-family="Helvetica,sans-Serif" font-size="10.00">iop/memorycard/mcserv</text>
<text text-anchor="middle" x="1029" y="-7" font-family="Helvetica,sans-Serif" font-size="10.00">/src/mcserv.c</text>
</a>
</g>
</g>
<!-- Node11&#45;&gt;Node12 -->
<g id="edge11" class="edge">
<title>Node11&#45;&gt;Node12</title>
<path fill="none" stroke="#63b8ff" d="M1029,-54.39C1029,-46.13 1029,-37.28 1029,-30.16"/>
<polygon fill="#63b8ff" stroke="#63b8ff" points="1025.5,-54.28 1029,-64.28 1032.5,-54.28 1025.5,-54.28"/>
</g>
</g>
</svg>
