<?xml version="1.0" encoding="UTF-8" standalone="no"?>
<!DOCTYPE svg PUBLIC "-//W3C//DTD SVG 1.1//EN"
 "http://www.w3.org/Graphics/SVG/1.1/DTD/svg11.dtd">
<!-- Generated by graphviz version 7.0.5 (20221223.1930)
 -->
<!-- Title: ee/rpc/mouse/src/libmouse.c Pages: 1 -->
<svg width="368pt" height="302pt"
 viewBox="0.00 0.00 368.31 302.00" xmlns="http://www.w3.org/2000/svg" xmlns:xlink="http://www.w3.org/1999/xlink">
<g id="graph0" class="graph" transform="scale(1 1) rotate(0) translate(4 298)">
<title>ee/rpc/mouse/src/libmouse.c</title>
<!-- Node1 -->
<g id="node1" class="node">
<title>Node1</title>
<g id="a_node1"><a xlink:title=" ">
<polygon fill="#999999" stroke="#666666" points="250,-294 108,-294 108,-275 250,-275 250,-294"/>
<text text-anchor="middle" x="179" y="-282" font-family="Helvetica,sans-Serif" font-size="10.00">ee/rpc/mouse/src/libmouse.c</text>
</a>
</g>
</g>
<!-- Node2 -->
<g id="node2" class="node">
<title>Node2</title>
<g id="a_node2"><a xlink:href="stdio_8h.html" target="_top" xlink:title=" ">
<polygon fill="white" stroke="#666666" points="116.5,-184 71.5,-184 71.5,-165 116.5,-165 116.5,-184"/>
<text text-anchor="middle" x="94" y="-172" font-family="Helvetica,sans-Serif" font-size="10.00">stdio.h</text>
</a>
</g>
</g>
<!-- Node1&#45;&gt;Node2 -->
<g id="edge1" class="edge">
<title>Node1&#45;&gt;Node2</title>
<path fill="none" stroke="#63b8ff" d="M158.93,-274.61C144.2,-267.11 124.79,-255.03 113,-239 103.6,-226.21 98.81,-208.77 96.4,-195.41"/>
<polygon fill="#63b8ff" stroke="#63b8ff" points="99.87,-195 94.95,-185.62 92.95,-196.02 99.87,-195"/>
</g>
<!-- Node7 -->
<g id="node7" class="node">
<title>Node7</title>
<g id="a_node7"><a xlink:href="tamtypes_8h.html" target="_top" xlink:title=" ">
<polygon fill="white" stroke="#666666" points="250,-19 186,-19 186,0 250,0 250,-19"/>
<text text-anchor="middle" x="218" y="-7" font-family="Helvetica,sans-Serif" font-size="10.00">tamtypes.h</text>
</a>
</g>
</g>
<!-- Node1&#45;&gt;Node7 -->
<g id="edge7" class="edge">
<title>Node1&#45;&gt;Node7</title>
<path fill="none" stroke="#63b8ff" d="M250.34,-275.15C277.76,-268.91 307.79,-258.02 330,-239 353.71,-218.7 360,-206.71 360,-175.5 360,-175.5 360,-175.5 360,-118.5 360,-89.04 361.23,-76.41 341,-55 320.28,-33.08 287.94,-21.92 261.62,-16.27"/>
<polygon fill="#63b8ff" stroke="#63b8ff" points="262.36,-12.84 251.88,-14.38 261.04,-19.72 262.36,-12.84"/>
</g>
<!-- Node8 -->
<g id="node8" class="node">
<title>Node8</title>
<g id="a_node8"><a xlink:title=" ">
<polygon fill="#e0e0e0" stroke="#999999" points="170,-239 122,-239 122,-220 170,-220 170,-239"/>
<text text-anchor="middle" x="146" y="-227" font-family="Helvetica,sans-Serif" font-size="10.00">sifrpc.h</text>
</a>
</g>
</g>
<!-- Node1&#45;&gt;Node8 -->
<g id="edge8" class="edge">
<title>Node1&#45;&gt;Node8</title>
<path fill="none" stroke="#63b8ff" d="M173.55,-274.75C169.23,-267.81 163.04,-257.86 157.62,-249.16"/>
<polygon fill="#63b8ff" stroke="#63b8ff" points="160.62,-247.37 152.37,-240.73 154.68,-251.07 160.62,-247.37"/>
</g>
<!-- Node9 -->
<g id="node9" class="node">
<title>Node9</title>
<g id="a_node9"><a xlink:href="kernel_8h.html" target="_top" xlink:title=" ">
<polygon fill="white" stroke="#666666" points="50,-184 0,-184 0,-165 50,-165 50,-184"/>
<text text-anchor="middle" x="25" y="-172" font-family="Helvetica,sans-Serif" font-size="10.00">kernel.h</text>
</a>
</g>
</g>
<!-- Node1&#45;&gt;Node9 -->
<g id="edge9" class="edge">
<title>Node1&#45;&gt;Node9</title>
<path fill="none" stroke="#63b8ff" d="M160.85,-274.53C144.45,-266.13 119.9,-252.84 100,-239 79.12,-224.48 57.13,-205.34 42.4,-191.88"/>
<polygon fill="#63b8ff" stroke="#63b8ff" points="45.07,-189.58 35.35,-185.36 40.31,-194.72 45.07,-189.58"/>
</g>
<!-- Node11 -->
<g id="node11" class="node">
<title>Node11</title>
<g id="a_node11"><a xlink:href="string_8h_source.html" target="_top" xlink:title=" ">
<polygon fill="white" stroke="#666666" points="236,-239 188,-239 188,-220 236,-220 236,-239"/>
<text text-anchor="middle" x="212" y="-227" font-family="Helvetica,sans-Serif" font-size="10.00">string.h</text>
</a>
</g>
</g>
<!-- Node1&#45;&gt;Node11 -->
<g id="edge14" class="edge">
<title>Node1&#45;&gt;Node11</title>
<path fill="none" stroke="#63b8ff" d="M184.45,-274.75C188.77,-267.81 194.96,-257.86 200.38,-249.16"/>
<polygon fill="#63b8ff" stroke="#63b8ff" points="203.32,-251.07 205.63,-240.73 197.38,-247.37 203.32,-251.07"/>
</g>
<!-- Node15 -->
<g id="node15" class="node">
<title>Node15</title>
<g id="a_node15"><a xlink:href="libmouse_8h.html" target="_top" xlink:title=" ">
<polygon fill="white" stroke="#666666" points="320.5,-239 257.5,-239 257.5,-220 320.5,-220 320.5,-239"/>
<text text-anchor="middle" x="289" y="-227" font-family="Helvetica,sans-Serif" font-size="10.00">libmouse.h</text>
</a>
</g>
</g>
<!-- Node1&#45;&gt;Node15 -->
<g id="edge22" class="edge">
<title>Node1&#45;&gt;Node15</title>
<path fill="none" stroke="#63b8ff" d="M197.66,-274.51C214.83,-266.24 240.55,-253.84 260.33,-244.31"/>
<polygon fill="#63b8ff" stroke="#63b8ff" points="261.76,-247.51 269.25,-240.01 258.72,-241.2 261.76,-247.51"/>
</g>
<!-- Node3 -->
<g id="node3" class="node">
<title>Node3</title>
<g id="a_node3"><a xlink:title=" ">
<polygon fill="#e0e0e0" stroke="#999999" points="99.5,-129 48.5,-129 48.5,-110 99.5,-110 99.5,-129"/>
<text text-anchor="middle" x="74" y="-117" font-family="Helvetica,sans-Serif" font-size="10.00">stdarg.h</text>
</a>
</g>
</g>
<!-- Node2&#45;&gt;Node3 -->
<g id="edge2" class="edge">
<title>Node2&#45;&gt;Node3</title>
<path fill="none" stroke="#63b8ff" d="M90.7,-164.75C88.17,-158.04 84.57,-148.52 81.37,-140.02"/>
<polygon fill="#63b8ff" stroke="#63b8ff" points="84.71,-138.98 77.91,-130.86 78.16,-141.45 84.71,-138.98"/>
</g>
<!-- Node4 -->
<g id="node4" class="node">
<title>Node4</title>
<g id="a_node4"><a xlink:href="irx_8h.html" target="_top" xlink:title=" ">
<polygon fill="white" stroke="#666666" points="152,-129 118,-129 118,-110 152,-110 152,-129"/>
<text text-anchor="middle" x="135" y="-117" font-family="Helvetica,sans-Serif" font-size="10.00">irx.h</text>
</a>
</g>
</g>
<!-- Node2&#45;&gt;Node4 -->
<g id="edge3" class="edge">
<title>Node2&#45;&gt;Node4</title>
<path fill="none" stroke="#63b8ff" d="M100.77,-164.75C106.32,-157.58 114.34,-147.2 121.23,-138.3"/>
<polygon fill="#63b8ff" stroke="#63b8ff" points="123.81,-140.69 127.16,-130.64 118.27,-136.41 123.81,-140.69"/>
</g>
<!-- Node5 -->
<g id="node5" class="node">
<title>Node5</title>
<g id="a_node5"><a xlink:href="iop_2kernel_2include_2types_8h_source.html" target="_top" xlink:title=" ">
<polygon fill="white" stroke="#666666" points="166.5,-74 119.5,-74 119.5,-55 166.5,-55 166.5,-74"/>
<text text-anchor="middle" x="143" y="-62" font-family="Helvetica,sans-Serif" font-size="10.00">types.h</text>
</a>
</g>
</g>
<!-- Node4&#45;&gt;Node5 -->
<g id="edge4" class="edge">
<title>Node4&#45;&gt;Node5</title>
<path fill="none" stroke="#63b8ff" d="M136.32,-109.75C137.31,-103.19 138.71,-93.95 139.97,-85.6"/>
<polygon fill="#63b8ff" stroke="#63b8ff" points="143.39,-86.35 141.42,-75.94 136.47,-85.3 143.39,-86.35"/>
</g>
<!-- Node6 -->
<g id="node6" class="node">
<title>Node6</title>
<g id="a_node6"><a xlink:title=" ">
<polygon fill="#e0e0e0" stroke="#999999" points="87.5,-19 36.5,-19 36.5,0 87.5,0 87.5,-19"/>
<text text-anchor="middle" x="62" y="-7" font-family="Helvetica,sans-Serif" font-size="10.00">stddef.h</text>
</a>
</g>
</g>
<!-- Node5&#45;&gt;Node6 -->
<g id="edge5" class="edge">
<title>Node5&#45;&gt;Node6</title>
<path fill="none" stroke="#63b8ff" d="M129.26,-54.51C117.2,-46.62 99.41,-34.98 85.16,-25.65"/>
<polygon fill="#63b8ff" stroke="#63b8ff" points="87.09,-22.73 76.8,-20.19 83.26,-28.59 87.09,-22.73"/>
</g>
<!-- Node5&#45;&gt;Node7 -->
<g id="edge6" class="edge">
<title>Node5&#45;&gt;Node7</title>
<path fill="none" stroke="#63b8ff" d="M155.72,-54.51C166.78,-46.7 183.04,-35.21 196.17,-25.93"/>
<polygon fill="#63b8ff" stroke="#63b8ff" points="198.08,-28.86 204.23,-20.23 194.04,-23.14 198.08,-28.86"/>
</g>
<!-- Node9&#45;&gt;Node3 -->
<g id="edge11" class="edge">
<title>Node9&#45;&gt;Node3</title>
<path fill="none" stroke="#63b8ff" d="M33.09,-164.75C39.86,-157.43 49.72,-146.76 58.06,-137.74"/>
<polygon fill="#63b8ff" stroke="#63b8ff" points="60.49,-140.27 64.71,-130.55 55.35,-135.52 60.49,-140.27"/>
</g>
<!-- Node9&#45;&gt;Node6 -->
<g id="edge10" class="edge">
<title>Node9&#45;&gt;Node6</title>
<path fill="none" stroke="#63b8ff" d="M21.84,-164.74C15.07,-144.49 1.03,-93.25 17,-55 21.71,-43.71 30.84,-33.83 39.64,-26.26"/>
<polygon fill="#63b8ff" stroke="#63b8ff" points="41.65,-29.13 47.32,-20.19 37.31,-23.64 41.65,-29.13"/>
</g>
<!-- Node10 -->
<g id="node10" class="node">
<title>Node10</title>
<g id="a_node10"><a xlink:href="sifdma_8h.html" target="_top" xlink:title=" ">
<polygon fill="white" stroke="#666666" points="79.5,-74 26.5,-74 26.5,-55 79.5,-55 79.5,-74"/>
<text text-anchor="middle" x="53" y="-62" font-family="Helvetica,sans-Serif" font-size="10.00">sifdma.h</text>
</a>
</g>
</g>
<!-- Node9&#45;&gt;Node10 -->
<g id="edge12" class="edge">
<title>Node9&#45;&gt;Node10</title>
<path fill="none" stroke="#63b8ff" d="M26.66,-164.81C29.07,-152.53 33.82,-129.41 39,-110 41.19,-101.78 43.94,-92.82 46.42,-85.11"/>
<polygon fill="#63b8ff" stroke="#63b8ff" points="49.71,-86.33 49.51,-75.74 43.06,-84.14 49.71,-86.33"/>
</g>
<!-- Node10&#45;&gt;Node7 -->
<g id="edge13" class="edge">
<title>Node10&#45;&gt;Node7</title>
<path fill="none" stroke="#63b8ff" d="M79.88,-54.87C106.88,-46.19 148.76,-32.74 179.33,-22.92"/>
<polygon fill="#63b8ff" stroke="#63b8ff" points="180.14,-26.34 188.59,-19.95 178,-19.67 180.14,-26.34"/>
</g>
<!-- Node12 -->
<g id="node12" class="node">
<title>Node12</title>
<g id="a_node12"><a xlink:href="sysclib_8h.html" target="_top" xlink:title=" ">
<polygon fill="white" stroke="#666666" points="223,-184 169,-184 169,-165 223,-165 223,-184"/>
<text text-anchor="middle" x="196" y="-172" font-family="Helvetica,sans-Serif" font-size="10.00">sysclib.h</text>
</a>
</g>
</g>
<!-- Node11&#45;&gt;Node12 -->
<g id="edge15" class="edge">
<title>Node11&#45;&gt;Node12</title>
<path fill="none" stroke="#63b8ff" d="M209.36,-219.75C207.36,-213.11 204.52,-203.73 201.98,-195.31"/>
<polygon fill="#63b8ff" stroke="#63b8ff" points="205.38,-194.45 199.14,-185.89 198.68,-196.48 205.38,-194.45"/>
</g>
<!-- Node12&#45;&gt;Node3 -->
<g id="edge18" class="edge">
<title>Node12&#45;&gt;Node3</title>
<path fill="none" stroke="#63b8ff" d="M175.3,-164.51C156,-156.12 126.94,-143.5 104.89,-133.92"/>
<polygon fill="#63b8ff" stroke="#63b8ff" points="106.34,-130.74 95.78,-129.96 103.56,-137.16 106.34,-130.74"/>
</g>
<!-- Node12&#45;&gt;Node4 -->
<g id="edge17" class="edge">
<title>Node12&#45;&gt;Node4</title>
<path fill="none" stroke="#63b8ff" d="M185.65,-164.51C176.92,-156.93 164.21,-145.88 153.7,-136.75"/>
<polygon fill="#63b8ff" stroke="#63b8ff" points="156.18,-134.27 146.34,-130.35 151.59,-139.55 156.18,-134.27"/>
</g>
<!-- Node12&#45;&gt;Node5 -->
<g id="edge16" class="edge">
<title>Node12&#45;&gt;Node5</title>
<path fill="none" stroke="#63b8ff" d="M191.66,-164.66C183.12,-147.26 163.95,-108.19 152.38,-84.62"/>
<polygon fill="#63b8ff" stroke="#63b8ff" points="155.61,-83.25 148.06,-75.82 149.33,-86.34 155.61,-83.25"/>
</g>
<!-- Node13 -->
<g id="node13" class="node">
<title>Node13</title>
<g id="a_node13"><a xlink:href="setjmp_8h.html" target="_top" xlink:title=" ">
<polygon fill="white" stroke="#666666" points="244.5,-74 191.5,-74 191.5,-55 244.5,-55 244.5,-74"/>
<text text-anchor="middle" x="218" y="-62" font-family="Helvetica,sans-Serif" font-size="10.00">setjmp.h</text>
</a>
</g>
</g>
<!-- Node12&#45;&gt;Node13 -->
<g id="edge19" class="edge">
<title>Node12&#45;&gt;Node13</title>
<path fill="none" stroke="#63b8ff" d="M197.8,-164.66C201.3,-147.5 209.09,-109.26 213.91,-85.6"/>
<polygon fill="#63b8ff" stroke="#63b8ff" points="217.31,-86.44 215.87,-75.94 210.45,-85.04 217.31,-86.44"/>
</g>
<!-- Node14 -->
<g id="node14" class="node">
<title>Node14</title>
<g id="a_node14"><a xlink:href="ctype_8h.html" target="_top" xlink:title=" ">
<polygon fill="white" stroke="#666666" points="293.5,-129 246.5,-129 246.5,-110 293.5,-110 293.5,-129"/>
<text text-anchor="middle" x="270" y="-117" font-family="Helvetica,sans-Serif" font-size="10.00">ctype.h</text>
</a>
</g>
</g>
<!-- Node12&#45;&gt;Node14 -->
<g id="edge21" class="edge">
<title>Node12&#45;&gt;Node14</title>
<path fill="none" stroke="#63b8ff" d="M208.55,-164.51C219.46,-156.7 235.5,-145.21 248.46,-135.93"/>
<polygon fill="#63b8ff" stroke="#63b8ff" points="250.31,-138.91 256.4,-130.24 246.23,-133.22 250.31,-138.91"/>
</g>
<!-- Node13&#45;&gt;Node7 -->
<g id="edge20" class="edge">
<title>Node13&#45;&gt;Node7</title>
<path fill="none" stroke="#63b8ff" d="M218,-54.75C218,-48.27 218,-39.16 218,-30.9"/>
<polygon fill="#63b8ff" stroke="#63b8ff" points="221.5,-30.96 218,-20.96 214.5,-30.96 221.5,-30.96"/>
</g>
<!-- Node16 -->
<g id="node16" class="node">
<title>Node16</title>
<g id="a_node16"><a xlink:href="ee_2rpc_2mouse_2include_2ps2mouse_8h.html" target="_top" xlink:title=" ">
<polygon fill="white" stroke="#666666" points="331.5,-74 262.5,-74 262.5,-55 331.5,-55 331.5,-74"/>
<text text-anchor="middle" x="297" y="-62" font-family="Helvetica,sans-Serif" font-size="10.00">ps2mouse.h</text>
</a>
</g>
</g>
<!-- Node15&#45;&gt;Node16 -->
<g id="edge23" class="edge">
<title>Node15&#45;&gt;Node16</title>
<path fill="none" stroke="#63b8ff" d="M291.18,-219.61C295.77,-199.92 305.76,-151.13 303,-110 302.46,-101.93 301.37,-93.09 300.27,-85.43"/>
<polygon fill="#63b8ff" stroke="#63b8ff" points="303.77,-85.17 298.78,-75.83 296.85,-86.24 303.77,-85.17"/>
</g>
<!-- Node16&#45;&gt;Node7 -->
<g id="edge24" class="edge">
<title>Node16&#45;&gt;Node7</title>
<path fill="none" stroke="#63b8ff" d="M283.6,-54.51C271.84,-46.62 254.49,-34.98 240.59,-25.65"/>
<polygon fill="#63b8ff" stroke="#63b8ff" points="242.71,-22.87 232.46,-20.2 238.81,-28.68 242.71,-22.87"/>
</g>
</g>
</svg>
