<?xml version="1.0" encoding="UTF-8" standalone="no"?>
<!DOCTYPE svg PUBLIC "-//W3C//DTD SVG 1.1//EN"
 "http://www.w3.org/Graphics/SVG/1.1/DTD/svg11.dtd">
<!-- Generated by graphviz version 7.0.5 (20221223.1930)
 -->
<!-- Title: ee/kernel/src/libosd_common.c Pages: 1 -->
<svg width="335pt" height="258pt"
 viewBox="0.00 0.00 335.00 258.00" xmlns="http://www.w3.org/2000/svg" xmlns:xlink="http://www.w3.org/1999/xlink">
<g id="graph0" class="graph" transform="scale(1 1) rotate(0) translate(4 254)">
<title>ee/kernel/src/libosd_common.c</title>
<!-- Node1 -->
<g id="node1" class="node">
<title>Node1</title>
<g id="a_node1"><a xlink:title=" ">
<polygon fill="#999999" stroke="#666666" points="219,-250 118,-250 118,-220 219,-220 219,-250"/>
<text text-anchor="start" x="126" y="-238" font-family="Helvetica,sans-Serif" font-size="10.00">ee/kernel/src/libosd</text>
<text text-anchor="middle" x="168.5" y="-227" font-family="Helvetica,sans-Serif" font-size="10.00">_common.c</text>
</a>
</g>
</g>
<!-- Node2 -->
<g id="node2" class="node">
<title>Node2</title>
<g id="a_node2"><a xlink:href="kernel_8h.html" target="_top" xlink:title=" ">
<polygon fill="white" stroke="#666666" points="119.5,-184 69.5,-184 69.5,-165 119.5,-165 119.5,-184"/>
<text text-anchor="middle" x="94.5" y="-172" font-family="Helvetica,sans-Serif" font-size="10.00">kernel.h</text>
</a>
</g>
</g>
<!-- Node1&#45;&gt;Node2 -->
<g id="edge1" class="edge">
<title>Node1&#45;&gt;Node2</title>
<path fill="none" stroke="#63b8ff" d="M150.21,-219.54C139.35,-210.96 125.58,-200.07 114.44,-191.26"/>
<polygon fill="#63b8ff" stroke="#63b8ff" points="116.68,-188.57 106.66,-185.11 112.34,-194.06 116.68,-188.57"/>
</g>
<!-- Node7 -->
<g id="node7" class="node">
<title>Node7</title>
<g id="a_node7"><a xlink:href="syscallnr_8h.html" target="_top" xlink:title=" ">
<polygon fill="white" stroke="#666666" points="199.5,-184 137.5,-184 137.5,-165 199.5,-165 199.5,-184"/>
<text text-anchor="middle" x="168.5" y="-172" font-family="Helvetica,sans-Serif" font-size="10.00">syscallnr.h</text>
</a>
</g>
</g>
<!-- Node1&#45;&gt;Node7 -->
<g id="edge6" class="edge">
<title>Node1&#45;&gt;Node7</title>
<path fill="none" stroke="#63b8ff" d="M168.5,-219.54C168.5,-212.34 168.5,-203.53 168.5,-195.68"/>
<polygon fill="#63b8ff" stroke="#63b8ff" points="172,-195.69 168.5,-185.69 165,-195.69 172,-195.69"/>
</g>
<!-- Node8 -->
<g id="node8" class="node">
<title>Node8</title>
<g id="a_node8"><a xlink:href="osd__config_8h.html" target="_top" xlink:title=" ">
<polygon fill="white" stroke="#666666" points="289,-184 218,-184 218,-165 289,-165 289,-184"/>
<text text-anchor="middle" x="253.5" y="-172" font-family="Helvetica,sans-Serif" font-size="10.00">osd_config.h</text>
</a>
</g>
</g>
<!-- Node1&#45;&gt;Node8 -->
<g id="edge7" class="edge">
<title>Node1&#45;&gt;Node8</title>
<path fill="none" stroke="#63b8ff" d="M189.51,-219.54C202.36,-210.7 218.77,-199.4 231.75,-190.47"/>
<polygon fill="#63b8ff" stroke="#63b8ff" points="233.39,-193.59 239.65,-185.03 229.43,-187.82 233.39,-193.59"/>
</g>
<!-- Node3 -->
<g id="node3" class="node">
<title>Node3</title>
<g id="a_node3"><a xlink:title=" ">
<polygon fill="#e0e0e0" stroke="#999999" points="51,-129 0,-129 0,-110 51,-110 51,-129"/>
<text text-anchor="middle" x="25.5" y="-117" font-family="Helvetica,sans-Serif" font-size="10.00">stddef.h</text>
</a>
</g>
</g>
<!-- Node2&#45;&gt;Node3 -->
<g id="edge2" class="edge">
<title>Node2&#45;&gt;Node3</title>
<path fill="none" stroke="#63b8ff" d="M82.8,-164.51C72.72,-156.77 57.96,-145.43 45.94,-136.2"/>
<polygon fill="#63b8ff" stroke="#63b8ff" points="48.29,-133.6 38.23,-130.28 44.03,-139.15 48.29,-133.6"/>
</g>
<!-- Node4 -->
<g id="node4" class="node">
<title>Node4</title>
<g id="a_node4"><a xlink:title=" ">
<polygon fill="#e0e0e0" stroke="#999999" points="120,-129 69,-129 69,-110 120,-110 120,-129"/>
<text text-anchor="middle" x="94.5" y="-117" font-family="Helvetica,sans-Serif" font-size="10.00">stdarg.h</text>
</a>
</g>
</g>
<!-- Node2&#45;&gt;Node4 -->
<g id="edge3" class="edge">
<title>Node2&#45;&gt;Node4</title>
<path fill="none" stroke="#63b8ff" d="M94.5,-164.75C94.5,-158.27 94.5,-149.16 94.5,-140.9"/>
<polygon fill="#63b8ff" stroke="#63b8ff" points="98,-140.96 94.5,-130.96 91,-140.96 98,-140.96"/>
</g>
<!-- Node5 -->
<g id="node5" class="node">
<title>Node5</title>
<g id="a_node5"><a xlink:href="sifdma_8h.html" target="_top" xlink:title=" ">
<polygon fill="white" stroke="#666666" points="175,-74 122,-74 122,-55 175,-55 175,-74"/>
<text text-anchor="middle" x="148.5" y="-62" font-family="Helvetica,sans-Serif" font-size="10.00">sifdma.h</text>
</a>
</g>
</g>
<!-- Node2&#45;&gt;Node5 -->
<g id="edge4" class="edge">
<title>Node2&#45;&gt;Node5</title>
<path fill="none" stroke="#63b8ff" d="M102.81,-164.6C110.42,-156.04 121.51,-142.46 128.5,-129 135.76,-115.01 140.96,-97.9 144.24,-84.97"/>
<polygon fill="#63b8ff" stroke="#63b8ff" points="147.57,-86.09 146.45,-75.56 140.75,-84.49 147.57,-86.09"/>
</g>
<!-- Node6 -->
<g id="node6" class="node">
<title>Node6</title>
<g id="a_node6"><a xlink:href="tamtypes_8h.html" target="_top" xlink:title=" ">
<polygon fill="white" stroke="#666666" points="235.5,-19 171.5,-19 171.5,0 235.5,0 235.5,-19"/>
<text text-anchor="middle" x="203.5" y="-7" font-family="Helvetica,sans-Serif" font-size="10.00">tamtypes.h</text>
</a>
</g>
</g>
<!-- Node5&#45;&gt;Node6 -->
<g id="edge5" class="edge">
<title>Node5&#45;&gt;Node6</title>
<path fill="none" stroke="#63b8ff" d="M157.58,-54.75C165.34,-47.27 176.71,-36.32 186.2,-27.17"/>
<polygon fill="#63b8ff" stroke="#63b8ff" points="188.36,-29.95 193.13,-20.49 183.5,-24.91 188.36,-29.95"/>
</g>
<!-- Node8&#45;&gt;Node6 -->
<g id="edge8" class="edge">
<title>Node8&#45;&gt;Node6</title>
<path fill="none" stroke="#63b8ff" d="M248.61,-164.52C243.95,-155.69 237.01,-141.72 232.5,-129 220.51,-95.15 211.68,-54.17 207.09,-30.34"/>
<polygon fill="#63b8ff" stroke="#63b8ff" points="210.58,-29.97 205.3,-20.79 203.7,-31.26 210.58,-29.97"/>
</g>
<!-- Node9 -->
<g id="node9" class="node">
<title>Node9</title>
<g id="a_node9"><a xlink:href="libcdvd_8h.html" target="_top" xlink:title=" ">
<polygon fill="white" stroke="#666666" points="297,-129 242,-129 242,-110 297,-110 297,-129"/>
<text text-anchor="middle" x="269.5" y="-117" font-family="Helvetica,sans-Serif" font-size="10.00">libcdvd.h</text>
</a>
</g>
</g>
<!-- Node8&#45;&gt;Node9 -->
<g id="edge9" class="edge">
<title>Node8&#45;&gt;Node9</title>
<path fill="none" stroke="#63b8ff" d="M256.14,-164.75C258.14,-158.11 260.98,-148.73 263.52,-140.31"/>
<polygon fill="#63b8ff" stroke="#63b8ff" points="266.82,-141.48 266.36,-130.89 260.12,-139.45 266.82,-141.48"/>
</g>
<!-- Node10 -->
<g id="node10" class="node">
<title>Node10</title>
<g id="a_node10"><a xlink:href="libcdvd-common_8h.html" target="_top" xlink:title=" ">
<polygon fill="white" stroke="#666666" points="327,-74 232,-74 232,-55 327,-55 327,-74"/>
<text text-anchor="middle" x="279.5" y="-62" font-family="Helvetica,sans-Serif" font-size="10.00">libcdvd&#45;common.h</text>
</a>
</g>
</g>
<!-- Node9&#45;&gt;Node10 -->
<g id="edge10" class="edge">
<title>Node9&#45;&gt;Node10</title>
<path fill="none" stroke="#63b8ff" d="M271.15,-109.75C272.39,-103.19 274.13,-93.95 275.71,-85.6"/>
<polygon fill="#63b8ff" stroke="#63b8ff" points="279.12,-86.4 277.53,-75.93 272.24,-85.11 279.12,-86.4"/>
</g>
<!-- Node10&#45;&gt;Node6 -->
<g id="edge11" class="edge">
<title>Node10&#45;&gt;Node6</title>
<path fill="none" stroke="#63b8ff" d="M266.61,-54.51C255.4,-46.7 238.93,-35.21 225.62,-25.93"/>
<polygon fill="#63b8ff" stroke="#63b8ff" points="227.65,-23.07 217.44,-20.22 223.64,-28.81 227.65,-23.07"/>
</g>
</g>
</svg>
