<?xml version="1.0" encoding="UTF-8" standalone="no"?>
<!DOCTYPE svg PUBLIC "-//W3C//DTD SVG 1.1//EN"
 "http://www.w3.org/Graphics/SVG/1.1/DTD/svg11.dtd">
<!-- Generated by graphviz version 7.0.5 (20221223.1930)
 -->
<!-- Title: ee/rpc/pad/src/libpad.c Pages: 1 -->
<!--zoomable 302 -->
<svg id="main" version="1.1" xmlns="http://www.w3.org/2000/svg" xmlns:xlink="http://www.w3.org/1999/xlink" xml:space="preserve" onload="init(evt)">
<style type="text/css"><![CDATA[
.edge:hover path { stroke: red; }
.edge:hover polygon { stroke: red; fill: red; }
]]></style>
<script type="text/javascript"><![CDATA[
var edges = document.getElementsByTagName('g');
if (edges && edges.length) {
  for (var i=0;i<edges.length;i++) {
    if (edges[i].id.substr(0,4)=='edge') {
      edges[i].setAttribute('class','edge');
    }
  }
}
]]></script>
        <defs>
                <circle id="rim" cx="0" cy="0" r="7"/>
                <circle id="rim2" cx="0" cy="0" r="3.5"/>
                <g id="zoomPlus">
                        <use xlink:href="#rim" fill="#404040">
                                <set attributeName="fill" to="#808080" begin="zoomplus.mouseover" end="zoomplus.mouseout"/>
                        </use>
                        <path d="M-4,0h8M0,-4v8" fill="none" stroke="white" stroke-width="1.5" pointer-events="none"/>
                </g>
                <g id="zoomMin">
                        <use xlink:href="#rim" fill="#404040">
                                <set attributeName="fill" to="#808080" begin="zoomminus.mouseover" end="zoomminus.mouseout"/>
                        </use>
                        <path d="M-4,0h8" fill="none" stroke="white" stroke-width="1.5" pointer-events="none"/>
                </g>
                <g id="dirArrow">
                        <path fill="none" stroke="white" stroke-width="1.5" d="M0,-3.0v7 M-2.5,-0.5L0,-3.0L2.5,-0.5"/>
                </g>
               <g id="resetDef">
                       <use xlink:href="#rim2" fill="#404040">
                               <set attributeName="fill" to="#808080" begin="reset.mouseover" end="reset.mouseout"/>
                       </use>
               </g>
        </defs>

<script type="text/javascript">
var viewWidth = 531;
var viewHeight = 302;
var sectionId = 'dynsection-0';
</script>
<script xlink:href="svgpan.js"/>
<svg id="graph" class="graph">
<g id="viewport">
<title>ee/rpc/pad/src/libpad.c</title>
<!-- Node1 -->
<g id="node1" class="node">
<title>Node1</title>
<g id="a_node1"><a xlink:title=" ">
<polygon fill="#999999" stroke="#666666" points="364.78,-294 249.78,-294 249.78,-275 364.78,-275 364.78,-294"/>
<text text-anchor="middle" x="307.28" y="-282" font-family="Helvetica,sans-Serif" font-size="10.00">ee/rpc/pad/src/libpad.c</text>
</a>
</g>
</g>
<!-- Node2 -->
<g id="node2" class="node">
<title>Node2</title>
<g id="a_node2"><a xlink:href="tamtypes_8h.html" target="_top" xlink:title=" ">
<polygon fill="white" stroke="#666666" points="194.28,-19 130.28,-19 130.28,0 194.28,0 194.28,-19"/>
<text text-anchor="middle" x="162.28" y="-7" font-family="Helvetica,sans-Serif" font-size="10.00">tamtypes.h</text>
</a>
</g>
</g>
<!-- Node1&#45;&gt;Node2 -->
<g id="edge1" class="edge">
<title>Node1&#45;&gt;Node2</title>
<path fill="none" stroke="#63b8ff" d="M307.28,-274.54C307.28,-256.03 307.28,-212.25 307.28,-175.5 307.28,-175.5 307.28,-175.5 307.28,-118.5 307.28,-67.1 247.95,-37.27 205.2,-22.44"/>
<polygon fill="#63b8ff" stroke="#63b8ff" points="206.49,-19.18 195.89,-19.38 204.3,-25.83 206.49,-19.18"/>
</g>
<!-- Node3 -->
<g id="node3" class="node">
<title>Node3</title>
<g id="a_node3"><a xlink:href="kernel_8h.html" target="_top" xlink:title=" ">
<polygon fill="white" stroke="#666666" points="55.28,-184 5.28,-184 5.28,-165 55.28,-165 55.28,-184"/>
<text text-anchor="middle" x="30.28" y="-172" font-family="Helvetica,sans-Serif" font-size="10.00">kernel.h</text>
</a>
</g>
</g>
<!-- Node1&#45;&gt;Node3 -->
<g id="edge2" class="edge">
<title>Node1&#45;&gt;Node3</title>
<path fill="none" stroke="#63b8ff" d="M273.09,-274.58C243.39,-266.46 199.43,-253.54 162.28,-239 124.6,-224.25 82.78,-203.31 56.51,-189.57"/>
<polygon fill="#63b8ff" stroke="#63b8ff" points="58.41,-186.62 47.93,-185.04 55.14,-192.81 58.41,-186.62"/>
</g>
<!-- Node7 -->
<g id="node7" class="node">
<title>Node7</title>
<g id="a_node7"><a xlink:href="stdio_8h.html" target="_top" xlink:title=" ">
<polygon fill="white" stroke="#666666" points="142.78,-184 97.78,-184 97.78,-165 142.78,-165 142.78,-184"/>
<text text-anchor="middle" x="120.28" y="-172" font-family="Helvetica,sans-Serif" font-size="10.00">stdio.h</text>
</a>
</g>
</g>
<!-- Node1&#45;&gt;Node7 -->
<g id="edge7" class="edge">
<title>Node1&#45;&gt;Node7</title>
<path fill="none" stroke="#63b8ff" d="M275.38,-274.51C251.49,-267 218.53,-254.95 192.28,-239 171.01,-226.08 150.06,-206.63 136.29,-192.67"/>
<polygon fill="#63b8ff" stroke="#63b8ff" points="138.85,-190.28 129.4,-185.49 133.8,-195.13 138.85,-190.28"/>
</g>
<!-- Node10 -->
<g id="node10" class="node">
<title>Node10</title>
<g id="a_node10"><a xlink:href="string_8h_source.html" target="_top" xlink:title=" ">
<polygon fill="white" stroke="#666666" points="249.28,-239 201.28,-239 201.28,-220 249.28,-220 249.28,-239"/>
<text text-anchor="middle" x="225.28" y="-227" font-family="Helvetica,sans-Serif" font-size="10.00">string.h</text>
</a>
</g>
</g>
<!-- Node1&#45;&gt;Node10 -->
<g id="edge13" class="edge">
<title>Node1&#45;&gt;Node10</title>
<path fill="none" stroke="#63b8ff" d="M293.37,-274.51C281.04,-266.54 262.8,-254.75 248.3,-245.38"/>
<polygon fill="#63b8ff" stroke="#63b8ff" points="250.55,-242.67 240.25,-240.18 246.75,-248.55 250.55,-242.67"/>
</g>
<!-- Node14 -->
<g id="node14" class="node">
<title>Node14</title>
<g id="a_node14"><a xlink:title=" ">
<polygon fill="#e0e0e0" stroke="#999999" points="383.28,-239 335.28,-239 335.28,-220 383.28,-220 383.28,-239"/>
<text text-anchor="middle" x="359.28" y="-227" font-family="Helvetica,sans-Serif" font-size="10.00">sifrpc.h</text>
</a>
</g>
</g>
<!-- Node1&#45;&gt;Node14 -->
<g id="edge21" class="edge">
<title>Node1&#45;&gt;Node14</title>
<path fill="none" stroke="#63b8ff" d="M315.86,-274.75C323.12,-267.35 333.73,-256.54 342.64,-247.45"/>
<polygon fill="#63b8ff" stroke="#63b8ff" points="344.94,-250.11 349.44,-240.52 339.94,-245.21 344.94,-250.11"/>
</g>
<!-- Node15 -->
<g id="node15" class="node">
<title>Node15</title>
<g id="a_node15"><a xlink:title=" ">
<polygon fill="#e0e0e0" stroke="#999999" points="454.78,-239 401.78,-239 401.78,-220 454.78,-220 454.78,-239"/>
<text text-anchor="middle" x="428.28" y="-227" font-family="Helvetica,sans-Serif" font-size="10.00">sifcmd.h</text>
</a>
</g>
</g>
<!-- Node1&#45;&gt;Node15 -->
<g id="edge22" class="edge">
<title>Node1&#45;&gt;Node15</title>
<path fill="none" stroke="#63b8ff" d="M327.8,-274.51C346.95,-266.12 375.77,-253.5 397.64,-243.92"/>
<polygon fill="#63b8ff" stroke="#63b8ff" points="398.91,-247.18 406.67,-239.97 396.1,-240.77 398.91,-247.18"/>
</g>
<!-- Node16 -->
<g id="node16" class="node">
<title>Node16</title>
<g id="a_node16"><a xlink:href="libpad_8h.html" target="_top" xlink:title=" ">
<polygon fill="white" stroke="#666666" points="523.28,-239 473.28,-239 473.28,-220 523.28,-220 523.28,-239"/>
<text text-anchor="middle" x="498.28" y="-227" font-family="Helvetica,sans-Serif" font-size="10.00">libpad.h</text>
</a>
</g>
</g>
<!-- Node1&#45;&gt;Node16 -->
<g id="edge23" class="edge">
<title>Node1&#45;&gt;Node16</title>
<path fill="none" stroke="#63b8ff" d="M339.68,-274.51C373.67,-265.08 426.98,-250.28 462.27,-240.49"/>
<polygon fill="#63b8ff" stroke="#63b8ff" points="462.89,-243.95 471.59,-237.9 461.02,-237.21 462.89,-243.95"/>
</g>
<!-- Node4 -->
<g id="node4" class="node">
<title>Node4</title>
<g id="a_node4"><a xlink:title=" ">
<polygon fill="#e0e0e0" stroke="#999999" points="73.78,-19 22.78,-19 22.78,0 73.78,0 73.78,-19"/>
<text text-anchor="middle" x="48.28" y="-7" font-family="Helvetica,sans-Serif" font-size="10.00">stddef.h</text>
</a>
</g>
</g>
<!-- Node3&#45;&gt;Node4 -->
<g id="edge3" class="edge">
<title>Node3&#45;&gt;Node4</title>
<path fill="none" stroke="#63b8ff" d="M24.95,-164.57C13.64,-144.38 -10.48,-93.99 5.28,-55 9.71,-44.03 18.29,-34.26 26.63,-26.69"/>
<polygon fill="#63b8ff" stroke="#63b8ff" points="28.78,-29.45 34.21,-20.36 24.29,-24.08 28.78,-29.45"/>
</g>
<!-- Node5 -->
<g id="node5" class="node">
<title>Node5</title>
<g id="a_node5"><a xlink:title=" ">
<polygon fill="#e0e0e0" stroke="#999999" points="84.78,-129 33.78,-129 33.78,-110 84.78,-110 84.78,-129"/>
<text text-anchor="middle" x="59.28" y="-117" font-family="Helvetica,sans-Serif" font-size="10.00">stdarg.h</text>
</a>
</g>
</g>
<!-- Node3&#45;&gt;Node5 -->
<g id="edge4" class="edge">
<title>Node3&#45;&gt;Node5</title>
<path fill="none" stroke="#63b8ff" d="M35.06,-164.75C38.82,-157.88 44.18,-148.08 48.91,-139.45"/>
<polygon fill="#63b8ff" stroke="#63b8ff" points="51.93,-141.22 53.66,-130.77 45.79,-137.86 51.93,-141.22"/>
</g>
<!-- Node6 -->
<g id="node6" class="node">
<title>Node6</title>
<g id="a_node6"><a xlink:href="sifdma_8h.html" target="_top" xlink:title=" ">
<polygon fill="white" stroke="#666666" points="67.78,-74 14.78,-74 14.78,-55 67.78,-55 67.78,-74"/>
<text text-anchor="middle" x="41.28" y="-62" font-family="Helvetica,sans-Serif" font-size="10.00">sifdma.h</text>
</a>
</g>
</g>
<!-- Node3&#45;&gt;Node6 -->
<g id="edge5" class="edge">
<title>Node3&#45;&gt;Node6</title>
<path fill="none" stroke="#63b8ff" d="M27.95,-164.81C25,-152.51 20.7,-129.38 24.28,-110 25.85,-101.47 28.99,-92.45 32.15,-84.79"/>
<polygon fill="#63b8ff" stroke="#63b8ff" points="35.28,-86.36 36.14,-75.8 28.88,-83.52 35.28,-86.36"/>
</g>
<!-- Node6&#45;&gt;Node2 -->
<g id="edge6" class="edge">
<title>Node6&#45;&gt;Node2</title>
<path fill="none" stroke="#63b8ff" d="M61.8,-54.51C80.95,-46.12 109.77,-33.5 131.64,-23.92"/>
<polygon fill="#63b8ff" stroke="#63b8ff" points="132.91,-27.18 140.67,-19.97 130.1,-20.77 132.91,-27.18"/>
</g>
<!-- Node7&#45;&gt;Node5 -->
<g id="edge8" class="edge">
<title>Node7&#45;&gt;Node5</title>
<path fill="none" stroke="#63b8ff" d="M109.93,-164.51C101.2,-156.93 88.49,-145.88 77.98,-136.75"/>
<polygon fill="#63b8ff" stroke="#63b8ff" points="80.46,-134.27 70.61,-130.35 75.87,-139.55 80.46,-134.27"/>
</g>
<!-- Node8 -->
<g id="node8" class="node">
<title>Node8</title>
<g id="a_node8"><a xlink:href="irx_8h.html" target="_top" xlink:title=" ">
<polygon fill="white" stroke="#666666" points="137.28,-129 103.28,-129 103.28,-110 137.28,-110 137.28,-129"/>
<text text-anchor="middle" x="120.28" y="-117" font-family="Helvetica,sans-Serif" font-size="10.00">irx.h</text>
</a>
</g>
</g>
<!-- Node7&#45;&gt;Node8 -->
<g id="edge9" class="edge">
<title>Node7&#45;&gt;Node8</title>
<path fill="none" stroke="#63b8ff" d="M120.28,-164.75C120.28,-158.27 120.28,-149.16 120.28,-140.9"/>
<polygon fill="#63b8ff" stroke="#63b8ff" points="123.78,-140.96 120.28,-130.96 116.78,-140.96 123.78,-140.96"/>
</g>
<!-- Node9 -->
<g id="node9" class="node">
<title>Node9</title>
<g id="a_node9"><a xlink:href="iop_2kernel_2include_2types_8h_source.html" target="_top" xlink:title=" ">
<polygon fill="white" stroke="#666666" points="147.78,-74 100.78,-74 100.78,-55 147.78,-55 147.78,-74"/>
<text text-anchor="middle" x="124.28" y="-62" font-family="Helvetica,sans-Serif" font-size="10.00">types.h</text>
</a>
</g>
</g>
<!-- Node8&#45;&gt;Node9 -->
<g id="edge10" class="edge">
<title>Node8&#45;&gt;Node9</title>
<path fill="none" stroke="#63b8ff" d="M120.94,-109.75C121.43,-103.27 122.11,-94.16 122.74,-85.9"/>
<polygon fill="#63b8ff" stroke="#63b8ff" points="126.22,-86.19 123.49,-75.95 119.24,-85.66 126.22,-86.19"/>
</g>
<!-- Node9&#45;&gt;Node2 -->
<g id="edge12" class="edge">
<title>Node9&#45;&gt;Node2</title>
<path fill="none" stroke="#63b8ff" d="M130.55,-54.75C135.64,-47.66 142.97,-37.42 149.31,-28.59"/>
<polygon fill="#63b8ff" stroke="#63b8ff" points="152,-30.84 154.98,-20.67 146.31,-26.76 152,-30.84"/>
</g>
<!-- Node9&#45;&gt;Node4 -->
<g id="edge11" class="edge">
<title>Node9&#45;&gt;Node4</title>
<path fill="none" stroke="#63b8ff" d="M111.38,-54.51C100.18,-46.7 83.7,-35.21 70.4,-25.93"/>
<polygon fill="#63b8ff" stroke="#63b8ff" points="72.42,-23.07 62.22,-20.22 68.42,-28.81 72.42,-23.07"/>
</g>
<!-- Node11 -->
<g id="node11" class="node">
<title>Node11</title>
<g id="a_node11"><a xlink:href="sysclib_8h.html" target="_top" xlink:title=" ">
<polygon fill="white" stroke="#666666" points="223.28,-184 169.28,-184 169.28,-165 223.28,-165 223.28,-184"/>
<text text-anchor="middle" x="196.28" y="-172" font-family="Helvetica,sans-Serif" font-size="10.00">sysclib.h</text>
</a>
</g>
</g>
<!-- Node10&#45;&gt;Node11 -->
<g id="edge14" class="edge">
<title>Node10&#45;&gt;Node11</title>
<path fill="none" stroke="#63b8ff" d="M220.49,-219.75C216.73,-212.88 211.37,-203.08 206.64,-194.45"/>
<polygon fill="#63b8ff" stroke="#63b8ff" points="209.77,-192.86 201.9,-185.77 203.62,-196.22 209.77,-192.86"/>
</g>
<!-- Node11&#45;&gt;Node5 -->
<g id="edge17" class="edge">
<title>Node11&#45;&gt;Node5</title>
<path fill="none" stroke="#63b8ff" d="M173.04,-164.51C150.96,-155.97 117.53,-143.03 92.61,-133.4"/>
<polygon fill="#63b8ff" stroke="#63b8ff" points="94.17,-130.25 83.58,-129.9 91.65,-136.78 94.17,-130.25"/>
</g>
<!-- Node11&#45;&gt;Node8 -->
<g id="edge16" class="edge">
<title>Node11&#45;&gt;Node8</title>
<path fill="none" stroke="#63b8ff" d="M183.38,-164.51C172.18,-156.7 155.7,-145.21 142.4,-135.93"/>
<polygon fill="#63b8ff" stroke="#63b8ff" points="144.42,-133.07 134.22,-130.22 140.42,-138.81 144.42,-133.07"/>
</g>
<!-- Node11&#45;&gt;Node9 -->
<g id="edge15" class="edge">
<title>Node11&#45;&gt;Node9</title>
<path fill="none" stroke="#63b8ff" d="M190.38,-164.66C178.68,-147.1 152.26,-107.48 136.6,-83.98"/>
<polygon fill="#63b8ff" stroke="#63b8ff" points="139.55,-82.1 131.09,-75.72 133.72,-85.98 139.55,-82.1"/>
</g>
<!-- Node12 -->
<g id="node12" class="node">
<title>Node12</title>
<g id="a_node12"><a xlink:href="setjmp_8h.html" target="_top" xlink:title=" ">
<polygon fill="white" stroke="#666666" points="222.78,-74 169.78,-74 169.78,-55 222.78,-55 222.78,-74"/>
<text text-anchor="middle" x="196.28" y="-62" font-family="Helvetica,sans-Serif" font-size="10.00">setjmp.h</text>
</a>
</g>
</g>
<!-- Node11&#45;&gt;Node12 -->
<g id="edge18" class="edge">
<title>Node11&#45;&gt;Node12</title>
<path fill="none" stroke="#63b8ff" d="M196.28,-164.66C196.28,-147.57 196.28,-109.61 196.28,-85.92"/>
<polygon fill="#63b8ff" stroke="#63b8ff" points="199.78,-85.97 196.28,-75.97 192.78,-85.97 199.78,-85.97"/>
</g>
<!-- Node13 -->
<g id="node13" class="node">
<title>Node13</title>
<g id="a_node13"><a xlink:href="ctype_8h.html" target="_top" xlink:title=" ">
<polygon fill="white" stroke="#666666" points="278.78,-129 231.78,-129 231.78,-110 278.78,-110 278.78,-129"/>
<text text-anchor="middle" x="255.28" y="-117" font-family="Helvetica,sans-Serif" font-size="10.00">ctype.h</text>
</a>
</g>
</g>
<!-- Node11&#45;&gt;Node13 -->
<g id="edge20" class="edge">
<title>Node11&#45;&gt;Node13</title>
<path fill="none" stroke="#63b8ff" d="M206.28,-164.51C214.64,-157 226.78,-146.1 236.88,-137.03"/>
<polygon fill="#63b8ff" stroke="#63b8ff" points="239.19,-139.66 244.29,-130.37 234.51,-134.45 239.19,-139.66"/>
</g>
<!-- Node12&#45;&gt;Node2 -->
<g id="edge19" class="edge">
<title>Node12&#45;&gt;Node2</title>
<path fill="none" stroke="#63b8ff" d="M190.66,-54.75C186.16,-47.73 179.69,-37.64 174.06,-28.87"/>
<polygon fill="#63b8ff" stroke="#63b8ff" points="177.17,-27.24 168.83,-20.72 171.28,-31.02 177.17,-27.24"/>
</g>
</g>
</svg>
        <g id="navigator" transform="translate(0 0)" fill="#404254">
                <rect fill="#f2f5e9" fill-opacity="0.5" stroke="#606060" stroke-width=".5" x="0" y="0" width="60" height="60"/>
                <use id="zoomplus" xlink:href="#zoomPlus" x="17" y="9" onmousedown="handleZoom(evt,'in')"/>
                <use id="zoomminus" xlink:href="#zoomMin" x="42" y="9" onmousedown="handleZoom(evt,'out')"/>
                <use id="reset" xlink:href="#resetDef" x="30" y="36" onmousedown="handleReset()"/>
                <g id="arrowUp" xlink:href="#dirArrow" transform="translate(30 24)" onmousedown="handlePan(0,-1)">
                  <use xlink:href="#rim" fill="#404040">
                        <set attributeName="fill" to="#808080" begin="arrowUp.mouseover" end="arrowUp.mouseout"/>
                  </use>
                  <path fill="none" stroke="white" stroke-width="1.5" d="M0,-3.0v7 M-2.5,-0.5L0,-3.0L2.5,-0.5"/>
                </g>
                <g id="arrowRight" xlink:href="#dirArrow" transform="rotate(90) translate(36 -43)" onmousedown="handlePan(1,0)">
                  <use xlink:href="#rim" fill="#404040">
                        <set attributeName="fill" to="#808080" begin="arrowRight.mouseover" end="arrowRight.mouseout"/>
                  </use>
                  <path fill="none" stroke="white" stroke-width="1.5" d="M0,-3.0v7 M-2.5,-0.5L0,-3.0L2.5,-0.5"/>
                </g>
                <g id="arrowDown" xlink:href="#dirArrow" transform="rotate(180) translate(-30 -48)" onmousedown="handlePan(0,1)">
                  <use xlink:href="#rim" fill="#404040">
                        <set attributeName="fill" to="#808080" begin="arrowDown.mouseover" end="arrowDown.mouseout"/>
                  </use>
                  <path fill="none" stroke="white" stroke-width="1.5" d="M0,-3.0v7 M-2.5,-0.5L0,-3.0L2.5,-0.5"/>
                </g>
                <g id="arrowLeft" xlink:href="#dirArrow" transform="rotate(270) translate(-36 17)" onmousedown="handlePan(-1,0)">
                  <use xlink:href="#rim" fill="#404040">
                        <set attributeName="fill" to="#808080" begin="arrowLeft.mouseover" end="arrowLeft.mouseout"/>
                  </use>
                  <path fill="none" stroke="white" stroke-width="1.5" d="M0,-3.0v7 M-2.5,-0.5L0,-3.0L2.5,-0.5"/>
                </g>
        </g>
        <svg viewBox="0 0 15 15" width="100%" height="30px" preserveAspectRatio="xMaxYMin meet">
         <g id="arrow_out" transform="scale(0.3 0.3)">
          <a xlink:href="libpad_8c__incl_org.svg" target="_base">
           <rect id="button" ry="5" rx="5" y="6" x="6" height="38" width="38"
                fill="#f2f5e9" fill-opacity="0.5" stroke="#606060" stroke-width="1.0"/>
           <path id="arrow"
             d="M 11.500037,31.436501 C 11.940474,20.09759 22.043105,11.32322 32.158766,21.979434 L 37.068811,17.246167 C 37.068811,17.246167 37.088388,32 37.088388,32 L 22.160133,31.978069 C 22.160133,31.978069 26.997745,27.140456 26.997745,27.140456 C 18.528582,18.264221 13.291696,25.230495 11.500037,31.436501 z"
             style="fill:#404040;"/>
          </a>
         </g>
        </svg>
</svg>
