<?xml version="1.0" encoding="UTF-8" standalone="no"?>
<!DOCTYPE svg PUBLIC "-//W3C//DTD SVG 1.1//EN"
 "http://www.w3.org/Graphics/SVG/1.1/DTD/svg11.dtd">
<!-- Generated by graphviz version 7.0.5 (20221223.1930)
 -->
<!-- Title: ee/rpc/poweroff/include/libpwroff.h Pages: 1 -->
<svg width="232pt" height="159pt"
 viewBox="0.00 0.00 231.50 159.00" xmlns="http://www.w3.org/2000/svg" xmlns:xlink="http://www.w3.org/1999/xlink">
<g id="graph0" class="graph" transform="scale(1 1) rotate(0) translate(4 155)">
<title>ee/rpc/poweroff/include/libpwroff.h</title>
<!-- Node1 -->
<g id="node1" class="node">
<title>Node1</title>
<g id="a_node1"><a xlink:title="Power&#45;off library.">
<polygon fill="#999999" stroke="#666666" points="174,-151 57,-151 57,-121 174,-121 174,-151"/>
<text text-anchor="start" x="65" y="-139" font-family="Helvetica,sans-Serif" font-size="10.00">ee/rpc/poweroff/include</text>
<text text-anchor="middle" x="115.5" y="-128" font-family="Helvetica,sans-Serif" font-size="10.00">/libpwroff.h</text>
</a>
</g>
</g>
<!-- Node2 -->
<g id="node2" class="node">
<title>Node2</title>
<g id="a_node2"><a xlink:href="libhdd_8h.html" target="_top" xlink:title=" ">
<polygon fill="white" stroke="#666666" points="105.5,-85 9.5,-85 9.5,-55 105.5,-55 105.5,-85"/>
<text text-anchor="start" x="17.5" y="-73" font-family="Helvetica,sans-Serif" font-size="10.00">ee/rpc/hdd/include</text>
<text text-anchor="middle" x="57.5" y="-62" font-family="Helvetica,sans-Serif" font-size="10.00">/libhdd.h</text>
</a>
</g>
</g>
<!-- Node1&#45;&gt;Node2 -->
<g id="edge1" class="edge">
<title>Node1&#45;&gt;Node2</title>
<path fill="none" stroke="#63b8ff" d="M95.13,-112.53C86.89,-103.43 77.61,-93.19 70.34,-85.16"/>
<polygon fill="#63b8ff" stroke="#63b8ff" points="92.3,-114.62 101.61,-119.67 97.49,-109.91 92.3,-114.62"/>
</g>
<!-- Node4 -->
<g id="node4" class="node">
<title>Node4</title>
<g id="a_node4"><a xlink:href="ee_2rpc_2poweroff_2src_2poweroff_8c_source.html" target="_top" xlink:title=" ">
<polygon fill="white" stroke="#666666" points="223.5,-85 123.5,-85 123.5,-55 223.5,-55 223.5,-85"/>
<text text-anchor="start" x="131.5" y="-73" font-family="Helvetica,sans-Serif" font-size="10.00">ee/rpc/poweroff/src</text>
<text text-anchor="middle" x="173.5" y="-62" font-family="Helvetica,sans-Serif" font-size="10.00">/poweroff.c</text>
</a>
</g>
</g>
<!-- Node1&#45;&gt;Node4 -->
<g id="edge3" class="edge">
<title>Node1&#45;&gt;Node4</title>
<path fill="none" stroke="#63b8ff" d="M135.87,-112.53C144.11,-103.43 153.39,-93.19 160.66,-85.16"/>
<polygon fill="#63b8ff" stroke="#63b8ff" points="133.51,-109.91 129.39,-119.67 138.7,-114.62 133.51,-109.91"/>
</g>
<!-- Node3 -->
<g id="node3" class="node">
<title>Node3</title>
<g id="a_node3"><a xlink:href="libhdd_8c_source.html" target="_top" xlink:title=" ">
<polygon fill="white" stroke="#666666" points="115,-19 0,-19 0,0 115,0 115,-19"/>
<text text-anchor="middle" x="57.5" y="-7" font-family="Helvetica,sans-Serif" font-size="10.00">ee/rpc/hdd/src/libhdd.c</text>
</a>
</g>
</g>
<!-- Node2&#45;&gt;Node3 -->
<g id="edge2" class="edge">
<title>Node2&#45;&gt;Node3</title>
<path fill="none" stroke="#63b8ff" d="M57.5,-43.3C57.5,-34.65 57.5,-25.58 57.5,-19.18"/>
<polygon fill="#63b8ff" stroke="#63b8ff" points="54,-43.03 57.5,-53.03 61,-43.03 54,-43.03"/>
</g>
</g>
</svg>
