<?xml version="1.0" encoding="UTF-8" standalone="no"?>
<!DOCTYPE svg PUBLIC "-//W3C//DTD SVG 1.1//EN"
 "http://www.w3.org/Graphics/SVG/1.1/DTD/svg11.dtd">
<!-- Generated by graphviz version 7.0.5 (20221223.1930)
 -->
<!-- Title: ee/rpc/pad/include/libpad.h Pages: 1 -->
<svg width="296pt" height="148pt"
 viewBox="0.00 0.00 295.50 148.00" xmlns="http://www.w3.org/2000/svg" xmlns:xlink="http://www.w3.org/1999/xlink">
<g id="graph0" class="graph" transform="scale(1 1) rotate(0) translate(4 144)">
<title>ee/rpc/pad/include/libpad.h</title>
<!-- Node1 -->
<g id="node1" class="node">
<title>Node1</title>
<g id="a_node1"><a xlink:title=" ">
<polygon fill="#999999" stroke="#666666" points="192,-140 96,-140 96,-110 192,-110 192,-140"/>
<text text-anchor="start" x="104" y="-128" font-family="Helvetica,sans-Serif" font-size="10.00">ee/rpc/pad/include</text>
<text text-anchor="middle" x="144" y="-117" font-family="Helvetica,sans-Serif" font-size="10.00">/libpad.h</text>
</a>
</g>
</g>
<!-- Node2 -->
<g id="node2" class="node">
<title>Node2</title>
<g id="a_node2"><a xlink:href="input_8h.html" target="_top" xlink:title=" ">
<polygon fill="white" stroke="#666666" points="116,-74 0,-74 0,-55 116,-55 116,-74"/>
<text text-anchor="middle" x="58" y="-62" font-family="Helvetica,sans-Serif" font-size="10.00">ee/input/include/input.h</text>
</a>
</g>
</g>
<!-- Node1&#45;&gt;Node2 -->
<g id="edge1" class="edge">
<title>Node1&#45;&gt;Node2</title>
<path fill="none" stroke="#63b8ff" d="M113.54,-103.28C98.95,-93.35 82.25,-82 71,-74.35"/>
<polygon fill="#63b8ff" stroke="#63b8ff" points="111.25,-105.96 121.49,-108.69 115.19,-100.17 111.25,-105.96"/>
</g>
<!-- Node3 -->
<g id="node3" class="node">
<title>Node3</title>
<g id="a_node3"><a xlink:href="input_8c_source.html" target="_top" xlink:title=" ">
<polygon fill="white" stroke="#666666" points="150.5,-19 51.5,-19 51.5,0 150.5,0 150.5,-19"/>
<text text-anchor="middle" x="101" y="-7" font-family="Helvetica,sans-Serif" font-size="10.00">ee/input/src/input.c</text>
</a>
</g>
</g>
<!-- Node1&#45;&gt;Node3 -->
<g id="edge3" class="edge">
<title>Node1&#45;&gt;Node3</title>
<path fill="none" stroke="#63b8ff" d="M138.45,-98.55C135.21,-85.33 130.63,-69.04 125,-55 119.83,-42.13 111.9,-28.19 106.59,-19.41"/>
<polygon fill="#63b8ff" stroke="#63b8ff" points="135.03,-99.27 140.71,-108.21 141.84,-97.68 135.03,-99.27"/>
</g>
<!-- Node4 -->
<g id="node4" class="node">
<title>Node4</title>
<g id="a_node4"><a xlink:href="libpad_8c.html" target="_top" xlink:title=" ">
<polygon fill="white" stroke="#666666" points="287.5,-74 172.5,-74 172.5,-55 287.5,-55 287.5,-74"/>
<text text-anchor="middle" x="230" y="-62" font-family="Helvetica,sans-Serif" font-size="10.00">ee/rpc/pad/src/libpad.c</text>
</a>
</g>
</g>
<!-- Node1&#45;&gt;Node4 -->
<g id="edge4" class="edge">
<title>Node1&#45;&gt;Node4</title>
<path fill="none" stroke="#63b8ff" d="M174.46,-103.28C189.05,-93.35 205.75,-82 217,-74.35"/>
<polygon fill="#63b8ff" stroke="#63b8ff" points="172.81,-100.17 166.51,-108.69 176.75,-105.96 172.81,-100.17"/>
</g>
<!-- Node2&#45;&gt;Node3 -->
<g id="edge2" class="edge">
<title>Node2&#45;&gt;Node3</title>
<path fill="none" stroke="#63b8ff" d="M72.25,-45.93C79.45,-37.06 87.88,-26.67 93.75,-19.44"/>
<polygon fill="#63b8ff" stroke="#63b8ff" points="69.64,-43.6 66.05,-53.57 75.07,-48.01 69.64,-43.6"/>
</g>
</g>
</svg>
