<?xml version="1.0" encoding="UTF-8" standalone="no"?>
<!DOCTYPE svg PUBLIC "-//W3C//DTD SVG 1.1//EN"
 "http://www.w3.org/Graphics/SVG/1.1/DTD/svg11.dtd">
<!-- Generated by graphviz version 7.0.5 (20221223.1930)
 -->
<!-- Title: ee/rpc/remote/src/librm.c Pages: 1 -->
<svg width="370pt" height="302pt"
 viewBox="0.00 0.00 370.41 302.00" xmlns="http://www.w3.org/2000/svg" xmlns:xlink="http://www.w3.org/1999/xlink">
<g id="graph0" class="graph" transform="scale(1 1) rotate(0) translate(4 298)">
<title>ee/rpc/remote/src/librm.c</title>
<!-- Node1 -->
<g id="node1" class="node">
<title>Node1</title>
<g id="a_node1"><a xlink:title=" ">
<polygon fill="#999999" stroke="#666666" points="248.5,-294 123.5,-294 123.5,-275 248.5,-275 248.5,-294"/>
<text text-anchor="middle" x="186" y="-282" font-family="Helvetica,sans-Serif" font-size="10.00">ee/rpc/remote/src/librm.c</text>
</a>
</g>
</g>
<!-- Node2 -->
<g id="node2" class="node">
<title>Node2</title>
<g id="a_node2"><a xlink:href="stdio_8h.html" target="_top" xlink:title=" ">
<polygon fill="white" stroke="#666666" points="123.5,-184 78.5,-184 78.5,-165 123.5,-165 123.5,-184"/>
<text text-anchor="middle" x="101" y="-172" font-family="Helvetica,sans-Serif" font-size="10.00">stdio.h</text>
</a>
</g>
</g>
<!-- Node1&#45;&gt;Node2 -->
<g id="edge1" class="edge">
<title>Node1&#45;&gt;Node2</title>
<path fill="none" stroke="#63b8ff" d="M165.93,-274.61C151.2,-267.11 131.79,-255.03 120,-239 110.6,-226.21 105.81,-208.77 103.4,-195.41"/>
<polygon fill="#63b8ff" stroke="#63b8ff" points="106.87,-195 101.95,-185.62 99.95,-196.02 106.87,-195"/>
</g>
<!-- Node7 -->
<g id="node7" class="node">
<title>Node7</title>
<g id="a_node7"><a xlink:href="tamtypes_8h.html" target="_top" xlink:title=" ">
<polygon fill="white" stroke="#666666" points="235,-19 171,-19 171,0 235,0 235,-19"/>
<text text-anchor="middle" x="203" y="-7" font-family="Helvetica,sans-Serif" font-size="10.00">tamtypes.h</text>
</a>
</g>
</g>
<!-- Node1&#45;&gt;Node7 -->
<g id="edge7" class="edge">
<title>Node1&#45;&gt;Node7</title>
<path fill="none" stroke="#63b8ff" d="M237.38,-274.57C289.33,-262.25 362,-234.47 362,-175.5 362,-175.5 362,-175.5 362,-118.5 362,-89.04 363.65,-76.01 343,-55 317.63,-29.2 277.38,-18.33 246.54,-13.76"/>
<polygon fill="#63b8ff" stroke="#63b8ff" points="247.09,-10.31 236.73,-12.5 246.2,-17.25 247.09,-10.31"/>
</g>
<!-- Node8 -->
<g id="node8" class="node">
<title>Node8</title>
<g id="a_node8"><a xlink:title=" ">
<polygon fill="#e0e0e0" stroke="#999999" points="177,-239 129,-239 129,-220 177,-220 177,-239"/>
<text text-anchor="middle" x="153" y="-227" font-family="Helvetica,sans-Serif" font-size="10.00">sifrpc.h</text>
</a>
</g>
</g>
<!-- Node1&#45;&gt;Node8 -->
<g id="edge8" class="edge">
<title>Node1&#45;&gt;Node8</title>
<path fill="none" stroke="#63b8ff" d="M180.55,-274.75C176.23,-267.81 170.04,-257.86 164.62,-249.16"/>
<polygon fill="#63b8ff" stroke="#63b8ff" points="167.62,-247.37 159.37,-240.73 161.68,-251.07 167.62,-247.37"/>
</g>
<!-- Node9 -->
<g id="node9" class="node">
<title>Node9</title>
<g id="a_node9"><a xlink:href="kernel_8h.html" target="_top" xlink:title=" ">
<polygon fill="white" stroke="#666666" points="50,-184 0,-184 0,-165 50,-165 50,-184"/>
<text text-anchor="middle" x="25" y="-172" font-family="Helvetica,sans-Serif" font-size="10.00">kernel.h</text>
</a>
</g>
</g>
<!-- Node1&#45;&gt;Node9 -->
<g id="edge9" class="edge">
<title>Node1&#45;&gt;Node9</title>
<path fill="none" stroke="#63b8ff" d="M168.62,-274.65C152.32,-266.13 127.46,-252.58 107,-239 84.55,-224.1 60.33,-204.92 44.08,-191.56"/>
<polygon fill="#63b8ff" stroke="#63b8ff" points="46.6,-189.1 36.67,-185.41 42.13,-194.49 46.6,-189.1"/>
</g>
<!-- Node11 -->
<g id="node11" class="node">
<title>Node11</title>
<g id="a_node11"><a xlink:href="string_8h_source.html" target="_top" xlink:title=" ">
<polygon fill="white" stroke="#666666" points="243,-239 195,-239 195,-220 243,-220 243,-239"/>
<text text-anchor="middle" x="219" y="-227" font-family="Helvetica,sans-Serif" font-size="10.00">string.h</text>
</a>
</g>
</g>
<!-- Node1&#45;&gt;Node11 -->
<g id="edge14" class="edge">
<title>Node1&#45;&gt;Node11</title>
<path fill="none" stroke="#63b8ff" d="M191.45,-274.75C195.77,-267.81 201.96,-257.86 207.38,-249.16"/>
<polygon fill="#63b8ff" stroke="#63b8ff" points="210.32,-251.07 212.63,-240.73 204.38,-247.37 210.32,-251.07"/>
</g>
<!-- Node15 -->
<g id="node15" class="node">
<title>Node15</title>
<g id="a_node15"><a xlink:href="librm_8h.html" target="_top" xlink:title="RPC Interface for PS2 Remote Control Driver (RMMAN)">
<polygon fill="white" stroke="#666666" points="312.5,-239 267.5,-239 267.5,-220 312.5,-220 312.5,-239"/>
<text text-anchor="middle" x="290" y="-227" font-family="Helvetica,sans-Serif" font-size="10.00">librm.h</text>
</a>
</g>
</g>
<!-- Node1&#45;&gt;Node15 -->
<g id="edge22" class="edge">
<title>Node1&#45;&gt;Node15</title>
<path fill="none" stroke="#63b8ff" d="M203.64,-274.51C219.73,-266.31 243.75,-254.07 262.37,-244.58"/>
<polygon fill="#63b8ff" stroke="#63b8ff" points="263.95,-247.7 271.27,-240.05 260.77,-241.47 263.95,-247.7"/>
</g>
<!-- Node3 -->
<g id="node3" class="node">
<title>Node3</title>
<g id="a_node3"><a xlink:title=" ">
<polygon fill="#e0e0e0" stroke="#999999" points="99.5,-129 48.5,-129 48.5,-110 99.5,-110 99.5,-129"/>
<text text-anchor="middle" x="74" y="-117" font-family="Helvetica,sans-Serif" font-size="10.00">stdarg.h</text>
</a>
</g>
</g>
<!-- Node2&#45;&gt;Node3 -->
<g id="edge2" class="edge">
<title>Node2&#45;&gt;Node3</title>
<path fill="none" stroke="#63b8ff" d="M96.54,-164.75C93.05,-157.88 88.05,-148.08 83.65,-139.45"/>
<polygon fill="#63b8ff" stroke="#63b8ff" points="86.9,-138.11 79.24,-130.79 80.66,-141.29 86.9,-138.11"/>
</g>
<!-- Node4 -->
<g id="node4" class="node">
<title>Node4</title>
<g id="a_node4"><a xlink:href="irx_8h.html" target="_top" xlink:title=" ">
<polygon fill="white" stroke="#666666" points="152,-129 118,-129 118,-110 152,-110 152,-129"/>
<text text-anchor="middle" x="135" y="-117" font-family="Helvetica,sans-Serif" font-size="10.00">irx.h</text>
</a>
</g>
</g>
<!-- Node2&#45;&gt;Node4 -->
<g id="edge3" class="edge">
<title>Node2&#45;&gt;Node4</title>
<path fill="none" stroke="#63b8ff" d="M106.61,-164.75C111.12,-157.73 117.59,-147.64 123.21,-138.87"/>
<polygon fill="#63b8ff" stroke="#63b8ff" points="125.99,-141.02 128.45,-130.72 120.1,-137.24 125.99,-141.02"/>
</g>
<!-- Node5 -->
<g id="node5" class="node">
<title>Node5</title>
<g id="a_node5"><a xlink:href="iop_2kernel_2include_2types_8h_source.html" target="_top" xlink:title=" ">
<polygon fill="white" stroke="#666666" points="158.5,-74 111.5,-74 111.5,-55 158.5,-55 158.5,-74"/>
<text text-anchor="middle" x="135" y="-62" font-family="Helvetica,sans-Serif" font-size="10.00">types.h</text>
</a>
</g>
</g>
<!-- Node4&#45;&gt;Node5 -->
<g id="edge4" class="edge">
<title>Node4&#45;&gt;Node5</title>
<path fill="none" stroke="#63b8ff" d="M135,-109.75C135,-103.27 135,-94.16 135,-85.9"/>
<polygon fill="#63b8ff" stroke="#63b8ff" points="138.5,-85.96 135,-75.96 131.5,-85.96 138.5,-85.96"/>
</g>
<!-- Node6 -->
<g id="node6" class="node">
<title>Node6</title>
<g id="a_node6"><a xlink:title=" ">
<polygon fill="#e0e0e0" stroke="#999999" points="80.5,-19 29.5,-19 29.5,0 80.5,0 80.5,-19"/>
<text text-anchor="middle" x="55" y="-7" font-family="Helvetica,sans-Serif" font-size="10.00">stddef.h</text>
</a>
</g>
</g>
<!-- Node5&#45;&gt;Node6 -->
<g id="edge5" class="edge">
<title>Node5&#45;&gt;Node6</title>
<path fill="none" stroke="#63b8ff" d="M121.43,-54.51C109.52,-46.62 91.95,-34.98 77.87,-25.65"/>
<polygon fill="#63b8ff" stroke="#63b8ff" points="79.9,-22.8 69.63,-20.19 76.04,-28.63 79.9,-22.8"/>
</g>
<!-- Node5&#45;&gt;Node7 -->
<g id="edge6" class="edge">
<title>Node5&#45;&gt;Node7</title>
<path fill="none" stroke="#63b8ff" d="M146.54,-54.51C156.46,-46.77 171.01,-35.43 182.86,-26.2"/>
<polygon fill="#63b8ff" stroke="#63b8ff" points="184.71,-29.2 190.44,-20.29 180.4,-23.68 184.71,-29.2"/>
</g>
<!-- Node9&#45;&gt;Node3 -->
<g id="edge11" class="edge">
<title>Node9&#45;&gt;Node3</title>
<path fill="none" stroke="#63b8ff" d="M33.09,-164.75C39.86,-157.43 49.72,-146.76 58.06,-137.74"/>
<polygon fill="#63b8ff" stroke="#63b8ff" points="60.49,-140.27 64.71,-130.55 55.35,-135.52 60.49,-140.27"/>
</g>
<!-- Node9&#45;&gt;Node6 -->
<g id="edge10" class="edge">
<title>Node9&#45;&gt;Node6</title>
<path fill="none" stroke="#63b8ff" d="M21.81,-164.51C15.14,-144.22 1.47,-93.62 16,-55 20.04,-44.27 27.97,-34.43 35.63,-26.76"/>
<polygon fill="#63b8ff" stroke="#63b8ff" points="37.58,-29.72 42.53,-20.36 32.82,-24.59 37.58,-29.72"/>
</g>
<!-- Node10 -->
<g id="node10" class="node">
<title>Node10</title>
<g id="a_node10"><a xlink:href="sifdma_8h.html" target="_top" xlink:title=" ">
<polygon fill="white" stroke="#666666" points="78.5,-74 25.5,-74 25.5,-55 78.5,-55 78.5,-74"/>
<text text-anchor="middle" x="52" y="-62" font-family="Helvetica,sans-Serif" font-size="10.00">sifdma.h</text>
</a>
</g>
</g>
<!-- Node9&#45;&gt;Node10 -->
<g id="edge12" class="edge">
<title>Node9&#45;&gt;Node10</title>
<path fill="none" stroke="#63b8ff" d="M26.72,-164.83C29.19,-152.56 34.02,-129.47 39,-110 41.1,-101.81 43.66,-92.86 45.95,-85.14"/>
<polygon fill="#63b8ff" stroke="#63b8ff" points="49.24,-86.35 48.8,-75.77 42.54,-84.32 49.24,-86.35"/>
</g>
<!-- Node10&#45;&gt;Node7 -->
<g id="edge13" class="edge">
<title>Node10&#45;&gt;Node7</title>
<path fill="none" stroke="#63b8ff" d="M77.62,-54.51C102.09,-45.92 139.24,-32.88 166.75,-23.22"/>
<polygon fill="#63b8ff" stroke="#63b8ff" points="167.81,-26.56 176.08,-19.95 165.49,-19.96 167.81,-26.56"/>
</g>
<!-- Node12 -->
<g id="node12" class="node">
<title>Node12</title>
<g id="a_node12"><a xlink:href="sysclib_8h.html" target="_top" xlink:title=" ">
<polygon fill="white" stroke="#666666" points="226,-184 172,-184 172,-165 226,-165 226,-184"/>
<text text-anchor="middle" x="199" y="-172" font-family="Helvetica,sans-Serif" font-size="10.00">sysclib.h</text>
</a>
</g>
</g>
<!-- Node11&#45;&gt;Node12 -->
<g id="edge15" class="edge">
<title>Node11&#45;&gt;Node12</title>
<path fill="none" stroke="#63b8ff" d="M215.7,-219.75C213.17,-213.04 209.57,-203.52 206.37,-195.02"/>
<polygon fill="#63b8ff" stroke="#63b8ff" points="209.71,-193.98 202.91,-185.86 203.16,-196.45 209.71,-193.98"/>
</g>
<!-- Node12&#45;&gt;Node3 -->
<g id="edge18" class="edge">
<title>Node12&#45;&gt;Node3</title>
<path fill="none" stroke="#63b8ff" d="M177.8,-164.51C157.92,-156.08 127.97,-143.38 105.34,-133.79"/>
<polygon fill="#63b8ff" stroke="#63b8ff" points="106.86,-130.63 96.28,-129.95 104.13,-137.07 106.86,-130.63"/>
</g>
<!-- Node12&#45;&gt;Node4 -->
<g id="edge17" class="edge">
<title>Node12&#45;&gt;Node4</title>
<path fill="none" stroke="#63b8ff" d="M188.14,-164.51C178.89,-156.85 165.38,-145.66 154.29,-136.47"/>
<polygon fill="#63b8ff" stroke="#63b8ff" points="156.8,-134.01 146.86,-130.32 152.33,-139.4 156.8,-134.01"/>
</g>
<!-- Node12&#45;&gt;Node5 -->
<g id="edge16" class="edge">
<title>Node12&#45;&gt;Node5</title>
<path fill="none" stroke="#63b8ff" d="M193.76,-164.66C183.4,-147.18 160.09,-107.84 146.14,-84.3"/>
<polygon fill="#63b8ff" stroke="#63b8ff" points="149.19,-82.58 141.08,-75.76 143.17,-86.15 149.19,-82.58"/>
</g>
<!-- Node13 -->
<g id="node13" class="node">
<title>Node13</title>
<g id="a_node13"><a xlink:href="setjmp_8h.html" target="_top" xlink:title=" ">
<polygon fill="white" stroke="#666666" points="229.5,-74 176.5,-74 176.5,-55 229.5,-55 229.5,-74"/>
<text text-anchor="middle" x="203" y="-62" font-family="Helvetica,sans-Serif" font-size="10.00">setjmp.h</text>
</a>
</g>
</g>
<!-- Node12&#45;&gt;Node13 -->
<g id="edge19" class="edge">
<title>Node12&#45;&gt;Node13</title>
<path fill="none" stroke="#63b8ff" d="M199.33,-164.66C199.96,-147.57 201.37,-109.61 202.24,-85.92"/>
<polygon fill="#63b8ff" stroke="#63b8ff" points="205.74,-86.1 202.61,-75.97 198.74,-85.84 205.74,-86.1"/>
</g>
<!-- Node14 -->
<g id="node14" class="node">
<title>Node14</title>
<g id="a_node14"><a xlink:href="ctype_8h.html" target="_top" xlink:title=" ">
<polygon fill="white" stroke="#666666" points="293.5,-129 246.5,-129 246.5,-110 293.5,-110 293.5,-129"/>
<text text-anchor="middle" x="270" y="-117" font-family="Helvetica,sans-Serif" font-size="10.00">ctype.h</text>
</a>
</g>
</g>
<!-- Node12&#45;&gt;Node14 -->
<g id="edge21" class="edge">
<title>Node12&#45;&gt;Node14</title>
<path fill="none" stroke="#63b8ff" d="M211.04,-164.51C221.41,-156.77 236.6,-145.43 248.97,-136.2"/>
<polygon fill="#63b8ff" stroke="#63b8ff" points="251,-139.05 256.92,-130.26 246.81,-133.44 251,-139.05"/>
</g>
<!-- Node13&#45;&gt;Node7 -->
<g id="edge20" class="edge">
<title>Node13&#45;&gt;Node7</title>
<path fill="none" stroke="#63b8ff" d="M203,-54.75C203,-48.27 203,-39.16 203,-30.9"/>
<polygon fill="#63b8ff" stroke="#63b8ff" points="206.5,-30.96 203,-20.96 199.5,-30.96 206.5,-30.96"/>
</g>
<!-- Node16 -->
<g id="node16" class="node">
<title>Node16</title>
<g id="a_node16"><a xlink:href="librm-common_8h.html" target="_top" xlink:title=" ">
<polygon fill="white" stroke="#666666" points="334,-74 248,-74 248,-55 334,-55 334,-74"/>
<text text-anchor="middle" x="291" y="-62" font-family="Helvetica,sans-Serif" font-size="10.00">librm&#45;common.h</text>
</a>
</g>
</g>
<!-- Node15&#45;&gt;Node16 -->
<g id="edge23" class="edge">
<title>Node15&#45;&gt;Node16</title>
<path fill="none" stroke="#63b8ff" d="M292.45,-219.56C297.55,-199.79 308.41,-150.83 303,-110 301.9,-101.67 299.68,-92.69 297.45,-84.99"/>
<polygon fill="#63b8ff" stroke="#63b8ff" points="300.86,-84.17 294.54,-75.67 294.18,-86.26 300.86,-84.17"/>
</g>
<!-- Node16&#45;&gt;Node7 -->
<g id="edge24" class="edge">
<title>Node16&#45;&gt;Node7</title>
<path fill="none" stroke="#63b8ff" d="M276.07,-54.51C262.72,-46.47 242.89,-34.53 227.26,-25.11"/>
<polygon fill="#63b8ff" stroke="#63b8ff" points="229.38,-22.3 219,-20.14 225.76,-28.3 229.38,-22.3"/>
</g>
</g>
</svg>
