<?xml version="1.0" encoding="UTF-8" standalone="no"?>
<!DOCTYPE svg PUBLIC "-//W3C//DTD SVG 1.1//EN"
 "http://www.w3.org/Graphics/SVG/1.1/DTD/svg11.dtd">
<!-- Generated by graphviz version 7.0.5 (20221223.1930)
 -->
<!-- Title: ee/libvux/include/libvux.h Pages: 1 -->
<svg width="335pt" height="137pt"
 viewBox="0.00 0.00 335.00 137.00" xmlns="http://www.w3.org/2000/svg" xmlns:xlink="http://www.w3.org/1999/xlink">
<g id="graph0" class="graph" transform="scale(1 1) rotate(0) translate(4 133)">
<title>ee/libvux/include/libvux.h</title>
<!-- Node1 -->
<g id="node1" class="node">
<title>Node1</title>
<g id="a_node1"><a xlink:title=" ">
<polygon fill="#999999" stroke="#666666" points="233.5,-129 109.5,-129 109.5,-110 233.5,-110 233.5,-129"/>
<text text-anchor="middle" x="171.5" y="-117" font-family="Helvetica,sans-Serif" font-size="10.00">ee/libvux/include/libvux.h</text>
</a>
</g>
</g>
<!-- Node2 -->
<g id="node2" class="node">
<title>Node2</title>
<g id="a_node2"><a xlink:href="vuhw_8c_source.html" target="_top" xlink:title=" ">
<polygon fill="white" stroke="#666666" points="105,-74 0,-74 0,-55 105,-55 105,-74"/>
<text text-anchor="middle" x="52.5" y="-62" font-family="Helvetica,sans-Serif" font-size="10.00">ee/libvux/src/vuhw.c</text>
</a>
</g>
</g>
<!-- Node1&#45;&gt;Node2 -->
<g id="edge1" class="edge">
<title>Node1&#45;&gt;Node2</title>
<path fill="none" stroke="#63b8ff" d="M141.03,-104.93C119.45,-95.32 91.12,-82.7 72.39,-74.36"/>
<polygon fill="#63b8ff" stroke="#63b8ff" points="139.37,-108.02 149.93,-108.89 142.22,-101.63 139.37,-108.02"/>
</g>
<!-- Node3 -->
<g id="node3" class="node">
<title>Node3</title>
<g id="a_node3"><a xlink:href="vusw_8c_source.html" target="_top" xlink:title=" ">
<polygon fill="white" stroke="#666666" points="203,-19 98,-19 98,0 203,0 203,-19"/>
<text text-anchor="middle" x="150.5" y="-7" font-family="Helvetica,sans-Serif" font-size="10.00">ee/libvux/src/vusw.c</text>
</a>
</g>
</g>
<!-- Node1&#45;&gt;Node3 -->
<g id="edge2" class="edge">
<title>Node1&#45;&gt;Node3</title>
<path fill="none" stroke="#63b8ff" d="M161.57,-99.56C158.02,-91.85 154.42,-82.71 152.5,-74 148.26,-54.83 148.95,-31.62 149.76,-19.25"/>
<polygon fill="#63b8ff" stroke="#63b8ff" points="158.3,-100.85 165.87,-108.27 164.58,-97.75 158.3,-100.85"/>
</g>
<!-- Node4 -->
<g id="node4" class="node">
<title>Node4</title>
<g id="a_node4"><a xlink:href="vux_8c_source.html" target="_top" xlink:title=" ">
<polygon fill="white" stroke="#666666" points="327,-19 230,-19 230,0 327,0 327,-19"/>
<text text-anchor="middle" x="278.5" y="-7" font-family="Helvetica,sans-Serif" font-size="10.00">ee/libvux/src/vux.c</text>
</a>
</g>
</g>
<!-- Node1&#45;&gt;Node4 -->
<g id="edge3" class="edge">
<title>Node1&#45;&gt;Node4</title>
<path fill="none" stroke="#63b8ff" d="M222.25,-105.89C239.42,-99.16 257.1,-89.04 268.5,-74 280.77,-57.81 280.65,-32.55 279.55,-19.29"/>
<polygon fill="#63b8ff" stroke="#63b8ff" points="221.36,-102.49 213.12,-109.15 223.72,-109.08 221.36,-102.49"/>
</g>
<!-- Node5 -->
<g id="node5" class="node">
<title>Node5</title>
<g id="a_node5"><a xlink:href="vux_8h_source.html" target="_top" xlink:title=" ">
<polygon fill="white" stroke="#666666" points="259,-74 162,-74 162,-55 259,-55 259,-74"/>
<text text-anchor="middle" x="210.5" y="-62" font-family="Helvetica,sans-Serif" font-size="10.00">ee/libvux/src/vux.h</text>
</a>
</g>
</g>
<!-- Node1&#45;&gt;Node5 -->
<g id="edge4" class="edge">
<title>Node1&#45;&gt;Node5</title>
<path fill="none" stroke="#63b8ff" d="M184.64,-100.65C191.12,-91.84 198.66,-81.59 203.92,-74.44"/>
<polygon fill="#63b8ff" stroke="#63b8ff" points="181.94,-98.4 178.84,-108.53 187.58,-102.55 181.94,-98.4"/>
</g>
<!-- Node5&#45;&gt;Node3 -->
<g id="edge5" class="edge">
<title>Node5&#45;&gt;Node3</title>
<path fill="none" stroke="#63b8ff" d="M191.92,-47.09C181.56,-37.94 169.07,-26.9 160.53,-19.36"/>
<polygon fill="#63b8ff" stroke="#63b8ff" points="189.38,-49.51 199.19,-53.51 194.01,-44.26 189.38,-49.51"/>
</g>
<!-- Node5&#45;&gt;Node4 -->
<g id="edge6" class="edge">
<title>Node5&#45;&gt;Node4</title>
<path fill="none" stroke="#63b8ff" d="M230.85,-47.64C242.72,-38.39 257.26,-27.05 267.14,-19.36"/>
<polygon fill="#63b8ff" stroke="#63b8ff" points="228.96,-44.67 223.23,-53.58 233.27,-50.19 228.96,-44.67"/>
</g>
</g>
</svg>
