<?xml version="1.0" encoding="UTF-8" standalone="no"?>
<!DOCTYPE svg PUBLIC "-//W3C//DTD SVG 1.1//EN"
 "http://www.w3.org/Graphics/SVG/1.1/DTD/svg11.dtd">
<!-- Generated by graphviz version 7.0.5 (20221223.1930)
 -->
<!-- Title: iop/kernel/include/limits.h Pages: 1 -->
<svg width="1943pt" height="115pt"
 viewBox="0.00 0.00 1942.50 115.00" xmlns="http://www.w3.org/2000/svg" xmlns:xlink="http://www.w3.org/1999/xlink">
<g id="graph0" class="graph" transform="scale(1 1) rotate(0) translate(4 111)">
<title>iop/kernel/include/limits.h</title>
<!-- Node1 -->
<g id="node1" class="node">
<title>Node1</title>
<g id="a_node1"><a xlink:title=" ">
<polygon fill="#999999" stroke="#666666" points="961,-107 869,-107 869,-77 961,-77 961,-107"/>
<text text-anchor="start" x="877" y="-95" font-family="Helvetica,sans-Serif" font-size="10.00">iop/kernel/include</text>
<text text-anchor="middle" x="915" y="-84" font-family="Helvetica,sans-Serif" font-size="10.00">/limits.h</text>
</a>
</g>
</g>
<!-- Node2 -->
<g id="node2" class="node">
<title>Node2</title>
<g id="a_node2"><a xlink:href="libcglue_2src_2glue_8c_source.html" target="_top" xlink:title=" ">
<polygon fill="white" stroke="#666666" points="108,-30 0,-30 0,-11 108,-11 108,-30"/>
<text text-anchor="middle" x="54" y="-18" font-family="Helvetica,sans-Serif" font-size="10.00">ee/libcglue/src/glue.c</text>
</a>
</g>
</g>
<!-- Node1&#45;&gt;Node2 -->
<g id="edge1" class="edge">
<title>Node1&#45;&gt;Node2</title>
<path fill="none" stroke="#63b8ff" d="M857.27,-89.16C698.78,-83.84 259.28,-67.09 117,-41 103.94,-38.6 89.78,-34.38 78.2,-30.47"/>
<polygon fill="#63b8ff" stroke="#63b8ff" points="857.01,-92.66 867.12,-89.49 857.24,-85.66 857.01,-92.66"/>
</g>
<!-- Node3 -->
<g id="node3" class="node">
<title>Node3</title>
<g id="a_node3"><a xlink:href="ee_2network_2tcpip_2src_2sys__arch_8c_source.html" target="_top" xlink:title=" ">
<polygon fill="white" stroke="#666666" points="231.5,-35.5 126.5,-35.5 126.5,-5.5 231.5,-5.5 231.5,-35.5"/>
<text text-anchor="start" x="134.5" y="-23.5" font-family="Helvetica,sans-Serif" font-size="10.00">ee/network/tcpip/src</text>
<text text-anchor="middle" x="179" y="-12.5" font-family="Helvetica,sans-Serif" font-size="10.00">/sys_arch.c</text>
</a>
</g>
</g>
<!-- Node1&#45;&gt;Node3 -->
<g id="edge2" class="edge">
<title>Node1&#45;&gt;Node3</title>
<path fill="none" stroke="#63b8ff" d="M857.49,-91.27C740.22,-90.84 465.51,-84.76 240,-41 233.34,-39.71 226.39,-37.92 219.67,-35.96"/>
<polygon fill="#63b8ff" stroke="#63b8ff" points="857.15,-94.77 867.16,-91.3 857.17,-87.77 857.15,-94.77"/>
</g>
<!-- Node4 -->
<g id="node4" class="node">
<title>Node4</title>
<g id="a_node4"><a xlink:href="fs_2bdmfs__vfat_2src_2fat__driver_8c_source.html" target="_top" xlink:title=" ">
<polygon fill="white" stroke="#666666" points="358.5,-35.5 249.5,-35.5 249.5,-5.5 358.5,-5.5 358.5,-35.5"/>
<text text-anchor="start" x="257.5" y="-23.5" font-family="Helvetica,sans-Serif" font-size="10.00">iop/fs/bdmfs_vfat/src</text>
<text text-anchor="middle" x="304" y="-12.5" font-family="Helvetica,sans-Serif" font-size="10.00">/fat_driver.c</text>
</a>
</g>
</g>
<!-- Node1&#45;&gt;Node4 -->
<g id="edge3" class="edge">
<title>Node1&#45;&gt;Node4</title>
<path fill="none" stroke="#63b8ff" d="M857.31,-89.69C756.8,-86.54 543.46,-75.96 367,-41 360.26,-39.66 353.22,-37.88 346.39,-35.94"/>
<polygon fill="#63b8ff" stroke="#63b8ff" points="857.1,-93.19 867.2,-89.99 857.3,-86.19 857.1,-93.19"/>
</g>
<!-- Node5 -->
<g id="node5" class="node">
<title>Node5</title>
<g id="a_node5"><a xlink:href="bitmap_8c_source.html" target="_top" xlink:title=" ">
<polygon fill="white" stroke="#666666" points="467.5,-35.5 376.5,-35.5 376.5,-5.5 467.5,-5.5 467.5,-35.5"/>
<text text-anchor="start" x="384.5" y="-23.5" font-family="Helvetica,sans-Serif" font-size="10.00">iop/hdd/libpfs/src</text>
<text text-anchor="middle" x="422" y="-12.5" font-family="Helvetica,sans-Serif" font-size="10.00">/bitmap.c</text>
</a>
</g>
</g>
<!-- Node1&#45;&gt;Node5 -->
<g id="edge4" class="edge">
<title>Node1&#45;&gt;Node5</title>
<path fill="none" stroke="#63b8ff" d="M857.31,-88.59C772.86,-84.12 611.07,-71.99 477,-41 471.18,-39.65 465.12,-37.89 459.24,-35.98"/>
<polygon fill="#63b8ff" stroke="#63b8ff" points="857.02,-92.08 867.19,-89.09 857.38,-85.08 857.02,-92.08"/>
</g>
<!-- Node6 -->
<g id="node6" class="node">
<title>Node6</title>
<g id="a_node6"><a xlink:href="iop_2network_2netman_2src_2rpc__client_8c_source.html" target="_top" xlink:title=" ">
<polygon fill="white" stroke="#666666" points="588,-35.5 486,-35.5 486,-5.5 588,-5.5 588,-35.5"/>
<text text-anchor="start" x="494" y="-23.5" font-family="Helvetica,sans-Serif" font-size="10.00">iop/network/netman</text>
<text text-anchor="middle" x="537" y="-12.5" font-family="Helvetica,sans-Serif" font-size="10.00">/src/rpc_client.c</text>
</a>
</g>
</g>
<!-- Node1&#45;&gt;Node6 -->
<g id="edge5" class="edge">
<title>Node1&#45;&gt;Node6</title>
<path fill="none" stroke="#63b8ff" d="M857.67,-84.76C793.58,-77.14 686.98,-62.55 597,-41 591.04,-39.57 584.81,-37.83 578.72,-35.99"/>
<polygon fill="#63b8ff" stroke="#63b8ff" points="856.9,-88.19 867.23,-85.88 857.71,-81.24 856.9,-88.19"/>
</g>
<!-- Node7 -->
<g id="node7" class="node">
<title>Node7</title>
<g id="a_node7"><a xlink:href="smb_8c_source.html" target="_top" xlink:title=" ">
<polygon fill="white" stroke="#666666" points="713.5,-35.5 606.5,-35.5 606.5,-5.5 713.5,-5.5 713.5,-35.5"/>
<text text-anchor="start" x="614.5" y="-23.5" font-family="Helvetica,sans-Serif" font-size="10.00">iop/network/smbman</text>
<text text-anchor="middle" x="660" y="-12.5" font-family="Helvetica,sans-Serif" font-size="10.00">/src/smb.c</text>
</a>
</g>
</g>
<!-- Node1&#45;&gt;Node7 -->
<g id="edge6" class="edge">
<title>Node1&#45;&gt;Node7</title>
<path fill="none" stroke="#63b8ff" d="M857.74,-76.81C819.48,-67.15 768.08,-53.84 723,-41 717.38,-39.4 711.51,-37.66 705.69,-35.91"/>
<polygon fill="#63b8ff" stroke="#63b8ff" points="856.65,-80.15 867.21,-79.19 858.36,-73.36 856.65,-80.15"/>
</g>
<!-- Node8 -->
<g id="node8" class="node">
<title>Node8</title>
<g id="a_node8"><a xlink:href="embeddedartistry__libc_2stdlib_2strtol_8c_source.html" target="_top" xlink:title=" ">
<polygon fill="white" stroke="#666666" points="842,-41 732,-41 732,0 842,0 842,-41"/>
<text text-anchor="start" x="740" y="-29" font-family="Helvetica,sans-Serif" font-size="10.00">iop/system/sysclib</text>
<text text-anchor="start" x="740" y="-18" font-family="Helvetica,sans-Serif" font-size="10.00">/src/embeddedartistry</text>
<text text-anchor="middle" x="787" y="-7" font-family="Helvetica,sans-Serif" font-size="10.00">_libc/stdlib/strtol.c</text>
</a>
</g>
</g>
<!-- Node1&#45;&gt;Node8 -->
<g id="edge7" class="edge">
<title>Node1&#45;&gt;Node8</title>
<path fill="none" stroke="#63b8ff" d="M878.77,-71.33C861.53,-61.97 840.97,-50.8 823.68,-41.42"/>
<polygon fill="#63b8ff" stroke="#63b8ff" points="876.69,-74.18 887.15,-75.88 880.03,-68.03 876.69,-74.18"/>
</g>
<!-- Node9 -->
<g id="node9" class="node">
<title>Node9</title>
<g id="a_node9"><a xlink:href="embeddedartistry__libc_2stdlib_2strtoul_8c_source.html" target="_top" xlink:title=" ">
<polygon fill="white" stroke="#666666" points="970,-41 860,-41 860,0 970,0 970,-41"/>
<text text-anchor="start" x="868" y="-29" font-family="Helvetica,sans-Serif" font-size="10.00">iop/system/sysclib</text>
<text text-anchor="start" x="868" y="-18" font-family="Helvetica,sans-Serif" font-size="10.00">/src/embeddedartistry</text>
<text text-anchor="middle" x="915" y="-7" font-family="Helvetica,sans-Serif" font-size="10.00">_libc/stdlib/strtoul.c</text>
</a>
</g>
</g>
<!-- Node1&#45;&gt;Node9 -->
<g id="edge8" class="edge">
<title>Node1&#45;&gt;Node9</title>
<path fill="none" stroke="#63b8ff" d="M915,-65.36C915,-57.45 915,-48.87 915,-41.42"/>
<polygon fill="#63b8ff" stroke="#63b8ff" points="911.5,-65.09 915,-75.09 918.5,-65.09 911.5,-65.09"/>
</g>
<!-- Node10 -->
<g id="node10" class="node">
<title>Node10</title>
<g id="a_node10"><a xlink:href="printf_8c_source.html" target="_top" xlink:title=" ">
<polygon fill="white" stroke="#666666" points="1085.5,-41 988.5,-41 988.5,0 1085.5,0 1085.5,-41"/>
<text text-anchor="start" x="996.5" y="-29" font-family="Helvetica,sans-Serif" font-size="10.00">iop/system/sysclib</text>
<text text-anchor="start" x="996.5" y="-18" font-family="Helvetica,sans-Serif" font-size="10.00">/src/eyalroz_printf</text>
<text text-anchor="middle" x="1037" y="-7" font-family="Helvetica,sans-Serif" font-size="10.00">/printf.c</text>
</a>
</g>
</g>
<!-- Node1&#45;&gt;Node10 -->
<g id="edge9" class="edge">
<title>Node1&#45;&gt;Node10</title>
<path fill="none" stroke="#63b8ff" d="M950,-71.06C966.33,-61.76 985.71,-50.72 1002.04,-41.42"/>
<polygon fill="#63b8ff" stroke="#63b8ff" points="948.55,-67.86 941.59,-75.85 952.02,-73.94 948.55,-67.86"/>
</g>
<!-- Node11 -->
<g id="node11" class="node">
<title>Node11</title>
<g id="a_node11"><a xlink:href="musl_2string_2memchr_8c_source.html" target="_top" xlink:title=" ">
<polygon fill="white" stroke="#666666" points="1234,-35.5 1104,-35.5 1104,-5.5 1234,-5.5 1234,-35.5"/>
<text text-anchor="start" x="1112" y="-23.5" font-family="Helvetica,sans-Serif" font-size="10.00">iop/system/sysclib</text>
<text text-anchor="middle" x="1169" y="-12.5" font-family="Helvetica,sans-Serif" font-size="10.00">/src/musl/string/memchr.c</text>
</a>
</g>
</g>
<!-- Node1&#45;&gt;Node11 -->
<g id="edge10" class="edge">
<title>Node1&#45;&gt;Node11</title>
<path fill="none" stroke="#63b8ff" d="M972.21,-75.35C1015.46,-63.51 1074.38,-47.39 1116.45,-35.88"/>
<polygon fill="#63b8ff" stroke="#63b8ff" points="971.47,-71.92 962.75,-77.93 973.32,-78.67 971.47,-71.92"/>
</g>
<!-- Node12 -->
<g id="node12" class="node">
<title>Node12</title>
<g id="a_node12"><a xlink:href="stpcpy_8c_source.html" target="_top" xlink:title=" ">
<polygon fill="white" stroke="#666666" points="1375.5,-35.5 1252.5,-35.5 1252.5,-5.5 1375.5,-5.5 1375.5,-35.5"/>
<text text-anchor="start" x="1260.5" y="-23.5" font-family="Helvetica,sans-Serif" font-size="10.00">iop/system/sysclib</text>
<text text-anchor="middle" x="1314" y="-12.5" font-family="Helvetica,sans-Serif" font-size="10.00">/src/musl/string/stpcpy.c</text>
</a>
</g>
</g>
<!-- Node1&#45;&gt;Node12 -->
<g id="edge11" class="edge">
<title>Node1&#45;&gt;Node12</title>
<path fill="none" stroke="#63b8ff" d="M972.84,-84.26C1038.66,-76.11 1149.19,-60.96 1243,-41 1249.88,-39.54 1257.08,-37.8 1264.14,-35.98"/>
<polygon fill="#63b8ff" stroke="#63b8ff" points="972.48,-80.78 962.98,-85.47 973.33,-87.72 972.48,-80.78"/>
</g>
<!-- Node13 -->
<g id="node13" class="node">
<title>Node13</title>
<g id="a_node13"><a xlink:href="stpncpy_8c_source.html" target="_top" xlink:title=" ">
<polygon fill="white" stroke="#666666" points="1522,-35.5 1394,-35.5 1394,-5.5 1522,-5.5 1522,-35.5"/>
<text text-anchor="start" x="1402" y="-23.5" font-family="Helvetica,sans-Serif" font-size="10.00">iop/system/sysclib</text>
<text text-anchor="middle" x="1458" y="-12.5" font-family="Helvetica,sans-Serif" font-size="10.00">/src/musl/string/stpncpy.c</text>
</a>
</g>
</g>
<!-- Node1&#45;&gt;Node13 -->
<g id="edge12" class="edge">
<title>Node1&#45;&gt;Node13</title>
<path fill="none" stroke="#63b8ff" d="M972.84,-87.74C1061.95,-82.07 1237.91,-68.3 1385,-41 1392.48,-39.61 1400.32,-37.85 1407.97,-35.96"/>
<polygon fill="#63b8ff" stroke="#63b8ff" points="972.65,-84.25 962.89,-88.36 973.08,-91.23 972.65,-84.25"/>
</g>
<!-- Node14 -->
<g id="node14" class="node">
<title>Node14</title>
<g id="a_node14"><a xlink:href="strchrnul_8c_source.html" target="_top" xlink:title=" ">
<polygon fill="white" stroke="#666666" points="1672,-35.5 1540,-35.5 1540,-5.5 1672,-5.5 1672,-35.5"/>
<text text-anchor="start" x="1548" y="-23.5" font-family="Helvetica,sans-Serif" font-size="10.00">iop/system/sysclib</text>
<text text-anchor="middle" x="1606" y="-12.5" font-family="Helvetica,sans-Serif" font-size="10.00">/src/musl/string/strchrnul.c</text>
</a>
</g>
</g>
<!-- Node1&#45;&gt;Node14 -->
<g id="edge13" class="edge">
<title>Node1&#45;&gt;Node14</title>
<path fill="none" stroke="#63b8ff" d="M972.75,-89.65C1082.31,-86.34 1327.62,-75.43 1531,-41 1538.96,-39.65 1547.31,-37.87 1555.42,-35.92"/>
<polygon fill="#63b8ff" stroke="#63b8ff" points="972.72,-86.15 962.83,-89.93 972.93,-93.14 972.72,-86.15"/>
</g>
<!-- Node15 -->
<g id="node15" class="node">
<title>Node15</title>
<g id="a_node15"><a xlink:href="musl_2string_2strlen_8c_source.html" target="_top" xlink:title=" ">
<polygon fill="white" stroke="#666666" points="1809.5,-35.5 1690.5,-35.5 1690.5,-5.5 1809.5,-5.5 1809.5,-35.5"/>
<text text-anchor="start" x="1698.5" y="-23.5" font-family="Helvetica,sans-Serif" font-size="10.00">iop/system/sysclib</text>
<text text-anchor="middle" x="1750" y="-12.5" font-family="Helvetica,sans-Serif" font-size="10.00">/src/musl/string/strlen.c</text>
</a>
</g>
</g>
<!-- Node1&#45;&gt;Node15 -->
<g id="edge14" class="edge">
<title>Node1&#45;&gt;Node15</title>
<path fill="none" stroke="#63b8ff" d="M972.6,-91.35C1100.85,-91.24 1419.26,-86.01 1681,-41 1688.48,-39.71 1696.32,-37.93 1703.91,-35.97"/>
<polygon fill="#63b8ff" stroke="#63b8ff" points="972.67,-87.85 962.67,-91.35 972.67,-94.85 972.67,-87.85"/>
</g>
<!-- Node16 -->
<g id="node16" class="node">
<title>Node16</title>
<g id="a_node16"><a xlink:href="usb_2usbhdfsd_2src_2fat__driver_8c_source.html" target="_top" xlink:title=" ">
<polygon fill="white" stroke="#666666" points="1934.5,-35.5 1827.5,-35.5 1827.5,-5.5 1934.5,-5.5 1934.5,-35.5"/>
<text text-anchor="start" x="1835.5" y="-23.5" font-family="Helvetica,sans-Serif" font-size="10.00">iop/usb/usbhdfsd/src</text>
<text text-anchor="middle" x="1881" y="-12.5" font-family="Helvetica,sans-Serif" font-size="10.00">/fat_driver.c</text>
</a>
</g>
</g>
<!-- Node1&#45;&gt;Node16 -->
<g id="edge15" class="edge">
<title>Node1&#45;&gt;Node16</title>
<path fill="none" stroke="#63b8ff" d="M972.59,-89.69C1145.04,-85.48 1655.45,-70.76 1819,-41 1825.88,-39.75 1833.07,-37.96 1840.01,-35.97"/>
<polygon fill="#63b8ff" stroke="#63b8ff" points="972.67,-86.19 962.76,-89.93 972.84,-93.19 972.67,-86.19"/>
</g>
</g>
</svg>
