<?xml version="1.0" encoding="UTF-8" standalone="no"?>
<!DOCTYPE svg PUBLIC "-//W3C//DTD SVG 1.1//EN"
 "http://www.w3.org/Graphics/SVG/1.1/DTD/svg11.dtd">
<!-- Generated by graphviz version 7.0.5 (20221223.1930)
 -->
<!-- Title: ee/kernel/include/loadfile.h Pages: 1 -->
<svg width="553pt" height="93pt"
 viewBox="0.00 0.00 552.50 93.00" xmlns="http://www.w3.org/2000/svg" xmlns:xlink="http://www.w3.org/1999/xlink">
<g id="graph0" class="graph" transform="scale(1 1) rotate(0) translate(4 89)">
<title>ee/kernel/include/loadfile.h</title>
<!-- Node1 -->
<g id="node1" class="node">
<title>Node1</title>
<g id="a_node1"><a xlink:title=" ">
<polygon fill="#999999" stroke="#666666" points="346.5,-85 215.5,-85 215.5,-66 346.5,-66 346.5,-85"/>
<text text-anchor="middle" x="281" y="-73" font-family="Helvetica,sans-Serif" font-size="10.00">ee/kernel/include/loadfile.h</text>
</a>
</g>
</g>
<!-- Node2 -->
<g id="node2" class="node">
<title>Node2</title>
<g id="a_node2"><a xlink:href="loader_8c_source.html" target="_top" xlink:title=" ">
<polygon fill="white" stroke="#666666" points="116,-30 0,-30 0,0 116,0 116,-30"/>
<text text-anchor="start" x="8" y="-18" font-family="Helvetica,sans-Serif" font-size="10.00">ee/elf&#45;loader/src/loader</text>
<text text-anchor="middle" x="58" y="-7" font-family="Helvetica,sans-Serif" font-size="10.00">/src/loader.c</text>
</a>
</g>
</g>
<!-- Node1&#45;&gt;Node2 -->
<g id="edge1" class="edge">
<title>Node1&#45;&gt;Node2</title>
<path fill="none" stroke="#63b8ff" d="M236.14,-62.73C200.65,-53.42 150.94,-40.38 113.04,-30.44"/>
<polygon fill="#63b8ff" stroke="#63b8ff" points="235.11,-66.08 245.67,-65.23 236.88,-59.31 235.11,-66.08"/>
</g>
<!-- Node3 -->
<g id="node3" class="node">
<title>Node3</title>
<g id="a_node3"><a xlink:href="_sif_iop_reboot_buffer_8c.html" target="_top" xlink:title=" ">
<polygon fill="white" stroke="#666666" points="280,-30 134,-30 134,0 280,0 280,-30"/>
<text text-anchor="start" x="142" y="-18" font-family="Helvetica,sans-Serif" font-size="10.00">ee/iopreboot/src/SifIopReboot</text>
<text text-anchor="middle" x="207" y="-7" font-family="Helvetica,sans-Serif" font-size="10.00">Buffer.c</text>
</a>
</g>
</g>
<!-- Node1&#45;&gt;Node3 -->
<g id="edge2" class="edge">
<title>Node1&#45;&gt;Node3</title>
<path fill="none" stroke="#63b8ff" d="M260.8,-58.53C249.7,-49.76 236.04,-38.96 225.27,-30.44"/>
<polygon fill="#63b8ff" stroke="#63b8ff" points="258.56,-61.22 268.57,-64.68 262.9,-55.73 258.56,-61.22"/>
</g>
<!-- Node4 -->
<g id="node4" class="node">
<title>Node4</title>
<g id="a_node4"><a xlink:href="ee_2kernel_2src_2loadfile_8c.html" target="_top" xlink:title=" ">
<polygon fill="white" stroke="#666666" points="411.5,-24.5 298.5,-24.5 298.5,-5.5 411.5,-5.5 411.5,-24.5"/>
<text text-anchor="middle" x="355" y="-12.5" font-family="Helvetica,sans-Serif" font-size="10.00">ee/kernel/src/loadfile.c</text>
</a>
</g>
</g>
<!-- Node1&#45;&gt;Node4 -->
<g id="edge3" class="edge">
<title>Node1&#45;&gt;Node4</title>
<path fill="none" stroke="#63b8ff" d="M300.95,-58.73C314.64,-47.9 332.31,-33.93 343.66,-24.97"/>
<polygon fill="#63b8ff" stroke="#63b8ff" points="299.1,-55.73 293.43,-64.68 303.44,-61.22 299.1,-55.73"/>
</g>
<!-- Node5 -->
<g id="node5" class="node">
<title>Node5</title>
<g id="a_node5"><a xlink:href="libhdd_8c_source.html" target="_top" xlink:title=" ">
<polygon fill="white" stroke="#666666" points="544.5,-24.5 429.5,-24.5 429.5,-5.5 544.5,-5.5 544.5,-24.5"/>
<text text-anchor="middle" x="487" y="-12.5" font-family="Helvetica,sans-Serif" font-size="10.00">ee/rpc/hdd/src/libhdd.c</text>
</a>
</g>
</g>
<!-- Node1&#45;&gt;Node5 -->
<g id="edge4" class="edge">
<title>Node1&#45;&gt;Node5</title>
<path fill="none" stroke="#63b8ff" d="M323.33,-62.48C362.57,-51.34 420.06,-35.01 455.42,-24.97"/>
<polygon fill="#63b8ff" stroke="#63b8ff" points="322.41,-59.1 313.74,-65.2 324.32,-65.84 322.41,-59.1"/>
</g>
</g>
</svg>
