<?xml version="1.0" encoding="UTF-8" standalone="no"?>
<!DOCTYPE svg PUBLIC "-//W3C//DTD SVG 1.1//EN"
 "http://www.w3.org/Graphics/SVG/1.1/DTD/svg11.dtd">
<!-- Generated by graphviz version 7.0.5 (20221223.1930)
 -->
<!-- Title: ee/kernel/include/loadfile.h Pages: 1 -->
<svg width="159pt" height="137pt"
 viewBox="0.00 0.00 159.00 137.00" xmlns="http://www.w3.org/2000/svg" xmlns:xlink="http://www.w3.org/1999/xlink">
<g id="graph0" class="graph" transform="scale(1 1) rotate(0) translate(4 133)">
<title>ee/kernel/include/loadfile.h</title>
<!-- Node1 -->
<g id="node1" class="node">
<title>Node1</title>
<g id="a_node1"><a xlink:title=" ">
<polygon fill="#999999" stroke="#666666" points="131,-129 0,-129 0,-110 131,-110 131,-129"/>
<text text-anchor="middle" x="65.5" y="-117" font-family="Helvetica,sans-Serif" font-size="10.00">ee/kernel/include/loadfile.h</text>
</a>
</g>
</g>
<!-- Node2 -->
<g id="node2" class="node">
<title>Node2</title>
<g id="a_node2"><a xlink:href="tamtypes_8h.html" target="_top" xlink:title=" ">
<polygon fill="white" stroke="#666666" points="97.5,-19 33.5,-19 33.5,0 97.5,0 97.5,-19"/>
<text text-anchor="middle" x="65.5" y="-7" font-family="Helvetica,sans-Serif" font-size="10.00">tamtypes.h</text>
</a>
</g>
</g>
<!-- Node1&#45;&gt;Node2 -->
<g id="edge1" class="edge">
<title>Node1&#45;&gt;Node2</title>
<path fill="none" stroke="#63b8ff" d="M60.45,-109.65C55.77,-100.91 49.16,-87 46.5,-74 43.39,-58.81 48.82,-42.02 54.66,-29.52"/>
<polygon fill="#63b8ff" stroke="#63b8ff" points="57.71,-31.25 59.21,-20.76 51.49,-28.02 57.71,-31.25"/>
</g>
<!-- Node3 -->
<g id="node3" class="node">
<title>Node3</title>
<g id="a_node3"><a xlink:href="loadfile-common_8h.html" target="_top" xlink:title=" ">
<polygon fill="white" stroke="#666666" points="151,-74 56,-74 56,-55 151,-55 151,-74"/>
<text text-anchor="middle" x="103.5" y="-62" font-family="Helvetica,sans-Serif" font-size="10.00">loadfile&#45;common.h</text>
</a>
</g>
</g>
<!-- Node1&#45;&gt;Node3 -->
<g id="edge2" class="edge">
<title>Node1&#45;&gt;Node3</title>
<path fill="none" stroke="#63b8ff" d="M71.77,-109.75C76.86,-102.66 84.2,-92.42 90.53,-83.59"/>
<polygon fill="#63b8ff" stroke="#63b8ff" points="93.22,-85.84 96.21,-75.67 87.54,-81.76 93.22,-85.84"/>
</g>
<!-- Node3&#45;&gt;Node2 -->
<g id="edge3" class="edge">
<title>Node3&#45;&gt;Node2</title>
<path fill="none" stroke="#63b8ff" d="M97.23,-54.75C92.14,-47.66 84.8,-37.42 78.47,-28.59"/>
<polygon fill="#63b8ff" stroke="#63b8ff" points="81.46,-26.76 72.79,-20.67 75.78,-30.84 81.46,-26.76"/>
</g>
</g>
</svg>
