<?xml version="1.0" encoding="UTF-8" standalone="no"?>
<!DOCTYPE svg PUBLIC "-//W3C//DTD SVG 1.1//EN"
 "http://www.w3.org/Graphics/SVG/1.1/DTD/svg11.dtd">
<!-- Generated by graphviz version 7.0.5 (20221223.1930)
 -->
<!-- Title: common/include/loadfile&#45;common.h Pages: 1 -->
<svg width="553pt" height="170pt"
 viewBox="0.00 0.00 552.50 170.00" xmlns="http://www.w3.org/2000/svg" xmlns:xlink="http://www.w3.org/1999/xlink">
<g id="graph0" class="graph" transform="scale(1 1) rotate(0) translate(4 166)">
<title>common/include/loadfile&#45;common.h</title>
<!-- Node1 -->
<g id="node1" class="node">
<title>Node1</title>
<g id="a_node1"><a xlink:title=" ">
<polygon fill="#999999" stroke="#666666" points="407.5,-162 286.5,-162 286.5,-132 407.5,-132 407.5,-162"/>
<text text-anchor="start" x="294.5" y="-150" font-family="Helvetica,sans-Serif" font-size="10.00">common/include/loadfile</text>
<text text-anchor="middle" x="347" y="-139" font-family="Helvetica,sans-Serif" font-size="10.00">&#45;common.h</text>
</a>
</g>
</g>
<!-- Node2 -->
<g id="node2" class="node">
<title>Node2</title>
<g id="a_node2"><a xlink:href="loadfile_8h.html" target="_top" xlink:title=" ">
<polygon fill="white" stroke="#666666" points="346.5,-90.5 215.5,-90.5 215.5,-71.5 346.5,-71.5 346.5,-90.5"/>
<text text-anchor="middle" x="281" y="-78.5" font-family="Helvetica,sans-Serif" font-size="10.00">ee/kernel/include/loadfile.h</text>
</a>
</g>
</g>
<!-- Node1&#45;&gt;Node2 -->
<g id="edge1" class="edge">
<title>Node1&#45;&gt;Node2</title>
<path fill="none" stroke="#63b8ff" d="M324.25,-123.94C312.54,-112.58 298.9,-99.36 290.12,-90.84"/>
<polygon fill="#63b8ff" stroke="#63b8ff" points="321.65,-126.29 331.27,-130.74 326.52,-121.27 321.65,-126.29"/>
</g>
<!-- Node7 -->
<g id="node7" class="node">
<title>Node7</title>
<g id="a_node7"><a xlink:href="iop_2system_2loadfile_2src_2loadfile_8c_source.html" target="_top" xlink:title=" ">
<polygon fill="white" stroke="#666666" points="461.5,-96 364.5,-96 364.5,-66 461.5,-66 461.5,-96"/>
<text text-anchor="start" x="372.5" y="-84" font-family="Helvetica,sans-Serif" font-size="10.00">iop/system/loadfile</text>
<text text-anchor="middle" x="413" y="-73" font-family="Helvetica,sans-Serif" font-size="10.00">/src/loadfile.c</text>
</a>
</g>
</g>
<!-- Node1&#45;&gt;Node7 -->
<g id="edge6" class="edge">
<title>Node1&#45;&gt;Node7</title>
<path fill="none" stroke="#63b8ff" d="M369.89,-123.81C379.34,-114.64 390.03,-104.28 398.39,-96.16"/>
<polygon fill="#63b8ff" stroke="#63b8ff" points="367.48,-121.27 362.73,-130.74 372.35,-126.29 367.48,-121.27"/>
</g>
<!-- Node3 -->
<g id="node3" class="node">
<title>Node3</title>
<g id="a_node3"><a xlink:href="loader_8c_source.html" target="_top" xlink:title=" ">
<polygon fill="white" stroke="#666666" points="116,-30 0,-30 0,0 116,0 116,-30"/>
<text text-anchor="start" x="8" y="-18" font-family="Helvetica,sans-Serif" font-size="10.00">ee/elf&#45;loader/src/loader</text>
<text text-anchor="middle" x="58" y="-7" font-family="Helvetica,sans-Serif" font-size="10.00">/src/loader.c</text>
</a>
</g>
</g>
<!-- Node2&#45;&gt;Node3 -->
<g id="edge2" class="edge">
<title>Node2&#45;&gt;Node3</title>
<path fill="none" stroke="#63b8ff" d="M239.07,-67.97C202.01,-57.33 147.87,-41.79 108.45,-30.48"/>
<polygon fill="#63b8ff" stroke="#63b8ff" points="237.96,-71.29 248.54,-70.68 239.89,-64.56 237.96,-71.29"/>
</g>
<!-- Node4 -->
<g id="node4" class="node">
<title>Node4</title>
<g id="a_node4"><a xlink:href="_sif_iop_reboot_buffer_8c.html" target="_top" xlink:title=" ">
<polygon fill="white" stroke="#666666" points="280,-30 134,-30 134,0 280,0 280,-30"/>
<text text-anchor="start" x="142" y="-18" font-family="Helvetica,sans-Serif" font-size="10.00">ee/iopreboot/src/SifIopReboot</text>
<text text-anchor="middle" x="207" y="-7" font-family="Helvetica,sans-Serif" font-size="10.00">Buffer.c</text>
</a>
</g>
</g>
<!-- Node2&#45;&gt;Node4 -->
<g id="edge3" class="edge">
<title>Node2&#45;&gt;Node4</title>
<path fill="none" stroke="#63b8ff" d="M262.05,-63.62C250.22,-53.38 235.13,-40.33 223.74,-30.48"/>
<polygon fill="#63b8ff" stroke="#63b8ff" points="259.71,-66.22 269.57,-70.11 264.29,-60.92 259.71,-66.22"/>
</g>
<!-- Node5 -->
<g id="node5" class="node">
<title>Node5</title>
<g id="a_node5"><a xlink:href="ee_2kernel_2src_2loadfile_8c.html" target="_top" xlink:title=" ">
<polygon fill="white" stroke="#666666" points="411.5,-24.5 298.5,-24.5 298.5,-5.5 411.5,-5.5 411.5,-24.5"/>
<text text-anchor="middle" x="355" y="-12.5" font-family="Helvetica,sans-Serif" font-size="10.00">ee/kernel/src/loadfile.c</text>
</a>
</g>
</g>
<!-- Node2&#45;&gt;Node5 -->
<g id="edge4" class="edge">
<title>Node2&#45;&gt;Node5</title>
<path fill="none" stroke="#63b8ff" d="M299.86,-63.69C314.15,-51.33 333.24,-34.82 344.8,-24.82"/>
<polygon fill="#63b8ff" stroke="#63b8ff" points="297.71,-60.92 292.43,-70.11 302.29,-66.22 297.71,-60.92"/>
</g>
<!-- Node6 -->
<g id="node6" class="node">
<title>Node6</title>
<g id="a_node6"><a xlink:href="libhdd_8c_source.html" target="_top" xlink:title=" ">
<polygon fill="white" stroke="#666666" points="544.5,-24.5 429.5,-24.5 429.5,-5.5 544.5,-5.5 544.5,-24.5"/>
<text text-anchor="middle" x="487" y="-12.5" font-family="Helvetica,sans-Serif" font-size="10.00">ee/rpc/hdd/src/libhdd.c</text>
</a>
</g>
</g>
<!-- Node2&#45;&gt;Node6 -->
<g id="edge5" class="edge">
<title>Node2&#45;&gt;Node6</title>
<path fill="none" stroke="#63b8ff" d="M320.41,-67.76C360.71,-55.24 422.35,-36.08 458.27,-24.93"/>
<polygon fill="#63b8ff" stroke="#63b8ff" points="319.6,-64.34 311.09,-70.65 321.68,-71.03 319.6,-64.34"/>
</g>
</g>
</svg>
