<?xml version="1.0" encoding="UTF-8" standalone="no"?>
<!DOCTYPE svg PUBLIC "-//W3C//DTD SVG 1.1//EN"
 "http://www.w3.org/Graphics/SVG/1.1/DTD/svg11.dtd">
<!-- Generated by graphviz version 7.0.5 (20221223.1930)
 -->
<!-- Title: ee/math3d/include/math3d.h Pages: 1 -->
<!--zoomable 324 -->
<svg id="main" version="1.1" xmlns="http://www.w3.org/2000/svg" xmlns:xlink="http://www.w3.org/1999/xlink" xml:space="preserve" onload="init(evt)">
<style type="text/css"><![CDATA[
.edge:hover path { stroke: red; }
.edge:hover polygon { stroke: red; fill: red; }
]]></style>
<script type="text/javascript"><![CDATA[
var edges = document.getElementsByTagName('g');
if (edges && edges.length) {
  for (var i=0;i<edges.length;i++) {
    if (edges[i].id.substr(0,4)=='edge') {
      edges[i].setAttribute('class','edge');
    }
  }
}
]]></script>
        <defs>
                <circle id="rim" cx="0" cy="0" r="7"/>
                <circle id="rim2" cx="0" cy="0" r="3.5"/>
                <g id="zoomPlus">
                        <use xlink:href="#rim" fill="#404040">
                                <set attributeName="fill" to="#808080" begin="zoomplus.mouseover" end="zoomplus.mouseout"/>
                        </use>
                        <path d="M-4,0h8M0,-4v8" fill="none" stroke="white" stroke-width="1.5" pointer-events="none"/>
                </g>
                <g id="zoomMin">
                        <use xlink:href="#rim" fill="#404040">
                                <set attributeName="fill" to="#808080" begin="zoomminus.mouseover" end="zoomminus.mouseout"/>
                        </use>
                        <path d="M-4,0h8" fill="none" stroke="white" stroke-width="1.5" pointer-events="none"/>
                </g>
                <g id="dirArrow">
                        <path fill="none" stroke="white" stroke-width="1.5" d="M0,-3.0v7 M-2.5,-0.5L0,-3.0L2.5,-0.5"/>
                </g>
               <g id="resetDef">
                       <use xlink:href="#rim2" fill="#404040">
                               <set attributeName="fill" to="#808080" begin="reset.mouseover" end="reset.mouseout"/>
                       </use>
               </g>
        </defs>

<script type="text/javascript">
var viewWidth = 881;
var viewHeight = 324;
var sectionId = 'dynsection-1';
</script>
<script xlink:href="svgpan.js"/>
<svg id="graph" class="graph">
<g id="viewport">
<title>ee/math3d/include/math3d.h</title>
<!-- Node1 -->
<g id="node1" class="node">
<title>Node1</title>
<g id="a_node1"><a xlink:title=" ">
<polygon fill="#999999" stroke="#666666" points="742,-316 603,-316 603,-297 742,-297 742,-316"/>
<text text-anchor="middle" x="672.5" y="-304" font-family="Helvetica,sans-Serif" font-size="10.00">ee/math3d/include/math3d.h</text>
</a>
</g>
</g>
<!-- Node2 -->
<g id="node2" class="node">
<title>Node2</title>
<g id="a_node2"><a xlink:href="draw__types_8h.html" target="_top" xlink:title=" ">
<polygon fill="white" stroke="#666666" points="660,-261 551,-261 551,-231 660,-231 660,-261"/>
<text text-anchor="start" x="559" y="-249" font-family="Helvetica,sans-Serif" font-size="10.00">ee/draw/include/draw</text>
<text text-anchor="middle" x="605.5" y="-238" font-family="Helvetica,sans-Serif" font-size="10.00">_types.h</text>
</a>
</g>
</g>
<!-- Node1&#45;&gt;Node2 -->
<g id="edge1" class="edge">
<title>Node1&#45;&gt;Node2</title>
<path fill="none" stroke="#63b8ff" d="M653.91,-289.27C643.92,-280.54 631.7,-269.87 622.04,-261.44"/>
<polygon fill="#63b8ff" stroke="#63b8ff" points="651.35,-291.68 661.18,-295.62 655.95,-286.41 651.35,-291.68"/>
</g>
<!-- Node14 -->
<g id="node14" class="node">
<title>Node14</title>
<g id="a_node14"><a xlink:href="math3d_8c_source.html" target="_top" xlink:title=" ">
<polygon fill="white" stroke="#666666" points="800.5,-255.5 678.5,-255.5 678.5,-236.5 800.5,-236.5 800.5,-255.5"/>
<text text-anchor="middle" x="739.5" y="-243.5" font-family="Helvetica,sans-Serif" font-size="10.00">ee/math3d/src/math3d.c</text>
</a>
</g>
</g>
<!-- Node1&#45;&gt;Node14 -->
<g id="edge22" class="edge">
<title>Node1&#45;&gt;Node14</title>
<path fill="none" stroke="#63b8ff" d="M691.28,-289.1C703.57,-278.37 719.16,-264.76 729.23,-255.97"/>
<polygon fill="#63b8ff" stroke="#63b8ff" points="689.05,-286.41 683.82,-295.62 693.65,-291.68 689.05,-286.41"/>
</g>
<!-- Node3 -->
<g id="node3" class="node">
<title>Node3</title>
<g id="a_node3"><a xlink:href="draw_8h.html" target="_top" xlink:title=" ">
<polygon fill="white" stroke="#666666" points="571.5,-134.5 455.5,-134.5 455.5,-115.5 571.5,-115.5 571.5,-134.5"/>
<text text-anchor="middle" x="513.5" y="-122.5" font-family="Helvetica,sans-Serif" font-size="10.00">ee/draw/include/draw.h</text>
</a>
</g>
</g>
<!-- Node2&#45;&gt;Node3 -->
<g id="edge2" class="edge">
<title>Node2&#45;&gt;Node3</title>
<path fill="none" stroke="#63b8ff" d="M565.43,-224.76C553.33,-216.93 541.02,-206.94 532.5,-195 519.23,-176.39 515.22,-148.88 514.01,-134.89"/>
<polygon fill="#63b8ff" stroke="#63b8ff" points="563.35,-227.59 573.72,-229.79 566.99,-221.61 563.35,-227.59"/>
</g>
<!-- Node11 -->
<g id="node11" class="node">
<title>Node11</title>
<g id="a_node11"><a xlink:href="draw2d_8h.html" target="_top" xlink:title=" ">
<polygon fill="white" stroke="#666666" points="669,-195 542,-195 542,-176 669,-176 669,-195"/>
<text text-anchor="middle" x="605.5" y="-183" font-family="Helvetica,sans-Serif" font-size="10.00">ee/draw/include/draw2d.h</text>
</a>
</g>
</g>
<!-- Node2&#45;&gt;Node11 -->
<g id="edge12" class="edge">
<title>Node2&#45;&gt;Node11</title>
<path fill="none" stroke="#63b8ff" d="M605.5,-219.3C605.5,-210.65 605.5,-201.58 605.5,-195.18"/>
<polygon fill="#63b8ff" stroke="#63b8ff" points="602,-219.03 605.5,-229.03 609,-219.03 602,-219.03"/>
</g>
<!-- Node12 -->
<g id="node12" class="node">
<title>Node12</title>
<g id="a_node12"><a xlink:href="draw3d_8h.html" target="_top" xlink:title=" ">
<polygon fill="white" stroke="#666666" points="843,-195 716,-195 716,-176 843,-176 843,-195"/>
<text text-anchor="middle" x="779.5" y="-183" font-family="Helvetica,sans-Serif" font-size="10.00">ee/draw/include/draw3d.h</text>
</a>
</g>
</g>
<!-- Node2&#45;&gt;Node12 -->
<g id="edge16" class="edge">
<title>Node2&#45;&gt;Node12</title>
<path fill="none" stroke="#63b8ff" d="M659.2,-226.94C690.31,-216.49 728.11,-203.78 752.93,-195.43"/>
<polygon fill="#63b8ff" stroke="#63b8ff" points="658.31,-223.55 649.95,-230.06 660.54,-230.19 658.31,-223.55"/>
</g>
<!-- Node4 -->
<g id="node4" class="node">
<title>Node4</title>
<g id="a_node4"><a xlink:href="draw_2src_2draw_8c_source.html" target="_top" xlink:title=" ">
<polygon fill="white" stroke="#666666" points="99,-74 0,-74 0,-55 99,-55 99,-74"/>
<text text-anchor="middle" x="49.5" y="-62" font-family="Helvetica,sans-Serif" font-size="10.00">ee/draw/src/draw.c</text>
</a>
</g>
</g>
<!-- Node3&#45;&gt;Node4 -->
<g id="edge3" class="edge">
<title>Node3&#45;&gt;Node4</title>
<path fill="none" stroke="#63b8ff" d="M443.82,-115.45C363.99,-105.63 229.27,-88.92 113.5,-74 108.94,-73.41 104.2,-72.8 99.46,-72.17"/>
<polygon fill="#63b8ff" stroke="#63b8ff" points="443.33,-118.92 453.69,-116.67 444.19,-111.97 443.33,-118.92"/>
</g>
<!-- Node5 -->
<g id="node5" class="node">
<title>Node5</title>
<g id="a_node5"><a xlink:href="draw2d_8c_source.html" target="_top" xlink:title=" ">
<polygon fill="white" stroke="#666666" points="733.5,-74 623.5,-74 623.5,-55 733.5,-55 733.5,-74"/>
<text text-anchor="middle" x="678.5" y="-62" font-family="Helvetica,sans-Serif" font-size="10.00">ee/draw/src/draw2d.c</text>
</a>
</g>
</g>
<!-- Node3&#45;&gt;Node5 -->
<g id="edge4" class="edge">
<title>Node3&#45;&gt;Node5</title>
<path fill="none" stroke="#63b8ff" d="M549.04,-111.4C580.41,-100.28 625.37,-84.34 653.2,-74.47"/>
<polygon fill="#63b8ff" stroke="#63b8ff" points="548.24,-107.97 539.99,-114.61 550.58,-114.57 548.24,-107.97"/>
</g>
<!-- Node6 -->
<g id="node6" class="node">
<title>Node6</title>
<g id="a_node6"><a xlink:href="draw3d_8c_source.html" target="_top" xlink:title=" ">
<polygon fill="white" stroke="#666666" points="265.5,-74 155.5,-74 155.5,-55 265.5,-55 265.5,-74"/>
<text text-anchor="middle" x="210.5" y="-62" font-family="Helvetica,sans-Serif" font-size="10.00">ee/draw/src/draw3d.c</text>
</a>
</g>
</g>
<!-- Node3&#45;&gt;Node6 -->
<g id="edge5" class="edge">
<title>Node3&#45;&gt;Node6</title>
<path fill="none" stroke="#63b8ff" d="M456.03,-112.91C398.35,-101.77 310.58,-84.82 257.09,-74.5"/>
<polygon fill="#63b8ff" stroke="#63b8ff" points="455.18,-116.31 465.66,-114.76 456.51,-109.43 455.18,-116.31"/>
</g>
<!-- Node7 -->
<g id="node7" class="node">
<title>Node7</title>
<g id="a_node7"><a xlink:href="draw__environment_8c_source.html" target="_top" xlink:title=" ">
<polygon fill="white" stroke="#666666" points="441.5,-74 283.5,-74 283.5,-55 441.5,-55 441.5,-74"/>
<text text-anchor="middle" x="362.5" y="-62" font-family="Helvetica,sans-Serif" font-size="10.00">ee/draw/src/draw_environment.c</text>
</a>
</g>
</g>
<!-- Node3&#45;&gt;Node7 -->
<g id="edge6" class="edge">
<title>Node3&#45;&gt;Node7</title>
<path fill="none" stroke="#63b8ff" d="M479.84,-110.96C451.19,-99.86 410.79,-84.21 385.65,-74.47"/>
<polygon fill="#63b8ff" stroke="#63b8ff" points="478.57,-114.22 489.16,-114.57 481.09,-107.69 478.57,-114.22"/>
</g>
<!-- Node8 -->
<g id="node8" class="node">
<title>Node8</title>
<g id="a_node8"><a xlink:href="font_8h.html" target="_top" xlink:title=" ">
<polygon fill="white" stroke="#666666" points="567,-74 460,-74 460,-55 567,-55 567,-74"/>
<text text-anchor="middle" x="513.5" y="-62" font-family="Helvetica,sans-Serif" font-size="10.00">ee/font/include/font.h</text>
</a>
</g>
</g>
<!-- Node3&#45;&gt;Node8 -->
<g id="edge7" class="edge">
<title>Node3&#45;&gt;Node8</title>
<path fill="none" stroke="#63b8ff" d="M513.5,-104.16C513.5,-93.95 513.5,-82.04 513.5,-74.17"/>
<polygon fill="#63b8ff" stroke="#63b8ff" points="510,-103.85 513.5,-113.85 517,-103.85 510,-103.85"/>
</g>
<!-- Node9 -->
<g id="node9" class="node">
<title>Node9</title>
<g id="a_node9"><a xlink:href="fontx_8c_source.html" target="_top" xlink:title=" ">
<polygon fill="white" stroke="#666666" points="659,-19 564,-19 564,0 659,0 659,-19"/>
<text text-anchor="middle" x="611.5" y="-7" font-family="Helvetica,sans-Serif" font-size="10.00">ee/font/src/fontx.c</text>
</a>
</g>
</g>
<!-- Node3&#45;&gt;Node9 -->
<g id="edge10" class="edge">
<title>Node3&#45;&gt;Node9</title>
<path fill="none" stroke="#63b8ff" d="M536.66,-108.57C549.16,-99.5 564.27,-87.22 575.5,-74 590.26,-56.61 602.06,-32.28 607.77,-19.37"/>
<polygon fill="#63b8ff" stroke="#63b8ff" points="534.74,-105.64 528.57,-114.25 538.76,-111.37 534.74,-105.64"/>
</g>
<!-- Node10 -->
<g id="node10" class="node">
<title>Node10</title>
<g id="a_node10"><a xlink:href="fsfont_8c_source.html" target="_top" xlink:title=" ">
<polygon fill="white" stroke="#666666" points="545.5,-19 447.5,-19 447.5,0 545.5,0 545.5,-19"/>
<text text-anchor="middle" x="496.5" y="-7" font-family="Helvetica,sans-Serif" font-size="10.00">ee/font/src/fsfont.c</text>
</a>
</g>
</g>
<!-- Node3&#45;&gt;Node10 -->
<g id="edge11" class="edge">
<title>Node3&#45;&gt;Node10</title>
<path fill="none" stroke="#63b8ff" d="M444.03,-119.41C343.09,-112.01 165.74,-96.04 146.5,-74 105.94,-27.54 341.76,-14.92 447.36,-11.62"/>
<polygon fill="#63b8ff" stroke="#63b8ff" points="443.61,-122.88 453.84,-120.11 444.12,-115.9 443.61,-122.88"/>
</g>
<!-- Node8&#45;&gt;Node9 -->
<g id="edge8" class="edge">
<title>Node8&#45;&gt;Node9</title>
<path fill="none" stroke="#63b8ff" d="M539.82,-49.27C557.42,-39.74 580.05,-27.51 595.12,-19.36"/>
<polygon fill="#63b8ff" stroke="#63b8ff" points="538.59,-45.95 531.46,-53.79 541.92,-52.11 538.59,-45.95"/>
</g>
<!-- Node8&#45;&gt;Node10 -->
<g id="edge9" class="edge">
<title>Node8&#45;&gt;Node10</title>
<path fill="none" stroke="#63b8ff" d="M507.22,-43.93C504.53,-35.53 501.51,-26.13 499.37,-19.44"/>
<polygon fill="#63b8ff" stroke="#63b8ff" points="503.84,-44.85 510.23,-53.31 510.51,-42.72 503.84,-44.85"/>
</g>
<!-- Node11&#45;&gt;Node3 -->
<g id="edge13" class="edge">
<title>Node11&#45;&gt;Node3</title>
<path fill="none" stroke="#63b8ff" d="M582.15,-169.66C564.95,-158.72 542.11,-144.19 527.6,-134.97"/>
<polygon fill="#63b8ff" stroke="#63b8ff" points="579.93,-172.39 590.25,-174.8 583.69,-166.48 579.93,-172.39"/>
</g>
<!-- Node11&#45;&gt;Node4 -->
<g id="edge14" class="edge">
<title>Node11&#45;&gt;Node4</title>
<path fill="none" stroke="#63b8ff" d="M552.57,-173.17C442.56,-149.63 191.14,-95.82 91.4,-74.47"/>
<polygon fill="#63b8ff" stroke="#63b8ff" points="551.72,-176.57 562.23,-175.24 553.18,-169.72 551.72,-176.57"/>
</g>
<!-- Node11&#45;&gt;Node5 -->
<g id="edge15" class="edge">
<title>Node11&#45;&gt;Node5</title>
<path fill="none" stroke="#63b8ff" d="M616.8,-166.09C632.77,-140.05 661.33,-93.5 673.15,-74.22"/>
<polygon fill="#63b8ff" stroke="#63b8ff" points="614.02,-163.91 611.78,-174.27 619.99,-167.57 614.02,-163.91"/>
</g>
<!-- Node12&#45;&gt;Node3 -->
<g id="edge17" class="edge">
<title>Node12&#45;&gt;Node3</title>
<path fill="none" stroke="#63b8ff" d="M727.76,-173.12C677.03,-161.97 600.73,-145.18 554.18,-134.95"/>
<polygon fill="#63b8ff" stroke="#63b8ff" points="726.81,-176.5 737.33,-175.23 728.32,-169.66 726.81,-176.5"/>
</g>
<!-- Node12&#45;&gt;Node5 -->
<g id="edge18" class="edge">
<title>Node12&#45;&gt;Node5</title>
<path fill="none" stroke="#63b8ff" d="M816.58,-170.74C830.07,-163.72 843.86,-153.71 851.5,-140 857.99,-128.35 859.67,-120.54 851.5,-110 837.06,-91.37 778.78,-79.18 733.81,-72.34"/>
<polygon fill="#63b8ff" stroke="#63b8ff" points="815.35,-167.45 807.81,-174.88 818.34,-173.78 815.35,-167.45"/>
</g>
<!-- Node12&#45;&gt;Node9 -->
<g id="edge19" class="edge">
<title>Node12&#45;&gt;Node9</title>
<path fill="none" stroke="#63b8ff" d="M827.37,-171.46C842.91,-164.71 858.47,-154.69 867.5,-140 874.48,-128.64 874.08,-121.6 867.5,-110 826.21,-37.21 721.22,-17.46 659.27,-12.24"/>
<polygon fill="#63b8ff" stroke="#63b8ff" points="826.15,-168.18 818.1,-175.08 828.69,-174.7 826.15,-168.18"/>
</g>
<!-- Node12&#45;&gt;Node10 -->
<g id="edge20" class="edge">
<title>Node12&#45;&gt;Node10</title>
<path fill="none" stroke="#63b8ff" d="M757.63,-168.65C749.02,-161.06 740.1,-151.19 735.5,-140 724.29,-112.72 739.67,-103.36 742.5,-74 743.31,-65.59 747.91,-61.48 742.5,-55 736.2,-47.46 615.84,-28.34 545.85,-17.78"/>
<polygon fill="#63b8ff" stroke="#63b8ff" points="755.16,-171.15 765.13,-174.73 759.57,-165.71 755.16,-171.15"/>
</g>
<!-- Node13 -->
<g id="node13" class="node">
<title>Node13</title>
<g id="a_node13"><a xlink:href="packet2__utils_8h_source.html" target="_top" xlink:title=" ">
<polygon fill="white" stroke="#666666" points="842.5,-140 744.5,-140 744.5,-110 842.5,-110 842.5,-140"/>
<text text-anchor="start" x="752.5" y="-128" font-family="Helvetica,sans-Serif" font-size="10.00">ee/packet2/include</text>
<text text-anchor="middle" x="793.5" y="-117" font-family="Helvetica,sans-Serif" font-size="10.00">/packet2_utils.h</text>
</a>
</g>
</g>
<!-- Node12&#45;&gt;Node13 -->
<g id="edge21" class="edge">
<title>Node12&#45;&gt;Node13</title>
<path fill="none" stroke="#63b8ff" d="M784.21,-164.8C786.15,-156.71 788.35,-147.52 790.12,-140.11"/>
<polygon fill="#63b8ff" stroke="#63b8ff" points="780.84,-163.86 781.92,-174.4 787.65,-165.49 780.84,-163.86"/>
</g>
</g>
</svg>
        <g id="navigator" transform="translate(0 0)" fill="#404254">
                <rect fill="#f2f5e9" fill-opacity="0.5" stroke="#606060" stroke-width=".5" x="0" y="0" width="60" height="60"/>
                <use id="zoomplus" xlink:href="#zoomPlus" x="17" y="9" onmousedown="handleZoom(evt,'in')"/>
                <use id="zoomminus" xlink:href="#zoomMin" x="42" y="9" onmousedown="handleZoom(evt,'out')"/>
                <use id="reset" xlink:href="#resetDef" x="30" y="36" onmousedown="handleReset()"/>
                <g id="arrowUp" xlink:href="#dirArrow" transform="translate(30 24)" onmousedown="handlePan(0,-1)">
                  <use xlink:href="#rim" fill="#404040">
                        <set attributeName="fill" to="#808080" begin="arrowUp.mouseover" end="arrowUp.mouseout"/>
                  </use>
                  <path fill="none" stroke="white" stroke-width="1.5" d="M0,-3.0v7 M-2.5,-0.5L0,-3.0L2.5,-0.5"/>
                </g>
                <g id="arrowRight" xlink:href="#dirArrow" transform="rotate(90) translate(36 -43)" onmousedown="handlePan(1,0)">
                  <use xlink:href="#rim" fill="#404040">
                        <set attributeName="fill" to="#808080" begin="arrowRight.mouseover" end="arrowRight.mouseout"/>
                  </use>
                  <path fill="none" stroke="white" stroke-width="1.5" d="M0,-3.0v7 M-2.5,-0.5L0,-3.0L2.5,-0.5"/>
                </g>
                <g id="arrowDown" xlink:href="#dirArrow" transform="rotate(180) translate(-30 -48)" onmousedown="handlePan(0,1)">
                  <use xlink:href="#rim" fill="#404040">
                        <set attributeName="fill" to="#808080" begin="arrowDown.mouseover" end="arrowDown.mouseout"/>
                  </use>
                  <path fill="none" stroke="white" stroke-width="1.5" d="M0,-3.0v7 M-2.5,-0.5L0,-3.0L2.5,-0.5"/>
                </g>
                <g id="arrowLeft" xlink:href="#dirArrow" transform="rotate(270) translate(-36 17)" onmousedown="handlePan(-1,0)">
                  <use xlink:href="#rim" fill="#404040">
                        <set attributeName="fill" to="#808080" begin="arrowLeft.mouseover" end="arrowLeft.mouseout"/>
                  </use>
                  <path fill="none" stroke="white" stroke-width="1.5" d="M0,-3.0v7 M-2.5,-0.5L0,-3.0L2.5,-0.5"/>
                </g>
        </g>
        <svg viewBox="0 0 15 15" width="100%" height="30px" preserveAspectRatio="xMaxYMin meet">
         <g id="arrow_out" transform="scale(0.3 0.3)">
          <a xlink:href="math3d_8h__dep__incl_org.svg" target="_base">
           <rect id="button" ry="5" rx="5" y="6" x="6" height="38" width="38"
                fill="#f2f5e9" fill-opacity="0.5" stroke="#606060" stroke-width="1.0"/>
           <path id="arrow"
             d="M 11.500037,31.436501 C 11.940474,20.09759 22.043105,11.32322 32.158766,21.979434 L 37.068811,17.246167 C 37.068811,17.246167 37.088388,32 37.088388,32 L 22.160133,31.978069 C 22.160133,31.978069 26.997745,27.140456 26.997745,27.140456 C 18.528582,18.264221 13.291696,25.230495 11.500037,31.436501 z"
             style="fill:#404040;"/>
          </a>
         </g>
        </svg>
</svg>
