<?xml version="1.0" encoding="UTF-8" standalone="no"?>
<!DOCTYPE svg PUBLIC "-//W3C//DTD SVG 1.1//EN"
 "http://www.w3.org/Graphics/SVG/1.1/DTD/svg11.dtd">
<!-- Generated by graphviz version 7.0.5 (20221223.1930)
 -->
<!-- Title: iop/memorycard/mcman/include/mcman.h Pages: 1 -->
<svg width="963pt" height="170pt"
 viewBox="0.00 0.00 963.00 170.00" xmlns="http://www.w3.org/2000/svg" xmlns:xlink="http://www.w3.org/1999/xlink">
<g id="graph0" class="graph" transform="scale(1 1) rotate(0) translate(4 166)">
<title>iop/memorycard/mcman/include/mcman.h</title>
<!-- Node1 -->
<g id="node1" class="node">
<title>Node1</title>
<g id="a_node1"><a xlink:title=" ">
<polygon fill="#999999" stroke="#666666" points="538,-162 417,-162 417,-132 538,-132 538,-162"/>
<text text-anchor="start" x="425" y="-150" font-family="Helvetica,sans-Serif" font-size="10.00">iop/memorycard/mcman</text>
<text text-anchor="middle" x="477.5" y="-139" font-family="Helvetica,sans-Serif" font-size="10.00">/include/mcman.h</text>
</a>
</g>
</g>
<!-- Node2 -->
<g id="node2" class="node">
<title>Node2</title>
<g id="a_node2"><a xlink:href="iop_2memorycard_2mcman_2src_2main_8c_source.html" target="_top" xlink:title=" ">
<polygon fill="white" stroke="#666666" points="121,-96 0,-96 0,-66 121,-66 121,-96"/>
<text text-anchor="start" x="8" y="-84" font-family="Helvetica,sans-Serif" font-size="10.00">iop/memorycard/mcman</text>
<text text-anchor="middle" x="60.5" y="-73" font-family="Helvetica,sans-Serif" font-size="10.00">/src/main.c</text>
</a>
</g>
</g>
<!-- Node1&#45;&gt;Node2 -->
<g id="edge1" class="edge">
<title>Node1&#45;&gt;Node2</title>
<path fill="none" stroke="#63b8ff" d="M405.17,-136.74C334.85,-127.47 225.11,-112.26 130.5,-96 127.45,-95.48 124.32,-94.92 121.17,-94.34"/>
<polygon fill="#63b8ff" stroke="#63b8ff" points="404.67,-140.21 415.04,-138.04 405.58,-133.27 404.67,-140.21"/>
</g>
<!-- Node3 -->
<g id="node3" class="node">
<title>Node3</title>
<g id="a_node3"><a xlink:href="mcdev_8c_source.html" target="_top" xlink:title=" ">
<polygon fill="white" stroke="#666666" points="260,-96 139,-96 139,-66 260,-66 260,-96"/>
<text text-anchor="start" x="147" y="-84" font-family="Helvetica,sans-Serif" font-size="10.00">iop/memorycard/mcman</text>
<text text-anchor="middle" x="199.5" y="-73" font-family="Helvetica,sans-Serif" font-size="10.00">/src/mcdev.c</text>
</a>
</g>
</g>
<!-- Node1&#45;&gt;Node3 -->
<g id="edge2" class="edge">
<title>Node1&#45;&gt;Node3</title>
<path fill="none" stroke="#63b8ff" d="M405.64,-129.46C360.47,-119.06 302.86,-105.8 260.04,-95.94"/>
<polygon fill="#63b8ff" stroke="#63b8ff" points="404.83,-132.86 415.36,-131.69 406.4,-126.04 404.83,-132.86"/>
</g>
<!-- Node4 -->
<g id="node4" class="node">
<title>Node4</title>
<g id="a_node4"><a xlink:href="mcsio2_8c_source.html" target="_top" xlink:title=" ">
<polygon fill="white" stroke="#666666" points="399,-96 278,-96 278,-66 399,-66 399,-96"/>
<text text-anchor="start" x="286" y="-84" font-family="Helvetica,sans-Serif" font-size="10.00">iop/memorycard/mcman</text>
<text text-anchor="middle" x="338.5" y="-73" font-family="Helvetica,sans-Serif" font-size="10.00">/src/mcsio2.c</text>
</a>
</g>
</g>
<!-- Node1&#45;&gt;Node4 -->
<g id="edge3" class="edge">
<title>Node1&#45;&gt;Node4</title>
<path fill="none" stroke="#63b8ff" d="M435.92,-126.86C414.63,-117.05 389.15,-105.32 369.59,-96.31"/>
<polygon fill="#63b8ff" stroke="#63b8ff" points="434.38,-130 444.93,-131 437.31,-123.64 434.38,-130"/>
</g>
<!-- Node5 -->
<g id="node5" class="node">
<title>Node5</title>
<g id="a_node5"><a xlink:href="ps1mc__fio_8c_source.html" target="_top" xlink:title=" ">
<polygon fill="white" stroke="#666666" points="538,-96 417,-96 417,-66 538,-66 538,-96"/>
<text text-anchor="start" x="425" y="-84" font-family="Helvetica,sans-Serif" font-size="10.00">iop/memorycard/mcman</text>
<text text-anchor="middle" x="477.5" y="-73" font-family="Helvetica,sans-Serif" font-size="10.00">/src/ps1mc_fio.c</text>
</a>
</g>
</g>
<!-- Node1&#45;&gt;Node5 -->
<g id="edge4" class="edge">
<title>Node1&#45;&gt;Node5</title>
<path fill="none" stroke="#63b8ff" d="M477.5,-120.39C477.5,-112.13 477.5,-103.28 477.5,-96.16"/>
<polygon fill="#63b8ff" stroke="#63b8ff" points="474,-120.28 477.5,-130.28 481,-120.28 474,-120.28"/>
</g>
<!-- Node6 -->
<g id="node6" class="node">
<title>Node6</title>
<g id="a_node6"><a xlink:href="ps2mc__fio_8c_source.html" target="_top" xlink:title=" ">
<polygon fill="white" stroke="#666666" points="677,-96 556,-96 556,-66 677,-66 677,-96"/>
<text text-anchor="start" x="564" y="-84" font-family="Helvetica,sans-Serif" font-size="10.00">iop/memorycard/mcman</text>
<text text-anchor="middle" x="616.5" y="-73" font-family="Helvetica,sans-Serif" font-size="10.00">/src/ps2mc_fio.c</text>
</a>
</g>
</g>
<!-- Node1&#45;&gt;Node6 -->
<g id="edge5" class="edge">
<title>Node1&#45;&gt;Node6</title>
<path fill="none" stroke="#63b8ff" d="M519.08,-126.86C540.37,-117.05 565.85,-105.32 585.41,-96.31"/>
<polygon fill="#63b8ff" stroke="#63b8ff" points="517.69,-123.64 510.07,-131 520.62,-130 517.69,-123.64"/>
</g>
<!-- Node7 -->
<g id="node7" class="node">
<title>Node7</title>
<g id="a_node7"><a xlink:href="iop_2memorycard_2mcserv_2src_2irx__imports_8h_source.html" target="_top" xlink:title=" ">
<polygon fill="white" stroke="#666666" points="816,-96 695,-96 695,-66 816,-66 816,-96"/>
<text text-anchor="start" x="703" y="-84" font-family="Helvetica,sans-Serif" font-size="10.00">iop/memorycard/mcserv</text>
<text text-anchor="middle" x="755.5" y="-73" font-family="Helvetica,sans-Serif" font-size="10.00">/src/irx_imports.h</text>
</a>
</g>
</g>
<!-- Node1&#45;&gt;Node7 -->
<g id="edge6" class="edge">
<title>Node1&#45;&gt;Node7</title>
<path fill="none" stroke="#63b8ff" d="M549.36,-129.46C594.53,-119.06 652.14,-105.8 694.96,-95.94"/>
<polygon fill="#63b8ff" stroke="#63b8ff" points="548.6,-126.04 539.64,-131.69 550.17,-132.86 548.6,-126.04"/>
</g>
<!-- Node8 -->
<g id="node8" class="node">
<title>Node8</title>
<g id="a_node8"><a xlink:href="mcserv_8h_source.html" target="_top" xlink:title=" ">
<polygon fill="white" stroke="#666666" points="955,-96 834,-96 834,-66 955,-66 955,-96"/>
<text text-anchor="start" x="842" y="-84" font-family="Helvetica,sans-Serif" font-size="10.00">iop/memorycard/mcserv</text>
<text text-anchor="middle" x="894.5" y="-73" font-family="Helvetica,sans-Serif" font-size="10.00">/src/mcserv.h</text>
</a>
</g>
</g>
<!-- Node1&#45;&gt;Node8 -->
<g id="edge7" class="edge">
<title>Node1&#45;&gt;Node8</title>
<path fill="none" stroke="#63b8ff" d="M549.73,-136.85C620.25,-127.63 730.5,-112.45 825.5,-96 828.15,-95.54 830.85,-95.06 833.58,-94.56"/>
<polygon fill="#63b8ff" stroke="#63b8ff" points="549.3,-133.38 539.83,-138.14 550.2,-140.32 549.3,-133.38"/>
</g>
<!-- Node9 -->
<g id="node9" class="node">
<title>Node9</title>
<g id="a_node9"><a xlink:href="mcserv_8c_source.html" target="_top" xlink:title=" ">
<polygon fill="white" stroke="#666666" points="955,-30 834,-30 834,0 955,0 955,-30"/>
<text text-anchor="start" x="842" y="-18" font-family="Helvetica,sans-Serif" font-size="10.00">iop/memorycard/mcserv</text>
<text text-anchor="middle" x="894.5" y="-7" font-family="Helvetica,sans-Serif" font-size="10.00">/src/mcserv.c</text>
</a>
</g>
</g>
<!-- Node8&#45;&gt;Node9 -->
<g id="edge8" class="edge">
<title>Node8&#45;&gt;Node9</title>
<path fill="none" stroke="#63b8ff" d="M894.5,-54.39C894.5,-46.13 894.5,-37.28 894.5,-30.16"/>
<polygon fill="#63b8ff" stroke="#63b8ff" points="891,-54.28 894.5,-64.28 898,-54.28 891,-54.28"/>
</g>
</g>
</svg>
