<?xml version="1.0" encoding="UTF-8" standalone="no"?>
<!DOCTYPE svg PUBLIC "-//W3C//DTD SVG 1.1//EN"
 "http://www.w3.org/Graphics/SVG/1.1/DTD/svg11.dtd">
<!-- Generated by graphviz version 7.0.5 (20221223.1930)
 -->
<!-- Title: iop/usb/usbd/src/mem.c Pages: 1 -->
<svg width="199pt" height="357pt"
 viewBox="0.00 0.00 199.00 357.00" xmlns="http://www.w3.org/2000/svg" xmlns:xlink="http://www.w3.org/1999/xlink">
<g id="graph0" class="graph" transform="scale(1 1) rotate(0) translate(4 353)">
<title>iop/usb/usbd/src/mem.c</title>
<!-- Node1 -->
<g id="node1" class="node">
<title>Node1</title>
<g id="a_node1"><a xlink:title=" ">
<polygon fill="#999999" stroke="#666666" points="141,-349 20,-349 20,-330 141,-330 141,-349"/>
<text text-anchor="middle" x="80.5" y="-337" font-family="Helvetica,sans-Serif" font-size="10.00">iop/usb/usbd/src/mem.c</text>
</a>
</g>
</g>
<!-- Node2 -->
<g id="node2" class="node">
<title>Node2</title>
<g id="a_node2"><a xlink:href="usbdpriv_8h.html" target="_top" xlink:title=" ">
<polygon fill="white" stroke="#666666" points="61,-239 0,-239 0,-220 61,-220 61,-239"/>
<text text-anchor="middle" x="30.5" y="-227" font-family="Helvetica,sans-Serif" font-size="10.00">usbdpriv.h</text>
</a>
</g>
</g>
<!-- Node1&#45;&gt;Node2 -->
<g id="edge1" class="edge">
<title>Node1&#45;&gt;Node2</title>
<path fill="none" stroke="#63b8ff" d="M72.62,-329.55C65.43,-320.97 54.95,-307.37 48.5,-294 41.85,-280.22 37.24,-263.55 34.35,-250.74"/>
<polygon fill="#63b8ff" stroke="#63b8ff" points="37.78,-250.05 32.33,-240.96 30.93,-251.46 37.78,-250.05"/>
</g>
<!-- Node9 -->
<g id="node9" class="node">
<title>Node9</title>
<g id="a_node9"><a xlink:href="mem_8h.html" target="_top" xlink:title=" ">
<polygon fill="white" stroke="#666666" points="103.5,-294 57.5,-294 57.5,-275 103.5,-275 103.5,-294"/>
<text text-anchor="middle" x="80.5" y="-282" font-family="Helvetica,sans-Serif" font-size="10.00">mem.h</text>
</a>
</g>
</g>
<!-- Node1&#45;&gt;Node9 -->
<g id="edge9" class="edge">
<title>Node1&#45;&gt;Node9</title>
<path fill="none" stroke="#63b8ff" d="M80.5,-329.75C80.5,-323.27 80.5,-314.16 80.5,-305.9"/>
<polygon fill="#63b8ff" stroke="#63b8ff" points="84,-305.96 80.5,-295.96 77,-305.96 84,-305.96"/>
</g>
<!-- Node10 -->
<g id="node10" class="node">
<title>Node10</title>
<g id="a_node10"><a xlink:href="stdio_8h.html" target="_top" xlink:title=" ">
<polygon fill="white" stroke="#666666" points="167,-294 122,-294 122,-275 167,-275 167,-294"/>
<text text-anchor="middle" x="144.5" y="-282" font-family="Helvetica,sans-Serif" font-size="10.00">stdio.h</text>
</a>
</g>
</g>
<!-- Node1&#45;&gt;Node10 -->
<g id="edge11" class="edge">
<title>Node1&#45;&gt;Node10</title>
<path fill="none" stroke="#63b8ff" d="M91.36,-329.51C100.61,-321.85 114.12,-310.66 125.21,-301.47"/>
<polygon fill="#63b8ff" stroke="#63b8ff" points="127.17,-304.4 132.64,-295.32 122.7,-299.01 127.17,-304.4"/>
</g>
<!-- Node3 -->
<g id="node3" class="node">
<title>Node3</title>
<g id="a_node3"><a xlink:href="usbd_8h.html" target="_top" xlink:title=" ">
<polygon fill="white" stroke="#666666" points="83,-184 38,-184 38,-165 83,-165 83,-184"/>
<text text-anchor="middle" x="60.5" y="-172" font-family="Helvetica,sans-Serif" font-size="10.00">usbd.h</text>
</a>
</g>
</g>
<!-- Node2&#45;&gt;Node3 -->
<g id="edge2" class="edge">
<title>Node2&#45;&gt;Node3</title>
<path fill="none" stroke="#63b8ff" d="M35.45,-219.75C39.34,-212.88 44.89,-203.08 49.78,-194.45"/>
<polygon fill="#63b8ff" stroke="#63b8ff" points="52.81,-196.19 54.69,-185.76 46.72,-192.74 52.81,-196.19"/>
</g>
<!-- Node4 -->
<g id="node4" class="node">
<title>Node4</title>
<g id="a_node4"><a xlink:title=" ">
<polygon fill="#e0e0e0" stroke="#999999" points="54,-129 7,-129 7,-110 54,-110 54,-129"/>
<text text-anchor="middle" x="30.5" y="-117" font-family="Helvetica,sans-Serif" font-size="10.00">types.h</text>
</a>
</g>
</g>
<!-- Node2&#45;&gt;Node4 -->
<g id="edge8" class="edge">
<title>Node2&#45;&gt;Node4</title>
<path fill="none" stroke="#63b8ff" d="M29.98,-219.64C29.49,-210.66 28.78,-196.37 28.5,-184 28.17,-169.43 28.72,-152.99 29.32,-140.49"/>
<polygon fill="#63b8ff" stroke="#63b8ff" points="32.81,-140.81 29.85,-130.64 25.82,-140.43 32.81,-140.81"/>
</g>
<!-- Node3&#45;&gt;Node4 -->
<g id="edge3" class="edge">
<title>Node3&#45;&gt;Node4</title>
<path fill="none" stroke="#63b8ff" d="M55.55,-164.75C51.66,-157.88 46.11,-148.08 41.22,-139.45"/>
<polygon fill="#63b8ff" stroke="#63b8ff" points="44.28,-137.74 36.31,-130.76 38.19,-141.19 44.28,-137.74"/>
</g>
<!-- Node5 -->
<g id="node5" class="node">
<title>Node5</title>
<g id="a_node5"><a xlink:href="irx_8h.html" target="_top" xlink:title=" ">
<polygon fill="white" stroke="#666666" points="117.5,-129 83.5,-129 83.5,-110 117.5,-110 117.5,-129"/>
<text text-anchor="middle" x="100.5" y="-117" font-family="Helvetica,sans-Serif" font-size="10.00">irx.h</text>
</a>
</g>
</g>
<!-- Node3&#45;&gt;Node5 -->
<g id="edge4" class="edge">
<title>Node3&#45;&gt;Node5</title>
<path fill="none" stroke="#63b8ff" d="M67.11,-164.75C72.46,-157.66 80.18,-147.42 86.85,-138.59"/>
<polygon fill="#63b8ff" stroke="#63b8ff" points="89.61,-140.74 92.84,-130.65 84.02,-136.52 89.61,-140.74"/>
</g>
<!-- Node6 -->
<g id="node6" class="node">
<title>Node6</title>
<g id="a_node6"><a xlink:href="iop_2kernel_2include_2types_8h_source.html" target="_top" xlink:title=" ">
<polygon fill="white" stroke="#666666" points="124,-74 77,-74 77,-55 124,-55 124,-74"/>
<text text-anchor="middle" x="100.5" y="-62" font-family="Helvetica,sans-Serif" font-size="10.00">types.h</text>
</a>
</g>
</g>
<!-- Node5&#45;&gt;Node6 -->
<g id="edge5" class="edge">
<title>Node5&#45;&gt;Node6</title>
<path fill="none" stroke="#63b8ff" d="M100.5,-109.75C100.5,-103.27 100.5,-94.16 100.5,-85.9"/>
<polygon fill="#63b8ff" stroke="#63b8ff" points="104,-85.96 100.5,-75.96 97,-85.96 104,-85.96"/>
</g>
<!-- Node7 -->
<g id="node7" class="node">
<title>Node7</title>
<g id="a_node7"><a xlink:title=" ">
<polygon fill="#e0e0e0" stroke="#999999" points="88,-19 37,-19 37,0 88,0 88,-19"/>
<text text-anchor="middle" x="62.5" y="-7" font-family="Helvetica,sans-Serif" font-size="10.00">stddef.h</text>
</a>
</g>
</g>
<!-- Node6&#45;&gt;Node7 -->
<g id="edge6" class="edge">
<title>Node6&#45;&gt;Node7</title>
<path fill="none" stroke="#63b8ff" d="M94.23,-54.75C89.14,-47.66 81.8,-37.42 75.47,-28.59"/>
<polygon fill="#63b8ff" stroke="#63b8ff" points="78.46,-26.76 69.79,-20.67 72.78,-30.84 78.46,-26.76"/>
</g>
<!-- Node8 -->
<g id="node8" class="node">
<title>Node8</title>
<g id="a_node8"><a xlink:href="tamtypes_8h.html" target="_top" xlink:title=" ">
<polygon fill="white" stroke="#666666" points="170.5,-19 106.5,-19 106.5,0 170.5,0 170.5,-19"/>
<text text-anchor="middle" x="138.5" y="-7" font-family="Helvetica,sans-Serif" font-size="10.00">tamtypes.h</text>
</a>
</g>
</g>
<!-- Node6&#45;&gt;Node8 -->
<g id="edge7" class="edge">
<title>Node6&#45;&gt;Node8</title>
<path fill="none" stroke="#63b8ff" d="M106.77,-54.75C111.86,-47.66 119.2,-37.42 125.53,-28.59"/>
<polygon fill="#63b8ff" stroke="#63b8ff" points="128.22,-30.84 131.21,-20.67 122.54,-26.76 128.22,-30.84"/>
</g>
<!-- Node9&#45;&gt;Node2 -->
<g id="edge10" class="edge">
<title>Node9&#45;&gt;Node2</title>
<path fill="none" stroke="#63b8ff" d="M72.24,-274.75C65.34,-267.43 55.28,-256.76 46.76,-247.74"/>
<polygon fill="#63b8ff" stroke="#63b8ff" points="49.38,-245.42 39.97,-240.54 44.29,-250.22 49.38,-245.42"/>
</g>
<!-- Node10&#45;&gt;Node5 -->
<g id="edge13" class="edge">
<title>Node10&#45;&gt;Node5</title>
<path fill="none" stroke="#63b8ff" d="M141.56,-274.68C138.62,-265.73 134.04,-251.47 130.5,-239 120.73,-204.56 110.81,-164.06 105.18,-140.43"/>
<polygon fill="#63b8ff" stroke="#63b8ff" points="108.64,-139.86 102.93,-130.94 101.83,-141.48 108.64,-139.86"/>
</g>
<!-- Node11 -->
<g id="node11" class="node">
<title>Node11</title>
<g id="a_node11"><a xlink:title=" ">
<polygon fill="#e0e0e0" stroke="#999999" points="191,-239 140,-239 140,-220 191,-220 191,-239"/>
<text text-anchor="middle" x="165.5" y="-227" font-family="Helvetica,sans-Serif" font-size="10.00">stdarg.h</text>
</a>
</g>
</g>
<!-- Node10&#45;&gt;Node11 -->
<g id="edge12" class="edge">
<title>Node10&#45;&gt;Node11</title>
<path fill="none" stroke="#63b8ff" d="M147.97,-274.75C150.63,-268.04 154.4,-258.52 157.76,-250.02"/>
<polygon fill="#63b8ff" stroke="#63b8ff" points="160.97,-251.44 161.4,-240.85 154.46,-248.86 160.97,-251.44"/>
</g>
</g>
</svg>
