<?xml version="1.0" encoding="UTF-8" standalone="no"?>
<!DOCTYPE svg PUBLIC "-//W3C//DTD SVG 1.1//EN"
 "http://www.w3.org/Graphics/SVG/1.1/DTD/svg11.dtd">
<!-- Generated by graphviz version 7.0.5 (20221223.1930)
 -->
<!-- Title: iop/usb/usbd/src/mem.h Pages: 1 -->
<svg width="970pt" height="82pt"
 viewBox="0.00 0.00 969.50 82.00" xmlns="http://www.w3.org/2000/svg" xmlns:xlink="http://www.w3.org/1999/xlink">
<g id="graph0" class="graph" transform="scale(1 1) rotate(0) translate(4 78)">
<title>iop/usb/usbd/src/mem.h</title>
<!-- Node1 -->
<g id="node1" class="node">
<title>Node1</title>
<g id="a_node1"><a xlink:title=" ">
<polygon fill="#999999" stroke="#666666" points="536,-74 415,-74 415,-55 536,-55 536,-74"/>
<text text-anchor="middle" x="475.5" y="-62" font-family="Helvetica,sans-Serif" font-size="10.00">iop/usb/usbd/src/mem.h</text>
</a>
</g>
</g>
<!-- Node2 -->
<g id="node2" class="node">
<title>Node2</title>
<g id="a_node2"><a xlink:href="driver_8c.html" target="_top" xlink:title=" ">
<polygon fill="white" stroke="#666666" points="123,-19 0,-19 0,0 123,0 123,-19"/>
<text text-anchor="middle" x="61.5" y="-7" font-family="Helvetica,sans-Serif" font-size="10.00">iop/usb/usbd/src/driver.c</text>
</a>
</g>
</g>
<!-- Node1&#45;&gt;Node2 -->
<g id="edge1" class="edge">
<title>Node1&#45;&gt;Node2</title>
<path fill="none" stroke="#63b8ff" d="M403.52,-54.29C324.29,-44.14 198.25,-28.01 123.32,-18.41"/>
<polygon fill="#63b8ff" stroke="#63b8ff" points="402.99,-57.75 413.36,-55.54 403.88,-50.8 402.99,-57.75"/>
</g>
<!-- Node3 -->
<g id="node3" class="node">
<title>Node3</title>
<g id="a_node3"><a xlink:href="hcd_8c.html" target="_top" xlink:title=" ">
<polygon fill="white" stroke="#666666" points="256,-19 141,-19 141,0 256,0 256,-19"/>
<text text-anchor="middle" x="198.5" y="-7" font-family="Helvetica,sans-Serif" font-size="10.00">iop/usb/usbd/src/hcd.c</text>
</a>
</g>
</g>
<!-- Node1&#45;&gt;Node3 -->
<g id="edge2" class="edge">
<title>Node1&#45;&gt;Node3</title>
<path fill="none" stroke="#63b8ff" d="M417.31,-52.37C366.16,-42.58 292.67,-28.52 245.26,-19.45"/>
<polygon fill="#63b8ff" stroke="#63b8ff" points="416.54,-55.78 427.02,-54.22 417.86,-48.91 416.54,-55.78"/>
</g>
<!-- Node4 -->
<g id="node4" class="node">
<title>Node4</title>
<g id="a_node4"><a xlink:href="hub_8c.html" target="_top" xlink:title=" ">
<polygon fill="white" stroke="#666666" points="389,-19 274,-19 274,0 389,0 389,-19"/>
<text text-anchor="middle" x="331.5" y="-7" font-family="Helvetica,sans-Serif" font-size="10.00">iop/usb/usbd/src/hub.c</text>
</a>
</g>
</g>
<!-- Node1&#45;&gt;Node4 -->
<g id="edge3" class="edge">
<title>Node1&#45;&gt;Node4</title>
<path fill="none" stroke="#63b8ff" d="M440.41,-50.58C414.09,-40.9 378.75,-27.89 355.57,-19.36"/>
<polygon fill="#63b8ff" stroke="#63b8ff" points="439.06,-53.82 449.65,-53.99 441.48,-47.25 439.06,-53.82"/>
</g>
<!-- Node5 -->
<g id="node5" class="node">
<title>Node5</title>
<g id="a_node5"><a xlink:href="interface_8c.html" target="_top" xlink:title=" ">
<polygon fill="white" stroke="#666666" points="544,-19 407,-19 407,0 544,0 544,-19"/>
<text text-anchor="middle" x="475.5" y="-7" font-family="Helvetica,sans-Serif" font-size="10.00">iop/usb/usbd/src/interface.c</text>
</a>
</g>
</g>
<!-- Node1&#45;&gt;Node5 -->
<g id="edge4" class="edge">
<title>Node1&#45;&gt;Node5</title>
<path fill="none" stroke="#63b8ff" d="M475.5,-43.35C475.5,-35.1 475.5,-25.97 475.5,-19.44"/>
<polygon fill="#63b8ff" stroke="#63b8ff" points="472,-43.23 475.5,-53.23 479,-43.23 472,-43.23"/>
</g>
<!-- Node6 -->
<g id="node6" class="node">
<title>Node6</title>
<g id="a_node6"><a xlink:href="mem_8c.html" target="_top" xlink:title=" ">
<polygon fill="white" stroke="#666666" points="683,-19 562,-19 562,0 683,0 683,-19"/>
<text text-anchor="middle" x="622.5" y="-7" font-family="Helvetica,sans-Serif" font-size="10.00">iop/usb/usbd/src/mem.c</text>
</a>
</g>
</g>
<!-- Node1&#45;&gt;Node6 -->
<g id="edge5" class="edge">
<title>Node1&#45;&gt;Node6</title>
<path fill="none" stroke="#63b8ff" d="M510.97,-50.71C537.87,-41.01 574.16,-27.93 597.93,-19.36"/>
<polygon fill="#63b8ff" stroke="#63b8ff" points="510.08,-47.31 501.86,-54 512.45,-53.9 510.08,-47.31"/>
</g>
<!-- Node7 -->
<g id="node7" class="node">
<title>Node7</title>
<g id="a_node7"><a xlink:href="usbd_8c.html" target="_top" xlink:title=" ">
<polygon fill="white" stroke="#666666" points="821.5,-19 701.5,-19 701.5,0 821.5,0 821.5,-19"/>
<text text-anchor="middle" x="761.5" y="-7" font-family="Helvetica,sans-Serif" font-size="10.00">iop/usb/usbd/src/usbd.c</text>
</a>
</g>
</g>
<!-- Node1&#45;&gt;Node7 -->
<g id="edge6" class="edge">
<title>Node1&#45;&gt;Node7</title>
<path fill="none" stroke="#63b8ff" d="M535.25,-52.43C588.08,-42.64 664.17,-28.54 713.22,-19.45"/>
<polygon fill="#63b8ff" stroke="#63b8ff" points="534.7,-48.97 525.5,-54.23 535.97,-55.85 534.7,-48.97"/>
</g>
<!-- Node8 -->
<g id="node8" class="node">
<title>Node8</title>
<g id="a_node8"><a xlink:href="usbio_8c.html" target="_top" xlink:title=" ">
<polygon fill="white" stroke="#666666" points="961.5,-19 839.5,-19 839.5,0 961.5,0 961.5,-19"/>
<text text-anchor="middle" x="900.5" y="-7" font-family="Helvetica,sans-Serif" font-size="10.00">iop/usb/usbd/src/usbio.c</text>
</a>
</g>
</g>
<!-- Node1&#45;&gt;Node8 -->
<g id="edge7" class="edge">
<title>Node1&#45;&gt;Node8</title>
<path fill="none" stroke="#63b8ff" d="M547.61,-54.51C629.52,-44.29 761.81,-27.8 839.03,-18.17"/>
<polygon fill="#63b8ff" stroke="#63b8ff" points="547.38,-51.01 537.89,-55.72 548.25,-57.95 547.38,-51.01"/>
</g>
</g>
</svg>
