<?xml version="1.0" encoding="UTF-8" standalone="no"?>
<!DOCTYPE svg PUBLIC "-//W3C//DTD SVG 1.1//EN"
 "http://www.w3.org/Graphics/SVG/1.1/DTD/svg11.dtd">
<!-- Generated by graphviz version 7.0.5 (20221223.1930)
 -->
<!-- Title: iop/usb/usbd/src/mem.h Pages: 1 -->
<svg width="173pt" height="302pt"
 viewBox="0.00 0.00 172.50 302.00" xmlns="http://www.w3.org/2000/svg" xmlns:xlink="http://www.w3.org/1999/xlink">
<g id="graph0" class="graph" transform="scale(1 1) rotate(0) translate(4 298)">
<title>iop/usb/usbd/src/mem.h</title>
<!-- Node1 -->
<g id="node1" class="node">
<title>Node1</title>
<g id="a_node1"><a xlink:title=" ">
<polygon fill="#999999" stroke="#666666" points="121,-294 0,-294 0,-275 121,-275 121,-294"/>
<text text-anchor="middle" x="60.5" y="-282" font-family="Helvetica,sans-Serif" font-size="10.00">iop/usb/usbd/src/mem.h</text>
</a>
</g>
</g>
<!-- Node2 -->
<g id="node2" class="node">
<title>Node2</title>
<g id="a_node2"><a xlink:href="usbdpriv_8h.html" target="_top" xlink:title=" ">
<polygon fill="white" stroke="#666666" points="91,-239 30,-239 30,-220 91,-220 91,-239"/>
<text text-anchor="middle" x="60.5" y="-227" font-family="Helvetica,sans-Serif" font-size="10.00">usbdpriv.h</text>
</a>
</g>
</g>
<!-- Node1&#45;&gt;Node2 -->
<g id="edge1" class="edge">
<title>Node1&#45;&gt;Node2</title>
<path fill="none" stroke="#63b8ff" d="M60.5,-274.75C60.5,-268.27 60.5,-259.16 60.5,-250.9"/>
<polygon fill="#63b8ff" stroke="#63b8ff" points="64,-250.96 60.5,-240.96 57,-250.96 64,-250.96"/>
</g>
<!-- Node3 -->
<g id="node3" class="node">
<title>Node3</title>
<g id="a_node3"><a xlink:href="usbd_8h.html" target="_top" xlink:title=" ">
<polygon fill="white" stroke="#666666" points="109,-184 64,-184 64,-165 109,-165 109,-184"/>
<text text-anchor="middle" x="86.5" y="-172" font-family="Helvetica,sans-Serif" font-size="10.00">usbd.h</text>
</a>
</g>
</g>
<!-- Node2&#45;&gt;Node3 -->
<g id="edge2" class="edge">
<title>Node2&#45;&gt;Node3</title>
<path fill="none" stroke="#63b8ff" d="M64.79,-219.75C68.12,-212.96 72.86,-203.3 77.06,-194.73"/>
<polygon fill="#63b8ff" stroke="#63b8ff" points="80.18,-196.32 81.45,-185.8 73.9,-193.24 80.18,-196.32"/>
</g>
<!-- Node4 -->
<g id="node4" class="node">
<title>Node4</title>
<g id="a_node4"><a xlink:title=" ">
<polygon fill="#e0e0e0" stroke="#999999" points="59,-129 12,-129 12,-110 59,-110 59,-129"/>
<text text-anchor="middle" x="35.5" y="-117" font-family="Helvetica,sans-Serif" font-size="10.00">types.h</text>
</a>
</g>
</g>
<!-- Node2&#45;&gt;Node4 -->
<g id="edge8" class="edge">
<title>Node2&#45;&gt;Node4</title>
<path fill="none" stroke="#63b8ff" d="M58.45,-219.66C54.48,-202.5 45.63,-164.26 40.15,-140.6"/>
<polygon fill="#63b8ff" stroke="#63b8ff" points="43.58,-139.89 37.92,-130.93 36.76,-141.47 43.58,-139.89"/>
</g>
<!-- Node3&#45;&gt;Node4 -->
<g id="edge3" class="edge">
<title>Node3&#45;&gt;Node4</title>
<path fill="none" stroke="#63b8ff" d="M78.08,-164.75C71.03,-157.43 60.77,-146.76 52.09,-137.74"/>
<polygon fill="#63b8ff" stroke="#63b8ff" points="54.61,-135.31 45.15,-130.53 49.57,-140.17 54.61,-135.31"/>
</g>
<!-- Node5 -->
<g id="node5" class="node">
<title>Node5</title>
<g id="a_node5"><a xlink:href="irx_8h.html" target="_top" xlink:title=" ">
<polygon fill="white" stroke="#666666" points="111.5,-129 77.5,-129 77.5,-110 111.5,-110 111.5,-129"/>
<text text-anchor="middle" x="94.5" y="-117" font-family="Helvetica,sans-Serif" font-size="10.00">irx.h</text>
</a>
</g>
</g>
<!-- Node3&#45;&gt;Node5 -->
<g id="edge4" class="edge">
<title>Node3&#45;&gt;Node5</title>
<path fill="none" stroke="#63b8ff" d="M87.82,-164.75C88.81,-158.19 90.21,-148.95 91.47,-140.6"/>
<polygon fill="#63b8ff" stroke="#63b8ff" points="94.89,-141.35 92.92,-130.94 87.97,-140.3 94.89,-141.35"/>
</g>
<!-- Node6 -->
<g id="node6" class="node">
<title>Node6</title>
<g id="a_node6"><a xlink:href="iop_2kernel_2include_2types_8h_source.html" target="_top" xlink:title=" ">
<polygon fill="white" stroke="#666666" points="118,-74 71,-74 71,-55 118,-55 118,-74"/>
<text text-anchor="middle" x="94.5" y="-62" font-family="Helvetica,sans-Serif" font-size="10.00">types.h</text>
</a>
</g>
</g>
<!-- Node5&#45;&gt;Node6 -->
<g id="edge5" class="edge">
<title>Node5&#45;&gt;Node6</title>
<path fill="none" stroke="#63b8ff" d="M94.5,-109.75C94.5,-103.27 94.5,-94.16 94.5,-85.9"/>
<polygon fill="#63b8ff" stroke="#63b8ff" points="98,-85.96 94.5,-75.96 91,-85.96 98,-85.96"/>
</g>
<!-- Node7 -->
<g id="node7" class="node">
<title>Node7</title>
<g id="a_node7"><a xlink:title=" ">
<polygon fill="#e0e0e0" stroke="#999999" points="82,-19 31,-19 31,0 82,0 82,-19"/>
<text text-anchor="middle" x="56.5" y="-7" font-family="Helvetica,sans-Serif" font-size="10.00">stddef.h</text>
</a>
</g>
</g>
<!-- Node6&#45;&gt;Node7 -->
<g id="edge6" class="edge">
<title>Node6&#45;&gt;Node7</title>
<path fill="none" stroke="#63b8ff" d="M88.23,-54.75C83.14,-47.66 75.8,-37.42 69.47,-28.59"/>
<polygon fill="#63b8ff" stroke="#63b8ff" points="72.46,-26.76 63.79,-20.67 66.78,-30.84 72.46,-26.76"/>
</g>
<!-- Node8 -->
<g id="node8" class="node">
<title>Node8</title>
<g id="a_node8"><a xlink:href="tamtypes_8h.html" target="_top" xlink:title=" ">
<polygon fill="white" stroke="#666666" points="164.5,-19 100.5,-19 100.5,0 164.5,0 164.5,-19"/>
<text text-anchor="middle" x="132.5" y="-7" font-family="Helvetica,sans-Serif" font-size="10.00">tamtypes.h</text>
</a>
</g>
</g>
<!-- Node6&#45;&gt;Node8 -->
<g id="edge7" class="edge">
<title>Node6&#45;&gt;Node8</title>
<path fill="none" stroke="#63b8ff" d="M100.77,-54.75C105.86,-47.66 113.2,-37.42 119.53,-28.59"/>
<polygon fill="#63b8ff" stroke="#63b8ff" points="122.22,-30.84 125.21,-20.67 116.54,-26.76 122.22,-30.84"/>
</g>
</g>
</svg>
