<?xml version="1.0" encoding="UTF-8" standalone="no"?>
<!DOCTYPE svg PUBLIC "-//W3C//DTD SVG 1.1//EN"
 "http://www.w3.org/Graphics/SVG/1.1/DTD/svg11.dtd">
<!-- Generated by graphviz version 7.0.5 (20221223.1930)
 -->
<!-- Title: iop/kernel/include/modload.h Pages: 1 -->
<!--zoomable 170 -->
<svg id="main" version="1.1" xmlns="http://www.w3.org/2000/svg" xmlns:xlink="http://www.w3.org/1999/xlink" xml:space="preserve" onload="init(evt)">
<style type="text/css"><![CDATA[
.edge:hover path { stroke: red; }
.edge:hover polygon { stroke: red; fill: red; }
]]></style>
<script type="text/javascript"><![CDATA[
var edges = document.getElementsByTagName('g');
if (edges && edges.length) {
  for (var i=0;i<edges.length;i++) {
    if (edges[i].id.substr(0,4)=='edge') {
      edges[i].setAttribute('class','edge');
    }
  }
}
]]></script>
        <defs>
                <circle id="rim" cx="0" cy="0" r="7"/>
                <circle id="rim2" cx="0" cy="0" r="3.5"/>
                <g id="zoomPlus">
                        <use xlink:href="#rim" fill="#404040">
                                <set attributeName="fill" to="#808080" begin="zoomplus.mouseover" end="zoomplus.mouseout"/>
                        </use>
                        <path d="M-4,0h8M0,-4v8" fill="none" stroke="white" stroke-width="1.5" pointer-events="none"/>
                </g>
                <g id="zoomMin">
                        <use xlink:href="#rim" fill="#404040">
                                <set attributeName="fill" to="#808080" begin="zoomminus.mouseover" end="zoomminus.mouseout"/>
                        </use>
                        <path d="M-4,0h8" fill="none" stroke="white" stroke-width="1.5" pointer-events="none"/>
                </g>
                <g id="dirArrow">
                        <path fill="none" stroke="white" stroke-width="1.5" d="M0,-3.0v7 M-2.5,-0.5L0,-3.0L2.5,-0.5"/>
                </g>
               <g id="resetDef">
                       <use xlink:href="#rim2" fill="#404040">
                               <set attributeName="fill" to="#808080" begin="reset.mouseover" end="reset.mouseout"/>
                       </use>
               </g>
        </defs>

<script type="text/javascript">
var viewWidth = 1437;
var viewHeight = 170;
var sectionId = 'dynsection-1';
</script>
<script xlink:href="svgpan.js"/>
<svg id="graph" class="graph">
<g id="viewport">
<title>iop/kernel/include/modload.h</title>
<!-- Node1 -->
<g id="node1" class="node">
<title>Node1</title>
<g id="a_node1"><a xlink:title=" ">
<polygon fill="#999999" stroke="#666666" points="735.5,-162 643.5,-162 643.5,-132 735.5,-132 735.5,-162"/>
<text text-anchor="start" x="651.5" y="-150" font-family="Helvetica,sans-Serif" font-size="10.00">iop/kernel/include</text>
<text text-anchor="middle" x="689.5" y="-139" font-family="Helvetica,sans-Serif" font-size="10.00">/modload.h</text>
</a>
</g>
</g>
<!-- Node2 -->
<g id="node2" class="node">
<title>Node2</title>
<g id="a_node2"><a xlink:href="common_2sbus_2src_2irx__imports_8h_source.html" target="_top" xlink:title=" ">
<polygon fill="white" stroke="#666666" points="107,-96 0,-96 0,-66 107,-66 107,-96"/>
<text text-anchor="start" x="8" y="-84" font-family="Helvetica,sans-Serif" font-size="10.00">common/sbus/src/irx</text>
<text text-anchor="middle" x="53.5" y="-73" font-family="Helvetica,sans-Serif" font-size="10.00">_imports.h</text>
</a>
</g>
</g>
<!-- Node1&#45;&gt;Node2 -->
<g id="edge1" class="edge">
<title>Node1&#45;&gt;Node2</title>
<path fill="none" stroke="#63b8ff" d="M631.76,-143.48C528.09,-138.39 303.71,-124.84 116.5,-96 113.51,-95.54 110.45,-95.02 107.37,-94.46"/>
<polygon fill="#63b8ff" stroke="#63b8ff" points="631.54,-146.97 641.69,-143.96 631.87,-139.98 631.54,-146.97"/>
</g>
<!-- Node3 -->
<g id="node3" class="node">
<title>Node3</title>
<g id="a_node3"><a xlink:href="iop_2debug_2iop__sbusdbg_2src_2irx__imports_8h_source.html" target="_top" xlink:title=" ">
<polygon fill="white" stroke="#666666" points="241.5,-96 125.5,-96 125.5,-66 241.5,-66 241.5,-96"/>
<text text-anchor="start" x="133.5" y="-84" font-family="Helvetica,sans-Serif" font-size="10.00">iop/debug/iop_sbusdbg</text>
<text text-anchor="middle" x="183.5" y="-73" font-family="Helvetica,sans-Serif" font-size="10.00">/src/irx_imports.h</text>
</a>
</g>
</g>
<!-- Node1&#45;&gt;Node3 -->
<g id="edge2" class="edge">
<title>Node1&#45;&gt;Node3</title>
<path fill="none" stroke="#63b8ff" d="M631.82,-141.15C547.67,-133.68 386.48,-117.9 250.5,-96 247.68,-95.55 244.81,-95.05 241.91,-94.54"/>
<polygon fill="#63b8ff" stroke="#63b8ff" points="631.39,-144.62 641.66,-142.01 632.01,-137.65 631.39,-144.62"/>
</g>
<!-- Node4 -->
<g id="node4" class="node">
<title>Node4</title>
<g id="a_node4"><a xlink:href="iop_2debug_2iopdebug_2src_2irx__imports_8h_source.html" target="_top" xlink:title=" ">
<polygon fill="white" stroke="#666666" points="361,-96 260,-96 260,-66 361,-66 361,-96"/>
<text text-anchor="start" x="268" y="-84" font-family="Helvetica,sans-Serif" font-size="10.00">iop/debug/iopdebug</text>
<text text-anchor="middle" x="310.5" y="-73" font-family="Helvetica,sans-Serif" font-size="10.00">/src/irx_imports.h</text>
</a>
</g>
</g>
<!-- Node1&#45;&gt;Node4 -->
<g id="edge3" class="edge">
<title>Node1&#45;&gt;Node4</title>
<path fill="none" stroke="#63b8ff" d="M632.02,-138.29C567.98,-129.4 461.47,-113.72 370.5,-96 367.46,-95.41 364.33,-94.77 361.18,-94.1"/>
<polygon fill="#63b8ff" stroke="#63b8ff" points="631.2,-141.71 641.59,-139.61 632.16,-134.78 631.2,-141.71"/>
</g>
<!-- Node5 -->
<g id="node5" class="node">
<title>Node5</title>
<g id="a_node5"><a xlink:href="xmodload_8h.html" target="_top" xlink:title=" ">
<polygon fill="white" stroke="#666666" points="471.5,-96 379.5,-96 379.5,-66 471.5,-66 471.5,-96"/>
<text text-anchor="start" x="387.5" y="-84" font-family="Helvetica,sans-Serif" font-size="10.00">iop/kernel/include</text>
<text text-anchor="middle" x="425.5" y="-73" font-family="Helvetica,sans-Serif" font-size="10.00">/xmodload.h</text>
</a>
</g>
</g>
<!-- Node1&#45;&gt;Node5 -->
<g id="edge4" class="edge">
<title>Node1&#45;&gt;Node5</title>
<path fill="none" stroke="#63b8ff" d="M632.25,-132.54C590.22,-122.6 531.76,-108.66 480.5,-96 477.73,-95.32 474.87,-94.61 472,-93.89"/>
<polygon fill="#63b8ff" stroke="#63b8ff" points="631.37,-135.93 641.91,-134.82 632.98,-129.11 631.37,-135.93"/>
</g>
<!-- Node6 -->
<g id="node6" class="node">
<title>Node6</title>
<g id="a_node6"><a xlink:href="iop_2memorycard_2mcman_2src_2irx__imports_8h_source.html" target="_top" xlink:title=" ">
<polygon fill="white" stroke="#666666" points="611,-96 490,-96 490,-66 611,-66 611,-96"/>
<text text-anchor="start" x="498" y="-84" font-family="Helvetica,sans-Serif" font-size="10.00">iop/memorycard/mcman</text>
<text text-anchor="middle" x="550.5" y="-73" font-family="Helvetica,sans-Serif" font-size="10.00">/src/irx_imports.h</text>
</a>
</g>
</g>
<!-- Node1&#45;&gt;Node6 -->
<g id="edge5" class="edge">
<title>Node1&#45;&gt;Node6</title>
<path fill="none" stroke="#63b8ff" d="M647.92,-126.86C626.63,-117.05 601.15,-105.32 581.59,-96.31"/>
<polygon fill="#63b8ff" stroke="#63b8ff" points="646.38,-130 656.93,-131 649.31,-123.64 646.38,-130"/>
</g>
<!-- Node7 -->
<g id="node7" class="node">
<title>Node7</title>
<g id="a_node7"><a xlink:href="mcman-internal_8h_source.html" target="_top" xlink:title=" ">
<polygon fill="white" stroke="#666666" points="750,-96 629,-96 629,-66 750,-66 750,-96"/>
<text text-anchor="start" x="637" y="-84" font-family="Helvetica,sans-Serif" font-size="10.00">iop/memorycard/mcman</text>
<text text-anchor="middle" x="689.5" y="-73" font-family="Helvetica,sans-Serif" font-size="10.00">/src/mcman&#45;internal.h</text>
</a>
</g>
</g>
<!-- Node1&#45;&gt;Node7 -->
<g id="edge6" class="edge">
<title>Node1&#45;&gt;Node7</title>
<path fill="none" stroke="#63b8ff" d="M689.5,-120.39C689.5,-112.13 689.5,-103.28 689.5,-96.16"/>
<polygon fill="#63b8ff" stroke="#63b8ff" points="686,-120.28 689.5,-130.28 693,-120.28 686,-120.28"/>
</g>
<!-- Node13 -->
<g id="node13" class="node">
<title>Node13</title>
<g id="a_node13"><a xlink:href="smap_8c_source.html" target="_top" xlink:title=" ">
<polygon fill="white" stroke="#666666" points="878.5,-96 768.5,-96 768.5,-66 878.5,-66 878.5,-96"/>
<text text-anchor="start" x="776.5" y="-84" font-family="Helvetica,sans-Serif" font-size="10.00">iop/network/smap/src</text>
<text text-anchor="middle" x="823.5" y="-73" font-family="Helvetica,sans-Serif" font-size="10.00">/smap.c</text>
</a>
</g>
</g>
<!-- Node1&#45;&gt;Node13 -->
<g id="edge12" class="edge">
<title>Node1&#45;&gt;Node13</title>
<path fill="none" stroke="#63b8ff" d="M729.86,-126.72C750.33,-116.95 774.76,-105.28 793.53,-96.31"/>
<polygon fill="#63b8ff" stroke="#63b8ff" points="728.45,-123.52 720.94,-130.98 731.47,-129.83 728.45,-123.52"/>
</g>
<!-- Node14 -->
<g id="node14" class="node">
<title>Node14</title>
<g id="a_node14"><a xlink:href="xfer_8c_source.html" target="_top" xlink:title=" ">
<polygon fill="white" stroke="#666666" points="1006.5,-96 896.5,-96 896.5,-66 1006.5,-66 1006.5,-96"/>
<text text-anchor="start" x="904.5" y="-84" font-family="Helvetica,sans-Serif" font-size="10.00">iop/network/smap/src</text>
<text text-anchor="middle" x="951.5" y="-73" font-family="Helvetica,sans-Serif" font-size="10.00">/xfer.c</text>
</a>
</g>
</g>
<!-- Node1&#45;&gt;Node14 -->
<g id="edge13" class="edge">
<title>Node1&#45;&gt;Node14</title>
<path fill="none" stroke="#63b8ff" d="M746.64,-132.04C791.04,-121.2 852.26,-106.24 896.19,-95.51"/>
<polygon fill="#63b8ff" stroke="#63b8ff" points="746.09,-128.57 737.21,-134.35 747.75,-135.37 746.09,-128.57"/>
</g>
<!-- Node15 -->
<g id="node15" class="node">
<title>Node15</title>
<g id="a_node15"><a xlink:href="iop_2security_2secrman_2src_2irx__imports_8h_source.html" target="_top" xlink:title=" ">
<polygon fill="white" stroke="#666666" points="1132,-96 1025,-96 1025,-66 1132,-66 1132,-96"/>
<text text-anchor="start" x="1033" y="-84" font-family="Helvetica,sans-Serif" font-size="10.00">iop/security/secrman</text>
<text text-anchor="middle" x="1078.5" y="-73" font-family="Helvetica,sans-Serif" font-size="10.00">/src/irx_imports.h</text>
</a>
</g>
</g>
<!-- Node1&#45;&gt;Node15 -->
<g id="edge14" class="edge">
<title>Node1&#45;&gt;Node15</title>
<path fill="none" stroke="#63b8ff" d="M747.09,-138.35C812.39,-129.4 921.93,-113.55 1015.5,-96 1018.47,-95.44 1021.52,-94.85 1024.59,-94.23"/>
<polygon fill="#63b8ff" stroke="#63b8ff" points="746.76,-134.86 737.32,-139.68 747.7,-141.8 746.76,-134.86"/>
</g>
<!-- Node16 -->
<g id="node16" class="node">
<title>Node16</title>
<g id="a_node16"><a xlink:href="secrman_8c_source.html" target="_top" xlink:title=" ">
<polygon fill="white" stroke="#666666" points="1257,-96 1150,-96 1150,-66 1257,-66 1257,-96"/>
<text text-anchor="start" x="1158" y="-84" font-family="Helvetica,sans-Serif" font-size="10.00">iop/security/secrman</text>
<text text-anchor="middle" x="1203.5" y="-73" font-family="Helvetica,sans-Serif" font-size="10.00">/src/secrman.c</text>
</a>
</g>
</g>
<!-- Node1&#45;&gt;Node16 -->
<g id="edge15" class="edge">
<title>Node1&#45;&gt;Node16</title>
<path fill="none" stroke="#63b8ff" d="M747.16,-141.62C833.19,-134.63 1000.07,-119.32 1140.5,-96 1143.48,-95.5 1146.54,-94.96 1149.62,-94.38"/>
<polygon fill="#63b8ff" stroke="#63b8ff" points="747.02,-138.12 737.33,-142.41 747.58,-145.1 747.02,-138.12"/>
</g>
<!-- Node17 -->
<g id="node17" class="node">
<title>Node17</title>
<g id="a_node17"><a xlink:href="iop_2system_2loadfile_2src_2irx__imports_8h_source.html" target="_top" xlink:title=" ">
<polygon fill="white" stroke="#666666" points="1372,-96 1275,-96 1275,-66 1372,-66 1372,-96"/>
<text text-anchor="start" x="1283" y="-84" font-family="Helvetica,sans-Serif" font-size="10.00">iop/system/loadfile</text>
<text text-anchor="middle" x="1323.5" y="-73" font-family="Helvetica,sans-Serif" font-size="10.00">/src/irx_imports.h</text>
</a>
</g>
</g>
<!-- Node1&#45;&gt;Node17 -->
<g id="edge16" class="edge">
<title>Node1&#45;&gt;Node17</title>
<path fill="none" stroke="#63b8ff" d="M746.99,-143.96C851.18,-139.61 1077.89,-127.14 1266.5,-96 1269.21,-95.55 1271.99,-95.04 1274.78,-94.49"/>
<polygon fill="#63b8ff" stroke="#63b8ff" points="747.16,-140.45 737.31,-144.35 747.45,-147.44 747.16,-140.45"/>
</g>
<!-- Node8 -->
<g id="node8" class="node">
<title>Node8</title>
<g id="a_node8"><a xlink:href="iop_2memorycard_2mcman_2src_2main_8c_source.html" target="_top" xlink:title=" ">
<polygon fill="white" stroke="#666666" points="472,-30 351,-30 351,0 472,0 472,-30"/>
<text text-anchor="start" x="359" y="-18" font-family="Helvetica,sans-Serif" font-size="10.00">iop/memorycard/mcman</text>
<text text-anchor="middle" x="411.5" y="-7" font-family="Helvetica,sans-Serif" font-size="10.00">/src/main.c</text>
</a>
</g>
</g>
<!-- Node7&#45;&gt;Node8 -->
<g id="edge7" class="edge">
<title>Node7&#45;&gt;Node8</title>
<path fill="none" stroke="#63b8ff" d="M617.64,-63.46C572.47,-53.06 514.86,-39.8 472.04,-29.94"/>
<polygon fill="#63b8ff" stroke="#63b8ff" points="616.83,-66.86 627.36,-65.69 618.4,-60.04 616.83,-66.86"/>
</g>
<!-- Node9 -->
<g id="node9" class="node">
<title>Node9</title>
<g id="a_node9"><a xlink:href="mcdev_8c_source.html" target="_top" xlink:title=" ">
<polygon fill="white" stroke="#666666" points="611,-30 490,-30 490,0 611,0 611,-30"/>
<text text-anchor="start" x="498" y="-18" font-family="Helvetica,sans-Serif" font-size="10.00">iop/memorycard/mcman</text>
<text text-anchor="middle" x="550.5" y="-7" font-family="Helvetica,sans-Serif" font-size="10.00">/src/mcdev.c</text>
</a>
</g>
</g>
<!-- Node7&#45;&gt;Node9 -->
<g id="edge8" class="edge">
<title>Node7&#45;&gt;Node9</title>
<path fill="none" stroke="#63b8ff" d="M647.92,-60.86C626.63,-51.05 601.15,-39.32 581.59,-30.31"/>
<polygon fill="#63b8ff" stroke="#63b8ff" points="646.38,-64 656.93,-65 649.31,-57.64 646.38,-64"/>
</g>
<!-- Node10 -->
<g id="node10" class="node">
<title>Node10</title>
<g id="a_node10"><a xlink:href="mcsio2_8c_source.html" target="_top" xlink:title=" ">
<polygon fill="white" stroke="#666666" points="750,-30 629,-30 629,0 750,0 750,-30"/>
<text text-anchor="start" x="637" y="-18" font-family="Helvetica,sans-Serif" font-size="10.00">iop/memorycard/mcman</text>
<text text-anchor="middle" x="689.5" y="-7" font-family="Helvetica,sans-Serif" font-size="10.00">/src/mcsio2.c</text>
</a>
</g>
</g>
<!-- Node7&#45;&gt;Node10 -->
<g id="edge9" class="edge">
<title>Node7&#45;&gt;Node10</title>
<path fill="none" stroke="#63b8ff" d="M689.5,-54.39C689.5,-46.13 689.5,-37.28 689.5,-30.16"/>
<polygon fill="#63b8ff" stroke="#63b8ff" points="686,-54.28 689.5,-64.28 693,-54.28 686,-54.28"/>
</g>
<!-- Node11 -->
<g id="node11" class="node">
<title>Node11</title>
<g id="a_node11"><a xlink:href="ps1mc__fio_8c_source.html" target="_top" xlink:title=" ">
<polygon fill="white" stroke="#666666" points="889,-30 768,-30 768,0 889,0 889,-30"/>
<text text-anchor="start" x="776" y="-18" font-family="Helvetica,sans-Serif" font-size="10.00">iop/memorycard/mcman</text>
<text text-anchor="middle" x="828.5" y="-7" font-family="Helvetica,sans-Serif" font-size="10.00">/src/ps1mc_fio.c</text>
</a>
</g>
</g>
<!-- Node7&#45;&gt;Node11 -->
<g id="edge10" class="edge">
<title>Node7&#45;&gt;Node11</title>
<path fill="none" stroke="#63b8ff" d="M731.08,-60.86C752.37,-51.05 777.85,-39.32 797.41,-30.31"/>
<polygon fill="#63b8ff" stroke="#63b8ff" points="729.69,-57.64 722.07,-65 732.62,-64 729.69,-57.64"/>
</g>
<!-- Node12 -->
<g id="node12" class="node">
<title>Node12</title>
<g id="a_node12"><a xlink:href="ps2mc__fio_8c_source.html" target="_top" xlink:title=" ">
<polygon fill="white" stroke="#666666" points="1028,-30 907,-30 907,0 1028,0 1028,-30"/>
<text text-anchor="start" x="915" y="-18" font-family="Helvetica,sans-Serif" font-size="10.00">iop/memorycard/mcman</text>
<text text-anchor="middle" x="967.5" y="-7" font-family="Helvetica,sans-Serif" font-size="10.00">/src/ps2mc_fio.c</text>
</a>
</g>
</g>
<!-- Node7&#45;&gt;Node12 -->
<g id="edge11" class="edge">
<title>Node7&#45;&gt;Node12</title>
<path fill="none" stroke="#63b8ff" d="M761.36,-63.46C806.53,-53.06 864.14,-39.8 906.96,-29.94"/>
<polygon fill="#63b8ff" stroke="#63b8ff" points="760.6,-60.04 751.64,-65.69 762.17,-66.86 760.6,-60.04"/>
</g>
<!-- Node18 -->
<g id="node18" class="node">
<title>Node18</title>
<g id="a_node18"><a xlink:href="eeelfloader_8c_source.html" target="_top" xlink:title=" ">
<polygon fill="white" stroke="#666666" points="1314,-30 1217,-30 1217,0 1314,0 1314,-30"/>
<text text-anchor="start" x="1225" y="-18" font-family="Helvetica,sans-Serif" font-size="10.00">iop/system/loadfile</text>
<text text-anchor="middle" x="1265.5" y="-7" font-family="Helvetica,sans-Serif" font-size="10.00">/src/eeelfloader.c</text>
</a>
</g>
</g>
<!-- Node17&#45;&gt;Node18 -->
<g id="edge17" class="edge">
<title>Node17&#45;&gt;Node18</title>
<path fill="none" stroke="#63b8ff" d="M1303.13,-57.53C1294.89,-48.43 1285.61,-38.19 1278.34,-30.16"/>
<polygon fill="#63b8ff" stroke="#63b8ff" points="1300.3,-59.62 1309.61,-64.67 1305.49,-54.91 1300.3,-59.62"/>
</g>
<!-- Node19 -->
<g id="node19" class="node">
<title>Node19</title>
<g id="a_node19"><a xlink:href="iop_2system_2loadfile_2src_2loadfile_8c_source.html" target="_top" xlink:title=" ">
<polygon fill="white" stroke="#666666" points="1429,-30 1332,-30 1332,0 1429,0 1429,-30"/>
<text text-anchor="start" x="1340" y="-18" font-family="Helvetica,sans-Serif" font-size="10.00">iop/system/loadfile</text>
<text text-anchor="middle" x="1380.5" y="-7" font-family="Helvetica,sans-Serif" font-size="10.00">/src/loadfile.c</text>
</a>
</g>
</g>
<!-- Node17&#45;&gt;Node19 -->
<g id="edge18" class="edge">
<title>Node17&#45;&gt;Node19</title>
<path fill="none" stroke="#63b8ff" d="M1343.77,-57.24C1351.81,-48.21 1360.81,-38.11 1367.89,-30.16"/>
<polygon fill="#63b8ff" stroke="#63b8ff" points="1341.19,-54.87 1337.16,-64.67 1346.42,-59.53 1341.19,-54.87"/>
</g>
</g>
</svg>
        <g id="navigator" transform="translate(0 0)" fill="#404254">
                <rect fill="#f2f5e9" fill-opacity="0.5" stroke="#606060" stroke-width=".5" x="0" y="0" width="60" height="60"/>
                <use id="zoomplus" xlink:href="#zoomPlus" x="17" y="9" onmousedown="handleZoom(evt,'in')"/>
                <use id="zoomminus" xlink:href="#zoomMin" x="42" y="9" onmousedown="handleZoom(evt,'out')"/>
                <use id="reset" xlink:href="#resetDef" x="30" y="36" onmousedown="handleReset()"/>
                <g id="arrowUp" xlink:href="#dirArrow" transform="translate(30 24)" onmousedown="handlePan(0,-1)">
                  <use xlink:href="#rim" fill="#404040">
                        <set attributeName="fill" to="#808080" begin="arrowUp.mouseover" end="arrowUp.mouseout"/>
                  </use>
                  <path fill="none" stroke="white" stroke-width="1.5" d="M0,-3.0v7 M-2.5,-0.5L0,-3.0L2.5,-0.5"/>
                </g>
                <g id="arrowRight" xlink:href="#dirArrow" transform="rotate(90) translate(36 -43)" onmousedown="handlePan(1,0)">
                  <use xlink:href="#rim" fill="#404040">
                        <set attributeName="fill" to="#808080" begin="arrowRight.mouseover" end="arrowRight.mouseout"/>
                  </use>
                  <path fill="none" stroke="white" stroke-width="1.5" d="M0,-3.0v7 M-2.5,-0.5L0,-3.0L2.5,-0.5"/>
                </g>
                <g id="arrowDown" xlink:href="#dirArrow" transform="rotate(180) translate(-30 -48)" onmousedown="handlePan(0,1)">
                  <use xlink:href="#rim" fill="#404040">
                        <set attributeName="fill" to="#808080" begin="arrowDown.mouseover" end="arrowDown.mouseout"/>
                  </use>
                  <path fill="none" stroke="white" stroke-width="1.5" d="M0,-3.0v7 M-2.5,-0.5L0,-3.0L2.5,-0.5"/>
                </g>
                <g id="arrowLeft" xlink:href="#dirArrow" transform="rotate(270) translate(-36 17)" onmousedown="handlePan(-1,0)">
                  <use xlink:href="#rim" fill="#404040">
                        <set attributeName="fill" to="#808080" begin="arrowLeft.mouseover" end="arrowLeft.mouseout"/>
                  </use>
                  <path fill="none" stroke="white" stroke-width="1.5" d="M0,-3.0v7 M-2.5,-0.5L0,-3.0L2.5,-0.5"/>
                </g>
        </g>
        <svg viewBox="0 0 15 15" width="100%" height="30px" preserveAspectRatio="xMaxYMin meet">
         <g id="arrow_out" transform="scale(0.3 0.3)">
          <a xlink:href="modload_8h__dep__incl_org.svg" target="_base">
           <rect id="button" ry="5" rx="5" y="6" x="6" height="38" width="38"
                fill="#f2f5e9" fill-opacity="0.5" stroke="#606060" stroke-width="1.0"/>
           <path id="arrow"
             d="M 11.500037,31.436501 C 11.940474,20.09759 22.043105,11.32322 32.158766,21.979434 L 37.068811,17.246167 C 37.068811,17.246167 37.088388,32 37.088388,32 L 22.160133,31.978069 C 22.160133,31.978069 26.997745,27.140456 26.997745,27.140456 C 18.528582,18.264221 13.291696,25.230495 11.500037,31.436501 z"
             style="fill:#404040;"/>
          </a>
         </g>
        </svg>
</svg>
