<?xml version="1.0" encoding="UTF-8" standalone="no"?>
<!DOCTYPE svg PUBLIC "-//W3C//DTD SVG 1.1//EN"
 "http://www.w3.org/Graphics/SVG/1.1/DTD/svg11.dtd">
<!-- Generated by graphviz version 7.0.5 (20221223.1930)
 -->
<!-- Title: common/include/netman.h Pages: 1 -->
<svg width="959pt" height="159pt"
 viewBox="0.00 0.00 958.50 159.00" xmlns="http://www.w3.org/2000/svg" xmlns:xlink="http://www.w3.org/1999/xlink">
<g id="graph0" class="graph" transform="scale(1 1) rotate(0) translate(4 155)">
<title>common/include/netman.h</title>
<!-- Node1 -->
<g id="node1" class="node">
<title>Node1</title>
<g id="a_node1"><a xlink:title=" ">
<polygon fill="#999999" stroke="#666666" points="563.5,-151 432.5,-151 432.5,-132 563.5,-132 563.5,-151"/>
<text text-anchor="middle" x="498" y="-139" font-family="Helvetica,sans-Serif" font-size="10.00">common/include/netman.h</text>
</a>
</g>
</g>
<!-- Node2 -->
<g id="node2" class="node">
<title>Node2</title>
<g id="a_node2"><a xlink:href="netman__rpc_8h.html" target="_top" xlink:title=" ">
<polygon fill="white" stroke="#666666" points="450.5,-96 327.5,-96 327.5,-66 450.5,-66 450.5,-96"/>
<text text-anchor="start" x="335.5" y="-84" font-family="Helvetica,sans-Serif" font-size="10.00">common/include/netman</text>
<text text-anchor="middle" x="389" y="-73" font-family="Helvetica,sans-Serif" font-size="10.00">_rpc.h</text>
</a>
</g>
</g>
<!-- Node1&#45;&gt;Node2 -->
<g id="edge1" class="edge">
<title>Node1&#45;&gt;Node2</title>
<path fill="none" stroke="#63b8ff" d="M471.66,-126.36C454.77,-117.3 432.9,-105.56 415.9,-96.44"/>
<polygon fill="#63b8ff" stroke="#63b8ff" points="469.65,-129.25 480.11,-130.9 472.96,-123.09 469.65,-129.25"/>
</g>
<!-- Node3 -->
<g id="node3" class="node">
<title>Node3</title>
<g id="a_node3"><a xlink:href="ee_2network_2netman_2src_2netman_8c_source.html" target="_top" xlink:title=" ">
<polygon fill="white" stroke="#666666" points="116,-30 0,-30 0,0 116,0 116,-30"/>
<text text-anchor="start" x="8" y="-18" font-family="Helvetica,sans-Serif" font-size="10.00">ee/network/netman/src</text>
<text text-anchor="middle" x="58" y="-7" font-family="Helvetica,sans-Serif" font-size="10.00">/netman.c</text>
</a>
</g>
</g>
<!-- Node1&#45;&gt;Node3 -->
<g id="edge8" class="edge">
<title>Node1&#45;&gt;Node3</title>
<path fill="none" stroke="#63b8ff" d="M421.04,-130.75C372.28,-123.54 308.24,-112.15 253,-96 192.59,-78.33 125.33,-48.29 87.69,-30.48"/>
<polygon fill="#63b8ff" stroke="#63b8ff" points="420.24,-134.17 430.64,-132.14 421.25,-127.24 420.24,-134.17"/>
</g>
<!-- Node4 -->
<g id="node4" class="node">
<title>Node4</title>
<g id="a_node4"><a xlink:href="ee_2network_2netman_2src_2rpc__client_8c_source.html" target="_top" xlink:title=" ">
<polygon fill="white" stroke="#666666" points="250,-30 134,-30 134,0 250,0 250,-30"/>
<text text-anchor="start" x="142" y="-18" font-family="Helvetica,sans-Serif" font-size="10.00">ee/network/netman/src</text>
<text text-anchor="middle" x="192" y="-7" font-family="Helvetica,sans-Serif" font-size="10.00">/rpc_client.c</text>
</a>
</g>
</g>
<!-- Node1&#45;&gt;Node4 -->
<g id="edge9" class="edge">
<title>Node1&#45;&gt;Node4</title>
<path fill="none" stroke="#63b8ff" d="M421.48,-129.73C385.4,-122.92 342.39,-112.24 306,-96 267.8,-78.95 229.17,-48.41 208.13,-30.4"/>
<polygon fill="#63b8ff" stroke="#63b8ff" points="420.49,-133.1 430.95,-131.45 421.74,-126.21 420.49,-133.1"/>
</g>
<!-- Node5 -->
<g id="node5" class="node">
<title>Node5</title>
<g id="a_node5"><a xlink:href="ee_2network_2netman_2src_2rpc__server_8c_source.html" target="_top" xlink:title=" ">
<polygon fill="white" stroke="#666666" points="384,-30 268,-30 268,0 384,0 384,-30"/>
<text text-anchor="start" x="276" y="-18" font-family="Helvetica,sans-Serif" font-size="10.00">ee/network/netman/src</text>
<text text-anchor="middle" x="326" y="-7" font-family="Helvetica,sans-Serif" font-size="10.00">/rpc_server.c</text>
</a>
</g>
</g>
<!-- Node1&#45;&gt;Node5 -->
<g id="edge10" class="edge">
<title>Node1&#45;&gt;Node5</title>
<path fill="none" stroke="#63b8ff" d="M420.72,-130.95C378.02,-123.91 331.02,-112.64 318,-96 303.29,-77.21 311.8,-47.83 319.07,-30.39"/>
<polygon fill="#63b8ff" stroke="#63b8ff" points="420.12,-134.4 430.55,-132.5 421.21,-127.48 420.12,-134.4"/>
</g>
<!-- Node6 -->
<g id="node6" class="node">
<title>Node6</title>
<g id="a_node6"><a xlink:href="iop_2network_2netman_2src_2netman_8c_source.html" target="_top" xlink:title=" ">
<polygon fill="white" stroke="#666666" points="504,-30 402,-30 402,0 504,0 504,-30"/>
<text text-anchor="start" x="410" y="-18" font-family="Helvetica,sans-Serif" font-size="10.00">iop/network/netman</text>
<text text-anchor="middle" x="453" y="-7" font-family="Helvetica,sans-Serif" font-size="10.00">/src/netman.c</text>
</a>
</g>
</g>
<!-- Node1&#45;&gt;Node6 -->
<g id="edge12" class="edge">
<title>Node1&#45;&gt;Node6</title>
<path fill="none" stroke="#63b8ff" d="M490.88,-120.8C481.79,-95.66 466.29,-52.76 458.22,-30.45"/>
<polygon fill="#63b8ff" stroke="#63b8ff" points="487.56,-121.91 494.25,-130.12 494.14,-119.53 487.56,-121.91"/>
</g>
<!-- Node7 -->
<g id="node7" class="node">
<title>Node7</title>
<g id="a_node7"><a xlink:href="iop_2network_2netman_2src_2rpc__client_8c_source.html" target="_top" xlink:title=" ">
<polygon fill="white" stroke="#666666" points="624,-30 522,-30 522,0 624,0 624,-30"/>
<text text-anchor="start" x="530" y="-18" font-family="Helvetica,sans-Serif" font-size="10.00">iop/network/netman</text>
<text text-anchor="middle" x="573" y="-7" font-family="Helvetica,sans-Serif" font-size="10.00">/src/rpc_client.c</text>
</a>
</g>
</g>
<!-- Node1&#45;&gt;Node7 -->
<g id="edge13" class="edge">
<title>Node1&#45;&gt;Node7</title>
<path fill="none" stroke="#63b8ff" d="M508.36,-122.01C516.93,-106.85 529.51,-84.89 541,-66 548.39,-53.85 557.11,-40.27 563.58,-30.33"/>
<polygon fill="#63b8ff" stroke="#63b8ff" points="505.5,-119.96 503.64,-130.39 511.6,-123.39 505.5,-119.96"/>
</g>
<!-- Node8 -->
<g id="node8" class="node">
<title>Node8</title>
<g id="a_node8"><a xlink:href="iop_2network_2netman_2src_2rpc__server_8c_source.html" target="_top" xlink:title=" ">
<polygon fill="white" stroke="#666666" points="744,-30 642,-30 642,0 744,0 744,-30"/>
<text text-anchor="start" x="650" y="-18" font-family="Helvetica,sans-Serif" font-size="10.00">iop/network/netman</text>
<text text-anchor="middle" x="693" y="-7" font-family="Helvetica,sans-Serif" font-size="10.00">/src/rpc_server.c</text>
</a>
</g>
</g>
<!-- Node1&#45;&gt;Node8 -->
<g id="edge14" class="edge">
<title>Node1&#45;&gt;Node8</title>
<path fill="none" stroke="#63b8ff" d="M514.31,-123.32C532.76,-104.13 561.95,-74.64 575,-66 597.63,-51.01 625.49,-38.96 648.46,-30.44"/>
<polygon fill="#63b8ff" stroke="#63b8ff" points="511.88,-120.79 507.5,-130.44 516.94,-125.63 511.88,-120.79"/>
</g>
<!-- Node9 -->
<g id="node9" class="node">
<title>Node9</title>
<g id="a_node9"><a xlink:href="ee_2network_2tcpip_2src_2ps2ip_8c.html" target="_top" xlink:title=" ">
<polygon fill="white" stroke="#666666" points="688.5,-96 583.5,-96 583.5,-66 688.5,-66 688.5,-96"/>
<text text-anchor="start" x="591.5" y="-84" font-family="Helvetica,sans-Serif" font-size="10.00">ee/network/tcpip/src</text>
<text text-anchor="middle" x="636" y="-73" font-family="Helvetica,sans-Serif" font-size="10.00">/ps2ip.c</text>
</a>
</g>
</g>
<!-- Node1&#45;&gt;Node9 -->
<g id="edge11" class="edge">
<title>Node1&#45;&gt;Node9</title>
<path fill="none" stroke="#63b8ff" d="M529.55,-127.13C551.16,-117.96 579.81,-105.82 601.94,-96.44"/>
<polygon fill="#63b8ff" stroke="#63b8ff" points="528.19,-123.9 520.35,-131.02 530.93,-130.34 528.19,-123.9"/>
</g>
<!-- Node10 -->
<g id="node10" class="node">
<title>Node10</title>
<g id="a_node10"><a xlink:href="iop_2tcpip_2tcpip-netman_2src_2irx__imports_8h_source.html" target="_top" xlink:title=" ">
<polygon fill="white" stroke="#666666" points="819.5,-96 706.5,-96 706.5,-66 819.5,-66 819.5,-96"/>
<text text-anchor="start" x="714.5" y="-84" font-family="Helvetica,sans-Serif" font-size="10.00">iop/tcpip/tcpip&#45;netman</text>
<text text-anchor="middle" x="763" y="-73" font-family="Helvetica,sans-Serif" font-size="10.00">/src/irx_imports.h</text>
</a>
</g>
</g>
<!-- Node1&#45;&gt;Node10 -->
<g id="edge15" class="edge">
<title>Node1&#45;&gt;Node10</title>
<path fill="none" stroke="#63b8ff" d="M549.52,-129.13C594.53,-119.19 659.76,-104.79 706.25,-94.53"/>
<polygon fill="#63b8ff" stroke="#63b8ff" points="549.02,-125.65 540.01,-131.23 550.53,-132.49 549.02,-125.65"/>
</g>
<!-- Node11 -->
<g id="node11" class="node">
<title>Node11</title>
<g id="a_node11"><a xlink:href="iop_2tcpip_2tcpip-netman_2src_2ps2ip_8c.html" target="_top" xlink:title=" ">
<polygon fill="white" stroke="#666666" points="950.5,-96 837.5,-96 837.5,-66 950.5,-66 950.5,-96"/>
<text text-anchor="start" x="845.5" y="-84" font-family="Helvetica,sans-Serif" font-size="10.00">iop/tcpip/tcpip&#45;netman</text>
<text text-anchor="middle" x="894" y="-73" font-family="Helvetica,sans-Serif" font-size="10.00">/src/ps2ip.c</text>
</a>
</g>
</g>
<!-- Node1&#45;&gt;Node11 -->
<g id="edge16" class="edge">
<title>Node1&#45;&gt;Node11</title>
<path fill="none" stroke="#63b8ff" d="M575.2,-131.86C642.45,-123.92 742.47,-111.11 829,-96 831.73,-95.52 834.52,-95.01 837.33,-94.48"/>
<polygon fill="#63b8ff" stroke="#63b8ff" points="574.89,-128.37 565.37,-133.01 575.71,-135.32 574.89,-128.37"/>
</g>
<!-- Node2&#45;&gt;Node3 -->
<g id="edge2" class="edge">
<title>Node2&#45;&gt;Node3</title>
<path fill="none" stroke="#63b8ff" d="M316.06,-66.57C263.01,-56.7 189.49,-42.84 125,-30 122.2,-29.44 119.34,-28.87 116.45,-28.28"/>
<polygon fill="#63b8ff" stroke="#63b8ff" points="315.1,-69.95 325.57,-68.33 316.38,-63.07 315.1,-69.95"/>
</g>
<!-- Node2&#45;&gt;Node4 -->
<g id="edge3" class="edge">
<title>Node2&#45;&gt;Node4</title>
<path fill="none" stroke="#63b8ff" d="M334.21,-62.2C303.37,-52.18 265.36,-39.83 236.4,-30.43"/>
<polygon fill="#63b8ff" stroke="#63b8ff" points="332.76,-65.41 343.35,-65.17 334.92,-58.75 332.76,-65.41"/>
</g>
<!-- Node2&#45;&gt;Node5 -->
<g id="edge4" class="edge">
<title>Node2&#45;&gt;Node5</title>
<path fill="none" stroke="#63b8ff" d="M367.15,-57.81C358.13,-48.64 347.93,-38.28 339.94,-30.16"/>
<polygon fill="#63b8ff" stroke="#63b8ff" points="364.45,-60.05 373.96,-64.72 369.44,-55.14 364.45,-60.05"/>
</g>
<!-- Node2&#45;&gt;Node6 -->
<g id="edge5" class="edge">
<title>Node2&#45;&gt;Node6</title>
<path fill="none" stroke="#63b8ff" d="M411.19,-57.81C420.36,-48.64 430.72,-38.28 438.84,-30.16"/>
<polygon fill="#63b8ff" stroke="#63b8ff" points="408.87,-55.18 404.27,-64.73 413.82,-60.13 408.87,-55.18"/>
</g>
<!-- Node2&#45;&gt;Node7 -->
<g id="edge6" class="edge">
<title>Node2&#45;&gt;Node7</title>
<path fill="none" stroke="#63b8ff" d="M440.93,-61.94C469.6,-51.97 504.71,-39.75 531.53,-30.43"/>
<polygon fill="#63b8ff" stroke="#63b8ff" points="440.02,-58.55 431.72,-65.14 442.32,-65.16 440.02,-58.55"/>
</g>
<!-- Node2&#45;&gt;Node8 -->
<g id="edge7" class="edge">
<title>Node2&#45;&gt;Node8</title>
<path fill="none" stroke="#63b8ff" d="M461.8,-65.62C510.36,-55.89 575.59,-42.58 633,-30 635.82,-29.38 638.71,-28.74 641.63,-28.08"/>
<polygon fill="#63b8ff" stroke="#63b8ff" points="461.37,-62.13 452.25,-67.53 462.75,-69 461.37,-62.13"/>
</g>
</g>
</svg>
