<?xml version="1.0" encoding="UTF-8" standalone="no"?>
<!DOCTYPE svg PUBLIC "-//W3C//DTD SVG 1.1//EN"
 "http://www.w3.org/Graphics/SVG/1.1/DTD/svg11.dtd">
<!-- Generated by graphviz version 7.0.5 (20221223.1930)
 -->
<!-- Title: common/include/netman_rpc.h Pages: 1 -->
<svg width="752pt" height="104pt"
 viewBox="0.00 0.00 752.00 104.00" xmlns="http://www.w3.org/2000/svg" xmlns:xlink="http://www.w3.org/1999/xlink">
<g id="graph0" class="graph" transform="scale(1 1) rotate(0) translate(4 100)">
<title>common/include/netman_rpc.h</title>
<!-- Node1 -->
<g id="node1" class="node">
<title>Node1</title>
<g id="a_node1"><a xlink:title=" ">
<polygon fill="#999999" stroke="#666666" points="450.5,-96 327.5,-96 327.5,-66 450.5,-66 450.5,-96"/>
<text text-anchor="start" x="335.5" y="-84" font-family="Helvetica,sans-Serif" font-size="10.00">common/include/netman</text>
<text text-anchor="middle" x="389" y="-73" font-family="Helvetica,sans-Serif" font-size="10.00">_rpc.h</text>
</a>
</g>
</g>
<!-- Node2 -->
<g id="node2" class="node">
<title>Node2</title>
<g id="a_node2"><a xlink:href="ee_2network_2netman_2src_2netman_8c_source.html" target="_top" xlink:title=" ">
<polygon fill="white" stroke="#666666" points="116,-30 0,-30 0,0 116,0 116,-30"/>
<text text-anchor="start" x="8" y="-18" font-family="Helvetica,sans-Serif" font-size="10.00">ee/network/netman/src</text>
<text text-anchor="middle" x="58" y="-7" font-family="Helvetica,sans-Serif" font-size="10.00">/netman.c</text>
</a>
</g>
</g>
<!-- Node1&#45;&gt;Node2 -->
<g id="edge1" class="edge">
<title>Node1&#45;&gt;Node2</title>
<path fill="none" stroke="#63b8ff" d="M316.06,-66.57C263.01,-56.7 189.49,-42.84 125,-30 122.2,-29.44 119.34,-28.87 116.45,-28.28"/>
<polygon fill="#63b8ff" stroke="#63b8ff" points="315.1,-69.95 325.57,-68.33 316.38,-63.07 315.1,-69.95"/>
</g>
<!-- Node3 -->
<g id="node3" class="node">
<title>Node3</title>
<g id="a_node3"><a xlink:href="ee_2network_2netman_2src_2rpc__client_8c_source.html" target="_top" xlink:title=" ">
<polygon fill="white" stroke="#666666" points="250,-30 134,-30 134,0 250,0 250,-30"/>
<text text-anchor="start" x="142" y="-18" font-family="Helvetica,sans-Serif" font-size="10.00">ee/network/netman/src</text>
<text text-anchor="middle" x="192" y="-7" font-family="Helvetica,sans-Serif" font-size="10.00">/rpc_client.c</text>
</a>
</g>
</g>
<!-- Node1&#45;&gt;Node3 -->
<g id="edge2" class="edge">
<title>Node1&#45;&gt;Node3</title>
<path fill="none" stroke="#63b8ff" d="M334.21,-62.2C303.37,-52.18 265.36,-39.83 236.4,-30.43"/>
<polygon fill="#63b8ff" stroke="#63b8ff" points="332.76,-65.41 343.35,-65.17 334.92,-58.75 332.76,-65.41"/>
</g>
<!-- Node4 -->
<g id="node4" class="node">
<title>Node4</title>
<g id="a_node4"><a xlink:href="ee_2network_2netman_2src_2rpc__server_8c_source.html" target="_top" xlink:title=" ">
<polygon fill="white" stroke="#666666" points="384,-30 268,-30 268,0 384,0 384,-30"/>
<text text-anchor="start" x="276" y="-18" font-family="Helvetica,sans-Serif" font-size="10.00">ee/network/netman/src</text>
<text text-anchor="middle" x="326" y="-7" font-family="Helvetica,sans-Serif" font-size="10.00">/rpc_server.c</text>
</a>
</g>
</g>
<!-- Node1&#45;&gt;Node4 -->
<g id="edge3" class="edge">
<title>Node1&#45;&gt;Node4</title>
<path fill="none" stroke="#63b8ff" d="M367.15,-57.81C358.13,-48.64 347.93,-38.28 339.94,-30.16"/>
<polygon fill="#63b8ff" stroke="#63b8ff" points="364.45,-60.05 373.96,-64.72 369.44,-55.14 364.45,-60.05"/>
</g>
<!-- Node5 -->
<g id="node5" class="node">
<title>Node5</title>
<g id="a_node5"><a xlink:href="iop_2network_2netman_2src_2netman_8c_source.html" target="_top" xlink:title=" ">
<polygon fill="white" stroke="#666666" points="504,-30 402,-30 402,0 504,0 504,-30"/>
<text text-anchor="start" x="410" y="-18" font-family="Helvetica,sans-Serif" font-size="10.00">iop/network/netman</text>
<text text-anchor="middle" x="453" y="-7" font-family="Helvetica,sans-Serif" font-size="10.00">/src/netman.c</text>
</a>
</g>
</g>
<!-- Node1&#45;&gt;Node5 -->
<g id="edge4" class="edge">
<title>Node1&#45;&gt;Node5</title>
<path fill="none" stroke="#63b8ff" d="M411.19,-57.81C420.36,-48.64 430.72,-38.28 438.84,-30.16"/>
<polygon fill="#63b8ff" stroke="#63b8ff" points="408.87,-55.18 404.27,-64.73 413.82,-60.13 408.87,-55.18"/>
</g>
<!-- Node6 -->
<g id="node6" class="node">
<title>Node6</title>
<g id="a_node6"><a xlink:href="iop_2network_2netman_2src_2rpc__client_8c_source.html" target="_top" xlink:title=" ">
<polygon fill="white" stroke="#666666" points="624,-30 522,-30 522,0 624,0 624,-30"/>
<text text-anchor="start" x="530" y="-18" font-family="Helvetica,sans-Serif" font-size="10.00">iop/network/netman</text>
<text text-anchor="middle" x="573" y="-7" font-family="Helvetica,sans-Serif" font-size="10.00">/src/rpc_client.c</text>
</a>
</g>
</g>
<!-- Node1&#45;&gt;Node6 -->
<g id="edge5" class="edge">
<title>Node1&#45;&gt;Node6</title>
<path fill="none" stroke="#63b8ff" d="M440.93,-61.94C469.6,-51.97 504.71,-39.75 531.53,-30.43"/>
<polygon fill="#63b8ff" stroke="#63b8ff" points="440.02,-58.55 431.72,-65.14 442.32,-65.16 440.02,-58.55"/>
</g>
<!-- Node7 -->
<g id="node7" class="node">
<title>Node7</title>
<g id="a_node7"><a xlink:href="iop_2network_2netman_2src_2rpc__server_8c_source.html" target="_top" xlink:title=" ">
<polygon fill="white" stroke="#666666" points="744,-30 642,-30 642,0 744,0 744,-30"/>
<text text-anchor="start" x="650" y="-18" font-family="Helvetica,sans-Serif" font-size="10.00">iop/network/netman</text>
<text text-anchor="middle" x="693" y="-7" font-family="Helvetica,sans-Serif" font-size="10.00">/src/rpc_server.c</text>
</a>
</g>
</g>
<!-- Node1&#45;&gt;Node7 -->
<g id="edge6" class="edge">
<title>Node1&#45;&gt;Node7</title>
<path fill="none" stroke="#63b8ff" d="M461.8,-65.62C510.36,-55.89 575.59,-42.58 633,-30 635.82,-29.38 638.71,-28.74 641.63,-28.08"/>
<polygon fill="#63b8ff" stroke="#63b8ff" points="461.37,-62.13 452.25,-67.53 462.75,-69 461.37,-62.13"/>
</g>
</g>
</svg>
