<?xml version="1.0" encoding="UTF-8" standalone="no"?>
<!DOCTYPE svg PUBLIC "-//W3C//DTD SVG 1.1//EN"
 "http://www.w3.org/Graphics/SVG/1.1/DTD/svg11.dtd">
<!-- Generated by graphviz version 7.0.5 (20221223.1930)
 -->
<!-- Title: iop/fs/fakehost/src/nprintf.c Pages: 1 -->
<svg width="558pt" height="258pt"
 viewBox="0.00 0.00 558.00 258.00" xmlns="http://www.w3.org/2000/svg" xmlns:xlink="http://www.w3.org/1999/xlink">
<g id="graph0" class="graph" transform="scale(1 1) rotate(0) translate(4 254)">
<title>iop/fs/fakehost/src/nprintf.c</title>
<!-- Node1 -->
<g id="node1" class="node">
<title>Node1</title>
<g id="a_node1"><a xlink:title=" ">
<polygon fill="#999999" stroke="#666666" points="317.5,-250 219.5,-250 219.5,-220 317.5,-220 317.5,-250"/>
<text text-anchor="start" x="227.5" y="-238" font-family="Helvetica,sans-Serif" font-size="10.00">iop/fs/fakehost/src</text>
<text text-anchor="middle" x="268.5" y="-227" font-family="Helvetica,sans-Serif" font-size="10.00">/nprintf.c</text>
</a>
</g>
</g>
<!-- Node2 -->
<g id="node2" class="node">
<title>Node2</title>
<g id="a_node2"><a xlink:title=" ">
<polygon fill="#e0e0e0" stroke="#999999" points="47,-184 0,-184 0,-165 47,-165 47,-184"/>
<text text-anchor="middle" x="23.5" y="-172" font-family="Helvetica,sans-Serif" font-size="10.00">types.h</text>
</a>
</g>
</g>
<!-- Node1&#45;&gt;Node2 -->
<g id="edge1" class="edge">
<title>Node1&#45;&gt;Node2</title>
<path fill="none" stroke="#63b8ff" d="M219.17,-222.67C178.59,-213.28 119.31,-199.4 58.29,-184.4"/>
<polygon fill="#63b8ff" stroke="#63b8ff" points="59.3,-181.04 48.75,-182.05 57.62,-187.84 59.3,-181.04"/>
</g>
<!-- Node3 -->
<g id="node3" class="node">
<title>Node3</title>
<g id="a_node3"><a xlink:href="stdio_8h.html" target="_top" xlink:title=" ">
<polygon fill="white" stroke="#666666" points="183,-184 138,-184 138,-165 183,-165 183,-184"/>
<text text-anchor="middle" x="160.5" y="-172" font-family="Helvetica,sans-Serif" font-size="10.00">stdio.h</text>
</a>
</g>
</g>
<!-- Node1&#45;&gt;Node3 -->
<g id="edge2" class="edge">
<title>Node1&#45;&gt;Node3</title>
<path fill="none" stroke="#63b8ff" d="M241.8,-219.54C224.94,-210.4 203.26,-198.66 186.52,-189.6"/>
<polygon fill="#63b8ff" stroke="#63b8ff" points="188.62,-186.75 178.16,-185.07 185.29,-192.91 188.62,-186.75"/>
</g>
<!-- Node9 -->
<g id="node9" class="node">
<title>Node9</title>
<g id="a_node9"><a xlink:href="sysclib_8h.html" target="_top" xlink:title=" ">
<polygon fill="white" stroke="#666666" points="119.5,-184 65.5,-184 65.5,-165 119.5,-165 119.5,-184"/>
<text text-anchor="middle" x="92.5" y="-172" font-family="Helvetica,sans-Serif" font-size="10.00">sysclib.h</text>
</a>
</g>
</g>
<!-- Node1&#45;&gt;Node9 -->
<g id="edge8" class="edge">
<title>Node1&#45;&gt;Node9</title>
<path fill="none" stroke="#63b8ff" d="M224.99,-219.54C195.92,-209.87 158.05,-197.29 130.24,-188.04"/>
<polygon fill="#63b8ff" stroke="#63b8ff" points="131.4,-184.74 120.81,-184.91 129.19,-191.39 131.4,-184.74"/>
</g>
<!-- Node12 -->
<g id="node12" class="node">
<title>Node12</title>
<g id="a_node12"><a xlink:href="thbase_8h.html" target="_top" xlink:title=" ">
<polygon fill="white" stroke="#666666" points="404,-184 351,-184 351,-165 404,-165 404,-184"/>
<text text-anchor="middle" x="377.5" y="-172" font-family="Helvetica,sans-Serif" font-size="10.00">thbase.h</text>
</a>
</g>
</g>
<!-- Node1&#45;&gt;Node12 -->
<g id="edge15" class="edge">
<title>Node1&#45;&gt;Node12</title>
<path fill="none" stroke="#63b8ff" d="M295.44,-219.54C312.46,-210.4 334.35,-198.66 351.24,-189.6"/>
<polygon fill="#63b8ff" stroke="#63b8ff" points="352.53,-192.87 359.68,-185.06 349.22,-186.71 352.53,-192.87"/>
</g>
<!-- Node13 -->
<g id="node13" class="node">
<title>Node13</title>
<g id="a_node13"><a xlink:href="intrman_8h.html" target="_top" xlink:title=" ">
<polygon fill="white" stroke="#666666" points="478.5,-184 422.5,-184 422.5,-165 478.5,-165 478.5,-184"/>
<text text-anchor="middle" x="450.5" y="-172" font-family="Helvetica,sans-Serif" font-size="10.00">intrman.h</text>
</a>
</g>
</g>
<!-- Node1&#45;&gt;Node13 -->
<g id="edge18" class="edge">
<title>Node1&#45;&gt;Node13</title>
<path fill="none" stroke="#63b8ff" d="M313.49,-219.54C343.69,-209.83 383.07,-197.17 411.85,-187.92"/>
<polygon fill="#63b8ff" stroke="#63b8ff" points="412.82,-191.29 421.27,-184.9 410.68,-184.62 412.82,-191.29"/>
</g>
<!-- Node14 -->
<g id="node14" class="node">
<title>Node14</title>
<g id="a_node14"><a xlink:href="sysmem_8h.html" target="_top" xlink:title=" ">
<polygon fill="white" stroke="#666666" points="262,-184 201,-184 201,-165 262,-165 262,-184"/>
<text text-anchor="middle" x="231.5" y="-172" font-family="Helvetica,sans-Serif" font-size="10.00">sysmem.h</text>
</a>
</g>
</g>
<!-- Node1&#45;&gt;Node14 -->
<g id="edge21" class="edge">
<title>Node1&#45;&gt;Node14</title>
<path fill="none" stroke="#63b8ff" d="M259.35,-219.54C254.42,-211.74 248.28,-202.03 243.02,-193.71"/>
<polygon fill="#63b8ff" stroke="#63b8ff" points="246.1,-192.03 237.8,-185.45 240.18,-195.78 246.1,-192.03"/>
</g>
<!-- Node15 -->
<g id="node15" class="node">
<title>Node15</title>
<g id="a_node15"><a xlink:href="sifman_8h.html" target="_top" xlink:title=" ">
<polygon fill="white" stroke="#666666" points="333,-184 280,-184 280,-165 333,-165 333,-184"/>
<text text-anchor="middle" x="306.5" y="-172" font-family="Helvetica,sans-Serif" font-size="10.00">sifman.h</text>
</a>
</g>
</g>
<!-- Node1&#45;&gt;Node15 -->
<g id="edge25" class="edge">
<title>Node1&#45;&gt;Node15</title>
<path fill="none" stroke="#63b8ff" d="M277.89,-219.54C282.96,-211.74 289.27,-202.03 294.67,-193.71"/>
<polygon fill="#63b8ff" stroke="#63b8ff" points="297.53,-195.74 300.04,-185.44 291.66,-191.92 297.53,-195.74"/>
</g>
<!-- Node16 -->
<g id="node16" class="node">
<title>Node16</title>
<g id="a_node16"><a xlink:title=" ">
<polygon fill="#e0e0e0" stroke="#999999" points="550,-184 497,-184 497,-165 550,-165 550,-184"/>
<text text-anchor="middle" x="523.5" y="-172" font-family="Helvetica,sans-Serif" font-size="10.00">sifcmd.h</text>
</a>
</g>
</g>
<!-- Node1&#45;&gt;Node16 -->
<g id="edge28" class="edge">
<title>Node1&#45;&gt;Node16</title>
<path fill="none" stroke="#63b8ff" d="M317.67,-222.88C359.64,-213.37 421.91,-199.2 485.69,-184.41"/>
<polygon fill="#63b8ff" stroke="#63b8ff" points="486.35,-187.85 495.29,-182.18 484.76,-181.03 486.35,-187.85"/>
</g>
<!-- Node4 -->
<g id="node4" class="node">
<title>Node4</title>
<g id="a_node4"><a xlink:title=" ">
<polygon fill="#e0e0e0" stroke="#999999" points="207,-129 156,-129 156,-110 207,-110 207,-129"/>
<text text-anchor="middle" x="181.5" y="-117" font-family="Helvetica,sans-Serif" font-size="10.00">stdarg.h</text>
</a>
</g>
</g>
<!-- Node3&#45;&gt;Node4 -->
<g id="edge3" class="edge">
<title>Node3&#45;&gt;Node4</title>
<path fill="none" stroke="#63b8ff" d="M163.97,-164.75C166.63,-158.04 170.4,-148.52 173.76,-140.02"/>
<polygon fill="#63b8ff" stroke="#63b8ff" points="176.97,-141.44 177.4,-130.85 170.46,-138.86 176.97,-141.44"/>
</g>
<!-- Node5 -->
<g id="node5" class="node">
<title>Node5</title>
<g id="a_node5"><a xlink:href="irx_8h.html" target="_top" xlink:title=" ">
<polygon fill="white" stroke="#666666" points="297.5,-129 263.5,-129 263.5,-110 297.5,-110 297.5,-129"/>
<text text-anchor="middle" x="280.5" y="-117" font-family="Helvetica,sans-Serif" font-size="10.00">irx.h</text>
</a>
</g>
</g>
<!-- Node3&#45;&gt;Node5 -->
<g id="edge4" class="edge">
<title>Node3&#45;&gt;Node5</title>
<path fill="none" stroke="#63b8ff" d="M180.86,-164.51C200.65,-155.77 230.86,-142.42 252.83,-132.72"/>
<polygon fill="#63b8ff" stroke="#63b8ff" points="254.05,-136.01 261.78,-128.77 251.22,-129.61 254.05,-136.01"/>
</g>
<!-- Node6 -->
<g id="node6" class="node">
<title>Node6</title>
<g id="a_node6"><a xlink:href="iop_2kernel_2include_2types_8h_source.html" target="_top" xlink:title=" ">
<polygon fill="white" stroke="#666666" points="304,-74 257,-74 257,-55 304,-55 304,-74"/>
<text text-anchor="middle" x="280.5" y="-62" font-family="Helvetica,sans-Serif" font-size="10.00">types.h</text>
</a>
</g>
</g>
<!-- Node5&#45;&gt;Node6 -->
<g id="edge5" class="edge">
<title>Node5&#45;&gt;Node6</title>
<path fill="none" stroke="#63b8ff" d="M280.5,-109.75C280.5,-103.27 280.5,-94.16 280.5,-85.9"/>
<polygon fill="#63b8ff" stroke="#63b8ff" points="284,-85.96 280.5,-75.96 277,-85.96 284,-85.96"/>
</g>
<!-- Node7 -->
<g id="node7" class="node">
<title>Node7</title>
<g id="a_node7"><a xlink:title=" ">
<polygon fill="#e0e0e0" stroke="#999999" points="306,-19 255,-19 255,0 306,0 306,-19"/>
<text text-anchor="middle" x="280.5" y="-7" font-family="Helvetica,sans-Serif" font-size="10.00">stddef.h</text>
</a>
</g>
</g>
<!-- Node6&#45;&gt;Node7 -->
<g id="edge6" class="edge">
<title>Node6&#45;&gt;Node7</title>
<path fill="none" stroke="#63b8ff" d="M280.5,-54.75C280.5,-48.27 280.5,-39.16 280.5,-30.9"/>
<polygon fill="#63b8ff" stroke="#63b8ff" points="284,-30.96 280.5,-20.96 277,-30.96 284,-30.96"/>
</g>
<!-- Node8 -->
<g id="node8" class="node">
<title>Node8</title>
<g id="a_node8"><a xlink:href="tamtypes_8h.html" target="_top" xlink:title=" ">
<polygon fill="white" stroke="#666666" points="191.5,-19 127.5,-19 127.5,0 191.5,0 191.5,-19"/>
<text text-anchor="middle" x="159.5" y="-7" font-family="Helvetica,sans-Serif" font-size="10.00">tamtypes.h</text>
</a>
</g>
</g>
<!-- Node6&#45;&gt;Node8 -->
<g id="edge7" class="edge">
<title>Node6&#45;&gt;Node8</title>
<path fill="none" stroke="#63b8ff" d="M259.97,-54.51C240.82,-46.12 212,-33.5 190.13,-23.92"/>
<polygon fill="#63b8ff" stroke="#63b8ff" points="191.67,-20.77 181.11,-19.97 188.86,-27.18 191.67,-20.77"/>
</g>
<!-- Node9&#45;&gt;Node4 -->
<g id="edge11" class="edge">
<title>Node9&#45;&gt;Node4</title>
<path fill="none" stroke="#63b8ff" d="M107.6,-164.51C121.1,-156.47 141.15,-144.53 156.96,-135.11"/>
<polygon fill="#63b8ff" stroke="#63b8ff" points="158.52,-138.26 165.32,-130.13 154.94,-132.24 158.52,-138.26"/>
</g>
<!-- Node9&#45;&gt;Node5 -->
<g id="edge10" class="edge">
<title>Node9&#45;&gt;Node5</title>
<path fill="none" stroke="#63b8ff" d="M119.84,-165.79C155.31,-155.79 216.87,-138.44 252.61,-128.36"/>
<polygon fill="#63b8ff" stroke="#63b8ff" points="253.11,-131.86 261.78,-125.78 251.21,-125.12 253.11,-131.86"/>
</g>
<!-- Node9&#45;&gt;Node6 -->
<g id="edge9" class="edge">
<title>Node9&#45;&gt;Node6</title>
<path fill="none" stroke="#63b8ff" d="M97.67,-164.79C106.19,-151.18 124.42,-124.89 146.5,-110 176.87,-89.52 217.43,-77.79 245.95,-71.57"/>
<polygon fill="#63b8ff" stroke="#63b8ff" points="246.41,-75.05 255.51,-69.61 245.01,-68.19 246.41,-75.05"/>
</g>
<!-- Node10 -->
<g id="node10" class="node">
<title>Node10</title>
<g id="a_node10"><a xlink:href="setjmp_8h.html" target="_top" xlink:title=" ">
<polygon fill="white" stroke="#666666" points="96,-74 43,-74 43,-55 96,-55 96,-74"/>
<text text-anchor="middle" x="69.5" y="-62" font-family="Helvetica,sans-Serif" font-size="10.00">setjmp.h</text>
</a>
</g>
</g>
<!-- Node9&#45;&gt;Node10 -->
<g id="edge12" class="edge">
<title>Node9&#45;&gt;Node10</title>
<path fill="none" stroke="#63b8ff" d="M77.07,-164.8C65.15,-157.11 49.54,-144.69 42.5,-129 35.54,-113.5 44.59,-95.68 54.03,-82.87"/>
<polygon fill="#63b8ff" stroke="#63b8ff" points="56.55,-85.32 60.12,-75.35 51.11,-80.92 56.55,-85.32"/>
</g>
<!-- Node11 -->
<g id="node11" class="node">
<title>Node11</title>
<g id="a_node11"><a xlink:href="ctype_8h.html" target="_top" xlink:title=" ">
<polygon fill="white" stroke="#666666" points="99,-129 52,-129 52,-110 99,-110 99,-129"/>
<text text-anchor="middle" x="75.5" y="-117" font-family="Helvetica,sans-Serif" font-size="10.00">ctype.h</text>
</a>
</g>
</g>
<!-- Node9&#45;&gt;Node11 -->
<g id="edge14" class="edge">
<title>Node9&#45;&gt;Node11</title>
<path fill="none" stroke="#63b8ff" d="M89.69,-164.75C87.56,-158.11 84.56,-148.73 81.86,-140.31"/>
<polygon fill="#63b8ff" stroke="#63b8ff" points="85.22,-139.34 78.83,-130.88 78.55,-141.47 85.22,-139.34"/>
</g>
<!-- Node10&#45;&gt;Node8 -->
<g id="edge13" class="edge">
<title>Node10&#45;&gt;Node8</title>
<path fill="none" stroke="#63b8ff" d="M84.77,-54.51C98.43,-46.47 118.7,-34.53 134.68,-25.11"/>
<polygon fill="#63b8ff" stroke="#63b8ff" points="136.31,-28.22 143.15,-20.13 132.76,-22.18 136.31,-28.22"/>
</g>
<!-- Node12&#45;&gt;Node5 -->
<g id="edge17" class="edge">
<title>Node12&#45;&gt;Node5</title>
<path fill="none" stroke="#63b8ff" d="M361.05,-164.51C346.18,-156.39 324.06,-144.3 306.75,-134.85"/>
<polygon fill="#63b8ff" stroke="#63b8ff" points="308.49,-131.81 298.04,-130.08 305.14,-137.95 308.49,-131.81"/>
</g>
<!-- Node12&#45;&gt;Node6 -->
<g id="edge16" class="edge">
<title>Node12&#45;&gt;Node6</title>
<path fill="none" stroke="#63b8ff" d="M369.95,-164.82C359.25,-152.54 339.02,-129.43 321.5,-110 313.32,-100.93 304.12,-90.92 296.5,-82.7"/>
<polygon fill="#63b8ff" stroke="#63b8ff" points="299.12,-80.37 289.75,-75.42 293.99,-85.13 299.12,-80.37"/>
</g>
<!-- Node13&#45;&gt;Node5 -->
<g id="edge20" class="edge">
<title>Node13&#45;&gt;Node5</title>
<path fill="none" stroke="#63b8ff" d="M422.05,-164.63C390.39,-154.76 339.59,-138.92 308.24,-129.15"/>
<polygon fill="#63b8ff" stroke="#63b8ff" points="309.67,-125.93 299.08,-126.29 307.58,-132.61 309.67,-125.93"/>
</g>
<!-- Node13&#45;&gt;Node6 -->
<g id="edge19" class="edge">
<title>Node13&#45;&gt;Node6</title>
<path fill="none" stroke="#63b8ff" d="M436.59,-164.66C407.57,-146.23 340.32,-103.5 304.29,-80.62"/>
<polygon fill="#63b8ff" stroke="#63b8ff" points="306.2,-77.68 295.88,-75.27 302.45,-83.59 306.2,-77.68"/>
</g>
<!-- Node14&#45;&gt;Node4 -->
<g id="edge24" class="edge">
<title>Node14&#45;&gt;Node4</title>
<path fill="none" stroke="#63b8ff" d="M223.24,-164.75C216.34,-157.43 206.28,-146.76 197.76,-137.74"/>
<polygon fill="#63b8ff" stroke="#63b8ff" points="200.38,-135.42 190.97,-130.54 195.29,-140.22 200.38,-135.42"/>
</g>
<!-- Node14&#45;&gt;Node5 -->
<g id="edge23" class="edge">
<title>Node14&#45;&gt;Node5</title>
<path fill="none" stroke="#63b8ff" d="M239.59,-164.75C246.36,-157.43 256.22,-146.76 264.56,-137.74"/>
<polygon fill="#63b8ff" stroke="#63b8ff" points="266.99,-140.27 271.21,-130.55 261.85,-135.52 266.99,-140.27"/>
</g>
<!-- Node14&#45;&gt;Node6 -->
<g id="edge22" class="edge">
<title>Node14&#45;&gt;Node6</title>
<path fill="none" stroke="#63b8ff" d="M234.14,-164.67C237.98,-152.22 245.65,-128.9 254.5,-110 258.62,-101.2 263.93,-91.85 268.67,-84.01"/>
<polygon fill="#63b8ff" stroke="#63b8ff" points="271.51,-86.07 273.82,-75.73 265.57,-82.37 271.51,-86.07"/>
</g>
<!-- Node15&#45;&gt;Node5 -->
<g id="edge27" class="edge">
<title>Node15&#45;&gt;Node5</title>
<path fill="none" stroke="#63b8ff" d="M302.21,-164.75C298.88,-157.96 294.14,-148.3 289.94,-139.73"/>
<polygon fill="#63b8ff" stroke="#63b8ff" points="293.1,-138.24 285.55,-130.8 286.82,-141.32 293.1,-138.24"/>
</g>
<!-- Node15&#45;&gt;Node6 -->
<g id="edge26" class="edge">
<title>Node15&#45;&gt;Node6</title>
<path fill="none" stroke="#63b8ff" d="M307.93,-164.68C309.62,-152.24 311.63,-128.94 306.5,-110 303.99,-100.74 299.02,-91.42 294.09,-83.73"/>
<polygon fill="#63b8ff" stroke="#63b8ff" points="297.06,-81.87 288.49,-75.64 291.31,-85.86 297.06,-81.87"/>
</g>
</g>
</svg>
