<?xml version="1.0" encoding="UTF-8" standalone="no"?>
<!DOCTYPE svg PUBLIC "-//W3C//DTD SVG 1.1//EN"
 "http://www.w3.org/Graphics/SVG/1.1/DTD/svg11.dtd">
<!-- Generated by graphviz version 7.0.5 (20221223.1930)
 -->
<!-- Title: ee/kernel/src/osd_config.c Pages: 1 -->
<!--zoomable 302 -->
<svg id="main" version="1.1" xmlns="http://www.w3.org/2000/svg" xmlns:xlink="http://www.w3.org/1999/xlink" xml:space="preserve" onload="init(evt)">
<style type="text/css"><![CDATA[
.edge:hover path { stroke: red; }
.edge:hover polygon { stroke: red; fill: red; }
]]></style>
<script type="text/javascript"><![CDATA[
var edges = document.getElementsByTagName('g');
if (edges && edges.length) {
  for (var i=0;i<edges.length;i++) {
    if (edges[i].id.substr(0,4)=='edge') {
      edges[i].setAttribute('class','edge');
    }
  }
}
]]></script>
        <defs>
                <circle id="rim" cx="0" cy="0" r="7"/>
                <circle id="rim2" cx="0" cy="0" r="3.5"/>
                <g id="zoomPlus">
                        <use xlink:href="#rim" fill="#404040">
                                <set attributeName="fill" to="#808080" begin="zoomplus.mouseover" end="zoomplus.mouseout"/>
                        </use>
                        <path d="M-4,0h8M0,-4v8" fill="none" stroke="white" stroke-width="1.5" pointer-events="none"/>
                </g>
                <g id="zoomMin">
                        <use xlink:href="#rim" fill="#404040">
                                <set attributeName="fill" to="#808080" begin="zoomminus.mouseover" end="zoomminus.mouseout"/>
                        </use>
                        <path d="M-4,0h8" fill="none" stroke="white" stroke-width="1.5" pointer-events="none"/>
                </g>
                <g id="dirArrow">
                        <path fill="none" stroke="white" stroke-width="1.5" d="M0,-3.0v7 M-2.5,-0.5L0,-3.0L2.5,-0.5"/>
                </g>
               <g id="resetDef">
                       <use xlink:href="#rim2" fill="#404040">
                               <set attributeName="fill" to="#808080" begin="reset.mouseover" end="reset.mouseout"/>
                       </use>
               </g>
        </defs>

<script type="text/javascript">
var viewWidth = 688;
var viewHeight = 302;
var sectionId = 'dynsection-0';
</script>
<script xlink:href="svgpan.js"/>
<svg id="graph" class="graph">
<g id="viewport">
<title>ee/kernel/src/osd_config.c</title>
<!-- Node1 -->
<g id="node1" class="node">
<title>Node1</title>
<g id="a_node1"><a xlink:title=" ">
<polygon fill="#999999" stroke="#666666" points="459,-294 329,-294 329,-275 459,-275 459,-294"/>
<text text-anchor="middle" x="394" y="-282" font-family="Helvetica,sans-Serif" font-size="10.00">ee/kernel/src/osd_config.c</text>
</a>
</g>
</g>
<!-- Node2 -->
<g id="node2" class="node">
<title>Node2</title>
<g id="a_node2"><a xlink:href="tamtypes_8h.html" target="_top" xlink:title=" ">
<polygon fill="white" stroke="#666666" points="413,-19 349,-19 349,0 413,0 413,-19"/>
<text text-anchor="middle" x="381" y="-7" font-family="Helvetica,sans-Serif" font-size="10.00">tamtypes.h</text>
</a>
</g>
</g>
<!-- Node1&#45;&gt;Node2 -->
<g id="edge1" class="edge">
<title>Node1&#45;&gt;Node2</title>
<path fill="none" stroke="#63b8ff" d="M455.95,-274.55C511.4,-262.62 584,-235.54 584,-175.5 584,-175.5 584,-175.5 584,-118.5 584,-46.83 484.16,-22.57 424.52,-14.47"/>
<polygon fill="#63b8ff" stroke="#63b8ff" points="425.02,-11 414.67,-13.24 424.16,-17.95 425.02,-11"/>
</g>
<!-- Node3 -->
<g id="node3" class="node">
<title>Node3</title>
<g id="a_node3"><a xlink:href="kernel_8h.html" target="_top" xlink:title=" ">
<polygon fill="white" stroke="#666666" points="50,-184 0,-184 0,-165 50,-165 50,-184"/>
<text text-anchor="middle" x="25" y="-172" font-family="Helvetica,sans-Serif" font-size="10.00">kernel.h</text>
</a>
</g>
</g>
<!-- Node1&#45;&gt;Node3 -->
<g id="edge2" class="edge">
<title>Node1&#45;&gt;Node3</title>
<path fill="none" stroke="#63b8ff" d="M328.59,-275.56C281.05,-268.71 215.56,-257.03 160,-239 120.38,-226.14 77.25,-204.37 50.67,-189.97"/>
<polygon fill="#63b8ff" stroke="#63b8ff" points="52.45,-186.95 42,-185.21 49.08,-193.09 52.45,-186.95"/>
</g>
<!-- Node7 -->
<g id="node7" class="node">
<title>Node7</title>
<g id="a_node7"><a xlink:href="ps2sdkapi_8h_source.html" target="_top" xlink:title=" ">
<polygon fill="white" stroke="#666666" points="279,-239 211,-239 211,-220 279,-220 279,-239"/>
<text text-anchor="middle" x="245" y="-227" font-family="Helvetica,sans-Serif" font-size="10.00">ps2sdkapi.h</text>
</a>
</g>
</g>
<!-- Node1&#45;&gt;Node7 -->
<g id="edge7" class="edge">
<title>Node1&#45;&gt;Node7</title>
<path fill="none" stroke="#63b8ff" d="M368.72,-274.51C344.5,-265.89 307.7,-252.8 280.53,-243.14"/>
<polygon fill="#63b8ff" stroke="#63b8ff" points="281.92,-239.92 271.33,-239.87 279.58,-246.51 281.92,-239.92"/>
</g>
<!-- Node12 -->
<g id="node12" class="node">
<title>Node12</title>
<g id="a_node12"><a xlink:href="stdio_8h.html" target="_top" xlink:title=" ">
<polygon fill="white" stroke="#666666" points="113.5,-184 68.5,-184 68.5,-165 113.5,-165 113.5,-184"/>
<text text-anchor="middle" x="91" y="-172" font-family="Helvetica,sans-Serif" font-size="10.00">stdio.h</text>
</a>
</g>
</g>
<!-- Node1&#45;&gt;Node12 -->
<g id="edge13" class="edge">
<title>Node1&#45;&gt;Node12</title>
<path fill="none" stroke="#63b8ff" d="M335.55,-274.53C296.8,-267.49 245.32,-255.99 202,-239 169.35,-226.2 134.72,-205.01 113,-190.67"/>
<polygon fill="#63b8ff" stroke="#63b8ff" points="115.21,-187.94 104.96,-185.27 111.31,-193.75 115.21,-187.94"/>
</g>
<!-- Node15 -->
<g id="node15" class="node">
<title>Node15</title>
<g id="a_node15"><a xlink:href="fcntl_8h_source.html" target="_top" xlink:title=" ">
<polygon fill="white" stroke="#666666" points="424.5,-239 363.5,-239 363.5,-220 424.5,-220 424.5,-239"/>
<text text-anchor="middle" x="394" y="-227" font-family="Helvetica,sans-Serif" font-size="10.00">sys/fcntl.h</text>
</a>
</g>
</g>
<!-- Node1&#45;&gt;Node15 -->
<g id="edge19" class="edge">
<title>Node1&#45;&gt;Node15</title>
<path fill="none" stroke="#63b8ff" d="M394,-274.75C394,-268.27 394,-259.16 394,-250.9"/>
<polygon fill="#63b8ff" stroke="#63b8ff" points="397.5,-250.96 394,-240.96 390.5,-250.96 397.5,-250.96"/>
</g>
<!-- Node16 -->
<g id="node16" class="node">
<title>Node16</title>
<g id="a_node16"><a xlink:href="unistd_8h_source.html" target="_top" xlink:title=" ">
<polygon fill="white" stroke="#666666" points="511,-239 443,-239 443,-220 511,-220 511,-239"/>
<text text-anchor="middle" x="477" y="-227" font-family="Helvetica,sans-Serif" font-size="10.00">sys/unistd.h</text>
</a>
</g>
</g>
<!-- Node1&#45;&gt;Node16 -->
<g id="edge20" class="edge">
<title>Node1&#45;&gt;Node16</title>
<path fill="none" stroke="#63b8ff" d="M408.08,-274.51C420.56,-266.54 439.02,-254.75 453.69,-245.38"/>
<polygon fill="#63b8ff" stroke="#63b8ff" points="455.31,-248.5 461.85,-240.17 451.54,-242.6 455.31,-248.5"/>
</g>
<!-- Node17 -->
<g id="node17" class="node">
<title>Node17</title>
<g id="a_node17"><a xlink:href="string_8h_source.html" target="_top" xlink:title=" ">
<polygon fill="white" stroke="#666666" points="345,-239 297,-239 297,-220 345,-220 345,-239"/>
<text text-anchor="middle" x="321" y="-227" font-family="Helvetica,sans-Serif" font-size="10.00">string.h</text>
</a>
</g>
</g>
<!-- Node1&#45;&gt;Node17 -->
<g id="edge21" class="edge">
<title>Node1&#45;&gt;Node17</title>
<path fill="none" stroke="#63b8ff" d="M381.62,-274.51C370.85,-266.7 355.03,-255.21 342.25,-245.93"/>
<polygon fill="#63b8ff" stroke="#63b8ff" points="344.57,-243.29 334.43,-240.25 340.46,-248.95 344.57,-243.29"/>
</g>
<!-- Node21 -->
<g id="node21" class="node">
<title>Node21</title>
<g id="a_node21"><a xlink:href="osd__config_8h.html" target="_top" xlink:title=" ">
<polygon fill="white" stroke="#666666" points="555.5,-184 484.5,-184 484.5,-165 555.5,-165 555.5,-184"/>
<text text-anchor="middle" x="520" y="-172" font-family="Helvetica,sans-Serif" font-size="10.00">osd_config.h</text>
</a>
</g>
</g>
<!-- Node1&#45;&gt;Node21 -->
<g id="edge29" class="edge">
<title>Node1&#45;&gt;Node21</title>
<path fill="none" stroke="#63b8ff" d="M459.45,-275.99C482.43,-269.84 506,-258.79 520,-239 528.87,-226.46 528.08,-208.76 525.53,-195.23"/>
<polygon fill="#63b8ff" stroke="#63b8ff" points="528.98,-194.63 523.26,-185.72 522.17,-196.26 528.98,-194.63"/>
</g>
<!-- Node24 -->
<g id="node24" class="node">
<title>Node24</title>
<g id="a_node24"><a xlink:href="rom0__info_8h.html" target="_top" xlink:title=" ">
<polygon fill="white" stroke="#666666" points="679.5,-239 612.5,-239 612.5,-220 679.5,-220 679.5,-239"/>
<text text-anchor="middle" x="646" y="-227" font-family="Helvetica,sans-Serif" font-size="10.00">rom0_info.h</text>
</a>
</g>
</g>
<!-- Node1&#45;&gt;Node24 -->
<g id="edge34" class="edge">
<title>Node1&#45;&gt;Node24</title>
<path fill="none" stroke="#63b8ff" d="M436.75,-274.51C482.45,-264.9 554.59,-249.73 601.09,-239.94"/>
<polygon fill="#63b8ff" stroke="#63b8ff" points="601.79,-243.38 610.85,-237.89 600.35,-236.53 601.79,-243.38"/>
</g>
<!-- Node4 -->
<g id="node4" class="node">
<title>Node4</title>
<g id="a_node4"><a xlink:title=" ">
<polygon fill="#e0e0e0" stroke="#999999" points="160.5,-19 109.5,-19 109.5,0 160.5,0 160.5,-19"/>
<text text-anchor="middle" x="135" y="-7" font-family="Helvetica,sans-Serif" font-size="10.00">stddef.h</text>
</a>
</g>
</g>
<!-- Node3&#45;&gt;Node4 -->
<g id="edge3" class="edge">
<title>Node3&#45;&gt;Node4</title>
<path fill="none" stroke="#63b8ff" d="M29.01,-164.71C38.48,-144.41 63.58,-93.06 92,-55 99.36,-45.14 108.75,-35.19 116.87,-27.21"/>
<polygon fill="#63b8ff" stroke="#63b8ff" points="119.12,-29.9 123.94,-20.46 114.29,-24.84 119.12,-29.9"/>
</g>
<!-- Node5 -->
<g id="node5" class="node">
<title>Node5</title>
<g id="a_node5"><a xlink:title=" ">
<polygon fill="#e0e0e0" stroke="#999999" points="142.5,-129 91.5,-129 91.5,-110 142.5,-110 142.5,-129"/>
<text text-anchor="middle" x="117" y="-117" font-family="Helvetica,sans-Serif" font-size="10.00">stdarg.h</text>
</a>
</g>
</g>
<!-- Node3&#45;&gt;Node5 -->
<g id="edge4" class="edge">
<title>Node3&#45;&gt;Node5</title>
<path fill="none" stroke="#63b8ff" d="M40.61,-164.51C54.7,-156.39 75.69,-144.3 92.1,-134.85"/>
<polygon fill="#63b8ff" stroke="#63b8ff" points="93.39,-138.14 100.31,-130.11 89.9,-132.07 93.39,-138.14"/>
</g>
<!-- Node6 -->
<g id="node6" class="node">
<title>Node6</title>
<g id="a_node6"><a xlink:href="sifdma_8h.html" target="_top" xlink:title=" ">
<polygon fill="white" stroke="#666666" points="154.5,-74 101.5,-74 101.5,-55 154.5,-55 154.5,-74"/>
<text text-anchor="middle" x="128" y="-62" font-family="Helvetica,sans-Serif" font-size="10.00">sifdma.h</text>
</a>
</g>
</g>
<!-- Node3&#45;&gt;Node6 -->
<g id="edge5" class="edge">
<title>Node3&#45;&gt;Node6</title>
<path fill="none" stroke="#63b8ff" d="M32.55,-164.7C43.29,-152.27 63.71,-128.99 82,-110 91.15,-100.5 101.71,-90.24 110.41,-81.96"/>
<polygon fill="#63b8ff" stroke="#63b8ff" points="112.68,-84.63 117.55,-75.22 107.87,-79.54 112.68,-84.63"/>
</g>
<!-- Node6&#45;&gt;Node2 -->
<g id="edge6" class="edge">
<title>Node6&#45;&gt;Node2</title>
<path fill="none" stroke="#63b8ff" d="M154.6,-57.93C198.21,-48.79 285.33,-30.54 337.86,-19.54"/>
<polygon fill="#63b8ff" stroke="#63b8ff" points="338.29,-23.02 347.36,-17.55 336.85,-16.17 338.29,-23.02"/>
</g>
<!-- Node8 -->
<g id="node8" class="node">
<title>Node8</title>
<g id="a_node8"><a xlink:title=" ">
<polygon fill="#e0e0e0" stroke="#999999" points="334,-184 286,-184 286,-165 334,-165 334,-184"/>
<text text-anchor="middle" x="310" y="-172" font-family="Helvetica,sans-Serif" font-size="10.00">dirent.h</text>
</a>
</g>
</g>
<!-- Node7&#45;&gt;Node8 -->
<g id="edge8" class="edge">
<title>Node7&#45;&gt;Node8</title>
<path fill="none" stroke="#63b8ff" d="M256.03,-219.51C265.42,-211.85 279.15,-200.66 290.41,-191.47"/>
<polygon fill="#63b8ff" stroke="#63b8ff" points="292.43,-194.35 297.96,-185.31 288,-188.92 292.43,-194.35"/>
</g>
<!-- Node9 -->
<g id="node9" class="node">
<title>Node9</title>
<g id="a_node9"><a xlink:title=" ">
<polygon fill="#e0e0e0" stroke="#999999" points="190,-184 132,-184 132,-165 190,-165 190,-184"/>
<text text-anchor="middle" x="161" y="-172" font-family="Helvetica,sans-Serif" font-size="10.00">inttypes.h</text>
</a>
</g>
</g>
<!-- Node7&#45;&gt;Node9 -->
<g id="edge9" class="edge">
<title>Node7&#45;&gt;Node9</title>
<path fill="none" stroke="#63b8ff" d="M230.75,-219.51C218.12,-211.54 199.44,-199.75 184.59,-190.38"/>
<polygon fill="#63b8ff" stroke="#63b8ff" points="186.64,-187.54 176.32,-185.17 182.91,-193.46 186.64,-187.54"/>
</g>
<!-- Node10 -->
<g id="node10" class="node">
<title>Node10</title>
<g id="a_node10"><a xlink:title=" ">
<polygon fill="#e0e0e0" stroke="#999999" points="267.5,-184 208.5,-184 208.5,-165 267.5,-165 267.5,-184"/>
<text text-anchor="middle" x="238" y="-172" font-family="Helvetica,sans-Serif" font-size="10.00">sys/stat.h</text>
</a>
</g>
</g>
<!-- Node7&#45;&gt;Node10 -->
<g id="edge10" class="edge">
<title>Node7&#45;&gt;Node10</title>
<path fill="none" stroke="#63b8ff" d="M243.84,-219.75C242.98,-213.19 241.76,-203.95 240.66,-195.6"/>
<polygon fill="#63b8ff" stroke="#63b8ff" points="244.16,-195.4 239.38,-185.94 237.22,-196.31 244.16,-195.4"/>
</g>
<!-- Node11 -->
<g id="node11" class="node">
<title>Node11</title>
<g id="a_node11"><a xlink:href="timer_8h.html" target="_top" xlink:title=" ">
<polygon fill="white" stroke="#666666" points="404,-74 358,-74 358,-55 404,-55 404,-74"/>
<text text-anchor="middle" x="381" y="-62" font-family="Helvetica,sans-Serif" font-size="10.00">timer.h</text>
</a>
</g>
</g>
<!-- Node7&#45;&gt;Node11 -->
<g id="edge11" class="edge">
<title>Node7&#45;&gt;Node11</title>
<path fill="none" stroke="#63b8ff" d="M279.14,-220.69C327.55,-209.45 410.78,-189.46 415,-184 421.21,-175.96 425.54,-149.33 412,-110 408.64,-100.23 402.47,-90.67 396.51,-82.92"/>
<polygon fill="#63b8ff" stroke="#63b8ff" points="399.34,-80.85 390.27,-75.37 393.94,-85.31 399.34,-80.85"/>
</g>
<!-- Node11&#45;&gt;Node2 -->
<g id="edge12" class="edge">
<title>Node11&#45;&gt;Node2</title>
<path fill="none" stroke="#63b8ff" d="M381,-54.75C381,-48.27 381,-39.16 381,-30.9"/>
<polygon fill="#63b8ff" stroke="#63b8ff" points="384.5,-30.96 381,-20.96 377.5,-30.96 384.5,-30.96"/>
</g>
<!-- Node12&#45;&gt;Node5 -->
<g id="edge14" class="edge">
<title>Node12&#45;&gt;Node5</title>
<path fill="none" stroke="#63b8ff" d="M95.29,-164.75C98.62,-157.96 103.36,-148.3 107.56,-139.73"/>
<polygon fill="#63b8ff" stroke="#63b8ff" points="110.68,-141.32 111.95,-130.8 104.4,-138.24 110.68,-141.32"/>
</g>
<!-- Node13 -->
<g id="node13" class="node">
<title>Node13</title>
<g id="a_node13"><a xlink:href="irx_8h.html" target="_top" xlink:title=" ">
<polygon fill="white" stroke="#666666" points="261,-129 227,-129 227,-110 261,-110 261,-129"/>
<text text-anchor="middle" x="244" y="-117" font-family="Helvetica,sans-Serif" font-size="10.00">irx.h</text>
</a>
</g>
</g>
<!-- Node12&#45;&gt;Node13 -->
<g id="edge15" class="edge">
<title>Node12&#45;&gt;Node13</title>
<path fill="none" stroke="#63b8ff" d="M113.91,-165.57C141.14,-156.13 186.57,-140.39 215.9,-130.23"/>
<polygon fill="#63b8ff" stroke="#63b8ff" points="216.91,-133.59 225.22,-127.01 214.62,-126.97 216.91,-133.59"/>
</g>
<!-- Node14 -->
<g id="node14" class="node">
<title>Node14</title>
<g id="a_node14"><a xlink:href="iop_2kernel_2include_2types_8h_source.html" target="_top" xlink:title=" ">
<polygon fill="white" stroke="#666666" points="267.5,-74 220.5,-74 220.5,-55 267.5,-55 267.5,-74"/>
<text text-anchor="middle" x="244" y="-62" font-family="Helvetica,sans-Serif" font-size="10.00">types.h</text>
</a>
</g>
</g>
<!-- Node13&#45;&gt;Node14 -->
<g id="edge16" class="edge">
<title>Node13&#45;&gt;Node14</title>
<path fill="none" stroke="#63b8ff" d="M244,-109.75C244,-103.27 244,-94.16 244,-85.9"/>
<polygon fill="#63b8ff" stroke="#63b8ff" points="247.5,-85.96 244,-75.96 240.5,-85.96 247.5,-85.96"/>
</g>
<!-- Node14&#45;&gt;Node2 -->
<g id="edge18" class="edge">
<title>Node14&#45;&gt;Node2</title>
<path fill="none" stroke="#63b8ff" d="M267.24,-54.51C289.32,-45.97 322.75,-33.03 347.67,-23.4"/>
<polygon fill="#63b8ff" stroke="#63b8ff" points="348.63,-26.78 356.69,-19.9 346.1,-20.25 348.63,-26.78"/>
</g>
<!-- Node14&#45;&gt;Node4 -->
<g id="edge17" class="edge">
<title>Node14&#45;&gt;Node4</title>
<path fill="none" stroke="#63b8ff" d="M225.51,-54.51C208.5,-46.24 183.01,-33.84 163.41,-24.31"/>
<polygon fill="#63b8ff" stroke="#63b8ff" points="165.1,-21.25 154.58,-20.02 162.04,-27.54 165.1,-21.25"/>
</g>
<!-- Node18 -->
<g id="node18" class="node">
<title>Node18</title>
<g id="a_node18"><a xlink:href="sysclib_8h.html" target="_top" xlink:title=" ">
<polygon fill="white" stroke="#666666" points="406,-184 352,-184 352,-165 406,-165 406,-184"/>
<text text-anchor="middle" x="379" y="-172" font-family="Helvetica,sans-Serif" font-size="10.00">sysclib.h</text>
</a>
</g>
</g>
<!-- Node17&#45;&gt;Node18 -->
<g id="edge22" class="edge">
<title>Node17&#45;&gt;Node18</title>
<path fill="none" stroke="#63b8ff" d="M330.84,-219.51C339.05,-212 350.98,-201.1 360.91,-192.03"/>
<polygon fill="#63b8ff" stroke="#63b8ff" points="363.17,-194.71 368.19,-185.38 358.45,-189.54 363.17,-194.71"/>
</g>
<!-- Node18&#45;&gt;Node5 -->
<g id="edge25" class="edge">
<title>Node18&#45;&gt;Node5</title>
<path fill="none" stroke="#63b8ff" d="M351.51,-166.9C348.64,-166.24 345.76,-165.6 343,-165 276.62,-150.63 198.86,-135.75 154.02,-127.35"/>
<polygon fill="#63b8ff" stroke="#63b8ff" points="154.78,-123.93 144.31,-125.54 153.5,-130.81 154.78,-123.93"/>
</g>
<!-- Node18&#45;&gt;Node13 -->
<g id="edge24" class="edge">
<title>Node18&#45;&gt;Node13</title>
<path fill="none" stroke="#63b8ff" d="M356.1,-164.51C332.88,-155.39 296.9,-141.27 272,-131.49"/>
<polygon fill="#63b8ff" stroke="#63b8ff" points="273.42,-128.29 262.83,-127.89 270.86,-134.8 273.42,-128.29"/>
</g>
<!-- Node18&#45;&gt;Node14 -->
<g id="edge23" class="edge">
<title>Node18&#45;&gt;Node14</title>
<path fill="none" stroke="#63b8ff" d="M367.95,-164.66C345.21,-146.47 292.87,-104.6 264.01,-81.51"/>
<polygon fill="#63b8ff" stroke="#63b8ff" points="266.38,-78.92 256.38,-75.41 262,-84.39 266.38,-78.92"/>
</g>
<!-- Node19 -->
<g id="node19" class="node">
<title>Node19</title>
<g id="a_node19"><a xlink:href="setjmp_8h.html" target="_top" xlink:title=" ">
<polygon fill="white" stroke="#666666" points="339.5,-74 286.5,-74 286.5,-55 339.5,-55 339.5,-74"/>
<text text-anchor="middle" x="313" y="-62" font-family="Helvetica,sans-Serif" font-size="10.00">setjmp.h</text>
</a>
</g>
</g>
<!-- Node18&#45;&gt;Node19 -->
<g id="edge26" class="edge">
<title>Node18&#45;&gt;Node19</title>
<path fill="none" stroke="#63b8ff" d="M372.02,-164.54C365.28,-155.72 354.95,-141.76 347,-129 337.89,-114.39 328.75,-97.13 322.24,-84.29"/>
<polygon fill="#63b8ff" stroke="#63b8ff" points="325.54,-83.07 317.94,-75.69 319.28,-86.2 325.54,-83.07"/>
</g>
<!-- Node20 -->
<g id="node20" class="node">
<title>Node20</title>
<g id="a_node20"><a xlink:href="ctype_8h.html" target="_top" xlink:title=" ">
<polygon fill="white" stroke="#666666" points="402.5,-129 355.5,-129 355.5,-110 402.5,-110 402.5,-129"/>
<text text-anchor="middle" x="379" y="-117" font-family="Helvetica,sans-Serif" font-size="10.00">ctype.h</text>
</a>
</g>
</g>
<!-- Node18&#45;&gt;Node20 -->
<g id="edge28" class="edge">
<title>Node18&#45;&gt;Node20</title>
<path fill="none" stroke="#63b8ff" d="M379,-164.75C379,-158.27 379,-149.16 379,-140.9"/>
<polygon fill="#63b8ff" stroke="#63b8ff" points="382.5,-140.96 379,-130.96 375.5,-140.96 382.5,-140.96"/>
</g>
<!-- Node19&#45;&gt;Node2 -->
<g id="edge27" class="edge">
<title>Node19&#45;&gt;Node2</title>
<path fill="none" stroke="#63b8ff" d="M324.54,-54.51C334.46,-46.77 349.01,-35.43 360.86,-26.2"/>
<polygon fill="#63b8ff" stroke="#63b8ff" points="362.71,-29.2 368.44,-20.29 358.4,-23.68 362.71,-29.2"/>
</g>
<!-- Node21&#45;&gt;Node2 -->
<g id="edge30" class="edge">
<title>Node21&#45;&gt;Node2</title>
<path fill="none" stroke="#63b8ff" d="M523.98,-164.69C532.91,-143.43 551.9,-88.62 527,-55 503.72,-23.57 458.75,-13.59 424.84,-10.77"/>
<polygon fill="#63b8ff" stroke="#63b8ff" points="425.08,-7.28 414.88,-10.15 424.64,-14.27 425.08,-7.28"/>
</g>
<!-- Node22 -->
<g id="node22" class="node">
<title>Node22</title>
<g id="a_node22"><a xlink:href="libcdvd_8h.html" target="_top" xlink:title=" ">
<polygon fill="white" stroke="#666666" points="517.5,-129 462.5,-129 462.5,-110 517.5,-110 517.5,-129"/>
<text text-anchor="middle" x="490" y="-117" font-family="Helvetica,sans-Serif" font-size="10.00">libcdvd.h</text>
</a>
</g>
</g>
<!-- Node21&#45;&gt;Node22 -->
<g id="edge31" class="edge">
<title>Node21&#45;&gt;Node22</title>
<path fill="none" stroke="#63b8ff" d="M515.05,-164.75C511.16,-157.88 505.61,-148.08 500.72,-139.45"/>
<polygon fill="#63b8ff" stroke="#63b8ff" points="503.78,-137.74 495.81,-130.76 497.69,-141.19 503.78,-137.74"/>
</g>
<!-- Node23 -->
<g id="node23" class="node">
<title>Node23</title>
<g id="a_node23"><a xlink:href="libcdvd-common_8h.html" target="_top" xlink:title=" ">
<polygon fill="white" stroke="#666666" points="517.5,-74 422.5,-74 422.5,-55 517.5,-55 517.5,-74"/>
<text text-anchor="middle" x="470" y="-62" font-family="Helvetica,sans-Serif" font-size="10.00">libcdvd&#45;common.h</text>
</a>
</g>
</g>
<!-- Node22&#45;&gt;Node23 -->
<g id="edge32" class="edge">
<title>Node22&#45;&gt;Node23</title>
<path fill="none" stroke="#63b8ff" d="M486.7,-109.75C484.17,-103.04 480.57,-93.52 477.37,-85.02"/>
<polygon fill="#63b8ff" stroke="#63b8ff" points="480.71,-83.98 473.91,-75.86 474.16,-86.45 480.71,-83.98"/>
</g>
<!-- Node23&#45;&gt;Node2 -->
<g id="edge33" class="edge">
<title>Node23&#45;&gt;Node2</title>
<path fill="none" stroke="#63b8ff" d="M454.9,-54.51C441.4,-46.47 421.35,-34.53 405.54,-25.11"/>
<polygon fill="#63b8ff" stroke="#63b8ff" points="407.56,-22.24 397.18,-20.13 403.98,-28.26 407.56,-22.24"/>
</g>
</g>
</svg>
        <g id="navigator" transform="translate(0 0)" fill="#404254">
                <rect fill="#f2f5e9" fill-opacity="0.5" stroke="#606060" stroke-width=".5" x="0" y="0" width="60" height="60"/>
                <use id="zoomplus" xlink:href="#zoomPlus" x="17" y="9" onmousedown="handleZoom(evt,'in')"/>
                <use id="zoomminus" xlink:href="#zoomMin" x="42" y="9" onmousedown="handleZoom(evt,'out')"/>
                <use id="reset" xlink:href="#resetDef" x="30" y="36" onmousedown="handleReset()"/>
                <g id="arrowUp" xlink:href="#dirArrow" transform="translate(30 24)" onmousedown="handlePan(0,-1)">
                  <use xlink:href="#rim" fill="#404040">
                        <set attributeName="fill" to="#808080" begin="arrowUp.mouseover" end="arrowUp.mouseout"/>
                  </use>
                  <path fill="none" stroke="white" stroke-width="1.5" d="M0,-3.0v7 M-2.5,-0.5L0,-3.0L2.5,-0.5"/>
                </g>
                <g id="arrowRight" xlink:href="#dirArrow" transform="rotate(90) translate(36 -43)" onmousedown="handlePan(1,0)">
                  <use xlink:href="#rim" fill="#404040">
                        <set attributeName="fill" to="#808080" begin="arrowRight.mouseover" end="arrowRight.mouseout"/>
                  </use>
                  <path fill="none" stroke="white" stroke-width="1.5" d="M0,-3.0v7 M-2.5,-0.5L0,-3.0L2.5,-0.5"/>
                </g>
                <g id="arrowDown" xlink:href="#dirArrow" transform="rotate(180) translate(-30 -48)" onmousedown="handlePan(0,1)">
                  <use xlink:href="#rim" fill="#404040">
                        <set attributeName="fill" to="#808080" begin="arrowDown.mouseover" end="arrowDown.mouseout"/>
                  </use>
                  <path fill="none" stroke="white" stroke-width="1.5" d="M0,-3.0v7 M-2.5,-0.5L0,-3.0L2.5,-0.5"/>
                </g>
                <g id="arrowLeft" xlink:href="#dirArrow" transform="rotate(270) translate(-36 17)" onmousedown="handlePan(-1,0)">
                  <use xlink:href="#rim" fill="#404040">
                        <set attributeName="fill" to="#808080" begin="arrowLeft.mouseover" end="arrowLeft.mouseout"/>
                  </use>
                  <path fill="none" stroke="white" stroke-width="1.5" d="M0,-3.0v7 M-2.5,-0.5L0,-3.0L2.5,-0.5"/>
                </g>
        </g>
        <svg viewBox="0 0 15 15" width="100%" height="30px" preserveAspectRatio="xMaxYMin meet">
         <g id="arrow_out" transform="scale(0.3 0.3)">
          <a xlink:href="osd__config_8c__incl_org.svg" target="_base">
           <rect id="button" ry="5" rx="5" y="6" x="6" height="38" width="38"
                fill="#f2f5e9" fill-opacity="0.5" stroke="#606060" stroke-width="1.0"/>
           <path id="arrow"
             d="M 11.500037,31.436501 C 11.940474,20.09759 22.043105,11.32322 32.158766,21.979434 L 37.068811,17.246167 C 37.068811,17.246167 37.088388,32 37.088388,32 L 22.160133,31.978069 C 22.160133,31.978069 26.997745,27.140456 26.997745,27.140456 C 18.528582,18.264221 13.291696,25.230495 11.500037,31.436501 z"
             style="fill:#404040;"/>
          </a>
         </g>
        </svg>
</svg>
