<?xml version="1.0" encoding="UTF-8" standalone="no"?>
<!DOCTYPE svg PUBLIC "-//W3C//DTD SVG 1.1//EN"
 "http://www.w3.org/Graphics/SVG/1.1/DTD/svg11.dtd">
<!-- Generated by graphviz version 7.0.5 (20221223.1930)
 -->
<!-- Title: ee/kernel/include/osd_config.h Pages: 1 -->
<svg width="1270pt" height="104pt"
 viewBox="0.00 0.00 1269.50 104.00" xmlns="http://www.w3.org/2000/svg" xmlns:xlink="http://www.w3.org/1999/xlink">
<g id="graph0" class="graph" transform="scale(1 1) rotate(0) translate(4 100)">
<title>ee/kernel/include/osd_config.h</title>
<!-- Node1 -->
<g id="node1" class="node">
<title>Node1</title>
<g id="a_node1"><a xlink:title=" ">
<polygon fill="#999999" stroke="#666666" points="669.5,-96 560.5,-96 560.5,-66 669.5,-66 669.5,-96"/>
<text text-anchor="start" x="568.5" y="-84" font-family="Helvetica,sans-Serif" font-size="10.00">ee/kernel/include/osd</text>
<text text-anchor="middle" x="615" y="-73" font-family="Helvetica,sans-Serif" font-size="10.00">_config.h</text>
</a>
</g>
</g>
<!-- Node2 -->
<g id="node2" class="node">
<title>Node2</title>
<g id="a_node2"><a xlink:href="graph__mode_8c_source.html" target="_top" xlink:title=" ">
<polygon fill="white" stroke="#666666" points="98,-30 0,-30 0,0 98,0 98,-30"/>
<text text-anchor="start" x="8" y="-18" font-family="Helvetica,sans-Serif" font-size="10.00">ee/graph/src/graph</text>
<text text-anchor="middle" x="49" y="-7" font-family="Helvetica,sans-Serif" font-size="10.00">_mode.c</text>
</a>
</g>
</g>
<!-- Node1&#45;&gt;Node2 -->
<g id="edge1" class="edge">
<title>Node1&#45;&gt;Node2</title>
<path fill="none" stroke="#63b8ff" d="M548.75,-76.42C451.4,-70.5 264.23,-56.58 107,-30 104.14,-29.52 101.21,-28.97 98.26,-28.38"/>
<polygon fill="#63b8ff" stroke="#63b8ff" points="548.46,-79.91 558.66,-77.01 548.88,-72.92 548.46,-79.91"/>
</g>
<!-- Node3 -->
<g id="node3" class="node">
<title>Node3</title>
<g id="a_node3"><a xlink:href="libosd_8c.html" target="_top" xlink:title=" ">
<polygon fill="white" stroke="#666666" points="225.5,-24.5 116.5,-24.5 116.5,-5.5 225.5,-5.5 225.5,-24.5"/>
<text text-anchor="middle" x="171" y="-12.5" font-family="Helvetica,sans-Serif" font-size="10.00">ee/kernel/src/libosd.c</text>
</a>
</g>
</g>
<!-- Node1&#45;&gt;Node3 -->
<g id="edge2" class="edge">
<title>Node1&#45;&gt;Node3</title>
<path fill="none" stroke="#63b8ff" d="M548.88,-73.11C472.68,-64.76 343.83,-49.37 234,-30 225.83,-28.56 217.13,-26.78 208.87,-24.98"/>
<polygon fill="#63b8ff" stroke="#63b8ff" points="548.37,-76.58 558.69,-74.18 549.13,-69.62 548.37,-76.58"/>
</g>
<!-- Node4 -->
<g id="node4" class="node">
<title>Node4</title>
<g id="a_node4"><a xlink:href="libosd__common_8c.html" target="_top" xlink:title=" ">
<polygon fill="white" stroke="#666666" points="344.5,-30 243.5,-30 243.5,0 344.5,0 344.5,-30"/>
<text text-anchor="start" x="251.5" y="-18" font-family="Helvetica,sans-Serif" font-size="10.00">ee/kernel/src/libosd</text>
<text text-anchor="middle" x="294" y="-7" font-family="Helvetica,sans-Serif" font-size="10.00">_common.c</text>
</a>
</g>
</g>
<!-- Node1&#45;&gt;Node4 -->
<g id="edge3" class="edge">
<title>Node1&#45;&gt;Node4</title>
<path fill="none" stroke="#63b8ff" d="M548.87,-68.22C495.8,-58.56 419.44,-44.22 353,-30 350.32,-29.43 347.58,-28.83 344.82,-28.21"/>
<polygon fill="#63b8ff" stroke="#63b8ff" points="548.21,-71.66 558.67,-70 549.46,-64.77 548.21,-71.66"/>
</g>
<!-- Node5 -->
<g id="node5" class="node">
<title>Node5</title>
<g id="a_node5"><a xlink:href="libosd__full_8c.html" target="_top" xlink:title=" ">
<polygon fill="white" stroke="#666666" points="463.5,-30 362.5,-30 362.5,0 463.5,0 463.5,-30"/>
<text text-anchor="start" x="370.5" y="-18" font-family="Helvetica,sans-Serif" font-size="10.00">ee/kernel/src/libosd</text>
<text text-anchor="middle" x="413" y="-7" font-family="Helvetica,sans-Serif" font-size="10.00">_full.c</text>
</a>
</g>
</g>
<!-- Node1&#45;&gt;Node5 -->
<g id="edge4" class="edge">
<title>Node1&#45;&gt;Node5</title>
<path fill="none" stroke="#63b8ff" d="M558.56,-62.12C526.95,-52.1 488.05,-39.78 458.42,-30.39"/>
<polygon fill="#63b8ff" stroke="#63b8ff" points="557.38,-65.42 567.97,-65.1 559.5,-58.74 557.38,-65.42"/>
</g>
<!-- Node6 -->
<g id="node6" class="node">
<title>Node6</title>
<g id="a_node6"><a xlink:href="osd__config_8c.html" target="_top" xlink:title=" ">
<polygon fill="white" stroke="#666666" points="612,-24.5 482,-24.5 482,-5.5 612,-5.5 612,-24.5"/>
<text text-anchor="middle" x="547" y="-12.5" font-family="Helvetica,sans-Serif" font-size="10.00">ee/kernel/src/osd_config.c</text>
</a>
</g>
</g>
<!-- Node1&#45;&gt;Node6 -->
<g id="edge5" class="edge">
<title>Node1&#45;&gt;Node6</title>
<path fill="none" stroke="#63b8ff" d="M591.57,-57.94C579.49,-46.58 565.44,-33.36 556.4,-24.84"/>
<polygon fill="#63b8ff" stroke="#63b8ff" points="589.13,-60.45 598.81,-64.76 593.92,-55.36 589.13,-60.45"/>
</g>
<!-- Node7 -->
<g id="node7" class="node">
<title>Node7</title>
<g id="a_node7"><a xlink:href="osd_8c_source.html" target="_top" xlink:title=" ">
<polygon fill="white" stroke="#666666" points="735.5,-30 630.5,-30 630.5,0 735.5,0 735.5,-30"/>
<text text-anchor="start" x="638.5" y="-18" font-family="Helvetica,sans-Serif" font-size="10.00">ee/kernel/src/osdsrc</text>
<text text-anchor="middle" x="683" y="-7" font-family="Helvetica,sans-Serif" font-size="10.00">/src/osd.c</text>
</a>
</g>
</g>
<!-- Node1&#45;&gt;Node7 -->
<g id="edge6" class="edge">
<title>Node1&#45;&gt;Node7</title>
<path fill="none" stroke="#63b8ff" d="M638.28,-58.09C648.1,-48.85 659.24,-38.36 667.95,-30.16"/>
<polygon fill="#63b8ff" stroke="#63b8ff" points="636.08,-55.36 631.19,-64.76 640.87,-60.45 636.08,-55.36"/>
</g>
<!-- Node8 -->
<g id="node8" class="node">
<title>Node8</title>
<g id="a_node8"><a xlink:href="osdsrc_8c_source.html" target="_top" xlink:title=" ">
<polygon fill="white" stroke="#666666" points="858.5,-30 753.5,-30 753.5,0 858.5,0 858.5,-30"/>
<text text-anchor="start" x="761.5" y="-18" font-family="Helvetica,sans-Serif" font-size="10.00">ee/kernel/src/osdsrc</text>
<text text-anchor="middle" x="806" y="-7" font-family="Helvetica,sans-Serif" font-size="10.00">/src/osdsrc.c</text>
</a>
</g>
</g>
<!-- Node1&#45;&gt;Node8 -->
<g id="edge7" class="edge">
<title>Node1&#45;&gt;Node8</title>
<path fill="none" stroke="#63b8ff" d="M668.52,-62.07C698.34,-52.07 734.99,-39.79 762.95,-30.43"/>
<polygon fill="#63b8ff" stroke="#63b8ff" points="667.67,-58.66 659.3,-65.16 669.89,-65.3 667.67,-58.66"/>
</g>
<!-- Node9 -->
<g id="node9" class="node">
<title>Node9</title>
<g id="a_node9"><a xlink:href="rtc_8c.html" target="_top" xlink:title=" ">
<polygon fill="white" stroke="#666666" points="977.5,-24.5 876.5,-24.5 876.5,-5.5 977.5,-5.5 977.5,-24.5"/>
<text text-anchor="middle" x="927" y="-12.5" font-family="Helvetica,sans-Serif" font-size="10.00">ee/libcglue/src/rtc.c</text>
</a>
</g>
</g>
<!-- Node1&#45;&gt;Node9 -->
<g id="edge8" class="edge">
<title>Node1&#45;&gt;Node9</title>
<path fill="none" stroke="#63b8ff" d="M681.13,-67.64C732.25,-57.91 804.75,-43.75 868,-30 875.2,-28.43 882.88,-26.68 890.23,-24.95"/>
<polygon fill="#63b8ff" stroke="#63b8ff" points="680.56,-64.19 671.39,-69.49 681.87,-71.06 680.56,-64.19"/>
</g>
<!-- Node10 -->
<g id="node10" class="node">
<title>Node10</title>
<g id="a_node10"><a xlink:href="timezone_8c.html" target="_top" xlink:title=" ">
<polygon fill="white" stroke="#666666" points="1124.5,-24.5 995.5,-24.5 995.5,-5.5 1124.5,-5.5 1124.5,-24.5"/>
<text text-anchor="middle" x="1060" y="-12.5" font-family="Helvetica,sans-Serif" font-size="10.00">ee/libcglue/src/timezone.c</text>
</a>
</g>
</g>
<!-- Node1&#45;&gt;Node10 -->
<g id="edge9" class="edge">
<title>Node1&#45;&gt;Node10</title>
<path fill="none" stroke="#63b8ff" d="M681.05,-72.25C755.55,-63.25 880.25,-47.4 987,-30 996.17,-28.51 1005.96,-26.74 1015.29,-24.98"/>
<polygon fill="#63b8ff" stroke="#63b8ff" points="680.99,-68.73 671.48,-73.4 681.83,-75.68 680.99,-68.73"/>
</g>
<!-- Node11 -->
<g id="node11" class="node">
<title>Node11</title>
<g id="a_node11"><a xlink:href="scmd_8c.html" target="_top" xlink:title=" ">
<polygon fill="white" stroke="#666666" points="1261.5,-24.5 1142.5,-24.5 1142.5,-5.5 1261.5,-5.5 1261.5,-24.5"/>
<text text-anchor="middle" x="1202" y="-12.5" font-family="Helvetica,sans-Serif" font-size="10.00">ee/rpc/cdvd/src/scmd.c</text>
</a>
</g>
</g>
<!-- Node1&#45;&gt;Node11 -->
<g id="edge10" class="edge">
<title>Node1&#45;&gt;Node11</title>
<path fill="none" stroke="#63b8ff" d="M681.08,-75.91C779.97,-69.27 972.13,-54.39 1134,-30 1143.18,-28.62 1152.99,-26.8 1162.22,-24.93"/>
<polygon fill="#63b8ff" stroke="#63b8ff" points="681.04,-72.4 671.29,-76.56 681.5,-79.39 681.04,-72.4"/>
</g>
</g>
</svg>
