<?xml version="1.0" encoding="UTF-8" standalone="no"?>
<!DOCTYPE svg PUBLIC "-//W3C//DTD SVG 1.1//EN"
 "http://www.w3.org/Graphics/SVG/1.1/DTD/svg11.dtd">
<!-- Generated by graphviz version 7.0.5 (20221223.1930)
 -->
<!-- Title: iop/system/padman/src/padCmds.c Pages: 1 -->
<svg width="341pt" height="258pt"
 viewBox="0.00 0.00 340.50 258.00" xmlns="http://www.w3.org/2000/svg" xmlns:xlink="http://www.w3.org/1999/xlink">
<g id="graph0" class="graph" transform="scale(1 1) rotate(0) translate(4 254)">
<title>iop/system/padman/src/padCmds.c</title>
<!-- Node1 -->
<g id="node1" class="node">
<title>Node1</title>
<g id="a_node1"><a xlink:title=" ">
<polygon fill="#999999" stroke="#666666" points="199.5,-250 81.5,-250 81.5,-220 199.5,-220 199.5,-250"/>
<text text-anchor="start" x="89.5" y="-238" font-family="Helvetica,sans-Serif" font-size="10.00">iop/system/padman/src</text>
<text text-anchor="middle" x="140.5" y="-227" font-family="Helvetica,sans-Serif" font-size="10.00">/padCmds.c</text>
</a>
</g>
</g>
<!-- Node2 -->
<g id="node2" class="node">
<title>Node2</title>
<g id="a_node2"><a xlink:title=" ">
<polygon fill="#e0e0e0" stroke="#999999" points="47,-129 0,-129 0,-110 47,-110 47,-129"/>
<text text-anchor="middle" x="23.5" y="-117" font-family="Helvetica,sans-Serif" font-size="10.00">types.h</text>
</a>
</g>
</g>
<!-- Node1&#45;&gt;Node2 -->
<g id="edge1" class="edge">
<title>Node1&#45;&gt;Node2</title>
<path fill="none" stroke="#63b8ff" d="M81.07,-220.19C61.62,-212.69 41.86,-201.28 29.5,-184 20.62,-171.58 19.56,-154.11 20.48,-140.64"/>
<polygon fill="#63b8ff" stroke="#63b8ff" points="23.95,-141.08 21.6,-130.75 17,-140.29 23.95,-141.08"/>
</g>
<!-- Node3 -->
<g id="node3" class="node">
<title>Node3</title>
<g id="a_node3"><a xlink:href="thevent_8h.html" target="_top" xlink:title=" ">
<polygon fill="white" stroke="#666666" points="168.5,-184 112.5,-184 112.5,-165 168.5,-165 168.5,-184"/>
<text text-anchor="middle" x="140.5" y="-172" font-family="Helvetica,sans-Serif" font-size="10.00">thevent.h</text>
</a>
</g>
</g>
<!-- Node1&#45;&gt;Node3 -->
<g id="edge2" class="edge">
<title>Node1&#45;&gt;Node3</title>
<path fill="none" stroke="#63b8ff" d="M140.5,-219.54C140.5,-212.34 140.5,-203.53 140.5,-195.68"/>
<polygon fill="#63b8ff" stroke="#63b8ff" points="144,-195.69 140.5,-185.69 137,-195.69 144,-195.69"/>
</g>
<!-- Node8 -->
<g id="node8" class="node">
<title>Node8</title>
<g id="a_node8"><a xlink:href="freepad_8h.html" target="_top" xlink:title=" ">
<polygon fill="white" stroke="#666666" points="94.5,-184 38.5,-184 38.5,-165 94.5,-165 94.5,-184"/>
<text text-anchor="middle" x="66.5" y="-172" font-family="Helvetica,sans-Serif" font-size="10.00">freepad.h</text>
</a>
</g>
</g>
<!-- Node1&#45;&gt;Node8 -->
<g id="edge8" class="edge">
<title>Node1&#45;&gt;Node8</title>
<path fill="none" stroke="#63b8ff" d="M122.21,-219.54C111.35,-210.96 97.58,-200.07 86.44,-191.26"/>
<polygon fill="#63b8ff" stroke="#63b8ff" points="88.68,-188.57 78.66,-185.11 84.34,-194.06 88.68,-188.57"/>
</g>
<!-- Node9 -->
<g id="node9" class="node">
<title>Node9</title>
<g id="a_node9"><a xlink:href="sio2_cmds_8h.html" target="_top" xlink:title=" ">
<polygon fill="white" stroke="#666666" points="254.5,-184 186.5,-184 186.5,-165 254.5,-165 254.5,-184"/>
<text text-anchor="middle" x="220.5" y="-172" font-family="Helvetica,sans-Serif" font-size="10.00">sio2Cmds.h</text>
</a>
</g>
</g>
<!-- Node1&#45;&gt;Node9 -->
<g id="edge11" class="edge">
<title>Node1&#45;&gt;Node9</title>
<path fill="none" stroke="#63b8ff" d="M160.28,-219.54C172.25,-210.78 187.51,-199.63 199.67,-190.73"/>
<polygon fill="#63b8ff" stroke="#63b8ff" points="201.41,-193.8 207.41,-185.07 197.28,-188.15 201.41,-193.8"/>
</g>
<!-- Node10 -->
<g id="node10" class="node">
<title>Node10</title>
<g id="a_node10"><a xlink:href="pad_data_8h.html" target="_top" xlink:title=" ">
<polygon fill="white" stroke="#666666" points="332.5,-184 272.5,-184 272.5,-165 332.5,-165 332.5,-184"/>
<text text-anchor="middle" x="302.5" y="-172" font-family="Helvetica,sans-Serif" font-size="10.00">padData.h</text>
</a>
</g>
</g>
<!-- Node1&#45;&gt;Node10 -->
<g id="edge12" class="edge">
<title>Node1&#45;&gt;Node10</title>
<path fill="none" stroke="#63b8ff" d="M180.54,-219.54C207.15,-209.93 241.76,-197.43 267.31,-188.21"/>
<polygon fill="#63b8ff" stroke="#63b8ff" points="268.36,-191.55 276.58,-184.86 265.99,-184.96 268.36,-191.55"/>
</g>
<!-- Node4 -->
<g id="node4" class="node">
<title>Node4</title>
<g id="a_node4"><a xlink:href="iop_2kernel_2include_2types_8h_source.html" target="_top" xlink:title=" ">
<polygon fill="white" stroke="#666666" points="141,-74 94,-74 94,-55 141,-55 141,-74"/>
<text text-anchor="middle" x="117.5" y="-62" font-family="Helvetica,sans-Serif" font-size="10.00">types.h</text>
</a>
</g>
</g>
<!-- Node3&#45;&gt;Node4 -->
<g id="edge3" class="edge">
<title>Node3&#45;&gt;Node4</title>
<path fill="none" stroke="#63b8ff" d="M138.62,-164.66C134.96,-147.5 126.82,-109.26 121.78,-85.6"/>
<polygon fill="#63b8ff" stroke="#63b8ff" points="125.23,-84.99 119.72,-75.94 118.38,-86.45 125.23,-84.99"/>
</g>
<!-- Node7 -->
<g id="node7" class="node">
<title>Node7</title>
<g id="a_node7"><a xlink:href="irx_8h.html" target="_top" xlink:title=" ">
<polygon fill="white" stroke="#666666" points="112.5,-129 78.5,-129 78.5,-110 112.5,-110 112.5,-129"/>
<text text-anchor="middle" x="95.5" y="-117" font-family="Helvetica,sans-Serif" font-size="10.00">irx.h</text>
</a>
</g>
</g>
<!-- Node3&#45;&gt;Node7 -->
<g id="edge6" class="edge">
<title>Node3&#45;&gt;Node7</title>
<path fill="none" stroke="#63b8ff" d="M133.07,-164.75C126.92,-157.5 117.99,-146.98 110.37,-138.02"/>
<polygon fill="#63b8ff" stroke="#63b8ff" points="113.21,-135.95 104.07,-130.6 107.88,-140.48 113.21,-135.95"/>
</g>
<!-- Node5 -->
<g id="node5" class="node">
<title>Node5</title>
<g id="a_node5"><a xlink:title=" ">
<polygon fill="#e0e0e0" stroke="#999999" points="105,-19 54,-19 54,0 105,0 105,-19"/>
<text text-anchor="middle" x="79.5" y="-7" font-family="Helvetica,sans-Serif" font-size="10.00">stddef.h</text>
</a>
</g>
</g>
<!-- Node4&#45;&gt;Node5 -->
<g id="edge4" class="edge">
<title>Node4&#45;&gt;Node5</title>
<path fill="none" stroke="#63b8ff" d="M111.23,-54.75C106.14,-47.66 98.8,-37.42 92.47,-28.59"/>
<polygon fill="#63b8ff" stroke="#63b8ff" points="95.46,-26.76 86.79,-20.67 89.78,-30.84 95.46,-26.76"/>
</g>
<!-- Node6 -->
<g id="node6" class="node">
<title>Node6</title>
<g id="a_node6"><a xlink:href="tamtypes_8h.html" target="_top" xlink:title=" ">
<polygon fill="white" stroke="#666666" points="187.5,-19 123.5,-19 123.5,0 187.5,0 187.5,-19"/>
<text text-anchor="middle" x="155.5" y="-7" font-family="Helvetica,sans-Serif" font-size="10.00">tamtypes.h</text>
</a>
</g>
</g>
<!-- Node4&#45;&gt;Node6 -->
<g id="edge5" class="edge">
<title>Node4&#45;&gt;Node6</title>
<path fill="none" stroke="#63b8ff" d="M123.77,-54.75C128.86,-47.66 136.2,-37.42 142.53,-28.59"/>
<polygon fill="#63b8ff" stroke="#63b8ff" points="145.22,-30.84 148.21,-20.67 139.54,-26.76 145.22,-30.84"/>
</g>
<!-- Node7&#45;&gt;Node4 -->
<g id="edge7" class="edge">
<title>Node7&#45;&gt;Node4</title>
<path fill="none" stroke="#63b8ff" d="M99.13,-109.75C101.92,-103.04 105.87,-93.52 109.4,-85.02"/>
<polygon fill="#63b8ff" stroke="#63b8ff" points="112.61,-86.42 113.21,-75.84 106.14,-83.73 112.61,-86.42"/>
</g>
<!-- Node8&#45;&gt;Node2 -->
<g id="edge10" class="edge">
<title>Node8&#45;&gt;Node2</title>
<path fill="none" stroke="#63b8ff" d="M59.4,-164.75C53.58,-157.58 45.17,-147.2 37.94,-138.3"/>
<polygon fill="#63b8ff" stroke="#63b8ff" points="40.73,-136.18 31.71,-130.62 35.29,-140.59 40.73,-136.18"/>
</g>
<!-- Node8&#45;&gt;Node7 -->
<g id="edge9" class="edge">
<title>Node8&#45;&gt;Node7</title>
<path fill="none" stroke="#63b8ff" d="M71.29,-164.75C75.04,-157.88 80.41,-148.08 85.13,-139.45"/>
<polygon fill="#63b8ff" stroke="#63b8ff" points="88.15,-141.22 89.88,-130.77 82.01,-137.86 88.15,-141.22"/>
</g>
</g>
</svg>
