<?xml version="1.0" encoding="UTF-8" standalone="no"?>
<!DOCTYPE svg PUBLIC "-//W3C//DTD SVG 1.1//EN"
 "http://www.w3.org/Graphics/SVG/1.1/DTD/svg11.dtd">
<!-- Generated by graphviz version 7.0.5 (20221223.1930)
 -->
<!-- Title: iop/system/padman/src/padInit.c Pages: 1 -->
<svg width="757pt" height="258pt"
 viewBox="0.00 0.00 756.50 258.00" xmlns="http://www.w3.org/2000/svg" xmlns:xlink="http://www.w3.org/1999/xlink">
<g id="graph0" class="graph" transform="scale(1 1) rotate(0) translate(4 254)">
<title>iop/system/padman/src/padInit.c</title>
<!-- Node1 -->
<g id="node1" class="node">
<title>Node1</title>
<g id="a_node1"><a xlink:title=" ">
<polygon fill="#999999" stroke="#666666" points="403.5,-250 285.5,-250 285.5,-220 403.5,-220 403.5,-250"/>
<text text-anchor="start" x="293.5" y="-238" font-family="Helvetica,sans-Serif" font-size="10.00">iop/system/padman/src</text>
<text text-anchor="middle" x="344.5" y="-227" font-family="Helvetica,sans-Serif" font-size="10.00">/padInit.c</text>
</a>
</g>
</g>
<!-- Node2 -->
<g id="node2" class="node">
<title>Node2</title>
<g id="a_node2"><a xlink:title=" ">
<polygon fill="#e0e0e0" stroke="#999999" points="47,-129 0,-129 0,-110 47,-110 47,-129"/>
<text text-anchor="middle" x="23.5" y="-117" font-family="Helvetica,sans-Serif" font-size="10.00">types.h</text>
</a>
</g>
</g>
<!-- Node1&#45;&gt;Node2 -->
<g id="edge1" class="edge">
<title>Node1&#45;&gt;Node2</title>
<path fill="none" stroke="#63b8ff" d="M285.28,-233.88C199.92,-232.32 48.74,-223.82 14.5,-184 4.18,-172 8.1,-153.74 13.62,-139.88"/>
<polygon fill="#63b8ff" stroke="#63b8ff" points="16.76,-141.43 17.74,-130.88 10.4,-138.52 16.76,-141.43"/>
</g>
<!-- Node3 -->
<g id="node3" class="node">
<title>Node3</title>
<g id="a_node3"><a xlink:href="freepad_8h.html" target="_top" xlink:title=" ">
<polygon fill="white" stroke="#666666" points="79.5,-184 23.5,-184 23.5,-165 79.5,-165 79.5,-184"/>
<text text-anchor="middle" x="51.5" y="-172" font-family="Helvetica,sans-Serif" font-size="10.00">freepad.h</text>
</a>
</g>
</g>
<!-- Node1&#45;&gt;Node3 -->
<g id="edge2" class="edge">
<title>Node1&#45;&gt;Node3</title>
<path fill="none" stroke="#63b8ff" d="M285.16,-222.98C235.74,-213.68 163.22,-199.73 90.89,-184.45"/>
<polygon fill="#63b8ff" stroke="#63b8ff" points="91.75,-181.06 81.24,-182.41 90.3,-187.91 91.75,-181.06"/>
</g>
<!-- Node8 -->
<g id="node8" class="node">
<title>Node8</title>
<g id="a_node8"><a xlink:href="stdio_8h.html" target="_top" xlink:title=" ">
<polygon fill="white" stroke="#666666" points="505,-184 460,-184 460,-165 505,-165 505,-184"/>
<text text-anchor="middle" x="482.5" y="-172" font-family="Helvetica,sans-Serif" font-size="10.00">stdio.h</text>
</a>
</g>
</g>
<!-- Node1&#45;&gt;Node8 -->
<g id="edge8" class="edge">
<title>Node1&#45;&gt;Node8</title>
<path fill="none" stroke="#63b8ff" d="M378.61,-219.54C400.77,-210.15 429.44,-197.99 451.05,-188.83"/>
<polygon fill="#63b8ff" stroke="#63b8ff" points="452.4,-192.06 460.24,-184.94 449.67,-185.62 452.4,-192.06"/>
</g>
<!-- Node10 -->
<g id="node10" class="node">
<title>Node10</title>
<g id="a_node10"><a xlink:href="thevent_8h.html" target="_top" xlink:title=" ">
<polygon fill="white" stroke="#666666" points="153.5,-184 97.5,-184 97.5,-165 153.5,-165 153.5,-184"/>
<text text-anchor="middle" x="125.5" y="-172" font-family="Helvetica,sans-Serif" font-size="10.00">thevent.h</text>
</a>
</g>
</g>
<!-- Node1&#45;&gt;Node10 -->
<g id="edge11" class="edge">
<title>Node1&#45;&gt;Node10</title>
<path fill="none" stroke="#63b8ff" d="M290.37,-219.54C251.39,-209.13 199.72,-195.33 164.68,-185.97"/>
<polygon fill="#63b8ff" stroke="#63b8ff" points="165.96,-182.68 155.39,-183.49 164.15,-189.45 165.96,-182.68"/>
</g>
<!-- Node11 -->
<g id="node11" class="node">
<title>Node11</title>
<g id="a_node11"><a xlink:href="thbase_8h.html" target="_top" xlink:title=" ">
<polygon fill="white" stroke="#666666" points="225,-184 172,-184 172,-165 225,-165 225,-184"/>
<text text-anchor="middle" x="198.5" y="-172" font-family="Helvetica,sans-Serif" font-size="10.00">thbase.h</text>
</a>
</g>
</g>
<!-- Node1&#45;&gt;Node11 -->
<g id="edge14" class="edge">
<title>Node1&#45;&gt;Node11</title>
<path fill="none" stroke="#63b8ff" d="M308.41,-219.54C284.75,-210.06 254.08,-197.77 231.15,-188.58"/>
<polygon fill="#63b8ff" stroke="#63b8ff" points="232.57,-185.38 221.98,-184.91 229.96,-191.88 232.57,-185.38"/>
</g>
<!-- Node12 -->
<g id="node12" class="node">
<title>Node12</title>
<g id="a_node12"><a xlink:href="intrman_8h.html" target="_top" xlink:title=" ">
<polygon fill="white" stroke="#666666" points="299.5,-184 243.5,-184 243.5,-165 299.5,-165 299.5,-184"/>
<text text-anchor="middle" x="271.5" y="-172" font-family="Helvetica,sans-Serif" font-size="10.00">intrman.h</text>
</a>
</g>
</g>
<!-- Node1&#45;&gt;Node12 -->
<g id="edge17" class="edge">
<title>Node1&#45;&gt;Node12</title>
<path fill="none" stroke="#63b8ff" d="M326.46,-219.54C315.74,-210.96 302.16,-200.07 291.17,-191.26"/>
<polygon fill="#63b8ff" stroke="#63b8ff" points="293.5,-188.64 283.51,-185.12 289.12,-194.11 293.5,-188.64"/>
</g>
<!-- Node13 -->
<g id="node13" class="node">
<title>Node13</title>
<g id="a_node13"><a xlink:href="vblank_8h.html" target="_top" xlink:title=" ">
<polygon fill="white" stroke="#666666" points="371,-184 318,-184 318,-165 371,-165 371,-184"/>
<text text-anchor="middle" x="344.5" y="-172" font-family="Helvetica,sans-Serif" font-size="10.00">vblank.h</text>
</a>
</g>
</g>
<!-- Node1&#45;&gt;Node13 -->
<g id="edge20" class="edge">
<title>Node1&#45;&gt;Node13</title>
<path fill="none" stroke="#63b8ff" d="M344.5,-219.54C344.5,-212.34 344.5,-203.53 344.5,-195.68"/>
<polygon fill="#63b8ff" stroke="#63b8ff" points="348,-195.69 344.5,-185.69 341,-195.69 348,-195.69"/>
</g>
<!-- Node14 -->
<g id="node14" class="node">
<title>Node14</title>
<g id="a_node14"><a xlink:href="sifman_8h.html" target="_top" xlink:title=" ">
<polygon fill="white" stroke="#666666" points="442,-184 389,-184 389,-165 442,-165 442,-184"/>
<text text-anchor="middle" x="415.5" y="-172" font-family="Helvetica,sans-Serif" font-size="10.00">sifman.h</text>
</a>
</g>
</g>
<!-- Node1&#45;&gt;Node14 -->
<g id="edge22" class="edge">
<title>Node1&#45;&gt;Node14</title>
<path fill="none" stroke="#63b8ff" d="M362.05,-219.54C372.47,-210.96 385.68,-200.07 396.37,-191.26"/>
<polygon fill="#63b8ff" stroke="#63b8ff" points="398.31,-194.2 403.8,-185.14 393.86,-188.8 398.31,-194.2"/>
</g>
<!-- Node15 -->
<g id="node15" class="node">
<title>Node15</title>
<g id="a_node15"><a xlink:href="sio2_cmds_8h.html" target="_top" xlink:title=" ">
<polygon fill="white" stroke="#666666" points="670.5,-184 602.5,-184 602.5,-165 670.5,-165 670.5,-184"/>
<text text-anchor="middle" x="636.5" y="-172" font-family="Helvetica,sans-Serif" font-size="10.00">sio2Cmds.h</text>
</a>
</g>
</g>
<!-- Node1&#45;&gt;Node15 -->
<g id="edge25" class="edge">
<title>Node1&#45;&gt;Node15</title>
<path fill="none" stroke="#63b8ff" d="M403.94,-222.09C459.33,-211 540.72,-194.69 591.07,-184.6"/>
<polygon fill="#63b8ff" stroke="#63b8ff" points="591.64,-188.06 600.76,-182.66 590.26,-181.19 591.64,-188.06"/>
</g>
<!-- Node16 -->
<g id="node16" class="node">
<title>Node16</title>
<g id="a_node16"><a xlink:href="sysmem_8h.html" target="_top" xlink:title=" ">
<polygon fill="white" stroke="#666666" points="584,-184 523,-184 523,-165 584,-165 584,-184"/>
<text text-anchor="middle" x="553.5" y="-172" font-family="Helvetica,sans-Serif" font-size="10.00">sysmem.h</text>
</a>
</g>
</g>
<!-- Node1&#45;&gt;Node16 -->
<g id="edge26" class="edge">
<title>Node1&#45;&gt;Node16</title>
<path fill="none" stroke="#63b8ff" d="M396.16,-219.54C431.78,-209.57 478.52,-196.49 511.78,-187.18"/>
<polygon fill="#63b8ff" stroke="#63b8ff" points="512.36,-190.65 521.05,-184.58 510.48,-183.91 512.36,-190.65"/>
</g>
<!-- Node17 -->
<g id="node17" class="node">
<title>Node17</title>
<g id="a_node17"><a xlink:href="pad_data_8h.html" target="_top" xlink:title=" ">
<polygon fill="white" stroke="#666666" points="748.5,-184 688.5,-184 688.5,-165 748.5,-165 748.5,-184"/>
<text text-anchor="middle" x="718.5" y="-172" font-family="Helvetica,sans-Serif" font-size="10.00">padData.h</text>
</a>
</g>
</g>
<!-- Node1&#45;&gt;Node17 -->
<g id="edge30" class="edge">
<title>Node1&#45;&gt;Node17</title>
<path fill="none" stroke="#63b8ff" d="M403.7,-226.37C468.44,-217.77 575.48,-202.74 677.21,-184.32"/>
<polygon fill="#63b8ff" stroke="#63b8ff" points="677.61,-187.8 686.82,-182.56 676.35,-180.91 677.61,-187.8"/>
</g>
<!-- Node3&#45;&gt;Node2 -->
<g id="edge7" class="edge">
<title>Node3&#45;&gt;Node2</title>
<path fill="none" stroke="#63b8ff" d="M46.88,-164.75C43.25,-157.88 38.07,-148.08 33.51,-139.45"/>
<polygon fill="#63b8ff" stroke="#63b8ff" points="36.7,-137.99 28.93,-130.78 30.51,-141.26 36.7,-137.99"/>
</g>
<!-- Node4 -->
<g id="node4" class="node">
<title>Node4</title>
<g id="a_node4"><a xlink:href="irx_8h.html" target="_top" xlink:title=" ">
<polygon fill="white" stroke="#666666" points="333.5,-129 299.5,-129 299.5,-110 333.5,-110 333.5,-129"/>
<text text-anchor="middle" x="316.5" y="-117" font-family="Helvetica,sans-Serif" font-size="10.00">irx.h</text>
</a>
</g>
</g>
<!-- Node3&#45;&gt;Node4 -->
<g id="edge3" class="edge">
<title>Node3&#45;&gt;Node4</title>
<path fill="none" stroke="#63b8ff" d="M79.76,-166.91C82.71,-166.25 85.66,-165.6 88.5,-165 160.08,-149.8 244.73,-133.79 287.96,-125.76"/>
<polygon fill="#63b8ff" stroke="#63b8ff" points="288.33,-129.25 297.52,-123.98 287.05,-122.37 288.33,-129.25"/>
</g>
<!-- Node5 -->
<g id="node5" class="node">
<title>Node5</title>
<g id="a_node5"><a xlink:href="iop_2kernel_2include_2types_8h_source.html" target="_top" xlink:title=" ">
<polygon fill="white" stroke="#666666" points="317,-74 270,-74 270,-55 317,-55 317,-74"/>
<text text-anchor="middle" x="293.5" y="-62" font-family="Helvetica,sans-Serif" font-size="10.00">types.h</text>
</a>
</g>
</g>
<!-- Node4&#45;&gt;Node5 -->
<g id="edge4" class="edge">
<title>Node4&#45;&gt;Node5</title>
<path fill="none" stroke="#63b8ff" d="M312.7,-109.75C309.76,-102.96 305.56,-93.3 301.85,-84.73"/>
<polygon fill="#63b8ff" stroke="#63b8ff" points="305.17,-83.61 297.98,-75.83 298.75,-86.4 305.17,-83.61"/>
</g>
<!-- Node6 -->
<g id="node6" class="node">
<title>Node6</title>
<g id="a_node6"><a xlink:title=" ">
<polygon fill="#e0e0e0" stroke="#999999" points="281,-19 230,-19 230,0 281,0 281,-19"/>
<text text-anchor="middle" x="255.5" y="-7" font-family="Helvetica,sans-Serif" font-size="10.00">stddef.h</text>
</a>
</g>
</g>
<!-- Node5&#45;&gt;Node6 -->
<g id="edge5" class="edge">
<title>Node5&#45;&gt;Node6</title>
<path fill="none" stroke="#63b8ff" d="M287.23,-54.75C282.14,-47.66 274.8,-37.42 268.47,-28.59"/>
<polygon fill="#63b8ff" stroke="#63b8ff" points="271.46,-26.76 262.79,-20.67 265.78,-30.84 271.46,-26.76"/>
</g>
<!-- Node7 -->
<g id="node7" class="node">
<title>Node7</title>
<g id="a_node7"><a xlink:href="tamtypes_8h.html" target="_top" xlink:title=" ">
<polygon fill="white" stroke="#666666" points="363.5,-19 299.5,-19 299.5,0 363.5,0 363.5,-19"/>
<text text-anchor="middle" x="331.5" y="-7" font-family="Helvetica,sans-Serif" font-size="10.00">tamtypes.h</text>
</a>
</g>
</g>
<!-- Node5&#45;&gt;Node7 -->
<g id="edge6" class="edge">
<title>Node5&#45;&gt;Node7</title>
<path fill="none" stroke="#63b8ff" d="M299.77,-54.75C304.86,-47.66 312.2,-37.42 318.53,-28.59"/>
<polygon fill="#63b8ff" stroke="#63b8ff" points="321.22,-30.84 324.21,-20.67 315.54,-26.76 321.22,-30.84"/>
</g>
<!-- Node8&#45;&gt;Node4 -->
<g id="edge10" class="edge">
<title>Node8&#45;&gt;Node4</title>
<path fill="none" stroke="#63b8ff" d="M459.77,-166.24C429.74,-156.66 376.89,-139.78 344.46,-129.43"/>
<polygon fill="#63b8ff" stroke="#63b8ff" points="345.94,-126.23 335.35,-126.52 343.81,-132.89 345.94,-126.23"/>
</g>
<!-- Node9 -->
<g id="node9" class="node">
<title>Node9</title>
<g id="a_node9"><a xlink:title=" ">
<polygon fill="#e0e0e0" stroke="#999999" points="512,-129 461,-129 461,-110 512,-110 512,-129"/>
<text text-anchor="middle" x="486.5" y="-117" font-family="Helvetica,sans-Serif" font-size="10.00">stdarg.h</text>
</a>
</g>
</g>
<!-- Node8&#45;&gt;Node9 -->
<g id="edge9" class="edge">
<title>Node8&#45;&gt;Node9</title>
<path fill="none" stroke="#63b8ff" d="M483.16,-164.75C483.65,-158.27 484.34,-149.16 484.96,-140.9"/>
<polygon fill="#63b8ff" stroke="#63b8ff" points="488.45,-141.19 485.71,-130.95 481.47,-140.66 488.45,-141.19"/>
</g>
<!-- Node10&#45;&gt;Node4 -->
<g id="edge13" class="edge">
<title>Node10&#45;&gt;Node4</title>
<path fill="none" stroke="#63b8ff" d="M153.68,-165.68C189.83,-155.65 252.14,-138.36 288.3,-128.33"/>
<polygon fill="#63b8ff" stroke="#63b8ff" points="288.89,-131.79 297.59,-125.75 287.02,-125.05 288.89,-131.79"/>
</g>
<!-- Node10&#45;&gt;Node5 -->
<g id="edge12" class="edge">
<title>Node10&#45;&gt;Node5</title>
<path fill="none" stroke="#63b8ff" d="M139.25,-164.66C167.92,-146.23 234.39,-103.5 269.99,-80.62"/>
<polygon fill="#63b8ff" stroke="#63b8ff" points="271.77,-83.63 278.29,-75.28 267.98,-77.74 271.77,-83.63"/>
</g>
<!-- Node11&#45;&gt;Node4 -->
<g id="edge16" class="edge">
<title>Node11&#45;&gt;Node4</title>
<path fill="none" stroke="#63b8ff" d="M218.52,-164.51C237.78,-155.86 267.07,-142.7 288.62,-133.02"/>
<polygon fill="#63b8ff" stroke="#63b8ff" points="290.01,-136.23 297.7,-128.94 287.14,-129.85 290.01,-136.23"/>
</g>
<!-- Node11&#45;&gt;Node5 -->
<g id="edge15" class="edge">
<title>Node11&#45;&gt;Node5</title>
<path fill="none" stroke="#63b8ff" d="M206.27,-164.66C221.93,-146.86 257.52,-106.41 278.07,-83.04"/>
<polygon fill="#63b8ff" stroke="#63b8ff" points="280.64,-85.42 284.62,-75.6 275.39,-80.79 280.64,-85.42"/>
</g>
<!-- Node12&#45;&gt;Node4 -->
<g id="edge19" class="edge">
<title>Node12&#45;&gt;Node4</title>
<path fill="none" stroke="#63b8ff" d="M278.93,-164.75C285.08,-157.5 294.01,-146.98 301.63,-138.02"/>
<polygon fill="#63b8ff" stroke="#63b8ff" points="304.12,-140.48 307.93,-130.6 298.79,-135.95 304.12,-140.48"/>
</g>
<!-- Node12&#45;&gt;Node5 -->
<g id="edge18" class="edge">
<title>Node12&#45;&gt;Node5</title>
<path fill="none" stroke="#63b8ff" d="M273.3,-164.66C276.8,-147.5 284.59,-109.26 289.41,-85.6"/>
<polygon fill="#63b8ff" stroke="#63b8ff" points="292.81,-86.44 291.37,-75.94 285.95,-85.04 292.81,-86.44"/>
</g>
<!-- Node13&#45;&gt;Node4 -->
<g id="edge21" class="edge">
<title>Node13&#45;&gt;Node4</title>
<path fill="none" stroke="#63b8ff" d="M339.88,-164.75C336.25,-157.88 331.07,-148.08 326.51,-139.45"/>
<polygon fill="#63b8ff" stroke="#63b8ff" points="329.7,-137.99 321.93,-130.78 323.51,-141.26 329.7,-137.99"/>
</g>
<!-- Node14&#45;&gt;Node4 -->
<g id="edge24" class="edge">
<title>Node14&#45;&gt;Node4</title>
<path fill="none" stroke="#63b8ff" d="M398.71,-164.51C383.4,-156.31 360.53,-144.07 342.8,-134.58"/>
<polygon fill="#63b8ff" stroke="#63b8ff" points="344.85,-131.71 334.38,-130.07 341.54,-137.88 344.85,-131.71"/>
</g>
<!-- Node14&#45;&gt;Node5 -->
<g id="edge23" class="edge">
<title>Node14&#45;&gt;Node5</title>
<path fill="none" stroke="#63b8ff" d="M405.52,-164.66C385.05,-146.55 338.08,-104.96 311.93,-81.81"/>
<polygon fill="#63b8ff" stroke="#63b8ff" points="314.56,-79.47 304.76,-75.46 309.92,-84.71 314.56,-79.47"/>
</g>
<!-- Node16&#45;&gt;Node4 -->
<g id="edge28" class="edge">
<title>Node16&#45;&gt;Node4</title>
<path fill="none" stroke="#63b8ff" d="M522.52,-166.57C476.31,-156.24 390,-136.94 345.18,-126.91"/>
<polygon fill="#63b8ff" stroke="#63b8ff" points="345.96,-123.5 335.43,-124.73 344.43,-130.33 345.96,-123.5"/>
</g>
<!-- Node16&#45;&gt;Node5 -->
<g id="edge27" class="edge">
<title>Node16&#45;&gt;Node5</title>
<path fill="none" stroke="#63b8ff" d="M551.63,-164.51C548.22,-150.52 539.61,-123.72 521.5,-110 491.56,-87.32 384.5,-74.09 328.38,-68.56"/>
<polygon fill="#63b8ff" stroke="#63b8ff" points="329.02,-65.1 318.74,-67.64 328.36,-72.07 329.02,-65.1"/>
</g>
<!-- Node16&#45;&gt;Node9 -->
<g id="edge29" class="edge">
<title>Node16&#45;&gt;Node9</title>
<path fill="none" stroke="#63b8ff" d="M542.13,-164.51C532.45,-156.85 518.3,-145.66 506.69,-136.47"/>
<polygon fill="#63b8ff" stroke="#63b8ff" points="508.9,-133.76 498.88,-130.3 504.56,-139.25 508.9,-133.76"/>
</g>
</g>
</svg>
