<?xml version="1.0" encoding="UTF-8" standalone="no"?>
<!DOCTYPE svg PUBLIC "-//W3C//DTD SVG 1.1//EN"
 "http://www.w3.org/Graphics/SVG/1.1/DTD/svg11.dtd">
<!-- Generated by graphviz version 7.0.5 (20221223.1930)
 -->
<!-- Title: ee/sbv/src/patch_user_mem_clear.c Pages: 1 -->
<svg width="257pt" height="203pt"
 viewBox="0.00 0.00 257.00 203.00" xmlns="http://www.w3.org/2000/svg" xmlns:xlink="http://www.w3.org/1999/xlink">
<g id="graph0" class="graph" transform="scale(1 1) rotate(0) translate(4 199)">
<title>ee/sbv/src/patch_user_mem_clear.c</title>
<!-- Node1 -->
<g id="node1" class="node">
<title>Node1</title>
<g id="a_node1"><a xlink:title=" ">
<polygon fill="#999999" stroke="#666666" points="113,-195 0,-195 0,-165 113,-165 113,-195"/>
<text text-anchor="start" x="8" y="-183" font-family="Helvetica,sans-Serif" font-size="10.00">ee/sbv/src/patch_user</text>
<text text-anchor="middle" x="56.5" y="-172" font-family="Helvetica,sans-Serif" font-size="10.00">_mem_clear.c</text>
</a>
</g>
</g>
<!-- Node2 -->
<g id="node2" class="node">
<title>Node2</title>
<g id="a_node2"><a xlink:href="tamtypes_8h.html" target="_top" xlink:title=" ">
<polygon fill="white" stroke="#666666" points="157.5,-19 93.5,-19 93.5,0 157.5,0 157.5,-19"/>
<text text-anchor="middle" x="125.5" y="-7" font-family="Helvetica,sans-Serif" font-size="10.00">tamtypes.h</text>
</a>
</g>
</g>
<!-- Node1&#45;&gt;Node2 -->
<g id="edge1" class="edge">
<title>Node1&#45;&gt;Node2</title>
<path fill="none" stroke="#63b8ff" d="M50.82,-164.84C42.05,-140.54 28.23,-90.13 48.5,-55 56.63,-40.9 71.13,-30.87 85.36,-23.94"/>
<polygon fill="#63b8ff" stroke="#63b8ff" points="86.46,-27.28 94.2,-20.05 83.64,-20.88 86.46,-27.28"/>
</g>
<!-- Node3 -->
<g id="node3" class="node">
<title>Node3</title>
<g id="a_node3"><a xlink:href="kernel_8h.html" target="_top" xlink:title=" ">
<polygon fill="white" stroke="#666666" points="142.5,-129 92.5,-129 92.5,-110 142.5,-110 142.5,-129"/>
<text text-anchor="middle" x="117.5" y="-117" font-family="Helvetica,sans-Serif" font-size="10.00">kernel.h</text>
</a>
</g>
</g>
<!-- Node1&#45;&gt;Node3 -->
<g id="edge2" class="edge">
<title>Node1&#45;&gt;Node3</title>
<path fill="none" stroke="#63b8ff" d="M71.58,-164.54C80.26,-156.22 91.2,-145.72 100.22,-137.07"/>
<polygon fill="#63b8ff" stroke="#63b8ff" points="102.57,-139.67 107.36,-130.22 97.72,-134.62 102.57,-139.67"/>
</g>
<!-- Node4 -->
<g id="node4" class="node">
<title>Node4</title>
<g id="a_node4"><a xlink:title=" ">
<polygon fill="#e0e0e0" stroke="#999999" points="109,-74 58,-74 58,-55 109,-55 109,-74"/>
<text text-anchor="middle" x="83.5" y="-62" font-family="Helvetica,sans-Serif" font-size="10.00">stddef.h</text>
</a>
</g>
</g>
<!-- Node3&#45;&gt;Node4 -->
<g id="edge3" class="edge">
<title>Node3&#45;&gt;Node4</title>
<path fill="none" stroke="#63b8ff" d="M111.89,-109.75C107.38,-102.73 100.91,-92.64 95.29,-83.87"/>
<polygon fill="#63b8ff" stroke="#63b8ff" points="98.4,-82.24 90.05,-75.72 92.51,-86.02 98.4,-82.24"/>
</g>
<!-- Node5 -->
<g id="node5" class="node">
<title>Node5</title>
<g id="a_node5"><a xlink:title=" ">
<polygon fill="#e0e0e0" stroke="#999999" points="178,-74 127,-74 127,-55 178,-55 178,-74"/>
<text text-anchor="middle" x="152.5" y="-62" font-family="Helvetica,sans-Serif" font-size="10.00">stdarg.h</text>
</a>
</g>
</g>
<!-- Node3&#45;&gt;Node5 -->
<g id="edge4" class="edge">
<title>Node3&#45;&gt;Node5</title>
<path fill="none" stroke="#63b8ff" d="M123.28,-109.75C127.91,-102.73 134.57,-92.64 140.37,-83.87"/>
<polygon fill="#63b8ff" stroke="#63b8ff" points="143.17,-85.98 145.76,-75.71 137.33,-82.12 143.17,-85.98"/>
</g>
<!-- Node6 -->
<g id="node6" class="node">
<title>Node6</title>
<g id="a_node6"><a xlink:href="sifdma_8h.html" target="_top" xlink:title=" ">
<polygon fill="white" stroke="#666666" points="249,-74 196,-74 196,-55 249,-55 249,-74"/>
<text text-anchor="middle" x="222.5" y="-62" font-family="Helvetica,sans-Serif" font-size="10.00">sifdma.h</text>
</a>
</g>
</g>
<!-- Node3&#45;&gt;Node6 -->
<g id="edge5" class="edge">
<title>Node3&#45;&gt;Node6</title>
<path fill="none" stroke="#63b8ff" d="M135.31,-109.51C151.63,-101.27 176.03,-88.96 194.87,-79.45"/>
<polygon fill="#63b8ff" stroke="#63b8ff" points="196.25,-82.67 203.6,-75.04 193.1,-76.42 196.25,-82.67"/>
</g>
<!-- Node6&#45;&gt;Node2 -->
<g id="edge6" class="edge">
<title>Node6&#45;&gt;Node2</title>
<path fill="none" stroke="#63b8ff" d="M206.05,-54.51C191.18,-46.39 169.06,-34.3 151.75,-24.85"/>
<polygon fill="#63b8ff" stroke="#63b8ff" points="153.49,-21.81 143.04,-20.08 150.14,-27.95 153.49,-21.81"/>
</g>
</g>
</svg>
