<?xml version="1.0" encoding="UTF-8" standalone="no"?>
<!DOCTYPE svg PUBLIC "-//W3C//DTD SVG 1.1//EN"
 "http://www.w3.org/Graphics/SVG/1.1/DTD/svg11.dtd">
<!-- Generated by graphviz version 7.0.5 (20221223.1930)
 -->
<!-- Title: ee/sbv/src/patch_disable_prefix_check.c Pages: 1 -->
<svg width="431pt" height="313pt"
 viewBox="0.00 0.00 431.04 313.00" xmlns="http://www.w3.org/2000/svg" xmlns:xlink="http://www.w3.org/1999/xlink">
<g id="graph0" class="graph" transform="scale(1 1) rotate(0) translate(4 309)">
<title>ee/sbv/src/patch_disable_prefix_check.c</title>
<!-- Node1 -->
<g id="node1" class="node">
<title>Node1</title>
<g id="a_node1"><a xlink:title=" ">
<polygon fill="#999999" stroke="#666666" points="420.5,-305 295.5,-305 295.5,-275 420.5,-275 420.5,-305"/>
<text text-anchor="start" x="303.5" y="-293" font-family="Helvetica,sans-Serif" font-size="10.00">ee/sbv/src/patch_disable</text>
<text text-anchor="middle" x="358" y="-282" font-family="Helvetica,sans-Serif" font-size="10.00">_prefix_check.c</text>
</a>
</g>
</g>
<!-- Node2 -->
<g id="node2" class="node">
<title>Node2</title>
<g id="a_node2"><a xlink:href="tamtypes_8h.html" target="_top" xlink:title=" ">
<polygon fill="white" stroke="#666666" points="343,-19 279,-19 279,0 343,0 343,-19"/>
<text text-anchor="middle" x="311" y="-7" font-family="Helvetica,sans-Serif" font-size="10.00">tamtypes.h</text>
</a>
</g>
</g>
<!-- Node1&#45;&gt;Node2 -->
<g id="edge1" class="edge">
<title>Node1&#45;&gt;Node2</title>
<path fill="none" stroke="#63b8ff" d="M372.75,-274.73C391.93,-254.56 423,-215.69 423,-175.5 423,-175.5 423,-175.5 423,-118.5 423,-89.04 423.15,-77.39 404,-55 390.99,-39.79 371.61,-29.38 353.9,-22.48"/>
<polygon fill="#63b8ff" stroke="#63b8ff" points="355.18,-19.22 344.59,-19.13 352.81,-25.81 355.18,-19.22"/>
</g>
<!-- Node3 -->
<g id="node3" class="node">
<title>Node3</title>
<g id="a_node3"><a xlink:href="kernel_8h.html" target="_top" xlink:title=" ">
<polygon fill="white" stroke="#666666" points="318,-184 268,-184 268,-165 318,-165 318,-184"/>
<text text-anchor="middle" x="293" y="-172" font-family="Helvetica,sans-Serif" font-size="10.00">kernel.h</text>
</a>
</g>
</g>
<!-- Node1&#45;&gt;Node3 -->
<g id="edge2" class="edge">
<title>Node1&#45;&gt;Node3</title>
<path fill="none" stroke="#63b8ff" d="M349.77,-274.63C338.02,-254.12 316.46,-216.47 303.56,-193.93"/>
<polygon fill="#63b8ff" stroke="#63b8ff" points="306.76,-192.48 298.75,-185.54 300.68,-195.96 306.76,-192.48"/>
</g>
<!-- Node7 -->
<g id="node7" class="node">
<title>Node7</title>
<g id="a_node7"><a xlink:href="string_8h_source.html" target="_top" xlink:title=" ">
<polygon fill="white" stroke="#666666" points="254,-239 206,-239 206,-220 254,-220 254,-239"/>
<text text-anchor="middle" x="230" y="-227" font-family="Helvetica,sans-Serif" font-size="10.00">string.h</text>
</a>
</g>
</g>
<!-- Node1&#45;&gt;Node7 -->
<g id="edge7" class="edge">
<title>Node1&#45;&gt;Node7</title>
<path fill="none" stroke="#63b8ff" d="M326.36,-274.54C306,-265.23 279.7,-253.22 259.73,-244.09"/>
<polygon fill="#63b8ff" stroke="#63b8ff" points="261.28,-240.95 250.73,-239.98 258.37,-247.32 261.28,-240.95"/>
</g>
<!-- Node13 -->
<g id="node13" class="node">
<title>Node13</title>
<g id="a_node13"><a xlink:href="slib_8h.html" target="_top" xlink:title=" ">
<polygon fill="white" stroke="#666666" points="394.5,-74 355.5,-74 355.5,-55 394.5,-55 394.5,-74"/>
<text text-anchor="middle" x="375" y="-62" font-family="Helvetica,sans-Serif" font-size="10.00">slib.h</text>
</a>
</g>
</g>
<!-- Node1&#45;&gt;Node13 -->
<g id="edge18" class="edge">
<title>Node1&#45;&gt;Node13</title>
<path fill="none" stroke="#63b8ff" d="M359.09,-274.68C362.02,-236.1 370.1,-129.9 373.48,-85.46"/>
<polygon fill="#63b8ff" stroke="#63b8ff" points="376.95,-85.98 374.22,-75.74 369.97,-85.45 376.95,-85.98"/>
</g>
<!-- Node4 -->
<g id="node4" class="node">
<title>Node4</title>
<g id="a_node4"><a xlink:title=" ">
<polygon fill="#e0e0e0" stroke="#999999" points="209.5,-19 158.5,-19 158.5,0 209.5,0 209.5,-19"/>
<text text-anchor="middle" x="184" y="-7" font-family="Helvetica,sans-Serif" font-size="10.00">stddef.h</text>
</a>
</g>
</g>
<!-- Node3&#45;&gt;Node4 -->
<g id="edge3" class="edge">
<title>Node3&#45;&gt;Node4</title>
<path fill="none" stroke="#63b8ff" d="M290.11,-164.81C282.99,-144.27 263.16,-91.71 235,-55 226.65,-44.12 215.32,-33.91 205.45,-26.02"/>
<polygon fill="#63b8ff" stroke="#63b8ff" points="207.86,-23.46 197.79,-20.15 203.6,-29.01 207.86,-23.46"/>
</g>
<!-- Node5 -->
<g id="node5" class="node">
<title>Node5</title>
<g id="a_node5"><a xlink:title=" ">
<polygon fill="#e0e0e0" stroke="#999999" points="245.5,-129 194.5,-129 194.5,-110 245.5,-110 245.5,-129"/>
<text text-anchor="middle" x="220" y="-117" font-family="Helvetica,sans-Serif" font-size="10.00">stdarg.h</text>
</a>
</g>
</g>
<!-- Node3&#45;&gt;Node5 -->
<g id="edge4" class="edge">
<title>Node3&#45;&gt;Node5</title>
<path fill="none" stroke="#63b8ff" d="M280.62,-164.51C269.85,-156.7 254.03,-145.21 241.25,-135.93"/>
<polygon fill="#63b8ff" stroke="#63b8ff" points="243.57,-133.29 233.43,-130.25 239.46,-138.95 243.57,-133.29"/>
</g>
<!-- Node6 -->
<g id="node6" class="node">
<title>Node6</title>
<g id="a_node6"><a xlink:href="sifdma_8h.html" target="_top" xlink:title=" ">
<polygon fill="white" stroke="#666666" points="337.5,-74 284.5,-74 284.5,-55 337.5,-55 337.5,-74"/>
<text text-anchor="middle" x="311" y="-62" font-family="Helvetica,sans-Serif" font-size="10.00">sifdma.h</text>
</a>
</g>
</g>
<!-- Node3&#45;&gt;Node6 -->
<g id="edge5" class="edge">
<title>Node3&#45;&gt;Node6</title>
<path fill="none" stroke="#63b8ff" d="M294.47,-164.66C297.33,-147.5 303.71,-109.26 307.65,-85.6"/>
<polygon fill="#63b8ff" stroke="#63b8ff" points="311.07,-86.39 309.26,-75.95 304.16,-85.24 311.07,-86.39"/>
</g>
<!-- Node6&#45;&gt;Node2 -->
<g id="edge6" class="edge">
<title>Node6&#45;&gt;Node2</title>
<path fill="none" stroke="#63b8ff" d="M311,-54.75C311,-48.27 311,-39.16 311,-30.9"/>
<polygon fill="#63b8ff" stroke="#63b8ff" points="314.5,-30.96 311,-20.96 307.5,-30.96 314.5,-30.96"/>
</g>
<!-- Node8 -->
<g id="node8" class="node">
<title>Node8</title>
<g id="a_node8"><a xlink:href="sysclib_8h.html" target="_top" xlink:title=" ">
<polygon fill="white" stroke="#666666" points="174,-184 120,-184 120,-165 174,-165 174,-184"/>
<text text-anchor="middle" x="147" y="-172" font-family="Helvetica,sans-Serif" font-size="10.00">sysclib.h</text>
</a>
</g>
</g>
<!-- Node7&#45;&gt;Node8 -->
<g id="edge8" class="edge">
<title>Node7&#45;&gt;Node8</title>
<path fill="none" stroke="#63b8ff" d="M215.92,-219.51C203.44,-211.54 184.98,-199.75 170.31,-190.38"/>
<polygon fill="#63b8ff" stroke="#63b8ff" points="172.46,-187.6 162.15,-185.17 168.69,-193.5 172.46,-187.6"/>
</g>
<!-- Node8&#45;&gt;Node5 -->
<g id="edge14" class="edge">
<title>Node8&#45;&gt;Node5</title>
<path fill="none" stroke="#63b8ff" d="M159.38,-164.51C170.15,-156.7 185.97,-145.21 198.75,-135.93"/>
<polygon fill="#63b8ff" stroke="#63b8ff" points="200.54,-138.95 206.57,-130.25 196.43,-133.29 200.54,-138.95"/>
</g>
<!-- Node9 -->
<g id="node9" class="node">
<title>Node9</title>
<g id="a_node9"><a xlink:href="iop_2kernel_2include_2types_8h_source.html" target="_top" xlink:title=" ">
<polygon fill="white" stroke="#666666" points="154.5,-74 107.5,-74 107.5,-55 154.5,-55 154.5,-74"/>
<text text-anchor="middle" x="131" y="-62" font-family="Helvetica,sans-Serif" font-size="10.00">types.h</text>
</a>
</g>
</g>
<!-- Node8&#45;&gt;Node9 -->
<g id="edge9" class="edge">
<title>Node8&#45;&gt;Node9</title>
<path fill="none" stroke="#63b8ff" d="M145.69,-164.66C143.15,-147.5 137.48,-109.26 133.98,-85.6"/>
<polygon fill="#63b8ff" stroke="#63b8ff" points="137.48,-85.34 132.55,-75.96 130.55,-86.36 137.48,-85.34"/>
</g>
<!-- Node10 -->
<g id="node10" class="node">
<title>Node10</title>
<g id="a_node10"><a xlink:href="irx_8h.html" target="_top" xlink:title=" ">
<polygon fill="white" stroke="#666666" points="34,-129 0,-129 0,-110 34,-110 34,-129"/>
<text text-anchor="middle" x="17" y="-117" font-family="Helvetica,sans-Serif" font-size="10.00">irx.h</text>
</a>
</g>
</g>
<!-- Node8&#45;&gt;Node10 -->
<g id="edge12" class="edge">
<title>Node8&#45;&gt;Node10</title>
<path fill="none" stroke="#63b8ff" d="M124.95,-164.51C102.81,-155.48 68.64,-141.55 44.69,-131.79"/>
<polygon fill="#63b8ff" stroke="#63b8ff" points="46.15,-128.61 35.57,-128.07 43.51,-135.09 46.15,-128.61"/>
</g>
<!-- Node11 -->
<g id="node11" class="node">
<title>Node11</title>
<g id="a_node11"><a xlink:href="setjmp_8h.html" target="_top" xlink:title=" ">
<polygon fill="white" stroke="#666666" points="226.5,-74 173.5,-74 173.5,-55 226.5,-55 226.5,-74"/>
<text text-anchor="middle" x="200" y="-62" font-family="Helvetica,sans-Serif" font-size="10.00">setjmp.h</text>
</a>
</g>
</g>
<!-- Node8&#45;&gt;Node11 -->
<g id="edge15" class="edge">
<title>Node8&#45;&gt;Node11</title>
<path fill="none" stroke="#63b8ff" d="M151.34,-164.66C159.88,-147.26 179.05,-108.19 190.62,-84.62"/>
<polygon fill="#63b8ff" stroke="#63b8ff" points="193.67,-86.34 194.94,-75.82 187.39,-83.25 193.67,-86.34"/>
</g>
<!-- Node12 -->
<g id="node12" class="node">
<title>Node12</title>
<g id="a_node12"><a xlink:href="ctype_8h.html" target="_top" xlink:title=" ">
<polygon fill="white" stroke="#666666" points="99.5,-129 52.5,-129 52.5,-110 99.5,-110 99.5,-129"/>
<text text-anchor="middle" x="76" y="-117" font-family="Helvetica,sans-Serif" font-size="10.00">ctype.h</text>
</a>
</g>
</g>
<!-- Node8&#45;&gt;Node12 -->
<g id="edge17" class="edge">
<title>Node8&#45;&gt;Node12</title>
<path fill="none" stroke="#63b8ff" d="M134.96,-164.51C124.59,-156.77 109.4,-145.43 97.03,-136.2"/>
<polygon fill="#63b8ff" stroke="#63b8ff" points="99.19,-133.44 89.08,-130.26 95,-139.05 99.19,-133.44"/>
</g>
<!-- Node9&#45;&gt;Node2 -->
<g id="edge11" class="edge">
<title>Node9&#45;&gt;Node2</title>
<path fill="none" stroke="#63b8ff" d="M154.9,-56.46C184.16,-47.85 234.17,-33.12 269.7,-22.66"/>
<polygon fill="#63b8ff" stroke="#63b8ff" points="270.63,-26.04 279.23,-19.85 268.65,-19.32 270.63,-26.04"/>
</g>
<!-- Node9&#45;&gt;Node4 -->
<g id="edge10" class="edge">
<title>Node9&#45;&gt;Node4</title>
<path fill="none" stroke="#63b8ff" d="M139.75,-54.75C147.15,-47.35 157.96,-36.54 167.05,-27.45"/>
<polygon fill="#63b8ff" stroke="#63b8ff" points="169.39,-30.06 173.99,-20.51 164.44,-25.11 169.39,-30.06"/>
</g>
<!-- Node10&#45;&gt;Node9 -->
<g id="edge13" class="edge">
<title>Node10&#45;&gt;Node9</title>
<path fill="none" stroke="#63b8ff" d="M34.31,-110.45C52.22,-102.13 80.49,-88.98 101.85,-79.05"/>
<polygon fill="#63b8ff" stroke="#63b8ff" points="103.03,-82.36 110.63,-74.97 100.08,-76.01 103.03,-82.36"/>
</g>
<!-- Node11&#45;&gt;Node2 -->
<g id="edge16" class="edge">
<title>Node11&#45;&gt;Node2</title>
<path fill="none" stroke="#63b8ff" d="M218.83,-54.51C236.16,-46.24 262.11,-33.84 282.07,-24.31"/>
<polygon fill="#63b8ff" stroke="#63b8ff" points="283.57,-27.48 291.08,-20.01 280.55,-21.16 283.57,-27.48"/>
</g>
<!-- Node13&#45;&gt;Node2 -->
<g id="edge19" class="edge">
<title>Node13&#45;&gt;Node2</title>
<path fill="none" stroke="#63b8ff" d="M364.14,-54.51C354.89,-46.85 341.38,-35.66 330.29,-26.47"/>
<polygon fill="#63b8ff" stroke="#63b8ff" points="332.8,-24.01 322.86,-20.32 328.33,-29.4 332.8,-24.01"/>
</g>
</g>
</svg>
