<?xml version="1.0" encoding="UTF-8" standalone="no"?>
<!DOCTYPE svg PUBLIC "-//W3C//DTD SVG 1.1//EN"
 "http://www.w3.org/Graphics/SVG/1.1/DTD/svg11.dtd">
<!-- Generated by graphviz version 7.0.5 (20221223.1930)
 -->
<!-- Title: iop/system/siftoo/src/pipe.c Pages: 1 -->
<svg width="208pt" height="258pt"
 viewBox="0.00 0.00 208.00 258.00" xmlns="http://www.w3.org/2000/svg" xmlns:xlink="http://www.w3.org/1999/xlink">
<g id="graph0" class="graph" transform="scale(1 1) rotate(0) translate(4 254)">
<title>iop/system/siftoo/src/pipe.c</title>
<!-- Node1 -->
<g id="node1" class="node">
<title>Node1</title>
<g id="a_node1"><a xlink:title=" ">
<polygon fill="#999999" stroke="#666666" points="126,-250 19,-250 19,-220 126,-220 126,-250"/>
<text text-anchor="start" x="27" y="-238" font-family="Helvetica,sans-Serif" font-size="10.00">iop/system/siftoo/src</text>
<text text-anchor="middle" x="72.5" y="-227" font-family="Helvetica,sans-Serif" font-size="10.00">/pipe.c</text>
</a>
</g>
</g>
<!-- Node2 -->
<g id="node2" class="node">
<title>Node2</title>
<g id="a_node2"><a xlink:title=" ">
<polygon fill="#e0e0e0" stroke="#999999" points="115,-129 68,-129 68,-110 115,-110 115,-129"/>
<text text-anchor="middle" x="91.5" y="-117" font-family="Helvetica,sans-Serif" font-size="10.00">types.h</text>
</a>
</g>
</g>
<!-- Node1&#45;&gt;Node2 -->
<g id="edge1" class="edge">
<title>Node1&#45;&gt;Node2</title>
<path fill="none" stroke="#63b8ff" d="M68.09,-219.75C64.41,-205.62 60.5,-183.48 65.5,-165 68.01,-155.74 72.98,-146.42 77.91,-138.73"/>
<polygon fill="#63b8ff" stroke="#63b8ff" points="80.69,-140.86 83.51,-130.64 74.94,-136.87 80.69,-140.86"/>
</g>
<!-- Node3 -->
<g id="node3" class="node">
<title>Node3</title>
<g id="a_node3"><a xlink:href="defs_8h.html" target="_top" xlink:title=" ">
<polygon fill="white" stroke="#666666" points="43,-129 0,-129 0,-110 43,-110 43,-129"/>
<text text-anchor="middle" x="21.5" y="-117" font-family="Helvetica,sans-Serif" font-size="10.00">defs.h</text>
</a>
</g>
</g>
<!-- Node1&#45;&gt;Node3 -->
<g id="edge2" class="edge">
<title>Node1&#45;&gt;Node3</title>
<path fill="none" stroke="#63b8ff" d="M66.04,-219.63C56.91,-199.31 40.22,-162.15 30.06,-139.55"/>
<polygon fill="#63b8ff" stroke="#63b8ff" points="33.33,-138.3 26.04,-130.61 26.95,-141.17 33.33,-138.3"/>
</g>
<!-- Node7 -->
<g id="node7" class="node">
<title>Node7</title>
<g id="a_node7"><a xlink:href="sbusintr_8h.html" target="_top" xlink:title=" ">
<polygon fill="white" stroke="#666666" points="200,-184 141,-184 141,-165 200,-165 200,-184"/>
<text text-anchor="middle" x="170.5" y="-172" font-family="Helvetica,sans-Serif" font-size="10.00">sbusintr.h</text>
</a>
</g>
</g>
<!-- Node1&#45;&gt;Node7 -->
<g id="edge6" class="edge">
<title>Node1&#45;&gt;Node7</title>
<path fill="none" stroke="#63b8ff" d="M96.72,-219.54C111.74,-210.58 130.96,-199.1 146.02,-190.11"/>
<polygon fill="#63b8ff" stroke="#63b8ff" points="147.59,-193.25 154.38,-185.12 144,-187.24 147.59,-193.25"/>
</g>
<!-- Node9 -->
<g id="node9" class="node">
<title>Node9</title>
<g id="a_node9"><a xlink:href="siftoo_8h.html" target="_top" xlink:title=" ">
<polygon fill="white" stroke="#666666" points="122.5,-184 74.5,-184 74.5,-165 122.5,-165 122.5,-184"/>
<text text-anchor="middle" x="98.5" y="-172" font-family="Helvetica,sans-Serif" font-size="10.00">siftoo.h</text>
</a>
</g>
</g>
<!-- Node1&#45;&gt;Node9 -->
<g id="edge10" class="edge">
<title>Node1&#45;&gt;Node9</title>
<path fill="none" stroke="#63b8ff" d="M78.93,-219.54C82.28,-212 86.42,-202.67 90.03,-194.55"/>
<polygon fill="#63b8ff" stroke="#63b8ff" points="93.17,-196.12 94.03,-185.56 86.77,-193.27 93.17,-196.12"/>
</g>
<!-- Node4 -->
<g id="node4" class="node">
<title>Node4</title>
<g id="a_node4"><a xlink:href="iop_2kernel_2include_2types_8h_source.html" target="_top" xlink:title=" ">
<polygon fill="white" stroke="#666666" points="106,-74 59,-74 59,-55 106,-55 106,-74"/>
<text text-anchor="middle" x="82.5" y="-62" font-family="Helvetica,sans-Serif" font-size="10.00">types.h</text>
</a>
</g>
</g>
<!-- Node3&#45;&gt;Node4 -->
<g id="edge3" class="edge">
<title>Node3&#45;&gt;Node4</title>
<path fill="none" stroke="#63b8ff" d="M31.85,-109.51C40.58,-101.93 53.29,-90.88 63.8,-81.75"/>
<polygon fill="#63b8ff" stroke="#63b8ff" points="65.91,-84.55 71.16,-75.35 61.32,-79.27 65.91,-84.55"/>
</g>
<!-- Node5 -->
<g id="node5" class="node">
<title>Node5</title>
<g id="a_node5"><a xlink:title=" ">
<polygon fill="#e0e0e0" stroke="#999999" points="70,-19 19,-19 19,0 70,0 70,-19"/>
<text text-anchor="middle" x="44.5" y="-7" font-family="Helvetica,sans-Serif" font-size="10.00">stddef.h</text>
</a>
</g>
</g>
<!-- Node4&#45;&gt;Node5 -->
<g id="edge4" class="edge">
<title>Node4&#45;&gt;Node5</title>
<path fill="none" stroke="#63b8ff" d="M76.23,-54.75C71.14,-47.66 63.8,-37.42 57.47,-28.59"/>
<polygon fill="#63b8ff" stroke="#63b8ff" points="60.46,-26.76 51.79,-20.67 54.78,-30.84 60.46,-26.76"/>
</g>
<!-- Node6 -->
<g id="node6" class="node">
<title>Node6</title>
<g id="a_node6"><a xlink:href="tamtypes_8h.html" target="_top" xlink:title=" ">
<polygon fill="white" stroke="#666666" points="152.5,-19 88.5,-19 88.5,0 152.5,0 152.5,-19"/>
<text text-anchor="middle" x="120.5" y="-7" font-family="Helvetica,sans-Serif" font-size="10.00">tamtypes.h</text>
</a>
</g>
</g>
<!-- Node4&#45;&gt;Node6 -->
<g id="edge5" class="edge">
<title>Node4&#45;&gt;Node6</title>
<path fill="none" stroke="#63b8ff" d="M88.77,-54.75C93.86,-47.66 101.2,-37.42 107.53,-28.59"/>
<polygon fill="#63b8ff" stroke="#63b8ff" points="110.22,-30.84 113.21,-20.67 104.54,-26.76 110.22,-30.84"/>
</g>
<!-- Node7&#45;&gt;Node2 -->
<g id="edge7" class="edge">
<title>Node7&#45;&gt;Node2</title>
<path fill="none" stroke="#63b8ff" d="M157.1,-164.51C145.34,-156.62 127.99,-144.98 114.09,-135.65"/>
<polygon fill="#63b8ff" stroke="#63b8ff" points="116.21,-132.87 105.96,-130.2 112.31,-138.68 116.21,-132.87"/>
</g>
<!-- Node8 -->
<g id="node8" class="node">
<title>Node8</title>
<g id="a_node8"><a xlink:href="irx_8h.html" target="_top" xlink:title=" ">
<polygon fill="white" stroke="#666666" points="167.5,-129 133.5,-129 133.5,-110 167.5,-110 167.5,-129"/>
<text text-anchor="middle" x="150.5" y="-117" font-family="Helvetica,sans-Serif" font-size="10.00">irx.h</text>
</a>
</g>
</g>
<!-- Node7&#45;&gt;Node8 -->
<g id="edge8" class="edge">
<title>Node7&#45;&gt;Node8</title>
<path fill="none" stroke="#63b8ff" d="M167.2,-164.75C164.67,-158.04 161.07,-148.52 157.87,-140.02"/>
<polygon fill="#63b8ff" stroke="#63b8ff" points="161.21,-138.98 154.41,-130.86 154.66,-141.45 161.21,-138.98"/>
</g>
<!-- Node8&#45;&gt;Node4 -->
<g id="edge9" class="edge">
<title>Node8&#45;&gt;Node4</title>
<path fill="none" stroke="#63b8ff" d="M138.96,-109.51C129.04,-101.77 114.49,-90.43 102.64,-81.2"/>
<polygon fill="#63b8ff" stroke="#63b8ff" points="105.1,-78.68 95.06,-75.29 100.79,-84.2 105.1,-78.68"/>
</g>
<!-- Node9&#45;&gt;Node2 -->
<g id="edge11" class="edge">
<title>Node9&#45;&gt;Node2</title>
<path fill="none" stroke="#63b8ff" d="M97.34,-164.75C96.48,-158.19 95.26,-148.95 94.16,-140.6"/>
<polygon fill="#63b8ff" stroke="#63b8ff" points="97.66,-140.4 92.88,-130.94 90.72,-141.31 97.66,-140.4"/>
</g>
<!-- Node9&#45;&gt;Node8 -->
<g id="edge12" class="edge">
<title>Node9&#45;&gt;Node8</title>
<path fill="none" stroke="#63b8ff" d="M107.09,-164.75C114.34,-157.35 124.95,-146.54 133.87,-137.45"/>
<polygon fill="#63b8ff" stroke="#63b8ff" points="136.16,-140.11 140.67,-130.52 131.16,-135.21 136.16,-140.11"/>
</g>
</g>
</svg>
