<?xml version="1.0" encoding="UTF-8" standalone="no"?>
<!DOCTYPE svg PUBLIC "-//W3C//DTD SVG 1.1//EN"
 "http://www.w3.org/Graphics/SVG/1.1/DTD/svg11.dtd">
<!-- Generated by graphviz version 7.0.5 (20221223.1930)
 -->
<!-- Title: common/include/ps2_reg_defs.h Pages: 1 -->
<svg width="170pt" height="148pt"
 viewBox="0.00 0.00 170.00 148.00" xmlns="http://www.w3.org/2000/svg" xmlns:xlink="http://www.w3.org/1999/xlink">
<g id="graph0" class="graph" transform="scale(1 1) rotate(0) translate(4 144)">
<title>common/include/ps2_reg_defs.h</title>
<!-- Node1 -->
<g id="node1" class="node">
<title>Node1</title>
<g id="a_node1"><a xlink:title=" ">
<polygon fill="#999999" stroke="#666666" points="107,-140 0,-140 0,-110 107,-110 107,-140"/>
<text text-anchor="start" x="8" y="-128" font-family="Helvetica,sans-Serif" font-size="10.00">common/include/ps2</text>
<text text-anchor="middle" x="53.5" y="-117" font-family="Helvetica,sans-Serif" font-size="10.00">_reg_defs.h</text>
</a>
</g>
</g>
<!-- Node2 -->
<g id="node2" class="node">
<title>Node2</title>
<g id="a_node2"><a xlink:href="tamtypes_8h.html" target="_top" xlink:title=" ">
<polygon fill="white" stroke="#666666" points="85.5,-19 21.5,-19 21.5,0 85.5,0 85.5,-19"/>
<text text-anchor="middle" x="53.5" y="-7" font-family="Helvetica,sans-Serif" font-size="10.00">tamtypes.h</text>
</a>
</g>
</g>
<!-- Node1&#45;&gt;Node2 -->
<g id="edge1" class="edge">
<title>Node1&#45;&gt;Node2</title>
<path fill="none" stroke="#63b8ff" d="M38.24,-109.84C29.45,-100.61 19.23,-87.74 14.5,-74 11.75,-66.01 11.53,-62.9 14.5,-55 18.54,-44.27 26.47,-34.43 34.13,-26.76"/>
<polygon fill="#63b8ff" stroke="#63b8ff" points="36.08,-29.72 41.03,-20.36 31.32,-24.59 36.08,-29.72"/>
</g>
<!-- Node3 -->
<g id="node3" class="node">
<title>Node3</title>
<g id="a_node3"><a xlink:href="ee__regs_8h.html" target="_top" xlink:title=" ">
<polygon fill="white" stroke="#666666" points="83,-74 24,-74 24,-55 83,-55 83,-74"/>
<text text-anchor="middle" x="53.5" y="-62" font-family="Helvetica,sans-Serif" font-size="10.00">ee_regs.h</text>
</a>
</g>
</g>
<!-- Node1&#45;&gt;Node3 -->
<g id="edge2" class="edge">
<title>Node1&#45;&gt;Node3</title>
<path fill="none" stroke="#63b8ff" d="M53.5,-109.54C53.5,-102.34 53.5,-93.53 53.5,-85.68"/>
<polygon fill="#63b8ff" stroke="#63b8ff" points="57,-85.69 53.5,-75.69 50,-85.69 57,-85.69"/>
</g>
<!-- Node4 -->
<g id="node4" class="node">
<title>Node4</title>
<g id="a_node4"><a xlink:href="iop__regs_8h.html" target="_top" xlink:title=" ">
<polygon fill="white" stroke="#666666" points="162,-74 101,-74 101,-55 162,-55 162,-74"/>
<text text-anchor="middle" x="131.5" y="-62" font-family="Helvetica,sans-Serif" font-size="10.00">iop_regs.h</text>
</a>
</g>
</g>
<!-- Node1&#45;&gt;Node4 -->
<g id="edge4" class="edge">
<title>Node1&#45;&gt;Node4</title>
<path fill="none" stroke="#63b8ff" d="M72.78,-109.54C84.34,-100.87 99.04,-89.85 110.84,-81"/>
<polygon fill="#63b8ff" stroke="#63b8ff" points="112.82,-83.88 118.72,-75.08 108.62,-78.28 112.82,-83.88"/>
</g>
<!-- Node3&#45;&gt;Node2 -->
<g id="edge3" class="edge">
<title>Node3&#45;&gt;Node2</title>
<path fill="none" stroke="#63b8ff" d="M53.5,-54.75C53.5,-48.27 53.5,-39.16 53.5,-30.9"/>
<polygon fill="#63b8ff" stroke="#63b8ff" points="57,-30.96 53.5,-20.96 50,-30.96 57,-30.96"/>
</g>
<!-- Node4&#45;&gt;Node2 -->
<g id="edge5" class="edge">
<title>Node4&#45;&gt;Node2</title>
<path fill="none" stroke="#63b8ff" d="M118.27,-54.51C106.66,-46.62 89.53,-34.98 75.8,-25.65"/>
<polygon fill="#63b8ff" stroke="#63b8ff" points="78.03,-22.93 67.79,-20.21 74.09,-28.72 78.03,-22.93"/>
</g>
</g>
</svg>
