<?xml version="1.0" encoding="UTF-8" standalone="no"?>
<!DOCTYPE svg PUBLIC "-//W3C//DTD SVG 1.1//EN"
 "http://www.w3.org/Graphics/SVG/1.1/DTD/svg11.dtd">
<!-- Generated by graphviz version 7.0.5 (20221223.1930)
 -->
<!-- Title: iop/fs/netfs/src/ps2_fio.h Pages: 1 -->
<svg width="258pt" height="104pt"
 viewBox="0.00 0.00 257.50 104.00" xmlns="http://www.w3.org/2000/svg" xmlns:xlink="http://www.w3.org/1999/xlink">
<g id="graph0" class="graph" transform="scale(1 1) rotate(0) translate(4 100)">
<title>iop/fs/netfs/src/ps2_fio.h</title>
<!-- Node1 -->
<g id="node1" class="node">
<title>Node1</title>
<g id="a_node1"><a xlink:title=" ">
<polygon fill="#999999" stroke="#666666" points="168,-96 67,-96 67,-66 168,-66 168,-96"/>
<text text-anchor="start" x="75" y="-84" font-family="Helvetica,sans-Serif" font-size="10.00">iop/fs/netfs/src/ps2</text>
<text text-anchor="middle" x="117.5" y="-73" font-family="Helvetica,sans-Serif" font-size="10.00">_fio.h</text>
</a>
</g>
</g>
<!-- Node2 -->
<g id="node2" class="node">
<title>Node2</title>
<g id="a_node2"><a xlink:href="ps2__fio_8c.html" target="_top" xlink:title=" ">
<polygon fill="white" stroke="#666666" points="101,-30 0,-30 0,0 101,0 101,-30"/>
<text text-anchor="start" x="8" y="-18" font-family="Helvetica,sans-Serif" font-size="10.00">iop/fs/netfs/src/ps2</text>
<text text-anchor="middle" x="50.5" y="-7" font-family="Helvetica,sans-Serif" font-size="10.00">_fio.c</text>
</a>
</g>
</g>
<!-- Node1&#45;&gt;Node2 -->
<g id="edge1" class="edge">
<title>Node1&#45;&gt;Node2</title>
<path fill="none" stroke="#63b8ff" d="M94.56,-58.09C84.89,-48.85 73.91,-38.36 65.33,-30.16"/>
<polygon fill="#63b8ff" stroke="#63b8ff" points="91.89,-60.37 101.54,-64.75 96.72,-55.31 91.89,-60.37"/>
</g>
<!-- Node3 -->
<g id="node3" class="node">
<title>Node3</title>
<g id="a_node3"><a xlink:href="ps2netfs_8c.html" target="_top" xlink:title=" ">
<polygon fill="white" stroke="#666666" points="249.5,-24.5 119.5,-24.5 119.5,-5.5 249.5,-5.5 249.5,-24.5"/>
<text text-anchor="middle" x="184.5" y="-12.5" font-family="Helvetica,sans-Serif" font-size="10.00">iop/fs/netfs/src/ps2netfs.c</text>
</a>
</g>
</g>
<!-- Node1&#45;&gt;Node3 -->
<g id="edge2" class="edge">
<title>Node1&#45;&gt;Node3</title>
<path fill="none" stroke="#63b8ff" d="M140.59,-57.94C152.49,-46.58 166.33,-33.36 175.24,-24.84"/>
<polygon fill="#63b8ff" stroke="#63b8ff" points="138.28,-55.31 133.46,-64.75 143.11,-60.37 138.28,-55.31"/>
</g>
</g>
</svg>
