<?xml version="1.0" encoding="UTF-8" standalone="no"?>
<!DOCTYPE svg PUBLIC "-//W3C//DTD SVG 1.1//EN"
 "http://www.w3.org/Graphics/SVG/1.1/DTD/svg11.dtd">
<!-- Generated by graphviz version 7.0.5 (20221223.1930)
 -->
<!-- Title: common/include/ps2_reg_defs.h Pages: 1 -->
<!--zoomable 170 -->
<svg id="main" version="1.1" xmlns="http://www.w3.org/2000/svg" xmlns:xlink="http://www.w3.org/1999/xlink" xml:space="preserve" onload="init(evt)">
<style type="text/css"><![CDATA[
.edge:hover path { stroke: red; }
.edge:hover polygon { stroke: red; fill: red; }
]]></style>
<script type="text/javascript"><![CDATA[
var edges = document.getElementsByTagName('g');
if (edges && edges.length) {
  for (var i=0;i<edges.length;i++) {
    if (edges[i].id.substr(0,4)=='edge') {
      edges[i].setAttribute('class','edge');
    }
  }
}
]]></script>
        <defs>
                <circle id="rim" cx="0" cy="0" r="7"/>
                <circle id="rim2" cx="0" cy="0" r="3.5"/>
                <g id="zoomPlus">
                        <use xlink:href="#rim" fill="#404040">
                                <set attributeName="fill" to="#808080" begin="zoomplus.mouseover" end="zoomplus.mouseout"/>
                        </use>
                        <path d="M-4,0h8M0,-4v8" fill="none" stroke="white" stroke-width="1.5" pointer-events="none"/>
                </g>
                <g id="zoomMin">
                        <use xlink:href="#rim" fill="#404040">
                                <set attributeName="fill" to="#808080" begin="zoomminus.mouseover" end="zoomminus.mouseout"/>
                        </use>
                        <path d="M-4,0h8" fill="none" stroke="white" stroke-width="1.5" pointer-events="none"/>
                </g>
                <g id="dirArrow">
                        <path fill="none" stroke="white" stroke-width="1.5" d="M0,-3.0v7 M-2.5,-0.5L0,-3.0L2.5,-0.5"/>
                </g>
               <g id="resetDef">
                       <use xlink:href="#rim2" fill="#404040">
                               <set attributeName="fill" to="#808080" begin="reset.mouseover" end="reset.mouseout"/>
                       </use>
               </g>
        </defs>

<script type="text/javascript">
var viewWidth = 1588;
var viewHeight = 170;
var sectionId = 'dynsection-1';
</script>
<script xlink:href="svgpan.js"/>
<svg id="graph" class="graph">
<g id="viewport">
<title>common/include/ps2_reg_defs.h</title>
<!-- Node1 -->
<g id="node1" class="node">
<title>Node1</title>
<g id="a_node1"><a xlink:title=" ">
<polygon fill="#999999" stroke="#666666" points="534.5,-162 427.5,-162 427.5,-132 534.5,-132 534.5,-162"/>
<text text-anchor="start" x="435.5" y="-150" font-family="Helvetica,sans-Serif" font-size="10.00">common/include/ps2</text>
<text text-anchor="middle" x="481" y="-139" font-family="Helvetica,sans-Serif" font-size="10.00">_reg_defs.h</text>
</a>
</g>
</g>
<!-- Node2 -->
<g id="node2" class="node">
<title>Node2</title>
<g id="a_node2"><a xlink:href="ps2__sbus_8h.html" target="_top" xlink:title=" ">
<polygon fill="white" stroke="#666666" points="753,-96 641,-96 641,-66 753,-66 753,-96"/>
<text text-anchor="start" x="649" y="-84" font-family="Helvetica,sans-Serif" font-size="10.00">common/sbus/include</text>
<text text-anchor="middle" x="697" y="-73" font-family="Helvetica,sans-Serif" font-size="10.00">/ps2_sbus.h</text>
</a>
</g>
</g>
<!-- Node1&#45;&gt;Node2 -->
<g id="edge1" class="edge">
<title>Node1&#45;&gt;Node2</title>
<path fill="none" stroke="#63b8ff" d="M540.46,-128.38C574.42,-118.32 616.47,-105.86 648.43,-96.39"/>
<polygon fill="#63b8ff" stroke="#63b8ff" points="539.79,-124.93 531.2,-131.13 541.78,-131.64 539.79,-124.93"/>
</g>
<!-- Node3 -->
<g id="node3" class="node">
<title>Node3</title>
<g id="a_node3"><a xlink:href="ee__sbus_8c_source.html" target="_top" xlink:title=" ">
<polygon fill="white" stroke="#666666" points="108,-30 0,-30 0,0 108,0 108,-30"/>
<text text-anchor="start" x="8" y="-18" font-family="Helvetica,sans-Serif" font-size="10.00">common/sbus/src/ee</text>
<text text-anchor="middle" x="54" y="-7" font-family="Helvetica,sans-Serif" font-size="10.00">_sbus.c</text>
</a>
</g>
</g>
<!-- Node1&#45;&gt;Node3 -->
<g id="edge14" class="edge">
<title>Node1&#45;&gt;Node3</title>
<path fill="none" stroke="#63b8ff" d="M416.44,-128.92C381.81,-119.57 338.45,-107.56 300,-96 228.17,-74.41 145.37,-46.95 96.48,-30.46"/>
<polygon fill="#63b8ff" stroke="#63b8ff" points="415.33,-132.25 425.9,-131.47 417.15,-125.49 415.33,-132.25"/>
</g>
<!-- Node4 -->
<g id="node4" class="node">
<title>Node4</title>
<g id="a_node4"><a xlink:href="ee__sif2_8c_source.html" target="_top" xlink:title=" ">
<polygon fill="white" stroke="#666666" points="234,-30 126,-30 126,0 234,0 234,-30"/>
<text text-anchor="start" x="134" y="-18" font-family="Helvetica,sans-Serif" font-size="10.00">common/sbus/src/ee</text>
<text text-anchor="middle" x="180" y="-7" font-family="Helvetica,sans-Serif" font-size="10.00">_sif2.c</text>
</a>
</g>
</g>
<!-- Node1&#45;&gt;Node4 -->
<g id="edge15" class="edge">
<title>Node1&#45;&gt;Node4</title>
<path fill="none" stroke="#63b8ff" d="M437.25,-127.1C376.57,-100.9 268.19,-54.09 213.51,-30.47"/>
<polygon fill="#63b8ff" stroke="#63b8ff" points="435.68,-130.24 446.25,-130.99 438.46,-123.81 435.68,-130.24"/>
</g>
<!-- Node6 -->
<g id="node6" class="node">
<title>Node6</title>
<g id="a_node6"><a xlink:href="iop__sif2_8c_source.html" target="_top" xlink:title=" ">
<polygon fill="white" stroke="#666666" points="362,-30 252,-30 252,0 362,0 362,-30"/>
<text text-anchor="start" x="260" y="-18" font-family="Helvetica,sans-Serif" font-size="10.00">common/sbus/src/iop</text>
<text text-anchor="middle" x="307" y="-7" font-family="Helvetica,sans-Serif" font-size="10.00">_sif2.c</text>
</a>
</g>
</g>
<!-- Node1&#45;&gt;Node6 -->
<g id="edge16" class="edge">
<title>Node1&#45;&gt;Node6</title>
<path fill="none" stroke="#63b8ff" d="M452.82,-124.94C417.28,-98.39 357.13,-53.45 326.37,-30.47"/>
<polygon fill="#63b8ff" stroke="#63b8ff" points="450.4,-127.5 460.5,-130.69 454.59,-121.9 450.4,-127.5"/>
</g>
<!-- Node8 -->
<g id="node8" class="node">
<title>Node8</title>
<g id="a_node8"><a xlink:href="ps2__sbus_8c_source.html" target="_top" xlink:title=" ">
<polygon fill="white" stroke="#666666" points="493.5,-30 380.5,-30 380.5,0 493.5,0 493.5,-30"/>
<text text-anchor="start" x="388.5" y="-18" font-family="Helvetica,sans-Serif" font-size="10.00">common/sbus/src/ps2</text>
<text text-anchor="middle" x="437" y="-7" font-family="Helvetica,sans-Serif" font-size="10.00">_sbus.c</text>
</a>
</g>
</g>
<!-- Node1&#45;&gt;Node8 -->
<g id="edge17" class="edge">
<title>Node1&#45;&gt;Node8</title>
<path fill="none" stroke="#63b8ff" d="M467.31,-121.45C463.27,-113.5 459.1,-104.53 456,-96 447.91,-73.73 442.32,-46.7 439.39,-30.45"/>
<polygon fill="#63b8ff" stroke="#63b8ff" points="464.16,-122.98 471.93,-130.18 470.35,-119.7 464.16,-122.98"/>
</g>
<!-- Node9 -->
<g id="node9" class="node">
<title>Node9</title>
<g id="a_node9"><a xlink:href="ps2__sif_8c_source.html" target="_top" xlink:title=" ">
<polygon fill="white" stroke="#666666" points="1421.5,-30 1308.5,-30 1308.5,0 1421.5,0 1421.5,-30"/>
<text text-anchor="start" x="1316.5" y="-18" font-family="Helvetica,sans-Serif" font-size="10.00">common/sbus/src/ps2</text>
<text text-anchor="middle" x="1365" y="-7" font-family="Helvetica,sans-Serif" font-size="10.00">_sif.c</text>
</a>
</g>
</g>
<!-- Node1&#45;&gt;Node9 -->
<g id="edge18" class="edge">
<title>Node1&#45;&gt;Node9</title>
<path fill="none" stroke="#63b8ff" d="M546.03,-138.31C684.82,-121.55 1020.11,-79.29 1299,-30 1302,-29.47 1305.07,-28.9 1308.17,-28.31"/>
<polygon fill="#63b8ff" stroke="#63b8ff" points="545.81,-134.81 536.3,-139.48 546.65,-141.76 545.81,-134.81"/>
</g>
<!-- Node10 -->
<g id="node10" class="node">
<title>Node10</title>
<g id="a_node10"><a xlink:href="sif2cmd_8c_source.html" target="_top" xlink:title=" ">
<polygon fill="white" stroke="#666666" points="1580,-24.5 1440,-24.5 1440,-5.5 1580,-5.5 1580,-24.5"/>
<text text-anchor="middle" x="1510" y="-12.5" font-family="Helvetica,sans-Serif" font-size="10.00">common/sbus/src/sif2cmd.c</text>
</a>
</g>
</g>
<!-- Node1&#45;&gt;Node10 -->
<g id="edge28" class="edge">
<title>Node1&#45;&gt;Node10</title>
<path fill="none" stroke="#63b8ff" d="M546.33,-140.65C643.31,-132.46 831.02,-115.69 990,-96 1186.68,-71.64 1235.41,-61.96 1431,-30 1440.62,-28.43 1450.89,-26.67 1460.73,-24.94"/>
<polygon fill="#63b8ff" stroke="#63b8ff" points="546.15,-137.15 536.47,-141.48 546.73,-144.13 546.15,-137.15"/>
</g>
<!-- Node15 -->
<g id="node15" class="node">
<title>Node15</title>
<g id="a_node15"><a xlink:href="sbus__priv_8h_source.html" target="_top" xlink:title=" ">
<polygon fill="white" stroke="#666666" points="584.5,-96 465.5,-96 465.5,-66 584.5,-66 584.5,-96"/>
<text text-anchor="start" x="473.5" y="-84" font-family="Helvetica,sans-Serif" font-size="10.00">common/sbus/src/sbus</text>
<text text-anchor="middle" x="525" y="-73" font-family="Helvetica,sans-Serif" font-size="10.00">_priv.h</text>
</a>
</g>
</g>
<!-- Node1&#45;&gt;Node15 -->
<g id="edge19" class="edge">
<title>Node1&#45;&gt;Node15</title>
<path fill="none" stroke="#63b8ff" d="M497.23,-122.39C503.28,-113.59 509.97,-103.86 515.26,-96.16"/>
<polygon fill="#63b8ff" stroke="#63b8ff" points="494.4,-120.33 491.62,-130.55 500.17,-124.29 494.4,-120.33"/>
</g>
<!-- Node2&#45;&gt;Node3 -->
<g id="edge2" class="edge">
<title>Node2&#45;&gt;Node3</title>
<path fill="none" stroke="#63b8ff" d="M629.26,-70.3C617.2,-68.74 604.74,-67.23 593,-66 382,-43.84 326.87,-61.09 117,-30 114.12,-29.57 111.17,-29.09 108.2,-28.56"/>
<polygon fill="#63b8ff" stroke="#63b8ff" points="628.8,-73.77 639.17,-71.61 629.71,-66.83 628.8,-73.77"/>
</g>
<!-- Node2&#45;&gt;Node4 -->
<g id="edge3" class="edge">
<title>Node2&#45;&gt;Node4</title>
<path fill="none" stroke="#63b8ff" d="M629.23,-70.57C617.17,-68.98 604.72,-67.39 593,-66 437.71,-47.57 397.36,-55 243,-30 240.12,-29.53 237.18,-29.02 234.22,-28.47"/>
<polygon fill="#63b8ff" stroke="#63b8ff" points="628.76,-74.03 639.14,-71.89 629.69,-67.09 628.76,-74.03"/>
</g>
<!-- Node5 -->
<g id="node5" class="node">
<title>Node5</title>
<g id="a_node5"><a xlink:href="iop__sbus_8c_source.html" target="_top" xlink:title=" ">
<polygon fill="white" stroke="#666666" points="622,-30 512,-30 512,0 622,0 622,-30"/>
<text text-anchor="start" x="520" y="-18" font-family="Helvetica,sans-Serif" font-size="10.00">common/sbus/src/iop</text>
<text text-anchor="middle" x="567" y="-7" font-family="Helvetica,sans-Serif" font-size="10.00">_sbus.c</text>
</a>
</g>
</g>
<!-- Node2&#45;&gt;Node5 -->
<g id="edge4" class="edge">
<title>Node2&#45;&gt;Node5</title>
<path fill="none" stroke="#63b8ff" d="M657.57,-60.59C637.77,-50.84 614.21,-39.24 596.08,-30.31"/>
<polygon fill="#63b8ff" stroke="#63b8ff" points="655.95,-63.69 666.47,-64.97 659.04,-57.41 655.95,-63.69"/>
</g>
<!-- Node2&#45;&gt;Node6 -->
<g id="edge5" class="edge">
<title>Node2&#45;&gt;Node6</title>
<path fill="none" stroke="#63b8ff" d="M629.49,-70.91C563.41,-61.72 460,-46.54 371,-30 368.2,-29.48 365.34,-28.93 362.46,-28.36"/>
<polygon fill="#63b8ff" stroke="#63b8ff" points="628.69,-74.34 639.07,-72.24 629.65,-67.4 628.69,-74.34"/>
</g>
<!-- Node7 -->
<g id="node7" class="node">
<title>Node7</title>
<g id="a_node7"><a xlink:href="ps2__dbg_8c_source.html" target="_top" xlink:title=" ">
<polygon fill="white" stroke="#666666" points="753.5,-30 640.5,-30 640.5,0 753.5,0 753.5,-30"/>
<text text-anchor="start" x="648.5" y="-18" font-family="Helvetica,sans-Serif" font-size="10.00">common/sbus/src/ps2</text>
<text text-anchor="middle" x="697" y="-7" font-family="Helvetica,sans-Serif" font-size="10.00">_dbg.c</text>
</a>
</g>
</g>
<!-- Node2&#45;&gt;Node7 -->
<g id="edge6" class="edge">
<title>Node2&#45;&gt;Node7</title>
<path fill="none" stroke="#63b8ff" d="M697,-54.39C697,-46.13 697,-37.28 697,-30.16"/>
<polygon fill="#63b8ff" stroke="#63b8ff" points="693.5,-54.28 697,-64.28 700.5,-54.28 693.5,-54.28"/>
</g>
<!-- Node2&#45;&gt;Node8 -->
<g id="edge7" class="edge">
<title>Node2&#45;&gt;Node8</title>
<path fill="none" stroke="#63b8ff" d="M629.58,-63.4C587.42,-53.03 533.73,-39.81 493.75,-29.97"/>
<polygon fill="#63b8ff" stroke="#63b8ff" points="628.57,-66.76 639.11,-65.75 630.24,-59.96 628.57,-66.76"/>
</g>
<!-- Node2&#45;&gt;Node9 -->
<g id="edge8" class="edge">
<title>Node2&#45;&gt;Node9</title>
<path fill="none" stroke="#63b8ff" d="M764.71,-77.16C876.46,-71.86 1106.34,-58.32 1299,-30 1302.01,-29.56 1305.09,-29.06 1308.2,-28.52"/>
<polygon fill="#63b8ff" stroke="#63b8ff" points="764.63,-73.66 754.8,-77.63 764.96,-80.66 764.63,-73.66"/>
</g>
<!-- Node2&#45;&gt;Node10 -->
<g id="edge9" class="edge">
<title>Node2&#45;&gt;Node10</title>
<path fill="none" stroke="#63b8ff" d="M764.66,-77.82C894.34,-73.11 1186.71,-59.88 1431,-30 1441.78,-28.68 1453.33,-26.87 1464.17,-24.98"/>
<polygon fill="#63b8ff" stroke="#63b8ff" points="764.75,-74.31 754.88,-78.17 765,-81.31 764.75,-74.31"/>
</g>
<!-- Node11 -->
<g id="node11" class="node">
<title>Node11</title>
<g id="a_node11"><a xlink:href="iop_2debug_2iop__sbusdbg_2src_2irx__imports_8h_source.html" target="_top" xlink:title=" ">
<polygon fill="white" stroke="#666666" points="888,-30 772,-30 772,0 888,0 888,-30"/>
<text text-anchor="start" x="780" y="-18" font-family="Helvetica,sans-Serif" font-size="10.00">iop/debug/iop_sbusdbg</text>
<text text-anchor="middle" x="830" y="-7" font-family="Helvetica,sans-Serif" font-size="10.00">/src/irx_imports.h</text>
</a>
</g>
</g>
<!-- Node2&#45;&gt;Node11 -->
<g id="edge10" class="edge">
<title>Node2&#45;&gt;Node11</title>
<path fill="none" stroke="#63b8ff" d="M737.06,-60.72C757.37,-50.95 781.62,-39.28 800.25,-30.31"/>
<polygon fill="#63b8ff" stroke="#63b8ff" points="735.7,-57.49 728.21,-64.98 738.74,-63.8 735.7,-57.49"/>
</g>
<!-- Node12 -->
<g id="node12" class="node">
<title>Node12</title>
<g id="a_node12"><a xlink:href="iop_2debug_2iop__sbusdbg_2src_2main_8c_source.html" target="_top" xlink:title=" ">
<polygon fill="white" stroke="#666666" points="1022,-30 906,-30 906,0 1022,0 1022,-30"/>
<text text-anchor="start" x="914" y="-18" font-family="Helvetica,sans-Serif" font-size="10.00">iop/debug/iop_sbusdbg</text>
<text text-anchor="middle" x="964" y="-7" font-family="Helvetica,sans-Serif" font-size="10.00">/src/main.c</text>
</a>
</g>
</g>
<!-- Node2&#45;&gt;Node12 -->
<g id="edge11" class="edge">
<title>Node2&#45;&gt;Node12</title>
<path fill="none" stroke="#63b8ff" d="M764.39,-63.85C808.03,-53.39 864.28,-39.9 905.93,-29.92"/>
<polygon fill="#63b8ff" stroke="#63b8ff" points="763.68,-60.42 754.77,-66.15 765.31,-67.23 763.68,-60.42"/>
</g>
<!-- Node13 -->
<g id="node13" class="node">
<title>Node13</title>
<g id="a_node13"><a xlink:href="sbus__dbg_8c_source.html" target="_top" xlink:title=" ">
<polygon fill="white" stroke="#666666" points="1156,-30 1040,-30 1040,0 1156,0 1156,-30"/>
<text text-anchor="start" x="1048" y="-18" font-family="Helvetica,sans-Serif" font-size="10.00">iop/debug/iop_sbusdbg</text>
<text text-anchor="middle" x="1098" y="-7" font-family="Helvetica,sans-Serif" font-size="10.00">/src/sbus_dbg.c</text>
</a>
</g>
</g>
<!-- Node2&#45;&gt;Node13 -->
<g id="edge12" class="edge">
<title>Node2&#45;&gt;Node13</title>
<path fill="none" stroke="#63b8ff" d="M764.63,-71.04C832.23,-61.8 939.07,-46.47 1031,-30 1033.81,-29.5 1036.68,-28.97 1039.57,-28.41"/>
<polygon fill="#63b8ff" stroke="#63b8ff" points="764.24,-67.56 754.8,-72.37 765.18,-74.49 764.24,-67.56"/>
</g>
<!-- Node14 -->
<g id="node14" class="node">
<title>Node14</title>
<g id="a_node14"><a xlink:href="sbus__tty_8c_source.html" target="_top" xlink:title=" ">
<polygon fill="white" stroke="#666666" points="1290,-30 1174,-30 1174,0 1290,0 1290,-30"/>
<text text-anchor="start" x="1182" y="-18" font-family="Helvetica,sans-Serif" font-size="10.00">iop/debug/iop_sbusdbg</text>
<text text-anchor="middle" x="1232" y="-7" font-family="Helvetica,sans-Serif" font-size="10.00">/src/sbus_tty.c</text>
</a>
</g>
</g>
<!-- Node2&#45;&gt;Node14 -->
<g id="edge13" class="edge">
<title>Node2&#45;&gt;Node14</title>
<path fill="none" stroke="#63b8ff" d="M764.71,-74.89C855.97,-67.53 1023.35,-52.31 1165,-30 1167.82,-29.56 1170.7,-29.07 1173.6,-28.56"/>
<polygon fill="#63b8ff" stroke="#63b8ff" points="764.63,-71.39 754.94,-75.68 765.18,-78.37 764.63,-71.39"/>
</g>
<!-- Node15&#45;&gt;Node3 -->
<g id="edge20" class="edge">
<title>Node15&#45;&gt;Node3</title>
<path fill="none" stroke="#63b8ff" d="M453.89,-73.39C372.24,-65.32 234.43,-50.19 117,-30 114.13,-29.51 111.19,-28.97 108.23,-28.4"/>
<polygon fill="#63b8ff" stroke="#63b8ff" points="453.47,-76.87 463.77,-74.36 454.16,-69.9 453.47,-76.87"/>
</g>
<!-- Node15&#45;&gt;Node4 -->
<g id="edge21" class="edge">
<title>Node15&#45;&gt;Node4</title>
<path fill="none" stroke="#63b8ff" d="M454.09,-68.3C396.97,-58.66 314.65,-44.31 243,-30 240.14,-29.43 237.22,-28.83 234.26,-28.21"/>
<polygon fill="#63b8ff" stroke="#63b8ff" points="453.24,-71.7 463.68,-69.91 454.4,-64.8 453.24,-71.7"/>
</g>
<!-- Node15&#45;&gt;Node5 -->
<g id="edge22" class="edge">
<title>Node15&#45;&gt;Node5</title>
<path fill="none" stroke="#63b8ff" d="M540.49,-56.39C546.27,-47.59 552.65,-37.86 557.7,-30.16"/>
<polygon fill="#63b8ff" stroke="#63b8ff" points="537.71,-54.25 535.15,-64.53 543.56,-58.09 537.71,-54.25"/>
</g>
<!-- Node15&#45;&gt;Node6 -->
<g id="edge23" class="edge">
<title>Node15&#45;&gt;Node6</title>
<path fill="none" stroke="#63b8ff" d="M464.99,-62.38C430.71,-52.32 388.27,-39.86 356.02,-30.39"/>
<polygon fill="#63b8ff" stroke="#63b8ff" points="463.77,-65.67 474.35,-65.13 465.74,-58.96 463.77,-65.67"/>
</g>
<!-- Node15&#45;&gt;Node7 -->
<g id="edge24" class="edge">
<title>Node15&#45;&gt;Node7</title>
<path fill="none" stroke="#63b8ff" d="M574.26,-61.67C600.92,-51.75 633.39,-39.67 658.23,-30.43"/>
<polygon fill="#63b8ff" stroke="#63b8ff" points="573.17,-58.34 565.02,-65.11 575.61,-64.9 573.17,-58.34"/>
</g>
<!-- Node15&#45;&gt;Node8 -->
<g id="edge25" class="edge">
<title>Node15&#45;&gt;Node8</title>
<path fill="none" stroke="#63b8ff" d="M496.47,-59.25C483.5,-49.82 468.48,-38.9 456.78,-30.39"/>
<polygon fill="#63b8ff" stroke="#63b8ff" points="494.1,-61.85 504.25,-64.91 498.22,-56.19 494.1,-61.85"/>
</g>
<!-- Node15&#45;&gt;Node9 -->
<g id="edge26" class="edge">
<title>Node15&#45;&gt;Node9</title>
<path fill="none" stroke="#63b8ff" d="M596.2,-69.91C608.14,-68.44 620.41,-67.07 632,-66 927.62,-38.72 1004.69,-68.92 1299,-30 1302.02,-29.6 1305.11,-29.14 1308.22,-28.63"/>
<polygon fill="#63b8ff" stroke="#63b8ff" points="595.88,-66.43 586.4,-71.16 596.76,-73.37 595.88,-66.43"/>
</g>
<!-- Node15&#45;&gt;Node10 -->
<g id="edge27" class="edge">
<title>Node15&#45;&gt;Node10</title>
<path fill="none" stroke="#63b8ff" d="M596.2,-69.83C608.13,-68.37 620.4,-67.02 632,-66 986.11,-34.91 1077.69,-69.1 1431,-30 1442.21,-28.76 1454.24,-26.9 1465.44,-24.94"/>
<polygon fill="#63b8ff" stroke="#63b8ff" points="595.87,-66.34 586.39,-71.06 596.75,-73.28 595.87,-66.34"/>
</g>
</g>
</svg>
        <g id="navigator" transform="translate(0 0)" fill="#404254">
                <rect fill="#f2f5e9" fill-opacity="0.5" stroke="#606060" stroke-width=".5" x="0" y="0" width="60" height="60"/>
                <use id="zoomplus" xlink:href="#zoomPlus" x="17" y="9" onmousedown="handleZoom(evt,'in')"/>
                <use id="zoomminus" xlink:href="#zoomMin" x="42" y="9" onmousedown="handleZoom(evt,'out')"/>
                <use id="reset" xlink:href="#resetDef" x="30" y="36" onmousedown="handleReset()"/>
                <g id="arrowUp" xlink:href="#dirArrow" transform="translate(30 24)" onmousedown="handlePan(0,-1)">
                  <use xlink:href="#rim" fill="#404040">
                        <set attributeName="fill" to="#808080" begin="arrowUp.mouseover" end="arrowUp.mouseout"/>
                  </use>
                  <path fill="none" stroke="white" stroke-width="1.5" d="M0,-3.0v7 M-2.5,-0.5L0,-3.0L2.5,-0.5"/>
                </g>
                <g id="arrowRight" xlink:href="#dirArrow" transform="rotate(90) translate(36 -43)" onmousedown="handlePan(1,0)">
                  <use xlink:href="#rim" fill="#404040">
                        <set attributeName="fill" to="#808080" begin="arrowRight.mouseover" end="arrowRight.mouseout"/>
                  </use>
                  <path fill="none" stroke="white" stroke-width="1.5" d="M0,-3.0v7 M-2.5,-0.5L0,-3.0L2.5,-0.5"/>
                </g>
                <g id="arrowDown" xlink:href="#dirArrow" transform="rotate(180) translate(-30 -48)" onmousedown="handlePan(0,1)">
                  <use xlink:href="#rim" fill="#404040">
                        <set attributeName="fill" to="#808080" begin="arrowDown.mouseover" end="arrowDown.mouseout"/>
                  </use>
                  <path fill="none" stroke="white" stroke-width="1.5" d="M0,-3.0v7 M-2.5,-0.5L0,-3.0L2.5,-0.5"/>
                </g>
                <g id="arrowLeft" xlink:href="#dirArrow" transform="rotate(270) translate(-36 17)" onmousedown="handlePan(-1,0)">
                  <use xlink:href="#rim" fill="#404040">
                        <set attributeName="fill" to="#808080" begin="arrowLeft.mouseover" end="arrowLeft.mouseout"/>
                  </use>
                  <path fill="none" stroke="white" stroke-width="1.5" d="M0,-3.0v7 M-2.5,-0.5L0,-3.0L2.5,-0.5"/>
                </g>
        </g>
        <svg viewBox="0 0 15 15" width="100%" height="30px" preserveAspectRatio="xMaxYMin meet">
         <g id="arrow_out" transform="scale(0.3 0.3)">
          <a xlink:href="ps2__reg__defs_8h__dep__incl_org.svg" target="_base">
           <rect id="button" ry="5" rx="5" y="6" x="6" height="38" width="38"
                fill="#f2f5e9" fill-opacity="0.5" stroke="#606060" stroke-width="1.0"/>
           <path id="arrow"
             d="M 11.500037,31.436501 C 11.940474,20.09759 22.043105,11.32322 32.158766,21.979434 L 37.068811,17.246167 C 37.068811,17.246167 37.088388,32 37.088388,32 L 22.160133,31.978069 C 22.160133,31.978069 26.997745,27.140456 26.997745,27.140456 C 18.528582,18.264221 13.291696,25.230495 11.500037,31.436501 z"
             style="fill:#404040;"/>
          </a>
         </g>
        </svg>
</svg>
