<?xml version="1.0" encoding="UTF-8" standalone="no"?>
<!DOCTYPE svg PUBLIC "-//W3C//DTD SVG 1.1//EN"
 "http://www.w3.org/Graphics/SVG/1.1/DTD/svg11.dtd">
<!-- Generated by graphviz version 7.0.5 (20221223.1930)
 -->
<!-- Title: iop/fs/netfs/src/ps2_fio.c Pages: 1 -->
<svg width="1083pt" height="313pt"
 viewBox="0.00 0.00 1082.50 313.00" xmlns="http://www.w3.org/2000/svg" xmlns:xlink="http://www.w3.org/1999/xlink">
<g id="graph0" class="graph" transform="scale(1 1) rotate(0) translate(4 309)">
<title>iop/fs/netfs/src/ps2_fio.c</title>
<!-- Node1 -->
<g id="node1" class="node">
<title>Node1</title>
<g id="a_node1"><a xlink:title=" ">
<polygon fill="#999999" stroke="#666666" points="607.5,-305 506.5,-305 506.5,-275 607.5,-275 607.5,-305"/>
<text text-anchor="start" x="514.5" y="-293" font-family="Helvetica,sans-Serif" font-size="10.00">iop/fs/netfs/src/ps2</text>
<text text-anchor="middle" x="557" y="-282" font-family="Helvetica,sans-Serif" font-size="10.00">_fio.c</text>
</a>
</g>
</g>
<!-- Node2 -->
<g id="node2" class="node">
<title>Node2</title>
<g id="a_node2"><a xlink:title=" ">
<polygon fill="#e0e0e0" stroke="#999999" points="359.5,-184 312.5,-184 312.5,-165 359.5,-165 359.5,-184"/>
<text text-anchor="middle" x="336" y="-172" font-family="Helvetica,sans-Serif" font-size="10.00">types.h</text>
</a>
</g>
</g>
<!-- Node1&#45;&gt;Node2 -->
<g id="edge1" class="edge">
<title>Node1&#45;&gt;Node2</title>
<path fill="none" stroke="#63b8ff" d="M529.01,-274.63C486.38,-252.73 405.68,-211.28 363.4,-189.57"/>
<polygon fill="#63b8ff" stroke="#63b8ff" points="365.12,-186.52 354.63,-185.07 361.93,-192.75 365.12,-186.52"/>
</g>
<!-- Node3 -->
<g id="node3" class="node">
<title>Node3</title>
<g id="a_node3"><a xlink:href="defs_8h.html" target="_top" xlink:title=" ">
<polygon fill="white" stroke="#666666" points="659.5,-129 616.5,-129 616.5,-110 659.5,-110 659.5,-129"/>
<text text-anchor="middle" x="638" y="-117" font-family="Helvetica,sans-Serif" font-size="10.00">defs.h</text>
</a>
</g>
</g>
<!-- Node1&#45;&gt;Node3 -->
<g id="edge2" class="edge">
<title>Node1&#45;&gt;Node3</title>
<path fill="none" stroke="#63b8ff" d="M567.25,-274.68C578.02,-260.11 595.9,-237.27 614,-220 633.29,-201.59 650.07,-207.85 662,-184 669.4,-169.19 661.46,-151.52 652.78,-138.58"/>
<polygon fill="#63b8ff" stroke="#63b8ff" points="655.61,-136.53 646.84,-130.58 649.99,-140.7 655.61,-136.53"/>
</g>
<!-- Node7 -->
<g id="node7" class="node">
<title>Node7</title>
<g id="a_node7"><a xlink:href="irx_8h.html" target="_top" xlink:title=" ">
<polygon fill="white" stroke="#666666" points="452,-129 418,-129 418,-110 452,-110 452,-129"/>
<text text-anchor="middle" x="435" y="-117" font-family="Helvetica,sans-Serif" font-size="10.00">irx.h</text>
</a>
</g>
</g>
<!-- Node1&#45;&gt;Node7 -->
<g id="edge6" class="edge">
<title>Node1&#45;&gt;Node7</title>
<path fill="none" stroke="#63b8ff" d="M506.17,-285.97C439.65,-280.89 328.31,-268.18 301,-239 278.43,-214.88 274.47,-191.64 294,-165 319.82,-129.78 373.58,-121.72 406.75,-120.27"/>
<polygon fill="#63b8ff" stroke="#63b8ff" points="406.53,-123.78 416.44,-120.04 406.36,-116.78 406.53,-123.78"/>
</g>
<!-- Node8 -->
<g id="node8" class="node">
<title>Node8</title>
<g id="a_node8"><a xlink:href="loadcore_8h.html" target="_top" xlink:title=" ">
<polygon fill="white" stroke="#666666" points="438.5,-184 377.5,-184 377.5,-165 438.5,-165 438.5,-184"/>
<text text-anchor="middle" x="408" y="-172" font-family="Helvetica,sans-Serif" font-size="10.00">loadcore.h</text>
</a>
</g>
</g>
<!-- Node1&#45;&gt;Node8 -->
<g id="edge8" class="edge">
<title>Node1&#45;&gt;Node8</title>
<path fill="none" stroke="#63b8ff" d="M538.13,-274.63C509.99,-253.19 457.24,-213.01 428.29,-190.96"/>
<polygon fill="#63b8ff" stroke="#63b8ff" points="430.74,-188.42 420.66,-185.15 426.5,-193.99 430.74,-188.42"/>
</g>
<!-- Node9 -->
<g id="node9" class="node">
<title>Node9</title>
<g id="a_node9"><a xlink:href="ioman__mod_8h.html" target="_top" xlink:title=" ">
<polygon fill="white" stroke="#666666" points="74,-184 0,-184 0,-165 74,-165 74,-184"/>
<text text-anchor="middle" x="37" y="-172" font-family="Helvetica,sans-Serif" font-size="10.00">ioman_mod.h</text>
</a>
</g>
</g>
<!-- Node1&#45;&gt;Node9 -->
<g id="edge11" class="edge">
<title>Node1&#45;&gt;Node9</title>
<path fill="none" stroke="#63b8ff" d="M506.18,-286.41C434.07,-281.78 298.44,-269.53 187,-239 142.3,-226.76 93.37,-204.17 63.93,-189.49"/>
<polygon fill="#63b8ff" stroke="#63b8ff" points="65.87,-186.55 55.36,-185.16 62.71,-192.8 65.87,-186.55"/>
</g>
<!-- Node15 -->
<g id="node15" class="node">
<title>Node15</title>
<g id="a_node15"><a xlink:href="ioman_x_8h.html" target="_top" xlink:title=" ">
<polygon fill="white" stroke="#666666" points="149.5,-184 92.5,-184 92.5,-165 149.5,-165 149.5,-184"/>
<text text-anchor="middle" x="121" y="-172" font-family="Helvetica,sans-Serif" font-size="10.00">iomanX.h</text>
</a>
</g>
</g>
<!-- Node1&#45;&gt;Node15 -->
<g id="edge19" class="edge">
<title>Node1&#45;&gt;Node15</title>
<path fill="none" stroke="#63b8ff" d="M506.06,-286.91C440.88,-282.96 325.23,-271.58 232,-239 198.53,-227.3 163.62,-205.49 142.09,-190.73"/>
<polygon fill="#63b8ff" stroke="#63b8ff" points="144.37,-188.05 134.17,-185.19 140.36,-193.79 144.37,-188.05"/>
</g>
<!-- Node17 -->
<g id="node17" class="node">
<title>Node17</title>
<g id="a_node17"><a xlink:href="thbase_8h.html" target="_top" xlink:title=" ">
<polygon fill="white" stroke="#666666" points="509.5,-184 456.5,-184 456.5,-165 509.5,-165 509.5,-184"/>
<text text-anchor="middle" x="483" y="-172" font-family="Helvetica,sans-Serif" font-size="10.00">thbase.h</text>
</a>
</g>
</g>
<!-- Node1&#45;&gt;Node17 -->
<g id="edge24" class="edge">
<title>Node1&#45;&gt;Node17</title>
<path fill="none" stroke="#63b8ff" d="M547.63,-274.63C534.2,-254.03 509.49,-216.12 494.82,-193.63"/>
<polygon fill="#63b8ff" stroke="#63b8ff" points="497.91,-191.96 489.52,-185.5 492.05,-195.79 497.91,-191.96"/>
</g>
<!-- Node18 -->
<g id="node18" class="node">
<title>Node18</title>
<g id="a_node18"><a xlink:href="thsemap_8h.html" target="_top" xlink:title=" ">
<polygon fill="white" stroke="#666666" points="653,-184 591,-184 591,-165 653,-165 653,-184"/>
<text text-anchor="middle" x="622" y="-172" font-family="Helvetica,sans-Serif" font-size="10.00">thsemap.h</text>
</a>
</g>
</g>
<!-- Node1&#45;&gt;Node18 -->
<g id="edge27" class="edge">
<title>Node1&#45;&gt;Node18</title>
<path fill="none" stroke="#63b8ff" d="M560.2,-274.51C563.81,-260.01 570.57,-237.41 581,-220 587.04,-209.92 595.63,-200.15 603.39,-192.34"/>
<polygon fill="#63b8ff" stroke="#63b8ff" points="605.73,-194.95 610.53,-185.5 600.89,-189.9 605.73,-194.95"/>
</g>
<!-- Node19 -->
<g id="node19" class="node">
<title>Node19</title>
<g id="a_node19"><a xlink:href="stdio_8h.html" target="_top" xlink:title=" ">
<polygon fill="white" stroke="#666666" points="572.5,-184 527.5,-184 527.5,-165 572.5,-165 572.5,-184"/>
<text text-anchor="middle" x="550" y="-172" font-family="Helvetica,sans-Serif" font-size="10.00">stdio.h</text>
</a>
</g>
</g>
<!-- Node1&#45;&gt;Node19 -->
<g id="edge30" class="edge">
<title>Node1&#45;&gt;Node19</title>
<path fill="none" stroke="#63b8ff" d="M551.9,-274.78C548.63,-264.89 544.69,-251.32 543,-239 541.85,-230.63 542.34,-228.42 543,-220 543.63,-211.91 544.9,-203.07 546.19,-195.41"/>
<polygon fill="#63b8ff" stroke="#63b8ff" points="549.59,-196.27 547.93,-185.81 542.7,-195.02 549.59,-196.27"/>
</g>
<!-- Node20 -->
<g id="node20" class="node">
<title>Node20</title>
<g id="a_node20"><a xlink:href="sysclib_8h.html" target="_top" xlink:title=" ">
<polygon fill="white" stroke="#666666" points="765,-184 711,-184 711,-165 765,-165 765,-184"/>
<text text-anchor="middle" x="738" y="-172" font-family="Helvetica,sans-Serif" font-size="10.00">sysclib.h</text>
</a>
</g>
</g>
<!-- Node1&#45;&gt;Node20 -->
<g id="edge33" class="edge">
<title>Node1&#45;&gt;Node20</title>
<path fill="none" stroke="#63b8ff" d="M607.88,-282.39C657.38,-274.79 727.47,-260.52 744,-239 753.49,-226.64 750.73,-208.67 746.32,-195"/>
<polygon fill="#63b8ff" stroke="#63b8ff" points="749.64,-193.87 742.83,-185.76 743.09,-196.35 749.64,-193.87"/>
</g>
<!-- Node23 -->
<g id="node23" class="node">
<title>Node23</title>
<g id="a_node23"><a xlink:href="errno_8h.html" target="_top" xlink:title=" ">
<polygon fill="white" stroke="#666666" points="669,-239 623,-239 623,-220 669,-220 669,-239"/>
<text text-anchor="middle" x="646" y="-227" font-family="Helvetica,sans-Serif" font-size="10.00">errno.h</text>
</a>
</g>
</g>
<!-- Node1&#45;&gt;Node23 -->
<g id="edge40" class="edge">
<title>Node1&#45;&gt;Node23</title>
<path fill="none" stroke="#63b8ff" d="M579,-274.54C592.37,-265.75 609.42,-254.54 622.98,-245.63"/>
<polygon fill="#63b8ff" stroke="#63b8ff" points="624.84,-248.6 631.28,-240.18 621,-242.75 624.84,-248.6"/>
</g>
<!-- Node24 -->
<g id="node24" class="node">
<title>Node24</title>
<g id="a_node24"><a xlink:title=" ">
<polygon fill="#e0e0e0" stroke="#999999" points="734.5,-239 687.5,-239 687.5,-220 734.5,-220 734.5,-239"/>
<text text-anchor="middle" x="711" y="-227" font-family="Helvetica,sans-Serif" font-size="10.00">ps2ip.h</text>
</a>
</g>
</g>
<!-- Node1&#45;&gt;Node24 -->
<g id="edge41" class="edge">
<title>Node1&#45;&gt;Node24</title>
<path fill="none" stroke="#63b8ff" d="M595.07,-274.54C620.25,-264.97 652.97,-252.55 677.22,-243.33"/>
<polygon fill="#63b8ff" stroke="#63b8ff" points="678.19,-246.71 686.3,-239.88 675.71,-240.16 678.19,-246.71"/>
</g>
<!-- Node25 -->
<g id="node25" class="node">
<title>Node25</title>
<g id="a_node25"><a xlink:href="iopmgr_8h.html" target="_top" xlink:title=" ">
<polygon fill="white" stroke="#666666" points="362.5,-239 309.5,-239 309.5,-220 362.5,-220 362.5,-239"/>
<text text-anchor="middle" x="336" y="-227" font-family="Helvetica,sans-Serif" font-size="10.00">iopmgr.h</text>
</a>
</g>
</g>
<!-- Node1&#45;&gt;Node25 -->
<g id="edge42" class="edge">
<title>Node1&#45;&gt;Node25</title>
<path fill="none" stroke="#63b8ff" d="M506.02,-275.51C465.59,-264.8 410,-250.09 373.55,-240.44"/>
<polygon fill="#63b8ff" stroke="#63b8ff" points="374.92,-237.18 364.36,-238.01 373.13,-243.95 374.92,-237.18"/>
</g>
<!-- Node27 -->
<g id="node27" class="node">
<title>Node27</title>
<g id="a_node27"><a xlink:href="ps2__fio_8h.html" target="_top" xlink:title=" ">
<polygon fill="white" stroke="#666666" points="846.5,-239 791.5,-239 791.5,-220 846.5,-220 846.5,-239"/>
<text text-anchor="middle" x="819" y="-227" font-family="Helvetica,sans-Serif" font-size="10.00">ps2_fio.h</text>
</a>
</g>
</g>
<!-- Node1&#45;&gt;Node27 -->
<g id="edge50" class="edge">
<title>Node1&#45;&gt;Node27</title>
<path fill="none" stroke="#63b8ff" d="M607.83,-277.65C658.2,-266.4 734.28,-249.42 780.05,-239.2"/>
<polygon fill="#63b8ff" stroke="#63b8ff" points="780.8,-242.61 789.8,-237.02 779.28,-235.78 780.8,-242.61"/>
</g>
<!-- Node28 -->
<g id="node28" class="node">
<title>Node28</title>
<g id="a_node28"><a xlink:href="ps2fs_8h.html" target="_top" xlink:title=" ">
<polygon fill="white" stroke="#666666" points="913,-239 865,-239 865,-220 913,-220 913,-239"/>
<text text-anchor="middle" x="889" y="-227" font-family="Helvetica,sans-Serif" font-size="10.00">ps2fs.h</text>
</a>
</g>
</g>
<!-- Node1&#45;&gt;Node28 -->
<g id="edge51" class="edge">
<title>Node1&#45;&gt;Node28</title>
<path fill="none" stroke="#63b8ff" d="M607.77,-281.88C665.13,-273.53 761.48,-258.59 853.37,-239.41"/>
<polygon fill="#63b8ff" stroke="#63b8ff" points="854,-242.85 863.07,-237.36 852.56,-236 854,-242.85"/>
</g>
<!-- Node29 -->
<g id="node29" class="node">
<title>Node29</title>
<g id="a_node29"><a xlink:href="byteorder_8h.html" target="_top" xlink:title=" ">
<polygon fill="white" stroke="#666666" points="995,-239 931,-239 931,-220 995,-220 995,-239"/>
<text text-anchor="middle" x="963" y="-227" font-family="Helvetica,sans-Serif" font-size="10.00">byteorder.h</text>
</a>
</g>
</g>
<!-- Node1&#45;&gt;Node29 -->
<g id="edge52" class="edge">
<title>Node1&#45;&gt;Node29</title>
<path fill="none" stroke="#63b8ff" d="M607.95,-283.13C676.44,-275 802.25,-259.21 919.49,-239.33"/>
<polygon fill="#63b8ff" stroke="#63b8ff" points="920.05,-242.78 929.32,-237.65 918.87,-235.88 920.05,-242.78"/>
</g>
<!-- Node31 -->
<g id="node31" class="node">
<title>Node31</title>
<g id="a_node31"><a xlink:href="devscan_8h.html" target="_top" xlink:title=" ">
<polygon fill="white" stroke="#666666" points="1074.5,-239 1013.5,-239 1013.5,-220 1074.5,-220 1074.5,-239"/>
<text text-anchor="middle" x="1044" y="-227" font-family="Helvetica,sans-Serif" font-size="10.00">devscan.h</text>
</a>
</g>
</g>
<!-- Node1&#45;&gt;Node31 -->
<g id="edge54" class="edge">
<title>Node1&#45;&gt;Node31</title>
<path fill="none" stroke="#63b8ff" d="M607.83,-284.95C688.97,-278.12 852.94,-262.87 1001.89,-239.18"/>
<polygon fill="#63b8ff" stroke="#63b8ff" points="1002.24,-242.67 1011.55,-237.63 1001.12,-235.76 1002.24,-242.67"/>
</g>
<!-- Node4 -->
<g id="node4" class="node">
<title>Node4</title>
<g id="a_node4"><a xlink:href="iop_2kernel_2include_2types_8h_source.html" target="_top" xlink:title=" ">
<polygon fill="white" stroke="#666666" points="480.5,-74 433.5,-74 433.5,-55 480.5,-55 480.5,-74"/>
<text text-anchor="middle" x="457" y="-62" font-family="Helvetica,sans-Serif" font-size="10.00">types.h</text>
</a>
</g>
</g>
<!-- Node3&#45;&gt;Node4 -->
<g id="edge3" class="edge">
<title>Node3&#45;&gt;Node4</title>
<path fill="none" stroke="#63b8ff" d="M616.17,-112.11C585.24,-103.05 528.34,-86.39 491.62,-75.64"/>
<polygon fill="#63b8ff" stroke="#63b8ff" points="492.96,-72.38 482.37,-72.93 490.99,-79.1 492.96,-72.38"/>
</g>
<!-- Node5 -->
<g id="node5" class="node">
<title>Node5</title>
<g id="a_node5"><a xlink:title=" ">
<polygon fill="#e0e0e0" stroke="#999999" points="482.5,-19 431.5,-19 431.5,0 482.5,0 482.5,-19"/>
<text text-anchor="middle" x="457" y="-7" font-family="Helvetica,sans-Serif" font-size="10.00">stddef.h</text>
</a>
</g>
</g>
<!-- Node4&#45;&gt;Node5 -->
<g id="edge4" class="edge">
<title>Node4&#45;&gt;Node5</title>
<path fill="none" stroke="#63b8ff" d="M457,-54.75C457,-48.27 457,-39.16 457,-30.9"/>
<polygon fill="#63b8ff" stroke="#63b8ff" points="460.5,-30.96 457,-20.96 453.5,-30.96 460.5,-30.96"/>
</g>
<!-- Node6 -->
<g id="node6" class="node">
<title>Node6</title>
<g id="a_node6"><a xlink:href="tamtypes_8h.html" target="_top" xlink:title=" ">
<polygon fill="white" stroke="#666666" points="705,-19 641,-19 641,0 705,0 705,-19"/>
<text text-anchor="middle" x="673" y="-7" font-family="Helvetica,sans-Serif" font-size="10.00">tamtypes.h</text>
</a>
</g>
</g>
<!-- Node4&#45;&gt;Node6 -->
<g id="edge5" class="edge">
<title>Node4&#45;&gt;Node6</title>
<path fill="none" stroke="#63b8ff" d="M480.94,-57.63C516.71,-48.85 584.68,-32.17 629.41,-21.2"/>
<polygon fill="#63b8ff" stroke="#63b8ff" points="630.18,-24.61 639.06,-18.83 628.51,-17.81 630.18,-24.61"/>
</g>
<!-- Node7&#45;&gt;Node4 -->
<g id="edge7" class="edge">
<title>Node7&#45;&gt;Node4</title>
<path fill="none" stroke="#63b8ff" d="M438.63,-109.75C441.42,-103.04 445.37,-93.52 448.9,-85.02"/>
<polygon fill="#63b8ff" stroke="#63b8ff" points="452.11,-86.42 452.71,-75.84 445.64,-83.73 452.11,-86.42"/>
</g>
<!-- Node8&#45;&gt;Node4 -->
<g id="edge9" class="edge">
<title>Node8&#45;&gt;Node4</title>
<path fill="none" stroke="#63b8ff" d="M406.07,-164.83C403.71,-152.16 400.92,-128.13 409,-110 414.14,-98.48 423.84,-88.58 433.19,-81.07"/>
<polygon fill="#63b8ff" stroke="#63b8ff" points="435.06,-84.04 441.02,-75.28 430.9,-78.41 435.06,-84.04"/>
</g>
<!-- Node8&#45;&gt;Node7 -->
<g id="edge10" class="edge">
<title>Node8&#45;&gt;Node7</title>
<path fill="none" stroke="#63b8ff" d="M412.46,-164.75C415.95,-157.88 420.95,-148.08 425.35,-139.45"/>
<polygon fill="#63b8ff" stroke="#63b8ff" points="428.34,-141.29 429.76,-130.79 422.1,-138.11 428.34,-141.29"/>
</g>
<!-- Node9&#45;&gt;Node4 -->
<g id="edge12" class="edge">
<title>Node9&#45;&gt;Node4</title>
<path fill="none" stroke="#63b8ff" d="M44.37,-164.73C56.86,-150.53 83.7,-122.82 113,-110 167.99,-85.95 345.91,-72.37 421.98,-67.54"/>
<polygon fill="#63b8ff" stroke="#63b8ff" points="422.01,-71.05 431.77,-66.93 421.57,-64.06 422.01,-71.05"/>
</g>
<!-- Node9&#45;&gt;Node7 -->
<g id="edge13" class="edge">
<title>Node9&#45;&gt;Node7</title>
<path fill="none" stroke="#63b8ff" d="M74.13,-166.45C77.12,-165.94 80.11,-165.45 83,-165 202.87,-146.36 346.62,-130.07 406.57,-123.54"/>
<polygon fill="#63b8ff" stroke="#63b8ff" points="406.67,-127.05 416.23,-122.49 405.91,-120.09 406.67,-127.05"/>
</g>
<!-- Node10 -->
<g id="node10" class="node">
<title>Node10</title>
<g id="a_node10"><a xlink:href="io__common_8h.html" target="_top" xlink:title=" ">
<polygon fill="white" stroke="#666666" points="196,-129 122,-129 122,-110 196,-110 196,-129"/>
<text text-anchor="middle" x="159" y="-117" font-family="Helvetica,sans-Serif" font-size="10.00">io_common.h</text>
</a>
</g>
</g>
<!-- Node9&#45;&gt;Node10 -->
<g id="edge14" class="edge">
<title>Node9&#45;&gt;Node10</title>
<path fill="none" stroke="#63b8ff" d="M57.7,-164.51C77,-156.12 106.06,-143.5 128.11,-133.92"/>
<polygon fill="#63b8ff" stroke="#63b8ff" points="129.44,-137.16 137.22,-129.96 126.66,-130.74 129.44,-137.16"/>
</g>
<!-- Node13 -->
<g id="node13" class="node">
<title>Node13</title>
<g id="a_node13"><a xlink:href="iox__stat_8h.html" target="_top" xlink:title=" ">
<polygon fill="white" stroke="#666666" points="66,-129 8,-129 8,-110 66,-110 66,-129"/>
<text text-anchor="middle" x="37" y="-117" font-family="Helvetica,sans-Serif" font-size="10.00">iox_stat.h</text>
</a>
</g>
</g>
<!-- Node9&#45;&gt;Node13 -->
<g id="edge17" class="edge">
<title>Node9&#45;&gt;Node13</title>
<path fill="none" stroke="#63b8ff" d="M37,-164.75C37,-158.27 37,-149.16 37,-140.9"/>
<polygon fill="#63b8ff" stroke="#63b8ff" points="40.5,-140.96 37,-130.96 33.5,-140.96 40.5,-140.96"/>
</g>
<!-- Node11 -->
<g id="node11" class="node">
<title>Node11</title>
<g id="a_node11"><a xlink:href="fcntl_8h_source.html" target="_top" xlink:title=" ">
<polygon fill="white" stroke="#666666" points="253.5,-74 192.5,-74 192.5,-55 253.5,-55 253.5,-74"/>
<text text-anchor="middle" x="223" y="-62" font-family="Helvetica,sans-Serif" font-size="10.00">sys/fcntl.h</text>
</a>
</g>
</g>
<!-- Node10&#45;&gt;Node11 -->
<g id="edge15" class="edge">
<title>Node10&#45;&gt;Node11</title>
<path fill="none" stroke="#63b8ff" d="M169.86,-109.51C179.11,-101.85 192.62,-90.66 203.71,-81.47"/>
<polygon fill="#63b8ff" stroke="#63b8ff" points="205.67,-84.4 211.14,-75.32 201.2,-79.01 205.67,-84.4"/>
</g>
<!-- Node12 -->
<g id="node12" class="node">
<title>Node12</title>
<g id="a_node12"><a xlink:href="unistd_8h_source.html" target="_top" xlink:title=" ">
<polygon fill="white" stroke="#666666" points="174,-74 106,-74 106,-55 174,-55 174,-74"/>
<text text-anchor="middle" x="140" y="-62" font-family="Helvetica,sans-Serif" font-size="10.00">sys/unistd.h</text>
</a>
</g>
</g>
<!-- Node10&#45;&gt;Node12 -->
<g id="edge16" class="edge">
<title>Node10&#45;&gt;Node12</title>
<path fill="none" stroke="#63b8ff" d="M155.86,-109.75C153.46,-103.04 150.04,-93.52 147,-85.02"/>
<polygon fill="#63b8ff" stroke="#63b8ff" points="150.39,-84.1 143.72,-75.87 143.8,-86.46 150.39,-84.1"/>
</g>
<!-- Node14 -->
<g id="node14" class="node">
<title>Node14</title>
<g id="a_node14"><a xlink:href="time_8h.html" target="_top" xlink:title=" ">
<polygon fill="white" stroke="#666666" points="67.5,-74 6.5,-74 6.5,-55 67.5,-55 67.5,-74"/>
<text text-anchor="middle" x="37" y="-62" font-family="Helvetica,sans-Serif" font-size="10.00">sys/time.h</text>
</a>
</g>
</g>
<!-- Node13&#45;&gt;Node14 -->
<g id="edge18" class="edge">
<title>Node13&#45;&gt;Node14</title>
<path fill="none" stroke="#63b8ff" d="M37,-109.75C37,-103.27 37,-94.16 37,-85.9"/>
<polygon fill="#63b8ff" stroke="#63b8ff" points="40.5,-85.96 37,-75.96 33.5,-85.96 40.5,-85.96"/>
</g>
<!-- Node15&#45;&gt;Node4 -->
<g id="edge20" class="edge">
<title>Node15&#45;&gt;Node4</title>
<path fill="none" stroke="#63b8ff" d="M145.58,-164.6C180.75,-151.96 247.53,-128.32 305,-110 344.96,-97.26 391.25,-83.91 422.15,-75.19"/>
<polygon fill="#63b8ff" stroke="#63b8ff" points="423.06,-78.57 431.74,-72.5 421.17,-71.83 423.06,-78.57"/>
</g>
<!-- Node15&#45;&gt;Node10 -->
<g id="edge22" class="edge">
<title>Node15&#45;&gt;Node10</title>
<path fill="none" stroke="#63b8ff" d="M127.27,-164.75C132.36,-157.66 139.7,-147.42 146.03,-138.59"/>
<polygon fill="#63b8ff" stroke="#63b8ff" points="148.72,-140.84 151.71,-130.67 143.04,-136.76 148.72,-140.84"/>
</g>
<!-- Node15&#45;&gt;Node13 -->
<g id="edge23" class="edge">
<title>Node15&#45;&gt;Node13</title>
<path fill="none" stroke="#63b8ff" d="M106.75,-164.51C94.12,-156.54 75.44,-144.75 60.59,-135.38"/>
<polygon fill="#63b8ff" stroke="#63b8ff" points="62.64,-132.54 52.32,-130.17 58.91,-138.46 62.64,-132.54"/>
</g>
<!-- Node16 -->
<g id="node16" class="node">
<title>Node16</title>
<g id="a_node16"><a xlink:title=" ">
<polygon fill="#e0e0e0" stroke="#999999" points="559.5,-129 508.5,-129 508.5,-110 559.5,-110 559.5,-129"/>
<text text-anchor="middle" x="534" y="-117" font-family="Helvetica,sans-Serif" font-size="10.00">stdarg.h</text>
</a>
</g>
</g>
<!-- Node15&#45;&gt;Node16 -->
<g id="edge21" class="edge">
<title>Node15&#45;&gt;Node16</title>
<path fill="none" stroke="#63b8ff" d="M149.99,-166.7C153.02,-166.08 156.07,-165.5 159,-165 167.29,-163.58 403.35,-135.83 496.61,-124.89"/>
<polygon fill="#63b8ff" stroke="#63b8ff" points="496.99,-128.37 506.52,-123.72 496.18,-121.41 496.99,-128.37"/>
</g>
<!-- Node17&#45;&gt;Node4 -->
<g id="edge25" class="edge">
<title>Node17&#45;&gt;Node4</title>
<path fill="none" stroke="#63b8ff" d="M480.87,-164.66C476.74,-147.5 467.53,-109.26 461.84,-85.6"/>
<polygon fill="#63b8ff" stroke="#63b8ff" points="465.25,-84.83 459.51,-75.93 458.45,-86.47 465.25,-84.83"/>
</g>
<!-- Node17&#45;&gt;Node7 -->
<g id="edge26" class="edge">
<title>Node17&#45;&gt;Node7</title>
<path fill="none" stroke="#63b8ff" d="M475.07,-164.75C468.44,-157.43 458.78,-146.76 450.61,-137.74"/>
<polygon fill="#63b8ff" stroke="#63b8ff" points="453.42,-135.63 444.11,-130.56 448.23,-140.33 453.42,-135.63"/>
</g>
<!-- Node18&#45;&gt;Node4 -->
<g id="edge28" class="edge">
<title>Node18&#45;&gt;Node4</title>
<path fill="none" stroke="#63b8ff" d="M616.86,-164.93C608.42,-151.52 590.4,-125.5 569,-110 545.7,-93.13 515.12,-81.54 491.8,-74.43"/>
<polygon fill="#63b8ff" stroke="#63b8ff" points="493.03,-71.14 482.45,-71.72 491.08,-77.87 493.03,-71.14"/>
</g>
<!-- Node18&#45;&gt;Node7 -->
<g id="edge29" class="edge">
<title>Node18&#45;&gt;Node7</title>
<path fill="none" stroke="#63b8ff" d="M590.7,-164.63C555.02,-154.52 497.21,-138.13 462.98,-128.43"/>
<polygon fill="#63b8ff" stroke="#63b8ff" points="464.37,-125.19 453.79,-125.83 462.46,-131.92 464.37,-125.19"/>
</g>
<!-- Node19&#45;&gt;Node7 -->
<g id="edge32" class="edge">
<title>Node19&#45;&gt;Node7</title>
<path fill="none" stroke="#63b8ff" d="M530.49,-164.51C511.83,-155.91 483.5,-142.85 462.54,-133.19"/>
<polygon fill="#63b8ff" stroke="#63b8ff" points="464.26,-130.13 453.72,-129.13 461.33,-136.49 464.26,-130.13"/>
</g>
<!-- Node19&#45;&gt;Node16 -->
<g id="edge31" class="edge">
<title>Node19&#45;&gt;Node16</title>
<path fill="none" stroke="#63b8ff" d="M547.36,-164.75C545.36,-158.11 542.52,-148.73 539.98,-140.31"/>
<polygon fill="#63b8ff" stroke="#63b8ff" points="543.38,-139.45 537.14,-130.89 536.68,-141.48 543.38,-139.45"/>
</g>
<!-- Node20&#45;&gt;Node4 -->
<g id="edge34" class="edge">
<title>Node20&#45;&gt;Node4</title>
<path fill="none" stroke="#63b8ff" d="M731.02,-164.51C719.63,-150.52 695.63,-123.71 669,-110 611.69,-80.5 536.1,-70.55 492.39,-67.2"/>
<polygon fill="#63b8ff" stroke="#63b8ff" points="492.67,-63.71 482.46,-66.52 492.2,-70.7 492.67,-63.71"/>
</g>
<!-- Node20&#45;&gt;Node7 -->
<g id="edge35" class="edge">
<title>Node20&#45;&gt;Node7</title>
<path fill="none" stroke="#63b8ff" d="M710.58,-168.7C653.32,-158.69 521.57,-135.64 463.44,-125.48"/>
<polygon fill="#63b8ff" stroke="#63b8ff" points="464.15,-122.05 453.7,-123.77 462.95,-128.94 464.15,-122.05"/>
</g>
<!-- Node20&#45;&gt;Node16 -->
<g id="edge36" class="edge">
<title>Node20&#45;&gt;Node16</title>
<path fill="none" stroke="#63b8ff" d="M710.91,-166.46C674.93,-157.11 611.22,-140.56 570.88,-130.08"/>
<polygon fill="#63b8ff" stroke="#63b8ff" points="571.93,-126.74 561.38,-127.61 570.17,-133.51 571.93,-126.74"/>
</g>
<!-- Node21 -->
<g id="node21" class="node">
<title>Node21</title>
<g id="a_node21"><a xlink:href="setjmp_8h.html" target="_top" xlink:title=" ">
<polygon fill="white" stroke="#666666" points="758.5,-74 705.5,-74 705.5,-55 758.5,-55 758.5,-74"/>
<text text-anchor="middle" x="732" y="-62" font-family="Helvetica,sans-Serif" font-size="10.00">setjmp.h</text>
</a>
</g>
</g>
<!-- Node20&#45;&gt;Node21 -->
<g id="edge37" class="edge">
<title>Node20&#45;&gt;Node21</title>
<path fill="none" stroke="#63b8ff" d="M748.48,-164.82C761.49,-152.91 781.06,-130.64 773,-110 768.74,-99.08 760.39,-89.22 752.34,-81.57"/>
<polygon fill="#63b8ff" stroke="#63b8ff" points="754.89,-79.16 745.07,-75.2 750.28,-84.42 754.89,-79.16"/>
</g>
<!-- Node22 -->
<g id="node22" class="node">
<title>Node22</title>
<g id="a_node22"><a xlink:href="ctype_8h.html" target="_top" xlink:title=" ">
<polygon fill="white" stroke="#666666" points="763.5,-129 716.5,-129 716.5,-110 763.5,-110 763.5,-129"/>
<text text-anchor="middle" x="740" y="-117" font-family="Helvetica,sans-Serif" font-size="10.00">ctype.h</text>
</a>
</g>
</g>
<!-- Node20&#45;&gt;Node22 -->
<g id="edge39" class="edge">
<title>Node20&#45;&gt;Node22</title>
<path fill="none" stroke="#63b8ff" d="M738.33,-164.75C738.57,-158.27 738.92,-149.16 739.23,-140.9"/>
<polygon fill="#63b8ff" stroke="#63b8ff" points="742.73,-141.08 739.61,-130.95 735.73,-140.82 742.73,-141.08"/>
</g>
<!-- Node21&#45;&gt;Node6 -->
<g id="edge38" class="edge">
<title>Node21&#45;&gt;Node6</title>
<path fill="none" stroke="#63b8ff" d="M721.99,-54.51C713.63,-47 701.5,-36.1 691.4,-27.03"/>
<polygon fill="#63b8ff" stroke="#63b8ff" points="693.76,-24.45 683.99,-20.37 689.09,-29.66 693.76,-24.45"/>
</g>
<!-- Node25&#45;&gt;Node2 -->
<g id="edge43" class="edge">
<title>Node25&#45;&gt;Node2</title>
<path fill="none" stroke="#63b8ff" d="M336,-219.75C336,-213.27 336,-204.16 336,-195.9"/>
<polygon fill="#63b8ff" stroke="#63b8ff" points="339.5,-195.96 336,-185.96 332.5,-195.96 339.5,-195.96"/>
</g>
<!-- Node25&#45;&gt;Node7 -->
<g id="edge44" class="edge">
<title>Node25&#45;&gt;Node7</title>
<path fill="none" stroke="#63b8ff" d="M325.55,-219.84C311.57,-207.18 289.95,-183.16 303,-165 326.41,-132.4 374.95,-123.37 406.19,-121.04"/>
<polygon fill="#63b8ff" stroke="#63b8ff" points="406.31,-124.54 416.11,-120.52 405.94,-117.55 406.31,-124.54"/>
</g>
<!-- Node25&#45;&gt;Node8 -->
<g id="edge49" class="edge">
<title>Node25&#45;&gt;Node8</title>
<path fill="none" stroke="#63b8ff" d="M348.21,-219.51C358.83,-211.7 374.44,-200.21 387.04,-190.93"/>
<polygon fill="#63b8ff" stroke="#63b8ff" points="388.77,-194 394.75,-185.26 384.62,-188.36 388.77,-194"/>
</g>
<!-- Node26 -->
<g id="node26" class="node">
<title>Node26</title>
<g id="a_node26"><a xlink:href="ioman_8h.html" target="_top" xlink:title=" ">
<polygon fill="white" stroke="#666666" points="218,-184 168,-184 168,-165 218,-165 218,-184"/>
<text text-anchor="middle" x="193" y="-172" font-family="Helvetica,sans-Serif" font-size="10.00">ioman.h</text>
</a>
</g>
</g>
<!-- Node25&#45;&gt;Node26 -->
<g id="edge45" class="edge">
<title>Node25&#45;&gt;Node26</title>
<path fill="none" stroke="#63b8ff" d="M311.74,-219.51C288.59,-210.93 253.49,-197.92 227.44,-188.27"/>
<polygon fill="#63b8ff" stroke="#63b8ff" points="228.91,-185.08 218.32,-184.88 226.48,-191.64 228.91,-185.08"/>
</g>
<!-- Node26&#45;&gt;Node4 -->
<g id="edge46" class="edge">
<title>Node26&#45;&gt;Node4</title>
<path fill="none" stroke="#63b8ff" d="M214.6,-164.66C260.92,-145.72 369.98,-101.1 424.62,-78.75"/>
<polygon fill="#63b8ff" stroke="#63b8ff" points="425.77,-82.06 433.7,-75.03 423.12,-75.58 425.77,-82.06"/>
</g>
<!-- Node26&#45;&gt;Node7 -->
<g id="edge47" class="edge">
<title>Node26&#45;&gt;Node7</title>
<path fill="none" stroke="#63b8ff" d="M218.44,-167.93C263.97,-157.96 359.07,-137.13 406.63,-126.71"/>
<polygon fill="#63b8ff" stroke="#63b8ff" points="407.15,-130.18 416.17,-124.62 405.65,-123.35 407.15,-130.18"/>
</g>
<!-- Node26&#45;&gt;Node10 -->
<g id="edge48" class="edge">
<title>Node26&#45;&gt;Node10</title>
<path fill="none" stroke="#63b8ff" d="M187.39,-164.75C182.88,-157.73 176.41,-147.64 170.79,-138.87"/>
<polygon fill="#63b8ff" stroke="#63b8ff" points="173.9,-137.24 165.55,-130.72 168.01,-141.02 173.9,-137.24"/>
</g>
<!-- Node30 -->
<g id="node30" class="node">
<title>Node30</title>
<g id="a_node30"><a xlink:href="stdint_8h.html" target="_top" xlink:title=" ">
<polygon fill="white" stroke="#666666" points="987,-184 939,-184 939,-165 987,-165 987,-184"/>
<text text-anchor="middle" x="963" y="-172" font-family="Helvetica,sans-Serif" font-size="10.00">stdint.h</text>
</a>
</g>
</g>
<!-- Node29&#45;&gt;Node30 -->
<g id="edge53" class="edge">
<title>Node29&#45;&gt;Node30</title>
<path fill="none" stroke="#63b8ff" d="M963,-219.75C963,-213.27 963,-204.16 963,-195.9"/>
<polygon fill="#63b8ff" stroke="#63b8ff" points="966.5,-195.96 963,-185.96 959.5,-195.96 966.5,-195.96"/>
</g>
</g>
</svg>
