<?xml version="1.0" encoding="UTF-8" standalone="no"?>
<!DOCTYPE svg PUBLIC "-//W3C//DTD SVG 1.1//EN"
 "http://www.w3.org/Graphics/SVG/1.1/DTD/svg11.dtd">
<!-- Generated by graphviz version 7.0.5 (20221223.1930)
 -->
<!-- Title: common/sbus/include/ps2_sbus.h Pages: 1 -->
<svg width="1586pt" height="104pt"
 viewBox="0.00 0.00 1586.00 104.00" xmlns="http://www.w3.org/2000/svg" xmlns:xlink="http://www.w3.org/1999/xlink">
<g id="graph0" class="graph" transform="scale(1 1) rotate(0) translate(4 100)">
<title>common/sbus/include/ps2_sbus.h</title>
<!-- Node1 -->
<g id="node1" class="node">
<title>Node1</title>
<g id="a_node1"><a xlink:title=" ">
<polygon fill="#999999" stroke="#666666" points="817,-96 705,-96 705,-66 817,-66 817,-96"/>
<text text-anchor="start" x="713" y="-84" font-family="Helvetica,sans-Serif" font-size="10.00">common/sbus/include</text>
<text text-anchor="middle" x="761" y="-73" font-family="Helvetica,sans-Serif" font-size="10.00">/ps2_sbus.h</text>
</a>
</g>
</g>
<!-- Node2 -->
<g id="node2" class="node">
<title>Node2</title>
<g id="a_node2"><a xlink:href="ee__sbus_8c_source.html" target="_top" xlink:title=" ">
<polygon fill="white" stroke="#666666" points="108,-30 0,-30 0,0 108,0 108,-30"/>
<text text-anchor="start" x="8" y="-18" font-family="Helvetica,sans-Serif" font-size="10.00">common/sbus/src/ee</text>
<text text-anchor="middle" x="54" y="-7" font-family="Helvetica,sans-Serif" font-size="10.00">_sbus.c</text>
</a>
</g>
</g>
<!-- Node1&#45;&gt;Node2 -->
<g id="edge1" class="edge">
<title>Node1&#45;&gt;Node2</title>
<path fill="none" stroke="#63b8ff" d="M693.4,-77.89C575.71,-73.52 325.78,-61.14 117,-30 114.12,-29.57 111.17,-29.08 108.21,-28.56"/>
<polygon fill="#63b8ff" stroke="#63b8ff" points="693.07,-81.38 703.2,-78.25 693.33,-74.39 693.07,-81.38"/>
</g>
<!-- Node3 -->
<g id="node3" class="node">
<title>Node3</title>
<g id="a_node3"><a xlink:href="ee__sif2_8c_source.html" target="_top" xlink:title=" ">
<polygon fill="white" stroke="#666666" points="234,-30 126,-30 126,0 234,0 234,-30"/>
<text text-anchor="start" x="134" y="-18" font-family="Helvetica,sans-Serif" font-size="10.00">common/sbus/src/ee</text>
<text text-anchor="middle" x="180" y="-7" font-family="Helvetica,sans-Serif" font-size="10.00">_sif2.c</text>
</a>
</g>
</g>
<!-- Node1&#45;&gt;Node3 -->
<g id="edge2" class="edge">
<title>Node1&#45;&gt;Node3</title>
<path fill="none" stroke="#63b8ff" d="M693.41,-76.13C594.2,-69.84 403.51,-55.48 243,-30 240.12,-29.54 237.18,-29.03 234.22,-28.49"/>
<polygon fill="#63b8ff" stroke="#63b8ff" points="693.05,-79.61 703.25,-76.74 693.49,-72.62 693.05,-79.61"/>
</g>
<!-- Node4 -->
<g id="node4" class="node">
<title>Node4</title>
<g id="a_node4"><a xlink:href="iop__sbus_8c_source.html" target="_top" xlink:title=" ">
<polygon fill="white" stroke="#666666" points="362,-30 252,-30 252,0 362,0 362,-30"/>
<text text-anchor="start" x="260" y="-18" font-family="Helvetica,sans-Serif" font-size="10.00">common/sbus/src/iop</text>
<text text-anchor="middle" x="307" y="-7" font-family="Helvetica,sans-Serif" font-size="10.00">_sbus.c</text>
</a>
</g>
</g>
<!-- Node1&#45;&gt;Node4 -->
<g id="edge3" class="edge">
<title>Node1&#45;&gt;Node4</title>
<path fill="none" stroke="#63b8ff" d="M693.48,-73.16C615.5,-64.85 483.51,-49.48 371,-30 368.2,-29.51 365.33,-28.99 362.44,-28.44"/>
<polygon fill="#63b8ff" stroke="#63b8ff" points="692.76,-76.61 703.07,-74.18 693.5,-69.65 692.76,-76.61"/>
</g>
<!-- Node5 -->
<g id="node5" class="node">
<title>Node5</title>
<g id="a_node5"><a xlink:href="iop__sif2_8c_source.html" target="_top" xlink:title=" ">
<polygon fill="white" stroke="#666666" points="490,-30 380,-30 380,0 490,0 490,-30"/>
<text text-anchor="start" x="388" y="-18" font-family="Helvetica,sans-Serif" font-size="10.00">common/sbus/src/iop</text>
<text text-anchor="middle" x="435" y="-7" font-family="Helvetica,sans-Serif" font-size="10.00">_sif2.c</text>
</a>
</g>
</g>
<!-- Node1&#45;&gt;Node5 -->
<g id="edge4" class="edge">
<title>Node1&#45;&gt;Node5</title>
<path fill="none" stroke="#63b8ff" d="M693.41,-67.62C640.45,-57.79 564.93,-43.5 499,-30 496.21,-29.43 493.36,-28.84 490.48,-28.23"/>
<polygon fill="#63b8ff" stroke="#63b8ff" points="692.74,-71.05 703.21,-69.43 694.01,-64.17 692.74,-71.05"/>
</g>
<!-- Node6 -->
<g id="node6" class="node">
<title>Node6</title>
<g id="a_node6"><a xlink:href="ps2__dbg_8c_source.html" target="_top" xlink:title=" ">
<polygon fill="white" stroke="#666666" points="621.5,-30 508.5,-30 508.5,0 621.5,0 621.5,-30"/>
<text text-anchor="start" x="516.5" y="-18" font-family="Helvetica,sans-Serif" font-size="10.00">common/sbus/src/ps2</text>
<text text-anchor="middle" x="565" y="-7" font-family="Helvetica,sans-Serif" font-size="10.00">_dbg.c</text>
</a>
</g>
</g>
<!-- Node1&#45;&gt;Node6 -->
<g id="edge5" class="edge">
<title>Node1&#45;&gt;Node6</title>
<path fill="none" stroke="#63b8ff" d="M706.08,-62.07C675.48,-52.07 637.87,-39.79 609.18,-30.43"/>
<polygon fill="#63b8ff" stroke="#63b8ff" points="704.98,-65.39 715.57,-65.17 707.16,-58.74 704.98,-65.39"/>
</g>
<!-- Node7 -->
<g id="node7" class="node">
<title>Node7</title>
<g id="a_node7"><a xlink:href="ps2__sbus_8c_source.html" target="_top" xlink:title=" ">
<polygon fill="white" stroke="#666666" points="752.5,-30 639.5,-30 639.5,0 752.5,0 752.5,-30"/>
<text text-anchor="start" x="647.5" y="-18" font-family="Helvetica,sans-Serif" font-size="10.00">common/sbus/src/ps2</text>
<text text-anchor="middle" x="696" y="-7" font-family="Helvetica,sans-Serif" font-size="10.00">_sbus.c</text>
</a>
</g>
</g>
<!-- Node1&#45;&gt;Node7 -->
<g id="edge6" class="edge">
<title>Node1&#45;&gt;Node7</title>
<path fill="none" stroke="#63b8ff" d="M738.46,-57.81C729.15,-48.64 718.62,-38.28 710.39,-30.16"/>
<polygon fill="#63b8ff" stroke="#63b8ff" points="735.91,-60.21 745.5,-64.73 740.83,-55.22 735.91,-60.21"/>
</g>
<!-- Node8 -->
<g id="node8" class="node">
<title>Node8</title>
<g id="a_node8"><a xlink:href="ps2__sif_8c_source.html" target="_top" xlink:title=" ">
<polygon fill="white" stroke="#666666" points="883.5,-30 770.5,-30 770.5,0 883.5,0 883.5,-30"/>
<text text-anchor="start" x="778.5" y="-18" font-family="Helvetica,sans-Serif" font-size="10.00">common/sbus/src/ps2</text>
<text text-anchor="middle" x="827" y="-7" font-family="Helvetica,sans-Serif" font-size="10.00">_sif.c</text>
</a>
</g>
</g>
<!-- Node1&#45;&gt;Node8 -->
<g id="edge7" class="edge">
<title>Node1&#45;&gt;Node8</title>
<path fill="none" stroke="#63b8ff" d="M783.89,-57.81C793.34,-48.64 804.03,-38.28 812.39,-30.16"/>
<polygon fill="#63b8ff" stroke="#63b8ff" points="781.48,-55.27 776.73,-64.74 786.35,-60.29 781.48,-55.27"/>
</g>
<!-- Node9 -->
<g id="node9" class="node">
<title>Node9</title>
<g id="a_node9"><a xlink:href="sif2cmd_8c_source.html" target="_top" xlink:title=" ">
<polygon fill="white" stroke="#666666" points="1042,-24.5 902,-24.5 902,-5.5 1042,-5.5 1042,-24.5"/>
<text text-anchor="middle" x="972" y="-12.5" font-family="Helvetica,sans-Serif" font-size="10.00">common/sbus/src/sif2cmd.c</text>
</a>
</g>
</g>
<!-- Node1&#45;&gt;Node9 -->
<g id="edge8" class="edge">
<title>Node1&#45;&gt;Node9</title>
<path fill="none" stroke="#63b8ff" d="M819.56,-62.24C859.5,-50.12 910.73,-34.59 942.45,-24.96"/>
<polygon fill="#63b8ff" stroke="#63b8ff" points="818.62,-58.87 810.06,-65.12 820.65,-65.56 818.62,-58.87"/>
</g>
<!-- Node10 -->
<g id="node10" class="node">
<title>Node10</title>
<g id="a_node10"><a xlink:href="iop_2debug_2iop__sbusdbg_2src_2irx__imports_8h_source.html" target="_top" xlink:title=" ">
<polygon fill="white" stroke="#666666" points="1176,-30 1060,-30 1060,0 1176,0 1176,-30"/>
<text text-anchor="start" x="1068" y="-18" font-family="Helvetica,sans-Serif" font-size="10.00">iop/debug/iop_sbusdbg</text>
<text text-anchor="middle" x="1118" y="-7" font-family="Helvetica,sans-Serif" font-size="10.00">/src/irx_imports.h</text>
</a>
</g>
</g>
<!-- Node1&#45;&gt;Node10 -->
<g id="edge9" class="edge">
<title>Node1&#45;&gt;Node10</title>
<path fill="none" stroke="#63b8ff" d="M828.25,-69.1C887.11,-59.39 974.86,-44.51 1051,-30 1053.8,-29.47 1056.67,-28.91 1059.56,-28.34"/>
<polygon fill="#63b8ff" stroke="#63b8ff" points="828.04,-65.58 818.74,-70.66 829.17,-72.49 828.04,-65.58"/>
</g>
<!-- Node11 -->
<g id="node11" class="node">
<title>Node11</title>
<g id="a_node11"><a xlink:href="iop_2debug_2iop__sbusdbg_2src_2main_8c_source.html" target="_top" xlink:title=" ">
<polygon fill="white" stroke="#666666" points="1310,-30 1194,-30 1194,0 1310,0 1310,-30"/>
<text text-anchor="start" x="1202" y="-18" font-family="Helvetica,sans-Serif" font-size="10.00">iop/debug/iop_sbusdbg</text>
<text text-anchor="middle" x="1252" y="-7" font-family="Helvetica,sans-Serif" font-size="10.00">/src/main.c</text>
</a>
</g>
</g>
<!-- Node1&#45;&gt;Node11 -->
<g id="edge10" class="edge">
<title>Node1&#45;&gt;Node11</title>
<path fill="none" stroke="#63b8ff" d="M828.88,-73.87C912.82,-65.85 1059.94,-50.4 1185,-30 1187.81,-29.54 1190.69,-29.04 1193.59,-28.52"/>
<polygon fill="#63b8ff" stroke="#63b8ff" points="828.59,-70.38 818.97,-74.8 829.25,-77.35 828.59,-70.38"/>
</g>
<!-- Node12 -->
<g id="node12" class="node">
<title>Node12</title>
<g id="a_node12"><a xlink:href="sbus__dbg_8c_source.html" target="_top" xlink:title=" ">
<polygon fill="white" stroke="#666666" points="1444,-30 1328,-30 1328,0 1444,0 1444,-30"/>
<text text-anchor="start" x="1336" y="-18" font-family="Helvetica,sans-Serif" font-size="10.00">iop/debug/iop_sbusdbg</text>
<text text-anchor="middle" x="1386" y="-7" font-family="Helvetica,sans-Serif" font-size="10.00">/src/sbus_dbg.c</text>
</a>
</g>
</g>
<!-- Node1&#45;&gt;Node12 -->
<g id="edge11" class="edge">
<title>Node1&#45;&gt;Node12</title>
<path fill="none" stroke="#63b8ff" d="M828.9,-76.48C934.25,-70.43 1143.28,-56.14 1319,-30 1321.82,-29.58 1324.7,-29.12 1327.61,-28.62"/>
<polygon fill="#63b8ff" stroke="#63b8ff" points="828.79,-72.98 819,-77.04 829.18,-79.97 828.79,-72.98"/>
</g>
<!-- Node13 -->
<g id="node13" class="node">
<title>Node13</title>
<g id="a_node13"><a xlink:href="sbus__tty_8c_source.html" target="_top" xlink:title=" ">
<polygon fill="white" stroke="#666666" points="1578,-30 1462,-30 1462,0 1578,0 1578,-30"/>
<text text-anchor="start" x="1470" y="-18" font-family="Helvetica,sans-Serif" font-size="10.00">iop/debug/iop_sbusdbg</text>
<text text-anchor="middle" x="1520" y="-7" font-family="Helvetica,sans-Serif" font-size="10.00">/src/sbus_tty.c</text>
</a>
</g>
</g>
<!-- Node1&#45;&gt;Node13 -->
<g id="edge12" class="edge">
<title>Node1&#45;&gt;Node13</title>
<path fill="none" stroke="#63b8ff" d="M828.52,-78.12C952.68,-74 1225.4,-61.86 1453,-30 1455.82,-29.6 1458.71,-29.16 1461.62,-28.68"/>
<polygon fill="#63b8ff" stroke="#63b8ff" points="828.72,-74.61 818.84,-78.43 828.95,-81.61 828.72,-74.61"/>
</g>
</g>
</svg>
