<?xml version="1.0" encoding="UTF-8" standalone="no"?>
<!DOCTYPE svg PUBLIC "-//W3C//DTD SVG 1.1//EN"
 "http://www.w3.org/Graphics/SVG/1.1/DTD/svg11.dtd">
<!-- Generated by graphviz version 7.0.5 (20221223.1930)
 -->
<!-- Title: common/sbus/include/ps2_sbus.h Pages: 1 -->
<svg width="234pt" height="203pt"
 viewBox="0.00 0.00 233.50 203.00" xmlns="http://www.w3.org/2000/svg" xmlns:xlink="http://www.w3.org/1999/xlink">
<g id="graph0" class="graph" transform="scale(1 1) rotate(0) translate(4 199)">
<title>common/sbus/include/ps2_sbus.h</title>
<!-- Node1 -->
<g id="node1" class="node">
<title>Node1</title>
<g id="a_node1"><a xlink:title=" ">
<polygon fill="#999999" stroke="#666666" points="112,-195 0,-195 0,-165 112,-165 112,-195"/>
<text text-anchor="start" x="8" y="-183" font-family="Helvetica,sans-Serif" font-size="10.00">common/sbus/include</text>
<text text-anchor="middle" x="56" y="-172" font-family="Helvetica,sans-Serif" font-size="10.00">/ps2_sbus.h</text>
</a>
</g>
</g>
<!-- Node2 -->
<g id="node2" class="node">
<title>Node2</title>
<g id="a_node2"><a xlink:href="tamtypes_8h.html" target="_top" xlink:title=" ">
<polygon fill="white" stroke="#666666" points="120,-19 56,-19 56,0 120,0 120,-19"/>
<text text-anchor="middle" x="88" y="-7" font-family="Helvetica,sans-Serif" font-size="10.00">tamtypes.h</text>
</a>
</g>
</g>
<!-- Node1&#45;&gt;Node2 -->
<g id="edge1" class="edge">
<title>Node1&#45;&gt;Node2</title>
<path fill="none" stroke="#63b8ff" d="M54.9,-164.57C54.2,-154.59 53.36,-141 53,-129 52.75,-120.56 51.58,-118.32 53,-110 57.95,-81.01 70.46,-49.24 79.1,-29.58"/>
<polygon fill="#63b8ff" stroke="#63b8ff" points="82.2,-31.21 83.14,-20.66 75.83,-28.33 82.2,-31.21"/>
</g>
<!-- Node3 -->
<g id="node3" class="node">
<title>Node3</title>
<g id="a_node3"><a xlink:href="ps2__reg__defs_8h.html" target="_top" xlink:title=" ">
<polygon fill="white" stroke="#666666" points="145.5,-129 62.5,-129 62.5,-110 145.5,-110 145.5,-129"/>
<text text-anchor="middle" x="104" y="-117" font-family="Helvetica,sans-Serif" font-size="10.00">ps2_reg_defs.h</text>
</a>
</g>
</g>
<!-- Node1&#45;&gt;Node3 -->
<g id="edge2" class="edge">
<title>Node1&#45;&gt;Node3</title>
<path fill="none" stroke="#63b8ff" d="M67.87,-164.54C74.48,-156.48 82.77,-146.38 89.73,-137.89"/>
<polygon fill="#63b8ff" stroke="#63b8ff" points="92.28,-140.3 95.92,-130.35 86.87,-135.86 92.28,-140.3"/>
</g>
<!-- Node3&#45;&gt;Node2 -->
<g id="edge3" class="edge">
<title>Node3&#45;&gt;Node2</title>
<path fill="none" stroke="#63b8ff" d="M96.87,-109.6C90.5,-101.05 81.65,-87.47 78,-74 74.07,-59.47 77.05,-42.62 80.76,-29.93"/>
<polygon fill="#63b8ff" stroke="#63b8ff" points="84,-31.28 83.85,-20.69 77.36,-29.06 84,-31.28"/>
</g>
<!-- Node4 -->
<g id="node4" class="node">
<title>Node4</title>
<g id="a_node4"><a xlink:href="ee__regs_8h.html" target="_top" xlink:title=" ">
<polygon fill="white" stroke="#666666" points="146.5,-74 87.5,-74 87.5,-55 146.5,-55 146.5,-74"/>
<text text-anchor="middle" x="117" y="-62" font-family="Helvetica,sans-Serif" font-size="10.00">ee_regs.h</text>
</a>
</g>
</g>
<!-- Node3&#45;&gt;Node4 -->
<g id="edge4" class="edge">
<title>Node3&#45;&gt;Node4</title>
<path fill="none" stroke="#63b8ff" d="M106.15,-109.75C107.76,-103.19 110.02,-93.95 112.07,-85.6"/>
<polygon fill="#63b8ff" stroke="#63b8ff" points="115.46,-86.46 114.45,-75.91 108.66,-84.79 115.46,-86.46"/>
</g>
<!-- Node5 -->
<g id="node5" class="node">
<title>Node5</title>
<g id="a_node5"><a xlink:href="iop__regs_8h.html" target="_top" xlink:title=" ">
<polygon fill="white" stroke="#666666" points="225.5,-74 164.5,-74 164.5,-55 225.5,-55 225.5,-74"/>
<text text-anchor="middle" x="195" y="-62" font-family="Helvetica,sans-Serif" font-size="10.00">iop_regs.h</text>
</a>
</g>
</g>
<!-- Node3&#45;&gt;Node5 -->
<g id="edge6" class="edge">
<title>Node3&#45;&gt;Node5</title>
<path fill="none" stroke="#63b8ff" d="M119.44,-109.51C133.25,-101.47 153.75,-89.53 169.91,-80.11"/>
<polygon fill="#63b8ff" stroke="#63b8ff" points="171.6,-83.18 178.48,-75.12 168.08,-77.13 171.6,-83.18"/>
</g>
<!-- Node4&#45;&gt;Node2 -->
<g id="edge5" class="edge">
<title>Node4&#45;&gt;Node2</title>
<path fill="none" stroke="#63b8ff" d="M112.21,-54.75C108.46,-47.88 103.09,-38.08 98.37,-29.45"/>
<polygon fill="#63b8ff" stroke="#63b8ff" points="101.49,-27.86 93.62,-20.77 95.35,-31.22 101.49,-27.86"/>
</g>
<!-- Node5&#45;&gt;Node2 -->
<g id="edge7" class="edge">
<title>Node5&#45;&gt;Node2</title>
<path fill="none" stroke="#63b8ff" d="M176.85,-54.51C160.22,-46.27 135.36,-33.96 116.15,-24.45"/>
<polygon fill="#63b8ff" stroke="#63b8ff" points="117.75,-21.33 107.24,-20.03 114.65,-27.6 117.75,-21.33"/>
</g>
</g>
</svg>
