<?xml version="1.0" encoding="UTF-8" standalone="no"?>
<!DOCTYPE svg PUBLIC "-//W3C//DTD SVG 1.1//EN"
 "http://www.w3.org/Graphics/SVG/1.1/DTD/svg11.dtd">
<!-- Generated by graphviz version 7.0.5 (20221223.1930)
 -->
<!-- Title: common/include/ps2_debug.h Pages: 1 -->
<svg width="919pt" height="170pt"
 viewBox="0.00 0.00 918.50 170.00" xmlns="http://www.w3.org/2000/svg" xmlns:xlink="http://www.w3.org/1999/xlink">
<g id="graph0" class="graph" transform="scale(1 1) rotate(0) translate(4 166)">
<title>common/include/ps2_debug.h</title>
<!-- Node1 -->
<g id="node1" class="node">
<title>Node1</title>
<g id="a_node1"><a xlink:title=" ">
<polygon fill="#999999" stroke="#666666" points="380.5,-162 273.5,-162 273.5,-132 380.5,-132 380.5,-162"/>
<text text-anchor="start" x="281.5" y="-150" font-family="Helvetica,sans-Serif" font-size="10.00">common/include/ps2</text>
<text text-anchor="middle" x="327" y="-139" font-family="Helvetica,sans-Serif" font-size="10.00">_debug.h</text>
</a>
</g>
</g>
<!-- Node2 -->
<g id="node2" class="node">
<title>Node2</title>
<g id="a_node2"><a xlink:href="ee__debug_8h.html" target="_top" xlink:title=" ">
<polygon fill="white" stroke="#666666" points="132.5,-96 31.5,-96 31.5,-66 132.5,-66 132.5,-96"/>
<text text-anchor="start" x="39.5" y="-84" font-family="Helvetica,sans-Serif" font-size="10.00">ee/eedebug/include</text>
<text text-anchor="middle" x="82" y="-73" font-family="Helvetica,sans-Serif" font-size="10.00">/ee_debug.h</text>
</a>
</g>
</g>
<!-- Node1&#45;&gt;Node2 -->
<g id="edge1" class="edge">
<title>Node1&#45;&gt;Node2</title>
<path fill="none" stroke="#63b8ff" d="M262.12,-129.05C221.61,-118.47 170.22,-105.05 132.71,-95.25"/>
<polygon fill="#63b8ff" stroke="#63b8ff" points="261.21,-132.43 271.77,-131.57 262.98,-125.66 261.21,-132.43"/>
</g>
<!-- Node4 -->
<g id="node4" class="node">
<title>Node4</title>
<g id="a_node4"><a xlink:href="iop__sbusdbg_8h.html" target="_top" xlink:title=" ">
<polygon fill="white" stroke="#666666" points="280,-96 164,-96 164,-66 280,-66 280,-96"/>
<text text-anchor="start" x="172" y="-84" font-family="Helvetica,sans-Serif" font-size="10.00">iop/debug/iop_sbusdbg</text>
<text text-anchor="middle" x="222" y="-73" font-family="Helvetica,sans-Serif" font-size="10.00">/include/iop_sbusdbg.h</text>
</a>
</g>
</g>
<!-- Node1&#45;&gt;Node4 -->
<g id="edge3" class="edge">
<title>Node1&#45;&gt;Node4</title>
<path fill="none" stroke="#63b8ff" d="M294.04,-125.91C278.29,-116.31 259.79,-105.03 245.49,-96.31"/>
<polygon fill="#63b8ff" stroke="#63b8ff" points="291.78,-128.63 302.14,-130.85 295.43,-122.66 291.78,-128.63"/>
</g>
<!-- Node5 -->
<g id="node5" class="node">
<title>Node5</title>
<g id="a_node5"><a xlink:href="sbus__dbg_8c_source.html" target="_top" xlink:title=" ">
<polygon fill="white" stroke="#666666" points="270,-30 154,-30 154,0 270,0 270,-30"/>
<text text-anchor="start" x="162" y="-18" font-family="Helvetica,sans-Serif" font-size="10.00">iop/debug/iop_sbusdbg</text>
<text text-anchor="middle" x="212" y="-7" font-family="Helvetica,sans-Serif" font-size="10.00">/src/sbus_dbg.c</text>
</a>
</g>
</g>
<!-- Node1&#45;&gt;Node5 -->
<g id="edge4" class="edge">
<title>Node1&#45;&gt;Node5</title>
<path fill="none" stroke="#63b8ff" d="M319.15,-120.9C312.95,-104 302.99,-81.98 289,-66 275.98,-51.13 257.51,-38.93 241.92,-30.31"/>
<polygon fill="#63b8ff" stroke="#63b8ff" points="315.79,-121.89 322.35,-130.21 322.41,-119.61 315.79,-121.89"/>
</g>
<!-- Node6 -->
<g id="node6" class="node">
<title>Node6</title>
<g id="a_node6"><a xlink:href="sbus__tty_8c_source.html" target="_top" xlink:title=" ">
<polygon fill="white" stroke="#666666" points="404,-30 288,-30 288,0 404,0 404,-30"/>
<text text-anchor="start" x="296" y="-18" font-family="Helvetica,sans-Serif" font-size="10.00">iop/debug/iop_sbusdbg</text>
<text text-anchor="middle" x="346" y="-7" font-family="Helvetica,sans-Serif" font-size="10.00">/src/sbus_tty.c</text>
</a>
</g>
</g>
<!-- Node1&#45;&gt;Node6 -->
<g id="edge5" class="edge">
<title>Node1&#45;&gt;Node6</title>
<path fill="none" stroke="#63b8ff" d="M330.75,-120.38C334.67,-93.49 340.71,-52.18 343.88,-30.47"/>
<polygon fill="#63b8ff" stroke="#63b8ff" points="327.31,-119.69 329.32,-130.09 334.23,-120.7 327.31,-119.69"/>
</g>
<!-- Node7 -->
<g id="node7" class="node">
<title>Node7</title>
<g id="a_node7"><a xlink:href="iopdebug_8h.html" target="_top" xlink:title=" ">
<polygon fill="white" stroke="#666666" points="530.5,-96 429.5,-96 429.5,-66 530.5,-66 530.5,-96"/>
<text text-anchor="start" x="437.5" y="-84" font-family="Helvetica,sans-Serif" font-size="10.00">iop/debug/iopdebug</text>
<text text-anchor="middle" x="480" y="-73" font-family="Helvetica,sans-Serif" font-size="10.00">/include/iopdebug.h</text>
</a>
</g>
</g>
<!-- Node1&#45;&gt;Node7 -->
<g id="edge6" class="edge">
<title>Node1&#45;&gt;Node7</title>
<path fill="none" stroke="#63b8ff" d="M371.77,-127.27C395.3,-117.43 423.71,-105.55 445.51,-96.43"/>
<polygon fill="#63b8ff" stroke="#63b8ff" points="370.61,-123.97 362.73,-131.05 373.31,-130.42 370.61,-123.97"/>
</g>
<!-- Node10 -->
<g id="node10" class="node">
<title>Node10</title>
<g id="a_node10"><a xlink:href="iop__debug_8c.html" target="_top" xlink:title=" ">
<polygon fill="white" stroke="#666666" points="910.5,-30 809.5,-30 809.5,0 910.5,0 910.5,-30"/>
<text text-anchor="start" x="817.5" y="-18" font-family="Helvetica,sans-Serif" font-size="10.00">iop/debug/iopdebug</text>
<text text-anchor="middle" x="860" y="-7" font-family="Helvetica,sans-Serif" font-size="10.00">/src/iop_debug.c</text>
</a>
</g>
</g>
<!-- Node1&#45;&gt;Node10 -->
<g id="edge13" class="edge">
<title>Node1&#45;&gt;Node10</title>
<path fill="none" stroke="#63b8ff" d="M391.82,-130.94C433.81,-121.12 489.68,-107.96 539,-96 634.58,-72.82 745.93,-44.85 809.18,-28.88"/>
<polygon fill="#63b8ff" stroke="#63b8ff" points="391.05,-127.52 382.1,-133.2 392.64,-134.34 391.05,-127.52"/>
</g>
<!-- Node3 -->
<g id="node3" class="node">
<title>Node3</title>
<g id="a_node3"><a xlink:href="ee__debug_8c_source.html" target="_top" xlink:title=" ">
<polygon fill="white" stroke="#666666" points="136,-24.5 0,-24.5 0,-5.5 136,-5.5 136,-24.5"/>
<text text-anchor="middle" x="68" y="-12.5" font-family="Helvetica,sans-Serif" font-size="10.00">ee/eedebug/src/ee_debug.c</text>
</a>
</g>
</g>
<!-- Node2&#45;&gt;Node3 -->
<g id="edge2" class="edge">
<title>Node2&#45;&gt;Node3</title>
<path fill="none" stroke="#63b8ff" d="M76.44,-54.59C74.14,-44.06 71.62,-32.53 69.93,-24.84"/>
<polygon fill="#63b8ff" stroke="#63b8ff" points="73.01,-55.3 78.57,-64.32 79.85,-53.8 73.01,-55.3"/>
</g>
<!-- Node7&#45;&gt;Node5 -->
<g id="edge9" class="edge">
<title>Node7&#45;&gt;Node5</title>
<path fill="none" stroke="#63b8ff" d="M418.31,-65.27C373.83,-54.65 314.16,-40.4 270.44,-29.96"/>
<polygon fill="#63b8ff" stroke="#63b8ff" points="417.26,-68.62 427.8,-67.54 418.89,-61.81 417.26,-68.62"/>
</g>
<!-- Node7&#45;&gt;Node6 -->
<g id="edge10" class="edge">
<title>Node7&#45;&gt;Node6</title>
<path fill="none" stroke="#63b8ff" d="M439.64,-60.72C419.17,-50.95 394.74,-39.28 375.97,-30.31"/>
<polygon fill="#63b8ff" stroke="#63b8ff" points="438.03,-63.83 448.56,-64.98 441.05,-57.52 438.03,-63.83"/>
</g>
<!-- Node8 -->
<g id="node8" class="node">
<title>Node8</title>
<g id="a_node8"><a xlink:href="iop_2debug_2iop__sbusdbg_2src_2irx__imports_8h_source.html" target="_top" xlink:title=" ">
<polygon fill="white" stroke="#666666" points="538,-30 422,-30 422,0 538,0 538,-30"/>
<text text-anchor="start" x="430" y="-18" font-family="Helvetica,sans-Serif" font-size="10.00">iop/debug/iop_sbusdbg</text>
<text text-anchor="middle" x="480" y="-7" font-family="Helvetica,sans-Serif" font-size="10.00">/src/irx_imports.h</text>
</a>
</g>
</g>
<!-- Node7&#45;&gt;Node8 -->
<g id="edge7" class="edge">
<title>Node7&#45;&gt;Node8</title>
<path fill="none" stroke="#63b8ff" d="M480,-54.39C480,-46.13 480,-37.28 480,-30.16"/>
<polygon fill="#63b8ff" stroke="#63b8ff" points="476.5,-54.28 480,-64.28 483.5,-54.28 476.5,-54.28"/>
</g>
<!-- Node9 -->
<g id="node9" class="node">
<title>Node9</title>
<g id="a_node9"><a xlink:href="iop_2debug_2iop__sbusdbg_2src_2main_8c_source.html" target="_top" xlink:title=" ">
<polygon fill="white" stroke="#666666" points="672,-30 556,-30 556,0 672,0 672,-30"/>
<text text-anchor="start" x="564" y="-18" font-family="Helvetica,sans-Serif" font-size="10.00">iop/debug/iop_sbusdbg</text>
<text text-anchor="middle" x="614" y="-7" font-family="Helvetica,sans-Serif" font-size="10.00">/src/main.c</text>
</a>
</g>
</g>
<!-- Node7&#45;&gt;Node9 -->
<g id="edge8" class="edge">
<title>Node7&#45;&gt;Node9</title>
<path fill="none" stroke="#63b8ff" d="M520.36,-60.72C540.83,-50.95 565.26,-39.28 584.03,-30.31"/>
<polygon fill="#63b8ff" stroke="#63b8ff" points="518.95,-57.52 511.44,-64.98 521.97,-63.83 518.95,-57.52"/>
</g>
<!-- Node7&#45;&gt;Node10 -->
<g id="edge11" class="edge">
<title>Node7&#45;&gt;Node10</title>
<path fill="none" stroke="#63b8ff" d="M542.05,-71.81C606.89,-62.9 711.46,-47.57 801,-30 803.69,-29.47 806.43,-28.91 809.21,-28.32"/>
<polygon fill="#63b8ff" stroke="#63b8ff" points="541.74,-68.32 532.31,-73.14 542.69,-75.25 541.74,-68.32"/>
</g>
<!-- Node11 -->
<g id="node11" class="node">
<title>Node11</title>
<g id="a_node11"><a xlink:href="iop_2debug_2iopdebug_2src_2main_8c.html" target="_top" xlink:title=" ">
<polygon fill="white" stroke="#666666" points="791.5,-30 690.5,-30 690.5,0 791.5,0 791.5,-30"/>
<text text-anchor="start" x="698.5" y="-18" font-family="Helvetica,sans-Serif" font-size="10.00">iop/debug/iopdebug</text>
<text text-anchor="middle" x="741" y="-7" font-family="Helvetica,sans-Serif" font-size="10.00">/src/main.c</text>
</a>
</g>
</g>
<!-- Node7&#45;&gt;Node11 -->
<g id="edge12" class="edge">
<title>Node7&#45;&gt;Node11</title>
<path fill="none" stroke="#63b8ff" d="M542.09,-64.77C587.32,-53.68 647.83,-38.85 690.19,-28.46"/>
<polygon fill="#63b8ff" stroke="#63b8ff" points="541.29,-61.37 532.41,-67.15 542.96,-68.17 541.29,-61.37"/>
</g>
</g>
</svg>
