<?xml version="1.0" encoding="UTF-8" standalone="no"?>
<!DOCTYPE svg PUBLIC "-//W3C//DTD SVG 1.1//EN"
 "http://www.w3.org/Graphics/SVG/1.1/DTD/svg11.dtd">
<!-- Generated by graphviz version 7.0.5 (20221223.1930)
 -->
<!-- Title: iop/dev9/atad/src/ps2atad.c Pages: 1 -->
<svg width="752pt" height="247pt"
 viewBox="0.00 0.00 751.86 247.00" xmlns="http://www.w3.org/2000/svg" xmlns:xlink="http://www.w3.org/1999/xlink">
<g id="graph0" class="graph" transform="scale(1 1) rotate(0) translate(4 243)">
<title>iop/dev9/atad/src/ps2atad.c</title>
<!-- Node1 -->
<g id="node1" class="node">
<title>Node1</title>
<g id="a_node1"><a xlink:title=" ">
<polygon fill="#999999" stroke="#666666" points="386.86,-239 249.86,-239 249.86,-220 386.86,-220 386.86,-239"/>
<text text-anchor="middle" x="318.36" y="-227" font-family="Helvetica,sans-Serif" font-size="10.00">iop/dev9/atad/src/ps2atad.c</text>
</a>
</g>
</g>
<!-- Node2 -->
<g id="node2" class="node">
<title>Node2</title>
<g id="a_node2"><a xlink:title=" ">
<polygon fill="#e0e0e0" stroke="#999999" points="111.86,-129 64.86,-129 64.86,-110 111.86,-110 111.86,-129"/>
<text text-anchor="middle" x="88.36" y="-117" font-family="Helvetica,sans-Serif" font-size="10.00">types.h</text>
</a>
</g>
</g>
<!-- Node1&#45;&gt;Node2 -->
<g id="edge1" class="edge">
<title>Node1&#45;&gt;Node2</title>
<path fill="none" stroke="#63b8ff" d="M249.37,-228.79C166.96,-227.48 36.3,-219.65 5.36,-184 -13.6,-162.16 23.25,-142.89 53.74,-131.47"/>
<polygon fill="#63b8ff" stroke="#63b8ff" points="54.9,-134.77 63.15,-128.13 52.55,-128.17 54.9,-134.77"/>
</g>
<!-- Node3 -->
<g id="node3" class="node">
<title>Node3</title>
<g id="a_node3"><a xlink:href="defs_8h.html" target="_top" xlink:title=" ">
<polygon fill="white" stroke="#666666" points="384.86,-129 341.86,-129 341.86,-110 384.86,-110 384.86,-129"/>
<text text-anchor="middle" x="363.36" y="-117" font-family="Helvetica,sans-Serif" font-size="10.00">defs.h</text>
</a>
</g>
</g>
<!-- Node1&#45;&gt;Node3 -->
<g id="edge2" class="edge">
<title>Node1&#45;&gt;Node3</title>
<path fill="none" stroke="#63b8ff" d="M387.23,-222.91C412.87,-217.08 439.56,-205.75 455.36,-184 460.33,-177.17 459.85,-172.15 455.36,-165 448.49,-154.04 419.57,-141.12 395.96,-132.03"/>
<polygon fill="#63b8ff" stroke="#63b8ff" points="397.27,-128.78 386.67,-128.55 394.81,-135.34 397.27,-128.78"/>
</g>
<!-- Node7 -->
<g id="node7" class="node">
<title>Node7</title>
<g id="a_node7"><a xlink:href="irx_8h.html" target="_top" xlink:title=" ">
<polygon fill="white" stroke="#666666" points="247.36,-129 213.36,-129 213.36,-110 247.36,-110 247.36,-129"/>
<text text-anchor="middle" x="230.36" y="-117" font-family="Helvetica,sans-Serif" font-size="10.00">irx.h</text>
</a>
</g>
</g>
<!-- Node1&#45;&gt;Node7 -->
<g id="edge6" class="edge">
<title>Node1&#45;&gt;Node7</title>
<path fill="none" stroke="#63b8ff" d="M291.82,-219.54C275.04,-212.49 254.34,-201 242.36,-184 233.45,-171.35 230.66,-153.9 229.98,-140.49"/>
<polygon fill="#63b8ff" stroke="#63b8ff" points="233.48,-140.64 229.86,-130.68 226.48,-140.72 233.48,-140.64"/>
</g>
<!-- Node8 -->
<g id="node8" class="node">
<title>Node8</title>
<g id="a_node8"><a xlink:href="loadcore_8h.html" target="_top" xlink:title=" ">
<polygon fill="white" stroke="#666666" points="311.86,-184 250.86,-184 250.86,-165 311.86,-165 311.86,-184"/>
<text text-anchor="middle" x="281.36" y="-172" font-family="Helvetica,sans-Serif" font-size="10.00">loadcore.h</text>
</a>
</g>
</g>
<!-- Node1&#45;&gt;Node8 -->
<g id="edge8" class="edge">
<title>Node1&#45;&gt;Node8</title>
<path fill="none" stroke="#63b8ff" d="M312.25,-219.75C307.35,-212.73 300.31,-202.64 294.19,-193.87"/>
<polygon fill="#63b8ff" stroke="#63b8ff" points="297.07,-191.88 288.47,-185.68 291.33,-195.89 297.07,-191.88"/>
</g>
<!-- Node9 -->
<g id="node9" class="node">
<title>Node9</title>
<g id="a_node9"><a xlink:href="thbase_8h.html" target="_top" xlink:title=" ">
<polygon fill="white" stroke="#666666" points="382.86,-184 329.86,-184 329.86,-165 382.86,-165 382.86,-184"/>
<text text-anchor="middle" x="356.36" y="-172" font-family="Helvetica,sans-Serif" font-size="10.00">thbase.h</text>
</a>
</g>
</g>
<!-- Node1&#45;&gt;Node9 -->
<g id="edge11" class="edge">
<title>Node1&#45;&gt;Node9</title>
<path fill="none" stroke="#63b8ff" d="M324.64,-219.75C329.72,-212.66 337.06,-202.42 343.39,-193.59"/>
<polygon fill="#63b8ff" stroke="#63b8ff" points="346.09,-195.84 349.07,-185.67 340.4,-191.76 346.09,-195.84"/>
</g>
<!-- Node10 -->
<g id="node10" class="node">
<title>Node10</title>
<g id="a_node10"><a xlink:href="thevent_8h.html" target="_top" xlink:title=" ">
<polygon fill="white" stroke="#666666" points="194.36,-184 138.36,-184 138.36,-165 194.36,-165 194.36,-184"/>
<text text-anchor="middle" x="166.36" y="-172" font-family="Helvetica,sans-Serif" font-size="10.00">thevent.h</text>
</a>
</g>
</g>
<!-- Node1&#45;&gt;Node10 -->
<g id="edge14" class="edge">
<title>Node1&#45;&gt;Node10</title>
<path fill="none" stroke="#63b8ff" d="M292.58,-219.51C267.94,-210.92 230.55,-197.88 202.86,-188.22"/>
<polygon fill="#63b8ff" stroke="#63b8ff" points="204.04,-184.93 193.45,-184.94 201.74,-191.54 204.04,-184.93"/>
</g>
<!-- Node11 -->
<g id="node11" class="node">
<title>Node11</title>
<g id="a_node11"><a xlink:href="stdio_8h.html" target="_top" xlink:title=" ">
<polygon fill="white" stroke="#666666" points="445.86,-184 400.86,-184 400.86,-165 445.86,-165 445.86,-184"/>
<text text-anchor="middle" x="423.36" y="-172" font-family="Helvetica,sans-Serif" font-size="10.00">stdio.h</text>
</a>
</g>
</g>
<!-- Node1&#45;&gt;Node11 -->
<g id="edge17" class="edge">
<title>Node1&#45;&gt;Node11</title>
<path fill="none" stroke="#63b8ff" d="M336.17,-219.51C352.49,-211.27 376.89,-198.96 395.73,-189.45"/>
<polygon fill="#63b8ff" stroke="#63b8ff" points="397.11,-192.67 404.46,-185.04 393.96,-186.42 397.11,-192.67"/>
</g>
<!-- Node13 -->
<g id="node13" class="node">
<title>Node13</title>
<g id="a_node13"><a xlink:href="sysclib_8h.html" target="_top" xlink:title=" ">
<polygon fill="white" stroke="#666666" points="556.36,-184 502.36,-184 502.36,-165 556.36,-165 556.36,-184"/>
<text text-anchor="middle" x="529.36" y="-172" font-family="Helvetica,sans-Serif" font-size="10.00">sysclib.h</text>
</a>
</g>
</g>
<!-- Node1&#45;&gt;Node13 -->
<g id="edge20" class="edge">
<title>Node1&#45;&gt;Node13</title>
<path fill="none" stroke="#63b8ff" d="M354.16,-219.51C392.17,-209.96 452.04,-194.92 491.01,-185.13"/>
<polygon fill="#63b8ff" stroke="#63b8ff" points="491.82,-188.54 500.67,-182.71 490.12,-181.75 491.82,-188.54"/>
</g>
<!-- Node16 -->
<g id="node16" class="node">
<title>Node16</title>
<g id="a_node16"><a xlink:href="dev9_8h.html" target="_top" xlink:title=" ">
<polygon fill="white" stroke="#666666" points="58.86,-184 13.86,-184 13.86,-165 58.86,-165 58.86,-184"/>
<text text-anchor="middle" x="36.36" y="-172" font-family="Helvetica,sans-Serif" font-size="10.00">dev9.h</text>
</a>
</g>
</g>
<!-- Node1&#45;&gt;Node16 -->
<g id="edge27" class="edge">
<title>Node1&#45;&gt;Node16</title>
<path fill="none" stroke="#63b8ff" d="M260,-219.53C211.64,-211.77 140.89,-199.69 69.95,-184.19"/>
<polygon fill="#63b8ff" stroke="#63b8ff" points="71.03,-180.84 60.51,-182.1 69.52,-187.67 71.03,-180.84"/>
</g>
<!-- Node18 -->
<g id="node18" class="node">
<title>Node18</title>
<g id="a_node18"><a xlink:href="atad_8h.html" target="_top" xlink:title=" ">
<polygon fill="white" stroke="#666666" points="119.86,-184 76.86,-184 76.86,-165 119.86,-165 119.86,-184"/>
<text text-anchor="middle" x="98.36" y="-172" font-family="Helvetica,sans-Serif" font-size="10.00">atad.h</text>
</a>
</g>
</g>
<!-- Node1&#45;&gt;Node18 -->
<g id="edge32" class="edge">
<title>Node1&#45;&gt;Node18</title>
<path fill="none" stroke="#63b8ff" d="M278.44,-219.54C242.44,-211.37 187.77,-198.71 131.29,-184.42"/>
<polygon fill="#63b8ff" stroke="#63b8ff" points="132.37,-181.08 121.82,-182.01 130.65,-187.87 132.37,-181.08"/>
</g>
<!-- Node19 -->
<g id="node19" class="node">
<title>Node19</title>
<g id="a_node19"><a xlink:href="speedregs_8h.html" target="_top" xlink:title=" ">
<polygon fill="white" stroke="#666666" points="633.86,-74 564.86,-74 564.86,-55 633.86,-55 633.86,-74"/>
<text text-anchor="middle" x="599.36" y="-62" font-family="Helvetica,sans-Serif" font-size="10.00">speedregs.h</text>
</a>
</g>
</g>
<!-- Node1&#45;&gt;Node19 -->
<g id="edge35" class="edge">
<title>Node1&#45;&gt;Node19</title>
<path fill="none" stroke="#63b8ff" d="M387.31,-221.87C449.78,-214.83 536.34,-202.2 565.36,-184 590.97,-167.94 596.02,-157.74 605.36,-129 609.98,-114.8 608.07,-97.93 605.22,-85.15"/>
<polygon fill="#63b8ff" stroke="#63b8ff" points="608.7,-84.62 602.78,-75.84 601.93,-86.4 608.7,-84.62"/>
</g>
<!-- Node20 -->
<g id="node20" class="node">
<title>Node20</title>
<g id="a_node20"><a xlink:href="atahw_8h.html" target="_top" xlink:title=" ">
<polygon fill="white" stroke="#666666" points="702.36,-129 652.36,-129 652.36,-110 702.36,-110 702.36,-129"/>
<text text-anchor="middle" x="677.36" y="-117" font-family="Helvetica,sans-Serif" font-size="10.00">atahw.h</text>
</a>
</g>
</g>
<!-- Node1&#45;&gt;Node20 -->
<g id="edge37" class="edge">
<title>Node1&#45;&gt;Node20</title>
<path fill="none" stroke="#63b8ff" d="M387.14,-225.74C468.55,-221.32 598.17,-210.28 638.36,-184 654.25,-173.61 664.74,-154.26 670.8,-139.64"/>
<polygon fill="#63b8ff" stroke="#63b8ff" points="673.95,-141.2 674.19,-130.61 667.4,-138.74 673.95,-141.2"/>
</g>
<!-- Node4 -->
<g id="node4" class="node">
<title>Node4</title>
<g id="a_node4"><a xlink:href="iop_2kernel_2include_2types_8h_source.html" target="_top" xlink:title=" ">
<polygon fill="white" stroke="#666666" points="336.86,-74 289.86,-74 289.86,-55 336.86,-55 336.86,-74"/>
<text text-anchor="middle" x="313.36" y="-62" font-family="Helvetica,sans-Serif" font-size="10.00">types.h</text>
</a>
</g>
</g>
<!-- Node3&#45;&gt;Node4 -->
<g id="edge3" class="edge">
<title>Node3&#45;&gt;Node4</title>
<path fill="none" stroke="#63b8ff" d="M355.11,-109.75C348.2,-102.43 338.14,-91.76 329.62,-82.74"/>
<polygon fill="#63b8ff" stroke="#63b8ff" points="332.25,-80.42 322.84,-75.54 327.15,-85.22 332.25,-80.42"/>
</g>
<!-- Node5 -->
<g id="node5" class="node">
<title>Node5</title>
<g id="a_node5"><a xlink:title=" ">
<polygon fill="#e0e0e0" stroke="#999999" points="338.86,-19 287.86,-19 287.86,0 338.86,0 338.86,-19"/>
<text text-anchor="middle" x="313.36" y="-7" font-family="Helvetica,sans-Serif" font-size="10.00">stddef.h</text>
</a>
</g>
</g>
<!-- Node4&#45;&gt;Node5 -->
<g id="edge4" class="edge">
<title>Node4&#45;&gt;Node5</title>
<path fill="none" stroke="#63b8ff" d="M313.36,-54.75C313.36,-48.27 313.36,-39.16 313.36,-30.9"/>
<polygon fill="#63b8ff" stroke="#63b8ff" points="316.86,-30.96 313.36,-20.96 309.86,-30.96 316.86,-30.96"/>
</g>
<!-- Node6 -->
<g id="node6" class="node">
<title>Node6</title>
<g id="a_node6"><a xlink:href="tamtypes_8h.html" target="_top" xlink:title=" ">
<polygon fill="white" stroke="#666666" points="591.36,-19 527.36,-19 527.36,0 591.36,0 591.36,-19"/>
<text text-anchor="middle" x="559.36" y="-7" font-family="Helvetica,sans-Serif" font-size="10.00">tamtypes.h</text>
</a>
</g>
</g>
<!-- Node4&#45;&gt;Node6 -->
<g id="edge5" class="edge">
<title>Node4&#45;&gt;Node6</title>
<path fill="none" stroke="#63b8ff" d="M336.95,-58.42C378.09,-49.55 463.56,-31.14 515.75,-19.9"/>
<polygon fill="#63b8ff" stroke="#63b8ff" points="516.46,-23.32 525.5,-17.8 514.99,-16.48 516.46,-23.32"/>
</g>
<!-- Node7&#45;&gt;Node4 -->
<g id="edge7" class="edge">
<title>Node7&#45;&gt;Node4</title>
<path fill="none" stroke="#63b8ff" d="M244.44,-109.51C256.92,-101.54 275.38,-89.75 290.06,-80.38"/>
<polygon fill="#63b8ff" stroke="#63b8ff" points="291.67,-83.5 298.22,-75.17 287.9,-77.6 291.67,-83.5"/>
</g>
<!-- Node8&#45;&gt;Node4 -->
<g id="edge9" class="edge">
<title>Node8&#45;&gt;Node4</title>
<path fill="none" stroke="#63b8ff" d="M283.73,-164.85C287.1,-152.61 293.52,-129.54 299.36,-110 301.8,-101.85 304.59,-92.9 307.04,-85.18"/>
<polygon fill="#63b8ff" stroke="#63b8ff" points="310.33,-86.37 310.04,-75.78 303.66,-84.25 310.33,-86.37"/>
</g>
<!-- Node8&#45;&gt;Node7 -->
<g id="edge10" class="edge">
<title>Node8&#45;&gt;Node7</title>
<path fill="none" stroke="#63b8ff" d="M272.94,-164.75C265.9,-157.43 255.63,-146.76 246.95,-137.74"/>
<polygon fill="#63b8ff" stroke="#63b8ff" points="249.47,-135.31 240.02,-130.53 244.43,-140.17 249.47,-135.31"/>
</g>
<!-- Node9&#45;&gt;Node4 -->
<g id="edge12" class="edge">
<title>Node9&#45;&gt;Node4</title>
<path fill="none" stroke="#63b8ff" d="M351.13,-164.51C346.13,-155.68 338.6,-141.7 333.36,-129 327.42,-114.59 322.19,-97.73 318.57,-85.01"/>
<polygon fill="#63b8ff" stroke="#63b8ff" points="322.05,-84.47 316.02,-75.75 315.3,-86.33 322.05,-84.47"/>
</g>
<!-- Node9&#45;&gt;Node7 -->
<g id="edge13" class="edge">
<title>Node9&#45;&gt;Node7</title>
<path fill="none" stroke="#63b8ff" d="M334.99,-164.51C313.87,-155.63 281.46,-141.99 258.31,-132.25"/>
<polygon fill="#63b8ff" stroke="#63b8ff" points="259.75,-129.06 249.17,-128.41 257.03,-135.52 259.75,-129.06"/>
</g>
<!-- Node10&#45;&gt;Node4 -->
<g id="edge15" class="edge">
<title>Node10&#45;&gt;Node4</title>
<path fill="none" stroke="#63b8ff" d="M169.43,-164.91C174.64,-151.47 186.43,-125.4 204.36,-110 225.72,-91.66 255.65,-80.17 278.74,-73.47"/>
<polygon fill="#63b8ff" stroke="#63b8ff" points="279.59,-76.87 288.33,-70.87 277.76,-70.11 279.59,-76.87"/>
</g>
<!-- Node10&#45;&gt;Node7 -->
<g id="edge16" class="edge">
<title>Node10&#45;&gt;Node7</title>
<path fill="none" stroke="#63b8ff" d="M177.22,-164.51C186.47,-156.85 199.99,-145.66 211.07,-136.47"/>
<polygon fill="#63b8ff" stroke="#63b8ff" points="213.03,-139.4 218.5,-130.32 208.57,-134.01 213.03,-139.4"/>
</g>
<!-- Node11&#45;&gt;Node7 -->
<g id="edge19" class="edge">
<title>Node11&#45;&gt;Node7</title>
<path fill="none" stroke="#63b8ff" d="M400.47,-167.21C365.08,-157.5 297.2,-138.85 258.75,-128.3"/>
<polygon fill="#63b8ff" stroke="#63b8ff" points="259.86,-124.97 249.29,-125.7 258.01,-131.72 259.86,-124.97"/>
</g>
<!-- Node12 -->
<g id="node12" class="node">
<title>Node12</title>
<g id="a_node12"><a xlink:title=" ">
<polygon fill="#e0e0e0" stroke="#999999" points="453.86,-129 402.86,-129 402.86,-110 453.86,-110 453.86,-129"/>
<text text-anchor="middle" x="428.36" y="-117" font-family="Helvetica,sans-Serif" font-size="10.00">stdarg.h</text>
</a>
</g>
</g>
<!-- Node11&#45;&gt;Node12 -->
<g id="edge18" class="edge">
<title>Node11&#45;&gt;Node12</title>
<path fill="none" stroke="#63b8ff" d="M424.19,-164.75C424.8,-158.27 425.66,-149.16 426.44,-140.9"/>
<polygon fill="#63b8ff" stroke="#63b8ff" points="429.92,-141.23 427.38,-130.95 422.95,-140.58 429.92,-141.23"/>
</g>
<!-- Node13&#45;&gt;Node4 -->
<g id="edge21" class="edge">
<title>Node13&#45;&gt;Node4</title>
<path fill="none" stroke="#63b8ff" d="M522.64,-164.75C511.68,-151.08 488.65,-124.72 463.36,-110 426.98,-88.82 379.68,-76.98 348.01,-70.93"/>
<polygon fill="#63b8ff" stroke="#63b8ff" points="349.05,-67.56 338.59,-69.22 347.81,-74.45 349.05,-67.56"/>
</g>
<!-- Node13&#45;&gt;Node7 -->
<g id="edge22" class="edge">
<title>Node13&#45;&gt;Node7</title>
<path fill="none" stroke="#63b8ff" d="M502.04,-168.66C445.51,-158.64 316.22,-135.72 258.78,-125.54"/>
<polygon fill="#63b8ff" stroke="#63b8ff" points="259.61,-122.13 249.15,-123.83 258.39,-129.02 259.61,-122.13"/>
</g>
<!-- Node13&#45;&gt;Node12 -->
<g id="edge23" class="edge">
<title>Node13&#45;&gt;Node12</title>
<path fill="none" stroke="#63b8ff" d="M512.23,-164.51C496.61,-156.31 473.28,-144.07 455.19,-134.58"/>
<polygon fill="#63b8ff" stroke="#63b8ff" points="457.06,-131.61 446.58,-130.06 453.81,-137.81 457.06,-131.61"/>
</g>
<!-- Node14 -->
<g id="node14" class="node">
<title>Node14</title>
<g id="a_node14"><a xlink:href="setjmp_8h.html" target="_top" xlink:title=" ">
<polygon fill="white" stroke="#666666" points="546.86,-74 493.86,-74 493.86,-55 546.86,-55 546.86,-74"/>
<text text-anchor="middle" x="520.36" y="-62" font-family="Helvetica,sans-Serif" font-size="10.00">setjmp.h</text>
</a>
</g>
</g>
<!-- Node13&#45;&gt;Node14 -->
<g id="edge24" class="edge">
<title>Node13&#45;&gt;Node14</title>
<path fill="none" stroke="#63b8ff" d="M528.63,-164.66C527.2,-147.57 524.04,-109.61 522.06,-85.92"/>
<polygon fill="#63b8ff" stroke="#63b8ff" points="525.55,-85.64 521.23,-75.97 518.58,-86.22 525.55,-85.64"/>
</g>
<!-- Node15 -->
<g id="node15" class="node">
<title>Node15</title>
<g id="a_node15"><a xlink:href="ctype_8h.html" target="_top" xlink:title=" ">
<polygon fill="white" stroke="#666666" points="595.86,-129 548.86,-129 548.86,-110 595.86,-110 595.86,-129"/>
<text text-anchor="middle" x="572.36" y="-117" font-family="Helvetica,sans-Serif" font-size="10.00">ctype.h</text>
</a>
</g>
</g>
<!-- Node13&#45;&gt;Node15 -->
<g id="edge26" class="edge">
<title>Node13&#45;&gt;Node15</title>
<path fill="none" stroke="#63b8ff" d="M536.46,-164.75C542.28,-157.58 550.7,-147.2 557.92,-138.3"/>
<polygon fill="#63b8ff" stroke="#63b8ff" points="560.57,-140.59 564.15,-130.62 555.14,-136.18 560.57,-140.59"/>
</g>
<!-- Node14&#45;&gt;Node6 -->
<g id="edge25" class="edge">
<title>Node14&#45;&gt;Node6</title>
<path fill="none" stroke="#63b8ff" d="M526.8,-54.75C532.02,-47.66 539.55,-37.42 546.05,-28.59"/>
<polygon fill="#63b8ff" stroke="#63b8ff" points="548.78,-30.79 551.89,-20.66 543.14,-26.64 548.78,-30.79"/>
</g>
<!-- Node16&#45;&gt;Node2 -->
<g id="edge28" class="edge">
<title>Node16&#45;&gt;Node2</title>
<path fill="none" stroke="#63b8ff" d="M44.95,-164.75C52.21,-157.35 62.81,-146.54 71.73,-137.45"/>
<polygon fill="#63b8ff" stroke="#63b8ff" points="74.02,-140.11 78.53,-130.52 69.03,-135.21 74.02,-140.11"/>
</g>
<!-- Node16&#45;&gt;Node7 -->
<g id="edge29" class="edge">
<title>Node16&#45;&gt;Node7</title>
<path fill="none" stroke="#63b8ff" d="M59,-167.32C94.5,-157.62 163.24,-138.84 202,-128.25"/>
<polygon fill="#63b8ff" stroke="#63b8ff" points="202.81,-131.66 211.53,-125.64 200.96,-124.9 202.81,-131.66"/>
</g>
<!-- Node17 -->
<g id="node17" class="node">
<title>Node17</title>
<g id="a_node17"><a xlink:href="hdd-ioctl_8h.html" target="_top" xlink:title=" ">
<polygon fill="white" stroke="#666666" points="171.86,-74 110.86,-74 110.86,-55 171.86,-55 171.86,-74"/>
<text text-anchor="middle" x="141.36" y="-62" font-family="Helvetica,sans-Serif" font-size="10.00">hdd&#45;ioctl.h</text>
</a>
</g>
</g>
<!-- Node16&#45;&gt;Node17 -->
<g id="edge30" class="edge">
<title>Node16&#45;&gt;Node17</title>
<path fill="none" stroke="#63b8ff" d="M37.03,-164.69C38.45,-151.42 42.86,-126.13 56.36,-110 68.2,-95.85 85.7,-85.62 101.75,-78.56"/>
<polygon fill="#63b8ff" stroke="#63b8ff" points="102.68,-81.96 110.62,-74.94 100.04,-75.48 102.68,-81.96"/>
</g>
<!-- Node17&#45;&gt;Node6 -->
<g id="edge31" class="edge">
<title>Node17&#45;&gt;Node6</title>
<path fill="none" stroke="#63b8ff" d="M172.1,-59.6C245.39,-50.31 430.61,-26.82 515.56,-16.05"/>
<polygon fill="#63b8ff" stroke="#63b8ff" points="515.88,-19.54 525.36,-14.81 515,-12.6 515.88,-19.54"/>
</g>
<!-- Node18&#45;&gt;Node2 -->
<g id="edge33" class="edge">
<title>Node18&#45;&gt;Node2</title>
<path fill="none" stroke="#63b8ff" d="M96.71,-164.75C95.47,-158.19 93.73,-148.95 92.16,-140.6"/>
<polygon fill="#63b8ff" stroke="#63b8ff" points="95.62,-140.11 90.33,-130.93 88.75,-141.4 95.62,-140.11"/>
</g>
<!-- Node18&#45;&gt;Node7 -->
<g id="edge34" class="edge">
<title>Node18&#45;&gt;Node7</title>
<path fill="none" stroke="#63b8ff" d="M120.16,-164.75C142.77,-155.67 178.18,-141.45 202.73,-131.59"/>
<polygon fill="#63b8ff" stroke="#63b8ff" points="203.78,-134.94 211.76,-127.97 201.18,-128.45 203.78,-134.94"/>
</g>
<!-- Node19&#45;&gt;Node6 -->
<g id="edge36" class="edge">
<title>Node19&#45;&gt;Node6</title>
<path fill="none" stroke="#63b8ff" d="M592.76,-54.75C587.4,-47.66 579.68,-37.42 573.01,-28.59"/>
<polygon fill="#63b8ff" stroke="#63b8ff" points="575.84,-26.52 567.02,-20.65 570.25,-30.74 575.84,-26.52"/>
</g>
<!-- Node20&#45;&gt;Node6 -->
<g id="edge38" class="edge">
<title>Node20&#45;&gt;Node6</title>
<path fill="none" stroke="#63b8ff" d="M674.53,-109.68C669.87,-96.38 659.49,-71.06 643.36,-55 629.84,-41.53 611.38,-31.15 595.22,-23.82"/>
<polygon fill="#63b8ff" stroke="#63b8ff" points="596.96,-20.75 586.39,-20.03 594.2,-27.19 596.96,-20.75"/>
</g>
<!-- Node20&#45;&gt;Node19 -->
<g id="edge41" class="edge">
<title>Node20&#45;&gt;Node19</title>
<path fill="none" stroke="#63b8ff" d="M664.13,-109.51C652.52,-101.62 635.39,-89.98 621.66,-80.65"/>
<polygon fill="#63b8ff" stroke="#63b8ff" points="623.89,-77.93 613.65,-75.21 619.95,-83.72 623.89,-77.93"/>
</g>
<!-- Node21 -->
<g id="node21" class="node">
<title>Node21</title>
<g id="a_node21"><a xlink:href="aifregs_8h.html" target="_top" xlink:title=" ">
<polygon fill="white" stroke="#666666" points="743.86,-74 690.86,-74 690.86,-55 743.86,-55 743.86,-74"/>
<text text-anchor="middle" x="717.36" y="-62" font-family="Helvetica,sans-Serif" font-size="10.00">aifregs.h</text>
</a>
</g>
</g>
<!-- Node20&#45;&gt;Node21 -->
<g id="edge39" class="edge">
<title>Node20&#45;&gt;Node21</title>
<path fill="none" stroke="#63b8ff" d="M683.97,-109.75C689.32,-102.66 697.04,-92.42 703.71,-83.59"/>
<polygon fill="#63b8ff" stroke="#63b8ff" points="706.47,-85.74 709.7,-75.65 700.88,-81.52 706.47,-85.74"/>
</g>
<!-- Node21&#45;&gt;Node6 -->
<g id="edge40" class="edge">
<title>Node21&#45;&gt;Node6</title>
<path fill="none" stroke="#63b8ff" d="M690.56,-54.51C664.83,-45.88 625.74,-32.76 596.91,-23.1"/>
<polygon fill="#63b8ff" stroke="#63b8ff" points="598.06,-19.79 587.47,-19.93 595.84,-26.43 598.06,-19.79"/>
</g>
</g>
</svg>
