<?xml version="1.0" encoding="UTF-8" standalone="no"?>
<!DOCTYPE svg PUBLIC "-//W3C//DTD SVG 1.1//EN"
 "http://www.w3.org/Graphics/SVG/1.1/DTD/svg11.dtd">
<!-- Generated by graphviz version 7.0.5 (20221223.1930)
 -->
<!-- Title: iop/usb/camera/src/ps2cam.c Pages: 1 -->
<!--zoomable 313 -->
<svg id="main" version="1.1" xmlns="http://www.w3.org/2000/svg" xmlns:xlink="http://www.w3.org/1999/xlink" xml:space="preserve" onload="init(evt)">
<style type="text/css"><![CDATA[
.edge:hover path { stroke: red; }
.edge:hover polygon { stroke: red; fill: red; }
]]></style>
<script type="text/javascript"><![CDATA[
var edges = document.getElementsByTagName('g');
if (edges && edges.length) {
  for (var i=0;i<edges.length;i++) {
    if (edges[i].id.substr(0,4)=='edge') {
      edges[i].setAttribute('class','edge');
    }
  }
}
]]></script>
        <defs>
                <circle id="rim" cx="0" cy="0" r="7"/>
                <circle id="rim2" cx="0" cy="0" r="3.5"/>
                <g id="zoomPlus">
                        <use xlink:href="#rim" fill="#404040">
                                <set attributeName="fill" to="#808080" begin="zoomplus.mouseover" end="zoomplus.mouseout"/>
                        </use>
                        <path d="M-4,0h8M0,-4v8" fill="none" stroke="white" stroke-width="1.5" pointer-events="none"/>
                </g>
                <g id="zoomMin">
                        <use xlink:href="#rim" fill="#404040">
                                <set attributeName="fill" to="#808080" begin="zoomminus.mouseover" end="zoomminus.mouseout"/>
                        </use>
                        <path d="M-4,0h8" fill="none" stroke="white" stroke-width="1.5" pointer-events="none"/>
                </g>
                <g id="dirArrow">
                        <path fill="none" stroke="white" stroke-width="1.5" d="M0,-3.0v7 M-2.5,-0.5L0,-3.0L2.5,-0.5"/>
                </g>
               <g id="resetDef">
                       <use xlink:href="#rim2" fill="#404040">
                               <set attributeName="fill" to="#808080" begin="reset.mouseover" end="reset.mouseout"/>
                       </use>
               </g>
        </defs>

<script type="text/javascript">
var viewWidth = 720;
var viewHeight = 313;
var sectionId = 'dynsection-0';
</script>
<script xlink:href="svgpan.js"/>
<svg id="graph" class="graph">
<g id="viewport">
<title>iop/usb/camera/src/ps2cam.c</title>
<!-- Node1 -->
<g id="node1" class="node">
<title>Node1</title>
<g id="a_node1"><a xlink:title=" ">
<polygon fill="#999999" stroke="#666666" points="427,-305 327,-305 327,-275 427,-275 427,-305"/>
<text text-anchor="start" x="335" y="-293" font-family="Helvetica,sans-Serif" font-size="10.00">iop/usb/camera/src</text>
<text text-anchor="middle" x="377" y="-282" font-family="Helvetica,sans-Serif" font-size="10.00">/ps2cam.c</text>
</a>
</g>
</g>
<!-- Node2 -->
<g id="node2" class="node">
<title>Node2</title>
<g id="a_node2"><a xlink:href="stdio_8h.html" target="_top" xlink:title=" ">
<polygon fill="white" stroke="#666666" points="256.5,-184 211.5,-184 211.5,-165 256.5,-165 256.5,-184"/>
<text text-anchor="middle" x="234" y="-172" font-family="Helvetica,sans-Serif" font-size="10.00">stdio.h</text>
</a>
</g>
</g>
<!-- Node1&#45;&gt;Node2 -->
<g id="edge1" class="edge">
<title>Node1&#45;&gt;Node2</title>
<path fill="none" stroke="#63b8ff" d="M326.72,-287.72C290.62,-283.84 244.23,-272.14 220,-239 210.43,-225.91 216,-207.53 222.74,-193.9"/>
<polygon fill="#63b8ff" stroke="#63b8ff" points="225.6,-195.96 227.39,-185.52 219.48,-192.56 225.6,-195.96"/>
</g>
<!-- Node7 -->
<g id="node7" class="node">
<title>Node7</title>
<g id="a_node7"><a xlink:href="tamtypes_8h.html" target="_top" xlink:title=" ">
<polygon fill="white" stroke="#666666" points="87,-19 23,-19 23,0 87,0 87,-19"/>
<text text-anchor="middle" x="55" y="-7" font-family="Helvetica,sans-Serif" font-size="10.00">tamtypes.h</text>
</a>
</g>
</g>
<!-- Node1&#45;&gt;Node7 -->
<g id="edge14" class="edge">
<title>Node1&#45;&gt;Node7</title>
<path fill="none" stroke="#63b8ff" d="M326.55,-284.46C223.82,-273.82 0,-242.91 0,-175.5 0,-175.5 0,-175.5 0,-118.5 0,-89.04 5.25,-81.05 19,-55 24.14,-45.25 31.59,-35.6 38.37,-27.79"/>
<polygon fill="#63b8ff" stroke="#63b8ff" points="40.95,-30.15 45.1,-20.41 35.78,-25.44 40.95,-30.15"/>
</g>
<!-- Node8 -->
<g id="node8" class="node">
<title>Node8</title>
<g id="a_node8"><a xlink:href="sysclib_8h.html" target="_top" xlink:title=" ">
<polygon fill="white" stroke="#666666" points="114,-184 60,-184 60,-165 114,-165 114,-184"/>
<text text-anchor="middle" x="87" y="-172" font-family="Helvetica,sans-Serif" font-size="10.00">sysclib.h</text>
</a>
</g>
</g>
<!-- Node1&#45;&gt;Node8 -->
<g id="edge7" class="edge">
<title>Node1&#45;&gt;Node8</title>
<path fill="none" stroke="#63b8ff" d="M326.67,-280.01C287.78,-272.05 233.14,-258.62 188,-239 158.4,-226.14 127.41,-205.4 107.69,-191.15"/>
<polygon fill="#63b8ff" stroke="#63b8ff" points="109.82,-188.37 99.69,-185.26 105.67,-194.01 109.82,-188.37"/>
</g>
<!-- Node11 -->
<g id="node11" class="node">
<title>Node11</title>
<g id="a_node11"><a xlink:href="thbase_8h.html" target="_top" xlink:title=" ">
<polygon fill="white" stroke="#666666" points="327.5,-184 274.5,-184 274.5,-165 327.5,-165 327.5,-184"/>
<text text-anchor="middle" x="301" y="-172" font-family="Helvetica,sans-Serif" font-size="10.00">thbase.h</text>
</a>
</g>
</g>
<!-- Node1&#45;&gt;Node11 -->
<g id="edge15" class="edge">
<title>Node1&#45;&gt;Node11</title>
<path fill="none" stroke="#63b8ff" d="M375.71,-274.7C373.81,-259.93 369.17,-236.74 358,-220 350.16,-208.25 338.19,-198.23 327.25,-190.69"/>
<polygon fill="#63b8ff" stroke="#63b8ff" points="329.2,-187.78 318.9,-185.3 325.41,-193.66 329.2,-187.78"/>
</g>
<!-- Node12 -->
<g id="node12" class="node">
<title>Node12</title>
<g id="a_node12"><a xlink:title=" ">
<polygon fill="#e0e0e0" stroke="#999999" points="282.5,-239 229.5,-239 229.5,-220 282.5,-220 282.5,-239"/>
<text text-anchor="middle" x="256" y="-227" font-family="Helvetica,sans-Serif" font-size="10.00">sifcmd.h</text>
</a>
</g>
</g>
<!-- Node1&#45;&gt;Node12 -->
<g id="edge18" class="edge">
<title>Node1&#45;&gt;Node12</title>
<path fill="none" stroke="#63b8ff" d="M347.09,-274.54C328.02,-265.32 303.44,-253.44 284.63,-244.34"/>
<polygon fill="#63b8ff" stroke="#63b8ff" points="286.19,-241.21 275.66,-240 283.14,-247.51 286.19,-241.21"/>
</g>
<!-- Node13 -->
<g id="node13" class="node">
<title>Node13</title>
<g id="a_node13"><a xlink:title=" ">
<polygon fill="#e0e0e0" stroke="#999999" points="349,-239 301,-239 301,-220 349,-220 349,-239"/>
<text text-anchor="middle" x="325" y="-227" font-family="Helvetica,sans-Serif" font-size="10.00">sifrpc.h</text>
</a>
</g>
</g>
<!-- Node1&#45;&gt;Node13 -->
<g id="edge19" class="edge">
<title>Node1&#45;&gt;Node13</title>
<path fill="none" stroke="#63b8ff" d="M364.15,-274.54C356.9,-266.39 347.81,-256.16 340.21,-247.61"/>
<polygon fill="#63b8ff" stroke="#63b8ff" points="342.98,-245.46 333.72,-240.31 337.74,-250.11 342.98,-245.46"/>
</g>
<!-- Node14 -->
<g id="node14" class="node">
<title>Node14</title>
<g id="a_node14"><a xlink:href="loadcore_8h.html" target="_top" xlink:title=" ">
<polygon fill="white" stroke="#666666" points="406.5,-184 345.5,-184 345.5,-165 406.5,-165 406.5,-184"/>
<text text-anchor="middle" x="376" y="-172" font-family="Helvetica,sans-Serif" font-size="10.00">loadcore.h</text>
</a>
</g>
</g>
<!-- Node1&#45;&gt;Node14 -->
<g id="edge20" class="edge">
<title>Node1&#45;&gt;Node14</title>
<path fill="none" stroke="#63b8ff" d="M383.06,-274.52C388.14,-260.6 394.11,-238.94 391,-220 389.63,-211.66 386.91,-202.77 384.16,-195.15"/>
<polygon fill="#63b8ff" stroke="#63b8ff" points="387.44,-193.94 380.55,-185.89 380.92,-196.48 387.44,-193.94"/>
</g>
<!-- Node15 -->
<g id="node15" class="node">
<title>Node15</title>
<g id="a_node15"><a xlink:href="ioman_8h.html" target="_top" xlink:title=" ">
<polygon fill="white" stroke="#666666" points="555,-184 505,-184 505,-165 555,-165 555,-184"/>
<text text-anchor="middle" x="530" y="-172" font-family="Helvetica,sans-Serif" font-size="10.00">ioman.h</text>
</a>
</g>
</g>
<!-- Node1&#45;&gt;Node15 -->
<g id="edge23" class="edge">
<title>Node1&#45;&gt;Node15</title>
<path fill="none" stroke="#63b8ff" d="M396.38,-274.63C425.28,-253.19 479.44,-213.01 509.16,-190.96"/>
<polygon fill="#63b8ff" stroke="#63b8ff" points="511.07,-193.9 517.02,-185.13 506.9,-188.28 511.07,-193.9"/>
</g>
<!-- Node19 -->
<g id="node19" class="node">
<title>Node19</title>
<g id="a_node19"><a xlink:href="usbd_8h.html" target="_top" xlink:title=" ">
<polygon fill="white" stroke="#666666" points="618.5,-184 573.5,-184 573.5,-165 618.5,-165 618.5,-184"/>
<text text-anchor="middle" x="596" y="-172" font-family="Helvetica,sans-Serif" font-size="10.00">usbd.h</text>
</a>
</g>
</g>
<!-- Node1&#45;&gt;Node19 -->
<g id="edge29" class="edge">
<title>Node1&#45;&gt;Node19</title>
<path fill="none" stroke="#63b8ff" d="M404.74,-274.63C446.98,-252.73 526.95,-211.28 568.85,-189.57"/>
<polygon fill="#63b8ff" stroke="#63b8ff" points="570.26,-192.78 577.53,-185.07 567.04,-186.57 570.26,-192.78"/>
</g>
<!-- Node21 -->
<g id="node21" class="node">
<title>Node21</title>
<g id="a_node21"><a xlink:href="usbd__macro_8h.html" target="_top" xlink:title=" ">
<polygon fill="white" stroke="#666666" points="634.5,-239 557.5,-239 557.5,-220 634.5,-220 634.5,-239"/>
<text text-anchor="middle" x="596" y="-227" font-family="Helvetica,sans-Serif" font-size="10.00">usbd_macro.h</text>
</a>
</g>
</g>
<!-- Node1&#45;&gt;Node21 -->
<g id="edge32" class="edge">
<title>Node1&#45;&gt;Node21</title>
<path fill="none" stroke="#63b8ff" d="M427.24,-275.58C464.78,-265.55 515.61,-251.97 551.65,-242.35"/>
<polygon fill="#63b8ff" stroke="#63b8ff" points="552.11,-245.85 560.87,-239.89 550.3,-239.08 552.11,-245.85"/>
</g>
<!-- Node22 -->
<g id="node22" class="node">
<title>Node22</title>
<g id="a_node22"><a xlink:href="thsemap_8h.html" target="_top" xlink:title=" ">
<polygon fill="white" stroke="#666666" points="487,-184 425,-184 425,-165 487,-165 487,-184"/>
<text text-anchor="middle" x="456" y="-172" font-family="Helvetica,sans-Serif" font-size="10.00">thsemap.h</text>
</a>
</g>
</g>
<!-- Node1&#45;&gt;Node22 -->
<g id="edge34" class="edge">
<title>Node1&#45;&gt;Node22</title>
<path fill="none" stroke="#63b8ff" d="M387.01,-274.63C401.34,-254.03 427.72,-216.12 443.38,-193.63"/>
<polygon fill="#63b8ff" stroke="#63b8ff" points="446.22,-195.68 449.06,-185.47 440.47,-191.68 446.22,-195.68"/>
</g>
<!-- Node23 -->
<g id="node23" class="node">
<title>Node23</title>
<g id="a_node23"><a xlink:href="sysmem_8h.html" target="_top" xlink:title=" ">
<polygon fill="white" stroke="#666666" points="193.5,-184 132.5,-184 132.5,-165 193.5,-165 193.5,-184"/>
<text text-anchor="middle" x="163" y="-172" font-family="Helvetica,sans-Serif" font-size="10.00">sysmem.h</text>
</a>
</g>
</g>
<!-- Node1&#45;&gt;Node23 -->
<g id="edge37" class="edge">
<title>Node1&#45;&gt;Node23</title>
<path fill="none" stroke="#63b8ff" d="M326.57,-282.26C291.66,-275.68 245.46,-262.99 211,-239 194.37,-227.42 181.04,-208.28 172.69,-194.03"/>
<polygon fill="#63b8ff" stroke="#63b8ff" points="175.94,-192.67 168.04,-185.62 169.82,-196.06 175.94,-192.67"/>
</g>
<!-- Node24 -->
<g id="node24" class="node">
<title>Node24</title>
<g id="a_node24"><a xlink:href="ps2cam_8h.html" target="_top" xlink:title=" ">
<polygon fill="white" stroke="#666666" points="711.5,-239 652.5,-239 652.5,-220 711.5,-220 711.5,-239"/>
<text text-anchor="middle" x="682" y="-227" font-family="Helvetica,sans-Serif" font-size="10.00">ps2cam.h</text>
</a>
</g>
</g>
<!-- Node1&#45;&gt;Node24 -->
<g id="edge41" class="edge">
<title>Node1&#45;&gt;Node24</title>
<path fill="none" stroke="#63b8ff" d="M427.3,-280.12C478.63,-270.94 560.89,-255.9 640.88,-239.59"/>
<polygon fill="#63b8ff" stroke="#63b8ff" points="641.57,-243.02 650.67,-237.58 640.17,-236.16 641.57,-243.02"/>
</g>
<!-- Node3 -->
<g id="node3" class="node">
<title>Node3</title>
<g id="a_node3"><a xlink:title=" ">
<polygon fill="#e0e0e0" stroke="#999999" points="221.5,-129 170.5,-129 170.5,-110 221.5,-110 221.5,-129"/>
<text text-anchor="middle" x="196" y="-117" font-family="Helvetica,sans-Serif" font-size="10.00">stdarg.h</text>
</a>
</g>
</g>
<!-- Node2&#45;&gt;Node3 -->
<g id="edge2" class="edge">
<title>Node2&#45;&gt;Node3</title>
<path fill="none" stroke="#63b8ff" d="M227.73,-164.75C222.64,-157.66 215.3,-147.42 208.97,-138.59"/>
<polygon fill="#63b8ff" stroke="#63b8ff" points="211.96,-136.76 203.29,-130.67 206.28,-140.84 211.96,-136.76"/>
</g>
<!-- Node4 -->
<g id="node4" class="node">
<title>Node4</title>
<g id="a_node4"><a xlink:href="irx_8h.html" target="_top" xlink:title=" ">
<polygon fill="white" stroke="#666666" points="350,-129 316,-129 316,-110 350,-110 350,-129"/>
<text text-anchor="middle" x="333" y="-117" font-family="Helvetica,sans-Serif" font-size="10.00">irx.h</text>
</a>
</g>
</g>
<!-- Node2&#45;&gt;Node4 -->
<g id="edge3" class="edge">
<title>Node2&#45;&gt;Node4</title>
<path fill="none" stroke="#63b8ff" d="M250.79,-164.51C266.1,-156.31 288.97,-144.07 306.7,-134.58"/>
<polygon fill="#63b8ff" stroke="#63b8ff" points="307.96,-137.88 315.12,-130.07 304.65,-131.71 307.96,-137.88"/>
</g>
<!-- Node5 -->
<g id="node5" class="node">
<title>Node5</title>
<g id="a_node5"><a xlink:href="iop_2kernel_2include_2types_8h_source.html" target="_top" xlink:title=" ">
<polygon fill="white" stroke="#666666" points="333.5,-74 286.5,-74 286.5,-55 333.5,-55 333.5,-74"/>
<text text-anchor="middle" x="310" y="-62" font-family="Helvetica,sans-Serif" font-size="10.00">types.h</text>
</a>
</g>
</g>
<!-- Node4&#45;&gt;Node5 -->
<g id="edge4" class="edge">
<title>Node4&#45;&gt;Node5</title>
<path fill="none" stroke="#63b8ff" d="M329.2,-109.75C326.26,-102.96 322.06,-93.3 318.35,-84.73"/>
<polygon fill="#63b8ff" stroke="#63b8ff" points="321.67,-83.61 314.48,-75.83 315.25,-86.4 321.67,-83.61"/>
</g>
<!-- Node6 -->
<g id="node6" class="node">
<title>Node6</title>
<g id="a_node6"><a xlink:title=" ">
<polygon fill="#e0e0e0" stroke="#999999" points="335.5,-19 284.5,-19 284.5,0 335.5,0 335.5,-19"/>
<text text-anchor="middle" x="310" y="-7" font-family="Helvetica,sans-Serif" font-size="10.00">stddef.h</text>
</a>
</g>
</g>
<!-- Node5&#45;&gt;Node6 -->
<g id="edge5" class="edge">
<title>Node5&#45;&gt;Node6</title>
<path fill="none" stroke="#63b8ff" d="M310,-54.75C310,-48.27 310,-39.16 310,-30.9"/>
<polygon fill="#63b8ff" stroke="#63b8ff" points="313.5,-30.96 310,-20.96 306.5,-30.96 313.5,-30.96"/>
</g>
<!-- Node5&#45;&gt;Node7 -->
<g id="edge6" class="edge">
<title>Node5&#45;&gt;Node7</title>
<path fill="none" stroke="#63b8ff" d="M286.01,-58.51C243.07,-49.59 152.51,-30.77 98.41,-19.52"/>
<polygon fill="#63b8ff" stroke="#63b8ff" points="99.43,-16.16 88.93,-17.55 98,-23.01 99.43,-16.16"/>
</g>
<!-- Node8&#45;&gt;Node3 -->
<g id="edge10" class="edge">
<title>Node8&#45;&gt;Node3</title>
<path fill="none" stroke="#63b8ff" d="M105.49,-164.51C122.5,-156.24 147.99,-143.84 167.59,-134.31"/>
<polygon fill="#63b8ff" stroke="#63b8ff" points="168.96,-137.54 176.42,-130.02 165.9,-131.25 168.96,-137.54"/>
</g>
<!-- Node8&#45;&gt;Node4 -->
<g id="edge9" class="edge">
<title>Node8&#45;&gt;Node4</title>
<path fill="none" stroke="#63b8ff" d="M114.11,-167.03C117.11,-166.33 120.12,-165.65 123,-165 187.74,-150.5 263.98,-134.65 304.43,-126.34"/>
<polygon fill="#63b8ff" stroke="#63b8ff" points="304.97,-129.8 314.06,-124.36 303.56,-122.94 304.97,-129.8"/>
</g>
<!-- Node8&#45;&gt;Node5 -->
<g id="edge8" class="edge">
<title>Node8&#45;&gt;Node5</title>
<path fill="none" stroke="#63b8ff" d="M94.78,-164.8C107.39,-151.2 133.66,-124.93 161,-110 197.35,-90.16 243.64,-78.12 274.9,-71.65"/>
<polygon fill="#63b8ff" stroke="#63b8ff" points="275.48,-75.11 284.61,-69.74 274.12,-68.24 275.48,-75.11"/>
</g>
<!-- Node9 -->
<g id="node9" class="node">
<title>Node9</title>
<g id="a_node9"><a xlink:href="setjmp_8h.html" target="_top" xlink:title=" ">
<polygon fill="white" stroke="#666666" points="81.5,-74 28.5,-74 28.5,-55 81.5,-55 81.5,-74"/>
<text text-anchor="middle" x="55" y="-62" font-family="Helvetica,sans-Serif" font-size="10.00">setjmp.h</text>
</a>
</g>
</g>
<!-- Node8&#45;&gt;Node9 -->
<g id="edge11" class="edge">
<title>Node8&#45;&gt;Node9</title>
<path fill="none" stroke="#63b8ff" d="M78.89,-164.77C71.63,-156.33 61.47,-142.83 57,-129 52.48,-114.99 52.13,-98.32 52.83,-85.58"/>
<polygon fill="#63b8ff" stroke="#63b8ff" points="56.29,-86.15 53.64,-75.9 49.32,-85.57 56.29,-86.15"/>
</g>
<!-- Node10 -->
<g id="node10" class="node">
<title>Node10</title>
<g id="a_node10"><a xlink:href="ctype_8h.html" target="_top" xlink:title=" ">
<polygon fill="white" stroke="#666666" points="113.5,-129 66.5,-129 66.5,-110 113.5,-110 113.5,-129"/>
<text text-anchor="middle" x="90" y="-117" font-family="Helvetica,sans-Serif" font-size="10.00">ctype.h</text>
</a>
</g>
</g>
<!-- Node8&#45;&gt;Node10 -->
<g id="edge13" class="edge">
<title>Node8&#45;&gt;Node10</title>
<path fill="none" stroke="#63b8ff" d="M87.5,-164.75C87.86,-158.27 88.38,-149.16 88.85,-140.9"/>
<polygon fill="#63b8ff" stroke="#63b8ff" points="92.34,-141.13 89.41,-130.95 85.35,-140.74 92.34,-141.13"/>
</g>
<!-- Node9&#45;&gt;Node7 -->
<g id="edge12" class="edge">
<title>Node9&#45;&gt;Node7</title>
<path fill="none" stroke="#63b8ff" d="M55,-54.75C55,-48.27 55,-39.16 55,-30.9"/>
<polygon fill="#63b8ff" stroke="#63b8ff" points="58.5,-30.96 55,-20.96 51.5,-30.96 58.5,-30.96"/>
</g>
<!-- Node11&#45;&gt;Node4 -->
<g id="edge17" class="edge">
<title>Node11&#45;&gt;Node4</title>
<path fill="none" stroke="#63b8ff" d="M306.28,-164.75C310.47,-157.81 316.48,-147.86 321.73,-139.16"/>
<polygon fill="#63b8ff" stroke="#63b8ff" points="324.65,-141.11 326.82,-130.74 318.65,-137.49 324.65,-141.11"/>
</g>
<!-- Node11&#45;&gt;Node5 -->
<g id="edge16" class="edge">
<title>Node11&#45;&gt;Node5</title>
<path fill="none" stroke="#63b8ff" d="M301.74,-164.66C303.16,-147.57 306.32,-109.61 308.3,-85.92"/>
<polygon fill="#63b8ff" stroke="#63b8ff" points="311.78,-86.22 309.13,-75.97 304.81,-85.64 311.78,-86.22"/>
</g>
<!-- Node14&#45;&gt;Node4 -->
<g id="edge22" class="edge">
<title>Node14&#45;&gt;Node4</title>
<path fill="none" stroke="#63b8ff" d="M368.9,-164.75C363.08,-157.58 354.67,-147.2 347.44,-138.3"/>
<polygon fill="#63b8ff" stroke="#63b8ff" points="350.23,-136.18 341.21,-130.62 344.79,-140.59 350.23,-136.18"/>
</g>
<!-- Node14&#45;&gt;Node5 -->
<g id="edge21" class="edge">
<title>Node14&#45;&gt;Node5</title>
<path fill="none" stroke="#63b8ff" d="M375.22,-164.67C373.75,-151.81 369.69,-127.54 359,-110 352.18,-98.81 341.72,-88.77 332.21,-81.06"/>
<polygon fill="#63b8ff" stroke="#63b8ff" points="334.47,-78.38 324.39,-75.1 330.22,-83.95 334.47,-78.38"/>
</g>
<!-- Node15&#45;&gt;Node4 -->
<g id="edge25" class="edge">
<title>Node15&#45;&gt;Node4</title>
<path fill="none" stroke="#63b8ff" d="M504.65,-166.68C467.83,-156.77 399.76,-138.46 361.33,-128.12"/>
<polygon fill="#63b8ff" stroke="#63b8ff" points="362.45,-124.8 351.88,-125.58 360.63,-131.56 362.45,-124.8"/>
</g>
<!-- Node15&#45;&gt;Node5 -->
<g id="edge24" class="edge">
<title>Node15&#45;&gt;Node5</title>
<path fill="none" stroke="#63b8ff" d="M513.1,-164.7C489.16,-152.28 443.94,-129 405,-110 383.25,-99.38 358.47,-87.79 339.68,-79.11"/>
<polygon fill="#63b8ff" stroke="#63b8ff" points="341.29,-76 330.75,-74.99 338.36,-82.35 341.29,-76"/>
</g>
<!-- Node16 -->
<g id="node16" class="node">
<title>Node16</title>
<g id="a_node16"><a xlink:href="io__common_8h.html" target="_top" xlink:title=" ">
<polygon fill="white" stroke="#666666" points="567,-129 493,-129 493,-110 567,-110 567,-129"/>
<text text-anchor="middle" x="530" y="-117" font-family="Helvetica,sans-Serif" font-size="10.00">io_common.h</text>
</a>
</g>
</g>
<!-- Node15&#45;&gt;Node16 -->
<g id="edge26" class="edge">
<title>Node15&#45;&gt;Node16</title>
<path fill="none" stroke="#63b8ff" d="M530,-164.75C530,-158.27 530,-149.16 530,-140.9"/>
<polygon fill="#63b8ff" stroke="#63b8ff" points="533.5,-140.96 530,-130.96 526.5,-140.96 533.5,-140.96"/>
</g>
<!-- Node17 -->
<g id="node17" class="node">
<title>Node17</title>
<g id="a_node17"><a xlink:href="fcntl_8h_source.html" target="_top" xlink:title=" ">
<polygon fill="white" stroke="#666666" points="601.5,-74 540.5,-74 540.5,-55 601.5,-55 601.5,-74"/>
<text text-anchor="middle" x="571" y="-62" font-family="Helvetica,sans-Serif" font-size="10.00">sys/fcntl.h</text>
</a>
</g>
</g>
<!-- Node16&#45;&gt;Node17 -->
<g id="edge27" class="edge">
<title>Node16&#45;&gt;Node17</title>
<path fill="none" stroke="#63b8ff" d="M536.77,-109.75C542.32,-102.58 550.34,-92.2 557.23,-83.3"/>
<polygon fill="#63b8ff" stroke="#63b8ff" points="559.81,-85.69 563.16,-75.64 554.27,-81.41 559.81,-85.69"/>
</g>
<!-- Node18 -->
<g id="node18" class="node">
<title>Node18</title>
<g id="a_node18"><a xlink:href="unistd_8h_source.html" target="_top" xlink:title=" ">
<polygon fill="white" stroke="#666666" points="522,-74 454,-74 454,-55 522,-55 522,-74"/>
<text text-anchor="middle" x="488" y="-62" font-family="Helvetica,sans-Serif" font-size="10.00">sys/unistd.h</text>
</a>
</g>
</g>
<!-- Node16&#45;&gt;Node18 -->
<g id="edge28" class="edge">
<title>Node16&#45;&gt;Node18</title>
<path fill="none" stroke="#63b8ff" d="M523.06,-109.75C517.38,-102.58 509.16,-92.2 502.11,-83.3"/>
<polygon fill="#63b8ff" stroke="#63b8ff" points="504.98,-81.29 496.03,-75.63 499.49,-85.64 504.98,-81.29"/>
</g>
<!-- Node19&#45;&gt;Node4 -->
<g id="edge31" class="edge">
<title>Node19&#45;&gt;Node4</title>
<path fill="none" stroke="#63b8ff" d="M573.32,-167.27C570.2,-166.47 567.03,-165.69 564,-165 491.58,-148.43 405.45,-132.94 361.66,-125.36"/>
<polygon fill="#63b8ff" stroke="#63b8ff" points="362.41,-121.94 351.96,-123.7 361.23,-128.84 362.41,-121.94"/>
</g>
<!-- Node20 -->
<g id="node20" class="node">
<title>Node20</title>
<g id="a_node20"><a xlink:title=" ">
<polygon fill="#e0e0e0" stroke="#999999" points="668.5,-129 621.5,-129 621.5,-110 668.5,-110 668.5,-129"/>
<text text-anchor="middle" x="645" y="-117" font-family="Helvetica,sans-Serif" font-size="10.00">types.h</text>
</a>
</g>
</g>
<!-- Node19&#45;&gt;Node20 -->
<g id="edge30" class="edge">
<title>Node19&#45;&gt;Node20</title>
<path fill="none" stroke="#63b8ff" d="M604.09,-164.75C610.86,-157.43 620.72,-146.76 629.06,-137.74"/>
<polygon fill="#63b8ff" stroke="#63b8ff" points="631.49,-140.27 635.71,-130.55 626.35,-135.52 631.49,-140.27"/>
</g>
<!-- Node21&#45;&gt;Node19 -->
<g id="edge33" class="edge">
<title>Node21&#45;&gt;Node19</title>
<path fill="none" stroke="#63b8ff" d="M596,-219.75C596,-213.27 596,-204.16 596,-195.9"/>
<polygon fill="#63b8ff" stroke="#63b8ff" points="599.5,-195.96 596,-185.96 592.5,-195.96 599.5,-195.96"/>
</g>
<!-- Node22&#45;&gt;Node4 -->
<g id="edge36" class="edge">
<title>Node22&#45;&gt;Node4</title>
<path fill="none" stroke="#63b8ff" d="M435.13,-164.51C414.64,-155.68 383.24,-142.15 360.67,-132.42"/>
<polygon fill="#63b8ff" stroke="#63b8ff" points="362.34,-129.33 351.77,-128.59 359.57,-135.76 362.34,-129.33"/>
</g>
<!-- Node22&#45;&gt;Node5 -->
<g id="edge35" class="edge">
<title>Node22&#45;&gt;Node5</title>
<path fill="none" stroke="#63b8ff" d="M445.68,-164.52C431,-151.88 403.09,-128.35 378,-110 363.89,-99.68 347.51,-88.93 334.37,-80.58"/>
<polygon fill="#63b8ff" stroke="#63b8ff" points="336.23,-77.62 325.9,-75.26 332.5,-83.54 336.23,-77.62"/>
</g>
<!-- Node23&#45;&gt;Node3 -->
<g id="edge40" class="edge">
<title>Node23&#45;&gt;Node3</title>
<path fill="none" stroke="#63b8ff" d="M168.45,-164.75C172.77,-157.81 178.96,-147.86 184.38,-139.16"/>
<polygon fill="#63b8ff" stroke="#63b8ff" points="187.32,-141.07 189.63,-130.73 181.38,-137.37 187.32,-141.07"/>
</g>
<!-- Node23&#45;&gt;Node4 -->
<g id="edge39" class="edge">
<title>Node23&#45;&gt;Node4</title>
<path fill="none" stroke="#63b8ff" d="M191.84,-164.51C223.42,-154.66 273.73,-138.98 304.98,-129.23"/>
<polygon fill="#63b8ff" stroke="#63b8ff" points="306,-132.58 314.51,-126.27 303.92,-125.9 306,-132.58"/>
</g>
<!-- Node23&#45;&gt;Node5 -->
<g id="edge38" class="edge">
<title>Node23&#45;&gt;Node5</title>
<path fill="none" stroke="#63b8ff" d="M177.09,-164.63C190.82,-155.88 212.15,-141.97 230,-129 251.34,-113.49 274.9,-94.55 290.89,-81.42"/>
<polygon fill="#63b8ff" stroke="#63b8ff" points="292.71,-84.46 298.19,-75.39 288.25,-79.06 292.71,-84.46"/>
</g>
<!-- Node24&#45;&gt;Node20 -->
<g id="edge42" class="edge">
<title>Node24&#45;&gt;Node20</title>
<path fill="none" stroke="#63b8ff" d="M678.97,-219.66C673.06,-202.42 659.87,-163.9 651.77,-140.27"/>
<polygon fill="#63b8ff" stroke="#63b8ff" points="655.11,-139.22 648.56,-130.89 648.49,-141.49 655.11,-139.22"/>
</g>
</g>
</svg>
        <g id="navigator" transform="translate(0 0)" fill="#404254">
                <rect fill="#f2f5e9" fill-opacity="0.5" stroke="#606060" stroke-width=".5" x="0" y="0" width="60" height="60"/>
                <use id="zoomplus" xlink:href="#zoomPlus" x="17" y="9" onmousedown="handleZoom(evt,'in')"/>
                <use id="zoomminus" xlink:href="#zoomMin" x="42" y="9" onmousedown="handleZoom(evt,'out')"/>
                <use id="reset" xlink:href="#resetDef" x="30" y="36" onmousedown="handleReset()"/>
                <g id="arrowUp" xlink:href="#dirArrow" transform="translate(30 24)" onmousedown="handlePan(0,-1)">
                  <use xlink:href="#rim" fill="#404040">
                        <set attributeName="fill" to="#808080" begin="arrowUp.mouseover" end="arrowUp.mouseout"/>
                  </use>
                  <path fill="none" stroke="white" stroke-width="1.5" d="M0,-3.0v7 M-2.5,-0.5L0,-3.0L2.5,-0.5"/>
                </g>
                <g id="arrowRight" xlink:href="#dirArrow" transform="rotate(90) translate(36 -43)" onmousedown="handlePan(1,0)">
                  <use xlink:href="#rim" fill="#404040">
                        <set attributeName="fill" to="#808080" begin="arrowRight.mouseover" end="arrowRight.mouseout"/>
                  </use>
                  <path fill="none" stroke="white" stroke-width="1.5" d="M0,-3.0v7 M-2.5,-0.5L0,-3.0L2.5,-0.5"/>
                </g>
                <g id="arrowDown" xlink:href="#dirArrow" transform="rotate(180) translate(-30 -48)" onmousedown="handlePan(0,1)">
                  <use xlink:href="#rim" fill="#404040">
                        <set attributeName="fill" to="#808080" begin="arrowDown.mouseover" end="arrowDown.mouseout"/>
                  </use>
                  <path fill="none" stroke="white" stroke-width="1.5" d="M0,-3.0v7 M-2.5,-0.5L0,-3.0L2.5,-0.5"/>
                </g>
                <g id="arrowLeft" xlink:href="#dirArrow" transform="rotate(270) translate(-36 17)" onmousedown="handlePan(-1,0)">
                  <use xlink:href="#rim" fill="#404040">
                        <set attributeName="fill" to="#808080" begin="arrowLeft.mouseover" end="arrowLeft.mouseout"/>
                  </use>
                  <path fill="none" stroke="white" stroke-width="1.5" d="M0,-3.0v7 M-2.5,-0.5L0,-3.0L2.5,-0.5"/>
                </g>
        </g>
        <svg viewBox="0 0 15 15" width="100%" height="30px" preserveAspectRatio="xMaxYMin meet">
         <g id="arrow_out" transform="scale(0.3 0.3)">
          <a xlink:href="ps2cam_8c__incl_org.svg" target="_base">
           <rect id="button" ry="5" rx="5" y="6" x="6" height="38" width="38"
                fill="#f2f5e9" fill-opacity="0.5" stroke="#606060" stroke-width="1.0"/>
           <path id="arrow"
             d="M 11.500037,31.436501 C 11.940474,20.09759 22.043105,11.32322 32.158766,21.979434 L 37.068811,17.246167 C 37.068811,17.246167 37.088388,32 37.088388,32 L 22.160133,31.978069 C 22.160133,31.978069 26.997745,27.140456 26.997745,27.140456 C 18.528582,18.264221 13.291696,25.230495 11.500037,31.436501 z"
             style="fill:#404040;"/>
          </a>
         </g>
        </svg>
</svg>
