<?xml version="1.0" encoding="UTF-8" standalone="no"?>
<!DOCTYPE svg PUBLIC "-//W3C//DTD SVG 1.1//EN"
 "http://www.w3.org/Graphics/SVG/1.1/DTD/svg11.dtd">
<!-- Generated by graphviz version 7.0.5 (20221223.1930)
 -->
<!-- Title: iop/tcpip/tcpips/src/ps2ips.c Pages: 1 -->
<svg width="676pt" height="258pt"
 viewBox="0.00 0.00 676.00 258.00" xmlns="http://www.w3.org/2000/svg" xmlns:xlink="http://www.w3.org/1999/xlink">
<g id="graph0" class="graph" transform="scale(1 1) rotate(0) translate(4 254)">
<title>iop/tcpip/tcpips/src/ps2ips.c</title>
<!-- Node1 -->
<g id="node1" class="node">
<title>Node1</title>
<g id="a_node1"><a xlink:title=" ">
<polygon fill="#999999" stroke="#666666" points="397,-250 298,-250 298,-220 397,-220 397,-250"/>
<text text-anchor="start" x="306" y="-238" font-family="Helvetica,sans-Serif" font-size="10.00">iop/tcpip/tcpips/src</text>
<text text-anchor="middle" x="347.5" y="-227" font-family="Helvetica,sans-Serif" font-size="10.00">/ps2ips.c</text>
</a>
</g>
</g>
<!-- Node2 -->
<g id="node2" class="node">
<title>Node2</title>
<g id="a_node2"><a xlink:title=" ">
<polygon fill="#e0e0e0" stroke="#999999" points="47,-184 0,-184 0,-165 47,-165 47,-184"/>
<text text-anchor="middle" x="23.5" y="-172" font-family="Helvetica,sans-Serif" font-size="10.00">types.h</text>
</a>
</g>
</g>
<!-- Node1&#45;&gt;Node2 -->
<g id="edge1" class="edge">
<title>Node1&#45;&gt;Node2</title>
<path fill="none" stroke="#63b8ff" d="M297.64,-226.86C241.63,-218.53 147.82,-203.65 58.37,-184.47"/>
<polygon fill="#63b8ff" stroke="#63b8ff" points="59.2,-181.07 48.69,-182.37 57.72,-187.91 59.2,-181.07"/>
</g>
<!-- Node3 -->
<g id="node3" class="node">
<title>Node3</title>
<g id="a_node3"><a xlink:href="loadcore_8h.html" target="_top" xlink:title=" ">
<polygon fill="white" stroke="#666666" points="343,-184 282,-184 282,-165 343,-165 343,-184"/>
<text text-anchor="middle" x="312.5" y="-172" font-family="Helvetica,sans-Serif" font-size="10.00">loadcore.h</text>
</a>
</g>
</g>
<!-- Node1&#45;&gt;Node3 -->
<g id="edge2" class="edge">
<title>Node1&#45;&gt;Node3</title>
<path fill="none" stroke="#63b8ff" d="M338.85,-219.54C334.23,-211.82 328.5,-202.24 323.56,-193.99"/>
<polygon fill="#63b8ff" stroke="#63b8ff" points="326.61,-192.26 318.47,-185.47 320.6,-195.85 326.61,-192.26"/>
</g>
<!-- Node8 -->
<g id="node8" class="node">
<title>Node8</title>
<g id="a_node8"><a xlink:href="stdio_8h.html" target="_top" xlink:title=" ">
<polygon fill="white" stroke="#666666" points="406,-184 361,-184 361,-165 406,-165 406,-184"/>
<text text-anchor="middle" x="383.5" y="-172" font-family="Helvetica,sans-Serif" font-size="10.00">stdio.h</text>
</a>
</g>
</g>
<!-- Node1&#45;&gt;Node8 -->
<g id="edge8" class="edge">
<title>Node1&#45;&gt;Node8</title>
<path fill="none" stroke="#63b8ff" d="M356.4,-219.54C361.2,-211.74 367.18,-202.03 372.29,-193.71"/>
<polygon fill="#63b8ff" stroke="#63b8ff" points="375.11,-195.82 377.37,-185.46 369.15,-192.15 375.11,-195.82"/>
</g>
<!-- Node10 -->
<g id="node10" class="node">
<title>Node10</title>
<g id="a_node10"><a xlink:href="sifman_8h.html" target="_top" xlink:title=" ">
<polygon fill="white" stroke="#666666" points="118,-184 65,-184 65,-165 118,-165 118,-184"/>
<text text-anchor="middle" x="91.5" y="-172" font-family="Helvetica,sans-Serif" font-size="10.00">sifman.h</text>
</a>
</g>
</g>
<!-- Node1&#45;&gt;Node10 -->
<g id="edge11" class="edge">
<title>Node1&#45;&gt;Node10</title>
<path fill="none" stroke="#63b8ff" d="M297.86,-223C255.48,-213.56 192.63,-199.44 129.24,-184.62"/>
<polygon fill="#63b8ff" stroke="#63b8ff" points="130.25,-181.26 119.72,-182.39 128.65,-188.08 130.25,-181.26"/>
</g>
<!-- Node11 -->
<g id="node11" class="node">
<title>Node11</title>
<g id="a_node11"><a xlink:title=" ">
<polygon fill="#e0e0e0" stroke="#999999" points="588,-184 535,-184 535,-165 588,-165 588,-184"/>
<text text-anchor="middle" x="561.5" y="-172" font-family="Helvetica,sans-Serif" font-size="10.00">sifcmd.h</text>
</a>
</g>
</g>
<!-- Node1&#45;&gt;Node11 -->
<g id="edge14" class="edge">
<title>Node1&#45;&gt;Node11</title>
<path fill="none" stroke="#63b8ff" d="M397.4,-220.36C436.07,-209.79 488.82,-195.37 523.96,-185.76"/>
<polygon fill="#63b8ff" stroke="#63b8ff" points="524.53,-189.24 533.25,-183.22 522.68,-182.48 524.53,-189.24"/>
</g>
<!-- Node12 -->
<g id="node12" class="node">
<title>Node12</title>
<g id="a_node12"><a xlink:href="sysclib_8h.html" target="_top" xlink:title=" ">
<polygon fill="white" stroke="#666666" points="478.5,-184 424.5,-184 424.5,-165 478.5,-165 478.5,-184"/>
<text text-anchor="middle" x="451.5" y="-172" font-family="Helvetica,sans-Serif" font-size="10.00">sysclib.h</text>
</a>
</g>
</g>
<!-- Node1&#45;&gt;Node12 -->
<g id="edge15" class="edge">
<title>Node1&#45;&gt;Node12</title>
<path fill="none" stroke="#63b8ff" d="M373.21,-219.54C389.29,-210.49 409.93,-198.88 425.98,-189.85"/>
<polygon fill="#63b8ff" stroke="#63b8ff" points="427.45,-193.04 434.45,-185.09 424.02,-186.94 427.45,-193.04"/>
</g>
<!-- Node15 -->
<g id="node15" class="node">
<title>Node15</title>
<g id="a_node15"><a xlink:href="thbase_8h.html" target="_top" xlink:title=" ">
<polygon fill="white" stroke="#666666" points="189,-184 136,-184 136,-165 189,-165 189,-184"/>
<text text-anchor="middle" x="162.5" y="-172" font-family="Helvetica,sans-Serif" font-size="10.00">thbase.h</text>
</a>
</g>
</g>
<!-- Node1&#45;&gt;Node15 -->
<g id="edge22" class="edge">
<title>Node1&#45;&gt;Node15</title>
<path fill="none" stroke="#63b8ff" d="M301.77,-219.54C270.46,-209.64 229.45,-196.67 200.05,-187.37"/>
<polygon fill="#63b8ff" stroke="#63b8ff" points="201.43,-184.14 190.84,-184.46 199.32,-190.81 201.43,-184.14"/>
</g>
<!-- Node16 -->
<g id="node16" class="node">
<title>Node16</title>
<g id="a_node16"><a xlink:href="intrman_8h.html" target="_top" xlink:title=" ">
<polygon fill="white" stroke="#666666" points="263.5,-184 207.5,-184 207.5,-165 263.5,-165 263.5,-184"/>
<text text-anchor="middle" x="235.5" y="-172" font-family="Helvetica,sans-Serif" font-size="10.00">intrman.h</text>
</a>
</g>
</g>
<!-- Node1&#45;&gt;Node16 -->
<g id="edge25" class="edge">
<title>Node1&#45;&gt;Node16</title>
<path fill="none" stroke="#63b8ff" d="M319.81,-219.54C302.33,-210.4 279.84,-198.66 262.49,-189.6"/>
<polygon fill="#63b8ff" stroke="#63b8ff" points="264.26,-186.57 253.78,-185.05 261.02,-192.78 264.26,-186.57"/>
</g>
<!-- Node17 -->
<g id="node17" class="node">
<title>Node17</title>
<g id="a_node17"><a xlink:title=" ">
<polygon fill="#e0e0e0" stroke="#999999" points="653,-184 606,-184 606,-165 653,-165 653,-184"/>
<text text-anchor="middle" x="629.5" y="-172" font-family="Helvetica,sans-Serif" font-size="10.00">ps2ip.h</text>
</a>
</g>
</g>
<!-- Node1&#45;&gt;Node17 -->
<g id="edge28" class="edge">
<title>Node1&#45;&gt;Node17</title>
<path fill="none" stroke="#63b8ff" d="M397.03,-225.04C445.24,-216.1 520.81,-201.54 594.86,-184.51"/>
<polygon fill="#63b8ff" stroke="#63b8ff" points="595.35,-187.99 604.3,-182.32 593.77,-181.17 595.35,-187.99"/>
</g>
<!-- Node18 -->
<g id="node18" class="node">
<title>Node18</title>
<g id="a_node18"><a xlink:href="ps2ip__rpc_8h.html" target="_top" xlink:title=" ">
<polygon fill="white" stroke="#666666" points="607.5,-129 541.5,-129 541.5,-110 607.5,-110 607.5,-129"/>
<text text-anchor="middle" x="574.5" y="-117" font-family="Helvetica,sans-Serif" font-size="10.00">ps2ip_rpc.h</text>
</a>
</g>
</g>
<!-- Node1&#45;&gt;Node18 -->
<g id="edge29" class="edge">
<title>Node1&#45;&gt;Node18</title>
<path fill="none" stroke="#63b8ff" d="M397.23,-220.08C424.67,-211.46 458.87,-199.15 487.5,-184 512.88,-170.57 539.12,-150.4 556.05,-136.41"/>
<polygon fill="#63b8ff" stroke="#63b8ff" points="557.88,-139.45 563.28,-130.33 553.37,-134.09 557.88,-139.45"/>
</g>
<!-- Node4 -->
<g id="node4" class="node">
<title>Node4</title>
<g id="a_node4"><a xlink:href="iop_2kernel_2include_2types_8h_source.html" target="_top" xlink:title=" ">
<polygon fill="white" stroke="#666666" points="280,-74 233,-74 233,-55 280,-55 280,-74"/>
<text text-anchor="middle" x="256.5" y="-62" font-family="Helvetica,sans-Serif" font-size="10.00">types.h</text>
</a>
</g>
</g>
<!-- Node3&#45;&gt;Node4 -->
<g id="edge3" class="edge">
<title>Node3&#45;&gt;Node4</title>
<path fill="none" stroke="#63b8ff" d="M308.66,-164.75C303.17,-152.4 292.62,-129.2 282.5,-110 277.91,-101.29 272.47,-91.85 267.75,-83.92"/>
<polygon fill="#63b8ff" stroke="#63b8ff" points="270.85,-82.29 262.69,-75.53 264.86,-85.9 270.85,-82.29"/>
</g>
<!-- Node7 -->
<g id="node7" class="node">
<title>Node7</title>
<g id="a_node7"><a xlink:href="irx_8h.html" target="_top" xlink:title=" ">
<polygon fill="white" stroke="#666666" points="273.5,-129 239.5,-129 239.5,-110 273.5,-110 273.5,-129"/>
<text text-anchor="middle" x="256.5" y="-117" font-family="Helvetica,sans-Serif" font-size="10.00">irx.h</text>
</a>
</g>
</g>
<!-- Node3&#45;&gt;Node7 -->
<g id="edge6" class="edge">
<title>Node3&#45;&gt;Node7</title>
<path fill="none" stroke="#63b8ff" d="M303,-164.51C295.07,-157 283.55,-146.1 273.96,-137.03"/>
<polygon fill="#63b8ff" stroke="#63b8ff" points="276.63,-134.73 266.96,-130.4 271.82,-139.81 276.63,-134.73"/>
</g>
<!-- Node5 -->
<g id="node5" class="node">
<title>Node5</title>
<g id="a_node5"><a xlink:title=" ">
<polygon fill="#e0e0e0" stroke="#999999" points="282,-19 231,-19 231,0 282,0 282,-19"/>
<text text-anchor="middle" x="256.5" y="-7" font-family="Helvetica,sans-Serif" font-size="10.00">stddef.h</text>
</a>
</g>
</g>
<!-- Node4&#45;&gt;Node5 -->
<g id="edge4" class="edge">
<title>Node4&#45;&gt;Node5</title>
<path fill="none" stroke="#63b8ff" d="M256.5,-54.75C256.5,-48.27 256.5,-39.16 256.5,-30.9"/>
<polygon fill="#63b8ff" stroke="#63b8ff" points="260,-30.96 256.5,-20.96 253,-30.96 260,-30.96"/>
</g>
<!-- Node6 -->
<g id="node6" class="node">
<title>Node6</title>
<g id="a_node6"><a xlink:href="tamtypes_8h.html" target="_top" xlink:title=" ">
<polygon fill="white" stroke="#666666" points="519.5,-19 455.5,-19 455.5,0 519.5,0 519.5,-19"/>
<text text-anchor="middle" x="487.5" y="-7" font-family="Helvetica,sans-Serif" font-size="10.00">tamtypes.h</text>
</a>
</g>
</g>
<!-- Node4&#45;&gt;Node6 -->
<g id="edge5" class="edge">
<title>Node4&#45;&gt;Node6</title>
<path fill="none" stroke="#63b8ff" d="M280.35,-58.03C318.98,-49.16 395.79,-31.54 444.25,-20.42"/>
<polygon fill="#63b8ff" stroke="#63b8ff" points="444.88,-23.87 453.85,-18.22 443.32,-17.05 444.88,-23.87"/>
</g>
<!-- Node7&#45;&gt;Node4 -->
<g id="edge7" class="edge">
<title>Node7&#45;&gt;Node4</title>
<path fill="none" stroke="#63b8ff" d="M256.5,-109.75C256.5,-103.27 256.5,-94.16 256.5,-85.9"/>
<polygon fill="#63b8ff" stroke="#63b8ff" points="260,-85.96 256.5,-75.96 253,-85.96 260,-85.96"/>
</g>
<!-- Node8&#45;&gt;Node7 -->
<g id="edge10" class="edge">
<title>Node8&#45;&gt;Node7</title>
<path fill="none" stroke="#63b8ff" d="M361.96,-164.51C340.55,-155.58 307.63,-141.84 284.27,-132.09"/>
<polygon fill="#63b8ff" stroke="#63b8ff" points="285.63,-128.87 275.06,-128.24 282.94,-135.33 285.63,-128.87"/>
</g>
<!-- Node9 -->
<g id="node9" class="node">
<title>Node9</title>
<g id="a_node9"><a xlink:title=" ">
<polygon fill="#e0e0e0" stroke="#999999" points="381,-129 330,-129 330,-110 381,-110 381,-129"/>
<text text-anchor="middle" x="355.5" y="-117" font-family="Helvetica,sans-Serif" font-size="10.00">stdarg.h</text>
</a>
</g>
</g>
<!-- Node8&#45;&gt;Node9 -->
<g id="edge9" class="edge">
<title>Node8&#45;&gt;Node9</title>
<path fill="none" stroke="#63b8ff" d="M378.88,-164.75C375.25,-157.88 370.07,-148.08 365.51,-139.45"/>
<polygon fill="#63b8ff" stroke="#63b8ff" points="368.7,-137.99 360.93,-130.78 362.51,-141.26 368.7,-137.99"/>
</g>
<!-- Node10&#45;&gt;Node4 -->
<g id="edge12" class="edge">
<title>Node10&#45;&gt;Node4</title>
<path fill="none" stroke="#63b8ff" d="M105,-164.66C133.16,-146.23 198.44,-103.5 233.41,-80.62"/>
<polygon fill="#63b8ff" stroke="#63b8ff" points="235.09,-83.69 241.54,-75.29 231.26,-77.84 235.09,-83.69"/>
</g>
<!-- Node10&#45;&gt;Node7 -->
<g id="edge13" class="edge">
<title>Node10&#45;&gt;Node7</title>
<path fill="none" stroke="#63b8ff" d="M118.38,-164.87C148.66,-155.14 197.66,-139.4 228.43,-129.52"/>
<polygon fill="#63b8ff" stroke="#63b8ff" points="229.36,-132.89 237.81,-126.5 227.22,-126.23 229.36,-132.89"/>
</g>
<!-- Node12&#45;&gt;Node4 -->
<g id="edge16" class="edge">
<title>Node12&#45;&gt;Node4</title>
<path fill="none" stroke="#63b8ff" d="M445.38,-164.82C435.39,-151.25 414.29,-125.01 390.5,-110 359.71,-90.57 319.54,-78.7 291.24,-72.17"/>
<polygon fill="#63b8ff" stroke="#63b8ff" points="292.27,-68.81 281.75,-70.09 290.77,-75.65 292.27,-68.81"/>
</g>
<!-- Node12&#45;&gt;Node7 -->
<g id="edge17" class="edge">
<title>Node12&#45;&gt;Node7</title>
<path fill="none" stroke="#63b8ff" d="M424.39,-166.13C387.65,-156.15 322.38,-138.41 284.96,-128.24"/>
<polygon fill="#63b8ff" stroke="#63b8ff" points="285.89,-124.86 275.32,-125.62 284.06,-131.62 285.89,-124.86"/>
</g>
<!-- Node12&#45;&gt;Node9 -->
<g id="edge18" class="edge">
<title>Node12&#45;&gt;Node9</title>
<path fill="none" stroke="#63b8ff" d="M435.21,-164.51C420.51,-156.39 398.61,-144.3 381.48,-134.85"/>
<polygon fill="#63b8ff" stroke="#63b8ff" points="383.32,-131.86 372.87,-130.09 379.93,-137.99 383.32,-131.86"/>
</g>
<!-- Node13 -->
<g id="node13" class="node">
<title>Node13</title>
<g id="a_node13"><a xlink:href="setjmp_8h.html" target="_top" xlink:title=" ">
<polygon fill="white" stroke="#666666" points="487,-74 434,-74 434,-55 487,-55 487,-74"/>
<text text-anchor="middle" x="460.5" y="-62" font-family="Helvetica,sans-Serif" font-size="10.00">setjmp.h</text>
</a>
</g>
</g>
<!-- Node12&#45;&gt;Node13 -->
<g id="edge19" class="edge">
<title>Node12&#45;&gt;Node13</title>
<path fill="none" stroke="#63b8ff" d="M464.41,-164.61C474.74,-156.65 488.46,-143.94 494.5,-129 501.14,-112.58 490.02,-94.89 478.77,-82.37"/>
<polygon fill="#63b8ff" stroke="#63b8ff" points="481.37,-80.01 471.86,-75.33 476.37,-84.92 481.37,-80.01"/>
</g>
<!-- Node14 -->
<g id="node14" class="node">
<title>Node14</title>
<g id="a_node14"><a xlink:href="ctype_8h.html" target="_top" xlink:title=" ">
<polygon fill="white" stroke="#666666" points="485,-129 438,-129 438,-110 485,-110 485,-129"/>
<text text-anchor="middle" x="461.5" y="-117" font-family="Helvetica,sans-Serif" font-size="10.00">ctype.h</text>
</a>
</g>
</g>
<!-- Node12&#45;&gt;Node14 -->
<g id="edge21" class="edge">
<title>Node12&#45;&gt;Node14</title>
<path fill="none" stroke="#63b8ff" d="M453.15,-164.75C454.39,-158.19 456.13,-148.95 457.71,-140.6"/>
<polygon fill="#63b8ff" stroke="#63b8ff" points="461.12,-141.4 459.53,-130.93 454.24,-140.11 461.12,-141.4"/>
</g>
<!-- Node13&#45;&gt;Node6 -->
<g id="edge20" class="edge">
<title>Node13&#45;&gt;Node6</title>
<path fill="none" stroke="#63b8ff" d="M464.96,-54.75C468.45,-47.88 473.45,-38.08 477.85,-29.45"/>
<polygon fill="#63b8ff" stroke="#63b8ff" points="480.84,-31.29 482.26,-20.79 474.6,-28.11 480.84,-31.29"/>
</g>
<!-- Node15&#45;&gt;Node4 -->
<g id="edge23" class="edge">
<title>Node15&#45;&gt;Node4</title>
<path fill="none" stroke="#63b8ff" d="M170.19,-164.66C185.68,-146.86 220.9,-106.41 241.23,-83.04"/>
<polygon fill="#63b8ff" stroke="#63b8ff" points="243.78,-85.44 247.71,-75.6 238.5,-80.85 243.78,-85.44"/>
</g>
<!-- Node15&#45;&gt;Node7 -->
<g id="edge24" class="edge">
<title>Node15&#45;&gt;Node7</title>
<path fill="none" stroke="#63b8ff" d="M178.45,-164.51C192.85,-156.39 214.29,-144.3 231.06,-134.85"/>
<polygon fill="#63b8ff" stroke="#63b8ff" points="232.48,-138.06 239.47,-130.1 229.04,-131.96 232.48,-138.06"/>
</g>
<!-- Node16&#45;&gt;Node4 -->
<g id="edge26" class="edge">
<title>Node16&#45;&gt;Node4</title>
<path fill="none" stroke="#63b8ff" d="M232.96,-164.7C229.78,-152.28 225.36,-129 230.5,-110 233.01,-100.74 237.98,-91.42 242.91,-83.73"/>
<polygon fill="#63b8ff" stroke="#63b8ff" points="245.69,-85.86 248.51,-75.64 239.94,-81.87 245.69,-85.86"/>
</g>
<!-- Node16&#45;&gt;Node7 -->
<g id="edge27" class="edge">
<title>Node16&#45;&gt;Node7</title>
<path fill="none" stroke="#63b8ff" d="M238.97,-164.75C241.63,-158.04 245.4,-148.52 248.76,-140.02"/>
<polygon fill="#63b8ff" stroke="#63b8ff" points="251.97,-141.44 252.4,-130.85 245.46,-138.86 251.97,-141.44"/>
</g>
<!-- Node18&#45;&gt;Node6 -->
<g id="edge30" class="edge">
<title>Node18&#45;&gt;Node6</title>
<path fill="none" stroke="#63b8ff" d="M566.54,-109.8C558.52,-100.94 545.88,-86.74 535.5,-74 523.24,-58.95 509.99,-41.3 500.52,-28.43"/>
<polygon fill="#63b8ff" stroke="#63b8ff" points="503.45,-26.51 494.72,-20.5 497.8,-30.64 503.45,-26.51"/>
</g>
<!-- Node19 -->
<g id="node19" class="node">
<title>Node19</title>
<g id="a_node19"><a xlink:href="tcpip_8h.html" target="_top" xlink:title=" ">
<polygon fill="white" stroke="#666666" points="668,-74 623,-74 623,-55 668,-55 668,-74"/>
<text text-anchor="middle" x="645.5" y="-62" font-family="Helvetica,sans-Serif" font-size="10.00">tcpip.h</text>
</a>
</g>
</g>
<!-- Node18&#45;&gt;Node19 -->
<g id="edge31" class="edge">
<title>Node18&#45;&gt;Node19</title>
<path fill="none" stroke="#63b8ff" d="M586.54,-109.51C596.91,-101.77 612.1,-90.43 624.47,-81.2"/>
<polygon fill="#63b8ff" stroke="#63b8ff" points="626.5,-84.05 632.42,-75.26 622.31,-78.44 626.5,-84.05"/>
</g>
<!-- Node20 -->
<g id="node20" class="node">
<title>Node20</title>
<g id="a_node20"><a xlink:href="time_8h.html" target="_top" xlink:title=" ">
<polygon fill="white" stroke="#666666" points="605,-74 544,-74 544,-55 605,-55 605,-74"/>
<text text-anchor="middle" x="574.5" y="-62" font-family="Helvetica,sans-Serif" font-size="10.00">sys/time.h</text>
</a>
</g>
</g>
<!-- Node18&#45;&gt;Node20 -->
<g id="edge33" class="edge">
<title>Node18&#45;&gt;Node20</title>
<path fill="none" stroke="#63b8ff" d="M574.5,-109.75C574.5,-103.27 574.5,-94.16 574.5,-85.9"/>
<polygon fill="#63b8ff" stroke="#63b8ff" points="578,-85.96 574.5,-75.96 571,-85.96 578,-85.96"/>
</g>
<!-- Node19&#45;&gt;Node6 -->
<g id="edge32" class="edge">
<title>Node19&#45;&gt;Node6</title>
<path fill="none" stroke="#63b8ff" d="M622.53,-55.79C596.91,-47.2 555.11,-33.18 524.8,-23.01"/>
<polygon fill="#63b8ff" stroke="#63b8ff" points="526.23,-19.8 515.64,-19.94 524,-26.44 526.23,-19.8"/>
</g>
</g>
</svg>
