<?xml version="1.0" encoding="UTF-8" standalone="no"?>
<!DOCTYPE svg PUBLIC "-//W3C//DTD SVG 1.1//EN"
 "http://www.w3.org/Graphics/SVG/1.1/DTD/svg11.dtd">
<!-- Generated by graphviz version 7.0.5 (20221223.1930)
 -->
<!-- Title: common/include/ps2ip_rpc.h Pages: 1 -->
<svg width="254pt" height="104pt"
 viewBox="0.00 0.00 253.50 104.00" xmlns="http://www.w3.org/2000/svg" xmlns:xlink="http://www.w3.org/1999/xlink">
<g id="graph0" class="graph" transform="scale(1 1) rotate(0) translate(4 100)">
<title>common/include/ps2ip_rpc.h</title>
<!-- Node1 -->
<g id="node1" class="node">
<title>Node1</title>
<g id="a_node1"><a xlink:title=" ">
<polygon fill="#999999" stroke="#666666" points="187,-96 73,-96 73,-66 187,-66 187,-96"/>
<text text-anchor="start" x="81" y="-84" font-family="Helvetica,sans-Serif" font-size="10.00">common/include/ps2ip</text>
<text text-anchor="middle" x="130" y="-73" font-family="Helvetica,sans-Serif" font-size="10.00">_rpc.h</text>
</a>
</g>
</g>
<!-- Node2 -->
<g id="node2" class="node">
<title>Node2</title>
<g id="a_node2"><a xlink:href="ps2ipc_8c.html" target="_top" xlink:title=" ">
<polygon fill="white" stroke="#666666" points="128,-24.5 0,-24.5 0,-5.5 128,-5.5 128,-24.5"/>
<text text-anchor="middle" x="64" y="-12.5" font-family="Helvetica,sans-Serif" font-size="10.00">ee/rpc/tcpips/src/ps2ipc.c</text>
</a>
</g>
</g>
<!-- Node1&#45;&gt;Node2 -->
<g id="edge1" class="edge">
<title>Node1&#45;&gt;Node2</title>
<path fill="none" stroke="#63b8ff" d="M107.25,-57.94C95.54,-46.58 81.9,-33.36 73.12,-24.84"/>
<polygon fill="#63b8ff" stroke="#63b8ff" points="104.65,-60.29 114.27,-64.74 109.52,-55.27 104.65,-60.29"/>
</g>
<!-- Node3 -->
<g id="node3" class="node">
<title>Node3</title>
<g id="a_node3"><a xlink:href="ps2ips_8c.html" target="_top" xlink:title=" ">
<polygon fill="white" stroke="#666666" points="245.5,-30 146.5,-30 146.5,0 245.5,0 245.5,-30"/>
<text text-anchor="start" x="154.5" y="-18" font-family="Helvetica,sans-Serif" font-size="10.00">iop/tcpip/tcpips/src</text>
<text text-anchor="middle" x="196" y="-7" font-family="Helvetica,sans-Serif" font-size="10.00">/ps2ips.c</text>
</a>
</g>
</g>
<!-- Node1&#45;&gt;Node3 -->
<g id="edge2" class="edge">
<title>Node1&#45;&gt;Node3</title>
<path fill="none" stroke="#63b8ff" d="M152.89,-57.81C162.34,-48.64 173.03,-38.28 181.39,-30.16"/>
<polygon fill="#63b8ff" stroke="#63b8ff" points="150.48,-55.27 145.73,-64.74 155.35,-60.29 150.48,-55.27"/>
</g>
</g>
</svg>
