<?xml version="1.0" encoding="UTF-8" standalone="no"?>
<!DOCTYPE svg PUBLIC "-//W3C//DTD SVG 1.1//EN"
 "http://www.w3.org/Graphics/SVG/1.1/DTD/svg11.dtd">
<!-- Generated by graphviz version 7.0.5 (20221223.1930)
 -->
<!-- Title: ee/rpc/tcpips/include/ps2ips.h Pages: 1 -->
<svg width="142pt" height="148pt"
 viewBox="0.00 0.00 141.50 148.00" xmlns="http://www.w3.org/2000/svg" xmlns:xlink="http://www.w3.org/1999/xlink">
<g id="graph0" class="graph" transform="scale(1 1) rotate(0) translate(4 144)">
<title>ee/rpc/tcpips/include/ps2ips.h</title>
<!-- Node1 -->
<g id="node1" class="node">
<title>Node1</title>
<g id="a_node1"><a xlink:title=" ">
<polygon fill="#999999" stroke="#666666" points="120.5,-140 13.5,-140 13.5,-110 120.5,-110 120.5,-140"/>
<text text-anchor="start" x="21.5" y="-128" font-family="Helvetica,sans-Serif" font-size="10.00">ee/rpc/tcpips/include</text>
<text text-anchor="middle" x="67" y="-117" font-family="Helvetica,sans-Serif" font-size="10.00">/ps2ips.h</text>
</a>
</g>
</g>
<!-- Node2 -->
<g id="node2" class="node">
<title>Node2</title>
<g id="a_node2"><a xlink:href="tcpip_8h.html" target="_top" xlink:title=" ">
<polygon fill="white" stroke="#666666" points="54.5,-74 9.5,-74 9.5,-55 54.5,-55 54.5,-74"/>
<text text-anchor="middle" x="32" y="-62" font-family="Helvetica,sans-Serif" font-size="10.00">tcpip.h</text>
</a>
</g>
</g>
<!-- Node1&#45;&gt;Node2 -->
<g id="edge1" class="edge">
<title>Node1&#45;&gt;Node2</title>
<path fill="none" stroke="#63b8ff" d="M58.35,-109.54C53.73,-101.82 48,-92.24 43.06,-83.99"/>
<polygon fill="#63b8ff" stroke="#63b8ff" points="46.11,-82.26 37.97,-75.47 40.1,-85.85 46.11,-82.26"/>
</g>
<!-- Node4 -->
<g id="node4" class="node">
<title>Node4</title>
<g id="a_node4"><a xlink:href="time_8h.html" target="_top" xlink:title=" ">
<polygon fill="white" stroke="#666666" points="133.5,-74 72.5,-74 72.5,-55 133.5,-55 133.5,-74"/>
<text text-anchor="middle" x="103" y="-62" font-family="Helvetica,sans-Serif" font-size="10.00">sys/time.h</text>
</a>
</g>
</g>
<!-- Node1&#45;&gt;Node4 -->
<g id="edge3" class="edge">
<title>Node1&#45;&gt;Node4</title>
<path fill="none" stroke="#63b8ff" d="M75.9,-109.54C80.7,-101.74 86.68,-92.03 91.79,-83.71"/>
<polygon fill="#63b8ff" stroke="#63b8ff" points="94.61,-85.82 96.87,-75.46 88.65,-82.15 94.61,-85.82"/>
</g>
<!-- Node3 -->
<g id="node3" class="node">
<title>Node3</title>
<g id="a_node3"><a xlink:href="tamtypes_8h.html" target="_top" xlink:title=" ">
<polygon fill="white" stroke="#666666" points="64,-19 0,-19 0,0 64,0 64,-19"/>
<text text-anchor="middle" x="32" y="-7" font-family="Helvetica,sans-Serif" font-size="10.00">tamtypes.h</text>
</a>
</g>
</g>
<!-- Node2&#45;&gt;Node3 -->
<g id="edge2" class="edge">
<title>Node2&#45;&gt;Node3</title>
<path fill="none" stroke="#63b8ff" d="M32,-54.75C32,-48.27 32,-39.16 32,-30.9"/>
<polygon fill="#63b8ff" stroke="#63b8ff" points="35.5,-30.96 32,-20.96 28.5,-30.96 35.5,-30.96"/>
</g>
</g>
</svg>
