<?xml version="1.0" encoding="UTF-8" standalone="no"?>
<!DOCTYPE svg PUBLIC "-//W3C//DTD SVG 1.1//EN"
 "http://www.w3.org/Graphics/SVG/1.1/DTD/svg11.dtd">
<!-- Generated by graphviz version 7.0.5 (20221223.1930)
 -->
<!-- Title: common/include/ps2lib_err.h Pages: 1 -->
<svg width="615pt" height="104pt"
 viewBox="0.00 0.00 614.50 104.00" xmlns="http://www.w3.org/2000/svg" xmlns:xlink="http://www.w3.org/1999/xlink">
<g id="graph0" class="graph" transform="scale(1 1) rotate(0) translate(4 100)">
<title>common/include/ps2lib_err.h</title>
<!-- Node1 -->
<g id="node1" class="node">
<title>Node1</title>
<g id="a_node1"><a xlink:title=" ">
<polygon fill="#999999" stroke="#666666" points="370.5,-96 254.5,-96 254.5,-66 370.5,-66 370.5,-96"/>
<text text-anchor="start" x="262.5" y="-84" font-family="Helvetica,sans-Serif" font-size="10.00">common/include/ps2lib</text>
<text text-anchor="middle" x="312.5" y="-73" font-family="Helvetica,sans-Serif" font-size="10.00">_err.h</text>
</a>
</g>
</g>
<!-- Node2 -->
<g id="node2" class="node">
<title>Node2</title>
<g id="a_node2"><a xlink:href="ee_2kernel_2src_2fileio_8c.html" target="_top" xlink:title=" ">
<polygon fill="white" stroke="#666666" points="103,-24.5 0,-24.5 0,-5.5 103,-5.5 103,-24.5"/>
<text text-anchor="middle" x="51.5" y="-12.5" font-family="Helvetica,sans-Serif" font-size="10.00">ee/kernel/src/fileio.c</text>
</a>
</g>
</g>
<!-- Node1&#45;&gt;Node2 -->
<g id="edge1" class="edge">
<title>Node1&#45;&gt;Node2</title>
<path fill="none" stroke="#63b8ff" d="M243.21,-63.01C193.29,-50.77 127.92,-34.74 87.86,-24.92"/>
<polygon fill="#63b8ff" stroke="#63b8ff" points="242.24,-66.37 252.78,-65.36 243.9,-59.58 242.24,-66.37"/>
</g>
<!-- Node3 -->
<g id="node3" class="node">
<title>Node3</title>
<g id="a_node3"><a xlink:href="iopheap_8c_source.html" target="_top" xlink:title=" ">
<polygon fill="white" stroke="#666666" points="238,-24.5 121,-24.5 121,-5.5 238,-5.5 238,-24.5"/>
<text text-anchor="middle" x="179.5" y="-12.5" font-family="Helvetica,sans-Serif" font-size="10.00">ee/kernel/src/iopheap.c</text>
</a>
</g>
</g>
<!-- Node1&#45;&gt;Node3 -->
<g id="edge2" class="edge">
<title>Node1&#45;&gt;Node3</title>
<path fill="none" stroke="#63b8ff" d="M272.49,-60.75C247.83,-48.88 217.36,-34.22 198.17,-24.99"/>
<polygon fill="#63b8ff" stroke="#63b8ff" points="270.76,-63.8 281.29,-64.98 273.8,-57.49 270.76,-63.8"/>
</g>
<!-- Node4 -->
<g id="node4" class="node">
<title>Node4</title>
<g id="a_node4"><a xlink:href="ee_2kernel_2src_2loadfile_8c.html" target="_top" xlink:title=" ">
<polygon fill="white" stroke="#666666" points="369,-24.5 256,-24.5 256,-5.5 369,-5.5 369,-24.5"/>
<text text-anchor="middle" x="312.5" y="-12.5" font-family="Helvetica,sans-Serif" font-size="10.00">ee/kernel/src/loadfile.c</text>
</a>
</g>
</g>
<!-- Node1&#45;&gt;Node4 -->
<g id="edge3" class="edge">
<title>Node1&#45;&gt;Node4</title>
<path fill="none" stroke="#63b8ff" d="M312.5,-54.59C312.5,-44.06 312.5,-32.53 312.5,-24.84"/>
<polygon fill="#63b8ff" stroke="#63b8ff" points="309,-54.28 312.5,-64.28 316,-54.28 309,-54.28"/>
</g>
<!-- Node5 -->
<g id="node5" class="node">
<title>Node5</title>
<g id="a_node5"><a xlink:href="sifrpc_8c.html" target="_top" xlink:title=" ">
<polygon fill="white" stroke="#666666" points="494,-24.5 387,-24.5 387,-5.5 494,-5.5 494,-24.5"/>
<text text-anchor="middle" x="440.5" y="-12.5" font-family="Helvetica,sans-Serif" font-size="10.00">ee/kernel/src/sifrpc.c</text>
</a>
</g>
</g>
<!-- Node1&#45;&gt;Node5 -->
<g id="edge4" class="edge">
<title>Node1&#45;&gt;Node5</title>
<path fill="none" stroke="#63b8ff" d="M351.32,-60.59C375,-48.75 404.14,-34.18 422.53,-24.99"/>
<polygon fill="#63b8ff" stroke="#63b8ff" points="349.96,-57.36 342.58,-64.96 353.09,-63.62 349.96,-57.36"/>
</g>
<!-- Node6 -->
<g id="node6" class="node">
<title>Node6</title>
<g id="a_node6"><a xlink:href="xprintf_8c_source.html" target="_top" xlink:title=" ">
<polygon fill="white" stroke="#666666" points="606.5,-30 512.5,-30 512.5,0 606.5,0 606.5,-30"/>
<text text-anchor="start" x="520.5" y="-18" font-family="Helvetica,sans-Serif" font-size="10.00">iop/debug/sior/src</text>
<text text-anchor="middle" x="559.5" y="-7" font-family="Helvetica,sans-Serif" font-size="10.00">/xprintf.c</text>
</a>
</g>
</g>
<!-- Node1&#45;&gt;Node6 -->
<g id="edge5" class="edge">
<title>Node1&#45;&gt;Node6</title>
<path fill="none" stroke="#63b8ff" d="M379.23,-62.71C421.28,-51.81 474.57,-38.01 512.27,-28.24"/>
<polygon fill="#63b8ff" stroke="#63b8ff" points="378.51,-59.28 369.7,-65.18 380.26,-66.06 378.51,-59.28"/>
</g>
</g>
</svg>
