<?xml version="1.0" encoding="UTF-8" standalone="no"?>
<!DOCTYPE svg PUBLIC "-//W3C//DTD SVG 1.1//EN"
 "http://www.w3.org/Graphics/SVG/1.1/DTD/svg11.dtd">
<!-- Generated by graphviz version 7.0.5 (20221223.1930)
 -->
<!-- Title: iop/usb/mouse/src/ps2mouse.c Pages: 1 -->
<svg width="830pt" height="302pt"
 viewBox="0.00 0.00 830.00 302.00" xmlns="http://www.w3.org/2000/svg" xmlns:xlink="http://www.w3.org/1999/xlink">
<g id="graph0" class="graph" transform="scale(1 1) rotate(0) translate(4 298)">
<title>iop/usb/mouse/src/ps2mouse.c</title>
<!-- Node1 -->
<g id="node1" class="node">
<title>Node1</title>
<g id="a_node1"><a xlink:title=" ">
<polygon fill="#999999" stroke="#666666" points="402.5,-294 250.5,-294 250.5,-275 402.5,-275 402.5,-294"/>
<text text-anchor="middle" x="326.5" y="-282" font-family="Helvetica,sans-Serif" font-size="10.00">iop/usb/mouse/src/ps2mouse.c</text>
</a>
</g>
</g>
<!-- Node2 -->
<g id="node2" class="node">
<title>Node2</title>
<g id="a_node2"><a xlink:title=" ">
<polygon fill="#e0e0e0" stroke="#999999" points="47,-129 0,-129 0,-110 47,-110 47,-129"/>
<text text-anchor="middle" x="23.5" y="-117" font-family="Helvetica,sans-Serif" font-size="10.00">types.h</text>
</a>
</g>
</g>
<!-- Node1&#45;&gt;Node2 -->
<g id="edge1" class="edge">
<title>Node1&#45;&gt;Node2</title>
<path fill="none" stroke="#63b8ff" d="M250.16,-277.99C180.7,-271.75 84.33,-259.68 52.5,-239 28,-223.08 24.85,-212 16.5,-184 12.23,-169.66 14.4,-152.8 17.41,-140.06"/>
<polygon fill="#63b8ff" stroke="#63b8ff" points="20.69,-141.35 19.97,-130.78 13.94,-139.49 20.69,-141.35"/>
</g>
<!-- Node3 -->
<g id="node3" class="node">
<title>Node3</title>
<g id="a_node3"><a xlink:href="ioman_x_8h.html" target="_top" xlink:title=" ">
<polygon fill="white" stroke="#666666" points="671,-184 614,-184 614,-165 671,-165 671,-184"/>
<text text-anchor="middle" x="642.5" y="-172" font-family="Helvetica,sans-Serif" font-size="10.00">iomanX.h</text>
</a>
</g>
</g>
<!-- Node1&#45;&gt;Node3 -->
<g id="edge2" class="edge">
<title>Node1&#45;&gt;Node3</title>
<path fill="none" stroke="#63b8ff" d="M351.45,-274.62C374.94,-266.08 410.96,-252.51 441.5,-239 458.77,-231.36 461.86,-226.74 479.5,-220 520.43,-204.35 569.1,-191.82 602.53,-184.09"/>
<polygon fill="#63b8ff" stroke="#63b8ff" points="603.23,-187.52 612.21,-181.89 601.68,-180.69 603.23,-187.52"/>
</g>
<!-- Node13 -->
<g id="node13" class="node">
<title>Node13</title>
<g id="a_node13"><a xlink:href="loadcore_8h.html" target="_top" xlink:title=" ">
<polygon fill="white" stroke="#666666" points="150,-184 89,-184 89,-165 150,-165 150,-184"/>
<text text-anchor="middle" x="119.5" y="-172" font-family="Helvetica,sans-Serif" font-size="10.00">loadcore.h</text>
</a>
</g>
</g>
<!-- Node1&#45;&gt;Node13 -->
<g id="edge12" class="edge">
<title>Node1&#45;&gt;Node13</title>
<path fill="none" stroke="#63b8ff" d="M309.56,-274.66C273.78,-255.99 190.22,-212.4 146.8,-189.74"/>
<polygon fill="#63b8ff" stroke="#63b8ff" points="148.5,-186.68 138.02,-185.16 145.26,-192.89 148.5,-186.68"/>
</g>
<!-- Node15 -->
<g id="node15" class="node">
<title>Node15</title>
<g id="a_node15"><a xlink:href="stdio_8h.html" target="_top" xlink:title=" ">
<polygon fill="white" stroke="#666666" points="518,-184 473,-184 473,-165 518,-165 518,-184"/>
<text text-anchor="middle" x="495.5" y="-172" font-family="Helvetica,sans-Serif" font-size="10.00">stdio.h</text>
</a>
</g>
</g>
<!-- Node1&#45;&gt;Node15 -->
<g id="edge16" class="edge">
<title>Node1&#45;&gt;Node15</title>
<path fill="none" stroke="#63b8ff" d="M336.5,-274.6C351.34,-261.64 380.36,-237.26 407.5,-220 425.8,-208.36 447.54,-197.34 464.84,-189.18"/>
<polygon fill="#63b8ff" stroke="#63b8ff" points="465.99,-192.5 473.59,-185.12 463.04,-186.15 465.99,-192.5"/>
</g>
<!-- Node16 -->
<g id="node16" class="node">
<title>Node16</title>
<g id="a_node16"><a xlink:title=" ">
<polygon fill="#e0e0e0" stroke="#999999" points="541,-239 488,-239 488,-220 541,-220 541,-239"/>
<text text-anchor="middle" x="514.5" y="-227" font-family="Helvetica,sans-Serif" font-size="10.00">sifcmd.h</text>
</a>
</g>
</g>
<!-- Node1&#45;&gt;Node16 -->
<g id="edge19" class="edge">
<title>Node1&#45;&gt;Node16</title>
<path fill="none" stroke="#63b8ff" d="M358.39,-274.51C391.19,-265.26 442.26,-250.87 476.98,-241.08"/>
<polygon fill="#63b8ff" stroke="#63b8ff" points="477.51,-244.57 486.18,-238.48 475.61,-237.83 477.51,-244.57"/>
</g>
<!-- Node17 -->
<g id="node17" class="node">
<title>Node17</title>
<g id="a_node17"><a xlink:title=" ">
<polygon fill="#e0e0e0" stroke="#999999" points="607.5,-239 559.5,-239 559.5,-220 607.5,-220 607.5,-239"/>
<text text-anchor="middle" x="583.5" y="-227" font-family="Helvetica,sans-Serif" font-size="10.00">sifrpc.h</text>
</a>
</g>
</g>
<!-- Node1&#45;&gt;Node17 -->
<g id="edge20" class="edge">
<title>Node1&#45;&gt;Node17</title>
<path fill="none" stroke="#63b8ff" d="M375.61,-274.56C418.7,-266.54 483.32,-254.06 548.2,-239.43"/>
<polygon fill="#63b8ff" stroke="#63b8ff" points="548.58,-242.93 557.55,-237.3 547.03,-236.11 548.58,-242.93"/>
</g>
<!-- Node18 -->
<g id="node18" class="node">
<title>Node18</title>
<g id="a_node18"><a xlink:href="sysclib_8h.html" target="_top" xlink:title=" ">
<polygon fill="white" stroke="#666666" points="590.5,-184 536.5,-184 536.5,-165 590.5,-165 590.5,-184"/>
<text text-anchor="middle" x="563.5" y="-172" font-family="Helvetica,sans-Serif" font-size="10.00">sysclib.h</text>
</a>
</g>
</g>
<!-- Node1&#45;&gt;Node18 -->
<g id="edge21" class="edge">
<title>Node1&#45;&gt;Node18</title>
<path fill="none" stroke="#63b8ff" d="M342.54,-274.6C370.09,-259.39 425.34,-229.13 445.5,-220 472.01,-207.99 502.81,-196.45 526.3,-188.13"/>
<polygon fill="#63b8ff" stroke="#63b8ff" points="527.15,-191.55 535.43,-184.94 524.83,-184.94 527.15,-191.55"/>
</g>
<!-- Node21 -->
<g id="node21" class="node">
<title>Node21</title>
<g id="a_node21"><a xlink:href="sysmem_8h.html" target="_top" xlink:title=" ">
<polygon fill="white" stroke="#666666" points="300,-184 239,-184 239,-165 300,-165 300,-184"/>
<text text-anchor="middle" x="269.5" y="-172" font-family="Helvetica,sans-Serif" font-size="10.00">sysmem.h</text>
</a>
</g>
</g>
<!-- Node1&#45;&gt;Node21 -->
<g id="edge28" class="edge">
<title>Node1&#45;&gt;Node21</title>
<path fill="none" stroke="#63b8ff" d="M321.84,-274.66C312.65,-257.26 292.03,-218.19 279.59,-194.62"/>
<polygon fill="#63b8ff" stroke="#63b8ff" points="282.7,-193.01 274.94,-185.8 276.51,-196.28 282.7,-193.01"/>
</g>
<!-- Node22 -->
<g id="node22" class="node">
<title>Node22</title>
<g id="a_node22"><a xlink:href="usbd_8h.html" target="_top" xlink:title=" ">
<polygon fill="white" stroke="#666666" points="71,-184 26,-184 26,-165 71,-165 71,-184"/>
<text text-anchor="middle" x="48.5" y="-172" font-family="Helvetica,sans-Serif" font-size="10.00">usbd.h</text>
</a>
</g>
</g>
<!-- Node1&#45;&gt;Node22 -->
<g id="edge32" class="edge">
<title>Node1&#45;&gt;Node22</title>
<path fill="none" stroke="#63b8ff" d="M250.2,-278.71C184.79,-273.11 97.05,-261.57 70.5,-239 57.85,-228.24 52.47,-209.82 50.18,-195.58"/>
<polygon fill="#63b8ff" stroke="#63b8ff" points="53.69,-195.47 49.04,-185.95 46.74,-196.29 53.69,-195.47"/>
</g>
<!-- Node23 -->
<g id="node23" class="node">
<title>Node23</title>
<g id="a_node23"><a xlink:href="usbd__macro_8h.html" target="_top" xlink:title=" ">
<polygon fill="white" stroke="#666666" points="156,-239 79,-239 79,-220 156,-220 156,-239"/>
<text text-anchor="middle" x="117.5" y="-227" font-family="Helvetica,sans-Serif" font-size="10.00">usbd_macro.h</text>
</a>
</g>
</g>
<!-- Node1&#45;&gt;Node23 -->
<g id="edge35" class="edge">
<title>Node1&#45;&gt;Node23</title>
<path fill="none" stroke="#63b8ff" d="M291.05,-274.51C255.96,-265.61 202.08,-251.95 163.67,-242.21"/>
<polygon fill="#63b8ff" stroke="#63b8ff" points="164.8,-238.88 154.25,-239.82 163.08,-245.67 164.8,-238.88"/>
</g>
<!-- Node24 -->
<g id="node24" class="node">
<title>Node24</title>
<g id="a_node24"><a xlink:href="thbase_8h.html" target="_top" xlink:title=" ">
<polygon fill="white" stroke="#666666" points="221,-184 168,-184 168,-165 221,-165 221,-184"/>
<text text-anchor="middle" x="194.5" y="-172" font-family="Helvetica,sans-Serif" font-size="10.00">thbase.h</text>
</a>
</g>
</g>
<!-- Node1&#45;&gt;Node24 -->
<g id="edge37" class="edge">
<title>Node1&#45;&gt;Node24</title>
<path fill="none" stroke="#63b8ff" d="M315.7,-274.66C293.46,-256.47 242.29,-214.6 214.07,-191.51"/>
<polygon fill="#63b8ff" stroke="#63b8ff" points="216.58,-189.04 206.62,-185.42 212.15,-194.46 216.58,-189.04"/>
</g>
<!-- Node25 -->
<g id="node25" class="node">
<title>Node25</title>
<g id="a_node25"><a xlink:href="thevent_8h.html" target="_top" xlink:title=" ">
<polygon fill="white" stroke="#666666" points="374.5,-184 318.5,-184 318.5,-165 374.5,-165 374.5,-184"/>
<text text-anchor="middle" x="346.5" y="-172" font-family="Helvetica,sans-Serif" font-size="10.00">thevent.h</text>
</a>
</g>
</g>
<!-- Node1&#45;&gt;Node25 -->
<g id="edge40" class="edge">
<title>Node1&#45;&gt;Node25</title>
<path fill="none" stroke="#63b8ff" d="M326.51,-274.78C326.68,-262.45 327.55,-239.28 331.5,-220 333.22,-211.61 336.05,-202.62 338.79,-194.93"/>
<polygon fill="#63b8ff" stroke="#63b8ff" points="342.05,-196.2 342.32,-185.6 335.51,-193.72 342.05,-196.2"/>
</g>
<!-- Node26 -->
<g id="node26" class="node">
<title>Node26</title>
<g id="a_node26"><a xlink:href="thsemap_8h.html" target="_top" xlink:title=" ">
<polygon fill="white" stroke="#666666" points="454.5,-184 392.5,-184 392.5,-165 454.5,-165 454.5,-184"/>
<text text-anchor="middle" x="423.5" y="-172" font-family="Helvetica,sans-Serif" font-size="10.00">thsemap.h</text>
</a>
</g>
</g>
<!-- Node1&#45;&gt;Node26 -->
<g id="edge43" class="edge">
<title>Node1&#45;&gt;Node26</title>
<path fill="none" stroke="#63b8ff" d="M331.35,-274.72C338.66,-261.92 353.37,-237.72 369.5,-220 379.04,-209.52 391.11,-199.34 401.41,-191.38"/>
<polygon fill="#63b8ff" stroke="#63b8ff" points="403.5,-194.18 409.4,-185.38 399.3,-188.58 403.5,-194.18"/>
</g>
<!-- Node27 -->
<g id="node27" class="node">
<title>Node27</title>
<g id="a_node27"><a xlink:title=" ">
<polygon fill="#e0e0e0" stroke="#999999" points="695,-239 626,-239 626,-220 695,-220 695,-239"/>
<text text-anchor="middle" x="660.5" y="-227" font-family="Helvetica,sans-Serif" font-size="10.00">ps2mouse.h</text>
</a>
</g>
</g>
<!-- Node1&#45;&gt;Node27 -->
<g id="edge46" class="edge">
<title>Node1&#45;&gt;Node27</title>
<path fill="none" stroke="#63b8ff" d="M389.69,-274.52C445.99,-266.36 530.9,-253.65 614.66,-239.26"/>
<polygon fill="#63b8ff" stroke="#63b8ff" points="615.19,-242.72 624.44,-237.57 613.99,-235.82 615.19,-242.72"/>
</g>
<!-- Node4 -->
<g id="node4" class="node">
<title>Node4</title>
<g id="a_node4"><a xlink:href="iop_2kernel_2include_2types_8h_source.html" target="_top" xlink:title=" ">
<polygon fill="white" stroke="#666666" points="378,-74 331,-74 331,-55 378,-55 378,-74"/>
<text text-anchor="middle" x="354.5" y="-62" font-family="Helvetica,sans-Serif" font-size="10.00">types.h</text>
</a>
</g>
</g>
<!-- Node3&#45;&gt;Node4 -->
<g id="edge3" class="edge">
<title>Node3&#45;&gt;Node4</title>
<path fill="none" stroke="#63b8ff" d="M642.61,-164.58C642.25,-150.68 639.39,-123.99 623.5,-110 606.12,-94.7 458.14,-76.79 389.37,-69.2"/>
<polygon fill="#63b8ff" stroke="#63b8ff" points="390.1,-65.76 379.78,-68.15 389.34,-72.72 390.1,-65.76"/>
</g>
<!-- Node7 -->
<g id="node7" class="node">
<title>Node7</title>
<g id="a_node7"><a xlink:title=" ">
<polygon fill="#e0e0e0" stroke="#999999" points="472,-129 421,-129 421,-110 472,-110 472,-129"/>
<text text-anchor="middle" x="446.5" y="-117" font-family="Helvetica,sans-Serif" font-size="10.00">stdarg.h</text>
</a>
</g>
</g>
<!-- Node3&#45;&gt;Node7 -->
<g id="edge6" class="edge">
<title>Node3&#45;&gt;Node7</title>
<path fill="none" stroke="#63b8ff" d="M613.58,-165.68C579.03,-156.34 521.18,-140.69 483.43,-130.49"/>
<polygon fill="#63b8ff" stroke="#63b8ff" points="484.44,-127.13 473.87,-127.9 482.61,-133.89 484.44,-127.13"/>
</g>
<!-- Node8 -->
<g id="node8" class="node">
<title>Node8</title>
<g id="a_node8"><a xlink:href="io__common_8h.html" target="_top" xlink:title=" ">
<polygon fill="white" stroke="#666666" points="744.5,-129 670.5,-129 670.5,-110 744.5,-110 744.5,-129"/>
<text text-anchor="middle" x="707.5" y="-117" font-family="Helvetica,sans-Serif" font-size="10.00">io_common.h</text>
</a>
</g>
</g>
<!-- Node3&#45;&gt;Node8 -->
<g id="edge7" class="edge">
<title>Node3&#45;&gt;Node8</title>
<path fill="none" stroke="#63b8ff" d="M653.53,-164.51C662.92,-156.85 676.65,-145.66 687.91,-136.47"/>
<polygon fill="#63b8ff" stroke="#63b8ff" points="689.93,-139.35 695.46,-130.31 685.5,-133.92 689.93,-139.35"/>
</g>
<!-- Node11 -->
<g id="node11" class="node">
<title>Node11</title>
<g id="a_node11"><a xlink:href="iox__stat_8h.html" target="_top" xlink:title=" ">
<polygon fill="white" stroke="#666666" points="820.5,-129 762.5,-129 762.5,-110 820.5,-110 820.5,-129"/>
<text text-anchor="middle" x="791.5" y="-117" font-family="Helvetica,sans-Serif" font-size="10.00">iox_stat.h</text>
</a>
</g>
</g>
<!-- Node3&#45;&gt;Node11 -->
<g id="edge10" class="edge">
<title>Node3&#45;&gt;Node11</title>
<path fill="none" stroke="#63b8ff" d="M667.78,-164.51C692,-155.89 728.8,-142.8 755.97,-133.14"/>
<polygon fill="#63b8ff" stroke="#63b8ff" points="756.92,-136.51 765.17,-129.87 754.58,-129.92 756.92,-136.51"/>
</g>
<!-- Node5 -->
<g id="node5" class="node">
<title>Node5</title>
<g id="a_node5"><a xlink:title=" ">
<polygon fill="#e0e0e0" stroke="#999999" points="380,-19 329,-19 329,0 380,0 380,-19"/>
<text text-anchor="middle" x="354.5" y="-7" font-family="Helvetica,sans-Serif" font-size="10.00">stddef.h</text>
</a>
</g>
</g>
<!-- Node4&#45;&gt;Node5 -->
<g id="edge4" class="edge">
<title>Node4&#45;&gt;Node5</title>
<path fill="none" stroke="#63b8ff" d="M354.5,-54.75C354.5,-48.27 354.5,-39.16 354.5,-30.9"/>
<polygon fill="#63b8ff" stroke="#63b8ff" points="358,-30.96 354.5,-20.96 351,-30.96 358,-30.96"/>
</g>
<!-- Node6 -->
<g id="node6" class="node">
<title>Node6</title>
<g id="a_node6"><a xlink:href="tamtypes_8h.html" target="_top" xlink:title=" ">
<polygon fill="white" stroke="#666666" points="489.5,-19 425.5,-19 425.5,0 489.5,0 489.5,-19"/>
<text text-anchor="middle" x="457.5" y="-7" font-family="Helvetica,sans-Serif" font-size="10.00">tamtypes.h</text>
</a>
</g>
</g>
<!-- Node4&#45;&gt;Node6 -->
<g id="edge5" class="edge">
<title>Node4&#45;&gt;Node6</title>
<path fill="none" stroke="#63b8ff" d="M371.97,-54.51C387.9,-46.31 411.69,-34.07 430.14,-24.58"/>
<polygon fill="#63b8ff" stroke="#63b8ff" points="431.65,-27.74 438.94,-20.05 428.45,-21.51 431.65,-27.74"/>
</g>
<!-- Node9 -->
<g id="node9" class="node">
<title>Node9</title>
<g id="a_node9"><a xlink:href="fcntl_8h_source.html" target="_top" xlink:title=" ">
<polygon fill="white" stroke="#666666" points="740,-74 679,-74 679,-55 740,-55 740,-74"/>
<text text-anchor="middle" x="709.5" y="-62" font-family="Helvetica,sans-Serif" font-size="10.00">sys/fcntl.h</text>
</a>
</g>
</g>
<!-- Node8&#45;&gt;Node9 -->
<g id="edge8" class="edge">
<title>Node8&#45;&gt;Node9</title>
<path fill="none" stroke="#63b8ff" d="M707.83,-109.75C708.07,-103.27 708.42,-94.16 708.73,-85.9"/>
<polygon fill="#63b8ff" stroke="#63b8ff" points="712.23,-86.08 709.11,-75.95 705.23,-85.82 712.23,-86.08"/>
</g>
<!-- Node10 -->
<g id="node10" class="node">
<title>Node10</title>
<g id="a_node10"><a xlink:href="unistd_8h_source.html" target="_top" xlink:title=" ">
<polygon fill="white" stroke="#666666" points="660.5,-74 592.5,-74 592.5,-55 660.5,-55 660.5,-74"/>
<text text-anchor="middle" x="626.5" y="-62" font-family="Helvetica,sans-Serif" font-size="10.00">sys/unistd.h</text>
</a>
</g>
</g>
<!-- Node8&#45;&gt;Node10 -->
<g id="edge9" class="edge">
<title>Node8&#45;&gt;Node10</title>
<path fill="none" stroke="#63b8ff" d="M693.76,-109.51C681.7,-101.62 663.91,-89.98 649.66,-80.65"/>
<polygon fill="#63b8ff" stroke="#63b8ff" points="651.59,-77.73 641.3,-75.19 647.76,-83.59 651.59,-77.73"/>
</g>
<!-- Node12 -->
<g id="node12" class="node">
<title>Node12</title>
<g id="a_node12"><a xlink:href="time_8h.html" target="_top" xlink:title=" ">
<polygon fill="white" stroke="#666666" points="822,-74 761,-74 761,-55 822,-55 822,-74"/>
<text text-anchor="middle" x="791.5" y="-62" font-family="Helvetica,sans-Serif" font-size="10.00">sys/time.h</text>
</a>
</g>
</g>
<!-- Node11&#45;&gt;Node12 -->
<g id="edge11" class="edge">
<title>Node11&#45;&gt;Node12</title>
<path fill="none" stroke="#63b8ff" d="M791.5,-109.75C791.5,-103.27 791.5,-94.16 791.5,-85.9"/>
<polygon fill="#63b8ff" stroke="#63b8ff" points="795,-85.96 791.5,-75.96 788,-85.96 795,-85.96"/>
</g>
<!-- Node13&#45;&gt;Node4 -->
<g id="edge13" class="edge">
<title>Node13&#45;&gt;Node4</title>
<path fill="none" stroke="#63b8ff" d="M135.42,-164.53C158.46,-151.71 202.61,-127.72 241.5,-110 267.43,-98.18 297.48,-86.44 320.07,-77.99"/>
<polygon fill="#63b8ff" stroke="#63b8ff" points="321.25,-81.28 329.41,-74.52 318.81,-74.72 321.25,-81.28"/>
</g>
<!-- Node14 -->
<g id="node14" class="node">
<title>Node14</title>
<g id="a_node14"><a xlink:href="irx_8h.html" target="_top" xlink:title=" ">
<polygon fill="white" stroke="#666666" points="326.5,-129 292.5,-129 292.5,-110 326.5,-110 326.5,-129"/>
<text text-anchor="middle" x="309.5" y="-117" font-family="Helvetica,sans-Serif" font-size="10.00">irx.h</text>
</a>
</g>
</g>
<!-- Node13&#45;&gt;Node14 -->
<g id="edge14" class="edge">
<title>Node13&#45;&gt;Node14</title>
<path fill="none" stroke="#63b8ff" d="M150.45,-164.87C186.73,-154.75 246.33,-138.12 281.35,-128.35"/>
<polygon fill="#63b8ff" stroke="#63b8ff" points="282.07,-131.79 290.76,-125.73 280.19,-125.04 282.07,-131.79"/>
</g>
<!-- Node14&#45;&gt;Node4 -->
<g id="edge15" class="edge">
<title>Node14&#45;&gt;Node4</title>
<path fill="none" stroke="#63b8ff" d="M316.93,-109.75C323.08,-102.5 332.01,-91.98 339.63,-83.02"/>
<polygon fill="#63b8ff" stroke="#63b8ff" points="342.12,-85.48 345.93,-75.6 336.79,-80.95 342.12,-85.48"/>
</g>
<!-- Node15&#45;&gt;Node7 -->
<g id="edge17" class="edge">
<title>Node15&#45;&gt;Node7</title>
<path fill="none" stroke="#63b8ff" d="M487.41,-164.75C480.64,-157.43 470.78,-146.76 462.44,-137.74"/>
<polygon fill="#63b8ff" stroke="#63b8ff" points="465.15,-135.52 455.79,-130.55 460.01,-140.27 465.15,-135.52"/>
</g>
<!-- Node15&#45;&gt;Node14 -->
<g id="edge18" class="edge">
<title>Node15&#45;&gt;Node14</title>
<path fill="none" stroke="#63b8ff" d="M472.69,-167C438.73,-157.32 374.91,-139.14 337.94,-128.6"/>
<polygon fill="#63b8ff" stroke="#63b8ff" points="338.99,-125.26 328.41,-125.89 337.07,-132 338.99,-125.26"/>
</g>
<!-- Node18&#45;&gt;Node4 -->
<g id="edge22" class="edge">
<title>Node18&#45;&gt;Node4</title>
<path fill="none" stroke="#63b8ff" d="M554.12,-164.57C539.59,-151.14 510.29,-125.65 481.5,-110 452,-93.96 415.59,-81.9 389.33,-74.41"/>
<polygon fill="#63b8ff" stroke="#63b8ff" points="390.43,-71.09 379.85,-71.79 388.56,-77.83 390.43,-71.09"/>
</g>
<!-- Node18&#45;&gt;Node7 -->
<g id="edge24" class="edge">
<title>Node18&#45;&gt;Node7</title>
<path fill="none" stroke="#63b8ff" d="M543.65,-164.51C525.22,-156.16 497.52,-143.61 476.41,-134.05"/>
<polygon fill="#63b8ff" stroke="#63b8ff" points="477.99,-130.92 467.43,-129.98 475.1,-137.3 477.99,-130.92"/>
</g>
<!-- Node18&#45;&gt;Node14 -->
<g id="edge23" class="edge">
<title>Node18&#45;&gt;Node14</title>
<path fill="none" stroke="#63b8ff" d="M536,-166.92C533.13,-166.26 530.26,-165.61 527.5,-165 459.69,-150.08 379.62,-134.17 337.95,-126.02"/>
<polygon fill="#63b8ff" stroke="#63b8ff" points="338.75,-122.61 328.26,-124.13 337.41,-129.48 338.75,-122.61"/>
</g>
<!-- Node19 -->
<g id="node19" class="node">
<title>Node19</title>
<g id="a_node19"><a xlink:href="setjmp_8h.html" target="_top" xlink:title=" ">
<polygon fill="white" stroke="#666666" points="511,-74 458,-74 458,-55 511,-55 511,-74"/>
<text text-anchor="middle" x="484.5" y="-62" font-family="Helvetica,sans-Serif" font-size="10.00">setjmp.h</text>
</a>
</g>
</g>
<!-- Node18&#45;&gt;Node19 -->
<g id="edge25" class="edge">
<title>Node18&#45;&gt;Node19</title>
<path fill="none" stroke="#63b8ff" d="M557.04,-164.66C544.13,-147.02 514.95,-107.12 497.79,-83.67"/>
<polygon fill="#63b8ff" stroke="#63b8ff" points="500.68,-81.69 491.95,-75.68 495.03,-85.82 500.68,-81.69"/>
</g>
<!-- Node20 -->
<g id="node20" class="node">
<title>Node20</title>
<g id="a_node20"><a xlink:href="ctype_8h.html" target="_top" xlink:title=" ">
<polygon fill="white" stroke="#666666" points="614,-129 567,-129 567,-110 614,-110 614,-129"/>
<text text-anchor="middle" x="590.5" y="-117" font-family="Helvetica,sans-Serif" font-size="10.00">ctype.h</text>
</a>
</g>
</g>
<!-- Node18&#45;&gt;Node20 -->
<g id="edge27" class="edge">
<title>Node18&#45;&gt;Node20</title>
<path fill="none" stroke="#63b8ff" d="M567.96,-164.75C571.45,-157.88 576.45,-148.08 580.85,-139.45"/>
<polygon fill="#63b8ff" stroke="#63b8ff" points="583.84,-141.29 585.26,-130.79 577.6,-138.11 583.84,-141.29"/>
</g>
<!-- Node19&#45;&gt;Node6 -->
<g id="edge26" class="edge">
<title>Node19&#45;&gt;Node6</title>
<path fill="none" stroke="#63b8ff" d="M480.04,-54.75C476.55,-47.88 471.55,-38.08 467.15,-29.45"/>
<polygon fill="#63b8ff" stroke="#63b8ff" points="470.4,-28.11 462.74,-20.79 464.16,-31.29 470.4,-28.11"/>
</g>
<!-- Node21&#45;&gt;Node4 -->
<g id="edge29" class="edge">
<title>Node21&#45;&gt;Node4</title>
<path fill="none" stroke="#63b8ff" d="M269.37,-164.86C269.58,-151.8 271.66,-126.79 283.5,-110 292.85,-96.73 307.53,-86.58 321.13,-79.34"/>
<polygon fill="#63b8ff" stroke="#63b8ff" points="322.43,-82.61 329.85,-75.05 319.33,-76.33 322.43,-82.61"/>
</g>
<!-- Node21&#45;&gt;Node7 -->
<g id="edge31" class="edge">
<title>Node21&#45;&gt;Node7</title>
<path fill="none" stroke="#63b8ff" d="M299.53,-164.51C329.96,-155.39 377.11,-141.28 409.76,-131.5"/>
<polygon fill="#63b8ff" stroke="#63b8ff" points="410.63,-134.9 419.2,-128.67 408.62,-128.19 410.63,-134.9"/>
</g>
<!-- Node21&#45;&gt;Node14 -->
<g id="edge30" class="edge">
<title>Node21&#45;&gt;Node14</title>
<path fill="none" stroke="#63b8ff" d="M276.11,-164.75C281.46,-157.66 289.18,-147.42 295.85,-138.59"/>
<polygon fill="#63b8ff" stroke="#63b8ff" points="298.61,-140.74 301.84,-130.65 293.02,-136.52 298.61,-140.74"/>
</g>
<!-- Node22&#45;&gt;Node2 -->
<g id="edge33" class="edge">
<title>Node22&#45;&gt;Node2</title>
<path fill="none" stroke="#63b8ff" d="M44.37,-164.75C41.17,-157.96 36.61,-148.3 32.57,-139.73"/>
<polygon fill="#63b8ff" stroke="#63b8ff" points="35.8,-138.36 28.36,-130.81 29.46,-141.35 35.8,-138.36"/>
</g>
<!-- Node22&#45;&gt;Node14 -->
<g id="edge34" class="edge">
<title>Node22&#45;&gt;Node14</title>
<path fill="none" stroke="#63b8ff" d="M71.18,-167.27C74.3,-166.47 77.47,-165.69 80.5,-165 152.3,-148.51 237.68,-132.99 281.09,-125.38"/>
<polygon fill="#63b8ff" stroke="#63b8ff" points="281.44,-128.87 290.69,-123.71 280.24,-121.98 281.44,-128.87"/>
</g>
<!-- Node23&#45;&gt;Node22 -->
<g id="edge36" class="edge">
<title>Node23&#45;&gt;Node22</title>
<path fill="none" stroke="#63b8ff" d="M105.8,-219.51C95.72,-211.77 80.96,-200.43 68.94,-191.2"/>
<polygon fill="#63b8ff" stroke="#63b8ff" points="71.29,-188.6 61.23,-185.28 67.03,-194.15 71.29,-188.6"/>
</g>
<!-- Node24&#45;&gt;Node4 -->
<g id="edge38" class="edge">
<title>Node24&#45;&gt;Node4</title>
<path fill="none" stroke="#63b8ff" d="M203.83,-164.6C217.67,-151.64 244.81,-127.26 270.5,-110 287.69,-98.45 308.22,-87.53 324.68,-79.4"/>
<polygon fill="#63b8ff" stroke="#63b8ff" points="325.99,-82.65 333.46,-75.14 322.94,-76.35 325.99,-82.65"/>
</g>
<!-- Node24&#45;&gt;Node14 -->
<g id="edge39" class="edge">
<title>Node24&#45;&gt;Node14</title>
<path fill="none" stroke="#63b8ff" d="M214.01,-164.51C232.67,-155.91 261,-142.85 281.96,-133.19"/>
<polygon fill="#63b8ff" stroke="#63b8ff" points="283.17,-136.49 290.78,-129.13 280.24,-130.13 283.17,-136.49"/>
</g>
<!-- Node25&#45;&gt;Node4 -->
<g id="edge41" class="edge">
<title>Node25&#45;&gt;Node4</title>
<path fill="none" stroke="#63b8ff" d="M347.15,-164.66C348.42,-147.57 351.23,-109.61 352.99,-85.92"/>
<polygon fill="#63b8ff" stroke="#63b8ff" points="356.48,-86.2 353.72,-75.97 349.5,-85.68 356.48,-86.2"/>
</g>
<!-- Node25&#45;&gt;Node14 -->
<g id="edge42" class="edge">
<title>Node25&#45;&gt;Node14</title>
<path fill="none" stroke="#63b8ff" d="M340.39,-164.75C335.49,-157.73 328.45,-147.64 322.33,-138.87"/>
<polygon fill="#63b8ff" stroke="#63b8ff" points="325.2,-136.88 316.61,-130.68 319.46,-140.89 325.2,-136.88"/>
</g>
<!-- Node26&#45;&gt;Node4 -->
<g id="edge44" class="edge">
<title>Node26&#45;&gt;Node4</title>
<path fill="none" stroke="#63b8ff" d="M417.85,-164.66C406.63,-147.1 381.32,-107.48 366.31,-83.98"/>
<polygon fill="#63b8ff" stroke="#63b8ff" points="369.37,-82.28 361.04,-75.74 363.47,-86.05 369.37,-82.28"/>
</g>
<!-- Node26&#45;&gt;Node14 -->
<g id="edge45" class="edge">
<title>Node26&#45;&gt;Node14</title>
<path fill="none" stroke="#63b8ff" d="M404.16,-164.51C385.75,-155.95 357.84,-142.97 337.09,-133.33"/>
<polygon fill="#63b8ff" stroke="#63b8ff" points="338.61,-130.17 328.06,-129.13 335.66,-136.52 338.61,-130.17"/>
</g>
</g>
</svg>
