<?xml version="1.0" encoding="UTF-8" standalone="no"?>
<!DOCTYPE svg PUBLIC "-//W3C//DTD SVG 1.1//EN"
 "http://www.w3.org/Graphics/SVG/1.1/DTD/svg11.dtd">
<!-- Generated by graphviz version 7.0.5 (20221223.1930)
 -->
<!-- Title: iop/fs/netfs/src/ps2netfs.c Pages: 1 -->
<svg width="494pt" height="302pt"
 viewBox="0.00 0.00 494.00 302.00" xmlns="http://www.w3.org/2000/svg" xmlns:xlink="http://www.w3.org/1999/xlink">
<g id="graph0" class="graph" transform="scale(1 1) rotate(0) translate(4 298)">
<title>iop/fs/netfs/src/ps2netfs.c</title>
<!-- Node1 -->
<g id="node1" class="node">
<title>Node1</title>
<g id="a_node1"><a xlink:title=" ">
<polygon fill="#999999" stroke="#666666" points="295.5,-294 165.5,-294 165.5,-275 295.5,-275 295.5,-294"/>
<text text-anchor="middle" x="230.5" y="-282" font-family="Helvetica,sans-Serif" font-size="10.00">iop/fs/netfs/src/ps2netfs.c</text>
</a>
</g>
</g>
<!-- Node2 -->
<g id="node2" class="node">
<title>Node2</title>
<g id="a_node2"><a xlink:title=" ">
<polygon fill="#e0e0e0" stroke="#999999" points="219,-184 172,-184 172,-165 219,-165 219,-184"/>
<text text-anchor="middle" x="195.5" y="-172" font-family="Helvetica,sans-Serif" font-size="10.00">types.h</text>
</a>
</g>
</g>
<!-- Node1&#45;&gt;Node2 -->
<g id="edge1" class="edge">
<title>Node1&#45;&gt;Node2</title>
<path fill="none" stroke="#63b8ff" d="M220.62,-274.75C212.11,-266.5 200.45,-253.3 195.5,-239 190.69,-225.09 190.89,-208.42 192.19,-195.65"/>
<polygon fill="#63b8ff" stroke="#63b8ff" points="195.64,-196.31 193.51,-185.93 188.7,-195.37 195.64,-196.31"/>
</g>
<!-- Node3 -->
<g id="node3" class="node">
<title>Node3</title>
<g id="a_node3"><a xlink:href="defs_8h.html" target="_top" xlink:title=" ">
<polygon fill="white" stroke="#666666" points="43,-129 0,-129 0,-110 43,-110 43,-129"/>
<text text-anchor="middle" x="21.5" y="-117" font-family="Helvetica,sans-Serif" font-size="10.00">defs.h</text>
</a>
</g>
</g>
<!-- Node1&#45;&gt;Node3 -->
<g id="edge2" class="edge">
<title>Node1&#45;&gt;Node3</title>
<path fill="none" stroke="#63b8ff" d="M165.22,-277.71C110.43,-271.49 37.91,-259.59 17.5,-239 -8.14,-213.14 3.57,-166.43 13.25,-140.04"/>
<polygon fill="#63b8ff" stroke="#63b8ff" points="16.44,-141.48 16.86,-130.9 9.93,-138.91 16.44,-141.48"/>
</g>
<!-- Node7 -->
<g id="node7" class="node">
<title>Node7</title>
<g id="a_node7"><a xlink:href="irx_8h.html" target="_top" xlink:title=" ">
<polygon fill="white" stroke="#666666" points="210.5,-129 176.5,-129 176.5,-110 210.5,-110 210.5,-129"/>
<text text-anchor="middle" x="193.5" y="-117" font-family="Helvetica,sans-Serif" font-size="10.00">irx.h</text>
</a>
</g>
</g>
<!-- Node1&#45;&gt;Node7 -->
<g id="edge6" class="edge">
<title>Node1&#45;&gt;Node7</title>
<path fill="none" stroke="#63b8ff" d="M240.66,-274.81C249.4,-266.6 261.4,-253.43 266.5,-239 269.32,-231.04 268.1,-228.29 266.5,-220 261.52,-194.15 259.73,-186.47 244.5,-165 236.67,-153.96 225.56,-143.85 215.71,-136.06"/>
<polygon fill="#63b8ff" stroke="#63b8ff" points="218.1,-133.48 208.01,-130.26 213.89,-139.07 218.1,-133.48"/>
</g>
<!-- Node8 -->
<g id="node8" class="node">
<title>Node8</title>
<g id="a_node8"><a xlink:href="loadcore_8h.html" target="_top" xlink:title=" ">
<polygon fill="white" stroke="#666666" points="154,-184 93,-184 93,-165 154,-165 154,-184"/>
<text text-anchor="middle" x="123.5" y="-172" font-family="Helvetica,sans-Serif" font-size="10.00">loadcore.h</text>
</a>
</g>
</g>
<!-- Node1&#45;&gt;Node8 -->
<g id="edge8" class="edge">
<title>Node1&#45;&gt;Node8</title>
<path fill="none" stroke="#63b8ff" d="M221.74,-274.66C203.95,-256.7 163.31,-215.69 140.27,-192.42"/>
<polygon fill="#63b8ff" stroke="#63b8ff" points="142.97,-190.18 133.44,-185.54 137.99,-195.1 142.97,-190.18"/>
</g>
<!-- Node9 -->
<g id="node9" class="node">
<title>Node9</title>
<g id="a_node9"><a xlink:href="ioman_8h.html" target="_top" xlink:title=" ">
<polygon fill="white" stroke="#666666" points="363.5,-184 313.5,-184 313.5,-165 363.5,-165 363.5,-184"/>
<text text-anchor="middle" x="338.5" y="-172" font-family="Helvetica,sans-Serif" font-size="10.00">ioman.h</text>
</a>
</g>
</g>
<!-- Node1&#45;&gt;Node9 -->
<g id="edge11" class="edge">
<title>Node1&#45;&gt;Node9</title>
<path fill="none" stroke="#63b8ff" d="M248.8,-274.63C263.71,-266.77 284.65,-254.18 299.5,-239 312.36,-225.85 322.97,-207.72 329.86,-194.2"/>
<polygon fill="#63b8ff" stroke="#63b8ff" points="332.86,-196.02 334.07,-185.49 326.56,-192.96 332.86,-196.02"/>
</g>
<!-- Node13 -->
<g id="node13" class="node">
<title>Node13</title>
<g id="a_node13"><a xlink:href="stdio_8h.html" target="_top" xlink:title=" ">
<polygon fill="white" stroke="#666666" points="72,-239 27,-239 27,-220 72,-220 72,-239"/>
<text text-anchor="middle" x="49.5" y="-227" font-family="Helvetica,sans-Serif" font-size="10.00">stdio.h</text>
</a>
</g>
</g>
<!-- Node1&#45;&gt;Node13 -->
<g id="edge17" class="edge">
<title>Node1&#45;&gt;Node13</title>
<path fill="none" stroke="#63b8ff" d="M199.8,-274.51C167.36,-265.01 116.36,-250.08 82.93,-240.29"/>
<polygon fill="#63b8ff" stroke="#63b8ff" points="84.35,-237.06 73.76,-237.61 82.38,-243.77 84.35,-237.06"/>
</g>
<!-- Node15 -->
<g id="node15" class="node">
<title>Node15</title>
<g id="a_node15"><a xlink:href="iopmgr_8h.html" target="_top" xlink:title=" ">
<polygon fill="white" stroke="#666666" points="257,-239 204,-239 204,-220 257,-220 257,-239"/>
<text text-anchor="middle" x="230.5" y="-227" font-family="Helvetica,sans-Serif" font-size="10.00">iopmgr.h</text>
</a>
</g>
</g>
<!-- Node1&#45;&gt;Node15 -->
<g id="edge20" class="edge">
<title>Node1&#45;&gt;Node15</title>
<path fill="none" stroke="#63b8ff" d="M230.5,-274.75C230.5,-268.27 230.5,-259.16 230.5,-250.9"/>
<polygon fill="#63b8ff" stroke="#63b8ff" points="234,-250.96 230.5,-240.96 227,-250.96 234,-250.96"/>
</g>
<!-- Node16 -->
<g id="node16" class="node">
<title>Node16</title>
<g id="a_node16"><a xlink:href="ps2__fio_8h.html" target="_top" xlink:title=" ">
<polygon fill="white" stroke="#666666" points="407,-239 352,-239 352,-220 407,-220 407,-239"/>
<text text-anchor="middle" x="379.5" y="-227" font-family="Helvetica,sans-Serif" font-size="10.00">ps2_fio.h</text>
</a>
</g>
</g>
<!-- Node1&#45;&gt;Node16 -->
<g id="edge25" class="edge">
<title>Node1&#45;&gt;Node16</title>
<path fill="none" stroke="#63b8ff" d="M255.78,-274.51C280,-265.89 316.8,-252.8 343.97,-243.14"/>
<polygon fill="#63b8ff" stroke="#63b8ff" points="344.92,-246.51 353.17,-239.87 342.58,-239.92 344.92,-246.51"/>
</g>
<!-- Node17 -->
<g id="node17" class="node">
<title>Node17</title>
<g id="a_node17"><a xlink:href="devscan_8h.html" target="_top" xlink:title=" ">
<polygon fill="white" stroke="#666666" points="486,-239 425,-239 425,-220 486,-220 486,-239"/>
<text text-anchor="middle" x="455.5" y="-227" font-family="Helvetica,sans-Serif" font-size="10.00">devscan.h</text>
</a>
</g>
</g>
<!-- Node1&#45;&gt;Node17 -->
<g id="edge26" class="edge">
<title>Node1&#45;&gt;Node17</title>
<path fill="none" stroke="#63b8ff" d="M268.67,-274.51C308.89,-265.03 372.07,-250.15 413.64,-240.36"/>
<polygon fill="#63b8ff" stroke="#63b8ff" points="414.35,-243.79 423.28,-238.09 412.74,-236.98 414.35,-243.79"/>
</g>
<!-- Node4 -->
<g id="node4" class="node">
<title>Node4</title>
<g id="a_node4"><a xlink:href="iop_2kernel_2include_2types_8h_source.html" target="_top" xlink:title=" ">
<polygon fill="white" stroke="#666666" points="206,-74 159,-74 159,-55 206,-55 206,-74"/>
<text text-anchor="middle" x="182.5" y="-62" font-family="Helvetica,sans-Serif" font-size="10.00">types.h</text>
</a>
</g>
</g>
<!-- Node3&#45;&gt;Node4 -->
<g id="edge3" class="edge">
<title>Node3&#45;&gt;Node4</title>
<path fill="none" stroke="#63b8ff" d="M43.21,-111.35C70.09,-102.51 116.18,-87.33 147.93,-76.88"/>
<polygon fill="#63b8ff" stroke="#63b8ff" points="148.67,-80.32 157.08,-73.87 146.48,-73.67 148.67,-80.32"/>
</g>
<!-- Node5 -->
<g id="node5" class="node">
<title>Node5</title>
<g id="a_node5"><a xlink:title=" ">
<polygon fill="#e0e0e0" stroke="#999999" points="170,-19 119,-19 119,0 170,0 170,-19"/>
<text text-anchor="middle" x="144.5" y="-7" font-family="Helvetica,sans-Serif" font-size="10.00">stddef.h</text>
</a>
</g>
</g>
<!-- Node4&#45;&gt;Node5 -->
<g id="edge4" class="edge">
<title>Node4&#45;&gt;Node5</title>
<path fill="none" stroke="#63b8ff" d="M176.23,-54.75C171.14,-47.66 163.8,-37.42 157.47,-28.59"/>
<polygon fill="#63b8ff" stroke="#63b8ff" points="160.46,-26.76 151.79,-20.67 154.78,-30.84 160.46,-26.76"/>
</g>
<!-- Node6 -->
<g id="node6" class="node">
<title>Node6</title>
<g id="a_node6"><a xlink:href="tamtypes_8h.html" target="_top" xlink:title=" ">
<polygon fill="white" stroke="#666666" points="252.5,-19 188.5,-19 188.5,0 252.5,0 252.5,-19"/>
<text text-anchor="middle" x="220.5" y="-7" font-family="Helvetica,sans-Serif" font-size="10.00">tamtypes.h</text>
</a>
</g>
</g>
<!-- Node4&#45;&gt;Node6 -->
<g id="edge5" class="edge">
<title>Node4&#45;&gt;Node6</title>
<path fill="none" stroke="#63b8ff" d="M188.77,-54.75C193.86,-47.66 201.2,-37.42 207.53,-28.59"/>
<polygon fill="#63b8ff" stroke="#63b8ff" points="210.22,-30.84 213.21,-20.67 204.54,-26.76 210.22,-30.84"/>
</g>
<!-- Node7&#45;&gt;Node4 -->
<g id="edge7" class="edge">
<title>Node7&#45;&gt;Node4</title>
<path fill="none" stroke="#63b8ff" d="M191.68,-109.75C190.32,-103.19 188.4,-93.95 186.67,-85.6"/>
<polygon fill="#63b8ff" stroke="#63b8ff" points="190.12,-85 184.66,-75.92 183.27,-86.43 190.12,-85"/>
</g>
<!-- Node8&#45;&gt;Node4 -->
<g id="edge9" class="edge">
<title>Node8&#45;&gt;Node4</title>
<path fill="none" stroke="#63b8ff" d="M128.33,-164.66C137.88,-147.18 159.37,-107.84 172.23,-84.3"/>
<polygon fill="#63b8ff" stroke="#63b8ff" points="175.16,-86.24 176.88,-75.79 169.01,-82.89 175.16,-86.24"/>
</g>
<!-- Node8&#45;&gt;Node7 -->
<g id="edge10" class="edge">
<title>Node8&#45;&gt;Node7</title>
<path fill="none" stroke="#63b8ff" d="M135.37,-164.51C145.59,-156.77 160.57,-145.43 172.76,-136.2"/>
<polygon fill="#63b8ff" stroke="#63b8ff" points="174.73,-139.1 180.59,-130.27 170.51,-133.52 174.73,-139.1"/>
</g>
<!-- Node9&#45;&gt;Node4 -->
<g id="edge12" class="edge">
<title>Node9&#45;&gt;Node4</title>
<path fill="none" stroke="#63b8ff" d="M325.73,-164.66C299.22,-146.31 237.92,-103.87 204.76,-80.91"/>
<polygon fill="#63b8ff" stroke="#63b8ff" points="206.9,-78.14 196.69,-75.32 202.92,-83.89 206.9,-78.14"/>
</g>
<!-- Node9&#45;&gt;Node7 -->
<g id="edge13" class="edge">
<title>Node9&#45;&gt;Node7</title>
<path fill="none" stroke="#63b8ff" d="M313.9,-164.51C288.31,-155.15 248.3,-140.53 221.51,-130.74"/>
<polygon fill="#63b8ff" stroke="#63b8ff" points="222.93,-127.53 212.34,-127.39 220.53,-134.11 222.93,-127.53"/>
</g>
<!-- Node10 -->
<g id="node10" class="node">
<title>Node10</title>
<g id="a_node10"><a xlink:href="io__common_8h.html" target="_top" xlink:title=" ">
<polygon fill="white" stroke="#666666" points="375.5,-129 301.5,-129 301.5,-110 375.5,-110 375.5,-129"/>
<text text-anchor="middle" x="338.5" y="-117" font-family="Helvetica,sans-Serif" font-size="10.00">io_common.h</text>
</a>
</g>
</g>
<!-- Node9&#45;&gt;Node10 -->
<g id="edge14" class="edge">
<title>Node9&#45;&gt;Node10</title>
<path fill="none" stroke="#63b8ff" d="M338.5,-164.75C338.5,-158.27 338.5,-149.16 338.5,-140.9"/>
<polygon fill="#63b8ff" stroke="#63b8ff" points="342,-140.96 338.5,-130.96 335,-140.96 342,-140.96"/>
</g>
<!-- Node11 -->
<g id="node11" class="node">
<title>Node11</title>
<g id="a_node11"><a xlink:href="fcntl_8h_source.html" target="_top" xlink:title=" ">
<polygon fill="white" stroke="#666666" points="298,-74 237,-74 237,-55 298,-55 298,-74"/>
<text text-anchor="middle" x="267.5" y="-62" font-family="Helvetica,sans-Serif" font-size="10.00">sys/fcntl.h</text>
</a>
</g>
</g>
<!-- Node10&#45;&gt;Node11 -->
<g id="edge15" class="edge">
<title>Node10&#45;&gt;Node11</title>
<path fill="none" stroke="#63b8ff" d="M326.46,-109.51C316.09,-101.77 300.9,-90.43 288.53,-81.2"/>
<polygon fill="#63b8ff" stroke="#63b8ff" points="290.69,-78.44 280.58,-75.26 286.5,-84.05 290.69,-78.44"/>
</g>
<!-- Node12 -->
<g id="node12" class="node">
<title>Node12</title>
<g id="a_node12"><a xlink:href="unistd_8h_source.html" target="_top" xlink:title=" ">
<polygon fill="white" stroke="#666666" points="384.5,-74 316.5,-74 316.5,-55 384.5,-55 384.5,-74"/>
<text text-anchor="middle" x="350.5" y="-62" font-family="Helvetica,sans-Serif" font-size="10.00">sys/unistd.h</text>
</a>
</g>
</g>
<!-- Node10&#45;&gt;Node12 -->
<g id="edge16" class="edge">
<title>Node10&#45;&gt;Node12</title>
<path fill="none" stroke="#63b8ff" d="M340.48,-109.75C341.97,-103.19 344.06,-93.95 345.95,-85.6"/>
<polygon fill="#63b8ff" stroke="#63b8ff" points="349.35,-86.44 348.14,-75.92 342.52,-84.9 349.35,-86.44"/>
</g>
<!-- Node13&#45;&gt;Node7 -->
<g id="edge19" class="edge">
<title>Node13&#45;&gt;Node7</title>
<path fill="none" stroke="#63b8ff" d="M38.39,-219.75C23.52,-206.99 0.54,-182.85 14.5,-165 32.88,-141.49 119.35,-128.63 165.04,-123.37"/>
<polygon fill="#63b8ff" stroke="#63b8ff" points="165.17,-126.88 174.73,-122.31 164.41,-119.92 165.17,-126.88"/>
</g>
<!-- Node14 -->
<g id="node14" class="node">
<title>Node14</title>
<g id="a_node14"><a xlink:title=" ">
<polygon fill="#e0e0e0" stroke="#999999" points="75,-184 24,-184 24,-165 75,-165 75,-184"/>
<text text-anchor="middle" x="49.5" y="-172" font-family="Helvetica,sans-Serif" font-size="10.00">stdarg.h</text>
</a>
</g>
</g>
<!-- Node13&#45;&gt;Node14 -->
<g id="edge18" class="edge">
<title>Node13&#45;&gt;Node14</title>
<path fill="none" stroke="#63b8ff" d="M49.5,-219.75C49.5,-213.27 49.5,-204.16 49.5,-195.9"/>
<polygon fill="#63b8ff" stroke="#63b8ff" points="53,-195.96 49.5,-185.96 46,-195.96 53,-195.96"/>
</g>
<!-- Node15&#45;&gt;Node2 -->
<g id="edge21" class="edge">
<title>Node15&#45;&gt;Node2</title>
<path fill="none" stroke="#63b8ff" d="M224.72,-219.75C220.09,-212.73 213.43,-202.64 207.63,-193.87"/>
<polygon fill="#63b8ff" stroke="#63b8ff" points="210.67,-192.12 202.24,-185.71 204.83,-195.98 210.67,-192.12"/>
</g>
<!-- Node15&#45;&gt;Node7 -->
<g id="edge22" class="edge">
<title>Node15&#45;&gt;Node7</title>
<path fill="none" stroke="#63b8ff" d="M231.93,-219.55C233.56,-206.94 235.21,-183.45 228.5,-165 224.82,-154.89 217.89,-145.29 211.15,-137.61"/>
<polygon fill="#63b8ff" stroke="#63b8ff" points="213.74,-135.24 204.32,-130.39 208.65,-140.06 213.74,-135.24"/>
</g>
<!-- Node15&#45;&gt;Node8 -->
<g id="edge24" class="edge">
<title>Node15&#45;&gt;Node8</title>
<path fill="none" stroke="#63b8ff" d="M212.35,-219.51C195.72,-211.27 170.86,-198.96 151.65,-189.45"/>
<polygon fill="#63b8ff" stroke="#63b8ff" points="153.25,-186.33 142.74,-185.03 150.15,-192.6 153.25,-186.33"/>
</g>
<!-- Node15&#45;&gt;Node9 -->
<g id="edge23" class="edge">
<title>Node15&#45;&gt;Node9</title>
<path fill="none" stroke="#63b8ff" d="M248.82,-219.51C265.68,-211.24 290.93,-198.84 310.35,-189.31"/>
<polygon fill="#63b8ff" stroke="#63b8ff" points="311.66,-192.57 319.09,-185.02 308.57,-186.29 311.66,-192.57"/>
</g>
</g>
</svg>
