<?xml version="1.0" encoding="UTF-8" standalone="no"?>
<!DOCTYPE svg PUBLIC "-//W3C//DTD SVG 1.1//EN"
 "http://www.w3.org/Graphics/SVG/1.1/DTD/svg11.dtd">
<!-- Generated by graphviz version 7.0.5 (20221223.1930)
 -->
<!-- Title: common/include/ps2snd.h Pages: 1 -->
<svg width="402pt" height="93pt"
 viewBox="0.00 0.00 401.50 93.00" xmlns="http://www.w3.org/2000/svg" xmlns:xlink="http://www.w3.org/1999/xlink">
<g id="graph0" class="graph" transform="scale(1 1) rotate(0) translate(4 89)">
<title>common/include/ps2snd.h</title>
<!-- Node1 -->
<g id="node1" class="node">
<title>Node1</title>
<g id="a_node1"><a xlink:title=" ">
<polygon fill="#999999" stroke="#666666" points="275.5,-85 145.5,-85 145.5,-66 275.5,-66 275.5,-85"/>
<text text-anchor="middle" x="210.5" y="-73" font-family="Helvetica,sans-Serif" font-size="10.00">common/include/ps2snd.h</text>
</a>
</g>
</g>
<!-- Node2 -->
<g id="node2" class="node">
<title>Node2</title>
<g id="a_node2"><a xlink:href="ee_2rpc_2ps2snd_2src_2ps2snd_8c_source.html" target="_top" xlink:title=" ">
<polygon fill="white" stroke="#666666" points="137,-24.5 0,-24.5 0,-5.5 137,-5.5 137,-24.5"/>
<text text-anchor="middle" x="68.5" y="-12.5" font-family="Helvetica,sans-Serif" font-size="10.00">ee/rpc/ps2snd/src/ps2snd.c</text>
</a>
</g>
</g>
<!-- Node1&#45;&gt;Node2 -->
<g id="edge1" class="edge">
<title>Node1&#45;&gt;Node2</title>
<path fill="none" stroke="#63b8ff" d="M178.49,-61.31C151.57,-50.22 113.81,-34.67 90.27,-24.97"/>
<polygon fill="#63b8ff" stroke="#63b8ff" points="176.95,-64.47 187.53,-65.04 179.62,-57.99 176.95,-64.47"/>
</g>
<!-- Node3 -->
<g id="node3" class="node">
<title>Node3</title>
<g id="a_node3"><a xlink:href="adpcm-stream_8c_source.html" target="_top" xlink:title=" ">
<polygon fill="white" stroke="#666666" points="265.5,-30 155.5,-30 155.5,0 265.5,0 265.5,-30"/>
<text text-anchor="start" x="163.5" y="-18" font-family="Helvetica,sans-Serif" font-size="10.00">iop/sound/ps2snd/src</text>
<text text-anchor="middle" x="210.5" y="-7" font-family="Helvetica,sans-Serif" font-size="10.00">/adpcm&#45;stream.c</text>
</a>
</g>
</g>
<!-- Node1&#45;&gt;Node3 -->
<g id="edge2" class="edge">
<title>Node1&#45;&gt;Node3</title>
<path fill="none" stroke="#63b8ff" d="M210.5,-54.51C210.5,-46.49 210.5,-37.43 210.5,-30.11"/>
<polygon fill="#63b8ff" stroke="#63b8ff" points="207,-54.35 210.5,-64.35 214,-54.35 207,-54.35"/>
</g>
<!-- Node4 -->
<g id="node4" class="node">
<title>Node4</title>
<g id="a_node4"><a xlink:href="iop_2sound_2ps2snd_2src_2ps2snd_8c_source.html" target="_top" xlink:title=" ">
<polygon fill="white" stroke="#666666" points="393.5,-30 283.5,-30 283.5,0 393.5,0 393.5,-30"/>
<text text-anchor="start" x="291.5" y="-18" font-family="Helvetica,sans-Serif" font-size="10.00">iop/sound/ps2snd/src</text>
<text text-anchor="middle" x="338.5" y="-7" font-family="Helvetica,sans-Serif" font-size="10.00">/ps2snd.c</text>
</a>
</g>
</g>
<!-- Node1&#45;&gt;Node4 -->
<g id="edge3" class="edge">
<title>Node1&#45;&gt;Node4</title>
<path fill="none" stroke="#63b8ff" d="M240.32,-60.87C260.3,-51.74 286.57,-39.74 306.91,-30.44"/>
<polygon fill="#63b8ff" stroke="#63b8ff" points="238.96,-57.65 231.32,-64.99 241.87,-64.01 238.96,-57.65"/>
</g>
</g>
</svg>
