<?xml version="1.0" encoding="UTF-8" standalone="no"?>
<!DOCTYPE svg PUBLIC "-//W3C//DTD SVG 1.1//EN"
 "http://www.w3.org/Graphics/SVG/1.1/DTD/svg11.dtd">
<!-- Generated by graphviz version 7.0.5 (20221223.1930)
 -->
<!-- Title: common/include/ps2smb.h Pages: 1 -->
<svg width="365pt" height="159pt"
 viewBox="0.00 0.00 365.00 159.00" xmlns="http://www.w3.org/2000/svg" xmlns:xlink="http://www.w3.org/1999/xlink">
<g id="graph0" class="graph" transform="scale(1 1) rotate(0) translate(4 155)">
<title>common/include/ps2smb.h</title>
<!-- Node1 -->
<g id="node1" class="node">
<title>Node1</title>
<g id="a_node1"><a xlink:title=" ">
<polygon fill="#999999" stroke="#666666" points="307,-151 174,-151 174,-132 307,-132 307,-151"/>
<text text-anchor="middle" x="240.5" y="-139" font-family="Helvetica,sans-Serif" font-size="10.00">common/include/ps2smb.h</text>
</a>
</g>
</g>
<!-- Node2 -->
<g id="node2" class="node">
<title>Node2</title>
<g id="a_node2"><a xlink:href="smb_8h_source.html" target="_top" xlink:title=" ">
<polygon fill="white" stroke="#666666" points="253,-96 146,-96 146,-66 253,-66 253,-96"/>
<text text-anchor="start" x="154" y="-84" font-family="Helvetica,sans-Serif" font-size="10.00">iop/network/smbman</text>
<text text-anchor="middle" x="199.5" y="-73" font-family="Helvetica,sans-Serif" font-size="10.00">/src/smb.h</text>
</a>
</g>
</g>
<!-- Node1&#45;&gt;Node2 -->
<g id="edge1" class="edge">
<title>Node1&#45;&gt;Node2</title>
<path fill="none" stroke="#63b8ff" d="M227.88,-122.5C221.94,-114.01 214.95,-104.04 209.39,-96.11"/>
<polygon fill="#63b8ff" stroke="#63b8ff" points="224.98,-124.45 233.58,-130.63 230.71,-120.43 224.98,-124.45"/>
</g>
<!-- Node4 -->
<g id="node4" class="node">
<title>Node4</title>
<g id="a_node4"><a xlink:href="smb__fio_8c_source.html" target="_top" xlink:title=" ">
<polygon fill="white" stroke="#666666" points="357,-30 250,-30 250,0 357,0 357,-30"/>
<text text-anchor="start" x="258" y="-18" font-family="Helvetica,sans-Serif" font-size="10.00">iop/network/smbman</text>
<text text-anchor="middle" x="303.5" y="-7" font-family="Helvetica,sans-Serif" font-size="10.00">/src/smb_fio.c</text>
</a>
</g>
</g>
<!-- Node1&#45;&gt;Node4 -->
<g id="edge5" class="edge">
<title>Node1&#45;&gt;Node4</title>
<path fill="none" stroke="#63b8ff" d="M250.12,-121.48C262.8,-96.44 284.8,-52.96 296.19,-30.45"/>
<polygon fill="#63b8ff" stroke="#63b8ff" points="247.11,-119.69 245.71,-130.2 253.35,-122.85 247.11,-119.69"/>
</g>
<!-- Node3 -->
<g id="node3" class="node">
<title>Node3</title>
<g id="a_node3"><a xlink:href="smb_8c_source.html" target="_top" xlink:title=" ">
<polygon fill="white" stroke="#666666" points="107,-30 0,-30 0,0 107,0 107,-30"/>
<text text-anchor="start" x="8" y="-18" font-family="Helvetica,sans-Serif" font-size="10.00">iop/network/smbman</text>
<text text-anchor="middle" x="53.5" y="-7" font-family="Helvetica,sans-Serif" font-size="10.00">/src/smb.c</text>
</a>
</g>
</g>
<!-- Node2&#45;&gt;Node3 -->
<g id="edge2" class="edge">
<title>Node2&#45;&gt;Node3</title>
<path fill="none" stroke="#63b8ff" d="M156.48,-61.14C134.08,-51.32 107.12,-39.51 86.41,-30.43"/>
<polygon fill="#63b8ff" stroke="#63b8ff" points="154.78,-64.22 165.35,-65.03 157.6,-57.81 154.78,-64.22"/>
</g>
<!-- Node2&#45;&gt;Node4 -->
<g id="edge3" class="edge">
<title>Node2&#45;&gt;Node4</title>
<path fill="none" stroke="#63b8ff" d="M232.59,-59.64C248.1,-50.09 266.2,-38.95 280.24,-30.31"/>
<polygon fill="#63b8ff" stroke="#63b8ff" points="230.81,-56.62 224.13,-64.84 234.48,-62.58 230.81,-56.62"/>
</g>
<!-- Node5 -->
<g id="node5" class="node">
<title>Node5</title>
<g id="a_node5"><a xlink:href="smbman_8c_source.html" target="_top" xlink:title=" ">
<polygon fill="white" stroke="#666666" points="232,-30 125,-30 125,0 232,0 232,-30"/>
<text text-anchor="start" x="133" y="-18" font-family="Helvetica,sans-Serif" font-size="10.00">iop/network/smbman</text>
<text text-anchor="middle" x="178.5" y="-7" font-family="Helvetica,sans-Serif" font-size="10.00">/src/smbman.c</text>
</a>
</g>
</g>
<!-- Node2&#45;&gt;Node5 -->
<g id="edge4" class="edge">
<title>Node2&#45;&gt;Node5</title>
<path fill="none" stroke="#63b8ff" d="M191.29,-54.97C188.52,-46.55 185.54,-37.45 183.15,-30.16"/>
<polygon fill="#63b8ff" stroke="#63b8ff" points="187.92,-55.95 194.37,-64.36 194.58,-53.77 187.92,-55.95"/>
</g>
</g>
</svg>
