<?xml version="1.0" encoding="UTF-8" standalone="no"?>
<!DOCTYPE svg PUBLIC "-//W3C//DTD SVG 1.1//EN"
 "http://www.w3.org/Graphics/SVG/1.1/DTD/svg11.dtd">
<!-- Generated by graphviz version 7.0.5 (20221223.1930)
 -->
<!-- Title: iop/dev9/pvrdrv/include/pvrdrv.h Pages: 1 -->
<svg width="1501pt" height="104pt"
 viewBox="0.00 0.00 1500.50 104.00" xmlns="http://www.w3.org/2000/svg" xmlns:xlink="http://www.w3.org/1999/xlink">
<g id="graph0" class="graph" transform="scale(1 1) rotate(0) translate(4 100)">
<title>iop/dev9/pvrdrv/include/pvrdrv.h</title>
<!-- Node1 -->
<g id="node1" class="node">
<title>Node1</title>
<g id="a_node1"><a xlink:title=" ">
<polygon fill="#999999" stroke="#666666" points="804.5,-96 687.5,-96 687.5,-66 804.5,-66 804.5,-96"/>
<text text-anchor="start" x="695.5" y="-84" font-family="Helvetica,sans-Serif" font-size="10.00">iop/dev9/pvrdrv/include</text>
<text text-anchor="middle" x="746" y="-73" font-family="Helvetica,sans-Serif" font-size="10.00">/pvrdrv.h</text>
</a>
</g>
</g>
<!-- Node2 -->
<g id="node2" class="node">
<title>Node2</title>
<g id="a_node2"><a xlink:href="dvrdrv_8c_source.html" target="_top" xlink:title=" ">
<polygon fill="white" stroke="#666666" points="100,-30 0,-30 0,0 100,0 100,-30"/>
<text text-anchor="start" x="8" y="-18" font-family="Helvetica,sans-Serif" font-size="10.00">iop/dev9/pvrdrv/src</text>
<text text-anchor="middle" x="50" y="-7" font-family="Helvetica,sans-Serif" font-size="10.00">/dvrdrv.c</text>
</a>
</g>
</g>
<!-- Node1&#45;&gt;Node2 -->
<g id="edge1" class="edge">
<title>Node1&#45;&gt;Node2</title>
<path fill="none" stroke="#63b8ff" d="M675.91,-78.04C558.15,-73.96 313.43,-62.08 109,-30 106.19,-29.56 103.32,-29.06 100.43,-28.51"/>
<polygon fill="#63b8ff" stroke="#63b8ff" points="675.62,-81.53 685.73,-78.37 675.85,-74.54 675.62,-81.53"/>
</g>
<!-- Node3 -->
<g id="node3" class="node">
<title>Node3</title>
<g id="a_node3"><a xlink:href="dvr_8c_source.html" target="_top" xlink:title=" ">
<polygon fill="white" stroke="#666666" points="226,-24.5 118,-24.5 118,-5.5 226,-5.5 226,-24.5"/>
<text text-anchor="middle" x="172" y="-12.5" font-family="Helvetica,sans-Serif" font-size="10.00">iop/dvrp/dvr/src/dvr.c</text>
</a>
</g>
</g>
<!-- Node1&#45;&gt;Node3 -->
<g id="edge2" class="edge">
<title>Node1&#45;&gt;Node3</title>
<path fill="none" stroke="#63b8ff" d="M675.75,-75.83C576.93,-69.35 391.44,-54.94 235,-30 226.48,-28.64 217.39,-26.83 208.83,-24.97"/>
<polygon fill="#63b8ff" stroke="#63b8ff" points="675.36,-79.31 685.57,-76.46 675.81,-72.33 675.36,-79.31"/>
</g>
<!-- Node4 -->
<g id="node4" class="node">
<title>Node4</title>
<g id="a_node4"><a xlink:href="iop_2dvrp_2dvr_2src_2irx__imports_8h_source.html" target="_top" xlink:title=" ">
<polygon fill="white" stroke="#666666" points="341.5,-30 244.5,-30 244.5,0 341.5,0 341.5,-30"/>
<text text-anchor="start" x="252.5" y="-18" font-family="Helvetica,sans-Serif" font-size="10.00">iop/dvrp/dvr/src/irx</text>
<text text-anchor="middle" x="293" y="-7" font-family="Helvetica,sans-Serif" font-size="10.00">_imports.h</text>
</a>
</g>
</g>
<!-- Node1&#45;&gt;Node4 -->
<g id="edge3" class="edge">
<title>Node1&#45;&gt;Node4</title>
<path fill="none" stroke="#63b8ff" d="M675.98,-73.62C596.55,-65.82 463.32,-51 350,-30 347.29,-29.5 344.53,-28.95 341.74,-28.36"/>
<polygon fill="#63b8ff" stroke="#63b8ff" points="675.5,-77.09 685.79,-74.58 676.18,-70.12 675.5,-77.09"/>
</g>
<!-- Node5 -->
<g id="node5" class="node">
<title>Node5</title>
<g id="a_node5"><a xlink:href="dvrav_8c_source.html" target="_top" xlink:title=" ">
<polygon fill="white" stroke="#666666" points="454.5,-30 359.5,-30 359.5,0 454.5,0 454.5,-30"/>
<text text-anchor="start" x="367.5" y="-18" font-family="Helvetica,sans-Serif" font-size="10.00">iop/dvrp/dvrav/src</text>
<text text-anchor="middle" x="407" y="-7" font-family="Helvetica,sans-Serif" font-size="10.00">/dvrav.c</text>
</a>
</g>
</g>
<!-- Node1&#45;&gt;Node5 -->
<g id="edge4" class="edge">
<title>Node1&#45;&gt;Node5</title>
<path fill="none" stroke="#63b8ff" d="M676.1,-69.05C618.66,-59.72 535.28,-45.4 463,-30 460.35,-29.44 457.64,-28.84 454.91,-28.21"/>
<polygon fill="#63b8ff" stroke="#63b8ff" points="675.31,-72.47 685.74,-70.61 676.42,-65.56 675.31,-72.47"/>
</g>
<!-- Node6 -->
<g id="node6" class="node">
<title>Node6</title>
<g id="a_node6"><a xlink:href="iop_2dvrp_2dvrav_2src_2irx__imports_8h_source.html" target="_top" xlink:title=" ">
<polygon fill="white" stroke="#666666" points="567.5,-30 472.5,-30 472.5,0 567.5,0 567.5,-30"/>
<text text-anchor="start" x="480.5" y="-18" font-family="Helvetica,sans-Serif" font-size="10.00">iop/dvrp/dvrav/src</text>
<text text-anchor="middle" x="520" y="-7" font-family="Helvetica,sans-Serif" font-size="10.00">/irx_imports.h</text>
</a>
</g>
</g>
<!-- Node1&#45;&gt;Node6 -->
<g id="edge5" class="edge">
<title>Node1&#45;&gt;Node6</title>
<path fill="none" stroke="#63b8ff" d="M683.93,-62.42C647.27,-52.04 601.56,-39.1 567.73,-29.52"/>
<polygon fill="#63b8ff" stroke="#63b8ff" points="682.97,-65.79 693.54,-65.14 684.88,-59.05 682.97,-65.79"/>
</g>
<!-- Node7 -->
<g id="node7" class="node">
<title>Node7</title>
<g id="a_node7"><a xlink:href="dvrdv_8c_source.html" target="_top" xlink:title=" ">
<polygon fill="white" stroke="#666666" points="680.5,-30 585.5,-30 585.5,0 680.5,0 680.5,-30"/>
<text text-anchor="start" x="593.5" y="-18" font-family="Helvetica,sans-Serif" font-size="10.00">iop/dvrp/dvrdv/src</text>
<text text-anchor="middle" x="633" y="-7" font-family="Helvetica,sans-Serif" font-size="10.00">/dvrdv.c</text>
</a>
</g>
</g>
<!-- Node1&#45;&gt;Node7 -->
<g id="edge6" class="edge">
<title>Node1&#45;&gt;Node7</title>
<path fill="none" stroke="#63b8ff" d="M711.01,-60.18C693.95,-50.52 673.82,-39.12 658.27,-30.31"/>
<polygon fill="#63b8ff" stroke="#63b8ff" points="708.9,-63.01 719.32,-64.89 712.35,-56.92 708.9,-63.01"/>
</g>
<!-- Node8 -->
<g id="node8" class="node">
<title>Node8</title>
<g id="a_node8"><a xlink:href="iop_2dvrp_2dvrdv_2src_2irx__imports_8h_source.html" target="_top" xlink:title=" ">
<polygon fill="white" stroke="#666666" points="793.5,-30 698.5,-30 698.5,0 793.5,0 793.5,-30"/>
<text text-anchor="start" x="706.5" y="-18" font-family="Helvetica,sans-Serif" font-size="10.00">iop/dvrp/dvrdv/src</text>
<text text-anchor="middle" x="746" y="-7" font-family="Helvetica,sans-Serif" font-size="10.00">/irx_imports.h</text>
</a>
</g>
</g>
<!-- Node1&#45;&gt;Node8 -->
<g id="edge7" class="edge">
<title>Node1&#45;&gt;Node8</title>
<path fill="none" stroke="#63b8ff" d="M746,-54.39C746,-46.13 746,-37.28 746,-30.16"/>
<polygon fill="#63b8ff" stroke="#63b8ff" points="742.5,-54.28 746,-64.28 749.5,-54.28 742.5,-54.28"/>
</g>
<!-- Node9 -->
<g id="node9" class="node">
<title>Node9</title>
<g id="a_node9"><a xlink:href="dvrfile_8c_source.html" target="_top" xlink:title=" ">
<polygon fill="white" stroke="#666666" points="908,-30 812,-30 812,0 908,0 908,-30"/>
<text text-anchor="start" x="820" y="-18" font-family="Helvetica,sans-Serif" font-size="10.00">iop/dvrp/dvrfile/src</text>
<text text-anchor="middle" x="860" y="-7" font-family="Helvetica,sans-Serif" font-size="10.00">/dvrfile.c</text>
</a>
</g>
</g>
<!-- Node1&#45;&gt;Node9 -->
<g id="edge8" class="edge">
<title>Node1&#45;&gt;Node9</title>
<path fill="none" stroke="#63b8ff" d="M781.3,-60.18C798.51,-50.52 818.82,-39.12 834.5,-30.31"/>
<polygon fill="#63b8ff" stroke="#63b8ff" points="779.91,-56.95 772.9,-64.9 783.34,-63.05 779.91,-56.95"/>
</g>
<!-- Node10 -->
<g id="node10" class="node">
<title>Node10</title>
<g id="a_node10"><a xlink:href="iop_2dvrp_2dvrfile_2src_2irx__imports_8h_source.html" target="_top" xlink:title=" ">
<polygon fill="white" stroke="#666666" points="1022,-30 926,-30 926,0 1022,0 1022,-30"/>
<text text-anchor="start" x="934" y="-18" font-family="Helvetica,sans-Serif" font-size="10.00">iop/dvrp/dvrfile/src</text>
<text text-anchor="middle" x="974" y="-7" font-family="Helvetica,sans-Serif" font-size="10.00">/irx_imports.h</text>
</a>
</g>
</g>
<!-- Node1&#45;&gt;Node10 -->
<g id="edge9" class="edge">
<title>Node1&#45;&gt;Node10</title>
<path fill="none" stroke="#63b8ff" d="M808.14,-62.56C845.21,-52.15 891.57,-39.14 925.85,-29.52"/>
<polygon fill="#63b8ff" stroke="#63b8ff" points="807.59,-59.08 798.91,-65.15 809.48,-65.82 807.59,-59.08"/>
</g>
<!-- Node11 -->
<g id="node11" class="node">
<title>Node11</title>
<g id="a_node11"><a xlink:href="dvripl_8c_source.html" target="_top" xlink:title=" ">
<polygon fill="white" stroke="#666666" points="1134,-30 1040,-30 1040,0 1134,0 1134,-30"/>
<text text-anchor="start" x="1048" y="-18" font-family="Helvetica,sans-Serif" font-size="10.00">iop/dvrp/dvripl/src</text>
<text text-anchor="middle" x="1087" y="-7" font-family="Helvetica,sans-Serif" font-size="10.00">/dvripl.c</text>
</a>
</g>
</g>
<!-- Node1&#45;&gt;Node11 -->
<g id="edge10" class="edge">
<title>Node1&#45;&gt;Node11</title>
<path fill="none" stroke="#63b8ff" d="M816.12,-69.13C873.98,-59.82 958.1,-45.49 1031,-30 1033.84,-29.4 1036.76,-28.75 1039.7,-28.08"/>
<polygon fill="#63b8ff" stroke="#63b8ff" points="815.73,-65.65 806.41,-70.68 816.83,-72.56 815.73,-65.65"/>
</g>
<!-- Node12 -->
<g id="node12" class="node">
<title>Node12</title>
<g id="a_node12"><a xlink:href="iop_2dvrp_2dvripl_2src_2irx__imports_8h_source.html" target="_top" xlink:title=" ">
<polygon fill="white" stroke="#666666" points="1246,-30 1152,-30 1152,0 1246,0 1246,-30"/>
<text text-anchor="start" x="1160" y="-18" font-family="Helvetica,sans-Serif" font-size="10.00">iop/dvrp/dvripl/src</text>
<text text-anchor="middle" x="1199" y="-7" font-family="Helvetica,sans-Serif" font-size="10.00">/irx_imports.h</text>
</a>
</g>
</g>
<!-- Node1&#45;&gt;Node12 -->
<g id="edge11" class="edge">
<title>Node1&#45;&gt;Node12</title>
<path fill="none" stroke="#63b8ff" d="M816.21,-73.72C895.86,-66.01 1029.43,-51.27 1143,-30 1145.86,-29.47 1148.78,-28.87 1151.73,-28.24"/>
<polygon fill="#63b8ff" stroke="#63b8ff" points="815.99,-70.23 806.37,-74.66 816.66,-77.19 815.99,-70.23"/>
</g>
<!-- Node13 -->
<g id="node13" class="node">
<title>Node13</title>
<g id="a_node13"><a xlink:href="dvrmisc_8c_source.html" target="_top" xlink:title=" ">
<polygon fill="white" stroke="#666666" points="1369.5,-30 1264.5,-30 1264.5,0 1369.5,0 1369.5,-30"/>
<text text-anchor="start" x="1272.5" y="-18" font-family="Helvetica,sans-Serif" font-size="10.00">iop/dvrp/dvrmisc/src</text>
<text text-anchor="middle" x="1317" y="-7" font-family="Helvetica,sans-Serif" font-size="10.00">/dvrmisc.c</text>
</a>
</g>
</g>
<!-- Node1&#45;&gt;Node13 -->
<g id="edge12" class="edge">
<title>Node1&#45;&gt;Node13</title>
<path fill="none" stroke="#63b8ff" d="M815.98,-75.89C914.43,-69.47 1099.22,-55.14 1255,-30 1258.05,-29.51 1261.18,-28.96 1264.32,-28.36"/>
<polygon fill="#63b8ff" stroke="#63b8ff" points="815.97,-72.38 806.21,-76.51 816.42,-79.36 815.97,-72.38"/>
</g>
<!-- Node14 -->
<g id="node14" class="node">
<title>Node14</title>
<g id="a_node14"><a xlink:href="iop_2dvrp_2dvrmisc_2src_2irx__imports_8h_source.html" target="_top" xlink:title=" ">
<polygon fill="white" stroke="#666666" points="1492.5,-30 1387.5,-30 1387.5,0 1492.5,0 1492.5,-30"/>
<text text-anchor="start" x="1395.5" y="-18" font-family="Helvetica,sans-Serif" font-size="10.00">iop/dvrp/dvrmisc/src</text>
<text text-anchor="middle" x="1440" y="-7" font-family="Helvetica,sans-Serif" font-size="10.00">/irx_imports.h</text>
</a>
</g>
</g>
<!-- Node1&#45;&gt;Node14 -->
<g id="edge13" class="edge">
<title>Node1&#45;&gt;Node14</title>
<path fill="none" stroke="#63b8ff" d="M816.08,-77.82C933.23,-73.44 1176,-61.14 1379,-30 1381.68,-29.59 1384.43,-29.12 1387.19,-28.62"/>
<polygon fill="#63b8ff" stroke="#63b8ff" points="816.18,-74.32 806.31,-78.18 816.44,-81.31 816.18,-74.32"/>
</g>
</g>
</svg>
