<?xml version="1.0" encoding="UTF-8" standalone="no"?>
<!DOCTYPE svg PUBLIC "-//W3C//DTD SVG 1.1//EN"
 "http://www.w3.org/Graphics/SVG/1.1/DTD/svg11.dtd">
<!-- Generated by graphviz version 7.0.5 (20221223.1930)
 -->
<!-- Title: common/include/pwroff_rpc.h Pages: 1 -->
<svg width="236pt" height="104pt"
 viewBox="0.00 0.00 236.00 104.00" xmlns="http://www.w3.org/2000/svg" xmlns:xlink="http://www.w3.org/1999/xlink">
<g id="graph0" class="graph" transform="scale(1 1) rotate(0) translate(4 100)">
<title>common/include/pwroff_rpc.h</title>
<!-- Node1 -->
<g id="node1" class="node">
<title>Node1</title>
<g id="a_node1"><a xlink:title=" ">
<polygon fill="#999999" stroke="#666666" points="169.5,-96 52.5,-96 52.5,-66 169.5,-66 169.5,-96"/>
<text text-anchor="start" x="60.5" y="-84" font-family="Helvetica,sans-Serif" font-size="10.00">common/include/pwroff</text>
<text text-anchor="middle" x="111" y="-73" font-family="Helvetica,sans-Serif" font-size="10.00">_rpc.h</text>
</a>
</g>
</g>
<!-- Node2 -->
<g id="node2" class="node">
<title>Node2</title>
<g id="a_node2"><a xlink:href="ee_2rpc_2poweroff_2src_2poweroff_8c_source.html" target="_top" xlink:title=" ">
<polygon fill="white" stroke="#666666" points="100,-30 0,-30 0,0 100,0 100,-30"/>
<text text-anchor="start" x="8" y="-18" font-family="Helvetica,sans-Serif" font-size="10.00">ee/rpc/poweroff/src</text>
<text text-anchor="middle" x="50" y="-7" font-family="Helvetica,sans-Serif" font-size="10.00">/poweroff.c</text>
</a>
</g>
</g>
<!-- Node1&#45;&gt;Node2 -->
<g id="edge1" class="edge">
<title>Node1&#45;&gt;Node2</title>
<path fill="none" stroke="#63b8ff" d="M89.58,-57.53C80.91,-48.43 71.15,-38.19 63.5,-30.16"/>
<polygon fill="#63b8ff" stroke="#63b8ff" points="86.98,-59.88 96.42,-64.7 92.05,-55.05 86.98,-59.88"/>
</g>
<!-- Node3 -->
<g id="node3" class="node">
<title>Node3</title>
<g id="a_node3"><a xlink:href="iop_2dev9_2poweroff_2src_2poweroff_8c_source.html" target="_top" xlink:title=" ">
<polygon fill="white" stroke="#666666" points="228,-30 118,-30 118,0 228,0 228,-30"/>
<text text-anchor="start" x="126" y="-18" font-family="Helvetica,sans-Serif" font-size="10.00">iop/dev9/poweroff/src</text>
<text text-anchor="middle" x="173" y="-7" font-family="Helvetica,sans-Serif" font-size="10.00">/poweroff.c</text>
</a>
</g>
</g>
<!-- Node1&#45;&gt;Node3 -->
<g id="edge2" class="edge">
<title>Node1&#45;&gt;Node3</title>
<path fill="none" stroke="#63b8ff" d="M132.5,-57.81C141.38,-48.64 151.42,-38.28 159.28,-30.16"/>
<polygon fill="#63b8ff" stroke="#63b8ff" points="130.26,-55.09 125.81,-64.71 135.28,-59.96 130.26,-55.09"/>
</g>
</g>
</svg>
