<?xml version="1.0" encoding="UTF-8" standalone="no"?>
<!DOCTYPE svg PUBLIC "-//W3C//DTD SVG 1.1//EN"
 "http://www.w3.org/Graphics/SVG/1.1/DTD/svg11.dtd">
<!-- Generated by graphviz version 7.0.5 (20221223.1930)
 -->
<!-- Title: iop/system/rmman/include/rmman.h Pages: 1 -->
<svg width="209pt" height="203pt"
 viewBox="0.00 0.00 208.50 203.00" xmlns="http://www.w3.org/2000/svg" xmlns:xlink="http://www.w3.org/1999/xlink">
<g id="graph0" class="graph" transform="scale(1 1) rotate(0) translate(4 199)">
<title>iop/system/rmman/include/rmman.h</title>
<!-- Node1 -->
<g id="node1" class="node">
<title>Node1</title>
<g id="a_node1"><a xlink:title=" ">
<polygon fill="#999999" stroke="#666666" points="148,-195 17,-195 17,-165 148,-165 148,-195"/>
<text text-anchor="start" x="25" y="-183" font-family="Helvetica,sans-Serif" font-size="10.00">iop/system/rmman/include</text>
<text text-anchor="middle" x="82.5" y="-172" font-family="Helvetica,sans-Serif" font-size="10.00">/rmman.h</text>
</a>
</g>
</g>
<!-- Node2 -->
<g id="node2" class="node">
<title>Node2</title>
<g id="a_node2"><a xlink:title=" ">
<polygon fill="#e0e0e0" stroke="#999999" points="47,-129 0,-129 0,-110 47,-110 47,-129"/>
<text text-anchor="middle" x="23.5" y="-117" font-family="Helvetica,sans-Serif" font-size="10.00">types.h</text>
</a>
</g>
</g>
<!-- Node1&#45;&gt;Node2 -->
<g id="edge1" class="edge">
<title>Node1&#45;&gt;Node2</title>
<path fill="none" stroke="#63b8ff" d="M67.92,-164.54C59.52,-156.22 48.94,-145.72 40.21,-137.07"/>
<polygon fill="#63b8ff" stroke="#63b8ff" points="42.89,-134.8 33.32,-130.24 37.96,-139.77 42.89,-134.8"/>
</g>
<!-- Node3 -->
<g id="node3" class="node">
<title>Node3</title>
<g id="a_node3"><a xlink:href="irx_8h.html" target="_top" xlink:title=" ">
<polygon fill="white" stroke="#666666" points="99.5,-129 65.5,-129 65.5,-110 99.5,-110 99.5,-129"/>
<text text-anchor="middle" x="82.5" y="-117" font-family="Helvetica,sans-Serif" font-size="10.00">irx.h</text>
</a>
</g>
</g>
<!-- Node1&#45;&gt;Node3 -->
<g id="edge2" class="edge">
<title>Node1&#45;&gt;Node3</title>
<path fill="none" stroke="#63b8ff" d="M82.5,-164.54C82.5,-157.34 82.5,-148.53 82.5,-140.68"/>
<polygon fill="#63b8ff" stroke="#63b8ff" points="86,-140.69 82.5,-130.69 79,-140.69 86,-140.69"/>
</g>
<!-- Node7 -->
<g id="node7" class="node">
<title>Node7</title>
<g id="a_node7"><a xlink:href="librm-common_8h.html" target="_top" xlink:title=" ">
<polygon fill="white" stroke="#666666" points="200.5,-74 114.5,-74 114.5,-55 200.5,-55 200.5,-74"/>
<text text-anchor="middle" x="157.5" y="-62" font-family="Helvetica,sans-Serif" font-size="10.00">librm&#45;common.h</text>
</a>
</g>
</g>
<!-- Node1&#45;&gt;Node7 -->
<g id="edge6" class="edge">
<title>Node1&#45;&gt;Node7</title>
<path fill="none" stroke="#63b8ff" d="M92,-164.63C105.61,-144.03 130.66,-106.12 145.52,-83.63"/>
<polygon fill="#63b8ff" stroke="#63b8ff" points="148.3,-85.76 150.9,-75.49 142.46,-81.91 148.3,-85.76"/>
</g>
<!-- Node4 -->
<g id="node4" class="node">
<title>Node4</title>
<g id="a_node4"><a xlink:href="iop_2kernel_2include_2types_8h_source.html" target="_top" xlink:title=" ">
<polygon fill="white" stroke="#666666" points="96,-74 49,-74 49,-55 96,-55 96,-74"/>
<text text-anchor="middle" x="72.5" y="-62" font-family="Helvetica,sans-Serif" font-size="10.00">types.h</text>
</a>
</g>
</g>
<!-- Node3&#45;&gt;Node4 -->
<g id="edge3" class="edge">
<title>Node3&#45;&gt;Node4</title>
<path fill="none" stroke="#63b8ff" d="M80.85,-109.75C79.61,-103.19 77.87,-93.95 76.29,-85.6"/>
<polygon fill="#63b8ff" stroke="#63b8ff" points="79.76,-85.11 74.47,-75.93 72.88,-86.4 79.76,-85.11"/>
</g>
<!-- Node5 -->
<g id="node5" class="node">
<title>Node5</title>
<g id="a_node5"><a xlink:title=" ">
<polygon fill="#e0e0e0" stroke="#999999" points="98,-19 47,-19 47,0 98,0 98,-19"/>
<text text-anchor="middle" x="72.5" y="-7" font-family="Helvetica,sans-Serif" font-size="10.00">stddef.h</text>
</a>
</g>
</g>
<!-- Node4&#45;&gt;Node5 -->
<g id="edge4" class="edge">
<title>Node4&#45;&gt;Node5</title>
<path fill="none" stroke="#63b8ff" d="M72.5,-54.75C72.5,-48.27 72.5,-39.16 72.5,-30.9"/>
<polygon fill="#63b8ff" stroke="#63b8ff" points="76,-30.96 72.5,-20.96 69,-30.96 76,-30.96"/>
</g>
<!-- Node6 -->
<g id="node6" class="node">
<title>Node6</title>
<g id="a_node6"><a xlink:href="tamtypes_8h.html" target="_top" xlink:title=" ">
<polygon fill="white" stroke="#666666" points="184.5,-19 120.5,-19 120.5,0 184.5,0 184.5,-19"/>
<text text-anchor="middle" x="152.5" y="-7" font-family="Helvetica,sans-Serif" font-size="10.00">tamtypes.h</text>
</a>
</g>
</g>
<!-- Node4&#45;&gt;Node6 -->
<g id="edge5" class="edge">
<title>Node4&#45;&gt;Node6</title>
<path fill="none" stroke="#63b8ff" d="M86.07,-54.51C97.98,-46.62 115.55,-34.98 129.63,-25.65"/>
<polygon fill="#63b8ff" stroke="#63b8ff" points="131.46,-28.63 137.87,-20.19 127.6,-22.8 131.46,-28.63"/>
</g>
<!-- Node7&#45;&gt;Node6 -->
<g id="edge7" class="edge">
<title>Node7&#45;&gt;Node6</title>
<path fill="none" stroke="#63b8ff" d="M156.67,-54.75C156.06,-48.27 155.2,-39.16 154.42,-30.9"/>
<polygon fill="#63b8ff" stroke="#63b8ff" points="157.91,-30.58 153.49,-20.95 150.94,-31.23 157.91,-30.58"/>
</g>
</g>
</svg>
