<?xml version="1.0" encoding="UTF-8" standalone="no"?>
<!DOCTYPE svg PUBLIC "-//W3C//DTD SVG 1.1//EN"
 "http://www.w3.org/Graphics/SVG/1.1/DTD/svg11.dtd">
<!-- Generated by graphviz version 7.0.5 (20221223.1930)
 -->
<!-- Title: ee/kernel/include/rom0_info.h Pages: 1 -->
<svg width="512pt" height="104pt"
 viewBox="0.00 0.00 512.00 104.00" xmlns="http://www.w3.org/2000/svg" xmlns:xlink="http://www.w3.org/1999/xlink">
<g id="graph0" class="graph" transform="scale(1 1) rotate(0) translate(4 100)">
<title>ee/kernel/include/rom0_info.h</title>
<!-- Node1 -->
<g id="node1" class="node">
<title>Node1</title>
<g id="a_node1"><a xlink:title=" ">
<polygon fill="#999999" stroke="#666666" points="314.5,-96 199.5,-96 199.5,-66 314.5,-66 314.5,-96"/>
<text text-anchor="start" x="207.5" y="-84" font-family="Helvetica,sans-Serif" font-size="10.00">ee/kernel/include/rom0</text>
<text text-anchor="middle" x="257" y="-73" font-family="Helvetica,sans-Serif" font-size="10.00">_info.h</text>
</a>
</g>
</g>
<!-- Node2 -->
<g id="node2" class="node">
<title>Node2</title>
<g id="a_node2"><a xlink:href="scr__printf_8c.html" target="_top" xlink:title=" ">
<polygon fill="white" stroke="#666666" points="124,-24.5 0,-24.5 0,-5.5 124,-5.5 124,-24.5"/>
<text text-anchor="middle" x="62" y="-12.5" font-family="Helvetica,sans-Serif" font-size="10.00">ee/debug/src/scr_printf.c</text>
</a>
</g>
</g>
<!-- Node1&#45;&gt;Node2 -->
<g id="edge1" class="edge">
<title>Node1&#45;&gt;Node2</title>
<path fill="none" stroke="#63b8ff" d="M202.65,-62.16C165.8,-50.07 118.64,-34.59 89.38,-24.99"/>
<polygon fill="#63b8ff" stroke="#63b8ff" points="201.21,-65.37 211.8,-65.17 203.39,-58.72 201.21,-65.37"/>
</g>
<!-- Node3 -->
<g id="node3" class="node">
<title>Node3</title>
<g id="a_node3"><a xlink:href="graph__mode_8c_source.html" target="_top" xlink:title=" ">
<polygon fill="white" stroke="#666666" points="240,-30 142,-30 142,0 240,0 240,-30"/>
<text text-anchor="start" x="150" y="-18" font-family="Helvetica,sans-Serif" font-size="10.00">ee/graph/src/graph</text>
<text text-anchor="middle" x="191" y="-7" font-family="Helvetica,sans-Serif" font-size="10.00">_mode.c</text>
</a>
</g>
</g>
<!-- Node1&#45;&gt;Node3 -->
<g id="edge2" class="edge">
<title>Node1&#45;&gt;Node3</title>
<path fill="none" stroke="#63b8ff" d="M234.11,-57.81C224.66,-48.64 213.97,-38.28 205.61,-30.16"/>
<polygon fill="#63b8ff" stroke="#63b8ff" points="231.65,-60.29 241.27,-64.74 236.52,-55.27 231.65,-60.29"/>
</g>
<!-- Node4 -->
<g id="node4" class="node">
<title>Node4</title>
<g id="a_node4"><a xlink:href="osd__config_8c.html" target="_top" xlink:title=" ">
<polygon fill="white" stroke="#666666" points="388,-24.5 258,-24.5 258,-5.5 388,-5.5 388,-24.5"/>
<text text-anchor="middle" x="323" y="-12.5" font-family="Helvetica,sans-Serif" font-size="10.00">ee/kernel/src/osd_config.c</text>
</a>
</g>
</g>
<!-- Node1&#45;&gt;Node4 -->
<g id="edge3" class="edge">
<title>Node1&#45;&gt;Node4</title>
<path fill="none" stroke="#63b8ff" d="M279.75,-57.94C291.46,-46.58 305.1,-33.36 313.88,-24.84"/>
<polygon fill="#63b8ff" stroke="#63b8ff" points="277.48,-55.27 272.73,-64.74 282.35,-60.29 277.48,-55.27"/>
</g>
<!-- Node5 -->
<g id="node5" class="node">
<title>Node5</title>
<g id="a_node5"><a xlink:href="rom0__info_8c.html" target="_top" xlink:title=" ">
<polygon fill="white" stroke="#666666" points="504,-30 406,-30 406,0 504,0 504,-30"/>
<text text-anchor="start" x="414" y="-18" font-family="Helvetica,sans-Serif" font-size="10.00">ee/kernel/src/rom0</text>
<text text-anchor="middle" x="455" y="-7" font-family="Helvetica,sans-Serif" font-size="10.00">_info.c</text>
</a>
</g>
</g>
<!-- Node1&#45;&gt;Node5 -->
<g id="edge4" class="edge">
<title>Node1&#45;&gt;Node5</title>
<path fill="none" stroke="#63b8ff" d="M312.07,-62.2C343.06,-52.18 381.26,-39.83 410.37,-30.43"/>
<polygon fill="#63b8ff" stroke="#63b8ff" points="311.31,-58.77 302.88,-65.17 313.47,-65.43 311.31,-58.77"/>
</g>
</g>
</svg>
