<?xml version="1.0" encoding="UTF-8" standalone="no"?>
<!DOCTYPE svg PUBLIC "-//W3C//DTD SVG 1.1//EN"
 "http://www.w3.org/Graphics/SVG/1.1/DTD/svg11.dtd">
<!-- Generated by graphviz version 7.0.5 (20221223.1930)
 -->
<!-- Title: ee/kernel/src/rom0_info.c Pages: 1 -->
<svg width="192pt" height="203pt"
 viewBox="0.00 0.00 191.50 203.00" xmlns="http://www.w3.org/2000/svg" xmlns:xlink="http://www.w3.org/1999/xlink">
<g id="graph0" class="graph" transform="scale(1 1) rotate(0) translate(4 199)">
<title>ee/kernel/src/rom0_info.c</title>
<!-- Node1 -->
<g id="node1" class="node">
<title>Node1</title>
<g id="a_node1"><a xlink:title=" ">
<polygon fill="#999999" stroke="#666666" points="119.5,-195 21.5,-195 21.5,-165 119.5,-165 119.5,-195"/>
<text text-anchor="start" x="29.5" y="-183" font-family="Helvetica,sans-Serif" font-size="10.00">ee/kernel/src/rom0</text>
<text text-anchor="middle" x="70.5" y="-172" font-family="Helvetica,sans-Serif" font-size="10.00">_info.c</text>
</a>
</g>
</g>
<!-- Node2 -->
<g id="node2" class="node">
<title>Node2</title>
<g id="a_node2"><a xlink:href="rom0__info_8h.html" target="_top" xlink:title=" ">
<polygon fill="white" stroke="#666666" points="67,-129 0,-129 0,-110 67,-110 67,-129"/>
<text text-anchor="middle" x="33.5" y="-117" font-family="Helvetica,sans-Serif" font-size="10.00">rom0_info.h</text>
</a>
</g>
</g>
<!-- Node1&#45;&gt;Node2 -->
<g id="edge1" class="edge">
<title>Node1&#45;&gt;Node2</title>
<path fill="none" stroke="#63b8ff" d="M61.35,-164.54C56.42,-156.74 50.28,-147.03 45.02,-138.71"/>
<polygon fill="#63b8ff" stroke="#63b8ff" points="48.1,-137.03 39.8,-130.45 42.18,-140.78 48.1,-137.03"/>
</g>
<!-- Node3 -->
<g id="node3" class="node">
<title>Node3</title>
<g id="a_node3"><a xlink:href="fileio_8h.html" target="_top" xlink:title=" ">
<polygon fill="white" stroke="#666666" points="129.5,-129 85.5,-129 85.5,-110 129.5,-110 129.5,-129"/>
<text text-anchor="middle" x="107.5" y="-117" font-family="Helvetica,sans-Serif" font-size="10.00">fileio.h</text>
</a>
</g>
</g>
<!-- Node1&#45;&gt;Node3 -->
<g id="edge2" class="edge">
<title>Node1&#45;&gt;Node3</title>
<path fill="none" stroke="#63b8ff" d="M79.65,-164.54C84.58,-156.74 90.72,-147.03 95.98,-138.71"/>
<polygon fill="#63b8ff" stroke="#63b8ff" points="98.82,-140.78 101.2,-130.45 92.9,-137.03 98.82,-140.78"/>
</g>
<!-- Node4 -->
<g id="node4" class="node">
<title>Node4</title>
<g id="a_node4"><a xlink:href="io__common_8h.html" target="_top" xlink:title=" ">
<polygon fill="white" stroke="#666666" points="144.5,-74 70.5,-74 70.5,-55 144.5,-55 144.5,-74"/>
<text text-anchor="middle" x="107.5" y="-62" font-family="Helvetica,sans-Serif" font-size="10.00">io_common.h</text>
</a>
</g>
</g>
<!-- Node3&#45;&gt;Node4 -->
<g id="edge3" class="edge">
<title>Node3&#45;&gt;Node4</title>
<path fill="none" stroke="#63b8ff" d="M107.5,-109.75C107.5,-103.27 107.5,-94.16 107.5,-85.9"/>
<polygon fill="#63b8ff" stroke="#63b8ff" points="111,-85.96 107.5,-75.96 104,-85.96 111,-85.96"/>
</g>
<!-- Node5 -->
<g id="node5" class="node">
<title>Node5</title>
<g id="a_node5"><a xlink:href="fcntl_8h_source.html" target="_top" xlink:title=" ">
<polygon fill="white" stroke="#666666" points="97,-19 36,-19 36,0 97,0 97,-19"/>
<text text-anchor="middle" x="66.5" y="-7" font-family="Helvetica,sans-Serif" font-size="10.00">sys/fcntl.h</text>
</a>
</g>
</g>
<!-- Node4&#45;&gt;Node5 -->
<g id="edge4" class="edge">
<title>Node4&#45;&gt;Node5</title>
<path fill="none" stroke="#63b8ff" d="M100.73,-54.75C95.18,-47.58 87.16,-37.2 80.27,-28.3"/>
<polygon fill="#63b8ff" stroke="#63b8ff" points="83.23,-26.41 74.34,-20.64 77.69,-30.69 83.23,-26.41"/>
</g>
<!-- Node6 -->
<g id="node6" class="node">
<title>Node6</title>
<g id="a_node6"><a xlink:href="unistd_8h_source.html" target="_top" xlink:title=" ">
<polygon fill="white" stroke="#666666" points="183.5,-19 115.5,-19 115.5,0 183.5,0 183.5,-19"/>
<text text-anchor="middle" x="149.5" y="-7" font-family="Helvetica,sans-Serif" font-size="10.00">sys/unistd.h</text>
</a>
</g>
</g>
<!-- Node4&#45;&gt;Node6 -->
<g id="edge5" class="edge">
<title>Node4&#45;&gt;Node6</title>
<path fill="none" stroke="#63b8ff" d="M114.44,-54.75C120.12,-47.58 128.34,-37.2 135.39,-28.3"/>
<polygon fill="#63b8ff" stroke="#63b8ff" points="138.01,-30.64 141.47,-20.63 132.52,-26.29 138.01,-30.64"/>
</g>
</g>
</svg>
