<?xml version="1.0" encoding="UTF-8" standalone="no"?>
<!DOCTYPE svg PUBLIC "-//W3C//DTD SVG 1.1//EN"
 "http://www.w3.org/Graphics/SVG/1.1/DTD/svg11.dtd">
<!-- Generated by graphviz version 7.0.5 (20221223.1930)
 -->
<!-- Title: iop/fs/romdrv/include/romdrv.h Pages: 1 -->
<svg width="639pt" height="104pt"
 viewBox="0.00 0.00 639.00 104.00" xmlns="http://www.w3.org/2000/svg" xmlns:xlink="http://www.w3.org/1999/xlink">
<g id="graph0" class="graph" transform="scale(1 1) rotate(0) translate(4 100)">
<title>iop/fs/romdrv/include/romdrv.h</title>
<!-- Node1 -->
<g id="node1" class="node">
<title>Node1</title>
<g id="a_node1"><a xlink:title=" ">
<polygon fill="#999999" stroke="#666666" points="370,-96 263,-96 263,-66 370,-66 370,-96"/>
<text text-anchor="start" x="271" y="-84" font-family="Helvetica,sans-Serif" font-size="10.00">iop/fs/romdrv/include</text>
<text text-anchor="middle" x="316.5" y="-73" font-family="Helvetica,sans-Serif" font-size="10.00">/romdrv.h</text>
</a>
</g>
</g>
<!-- Node2 -->
<g id="node2" class="node">
<title>Node2</title>
<g id="a_node2"><a xlink:href="adddrv_8c_source.html" target="_top" xlink:title=" ">
<polygon fill="white" stroke="#666666" points="129,-24.5 0,-24.5 0,-5.5 129,-5.5 129,-24.5"/>
<text text-anchor="middle" x="64.5" y="-12.5" font-family="Helvetica,sans-Serif" font-size="10.00">iop/fs/adddrv/src/adddrv.c</text>
</a>
</g>
</g>
<!-- Node1&#45;&gt;Node2 -->
<g id="edge1" class="edge">
<title>Node1&#45;&gt;Node2</title>
<path fill="none" stroke="#63b8ff" d="M251.73,-63.55C203.27,-51.24 138.83,-34.88 99.58,-24.91"/>
<polygon fill="#63b8ff" stroke="#63b8ff" points="250.73,-66.91 261.28,-65.98 252.45,-60.12 250.73,-66.91"/>
</g>
<!-- Node3 -->
<g id="node3" class="node">
<title>Node3</title>
<g id="a_node3"><a xlink:href="iop_2fs_2adddrv_2src_2irx__imports_8h_source.html" target="_top" xlink:title=" ">
<polygon fill="white" stroke="#666666" points="249.5,-30 147.5,-30 147.5,0 249.5,0 249.5,-30"/>
<text text-anchor="start" x="155.5" y="-18" font-family="Helvetica,sans-Serif" font-size="10.00">iop/fs/adddrv/src/irx</text>
<text text-anchor="middle" x="198.5" y="-7" font-family="Helvetica,sans-Serif" font-size="10.00">_imports.h</text>
</a>
</g>
</g>
<!-- Node1&#45;&gt;Node3 -->
<g id="edge2" class="edge">
<title>Node1&#45;&gt;Node3</title>
<path fill="none" stroke="#63b8ff" d="M279.96,-60.18C262.15,-50.52 241.12,-39.12 224.89,-30.31"/>
<polygon fill="#63b8ff" stroke="#63b8ff" points="278.23,-63.22 288.69,-64.92 281.57,-57.07 278.23,-63.22"/>
</g>
<!-- Node4 -->
<g id="node4" class="node">
<title>Node4</title>
<g id="a_node4"><a xlink:href="addrom2_8c_source.html" target="_top" xlink:title=" ">
<polygon fill="white" stroke="#666666" points="365.5,-30 267.5,-30 267.5,0 365.5,0 365.5,-30"/>
<text text-anchor="start" x="275.5" y="-18" font-family="Helvetica,sans-Serif" font-size="10.00">iop/fs/addrom2/src</text>
<text text-anchor="middle" x="316.5" y="-7" font-family="Helvetica,sans-Serif" font-size="10.00">/addrom2.c</text>
</a>
</g>
</g>
<!-- Node1&#45;&gt;Node4 -->
<g id="edge3" class="edge">
<title>Node1&#45;&gt;Node4</title>
<path fill="none" stroke="#63b8ff" d="M316.5,-54.39C316.5,-46.13 316.5,-37.28 316.5,-30.16"/>
<polygon fill="#63b8ff" stroke="#63b8ff" points="313,-54.28 316.5,-64.28 320,-54.28 313,-54.28"/>
</g>
<!-- Node5 -->
<g id="node5" class="node">
<title>Node5</title>
<g id="a_node5"><a xlink:href="iop_2fs_2addrom2_2src_2irx__imports_8h_source.html" target="_top" xlink:title=" ">
<polygon fill="white" stroke="#666666" points="481.5,-30 383.5,-30 383.5,0 481.5,0 481.5,-30"/>
<text text-anchor="start" x="391.5" y="-18" font-family="Helvetica,sans-Serif" font-size="10.00">iop/fs/addrom2/src</text>
<text text-anchor="middle" x="432.5" y="-7" font-family="Helvetica,sans-Serif" font-size="10.00">/irx_imports.h</text>
</a>
</g>
</g>
<!-- Node1&#45;&gt;Node5 -->
<g id="edge4" class="edge">
<title>Node1&#45;&gt;Node5</title>
<path fill="none" stroke="#63b8ff" d="M352.42,-60.18C369.93,-50.52 390.6,-39.12 406.55,-30.31"/>
<polygon fill="#63b8ff" stroke="#63b8ff" points="350.92,-57.01 343.86,-64.91 354.3,-63.14 350.92,-57.01"/>
</g>
<!-- Node6 -->
<g id="node6" class="node">
<title>Node6</title>
<g id="a_node6"><a xlink:href="romdrv_8c_source.html" target="_top" xlink:title=" ">
<polygon fill="white" stroke="#666666" points="631,-24.5 500,-24.5 500,-5.5 631,-5.5 631,-24.5"/>
<text text-anchor="middle" x="565.5" y="-12.5" font-family="Helvetica,sans-Serif" font-size="10.00">iop/fs/romdrv/src/romdrv.c</text>
</a>
</g>
</g>
<!-- Node1&#45;&gt;Node6 -->
<g id="edge5" class="edge">
<title>Node1&#45;&gt;Node6</title>
<path fill="none" stroke="#63b8ff" d="M381.08,-63.4C428.82,-51.13 492.01,-34.89 530.65,-24.96"/>
<polygon fill="#63b8ff" stroke="#63b8ff" points="380.5,-59.94 371.69,-65.81 382.25,-66.72 380.5,-59.94"/>
</g>
</g>
</svg>
