<?xml version="1.0" encoding="UTF-8" standalone="no"?>
<!DOCTYPE svg PUBLIC "-//W3C//DTD SVG 1.1//EN"
 "http://www.w3.org/Graphics/SVG/1.1/DTD/svg11.dtd">
<!-- Generated by graphviz version 7.0.5 (20221223.1930)
 -->
<!-- Title: iop/system/mtapman/src/rpcservers.c Pages: 1 -->
<svg width="451pt" height="258pt"
 viewBox="0.00 0.00 451.00 258.00" xmlns="http://www.w3.org/2000/svg" xmlns:xlink="http://www.w3.org/1999/xlink">
<g id="graph0" class="graph" transform="scale(1 1) rotate(0) translate(4 254)">
<title>iop/system/mtapman/src/rpcservers.c</title>
<!-- Node1 -->
<g id="node1" class="node">
<title>Node1</title>
<g id="a_node1"><a xlink:title=" ">
<polygon fill="#999999" stroke="#666666" points="255,-250 148,-250 148,-220 255,-220 255,-250"/>
<text text-anchor="start" x="156" y="-238" font-family="Helvetica,sans-Serif" font-size="10.00">iop/system/mtapman</text>
<text text-anchor="middle" x="201.5" y="-227" font-family="Helvetica,sans-Serif" font-size="10.00">/src/rpcservers.c</text>
</a>
</g>
</g>
<!-- Node2 -->
<g id="node2" class="node">
<title>Node2</title>
<g id="a_node2"><a xlink:title=" ">
<polygon fill="#e0e0e0" stroke="#999999" points="47,-184 0,-184 0,-165 47,-165 47,-184"/>
<text text-anchor="middle" x="23.5" y="-172" font-family="Helvetica,sans-Serif" font-size="10.00">types.h</text>
</a>
</g>
</g>
<!-- Node1&#45;&gt;Node2 -->
<g id="edge1" class="edge">
<title>Node1&#45;&gt;Node2</title>
<path fill="none" stroke="#63b8ff" d="M157.5,-219.54C126.78,-209.44 86.35,-196.16 57.97,-186.83"/>
<polygon fill="#63b8ff" stroke="#63b8ff" points="59.38,-183.61 48.79,-183.81 57.2,-190.26 59.38,-183.61"/>
</g>
<!-- Node3 -->
<g id="node3" class="node">
<title>Node3</title>
<g id="a_node3"><a xlink:href="irx_8h.html" target="_top" xlink:title=" ">
<polygon fill="white" stroke="#666666" points="165.5,-129 131.5,-129 131.5,-110 165.5,-110 165.5,-129"/>
<text text-anchor="middle" x="148.5" y="-117" font-family="Helvetica,sans-Serif" font-size="10.00">irx.h</text>
</a>
</g>
</g>
<!-- Node1&#45;&gt;Node3 -->
<g id="edge2" class="edge">
<title>Node1&#45;&gt;Node3</title>
<path fill="none" stroke="#63b8ff" d="M188.95,-219.58C181.22,-210.04 171.64,-196.95 165.5,-184 158.97,-170.23 154.63,-153.56 151.97,-140.75"/>
<polygon fill="#63b8ff" stroke="#63b8ff" points="155.42,-140.15 150.13,-130.97 148.54,-141.44 155.42,-140.15"/>
</g>
<!-- Node7 -->
<g id="node7" class="node">
<title>Node7</title>
<g id="a_node7"><a xlink:href="stdio_8h.html" target="_top" xlink:title=" ">
<polygon fill="white" stroke="#666666" points="291,-184 246,-184 246,-165 291,-165 291,-184"/>
<text text-anchor="middle" x="268.5" y="-172" font-family="Helvetica,sans-Serif" font-size="10.00">stdio.h</text>
</a>
</g>
</g>
<!-- Node1&#45;&gt;Node7 -->
<g id="edge6" class="edge">
<title>Node1&#45;&gt;Node7</title>
<path fill="none" stroke="#63b8ff" d="M218.06,-219.54C227.79,-211.04 240.11,-200.29 250.14,-191.53"/>
<polygon fill="#63b8ff" stroke="#63b8ff" points="252.19,-194.38 257.42,-185.17 247.59,-189.11 252.19,-194.38"/>
</g>
<!-- Node9 -->
<g id="node9" class="node">
<title>Node9</title>
<g id="a_node9"><a xlink:href="freemtap_8h.html" target="_top" xlink:title=" ">
<polygon fill="white" stroke="#666666" points="371.5,-184 309.5,-184 309.5,-165 371.5,-165 371.5,-184"/>
<text text-anchor="middle" x="340.5" y="-172" font-family="Helvetica,sans-Serif" font-size="10.00">freemtap.h</text>
</a>
</g>
</g>
<!-- Node1&#45;&gt;Node9 -->
<g id="edge9" class="edge">
<title>Node1&#45;&gt;Node9</title>
<path fill="none" stroke="#63b8ff" d="M235.86,-219.54C258.28,-210.1 287.32,-197.88 309.12,-188.71"/>
<polygon fill="#63b8ff" stroke="#63b8ff" points="310.23,-192.04 318.09,-184.93 307.51,-185.59 310.23,-192.04"/>
</g>
<!-- Node10 -->
<g id="node10" class="node">
<title>Node10</title>
<g id="a_node10"><a xlink:href="sifman_8h.html" target="_top" xlink:title=" ">
<polygon fill="white" stroke="#666666" points="228,-184 175,-184 175,-165 228,-165 228,-184"/>
<text text-anchor="middle" x="201.5" y="-172" font-family="Helvetica,sans-Serif" font-size="10.00">sifman.h</text>
</a>
</g>
</g>
<!-- Node1&#45;&gt;Node10 -->
<g id="edge10" class="edge">
<title>Node1&#45;&gt;Node10</title>
<path fill="none" stroke="#63b8ff" d="M201.5,-219.54C201.5,-212.34 201.5,-203.53 201.5,-195.68"/>
<polygon fill="#63b8ff" stroke="#63b8ff" points="205,-195.69 201.5,-185.69 198,-195.69 205,-195.69"/>
</g>
<!-- Node11 -->
<g id="node11" class="node">
<title>Node11</title>
<g id="a_node11"><a xlink:title=" ">
<polygon fill="#e0e0e0" stroke="#999999" points="443,-184 390,-184 390,-165 443,-165 443,-184"/>
<text text-anchor="middle" x="416.5" y="-172" font-family="Helvetica,sans-Serif" font-size="10.00">sifcmd.h</text>
</a>
</g>
</g>
<!-- Node1&#45;&gt;Node11 -->
<g id="edge13" class="edge">
<title>Node1&#45;&gt;Node11</title>
<path fill="none" stroke="#63b8ff" d="M254.65,-219.54C293.19,-209.05 344.38,-195.12 378.79,-185.76"/>
<polygon fill="#63b8ff" stroke="#63b8ff" points="379.58,-189.17 388.31,-183.17 377.74,-182.42 379.58,-189.17"/>
</g>
<!-- Node12 -->
<g id="node12" class="node">
<title>Node12</title>
<g id="a_node12"><a xlink:href="thbase_8h.html" target="_top" xlink:title=" ">
<polygon fill="white" stroke="#666666" points="118,-184 65,-184 65,-165 118,-165 118,-184"/>
<text text-anchor="middle" x="91.5" y="-172" font-family="Helvetica,sans-Serif" font-size="10.00">thbase.h</text>
</a>
</g>
</g>
<!-- Node1&#45;&gt;Node12 -->
<g id="edge14" class="edge">
<title>Node1&#45;&gt;Node12</title>
<path fill="none" stroke="#63b8ff" d="M174.31,-219.54C157.13,-210.4 135.05,-198.66 118,-189.6"/>
<polygon fill="#63b8ff" stroke="#63b8ff" points="119.94,-186.66 109.47,-185.06 116.66,-192.84 119.94,-186.66"/>
</g>
<!-- Node4 -->
<g id="node4" class="node">
<title>Node4</title>
<g id="a_node4"><a xlink:href="iop_2kernel_2include_2types_8h_source.html" target="_top" xlink:title=" ">
<polygon fill="white" stroke="#666666" points="172,-74 125,-74 125,-55 172,-55 172,-74"/>
<text text-anchor="middle" x="148.5" y="-62" font-family="Helvetica,sans-Serif" font-size="10.00">types.h</text>
</a>
</g>
</g>
<!-- Node3&#45;&gt;Node4 -->
<g id="edge3" class="edge">
<title>Node3&#45;&gt;Node4</title>
<path fill="none" stroke="#63b8ff" d="M148.5,-109.75C148.5,-103.27 148.5,-94.16 148.5,-85.9"/>
<polygon fill="#63b8ff" stroke="#63b8ff" points="152,-85.96 148.5,-75.96 145,-85.96 152,-85.96"/>
</g>
<!-- Node5 -->
<g id="node5" class="node">
<title>Node5</title>
<g id="a_node5"><a xlink:title=" ">
<polygon fill="#e0e0e0" stroke="#999999" points="136,-19 85,-19 85,0 136,0 136,-19"/>
<text text-anchor="middle" x="110.5" y="-7" font-family="Helvetica,sans-Serif" font-size="10.00">stddef.h</text>
</a>
</g>
</g>
<!-- Node4&#45;&gt;Node5 -->
<g id="edge4" class="edge">
<title>Node4&#45;&gt;Node5</title>
<path fill="none" stroke="#63b8ff" d="M142.23,-54.75C137.14,-47.66 129.8,-37.42 123.47,-28.59"/>
<polygon fill="#63b8ff" stroke="#63b8ff" points="126.46,-26.76 117.79,-20.67 120.78,-30.84 126.46,-26.76"/>
</g>
<!-- Node6 -->
<g id="node6" class="node">
<title>Node6</title>
<g id="a_node6"><a xlink:href="tamtypes_8h.html" target="_top" xlink:title=" ">
<polygon fill="white" stroke="#666666" points="218.5,-19 154.5,-19 154.5,0 218.5,0 218.5,-19"/>
<text text-anchor="middle" x="186.5" y="-7" font-family="Helvetica,sans-Serif" font-size="10.00">tamtypes.h</text>
</a>
</g>
</g>
<!-- Node4&#45;&gt;Node6 -->
<g id="edge5" class="edge">
<title>Node4&#45;&gt;Node6</title>
<path fill="none" stroke="#63b8ff" d="M154.77,-54.75C159.86,-47.66 167.2,-37.42 173.53,-28.59"/>
<polygon fill="#63b8ff" stroke="#63b8ff" points="176.22,-30.84 179.21,-20.67 170.54,-26.76 176.22,-30.84"/>
</g>
<!-- Node7&#45;&gt;Node3 -->
<g id="edge8" class="edge">
<title>Node7&#45;&gt;Node3</title>
<path fill="none" stroke="#63b8ff" d="M248.14,-164.51C228.35,-155.77 198.14,-142.42 176.17,-132.72"/>
<polygon fill="#63b8ff" stroke="#63b8ff" points="177.78,-129.61 167.22,-128.77 174.95,-136.01 177.78,-129.61"/>
</g>
<!-- Node8 -->
<g id="node8" class="node">
<title>Node8</title>
<g id="a_node8"><a xlink:title=" ">
<polygon fill="#e0e0e0" stroke="#999999" points="294,-129 243,-129 243,-110 294,-110 294,-129"/>
<text text-anchor="middle" x="268.5" y="-117" font-family="Helvetica,sans-Serif" font-size="10.00">stdarg.h</text>
</a>
</g>
</g>
<!-- Node7&#45;&gt;Node8 -->
<g id="edge7" class="edge">
<title>Node7&#45;&gt;Node8</title>
<path fill="none" stroke="#63b8ff" d="M268.5,-164.75C268.5,-158.27 268.5,-149.16 268.5,-140.9"/>
<polygon fill="#63b8ff" stroke="#63b8ff" points="272,-140.96 268.5,-130.96 265,-140.96 272,-140.96"/>
</g>
<!-- Node10&#45;&gt;Node3 -->
<g id="edge12" class="edge">
<title>Node10&#45;&gt;Node3</title>
<path fill="none" stroke="#63b8ff" d="M192.75,-164.75C185.35,-157.35 174.54,-146.54 165.45,-137.45"/>
<polygon fill="#63b8ff" stroke="#63b8ff" points="168.06,-135.11 158.51,-130.51 163.11,-140.06 168.06,-135.11"/>
</g>
<!-- Node10&#45;&gt;Node4 -->
<g id="edge11" class="edge">
<title>Node10&#45;&gt;Node4</title>
<path fill="none" stroke="#63b8ff" d="M198.17,-164.71C193.38,-152.31 184.07,-129.06 174.5,-110 170.08,-101.2 164.66,-91.75 159.91,-83.83"/>
<polygon fill="#63b8ff" stroke="#63b8ff" points="163.01,-82.18 154.81,-75.47 157.04,-85.83 163.01,-82.18"/>
</g>
<!-- Node12&#45;&gt;Node3 -->
<g id="edge16" class="edge">
<title>Node12&#45;&gt;Node3</title>
<path fill="none" stroke="#63b8ff" d="M101.17,-164.51C109.24,-157 120.97,-146.1 130.72,-137.03"/>
<polygon fill="#63b8ff" stroke="#63b8ff" points="132.93,-139.76 137.87,-130.39 128.16,-134.63 132.93,-139.76"/>
</g>
<!-- Node12&#45;&gt;Node4 -->
<g id="edge15" class="edge">
<title>Node12&#45;&gt;Node4</title>
<path fill="none" stroke="#63b8ff" d="M95.51,-164.77C101.23,-152.43 112.19,-129.25 122.5,-110 127.14,-101.32 132.6,-91.89 137.31,-83.95"/>
<polygon fill="#63b8ff" stroke="#63b8ff" points="140.2,-85.93 142.34,-75.55 134.2,-82.33 140.2,-85.93"/>
</g>
</g>
</svg>
