<?xml version="1.0" encoding="UTF-8" standalone="no"?>
<!DOCTYPE svg PUBLIC "-//W3C//DTD SVG 1.1//EN"
 "http://www.w3.org/Graphics/SVG/1.1/DTD/svg11.dtd">
<!-- Generated by graphviz version 7.0.5 (20221223.1930)
 -->
<!-- Title: iop/system/padman/src/rpcserver.c Pages: 1 -->
<svg width="364pt" height="258pt"
 viewBox="0.00 0.00 364.00 258.00" xmlns="http://www.w3.org/2000/svg" xmlns:xlink="http://www.w3.org/1999/xlink">
<g id="graph0" class="graph" transform="scale(1 1) rotate(0) translate(4 254)">
<title>iop/system/padman/src/rpcserver.c</title>
<!-- Node1 -->
<g id="node1" class="node">
<title>Node1</title>
<g id="a_node1"><a xlink:title=" ">
<polygon fill="#999999" stroke="#666666" points="218.5,-250 100.5,-250 100.5,-220 218.5,-220 218.5,-250"/>
<text text-anchor="start" x="108.5" y="-238" font-family="Helvetica,sans-Serif" font-size="10.00">iop/system/padman/src</text>
<text text-anchor="middle" x="159.5" y="-227" font-family="Helvetica,sans-Serif" font-size="10.00">/rpcserver.c</text>
</a>
</g>
</g>
<!-- Node2 -->
<g id="node2" class="node">
<title>Node2</title>
<g id="a_node2"><a xlink:title=" ">
<polygon fill="#e0e0e0" stroke="#999999" points="47,-129 0,-129 0,-110 47,-110 47,-129"/>
<text text-anchor="middle" x="23.5" y="-117" font-family="Helvetica,sans-Serif" font-size="10.00">types.h</text>
</a>
</g>
</g>
<!-- Node1&#45;&gt;Node2 -->
<g id="edge1" class="edge">
<title>Node1&#45;&gt;Node2</title>
<path fill="none" stroke="#63b8ff" d="M100,-229.48C69.13,-223.76 33.9,-211.21 14.5,-184 5.4,-171.24 9.03,-153.31 14.14,-139.76"/>
<polygon fill="#63b8ff" stroke="#63b8ff" points="17.34,-141.17 18.13,-130.6 10.93,-138.37 17.34,-141.17"/>
</g>
<!-- Node3 -->
<g id="node3" class="node">
<title>Node3</title>
<g id="a_node3"><a xlink:title=" ">
<polygon fill="#e0e0e0" stroke="#999999" points="356,-184 303,-184 303,-165 356,-165 356,-184"/>
<text text-anchor="middle" x="329.5" y="-172" font-family="Helvetica,sans-Serif" font-size="10.00">sifcmd.h</text>
</a>
</g>
</g>
<!-- Node1&#45;&gt;Node3 -->
<g id="edge2" class="edge">
<title>Node1&#45;&gt;Node3</title>
<path fill="none" stroke="#63b8ff" d="M201.52,-219.54C229.48,-209.92 265.86,-197.4 292.69,-188.17"/>
<polygon fill="#63b8ff" stroke="#63b8ff" points="293.8,-191.49 302.11,-184.92 291.52,-184.87 293.8,-191.49"/>
</g>
<!-- Node4 -->
<g id="node4" class="node">
<title>Node4</title>
<g id="a_node4"><a xlink:href="thbase_8h.html" target="_top" xlink:title=" ">
<polygon fill="white" stroke="#666666" points="222,-184 169,-184 169,-165 222,-165 222,-184"/>
<text text-anchor="middle" x="195.5" y="-172" font-family="Helvetica,sans-Serif" font-size="10.00">thbase.h</text>
</a>
</g>
</g>
<!-- Node1&#45;&gt;Node4 -->
<g id="edge3" class="edge">
<title>Node1&#45;&gt;Node4</title>
<path fill="none" stroke="#63b8ff" d="M168.4,-219.54C173.2,-211.74 179.18,-202.03 184.29,-193.71"/>
<polygon fill="#63b8ff" stroke="#63b8ff" points="187.11,-195.82 189.37,-185.46 181.15,-192.15 187.11,-195.82"/>
</g>
<!-- Node9 -->
<g id="node9" class="node">
<title>Node9</title>
<g id="a_node9"><a xlink:href="stdio_8h.html" target="_top" xlink:title=" ">
<polygon fill="white" stroke="#666666" points="285,-184 240,-184 240,-165 285,-165 285,-184"/>
<text text-anchor="middle" x="262.5" y="-172" font-family="Helvetica,sans-Serif" font-size="10.00">stdio.h</text>
</a>
</g>
</g>
<!-- Node1&#45;&gt;Node9 -->
<g id="edge9" class="edge">
<title>Node1&#45;&gt;Node9</title>
<path fill="none" stroke="#63b8ff" d="M184.96,-219.54C200.89,-210.49 221.33,-198.88 237.23,-189.85"/>
<polygon fill="#63b8ff" stroke="#63b8ff" points="238.64,-193.08 245.61,-185.09 235.18,-186.99 238.64,-193.08"/>
</g>
<!-- Node11 -->
<g id="node11" class="node">
<title>Node11</title>
<g id="a_node11"><a xlink:href="sifman_8h.html" target="_top" xlink:title=" ">
<polygon fill="white" stroke="#666666" points="151,-184 98,-184 98,-165 151,-165 151,-184"/>
<text text-anchor="middle" x="124.5" y="-172" font-family="Helvetica,sans-Serif" font-size="10.00">sifman.h</text>
</a>
</g>
</g>
<!-- Node1&#45;&gt;Node11 -->
<g id="edge12" class="edge">
<title>Node1&#45;&gt;Node11</title>
<path fill="none" stroke="#63b8ff" d="M150.85,-219.54C146.23,-211.82 140.5,-202.24 135.56,-193.99"/>
<polygon fill="#63b8ff" stroke="#63b8ff" points="138.61,-192.26 130.47,-185.47 132.6,-195.85 138.61,-192.26"/>
</g>
<!-- Node12 -->
<g id="node12" class="node">
<title>Node12</title>
<g id="a_node12"><a xlink:href="freepad_8h.html" target="_top" xlink:title=" ">
<polygon fill="white" stroke="#666666" points="79.5,-184 23.5,-184 23.5,-165 79.5,-165 79.5,-184"/>
<text text-anchor="middle" x="51.5" y="-172" font-family="Helvetica,sans-Serif" font-size="10.00">freepad.h</text>
</a>
</g>
</g>
<!-- Node1&#45;&gt;Node12 -->
<g id="edge15" class="edge">
<title>Node1&#45;&gt;Node12</title>
<path fill="none" stroke="#63b8ff" d="M132.8,-219.54C115.94,-210.4 94.26,-198.66 77.52,-189.6"/>
<polygon fill="#63b8ff" stroke="#63b8ff" points="79.62,-186.75 69.16,-185.07 76.29,-192.91 79.62,-186.75"/>
</g>
<!-- Node5 -->
<g id="node5" class="node">
<title>Node5</title>
<g id="a_node5"><a xlink:href="iop_2kernel_2include_2types_8h_source.html" target="_top" xlink:title=" ">
<polygon fill="white" stroke="#666666" points="180,-74 133,-74 133,-55 180,-55 180,-74"/>
<text text-anchor="middle" x="156.5" y="-62" font-family="Helvetica,sans-Serif" font-size="10.00">types.h</text>
</a>
</g>
</g>
<!-- Node4&#45;&gt;Node5 -->
<g id="edge4" class="edge">
<title>Node4&#45;&gt;Node5</title>
<path fill="none" stroke="#63b8ff" d="M194.61,-164.62C193.15,-152.1 189.66,-128.71 182.5,-110 179.03,-100.92 173.82,-91.54 168.98,-83.74"/>
<polygon fill="#63b8ff" stroke="#63b8ff" points="172.02,-81.99 163.62,-75.53 166.16,-85.82 172.02,-81.99"/>
</g>
<!-- Node8 -->
<g id="node8" class="node">
<title>Node8</title>
<g id="a_node8"><a xlink:href="irx_8h.html" target="_top" xlink:title=" ">
<polygon fill="white" stroke="#666666" points="173.5,-129 139.5,-129 139.5,-110 173.5,-110 173.5,-129"/>
<text text-anchor="middle" x="156.5" y="-117" font-family="Helvetica,sans-Serif" font-size="10.00">irx.h</text>
</a>
</g>
</g>
<!-- Node4&#45;&gt;Node8 -->
<g id="edge7" class="edge">
<title>Node4&#45;&gt;Node8</title>
<path fill="none" stroke="#63b8ff" d="M189.06,-164.75C183.84,-157.66 176.31,-147.42 169.81,-138.59"/>
<polygon fill="#63b8ff" stroke="#63b8ff" points="172.72,-136.64 163.98,-130.66 167.08,-140.79 172.72,-136.64"/>
</g>
<!-- Node6 -->
<g id="node6" class="node">
<title>Node6</title>
<g id="a_node6"><a xlink:title=" ">
<polygon fill="#e0e0e0" stroke="#999999" points="144,-19 93,-19 93,0 144,0 144,-19"/>
<text text-anchor="middle" x="118.5" y="-7" font-family="Helvetica,sans-Serif" font-size="10.00">stddef.h</text>
</a>
</g>
</g>
<!-- Node5&#45;&gt;Node6 -->
<g id="edge5" class="edge">
<title>Node5&#45;&gt;Node6</title>
<path fill="none" stroke="#63b8ff" d="M150.23,-54.75C145.14,-47.66 137.8,-37.42 131.47,-28.59"/>
<polygon fill="#63b8ff" stroke="#63b8ff" points="134.46,-26.76 125.79,-20.67 128.78,-30.84 134.46,-26.76"/>
</g>
<!-- Node7 -->
<g id="node7" class="node">
<title>Node7</title>
<g id="a_node7"><a xlink:href="tamtypes_8h.html" target="_top" xlink:title=" ">
<polygon fill="white" stroke="#666666" points="226.5,-19 162.5,-19 162.5,0 226.5,0 226.5,-19"/>
<text text-anchor="middle" x="194.5" y="-7" font-family="Helvetica,sans-Serif" font-size="10.00">tamtypes.h</text>
</a>
</g>
</g>
<!-- Node5&#45;&gt;Node7 -->
<g id="edge6" class="edge">
<title>Node5&#45;&gt;Node7</title>
<path fill="none" stroke="#63b8ff" d="M162.77,-54.75C167.86,-47.66 175.2,-37.42 181.53,-28.59"/>
<polygon fill="#63b8ff" stroke="#63b8ff" points="184.22,-30.84 187.21,-20.67 178.54,-26.76 184.22,-30.84"/>
</g>
<!-- Node8&#45;&gt;Node5 -->
<g id="edge8" class="edge">
<title>Node8&#45;&gt;Node5</title>
<path fill="none" stroke="#63b8ff" d="M156.5,-109.75C156.5,-103.27 156.5,-94.16 156.5,-85.9"/>
<polygon fill="#63b8ff" stroke="#63b8ff" points="160,-85.96 156.5,-75.96 153,-85.96 160,-85.96"/>
</g>
<!-- Node9&#45;&gt;Node8 -->
<g id="edge11" class="edge">
<title>Node9&#45;&gt;Node8</title>
<path fill="none" stroke="#63b8ff" d="M244.52,-164.51C227.95,-156.22 203.12,-143.81 184.05,-134.27"/>
<polygon fill="#63b8ff" stroke="#63b8ff" points="185.73,-131.2 175.22,-129.86 182.6,-137.46 185.73,-131.2"/>
</g>
<!-- Node10 -->
<g id="node10" class="node">
<title>Node10</title>
<g id="a_node10"><a xlink:title=" ">
<polygon fill="#e0e0e0" stroke="#999999" points="288,-129 237,-129 237,-110 288,-110 288,-129"/>
<text text-anchor="middle" x="262.5" y="-117" font-family="Helvetica,sans-Serif" font-size="10.00">stdarg.h</text>
</a>
</g>
</g>
<!-- Node9&#45;&gt;Node10 -->
<g id="edge10" class="edge">
<title>Node9&#45;&gt;Node10</title>
<path fill="none" stroke="#63b8ff" d="M262.5,-164.75C262.5,-158.27 262.5,-149.16 262.5,-140.9"/>
<polygon fill="#63b8ff" stroke="#63b8ff" points="266,-140.96 262.5,-130.96 259,-140.96 266,-140.96"/>
</g>
<!-- Node11&#45;&gt;Node5 -->
<g id="edge13" class="edge">
<title>Node11&#45;&gt;Node5</title>
<path fill="none" stroke="#63b8ff" d="M124.15,-164.63C123.92,-152.13 124.46,-128.76 130.5,-110 133.44,-100.87 138.48,-91.57 143.35,-83.86"/>
<polygon fill="#63b8ff" stroke="#63b8ff" points="146.13,-85.99 148.81,-75.74 140.32,-82.08 146.13,-85.99"/>
</g>
<!-- Node11&#45;&gt;Node8 -->
<g id="edge14" class="edge">
<title>Node11&#45;&gt;Node8</title>
<path fill="none" stroke="#63b8ff" d="M129.78,-164.75C133.97,-157.81 139.98,-147.86 145.23,-139.16"/>
<polygon fill="#63b8ff" stroke="#63b8ff" points="148.15,-141.11 150.32,-130.74 142.15,-137.49 148.15,-141.11"/>
</g>
<!-- Node12&#45;&gt;Node2 -->
<g id="edge17" class="edge">
<title>Node12&#45;&gt;Node2</title>
<path fill="none" stroke="#63b8ff" d="M46.88,-164.75C43.25,-157.88 38.07,-148.08 33.51,-139.45"/>
<polygon fill="#63b8ff" stroke="#63b8ff" points="36.7,-137.99 28.93,-130.78 30.51,-141.26 36.7,-137.99"/>
</g>
<!-- Node12&#45;&gt;Node8 -->
<g id="edge16" class="edge">
<title>Node12&#45;&gt;Node8</title>
<path fill="none" stroke="#63b8ff" d="M69.31,-164.51C85.72,-156.22 110.32,-143.81 129.21,-134.27"/>
<polygon fill="#63b8ff" stroke="#63b8ff" points="130.6,-137.5 137.95,-129.86 127.44,-131.25 130.6,-137.5"/>
</g>
</g>
</svg>
