<?xml version="1.0" encoding="UTF-8" standalone="no"?>
<!DOCTYPE svg PUBLIC "-//W3C//DTD SVG 1.1//EN"
 "http://www.w3.org/Graphics/SVG/1.1/DTD/svg11.dtd">
<!-- Generated by graphviz version 7.0.5 (20221223.1930)
 -->
<!-- Title: iop/system/rsio2man/include/rsio2man.h Pages: 1 -->
<svg width="162pt" height="313pt"
 viewBox="0.00 0.00 161.50 313.00" xmlns="http://www.w3.org/2000/svg" xmlns:xlink="http://www.w3.org/1999/xlink">
<g id="graph0" class="graph" transform="scale(1 1) rotate(0) translate(4 309)">
<title>iop/system/rsio2man/include/rsio2man.h</title>
<!-- Node1 -->
<g id="node1" class="node">
<title>Node1</title>
<g id="a_node1"><a xlink:title=" ">
<polygon fill="#999999" stroke="#666666" points="107,-305 0,-305 0,-275 107,-275 107,-305"/>
<text text-anchor="start" x="8" y="-293" font-family="Helvetica,sans-Serif" font-size="10.00">iop/system/rsio2man</text>
<text text-anchor="middle" x="53.5" y="-282" font-family="Helvetica,sans-Serif" font-size="10.00">/include/rsio2man.h</text>
</a>
</g>
</g>
<!-- Node2 -->
<g id="node2" class="node">
<title>Node2</title>
<g id="a_node2"><a xlink:href="xsio2man_8h.html" target="_top" xlink:title=" ">
<polygon fill="white" stroke="#666666" points="86,-239 21,-239 21,-220 86,-220 86,-239"/>
<text text-anchor="middle" x="53.5" y="-227" font-family="Helvetica,sans-Serif" font-size="10.00">xsio2man.h</text>
</a>
</g>
</g>
<!-- Node1&#45;&gt;Node2 -->
<g id="edge1" class="edge">
<title>Node1&#45;&gt;Node2</title>
<path fill="none" stroke="#63b8ff" d="M53.5,-274.54C53.5,-267.34 53.5,-258.53 53.5,-250.68"/>
<polygon fill="#63b8ff" stroke="#63b8ff" points="57,-250.69 53.5,-240.69 50,-250.69 57,-250.69"/>
</g>
<!-- Node3 -->
<g id="node3" class="node">
<title>Node3</title>
<g id="a_node3"><a xlink:href="sio2man_8h.html" target="_top" xlink:title=" ">
<polygon fill="white" stroke="#666666" points="84,-184 23,-184 23,-165 84,-165 84,-184"/>
<text text-anchor="middle" x="53.5" y="-172" font-family="Helvetica,sans-Serif" font-size="10.00">sio2man.h</text>
</a>
</g>
</g>
<!-- Node2&#45;&gt;Node3 -->
<g id="edge2" class="edge">
<title>Node2&#45;&gt;Node3</title>
<path fill="none" stroke="#63b8ff" d="M53.5,-219.75C53.5,-213.27 53.5,-204.16 53.5,-195.9"/>
<polygon fill="#63b8ff" stroke="#63b8ff" points="57,-195.96 53.5,-185.96 50,-195.96 57,-195.96"/>
</g>
<!-- Node4 -->
<g id="node4" class="node">
<title>Node4</title>
<g id="a_node4"><a xlink:title=" ">
<polygon fill="#e0e0e0" stroke="#999999" points="48,-129 1,-129 1,-110 48,-110 48,-129"/>
<text text-anchor="middle" x="24.5" y="-117" font-family="Helvetica,sans-Serif" font-size="10.00">types.h</text>
</a>
</g>
</g>
<!-- Node3&#45;&gt;Node4 -->
<g id="edge3" class="edge">
<title>Node3&#45;&gt;Node4</title>
<path fill="none" stroke="#63b8ff" d="M48.71,-164.75C44.96,-157.88 39.59,-148.08 34.87,-139.45"/>
<polygon fill="#63b8ff" stroke="#63b8ff" points="37.99,-137.86 30.12,-130.77 31.85,-141.22 37.99,-137.86"/>
</g>
<!-- Node5 -->
<g id="node5" class="node">
<title>Node5</title>
<g id="a_node5"><a xlink:href="irx_8h.html" target="_top" xlink:title=" ">
<polygon fill="white" stroke="#666666" points="100.5,-129 66.5,-129 66.5,-110 100.5,-110 100.5,-129"/>
<text text-anchor="middle" x="83.5" y="-117" font-family="Helvetica,sans-Serif" font-size="10.00">irx.h</text>
</a>
</g>
</g>
<!-- Node3&#45;&gt;Node5 -->
<g id="edge4" class="edge">
<title>Node3&#45;&gt;Node5</title>
<path fill="none" stroke="#63b8ff" d="M58.45,-164.75C62.34,-157.88 67.89,-148.08 72.78,-139.45"/>
<polygon fill="#63b8ff" stroke="#63b8ff" points="75.81,-141.19 77.69,-130.76 69.72,-137.74 75.81,-141.19"/>
</g>
<!-- Node6 -->
<g id="node6" class="node">
<title>Node6</title>
<g id="a_node6"><a xlink:href="iop_2kernel_2include_2types_8h_source.html" target="_top" xlink:title=" ">
<polygon fill="white" stroke="#666666" points="107,-74 60,-74 60,-55 107,-55 107,-74"/>
<text text-anchor="middle" x="83.5" y="-62" font-family="Helvetica,sans-Serif" font-size="10.00">types.h</text>
</a>
</g>
</g>
<!-- Node5&#45;&gt;Node6 -->
<g id="edge5" class="edge">
<title>Node5&#45;&gt;Node6</title>
<path fill="none" stroke="#63b8ff" d="M83.5,-109.75C83.5,-103.27 83.5,-94.16 83.5,-85.9"/>
<polygon fill="#63b8ff" stroke="#63b8ff" points="87,-85.96 83.5,-75.96 80,-85.96 87,-85.96"/>
</g>
<!-- Node7 -->
<g id="node7" class="node">
<title>Node7</title>
<g id="a_node7"><a xlink:title=" ">
<polygon fill="#e0e0e0" stroke="#999999" points="71,-19 20,-19 20,0 71,0 71,-19"/>
<text text-anchor="middle" x="45.5" y="-7" font-family="Helvetica,sans-Serif" font-size="10.00">stddef.h</text>
</a>
</g>
</g>
<!-- Node6&#45;&gt;Node7 -->
<g id="edge6" class="edge">
<title>Node6&#45;&gt;Node7</title>
<path fill="none" stroke="#63b8ff" d="M77.23,-54.75C72.14,-47.66 64.8,-37.42 58.47,-28.59"/>
<polygon fill="#63b8ff" stroke="#63b8ff" points="61.46,-26.76 52.79,-20.67 55.78,-30.84 61.46,-26.76"/>
</g>
<!-- Node8 -->
<g id="node8" class="node">
<title>Node8</title>
<g id="a_node8"><a xlink:href="tamtypes_8h.html" target="_top" xlink:title=" ">
<polygon fill="white" stroke="#666666" points="153.5,-19 89.5,-19 89.5,0 153.5,0 153.5,-19"/>
<text text-anchor="middle" x="121.5" y="-7" font-family="Helvetica,sans-Serif" font-size="10.00">tamtypes.h</text>
</a>
</g>
</g>
<!-- Node6&#45;&gt;Node8 -->
<g id="edge7" class="edge">
<title>Node6&#45;&gt;Node8</title>
<path fill="none" stroke="#63b8ff" d="M89.77,-54.75C94.86,-47.66 102.2,-37.42 108.53,-28.59"/>
<polygon fill="#63b8ff" stroke="#63b8ff" points="111.22,-30.84 114.21,-20.67 105.54,-26.76 111.22,-30.84"/>
</g>
</g>
</svg>
