<?xml version="1.0" encoding="UTF-8" standalone="no"?>
<!DOCTYPE svg PUBLIC "-//W3C//DTD SVG 1.1//EN"
 "http://www.w3.org/Graphics/SVG/1.1/DTD/svg11.dtd">
<!-- Generated by graphviz version 7.0.5 (20221223.1930)
 -->
<!-- Title: iop/system/sbusintr/src/sbusintr.c Pages: 1 -->
<svg width="390pt" height="258pt"
 viewBox="0.00 0.00 390.00 258.00" xmlns="http://www.w3.org/2000/svg" xmlns:xlink="http://www.w3.org/1999/xlink">
<g id="graph0" class="graph" transform="scale(1 1) rotate(0) translate(4 254)">
<title>iop/system/sbusintr/src/sbusintr.c</title>
<!-- Node1 -->
<g id="node1" class="node">
<title>Node1</title>
<g id="a_node1"><a xlink:title=" ">
<polygon fill="#999999" stroke="#666666" points="232,-250 131,-250 131,-220 232,-220 232,-250"/>
<text text-anchor="start" x="139" y="-238" font-family="Helvetica,sans-Serif" font-size="10.00">iop/system/sbusintr</text>
<text text-anchor="middle" x="181.5" y="-227" font-family="Helvetica,sans-Serif" font-size="10.00">/src/sbusintr.c</text>
</a>
</g>
</g>
<!-- Node2 -->
<g id="node2" class="node">
<title>Node2</title>
<g id="a_node2"><a xlink:title=" ">
<polygon fill="#e0e0e0" stroke="#999999" points="47,-129 0,-129 0,-110 47,-110 47,-129"/>
<text text-anchor="middle" x="23.5" y="-117" font-family="Helvetica,sans-Serif" font-size="10.00">types.h</text>
</a>
</g>
</g>
<!-- Node1&#45;&gt;Node2 -->
<g id="edge1" class="edge">
<title>Node1&#45;&gt;Node2</title>
<path fill="none" stroke="#63b8ff" d="M130.69,-225.7C86.59,-217.34 27.64,-202.97 13.5,-184 4.01,-171.28 8.15,-153.1 13.7,-139.45"/>
<polygon fill="#63b8ff" stroke="#63b8ff" points="16.76,-141.19 17.79,-130.64 10.41,-138.24 16.76,-141.19"/>
</g>
<!-- Node3 -->
<g id="node3" class="node">
<title>Node3</title>
<g id="a_node3"><a xlink:href="defs_8h.html" target="_top" xlink:title=" ">
<polygon fill="white" stroke="#666666" points="382,-129 339,-129 339,-110 382,-110 382,-129"/>
<text text-anchor="middle" x="360.5" y="-117" font-family="Helvetica,sans-Serif" font-size="10.00">defs.h</text>
</a>
</g>
</g>
<!-- Node1&#45;&gt;Node3 -->
<g id="edge2" class="edge">
<title>Node1&#45;&gt;Node3</title>
<path fill="none" stroke="#63b8ff" d="M232.13,-233.84C271.77,-230.78 324.98,-219.63 354.5,-184 364.34,-172.12 365.25,-154.36 364.03,-140.64"/>
<polygon fill="#63b8ff" stroke="#63b8ff" points="367.53,-140.4 362.71,-130.96 360.59,-141.34 367.53,-140.4"/>
</g>
<!-- Node7 -->
<g id="node7" class="node">
<title>Node7</title>
<g id="a_node7"><a xlink:href="irx_8h.html" target="_top" xlink:title=" ">
<polygon fill="white" stroke="#666666" points="205.5,-129 171.5,-129 171.5,-110 205.5,-110 205.5,-129"/>
<text text-anchor="middle" x="188.5" y="-117" font-family="Helvetica,sans-Serif" font-size="10.00">irx.h</text>
</a>
</g>
</g>
<!-- Node1&#45;&gt;Node7 -->
<g id="edge6" class="edge">
<title>Node1&#45;&gt;Node7</title>
<path fill="none" stroke="#63b8ff" d="M182.39,-219.63C183.62,-199.59 185.87,-163.17 187.27,-140.49"/>
<polygon fill="#63b8ff" stroke="#63b8ff" points="190.75,-140.94 187.87,-130.74 183.76,-140.51 190.75,-140.94"/>
</g>
<!-- Node8 -->
<g id="node8" class="node">
<title>Node8</title>
<g id="a_node8"><a xlink:href="loadcore_8h.html" target="_top" xlink:title=" ">
<polygon fill="white" stroke="#666666" points="271,-184 210,-184 210,-165 271,-165 271,-184"/>
<text text-anchor="middle" x="240.5" y="-172" font-family="Helvetica,sans-Serif" font-size="10.00">loadcore.h</text>
</a>
</g>
</g>
<!-- Node1&#45;&gt;Node8 -->
<g id="edge8" class="edge">
<title>Node1&#45;&gt;Node8</title>
<path fill="none" stroke="#63b8ff" d="M196.08,-219.54C204.48,-211.22 215.06,-200.72 223.79,-192.07"/>
<polygon fill="#63b8ff" stroke="#63b8ff" points="226.04,-194.77 230.68,-185.24 221.11,-189.8 226.04,-194.77"/>
</g>
<!-- Node9 -->
<g id="node9" class="node">
<title>Node9</title>
<g id="a_node9"><a xlink:href="intrman_8h.html" target="_top" xlink:title=" ">
<polygon fill="white" stroke="#666666" points="345.5,-184 289.5,-184 289.5,-165 345.5,-165 345.5,-184"/>
<text text-anchor="middle" x="317.5" y="-172" font-family="Helvetica,sans-Serif" font-size="10.00">intrman.h</text>
</a>
</g>
</g>
<!-- Node1&#45;&gt;Node9 -->
<g id="edge11" class="edge">
<title>Node1&#45;&gt;Node9</title>
<path fill="none" stroke="#63b8ff" d="M215.12,-219.54C236.95,-210.15 265.21,-197.99 286.5,-188.83"/>
<polygon fill="#63b8ff" stroke="#63b8ff" points="287.74,-192.11 295.54,-184.94 284.97,-185.68 287.74,-192.11"/>
</g>
<!-- Node10 -->
<g id="node10" class="node">
<title>Node10</title>
<g id="a_node10"><a xlink:href="sifman_8h.html" target="_top" xlink:title=" ">
<polygon fill="white" stroke="#666666" points="153,-184 100,-184 100,-165 153,-165 153,-184"/>
<text text-anchor="middle" x="126.5" y="-172" font-family="Helvetica,sans-Serif" font-size="10.00">sifman.h</text>
</a>
</g>
</g>
<!-- Node1&#45;&gt;Node10 -->
<g id="edge14" class="edge">
<title>Node1&#45;&gt;Node10</title>
<path fill="none" stroke="#63b8ff" d="M167.9,-219.54C160.16,-211.3 150.42,-200.94 142.33,-192.34"/>
<polygon fill="#63b8ff" stroke="#63b8ff" points="145.09,-190.17 135.69,-185.28 139.99,-194.96 145.09,-190.17"/>
</g>
<!-- Node11 -->
<g id="node11" class="node">
<title>Node11</title>
<g id="a_node11"><a xlink:href="sbusintr_8h.html" target="_top" xlink:title=" ">
<polygon fill="white" stroke="#666666" points="82,-184 23,-184 23,-165 82,-165 82,-184"/>
<text text-anchor="middle" x="52.5" y="-172" font-family="Helvetica,sans-Serif" font-size="10.00">sbusintr.h</text>
</a>
</g>
</g>
<!-- Node1&#45;&gt;Node11 -->
<g id="edge17" class="edge">
<title>Node1&#45;&gt;Node11</title>
<path fill="none" stroke="#63b8ff" d="M149.61,-219.54C129.09,-210.23 102.59,-198.22 82.46,-189.09"/>
<polygon fill="#63b8ff" stroke="#63b8ff" points="83.94,-185.91 73.39,-184.97 81.05,-192.29 83.94,-185.91"/>
</g>
<!-- Node4 -->
<g id="node4" class="node">
<title>Node4</title>
<g id="a_node4"><a xlink:href="iop_2kernel_2include_2types_8h_source.html" target="_top" xlink:title=" ">
<polygon fill="white" stroke="#666666" points="264,-74 217,-74 217,-55 264,-55 264,-74"/>
<text text-anchor="middle" x="240.5" y="-62" font-family="Helvetica,sans-Serif" font-size="10.00">types.h</text>
</a>
</g>
</g>
<!-- Node3&#45;&gt;Node4 -->
<g id="edge3" class="edge">
<title>Node3&#45;&gt;Node4</title>
<path fill="none" stroke="#63b8ff" d="M340.14,-109.51C321.15,-101.12 292.57,-88.5 270.88,-78.92"/>
<polygon fill="#63b8ff" stroke="#63b8ff" points="272.5,-75.81 261.94,-74.97 269.67,-82.21 272.5,-75.81"/>
</g>
<!-- Node5 -->
<g id="node5" class="node">
<title>Node5</title>
<g id="a_node5"><a xlink:title=" ">
<polygon fill="#e0e0e0" stroke="#999999" points="228,-19 177,-19 177,0 228,0 228,-19"/>
<text text-anchor="middle" x="202.5" y="-7" font-family="Helvetica,sans-Serif" font-size="10.00">stddef.h</text>
</a>
</g>
</g>
<!-- Node4&#45;&gt;Node5 -->
<g id="edge4" class="edge">
<title>Node4&#45;&gt;Node5</title>
<path fill="none" stroke="#63b8ff" d="M234.23,-54.75C229.14,-47.66 221.8,-37.42 215.47,-28.59"/>
<polygon fill="#63b8ff" stroke="#63b8ff" points="218.46,-26.76 209.79,-20.67 212.78,-30.84 218.46,-26.76"/>
</g>
<!-- Node6 -->
<g id="node6" class="node">
<title>Node6</title>
<g id="a_node6"><a xlink:href="tamtypes_8h.html" target="_top" xlink:title=" ">
<polygon fill="white" stroke="#666666" points="310.5,-19 246.5,-19 246.5,0 310.5,0 310.5,-19"/>
<text text-anchor="middle" x="278.5" y="-7" font-family="Helvetica,sans-Serif" font-size="10.00">tamtypes.h</text>
</a>
</g>
</g>
<!-- Node4&#45;&gt;Node6 -->
<g id="edge5" class="edge">
<title>Node4&#45;&gt;Node6</title>
<path fill="none" stroke="#63b8ff" d="M246.77,-54.75C251.86,-47.66 259.2,-37.42 265.53,-28.59"/>
<polygon fill="#63b8ff" stroke="#63b8ff" points="268.22,-30.84 271.21,-20.67 262.54,-26.76 268.22,-30.84"/>
</g>
<!-- Node7&#45;&gt;Node4 -->
<g id="edge7" class="edge">
<title>Node7&#45;&gt;Node4</title>
<path fill="none" stroke="#63b8ff" d="M197.09,-109.75C204.34,-102.35 214.95,-91.54 223.87,-82.45"/>
<polygon fill="#63b8ff" stroke="#63b8ff" points="226.16,-85.11 230.67,-75.52 221.16,-80.21 226.16,-85.11"/>
</g>
<!-- Node8&#45;&gt;Node4 -->
<g id="edge9" class="edge">
<title>Node8&#45;&gt;Node4</title>
<path fill="none" stroke="#63b8ff" d="M240.5,-164.66C240.5,-147.57 240.5,-109.61 240.5,-85.92"/>
<polygon fill="#63b8ff" stroke="#63b8ff" points="244,-85.97 240.5,-75.97 237,-85.97 244,-85.97"/>
</g>
<!-- Node8&#45;&gt;Node7 -->
<g id="edge10" class="edge">
<title>Node8&#45;&gt;Node7</title>
<path fill="none" stroke="#63b8ff" d="M231.91,-164.75C224.66,-157.35 214.05,-146.54 205.13,-137.45"/>
<polygon fill="#63b8ff" stroke="#63b8ff" points="207.84,-135.21 198.33,-130.52 202.84,-140.11 207.84,-135.21"/>
</g>
<!-- Node9&#45;&gt;Node4 -->
<g id="edge12" class="edge">
<title>Node9&#45;&gt;Node4</title>
<path fill="none" stroke="#63b8ff" d="M311.2,-164.66C298.62,-147.02 270.18,-107.12 253.45,-83.67"/>
<polygon fill="#63b8ff" stroke="#63b8ff" points="256.42,-81.8 247.77,-75.69 250.72,-85.87 256.42,-81.8"/>
</g>
<!-- Node9&#45;&gt;Node7 -->
<g id="edge13" class="edge">
<title>Node9&#45;&gt;Node7</title>
<path fill="none" stroke="#63b8ff" d="M295.62,-164.51C273.77,-155.53 240.13,-141.71 216.38,-131.96"/>
<polygon fill="#63b8ff" stroke="#63b8ff" points="217.91,-128.8 207.33,-128.24 215.25,-135.27 217.91,-128.8"/>
</g>
<!-- Node10&#45;&gt;Node4 -->
<g id="edge15" class="edge">
<title>Node10&#45;&gt;Node4</title>
<path fill="none" stroke="#63b8ff" d="M129.7,-164.74C134.89,-151.54 146.21,-126.33 162.5,-110 175.38,-97.08 192.78,-86.68 207.88,-79.19"/>
<polygon fill="#63b8ff" stroke="#63b8ff" points="208.96,-82.55 216.51,-75.12 205.97,-76.22 208.96,-82.55"/>
</g>
<!-- Node10&#45;&gt;Node7 -->
<g id="edge16" class="edge">
<title>Node10&#45;&gt;Node7</title>
<path fill="none" stroke="#63b8ff" d="M137.02,-164.51C145.89,-156.93 158.81,-145.88 169.49,-136.75"/>
<polygon fill="#63b8ff" stroke="#63b8ff" points="171.66,-139.5 176.99,-130.34 167.11,-134.18 171.66,-139.5"/>
</g>
<!-- Node11&#45;&gt;Node2 -->
<g id="edge18" class="edge">
<title>Node11&#45;&gt;Node2</title>
<path fill="none" stroke="#63b8ff" d="M47.71,-164.75C43.96,-157.88 38.59,-148.08 33.87,-139.45"/>
<polygon fill="#63b8ff" stroke="#63b8ff" points="36.99,-137.86 29.12,-130.77 30.85,-141.22 36.99,-137.86"/>
</g>
<!-- Node11&#45;&gt;Node7 -->
<g id="edge19" class="edge">
<title>Node11&#45;&gt;Node7</title>
<path fill="none" stroke="#63b8ff" d="M75.57,-164.51C99.1,-155.34 135.61,-141.11 160.72,-131.33"/>
<polygon fill="#63b8ff" stroke="#63b8ff" points="161.9,-134.62 169.95,-127.73 159.36,-128.1 161.9,-134.62"/>
</g>
</g>
</svg>
