<?xml version="1.0" encoding="UTF-8" standalone="no"?>
<!DOCTYPE svg PUBLIC "-//W3C//DTD SVG 1.1//EN"
 "http://www.w3.org/Graphics/SVG/1.1/DTD/svg11.dtd">
<!-- Generated by graphviz version 7.0.5 (20221223.1930)
 -->
<!-- Title: iop/system/sbusintr/include/sbusintr.h Pages: 1 -->
<svg width="484pt" height="104pt"
 viewBox="0.00 0.00 484.00 104.00" xmlns="http://www.w3.org/2000/svg" xmlns:xlink="http://www.w3.org/1999/xlink">
<g id="graph0" class="graph" transform="scale(1 1) rotate(0) translate(4 100)">
<title>iop/system/sbusintr/include/sbusintr.h</title>
<!-- Node1 -->
<g id="node1" class="node">
<title>Node1</title>
<g id="a_node1"><a xlink:title=" ">
<polygon fill="#999999" stroke="#666666" points="285,-96 184,-96 184,-66 285,-66 285,-96"/>
<text text-anchor="start" x="192" y="-84" font-family="Helvetica,sans-Serif" font-size="10.00">iop/system/sbusintr</text>
<text text-anchor="middle" x="234.5" y="-73" font-family="Helvetica,sans-Serif" font-size="10.00">/include/sbusintr.h</text>
</a>
</g>
</g>
<!-- Node2 -->
<g id="node2" class="node">
<title>Node2</title>
<g id="a_node2"><a xlink:href="sbusintr_8c.html" target="_top" xlink:title=" ">
<polygon fill="white" stroke="#666666" points="101,-30 0,-30 0,0 101,0 101,-30"/>
<text text-anchor="start" x="8" y="-18" font-family="Helvetica,sans-Serif" font-size="10.00">iop/system/sbusintr</text>
<text text-anchor="middle" x="50.5" y="-7" font-family="Helvetica,sans-Serif" font-size="10.00">/src/sbusintr.c</text>
</a>
</g>
</g>
<!-- Node1&#45;&gt;Node2 -->
<g id="edge1" class="edge">
<title>Node1&#45;&gt;Node2</title>
<path fill="none" stroke="#63b8ff" d="M182.57,-61.94C153.9,-51.97 118.79,-39.75 91.97,-30.43"/>
<polygon fill="#63b8ff" stroke="#63b8ff" points="181.18,-65.16 191.78,-65.14 183.48,-58.55 181.18,-65.16"/>
</g>
<!-- Node3 -->
<g id="node3" class="node">
<title>Node3</title>
<g id="a_node3"><a xlink:href="iop_2system_2siftoo_2src_2irx__imports_8h_source.html" target="_top" xlink:title=" ">
<polygon fill="white" stroke="#666666" points="226,-30 119,-30 119,0 226,0 226,-30"/>
<text text-anchor="start" x="127" y="-18" font-family="Helvetica,sans-Serif" font-size="10.00">iop/system/siftoo/src</text>
<text text-anchor="middle" x="172.5" y="-7" font-family="Helvetica,sans-Serif" font-size="10.00">/irx_imports.h</text>
</a>
</g>
</g>
<!-- Node1&#45;&gt;Node3 -->
<g id="edge2" class="edge">
<title>Node1&#45;&gt;Node3</title>
<path fill="none" stroke="#63b8ff" d="M213,-57.81C204.12,-48.64 194.08,-38.28 186.22,-30.16"/>
<polygon fill="#63b8ff" stroke="#63b8ff" points="210.22,-59.96 219.69,-64.71 215.24,-55.09 210.22,-59.96"/>
</g>
<!-- Node4 -->
<g id="node4" class="node">
<title>Node4</title>
<g id="a_node4"><a xlink:href="pipe_8c.html" target="_top" xlink:title=" ">
<polygon fill="white" stroke="#666666" points="351,-30 244,-30 244,0 351,0 351,-30"/>
<text text-anchor="start" x="252" y="-18" font-family="Helvetica,sans-Serif" font-size="10.00">iop/system/siftoo/src</text>
<text text-anchor="middle" x="297.5" y="-7" font-family="Helvetica,sans-Serif" font-size="10.00">/pipe.c</text>
</a>
</g>
</g>
<!-- Node1&#45;&gt;Node4 -->
<g id="edge3" class="edge">
<title>Node1&#45;&gt;Node4</title>
<path fill="none" stroke="#63b8ff" d="M256.35,-57.81C265.37,-48.64 275.57,-38.28 283.56,-30.16"/>
<polygon fill="#63b8ff" stroke="#63b8ff" points="254.06,-55.14 249.54,-64.72 259.05,-60.05 254.06,-55.14"/>
</g>
<!-- Node5 -->
<g id="node5" class="node">
<title>Node5</title>
<g id="a_node5"><a xlink:href="siftoo_8c_source.html" target="_top" xlink:title=" ">
<polygon fill="white" stroke="#666666" points="476,-30 369,-30 369,0 476,0 476,-30"/>
<text text-anchor="start" x="377" y="-18" font-family="Helvetica,sans-Serif" font-size="10.00">iop/system/siftoo/src</text>
<text text-anchor="middle" x="422.5" y="-7" font-family="Helvetica,sans-Serif" font-size="10.00">/siftoo.c</text>
</a>
</g>
</g>
<!-- Node1&#45;&gt;Node5 -->
<g id="edge4" class="edge">
<title>Node1&#45;&gt;Node5</title>
<path fill="none" stroke="#63b8ff" d="M287.56,-61.94C316.85,-51.97 352.73,-39.75 380.13,-30.43"/>
<polygon fill="#63b8ff" stroke="#63b8ff" points="286.46,-58.61 278.12,-65.15 288.72,-65.24 286.46,-58.61"/>
</g>
</g>
</svg>
