<?xml version="1.0" encoding="UTF-8" standalone="no"?>
<!DOCTYPE svg PUBLIC "-//W3C//DTD SVG 1.1//EN"
 "http://www.w3.org/Graphics/SVG/1.1/DTD/svg11.dtd">
<!-- Generated by graphviz version 7.0.5 (20221223.1930)
 -->
<!-- Title: ee/debug/src/scr_printf.c Pages: 1 -->
<svg width="474pt" height="247pt"
 viewBox="0.00 0.00 474.00 247.00" xmlns="http://www.w3.org/2000/svg" xmlns:xlink="http://www.w3.org/1999/xlink">
<g id="graph0" class="graph" transform="scale(1 1) rotate(0) translate(4 243)">
<title>ee/debug/src/scr_printf.c</title>
<!-- Node1 -->
<g id="node1" class="node">
<title>Node1</title>
<g id="a_node1"><a xlink:title=" ">
<polygon fill="#999999" stroke="#666666" points="293,-239 169,-239 169,-220 293,-220 293,-239"/>
<text text-anchor="middle" x="231" y="-227" font-family="Helvetica,sans-Serif" font-size="10.00">ee/debug/src/scr_printf.c</text>
</a>
</g>
</g>
<!-- Node2 -->
<g id="node2" class="node">
<title>Node2</title>
<g id="a_node2"><a xlink:href="stdio_8h.html" target="_top" xlink:title=" ">
<polygon fill="white" stroke="#666666" points="94.5,-184 49.5,-184 49.5,-165 94.5,-165 94.5,-184"/>
<text text-anchor="middle" x="72" y="-172" font-family="Helvetica,sans-Serif" font-size="10.00">stdio.h</text>
</a>
</g>
</g>
<!-- Node1&#45;&gt;Node2 -->
<g id="edge1" class="edge">
<title>Node1&#45;&gt;Node2</title>
<path fill="none" stroke="#63b8ff" d="M204.03,-219.51C176.84,-210.45 134.83,-196.44 105.52,-186.67"/>
<polygon fill="#63b8ff" stroke="#63b8ff" points="107,-183.48 96.4,-183.63 104.78,-190.12 107,-183.48"/>
</g>
<!-- Node3 -->
<g id="node3" class="node">
<title>Node3</title>
<g id="a_node3"><a xlink:title=" ">
<polygon fill="#e0e0e0" stroke="#999999" points="103.5,-129 52.5,-129 52.5,-110 103.5,-110 103.5,-129"/>
<text text-anchor="middle" x="78" y="-117" font-family="Helvetica,sans-Serif" font-size="10.00">stdarg.h</text>
</a>
</g>
</g>
<!-- Node1&#45;&gt;Node3 -->
<g id="edge15" class="edge">
<title>Node1&#45;&gt;Node3</title>
<path fill="none" stroke="#63b8ff" d="M208.31,-219.54C189.63,-211.62 162.91,-199.01 142,-184 123.2,-170.5 104.76,-151.41 92.54,-137.69"/>
<polygon fill="#63b8ff" stroke="#63b8ff" points="95.35,-135.58 86.14,-130.33 90.06,-140.17 95.35,-135.58"/>
</g>
<!-- Node7 -->
<g id="node7" class="node">
<title>Node7</title>
<g id="a_node7"><a xlink:href="tamtypes_8h.html" target="_top" xlink:title=" ">
<polygon fill="white" stroke="#666666" points="208,-19 144,-19 144,0 208,0 208,-19"/>
<text text-anchor="middle" x="176" y="-7" font-family="Helvetica,sans-Serif" font-size="10.00">tamtypes.h</text>
</a>
</g>
</g>
<!-- Node1&#45;&gt;Node7 -->
<g id="edge7" class="edge">
<title>Node1&#45;&gt;Node7</title>
<path fill="none" stroke="#63b8ff" d="M231.72,-219.77C233.55,-193.61 236.58,-114.02 212,-55 207.77,-44.85 200.47,-35.15 193.54,-27.42"/>
<polygon fill="#63b8ff" stroke="#63b8ff" points="196.28,-25.22 186.84,-20.43 191.23,-30.07 196.28,-25.22"/>
</g>
<!-- Node8 -->
<g id="node8" class="node">
<title>Node8</title>
<g id="a_node8"><a xlink:title=" ">
<polygon fill="#e0e0e0" stroke="#999999" points="312.5,-184 259.5,-184 259.5,-165 312.5,-165 312.5,-184"/>
<text text-anchor="middle" x="286" y="-172" font-family="Helvetica,sans-Serif" font-size="10.00">sifcmd.h</text>
</a>
</g>
</g>
<!-- Node1&#45;&gt;Node8 -->
<g id="edge8" class="edge">
<title>Node1&#45;&gt;Node8</title>
<path fill="none" stroke="#63b8ff" d="M240.08,-219.75C247.84,-212.27 259.21,-201.32 268.7,-192.17"/>
<polygon fill="#63b8ff" stroke="#63b8ff" points="270.86,-194.95 275.63,-185.49 266,-189.91 270.86,-194.95"/>
</g>
<!-- Node9 -->
<g id="node9" class="node">
<title>Node9</title>
<g id="a_node9"><a xlink:href="kernel_8h.html" target="_top" xlink:title=" ">
<polygon fill="white" stroke="#666666" points="201,-184 151,-184 151,-165 201,-165 201,-184"/>
<text text-anchor="middle" x="176" y="-172" font-family="Helvetica,sans-Serif" font-size="10.00">kernel.h</text>
</a>
</g>
</g>
<!-- Node1&#45;&gt;Node9 -->
<g id="edge9" class="edge">
<title>Node1&#45;&gt;Node9</title>
<path fill="none" stroke="#63b8ff" d="M221.92,-219.75C214.16,-212.27 202.79,-201.32 193.3,-192.17"/>
<polygon fill="#63b8ff" stroke="#63b8ff" points="196,-189.91 186.37,-185.49 191.14,-194.95 196,-189.91"/>
</g>
<!-- Node11 -->
<g id="node11" class="node">
<title>Node11</title>
<g id="a_node11"><a xlink:href="rom0__info_8h.html" target="_top" xlink:title=" ">
<polygon fill="white" stroke="#666666" points="397.5,-184 330.5,-184 330.5,-165 397.5,-165 397.5,-184"/>
<text text-anchor="middle" x="364" y="-172" font-family="Helvetica,sans-Serif" font-size="10.00">rom0_info.h</text>
</a>
</g>
</g>
<!-- Node1&#45;&gt;Node11 -->
<g id="edge14" class="edge">
<title>Node1&#45;&gt;Node11</title>
<path fill="none" stroke="#63b8ff" d="M253.56,-219.51C274.9,-211.01 307.16,-198.15 331.31,-188.53"/>
<polygon fill="#63b8ff" stroke="#63b8ff" points="332.37,-191.87 340.37,-184.92 329.78,-185.37 332.37,-191.87"/>
</g>
<!-- Node12 -->
<g id="node12" class="node">
<title>Node12</title>
<g id="a_node12"><a xlink:title=" ">
<polygon fill="#e0e0e0" stroke="#999999" points="466,-184 416,-184 416,-165 466,-165 466,-184"/>
<text text-anchor="middle" x="441" y="-172" font-family="Helvetica,sans-Serif" font-size="10.00">debug.h</text>
</a>
</g>
</g>
<!-- Node1&#45;&gt;Node12 -->
<g id="edge16" class="edge">
<title>Node1&#45;&gt;Node12</title>
<path fill="none" stroke="#63b8ff" d="M266.62,-219.51C305.18,-209.78 366.32,-194.35 405.02,-184.58"/>
<polygon fill="#63b8ff" stroke="#63b8ff" points="405.47,-188.08 414.31,-182.24 403.76,-181.29 405.47,-188.08"/>
</g>
<!-- Node2&#45;&gt;Node3 -->
<g id="edge2" class="edge">
<title>Node2&#45;&gt;Node3</title>
<path fill="none" stroke="#63b8ff" d="M72.99,-164.75C73.73,-158.19 74.78,-148.95 75.72,-140.6"/>
<polygon fill="#63b8ff" stroke="#63b8ff" points="79.17,-141.28 76.82,-130.95 72.21,-140.49 79.17,-141.28"/>
</g>
<!-- Node4 -->
<g id="node4" class="node">
<title>Node4</title>
<g id="a_node4"><a xlink:href="irx_8h.html" target="_top" xlink:title=" ">
<polygon fill="white" stroke="#666666" points="34,-129 0,-129 0,-110 34,-110 34,-129"/>
<text text-anchor="middle" x="17" y="-117" font-family="Helvetica,sans-Serif" font-size="10.00">irx.h</text>
</a>
</g>
</g>
<!-- Node2&#45;&gt;Node4 -->
<g id="edge3" class="edge">
<title>Node2&#45;&gt;Node4</title>
<path fill="none" stroke="#63b8ff" d="M62.92,-164.75C55.16,-157.27 43.79,-146.32 34.3,-137.17"/>
<polygon fill="#63b8ff" stroke="#63b8ff" points="37,-134.91 27.37,-130.49 32.14,-139.95 37,-134.91"/>
</g>
<!-- Node5 -->
<g id="node5" class="node">
<title>Node5</title>
<g id="a_node5"><a xlink:href="iop_2kernel_2include_2types_8h_source.html" target="_top" xlink:title=" ">
<polygon fill="white" stroke="#666666" points="131.5,-74 84.5,-74 84.5,-55 131.5,-55 131.5,-74"/>
<text text-anchor="middle" x="108" y="-62" font-family="Helvetica,sans-Serif" font-size="10.00">types.h</text>
</a>
</g>
</g>
<!-- Node4&#45;&gt;Node5 -->
<g id="edge4" class="edge">
<title>Node4&#45;&gt;Node5</title>
<path fill="none" stroke="#63b8ff" d="M32.44,-109.51C46.25,-101.47 66.75,-89.53 82.91,-80.11"/>
<polygon fill="#63b8ff" stroke="#63b8ff" points="84.6,-83.18 91.48,-75.12 81.08,-77.13 84.6,-83.18"/>
</g>
<!-- Node6 -->
<g id="node6" class="node">
<title>Node6</title>
<g id="a_node6"><a xlink:title=" ">
<polygon fill="#e0e0e0" stroke="#999999" points="103.5,-19 52.5,-19 52.5,0 103.5,0 103.5,-19"/>
<text text-anchor="middle" x="78" y="-7" font-family="Helvetica,sans-Serif" font-size="10.00">stddef.h</text>
</a>
</g>
</g>
<!-- Node5&#45;&gt;Node6 -->
<g id="edge5" class="edge">
<title>Node5&#45;&gt;Node6</title>
<path fill="none" stroke="#63b8ff" d="M103.05,-54.75C99.16,-47.88 93.61,-38.08 88.72,-29.45"/>
<polygon fill="#63b8ff" stroke="#63b8ff" points="91.78,-27.74 83.81,-20.76 85.69,-31.19 91.78,-27.74"/>
</g>
<!-- Node5&#45;&gt;Node7 -->
<g id="edge6" class="edge">
<title>Node5&#45;&gt;Node7</title>
<path fill="none" stroke="#63b8ff" d="M119.54,-54.51C129.46,-46.77 144.01,-35.43 155.86,-26.2"/>
<polygon fill="#63b8ff" stroke="#63b8ff" points="157.71,-29.2 163.44,-20.29 153.4,-23.68 157.71,-29.2"/>
</g>
<!-- Node9&#45;&gt;Node3 -->
<g id="edge11" class="edge">
<title>Node9&#45;&gt;Node3</title>
<path fill="none" stroke="#63b8ff" d="M159.38,-164.51C144.22,-156.31 121.58,-144.07 104.03,-134.58"/>
<polygon fill="#63b8ff" stroke="#63b8ff" points="106.17,-131.76 95.71,-130.08 102.84,-137.91 106.17,-131.76"/>
</g>
<!-- Node9&#45;&gt;Node6 -->
<g id="edge10" class="edge">
<title>Node9&#45;&gt;Node6</title>
<path fill="none" stroke="#63b8ff" d="M167.33,-164.85C155.05,-152.6 131.87,-129.53 112,-110 95.63,-93.92 83.93,-95.14 75,-74 69.14,-60.13 70.38,-43.01 72.81,-30.05"/>
<polygon fill="#63b8ff" stroke="#63b8ff" points="76.15,-31.13 74.98,-20.6 69.33,-29.57 76.15,-31.13"/>
</g>
<!-- Node10 -->
<g id="node10" class="node">
<title>Node10</title>
<g id="a_node10"><a xlink:href="sifdma_8h.html" target="_top" xlink:title=" ">
<polygon fill="white" stroke="#666666" points="202.5,-74 149.5,-74 149.5,-55 202.5,-55 202.5,-74"/>
<text text-anchor="middle" x="176" y="-62" font-family="Helvetica,sans-Serif" font-size="10.00">sifdma.h</text>
</a>
</g>
</g>
<!-- Node9&#45;&gt;Node10 -->
<g id="edge12" class="edge">
<title>Node9&#45;&gt;Node10</title>
<path fill="none" stroke="#63b8ff" d="M176,-164.66C176,-147.57 176,-109.61 176,-85.92"/>
<polygon fill="#63b8ff" stroke="#63b8ff" points="179.5,-85.97 176,-75.97 172.5,-85.97 179.5,-85.97"/>
</g>
<!-- Node10&#45;&gt;Node7 -->
<g id="edge13" class="edge">
<title>Node10&#45;&gt;Node7</title>
<path fill="none" stroke="#63b8ff" d="M176,-54.75C176,-48.27 176,-39.16 176,-30.9"/>
<polygon fill="#63b8ff" stroke="#63b8ff" points="179.5,-30.96 176,-20.96 172.5,-30.96 179.5,-30.96"/>
</g>
</g>
</svg>
