<?xml version="1.0" encoding="UTF-8" standalone="no"?>
<!DOCTYPE svg PUBLIC "-//W3C//DTD SVG 1.1//EN"
 "http://www.w3.org/Graphics/SVG/1.1/DTD/svg11.dtd">
<!-- Generated by graphviz version 7.0.5 (20221223.1930)
 -->
<!-- Title: ee/debug/src/screenshot.c Pages: 1 -->
<svg width="328pt" height="192pt"
 viewBox="0.00 0.00 327.50 192.00" xmlns="http://www.w3.org/2000/svg" xmlns:xlink="http://www.w3.org/1999/xlink">
<g id="graph0" class="graph" transform="scale(1 1) rotate(0) translate(4 188)">
<title>ee/debug/src/screenshot.c</title>
<!-- Node1 -->
<g id="node1" class="node">
<title>Node1</title>
<g id="a_node1"><a xlink:title=" ">
<polygon fill="#999999" stroke="#666666" points="219.5,-184 88.5,-184 88.5,-165 219.5,-165 219.5,-184"/>
<text text-anchor="middle" x="154" y="-172" font-family="Helvetica,sans-Serif" font-size="10.00">ee/debug/src/screenshot.c</text>
</a>
</g>
</g>
<!-- Node2 -->
<g id="node2" class="node">
<title>Node2</title>
<g id="a_node2"><a xlink:href="screenshot_8h.html" target="_top" xlink:title=" ">
<polygon fill="white" stroke="#666666" points="72,-129 0,-129 0,-110 72,-110 72,-129"/>
<text text-anchor="middle" x="36" y="-117" font-family="Helvetica,sans-Serif" font-size="10.00">screenshot.h</text>
</a>
</g>
</g>
<!-- Node1&#45;&gt;Node2 -->
<g id="edge1" class="edge">
<title>Node1&#45;&gt;Node2</title>
<path fill="none" stroke="#63b8ff" d="M133.98,-164.51C115.39,-156.16 87.46,-143.61 66.17,-134.05"/>
<polygon fill="#63b8ff" stroke="#63b8ff" points="67.66,-130.88 57.1,-129.98 64.79,-137.27 67.66,-130.88"/>
</g>
<!-- Node3 -->
<g id="node3" class="node">
<title>Node3</title>
<g id="a_node3"><a xlink:href="tamtypes_8h.html" target="_top" xlink:title=" ">
<polygon fill="white" stroke="#666666" points="228,-19 164,-19 164,0 228,0 228,-19"/>
<text text-anchor="middle" x="196" y="-7" font-family="Helvetica,sans-Serif" font-size="10.00">tamtypes.h</text>
</a>
</g>
</g>
<!-- Node1&#45;&gt;Node3 -->
<g id="edge2" class="edge">
<title>Node1&#45;&gt;Node3</title>
<path fill="none" stroke="#63b8ff" d="M144.45,-164.67C136.23,-156.37 124.93,-143.14 120,-129 109.18,-97.94 102.56,-83.49 119,-55 127.13,-40.9 141.63,-30.87 155.86,-23.94"/>
<polygon fill="#63b8ff" stroke="#63b8ff" points="156.96,-27.28 164.7,-20.05 154.14,-20.88 156.96,-27.28"/>
</g>
<!-- Node4 -->
<g id="node4" class="node">
<title>Node4</title>
<g id="a_node4"><a xlink:href="kernel_8h.html" target="_top" xlink:title=" ">
<polygon fill="white" stroke="#666666" points="179,-129 129,-129 129,-110 179,-110 179,-129"/>
<text text-anchor="middle" x="154" y="-117" font-family="Helvetica,sans-Serif" font-size="10.00">kernel.h</text>
</a>
</g>
</g>
<!-- Node1&#45;&gt;Node4 -->
<g id="edge3" class="edge">
<title>Node1&#45;&gt;Node4</title>
<path fill="none" stroke="#63b8ff" d="M154,-164.75C154,-158.27 154,-149.16 154,-140.9"/>
<polygon fill="#63b8ff" stroke="#63b8ff" points="157.5,-140.96 154,-130.96 150.5,-140.96 157.5,-140.96"/>
</g>
<!-- Node8 -->
<g id="node8" class="node">
<title>Node8</title>
<g id="a_node8"><a xlink:href="fcntl_8h_source.html" target="_top" xlink:title=" ">
<polygon fill="white" stroke="#666666" points="240.5,-129 197.5,-129 197.5,-110 240.5,-110 240.5,-129"/>
<text text-anchor="middle" x="219" y="-117" font-family="Helvetica,sans-Serif" font-size="10.00">fcntl.h</text>
</a>
</g>
</g>
<!-- Node1&#45;&gt;Node8 -->
<g id="edge8" class="edge">
<title>Node1&#45;&gt;Node8</title>
<path fill="none" stroke="#63b8ff" d="M165.03,-164.51C174.42,-156.85 188.15,-145.66 199.41,-136.47"/>
<polygon fill="#63b8ff" stroke="#63b8ff" points="201.43,-139.35 206.96,-130.31 197,-133.92 201.43,-139.35"/>
</g>
<!-- Node9 -->
<g id="node9" class="node">
<title>Node9</title>
<g id="a_node9"><a xlink:href="unistd_8h_source.html" target="_top" xlink:title=" ">
<polygon fill="white" stroke="#666666" points="309,-129 259,-129 259,-110 309,-110 309,-129"/>
<text text-anchor="middle" x="284" y="-117" font-family="Helvetica,sans-Serif" font-size="10.00">unistd.h</text>
</a>
</g>
</g>
<!-- Node1&#45;&gt;Node9 -->
<g id="edge9" class="edge">
<title>Node1&#45;&gt;Node9</title>
<path fill="none" stroke="#63b8ff" d="M176.05,-164.51C196.81,-156.04 228.16,-143.27 251.73,-133.66"/>
<polygon fill="#63b8ff" stroke="#63b8ff" points="252.93,-136.95 260.87,-129.93 250.29,-130.46 252.93,-136.95"/>
</g>
<!-- Node5 -->
<g id="node5" class="node">
<title>Node5</title>
<g id="a_node5"><a xlink:title=" ">
<polygon fill="#e0e0e0" stroke="#999999" points="179.5,-74 128.5,-74 128.5,-55 179.5,-55 179.5,-74"/>
<text text-anchor="middle" x="154" y="-62" font-family="Helvetica,sans-Serif" font-size="10.00">stddef.h</text>
</a>
</g>
</g>
<!-- Node4&#45;&gt;Node5 -->
<g id="edge4" class="edge">
<title>Node4&#45;&gt;Node5</title>
<path fill="none" stroke="#63b8ff" d="M154,-109.75C154,-103.27 154,-94.16 154,-85.9"/>
<polygon fill="#63b8ff" stroke="#63b8ff" points="157.5,-85.96 154,-75.96 150.5,-85.96 157.5,-85.96"/>
</g>
<!-- Node6 -->
<g id="node6" class="node">
<title>Node6</title>
<g id="a_node6"><a xlink:title=" ">
<polygon fill="#e0e0e0" stroke="#999999" points="248.5,-74 197.5,-74 197.5,-55 248.5,-55 248.5,-74"/>
<text text-anchor="middle" x="223" y="-62" font-family="Helvetica,sans-Serif" font-size="10.00">stdarg.h</text>
</a>
</g>
</g>
<!-- Node4&#45;&gt;Node6 -->
<g id="edge5" class="edge">
<title>Node4&#45;&gt;Node6</title>
<path fill="none" stroke="#63b8ff" d="M165.7,-109.51C175.78,-101.77 190.54,-90.43 202.56,-81.2"/>
<polygon fill="#63b8ff" stroke="#63b8ff" points="204.47,-84.15 210.27,-75.28 200.21,-78.6 204.47,-84.15"/>
</g>
<!-- Node7 -->
<g id="node7" class="node">
<title>Node7</title>
<g id="a_node7"><a xlink:href="sifdma_8h.html" target="_top" xlink:title=" ">
<polygon fill="white" stroke="#666666" points="319.5,-74 266.5,-74 266.5,-55 319.5,-55 319.5,-74"/>
<text text-anchor="middle" x="293" y="-62" font-family="Helvetica,sans-Serif" font-size="10.00">sifdma.h</text>
</a>
</g>
</g>
<!-- Node4&#45;&gt;Node7 -->
<g id="edge6" class="edge">
<title>Node4&#45;&gt;Node7</title>
<path fill="none" stroke="#63b8ff" d="M177.58,-109.51C199.98,-100.97 233.9,-88.03 259.18,-78.4"/>
<polygon fill="#63b8ff" stroke="#63b8ff" points="260.26,-81.73 268.35,-74.9 257.76,-75.19 260.26,-81.73"/>
</g>
<!-- Node7&#45;&gt;Node3 -->
<g id="edge7" class="edge">
<title>Node7&#45;&gt;Node3</title>
<path fill="none" stroke="#63b8ff" d="M276.55,-54.51C261.68,-46.39 239.56,-34.3 222.25,-24.85"/>
<polygon fill="#63b8ff" stroke="#63b8ff" points="223.99,-21.81 213.54,-20.08 220.64,-27.95 223.99,-21.81"/>
</g>
</g>
</svg>
