<?xml version="1.0" encoding="UTF-8" standalone="no"?>
<!DOCTYPE svg PUBLIC "-//W3C//DTD SVG 1.1//EN"
 "http://www.w3.org/Graphics/SVG/1.1/DTD/svg11.dtd">
<!-- Generated by graphviz version 7.0.5 (20221223.1930)
 -->
<!-- Title: iop/kernel/include/secrman.h Pages: 1 -->
<svg width="181pt" height="258pt"
 viewBox="0.00 0.00 181.05 258.00" xmlns="http://www.w3.org/2000/svg" xmlns:xlink="http://www.w3.org/1999/xlink">
<g id="graph0" class="graph" transform="scale(1 1) rotate(0) translate(4 254)">
<title>iop/kernel/include/secrman.h</title>
<!-- Node1 -->
<g id="node1" class="node">
<title>Node1</title>
<g id="a_node1"><a xlink:title=" ">
<polygon fill="#999999" stroke="#666666" points="95.55,-250 3.55,-250 3.55,-220 95.55,-220 95.55,-250"/>
<text text-anchor="start" x="11.55" y="-238" font-family="Helvetica,sans-Serif" font-size="10.00">iop/kernel/include</text>
<text text-anchor="middle" x="49.55" y="-227" font-family="Helvetica,sans-Serif" font-size="10.00">/secrman.h</text>
</a>
</g>
</g>
<!-- Node2 -->
<g id="node2" class="node">
<title>Node2</title>
<g id="a_node2"><a xlink:href="iop_2kernel_2include_2types_8h_source.html" target="_top" xlink:title=" ">
<polygon fill="white" stroke="#666666" points="51.05,-74 4.05,-74 4.05,-55 51.05,-55 51.05,-74"/>
<text text-anchor="middle" x="27.55" y="-62" font-family="Helvetica,sans-Serif" font-size="10.00">types.h</text>
</a>
</g>
</g>
<!-- Node1&#45;&gt;Node2 -->
<g id="edge1" class="edge">
<title>Node1&#45;&gt;Node2</title>
<path fill="none" stroke="#63b8ff" d="M40.62,-219.75C28.93,-200.17 9.06,-163.47 1.55,-129 -0.24,-120.75 -0.65,-118.15 1.55,-110 4.06,-100.74 9.03,-91.42 13.96,-83.73"/>
<polygon fill="#63b8ff" stroke="#63b8ff" points="16.74,-85.86 19.56,-75.64 10.99,-81.87 16.74,-85.86"/>
</g>
<!-- Node5 -->
<g id="node5" class="node">
<title>Node5</title>
<g id="a_node5"><a xlink:href="irx_8h.html" target="_top" xlink:title=" ">
<polygon fill="white" stroke="#666666" points="44.55,-129 10.55,-129 10.55,-110 44.55,-110 44.55,-129"/>
<text text-anchor="middle" x="27.55" y="-117" font-family="Helvetica,sans-Serif" font-size="10.00">irx.h</text>
</a>
</g>
</g>
<!-- Node1&#45;&gt;Node5 -->
<g id="edge4" class="edge">
<title>Node1&#45;&gt;Node5</title>
<path fill="none" stroke="#63b8ff" d="M46.77,-219.63C42.88,-199.59 35.82,-163.17 31.43,-140.49"/>
<polygon fill="#63b8ff" stroke="#63b8ff" points="34.87,-139.87 29.53,-130.72 28,-141.2 34.87,-139.87"/>
</g>
<!-- Node6 -->
<g id="node6" class="node">
<title>Node6</title>
<g id="a_node6"><a xlink:href="sio2man_8h.html" target="_top" xlink:title=" ">
<polygon fill="white" stroke="#666666" points="110.05,-184 49.05,-184 49.05,-165 110.05,-165 110.05,-184"/>
<text text-anchor="middle" x="79.55" y="-172" font-family="Helvetica,sans-Serif" font-size="10.00">sio2man.h</text>
</a>
</g>
</g>
<!-- Node1&#45;&gt;Node6 -->
<g id="edge6" class="edge">
<title>Node1&#45;&gt;Node6</title>
<path fill="none" stroke="#63b8ff" d="M56.97,-219.54C60.88,-211.91 65.73,-202.46 69.93,-194.27"/>
<polygon fill="#63b8ff" stroke="#63b8ff" points="72.96,-196.02 74.41,-185.52 66.74,-192.82 72.96,-196.02"/>
</g>
<!-- Node8 -->
<g id="node8" class="node">
<title>Node8</title>
<g id="a_node8"><a xlink:href="libsecr-common_8h.html" target="_top" xlink:title=" ">
<polygon fill="white" stroke="#666666" points="173.05,-74 80.05,-74 80.05,-55 173.05,-55 173.05,-74"/>
<text text-anchor="middle" x="126.55" y="-62" font-family="Helvetica,sans-Serif" font-size="10.00">libsecr&#45;common.h</text>
</a>
</g>
</g>
<!-- Node1&#45;&gt;Node8 -->
<g id="edge9" class="edge">
<title>Node1&#45;&gt;Node8</title>
<path fill="none" stroke="#63b8ff" d="M81.22,-219.52C95.49,-211.25 111.03,-199.42 119.55,-184 136.7,-152.97 133.96,-110.14 130.32,-85.37"/>
<polygon fill="#63b8ff" stroke="#63b8ff" points="133.81,-85 128.69,-75.72 126.91,-86.17 133.81,-85"/>
</g>
<!-- Node3 -->
<g id="node3" class="node">
<title>Node3</title>
<g id="a_node3"><a xlink:title=" ">
<polygon fill="#e0e0e0" stroke="#999999" points="53.05,-19 2.05,-19 2.05,0 53.05,0 53.05,-19"/>
<text text-anchor="middle" x="27.55" y="-7" font-family="Helvetica,sans-Serif" font-size="10.00">stddef.h</text>
</a>
</g>
</g>
<!-- Node2&#45;&gt;Node3 -->
<g id="edge2" class="edge">
<title>Node2&#45;&gt;Node3</title>
<path fill="none" stroke="#63b8ff" d="M27.55,-54.75C27.55,-48.27 27.55,-39.16 27.55,-30.9"/>
<polygon fill="#63b8ff" stroke="#63b8ff" points="31.05,-30.96 27.55,-20.96 24.05,-30.96 31.05,-30.96"/>
</g>
<!-- Node4 -->
<g id="node4" class="node">
<title>Node4</title>
<g id="a_node4"><a xlink:href="tamtypes_8h.html" target="_top" xlink:title=" ">
<polygon fill="white" stroke="#666666" points="141.55,-19 77.55,-19 77.55,0 141.55,0 141.55,-19"/>
<text text-anchor="middle" x="109.55" y="-7" font-family="Helvetica,sans-Serif" font-size="10.00">tamtypes.h</text>
</a>
</g>
</g>
<!-- Node2&#45;&gt;Node4 -->
<g id="edge3" class="edge">
<title>Node2&#45;&gt;Node4</title>
<path fill="none" stroke="#63b8ff" d="M41.46,-54.51C53.79,-46.54 72.03,-34.75 86.53,-25.38"/>
<polygon fill="#63b8ff" stroke="#63b8ff" points="88.08,-28.55 94.58,-20.18 84.28,-22.67 88.08,-28.55"/>
</g>
<!-- Node5&#45;&gt;Node2 -->
<g id="edge5" class="edge">
<title>Node5&#45;&gt;Node2</title>
<path fill="none" stroke="#63b8ff" d="M27.55,-109.75C27.55,-103.27 27.55,-94.16 27.55,-85.9"/>
<polygon fill="#63b8ff" stroke="#63b8ff" points="31.05,-85.96 27.55,-75.96 24.05,-85.96 31.05,-85.96"/>
</g>
<!-- Node6&#45;&gt;Node5 -->
<g id="edge8" class="edge">
<title>Node6&#45;&gt;Node5</title>
<path fill="none" stroke="#63b8ff" d="M70.97,-164.75C63.71,-157.35 53.1,-146.54 44.19,-137.45"/>
<polygon fill="#63b8ff" stroke="#63b8ff" points="46.89,-135.21 37.39,-130.52 41.89,-140.11 46.89,-135.21"/>
</g>
<!-- Node7 -->
<g id="node7" class="node">
<title>Node7</title>
<g id="a_node7"><a xlink:title=" ">
<polygon fill="#e0e0e0" stroke="#999999" points="110.05,-129 63.05,-129 63.05,-110 110.05,-110 110.05,-129"/>
<text text-anchor="middle" x="86.55" y="-117" font-family="Helvetica,sans-Serif" font-size="10.00">types.h</text>
</a>
</g>
</g>
<!-- Node6&#45;&gt;Node7 -->
<g id="edge7" class="edge">
<title>Node6&#45;&gt;Node7</title>
<path fill="none" stroke="#63b8ff" d="M80.71,-164.75C81.57,-158.19 82.8,-148.95 83.9,-140.6"/>
<polygon fill="#63b8ff" stroke="#63b8ff" points="87.33,-141.31 85.17,-130.94 80.39,-140.4 87.33,-141.31"/>
</g>
<!-- Node8&#45;&gt;Node4 -->
<g id="edge10" class="edge">
<title>Node8&#45;&gt;Node4</title>
<path fill="none" stroke="#63b8ff" d="M123.75,-54.75C121.62,-48.11 118.61,-38.73 115.91,-30.31"/>
<polygon fill="#63b8ff" stroke="#63b8ff" points="119.27,-29.34 112.88,-20.88 112.6,-31.47 119.27,-29.34"/>
</g>
</g>
</svg>
