<?xml version="1.0" encoding="UTF-8" standalone="no"?>
<!DOCTYPE svg PUBLIC "-//W3C//DTD SVG 1.1//EN"
 "http://www.w3.org/Graphics/SVG/1.1/DTD/svg11.dtd">
<!-- Generated by graphviz version 7.0.5 (20221223.1930)
 -->
<!-- Title: iop/kernel/include/secrman.h Pages: 1 -->
<svg width="1140pt" height="170pt"
 viewBox="0.00 0.00 1139.50 170.00" xmlns="http://www.w3.org/2000/svg" xmlns:xlink="http://www.w3.org/1999/xlink">
<g id="graph0" class="graph" transform="scale(1 1) rotate(0) translate(4 166)">
<title>iop/kernel/include/secrman.h</title>
<!-- Node1 -->
<g id="node1" class="node">
<title>Node1</title>
<g id="a_node1"><a xlink:title=" ">
<polygon fill="#999999" stroke="#666666" points="703.5,-162 611.5,-162 611.5,-132 703.5,-132 703.5,-162"/>
<text text-anchor="start" x="619.5" y="-150" font-family="Helvetica,sans-Serif" font-size="10.00">iop/kernel/include</text>
<text text-anchor="middle" x="657.5" y="-139" font-family="Helvetica,sans-Serif" font-size="10.00">/secrman.h</text>
</a>
</g>
</g>
<!-- Node2 -->
<g id="node2" class="node">
<title>Node2</title>
<g id="a_node2"><a xlink:href="iop_2memorycard_2mcman_2src_2irx__imports_8h_source.html" target="_top" xlink:title=" ">
<polygon fill="white" stroke="#666666" points="260,-96 139,-96 139,-66 260,-66 260,-96"/>
<text text-anchor="start" x="147" y="-84" font-family="Helvetica,sans-Serif" font-size="10.00">iop/memorycard/mcman</text>
<text text-anchor="middle" x="199.5" y="-73" font-family="Helvetica,sans-Serif" font-size="10.00">/src/irx_imports.h</text>
</a>
</g>
</g>
<!-- Node1&#45;&gt;Node2 -->
<g id="edge1" class="edge">
<title>Node1&#45;&gt;Node2</title>
<path fill="none" stroke="#63b8ff" d="M600.02,-139.93C523.94,-131.59 385.75,-115.4 268.5,-96 265.85,-95.56 263.14,-95.09 260.41,-94.61"/>
<polygon fill="#63b8ff" stroke="#63b8ff" points="599.41,-143.38 609.73,-140.99 600.17,-136.42 599.41,-143.38"/>
</g>
<!-- Node3 -->
<g id="node3" class="node">
<title>Node3</title>
<g id="a_node3"><a xlink:href="mcman-internal_8h_source.html" target="_top" xlink:title=" ">
<polygon fill="white" stroke="#666666" points="399,-96 278,-96 278,-66 399,-66 399,-96"/>
<text text-anchor="start" x="286" y="-84" font-family="Helvetica,sans-Serif" font-size="10.00">iop/memorycard/mcman</text>
<text text-anchor="middle" x="338.5" y="-73" font-family="Helvetica,sans-Serif" font-size="10.00">/src/mcman&#45;internal.h</text>
</a>
</g>
</g>
<!-- Node1&#45;&gt;Node3 -->
<g id="edge2" class="edge">
<title>Node1&#45;&gt;Node3</title>
<path fill="none" stroke="#63b8ff" d="M599.85,-134.43C543.22,-123.07 457.14,-105.8 399.41,-94.22"/>
<polygon fill="#63b8ff" stroke="#63b8ff" points="599.14,-137.86 609.63,-136.4 600.51,-131 599.14,-137.86"/>
</g>
<!-- Node9 -->
<g id="node9" class="node">
<title>Node9</title>
<g id="a_node9"><a xlink:href="_card_auth_8c_source.html" target="_top" xlink:title=" ">
<polygon fill="white" stroke="#666666" points="524,-96 417,-96 417,-66 524,-66 524,-96"/>
<text text-anchor="start" x="425" y="-84" font-family="Helvetica,sans-Serif" font-size="10.00">iop/security/secrman</text>
<text text-anchor="middle" x="470.5" y="-73" font-family="Helvetica,sans-Serif" font-size="10.00">/src/CardAuth.c</text>
</a>
</g>
</g>
<!-- Node1&#45;&gt;Node9 -->
<g id="edge8" class="edge">
<title>Node1&#45;&gt;Node9</title>
<path fill="none" stroke="#63b8ff" d="M604.72,-127.94C575.59,-117.97 539.9,-105.75 512.65,-96.43"/>
<polygon fill="#63b8ff" stroke="#63b8ff" points="603.51,-131.22 614.1,-131.15 605.77,-124.6 603.51,-131.22"/>
</g>
<!-- Node10 -->
<g id="node10" class="node">
<title>Node10</title>
<g id="a_node10"><a xlink:href="_mecha_auth_8c_source.html" target="_top" xlink:title=" ">
<polygon fill="white" stroke="#666666" points="649,-96 542,-96 542,-66 649,-66 649,-96"/>
<text text-anchor="start" x="550" y="-84" font-family="Helvetica,sans-Serif" font-size="10.00">iop/security/secrman</text>
<text text-anchor="middle" x="595.5" y="-73" font-family="Helvetica,sans-Serif" font-size="10.00">/src/MechaAuth.c</text>
</a>
</g>
</g>
<!-- Node1&#45;&gt;Node10 -->
<g id="edge9" class="edge">
<title>Node1&#45;&gt;Node10</title>
<path fill="none" stroke="#63b8ff" d="M636,-123.81C627.12,-114.64 617.08,-104.28 609.22,-96.16"/>
<polygon fill="#63b8ff" stroke="#63b8ff" points="633.22,-125.96 642.69,-130.71 638.24,-121.09 633.22,-125.96"/>
</g>
<!-- Node11 -->
<g id="node11" class="node">
<title>Node11</title>
<g id="a_node11"><a xlink:href="keyman_8c_source.html" target="_top" xlink:title=" ">
<polygon fill="white" stroke="#666666" points="774,-96 667,-96 667,-66 774,-66 774,-96"/>
<text text-anchor="start" x="675" y="-84" font-family="Helvetica,sans-Serif" font-size="10.00">iop/security/secrman</text>
<text text-anchor="middle" x="720.5" y="-73" font-family="Helvetica,sans-Serif" font-size="10.00">/src/keyman.c</text>
</a>
</g>
</g>
<!-- Node1&#45;&gt;Node11 -->
<g id="edge10" class="edge">
<title>Node1&#45;&gt;Node11</title>
<path fill="none" stroke="#63b8ff" d="M679.35,-123.81C688.37,-114.64 698.57,-104.28 706.56,-96.16"/>
<polygon fill="#63b8ff" stroke="#63b8ff" points="677.06,-121.14 672.54,-130.72 682.05,-126.05 677.06,-121.14"/>
</g>
<!-- Node12 -->
<g id="node12" class="node">
<title>Node12</title>
<g id="a_node12"><a xlink:href="secrman_8c_source.html" target="_top" xlink:title=" ">
<polygon fill="white" stroke="#666666" points="899,-96 792,-96 792,-66 899,-66 899,-96"/>
<text text-anchor="start" x="800" y="-84" font-family="Helvetica,sans-Serif" font-size="10.00">iop/security/secrman</text>
<text text-anchor="middle" x="845.5" y="-73" font-family="Helvetica,sans-Serif" font-size="10.00">/src/secrman.c</text>
</a>
</g>
</g>
<!-- Node1&#45;&gt;Node12 -->
<g id="edge11" class="edge">
<title>Node1&#45;&gt;Node12</title>
<path fill="none" stroke="#63b8ff" d="M710.56,-127.94C739.85,-117.97 775.73,-105.75 803.13,-96.43"/>
<polygon fill="#63b8ff" stroke="#63b8ff" points="709.46,-124.61 701.12,-131.15 711.72,-131.24 709.46,-124.61"/>
</g>
<!-- Node13 -->
<g id="node13" class="node">
<title>Node13</title>
<g id="a_node13"><a xlink:href="iop_2security_2secrsif_2src_2irx__imports_8h_source.html" target="_top" xlink:title=" ">
<polygon fill="white" stroke="#666666" points="1015.5,-96 917.5,-96 917.5,-66 1015.5,-66 1015.5,-96"/>
<text text-anchor="start" x="925.5" y="-84" font-family="Helvetica,sans-Serif" font-size="10.00">iop/security/secrsif</text>
<text text-anchor="middle" x="966.5" y="-73" font-family="Helvetica,sans-Serif" font-size="10.00">/src/irx_imports.h</text>
</a>
</g>
</g>
<!-- Node1&#45;&gt;Node13 -->
<g id="edge12" class="edge">
<title>Node1&#45;&gt;Node13</title>
<path fill="none" stroke="#63b8ff" d="M714.99,-135.23C765.95,-125.52 842.34,-110.57 908.5,-96 911.33,-95.38 914.24,-94.72 917.17,-94.05"/>
<polygon fill="#63b8ff" stroke="#63b8ff" points="714.54,-131.75 705.36,-137.06 715.84,-138.63 714.54,-131.75"/>
</g>
<!-- Node14 -->
<g id="node14" class="node">
<title>Node14</title>
<g id="a_node14"><a xlink:href="secrsif_8c_source.html" target="_top" xlink:title=" ">
<polygon fill="white" stroke="#666666" points="1131.5,-96 1033.5,-96 1033.5,-66 1131.5,-66 1131.5,-96"/>
<text text-anchor="start" x="1041.5" y="-84" font-family="Helvetica,sans-Serif" font-size="10.00">iop/security/secrsif</text>
<text text-anchor="middle" x="1082.5" y="-73" font-family="Helvetica,sans-Serif" font-size="10.00">/src/secrsif.c</text>
</a>
</g>
</g>
<!-- Node1&#45;&gt;Node14 -->
<g id="edge13" class="edge">
<title>Node1&#45;&gt;Node14</title>
<path fill="none" stroke="#63b8ff" d="M714.94,-140C787.43,-132.01 915.78,-116.47 1024.5,-96 1027.35,-95.46 1030.27,-94.88 1033.21,-94.26"/>
<polygon fill="#63b8ff" stroke="#63b8ff" points="714.87,-136.49 705.31,-141.05 715.63,-143.45 714.87,-136.49"/>
</g>
<!-- Node4 -->
<g id="node4" class="node">
<title>Node4</title>
<g id="a_node4"><a xlink:href="iop_2memorycard_2mcman_2src_2main_8c_source.html" target="_top" xlink:title=" ">
<polygon fill="white" stroke="#666666" points="121,-30 0,-30 0,0 121,0 121,-30"/>
<text text-anchor="start" x="8" y="-18" font-family="Helvetica,sans-Serif" font-size="10.00">iop/memorycard/mcman</text>
<text text-anchor="middle" x="60.5" y="-7" font-family="Helvetica,sans-Serif" font-size="10.00">/src/main.c</text>
</a>
</g>
</g>
<!-- Node3&#45;&gt;Node4 -->
<g id="edge3" class="edge">
<title>Node3&#45;&gt;Node4</title>
<path fill="none" stroke="#63b8ff" d="M266.64,-63.46C221.47,-53.06 163.86,-39.8 121.04,-29.94"/>
<polygon fill="#63b8ff" stroke="#63b8ff" points="265.83,-66.86 276.36,-65.69 267.4,-60.04 265.83,-66.86"/>
</g>
<!-- Node5 -->
<g id="node5" class="node">
<title>Node5</title>
<g id="a_node5"><a xlink:href="mcdev_8c_source.html" target="_top" xlink:title=" ">
<polygon fill="white" stroke="#666666" points="260,-30 139,-30 139,0 260,0 260,-30"/>
<text text-anchor="start" x="147" y="-18" font-family="Helvetica,sans-Serif" font-size="10.00">iop/memorycard/mcman</text>
<text text-anchor="middle" x="199.5" y="-7" font-family="Helvetica,sans-Serif" font-size="10.00">/src/mcdev.c</text>
</a>
</g>
</g>
<!-- Node3&#45;&gt;Node5 -->
<g id="edge4" class="edge">
<title>Node3&#45;&gt;Node5</title>
<path fill="none" stroke="#63b8ff" d="M296.92,-60.86C275.63,-51.05 250.15,-39.32 230.59,-30.31"/>
<polygon fill="#63b8ff" stroke="#63b8ff" points="295.38,-64 305.93,-65 298.31,-57.64 295.38,-64"/>
</g>
<!-- Node6 -->
<g id="node6" class="node">
<title>Node6</title>
<g id="a_node6"><a xlink:href="mcsio2_8c_source.html" target="_top" xlink:title=" ">
<polygon fill="white" stroke="#666666" points="399,-30 278,-30 278,0 399,0 399,-30"/>
<text text-anchor="start" x="286" y="-18" font-family="Helvetica,sans-Serif" font-size="10.00">iop/memorycard/mcman</text>
<text text-anchor="middle" x="338.5" y="-7" font-family="Helvetica,sans-Serif" font-size="10.00">/src/mcsio2.c</text>
</a>
</g>
</g>
<!-- Node3&#45;&gt;Node6 -->
<g id="edge5" class="edge">
<title>Node3&#45;&gt;Node6</title>
<path fill="none" stroke="#63b8ff" d="M338.5,-54.39C338.5,-46.13 338.5,-37.28 338.5,-30.16"/>
<polygon fill="#63b8ff" stroke="#63b8ff" points="335,-54.28 338.5,-64.28 342,-54.28 335,-54.28"/>
</g>
<!-- Node7 -->
<g id="node7" class="node">
<title>Node7</title>
<g id="a_node7"><a xlink:href="ps1mc__fio_8c_source.html" target="_top" xlink:title=" ">
<polygon fill="white" stroke="#666666" points="538,-30 417,-30 417,0 538,0 538,-30"/>
<text text-anchor="start" x="425" y="-18" font-family="Helvetica,sans-Serif" font-size="10.00">iop/memorycard/mcman</text>
<text text-anchor="middle" x="477.5" y="-7" font-family="Helvetica,sans-Serif" font-size="10.00">/src/ps1mc_fio.c</text>
</a>
</g>
</g>
<!-- Node3&#45;&gt;Node7 -->
<g id="edge6" class="edge">
<title>Node3&#45;&gt;Node7</title>
<path fill="none" stroke="#63b8ff" d="M380.08,-60.86C401.37,-51.05 426.85,-39.32 446.41,-30.31"/>
<polygon fill="#63b8ff" stroke="#63b8ff" points="378.69,-57.64 371.07,-65 381.62,-64 378.69,-57.64"/>
</g>
<!-- Node8 -->
<g id="node8" class="node">
<title>Node8</title>
<g id="a_node8"><a xlink:href="ps2mc__fio_8c_source.html" target="_top" xlink:title=" ">
<polygon fill="white" stroke="#666666" points="677,-30 556,-30 556,0 677,0 677,-30"/>
<text text-anchor="start" x="564" y="-18" font-family="Helvetica,sans-Serif" font-size="10.00">iop/memorycard/mcman</text>
<text text-anchor="middle" x="616.5" y="-7" font-family="Helvetica,sans-Serif" font-size="10.00">/src/ps2mc_fio.c</text>
</a>
</g>
</g>
<!-- Node3&#45;&gt;Node8 -->
<g id="edge7" class="edge">
<title>Node3&#45;&gt;Node8</title>
<path fill="none" stroke="#63b8ff" d="M410.36,-63.46C455.53,-53.06 513.14,-39.8 555.96,-29.94"/>
<polygon fill="#63b8ff" stroke="#63b8ff" points="409.6,-60.04 400.64,-65.69 411.17,-66.86 409.6,-60.04"/>
</g>
</g>
</svg>
