<?xml version="1.0" encoding="UTF-8" standalone="no"?>
<!DOCTYPE svg PUBLIC "-//W3C//DTD SVG 1.1//EN"
 "http://www.w3.org/Graphics/SVG/1.1/DTD/svg11.dtd">
<!-- Generated by graphviz version 7.0.5 (20221223.1930)
 -->
<!-- Title: ee/kernel/src/sifcmd.c Pages: 1 -->
<svg width="215pt" height="192pt"
 viewBox="0.00 0.00 214.63 192.00" xmlns="http://www.w3.org/2000/svg" xmlns:xlink="http://www.w3.org/1999/xlink">
<g id="graph0" class="graph" transform="scale(1 1) rotate(0) translate(4 188)">
<title>ee/kernel/src/sifcmd.c</title>
<!-- Node1 -->
<g id="node1" class="node">
<title>Node1</title>
<g id="a_node1"><a xlink:title=" ">
<polygon fill="#999999" stroke="#666666" points="131.63,-184 18.63,-184 18.63,-165 131.63,-165 131.63,-184"/>
<text text-anchor="middle" x="75.13" y="-172" font-family="Helvetica,sans-Serif" font-size="10.00">ee/kernel/src/sifcmd.c</text>
</a>
</g>
</g>
<!-- Node2 -->
<g id="node2" class="node">
<title>Node2</title>
<g id="a_node2"><a xlink:href="tamtypes_8h.html" target="_top" xlink:title=" ">
<polygon fill="white" stroke="#666666" points="115.13,-19 51.13,-19 51.13,0 115.13,0 115.13,-19"/>
<text text-anchor="middle" x="83.13" y="-7" font-family="Helvetica,sans-Serif" font-size="10.00">tamtypes.h</text>
</a>
</g>
</g>
<!-- Node1&#45;&gt;Node2 -->
<g id="edge1" class="edge">
<title>Node1&#45;&gt;Node2</title>
<path fill="none" stroke="#63b8ff" d="M62.87,-164.59C37.28,-144.88 -17.55,-96.03 6.13,-55 14.26,-40.9 28.75,-30.87 42.99,-23.94"/>
<polygon fill="#63b8ff" stroke="#63b8ff" points="44.09,-27.28 51.83,-20.05 41.26,-20.88 44.09,-27.28"/>
</g>
<!-- Node3 -->
<g id="node3" class="node">
<title>Node3</title>
<g id="a_node3"><a xlink:href="kernel_8h.html" target="_top" xlink:title=" ">
<polygon fill="white" stroke="#666666" points="100.13,-129 50.13,-129 50.13,-110 100.13,-110 100.13,-129"/>
<text text-anchor="middle" x="75.13" y="-117" font-family="Helvetica,sans-Serif" font-size="10.00">kernel.h</text>
</a>
</g>
</g>
<!-- Node1&#45;&gt;Node3 -->
<g id="edge2" class="edge">
<title>Node1&#45;&gt;Node3</title>
<path fill="none" stroke="#63b8ff" d="M75.13,-164.75C75.13,-158.27 75.13,-149.16 75.13,-140.9"/>
<polygon fill="#63b8ff" stroke="#63b8ff" points="78.63,-140.96 75.13,-130.96 71.63,-140.96 78.63,-140.96"/>
</g>
<!-- Node7 -->
<g id="node7" class="node">
<title>Node7</title>
<g id="a_node7"><a xlink:title=" ">
<polygon fill="#e0e0e0" stroke="#999999" points="171.63,-129 118.63,-129 118.63,-110 171.63,-110 171.63,-129"/>
<text text-anchor="middle" x="145.13" y="-117" font-family="Helvetica,sans-Serif" font-size="10.00">sifcmd.h</text>
</a>
</g>
</g>
<!-- Node1&#45;&gt;Node7 -->
<g id="edge7" class="edge">
<title>Node1&#45;&gt;Node7</title>
<path fill="none" stroke="#63b8ff" d="M87,-164.51C97.22,-156.77 112.2,-145.43 124.39,-136.2"/>
<polygon fill="#63b8ff" stroke="#63b8ff" points="126.36,-139.1 132.22,-130.27 122.14,-133.52 126.36,-139.1"/>
</g>
<!-- Node4 -->
<g id="node4" class="node">
<title>Node4</title>
<g id="a_node4"><a xlink:title=" ">
<polygon fill="#e0e0e0" stroke="#999999" points="66.63,-74 15.63,-74 15.63,-55 66.63,-55 66.63,-74"/>
<text text-anchor="middle" x="41.13" y="-62" font-family="Helvetica,sans-Serif" font-size="10.00">stddef.h</text>
</a>
</g>
</g>
<!-- Node3&#45;&gt;Node4 -->
<g id="edge3" class="edge">
<title>Node3&#45;&gt;Node4</title>
<path fill="none" stroke="#63b8ff" d="M69.51,-109.75C65.01,-102.73 58.54,-92.64 52.91,-83.87"/>
<polygon fill="#63b8ff" stroke="#63b8ff" points="56.03,-82.24 47.68,-75.72 50.13,-86.02 56.03,-82.24"/>
</g>
<!-- Node5 -->
<g id="node5" class="node">
<title>Node5</title>
<g id="a_node5"><a xlink:title=" ">
<polygon fill="#e0e0e0" stroke="#999999" points="135.63,-74 84.63,-74 84.63,-55 135.63,-55 135.63,-74"/>
<text text-anchor="middle" x="110.13" y="-62" font-family="Helvetica,sans-Serif" font-size="10.00">stdarg.h</text>
</a>
</g>
</g>
<!-- Node3&#45;&gt;Node5 -->
<g id="edge4" class="edge">
<title>Node3&#45;&gt;Node5</title>
<path fill="none" stroke="#63b8ff" d="M80.91,-109.75C85.54,-102.73 92.2,-92.64 97.99,-83.87"/>
<polygon fill="#63b8ff" stroke="#63b8ff" points="100.8,-85.98 103.39,-75.71 94.96,-82.12 100.8,-85.98"/>
</g>
<!-- Node6 -->
<g id="node6" class="node">
<title>Node6</title>
<g id="a_node6"><a xlink:href="sifdma_8h.html" target="_top" xlink:title=" ">
<polygon fill="white" stroke="#666666" points="206.63,-74 153.63,-74 153.63,-55 206.63,-55 206.63,-74"/>
<text text-anchor="middle" x="180.13" y="-62" font-family="Helvetica,sans-Serif" font-size="10.00">sifdma.h</text>
</a>
</g>
</g>
<!-- Node3&#45;&gt;Node6 -->
<g id="edge5" class="edge">
<title>Node3&#45;&gt;Node6</title>
<path fill="none" stroke="#63b8ff" d="M92.94,-109.51C109.25,-101.27 133.66,-88.96 152.5,-79.45"/>
<polygon fill="#63b8ff" stroke="#63b8ff" points="153.88,-82.67 161.23,-75.04 150.72,-76.42 153.88,-82.67"/>
</g>
<!-- Node6&#45;&gt;Node2 -->
<g id="edge6" class="edge">
<title>Node6&#45;&gt;Node2</title>
<path fill="none" stroke="#63b8ff" d="M163.67,-54.51C148.81,-46.39 126.68,-34.3 109.38,-24.85"/>
<polygon fill="#63b8ff" stroke="#63b8ff" points="111.12,-21.81 100.67,-20.08 107.76,-27.95 111.12,-21.81"/>
</g>
</g>
</svg>
