<?xml version="1.0" encoding="UTF-8" standalone="no"?>
<!DOCTYPE svg PUBLIC "-//W3C//DTD SVG 1.1//EN"
 "http://www.w3.org/Graphics/SVG/1.1/DTD/svg11.dtd">
<!-- Generated by graphviz version 7.0.5 (20221223.1930)
 -->
<!-- Title: iop/system/sio2man/include/sio2man.h Pages: 1 -->
<svg width="1889pt" height="236pt"
 viewBox="0.00 0.00 1888.50 236.00" xmlns="http://www.w3.org/2000/svg" xmlns:xlink="http://www.w3.org/1999/xlink">
<g id="graph0" class="graph" transform="scale(1 1) rotate(0) translate(4 232)">
<title>iop/system/sio2man/include/sio2man.h</title>
<!-- Node1 -->
<g id="node1" class="node">
<title>Node1</title>
<g id="a_node1"><a xlink:title=" ">
<polygon fill="#999999" stroke="#666666" points="1320.5,-228 1216.5,-228 1216.5,-198 1320.5,-198 1320.5,-228"/>
<text text-anchor="start" x="1224.5" y="-216" font-family="Helvetica,sans-Serif" font-size="10.00">iop/system/sio2man</text>
<text text-anchor="middle" x="1268.5" y="-205" font-family="Helvetica,sans-Serif" font-size="10.00">/include/sio2man.h</text>
</a>
</g>
</g>
<!-- Node2 -->
<g id="node2" class="node">
<title>Node2</title>
<g id="a_node2"><a xlink:href="secrman_8h.html" target="_top" xlink:title=" ">
<polygon fill="white" stroke="#666666" points="753.5,-162 661.5,-162 661.5,-132 753.5,-132 753.5,-162"/>
<text text-anchor="start" x="669.5" y="-150" font-family="Helvetica,sans-Serif" font-size="10.00">iop/kernel/include</text>
<text text-anchor="middle" x="707.5" y="-139" font-family="Helvetica,sans-Serif" font-size="10.00">/secrman.h</text>
</a>
</g>
</g>
<!-- Node1&#45;&gt;Node2 -->
<g id="edge1" class="edge">
<title>Node1&#45;&gt;Node2</title>
<path fill="none" stroke="#63b8ff" d="M1204.92,-204.75C1090.86,-191.73 854.06,-164.72 753.87,-153.29"/>
<polygon fill="#63b8ff" stroke="#63b8ff" points="1204.39,-208.21 1214.72,-205.86 1205.18,-201.25 1204.39,-208.21"/>
</g>
<!-- Node3 -->
<g id="node3" class="node">
<title>Node3</title>
<g id="a_node3"><a xlink:href="iop_2memorycard_2mcman_2src_2irx__imports_8h_source.html" target="_top" xlink:title=" ">
<polygon fill="white" stroke="#666666" points="260,-96 139,-96 139,-66 260,-66 260,-96"/>
<text text-anchor="start" x="147" y="-84" font-family="Helvetica,sans-Serif" font-size="10.00">iop/memorycard/mcman</text>
<text text-anchor="middle" x="199.5" y="-73" font-family="Helvetica,sans-Serif" font-size="10.00">/src/irx_imports.h</text>
</a>
</g>
</g>
<!-- Node1&#45;&gt;Node3 -->
<g id="edge24" class="edge">
<title>Node1&#45;&gt;Node3</title>
<path fill="none" stroke="#63b8ff" d="M1204.84,-211.78C1073.96,-210.46 765.53,-202.85 510.5,-162 414.44,-146.61 304.84,-115.03 244.78,-96.48"/>
<polygon fill="#63b8ff" stroke="#63b8ff" points="1204.66,-215.28 1214.69,-211.87 1204.72,-208.28 1204.66,-215.28"/>
</g>
<!-- Node4 -->
<g id="node4" class="node">
<title>Node4</title>
<g id="a_node4"><a xlink:href="mcman-internal_8h_source.html" target="_top" xlink:title=" ">
<polygon fill="white" stroke="#666666" points="399,-96 278,-96 278,-66 399,-66 399,-96"/>
<text text-anchor="start" x="286" y="-84" font-family="Helvetica,sans-Serif" font-size="10.00">iop/memorycard/mcman</text>
<text text-anchor="middle" x="338.5" y="-73" font-family="Helvetica,sans-Serif" font-size="10.00">/src/mcman&#45;internal.h</text>
</a>
</g>
</g>
<!-- Node1&#45;&gt;Node4 -->
<g id="edge25" class="edge">
<title>Node1&#45;&gt;Node4</title>
<path fill="none" stroke="#63b8ff" d="M1204.78,-210.36C1092.5,-206.69 852.34,-195.32 652.5,-162 556.09,-145.92 445.9,-114.82 385.05,-96.49"/>
<polygon fill="#63b8ff" stroke="#63b8ff" points="1204.6,-213.86 1214.7,-210.68 1204.82,-206.86 1204.6,-213.86"/>
</g>
<!-- Node13 -->
<g id="node13" class="node">
<title>Node13</title>
<g id="a_node13"><a xlink:href="secrman_8c_source.html" target="_top" xlink:title=" ">
<polygon fill="white" stroke="#666666" points="1132,-96 1025,-96 1025,-66 1132,-66 1132,-96"/>
<text text-anchor="start" x="1033" y="-84" font-family="Helvetica,sans-Serif" font-size="10.00">iop/security/secrman</text>
<text text-anchor="middle" x="1078.5" y="-73" font-family="Helvetica,sans-Serif" font-size="10.00">/src/secrman.c</text>
</a>
</g>
</g>
<!-- Node1&#45;&gt;Node13 -->
<g id="edge26" class="edge">
<title>Node1&#45;&gt;Node13</title>
<path fill="none" stroke="#63b8ff" d="M1238.22,-191.28C1199.48,-164.78 1133.38,-119.55 1099.65,-96.47"/>
<polygon fill="#63b8ff" stroke="#63b8ff" points="1235.96,-193.98 1246.19,-196.74 1239.91,-188.2 1235.96,-193.98"/>
</g>
<!-- Node16 -->
<g id="node16" class="node">
<title>Node16</title>
<g id="a_node16"><a xlink:href="xsio2man_8h.html" target="_top" xlink:title=" ">
<polygon fill="white" stroke="#666666" points="1314.5,-162 1222.5,-162 1222.5,-132 1314.5,-132 1314.5,-162"/>
<text text-anchor="start" x="1230.5" y="-150" font-family="Helvetica,sans-Serif" font-size="10.00">iop/kernel/include</text>
<text text-anchor="middle" x="1268.5" y="-139" font-family="Helvetica,sans-Serif" font-size="10.00">/xsio2man.h</text>
</a>
</g>
</g>
<!-- Node1&#45;&gt;Node16 -->
<g id="edge15" class="edge">
<title>Node1&#45;&gt;Node16</title>
<path fill="none" stroke="#63b8ff" d="M1268.5,-186.39C1268.5,-178.13 1268.5,-169.28 1268.5,-162.16"/>
<polygon fill="#63b8ff" stroke="#63b8ff" points="1265,-186.28 1268.5,-196.28 1272,-186.28 1265,-186.28"/>
</g>
<!-- Node25 -->
<g id="node25" class="node">
<title>Node25</title>
<g id="a_node25"><a xlink:href="sio2man__hook_8c_source.html" target="_top" xlink:title=" ">
<polygon fill="white" stroke="#666666" points="1444,-162 1333,-162 1333,-132 1444,-132 1444,-162"/>
<text text-anchor="start" x="1341" y="-150" font-family="Helvetica,sans-Serif" font-size="10.00">iop/sio/mx4sio_bd/src</text>
<text text-anchor="middle" x="1388.5" y="-139" font-family="Helvetica,sans-Serif" font-size="10.00">/sio2man_hook.c</text>
</a>
</g>
</g>
<!-- Node1&#45;&gt;Node25 -->
<g id="edge27" class="edge">
<title>Node1&#45;&gt;Node25</title>
<path fill="none" stroke="#63b8ff" d="M1305.4,-192.32C1323.57,-182.63 1345.08,-171.16 1361.66,-162.31"/>
<polygon fill="#63b8ff" stroke="#63b8ff" points="1303.94,-189.13 1296.77,-196.92 1307.24,-195.31 1303.94,-189.13"/>
</g>
<!-- Node26 -->
<g id="node26" class="node">
<title>Node26</title>
<g id="a_node26"><a xlink:href="iop_2system_2padman_2src_2irx__imports_8h_source.html" target="_top" xlink:title=" ">
<polygon fill="white" stroke="#666666" points="1580.5,-162 1462.5,-162 1462.5,-132 1580.5,-132 1580.5,-162"/>
<text text-anchor="start" x="1470.5" y="-150" font-family="Helvetica,sans-Serif" font-size="10.00">iop/system/padman/src</text>
<text text-anchor="middle" x="1521.5" y="-139" font-family="Helvetica,sans-Serif" font-size="10.00">/irx_imports.h</text>
</a>
</g>
</g>
<!-- Node1&#45;&gt;Node26 -->
<g id="edge28" class="edge">
<title>Node1&#45;&gt;Node26</title>
<path fill="none" stroke="#63b8ff" d="M1332.06,-195.92C1372.69,-185.64 1424.96,-172.42 1464.3,-162.47"/>
<polygon fill="#63b8ff" stroke="#63b8ff" points="1331.23,-192.52 1322.39,-198.37 1332.94,-199.31 1331.23,-192.52"/>
</g>
<!-- Node27 -->
<g id="node27" class="node">
<title>Node27</title>
<g id="a_node27"><a xlink:href="pad_data_8c.html" target="_top" xlink:title=" ">
<polygon fill="white" stroke="#666666" points="1716.5,-162 1598.5,-162 1598.5,-132 1716.5,-132 1716.5,-162"/>
<text text-anchor="start" x="1606.5" y="-150" font-family="Helvetica,sans-Serif" font-size="10.00">iop/system/padman/src</text>
<text text-anchor="middle" x="1657.5" y="-139" font-family="Helvetica,sans-Serif" font-size="10.00">/padData.c</text>
</a>
</g>
</g>
<!-- Node1&#45;&gt;Node27 -->
<g id="edge29" class="edge">
<title>Node1&#45;&gt;Node27</title>
<path fill="none" stroke="#63b8ff" d="M1332.15,-203.02C1397.03,-193.64 1500.49,-178.09 1589.5,-162 1592.35,-161.49 1595.26,-160.94 1598.19,-160.39"/>
<polygon fill="#63b8ff" stroke="#63b8ff" points="1331.79,-199.53 1322.39,-204.42 1332.79,-206.46 1331.79,-199.53"/>
</g>
<!-- Node28 -->
<g id="node28" class="node">
<title>Node28</title>
<g id="a_node28"><a xlink:href="log_8h.html" target="_top" xlink:title=" ">
<polygon fill="white" stroke="#666666" points="1838.5,-162 1734.5,-162 1734.5,-132 1838.5,-132 1838.5,-162"/>
<text text-anchor="start" x="1742.5" y="-150" font-family="Helvetica,sans-Serif" font-size="10.00">iop/system/sio2man</text>
<text text-anchor="middle" x="1786.5" y="-139" font-family="Helvetica,sans-Serif" font-size="10.00">/include/log.h</text>
</a>
</g>
</g>
<!-- Node1&#45;&gt;Node28 -->
<g id="edge30" class="edge">
<title>Node1&#45;&gt;Node28</title>
<path fill="none" stroke="#63b8ff" d="M1332.33,-207.38C1420.97,-200.43 1586.16,-185.53 1725.5,-162 1728.29,-161.53 1731.13,-161.01 1734.01,-160.46"/>
<polygon fill="#63b8ff" stroke="#63b8ff" points="1332.07,-203.89 1322.37,-208.15 1332.61,-210.87 1332.07,-203.89"/>
</g>
<!-- Node2&#45;&gt;Node3 -->
<g id="edge2" class="edge">
<title>Node2&#45;&gt;Node3</title>
<path fill="none" stroke="#63b8ff" d="M649.83,-141.04C565.71,-133.44 404.54,-117.51 268.5,-96 265.84,-95.58 263.13,-95.13 260.4,-94.66"/>
<polygon fill="#63b8ff" stroke="#63b8ff" points="649.4,-144.52 659.68,-141.92 650.03,-137.54 649.4,-144.52"/>
</g>
<!-- Node2&#45;&gt;Node4 -->
<g id="edge3" class="edge">
<title>Node2&#45;&gt;Node4</title>
<path fill="none" stroke="#63b8ff" d="M649.95,-137.02C589.48,-127.44 491.64,-111.54 407.5,-96 404.86,-95.51 402.16,-95 399.43,-94.48"/>
<polygon fill="#63b8ff" stroke="#63b8ff" points="649.24,-140.45 659.66,-138.56 650.33,-133.54 649.24,-140.45"/>
</g>
<!-- Node10 -->
<g id="node10" class="node">
<title>Node10</title>
<g id="a_node10"><a xlink:href="_card_auth_8c_source.html" target="_top" xlink:title=" ">
<polygon fill="white" stroke="#666666" points="882,-96 775,-96 775,-66 882,-66 882,-96"/>
<text text-anchor="start" x="783" y="-84" font-family="Helvetica,sans-Serif" font-size="10.00">iop/security/secrman</text>
<text text-anchor="middle" x="828.5" y="-73" font-family="Helvetica,sans-Serif" font-size="10.00">/src/CardAuth.c</text>
</a>
</g>
</g>
<!-- Node2&#45;&gt;Node10 -->
<g id="edge9" class="edge">
<title>Node2&#45;&gt;Node10</title>
<path fill="none" stroke="#63b8ff" d="M744.71,-126.32C763.03,-116.63 784.72,-105.16 801.44,-96.31"/>
<polygon fill="#63b8ff" stroke="#63b8ff" points="743.2,-123.16 735.99,-130.93 746.47,-129.35 743.2,-123.16"/>
</g>
<!-- Node11 -->
<g id="node11" class="node">
<title>Node11</title>
<g id="a_node11"><a xlink:href="_mecha_auth_8c_source.html" target="_top" xlink:title=" ">
<polygon fill="white" stroke="#666666" points="1007,-96 900,-96 900,-66 1007,-66 1007,-96"/>
<text text-anchor="start" x="908" y="-84" font-family="Helvetica,sans-Serif" font-size="10.00">iop/security/secrman</text>
<text text-anchor="middle" x="953.5" y="-73" font-family="Helvetica,sans-Serif" font-size="10.00">/src/MechaAuth.c</text>
</a>
</g>
</g>
<!-- Node2&#45;&gt;Node11 -->
<g id="edge10" class="edge">
<title>Node2&#45;&gt;Node11</title>
<path fill="none" stroke="#63b8ff" d="M764.87,-131.07C805.58,-120.48 859.85,-106.36 899.73,-95.99"/>
<polygon fill="#63b8ff" stroke="#63b8ff" points="764.03,-127.68 755.24,-133.58 765.79,-134.45 764.03,-127.68"/>
</g>
<!-- Node12 -->
<g id="node12" class="node">
<title>Node12</title>
<g id="a_node12"><a xlink:href="keyman_8c_source.html" target="_top" xlink:title=" ">
<polygon fill="white" stroke="#666666" points="524,-96 417,-96 417,-66 524,-66 524,-96"/>
<text text-anchor="start" x="425" y="-84" font-family="Helvetica,sans-Serif" font-size="10.00">iop/security/secrman</text>
<text text-anchor="middle" x="470.5" y="-73" font-family="Helvetica,sans-Serif" font-size="10.00">/src/keyman.c</text>
</a>
</g>
</g>
<!-- Node2&#45;&gt;Node12 -->
<g id="edge11" class="edge">
<title>Node2&#45;&gt;Node12</title>
<path fill="none" stroke="#63b8ff" d="M650.25,-130.54C611.88,-120.18 561.69,-106.62 524.1,-96.47"/>
<polygon fill="#63b8ff" stroke="#63b8ff" points="649.21,-133.89 659.78,-133.11 651.04,-127.13 649.21,-133.89"/>
</g>
<!-- Node2&#45;&gt;Node13 -->
<g id="edge12" class="edge">
<title>Node2&#45;&gt;Node13</title>
<path fill="none" stroke="#63b8ff" d="M764.93,-137.69C826.92,-128.48 928.48,-112.72 1015.5,-96 1018.47,-95.43 1021.52,-94.82 1024.59,-94.2"/>
<polygon fill="#63b8ff" stroke="#63b8ff" points="764.7,-134.19 755.32,-139.11 765.73,-141.11 764.7,-134.19"/>
</g>
<!-- Node14 -->
<g id="node14" class="node">
<title>Node14</title>
<g id="a_node14"><a xlink:href="iop_2security_2secrsif_2src_2irx__imports_8h_source.html" target="_top" xlink:title=" ">
<polygon fill="white" stroke="#666666" points="640.5,-96 542.5,-96 542.5,-66 640.5,-66 640.5,-96"/>
<text text-anchor="start" x="550.5" y="-84" font-family="Helvetica,sans-Serif" font-size="10.00">iop/security/secrsif</text>
<text text-anchor="middle" x="591.5" y="-73" font-family="Helvetica,sans-Serif" font-size="10.00">/src/irx_imports.h</text>
</a>
</g>
</g>
<!-- Node2&#45;&gt;Node14 -->
<g id="edge13" class="edge">
<title>Node2&#45;&gt;Node14</title>
<path fill="none" stroke="#63b8ff" d="M671.58,-126.18C654.07,-116.52 633.4,-105.12 617.45,-96.31"/>
<polygon fill="#63b8ff" stroke="#63b8ff" points="669.7,-129.14 680.14,-130.91 673.08,-123.01 669.7,-129.14"/>
</g>
<!-- Node15 -->
<g id="node15" class="node">
<title>Node15</title>
<g id="a_node15"><a xlink:href="secrsif_8c_source.html" target="_top" xlink:title=" ">
<polygon fill="white" stroke="#666666" points="756.5,-96 658.5,-96 658.5,-66 756.5,-66 756.5,-96"/>
<text text-anchor="start" x="666.5" y="-84" font-family="Helvetica,sans-Serif" font-size="10.00">iop/security/secrsif</text>
<text text-anchor="middle" x="707.5" y="-73" font-family="Helvetica,sans-Serif" font-size="10.00">/src/secrsif.c</text>
</a>
</g>
</g>
<!-- Node2&#45;&gt;Node15 -->
<g id="edge14" class="edge">
<title>Node2&#45;&gt;Node15</title>
<path fill="none" stroke="#63b8ff" d="M707.5,-120.39C707.5,-112.13 707.5,-103.28 707.5,-96.16"/>
<polygon fill="#63b8ff" stroke="#63b8ff" points="704,-120.28 707.5,-130.28 711,-120.28 704,-120.28"/>
</g>
<!-- Node5 -->
<g id="node5" class="node">
<title>Node5</title>
<g id="a_node5"><a xlink:href="iop_2memorycard_2mcman_2src_2main_8c_source.html" target="_top" xlink:title=" ">
<polygon fill="white" stroke="#666666" points="677,-30 556,-30 556,0 677,0 677,-30"/>
<text text-anchor="start" x="564" y="-18" font-family="Helvetica,sans-Serif" font-size="10.00">iop/memorycard/mcman</text>
<text text-anchor="middle" x="616.5" y="-7" font-family="Helvetica,sans-Serif" font-size="10.00">/src/main.c</text>
</a>
</g>
</g>
<!-- Node4&#45;&gt;Node5 -->
<g id="edge4" class="edge">
<title>Node4&#45;&gt;Node5</title>
<path fill="none" stroke="#63b8ff" d="M410.36,-63.46C455.53,-53.06 513.14,-39.8 555.96,-29.94"/>
<polygon fill="#63b8ff" stroke="#63b8ff" points="409.6,-60.04 400.64,-65.69 411.17,-66.86 409.6,-60.04"/>
</g>
<!-- Node6 -->
<g id="node6" class="node">
<title>Node6</title>
<g id="a_node6"><a xlink:href="mcdev_8c_source.html" target="_top" xlink:title=" ">
<polygon fill="white" stroke="#666666" points="121,-30 0,-30 0,0 121,0 121,-30"/>
<text text-anchor="start" x="8" y="-18" font-family="Helvetica,sans-Serif" font-size="10.00">iop/memorycard/mcman</text>
<text text-anchor="middle" x="60.5" y="-7" font-family="Helvetica,sans-Serif" font-size="10.00">/src/mcdev.c</text>
</a>
</g>
</g>
<!-- Node4&#45;&gt;Node6 -->
<g id="edge5" class="edge">
<title>Node4&#45;&gt;Node6</title>
<path fill="none" stroke="#63b8ff" d="M266.64,-63.46C221.47,-53.06 163.86,-39.8 121.04,-29.94"/>
<polygon fill="#63b8ff" stroke="#63b8ff" points="265.83,-66.86 276.36,-65.69 267.4,-60.04 265.83,-66.86"/>
</g>
<!-- Node7 -->
<g id="node7" class="node">
<title>Node7</title>
<g id="a_node7"><a xlink:href="mcsio2_8c_source.html" target="_top" xlink:title=" ">
<polygon fill="white" stroke="#666666" points="260,-30 139,-30 139,0 260,0 260,-30"/>
<text text-anchor="start" x="147" y="-18" font-family="Helvetica,sans-Serif" font-size="10.00">iop/memorycard/mcman</text>
<text text-anchor="middle" x="199.5" y="-7" font-family="Helvetica,sans-Serif" font-size="10.00">/src/mcsio2.c</text>
</a>
</g>
</g>
<!-- Node4&#45;&gt;Node7 -->
<g id="edge6" class="edge">
<title>Node4&#45;&gt;Node7</title>
<path fill="none" stroke="#63b8ff" d="M296.92,-60.86C275.63,-51.05 250.15,-39.32 230.59,-30.31"/>
<polygon fill="#63b8ff" stroke="#63b8ff" points="295.38,-64 305.93,-65 298.31,-57.64 295.38,-64"/>
</g>
<!-- Node8 -->
<g id="node8" class="node">
<title>Node8</title>
<g id="a_node8"><a xlink:href="ps1mc__fio_8c_source.html" target="_top" xlink:title=" ">
<polygon fill="white" stroke="#666666" points="399,-30 278,-30 278,0 399,0 399,-30"/>
<text text-anchor="start" x="286" y="-18" font-family="Helvetica,sans-Serif" font-size="10.00">iop/memorycard/mcman</text>
<text text-anchor="middle" x="338.5" y="-7" font-family="Helvetica,sans-Serif" font-size="10.00">/src/ps1mc_fio.c</text>
</a>
</g>
</g>
<!-- Node4&#45;&gt;Node8 -->
<g id="edge7" class="edge">
<title>Node4&#45;&gt;Node8</title>
<path fill="none" stroke="#63b8ff" d="M338.5,-54.39C338.5,-46.13 338.5,-37.28 338.5,-30.16"/>
<polygon fill="#63b8ff" stroke="#63b8ff" points="335,-54.28 338.5,-64.28 342,-54.28 335,-54.28"/>
</g>
<!-- Node9 -->
<g id="node9" class="node">
<title>Node9</title>
<g id="a_node9"><a xlink:href="ps2mc__fio_8c_source.html" target="_top" xlink:title=" ">
<polygon fill="white" stroke="#666666" points="538,-30 417,-30 417,0 538,0 538,-30"/>
<text text-anchor="start" x="425" y="-18" font-family="Helvetica,sans-Serif" font-size="10.00">iop/memorycard/mcman</text>
<text text-anchor="middle" x="477.5" y="-7" font-family="Helvetica,sans-Serif" font-size="10.00">/src/ps2mc_fio.c</text>
</a>
</g>
</g>
<!-- Node4&#45;&gt;Node9 -->
<g id="edge8" class="edge">
<title>Node4&#45;&gt;Node9</title>
<path fill="none" stroke="#63b8ff" d="M380.08,-60.86C401.37,-51.05 426.85,-39.32 446.41,-30.31"/>
<polygon fill="#63b8ff" stroke="#63b8ff" points="378.69,-57.64 371.07,-65 381.62,-64 378.69,-57.64"/>
</g>
<!-- Node17 -->
<g id="node17" class="node">
<title>Node17</title>
<g id="a_node17"><a xlink:href="mx4sio_8c_source.html" target="_top" xlink:title=" ">
<polygon fill="white" stroke="#666666" points="1261,-96 1150,-96 1150,-66 1261,-66 1261,-96"/>
<text text-anchor="start" x="1158" y="-84" font-family="Helvetica,sans-Serif" font-size="10.00">iop/sio/mx4sio_bd/src</text>
<text text-anchor="middle" x="1205.5" y="-73" font-family="Helvetica,sans-Serif" font-size="10.00">/mx4sio.c</text>
</a>
</g>
</g>
<!-- Node16&#45;&gt;Node17 -->
<g id="edge16" class="edge">
<title>Node16&#45;&gt;Node17</title>
<path fill="none" stroke="#63b8ff" d="M1246.65,-123.81C1237.63,-114.64 1227.43,-104.28 1219.44,-96.16"/>
<polygon fill="#63b8ff" stroke="#63b8ff" points="1243.95,-126.05 1253.46,-130.72 1248.94,-121.14 1243.95,-126.05"/>
</g>
<!-- Node18 -->
<g id="node18" class="node">
<title>Node18</title>
<g id="a_node18"><a xlink:href="freemtap_8c.html" target="_top" xlink:title=" ">
<polygon fill="white" stroke="#666666" points="1386,-96 1279,-96 1279,-66 1386,-66 1386,-96"/>
<text text-anchor="start" x="1287" y="-84" font-family="Helvetica,sans-Serif" font-size="10.00">iop/system/mtapman</text>
<text text-anchor="middle" x="1332.5" y="-73" font-family="Helvetica,sans-Serif" font-size="10.00">/src/freemtap.c</text>
</a>
</g>
</g>
<!-- Node16&#45;&gt;Node18 -->
<g id="edge17" class="edge">
<title>Node16&#45;&gt;Node18</title>
<path fill="none" stroke="#63b8ff" d="M1290.69,-123.81C1299.86,-114.64 1310.22,-104.28 1318.34,-96.16"/>
<polygon fill="#63b8ff" stroke="#63b8ff" points="1288.37,-121.18 1283.77,-130.73 1293.32,-126.13 1288.37,-121.18"/>
</g>
<!-- Node19 -->
<g id="node19" class="node">
<title>Node19</title>
<g id="a_node19"><a xlink:href="iop_2system_2mtapman_2src_2irx__imports_8h_source.html" target="_top" xlink:title=" ">
<polygon fill="white" stroke="#666666" points="1511,-96 1404,-96 1404,-66 1511,-66 1511,-96"/>
<text text-anchor="start" x="1412" y="-84" font-family="Helvetica,sans-Serif" font-size="10.00">iop/system/mtapman</text>
<text text-anchor="middle" x="1457.5" y="-73" font-family="Helvetica,sans-Serif" font-size="10.00">/src/irx_imports.h</text>
</a>
</g>
</g>
<!-- Node16&#45;&gt;Node19 -->
<g id="edge18" class="edge">
<title>Node16&#45;&gt;Node19</title>
<path fill="none" stroke="#63b8ff" d="M1321.46,-128.07C1350.97,-118.07 1387.24,-105.79 1414.9,-96.43"/>
<polygon fill="#63b8ff" stroke="#63b8ff" points="1320.7,-124.63 1312.35,-131.15 1322.94,-131.26 1320.7,-124.63"/>
</g>
<!-- Node20 -->
<g id="node20" class="node">
<title>Node20</title>
<g id="a_node20"><a xlink:href="rsio2man_8h.html" target="_top" xlink:title=" ">
<polygon fill="white" stroke="#666666" points="1636,-96 1529,-96 1529,-66 1636,-66 1636,-96"/>
<text text-anchor="start" x="1537" y="-84" font-family="Helvetica,sans-Serif" font-size="10.00">iop/system/rsio2man</text>
<text text-anchor="middle" x="1582.5" y="-73" font-family="Helvetica,sans-Serif" font-size="10.00">/include/rsio2man.h</text>
</a>
</g>
</g>
<!-- Node16&#45;&gt;Node20 -->
<g id="edge19" class="edge">
<title>Node16&#45;&gt;Node20</title>
<path fill="none" stroke="#63b8ff" d="M1326.04,-131.53C1411.94,-113.08 1436.18,-112.9 1519.5,-96 1522.46,-95.4 1525.5,-94.77 1528.57,-94.12"/>
<polygon fill="#63b8ff" stroke="#63b8ff" points="1325.47,-128.07 1316.44,-133.62 1326.95,-134.92 1325.47,-128.07"/>
</g>
<!-- Node23 -->
<g id="node23" class="node">
<title>Node23</title>
<g id="a_node23"><a xlink:href="iop_2system_2sio2man_2src_2irx__imports_8h_source.html" target="_top" xlink:title=" ">
<polygon fill="white" stroke="#666666" points="1758.5,-96 1654.5,-96 1654.5,-66 1758.5,-66 1758.5,-96"/>
<text text-anchor="start" x="1662.5" y="-84" font-family="Helvetica,sans-Serif" font-size="10.00">iop/system/sio2man</text>
<text text-anchor="middle" x="1706.5" y="-73" font-family="Helvetica,sans-Serif" font-size="10.00">/src/irx_imports.h</text>
</a>
</g>
</g>
<!-- Node16&#45;&gt;Node23 -->
<g id="edge22" class="edge">
<title>Node16&#45;&gt;Node23</title>
<path fill="none" stroke="#63b8ff" d="M1326.11,-131.69C1466.74,-106.9 1506.53,-119.24 1644.5,-96 1647.66,-95.47 1650.89,-94.88 1654.15,-94.25"/>
<polygon fill="#63b8ff" stroke="#63b8ff" points="1325.62,-128.22 1316.4,-133.44 1326.86,-135.11 1325.62,-128.22"/>
</g>
<!-- Node24 -->
<g id="node24" class="node">
<title>Node24</title>
<g id="a_node24"><a xlink:href="sio2man_8c.html" target="_top" xlink:title=" ">
<polygon fill="white" stroke="#666666" points="1880.5,-96 1776.5,-96 1776.5,-66 1880.5,-66 1880.5,-96"/>
<text text-anchor="start" x="1784.5" y="-84" font-family="Helvetica,sans-Serif" font-size="10.00">iop/system/sio2man</text>
<text text-anchor="middle" x="1828.5" y="-73" font-family="Helvetica,sans-Serif" font-size="10.00">/src/sio2man.c</text>
</a>
</g>
</g>
<!-- Node16&#45;&gt;Node24 -->
<g id="edge23" class="edge">
<title>Node16&#45;&gt;Node24</title>
<path fill="none" stroke="#63b8ff" d="M1326.09,-131.77C1520.81,-100.44 1575.47,-125.66 1767.5,-96 1770.29,-95.57 1773.15,-95.08 1776.02,-94.55"/>
<polygon fill="#63b8ff" stroke="#63b8ff" points="1325.69,-128.29 1316.39,-133.36 1326.82,-135.19 1325.69,-128.29"/>
</g>
<!-- Node21 -->
<g id="node21" class="node">
<title>Node21</title>
<g id="a_node21"><a xlink:href="iop_2system_2rmman_2src_2irx__imports_8h_source.html" target="_top" xlink:title=" ">
<polygon fill="white" stroke="#666666" points="1704,-30 1591,-30 1591,0 1704,0 1704,-30"/>
<text text-anchor="start" x="1599" y="-18" font-family="Helvetica,sans-Serif" font-size="10.00">iop/system/rmman/src</text>
<text text-anchor="middle" x="1647.5" y="-7" font-family="Helvetica,sans-Serif" font-size="10.00">/irx_imports.h</text>
</a>
</g>
</g>
<!-- Node20&#45;&gt;Node21 -->
<g id="edge20" class="edge">
<title>Node20&#45;&gt;Node21</title>
<path fill="none" stroke="#63b8ff" d="M1605.04,-57.81C1614.35,-48.64 1624.88,-38.28 1633.11,-30.16"/>
<polygon fill="#63b8ff" stroke="#63b8ff" points="1602.67,-55.22 1598,-64.73 1607.59,-60.21 1602.67,-55.22"/>
</g>
<!-- Node22 -->
<g id="node22" class="node">
<title>Node22</title>
<g id="a_node22"><a xlink:href="rmman_8c_source.html" target="_top" xlink:title=" ">
<polygon fill="white" stroke="#666666" points="1573,-30 1460,-30 1460,0 1573,0 1573,-30"/>
<text text-anchor="start" x="1468" y="-18" font-family="Helvetica,sans-Serif" font-size="10.00">iop/system/rmman/src</text>
<text text-anchor="middle" x="1516.5" y="-7" font-family="Helvetica,sans-Serif" font-size="10.00">/rmman.c</text>
</a>
</g>
</g>
<!-- Node20&#45;&gt;Node22 -->
<g id="edge21" class="edge">
<title>Node20&#45;&gt;Node22</title>
<path fill="none" stroke="#63b8ff" d="M1559.61,-57.81C1550.16,-48.64 1539.47,-38.28 1531.11,-30.16"/>
<polygon fill="#63b8ff" stroke="#63b8ff" points="1557.15,-60.29 1566.77,-64.74 1562.02,-55.27 1557.15,-60.29"/>
</g>
</g>
</svg>
