<?xml version="1.0" encoding="UTF-8" standalone="no"?>
<!DOCTYPE svg PUBLIC "-//W3C//DTD SVG 1.1//EN"
 "http://www.w3.org/Graphics/SVG/1.1/DTD/svg11.dtd">
<!-- Generated by graphviz version 7.0.5 (20221223.1930)
 -->
<!-- Title: iop/system/padman/src/sio2Cmds.h Pages: 1 -->
<svg width="806pt" height="104pt"
 viewBox="0.00 0.00 806.00 104.00" xmlns="http://www.w3.org/2000/svg" xmlns:xlink="http://www.w3.org/1999/xlink">
<g id="graph0" class="graph" transform="scale(1 1) rotate(0) translate(4 100)">
<title>iop/system/padman/src/sio2Cmds.h</title>
<!-- Node1 -->
<g id="node1" class="node">
<title>Node1</title>
<g id="a_node1"><a xlink:title=" ">
<polygon fill="#999999" stroke="#666666" points="458,-96 340,-96 340,-66 458,-66 458,-96"/>
<text text-anchor="start" x="348" y="-84" font-family="Helvetica,sans-Serif" font-size="10.00">iop/system/padman/src</text>
<text text-anchor="middle" x="399" y="-73" font-family="Helvetica,sans-Serif" font-size="10.00">/sio2Cmds.h</text>
</a>
</g>
</g>
<!-- Node2 -->
<g id="node2" class="node">
<title>Node2</title>
<g id="a_node2"><a xlink:href="pad_cmds_8c.html" target="_top" xlink:title=" ">
<polygon fill="white" stroke="#666666" points="118,-30 0,-30 0,0 118,0 118,-30"/>
<text text-anchor="start" x="8" y="-18" font-family="Helvetica,sans-Serif" font-size="10.00">iop/system/padman/src</text>
<text text-anchor="middle" x="59" y="-7" font-family="Helvetica,sans-Serif" font-size="10.00">/padCmds.c</text>
</a>
</g>
</g>
<!-- Node1&#45;&gt;Node2 -->
<g id="edge1" class="edge">
<title>Node1&#45;&gt;Node2</title>
<path fill="none" stroke="#63b8ff" d="M328.49,-67.46C273.53,-57.59 195.34,-43.31 127,-30 124.16,-29.45 121.26,-28.87 118.32,-28.29"/>
<polygon fill="#63b8ff" stroke="#63b8ff" points="327.55,-70.85 338.01,-69.17 328.79,-63.96 327.55,-70.85"/>
</g>
<!-- Node3 -->
<g id="node3" class="node">
<title>Node3</title>
<g id="a_node3"><a xlink:href="pad_data_8c.html" target="_top" xlink:title=" ">
<polygon fill="white" stroke="#666666" points="254,-30 136,-30 136,0 254,0 254,-30"/>
<text text-anchor="start" x="144" y="-18" font-family="Helvetica,sans-Serif" font-size="10.00">iop/system/padman/src</text>
<text text-anchor="middle" x="195" y="-7" font-family="Helvetica,sans-Serif" font-size="10.00">/padData.c</text>
</a>
</g>
</g>
<!-- Node1&#45;&gt;Node3 -->
<g id="edge2" class="edge">
<title>Node1&#45;&gt;Node3</title>
<path fill="none" stroke="#63b8ff" d="M342.01,-62.12C310.08,-52.1 270.79,-39.78 240.87,-30.39"/>
<polygon fill="#63b8ff" stroke="#63b8ff" points="340.93,-65.45 351.52,-65.1 343.03,-58.77 340.93,-65.45"/>
</g>
<!-- Node4 -->
<g id="node4" class="node">
<title>Node4</title>
<g id="a_node4"><a xlink:href="pad_init_8c.html" target="_top" xlink:title=" ">
<polygon fill="white" stroke="#666666" points="390,-30 272,-30 272,0 390,0 390,-30"/>
<text text-anchor="start" x="280" y="-18" font-family="Helvetica,sans-Serif" font-size="10.00">iop/system/padman/src</text>
<text text-anchor="middle" x="331" y="-7" font-family="Helvetica,sans-Serif" font-size="10.00">/padInit.c</text>
</a>
</g>
</g>
<!-- Node1&#45;&gt;Node4 -->
<g id="edge3" class="edge">
<title>Node1&#45;&gt;Node4</title>
<path fill="none" stroke="#63b8ff" d="M375.72,-58.09C365.9,-48.85 354.76,-38.36 346.05,-30.16"/>
<polygon fill="#63b8ff" stroke="#63b8ff" points="373.13,-60.45 382.81,-64.76 377.92,-55.36 373.13,-60.45"/>
</g>
<!-- Node5 -->
<g id="node5" class="node">
<title>Node5</title>
<g id="a_node5"><a xlink:href="pad_misc_funcs_8c.html" target="_top" xlink:title=" ">
<polygon fill="white" stroke="#666666" points="526,-30 408,-30 408,0 526,0 526,-30"/>
<text text-anchor="start" x="416" y="-18" font-family="Helvetica,sans-Serif" font-size="10.00">iop/system/padman/src</text>
<text text-anchor="middle" x="467" y="-7" font-family="Helvetica,sans-Serif" font-size="10.00">/padMiscFuncs.c</text>
</a>
</g>
</g>
<!-- Node1&#45;&gt;Node5 -->
<g id="edge4" class="edge">
<title>Node1&#45;&gt;Node5</title>
<path fill="none" stroke="#63b8ff" d="M422.28,-58.09C432.1,-48.85 443.24,-38.36 451.95,-30.16"/>
<polygon fill="#63b8ff" stroke="#63b8ff" points="420.08,-55.36 415.19,-64.76 424.87,-60.45 420.08,-55.36"/>
</g>
<!-- Node6 -->
<g id="node6" class="node">
<title>Node6</title>
<g id="a_node6"><a xlink:href="pad_port_open_8c.html" target="_top" xlink:title=" ">
<polygon fill="white" stroke="#666666" points="662,-30 544,-30 544,0 662,0 662,-30"/>
<text text-anchor="start" x="552" y="-18" font-family="Helvetica,sans-Serif" font-size="10.00">iop/system/padman/src</text>
<text text-anchor="middle" x="603" y="-7" font-family="Helvetica,sans-Serif" font-size="10.00">/padPortOpen.c</text>
</a>
</g>
</g>
<!-- Node1&#45;&gt;Node6 -->
<g id="edge5" class="edge">
<title>Node1&#45;&gt;Node6</title>
<path fill="none" stroke="#63b8ff" d="M455.99,-62.12C487.92,-52.1 527.21,-39.78 557.13,-30.39"/>
<polygon fill="#63b8ff" stroke="#63b8ff" points="454.97,-58.77 446.48,-65.1 457.07,-65.45 454.97,-58.77"/>
</g>
<!-- Node7 -->
<g id="node7" class="node">
<title>Node7</title>
<g id="a_node7"><a xlink:href="sio2_cmds_8c.html" target="_top" xlink:title=" ">
<polygon fill="white" stroke="#666666" points="798,-30 680,-30 680,0 798,0 798,-30"/>
<text text-anchor="start" x="688" y="-18" font-family="Helvetica,sans-Serif" font-size="10.00">iop/system/padman/src</text>
<text text-anchor="middle" x="739" y="-7" font-family="Helvetica,sans-Serif" font-size="10.00">/sio2Cmds.c</text>
</a>
</g>
</g>
<!-- Node1&#45;&gt;Node7 -->
<g id="edge6" class="edge">
<title>Node1&#45;&gt;Node7</title>
<path fill="none" stroke="#63b8ff" d="M469.51,-67.46C524.47,-57.59 602.66,-43.31 671,-30 673.84,-29.45 676.74,-28.87 679.68,-28.29"/>
<polygon fill="#63b8ff" stroke="#63b8ff" points="469.21,-63.96 459.99,-69.17 470.45,-70.85 469.21,-63.96"/>
</g>
</g>
</svg>
