<?xml version="1.0" encoding="UTF-8" standalone="no"?>
<!DOCTYPE svg PUBLIC "-//W3C//DTD SVG 1.1//EN"
 "http://www.w3.org/Graphics/SVG/1.1/DTD/svg11.dtd">
<!-- Generated by graphviz version 7.0.5 (20221223.1930)
 -->
<!-- Title: iop/system/sio2man/src/sio2man.c Pages: 1 -->
<svg width="780pt" height="313pt"
 viewBox="0.00 0.00 779.50 313.00" xmlns="http://www.w3.org/2000/svg" xmlns:xlink="http://www.w3.org/1999/xlink">
<g id="graph0" class="graph" transform="scale(1 1) rotate(0) translate(4 309)">
<title>iop/system/sio2man/src/sio2man.c</title>
<!-- Node1 -->
<g id="node1" class="node">
<title>Node1</title>
<g id="a_node1"><a xlink:title=" ">
<polygon fill="#999999" stroke="#666666" points="457,-305 353,-305 353,-275 457,-275 457,-305"/>
<text text-anchor="start" x="361" y="-293" font-family="Helvetica,sans-Serif" font-size="10.00">iop/system/sio2man</text>
<text text-anchor="middle" x="405" y="-282" font-family="Helvetica,sans-Serif" font-size="10.00">/src/sio2man.c</text>
</a>
</g>
</g>
<!-- Node2 -->
<g id="node2" class="node">
<title>Node2</title>
<g id="a_node2"><a xlink:href="irx_8h.html" target="_top" xlink:title=" ">
<polygon fill="white" stroke="#666666" points="369,-129 335,-129 335,-110 369,-110 369,-129"/>
<text text-anchor="middle" x="352" y="-117" font-family="Helvetica,sans-Serif" font-size="10.00">irx.h</text>
</a>
</g>
</g>
<!-- Node1&#45;&gt;Node2 -->
<g id="edge1" class="edge">
<title>Node1&#45;&gt;Node2</title>
<path fill="none" stroke="#63b8ff" d="M366.3,-274.64C330.25,-258.79 279.26,-229.34 260,-184 247.03,-153.45 292.43,-135.38 324.02,-126.75"/>
<polygon fill="#63b8ff" stroke="#63b8ff" points="324.59,-130.21 333.43,-124.36 322.87,-123.43 324.59,-130.21"/>
</g>
<!-- Node6 -->
<g id="node6" class="node">
<title>Node6</title>
<g id="a_node6"><a xlink:href="defs_8h.html" target="_top" xlink:title=" ">
<polygon fill="white" stroke="#666666" points="698.5,-239 655.5,-239 655.5,-220 698.5,-220 698.5,-239"/>
<text text-anchor="middle" x="677" y="-227" font-family="Helvetica,sans-Serif" font-size="10.00">defs.h</text>
</a>
</g>
</g>
<!-- Node1&#45;&gt;Node6 -->
<g id="edge5" class="edge">
<title>Node1&#45;&gt;Node6</title>
<path fill="none" stroke="#63b8ff" d="M457.44,-277.72C512.55,-265.87 597.52,-247.59 643.94,-237.61"/>
<polygon fill="#63b8ff" stroke="#63b8ff" points="644.62,-241.04 653.66,-235.52 643.15,-234.2 644.62,-241.04"/>
</g>
<!-- Node7 -->
<g id="node7" class="node">
<title>Node7</title>
<g id="a_node7"><a xlink:title=" ">
<polygon fill="#e0e0e0" stroke="#999999" points="771.5,-129 724.5,-129 724.5,-110 771.5,-110 771.5,-129"/>
<text text-anchor="middle" x="748" y="-117" font-family="Helvetica,sans-Serif" font-size="10.00">types.h</text>
</a>
</g>
</g>
<!-- Node1&#45;&gt;Node7 -->
<g id="edge7" class="edge">
<title>Node1&#45;&gt;Node7</title>
<path fill="none" stroke="#63b8ff" d="M457.48,-286.66C533.74,-282.24 670.14,-270.1 707,-239 736.31,-214.27 744.7,-167.46 747.08,-140.67"/>
<polygon fill="#63b8ff" stroke="#63b8ff" points="750.56,-141.03 747.73,-130.82 743.58,-140.57 750.56,-141.03"/>
</g>
<!-- Node8 -->
<g id="node8" class="node">
<title>Node8</title>
<g id="a_node8"><a xlink:href="loadcore_8h.html" target="_top" xlink:title=" ">
<polygon fill="white" stroke="#666666" points="512.5,-184 451.5,-184 451.5,-165 512.5,-165 512.5,-184"/>
<text text-anchor="middle" x="482" y="-172" font-family="Helvetica,sans-Serif" font-size="10.00">loadcore.h</text>
</a>
</g>
</g>
<!-- Node1&#45;&gt;Node8 -->
<g id="edge8" class="edge">
<title>Node1&#45;&gt;Node8</title>
<path fill="none" stroke="#63b8ff" d="M414.75,-274.63C428.73,-254.03 454.44,-216.12 469.7,-193.63"/>
<polygon fill="#63b8ff" stroke="#63b8ff" points="472.51,-195.72 475.23,-185.48 466.72,-191.79 472.51,-195.72"/>
</g>
<!-- Node9 -->
<g id="node9" class="node">
<title>Node9</title>
<g id="a_node9"><a xlink:href="intrman_8h.html" target="_top" xlink:title=" ">
<polygon fill="white" stroke="#666666" points="56,-184 0,-184 0,-165 56,-165 56,-184"/>
<text text-anchor="middle" x="28" y="-172" font-family="Helvetica,sans-Serif" font-size="10.00">intrman.h</text>
</a>
</g>
</g>
<!-- Node1&#45;&gt;Node9 -->
<g id="edge11" class="edge">
<title>Node1&#45;&gt;Node9</title>
<path fill="none" stroke="#63b8ff" d="M352.83,-281.35C304.23,-273.45 230.13,-259.38 168,-239 127.03,-225.56 82.01,-203.8 54.38,-189.57"/>
<polygon fill="#63b8ff" stroke="#63b8ff" points="56.17,-186.55 45.68,-185.03 52.93,-192.76 56.17,-186.55"/>
</g>
<!-- Node10 -->
<g id="node10" class="node">
<title>Node10</title>
<g id="a_node10"><a xlink:href="dmacman_8h.html" target="_top" xlink:title=" ">
<polygon fill="white" stroke="#666666" points="141.5,-184 74.5,-184 74.5,-165 141.5,-165 141.5,-184"/>
<text text-anchor="middle" x="108" y="-172" font-family="Helvetica,sans-Serif" font-size="10.00">dmacman.h</text>
</a>
</g>
</g>
<!-- Node1&#45;&gt;Node10 -->
<g id="edge14" class="edge">
<title>Node1&#45;&gt;Node10</title>
<path fill="none" stroke="#63b8ff" d="M352.76,-280.74C311.71,-273.1 253.69,-259.76 206,-239 177.03,-226.39 147.02,-205.6 127.96,-191.27"/>
<polygon fill="#63b8ff" stroke="#63b8ff" points="130.33,-188.67 120.26,-185.36 126.07,-194.22 130.33,-188.67"/>
</g>
<!-- Node11 -->
<g id="node11" class="node">
<title>Node11</title>
<g id="a_node11"><a xlink:href="stdio_8h.html" target="_top" xlink:title=" ">
<polygon fill="white" stroke="#666666" points="371.5,-239 326.5,-239 326.5,-220 371.5,-220 371.5,-239"/>
<text text-anchor="middle" x="349" y="-227" font-family="Helvetica,sans-Serif" font-size="10.00">stdio.h</text>
</a>
</g>
</g>
<!-- Node1&#45;&gt;Node11 -->
<g id="edge17" class="edge">
<title>Node1&#45;&gt;Node11</title>
<path fill="none" stroke="#63b8ff" d="M391.16,-274.54C383.27,-266.3 373.36,-255.94 365.12,-247.34"/>
<polygon fill="#63b8ff" stroke="#63b8ff" points="367.79,-245.07 358.35,-240.27 362.74,-249.91 367.79,-245.07"/>
</g>
<!-- Node13 -->
<g id="node13" class="node">
<title>Node13</title>
<g id="a_node13"><a xlink:href="thbase_8h.html" target="_top" xlink:title=" ">
<polygon fill="white" stroke="#666666" points="212.5,-184 159.5,-184 159.5,-165 212.5,-165 212.5,-184"/>
<text text-anchor="middle" x="186" y="-172" font-family="Helvetica,sans-Serif" font-size="10.00">thbase.h</text>
</a>
</g>
</g>
<!-- Node1&#45;&gt;Node13 -->
<g id="edge20" class="edge">
<title>Node1&#45;&gt;Node13</title>
<path fill="none" stroke="#63b8ff" d="M352.76,-284.24C314.79,-278.57 263.81,-266.16 227,-239 211.67,-227.69 200.54,-208.78 193.78,-194.54"/>
<polygon fill="#63b8ff" stroke="#63b8ff" points="197.13,-193.47 189.9,-185.73 190.73,-196.29 197.13,-193.47"/>
</g>
<!-- Node14 -->
<g id="node14" class="node">
<title>Node14</title>
<g id="a_node14"><a xlink:href="thevent_8h.html" target="_top" xlink:title=" ">
<polygon fill="white" stroke="#666666" points="433,-184 377,-184 377,-165 433,-165 433,-184"/>
<text text-anchor="middle" x="405" y="-172" font-family="Helvetica,sans-Serif" font-size="10.00">thevent.h</text>
</a>
</g>
</g>
<!-- Node1&#45;&gt;Node14 -->
<g id="edge23" class="edge">
<title>Node1&#45;&gt;Node14</title>
<path fill="none" stroke="#63b8ff" d="M405,-274.63C405,-254.59 405,-218.17 405,-195.49"/>
<polygon fill="#63b8ff" stroke="#63b8ff" points="408.5,-195.74 405,-185.74 401.5,-195.74 408.5,-195.74"/>
</g>
<!-- Node15 -->
<g id="node15" class="node">
<title>Node15</title>
<g id="a_node15"><a xlink:href="ioman_8h.html" target="_top" xlink:title=" ">
<polygon fill="white" stroke="#666666" points="581,-184 531,-184 531,-165 581,-165 581,-184"/>
<text text-anchor="middle" x="556" y="-172" font-family="Helvetica,sans-Serif" font-size="10.00">ioman.h</text>
</a>
</g>
</g>
<!-- Node1&#45;&gt;Node15 -->
<g id="edge26" class="edge">
<title>Node1&#45;&gt;Node15</title>
<path fill="none" stroke="#63b8ff" d="M424.12,-274.63C452.64,-253.19 506.1,-213.01 535.43,-190.96"/>
<polygon fill="#63b8ff" stroke="#63b8ff" points="537.29,-193.95 543.18,-185.14 533.08,-188.35 537.29,-193.95"/>
</g>
<!-- Node19 -->
<g id="node19" class="node">
<title>Node19</title>
<g id="a_node19"><a xlink:href="xsio2man_8h.html" target="_top" xlink:title=" ">
<polygon fill="white" stroke="#666666" points="626.5,-239 561.5,-239 561.5,-220 626.5,-220 626.5,-239"/>
<text text-anchor="middle" x="594" y="-227" font-family="Helvetica,sans-Serif" font-size="10.00">xsio2man.h</text>
</a>
</g>
</g>
<!-- Node1&#45;&gt;Node19 -->
<g id="edge32" class="edge">
<title>Node1&#45;&gt;Node19</title>
<path fill="none" stroke="#63b8ff" d="M451.72,-274.54C483.22,-264.79 524.34,-252.06 554.26,-242.8"/>
<polygon fill="#63b8ff" stroke="#63b8ff" points="555.18,-246.18 563.7,-239.88 553.11,-239.49 555.18,-246.18"/>
</g>
<!-- Node3 -->
<g id="node3" class="node">
<title>Node3</title>
<g id="a_node3"><a xlink:href="iop_2kernel_2include_2types_8h_source.html" target="_top" xlink:title=" ">
<polygon fill="white" stroke="#666666" points="395.5,-74 348.5,-74 348.5,-55 395.5,-55 395.5,-74"/>
<text text-anchor="middle" x="372" y="-62" font-family="Helvetica,sans-Serif" font-size="10.00">types.h</text>
</a>
</g>
</g>
<!-- Node2&#45;&gt;Node3 -->
<g id="edge2" class="edge">
<title>Node2&#45;&gt;Node3</title>
<path fill="none" stroke="#63b8ff" d="M355.3,-109.75C357.83,-103.04 361.43,-93.52 364.63,-85.02"/>
<polygon fill="#63b8ff" stroke="#63b8ff" points="367.84,-86.45 368.09,-75.86 361.29,-83.98 367.84,-86.45"/>
</g>
<!-- Node4 -->
<g id="node4" class="node">
<title>Node4</title>
<g id="a_node4"><a xlink:title=" ">
<polygon fill="#e0e0e0" stroke="#999999" points="359.5,-19 308.5,-19 308.5,0 359.5,0 359.5,-19"/>
<text text-anchor="middle" x="334" y="-7" font-family="Helvetica,sans-Serif" font-size="10.00">stddef.h</text>
</a>
</g>
</g>
<!-- Node3&#45;&gt;Node4 -->
<g id="edge3" class="edge">
<title>Node3&#45;&gt;Node4</title>
<path fill="none" stroke="#63b8ff" d="M365.73,-54.75C360.64,-47.66 353.3,-37.42 346.97,-28.59"/>
<polygon fill="#63b8ff" stroke="#63b8ff" points="349.96,-26.76 341.29,-20.67 344.28,-30.84 349.96,-26.76"/>
</g>
<!-- Node5 -->
<g id="node5" class="node">
<title>Node5</title>
<g id="a_node5"><a xlink:href="tamtypes_8h.html" target="_top" xlink:title=" ">
<polygon fill="white" stroke="#666666" points="442,-19 378,-19 378,0 442,0 442,-19"/>
<text text-anchor="middle" x="410" y="-7" font-family="Helvetica,sans-Serif" font-size="10.00">tamtypes.h</text>
</a>
</g>
</g>
<!-- Node3&#45;&gt;Node5 -->
<g id="edge4" class="edge">
<title>Node3&#45;&gt;Node5</title>
<path fill="none" stroke="#63b8ff" d="M378.27,-54.75C383.36,-47.66 390.7,-37.42 397.03,-28.59"/>
<polygon fill="#63b8ff" stroke="#63b8ff" points="399.72,-30.84 402.71,-20.67 394.04,-26.76 399.72,-30.84"/>
</g>
<!-- Node6&#45;&gt;Node3 -->
<g id="edge6" class="edge">
<title>Node6&#45;&gt;Node3</title>
<path fill="none" stroke="#63b8ff" d="M678.59,-219.57C680.45,-206.14 681.82,-180.64 669,-165 635.05,-123.56 477.43,-86.97 406.61,-72.31"/>
<polygon fill="#63b8ff" stroke="#63b8ff" points="407.61,-68.94 397.11,-70.37 406.21,-75.8 407.61,-68.94"/>
</g>
<!-- Node8&#45;&gt;Node2 -->
<g id="edge10" class="edge">
<title>Node8&#45;&gt;Node2</title>
<path fill="none" stroke="#63b8ff" d="M459.95,-164.51C437.81,-155.48 403.64,-141.55 379.69,-131.79"/>
<polygon fill="#63b8ff" stroke="#63b8ff" points="381.15,-128.61 370.57,-128.07 378.51,-135.09 381.15,-128.61"/>
</g>
<!-- Node8&#45;&gt;Node3 -->
<g id="edge9" class="edge">
<title>Node8&#45;&gt;Node3</title>
<path fill="none" stroke="#63b8ff" d="M473,-164.66C454.71,-146.7 412.93,-105.69 389.24,-82.42"/>
<polygon fill="#63b8ff" stroke="#63b8ff" points="391.79,-80.03 382.21,-75.52 386.89,-85.02 391.79,-80.03"/>
</g>
<!-- Node9&#45;&gt;Node2 -->
<g id="edge13" class="edge">
<title>Node9&#45;&gt;Node2</title>
<path fill="none" stroke="#63b8ff" d="M56.24,-166.79C59.19,-166.16 62.15,-165.55 65,-165 159.2,-146.9 271.9,-131.13 323.57,-124.22"/>
<polygon fill="#63b8ff" stroke="#63b8ff" points="323.83,-127.71 333.28,-122.93 322.91,-120.77 323.83,-127.71"/>
</g>
<!-- Node9&#45;&gt;Node3 -->
<g id="edge12" class="edge">
<title>Node9&#45;&gt;Node3</title>
<path fill="none" stroke="#63b8ff" d="M54.45,-164.51C91.56,-151.96 161.23,-128.64 221,-110 260.68,-97.63 306.5,-84.25 337.16,-75.43"/>
<polygon fill="#63b8ff" stroke="#63b8ff" points="338.03,-78.82 346.68,-72.7 336.1,-72.1 338.03,-78.82"/>
</g>
<!-- Node10&#45;&gt;Node2 -->
<g id="edge16" class="edge">
<title>Node10&#45;&gt;Node2</title>
<path fill="none" stroke="#63b8ff" d="M141.93,-166.13C190.37,-155.61 278.48,-136.47 323.65,-126.66"/>
<polygon fill="#63b8ff" stroke="#63b8ff" points="324.16,-130.13 333.19,-124.59 322.67,-123.29 324.16,-130.13"/>
</g>
<!-- Node10&#45;&gt;Node3 -->
<g id="edge15" class="edge">
<title>Node10&#45;&gt;Node3</title>
<path fill="none" stroke="#63b8ff" d="M129.6,-164.66C175.92,-145.72 284.98,-101.1 339.62,-78.75"/>
<polygon fill="#63b8ff" stroke="#63b8ff" points="340.77,-82.06 348.7,-75.03 338.12,-75.58 340.77,-82.06"/>
</g>
<!-- Node11&#45;&gt;Node2 -->
<g id="edge19" class="edge">
<title>Node11&#45;&gt;Node2</title>
<path fill="none" stroke="#63b8ff" d="M349.25,-219.66C349.72,-202.57 350.77,-164.61 351.43,-140.92"/>
<polygon fill="#63b8ff" stroke="#63b8ff" points="354.93,-141.07 351.71,-130.97 347.93,-140.87 354.93,-141.07"/>
</g>
<!-- Node12 -->
<g id="node12" class="node">
<title>Node12</title>
<g id="a_node12"><a xlink:title=" ">
<polygon fill="#e0e0e0" stroke="#999999" points="320.5,-184 269.5,-184 269.5,-165 320.5,-165 320.5,-184"/>
<text text-anchor="middle" x="295" y="-172" font-family="Helvetica,sans-Serif" font-size="10.00">stdarg.h</text>
</a>
</g>
</g>
<!-- Node11&#45;&gt;Node12 -->
<g id="edge18" class="edge">
<title>Node11&#45;&gt;Node12</title>
<path fill="none" stroke="#63b8ff" d="M340.08,-219.75C332.55,-212.35 321.53,-201.54 312.27,-192.45"/>
<polygon fill="#63b8ff" stroke="#63b8ff" points="314.78,-190.01 305.19,-185.5 309.88,-195 314.78,-190.01"/>
</g>
<!-- Node13&#45;&gt;Node2 -->
<g id="edge22" class="edge">
<title>Node13&#45;&gt;Node2</title>
<path fill="none" stroke="#63b8ff" d="M212.67,-164.98C243.06,-155.28 292.54,-139.48 323.63,-129.56"/>
<polygon fill="#63b8ff" stroke="#63b8ff" points="324.66,-132.9 333.12,-126.53 322.53,-126.24 324.66,-132.9"/>
</g>
<!-- Node13&#45;&gt;Node3 -->
<g id="edge21" class="edge">
<title>Node13&#45;&gt;Node3</title>
<path fill="none" stroke="#63b8ff" d="M201.22,-164.66C233.17,-146.11 307.5,-102.95 346.73,-80.18"/>
<polygon fill="#63b8ff" stroke="#63b8ff" points="348.37,-83.27 355.26,-75.22 344.85,-77.21 348.37,-83.27"/>
</g>
<!-- Node14&#45;&gt;Node2 -->
<g id="edge25" class="edge">
<title>Node14&#45;&gt;Node2</title>
<path fill="none" stroke="#63b8ff" d="M396.25,-164.75C388.85,-157.35 378.04,-146.54 368.95,-137.45"/>
<polygon fill="#63b8ff" stroke="#63b8ff" points="371.56,-135.11 362.01,-130.51 366.61,-140.06 371.56,-135.11"/>
</g>
<!-- Node14&#45;&gt;Node3 -->
<g id="edge24" class="edge">
<title>Node14&#45;&gt;Node3</title>
<path fill="none" stroke="#63b8ff" d="M402.3,-164.66C397.03,-147.42 385.26,-108.9 378.04,-85.27"/>
<polygon fill="#63b8ff" stroke="#63b8ff" points="381.45,-84.45 375.18,-75.91 374.76,-86.49 381.45,-84.45"/>
</g>
<!-- Node15&#45;&gt;Node2 -->
<g id="edge28" class="edge">
<title>Node15&#45;&gt;Node2</title>
<path fill="none" stroke="#63b8ff" d="M530.58,-166.89C492.36,-156.97 420.33,-138.25 380.43,-127.89"/>
<polygon fill="#63b8ff" stroke="#63b8ff" points="381.4,-124.52 370.84,-125.4 379.64,-131.3 381.4,-124.52"/>
</g>
<!-- Node15&#45;&gt;Node3 -->
<g id="edge27" class="edge">
<title>Node15&#45;&gt;Node3</title>
<path fill="none" stroke="#63b8ff" d="M540.94,-164.66C509.27,-146.07 435.49,-102.77 396.76,-80.03"/>
<polygon fill="#63b8ff" stroke="#63b8ff" points="398.97,-77.27 388.57,-75.23 395.42,-83.31 398.97,-77.27"/>
</g>
<!-- Node16 -->
<g id="node16" class="node">
<title>Node16</title>
<g id="a_node16"><a xlink:href="io__common_8h.html" target="_top" xlink:title=" ">
<polygon fill="white" stroke="#666666" points="706,-129 632,-129 632,-110 706,-110 706,-129"/>
<text text-anchor="middle" x="669" y="-117" font-family="Helvetica,sans-Serif" font-size="10.00">io_common.h</text>
</a>
</g>
</g>
<!-- Node15&#45;&gt;Node16 -->
<g id="edge29" class="edge">
<title>Node15&#45;&gt;Node16</title>
<path fill="none" stroke="#63b8ff" d="M575.17,-164.51C592.89,-156.2 619.48,-143.73 639.83,-134.18"/>
<polygon fill="#63b8ff" stroke="#63b8ff" points="641.18,-137.42 648.74,-130 638.2,-131.08 641.18,-137.42"/>
</g>
<!-- Node17 -->
<g id="node17" class="node">
<title>Node17</title>
<g id="a_node17"><a xlink:href="fcntl_8h_source.html" target="_top" xlink:title=" ">
<polygon fill="white" stroke="#666666" points="740.5,-74 679.5,-74 679.5,-55 740.5,-55 740.5,-74"/>
<text text-anchor="middle" x="710" y="-62" font-family="Helvetica,sans-Serif" font-size="10.00">sys/fcntl.h</text>
</a>
</g>
</g>
<!-- Node16&#45;&gt;Node17 -->
<g id="edge30" class="edge">
<title>Node16&#45;&gt;Node17</title>
<path fill="none" stroke="#63b8ff" d="M675.77,-109.75C681.32,-102.58 689.34,-92.2 696.23,-83.3"/>
<polygon fill="#63b8ff" stroke="#63b8ff" points="698.81,-85.69 702.16,-75.64 693.27,-81.41 698.81,-85.69"/>
</g>
<!-- Node18 -->
<g id="node18" class="node">
<title>Node18</title>
<g id="a_node18"><a xlink:href="unistd_8h_source.html" target="_top" xlink:title=" ">
<polygon fill="white" stroke="#666666" points="661,-74 593,-74 593,-55 661,-55 661,-74"/>
<text text-anchor="middle" x="627" y="-62" font-family="Helvetica,sans-Serif" font-size="10.00">sys/unistd.h</text>
</a>
</g>
</g>
<!-- Node16&#45;&gt;Node18 -->
<g id="edge31" class="edge">
<title>Node16&#45;&gt;Node18</title>
<path fill="none" stroke="#63b8ff" d="M662.06,-109.75C656.38,-102.58 648.16,-92.2 641.11,-83.3"/>
<polygon fill="#63b8ff" stroke="#63b8ff" points="643.98,-81.29 635.03,-75.63 638.49,-85.64 643.98,-81.29"/>
</g>
<!-- Node20 -->
<g id="node20" class="node">
<title>Node20</title>
<g id="a_node20"><a xlink:href="sio2man_8h.html" target="_top" xlink:title=" ">
<polygon fill="white" stroke="#666666" points="660.5,-184 599.5,-184 599.5,-165 660.5,-165 660.5,-184"/>
<text text-anchor="middle" x="630" y="-172" font-family="Helvetica,sans-Serif" font-size="10.00">sio2man.h</text>
</a>
</g>
</g>
<!-- Node19&#45;&gt;Node20 -->
<g id="edge33" class="edge">
<title>Node19&#45;&gt;Node20</title>
<path fill="none" stroke="#63b8ff" d="M599.94,-219.75C604.71,-212.73 611.56,-202.64 617.52,-193.87"/>
<polygon fill="#63b8ff" stroke="#63b8ff" points="620.35,-195.93 623.08,-185.69 614.56,-192 620.35,-195.93"/>
</g>
<!-- Node20&#45;&gt;Node2 -->
<g id="edge35" class="edge">
<title>Node20&#45;&gt;Node2</title>
<path fill="none" stroke="#63b8ff" d="M599.01,-166.84C595.97,-166.21 592.92,-165.58 590,-165 514.48,-149.92 425.16,-133.63 380.47,-125.59"/>
<polygon fill="#63b8ff" stroke="#63b8ff" points="381.3,-122.18 370.84,-123.86 380.06,-129.07 381.3,-122.18"/>
</g>
<!-- Node20&#45;&gt;Node7 -->
<g id="edge34" class="edge">
<title>Node20&#45;&gt;Node7</title>
<path fill="none" stroke="#63b8ff" d="M650.02,-164.51C668.61,-156.16 696.54,-143.61 717.83,-134.05"/>
<polygon fill="#63b8ff" stroke="#63b8ff" points="719.21,-137.27 726.9,-129.98 716.34,-130.88 719.21,-137.27"/>
</g>
</g>
</svg>
