<?xml version="1.0" encoding="UTF-8" standalone="no"?>
<!DOCTYPE svg PUBLIC "-//W3C//DTD SVG 1.1//EN"
 "http://www.w3.org/Graphics/SVG/1.1/DTD/svg11.dtd">
<!-- Generated by graphviz version 7.0.5 (20221223.1930)
 -->
<!-- Title: ee/kernel/include/sio.h Pages: 1 -->
<svg width="346pt" height="93pt"
 viewBox="0.00 0.00 346.00 93.00" xmlns="http://www.w3.org/2000/svg" xmlns:xlink="http://www.w3.org/1999/xlink">
<g id="graph0" class="graph" transform="scale(1 1) rotate(0) translate(4 89)">
<title>ee/kernel/include/sio.h</title>
<!-- Node1 -->
<g id="node1" class="node">
<title>Node1</title>
<g id="a_node1"><a xlink:title=" ">
<polygon fill="#999999" stroke="#666666" points="224.5,-85 111.5,-85 111.5,-66 224.5,-66 224.5,-85"/>
<text text-anchor="middle" x="168" y="-73" font-family="Helvetica,sans-Serif" font-size="10.00">ee/kernel/include/sio.h</text>
</a>
</g>
</g>
<!-- Node2 -->
<g id="node2" class="node">
<title>Node2</title>
<g id="a_node2"><a xlink:href="sio_8c.html" target="_top" xlink:title=" ">
<polygon fill="white" stroke="#666666" points="96,-24.5 0,-24.5 0,-5.5 96,-5.5 96,-24.5"/>
<text text-anchor="middle" x="48" y="-12.5" font-family="Helvetica,sans-Serif" font-size="10.00">ee/kernel/src/sio.c</text>
</a>
</g>
</g>
<!-- Node1&#45;&gt;Node2 -->
<g id="edge1" class="edge">
<title>Node1&#45;&gt;Node2</title>
<path fill="none" stroke="#63b8ff" d="M139.73,-60.72C117.07,-49.67 85.94,-34.49 66.4,-24.97"/>
<polygon fill="#63b8ff" stroke="#63b8ff" points="137.89,-63.72 148.41,-64.95 140.96,-57.42 137.89,-63.72"/>
</g>
<!-- Node3 -->
<g id="node3" class="node">
<title>Node3</title>
<g id="a_node3"><a xlink:href="libcglue_2src_2glue_8c_source.html" target="_top" xlink:title=" ">
<polygon fill="white" stroke="#666666" points="222,-24.5 114,-24.5 114,-5.5 222,-5.5 222,-24.5"/>
<text text-anchor="middle" x="168" y="-12.5" font-family="Helvetica,sans-Serif" font-size="10.00">ee/libcglue/src/glue.c</text>
</a>
</g>
</g>
<!-- Node1&#45;&gt;Node3 -->
<g id="edge2" class="edge">
<title>Node1&#45;&gt;Node3</title>
<path fill="none" stroke="#63b8ff" d="M168,-54.66C168,-44.45 168,-32.54 168,-24.67"/>
<polygon fill="#63b8ff" stroke="#63b8ff" points="164.5,-54.35 168,-64.35 171.5,-54.35 164.5,-54.35"/>
</g>
<!-- Node4 -->
<g id="node4" class="node">
<title>Node4</title>
<g id="a_node4"><a xlink:href="sior__rpc_8c.html" target="_top" xlink:title=" ">
<polygon fill="white" stroke="#666666" points="338,-30 240,-30 240,0 338,0 338,-30"/>
<text text-anchor="start" x="248" y="-18" font-family="Helvetica,sans-Serif" font-size="10.00">ee/rpc/sior/src/sior</text>
<text text-anchor="middle" x="289" y="-7" font-family="Helvetica,sans-Serif" font-size="10.00">_rpc.c</text>
</a>
</g>
</g>
<!-- Node1&#45;&gt;Node4 -->
<g id="edge3" class="edge">
<title>Node1&#45;&gt;Node4</title>
<path fill="none" stroke="#63b8ff" d="M196.71,-60.62C215.53,-51.52 240.08,-39.65 259.13,-30.44"/>
<polygon fill="#63b8ff" stroke="#63b8ff" points="195.22,-57.45 187.74,-64.96 198.27,-63.75 195.22,-57.45"/>
</g>
</g>
</svg>
