<?xml version="1.0" encoding="UTF-8" standalone="no"?>
<!DOCTYPE svg PUBLIC "-//W3C//DTD SVG 1.1//EN"
 "http://www.w3.org/Graphics/SVG/1.1/DTD/svg11.dtd">
<!-- Generated by graphviz version 7.0.5 (20221223.1930)
 -->
<!-- Title: ee/rpc/sior/src/sior_rpc.c Pages: 1 -->
<svg width="612pt" height="313pt"
 viewBox="0.00 0.00 611.50 313.00" xmlns="http://www.w3.org/2000/svg" xmlns:xlink="http://www.w3.org/1999/xlink">
<g id="graph0" class="graph" transform="scale(1 1) rotate(0) translate(4 309)">
<title>ee/rpc/sior/src/sior_rpc.c</title>
<!-- Node1 -->
<g id="node1" class="node">
<title>Node1</title>
<g id="a_node1"><a xlink:title=" ">
<polygon fill="#999999" stroke="#666666" points="354,-305 256,-305 256,-275 354,-275 354,-305"/>
<text text-anchor="start" x="264" y="-293" font-family="Helvetica,sans-Serif" font-size="10.00">ee/rpc/sior/src/sior</text>
<text text-anchor="middle" x="305" y="-282" font-family="Helvetica,sans-Serif" font-size="10.00">_rpc.c</text>
</a>
</g>
</g>
<!-- Node2 -->
<g id="node2" class="node">
<title>Node2</title>
<g id="a_node2"><a xlink:href="tamtypes_8h.html" target="_top" xlink:title=" ">
<polygon fill="white" stroke="#666666" points="167,-19 103,-19 103,0 167,0 167,-19"/>
<text text-anchor="middle" x="135" y="-7" font-family="Helvetica,sans-Serif" font-size="10.00">tamtypes.h</text>
</a>
</g>
</g>
<!-- Node1&#45;&gt;Node2 -->
<g id="edge1" class="edge">
<title>Node1&#45;&gt;Node2</title>
<path fill="none" stroke="#63b8ff" d="M255.66,-281.14C169.34,-265.98 0,-229.39 0,-175.5 0,-175.5 0,-175.5 0,-118.5 0,-69.53 54.84,-39.11 94.61,-23.49"/>
<polygon fill="#63b8ff" stroke="#63b8ff" points="95.81,-26.78 103.96,-20 93.36,-20.22 95.81,-26.78"/>
</g>
<!-- Node3 -->
<g id="node3" class="node">
<title>Node3</title>
<g id="a_node3"><a xlink:href="kernel_8h.html" target="_top" xlink:title=" ">
<polygon fill="white" stroke="#666666" points="364,-184 314,-184 314,-165 364,-165 364,-184"/>
<text text-anchor="middle" x="339" y="-172" font-family="Helvetica,sans-Serif" font-size="10.00">kernel.h</text>
</a>
</g>
</g>
<!-- Node1&#45;&gt;Node3 -->
<g id="edge2" class="edge">
<title>Node1&#45;&gt;Node3</title>
<path fill="none" stroke="#63b8ff" d="M309.31,-274.63C315.34,-254.49 326.32,-217.83 333.11,-195.18"/>
<polygon fill="#63b8ff" stroke="#63b8ff" points="336.43,-196.26 335.95,-185.68 329.73,-194.25 336.43,-196.26"/>
</g>
<!-- Node5 -->
<g id="node5" class="node">
<title>Node5</title>
<g id="a_node5"><a xlink:title=" ">
<polygon fill="#e0e0e0" stroke="#999999" points="311.5,-129 260.5,-129 260.5,-110 311.5,-110 311.5,-129"/>
<text text-anchor="middle" x="286" y="-117" font-family="Helvetica,sans-Serif" font-size="10.00">stdarg.h</text>
</a>
</g>
</g>
<!-- Node1&#45;&gt;Node5 -->
<g id="edge8" class="edge">
<title>Node1&#45;&gt;Node5</title>
<path fill="none" stroke="#63b8ff" d="M303.38,-274.63C299.99,-244.57 292.14,-174.97 288.26,-140.54"/>
<polygon fill="#63b8ff" stroke="#63b8ff" points="291.75,-140.26 287.15,-130.72 284.79,-141.05 291.75,-140.26"/>
</g>
<!-- Node7 -->
<g id="node7" class="node">
<title>Node7</title>
<g id="a_node7"><a xlink:title=" ">
<polygon fill="#e0e0e0" stroke="#999999" points="400,-239 352,-239 352,-220 400,-220 400,-239"/>
<text text-anchor="middle" x="376" y="-227" font-family="Helvetica,sans-Serif" font-size="10.00">sifrpc.h</text>
</a>
</g>
</g>
<!-- Node1&#45;&gt;Node7 -->
<g id="edge7" class="edge">
<title>Node1&#45;&gt;Node7</title>
<path fill="none" stroke="#63b8ff" d="M322.55,-274.54C332.97,-265.96 346.18,-255.07 356.87,-246.26"/>
<polygon fill="#63b8ff" stroke="#63b8ff" points="358.81,-249.2 364.3,-240.14 354.36,-243.8 358.81,-249.2"/>
</g>
<!-- Node8 -->
<g id="node8" class="node">
<title>Node8</title>
<g id="a_node8"><a xlink:href="string_8h_source.html" target="_top" xlink:title=" ">
<polygon fill="white" stroke="#666666" points="202,-239 154,-239 154,-220 202,-220 202,-239"/>
<text text-anchor="middle" x="178" y="-227" font-family="Helvetica,sans-Serif" font-size="10.00">string.h</text>
</a>
</g>
</g>
<!-- Node1&#45;&gt;Node8 -->
<g id="edge9" class="edge">
<title>Node1&#45;&gt;Node8</title>
<path fill="none" stroke="#63b8ff" d="M273.61,-274.54C253.4,-265.23 227.31,-253.22 207.49,-244.09"/>
<polygon fill="#63b8ff" stroke="#63b8ff" points="209.13,-240.98 198.58,-239.98 206.2,-247.34 209.13,-240.98"/>
</g>
<!-- Node14 -->
<g id="node14" class="node">
<title>Node14</title>
<g id="a_node14"><a xlink:title=" ">
<polygon fill="#e0e0e0" stroke="#999999" points="465.5,-239 418.5,-239 418.5,-220 465.5,-220 465.5,-239"/>
<text text-anchor="middle" x="442" y="-227" font-family="Helvetica,sans-Serif" font-size="10.00">stdlib.h</text>
</a>
</g>
</g>
<!-- Node1&#45;&gt;Node14 -->
<g id="edge20" class="edge">
<title>Node1&#45;&gt;Node14</title>
<path fill="none" stroke="#63b8ff" d="M338.87,-274.54C360.86,-265.15 389.33,-252.99 410.78,-243.83"/>
<polygon fill="#63b8ff" stroke="#63b8ff" points="412.07,-247.09 419.89,-239.94 409.32,-240.65 412.07,-247.09"/>
</g>
<!-- Node15 -->
<g id="node15" class="node">
<title>Node15</title>
<g id="a_node15"><a xlink:href="fcntl_8h_source.html" target="_top" xlink:title=" ">
<polygon fill="white" stroke="#666666" points="526.5,-239 483.5,-239 483.5,-220 526.5,-220 526.5,-239"/>
<text text-anchor="middle" x="505" y="-227" font-family="Helvetica,sans-Serif" font-size="10.00">fcntl.h</text>
</a>
</g>
</g>
<!-- Node1&#45;&gt;Node15 -->
<g id="edge21" class="edge">
<title>Node1&#45;&gt;Node15</title>
<path fill="none" stroke="#63b8ff" d="M354.44,-274.54C391.11,-263.81 440.1,-249.48 472.09,-240.13"/>
<polygon fill="#63b8ff" stroke="#63b8ff" points="472.99,-243.51 481.6,-237.34 471.02,-236.79 472.99,-243.51"/>
</g>
<!-- Node16 -->
<g id="node16" class="node">
<title>Node16</title>
<g id="a_node16"><a xlink:href="stdio_8h.html" target="_top" xlink:title=" ">
<polygon fill="white" stroke="#666666" points="257.5,-184 212.5,-184 212.5,-165 257.5,-165 257.5,-184"/>
<text text-anchor="middle" x="235" y="-172" font-family="Helvetica,sans-Serif" font-size="10.00">stdio.h</text>
</a>
</g>
</g>
<!-- Node1&#45;&gt;Node16 -->
<g id="edge22" class="edge">
<title>Node1&#45;&gt;Node16</title>
<path fill="none" stroke="#63b8ff" d="M295.25,-274.7C288.57,-264.77 279.57,-251.2 272,-239 262.74,-224.08 252.74,-206.84 245.47,-194.09"/>
<polygon fill="#63b8ff" stroke="#63b8ff" points="248.6,-192.51 240.62,-185.54 242.51,-195.96 248.6,-192.51"/>
</g>
<!-- Node17 -->
<g id="node17" class="node">
<title>Node17</title>
<g id="a_node17"><a xlink:href="sio_8h.html" target="_top" xlink:title=" ">
<polygon fill="white" stroke="#666666" points="157.5,-74 120.5,-74 120.5,-55 157.5,-55 157.5,-74"/>
<text text-anchor="middle" x="139" y="-62" font-family="Helvetica,sans-Serif" font-size="10.00">sio.h</text>
</a>
</g>
</g>
<!-- Node1&#45;&gt;Node17 -->
<g id="edge25" class="edge">
<title>Node1&#45;&gt;Node17</title>
<path fill="none" stroke="#63b8ff" d="M255.76,-284.24C221.17,-278.58 175.75,-266.17 145,-239 98.92,-198.29 71.63,-166.87 95,-110 99.6,-98.81 108.52,-88.94 117.13,-81.35"/>
<polygon fill="#63b8ff" stroke="#63b8ff" points="119.07,-84.29 124.63,-75.27 114.66,-78.85 119.07,-84.29"/>
</g>
<!-- Node18 -->
<g id="node18" class="node">
<title>Node18</title>
<g id="a_node18"><a xlink:href="sior__rpc_8h.html" target="_top" xlink:title=" ">
<polygon fill="white" stroke="#666666" points="603.5,-239 544.5,-239 544.5,-220 603.5,-220 603.5,-239"/>
<text text-anchor="middle" x="574" y="-227" font-family="Helvetica,sans-Serif" font-size="10.00">sior_rpc.h</text>
</a>
</g>
</g>
<!-- Node1&#45;&gt;Node18 -->
<g id="edge28" class="edge">
<title>Node1&#45;&gt;Node18</title>
<path fill="none" stroke="#63b8ff" d="M354.14,-278.47C398.45,-268.94 465.72,-254.43 532.92,-239.67"/>
<polygon fill="#63b8ff" stroke="#63b8ff" points="533.64,-243.09 542.66,-237.53 532.14,-236.26 533.64,-243.09"/>
</g>
<!-- Node4 -->
<g id="node4" class="node">
<title>Node4</title>
<g id="a_node4"><a xlink:title=" ">
<polygon fill="#e0e0e0" stroke="#999999" points="236.5,-19 185.5,-19 185.5,0 236.5,0 236.5,-19"/>
<text text-anchor="middle" x="211" y="-7" font-family="Helvetica,sans-Serif" font-size="10.00">stddef.h</text>
</a>
</g>
</g>
<!-- Node3&#45;&gt;Node4 -->
<g id="edge3" class="edge">
<title>Node3&#45;&gt;Node4</title>
<path fill="none" stroke="#63b8ff" d="M341.77,-164.67C347.85,-143.39 359.97,-88.51 335,-55 314.82,-27.92 276.67,-17.27 247.99,-13.11"/>
<polygon fill="#63b8ff" stroke="#63b8ff" points="248.6,-9.66 238.25,-11.92 247.75,-16.61 248.6,-9.66"/>
</g>
<!-- Node3&#45;&gt;Node5 -->
<g id="edge4" class="edge">
<title>Node3&#45;&gt;Node5</title>
<path fill="none" stroke="#63b8ff" d="M330.25,-164.75C322.85,-157.35 312.04,-146.54 302.95,-137.45"/>
<polygon fill="#63b8ff" stroke="#63b8ff" points="305.56,-135.11 296.01,-130.51 300.61,-140.06 305.56,-135.11"/>
</g>
<!-- Node6 -->
<g id="node6" class="node">
<title>Node6</title>
<g id="a_node6"><a xlink:href="sifdma_8h.html" target="_top" xlink:title=" ">
<polygon fill="white" stroke="#666666" points="325.5,-74 272.5,-74 272.5,-55 325.5,-55 325.5,-74"/>
<text text-anchor="middle" x="299" y="-62" font-family="Helvetica,sans-Serif" font-size="10.00">sifdma.h</text>
</a>
</g>
</g>
<!-- Node3&#45;&gt;Node6 -->
<g id="edge5" class="edge">
<title>Node3&#45;&gt;Node6</title>
<path fill="none" stroke="#63b8ff" d="M337.05,-164.71C334.17,-152.3 328.33,-129.03 321,-110 317.71,-101.46 313.37,-92.35 309.41,-84.62"/>
<polygon fill="#63b8ff" stroke="#63b8ff" points="312.53,-83.03 304.76,-75.82 306.34,-86.3 312.53,-83.03"/>
</g>
<!-- Node6&#45;&gt;Node2 -->
<g id="edge6" class="edge">
<title>Node6&#45;&gt;Node2</title>
<path fill="none" stroke="#63b8ff" d="M272.29,-54.87C245.45,-46.19 203.82,-32.74 173.44,-22.92"/>
<polygon fill="#63b8ff" stroke="#63b8ff" points="174.83,-19.69 164.24,-19.95 172.68,-26.36 174.83,-19.69"/>
</g>
<!-- Node9 -->
<g id="node9" class="node">
<title>Node9</title>
<g id="a_node9"><a xlink:href="sysclib_8h.html" target="_top" xlink:title=" ">
<polygon fill="white" stroke="#666666" points="194,-184 140,-184 140,-165 194,-165 194,-184"/>
<text text-anchor="middle" x="167" y="-172" font-family="Helvetica,sans-Serif" font-size="10.00">sysclib.h</text>
</a>
</g>
</g>
<!-- Node8&#45;&gt;Node9 -->
<g id="edge10" class="edge">
<title>Node8&#45;&gt;Node9</title>
<path fill="none" stroke="#63b8ff" d="M176.18,-219.75C174.82,-213.19 172.9,-203.95 171.17,-195.6"/>
<polygon fill="#63b8ff" stroke="#63b8ff" points="174.62,-195 169.16,-185.92 167.77,-196.43 174.62,-195"/>
</g>
<!-- Node9&#45;&gt;Node5 -->
<g id="edge16" class="edge">
<title>Node9&#45;&gt;Node5</title>
<path fill="none" stroke="#63b8ff" d="M187.19,-164.51C206.02,-156.12 234.37,-143.5 255.87,-133.92"/>
<polygon fill="#63b8ff" stroke="#63b8ff" points="257.02,-137.24 264.73,-129.97 254.17,-130.85 257.02,-137.24"/>
</g>
<!-- Node10 -->
<g id="node10" class="node">
<title>Node10</title>
<g id="a_node10"><a xlink:href="iop_2kernel_2include_2types_8h_source.html" target="_top" xlink:title=" ">
<polygon fill="white" stroke="#666666" points="230.5,-74 183.5,-74 183.5,-55 230.5,-55 230.5,-74"/>
<text text-anchor="middle" x="207" y="-62" font-family="Helvetica,sans-Serif" font-size="10.00">types.h</text>
</a>
</g>
</g>
<!-- Node9&#45;&gt;Node10 -->
<g id="edge11" class="edge">
<title>Node9&#45;&gt;Node10</title>
<path fill="none" stroke="#63b8ff" d="M170.27,-164.66C176.69,-147.34 191.06,-108.55 199.8,-84.95"/>
<polygon fill="#63b8ff" stroke="#63b8ff" points="202.96,-86.47 203.16,-75.88 196.4,-84.04 202.96,-86.47"/>
</g>
<!-- Node11 -->
<g id="node11" class="node">
<title>Node11</title>
<g id="a_node11"><a xlink:href="irx_8h.html" target="_top" xlink:title=" ">
<polygon fill="white" stroke="#666666" points="242,-129 208,-129 208,-110 242,-110 242,-129"/>
<text text-anchor="middle" x="225" y="-117" font-family="Helvetica,sans-Serif" font-size="10.00">irx.h</text>
</a>
</g>
</g>
<!-- Node9&#45;&gt;Node11 -->
<g id="edge14" class="edge">
<title>Node9&#45;&gt;Node11</title>
<path fill="none" stroke="#63b8ff" d="M176.84,-164.51C185.05,-157 196.98,-146.1 206.91,-137.03"/>
<polygon fill="#63b8ff" stroke="#63b8ff" points="209.17,-139.71 214.19,-130.38 204.45,-134.54 209.17,-139.71"/>
</g>
<!-- Node12 -->
<g id="node12" class="node">
<title>Node12</title>
<g id="a_node12"><a xlink:href="setjmp_8h.html" target="_top" xlink:title=" ">
<polygon fill="white" stroke="#666666" points="102.5,-74 49.5,-74 49.5,-55 102.5,-55 102.5,-74"/>
<text text-anchor="middle" x="76" y="-62" font-family="Helvetica,sans-Serif" font-size="10.00">setjmp.h</text>
</a>
</g>
</g>
<!-- Node9&#45;&gt;Node12 -->
<g id="edge17" class="edge">
<title>Node9&#45;&gt;Node12</title>
<path fill="none" stroke="#63b8ff" d="M144.1,-164.58C128.17,-157.27 107.6,-145.44 95,-129 85.35,-116.4 80.58,-98.95 78.24,-85.53"/>
<polygon fill="#63b8ff" stroke="#63b8ff" points="81.71,-85.1 76.86,-75.68 74.78,-86.07 81.71,-85.1"/>
</g>
<!-- Node13 -->
<g id="node13" class="node">
<title>Node13</title>
<g id="a_node13"><a xlink:href="ctype_8h.html" target="_top" xlink:title=" ">
<polygon fill="white" stroke="#666666" points="151.5,-129 104.5,-129 104.5,-110 151.5,-110 151.5,-129"/>
<text text-anchor="middle" x="128" y="-117" font-family="Helvetica,sans-Serif" font-size="10.00">ctype.h</text>
</a>
</g>
</g>
<!-- Node9&#45;&gt;Node13 -->
<g id="edge19" class="edge">
<title>Node9&#45;&gt;Node13</title>
<path fill="none" stroke="#63b8ff" d="M160.56,-164.75C155.34,-157.66 147.81,-147.42 141.31,-138.59"/>
<polygon fill="#63b8ff" stroke="#63b8ff" points="144.22,-136.64 135.48,-130.66 138.58,-140.79 144.22,-136.64"/>
</g>
<!-- Node10&#45;&gt;Node2 -->
<g id="edge13" class="edge">
<title>Node10&#45;&gt;Node2</title>
<path fill="none" stroke="#63b8ff" d="M194.79,-54.51C184.17,-46.7 168.56,-35.21 155.96,-25.93"/>
<polygon fill="#63b8ff" stroke="#63b8ff" points="158.38,-23.36 148.25,-20.26 154.23,-29 158.38,-23.36"/>
</g>
<!-- Node10&#45;&gt;Node4 -->
<g id="edge12" class="edge">
<title>Node10&#45;&gt;Node4</title>
<path fill="none" stroke="#63b8ff" d="M207.66,-54.75C208.15,-48.27 208.84,-39.16 209.46,-30.9"/>
<polygon fill="#63b8ff" stroke="#63b8ff" points="212.95,-31.19 210.21,-20.95 205.97,-30.66 212.95,-31.19"/>
</g>
<!-- Node11&#45;&gt;Node10 -->
<g id="edge15" class="edge">
<title>Node11&#45;&gt;Node10</title>
<path fill="none" stroke="#63b8ff" d="M222.03,-109.75C219.77,-103.11 216.59,-93.73 213.73,-85.31"/>
<polygon fill="#63b8ff" stroke="#63b8ff" points="217.05,-84.22 210.52,-75.88 210.43,-86.47 217.05,-84.22"/>
</g>
<!-- Node12&#45;&gt;Node2 -->
<g id="edge18" class="edge">
<title>Node12&#45;&gt;Node2</title>
<path fill="none" stroke="#63b8ff" d="M86.01,-54.51C94.37,-47 106.5,-36.1 116.6,-27.03"/>
<polygon fill="#63b8ff" stroke="#63b8ff" points="118.91,-29.66 124.01,-20.37 114.24,-24.45 118.91,-29.66"/>
</g>
<!-- Node16&#45;&gt;Node5 -->
<g id="edge23" class="edge">
<title>Node16&#45;&gt;Node5</title>
<path fill="none" stroke="#63b8ff" d="M243.42,-164.75C250.47,-157.43 260.73,-146.76 269.41,-137.74"/>
<polygon fill="#63b8ff" stroke="#63b8ff" points="271.93,-140.17 276.35,-130.53 266.89,-135.31 271.93,-140.17"/>
</g>
<!-- Node16&#45;&gt;Node11 -->
<g id="edge24" class="edge">
<title>Node16&#45;&gt;Node11</title>
<path fill="none" stroke="#63b8ff" d="M233.35,-164.75C232.11,-158.19 230.37,-148.95 228.79,-140.6"/>
<polygon fill="#63b8ff" stroke="#63b8ff" points="232.26,-140.11 226.97,-130.93 225.38,-141.4 232.26,-140.11"/>
</g>
<!-- Node17&#45;&gt;Node2 -->
<g id="edge26" class="edge">
<title>Node17&#45;&gt;Node2</title>
<path fill="none" stroke="#63b8ff" d="M138.34,-54.75C137.85,-48.27 137.16,-39.16 136.54,-30.9"/>
<polygon fill="#63b8ff" stroke="#63b8ff" points="140.03,-30.66 135.79,-20.95 133.05,-31.19 140.03,-30.66"/>
</g>
<!-- Node17&#45;&gt;Node4 -->
<g id="edge27" class="edge">
<title>Node17&#45;&gt;Node4</title>
<path fill="none" stroke="#63b8ff" d="M151.21,-54.51C161.83,-46.7 177.44,-35.21 190.04,-25.93"/>
<polygon fill="#63b8ff" stroke="#63b8ff" points="191.77,-29 197.75,-20.26 187.62,-23.36 191.77,-29"/>
</g>
</g>
</svg>
