<?xml version="1.0" encoding="UTF-8" standalone="no"?>
<!DOCTYPE svg PUBLIC "-//W3C//DTD SVG 1.1//EN"
 "http://www.w3.org/Graphics/SVG/1.1/DTD/svg11.dtd">
<!-- Generated by graphviz version 7.0.5 (20221223.1930)
 -->
<!-- Title: iop/kernel/include/sior.h Pages: 1 -->
<svg width="207pt" height="203pt"
 viewBox="0.00 0.00 206.50 203.00" xmlns="http://www.w3.org/2000/svg" xmlns:xlink="http://www.w3.org/1999/xlink">
<g id="graph0" class="graph" transform="scale(1 1) rotate(0) translate(4 199)">
<title>iop/kernel/include/sior.h</title>
<!-- Node1 -->
<g id="node1" class="node">
<title>Node1</title>
<g id="a_node1"><a xlink:title=" ">
<polygon fill="#999999" stroke="#666666" points="132.5,-195 40.5,-195 40.5,-165 132.5,-165 132.5,-195"/>
<text text-anchor="start" x="48.5" y="-183" font-family="Helvetica,sans-Serif" font-size="10.00">iop/kernel/include</text>
<text text-anchor="middle" x="86.5" y="-172" font-family="Helvetica,sans-Serif" font-size="10.00">/sior.h</text>
</a>
</g>
</g>
<!-- Node2 -->
<g id="node2" class="node">
<title>Node2</title>
<g id="a_node2"><a xlink:title=" ">
<polygon fill="#e0e0e0" stroke="#999999" points="51,-129 0,-129 0,-110 51,-110 51,-129"/>
<text text-anchor="middle" x="25.5" y="-117" font-family="Helvetica,sans-Serif" font-size="10.00">stdarg.h</text>
</a>
</g>
</g>
<!-- Node1&#45;&gt;Node2 -->
<g id="edge1" class="edge">
<title>Node1&#45;&gt;Node2</title>
<path fill="none" stroke="#63b8ff" d="M71.42,-164.54C62.74,-156.22 51.8,-145.72 42.78,-137.07"/>
<polygon fill="#63b8ff" stroke="#63b8ff" points="45.28,-134.62 35.64,-130.22 40.43,-139.67 45.28,-134.62"/>
</g>
<!-- Node3 -->
<g id="node3" class="node">
<title>Node3</title>
<g id="a_node3"><a xlink:href="irx_8h.html" target="_top" xlink:title=" ">
<polygon fill="white" stroke="#666666" points="103.5,-129 69.5,-129 69.5,-110 103.5,-110 103.5,-129"/>
<text text-anchor="middle" x="86.5" y="-117" font-family="Helvetica,sans-Serif" font-size="10.00">irx.h</text>
</a>
</g>
</g>
<!-- Node1&#45;&gt;Node3 -->
<g id="edge2" class="edge">
<title>Node1&#45;&gt;Node3</title>
<path fill="none" stroke="#63b8ff" d="M86.5,-164.54C86.5,-157.34 86.5,-148.53 86.5,-140.68"/>
<polygon fill="#63b8ff" stroke="#63b8ff" points="90,-140.69 86.5,-130.69 83,-140.69 90,-140.69"/>
</g>
<!-- Node7 -->
<g id="node7" class="node">
<title>Node7</title>
<g id="a_node7"><a xlink:href="sior-common_8h.html" target="_top" xlink:title=" ">
<polygon fill="white" stroke="#666666" points="198.5,-74 118.5,-74 118.5,-55 198.5,-55 198.5,-74"/>
<text text-anchor="middle" x="158.5" y="-62" font-family="Helvetica,sans-Serif" font-size="10.00">sior&#45;common.h</text>
</a>
</g>
</g>
<!-- Node1&#45;&gt;Node7 -->
<g id="edge6" class="edge">
<title>Node1&#45;&gt;Node7</title>
<path fill="none" stroke="#63b8ff" d="M95.62,-164.63C108.63,-144.12 132.51,-106.47 146.81,-83.93"/>
<polygon fill="#63b8ff" stroke="#63b8ff" points="149.75,-85.83 152.15,-75.51 143.84,-82.08 149.75,-85.83"/>
</g>
<!-- Node4 -->
<g id="node4" class="node">
<title>Node4</title>
<g id="a_node4"><a xlink:href="iop_2kernel_2include_2types_8h_source.html" target="_top" xlink:title=" ">
<polygon fill="white" stroke="#666666" points="100,-74 53,-74 53,-55 100,-55 100,-74"/>
<text text-anchor="middle" x="76.5" y="-62" font-family="Helvetica,sans-Serif" font-size="10.00">types.h</text>
</a>
</g>
</g>
<!-- Node3&#45;&gt;Node4 -->
<g id="edge3" class="edge">
<title>Node3&#45;&gt;Node4</title>
<path fill="none" stroke="#63b8ff" d="M84.85,-109.75C83.61,-103.19 81.87,-93.95 80.29,-85.6"/>
<polygon fill="#63b8ff" stroke="#63b8ff" points="83.76,-85.11 78.47,-75.93 76.88,-86.4 83.76,-85.11"/>
</g>
<!-- Node5 -->
<g id="node5" class="node">
<title>Node5</title>
<g id="a_node5"><a xlink:title=" ">
<polygon fill="#e0e0e0" stroke="#999999" points="102,-19 51,-19 51,0 102,0 102,-19"/>
<text text-anchor="middle" x="76.5" y="-7" font-family="Helvetica,sans-Serif" font-size="10.00">stddef.h</text>
</a>
</g>
</g>
<!-- Node4&#45;&gt;Node5 -->
<g id="edge4" class="edge">
<title>Node4&#45;&gt;Node5</title>
<path fill="none" stroke="#63b8ff" d="M76.5,-54.75C76.5,-48.27 76.5,-39.16 76.5,-30.9"/>
<polygon fill="#63b8ff" stroke="#63b8ff" points="80,-30.96 76.5,-20.96 73,-30.96 80,-30.96"/>
</g>
<!-- Node6 -->
<g id="node6" class="node">
<title>Node6</title>
<g id="a_node6"><a xlink:href="tamtypes_8h.html" target="_top" xlink:title=" ">
<polygon fill="white" stroke="#666666" points="187.5,-19 123.5,-19 123.5,0 187.5,0 187.5,-19"/>
<text text-anchor="middle" x="155.5" y="-7" font-family="Helvetica,sans-Serif" font-size="10.00">tamtypes.h</text>
</a>
</g>
</g>
<!-- Node4&#45;&gt;Node6 -->
<g id="edge5" class="edge">
<title>Node4&#45;&gt;Node6</title>
<path fill="none" stroke="#63b8ff" d="M89.9,-54.51C101.66,-46.62 119.01,-34.98 132.91,-25.65"/>
<polygon fill="#63b8ff" stroke="#63b8ff" points="134.69,-28.68 141.04,-20.2 130.79,-22.87 134.69,-28.68"/>
</g>
<!-- Node7&#45;&gt;Node6 -->
<g id="edge7" class="edge">
<title>Node7&#45;&gt;Node6</title>
<path fill="none" stroke="#63b8ff" d="M158,-54.75C157.64,-48.27 157.12,-39.16 156.65,-30.9"/>
<polygon fill="#63b8ff" stroke="#63b8ff" points="160.15,-30.74 156.09,-20.95 153.16,-31.13 160.15,-30.74"/>
</g>
</g>
</svg>
