<?xml version="1.0" encoding="UTF-8" standalone="no"?>
<!DOCTYPE svg PUBLIC "-//W3C//DTD SVG 1.1//EN"
 "http://www.w3.org/Graphics/SVG/1.1/DTD/svg11.dtd">
<!-- Generated by graphviz version 7.0.5 (20221223.1930)
 -->
<!-- Title: ee/libcglue/src/sjis.c Pages: 1 -->
<svg width="228pt" height="302pt"
 viewBox="0.00 0.00 228.28 302.00" xmlns="http://www.w3.org/2000/svg" xmlns:xlink="http://www.w3.org/1999/xlink">
<g id="graph0" class="graph" transform="scale(1 1) rotate(0) translate(4 298)">
<title>ee/libcglue/src/sjis.c</title>
<!-- Node1 -->
<g id="node1" class="node">
<title>Node1</title>
<g id="a_node1"><a xlink:title=" ">
<polygon fill="#999999" stroke="#666666" points="174.28,-294 69.28,-294 69.28,-275 174.28,-275 174.28,-294"/>
<text text-anchor="middle" x="121.78" y="-282" font-family="Helvetica,sans-Serif" font-size="10.00">ee/libcglue/src/sjis.c</text>
</a>
</g>
</g>
<!-- Node2 -->
<g id="node2" class="node">
<title>Node2</title>
<g id="a_node2"><a xlink:href="string_8h_source.html" target="_top" xlink:title=" ">
<polygon fill="white" stroke="#666666" points="114.78,-239 66.78,-239 66.78,-220 114.78,-220 114.78,-239"/>
<text text-anchor="middle" x="90.78" y="-227" font-family="Helvetica,sans-Serif" font-size="10.00">string.h</text>
</a>
</g>
</g>
<!-- Node1&#45;&gt;Node2 -->
<g id="edge1" class="edge">
<title>Node1&#45;&gt;Node2</title>
<path fill="none" stroke="#63b8ff" d="M116.66,-274.75C112.61,-267.81 106.79,-257.86 101.7,-249.16"/>
<polygon fill="#63b8ff" stroke="#63b8ff" points="104.85,-247.61 96.78,-240.75 98.81,-251.15 104.85,-247.61"/>
</g>
<!-- Node11 -->
<g id="node11" class="node">
<title>Node11</title>
<g id="a_node11"><a xlink:href="sjis_8h.html" target="_top" xlink:title=" ">
<polygon fill="white" stroke="#666666" points="172.28,-239 133.28,-239 133.28,-220 172.28,-220 172.28,-239"/>
<text text-anchor="middle" x="152.78" y="-227" font-family="Helvetica,sans-Serif" font-size="10.00">sjis.h</text>
</a>
</g>
</g>
<!-- Node1&#45;&gt;Node11 -->
<g id="edge12" class="edge">
<title>Node1&#45;&gt;Node11</title>
<path fill="none" stroke="#63b8ff" d="M126.9,-274.75C130.96,-267.81 136.78,-257.86 141.87,-249.16"/>
<polygon fill="#63b8ff" stroke="#63b8ff" points="144.76,-251.15 146.79,-240.75 138.72,-247.61 144.76,-251.15"/>
</g>
<!-- Node3 -->
<g id="node3" class="node">
<title>Node3</title>
<g id="a_node3"><a xlink:href="sysclib_8h.html" target="_top" xlink:title=" ">
<polygon fill="white" stroke="#666666" points="117.78,-184 63.78,-184 63.78,-165 117.78,-165 117.78,-184"/>
<text text-anchor="middle" x="90.78" y="-172" font-family="Helvetica,sans-Serif" font-size="10.00">sysclib.h</text>
</a>
</g>
</g>
<!-- Node2&#45;&gt;Node3 -->
<g id="edge2" class="edge">
<title>Node2&#45;&gt;Node3</title>
<path fill="none" stroke="#63b8ff" d="M90.78,-219.75C90.78,-213.27 90.78,-204.16 90.78,-195.9"/>
<polygon fill="#63b8ff" stroke="#63b8ff" points="94.28,-195.96 90.78,-185.96 87.28,-195.96 94.28,-195.96"/>
</g>
<!-- Node4 -->
<g id="node4" class="node">
<title>Node4</title>
<g id="a_node4"><a xlink:href="iop_2kernel_2include_2types_8h_source.html" target="_top" xlink:title=" ">
<polygon fill="white" stroke="#666666" points="53.28,-74 6.28,-74 6.28,-55 53.28,-55 53.28,-74"/>
<text text-anchor="middle" x="29.78" y="-62" font-family="Helvetica,sans-Serif" font-size="10.00">types.h</text>
</a>
</g>
</g>
<!-- Node3&#45;&gt;Node4 -->
<g id="edge3" class="edge">
<title>Node3&#45;&gt;Node4</title>
<path fill="none" stroke="#63b8ff" d="M63.56,-167.62C43.19,-161.63 16.71,-150.13 3.78,-129 -5.22,-114.28 4.29,-95.89 14.24,-82.69"/>
<polygon fill="#63b8ff" stroke="#63b8ff" points="16.68,-85.24 20.35,-75.3 11.28,-80.78 16.68,-85.24"/>
</g>
<!-- Node7 -->
<g id="node7" class="node">
<title>Node7</title>
<g id="a_node7"><a xlink:href="irx_8h.html" target="_top" xlink:title=" ">
<polygon fill="white" stroke="#666666" points="46.78,-129 12.78,-129 12.78,-110 46.78,-110 46.78,-129"/>
<text text-anchor="middle" x="29.78" y="-117" font-family="Helvetica,sans-Serif" font-size="10.00">irx.h</text>
</a>
</g>
</g>
<!-- Node3&#45;&gt;Node7 -->
<g id="edge6" class="edge">
<title>Node3&#45;&gt;Node7</title>
<path fill="none" stroke="#63b8ff" d="M80.44,-164.51C71.71,-156.93 58.99,-145.88 48.49,-136.75"/>
<polygon fill="#63b8ff" stroke="#63b8ff" points="50.97,-134.27 41.12,-130.35 46.37,-139.55 50.97,-134.27"/>
</g>
<!-- Node8 -->
<g id="node8" class="node">
<title>Node8</title>
<g id="a_node8"><a xlink:title=" ">
<polygon fill="#e0e0e0" stroke="#999999" points="116.28,-129 65.28,-129 65.28,-110 116.28,-110 116.28,-129"/>
<text text-anchor="middle" x="90.78" y="-117" font-family="Helvetica,sans-Serif" font-size="10.00">stdarg.h</text>
</a>
</g>
</g>
<!-- Node3&#45;&gt;Node8 -->
<g id="edge8" class="edge">
<title>Node3&#45;&gt;Node8</title>
<path fill="none" stroke="#63b8ff" d="M90.78,-164.75C90.78,-158.27 90.78,-149.16 90.78,-140.9"/>
<polygon fill="#63b8ff" stroke="#63b8ff" points="94.28,-140.96 90.78,-130.96 87.28,-140.96 94.28,-140.96"/>
</g>
<!-- Node9 -->
<g id="node9" class="node">
<title>Node9</title>
<g id="a_node9"><a xlink:href="setjmp_8h.html" target="_top" xlink:title=" ">
<polygon fill="white" stroke="#666666" points="161.28,-74 108.28,-74 108.28,-55 161.28,-55 161.28,-74"/>
<text text-anchor="middle" x="134.78" y="-62" font-family="Helvetica,sans-Serif" font-size="10.00">setjmp.h</text>
</a>
</g>
</g>
<!-- Node3&#45;&gt;Node9 -->
<g id="edge9" class="edge">
<title>Node3&#45;&gt;Node9</title>
<path fill="none" stroke="#63b8ff" d="M100.19,-164.57C108.38,-156.2 119.84,-142.92 125.78,-129 131.69,-115.18 133.87,-98.27 134.61,-85.38"/>
<polygon fill="#63b8ff" stroke="#63b8ff" points="138.1,-85.71 134.91,-75.61 131.1,-85.49 138.1,-85.71"/>
</g>
<!-- Node10 -->
<g id="node10" class="node">
<title>Node10</title>
<g id="a_node10"><a xlink:href="ctype_8h.html" target="_top" xlink:title=" ">
<polygon fill="white" stroke="#666666" points="220.28,-129 173.28,-129 173.28,-110 220.28,-110 220.28,-129"/>
<text text-anchor="middle" x="196.78" y="-117" font-family="Helvetica,sans-Serif" font-size="10.00">ctype.h</text>
</a>
</g>
</g>
<!-- Node3&#45;&gt;Node10 -->
<g id="edge11" class="edge">
<title>Node3&#45;&gt;Node10</title>
<path fill="none" stroke="#63b8ff" d="M108.77,-164.51C125.23,-156.27 149.87,-143.96 168.89,-134.45"/>
<polygon fill="#63b8ff" stroke="#63b8ff" points="170.33,-137.64 177.71,-130.03 167.2,-131.38 170.33,-137.64"/>
</g>
<!-- Node5 -->
<g id="node5" class="node">
<title>Node5</title>
<g id="a_node5"><a xlink:title=" ">
<polygon fill="#e0e0e0" stroke="#999999" points="55.28,-19 4.28,-19 4.28,0 55.28,0 55.28,-19"/>
<text text-anchor="middle" x="29.78" y="-7" font-family="Helvetica,sans-Serif" font-size="10.00">stddef.h</text>
</a>
</g>
</g>
<!-- Node4&#45;&gt;Node5 -->
<g id="edge4" class="edge">
<title>Node4&#45;&gt;Node5</title>
<path fill="none" stroke="#63b8ff" d="M29.78,-54.75C29.78,-48.27 29.78,-39.16 29.78,-30.9"/>
<polygon fill="#63b8ff" stroke="#63b8ff" points="33.28,-30.96 29.78,-20.96 26.28,-30.96 33.28,-30.96"/>
</g>
<!-- Node6 -->
<g id="node6" class="node">
<title>Node6</title>
<g id="a_node6"><a xlink:href="tamtypes_8h.html" target="_top" xlink:title=" ">
<polygon fill="white" stroke="#666666" points="156.78,-19 92.78,-19 92.78,0 156.78,0 156.78,-19"/>
<text text-anchor="middle" x="124.78" y="-7" font-family="Helvetica,sans-Serif" font-size="10.00">tamtypes.h</text>
</a>
</g>
</g>
<!-- Node4&#45;&gt;Node6 -->
<g id="edge5" class="edge">
<title>Node4&#45;&gt;Node6</title>
<path fill="none" stroke="#63b8ff" d="M45.9,-54.51C60.45,-46.39 82.12,-34.3 99.07,-24.85"/>
<polygon fill="#63b8ff" stroke="#63b8ff" points="100.56,-28.02 107.58,-20.1 97.15,-21.91 100.56,-28.02"/>
</g>
<!-- Node7&#45;&gt;Node4 -->
<g id="edge7" class="edge">
<title>Node7&#45;&gt;Node4</title>
<path fill="none" stroke="#63b8ff" d="M29.78,-109.75C29.78,-103.27 29.78,-94.16 29.78,-85.9"/>
<polygon fill="#63b8ff" stroke="#63b8ff" points="33.28,-85.96 29.78,-75.96 26.28,-85.96 33.28,-85.96"/>
</g>
<!-- Node9&#45;&gt;Node6 -->
<g id="edge10" class="edge">
<title>Node9&#45;&gt;Node6</title>
<path fill="none" stroke="#63b8ff" d="M133.13,-54.75C131.89,-48.19 130.15,-38.95 128.58,-30.6"/>
<polygon fill="#63b8ff" stroke="#63b8ff" points="132.04,-30.11 126.75,-20.93 125.17,-31.4 132.04,-30.11"/>
</g>
</g>
</svg>
