<?xml version="1.0" encoding="UTF-8" standalone="no"?>
<!DOCTYPE svg PUBLIC "-//W3C//DTD SVG 1.1//EN"
 "http://www.w3.org/Graphics/SVG/1.1/DTD/svg11.dtd">
<!-- Generated by graphviz version 7.0.5 (20221223.1930)
 -->
<!-- Title: ee/sbv/include/slib.h Pages: 1 -->
<!--zoomable 93 -->
<svg id="main" version="1.1" xmlns="http://www.w3.org/2000/svg" xmlns:xlink="http://www.w3.org/1999/xlink" xml:space="preserve" onload="init(evt)">
<style type="text/css"><![CDATA[
.edge:hover path { stroke: red; }
.edge:hover polygon { stroke: red; fill: red; }
]]></style>
<script type="text/javascript"><![CDATA[
var edges = document.getElementsByTagName('g');
if (edges && edges.length) {
  for (var i=0;i<edges.length;i++) {
    if (edges[i].id.substr(0,4)=='edge') {
      edges[i].setAttribute('class','edge');
    }
  }
}
]]></script>
        <defs>
                <circle id="rim" cx="0" cy="0" r="7"/>
                <circle id="rim2" cx="0" cy="0" r="3.5"/>
                <g id="zoomPlus">
                        <use xlink:href="#rim" fill="#404040">
                                <set attributeName="fill" to="#808080" begin="zoomplus.mouseover" end="zoomplus.mouseout"/>
                        </use>
                        <path d="M-4,0h8M0,-4v8" fill="none" stroke="white" stroke-width="1.5" pointer-events="none"/>
                </g>
                <g id="zoomMin">
                        <use xlink:href="#rim" fill="#404040">
                                <set attributeName="fill" to="#808080" begin="zoomminus.mouseover" end="zoomminus.mouseout"/>
                        </use>
                        <path d="M-4,0h8" fill="none" stroke="white" stroke-width="1.5" pointer-events="none"/>
                </g>
                <g id="dirArrow">
                        <path fill="none" stroke="white" stroke-width="1.5" d="M0,-3.0v7 M-2.5,-0.5L0,-3.0L2.5,-0.5"/>
                </g>
               <g id="resetDef">
                       <use xlink:href="#rim2" fill="#404040">
                               <set attributeName="fill" to="#808080" begin="reset.mouseover" end="reset.mouseout"/>
                       </use>
               </g>
        </defs>

<script type="text/javascript">
var viewWidth = 765;
var viewHeight = 93;
var sectionId = 'dynsection-1';
</script>
<script xlink:href="svgpan.js"/>
<svg id="graph" class="graph">
<g id="viewport">
<title>ee/sbv/include/slib.h</title>
<!-- Node1 -->
<g id="node1" class="node">
<title>Node1</title>
<g id="a_node1"><a xlink:title=" ">
<polygon fill="#999999" stroke="#666666" points="455.5,-85 350.5,-85 350.5,-66 455.5,-66 455.5,-85"/>
<text text-anchor="middle" x="403" y="-73" font-family="Helvetica,sans-Serif" font-size="10.00">ee/sbv/include/slib.h</text>
</a>
</g>
</g>
<!-- Node2 -->
<g id="node2" class="node">
<title>Node2</title>
<g id="a_node2"><a xlink:href="ee_2sbv_2src_2common_8c.html" target="_top" xlink:title=" ">
<polygon fill="white" stroke="#666666" points="110,-24.5 0,-24.5 0,-5.5 110,-5.5 110,-24.5"/>
<text text-anchor="middle" x="55" y="-12.5" font-family="Helvetica,sans-Serif" font-size="10.00">ee/sbv/src/common.c</text>
</a>
</g>
</g>
<!-- Node1&#45;&gt;Node2 -->
<g id="edge1" class="edge">
<title>Node1&#45;&gt;Node2</title>
<path fill="none" stroke="#63b8ff" d="M339.1,-65.6C281.42,-57.31 194.3,-44.12 119,-30 110.95,-28.49 102.37,-26.72 94.19,-24.96"/>
<polygon fill="#63b8ff" stroke="#63b8ff" points="338.34,-69.03 348.74,-66.98 339.33,-62.1 338.34,-69.03"/>
</g>
<!-- Node3 -->
<g id="node3" class="node">
<title>Node3</title>
<g id="a_node3"><a xlink:href="patch__disable__prefix__check_8c.html" target="_top" xlink:title=" ">
<polygon fill="white" stroke="#666666" points="253.5,-30 128.5,-30 128.5,0 253.5,0 253.5,-30"/>
<text text-anchor="start" x="136.5" y="-18" font-family="Helvetica,sans-Serif" font-size="10.00">ee/sbv/src/patch_disable</text>
<text text-anchor="middle" x="191" y="-7" font-family="Helvetica,sans-Serif" font-size="10.00">_prefix_check.c</text>
</a>
</g>
</g>
<!-- Node1&#45;&gt;Node3 -->
<g id="edge2" class="edge">
<title>Node1&#45;&gt;Node3</title>
<path fill="none" stroke="#63b8ff" d="M359.92,-62.61C326.21,-53.31 279.2,-40.34 243.33,-30.44"/>
<polygon fill="#63b8ff" stroke="#63b8ff" points="358.77,-65.93 369.34,-65.21 360.63,-59.18 358.77,-65.93"/>
</g>
<!-- Node4 -->
<g id="node4" class="node">
<title>Node4</title>
<g id="a_node4"><a xlink:href="patch__enable__lmb_8c.html" target="_top" xlink:title=" ">
<polygon fill="white" stroke="#666666" points="394.5,-30 271.5,-30 271.5,0 394.5,0 394.5,-30"/>
<text text-anchor="start" x="279.5" y="-18" font-family="Helvetica,sans-Serif" font-size="10.00">ee/sbv/src/patch_enable</text>
<text text-anchor="middle" x="333" y="-7" font-family="Helvetica,sans-Serif" font-size="10.00">_lmb.c</text>
</a>
</g>
</g>
<!-- Node1&#45;&gt;Node4 -->
<g id="edge3" class="edge">
<title>Node1&#45;&gt;Node4</title>
<path fill="none" stroke="#63b8ff" d="M383.58,-58.27C373.14,-49.54 360.37,-38.87 350.28,-30.44"/>
<polygon fill="#63b8ff" stroke="#63b8ff" points="381.29,-60.92 391.21,-64.64 385.78,-55.55 381.29,-60.92"/>
</g>
<!-- Node5 -->
<g id="node5" class="node">
<title>Node5</title>
<g id="a_node5"><a xlink:href="patch__fileio_8c_source.html" target="_top" xlink:title=" ">
<polygon fill="white" stroke="#666666" points="535,-24.5 413,-24.5 413,-5.5 535,-5.5 535,-24.5"/>
<text text-anchor="middle" x="474" y="-12.5" font-family="Helvetica,sans-Serif" font-size="10.00">ee/sbv/src/patch_fileio.c</text>
</a>
</g>
</g>
<!-- Node1&#45;&gt;Node5 -->
<g id="edge4" class="edge">
<title>Node1&#45;&gt;Node5</title>
<path fill="none" stroke="#63b8ff" d="M422.52,-58.41C435.6,-47.64 452.34,-33.85 463.12,-24.97"/>
<polygon fill="#63b8ff" stroke="#63b8ff" points="420.44,-55.59 414.95,-64.65 424.89,-60.99 420.44,-55.59"/>
</g>
<!-- Node6 -->
<g id="node6" class="node">
<title>Node6</title>
<g id="a_node6"><a xlink:href="ee_2sbv_2src_2slib_8c.html" target="_top" xlink:title=" ">
<polygon fill="white" stroke="#666666" points="641,-24.5 553,-24.5 553,-5.5 641,-5.5 641,-24.5"/>
<text text-anchor="middle" x="597" y="-12.5" font-family="Helvetica,sans-Serif" font-size="10.00">ee/sbv/src/slib.c</text>
</a>
</g>
</g>
<!-- Node1&#45;&gt;Node6 -->
<g id="edge5" class="edge">
<title>Node1&#45;&gt;Node6</title>
<path fill="none" stroke="#63b8ff" d="M443.34,-62.33C480.28,-51.2 534.1,-34.97 567.26,-24.97"/>
<polygon fill="#63b8ff" stroke="#63b8ff" points="442.48,-58.94 433.91,-65.18 444.5,-65.64 442.48,-58.94"/>
</g>
<!-- Node7 -->
<g id="node7" class="node">
<title>Node7</title>
<g id="a_node7"><a xlink:href="ee_2sbv_2src_2smod_8c.html" target="_top" xlink:title=" ">
<polygon fill="white" stroke="#666666" points="756.5,-24.5 659.5,-24.5 659.5,-5.5 756.5,-5.5 756.5,-24.5"/>
<text text-anchor="middle" x="708" y="-12.5" font-family="Helvetica,sans-Serif" font-size="10.00">ee/sbv/src/smod.c</text>
</a>
</g>
</g>
<!-- Node1&#45;&gt;Node7 -->
<g id="edge6" class="edge">
<title>Node1&#45;&gt;Node7</title>
<path fill="none" stroke="#63b8ff" d="M466.97,-64.03C516.96,-55.6 588.09,-43.04 650,-30 657.2,-28.48 664.86,-26.73 672.18,-24.99"/>
<polygon fill="#63b8ff" stroke="#63b8ff" points="466.47,-60.57 457.19,-65.68 467.63,-67.47 466.47,-60.57"/>
</g>
</g>
</svg>
        <g id="navigator" transform="translate(0 0)" fill="#404254">
                <rect fill="#f2f5e9" fill-opacity="0.5" stroke="#606060" stroke-width=".5" x="0" y="0" width="60" height="60"/>
                <use id="zoomplus" xlink:href="#zoomPlus" x="17" y="9" onmousedown="handleZoom(evt,'in')"/>
                <use id="zoomminus" xlink:href="#zoomMin" x="42" y="9" onmousedown="handleZoom(evt,'out')"/>
                <use id="reset" xlink:href="#resetDef" x="30" y="36" onmousedown="handleReset()"/>
                <g id="arrowUp" xlink:href="#dirArrow" transform="translate(30 24)" onmousedown="handlePan(0,-1)">
                  <use xlink:href="#rim" fill="#404040">
                        <set attributeName="fill" to="#808080" begin="arrowUp.mouseover" end="arrowUp.mouseout"/>
                  </use>
                  <path fill="none" stroke="white" stroke-width="1.5" d="M0,-3.0v7 M-2.5,-0.5L0,-3.0L2.5,-0.5"/>
                </g>
                <g id="arrowRight" xlink:href="#dirArrow" transform="rotate(90) translate(36 -43)" onmousedown="handlePan(1,0)">
                  <use xlink:href="#rim" fill="#404040">
                        <set attributeName="fill" to="#808080" begin="arrowRight.mouseover" end="arrowRight.mouseout"/>
                  </use>
                  <path fill="none" stroke="white" stroke-width="1.5" d="M0,-3.0v7 M-2.5,-0.5L0,-3.0L2.5,-0.5"/>
                </g>
                <g id="arrowDown" xlink:href="#dirArrow" transform="rotate(180) translate(-30 -48)" onmousedown="handlePan(0,1)">
                  <use xlink:href="#rim" fill="#404040">
                        <set attributeName="fill" to="#808080" begin="arrowDown.mouseover" end="arrowDown.mouseout"/>
                  </use>
                  <path fill="none" stroke="white" stroke-width="1.5" d="M0,-3.0v7 M-2.5,-0.5L0,-3.0L2.5,-0.5"/>
                </g>
                <g id="arrowLeft" xlink:href="#dirArrow" transform="rotate(270) translate(-36 17)" onmousedown="handlePan(-1,0)">
                  <use xlink:href="#rim" fill="#404040">
                        <set attributeName="fill" to="#808080" begin="arrowLeft.mouseover" end="arrowLeft.mouseout"/>
                  </use>
                  <path fill="none" stroke="white" stroke-width="1.5" d="M0,-3.0v7 M-2.5,-0.5L0,-3.0L2.5,-0.5"/>
                </g>
        </g>
        <svg viewBox="0 0 15 15" width="100%" height="30px" preserveAspectRatio="xMaxYMin meet">
         <g id="arrow_out" transform="scale(0.3 0.3)">
          <a xlink:href="slib_8h__dep__incl_org.svg" target="_base">
           <rect id="button" ry="5" rx="5" y="6" x="6" height="38" width="38"
                fill="#f2f5e9" fill-opacity="0.5" stroke="#606060" stroke-width="1.0"/>
           <path id="arrow"
             d="M 11.500037,31.436501 C 11.940474,20.09759 22.043105,11.32322 32.158766,21.979434 L 37.068811,17.246167 C 37.068811,17.246167 37.088388,32 37.088388,32 L 22.160133,31.978069 C 22.160133,31.978069 26.997745,27.140456 26.997745,27.140456 C 18.528582,18.264221 13.291696,25.230495 11.500037,31.436501 z"
             style="fill:#404040;"/>
          </a>
         </g>
        </svg>
</svg>
