<?xml version="1.0" encoding="UTF-8" standalone="no"?>
<!DOCTYPE svg PUBLIC "-//W3C//DTD SVG 1.1//EN"
 "http://www.w3.org/Graphics/SVG/1.1/DTD/svg11.dtd">
<!-- Generated by graphviz version 7.0.5 (20221223.1930)
 -->
<!-- Title: common/include/smapregs.h Pages: 1 -->
<svg width="406pt" height="93pt"
 viewBox="0.00 0.00 405.50 93.00" xmlns="http://www.w3.org/2000/svg" xmlns:xlink="http://www.w3.org/1999/xlink">
<g id="graph0" class="graph" transform="scale(1 1) rotate(0) translate(4 89)">
<title>common/include/smapregs.h</title>
<!-- Node1 -->
<g id="node1" class="node">
<title>Node1</title>
<g id="a_node1"><a xlink:title=" ">
<polygon fill="#999999" stroke="#666666" points="285,-85 144,-85 144,-66 285,-66 285,-85"/>
<text text-anchor="middle" x="214.5" y="-73" font-family="Helvetica,sans-Serif" font-size="10.00">common/include/smapregs.h</text>
</a>
</g>
</g>
<!-- Node2 -->
<g id="node2" class="node">
<title>Node2</title>
<g id="a_node2"><a xlink:href="ps2dev9_8c.html" target="_top" xlink:title=" ">
<polygon fill="white" stroke="#666666" points="141,-24.5 0,-24.5 0,-5.5 141,-5.5 141,-24.5"/>
<text text-anchor="middle" x="70.5" y="-12.5" font-family="Helvetica,sans-Serif" font-size="10.00">iop/dev9/dev9/src/ps2dev9.c</text>
</a>
</g>
</g>
<!-- Node1&#45;&gt;Node2 -->
<g id="edge1" class="edge">
<title>Node1&#45;&gt;Node2</title>
<path fill="none" stroke="#63b8ff" d="M182.04,-61.31C154.74,-50.22 116.45,-34.67 92.58,-24.97"/>
<polygon fill="#63b8ff" stroke="#63b8ff" points="180.65,-64.52 191.23,-65.05 183.28,-58.04 180.65,-64.52"/>
</g>
<!-- Node3 -->
<g id="node3" class="node">
<title>Node3</title>
<g id="a_node3"><a xlink:href="smap_8c_source.html" target="_top" xlink:title=" ">
<polygon fill="white" stroke="#666666" points="269.5,-30 159.5,-30 159.5,0 269.5,0 269.5,-30"/>
<text text-anchor="start" x="167.5" y="-18" font-family="Helvetica,sans-Serif" font-size="10.00">iop/network/smap/src</text>
<text text-anchor="middle" x="214.5" y="-7" font-family="Helvetica,sans-Serif" font-size="10.00">/smap.c</text>
</a>
</g>
</g>
<!-- Node1&#45;&gt;Node3 -->
<g id="edge2" class="edge">
<title>Node1&#45;&gt;Node3</title>
<path fill="none" stroke="#63b8ff" d="M214.5,-54.51C214.5,-46.49 214.5,-37.43 214.5,-30.11"/>
<polygon fill="#63b8ff" stroke="#63b8ff" points="211,-54.35 214.5,-64.35 218,-54.35 211,-54.35"/>
</g>
<!-- Node4 -->
<g id="node4" class="node">
<title>Node4</title>
<g id="a_node4"><a xlink:href="xfer_8c_source.html" target="_top" xlink:title=" ">
<polygon fill="white" stroke="#666666" points="397.5,-30 287.5,-30 287.5,0 397.5,0 397.5,-30"/>
<text text-anchor="start" x="295.5" y="-18" font-family="Helvetica,sans-Serif" font-size="10.00">iop/network/smap/src</text>
<text text-anchor="middle" x="342.5" y="-7" font-family="Helvetica,sans-Serif" font-size="10.00">/xfer.c</text>
</a>
</g>
</g>
<!-- Node1&#45;&gt;Node4 -->
<g id="edge3" class="edge">
<title>Node1&#45;&gt;Node4</title>
<path fill="none" stroke="#63b8ff" d="M244.32,-60.87C264.3,-51.74 290.57,-39.74 310.91,-30.44"/>
<polygon fill="#63b8ff" stroke="#63b8ff" points="242.96,-57.65 235.32,-64.99 245.87,-64.01 242.96,-57.65"/>
</g>
</g>
</svg>
