<?xml version="1.0" encoding="UTF-8" standalone="no"?>
<!DOCTYPE svg PUBLIC "-//W3C//DTD SVG 1.1//EN"
 "http://www.w3.org/Graphics/SVG/1.1/DTD/svg11.dtd">
<!-- Generated by graphviz version 7.0.5 (20221223.1930)
 -->
<!-- Title: ee/sbv/src/smem.c Pages: 1 -->
<svg width="333pt" height="302pt"
 viewBox="0.00 0.00 332.51 302.00" xmlns="http://www.w3.org/2000/svg" xmlns:xlink="http://www.w3.org/1999/xlink">
<g id="graph0" class="graph" transform="scale(1 1) rotate(0) translate(4 298)">
<title>ee/sbv/src/smem.c</title>
<!-- Node1 -->
<g id="node1" class="node">
<title>Node1</title>
<g id="a_node1"><a xlink:title=" ">
<polygon fill="#999999" stroke="#666666" points="214.01,-294 114.01,-294 114.01,-275 214.01,-275 214.01,-294"/>
<text text-anchor="middle" x="164.01" y="-282" font-family="Helvetica,sans-Serif" font-size="10.00">ee/sbv/src/smem.c</text>
</a>
</g>
</g>
<!-- Node2 -->
<g id="node2" class="node">
<title>Node2</title>
<g id="a_node2"><a xlink:href="kernel_8h.html" target="_top" xlink:title=" ">
<polygon fill="white" stroke="#666666" points="56.01,-184 6.01,-184 6.01,-165 56.01,-165 56.01,-184"/>
<text text-anchor="middle" x="31.01" y="-172" font-family="Helvetica,sans-Serif" font-size="10.00">kernel.h</text>
</a>
</g>
</g>
<!-- Node1&#45;&gt;Node2 -->
<g id="edge1" class="edge">
<title>Node1&#45;&gt;Node2</title>
<path fill="none" stroke="#63b8ff" d="M153.13,-274.66C130.72,-256.47 79.16,-214.6 50.73,-191.51"/>
<polygon fill="#63b8ff" stroke="#63b8ff" points="53.19,-189 43.22,-185.41 48.78,-194.44 53.19,-189"/>
</g>
<!-- Node7 -->
<g id="node7" class="node">
<title>Node7</title>
<g id="a_node7"><a xlink:href="string_8h_source.html" target="_top" xlink:title=" ">
<polygon fill="white" stroke="#666666" points="188.01,-239 140.01,-239 140.01,-220 188.01,-220 188.01,-239"/>
<text text-anchor="middle" x="164.01" y="-227" font-family="Helvetica,sans-Serif" font-size="10.00">string.h</text>
</a>
</g>
</g>
<!-- Node1&#45;&gt;Node7 -->
<g id="edge6" class="edge">
<title>Node1&#45;&gt;Node7</title>
<path fill="none" stroke="#63b8ff" d="M164.01,-274.75C164.01,-268.27 164.01,-259.16 164.01,-250.9"/>
<polygon fill="#63b8ff" stroke="#63b8ff" points="167.51,-250.96 164.01,-240.96 160.51,-250.96 167.51,-250.96"/>
</g>
<!-- Node13 -->
<g id="node13" class="node">
<title>Node13</title>
<g id="a_node13"><a xlink:href="smem_8h.html" target="_top" xlink:title=" ">
<polygon fill="white" stroke="#666666" points="324.51,-74 273.51,-74 273.51,-55 324.51,-55 324.51,-74"/>
<text text-anchor="middle" x="299.01" y="-62" font-family="Helvetica,sans-Serif" font-size="10.00">smem.h</text>
</a>
</g>
</g>
<!-- Node1&#45;&gt;Node13 -->
<g id="edge17" class="edge">
<title>Node1&#45;&gt;Node13</title>
<path fill="none" stroke="#63b8ff" d="M170.83,-274.81C177.68,-265.96 188.42,-251.77 197.01,-239 233.67,-184.55 271.45,-116.59 288.97,-84.26"/>
<polygon fill="#63b8ff" stroke="#63b8ff" points="291.91,-86.19 293.57,-75.73 285.74,-82.87 291.91,-86.19"/>
</g>
<!-- Node3 -->
<g id="node3" class="node">
<title>Node3</title>
<g id="a_node3"><a xlink:title=" ">
<polygon fill="#e0e0e0" stroke="#999999" points="82.51,-19 31.51,-19 31.51,0 82.51,0 82.51,-19"/>
<text text-anchor="middle" x="57.01" y="-7" font-family="Helvetica,sans-Serif" font-size="10.00">stddef.h</text>
</a>
</g>
</g>
<!-- Node2&#45;&gt;Node3 -->
<g id="edge2" class="edge">
<title>Node2&#45;&gt;Node3</title>
<path fill="none" stroke="#63b8ff" d="M25.63,-164.77C13.91,-144.58 -11.48,-93.47 6.01,-55 11.39,-43.16 21.65,-33.25 31.56,-25.8"/>
<polygon fill="#63b8ff" stroke="#63b8ff" points="33.3,-28.85 39.54,-20.3 29.32,-23.09 33.3,-28.85"/>
</g>
<!-- Node4 -->
<g id="node4" class="node">
<title>Node4</title>
<g id="a_node4"><a xlink:title=" ">
<polygon fill="#e0e0e0" stroke="#999999" points="83.51,-129 32.51,-129 32.51,-110 83.51,-110 83.51,-129"/>
<text text-anchor="middle" x="58.01" y="-117" font-family="Helvetica,sans-Serif" font-size="10.00">stdarg.h</text>
</a>
</g>
</g>
<!-- Node2&#45;&gt;Node4 -->
<g id="edge3" class="edge">
<title>Node2&#45;&gt;Node4</title>
<path fill="none" stroke="#63b8ff" d="M35.47,-164.75C38.97,-157.88 43.96,-148.08 48.36,-139.45"/>
<polygon fill="#63b8ff" stroke="#63b8ff" points="51.35,-141.29 52.77,-130.79 45.11,-138.11 51.35,-141.29"/>
</g>
<!-- Node5 -->
<g id="node5" class="node">
<title>Node5</title>
<g id="a_node5"><a xlink:href="sifdma_8h.html" target="_top" xlink:title=" ">
<polygon fill="white" stroke="#666666" points="68.51,-74 15.51,-74 15.51,-55 68.51,-55 68.51,-74"/>
<text text-anchor="middle" x="42.01" y="-62" font-family="Helvetica,sans-Serif" font-size="10.00">sifdma.h</text>
</a>
</g>
</g>
<!-- Node2&#45;&gt;Node5 -->
<g id="edge4" class="edge">
<title>Node2&#45;&gt;Node5</title>
<path fill="none" stroke="#63b8ff" d="M28.13,-164.8C24.47,-152.51 19.05,-129.38 23.01,-110 24.8,-101.26 28.37,-92.12 31.94,-84.41"/>
<polygon fill="#63b8ff" stroke="#63b8ff" points="34.95,-86.22 36.29,-75.71 28.69,-83.09 34.95,-86.22"/>
</g>
<!-- Node6 -->
<g id="node6" class="node">
<title>Node6</title>
<g id="a_node6"><a xlink:href="tamtypes_8h.html" target="_top" xlink:title=" ">
<polygon fill="white" stroke="#666666" points="203.01,-19 139.01,-19 139.01,0 203.01,0 203.01,-19"/>
<text text-anchor="middle" x="171.01" y="-7" font-family="Helvetica,sans-Serif" font-size="10.00">tamtypes.h</text>
</a>
</g>
</g>
<!-- Node5&#45;&gt;Node6 -->
<g id="edge5" class="edge">
<title>Node5&#45;&gt;Node6</title>
<path fill="none" stroke="#63b8ff" d="M63.9,-54.51C84.5,-46.04 115.6,-33.27 138.99,-23.66"/>
<polygon fill="#63b8ff" stroke="#63b8ff" points="140.13,-26.97 148.05,-19.93 137.47,-20.5 140.13,-26.97"/>
</g>
<!-- Node8 -->
<g id="node8" class="node">
<title>Node8</title>
<g id="a_node8"><a xlink:href="sysclib_8h.html" target="_top" xlink:title=" ">
<polygon fill="white" stroke="#666666" points="191.01,-184 137.01,-184 137.01,-165 191.01,-165 191.01,-184"/>
<text text-anchor="middle" x="164.01" y="-172" font-family="Helvetica,sans-Serif" font-size="10.00">sysclib.h</text>
</a>
</g>
</g>
<!-- Node7&#45;&gt;Node8 -->
<g id="edge7" class="edge">
<title>Node7&#45;&gt;Node8</title>
<path fill="none" stroke="#63b8ff" d="M164.01,-219.75C164.01,-213.27 164.01,-204.16 164.01,-195.9"/>
<polygon fill="#63b8ff" stroke="#63b8ff" points="167.51,-195.96 164.01,-185.96 160.51,-195.96 167.51,-195.96"/>
</g>
<!-- Node8&#45;&gt;Node4 -->
<g id="edge13" class="edge">
<title>Node8&#45;&gt;Node4</title>
<path fill="none" stroke="#63b8ff" d="M146.03,-164.51C129.56,-156.27 104.93,-143.96 85.9,-134.45"/>
<polygon fill="#63b8ff" stroke="#63b8ff" points="87.59,-131.38 77.08,-130.03 84.46,-137.64 87.59,-131.38"/>
</g>
<!-- Node9 -->
<g id="node9" class="node">
<title>Node9</title>
<g id="a_node9"><a xlink:href="iop_2kernel_2include_2types_8h_source.html" target="_top" xlink:title=" ">
<polygon fill="white" stroke="#666666" points="148.51,-74 101.51,-74 101.51,-55 148.51,-55 148.51,-74"/>
<text text-anchor="middle" x="125.01" y="-62" font-family="Helvetica,sans-Serif" font-size="10.00">types.h</text>
</a>
</g>
</g>
<!-- Node8&#45;&gt;Node9 -->
<g id="edge8" class="edge">
<title>Node8&#45;&gt;Node9</title>
<path fill="none" stroke="#63b8ff" d="M161.79,-164.75C158.56,-152.4 152.16,-129.19 145.01,-110 141.84,-101.47 137.8,-92.25 134.19,-84.44"/>
<polygon fill="#63b8ff" stroke="#63b8ff" points="137.44,-83.13 129.99,-75.59 131.11,-86.13 137.44,-83.13"/>
</g>
<!-- Node10 -->
<g id="node10" class="node">
<title>Node10</title>
<g id="a_node10"><a xlink:href="irx_8h.html" target="_top" xlink:title=" ">
<polygon fill="white" stroke="#666666" points="136.01,-129 102.01,-129 102.01,-110 136.01,-110 136.01,-129"/>
<text text-anchor="middle" x="119.01" y="-117" font-family="Helvetica,sans-Serif" font-size="10.00">irx.h</text>
</a>
</g>
</g>
<!-- Node8&#45;&gt;Node10 -->
<g id="edge11" class="edge">
<title>Node8&#45;&gt;Node10</title>
<path fill="none" stroke="#63b8ff" d="M156.58,-164.75C150.43,-157.5 141.5,-146.98 133.89,-138.02"/>
<polygon fill="#63b8ff" stroke="#63b8ff" points="136.73,-135.95 127.59,-130.6 131.39,-140.48 136.73,-135.95"/>
</g>
<!-- Node11 -->
<g id="node11" class="node">
<title>Node11</title>
<g id="a_node11"><a xlink:href="setjmp_8h.html" target="_top" xlink:title=" ">
<polygon fill="white" stroke="#666666" points="243.51,-74 190.51,-74 190.51,-55 243.51,-55 243.51,-74"/>
<text text-anchor="middle" x="217.01" y="-62" font-family="Helvetica,sans-Serif" font-size="10.00">setjmp.h</text>
</a>
</g>
</g>
<!-- Node8&#45;&gt;Node11 -->
<g id="edge14" class="edge">
<title>Node8&#45;&gt;Node11</title>
<path fill="none" stroke="#63b8ff" d="M191.14,-167.09C210.71,-160.9 235.76,-149.36 248.01,-129 257.16,-113.8 246.08,-95.51 234.71,-82.47"/>
<polygon fill="#63b8ff" stroke="#63b8ff" points="237.5,-80.32 228.07,-75.48 232.42,-85.14 237.5,-80.32"/>
</g>
<!-- Node12 -->
<g id="node12" class="node">
<title>Node12</title>
<g id="a_node12"><a xlink:href="ctype_8h.html" target="_top" xlink:title=" ">
<polygon fill="white" stroke="#666666" points="239.51,-129 192.51,-129 192.51,-110 239.51,-110 239.51,-129"/>
<text text-anchor="middle" x="216.01" y="-117" font-family="Helvetica,sans-Serif" font-size="10.00">ctype.h</text>
</a>
</g>
</g>
<!-- Node8&#45;&gt;Node12 -->
<g id="edge16" class="edge">
<title>Node8&#45;&gt;Node12</title>
<path fill="none" stroke="#63b8ff" d="M172.6,-164.75C179.86,-157.35 190.47,-146.54 199.38,-137.45"/>
<polygon fill="#63b8ff" stroke="#63b8ff" points="201.68,-140.11 206.18,-130.52 196.68,-135.21 201.68,-140.11"/>
</g>
<!-- Node9&#45;&gt;Node3 -->
<g id="edge9" class="edge">
<title>Node9&#45;&gt;Node3</title>
<path fill="none" stroke="#63b8ff" d="M113.48,-54.51C103.55,-46.77 89,-35.43 77.16,-26.2"/>
<polygon fill="#63b8ff" stroke="#63b8ff" points="79.61,-23.68 69.57,-20.29 75.31,-29.2 79.61,-23.68"/>
</g>
<!-- Node9&#45;&gt;Node6 -->
<g id="edge10" class="edge">
<title>Node9&#45;&gt;Node6</title>
<path fill="none" stroke="#63b8ff" d="M132.61,-54.75C138.9,-47.5 148.03,-36.98 155.81,-28.02"/>
<polygon fill="#63b8ff" stroke="#63b8ff" points="158.35,-30.43 162.26,-20.59 153.06,-25.84 158.35,-30.43"/>
</g>
<!-- Node10&#45;&gt;Node9 -->
<g id="edge12" class="edge">
<title>Node10&#45;&gt;Node9</title>
<path fill="none" stroke="#63b8ff" d="M120,-109.75C120.75,-103.19 121.79,-93.95 122.74,-85.6"/>
<polygon fill="#63b8ff" stroke="#63b8ff" points="126.18,-86.28 123.83,-75.95 119.23,-85.49 126.18,-86.28"/>
</g>
<!-- Node11&#45;&gt;Node6 -->
<g id="edge15" class="edge">
<title>Node11&#45;&gt;Node6</title>
<path fill="none" stroke="#63b8ff" d="M209.42,-54.75C203.13,-47.5 194,-36.98 186.22,-28.02"/>
<polygon fill="#63b8ff" stroke="#63b8ff" points="188.96,-25.84 179.77,-20.59 183.68,-30.43 188.96,-25.84"/>
</g>
<!-- Node13&#45;&gt;Node6 -->
<g id="edge18" class="edge">
<title>Node13&#45;&gt;Node6</title>
<path fill="none" stroke="#63b8ff" d="M277.3,-54.51C256.86,-46.04 226,-33.27 202.79,-23.66"/>
<polygon fill="#63b8ff" stroke="#63b8ff" points="204.38,-20.53 193.8,-19.94 201.7,-27 204.38,-20.53"/>
</g>
</g>
</svg>
