<?xml version="1.0" encoding="UTF-8" standalone="no"?>
<!DOCTYPE svg PUBLIC "-//W3C//DTD SVG 1.1//EN"
 "http://www.w3.org/Graphics/SVG/1.1/DTD/svg11.dtd">
<!-- Generated by graphviz version 7.0.5 (20221223.1930)
 -->
<!-- Title: ee/sbv/include/smem.h Pages: 1 -->
<svg width="365pt" height="93pt"
 viewBox="0.00 0.00 365.00 93.00" xmlns="http://www.w3.org/2000/svg" xmlns:xlink="http://www.w3.org/1999/xlink">
<g id="graph0" class="graph" transform="scale(1 1) rotate(0) translate(4 89)">
<title>ee/sbv/include/smem.h</title>
<!-- Node1 -->
<g id="node1" class="node">
<title>Node1</title>
<g id="a_node1"><a xlink:title=" ">
<polygon fill="#999999" stroke="#666666" points="250,-85 133,-85 133,-66 250,-66 250,-85"/>
<text text-anchor="middle" x="191.5" y="-73" font-family="Helvetica,sans-Serif" font-size="10.00">ee/sbv/include/smem.h</text>
</a>
</g>
</g>
<!-- Node2 -->
<g id="node2" class="node">
<title>Node2</title>
<g id="a_node2"><a xlink:href="patch__enable__lmb_8c.html" target="_top" xlink:title=" ">
<polygon fill="white" stroke="#666666" points="123,-30 0,-30 0,0 123,0 123,-30"/>
<text text-anchor="start" x="8" y="-18" font-family="Helvetica,sans-Serif" font-size="10.00">ee/sbv/src/patch_enable</text>
<text text-anchor="middle" x="61.5" y="-7" font-family="Helvetica,sans-Serif" font-size="10.00">_lmb.c</text>
</a>
</g>
</g>
<!-- Node1&#45;&gt;Node2 -->
<g id="edge1" class="edge">
<title>Node1&#45;&gt;Node2</title>
<path fill="none" stroke="#63b8ff" d="M161.5,-61C141.17,-51.85 114.34,-39.78 93.59,-30.44"/>
<polygon fill="#63b8ff" stroke="#63b8ff" points="159.82,-64.08 170.38,-64.99 162.69,-57.7 159.82,-64.08"/>
</g>
<!-- Node3 -->
<g id="node3" class="node">
<title>Node3</title>
<g id="a_node3"><a xlink:href="smem_8c.html" target="_top" xlink:title=" ">
<polygon fill="white" stroke="#666666" points="241.5,-24.5 141.5,-24.5 141.5,-5.5 241.5,-5.5 241.5,-24.5"/>
<text text-anchor="middle" x="191.5" y="-12.5" font-family="Helvetica,sans-Serif" font-size="10.00">ee/sbv/src/smem.c</text>
</a>
</g>
</g>
<!-- Node1&#45;&gt;Node3 -->
<g id="edge2" class="edge">
<title>Node1&#45;&gt;Node3</title>
<path fill="none" stroke="#63b8ff" d="M191.5,-54.66C191.5,-44.45 191.5,-32.54 191.5,-24.67"/>
<polygon fill="#63b8ff" stroke="#63b8ff" points="188,-54.35 191.5,-64.35 195,-54.35 188,-54.35"/>
</g>
<!-- Node4 -->
<g id="node4" class="node">
<title>Node4</title>
<g id="a_node4"><a xlink:href="ee_2sbv_2src_2smod_8c.html" target="_top" xlink:title=" ">
<polygon fill="white" stroke="#666666" points="357,-24.5 260,-24.5 260,-5.5 357,-5.5 357,-24.5"/>
<text text-anchor="middle" x="308.5" y="-12.5" font-family="Helvetica,sans-Serif" font-size="10.00">ee/sbv/src/smod.c</text>
</a>
</g>
</g>
<!-- Node1&#45;&gt;Node4 -->
<g id="edge3" class="edge">
<title>Node1&#45;&gt;Node4</title>
<path fill="none" stroke="#63b8ff" d="M219.37,-60.57C241.43,-49.53 271.6,-34.45 290.56,-24.97"/>
<polygon fill="#63b8ff" stroke="#63b8ff" points="218,-57.34 210.62,-64.94 221.13,-63.6 218,-57.34"/>
</g>
</g>
</svg>
