<?xml version="1.0" encoding="UTF-8" standalone="no"?>
<!DOCTYPE svg PUBLIC "-//W3C//DTD SVG 1.1//EN"
 "http://www.w3.org/Graphics/SVG/1.1/DTD/svg11.dtd">
<!-- Generated by graphviz version 7.0.5 (20221223.1930)
 -->
<!-- Title: ee/sbv/include/smod.h Pages: 1 -->
<svg width="622pt" height="93pt"
 viewBox="0.00 0.00 621.50 93.00" xmlns="http://www.w3.org/2000/svg" xmlns:xlink="http://www.w3.org/1999/xlink">
<g id="graph0" class="graph" transform="scale(1 1) rotate(0) translate(4 89)">
<title>ee/sbv/include/smod.h</title>
<!-- Node1 -->
<g id="node1" class="node">
<title>Node1</title>
<g id="a_node1"><a xlink:title=" ">
<polygon fill="#999999" stroke="#666666" points="388,-85 274,-85 274,-66 388,-66 388,-85"/>
<text text-anchor="middle" x="331" y="-73" font-family="Helvetica,sans-Serif" font-size="10.00">ee/sbv/include/smod.h</text>
</a>
</g>
</g>
<!-- Node2 -->
<g id="node2" class="node">
<title>Node2</title>
<g id="a_node2"><a xlink:href="ee_2sbv_2src_2common_8c.html" target="_top" xlink:title=" ">
<polygon fill="white" stroke="#666666" points="110,-24.5 0,-24.5 0,-5.5 110,-5.5 110,-24.5"/>
<text text-anchor="middle" x="55" y="-12.5" font-family="Helvetica,sans-Serif" font-size="10.00">ee/sbv/src/common.c</text>
</a>
</g>
</g>
<!-- Node1&#45;&gt;Node2 -->
<g id="edge1" class="edge">
<title>Node1&#45;&gt;Node2</title>
<path fill="none" stroke="#63b8ff" d="M276.91,-63.28C234.06,-54.35 172.67,-41.5 119,-30 111.44,-28.38 103.38,-26.63 95.62,-24.94"/>
<polygon fill="#63b8ff" stroke="#63b8ff" points="275.95,-66.65 286.46,-65.26 277.38,-59.8 275.95,-66.65"/>
</g>
<!-- Node3 -->
<g id="node3" class="node">
<title>Node3</title>
<g id="a_node3"><a xlink:href="patch__enable__lmb_8c.html" target="_top" xlink:title=" ">
<polygon fill="white" stroke="#666666" points="251.5,-30 128.5,-30 128.5,0 251.5,0 251.5,-30"/>
<text text-anchor="start" x="136.5" y="-18" font-family="Helvetica,sans-Serif" font-size="10.00">ee/sbv/src/patch_enable</text>
<text text-anchor="middle" x="190" y="-7" font-family="Helvetica,sans-Serif" font-size="10.00">_lmb.c</text>
</a>
</g>
</g>
<!-- Node1&#45;&gt;Node3 -->
<g id="edge2" class="edge">
<title>Node1&#45;&gt;Node3</title>
<path fill="none" stroke="#63b8ff" d="M299.07,-61.25C276.95,-52.08 247.52,-39.86 224.8,-30.44"/>
<polygon fill="#63b8ff" stroke="#63b8ff" points="297.61,-64.44 308.19,-65.04 300.29,-57.97 297.61,-64.44"/>
</g>
<!-- Node4 -->
<g id="node4" class="node">
<title>Node4</title>
<g id="a_node4"><a xlink:href="patch__fileio_8c_source.html" target="_top" xlink:title=" ">
<polygon fill="white" stroke="#666666" points="392,-24.5 270,-24.5 270,-5.5 392,-5.5 392,-24.5"/>
<text text-anchor="middle" x="331" y="-12.5" font-family="Helvetica,sans-Serif" font-size="10.00">ee/sbv/src/patch_fileio.c</text>
</a>
</g>
</g>
<!-- Node1&#45;&gt;Node4 -->
<g id="edge3" class="edge">
<title>Node1&#45;&gt;Node4</title>
<path fill="none" stroke="#63b8ff" d="M331,-54.66C331,-44.45 331,-32.54 331,-24.67"/>
<polygon fill="#63b8ff" stroke="#63b8ff" points="327.5,-54.35 331,-64.35 334.5,-54.35 327.5,-54.35"/>
</g>
<!-- Node5 -->
<g id="node5" class="node">
<title>Node5</title>
<g id="a_node5"><a xlink:href="ee_2sbv_2src_2slib_8c.html" target="_top" xlink:title=" ">
<polygon fill="white" stroke="#666666" points="498,-24.5 410,-24.5 410,-5.5 498,-5.5 498,-24.5"/>
<text text-anchor="middle" x="454" y="-12.5" font-family="Helvetica,sans-Serif" font-size="10.00">ee/sbv/src/slib.c</text>
</a>
</g>
</g>
<!-- Node1&#45;&gt;Node5 -->
<g id="edge4" class="edge">
<title>Node1&#45;&gt;Node5</title>
<path fill="none" stroke="#63b8ff" d="M359.98,-60.72C383.2,-49.67 415.12,-34.49 435.14,-24.97"/>
<polygon fill="#63b8ff" stroke="#63b8ff" points="358.58,-57.51 351.05,-64.97 361.58,-63.83 358.58,-57.51"/>
</g>
<!-- Node6 -->
<g id="node6" class="node">
<title>Node6</title>
<g id="a_node6"><a xlink:href="ee_2sbv_2src_2smod_8c.html" target="_top" xlink:title=" ">
<polygon fill="white" stroke="#666666" points="613.5,-24.5 516.5,-24.5 516.5,-5.5 613.5,-5.5 613.5,-24.5"/>
<text text-anchor="middle" x="565" y="-12.5" font-family="Helvetica,sans-Serif" font-size="10.00">ee/sbv/src/smod.c</text>
</a>
</g>
</g>
<!-- Node1&#45;&gt;Node6 -->
<g id="edge5" class="edge">
<title>Node1&#45;&gt;Node6</title>
<path fill="none" stroke="#63b8ff" d="M377.93,-62.77C422.55,-51.61 488.7,-35.08 529.21,-24.95"/>
<polygon fill="#63b8ff" stroke="#63b8ff" points="377.12,-59.36 368.26,-65.18 378.81,-66.15 377.12,-59.36"/>
</g>
</g>
</svg>
