<?xml version="1.0" encoding="UTF-8" standalone="no"?>
<!DOCTYPE svg PUBLIC "-//W3C//DTD SVG 1.1//EN"
 "http://www.w3.org/Graphics/SVG/1.1/DTD/svg11.dtd">
<!-- Generated by graphviz version 7.0.5 (20221223.1930)
 -->
<!-- Title: common/include/speedregs.h Pages: 1 -->
<svg width="1522pt" height="159pt"
 viewBox="0.00 0.00 1522.00 159.00" xmlns="http://www.w3.org/2000/svg" xmlns:xlink="http://www.w3.org/1999/xlink">
<g id="graph0" class="graph" transform="scale(1 1) rotate(0) translate(4 155)">
<title>common/include/speedregs.h</title>
<!-- Node1 -->
<g id="node1" class="node">
<title>Node1</title>
<g id="a_node1"><a xlink:title=" ">
<polygon fill="#999999" stroke="#666666" points="772,-151 629,-151 629,-132 772,-132 772,-151"/>
<text text-anchor="middle" x="700.5" y="-139" font-family="Helvetica,sans-Serif" font-size="10.00">common/include/speedregs.h</text>
</a>
</g>
</g>
<!-- Node2 -->
<g id="node2" class="node">
<title>Node2</title>
<g id="a_node2"><a xlink:href="atahw_8h.html" target="_top" xlink:title=" ">
<polygon fill="white" stroke="#666666" points="270,-90.5 145,-90.5 145,-71.5 270,-71.5 270,-90.5"/>
<text text-anchor="middle" x="207.5" y="-78.5" font-family="Helvetica,sans-Serif" font-size="10.00">common/include/atahw.h</text>
</a>
</g>
</g>
<!-- Node1&#45;&gt;Node2 -->
<g id="edge1" class="edge">
<title>Node1&#45;&gt;Node2</title>
<path fill="none" stroke="#63b8ff" d="M617.37,-131.6C538.17,-122.99 415.62,-109.32 309.5,-96 296.82,-94.41 283.27,-92.61 270.31,-90.85"/>
<polygon fill="#63b8ff" stroke="#63b8ff" points="616.91,-135.07 627.23,-132.67 617.67,-128.11 616.91,-135.07"/>
</g>
<!-- Node3 -->
<g id="node3" class="node">
<title>Node3</title>
<g id="a_node3"><a xlink:href="ps2atad_8c.html" target="_top" xlink:title=" ">
<polygon fill="white" stroke="#666666" points="137,-24.5 0,-24.5 0,-5.5 137,-5.5 137,-24.5"/>
<text text-anchor="middle" x="68.5" y="-12.5" font-family="Helvetica,sans-Serif" font-size="10.00">iop/dev9/atad/src/ps2atad.c</text>
</a>
</g>
</g>
<!-- Node1&#45;&gt;Node3 -->
<g id="edge8" class="edge">
<title>Node1&#45;&gt;Node3</title>
<path fill="none" stroke="#63b8ff" d="M617.57,-137.51C470.91,-131.69 177.24,-117.52 135.5,-96 104.26,-79.89 81.89,-42.26 72.89,-24.97"/>
<polygon fill="#63b8ff" stroke="#63b8ff" points="617.09,-140.99 627.22,-137.88 617.36,-133.99 617.09,-140.99"/>
</g>
<!-- Node5 -->
<g id="node5" class="node">
<title>Node5</title>
<g id="a_node5"><a xlink:href="smapregs_8h.html" target="_top" xlink:title=" ">
<polygon fill="white" stroke="#666666" points="493,-90.5 352,-90.5 352,-71.5 493,-71.5 493,-90.5"/>
<text text-anchor="middle" x="422.5" y="-78.5" font-family="Helvetica,sans-Serif" font-size="10.00">common/include/smapregs.h</text>
</a>
</g>
</g>
<!-- Node1&#45;&gt;Node5 -->
<g id="edge4" class="edge">
<title>Node1&#45;&gt;Node5</title>
<path fill="none" stroke="#63b8ff" d="M646.76,-129.19C593.75,-118.04 513.76,-101.2 465.02,-90.95"/>
<polygon fill="#63b8ff" stroke="#63b8ff" points="645.99,-132.61 656.49,-131.24 647.43,-125.76 645.99,-132.61"/>
</g>
<!-- Node6 -->
<g id="node6" class="node">
<title>Node6</title>
<g id="a_node6"><a xlink:href="ps2dev9_8c.html" target="_top" xlink:title=" ">
<polygon fill="white" stroke="#666666" points="419,-24.5 278,-24.5 278,-5.5 419,-5.5 419,-24.5"/>
<text text-anchor="middle" x="348.5" y="-12.5" font-family="Helvetica,sans-Serif" font-size="10.00">iop/dev9/dev9/src/ps2dev9.c</text>
</a>
</g>
</g>
<!-- Node1&#45;&gt;Node6 -->
<g id="edge9" class="edge">
<title>Node1&#45;&gt;Node6</title>
<path fill="none" stroke="#63b8ff" d="M617.38,-135.88C517.33,-129.46 360.42,-116.28 342.5,-96 324.89,-76.06 336.9,-41.34 344.13,-25"/>
<polygon fill="#63b8ff" stroke="#63b8ff" points="616.97,-139.37 627.17,-136.5 617.41,-132.38 616.97,-139.37"/>
</g>
<!-- Node7 -->
<g id="node7" class="node">
<title>Node7</title>
<g id="a_node7"><a xlink:href="smap_8c_source.html" target="_top" xlink:title=" ">
<polygon fill="white" stroke="#666666" points="547.5,-30 437.5,-30 437.5,0 547.5,0 547.5,-30"/>
<text text-anchor="start" x="445.5" y="-18" font-family="Helvetica,sans-Serif" font-size="10.00">iop/network/smap/src</text>
<text text-anchor="middle" x="492.5" y="-7" font-family="Helvetica,sans-Serif" font-size="10.00">/smap.c</text>
</a>
</g>
</g>
<!-- Node1&#45;&gt;Node7 -->
<g id="edge18" class="edge">
<title>Node1&#45;&gt;Node7</title>
<path fill="none" stroke="#63b8ff" d="M647.05,-128.57C622.22,-121.52 593.06,-110.97 569.5,-96 541.51,-78.22 516.38,-48.22 502.89,-30.44"/>
<polygon fill="#63b8ff" stroke="#63b8ff" points="646.08,-131.94 656.65,-131.18 647.92,-125.18 646.08,-131.94"/>
</g>
<!-- Node8 -->
<g id="node8" class="node">
<title>Node8</title>
<g id="a_node8"><a xlink:href="xfer_8c_source.html" target="_top" xlink:title=" ">
<polygon fill="white" stroke="#666666" points="675.5,-30 565.5,-30 565.5,0 675.5,0 675.5,-30"/>
<text text-anchor="start" x="573.5" y="-18" font-family="Helvetica,sans-Serif" font-size="10.00">iop/network/smap/src</text>
<text text-anchor="middle" x="620.5" y="-7" font-family="Helvetica,sans-Serif" font-size="10.00">/xfer.c</text>
</a>
</g>
</g>
<!-- Node1&#45;&gt;Node8 -->
<g id="edge19" class="edge">
<title>Node1&#45;&gt;Node8</title>
<path fill="none" stroke="#63b8ff" d="M623.47,-128.05C605.89,-121.44 589.25,-111.36 578.5,-96 563.39,-74.41 586.2,-46.7 603.67,-30.21"/>
<polygon fill="#63b8ff" stroke="#63b8ff" points="621.85,-131.2 632.45,-131.07 624.08,-124.56 621.85,-131.2"/>
</g>
<!-- Node9 -->
<g id="node9" class="node">
<title>Node9</title>
<g id="a_node9"><a xlink:href="extflash_8c_source.html" target="_top" xlink:title=" ">
<polygon fill="white" stroke="#666666" points="693.5,-96 587.5,-96 587.5,-66 693.5,-66 693.5,-96"/>
<text text-anchor="start" x="595.5" y="-84" font-family="Helvetica,sans-Serif" font-size="10.00">iop/dev9/extflash/src</text>
<text text-anchor="middle" x="640.5" y="-73" font-family="Helvetica,sans-Serif" font-size="10.00">/extflash.c</text>
</a>
</g>
</g>
<!-- Node1&#45;&gt;Node9 -->
<g id="edge10" class="edge">
<title>Node1&#45;&gt;Node9</title>
<path fill="none" stroke="#63b8ff" d="M683.3,-123.73C674.46,-115.11 663.78,-104.7 655.31,-96.44"/>
<polygon fill="#63b8ff" stroke="#63b8ff" points="680.7,-126.08 690.3,-130.56 685.59,-121.07 680.7,-126.08"/>
</g>
<!-- Node10 -->
<g id="node10" class="node">
<title>Node10</title>
<g id="a_node10"><a xlink:href="dvrdrv_8c_source.html" target="_top" xlink:title=" ">
<polygon fill="white" stroke="#666666" points="811.5,-96 711.5,-96 711.5,-66 811.5,-66 811.5,-96"/>
<text text-anchor="start" x="719.5" y="-84" font-family="Helvetica,sans-Serif" font-size="10.00">iop/dev9/pvrdrv/src</text>
<text text-anchor="middle" x="761.5" y="-73" font-family="Helvetica,sans-Serif" font-size="10.00">/dvrdrv.c</text>
</a>
</g>
</g>
<!-- Node1&#45;&gt;Node10 -->
<g id="edge11" class="edge">
<title>Node1&#45;&gt;Node10</title>
<path fill="none" stroke="#63b8ff" d="M717.99,-123.73C726.98,-115.11 737.83,-104.7 746.44,-96.44"/>
<polygon fill="#63b8ff" stroke="#63b8ff" points="715.65,-121.12 710.86,-130.57 720.5,-126.17 715.65,-121.12"/>
</g>
<!-- Node11 -->
<g id="node11" class="node">
<title>Node11</title>
<g id="a_node11"><a xlink:href="dvr_8c_source.html" target="_top" xlink:title=" ">
<polygon fill="white" stroke="#666666" points="937.5,-90.5 829.5,-90.5 829.5,-71.5 937.5,-71.5 937.5,-90.5"/>
<text text-anchor="middle" x="883.5" y="-78.5" font-family="Helvetica,sans-Serif" font-size="10.00">iop/dvrp/dvr/src/dvr.c</text>
</a>
</g>
</g>
<!-- Node1&#45;&gt;Node11 -->
<g id="edge12" class="edge">
<title>Node1&#45;&gt;Node11</title>
<path fill="none" stroke="#63b8ff" d="M739.01,-128.19C773.84,-117.06 824.3,-100.92 855.44,-90.97"/>
<polygon fill="#63b8ff" stroke="#63b8ff" points="738.19,-124.78 729.74,-131.15 740.33,-131.44 738.19,-124.78"/>
</g>
<!-- Node12 -->
<g id="node12" class="node">
<title>Node12</title>
<g id="a_node12"><a xlink:href="dvrav_8c_source.html" target="_top" xlink:title=" ">
<polygon fill="white" stroke="#666666" points="1051,-96 956,-96 956,-66 1051,-66 1051,-96"/>
<text text-anchor="start" x="964" y="-84" font-family="Helvetica,sans-Serif" font-size="10.00">iop/dvrp/dvrav/src</text>
<text text-anchor="middle" x="1003.5" y="-73" font-family="Helvetica,sans-Serif" font-size="10.00">/dvrav.c</text>
</a>
</g>
</g>
<!-- Node1&#45;&gt;Node12 -->
<g id="edge13" class="edge">
<title>Node1&#45;&gt;Node12</title>
<path fill="none" stroke="#63b8ff" d="M766.63,-129.68C816.28,-121.28 885.85,-108.92 946.5,-96 949.49,-95.36 952.56,-94.68 955.66,-93.98"/>
<polygon fill="#63b8ff" stroke="#63b8ff" points="766.18,-126.21 756.9,-131.32 767.34,-133.11 766.18,-126.21"/>
</g>
<!-- Node13 -->
<g id="node13" class="node">
<title>Node13</title>
<g id="a_node13"><a xlink:href="dvrdv_8c_source.html" target="_top" xlink:title=" ">
<polygon fill="white" stroke="#666666" points="1164,-96 1069,-96 1069,-66 1164,-66 1164,-96"/>
<text text-anchor="start" x="1077" y="-84" font-family="Helvetica,sans-Serif" font-size="10.00">iop/dvrp/dvrdv/src</text>
<text text-anchor="middle" x="1116.5" y="-73" font-family="Helvetica,sans-Serif" font-size="10.00">/dvrdv.c</text>
</a>
</g>
</g>
<!-- Node1&#45;&gt;Node13 -->
<g id="edge14" class="edge">
<title>Node1&#45;&gt;Node13</title>
<path fill="none" stroke="#63b8ff" d="M783.71,-133.12C856.96,-125.93 966.32,-113.53 1060.5,-96 1063.16,-95.5 1065.88,-94.96 1068.62,-94.38"/>
<polygon fill="#63b8ff" stroke="#63b8ff" points="783.4,-129.64 773.78,-134.08 784.07,-136.6 783.4,-129.64"/>
</g>
<!-- Node14 -->
<g id="node14" class="node">
<title>Node14</title>
<g id="a_node14"><a xlink:href="dvrfile_8c_source.html" target="_top" xlink:title=" ">
<polygon fill="white" stroke="#666666" points="1278.5,-96 1182.5,-96 1182.5,-66 1278.5,-66 1278.5,-96"/>
<text text-anchor="start" x="1190.5" y="-84" font-family="Helvetica,sans-Serif" font-size="10.00">iop/dvrp/dvrfile/src</text>
<text text-anchor="middle" x="1230.5" y="-73" font-family="Helvetica,sans-Serif" font-size="10.00">/dvrfile.c</text>
</a>
</g>
</g>
<!-- Node1&#45;&gt;Node14 -->
<g id="edge15" class="edge">
<title>Node1&#45;&gt;Node14</title>
<path fill="none" stroke="#63b8ff" d="M783.48,-136.39C878.31,-130.85 1037.91,-118.9 1173.5,-96 1176.31,-95.52 1179.19,-94.99 1182.09,-94.4"/>
<polygon fill="#63b8ff" stroke="#63b8ff" points="783.54,-132.89 773.76,-136.95 783.94,-139.87 783.54,-132.89"/>
</g>
<!-- Node15 -->
<g id="node15" class="node">
<title>Node15</title>
<g id="a_node15"><a xlink:href="dvripl_8c_source.html" target="_top" xlink:title=" ">
<polygon fill="white" stroke="#666666" points="1390.5,-96 1296.5,-96 1296.5,-66 1390.5,-66 1390.5,-96"/>
<text text-anchor="start" x="1304.5" y="-84" font-family="Helvetica,sans-Serif" font-size="10.00">iop/dvrp/dvripl/src</text>
<text text-anchor="middle" x="1343.5" y="-73" font-family="Helvetica,sans-Serif" font-size="10.00">/dvripl.c</text>
</a>
</g>
</g>
<!-- Node1&#45;&gt;Node15 -->
<g id="edge16" class="edge">
<title>Node1&#45;&gt;Node15</title>
<path fill="none" stroke="#63b8ff" d="M783.77,-138.62C898.01,-135.03 1109.49,-124.79 1287.5,-96 1290.37,-95.54 1293.31,-95 1296.26,-94.41"/>
<polygon fill="#63b8ff" stroke="#63b8ff" points="783.75,-135.12 773.86,-138.92 783.96,-142.11 783.75,-135.12"/>
</g>
<!-- Node16 -->
<g id="node16" class="node">
<title>Node16</title>
<g id="a_node16"><a xlink:href="dvrmisc_8c_source.html" target="_top" xlink:title=" ">
<polygon fill="white" stroke="#666666" points="1514,-96 1409,-96 1409,-66 1514,-66 1514,-96"/>
<text text-anchor="start" x="1417" y="-84" font-family="Helvetica,sans-Serif" font-size="10.00">iop/dvrp/dvrmisc/src</text>
<text text-anchor="middle" x="1461.5" y="-73" font-family="Helvetica,sans-Serif" font-size="10.00">/dvrmisc.c</text>
</a>
</g>
</g>
<!-- Node1&#45;&gt;Node16 -->
<g id="edge17" class="edge">
<title>Node1&#45;&gt;Node16</title>
<path fill="none" stroke="#63b8ff" d="M783.47,-139.46C914.83,-136.87 1178.46,-127.79 1399.5,-96 1402.45,-95.58 1405.47,-95.09 1408.5,-94.55"/>
<polygon fill="#63b8ff" stroke="#63b8ff" points="783.78,-135.96 773.84,-139.64 783.91,-142.96 783.78,-135.96"/>
</g>
<!-- Node2&#45;&gt;Node3 -->
<g id="edge2" class="edge">
<title>Node2&#45;&gt;Node3</title>
<path fill="none" stroke="#63b8ff" d="M178.04,-66.44C150.78,-53.88 111.03,-35.58 87.66,-24.82"/>
<polygon fill="#63b8ff" stroke="#63b8ff" points="176.25,-69.46 186.8,-70.47 179.18,-63.11 176.25,-69.46"/>
</g>
<!-- Node4 -->
<g id="node4" class="node">
<title>Node4</title>
<g id="a_node4"><a xlink:href="hdproatad_8c_source.html" target="_top" xlink:title=" ">
<polygon fill="white" stroke="#666666" points="259.5,-30 155.5,-30 155.5,0 259.5,0 259.5,-30"/>
<text text-anchor="start" x="163.5" y="-18" font-family="Helvetica,sans-Serif" font-size="10.00">iop/dev9/hdpro_atad</text>
<text text-anchor="middle" x="207.5" y="-7" font-family="Helvetica,sans-Serif" font-size="10.00">/src/hdproatad.c</text>
</a>
</g>
</g>
<!-- Node2&#45;&gt;Node4 -->
<g id="edge3" class="edge">
<title>Node2&#45;&gt;Node4</title>
<path fill="none" stroke="#63b8ff" d="M207.5,-59.78C207.5,-50.17 207.5,-38.92 207.5,-30.23"/>
<polygon fill="#63b8ff" stroke="#63b8ff" points="204,-59.59 207.5,-69.59 211,-59.59 204,-59.59"/>
</g>
<!-- Node5&#45;&gt;Node6 -->
<g id="edge5" class="edge">
<title>Node5&#45;&gt;Node6</title>
<path fill="none" stroke="#63b8ff" d="M403.64,-63.69C389.35,-51.33 370.26,-34.82 358.7,-24.82"/>
<polygon fill="#63b8ff" stroke="#63b8ff" points="401.21,-66.22 411.07,-70.11 405.79,-60.92 401.21,-66.22"/>
</g>
<!-- Node5&#45;&gt;Node7 -->
<g id="edge6" class="edge">
<title>Node5&#45;&gt;Node7</title>
<path fill="none" stroke="#63b8ff" d="M440.42,-63.62C451.61,-53.38 465.89,-40.33 476.67,-30.48"/>
<polygon fill="#63b8ff" stroke="#63b8ff" points="438.37,-60.75 433.35,-70.08 443.09,-65.92 438.37,-60.75"/>
</g>
<!-- Node5&#45;&gt;Node8 -->
<g id="edge7" class="edge">
<title>Node5&#45;&gt;Node8</title>
<path fill="none" stroke="#63b8ff" d="M460.58,-67.69C493.46,-57.06 541.01,-41.69 575.71,-30.48"/>
<polygon fill="#63b8ff" stroke="#63b8ff" points="459.91,-64.23 451.47,-70.64 462.06,-70.89 459.91,-64.23"/>
</g>
</g>
</svg>
