<?xml version="1.0" encoding="UTF-8" standalone="no"?>
<!DOCTYPE svg PUBLIC "-//W3C//DTD SVG 1.1//EN"
 "http://www.w3.org/Graphics/SVG/1.1/DTD/svg11.dtd">
<!-- Generated by graphviz version 7.0.5 (20221223.1930)
 -->
<!-- Title: iop/sound/libsd/include/spu2regs.h Pages: 1 -->
<svg width="714pt" height="104pt"
 viewBox="0.00 0.00 713.50 104.00" xmlns="http://www.w3.org/2000/svg" xmlns:xlink="http://www.w3.org/1999/xlink">
<g id="graph0" class="graph" transform="scale(1 1) rotate(0) translate(4 100)">
<title>iop/sound/libsd/include/spu2regs.h</title>
<!-- Node1 -->
<g id="node1" class="node">
<title>Node1</title>
<g id="a_node1"><a xlink:title=" ">
<polygon fill="#999999" stroke="#666666" points="424.5,-96 308.5,-96 308.5,-66 424.5,-66 424.5,-96"/>
<text text-anchor="start" x="316.5" y="-84" font-family="Helvetica,sans-Serif" font-size="10.00">iop/sound/libsd/include</text>
<text text-anchor="middle" x="366.5" y="-73" font-family="Helvetica,sans-Serif" font-size="10.00">/spu2regs.h</text>
</a>
</g>
</g>
<!-- Node2 -->
<g id="node2" class="node">
<title>Node2</title>
<g id="a_node2"><a xlink:href="spu2_8c_source.html" target="_top" xlink:title=" ">
<polygon fill="white" stroke="#666666" points="125,-24.5 0,-24.5 0,-5.5 125,-5.5 125,-24.5"/>
<text text-anchor="middle" x="62.5" y="-12.5" font-family="Helvetica,sans-Serif" font-size="10.00">iop/sound/ahx/src/spu2.c</text>
</a>
</g>
</g>
<!-- Node1&#45;&gt;Node2 -->
<g id="edge1" class="edge">
<title>Node1&#45;&gt;Node2</title>
<path fill="none" stroke="#63b8ff" d="M297.11,-65.39C237.9,-52.93 154.66,-35.4 104.89,-24.93"/>
<polygon fill="#63b8ff" stroke="#63b8ff" points="296.26,-68.79 306.76,-67.42 297.7,-61.94 296.26,-68.79"/>
</g>
<!-- Node3 -->
<g id="node3" class="node">
<title>Node3</title>
<g id="a_node3"><a xlink:href="batch_8c.html" target="_top" xlink:title=" ">
<polygon fill="white" stroke="#666666" points="241.5,-30 143.5,-30 143.5,0 241.5,0 241.5,-30"/>
<text text-anchor="start" x="151.5" y="-18" font-family="Helvetica,sans-Serif" font-size="10.00">iop/sound/libsd/src</text>
<text text-anchor="middle" x="192.5" y="-7" font-family="Helvetica,sans-Serif" font-size="10.00">/batch.c</text>
</a>
</g>
</g>
<!-- Node1&#45;&gt;Node3 -->
<g id="edge2" class="edge">
<title>Node1&#45;&gt;Node3</title>
<path fill="none" stroke="#63b8ff" d="M316.67,-61.67C289.7,-51.75 256.85,-39.67 231.72,-30.43"/>
<polygon fill="#63b8ff" stroke="#63b8ff" points="315.44,-64.95 326.03,-65.11 317.85,-58.38 315.44,-64.95"/>
</g>
<!-- Node4 -->
<g id="node4" class="node">
<title>Node4</title>
<g id="a_node4"><a xlink:href="sound_2libsd_2src_2block_8c.html" target="_top" xlink:title=" ">
<polygon fill="white" stroke="#666666" points="357.5,-30 259.5,-30 259.5,0 357.5,0 357.5,-30"/>
<text text-anchor="start" x="267.5" y="-18" font-family="Helvetica,sans-Serif" font-size="10.00">iop/sound/libsd/src</text>
<text text-anchor="middle" x="308.5" y="-7" font-family="Helvetica,sans-Serif" font-size="10.00">/block.c</text>
</a>
</g>
</g>
<!-- Node1&#45;&gt;Node4 -->
<g id="edge3" class="edge">
<title>Node1&#45;&gt;Node4</title>
<path fill="none" stroke="#63b8ff" d="M346.13,-57.53C337.89,-48.43 328.61,-38.19 321.34,-30.16"/>
<polygon fill="#63b8ff" stroke="#63b8ff" points="343.3,-59.62 352.61,-64.67 348.49,-54.91 343.3,-59.62"/>
</g>
<!-- Node5 -->
<g id="node5" class="node">
<title>Node5</title>
<g id="a_node5"><a xlink:href="effect_8c.html" target="_top" xlink:title=" ">
<polygon fill="white" stroke="#666666" points="473.5,-30 375.5,-30 375.5,0 473.5,0 473.5,-30"/>
<text text-anchor="start" x="383.5" y="-18" font-family="Helvetica,sans-Serif" font-size="10.00">iop/sound/libsd/src</text>
<text text-anchor="middle" x="424.5" y="-7" font-family="Helvetica,sans-Serif" font-size="10.00">/effect.c</text>
</a>
</g>
</g>
<!-- Node1&#45;&gt;Node5 -->
<g id="edge4" class="edge">
<title>Node1&#45;&gt;Node5</title>
<path fill="none" stroke="#63b8ff" d="M386.87,-57.53C395.11,-48.43 404.39,-38.19 411.66,-30.16"/>
<polygon fill="#63b8ff" stroke="#63b8ff" points="384.51,-54.91 380.39,-64.67 389.7,-59.62 384.51,-54.91"/>
</g>
<!-- Node6 -->
<g id="node6" class="node">
<title>Node6</title>
<g id="a_node6"><a xlink:href="freesd_8c.html" target="_top" xlink:title=" ">
<polygon fill="white" stroke="#666666" points="589.5,-30 491.5,-30 491.5,0 589.5,0 589.5,-30"/>
<text text-anchor="start" x="499.5" y="-18" font-family="Helvetica,sans-Serif" font-size="10.00">iop/sound/libsd/src</text>
<text text-anchor="middle" x="540.5" y="-7" font-family="Helvetica,sans-Serif" font-size="10.00">/freesd.c</text>
</a>
</g>
</g>
<!-- Node1&#45;&gt;Node6 -->
<g id="edge5" class="edge">
<title>Node1&#45;&gt;Node6</title>
<path fill="none" stroke="#63b8ff" d="M416.33,-61.67C443.3,-51.75 476.15,-39.67 501.28,-30.43"/>
<polygon fill="#63b8ff" stroke="#63b8ff" points="415.15,-58.38 406.97,-65.11 417.56,-64.95 415.15,-58.38"/>
</g>
<!-- Node7 -->
<g id="node7" class="node">
<title>Node7</title>
<g id="a_node7"><a xlink:href="voice_8c.html" target="_top" xlink:title=" ">
<polygon fill="white" stroke="#666666" points="705.5,-30 607.5,-30 607.5,0 705.5,0 705.5,-30"/>
<text text-anchor="start" x="615.5" y="-18" font-family="Helvetica,sans-Serif" font-size="10.00">iop/sound/libsd/src</text>
<text text-anchor="middle" x="656.5" y="-7" font-family="Helvetica,sans-Serif" font-size="10.00">/voice.c</text>
</a>
</g>
</g>
<!-- Node1&#45;&gt;Node7 -->
<g id="edge6" class="edge">
<title>Node1&#45;&gt;Node7</title>
<path fill="none" stroke="#63b8ff" d="M435.83,-65.52C481.99,-55.77 543.95,-42.46 598.5,-30 601.33,-29.35 604.23,-28.68 607.16,-28"/>
<polygon fill="#63b8ff" stroke="#63b8ff" points="435.29,-62.06 426.23,-67.55 436.74,-68.91 435.29,-62.06"/>
</g>
</g>
</svg>
