<?xml version="1.0" encoding="UTF-8" standalone="no"?>
<!DOCTYPE svg PUBLIC "-//W3C//DTD SVG 1.1//EN"
 "http://www.w3.org/Graphics/SVG/1.1/DTD/svg11.dtd">
<!-- Generated by graphviz version 7.0.5 (20221223.1930)
 -->
<!-- Title: pfs_inode_t Pages: 1 -->
<svg width="190pt" height="137pt"
 viewBox="0.00 0.00 190.00 137.00" xmlns="http://www.w3.org/2000/svg" xmlns:xlink="http://www.w3.org/1999/xlink">
<g id="graph0" class="graph" transform="scale(1 1) rotate(0) translate(4 133)">
<title>pfs_inode_t</title>
<!-- Node1 -->
<g id="node1" class="node">
<title>Node1</title>
<g id="a_node1"><a xlink:title=" ">
<polygon fill="#999999" stroke="#666666" points="125,-19 58,-19 58,0 125,0 125,-19"/>
<text text-anchor="middle" x="91.5" y="-7" font-family="Helvetica,sans-Serif" font-size="10.00">pfs_inode_t</text>
</a>
</g>
</g>
<!-- Node2 -->
<g id="node2" class="node">
<title>Node2</title>
<g id="a_node2"><a xlink:href="structpfs__blockinfo__t.html" target="_top" xlink:title=" ">
<polygon fill="white" stroke="#bfbfbf" points="83,-129 0,-129 0,-110 83,-110 83,-129"/>
<text text-anchor="middle" x="41.5" y="-117" font-family="Helvetica,sans-Serif" font-size="10.00">pfs_blockinfo_t</text>
</a>
</g>
</g>
<!-- Node2&#45;&gt;Node1 -->
<g id="edge1" class="edge">
<title>Node2&#45;&gt;Node1</title>
<path fill="none" stroke="#9a32cd" stroke-dasharray="5,2" d="M41.95,-98.4C43.17,-81 47.01,-55.75 58.5,-37 62.88,-29.86 69.9,-23.82 76.34,-19.32"/>
<polygon fill="#9a32cd" stroke="#9a32cd" points="38.46,-98.05 41.51,-108.2 45.45,-98.36 38.46,-98.05"/>
<text text-anchor="middle" x="89" y="-84" font-family="Helvetica,sans-Serif" font-size="10.00"> data</text>
<text text-anchor="middle" x="89" y="-73" font-family="Helvetica,sans-Serif" font-size="10.00">inode_block</text>
<text text-anchor="middle" x="89" y="-62" font-family="Helvetica,sans-Serif" font-size="10.00">last_segment</text>
<text text-anchor="middle" x="89" y="-51" font-family="Helvetica,sans-Serif" font-size="10.00">next_segment</text>
<text text-anchor="middle" x="89" y="-40" font-family="Helvetica,sans-Serif" font-size="10.00">unused</text>
</g>
<!-- Node3 -->
<g id="node3" class="node">
<title>Node3</title>
<g id="a_node3"><a xlink:href="structpfs__datetime__t.html" target="_top" xlink:title=" ">
<polygon fill="white" stroke="#bfbfbf" points="182,-129 101,-129 101,-110 182,-110 182,-129"/>
<text text-anchor="middle" x="141.5" y="-117" font-family="Helvetica,sans-Serif" font-size="10.00">pfs_datetime_t</text>
</a>
</g>
</g>
<!-- Node3&#45;&gt;Node1 -->
<g id="edge2" class="edge">
<title>Node3&#45;&gt;Node1</title>
<path fill="none" stroke="#9a32cd" stroke-dasharray="5,2" d="M139.22,-98.6C136.55,-81.32 130.93,-56.15 119.5,-37 115.45,-30.22 109.19,-24.06 103.61,-19.39"/>
<polygon fill="#9a32cd" stroke="#9a32cd" points="135.72,-98.86 140.51,-108.31 142.66,-97.93 135.72,-98.86"/>
<text text-anchor="middle" x="151.5" y="-73" font-family="Helvetica,sans-Serif" font-size="10.00"> atime</text>
<text text-anchor="middle" x="151.5" y="-62" font-family="Helvetica,sans-Serif" font-size="10.00">ctime</text>
<text text-anchor="middle" x="151.5" y="-51" font-family="Helvetica,sans-Serif" font-size="10.00">mtime</text>
</g>
</g>
</svg>
