<?xml version="1.0" encoding="UTF-8" standalone="no"?>
<!DOCTYPE svg PUBLIC "-//W3C//DTD SVG 1.1//EN"
 "http://www.w3.org/Graphics/SVG/1.1/DTD/svg11.dtd">
<!-- Generated by graphviz version 7.0.5 (20221223.1930)
 -->
<!-- Title: apa_header_t Pages: 1 -->
<svg width="168pt" height="93pt"
 viewBox="0.00 0.00 168.00 93.00" xmlns="http://www.w3.org/2000/svg" xmlns:xlink="http://www.w3.org/1999/xlink">
<g id="graph0" class="graph" transform="scale(1 1) rotate(0) translate(4 89)">
<title>apa_header_t</title>
<!-- Node1 -->
<g id="node1" class="node">
<title>Node1</title>
<g id="a_node1"><a xlink:title=" ">
<polygon fill="#999999" stroke="#666666" points="121.5,-19 46.5,-19 46.5,0 121.5,0 121.5,-19"/>
<text text-anchor="middle" x="84" y="-7" font-family="Helvetica,sans-Serif" font-size="10.00">apa_header_t</text>
</a>
</g>
</g>
<!-- Node2 -->
<g id="node2" class="node">
<title>Node2</title>
<g id="a_node2"><a xlink:href="structapa__ps2time__t.html" target="_top" xlink:title=" ">
<polygon fill="white" stroke="#bfbfbf" points="80,-85 0,-85 0,-66 80,-66 80,-85"/>
<text text-anchor="middle" x="40" y="-73" font-family="Helvetica,sans-Serif" font-size="10.00">apa_ps2time_t</text>
</a>
</g>
</g>
<!-- Node2&#45;&gt;Node1 -->
<g id="edge1" class="edge">
<title>Node2&#45;&gt;Node1</title>
<path fill="none" stroke="#9a32cd" stroke-dasharray="5,2" d="M52.45,-56.4C60.78,-44.27 71.39,-28.84 77.93,-19.32"/>
<polygon fill="#9a32cd" stroke="#9a32cd" points="49.76,-54.13 46.98,-64.35 55.52,-58.1 49.76,-54.13"/>
<text text-anchor="middle" x="82.5" y="-40" font-family="Helvetica,sans-Serif" font-size="10.00"> created</text>
</g>
<!-- Node3 -->
<g id="node3" class="node">
<title>Node3</title>
<g id="a_node3"><a xlink:href="structapa__sub__t.html" target="_top" xlink:title=" ">
<polygon fill="white" stroke="#bfbfbf" points="160,-85 98,-85 98,-66 160,-66 160,-85"/>
<text text-anchor="middle" x="129" y="-73" font-family="Helvetica,sans-Serif" font-size="10.00">apa_sub_t</text>
</a>
</g>
</g>
<!-- Node3&#45;&gt;Node1 -->
<g id="edge2" class="edge">
<title>Node3&#45;&gt;Node1</title>
<path fill="none" stroke="#9a32cd" stroke-dasharray="5,2" d="M117.18,-56.31C113.08,-50.13 108.41,-43.21 104,-37 99.73,-30.98 94.73,-24.36 90.8,-19.24"/>
<polygon fill="#9a32cd" stroke="#9a32cd" points="114.14,-58.06 122.55,-64.5 119.99,-54.22 114.14,-58.06"/>
<text text-anchor="middle" x="123" y="-40" font-family="Helvetica,sans-Serif" font-size="10.00"> subs</text>
</g>
</g>
</svg>
