<?xml version="1.0" encoding="UTF-8" standalone="no"?>
<!DOCTYPE svg PUBLIC "-//W3C//DTD SVG 1.1//EN"
 "http://www.w3.org/Graphics/SVG/1.1/DTD/svg11.dtd">
<!-- Generated by graphviz version 7.0.5 (20221223.1930)
 -->
<!-- Title: _fio_dread_arg Pages: 1 -->
<svg width="88pt" height="159pt"
 viewBox="0.00 0.00 88.00 159.00" xmlns="http://www.w3.org/2000/svg" xmlns:xlink="http://www.w3.org/1999/xlink">
<g id="graph0" class="graph" transform="scale(1 1) rotate(0) translate(4 155)">
<title>_fio_dread_arg</title>
<!-- Node1 -->
<g id="node1" class="node">
<title>Node1</title>
<g id="a_node1"><a xlink:title=" ">
<polygon fill="#999999" stroke="#666666" points="80,-19 0,-19 0,0 80,0 80,-19"/>
<text text-anchor="middle" x="40" y="-7" font-family="Helvetica,sans-Serif" font-size="10.00">_fio_dread_arg</text>
</a>
</g>
</g>
<!-- Node2 -->
<g id="node2" class="node">
<title>Node2</title>
<g id="a_node2"><a xlink:href="io__common_8h.html#structio__dirent__t" target="_top" xlink:title=" ">
<polygon fill="white" stroke="#bfbfbf" points="71,-85 9,-85 9,-66 71,-66 71,-85"/>
<text text-anchor="middle" x="40" y="-73" font-family="Helvetica,sans-Serif" font-size="10.00">io_dirent_t</text>
</a>
</g>
</g>
<!-- Node2&#45;&gt;Node1 -->
<g id="edge1" class="edge">
<title>Node2&#45;&gt;Node1</title>
<path fill="none" stroke="#9a32cd" stroke-dasharray="5,2" d="M40,-54.18C40,-42.44 40,-28.27 40,-19.32"/>
<polygon fill="#9a32cd" stroke="#9a32cd" points="36.5,-54.09 40,-64.09 43.5,-54.09 36.5,-54.09"/>
<text text-anchor="middle" x="48" y="-40" font-family="Helvetica,sans-Serif" font-size="10.00"> buf</text>
</g>
<!-- Node3 -->
<g id="node3" class="node">
<title>Node3</title>
<g id="a_node3"><a xlink:href="io__common_8h.html#structio__stat__t" target="_top" xlink:title=" ">
<polygon fill="white" stroke="#bfbfbf" points="67,-151 13,-151 13,-132 67,-132 67,-151"/>
<text text-anchor="middle" x="40" y="-139" font-family="Helvetica,sans-Serif" font-size="10.00">io_stat_t</text>
</a>
</g>
</g>
<!-- Node3&#45;&gt;Node2 -->
<g id="edge2" class="edge">
<title>Node3&#45;&gt;Node2</title>
<path fill="none" stroke="#9a32cd" stroke-dasharray="5,2" d="M40,-120.18C40,-108.44 40,-94.27 40,-85.32"/>
<polygon fill="#9a32cd" stroke="#9a32cd" points="36.5,-120.09 40,-130.09 43.5,-120.09 36.5,-120.09"/>
<text text-anchor="middle" x="49.5" y="-106" font-family="Helvetica,sans-Serif" font-size="10.00"> stat</text>
</g>
</g>
</svg>
