<?xml version="1.0" encoding="UTF-8" standalone="no"?>
<!DOCTYPE svg PUBLIC "-//W3C//DTD SVG 1.1//EN"
 "http://www.w3.org/Graphics/SVG/1.1/DTD/svg11.dtd">
<!-- Generated by graphviz version 7.0.5 (20221223.1930)
 -->
<!-- Title: AHXVoice Pages: 1 -->
<svg width="195pt" height="225pt"
 viewBox="0.00 0.00 194.50 225.00" xmlns="http://www.w3.org/2000/svg" xmlns:xlink="http://www.w3.org/1999/xlink">
<g id="graph0" class="graph" transform="scale(1 1) rotate(0) translate(4 221)">
<title>AHXVoice</title>
<!-- Node1 -->
<g id="node1" class="node">
<title>Node1</title>
<g id="a_node1"><a xlink:title=" ">
<polygon fill="#999999" stroke="#666666" points="119.5,-19 57.5,-19 57.5,0 119.5,0 119.5,-19"/>
<text text-anchor="middle" x="88.5" y="-7" font-family="Helvetica,sans-Serif" font-size="10.00">AHXVoice</text>
</a>
</g>
</g>
<!-- Node2 -->
<g id="node2" class="node">
<title>Node2</title>
<g id="a_node2"><a xlink:href="ahx_8h.html#struct_a_h_x_envelope" target="_top" xlink:title=" ">
<polygon fill="white" stroke="#bfbfbf" points="77,-151 0,-151 0,-132 77,-132 77,-151"/>
<text text-anchor="middle" x="38.5" y="-139" font-family="Helvetica,sans-Serif" font-size="10.00">AHXEnvelope</text>
</a>
</g>
</g>
<!-- Node2&#45;&gt;Node1 -->
<g id="edge1" class="edge">
<title>Node2&#45;&gt;Node1</title>
<path fill="none" stroke="#9a32cd" stroke-dasharray="5,2" d="M22.48,-123.04C10.43,-107.68 -2.45,-84.88 7.5,-66 19.5,-43.23 45.53,-28.01 64.86,-19.36"/>
<polygon fill="#9a32cd" stroke="#9a32cd" points="19.56,-125.01 28.69,-130.39 24.91,-120.5 19.56,-125.01"/>
<text text-anchor="middle" x="22.5" y="-73" font-family="Helvetica,sans-Serif" font-size="10.00"> ADSR</text>
</g>
<!-- Node3 -->
<g id="node3" class="node">
<title>Node3</title>
<g id="a_node3"><a xlink:href="ahx_8h.html#struct_a_h_x_instrument" target="_top" xlink:title=" ">
<polygon fill="white" stroke="#bfbfbf" points="130.5,-85 46.5,-85 46.5,-66 130.5,-66 130.5,-85"/>
<text text-anchor="middle" x="88.5" y="-73" font-family="Helvetica,sans-Serif" font-size="10.00">AHXInstrument</text>
</a>
</g>
</g>
<!-- Node2&#45;&gt;Node3 -->
<g id="edge3" class="edge">
<title>Node2&#45;&gt;Node3</title>
<path fill="none" stroke="#9a32cd" stroke-dasharray="5,2" d="M47.61,-121.49C50.96,-115.32 55.04,-108.63 59.5,-103 64.67,-96.48 71.5,-90.16 77.23,-85.32"/>
<polygon fill="#9a32cd" stroke="#9a32cd" points="44.54,-119.82 43.13,-130.32 50.78,-122.99 44.54,-119.82"/>
<text text-anchor="middle" x="81" y="-106" font-family="Helvetica,sans-Serif" font-size="10.00"> Envelope</text>
</g>
<!-- Node3&#45;&gt;Node1 -->
<g id="edge2" class="edge">
<title>Node3&#45;&gt;Node1</title>
<path fill="none" stroke="#9a32cd" stroke-dasharray="5,2" d="M88.5,-54.18C88.5,-42.44 88.5,-28.27 88.5,-19.32"/>
<polygon fill="#9a32cd" stroke="#9a32cd" points="85,-54.09 88.5,-64.09 92,-54.09 85,-54.09"/>
<text text-anchor="middle" x="113" y="-40" font-family="Helvetica,sans-Serif" font-size="10.00"> Instrument</text>
</g>
<!-- Node4 -->
<g id="node4" class="node">
<title>Node4</title>
<g id="a_node4"><a xlink:href="ahx_8h.html#struct_a_h_x_p_list" target="_top" xlink:title=" ">
<polygon fill="white" stroke="#bfbfbf" points="162,-151 101,-151 101,-132 162,-132 162,-151"/>
<text text-anchor="middle" x="131.5" y="-139" font-family="Helvetica,sans-Serif" font-size="10.00">AHXPList</text>
</a>
</g>
</g>
<!-- Node4&#45;&gt;Node1 -->
<g id="edge6" class="edge">
<title>Node4&#45;&gt;Node1</title>
<path fill="none" stroke="#9a32cd" stroke-dasharray="5,2" d="M139.98,-121.26C148.31,-99.16 157.62,-62.65 141.5,-37 136.52,-29.07 128.38,-23.43 119.96,-19.46"/>
<polygon fill="#9a32cd" stroke="#9a32cd" points="136.85,-119.65 136.31,-130.23 143.33,-122.3 136.85,-119.65"/>
<text text-anchor="middle" x="168" y="-73" font-family="Helvetica,sans-Serif" font-size="10.00"> PerfList</text>
</g>
<!-- Node4&#45;&gt;Node3 -->
<g id="edge4" class="edge">
<title>Node4&#45;&gt;Node3</title>
<path fill="none" stroke="#9a32cd" stroke-dasharray="5,2" d="M119.34,-122.4C111.19,-110.27 100.83,-94.84 94.43,-85.32"/>
<polygon fill="#9a32cd" stroke="#9a32cd" points="116.19,-124 124.68,-130.34 122.01,-120.09 116.19,-124"/>
<text text-anchor="middle" x="125.5" y="-106" font-family="Helvetica,sans-Serif" font-size="10.00"> PList</text>
</g>
<!-- Node5 -->
<g id="node5" class="node">
<title>Node5</title>
<g id="a_node5"><a xlink:href="ahx_8h.html#struct_a_h_x_p_list_entry" target="_top" xlink:title=" ">
<polygon fill="white" stroke="#bfbfbf" points="173,-217 90,-217 90,-198 173,-198 173,-217"/>
<text text-anchor="middle" x="131.5" y="-205" font-family="Helvetica,sans-Serif" font-size="10.00">AHXPListEntry</text>
</a>
</g>
</g>
<!-- Node5&#45;&gt;Node4 -->
<g id="edge5" class="edge">
<title>Node5&#45;&gt;Node4</title>
<path fill="none" stroke="#9a32cd" stroke-dasharray="5,2" d="M131.5,-186.18C131.5,-174.44 131.5,-160.27 131.5,-151.32"/>
<polygon fill="#9a32cd" stroke="#9a32cd" points="128,-186.09 131.5,-196.09 135,-186.09 128,-186.09"/>
<text text-anchor="middle" x="148" y="-172" font-family="Helvetica,sans-Serif" font-size="10.00"> Entries</text>
</g>
</g>
</svg>
