<?xml version="1.0" encoding="UTF-8" standalone="no"?>
<!DOCTYPE svg PUBLIC "-//W3C//DTD SVG 1.1//EN"
 "http://www.w3.org/Graphics/SVG/1.1/DTD/svg11.dtd">
<!-- Generated by graphviz version 7.0.5 (20221223.1930)
 -->
<!-- Title: packet2_t Pages: 1 -->
<svg width="204pt" height="93pt"
 viewBox="0.00 0.00 204.00 93.00" xmlns="http://www.w3.org/2000/svg" xmlns:xlink="http://www.w3.org/1999/xlink">
<g id="graph0" class="graph" transform="scale(1 1) rotate(0) translate(4 89)">
<title>packet2_t</title>
<!-- Node1 -->
<g id="node1" class="node">
<title>Node1</title>
<g id="a_node1"><a xlink:title=" ">
<polygon fill="#999999" stroke="#666666" points="105.5,-19 46.5,-19 46.5,0 105.5,0 105.5,-19"/>
<text text-anchor="middle" x="76" y="-7" font-family="Helvetica,sans-Serif" font-size="10.00">packet2_t</text>
</a>
</g>
</g>
<!-- Node2 -->
<g id="node2" class="node">
<title>Node2</title>
<g id="a_node2"><a xlink:href="group__packet2__types.html#structdma__tag__t" target="_top" xlink:title=" ">
<polygon fill="white" stroke="#666666" points="62,-85 0,-85 0,-66 62,-66 62,-85"/>
<text text-anchor="middle" x="31" y="-73" font-family="Helvetica,sans-Serif" font-size="10.00">dma_tag_t</text>
</a>
</g>
</g>
<!-- Node2&#45;&gt;Node1 -->
<g id="edge1" class="edge">
<title>Node2&#45;&gt;Node1</title>
<path fill="none" stroke="#9a32cd" stroke-dasharray="5,2" d="M27.99,-54.31C28.02,-48.4 29,-42.15 32,-37 36.49,-29.3 44.19,-23.57 51.9,-19.45"/>
<polygon fill="#9a32cd" stroke="#9a32cd" points="24.48,-54.34 28.82,-64 31.46,-53.74 24.48,-54.34"/>
<text text-anchor="middle" x="65.5" y="-40" font-family="Helvetica,sans-Serif" font-size="10.00"> tag_opened_at</text>
</g>
<!-- Node3 -->
<g id="node3" class="node">
<title>Node3</title>
<g id="a_node3"><a xlink:href="group__packet2__types.html#structvif__code__t" target="_top" xlink:title=" ">
<polygon fill="white" stroke="#666666" points="152,-85 90,-85 90,-66 152,-66 152,-85"/>
<text text-anchor="middle" x="121" y="-73" font-family="Helvetica,sans-Serif" font-size="10.00">vif_code_t</text>
</a>
</g>
</g>
<!-- Node3&#45;&gt;Node1 -->
<g id="edge2" class="edge">
<title>Node3&#45;&gt;Node1</title>
<path fill="none" stroke="#9a32cd" stroke-dasharray="5,2" d="M110.8,-55.57C107.29,-49.49 103.18,-42.82 99,-37 94.59,-30.86 89.06,-24.45 84.52,-19.48"/>
<polygon fill="#9a32cd" stroke="#9a32cd" points="107.71,-57.22 115.63,-64.25 113.83,-53.81 107.71,-57.22"/>
<text text-anchor="middle" x="151" y="-40" font-family="Helvetica,sans-Serif" font-size="10.00"> vif_code_opened_at</text>
</g>
</g>
</svg>
