<?xml version="1.0" encoding="UTF-8" standalone="no"?>
<!DOCTYPE svg PUBLIC "-//W3C//DTD SVG 1.1//EN"
 "http://www.w3.org/Graphics/SVG/1.1/DTD/svg11.dtd">
<!-- Generated by graphviz version 7.0.5 (20221223.1930)
 -->
<!-- Title: FHANDLE Pages: 1 -->
<svg width="97pt" height="225pt"
 viewBox="0.00 0.00 97.00 225.00" xmlns="http://www.w3.org/2000/svg" xmlns:xlink="http://www.w3.org/1999/xlink">
<g id="graph0" class="graph" transform="scale(1 1) rotate(0) translate(4 221)">
<title>FHANDLE</title>
<!-- Node1 -->
<g id="node1" class="node">
<title>Node1</title>
<g id="a_node1"><a xlink:title=" ">
<polygon fill="#999999" stroke="#666666" points="76,-19 13,-19 13,0 76,0 76,-19"/>
<text text-anchor="middle" x="44.5" y="-7" font-family="Helvetica,sans-Serif" font-size="10.00">FHANDLE</text>
</a>
</g>
</g>
<!-- Node2 -->
<g id="node2" class="node">
<title>Node2</title>
<g id="a_node2"><a xlink:href="ioman_8h.html#struct__iop__file" target="_top" xlink:title=" ">
<polygon fill="white" stroke="#666666" points="70.5,-85 18.5,-85 18.5,-66 70.5,-66 70.5,-85"/>
<text text-anchor="middle" x="44.5" y="-73" font-family="Helvetica,sans-Serif" font-size="10.00">_iop_file</text>
</a>
</g>
</g>
<!-- Node2&#45;&gt;Node1 -->
<g id="edge1" class="edge">
<title>Node2&#45;&gt;Node1</title>
<path fill="none" stroke="#9a32cd" stroke-dasharray="5,2" d="M44.5,-54.18C44.5,-42.44 44.5,-28.27 44.5,-19.32"/>
<polygon fill="#9a32cd" stroke="#9a32cd" points="41,-54.09 44.5,-64.09 48,-54.09 41,-54.09"/>
<text text-anchor="middle" x="47.5" y="-40" font-family="Helvetica,sans-Serif" font-size="10.00"> f</text>
</g>
<!-- Node3 -->
<g id="node3" class="node">
<title>Node3</title>
<g id="a_node3"><a xlink:href="ioman_8h.html#struct__iop__device" target="_top" xlink:title=" ">
<polygon fill="white" stroke="#bfbfbf" points="78.5,-151 10.5,-151 10.5,-132 78.5,-132 78.5,-151"/>
<text text-anchor="middle" x="44.5" y="-139" font-family="Helvetica,sans-Serif" font-size="10.00">_iop_device</text>
</a>
</g>
</g>
<!-- Node3&#45;&gt;Node2 -->
<g id="edge2" class="edge">
<title>Node3&#45;&gt;Node2</title>
<path fill="none" stroke="#9a32cd" stroke-dasharray="5,2" d="M44.5,-120.18C44.5,-108.44 44.5,-94.27 44.5,-85.32"/>
<polygon fill="#9a32cd" stroke="#9a32cd" points="41,-120.09 44.5,-130.09 48,-120.09 41,-120.09"/>
<text text-anchor="middle" x="60" y="-106" font-family="Helvetica,sans-Serif" font-size="10.00"> device</text>
</g>
<!-- Node4 -->
<g id="node4" class="node">
<title>Node4</title>
<g id="a_node4"><a xlink:href="struct__iop__device__ops.html" target="_top" xlink:title=" ">
<polygon fill="white" stroke="#bfbfbf" points="89,-217 0,-217 0,-198 89,-198 89,-217"/>
<text text-anchor="middle" x="44.5" y="-205" font-family="Helvetica,sans-Serif" font-size="10.00">_iop_device_ops</text>
</a>
</g>
</g>
<!-- Node4&#45;&gt;Node3 -->
<g id="edge3" class="edge">
<title>Node4&#45;&gt;Node3</title>
<path fill="none" stroke="#9a32cd" stroke-dasharray="5,2" d="M44.5,-186.18C44.5,-174.44 44.5,-160.27 44.5,-151.32"/>
<polygon fill="#9a32cd" stroke="#9a32cd" points="41,-186.09 44.5,-196.09 48,-186.09 41,-186.09"/>
<text text-anchor="middle" x="54" y="-172" font-family="Helvetica,sans-Serif" font-size="10.00"> ops</text>
</g>
</g>
</svg>
