<?xml version="1.0" encoding="UTF-8" standalone="no"?>
<!DOCTYPE svg PUBLIC "-//W3C//DTD SVG 1.1//EN"
 "http://www.w3.org/Graphics/SVG/1.1/DTD/svg11.dtd">
<!-- Generated by graphviz version 7.0.5 (20221223.1930)
 -->
<!-- Title: GS_TRIANGLE_FT3 Pages: 1 -->
<svg width="258pt" height="181pt"
 viewBox="0.00 0.00 257.50 181.00" xmlns="http://www.w3.org/2000/svg" xmlns:xlink="http://www.w3.org/1999/xlink">
<g id="graph0" class="graph" transform="scale(1 1) rotate(0) translate(4 177)">
<title>GS_TRIANGLE_FT3</title>
<!-- Node1 -->
<g id="node1" class="node">
<title>Node1</title>
<g id="a_node1"><a xlink:title=" ">
<polygon fill="#999999" stroke="#666666" points="186.5,-19 78.5,-19 78.5,0 186.5,0 186.5,-19"/>
<text text-anchor="middle" x="132.5" y="-7" font-family="Helvetica,sans-Serif" font-size="10.00">GS_TRIANGLE_FT3</text>
</a>
</g>
</g>
<!-- Node2 -->
<g id="node2" class="node">
<title>Node2</title>
<g id="a_node2"><a xlink:href="libgs_8h.html#struct_g_s___r___r_g_b_a_q" target="_top" xlink:title=" ">
<polygon fill="white" stroke="#bfbfbf" points="83,-107 0,-107 0,-88 83,-88 83,-107"/>
<text text-anchor="middle" x="41.5" y="-95" font-family="Helvetica,sans-Serif" font-size="10.00">GS_R_RGBAQ</text>
</a>
</g>
</g>
<!-- Node2&#45;&gt;Node1 -->
<g id="edge1" class="edge">
<title>Node2&#45;&gt;Node1</title>
<path fill="none" stroke="#9a32cd" stroke-dasharray="5,2" d="M56.04,-79.07C66.69,-66.75 81.79,-50.15 96.5,-37 103.56,-30.69 112.06,-24.37 119.04,-19.49"/>
<polygon fill="#9a32cd" stroke="#9a32cd" points="53.64,-76.5 49.83,-86.38 58.97,-81.03 53.64,-76.5"/>
<text text-anchor="middle" x="112.5" y="-51" font-family="Helvetica,sans-Serif" font-size="10.00"> rgbaq0</text>
</g>
<!-- Node3 -->
<g id="node3" class="node">
<title>Node3</title>
<g id="a_node3"><a xlink:href="libgs_8h.html#struct_g_s___r_g_b_a_q" target="_top" xlink:title=" ">
<polygon fill="white" stroke="#bfbfbf" points="77,-173 6,-173 6,-154 77,-154 77,-173"/>
<text text-anchor="middle" x="41.5" y="-161" font-family="Helvetica,sans-Serif" font-size="10.00">GS_RGBAQ</text>
</a>
</g>
</g>
<!-- Node3&#45;&gt;Node2 -->
<g id="edge2" class="edge">
<title>Node3&#45;&gt;Node2</title>
<path fill="none" stroke="#9a32cd" stroke-dasharray="5,2" d="M41.5,-142.18C41.5,-130.44 41.5,-116.27 41.5,-107.32"/>
<polygon fill="#9a32cd" stroke="#9a32cd" points="38,-142.09 41.5,-152.09 45,-142.09 38,-142.09"/>
<text text-anchor="middle" x="52.5" y="-128" font-family="Helvetica,sans-Serif" font-size="10.00"> data</text>
</g>
<!-- Node4 -->
<g id="node4" class="node">
<title>Node4</title>
<g id="a_node4"><a xlink:href="libgs_8h.html#struct_g_s___r___u_v" target="_top" xlink:title=" ">
<polygon fill="white" stroke="#bfbfbf" points="163.5,-107 101.5,-107 101.5,-88 163.5,-88 163.5,-107"/>
<text text-anchor="middle" x="132.5" y="-95" font-family="Helvetica,sans-Serif" font-size="10.00">GS_R_UV</text>
</a>
</g>
</g>
<!-- Node4&#45;&gt;Node1 -->
<g id="edge3" class="edge">
<title>Node4&#45;&gt;Node1</title>
<path fill="none" stroke="#9a32cd" stroke-dasharray="5,2" d="M132.5,-76.37C132.5,-58.37 132.5,-32.83 132.5,-19.46"/>
<polygon fill="#9a32cd" stroke="#9a32cd" points="129,-76.11 132.5,-86.11 136,-76.11 129,-76.11"/>
<text text-anchor="middle" x="142" y="-62" font-family="Helvetica,sans-Serif" font-size="10.00"> uv0</text>
<text text-anchor="middle" x="142" y="-51" font-family="Helvetica,sans-Serif" font-size="10.00">uv1</text>
<text text-anchor="middle" x="142" y="-40" font-family="Helvetica,sans-Serif" font-size="10.00">uv2</text>
</g>
<!-- Node5 -->
<g id="node5" class="node">
<title>Node5</title>
<g id="a_node5"><a xlink:href="libgs_8h.html#struct_g_s___u_v" target="_top" xlink:title=" ">
<polygon fill="white" stroke="#bfbfbf" points="157.5,-173 107.5,-173 107.5,-154 157.5,-154 157.5,-173"/>
<text text-anchor="middle" x="132.5" y="-161" font-family="Helvetica,sans-Serif" font-size="10.00">GS_UV</text>
</a>
</g>
</g>
<!-- Node5&#45;&gt;Node4 -->
<g id="edge4" class="edge">
<title>Node5&#45;&gt;Node4</title>
<path fill="none" stroke="#9a32cd" stroke-dasharray="5,2" d="M132.5,-142.18C132.5,-130.44 132.5,-116.27 132.5,-107.32"/>
<polygon fill="#9a32cd" stroke="#9a32cd" points="129,-142.09 132.5,-152.09 136,-142.09 129,-142.09"/>
<text text-anchor="middle" x="143.5" y="-128" font-family="Helvetica,sans-Serif" font-size="10.00"> data</text>
</g>
<!-- Node6 -->
<g id="node6" class="node">
<title>Node6</title>
<g id="a_node6"><a xlink:href="libgs_8h.html#struct_g_s___r___x_y_z" target="_top" xlink:title=" ">
<polygon fill="white" stroke="#bfbfbf" points="249.5,-107 181.5,-107 181.5,-88 249.5,-88 249.5,-107"/>
<text text-anchor="middle" x="215.5" y="-95" font-family="Helvetica,sans-Serif" font-size="10.00">GS_R_XYZ</text>
</a>
</g>
</g>
<!-- Node6&#45;&gt;Node1 -->
<g id="edge5" class="edge">
<title>Node6&#45;&gt;Node1</title>
<path fill="none" stroke="#9a32cd" stroke-dasharray="5,2" d="M199.25,-79.66C181.84,-61.63 154.87,-33.67 141.15,-19.46"/>
<polygon fill="#9a32cd" stroke="#9a32cd" points="196.42,-81.77 205.88,-86.53 201.45,-76.91 196.42,-81.77"/>
<text text-anchor="middle" x="200.5" y="-62" font-family="Helvetica,sans-Serif" font-size="10.00"> xyz0</text>
<text text-anchor="middle" x="200.5" y="-51" font-family="Helvetica,sans-Serif" font-size="10.00">xyz1</text>
<text text-anchor="middle" x="200.5" y="-40" font-family="Helvetica,sans-Serif" font-size="10.00">xyz2</text>
</g>
<!-- Node7 -->
<g id="node7" class="node">
<title>Node7</title>
<g id="a_node7"><a xlink:href="libgs_8h.html#struct_g_s___x_y_z" target="_top" xlink:title=" ">
<polygon fill="white" stroke="#bfbfbf" points="243.5,-173 187.5,-173 187.5,-154 243.5,-154 243.5,-173"/>
<text text-anchor="middle" x="215.5" y="-161" font-family="Helvetica,sans-Serif" font-size="10.00">GS_XYZ</text>
</a>
</g>
</g>
<!-- Node7&#45;&gt;Node6 -->
<g id="edge6" class="edge">
<title>Node7&#45;&gt;Node6</title>
<path fill="none" stroke="#9a32cd" stroke-dasharray="5,2" d="M215.5,-142.18C215.5,-130.44 215.5,-116.27 215.5,-107.32"/>
<polygon fill="#9a32cd" stroke="#9a32cd" points="212,-142.09 215.5,-152.09 219,-142.09 212,-142.09"/>
<text text-anchor="middle" x="226.5" y="-128" font-family="Helvetica,sans-Serif" font-size="10.00"> data</text>
</g>
</g>
</svg>
