<?xml version="1.0" encoding="UTF-8" standalone="no"?>
<!DOCTYPE svg PUBLIC "-//W3C//DTD SVG 1.1//EN"
 "http://www.w3.org/Graphics/SVG/1.1/DTD/svg11.dtd">
<!-- Generated by graphviz version 7.0.5 (20221223.1930)
 -->
<!-- Title: iop_library_table_t Pages: 1 -->
<svg width="137pt" height="170pt"
 viewBox="0.00 0.00 137.00 170.00" xmlns="http://www.w3.org/2000/svg" xmlns:xlink="http://www.w3.org/1999/xlink">
<g id="graph0" class="graph" transform="scale(1 1) rotate(0) translate(4 166)">
<title>iop_library_table_t</title>
<!-- Node1 -->
<g id="node1" class="node">
<title>Node1</title>
<g id="a_node1"><a xlink:title=" ">
<polygon fill="#999999" stroke="#666666" points="95,-19 0,-19 0,0 95,0 95,-19"/>
<text text-anchor="middle" x="47.5" y="-7" font-family="Helvetica,sans-Serif" font-size="10.00">iop_library_table_t</text>
</a>
</g>
</g>
<!-- Node2 -->
<g id="node2" class="node">
<title>Node2</title>
<g id="a_node2"><a xlink:href="loadcore_8h.html#struct__iop__library" target="_top" xlink:title=" ">
<polygon fill="white" stroke="#bfbfbf" points="80,-96 15,-96 15,-77 80,-77 80,-96"/>
<text text-anchor="middle" x="47.5" y="-84" font-family="Helvetica,sans-Serif" font-size="10.00">_iop_library</text>
</a>
</g>
</g>
<!-- Node2&#45;&gt;Node1 -->
<g id="edge1" class="edge">
<title>Node2&#45;&gt;Node1</title>
<path fill="none" stroke="#9a32cd" stroke-dasharray="5,2" d="M47.5,-65.42C47.5,-50.43 47.5,-30.66 47.5,-19.39"/>
<polygon fill="#9a32cd" stroke="#9a32cd" points="44,-65.09 47.5,-75.09 51,-65.09 44,-65.09"/>
<text text-anchor="middle" x="59.5" y="-51" font-family="Helvetica,sans-Serif" font-size="10.00"> head</text>
<text text-anchor="middle" x="59.5" y="-40" font-family="Helvetica,sans-Serif" font-size="10.00">tail</text>
</g>
<!-- Node2&#45;&gt;Node2 -->
<g id="edge2" class="edge">
<title>Node2&#45;&gt;Node2</title>
<path fill="none" stroke="#9a32cd" stroke-dasharray="5,2" d="M91.19,-91.49C95.36,-90.47 98,-88.81 98,-86.5 98,-82.5 90.1,-80.44 80.04,-80.32"/>
<polygon fill="#9a32cd" stroke="#9a32cd" points="91.12,-87.98 81.55,-92.52 91.86,-94.94 91.12,-87.98"/>
<text text-anchor="middle" x="109" y="-84" font-family="Helvetica,sans-Serif" font-size="10.00"> prev</text>
</g>
<!-- Node3 -->
<g id="node3" class="node">
<title>Node3</title>
<g id="a_node3"><a xlink:href="irx_8h.html#structirx__import__table" target="_top" xlink:title=" ">
<polygon fill="white" stroke="#bfbfbf" points="90,-162 5,-162 5,-143 90,-143 90,-162"/>
<text text-anchor="middle" x="47.5" y="-150" font-family="Helvetica,sans-Serif" font-size="10.00">irx_import_table</text>
</a>
</g>
</g>
<!-- Node3&#45;&gt;Node2 -->
<g id="edge3" class="edge">
<title>Node3&#45;&gt;Node2</title>
<path fill="none" stroke="#9a32cd" stroke-dasharray="5,2" d="M47.5,-131.18C47.5,-119.44 47.5,-105.27 47.5,-96.32"/>
<polygon fill="#9a32cd" stroke="#9a32cd" points="44,-131.09 47.5,-141.09 51,-131.09 44,-131.09"/>
<text text-anchor="middle" x="60.5" y="-117" font-family="Helvetica,sans-Serif" font-size="10.00"> caller</text>
</g>
<!-- Node3&#45;&gt;Node3 -->
<g id="edge4" class="edge">
<title>Node3&#45;&gt;Node3</title>
<path fill="none" stroke="#9a32cd" stroke-dasharray="5,2" d="M101.79,-157.04C105.64,-156.01 108,-154.49 108,-152.5 108,-148.96 100.55,-146.93 90.46,-146.43"/>
<polygon fill="#9a32cd" stroke="#9a32cd" points="101.4,-153.56 91.96,-158.36 102.34,-160.49 101.4,-153.56"/>
<text text-anchor="middle" x="118.5" y="-150" font-family="Helvetica,sans-Serif" font-size="10.00"> next</text>
</g>
</g>
</svg>
