<?xml version="1.0" encoding="UTF-8" standalone="no"?>
<!DOCTYPE svg PUBLIC "-//W3C//DTD SVG 1.1//EN"
 "http://www.w3.org/Graphics/SVG/1.1/DTD/svg11.dtd">
<!-- Generated by graphviz version 7.0.5 (20221223.1930)
 -->
<!-- Title: GS_POINT_P Pages: 1 -->
<svg width="269pt" height="159pt"
 viewBox="0.00 0.00 268.50 159.00" xmlns="http://www.w3.org/2000/svg" xmlns:xlink="http://www.w3.org/1999/xlink">
<g id="graph0" class="graph" transform="scale(1 1) rotate(0) translate(4 155)">
<title>GS_POINT_P</title>
<!-- Node1 -->
<g id="node1" class="node">
<title>Node1</title>
<g id="a_node1"><a xlink:title=" ">
<polygon fill="#999999" stroke="#666666" points="172,-19 93,-19 93,0 172,0 172,-19"/>
<text text-anchor="middle" x="132.5" y="-7" font-family="Helvetica,sans-Serif" font-size="10.00">GS_POINT_P</text>
</a>
</g>
</g>
<!-- Node2 -->
<g id="node2" class="node">
<title>Node2</title>
<g id="a_node2"><a xlink:href="libgs_8h.html#struct_g_s___r___p_r_i_m" target="_top" xlink:title=" ">
<polygon fill="white" stroke="#bfbfbf" points="73,-85 0,-85 0,-66 73,-66 73,-85"/>
<text text-anchor="middle" x="36.5" y="-73" font-family="Helvetica,sans-Serif" font-size="10.00">GS_R_PRIM</text>
</a>
</g>
</g>
<!-- Node2&#45;&gt;Node1 -->
<g id="edge1" class="edge">
<title>Node2&#45;&gt;Node1</title>
<path fill="none" stroke="#9a32cd" stroke-dasharray="5,2" d="M59.39,-59.24C78.08,-46.78 103.84,-29.61 119.26,-19.32"/>
<polygon fill="#9a32cd" stroke="#9a32cd" points="57.49,-56.3 51.11,-64.76 61.37,-62.13 57.49,-56.3"/>
<text text-anchor="middle" x="101.5" y="-40" font-family="Helvetica,sans-Serif" font-size="10.00"> prim</text>
</g>
<!-- Node3 -->
<g id="node3" class="node">
<title>Node3</title>
<g id="a_node3"><a xlink:href="libgs_8h.html#struct_g_s___p_r_i_m" target="_top" xlink:title=" ">
<polygon fill="white" stroke="#bfbfbf" points="67,-151 6,-151 6,-132 67,-132 67,-151"/>
<text text-anchor="middle" x="36.5" y="-139" font-family="Helvetica,sans-Serif" font-size="10.00">GS_PRIM</text>
</a>
</g>
</g>
<!-- Node3&#45;&gt;Node2 -->
<g id="edge2" class="edge">
<title>Node3&#45;&gt;Node2</title>
<path fill="none" stroke="#9a32cd" stroke-dasharray="5,2" d="M36.5,-120.18C36.5,-108.44 36.5,-94.27 36.5,-85.32"/>
<polygon fill="#9a32cd" stroke="#9a32cd" points="33,-120.09 36.5,-130.09 40,-120.09 33,-120.09"/>
<text text-anchor="middle" x="47.5" y="-106" font-family="Helvetica,sans-Serif" font-size="10.00"> data</text>
</g>
<!-- Node4 -->
<g id="node4" class="node">
<title>Node4</title>
<g id="a_node4"><a xlink:href="libgs_8h.html#struct_g_s___r___r_g_b_a_q" target="_top" xlink:title=" ">
<polygon fill="white" stroke="#bfbfbf" points="174,-85 91,-85 91,-66 174,-66 174,-85"/>
<text text-anchor="middle" x="132.5" y="-73" font-family="Helvetica,sans-Serif" font-size="10.00">GS_R_RGBAQ</text>
</a>
</g>
</g>
<!-- Node4&#45;&gt;Node1 -->
<g id="edge3" class="edge">
<title>Node4&#45;&gt;Node1</title>
<path fill="none" stroke="#9a32cd" stroke-dasharray="5,2" d="M132.5,-54.18C132.5,-42.44 132.5,-28.27 132.5,-19.32"/>
<polygon fill="#9a32cd" stroke="#9a32cd" points="129,-54.09 132.5,-64.09 136,-54.09 129,-54.09"/>
<text text-anchor="middle" x="148.5" y="-40" font-family="Helvetica,sans-Serif" font-size="10.00"> rgbaq0</text>
</g>
<!-- Node5 -->
<g id="node5" class="node">
<title>Node5</title>
<g id="a_node5"><a xlink:href="libgs_8h.html#struct_g_s___r_g_b_a_q" target="_top" xlink:title=" ">
<polygon fill="white" stroke="#bfbfbf" points="168,-151 97,-151 97,-132 168,-132 168,-151"/>
<text text-anchor="middle" x="132.5" y="-139" font-family="Helvetica,sans-Serif" font-size="10.00">GS_RGBAQ</text>
</a>
</g>
</g>
<!-- Node5&#45;&gt;Node4 -->
<g id="edge4" class="edge">
<title>Node5&#45;&gt;Node4</title>
<path fill="none" stroke="#9a32cd" stroke-dasharray="5,2" d="M132.5,-120.18C132.5,-108.44 132.5,-94.27 132.5,-85.32"/>
<polygon fill="#9a32cd" stroke="#9a32cd" points="129,-120.09 132.5,-130.09 136,-120.09 129,-120.09"/>
<text text-anchor="middle" x="143.5" y="-106" font-family="Helvetica,sans-Serif" font-size="10.00"> data</text>
</g>
<!-- Node6 -->
<g id="node6" class="node">
<title>Node6</title>
<g id="a_node6"><a xlink:href="libgs_8h.html#struct_g_s___r___x_y_z" target="_top" xlink:title=" ">
<polygon fill="white" stroke="#bfbfbf" points="260.5,-85 192.5,-85 192.5,-66 260.5,-66 260.5,-85"/>
<text text-anchor="middle" x="226.5" y="-73" font-family="Helvetica,sans-Serif" font-size="10.00">GS_R_XYZ</text>
</a>
</g>
</g>
<!-- Node6&#45;&gt;Node1 -->
<g id="edge5" class="edge">
<title>Node6&#45;&gt;Node1</title>
<path fill="none" stroke="#9a32cd" stroke-dasharray="5,2" d="M204.08,-59.24C185.78,-46.78 160.56,-29.61 145.46,-19.32"/>
<polygon fill="#9a32cd" stroke="#9a32cd" points="201.94,-62.01 212.18,-64.75 205.88,-56.23 201.94,-62.01"/>
<text text-anchor="middle" x="196.5" y="-40" font-family="Helvetica,sans-Serif" font-size="10.00"> xyz0</text>
</g>
<!-- Node7 -->
<g id="node7" class="node">
<title>Node7</title>
<g id="a_node7"><a xlink:href="libgs_8h.html#struct_g_s___x_y_z" target="_top" xlink:title=" ">
<polygon fill="white" stroke="#bfbfbf" points="254.5,-151 198.5,-151 198.5,-132 254.5,-132 254.5,-151"/>
<text text-anchor="middle" x="226.5" y="-139" font-family="Helvetica,sans-Serif" font-size="10.00">GS_XYZ</text>
</a>
</g>
</g>
<!-- Node7&#45;&gt;Node6 -->
<g id="edge6" class="edge">
<title>Node7&#45;&gt;Node6</title>
<path fill="none" stroke="#9a32cd" stroke-dasharray="5,2" d="M226.5,-120.18C226.5,-108.44 226.5,-94.27 226.5,-85.32"/>
<polygon fill="#9a32cd" stroke="#9a32cd" points="223,-120.09 226.5,-130.09 230,-120.09 223,-120.09"/>
<text text-anchor="middle" x="237.5" y="-106" font-family="Helvetica,sans-Serif" font-size="10.00"> data</text>
</g>
</g>
</svg>
