<?xml version="1.0" encoding="UTF-8" standalone="no"?>
<!DOCTYPE svg PUBLIC "-//W3C//DTD SVG 1.1//EN"
 "http://www.w3.org/Graphics/SVG/1.1/DTD/svg11.dtd">
<!-- Generated by graphviz version 7.0.5 (20221223.1930)
 -->
<!-- Title: MboxData Pages: 1 -->
<svg width="141pt" height="104pt"
 viewBox="0.00 0.00 141.00 104.00" xmlns="http://www.w3.org/2000/svg" xmlns:xlink="http://www.w3.org/1999/xlink">
<g id="graph0" class="graph" transform="scale(1 1) rotate(0) translate(4 100)">
<title>MboxData</title>
<!-- Node1 -->
<g id="node1" class="node">
<title>Node1</title>
<g id="a_node1"><a xlink:title=" ">
<polygon fill="#999999" stroke="#666666" points="77,-19 17,-19 17,0 77,0 77,-19"/>
<text text-anchor="middle" x="47" y="-7" font-family="Helvetica,sans-Serif" font-size="10.00">MboxData</text>
</a>
</g>
</g>
<!-- Node2 -->
<g id="node2" class="node">
<title>Node2</title>
<g id="a_node2"><a xlink:href="structst__arch__message.html" target="_top" xlink:title=" ">
<polygon fill="white" stroke="#bfbfbf" points="94,-96 0,-96 0,-77 94,-77 94,-96"/>
<text text-anchor="middle" x="47" y="-84" font-family="Helvetica,sans-Serif" font-size="10.00">st_arch_message</text>
</a>
</g>
</g>
<!-- Node2&#45;&gt;Node1 -->
<g id="edge1" class="edge">
<title>Node2&#45;&gt;Node1</title>
<path fill="none" stroke="#9a32cd" stroke-dasharray="5,2" d="M47,-65.42C47,-50.43 47,-30.66 47,-19.39"/>
<polygon fill="#9a32cd" stroke="#9a32cd" points="43.5,-65.09 47,-75.09 50.5,-65.09 43.5,-65.09"/>
<text text-anchor="middle" x="78" y="-51" font-family="Helvetica,sans-Serif" font-size="10.00"> FirstMessage</text>
<text text-anchor="middle" x="78" y="-40" font-family="Helvetica,sans-Serif" font-size="10.00">LastMessage</text>
</g>
<!-- Node2&#45;&gt;Node2 -->
<g id="edge2" class="edge">
<title>Node2&#45;&gt;Node2</title>
<path fill="none" stroke="#9a32cd" stroke-dasharray="5,2" d="M105.44,-91.76C109.52,-90.56 112,-88.8 112,-86.5 112,-82.51 104.57,-80.18 94.33,-79.49"/>
<polygon fill="#9a32cd" stroke="#9a32cd" points="105.16,-88.26 95.82,-93.27 106.24,-95.17 105.16,-88.26"/>
<text text-anchor="middle" x="122.5" y="-84" font-family="Helvetica,sans-Serif" font-size="10.00"> next</text>
</g>
</g>
</svg>
