<?xml version="1.0" encoding="UTF-8" standalone="no"?>
<!DOCTYPE svg PUBLIC "-//W3C//DTD SVG 1.1//EN"
 "http://www.w3.org/Graphics/SVG/1.1/DTD/svg11.dtd">
<!-- Generated by graphviz version 7.0.5 (20221223.1930)
 -->
<!-- Title: fxio_dread_packet Pages: 1 -->
<svg width="103pt" height="159pt"
 viewBox="0.00 0.00 103.00 159.00" xmlns="http://www.w3.org/2000/svg" xmlns:xlink="http://www.w3.org/1999/xlink">
<g id="graph0" class="graph" transform="scale(1 1) rotate(0) translate(4 155)">
<title>fxio_dread_packet</title>
<!-- Node1 -->
<g id="node1" class="node">
<title>Node1</title>
<g id="a_node1"><a xlink:title=" ">
<polygon fill="#999999" stroke="#666666" points="95,-19 0,-19 0,0 95,0 95,-19"/>
<text text-anchor="middle" x="47.5" y="-7" font-family="Helvetica,sans-Serif" font-size="10.00">fxio_dread_packet</text>
</a>
</g>
</g>
<!-- Node2 -->
<g id="node2" class="node">
<title>Node2</title>
<g id="a_node2"><a xlink:href="iox__stat_8h.html#structiox__dirent__t" target="_top" xlink:title=" ">
<polygon fill="white" stroke="#bfbfbf" points="80.5,-85 14.5,-85 14.5,-66 80.5,-66 80.5,-85"/>
<text text-anchor="middle" x="47.5" y="-73" font-family="Helvetica,sans-Serif" font-size="10.00">iox_dirent_t</text>
</a>
</g>
</g>
<!-- Node2&#45;&gt;Node1 -->
<g id="edge1" class="edge">
<title>Node2&#45;&gt;Node1</title>
<path fill="none" stroke="#9a32cd" stroke-dasharray="5,2" d="M47.5,-54.18C47.5,-42.44 47.5,-28.27 47.5,-19.32"/>
<polygon fill="#9a32cd" stroke="#9a32cd" points="44,-54.09 47.5,-64.09 51,-54.09 44,-54.09"/>
<text text-anchor="middle" x="61" y="-40" font-family="Helvetica,sans-Serif" font-size="10.00"> dirent</text>
</g>
<!-- Node3 -->
<g id="node3" class="node">
<title>Node3</title>
<g id="a_node3"><a xlink:href="iox__stat_8h.html#structiox__stat__t" target="_top" xlink:title=" ">
<polygon fill="white" stroke="#bfbfbf" points="77,-151 18,-151 18,-132 77,-132 77,-151"/>
<text text-anchor="middle" x="47.5" y="-139" font-family="Helvetica,sans-Serif" font-size="10.00">iox_stat_t</text>
</a>
</g>
</g>
<!-- Node3&#45;&gt;Node2 -->
<g id="edge2" class="edge">
<title>Node3&#45;&gt;Node2</title>
<path fill="none" stroke="#9a32cd" stroke-dasharray="5,2" d="M47.5,-120.18C47.5,-108.44 47.5,-94.27 47.5,-85.32"/>
<polygon fill="#9a32cd" stroke="#9a32cd" points="44,-120.09 47.5,-130.09 51,-120.09 44,-120.09"/>
<text text-anchor="middle" x="57" y="-106" font-family="Helvetica,sans-Serif" font-size="10.00"> stat</text>
</g>
</g>
</svg>
