<?xml version="1.0" encoding="UTF-8" standalone="no"?>
<!DOCTYPE svg PUBLIC "-//W3C//DTD SVG 1.1//EN"
 "http://www.w3.org/Graphics/SVG/1.1/DTD/svg11.dtd">
<!-- Generated by graphviz version 7.0.5 (20221223.1930)
 -->
<!-- Title: _slib_exp_lib Pages: 1 -->
<svg width="123pt" height="93pt"
 viewBox="0.00 0.00 123.00 93.00" xmlns="http://www.w3.org/2000/svg" xmlns:xlink="http://www.w3.org/1999/xlink">
<g id="graph0" class="graph" transform="scale(1 1) rotate(0) translate(4 89)">
<title>_slib_exp_lib</title>
<!-- Node1 -->
<g id="node1" class="node">
<title>Node1</title>
<g id="a_node1"><a xlink:title=" ">
<polygon fill="#999999" stroke="#666666" points="74,-19 2,-19 2,0 74,0 74,-19"/>
<text text-anchor="middle" x="38" y="-7" font-family="Helvetica,sans-Serif" font-size="10.00">_slib_exp_lib</text>
</a>
</g>
</g>
<!-- Node1&#45;&gt;Node1 -->
<g id="edge1" class="edge">
<title>Node1&#45;&gt;Node1</title>
<path fill="none" stroke="#9a32cd" stroke-dasharray="5,2" d="M85.68,-14.25C89.58,-13.22 92,-11.64 92,-9.5 92,-5.7 84.35,-3.65 74.34,-3.35"/>
<polygon fill="#9a32cd" stroke="#9a32cd" points="85.34,-10.77 75.84,-15.46 86.2,-17.72 85.34,-10.77"/>
<text text-anchor="middle" x="103" y="-7" font-family="Helvetica,sans-Serif" font-size="10.00"> prev</text>
</g>
<!-- Node2 -->
<g id="node2" class="node">
<title>Node2</title>
<g id="a_node2"><a xlink:href="slib_8h.html#struct__slib__imp__list" target="_top" xlink:title=" ">
<polygon fill="white" stroke="#666666" points="76,-85 0,-85 0,-66 76,-66 76,-85"/>
<text text-anchor="middle" x="38" y="-73" font-family="Helvetica,sans-Serif" font-size="10.00">_slib_imp_list</text>
</a>
</g>
</g>
<!-- Node2&#45;&gt;Node1 -->
<g id="edge2" class="edge">
<title>Node2&#45;&gt;Node1</title>
<path fill="none" stroke="#9a32cd" stroke-dasharray="5,2" d="M38,-54.18C38,-42.44 38,-28.27 38,-19.32"/>
<polygon fill="#9a32cd" stroke="#9a32cd" points="34.5,-54.09 38,-64.09 41.5,-54.09 34.5,-54.09"/>
<text text-anchor="middle" x="51" y="-40" font-family="Helvetica,sans-Serif" font-size="10.00"> caller</text>
</g>
<!-- Node2&#45;&gt;Node2 -->
<g id="edge3" class="edge">
<title>Node2&#45;&gt;Node2</title>
<path fill="none" stroke="#9a32cd" stroke-dasharray="5,2" d="M87.75,-80.17C91.62,-79.14 94,-77.58 94,-75.5 94,-71.79 86.47,-69.75 76.48,-69.38"/>
<polygon fill="#9a32cd" stroke="#9a32cd" points="87.45,-76.68 77.98,-81.43 88.34,-83.63 87.45,-76.68"/>
<text text-anchor="middle" x="104.5" y="-73" font-family="Helvetica,sans-Serif" font-size="10.00"> next</text>
</g>
</g>
</svg>
