<?xml version="1.0" encoding="UTF-8" standalone="no"?>
<!DOCTYPE svg PUBLIC "-//W3C//DTD SVG 1.1//EN"
 "http://www.w3.org/Graphics/SVG/1.1/DTD/svg11.dtd">
<!-- Generated by graphviz version 7.0.5 (20221223.1930)
 -->
<!-- Title: t_SifRpcClientData Pages: 1 -->
<svg width="150pt" height="250pt"
 viewBox="0.00 0.00 150.00 250.00" xmlns="http://www.w3.org/2000/svg" xmlns:xlink="http://www.w3.org/1999/xlink">
<g id="graph0" class="graph" transform="scale(1 1) rotate(0) translate(4 246)">
<title>t_SifRpcClientData</title>
<!-- Node1 -->
<g id="node1" class="node">
<title>Node1</title>
<g id="a_node1"><a xlink:title=" ">
<polygon fill="#999999" stroke="#666666" points="101,-176 2,-176 2,-157 101,-157 101,-176"/>
<text text-anchor="middle" x="51.5" y="-164" font-family="Helvetica,sans-Serif" font-size="10.00">t_SifRpcClientData</text>
</a>
</g>
</g>
<!-- Node3 -->
<g id="node3" class="node">
<title>Node3</title>
<g id="a_node3"><a xlink:href="iop_2kernel_2include_2sifcmd_8h.html#structt___sif_rpc_server_data" target="_top" xlink:title=" ">
<polygon fill="white" stroke="#bfbfbf" points="103,-108.5 0,-108.5 0,-89.5 103,-89.5 103,-108.5"/>
<text text-anchor="middle" x="51.5" y="-96.5" font-family="Helvetica,sans-Serif" font-size="10.00">t_SifRpcServerData</text>
</a>
</g>
</g>
<!-- Node1&#45;&gt;Node3 -->
<g id="edge3" class="edge">
<title>Node1&#45;&gt;Node3</title>
<path fill="none" stroke="#9a32cd" stroke-dasharray="5,2" d="M30.36,-149.05C24.99,-142.84 21.49,-135.47 24.5,-128 27.53,-120.49 33.66,-113.86 39.3,-108.95"/>
<polygon fill="#9a32cd" stroke="#9a32cd" points="27.64,-151.3 37.3,-155.65 32.46,-146.23 27.64,-151.3"/>
<text text-anchor="middle" x="37.5" y="-131" font-family="Helvetica,sans-Serif" font-size="10.00"> client</text>
</g>
<!-- Node2 -->
<g id="node2" class="node">
<title>Node2</title>
<g id="a_node2"><a xlink:href="iop_2kernel_2include_2sifcmd_8h.html#structt___sif_rpc_header" target="_top" xlink:title=" ">
<polygon fill="white" stroke="#bfbfbf" points="94.5,-242 8.5,-242 8.5,-223 94.5,-223 94.5,-242"/>
<text text-anchor="middle" x="51.5" y="-230" font-family="Helvetica,sans-Serif" font-size="10.00">t_SifRpcHeader</text>
</a>
</g>
</g>
<!-- Node2&#45;&gt;Node1 -->
<g id="edge1" class="edge">
<title>Node2&#45;&gt;Node1</title>
<path fill="none" stroke="#9a32cd" stroke-dasharray="5,2" d="M51.5,-211.18C51.5,-199.44 51.5,-185.27 51.5,-176.32"/>
<polygon fill="#9a32cd" stroke="#9a32cd" points="48,-211.09 51.5,-221.09 55,-211.09 48,-211.09"/>
<text text-anchor="middle" x="59.5" y="-197" font-family="Helvetica,sans-Serif" font-size="10.00"> hdr</text>
</g>
<!-- Node3&#45;&gt;Node1 -->
<g id="edge2" class="edge">
<title>Node3&#45;&gt;Node1</title>
<path fill="none" stroke="#9a32cd" stroke-dasharray="5,2" d="M54.08,-120.18C54.57,-126.23 54.85,-132.88 54.5,-139 54.17,-144.92 53.42,-151.54 52.75,-156.69"/>
<polygon fill="#9a32cd" stroke="#9a32cd" points="57.58,-120.05 53.03,-110.48 50.63,-120.8 57.58,-120.05"/>
<text text-anchor="middle" x="69.5" y="-131" font-family="Helvetica,sans-Serif" font-size="10.00"> server</text>
</g>
<!-- Node3&#45;&gt;Node3 -->
<g id="edge4" class="edge">
<title>Node3&#45;&gt;Node3</title>
<path fill="none" stroke="#9a32cd" stroke-dasharray="5,2" d="M114.47,-103.59C118.54,-102.52 121,-100.99 121,-99 121,-95.56 113.64,-93.5 103.33,-92.8"/>
<polygon fill="#9a32cd" stroke="#9a32cd" points="114.22,-100.09 104.83,-104.98 115.23,-107.01 114.22,-100.09"/>
<text text-anchor="middle" x="130.5" y="-102" font-family="Helvetica,sans-Serif" font-size="10.00"> link</text>
<text text-anchor="middle" x="130.5" y="-91" font-family="Helvetica,sans-Serif" font-size="10.00">next</text>
</g>
<!-- Node4 -->
<g id="node4" class="node">
<title>Node4</title>
<g id="a_node4"><a xlink:href="iop_2kernel_2include_2sifcmd_8h.html#structt___sif_rpc_data_queue" target="_top" xlink:title=" ">
<polygon fill="white" stroke="#bfbfbf" points="103,-19 0,-19 0,0 103,0 103,-19"/>
<text text-anchor="middle" x="51.5" y="-7" font-family="Helvetica,sans-Serif" font-size="10.00">t_SifRpcDataQueue</text>
</a>
</g>
</g>
<!-- Node3&#45;&gt;Node4 -->
<g id="edge6" class="edge">
<title>Node3&#45;&gt;Node4</title>
<path fill="none" stroke="#9a32cd" stroke-dasharray="5,2" d="M33.3,-80.39C30.93,-77.17 28.85,-73.66 27.5,-70 22.41,-56.24 22.22,-50.68 27.5,-37 30.13,-30.17 35.44,-24 40.39,-19.34"/>
<polygon fill="#9a32cd" stroke="#9a32cd" points="30.66,-82.69 39.89,-87.9 35.92,-78.07 30.66,-82.69"/>
<text text-anchor="middle" x="37.5" y="-62" font-family="Helvetica,sans-Serif" font-size="10.00"> end</text>
<text text-anchor="middle" x="37.5" y="-51" font-family="Helvetica,sans-Serif" font-size="10.00">link</text>
<text text-anchor="middle" x="37.5" y="-40" font-family="Helvetica,sans-Serif" font-size="10.00">start</text>
</g>
<!-- Node4&#45;&gt;Node3 -->
<g id="edge5" class="edge">
<title>Node4&#45;&gt;Node3</title>
<path fill="none" stroke="#9a32cd" stroke-dasharray="5,2" d="M51.5,-30.71C51.5,-49.22 51.5,-75.73 51.5,-89.29"/>
<polygon fill="#9a32cd" stroke="#9a32cd" points="55,-30.95 51.5,-20.95 48,-30.95 55,-30.95"/>
<text text-anchor="middle" x="63.5" y="-51" font-family="Helvetica,sans-Serif" font-size="10.00"> base</text>
</g>
<!-- Node4&#45;&gt;Node4 -->
<g id="edge7" class="edge">
<title>Node4&#45;&gt;Node4</title>
<path fill="none" stroke="#9a32cd" stroke-dasharray="5,2" d="M114.47,-15.35C118.54,-13.98 121,-12.03 121,-9.5 121,-5.12 113.64,-2.48 103.33,-1.59"/>
<polygon fill="#9a32cd" stroke="#9a32cd" points="114.02,-11.88 104.82,-17.13 115.29,-18.76 114.02,-11.88"/>
<text text-anchor="middle" x="131.5" y="-7" font-family="Helvetica,sans-Serif" font-size="10.00"> next</text>
</g>
</g>
</svg>
