<?xml version="1.0" encoding="UTF-8" standalone="no"?>
<!DOCTYPE svg PUBLIC "-//W3C//DTD SVG 1.1//EN"
 "http://www.w3.org/Graphics/SVG/1.1/DTD/svg11.dtd">
<!-- Generated by graphviz version 7.0.5 (20221223.1930)
 -->
<!-- Title: DIR Pages: 1 -->
<svg width="128pt" height="159pt"
 viewBox="0.00 0.00 128.00 159.00" xmlns="http://www.w3.org/2000/svg" xmlns:xlink="http://www.w3.org/1999/xlink">
<g id="graph0" class="graph" transform="scale(1 1) rotate(0) translate(4 155)">
<title>DIR</title>
<!-- Node1 -->
<g id="node1" class="node">
<title>Node1</title>
<g id="a_node1"><a xlink:title=" ">
<polygon fill="#999999" stroke="#666666" points="74.5,-19 41.5,-19 41.5,0 74.5,0 74.5,-19"/>
<text text-anchor="middle" x="58" y="-7" font-family="Helvetica,sans-Serif" font-size="10.00">DIR</text>
</a>
</g>
</g>
<!-- Node2 -->
<g id="node2" class="node">
<title>Node2</title>
<g id="a_node2"><a xlink:href="struct_f_f_o_b_j_i_d.html" target="_top" xlink:title=" ">
<polygon fill="white" stroke="#bfbfbf" points="87,-85 29,-85 29,-66 87,-66 87,-85"/>
<text text-anchor="middle" x="58" y="-73" font-family="Helvetica,sans-Serif" font-size="10.00">FFOBJID</text>
</a>
</g>
</g>
<!-- Node2&#45;&gt;Node1 -->
<g id="edge1" class="edge">
<title>Node2&#45;&gt;Node1</title>
<path fill="none" stroke="#9a32cd" stroke-dasharray="5,2" d="M58,-54.18C58,-42.44 58,-28.27 58,-19.32"/>
<polygon fill="#9a32cd" stroke="#9a32cd" points="54.5,-54.09 58,-64.09 61.5,-54.09 54.5,-54.09"/>
<text text-anchor="middle" x="66" y="-40" font-family="Helvetica,sans-Serif" font-size="10.00"> obj</text>
</g>
<!-- Node3 -->
<g id="node3" class="node">
<title>Node3</title>
<g id="a_node3"><a xlink:href="struct_f_a_t_f_s.html" target="_top" xlink:title=" ">
<polygon fill="white" stroke="#bfbfbf" points="48,-151 0,-151 0,-132 48,-132 48,-151"/>
<text text-anchor="middle" x="24" y="-139" font-family="Helvetica,sans-Serif" font-size="10.00">FATFS</text>
</a>
</g>
</g>
<!-- Node3&#45;&gt;Node2 -->
<g id="edge2" class="edge">
<title>Node3&#45;&gt;Node2</title>
<path fill="none" stroke="#9a32cd" stroke-dasharray="5,2" d="M34.01,-121.66C40.39,-109.66 48.36,-94.65 53.31,-85.32"/>
<polygon fill="#9a32cd" stroke="#9a32cd" points="31.04,-119.79 29.44,-130.26 37.22,-123.08 31.04,-119.79"/>
<text text-anchor="middle" x="49.5" y="-106" font-family="Helvetica,sans-Serif" font-size="10.00"> fs</text>
</g>
<!-- Node4 -->
<g id="node4" class="node">
<title>Node4</title>
<g id="a_node4"><a xlink:href="libgs_8h.html#struct_q_w_o_r_d" target="_top" xlink:title=" ">
<polygon fill="white" stroke="#bfbfbf" points="120,-151 66,-151 66,-132 120,-132 120,-151"/>
<text text-anchor="middle" x="93" y="-139" font-family="Helvetica,sans-Serif" font-size="10.00">QWORD</text>
</a>
</g>
</g>
<!-- Node4&#45;&gt;Node2 -->
<g id="edge3" class="edge">
<title>Node4&#45;&gt;Node2</title>
<path fill="none" stroke="#9a32cd" stroke-dasharray="5,2" d="M82.7,-121.66C76.13,-109.66 67.93,-94.65 62.83,-85.32"/>
<polygon fill="#9a32cd" stroke="#9a32cd" points="79.54,-123.18 87.41,-130.27 85.68,-119.82 79.54,-123.18"/>
<text text-anchor="middle" x="93.5" y="-106" font-family="Helvetica,sans-Serif" font-size="10.00"> objsize</text>
</g>
</g>
</svg>
