<?xml version="1.0" encoding="UTF-8" standalone="no"?>
<!DOCTYPE svg PUBLIC "-//W3C//DTD SVG 1.1//EN"
 "http://www.w3.org/Graphics/SVG/1.1/DTD/svg11.dtd">
<!-- Generated by graphviz version 7.0.5 (20221223.1930)
 -->
<!-- Title: fatfs_fs_driver_mount_info_ Pages: 1 -->
<svg width="150pt" height="104pt"
 viewBox="0.00 0.00 150.00 104.00" xmlns="http://www.w3.org/2000/svg" xmlns:xlink="http://www.w3.org/1999/xlink">
<g id="graph0" class="graph" transform="scale(1 1) rotate(0) translate(4 100)">
<title>fatfs_fs_driver_mount_info_</title>
<!-- Node1 -->
<g id="node1" class="node">
<title>Node1</title>
<g id="a_node1"><a xlink:title=" ">
<polygon fill="#999999" stroke="#666666" points="118.5,-30 7.5,-30 7.5,0 118.5,0 118.5,-30"/>
<text text-anchor="start" x="15.5" y="-18" font-family="Helvetica,sans-Serif" font-size="10.00">fatfs_fs_driver_mount</text>
<text text-anchor="middle" x="63" y="-7" font-family="Helvetica,sans-Serif" font-size="10.00">_info_</text>
</a>
</g>
</g>
<!-- Node2 -->
<g id="node2" class="node">
<title>Node2</title>
<g id="a_node2"><a xlink:href="struct_f_a_t_f_s.html" target="_top" xlink:title=" ">
<polygon fill="white" stroke="#bfbfbf" points="48,-96 0,-96 0,-77 48,-77 48,-96"/>
<text text-anchor="middle" x="24" y="-84" font-family="Helvetica,sans-Serif" font-size="10.00">FATFS</text>
</a>
</g>
</g>
<!-- Node2&#45;&gt;Node1 -->
<g id="edge1" class="edge">
<title>Node2&#45;&gt;Node1</title>
<path fill="none" stroke="#9a32cd" stroke-dasharray="5,2" d="M34.48,-66.83C40.92,-55.34 49.06,-40.84 54.99,-30.27"/>
<polygon fill="#9a32cd" stroke="#9a32cd" points="31.52,-64.94 29.68,-75.38 37.63,-68.37 31.52,-64.94"/>
<text text-anchor="middle" x="56" y="-51" font-family="Helvetica,sans-Serif" font-size="10.00"> fatfs</text>
</g>
<!-- Node3 -->
<g id="node3" class="node">
<title>Node3</title>
<g id="a_node3"><a xlink:href="structblock__device.html" target="_top" xlink:title=" ">
<polygon fill="white" stroke="#bfbfbf" points="140,-96 66,-96 66,-77 140,-77 140,-96"/>
<text text-anchor="middle" x="103" y="-84" font-family="Helvetica,sans-Serif" font-size="10.00">block_device</text>
</a>
</g>
</g>
<!-- Node3&#45;&gt;Node1 -->
<g id="edge2" class="edge">
<title>Node3&#45;&gt;Node1</title>
<path fill="none" stroke="#9a32cd" stroke-dasharray="5,2" d="M92.26,-66.83C85.64,-55.34 77.3,-40.84 71.22,-30.27"/>
<polygon fill="#9a32cd" stroke="#9a32cd" points="89.16,-68.46 97.18,-75.39 95.22,-64.97 89.16,-68.46"/>
<text text-anchor="middle" x="114" y="-51" font-family="Helvetica,sans-Serif" font-size="10.00"> mounted_bd</text>
</g>
</g>
</svg>
