<?xml version="1.0" encoding="UTF-8" standalone="no"?>
<!DOCTYPE svg PUBLIC "-//W3C//DTD SVG 1.1//EN"
 "http://www.w3.org/Graphics/SVG/1.1/DTD/svg11.dtd">
<!-- Generated by graphviz version 7.0.5 (20221223.1930)
 -->
<!-- Title: CDVolDesc Pages: 1 -->
<svg width="222pt" height="126pt"
 viewBox="0.00 0.00 221.50 126.00" xmlns="http://www.w3.org/2000/svg" xmlns:xlink="http://www.w3.org/1999/xlink">
<g id="graph0" class="graph" transform="scale(1 1) rotate(0) translate(4 122)">
<title>CDVolDesc</title>
<!-- Node1 -->
<g id="node1" class="node">
<title>Node1</title>
<g id="a_node1"><a xlink:title=" ">
<polygon fill="#999999" stroke="#666666" points="131,-19 64,-19 64,0 131,0 131,-19"/>
<text text-anchor="middle" x="97.5" y="-7" font-family="Helvetica,sans-Serif" font-size="10.00">CDVolDesc</text>
</a>
</g>
</g>
<!-- Node2 -->
<g id="node2" class="node">
<title>Node2</title>
<g id="a_node2"><a xlink:href="struct_root_dir_toc_header.html" target="_top" xlink:title=" ">
<polygon fill="white" stroke="#bfbfbf" points="97,-118 0,-118 0,-99 97,-99 97,-118"/>
<text text-anchor="middle" x="48.5" y="-106" font-family="Helvetica,sans-Serif" font-size="10.00">RootDirTocHeader</text>
</a>
</g>
</g>
<!-- Node2&#45;&gt;Node1 -->
<g id="edge1" class="edge">
<title>Node2&#45;&gt;Node1</title>
<path fill="none" stroke="#9a32cd" stroke-dasharray="5,2" d="M58.18,-88.33C68.72,-67.47 85.12,-35.01 92.99,-19.43"/>
<polygon fill="#9a32cd" stroke="#9a32cd" points="55.09,-86.69 53.7,-97.2 61.34,-89.85 55.09,-86.69"/>
<text text-anchor="middle" x="101.5" y="-56.5" font-family="Helvetica,sans-Serif" font-size="10.00"> rootToc</text>
</g>
<!-- Node3 -->
<g id="node3" class="node">
<title>Node3</title>
<g id="a_node3"><a xlink:href="struct_a_s_c_i_i_date.html" target="_top" xlink:title=" ">
<polygon fill="white" stroke="#bfbfbf" points="178,-118 115,-118 115,-99 178,-99 178,-118"/>
<text text-anchor="middle" x="146.5" y="-106" font-family="Helvetica,sans-Serif" font-size="10.00">ASCIIDate</text>
</a>
</g>
</g>
<!-- Node3&#45;&gt;Node1 -->
<g id="edge2" class="edge">
<title>Node3&#45;&gt;Node1</title>
<path fill="none" stroke="#9a32cd" stroke-dasharray="5,2" d="M142.65,-87.85C139.17,-73.1 133.1,-52.82 123.5,-37 119.49,-30.39 113.52,-24.15 108.32,-19.39"/>
<polygon fill="#9a32cd" stroke="#9a32cd" points="139.14,-88.19 144.67,-97.23 145.99,-86.72 139.14,-88.19"/>
<text text-anchor="middle" x="177" y="-73" font-family="Helvetica,sans-Serif" font-size="10.00"> creationDate</text>
<text text-anchor="middle" x="177" y="-62" font-family="Helvetica,sans-Serif" font-size="10.00">effectiveDate</text>
<text text-anchor="middle" x="177" y="-51" font-family="Helvetica,sans-Serif" font-size="10.00">expirationDate</text>
<text text-anchor="middle" x="177" y="-40" font-family="Helvetica,sans-Serif" font-size="10.00">modificationDate</text>
</g>
</g>
</svg>
