<?xml version="1.0" encoding="UTF-8" standalone="no"?>
<!DOCTYPE svg PUBLIC "-//W3C//DTD SVG 1.1//EN"
 "http://www.w3.org/Graphics/SVG/1.1/DTD/svg11.dtd">
<!-- Generated by graphviz version 7.0.5 (20221223.1930)
 -->
<!-- Title: _MPEGContext Pages: 1 -->
<svg width="451pt" height="192pt"
 viewBox="0.00 0.00 450.50 192.00" xmlns="http://www.w3.org/2000/svg" xmlns:xlink="http://www.w3.org/1999/xlink">
<g id="graph0" class="graph" transform="scale(1 1) rotate(0) translate(4 188)">
<title>_MPEGContext</title>
<!-- Node1 -->
<g id="node1" class="node">
<title>Node1</title>
<g id="a_node1"><a xlink:title=" ">
<polygon fill="#999999" stroke="#666666" points="273,-19 190,-19 190,0 273,0 273,-19"/>
<text text-anchor="middle" x="231.5" y="-7" font-family="Helvetica,sans-Serif" font-size="10.00">_MPEGContext</text>
</a>
</g>
</g>
<!-- Node2 -->
<g id="node2" class="node">
<title>Node2</title>
<g id="a_node2"><a xlink:href="libmpeg_8h.html#struct_m_p_e_g_sequence_info" target="_top" xlink:title=" ">
<polygon fill="white" stroke="#bfbfbf" points="105,-118 0,-118 0,-99 105,-99 105,-118"/>
<text text-anchor="middle" x="52.5" y="-106" font-family="Helvetica,sans-Serif" font-size="10.00">MPEGSequenceInfo</text>
</a>
</g>
</g>
<!-- Node2&#45;&gt;Node1 -->
<g id="edge1" class="edge">
<title>Node2&#45;&gt;Node1</title>
<path fill="none" stroke="#9a32cd" stroke-dasharray="5,2" d="M71.47,-91.12C90.41,-75.45 120.9,-52.03 150.5,-37 164.88,-29.7 181.7,-23.81 196.27,-19.45"/>
<polygon fill="#9a32cd" stroke="#9a32cd" points="69.23,-88.43 63.84,-97.55 73.74,-93.79 69.23,-88.43"/>
<text text-anchor="middle" x="163.5" y="-56.5" font-family="Helvetica,sans-Serif" font-size="10.00"> m_SI</text>
</g>
<!-- Node3 -->
<g id="node3" class="node">
<title>Node3</title>
<g id="a_node3"><a xlink:href="libmpeg__internal_8h.html#struct___m_p_e_g_macro_block8" target="_top" xlink:title=" ">
<polygon fill="white" stroke="#bfbfbf" points="230,-118 123,-118 123,-99 230,-99 230,-118"/>
<text text-anchor="middle" x="176.5" y="-106" font-family="Helvetica,sans-Serif" font-size="10.00">_MPEGMacroBlock8</text>
</a>
</g>
</g>
<!-- Node3&#45;&gt;Node1 -->
<g id="edge2" class="edge">
<title>Node3&#45;&gt;Node1</title>
<path fill="none" stroke="#9a32cd" stroke-dasharray="5,2" d="M179.89,-87.55C183.12,-72.65 189.09,-52.3 199.5,-37 204.21,-30.08 211.22,-23.99 217.48,-19.4"/>
<polygon fill="#9a32cd" stroke="#9a32cd" points="176.51,-86.59 178.06,-97.07 183.38,-87.91 176.51,-86.59"/>
<text text-anchor="middle" x="232.5" y="-73" font-family="Helvetica,sans-Serif" font-size="10.00"> m_pAuxFrame</text>
<text text-anchor="middle" x="232.5" y="-62" font-family="Helvetica,sans-Serif" font-size="10.00">m_pBckFrame</text>
<text text-anchor="middle" x="232.5" y="-51" font-family="Helvetica,sans-Serif" font-size="10.00">m_pCurFrame</text>
<text text-anchor="middle" x="232.5" y="-40" font-family="Helvetica,sans-Serif" font-size="10.00">m_pFwdFrame</text>
</g>
<!-- Node4 -->
<g id="node4" class="node">
<title>Node4</title>
<g id="a_node4"><a xlink:href="libmpeg__internal_8h.html#struct___m_p_e_g_m_b_x_y" target="_top" xlink:title=" ">
<polygon fill="white" stroke="#bfbfbf" points="327,-118 248,-118 248,-99 327,-99 327,-118"/>
<text text-anchor="middle" x="287.5" y="-106" font-family="Helvetica,sans-Serif" font-size="10.00">_MPEGMBXY</text>
</a>
</g>
</g>
<!-- Node4&#45;&gt;Node1 -->
<g id="edge3" class="edge">
<title>Node4&#45;&gt;Node1</title>
<path fill="none" stroke="#9a32cd" stroke-dasharray="5,2" d="M284.57,-87.46C281.64,-72.52 275.99,-52.15 265.5,-37 260.64,-29.99 253.37,-23.96 246.79,-19.44"/>
<polygon fill="#9a32cd" stroke="#9a32cd" points="281.07,-87.74 286.19,-97.02 287.97,-86.57 281.07,-87.74"/>
<text text-anchor="middle" x="307.5" y="-56.5" font-family="Helvetica,sans-Serif" font-size="10.00"> m_pMBXY</text>
</g>
<!-- Node5 -->
<g id="node5" class="node">
<title>Node5</title>
<g id="a_node5"><a xlink:href="struct___m_p_e_g_motions.html" target="_top" xlink:title=" ">
<polygon fill="white" stroke="#bfbfbf" points="430,-118 345,-118 345,-99 430,-99 430,-118"/>
<text text-anchor="middle" x="387.5" y="-106" font-family="Helvetica,sans-Serif" font-size="10.00">_MPEGMotions</text>
</a>
</g>
</g>
<!-- Node5&#45;&gt;Node1 -->
<g id="edge4" class="edge">
<title>Node5&#45;&gt;Node1</title>
<path fill="none" stroke="#9a32cd" stroke-dasharray="5,2" d="M378.62,-88.67C370.06,-72.55 355.6,-49.95 336.5,-37 317.91,-24.39 293.79,-17.78 273.36,-14.31"/>
<polygon fill="#9a32cd" stroke="#9a32cd" points="375.31,-89.86 382.91,-97.24 381.57,-86.73 375.31,-89.86"/>
<text text-anchor="middle" x="408" y="-62" font-family="Helvetica,sans-Serif" font-size="10.00"> m_MC</text>
<text text-anchor="middle" x="408" y="-51" font-family="Helvetica,sans-Serif" font-size="10.00">m_pCurMotions</text>
</g>
<!-- Node6 -->
<g id="node6" class="node">
<title>Node6</title>
<g id="a_node6"><a xlink:href="struct___m_p_e_g_motion.html" target="_top" xlink:title=" ">
<polygon fill="white" stroke="#bfbfbf" points="427.5,-184 347.5,-184 347.5,-165 427.5,-165 427.5,-184"/>
<text text-anchor="middle" x="387.5" y="-172" font-family="Helvetica,sans-Serif" font-size="10.00">_MPEGMotion</text>
</a>
</g>
</g>
<!-- Node6&#45;&gt;Node5 -->
<g id="edge5" class="edge">
<title>Node6&#45;&gt;Node5</title>
<path fill="none" stroke="#9a32cd" stroke-dasharray="5,2" d="M387.5,-153.18C387.5,-141.44 387.5,-127.27 387.5,-118.32"/>
<polygon fill="#9a32cd" stroke="#9a32cd" points="384,-153.09 387.5,-163.09 391,-153.09 384,-153.09"/>
<text text-anchor="middle" x="410.5" y="-139" font-family="Helvetica,sans-Serif" font-size="10.00"> m_Motion</text>
</g>
</g>
</svg>
