<?xml version="1.0" encoding="UTF-8" standalone="no"?>
<!DOCTYPE svg PUBLIC "-//W3C//DTD SVG 1.1//EN"
 "http://www.w3.org/Graphics/SVG/1.1/DTD/svg11.dtd">
<!-- Generated by graphviz version 7.0.5 (20221223.1930)
 -->
<!-- Title: _fs_dir Pages: 1 -->
<svg width="265pt" height="225pt"
 viewBox="0.00 0.00 264.50 225.00" xmlns="http://www.w3.org/2000/svg" xmlns:xlink="http://www.w3.org/1999/xlink">
<g id="graph0" class="graph" transform="scale(1 1) rotate(0) translate(4 221)">
<title>_fs_dir</title>
<!-- Node1 -->
<g id="node1" class="node">
<title>Node1</title>
<g id="a_node1"><a xlink:title=" ">
<polygon fill="#999999" stroke="#666666" points="167,-19 121,-19 121,0 167,0 167,-19"/>
<text text-anchor="middle" x="144" y="-7" font-family="Helvetica,sans-Serif" font-size="10.00">_fs_dir</text>
</a>
</g>
</g>
<!-- Node2 -->
<g id="node2" class="node">
<title>Node2</title>
<g id="a_node2"><a xlink:href="structfs__dirent.html" target="_top" xlink:title=" ">
<polygon fill="white" stroke="#bfbfbf" points="171,-85 117,-85 117,-66 171,-66 171,-85"/>
<text text-anchor="middle" x="144" y="-73" font-family="Helvetica,sans-Serif" font-size="10.00">fs_dirent</text>
</a>
</g>
</g>
<!-- Node2&#45;&gt;Node1 -->
<g id="edge1" class="edge">
<title>Node2&#45;&gt;Node1</title>
<path fill="none" stroke="#9a32cd" stroke-dasharray="5,2" d="M144,-54.18C144,-42.44 144,-28.27 144,-19.32"/>
<polygon fill="#9a32cd" stroke="#9a32cd" points="140.5,-54.09 144,-64.09 147.5,-54.09 140.5,-54.09"/>
<text text-anchor="middle" x="157.5" y="-40" font-family="Helvetica,sans-Serif" font-size="10.00"> dirent</text>
</g>
<!-- Node3 -->
<g id="node3" class="node">
<title>Node3</title>
<g id="a_node3"><a xlink:href="struct__fat__dir.html" target="_top" xlink:title=" ">
<polygon fill="white" stroke="#bfbfbf" points="79.5,-151 30.5,-151 30.5,-132 79.5,-132 79.5,-151"/>
<text text-anchor="middle" x="55" y="-139" font-family="Helvetica,sans-Serif" font-size="10.00">_fat_dir</text>
</a>
</g>
</g>
<!-- Node3&#45;&gt;Node1 -->
<g id="edge5" class="edge">
<title>Node3&#45;&gt;Node1</title>
<path fill="none" stroke="#9a32cd" stroke-dasharray="5,2" d="M47.21,-120.87C42.24,-105.02 38.38,-82.68 48,-66 63.49,-39.15 97.47,-24.12 120.55,-16.67"/>
<polygon fill="#9a32cd" stroke="#9a32cd" points="43.84,-121.86 50.5,-130.1 50.44,-119.51 43.84,-121.86"/>
<text text-anchor="middle" x="78" y="-73" font-family="Helvetica,sans-Serif" font-size="10.00"> current_fatdir</text>
</g>
<!-- Node3&#45;&gt;Node2 -->
<g id="edge2" class="edge">
<title>Node3&#45;&gt;Node2</title>
<path fill="none" stroke="#9a32cd" stroke-dasharray="5,2" d="M76.71,-124.89C93.99,-112.46 117.56,-95.51 131.73,-85.32"/>
<polygon fill="#9a32cd" stroke="#9a32cd" points="74.68,-122.04 68.6,-130.72 78.77,-127.72 74.68,-122.04"/>
<text text-anchor="middle" x="117.5" y="-106" font-family="Helvetica,sans-Serif" font-size="10.00"> fatdir</text>
</g>
<!-- Node4 -->
<g id="node4" class="node">
<title>Node4</title>
<g id="a_node4"><a xlink:href="struct__fat__dir__chain__record.html" target="_top" xlink:title=" ">
<polygon fill="white" stroke="#bfbfbf" points="110,-217 0,-217 0,-198 110,-198 110,-217"/>
<text text-anchor="middle" x="55" y="-205" font-family="Helvetica,sans-Serif" font-size="10.00">_fat_dir_chain_record</text>
</a>
</g>
</g>
<!-- Node4&#45;&gt;Node3 -->
<g id="edge3" class="edge">
<title>Node4&#45;&gt;Node3</title>
<path fill="none" stroke="#9a32cd" stroke-dasharray="5,2" d="M55,-186.18C55,-174.44 55,-160.27 55,-151.32"/>
<polygon fill="#9a32cd" stroke="#9a32cd" points="51.5,-186.09 55,-196.09 58.5,-186.09 51.5,-186.09"/>
<text text-anchor="middle" x="68" y="-172" font-family="Helvetica,sans-Serif" font-size="10.00"> chain</text>
</g>
<!-- Node5 -->
<g id="node5" class="node">
<title>Node5</title>
<g id="a_node5"><a xlink:href="struct__fat__dir__list.html" target="_top" xlink:title=" ">
<polygon fill="white" stroke="#bfbfbf" points="256.5,-85 189.5,-85 189.5,-66 256.5,-66 256.5,-85"/>
<text text-anchor="middle" x="223" y="-73" font-family="Helvetica,sans-Serif" font-size="10.00">_fat_dir_list</text>
</a>
</g>
</g>
<!-- Node5&#45;&gt;Node1 -->
<g id="edge4" class="edge">
<title>Node5&#45;&gt;Node1</title>
<path fill="none" stroke="#9a32cd" stroke-dasharray="5,2" d="M203.3,-58.54C188,-46.14 167.35,-29.42 154.89,-19.32"/>
<polygon fill="#9a32cd" stroke="#9a32cd" points="200.87,-61.07 210.84,-64.65 205.27,-55.63 200.87,-61.07"/>
<text text-anchor="middle" x="204" y="-40" font-family="Helvetica,sans-Serif" font-size="10.00"> fatdlist</text>
</g>
</g>
</svg>
