<?xml version="1.0" encoding="UTF-8" standalone="no"?>
<!DOCTYPE svg PUBLIC "-//W3C//DTD SVG 1.1//EN"
 "http://www.w3.org/Graphics/SVG/1.1/DTD/svg11.dtd">
<!-- Generated by graphviz version 7.0.5 (20221223.1930)
 -->
<!-- Title: GS_TRIANGLE_GT3ST Pages: 1 -->
<svg width="257pt" height="181pt"
 viewBox="0.00 0.00 256.50 181.00" xmlns="http://www.w3.org/2000/svg" xmlns:xlink="http://www.w3.org/1999/xlink">
<g id="graph0" class="graph" transform="scale(1 1) rotate(0) translate(4 177)">
<title>GS_TRIANGLE_GT3ST</title>
<!-- Node1 -->
<g id="node1" class="node">
<title>Node1</title>
<g id="a_node1"><a xlink:title=" ">
<polygon fill="#999999" stroke="#666666" points="192.5,-19 70.5,-19 70.5,0 192.5,0 192.5,-19"/>
<text text-anchor="middle" x="131.5" y="-7" font-family="Helvetica,sans-Serif" font-size="10.00">GS_TRIANGLE_GT3ST</text>
</a>
</g>
</g>
<!-- Node2 -->
<g id="node2" class="node">
<title>Node2</title>
<g id="a_node2"><a xlink:href="libgs_8h.html#struct_g_s___r___r_g_b_a_q" target="_top" xlink:title=" ">
<polygon fill="white" stroke="#bfbfbf" points="83,-107 0,-107 0,-88 83,-88 83,-107"/>
<text text-anchor="middle" x="41.5" y="-95" font-family="Helvetica,sans-Serif" font-size="10.00">GS_R_RGBAQ</text>
</a>
</g>
</g>
<!-- Node2&#45;&gt;Node1 -->
<g id="edge1" class="edge">
<title>Node2&#45;&gt;Node1</title>
<path fill="none" stroke="#9a32cd" stroke-dasharray="5,2" d="M56.04,-78.68C66.45,-66.39 81.12,-49.98 95.5,-37 102.53,-30.66 111.03,-24.34 118.01,-19.47"/>
<polygon fill="#9a32cd" stroke="#9a32cd" points="53.36,-76.43 49.65,-86.36 58.74,-80.91 53.36,-76.43"/>
<text text-anchor="middle" x="111.5" y="-62" font-family="Helvetica,sans-Serif" font-size="10.00"> rgbaq0</text>
<text text-anchor="middle" x="111.5" y="-51" font-family="Helvetica,sans-Serif" font-size="10.00">rgbaq1</text>
<text text-anchor="middle" x="111.5" y="-40" font-family="Helvetica,sans-Serif" font-size="10.00">rgbaq2</text>
</g>
<!-- Node3 -->
<g id="node3" class="node">
<title>Node3</title>
<g id="a_node3"><a xlink:href="libgs_8h.html#struct_g_s___r_g_b_a_q" target="_top" xlink:title=" ">
<polygon fill="white" stroke="#bfbfbf" points="77,-173 6,-173 6,-154 77,-154 77,-173"/>
<text text-anchor="middle" x="41.5" y="-161" font-family="Helvetica,sans-Serif" font-size="10.00">GS_RGBAQ</text>
</a>
</g>
</g>
<!-- Node3&#45;&gt;Node2 -->
<g id="edge2" class="edge">
<title>Node3&#45;&gt;Node2</title>
<path fill="none" stroke="#9a32cd" stroke-dasharray="5,2" d="M41.5,-142.18C41.5,-130.44 41.5,-116.27 41.5,-107.32"/>
<polygon fill="#9a32cd" stroke="#9a32cd" points="38,-142.09 41.5,-152.09 45,-142.09 38,-142.09"/>
<text text-anchor="middle" x="52.5" y="-128" font-family="Helvetica,sans-Serif" font-size="10.00"> data</text>
</g>
<!-- Node4 -->
<g id="node4" class="node">
<title>Node4</title>
<g id="a_node4"><a xlink:href="libgs_8h.html#struct_g_s___r___s_t" target="_top" xlink:title=" ">
<polygon fill="white" stroke="#bfbfbf" points="162,-107 101,-107 101,-88 162,-88 162,-107"/>
<text text-anchor="middle" x="131.5" y="-95" font-family="Helvetica,sans-Serif" font-size="10.00">GS_R_ST</text>
</a>
</g>
</g>
<!-- Node4&#45;&gt;Node1 -->
<g id="edge3" class="edge">
<title>Node4&#45;&gt;Node1</title>
<path fill="none" stroke="#9a32cd" stroke-dasharray="5,2" d="M131.5,-76.37C131.5,-58.37 131.5,-32.83 131.5,-19.46"/>
<polygon fill="#9a32cd" stroke="#9a32cd" points="128,-76.11 131.5,-86.11 135,-76.11 128,-76.11"/>
<text text-anchor="middle" x="139.5" y="-62" font-family="Helvetica,sans-Serif" font-size="10.00"> st0</text>
<text text-anchor="middle" x="139.5" y="-51" font-family="Helvetica,sans-Serif" font-size="10.00">st1</text>
<text text-anchor="middle" x="139.5" y="-40" font-family="Helvetica,sans-Serif" font-size="10.00">st2</text>
</g>
<!-- Node5 -->
<g id="node5" class="node">
<title>Node5</title>
<g id="a_node5"><a xlink:href="libgs_8h.html#struct_g_s___s_t" target="_top" xlink:title=" ">
<polygon fill="white" stroke="#bfbfbf" points="156,-173 107,-173 107,-154 156,-154 156,-173"/>
<text text-anchor="middle" x="131.5" y="-161" font-family="Helvetica,sans-Serif" font-size="10.00">GS_ST</text>
</a>
</g>
</g>
<!-- Node5&#45;&gt;Node4 -->
<g id="edge4" class="edge">
<title>Node5&#45;&gt;Node4</title>
<path fill="none" stroke="#9a32cd" stroke-dasharray="5,2" d="M131.5,-142.18C131.5,-130.44 131.5,-116.27 131.5,-107.32"/>
<polygon fill="#9a32cd" stroke="#9a32cd" points="128,-142.09 131.5,-152.09 135,-142.09 128,-142.09"/>
<text text-anchor="middle" x="142.5" y="-128" font-family="Helvetica,sans-Serif" font-size="10.00"> data</text>
</g>
<!-- Node6 -->
<g id="node6" class="node">
<title>Node6</title>
<g id="a_node6"><a xlink:href="libgs_8h.html#struct_g_s___r___x_y_z" target="_top" xlink:title=" ">
<polygon fill="white" stroke="#bfbfbf" points="248.5,-107 180.5,-107 180.5,-88 248.5,-88 248.5,-107"/>
<text text-anchor="middle" x="214.5" y="-95" font-family="Helvetica,sans-Serif" font-size="10.00">GS_R_XYZ</text>
</a>
</g>
</g>
<!-- Node6&#45;&gt;Node1 -->
<g id="edge5" class="edge">
<title>Node6&#45;&gt;Node1</title>
<path fill="none" stroke="#9a32cd" stroke-dasharray="5,2" d="M198.25,-79.66C180.84,-61.63 153.87,-33.67 140.15,-19.46"/>
<polygon fill="#9a32cd" stroke="#9a32cd" points="195.42,-81.77 204.88,-86.53 200.45,-76.91 195.42,-81.77"/>
<text text-anchor="middle" x="199.5" y="-62" font-family="Helvetica,sans-Serif" font-size="10.00"> xyz0</text>
<text text-anchor="middle" x="199.5" y="-51" font-family="Helvetica,sans-Serif" font-size="10.00">xyz1</text>
<text text-anchor="middle" x="199.5" y="-40" font-family="Helvetica,sans-Serif" font-size="10.00">xyz2</text>
</g>
<!-- Node7 -->
<g id="node7" class="node">
<title>Node7</title>
<g id="a_node7"><a xlink:href="libgs_8h.html#struct_g_s___x_y_z" target="_top" xlink:title=" ">
<polygon fill="white" stroke="#bfbfbf" points="242.5,-173 186.5,-173 186.5,-154 242.5,-154 242.5,-173"/>
<text text-anchor="middle" x="214.5" y="-161" font-family="Helvetica,sans-Serif" font-size="10.00">GS_XYZ</text>
</a>
</g>
</g>
<!-- Node7&#45;&gt;Node6 -->
<g id="edge6" class="edge">
<title>Node7&#45;&gt;Node6</title>
<path fill="none" stroke="#9a32cd" stroke-dasharray="5,2" d="M214.5,-142.18C214.5,-130.44 214.5,-116.27 214.5,-107.32"/>
<polygon fill="#9a32cd" stroke="#9a32cd" points="211,-142.09 214.5,-152.09 218,-142.09 211,-142.09"/>
<text text-anchor="middle" x="225.5" y="-128" font-family="Helvetica,sans-Serif" font-size="10.00"> data</text>
</g>
</g>
</svg>
