<?xml version="1.0" encoding="UTF-8" standalone="no"?>
<!DOCTYPE svg PUBLIC "-//W3C//DTD SVG 1.1//EN"
 "http://www.w3.org/Graphics/SVG/1.1/DTD/svg11.dtd">
<!-- Generated by graphviz version 7.0.5 (20221223.1930)
 -->
<!-- Title: netif Pages: 1 -->
<svg width="153pt" height="129pt"
 viewBox="0.00 0.00 153.00 129.00" xmlns="http://www.w3.org/2000/svg" xmlns:xlink="http://www.w3.org/1999/xlink">
<g id="graph0" class="graph" transform="scale(1 1) rotate(0) translate(4 125)">
<title>netif</title>
<!-- Node1 -->
<g id="node1" class="node">
<title>Node1</title>
<g id="a_node1"><a xlink:title=" ">
<polygon fill="#999999" stroke="#666666" points="74,-26 39,-26 39,-7 74,-7 74,-26"/>
<text text-anchor="middle" x="56.5" y="-14" font-family="Helvetica,sans-Serif" font-size="10.00">netif</text>
</a>
</g>
</g>
<!-- Node1&#45;&gt;Node1 -->
<g id="edge1" class="edge">
<title>Node1&#45;&gt;Node1</title>
<path fill="none" stroke="#9a32cd" stroke-dasharray="5,2" d="M85.73,-24.89C89.5,-23.44 92,-20.64 92,-16.5 92,-8.93 83.66,-5.85 74.4,-7.27"/>
<polygon fill="#9a32cd" stroke="#9a32cd" points="85.62,-21.39 75.91,-25.61 86.14,-28.37 85.62,-21.39"/>
<text text-anchor="middle" x="114.5" y="-25" font-family="Helvetica,sans-Serif" font-size="10.00"> linkoutput</text>
<text text-anchor="middle" x="114.5" y="-14" font-family="Helvetica,sans-Serif" font-size="10.00">next</text>
<text text-anchor="middle" x="114.5" y="-3" font-family="Helvetica,sans-Serif" font-size="10.00">output</text>
</g>
<!-- Node2 -->
<g id="node2" class="node">
<title>Node2</title>
<g id="a_node2"><a xlink:href="tcpip_8h.html#structip4__addr" target="_top" xlink:title=" ">
<polygon fill="white" stroke="#666666" points="53,-121 0,-121 0,-102 53,-102 53,-121"/>
<text text-anchor="middle" x="26.5" y="-109" font-family="Helvetica,sans-Serif" font-size="10.00">ip4_addr</text>
</a>
</g>
</g>
<!-- Node2&#45;&gt;Node1 -->
<g id="edge2" class="edge">
<title>Node2&#45;&gt;Node1</title>
<path fill="none" stroke="#9a32cd" stroke-dasharray="5,2" d="M23.49,-90.36C22.52,-78.52 22.73,-63.47 27.5,-51 31.24,-41.23 39.19,-32.38 45.82,-26.24"/>
<polygon fill="#9a32cd" stroke="#9a32cd" points="20,-90.66 24.65,-100.17 26.95,-89.83 20,-90.66"/>
<text text-anchor="middle" x="46.5" y="-76" font-family="Helvetica,sans-Serif" font-size="10.00"> gw</text>
<text text-anchor="middle" x="46.5" y="-65" font-family="Helvetica,sans-Serif" font-size="10.00">ip_addr</text>
<text text-anchor="middle" x="46.5" y="-54" font-family="Helvetica,sans-Serif" font-size="10.00">netmask</text>
</g>
<!-- Node3 -->
<g id="node3" class="node">
<title>Node3</title>
<g id="a_node3"><a xlink:href="tcpip_8h.html#structpbuf" target="_top" xlink:title=" ">
<polygon fill="white" stroke="#666666" points="106,-121 71,-121 71,-102 106,-102 106,-121"/>
<text text-anchor="middle" x="88.5" y="-109" font-family="Helvetica,sans-Serif" font-size="10.00">pbuf</text>
</a>
</g>
</g>
<!-- Node3&#45;&gt;Node1 -->
<g id="edge3" class="edge">
<title>Node3&#45;&gt;Node1</title>
<path fill="none" stroke="#9a32cd" stroke-dasharray="5,2" d="M81.77,-90.95C74.91,-71.01 64.58,-40.97 59.51,-26.25"/>
<polygon fill="#9a32cd" stroke="#9a32cd" points="78.38,-91.83 84.94,-100.15 85,-89.56 78.38,-91.83"/>
<text text-anchor="middle" x="90.5" y="-65" font-family="Helvetica,sans-Serif" font-size="10.00"> input</text>
</g>
<!-- Node3&#45;&gt;Node3 -->
<g id="edge4" class="edge">
<title>Node3&#45;&gt;Node3</title>
<path fill="none" stroke="#9a32cd" stroke-dasharray="5,2" d="M117.73,-118.74C121.5,-117.48 124,-115.07 124,-111.5 124,-104.97 115.66,-102.32 106.4,-103.54"/>
<polygon fill="#9a32cd" stroke="#9a32cd" points="117.67,-115.23 107.91,-119.36 118.11,-122.22 117.67,-115.23"/>
<text text-anchor="middle" x="134.5" y="-109" font-family="Helvetica,sans-Serif" font-size="10.00"> next</text>
</g>
</g>
</svg>
