<?xml version="1.0" encoding="UTF-8" standalone="no"?>
<!DOCTYPE svg PUBLIC "-//W3C//DTD SVG 1.1//EN"
 "http://www.w3.org/Graphics/SVG/1.1/DTD/svg11.dtd">
<!-- Generated by graphviz version 7.0.5 (20221223.1930)
 -->
<!-- Title: SmapDriverData Pages: 1 -->
<svg width="195pt" height="93pt"
 viewBox="0.00 0.00 194.50 93.00" xmlns="http://www.w3.org/2000/svg" xmlns:xlink="http://www.w3.org/1999/xlink">
<g id="graph0" class="graph" transform="scale(1 1) rotate(0) translate(4 89)">
<title>SmapDriverData</title>
<!-- Node1 -->
<g id="node1" class="node">
<title>Node1</title>
<g id="a_node1"><a xlink:title=" ">
<polygon fill="#999999" stroke="#666666" points="134.5,-19 46.5,-19 46.5,0 134.5,0 134.5,-19"/>
<text text-anchor="middle" x="90.5" y="-7" font-family="Helvetica,sans-Serif" font-size="10.00">SmapDriverData</text>
</a>
</g>
</g>
<!-- Node2 -->
<g id="node2" class="node">
<title>Node2</title>
<g id="a_node2"><a xlink:href="thbase_8h.html#struct__iop__sys__clock" target="_top" xlink:title=" ">
<polygon fill="white" stroke="#bfbfbf" points="83,-85 0,-85 0,-66 83,-66 83,-85"/>
<text text-anchor="middle" x="41.5" y="-73" font-family="Helvetica,sans-Serif" font-size="10.00">_iop_sys_clock</text>
</a>
</g>
</g>
<!-- Node2&#45;&gt;Node1 -->
<g id="edge1" class="edge">
<title>Node2&#45;&gt;Node1</title>
<path fill="none" stroke="#9a32cd" stroke-dasharray="5,2" d="M39.01,-54.44C39.17,-48.46 40.32,-42.13 43.5,-37 48.34,-29.2 56.36,-23.49 64.42,-19.41"/>
<polygon fill="#9a32cd" stroke="#9a32cd" points="35.51,-54.49 39.63,-64.25 42.5,-54.05 35.51,-54.49"/>
<text text-anchor="middle" x="80.5" y="-40" font-family="Helvetica,sans-Serif" font-size="10.00"> LinkCheckTimer</text>
</g>
<!-- Node3 -->
<g id="node3" class="node">
<title>Node3</title>
<g id="a_node3"><a xlink:href="struct_runtime_stats.html" target="_top" xlink:title=" ">
<polygon fill="white" stroke="#bfbfbf" points="177.5,-85 101.5,-85 101.5,-66 177.5,-66 177.5,-85"/>
<text text-anchor="middle" x="139.5" y="-73" font-family="Helvetica,sans-Serif" font-size="10.00">RuntimeStats</text>
</a>
</g>
</g>
<!-- Node3&#45;&gt;Node1 -->
<g id="edge2" class="edge">
<title>Node3&#45;&gt;Node1</title>
<path fill="none" stroke="#9a32cd" stroke-dasharray="5,2" d="M129.98,-56.07C126.4,-49.79 122.08,-42.87 117.5,-37 112.57,-30.68 106.21,-24.37 100.9,-19.49"/>
<polygon fill="#9a32cd" stroke="#9a32cd" points="126.66,-57.29 134.49,-64.42 132.81,-53.96 126.66,-57.29"/>
<text text-anchor="middle" x="155.5" y="-40" font-family="Helvetica,sans-Serif" font-size="10.00"> RuntimeStats</text>
</g>
</g>
</svg>
