<?xml version="1.0" encoding="UTF-8" standalone="no"?>
<!DOCTYPE svg PUBLIC "-//W3C//DTD SVG 1.1//EN"
 "http://www.w3.org/Graphics/SVG/1.1/DTD/svg11.dtd">
<!-- Generated by graphviz version 7.0.5 (20221223.1930)
 -->
<!-- Title: AHXInstrument Pages: 1 -->
<svg width="175pt" height="159pt"
 viewBox="0.00 0.00 175.00 159.00" xmlns="http://www.w3.org/2000/svg" xmlns:xlink="http://www.w3.org/1999/xlink">
<g id="graph0" class="graph" transform="scale(1 1) rotate(0) translate(4 155)">
<title>AHXInstrument</title>
<!-- Node1 -->
<g id="node1" class="node">
<title>Node1</title>
<g id="a_node1"><a xlink:title=" ">
<polygon fill="#999999" stroke="#666666" points="118.5,-19 34.5,-19 34.5,0 118.5,0 118.5,-19"/>
<text text-anchor="middle" x="76.5" y="-7" font-family="Helvetica,sans-Serif" font-size="10.00">AHXInstrument</text>
</a>
</g>
</g>
<!-- Node2 -->
<g id="node2" class="node">
<title>Node2</title>
<g id="a_node2"><a xlink:href="ahx_8h.html#struct_a_h_x_envelope" target="_top" xlink:title=" ">
<polygon fill="white" stroke="#bfbfbf" points="77,-85 0,-85 0,-66 77,-66 77,-85"/>
<text text-anchor="middle" x="38.5" y="-73" font-family="Helvetica,sans-Serif" font-size="10.00">AHXEnvelope</text>
</a>
</g>
</g>
<!-- Node2&#45;&gt;Node1 -->
<g id="edge1" class="edge">
<title>Node2&#45;&gt;Node1</title>
<path fill="none" stroke="#9a32cd" stroke-dasharray="5,2" d="M42.34,-54.53C44,-48.62 46.31,-42.32 49.5,-37 53.55,-30.24 59.74,-23.99 65.17,-19.27"/>
<polygon fill="#9a32cd" stroke="#9a32cd" points="38.95,-53.65 40.13,-64.18 45.77,-55.21 38.95,-53.65"/>
<text text-anchor="middle" x="71" y="-40" font-family="Helvetica,sans-Serif" font-size="10.00"> Envelope</text>
</g>
<!-- Node3 -->
<g id="node3" class="node">
<title>Node3</title>
<g id="a_node3"><a xlink:href="ahx_8h.html#struct_a_h_x_p_list" target="_top" xlink:title=" ">
<polygon fill="white" stroke="#bfbfbf" points="156,-85 95,-85 95,-66 156,-66 156,-85"/>
<text text-anchor="middle" x="125.5" y="-73" font-family="Helvetica,sans-Serif" font-size="10.00">AHXPList</text>
</a>
</g>
</g>
<!-- Node3&#45;&gt;Node1 -->
<g id="edge2" class="edge">
<title>Node3&#45;&gt;Node1</title>
<path fill="none" stroke="#9a32cd" stroke-dasharray="5,2" d="M111.92,-56.76C102.59,-44.58 90.62,-28.94 83.26,-19.32"/>
<polygon fill="#9a32cd" stroke="#9a32cd" points="108.91,-58.59 117.77,-64.4 114.47,-54.33 108.91,-58.59"/>
<text text-anchor="middle" x="116.5" y="-40" font-family="Helvetica,sans-Serif" font-size="10.00"> PList</text>
</g>
<!-- Node4 -->
<g id="node4" class="node">
<title>Node4</title>
<g id="a_node4"><a xlink:href="ahx_8h.html#struct_a_h_x_p_list_entry" target="_top" xlink:title=" ">
<polygon fill="white" stroke="#bfbfbf" points="167,-151 84,-151 84,-132 167,-132 167,-151"/>
<text text-anchor="middle" x="125.5" y="-139" font-family="Helvetica,sans-Serif" font-size="10.00">AHXPListEntry</text>
</a>
</g>
</g>
<!-- Node4&#45;&gt;Node3 -->
<g id="edge3" class="edge">
<title>Node4&#45;&gt;Node3</title>
<path fill="none" stroke="#9a32cd" stroke-dasharray="5,2" d="M125.5,-120.18C125.5,-108.44 125.5,-94.27 125.5,-85.32"/>
<polygon fill="#9a32cd" stroke="#9a32cd" points="122,-120.09 125.5,-130.09 129,-120.09 122,-120.09"/>
<text text-anchor="middle" x="142" y="-106" font-family="Helvetica,sans-Serif" font-size="10.00"> Entries</text>
</g>
</g>
</svg>
