<?xml version="1.0" encoding="UTF-8" standalone="no"?>
<!DOCTYPE svg PUBLIC "-//W3C//DTD SVG 1.1//EN"
 "http://www.w3.org/Graphics/SVG/1.1/DTD/svg11.dtd">
<!-- Generated by graphviz version 7.0.5 (20221223.1930)
 -->
<!-- Title: _hcEd Pages: 1 -->
<svg width="91pt" height="104pt"
 viewBox="0.00 0.00 91.00 104.00" xmlns="http://www.w3.org/2000/svg" xmlns:xlink="http://www.w3.org/1999/xlink">
<g id="graph0" class="graph" transform="scale(1 1) rotate(0) translate(4 100)">
<title>_hcEd</title>
<!-- Node1 -->
<g id="node1" class="node">
<title>Node1</title>
<g id="a_node1"><a xlink:title=" ">
<polygon fill="#999999" stroke="#666666" points="44,-19 0,-19 0,0 44,0 44,-19"/>
<text text-anchor="middle" x="22" y="-7" font-family="Helvetica,sans-Serif" font-size="10.00">_hcEd</text>
</a>
</g>
</g>
<!-- Node1&#45;&gt;Node1 -->
<g id="edge3" class="edge">
<title>Node1&#45;&gt;Node1</title>
<path fill="none" stroke="#9a32cd" stroke-dasharray="5,2" d="M55.43,-15.7C59.4,-14.57 62,-12.5 62,-9.5 62,-4.16 53.8,-1.78 44.21,-2.37"/>
<polygon fill="#9a32cd" stroke="#9a32cd" points="55.4,-12.19 45.72,-16.51 55.98,-19.16 55.4,-12.19"/>
<text text-anchor="middle" x="72.5" y="-7" font-family="Helvetica,sans-Serif" font-size="10.00"> next</text>
</g>
<!-- Node2 -->
<g id="node2" class="node">
<title>Node2</title>
<g id="a_node2"><a xlink:href="usbdpriv_8h.html#struct__hc_td" target="_top" xlink:title=" ">
<polygon fill="white" stroke="#bfbfbf" points="44,-96 0,-96 0,-77 44,-77 44,-96"/>
<text text-anchor="middle" x="22" y="-84" font-family="Helvetica,sans-Serif" font-size="10.00">_hcTd</text>
</a>
</g>
</g>
<!-- Node2&#45;&gt;Node1 -->
<g id="edge1" class="edge">
<title>Node2&#45;&gt;Node1</title>
<path fill="none" stroke="#9a32cd" stroke-dasharray="5,2" d="M22,-65.42C22,-50.43 22,-30.66 22,-19.39"/>
<polygon fill="#9a32cd" stroke="#9a32cd" points="18.5,-65.09 22,-75.09 25.5,-65.09 18.5,-65.09"/>
<text text-anchor="middle" x="39" y="-51" font-family="Helvetica,sans-Serif" font-size="10.00"> tdHead</text>
<text text-anchor="middle" x="39" y="-40" font-family="Helvetica,sans-Serif" font-size="10.00">tdTail</text>
</g>
<!-- Node2&#45;&gt;Node2 -->
<g id="edge2" class="edge">
<title>Node2&#45;&gt;Node2</title>
<path fill="none" stroke="#9a32cd" stroke-dasharray="5,2" d="M55.43,-92.7C59.4,-91.57 62,-89.5 62,-86.5 62,-81.16 53.8,-78.78 44.21,-79.37"/>
<polygon fill="#9a32cd" stroke="#9a32cd" points="55.4,-89.19 45.72,-93.51 55.98,-96.16 55.4,-89.19"/>
<text text-anchor="middle" x="72.5" y="-84" font-family="Helvetica,sans-Serif" font-size="10.00"> next</text>
</g>
</g>
</svg>
