<?xml version="1.0" encoding="UTF-8" standalone="no"?>
<!DOCTYPE svg PUBLIC "-//W3C//DTD SVG 1.1//EN"
 "http://www.w3.org/Graphics/SVG/1.1/DTD/svg11.dtd">
<!-- Generated by graphviz version 7.0.5 (20221223.1930)
 -->
<!-- Title: GS_TRIANGLE_F3 Pages: 1 -->
<svg width="178pt" height="181pt"
 viewBox="0.00 0.00 177.50 181.00" xmlns="http://www.w3.org/2000/svg" xmlns:xlink="http://www.w3.org/1999/xlink">
<g id="graph0" class="graph" transform="scale(1 1) rotate(0) translate(4 177)">
<title>GS_TRIANGLE_F3</title>
<!-- Node1 -->
<g id="node1" class="node">
<title>Node1</title>
<g id="a_node1"><a xlink:title=" ">
<polygon fill="#999999" stroke="#666666" points="138.5,-19 36.5,-19 36.5,0 138.5,0 138.5,-19"/>
<text text-anchor="middle" x="87.5" y="-7" font-family="Helvetica,sans-Serif" font-size="10.00">GS_TRIANGLE_F3</text>
</a>
</g>
</g>
<!-- Node2 -->
<g id="node2" class="node">
<title>Node2</title>
<g id="a_node2"><a xlink:href="libgs_8h.html#struct_g_s___r___r_g_b_a_q" target="_top" xlink:title=" ">
<polygon fill="white" stroke="#bfbfbf" points="83,-107 0,-107 0,-88 83,-88 83,-107"/>
<text text-anchor="middle" x="41.5" y="-95" font-family="Helvetica,sans-Serif" font-size="10.00">GS_R_RGBAQ</text>
</a>
</g>
</g>
<!-- Node2&#45;&gt;Node1 -->
<g id="edge1" class="edge">
<title>Node2&#45;&gt;Node1</title>
<path fill="none" stroke="#9a32cd" stroke-dasharray="5,2" d="M50.61,-77.51C56.38,-65.73 64.12,-50.35 71.5,-37 74.83,-30.98 78.83,-24.35 82,-19.23"/>
<polygon fill="#9a32cd" stroke="#9a32cd" points="47.64,-75.63 46.42,-86.16 53.94,-78.69 47.64,-75.63"/>
<text text-anchor="middle" x="87.5" y="-51" font-family="Helvetica,sans-Serif" font-size="10.00"> rgbaq0</text>
</g>
<!-- Node3 -->
<g id="node3" class="node">
<title>Node3</title>
<g id="a_node3"><a xlink:href="libgs_8h.html#struct_g_s___r_g_b_a_q" target="_top" xlink:title=" ">
<polygon fill="white" stroke="#bfbfbf" points="77,-173 6,-173 6,-154 77,-154 77,-173"/>
<text text-anchor="middle" x="41.5" y="-161" font-family="Helvetica,sans-Serif" font-size="10.00">GS_RGBAQ</text>
</a>
</g>
</g>
<!-- Node3&#45;&gt;Node2 -->
<g id="edge2" class="edge">
<title>Node3&#45;&gt;Node2</title>
<path fill="none" stroke="#9a32cd" stroke-dasharray="5,2" d="M41.5,-142.18C41.5,-130.44 41.5,-116.27 41.5,-107.32"/>
<polygon fill="#9a32cd" stroke="#9a32cd" points="38,-142.09 41.5,-152.09 45,-142.09 38,-142.09"/>
<text text-anchor="middle" x="52.5" y="-128" font-family="Helvetica,sans-Serif" font-size="10.00"> data</text>
</g>
<!-- Node4 -->
<g id="node4" class="node">
<title>Node4</title>
<g id="a_node4"><a xlink:href="libgs_8h.html#struct_g_s___r___x_y_z" target="_top" xlink:title=" ">
<polygon fill="white" stroke="#bfbfbf" points="169.5,-107 101.5,-107 101.5,-88 169.5,-88 169.5,-107"/>
<text text-anchor="middle" x="135.5" y="-95" font-family="Helvetica,sans-Serif" font-size="10.00">GS_R_XYZ</text>
</a>
</g>
</g>
<!-- Node4&#45;&gt;Node1 -->
<g id="edge3" class="edge">
<title>Node4&#45;&gt;Node1</title>
<path fill="none" stroke="#9a32cd" stroke-dasharray="5,2" d="M125.63,-77.57C119.42,-65.81 111.16,-50.43 103.5,-37 100.09,-31.02 96.09,-24.4 92.94,-19.27"/>
<polygon fill="#9a32cd" stroke="#9a32cd" points="122.42,-78.98 130.16,-86.21 128.62,-75.73 122.42,-78.98"/>
<text text-anchor="middle" x="132.5" y="-62" font-family="Helvetica,sans-Serif" font-size="10.00"> xyz0</text>
<text text-anchor="middle" x="132.5" y="-51" font-family="Helvetica,sans-Serif" font-size="10.00">xyz1</text>
<text text-anchor="middle" x="132.5" y="-40" font-family="Helvetica,sans-Serif" font-size="10.00">xyz2</text>
</g>
<!-- Node5 -->
<g id="node5" class="node">
<title>Node5</title>
<g id="a_node5"><a xlink:href="libgs_8h.html#struct_g_s___x_y_z" target="_top" xlink:title=" ">
<polygon fill="white" stroke="#bfbfbf" points="163.5,-173 107.5,-173 107.5,-154 163.5,-154 163.5,-173"/>
<text text-anchor="middle" x="135.5" y="-161" font-family="Helvetica,sans-Serif" font-size="10.00">GS_XYZ</text>
</a>
</g>
</g>
<!-- Node5&#45;&gt;Node4 -->
<g id="edge4" class="edge">
<title>Node5&#45;&gt;Node4</title>
<path fill="none" stroke="#9a32cd" stroke-dasharray="5,2" d="M135.5,-142.18C135.5,-130.44 135.5,-116.27 135.5,-107.32"/>
<polygon fill="#9a32cd" stroke="#9a32cd" points="132,-142.09 135.5,-152.09 139,-142.09 132,-142.09"/>
<text text-anchor="middle" x="146.5" y="-128" font-family="Helvetica,sans-Serif" font-size="10.00"> data</text>
</g>
</g>
</svg>
