<?xml version="1.0" encoding="UTF-8" standalone="no"?>
<!DOCTYPE svg PUBLIC "-//W3C//DTD SVG 1.1//EN"
 "http://www.w3.org/Graphics/SVG/1.1/DTD/svg11.dtd">
<!-- Generated by graphviz version 7.0.5 (20221223.1930)
 -->
<!-- Title: subdev_t Pages: 1 -->
<svg width="231pt" height="316pt"
 viewBox="0.00 0.00 231.29 316.00" xmlns="http://www.w3.org/2000/svg" xmlns:xlink="http://www.w3.org/1999/xlink">
<g id="graph0" class="graph" transform="scale(1 1) rotate(0) translate(4 312)">
<title>subdev_t</title>
<!-- Node1 -->
<g id="node1" class="node">
<title>Node1</title>
<g id="a_node1"><a xlink:title=" ">
<polygon fill="#999999" stroke="#666666" points="65.29,-242 9.29,-242 9.29,-223 65.29,-223 65.29,-242"/>
<text text-anchor="middle" x="37.29" y="-230" font-family="Helvetica,sans-Serif" font-size="10.00">subdev_t</text>
</a>
</g>
</g>
<!-- Node4 -->
<g id="node4" class="node">
<title>Node4</title>
<g id="a_node4"><a xlink:href="devfs_8c.html#struct__devfs__device" target="_top" xlink:title=" ">
<polygon fill="white" stroke="#bfbfbf" points="110.29,-86.5 30.29,-86.5 30.29,-67.5 110.29,-67.5 110.29,-86.5"/>
<text text-anchor="middle" x="70.29" y="-74.5" font-family="Helvetica,sans-Serif" font-size="10.00">_devfs_device</text>
</a>
</g>
</g>
<!-- Node1&#45;&gt;Node4 -->
<g id="edge8" class="edge">
<title>Node1&#45;&gt;Node4</title>
<path fill="none" stroke="#9a32cd" stroke-dasharray="5,2" d="M37.75,-211.09C38.58,-191.36 40.9,-160.76 47.29,-135 51.71,-117.19 60.58,-97.58 65.92,-86.63"/>
<polygon fill="#9a32cd" stroke="#9a32cd" points="34.26,-210.96 37.44,-221.06 41.25,-211.18 34.26,-210.96"/>
<text text-anchor="middle" x="67.29" y="-142" font-family="Helvetica,sans-Serif" font-size="10.00"> subdevs</text>
</g>
<!-- Node2 -->
<g id="node2" class="node">
<title>Node2</title>
<g id="a_node2"><a xlink:href="group__devfs.html#uniondevfs__loc__t" target="_top" xlink:title=" ">
<polygon fill="white" stroke="#666666" points="166.79,-308 99.79,-308 99.79,-289 166.79,-289 166.79,-308"/>
<text text-anchor="middle" x="133.29" y="-296" font-family="Helvetica,sans-Serif" font-size="10.00">devfs_loc_t</text>
</a>
</g>
</g>
<!-- Node2&#45;&gt;Node1 -->
<g id="edge1" class="edge">
<title>Node2&#45;&gt;Node1</title>
<path fill="none" stroke="#9a32cd" stroke-dasharray="5,2" d="M110.4,-282.24C91.71,-269.78 65.95,-252.61 50.53,-242.32"/>
<polygon fill="#9a32cd" stroke="#9a32cd" points="108.42,-285.13 118.68,-287.76 112.3,-279.3 108.42,-285.13"/>
<text text-anchor="middle" x="104.79" y="-263" font-family="Helvetica,sans-Serif" font-size="10.00"> extent</text>
</g>
<!-- Node3 -->
<g id="node3" class="node">
<title>Node3</title>
<g id="a_node3"><a xlink:href="devfs_8c.html#struct__ioman__data" target="_top" xlink:title=" ">
<polygon fill="white" stroke="#bfbfbf" points="106.29,-19 34.29,-19 34.29,0 106.29,0 106.29,-19"/>
<text text-anchor="middle" x="70.29" y="-7" font-family="Helvetica,sans-Serif" font-size="10.00">_ioman_data</text>
</a>
</g>
</g>
<!-- Node2&#45;&gt;Node3 -->
<g id="edge9" class="edge">
<title>Node2&#45;&gt;Node3</title>
<path fill="none" stroke="#9a32cd" stroke-dasharray="5,2" d="M167.36,-283.44C186.78,-272.92 207.29,-256.39 207.29,-233.5 207.29,-233.5 207.29,-233.5 207.29,-76 207.29,-31.31 147.23,-17.09 106.65,-12.58"/>
<polygon fill="#9a32cd" stroke="#9a32cd" points="165.87,-280.27 158.47,-287.86 168.98,-286.54 165.87,-280.27"/>
<text text-anchor="middle" x="215.29" y="-142" font-family="Helvetica,sans-Serif" font-size="10.00"> loc</text>
</g>
<!-- Node6 -->
<g id="node6" class="node">
<title>Node6</title>
<g id="a_node6"><a xlink:href="group__devfs.html#structdevfs__info__t" target="_top" xlink:title=" ">
<polygon fill="white" stroke="#666666" points="168.29,-242 98.29,-242 98.29,-223 168.29,-223 168.29,-242"/>
<text text-anchor="middle" x="133.29" y="-230" font-family="Helvetica,sans-Serif" font-size="10.00">devfs_info_t</text>
</a>
</g>
</g>
<!-- Node2&#45;&gt;Node6 -->
<g id="edge7" class="edge">
<title>Node2&#45;&gt;Node6</title>
<path fill="none" stroke="#9a32cd" stroke-dasharray="5,2" d="M133.29,-277.18C133.29,-265.44 133.29,-251.27 133.29,-242.32"/>
<polygon fill="#9a32cd" stroke="#9a32cd" points="129.79,-277.09 133.29,-287.09 136.79,-277.09 129.79,-277.09"/>
<text text-anchor="middle" x="141.29" y="-263" font-family="Helvetica,sans-Serif" font-size="10.00"> loc</text>
</g>
<!-- Node3&#45;&gt;Node1 -->
<g id="edge2" class="edge">
<title>Node3&#45;&gt;Node1</title>
<path fill="none" stroke="#9a32cd" stroke-dasharray="5,2" d="M52.03,-27.08C34.44,-44.61 9.48,-74.09 2.29,-106 -7.71,-150.35 19.57,-202.42 31.75,-222.75"/>
<polygon fill="#9a32cd" stroke="#9a32cd" points="54.07,-29.98 58.87,-20.53 49.23,-24.92 54.07,-29.98"/>
<text text-anchor="middle" x="25.29" y="-109" font-family="Helvetica,sans-Serif" font-size="10.00"> open_files</text>
</g>
<!-- Node4&#45;&gt;Node3 -->
<g id="edge3" class="edge">
<title>Node4&#45;&gt;Node3</title>
<path fill="none" stroke="#9a32cd" stroke-dasharray="5,2" d="M70.29,-55.74C70.29,-43.48 70.29,-28.47 70.29,-19.19"/>
<polygon fill="#9a32cd" stroke="#9a32cd" points="66.79,-55.65 70.29,-65.65 73.79,-55.65 66.79,-55.65"/>
<text text-anchor="middle" x="79.79" y="-40" font-family="Helvetica,sans-Serif" font-size="10.00"> dev</text>
</g>
<!-- Node4&#45;&gt;Node4 -->
<g id="edge4" class="edge">
<title>Node4&#45;&gt;Node4</title>
<path fill="none" stroke="#9a32cd" stroke-dasharray="5,2" d="M122.03,-81.83C125.91,-80.75 128.29,-79.14 128.29,-77 128.29,-73.19 120.76,-71.07 110.68,-70.62"/>
<polygon fill="#9a32cd" stroke="#9a32cd" points="121.61,-78.35 112.18,-83.18 122.56,-85.29 121.61,-78.35"/>
<text text-anchor="middle" x="140.29" y="-80" font-family="Helvetica,sans-Serif" font-size="10.00"> back</text>
<text text-anchor="middle" x="140.29" y="-69" font-family="Helvetica,sans-Serif" font-size="10.00">forw</text>
</g>
<!-- Node5 -->
<g id="node5" class="node">
<title>Node5</title>
<g id="a_node5"><a xlink:href="group__devfs.html#structdevfs__node__t" target="_top" xlink:title=" ">
<polygon fill="white" stroke="#666666" points="170.79,-154 95.79,-154 95.79,-135 170.79,-135 170.79,-154"/>
<text text-anchor="middle" x="133.29" y="-142" font-family="Helvetica,sans-Serif" font-size="10.00">devfs_node_t</text>
</a>
</g>
</g>
<!-- Node5&#45;&gt;Node4 -->
<g id="edge5" class="edge">
<title>Node5&#45;&gt;Node4</title>
<path fill="none" stroke="#9a32cd" stroke-dasharray="5,2" d="M117.08,-126.64C104.79,-113.87 88.42,-96.84 78.65,-86.69"/>
<polygon fill="#9a32cd" stroke="#9a32cd" points="114.29,-128.79 123.75,-133.58 119.34,-123.94 114.29,-128.79"/>
<text text-anchor="middle" x="119.29" y="-109" font-family="Helvetica,sans-Serif" font-size="10.00"> node</text>
</g>
<!-- Node6&#45;&gt;Node5 -->
<g id="edge6" class="edge">
<title>Node6&#45;&gt;Node5</title>
<path fill="none" stroke="#9a32cd" stroke-dasharray="5,2" d="M133.29,-211.37C133.29,-193.37 133.29,-167.83 133.29,-154.46"/>
<polygon fill="#9a32cd" stroke="#9a32cd" points="129.79,-211.11 133.29,-221.11 136.79,-211.11 129.79,-211.11"/>
<text text-anchor="middle" x="144.29" y="-197" font-family="Helvetica,sans-Serif" font-size="10.00"> ioctl</text>
<text text-anchor="middle" x="144.29" y="-186" font-family="Helvetica,sans-Serif" font-size="10.00">read</text>
<text text-anchor="middle" x="144.29" y="-175" font-family="Helvetica,sans-Serif" font-size="10.00">write</text>
</g>
</g>
</svg>
