<?xml version="1.0" encoding="UTF-8" standalone="no"?>
<!DOCTYPE svg PUBLIC "-//W3C//DTD SVG 1.1//EN"
 "http://www.w3.org/Graphics/SVG/1.1/DTD/svg11.dtd">
<!-- Generated by graphviz version 7.0.5 (20221223.1930)
 -->
<!-- Title: _fs_rec Pages: 1 -->
<svg width="118pt" height="225pt"
 viewBox="0.00 0.00 118.00 225.00" xmlns="http://www.w3.org/2000/svg" xmlns:xlink="http://www.w3.org/1999/xlink">
<g id="graph0" class="graph" transform="scale(1 1) rotate(0) translate(4 221)">
<title>_fs_rec</title>
<!-- Node1 -->
<g id="node1" class="node">
<title>Node1</title>
<g id="a_node1"><a xlink:title=" ">
<polygon fill="#999999" stroke="#666666" points="79.5,-19 30.5,-19 30.5,0 79.5,0 79.5,-19"/>
<text text-anchor="middle" x="55" y="-7" font-family="Helvetica,sans-Serif" font-size="10.00">_fs_rec</text>
</a>
</g>
</g>
<!-- Node2 -->
<g id="node2" class="node">
<title>Node2</title>
<g id="a_node2"><a xlink:href="structfs__dirent.html" target="_top" xlink:title=" ">
<polygon fill="white" stroke="#bfbfbf" points="82,-85 28,-85 28,-66 82,-66 82,-85"/>
<text text-anchor="middle" x="55" y="-73" font-family="Helvetica,sans-Serif" font-size="10.00">fs_dirent</text>
</a>
</g>
</g>
<!-- Node2&#45;&gt;Node1 -->
<g id="edge1" class="edge">
<title>Node2&#45;&gt;Node1</title>
<path fill="none" stroke="#9a32cd" stroke-dasharray="5,2" d="M55,-54.18C55,-42.44 55,-28.27 55,-19.32"/>
<polygon fill="#9a32cd" stroke="#9a32cd" points="51.5,-54.09 55,-64.09 58.5,-54.09 51.5,-54.09"/>
<text text-anchor="middle" x="68.5" y="-40" font-family="Helvetica,sans-Serif" font-size="10.00"> dirent</text>
</g>
<!-- Node3 -->
<g id="node3" class="node">
<title>Node3</title>
<g id="a_node3"><a xlink:href="struct__fat__dir.html" target="_top" xlink:title=" ">
<polygon fill="white" stroke="#bfbfbf" points="79.5,-151 30.5,-151 30.5,-132 79.5,-132 79.5,-151"/>
<text text-anchor="middle" x="55" y="-139" font-family="Helvetica,sans-Serif" font-size="10.00">_fat_dir</text>
</a>
</g>
</g>
<!-- Node3&#45;&gt;Node2 -->
<g id="edge2" class="edge">
<title>Node3&#45;&gt;Node2</title>
<path fill="none" stroke="#9a32cd" stroke-dasharray="5,2" d="M55,-120.18C55,-108.44 55,-94.27 55,-85.32"/>
<polygon fill="#9a32cd" stroke="#9a32cd" points="51.5,-120.09 55,-130.09 58.5,-120.09 51.5,-120.09"/>
<text text-anchor="middle" x="67.5" y="-106" font-family="Helvetica,sans-Serif" font-size="10.00"> fatdir</text>
</g>
<!-- Node4 -->
<g id="node4" class="node">
<title>Node4</title>
<g id="a_node4"><a xlink:href="struct__fat__dir__chain__record.html" target="_top" xlink:title=" ">
<polygon fill="white" stroke="#bfbfbf" points="110,-217 0,-217 0,-198 110,-198 110,-217"/>
<text text-anchor="middle" x="55" y="-205" font-family="Helvetica,sans-Serif" font-size="10.00">_fat_dir_chain_record</text>
</a>
</g>
</g>
<!-- Node4&#45;&gt;Node3 -->
<g id="edge3" class="edge">
<title>Node4&#45;&gt;Node3</title>
<path fill="none" stroke="#9a32cd" stroke-dasharray="5,2" d="M55,-186.18C55,-174.44 55,-160.27 55,-151.32"/>
<polygon fill="#9a32cd" stroke="#9a32cd" points="51.5,-186.09 55,-196.09 58.5,-186.09 51.5,-186.09"/>
<text text-anchor="middle" x="68" y="-172" font-family="Helvetica,sans-Serif" font-size="10.00"> chain</text>
</g>
</g>
</svg>
