<?xml version="1.0" encoding="UTF-8" standalone="no"?>
<!DOCTYPE svg PUBLIC "-//W3C//DTD SVG 1.1//EN"
 "http://www.w3.org/Graphics/SVG/1.1/DTD/svg11.dtd">
<!-- Generated by graphviz version 7.0.5 (20221223.1930)
 -->
<!-- Title: t_SifRpcBindPkt Pages: 1 -->
<svg width="285pt" height="250pt"
 viewBox="0.00 0.00 285.00 250.00" xmlns="http://www.w3.org/2000/svg" xmlns:xlink="http://www.w3.org/1999/xlink">
<g id="graph0" class="graph" transform="scale(1 1) rotate(0) translate(4 246)">
<title>t_SifRpcBindPkt</title>
<!-- Node1 -->
<g id="node1" class="node">
<title>Node1</title>
<g id="a_node1"><a xlink:title=" ">
<polygon fill="#999999" stroke="#666666" points="99,-108.5 10,-108.5 10,-89.5 99,-89.5 99,-108.5"/>
<text text-anchor="middle" x="54.5" y="-96.5" font-family="Helvetica,sans-Serif" font-size="10.00">t_SifRpcBindPkt</text>
</a>
</g>
</g>
<!-- Node2 -->
<g id="node2" class="node">
<title>Node2</title>
<g id="a_node2"><a xlink:href="iop_2kernel_2include_2sifcmd_8h.html#structt___sif_cmd_header" target="_top" xlink:title=" ">
<polygon fill="white" stroke="#666666" points="89,-176 0,-176 0,-157 89,-157 89,-176"/>
<text text-anchor="middle" x="44.5" y="-164" font-family="Helvetica,sans-Serif" font-size="10.00">t_SifCmdHeader</text>
</a>
</g>
</g>
<!-- Node2&#45;&gt;Node1 -->
<g id="edge1" class="edge">
<title>Node2&#45;&gt;Node1</title>
<path fill="none" stroke="#9a32cd" stroke-dasharray="5,2" d="M47.02,-145.38C47.77,-139.75 48.62,-133.63 49.5,-128 50.5,-121.56 51.8,-114.32 52.82,-108.81"/>
<polygon fill="#9a32cd" stroke="#9a32cd" points="43.58,-144.68 45.77,-155.04 50.52,-145.57 43.58,-144.68"/>
<text text-anchor="middle" x="65.5" y="-131" font-family="Helvetica,sans-Serif" font-size="10.00"> sifcmd</text>
</g>
<!-- Node3 -->
<g id="node3" class="node">
<title>Node3</title>
<g id="a_node3"><a xlink:href="iop_2kernel_2include_2sifcmd_8h.html#structt___sif_rpc_client_data" target="_top" xlink:title=" ">
<polygon fill="white" stroke="#bfbfbf" points="206,-176 107,-176 107,-157 206,-157 206,-176"/>
<text text-anchor="middle" x="156.5" y="-164" font-family="Helvetica,sans-Serif" font-size="10.00">t_SifRpcClientData</text>
</a>
</g>
</g>
<!-- Node3&#45;&gt;Node1 -->
<g id="edge2" class="edge">
<title>Node3&#45;&gt;Node1</title>
<path fill="none" stroke="#9a32cd" stroke-dasharray="5,2" d="M133.13,-150.49C113.12,-137.64 84.99,-119.58 68.36,-108.9"/>
<polygon fill="#9a32cd" stroke="#9a32cd" points="131.16,-153.39 141.47,-155.85 134.95,-147.5 131.16,-153.39"/>
<text text-anchor="middle" x="127.5" y="-131" font-family="Helvetica,sans-Serif" font-size="10.00"> client</text>
</g>
<!-- Node5 -->
<g id="node5" class="node">
<title>Node5</title>
<g id="a_node5"><a xlink:href="iop_2kernel_2include_2sifcmd_8h.html#structt___sif_rpc_server_data" target="_top" xlink:title=" ">
<polygon fill="white" stroke="#bfbfbf" points="239,-108.5 136,-108.5 136,-89.5 239,-89.5 239,-108.5"/>
<text text-anchor="middle" x="187.5" y="-96.5" font-family="Helvetica,sans-Serif" font-size="10.00">t_SifRpcServerData</text>
</a>
</g>
</g>
<!-- Node3&#45;&gt;Node5 -->
<g id="edge5" class="edge">
<title>Node3&#45;&gt;Node5</title>
<path fill="none" stroke="#9a32cd" stroke-dasharray="5,2" d="M149.69,-145.62C148.75,-139.72 148.86,-133.39 151.5,-128 155.47,-119.89 163.04,-113.45 170.22,-108.8"/>
<polygon fill="#9a32cd" stroke="#9a32cd" points="146.29,-146.48 152.25,-155.25 153.06,-144.69 146.29,-146.48"/>
<text text-anchor="middle" x="164.5" y="-131" font-family="Helvetica,sans-Serif" font-size="10.00"> client</text>
</g>
<!-- Node4 -->
<g id="node4" class="node">
<title>Node4</title>
<g id="a_node4"><a xlink:href="iop_2kernel_2include_2sifcmd_8h.html#structt___sif_rpc_header" target="_top" xlink:title=" ">
<polygon fill="white" stroke="#bfbfbf" points="199.5,-242 113.5,-242 113.5,-223 199.5,-223 199.5,-242"/>
<text text-anchor="middle" x="156.5" y="-230" font-family="Helvetica,sans-Serif" font-size="10.00">t_SifRpcHeader</text>
</a>
</g>
</g>
<!-- Node4&#45;&gt;Node3 -->
<g id="edge3" class="edge">
<title>Node4&#45;&gt;Node3</title>
<path fill="none" stroke="#9a32cd" stroke-dasharray="5,2" d="M156.5,-211.18C156.5,-199.44 156.5,-185.27 156.5,-176.32"/>
<polygon fill="#9a32cd" stroke="#9a32cd" points="153,-211.09 156.5,-221.09 160,-211.09 153,-211.09"/>
<text text-anchor="middle" x="164.5" y="-197" font-family="Helvetica,sans-Serif" font-size="10.00"> hdr</text>
</g>
<!-- Node5&#45;&gt;Node3 -->
<g id="edge4" class="edge">
<title>Node5&#45;&gt;Node3</title>
<path fill="none" stroke="#9a32cd" stroke-dasharray="5,2" d="M186.76,-119.92C185.92,-126.27 184.36,-133.15 181.5,-139 178.22,-145.71 172.66,-151.86 167.61,-156.55"/>
<polygon fill="#9a32cd" stroke="#9a32cd" points="190.22,-120.56 187.5,-110.32 183.24,-120.02 190.22,-120.56"/>
<text text-anchor="middle" x="199.5" y="-131" font-family="Helvetica,sans-Serif" font-size="10.00"> server</text>
</g>
<!-- Node5&#45;&gt;Node5 -->
<g id="edge6" class="edge">
<title>Node5&#45;&gt;Node5</title>
<path fill="none" stroke="#9a32cd" stroke-dasharray="5,2" d="M250.47,-103.59C254.54,-102.52 257,-100.99 257,-99 257,-95.56 249.64,-93.5 239.33,-92.8"/>
<polygon fill="#9a32cd" stroke="#9a32cd" points="250.22,-100.09 240.83,-104.98 251.23,-107.01 250.22,-100.09"/>
<text text-anchor="middle" x="266.5" y="-102" font-family="Helvetica,sans-Serif" font-size="10.00"> link</text>
<text text-anchor="middle" x="266.5" y="-91" font-family="Helvetica,sans-Serif" font-size="10.00">next</text>
</g>
<!-- Node6 -->
<g id="node6" class="node">
<title>Node6</title>
<g id="a_node6"><a xlink:href="iop_2kernel_2include_2sifcmd_8h.html#structt___sif_rpc_data_queue" target="_top" xlink:title=" ">
<polygon fill="white" stroke="#bfbfbf" points="238,-19 135,-19 135,0 238,0 238,-19"/>
<text text-anchor="middle" x="186.5" y="-7" font-family="Helvetica,sans-Serif" font-size="10.00">t_SifRpcDataQueue</text>
</a>
</g>
</g>
<!-- Node5&#45;&gt;Node6 -->
<g id="edge8" class="edge">
<title>Node5&#45;&gt;Node6</title>
<path fill="none" stroke="#9a32cd" stroke-dasharray="5,2" d="M168.78,-80.78C166.21,-77.47 163.96,-73.83 162.5,-70 157.27,-56.3 157.22,-50.68 162.5,-37 165.13,-30.17 170.44,-24 175.39,-19.34"/>
<polygon fill="#9a32cd" stroke="#9a32cd" points="166.08,-83.01 175.43,-88.01 171.24,-78.28 166.08,-83.01"/>
<text text-anchor="middle" x="172.5" y="-62" font-family="Helvetica,sans-Serif" font-size="10.00"> end</text>
<text text-anchor="middle" x="172.5" y="-51" font-family="Helvetica,sans-Serif" font-size="10.00">link</text>
<text text-anchor="middle" x="172.5" y="-40" font-family="Helvetica,sans-Serif" font-size="10.00">start</text>
</g>
<!-- Node6&#45;&gt;Node5 -->
<g id="edge7" class="edge">
<title>Node6&#45;&gt;Node5</title>
<path fill="none" stroke="#9a32cd" stroke-dasharray="5,2" d="M186.73,-30.71C186.94,-49.22 187.25,-75.73 187.4,-89.29"/>
<polygon fill="#9a32cd" stroke="#9a32cd" points="190.23,-30.91 186.62,-20.95 183.23,-30.99 190.23,-30.91"/>
<text text-anchor="middle" x="198.5" y="-51" font-family="Helvetica,sans-Serif" font-size="10.00"> base</text>
</g>
<!-- Node6&#45;&gt;Node6 -->
<g id="edge9" class="edge">
<title>Node6&#45;&gt;Node6</title>
<path fill="none" stroke="#9a32cd" stroke-dasharray="5,2" d="M249.47,-15.35C253.54,-13.98 256,-12.03 256,-9.5 256,-5.12 248.64,-2.48 238.33,-1.59"/>
<polygon fill="#9a32cd" stroke="#9a32cd" points="249.02,-11.88 239.82,-17.13 250.29,-18.76 249.02,-11.88"/>
<text text-anchor="middle" x="266.5" y="-7" font-family="Helvetica,sans-Serif" font-size="10.00"> next</text>
</g>
</g>
</svg>
