<?xml version="1.0" encoding="UTF-8" standalone="no"?>
<!DOCTYPE svg PUBLIC "-//W3C//DTD SVG 1.1//EN"
 "http://www.w3.org/Graphics/SVG/1.1/DTD/svg11.dtd">
<!-- Generated by graphviz version 7.0.5 (20221223.1930)
 -->
<!-- Title: RmData Pages: 1 -->
<svg width="192pt" height="181pt"
 viewBox="0.00 0.00 191.50 181.00" xmlns="http://www.w3.org/2000/svg" xmlns:xlink="http://www.w3.org/1999/xlink">
<g id="graph0" class="graph" transform="scale(1 1) rotate(0) translate(4 177)">
<title>RmData</title>
<!-- Node1 -->
<g id="node1" class="node">
<title>Node1</title>
<g id="a_node1"><a xlink:title=" ">
<polygon fill="#999999" stroke="#666666" points="87,-19 35,-19 35,0 87,0 87,-19"/>
<text text-anchor="middle" x="61" y="-7" font-family="Helvetica,sans-Serif" font-size="10.00">RmData</text>
</a>
</g>
</g>
<!-- Node2 -->
<g id="node2" class="node">
<title>Node2</title>
<g id="a_node2"><a xlink:href="librm-common_8h.html#structrm_e_e_data" target="_top" xlink:title=" ">
<polygon fill="white" stroke="#bfbfbf" points="60,-96 0,-96 0,-77 60,-77 60,-96"/>
<text text-anchor="middle" x="30" y="-84" font-family="Helvetica,sans-Serif" font-size="10.00">rmEEData</text>
</a>
</g>
</g>
<!-- Node2&#45;&gt;Node1 -->
<g id="edge1" class="edge">
<title>Node2&#45;&gt;Node1</title>
<path fill="none" stroke="#9a32cd" stroke-dasharray="5,2" d="M37.97,-66.15C41.63,-57.27 46.03,-46.6 50,-37 52.44,-31.11 55.19,-24.48 57.33,-19.33"/>
<polygon fill="#9a32cd" stroke="#9a32cd" points="34.83,-64.58 34.26,-75.16 41.3,-67.25 34.83,-64.58"/>
<text text-anchor="middle" x="69.5" y="-51" font-family="Helvetica,sans-Serif" font-size="10.00"> eeBuffer</text>
<text text-anchor="middle" x="69.5" y="-40" font-family="Helvetica,sans-Serif" font-size="10.00">eeData</text>
</g>
<!-- Node3 -->
<g id="node3" class="node">
<title>Node3</title>
<g id="a_node3"><a xlink:href="sio2man_8h.html#structsio2__transfer__data__t" target="_top" xlink:title=" ">
<polygon fill="white" stroke="#bfbfbf" points="183.5,-96 78.5,-96 78.5,-77 183.5,-77 183.5,-96"/>
<text text-anchor="middle" x="131" y="-84" font-family="Helvetica,sans-Serif" font-size="10.00">sio2_transfer_data_t</text>
</a>
</g>
</g>
<!-- Node3&#45;&gt;Node1 -->
<g id="edge2" class="edge">
<title>Node3&#45;&gt;Node1</title>
<path fill="none" stroke="#9a32cd" stroke-dasharray="5,2" d="M116.48,-67.89C108.57,-58.52 98.49,-46.92 89,-37 83.17,-30.91 76.3,-24.39 70.82,-19.35"/>
<polygon fill="#9a32cd" stroke="#9a32cd" points="113.75,-70.09 122.85,-75.52 119.13,-65.6 113.75,-70.09"/>
<text text-anchor="middle" x="127.5" y="-45.5" font-family="Helvetica,sans-Serif" font-size="10.00"> sio2Data</text>
</g>
<!-- Node4 -->
<g id="node4" class="node">
<title>Node4</title>
<g id="a_node4"><a xlink:href="sio2man_8h.html#struct__sio2__dma__arg" target="_top" xlink:title=" ">
<polygon fill="white" stroke="#bfbfbf" points="172.5,-173 89.5,-173 89.5,-154 172.5,-154 172.5,-173"/>
<text text-anchor="middle" x="131" y="-161" font-family="Helvetica,sans-Serif" font-size="10.00">_sio2_dma_arg</text>
</a>
</g>
</g>
<!-- Node4&#45;&gt;Node3 -->
<g id="edge3" class="edge">
<title>Node4&#45;&gt;Node3</title>
<path fill="none" stroke="#9a32cd" stroke-dasharray="5,2" d="M131,-142.42C131,-127.43 131,-107.66 131,-96.39"/>
<polygon fill="#9a32cd" stroke="#9a32cd" points="127.5,-142.09 131,-152.09 134.5,-142.09 127.5,-142.09"/>
<text text-anchor="middle" x="150" y="-128" font-family="Helvetica,sans-Serif" font-size="10.00"> in_dma</text>
<text text-anchor="middle" x="150" y="-117" font-family="Helvetica,sans-Serif" font-size="10.00">out_dma</text>
</g>
</g>
</svg>
