<?xml version="1.0" encoding="UTF-8" standalone="no"?>
<!DOCTYPE svg PUBLIC "-//W3C//DTD SVG 1.1//EN"
 "http://www.w3.org/Graphics/SVG/1.1/DTD/svg11.dtd">
<!-- Generated by graphviz version 7.0.5 (20221223.1930)
 -->
<!-- Title: reroot Pages: 1 -->
<svg width="94pt" height="104pt"
 viewBox="0.00 0.00 94.00 104.00" xmlns="http://www.w3.org/2000/svg" xmlns:xlink="http://www.w3.org/1999/xlink">
<g id="graph0" class="graph" transform="scale(1 1) rotate(0) translate(4 100)">
<title>reroot</title>
<!-- Node1 -->
<g id="node1" class="node">
<title>Node1</title>
<g id="a_node1"><a xlink:title=" ">
<polygon fill="#999999" stroke="#666666" points="44,-19 3,-19 3,0 44,0 44,-19"/>
<text text-anchor="middle" x="23.5" y="-7" font-family="Helvetica,sans-Serif" font-size="10.00">reroot</text>
</a>
</g>
</g>
<!-- Node2 -->
<g id="node2" class="node">
<title>Node2</title>
<g id="a_node2"><a xlink:href="structrecycle.html" target="_top" xlink:title=" ">
<polygon fill="white" stroke="#bfbfbf" points="47,-96 0,-96 0,-77 47,-77 47,-96"/>
<text text-anchor="middle" x="23.5" y="-84" font-family="Helvetica,sans-Serif" font-size="10.00">recycle</text>
</a>
</g>
</g>
<!-- Node2&#45;&gt;Node1 -->
<g id="edge1" class="edge">
<title>Node2&#45;&gt;Node1</title>
<path fill="none" stroke="#9a32cd" stroke-dasharray="5,2" d="M23.5,-65.42C23.5,-50.43 23.5,-30.66 23.5,-19.39"/>
<polygon fill="#9a32cd" stroke="#9a32cd" points="20,-65.09 23.5,-75.09 27,-65.09 20,-65.09"/>
<text text-anchor="middle" x="34.5" y="-51" font-family="Helvetica,sans-Serif" font-size="10.00"> list</text>
<text text-anchor="middle" x="34.5" y="-40" font-family="Helvetica,sans-Serif" font-size="10.00">trash</text>
</g>
<!-- Node2&#45;&gt;Node2 -->
<g id="edge2" class="edge">
<title>Node2&#45;&gt;Node2</title>
<path fill="none" stroke="#9a32cd" stroke-dasharray="5,2" d="M58.53,-92.6C62.46,-91.45 65,-89.42 65,-86.5 65,-81.31 56.96,-78.92 47.38,-79.33"/>
<polygon fill="#9a32cd" stroke="#9a32cd" points="58.51,-89.09 48.89,-93.53 59.18,-96.05 58.51,-89.09"/>
<text text-anchor="middle" x="75.5" y="-84" font-family="Helvetica,sans-Serif" font-size="10.00"> next</text>
</g>
</g>
</svg>
