<?xml version="1.0" encoding="UTF-8" standalone="no"?>
<!DOCTYPE svg PUBLIC "-//W3C//DTD SVG 1.1//EN"
 "http://www.w3.org/Graphics/SVG/1.1/DTD/svg11.dtd">
<!-- Generated by graphviz version 7.0.5 (20221223.1930)
 -->
<!-- Title: CommandDescriptorBlock Pages: 1 -->
<svg width="204pt" height="93pt"
 viewBox="0.00 0.00 204.00 93.00" xmlns="http://www.w3.org/2000/svg" xmlns:xlink="http://www.w3.org/1999/xlink">
<g id="graph0" class="graph" transform="scale(1 1) rotate(0) translate(4 89)">
<title>CommandDescriptorBlock</title>
<!-- Node1 -->
<g id="node1" class="node">
<title>Node1</title>
<g id="a_node1"><a xlink:title=" ">
<polygon fill="#999999" stroke="#666666" points="165,-19 35,-19 35,0 165,0 165,-19"/>
<text text-anchor="middle" x="100" y="-7" font-family="Helvetica,sans-Serif" font-size="10.00">CommandDescriptorBlock</text>
</a>
</g>
</g>
<!-- Node2 -->
<g id="node2" class="node">
<title>Node2</title>
<g id="a_node2"><a xlink:href="structsbp2___o_r_b__pointer.html" target="_top" xlink:title=" ">
<polygon fill="white" stroke="#bfbfbf" points="98,-85 0,-85 0,-66 98,-66 98,-85"/>
<text text-anchor="middle" x="49" y="-73" font-family="Helvetica,sans-Serif" font-size="10.00">sbp2_ORB_pointer</text>
</a>
</g>
</g>
<!-- Node2&#45;&gt;Node1 -->
<g id="edge1" class="edge">
<title>Node2&#45;&gt;Node1</title>
<path fill="none" stroke="#9a32cd" stroke-dasharray="5,2" d="M63.14,-56.76C72.84,-44.58 85.31,-28.94 92.97,-19.32"/>
<polygon fill="#9a32cd" stroke="#9a32cd" points="60.53,-54.42 57.03,-64.42 66,-58.78 60.53,-54.42"/>
<text text-anchor="middle" x="97.5" y="-40" font-family="Helvetica,sans-Serif" font-size="10.00"> NextOrb</text>
</g>
<!-- Node3 -->
<g id="node3" class="node">
<title>Node3</title>
<g id="a_node3"><a xlink:href="structsbp2__pointer.html" target="_top" xlink:title=" ">
<polygon fill="white" stroke="#bfbfbf" points="188,-85 116,-85 116,-66 188,-66 188,-85"/>
<text text-anchor="middle" x="152" y="-73" font-family="Helvetica,sans-Serif" font-size="10.00">sbp2_pointer</text>
</a>
</g>
</g>
<!-- Node3&#45;&gt;Node1 -->
<g id="edge2" class="edge">
<title>Node3&#45;&gt;Node1</title>
<path fill="none" stroke="#9a32cd" stroke-dasharray="5,2" d="M137.59,-56.76C127.69,-44.58 114.98,-28.94 107.17,-19.32"/>
<polygon fill="#9a32cd" stroke="#9a32cd" points="134.79,-58.87 143.82,-64.43 140.23,-54.46 134.79,-58.87"/>
<text text-anchor="middle" x="162.5" y="-40" font-family="Helvetica,sans-Serif" font-size="10.00"> DataDescriptor</text>
</g>
</g>
</svg>
