<?xml version="1.0" encoding="UTF-8" standalone="no"?>
<!DOCTYPE svg PUBLIC "-//W3C//DTD SVG 1.1//EN"
 "http://www.w3.org/Graphics/SVG/1.1/DTD/svg11.dtd">
<!-- Generated by graphviz version 7.0.5 (20221223.1930)
 -->
<!-- Title: _ioman_data Pages: 1 -->
<svg width="233pt" height="250pt"
 viewBox="0.00 0.00 233.00 250.00" xmlns="http://www.w3.org/2000/svg" xmlns:xlink="http://www.w3.org/1999/xlink">
<g id="graph0" class="graph" transform="scale(1 1) rotate(0) translate(4 246)">
<title>_ioman_data</title>
<!-- Node1 -->
<g id="node1" class="node">
<title>Node1</title>
<g id="a_node1"><a xlink:title=" ">
<polygon fill="#999999" stroke="#666666" points="72,-176 0,-176 0,-157 72,-157 72,-176"/>
<text text-anchor="middle" x="36" y="-164" font-family="Helvetica,sans-Serif" font-size="10.00">_ioman_data</text>
</a>
</g>
</g>
<!-- Node6 -->
<g id="node6" class="node">
<title>Node6</title>
<g id="a_node6"><a xlink:href="devfs_8c.html#structsubdev__t" target="_top" xlink:title=" ">
<polygon fill="white" stroke="#bfbfbf" points="120,-88 64,-88 64,-69 120,-69 120,-88"/>
<text text-anchor="middle" x="92" y="-76" font-family="Helvetica,sans-Serif" font-size="10.00">subdev_t</text>
</a>
</g>
</g>
<!-- Node1&#45;&gt;Node6 -->
<g id="edge8" class="edge">
<title>Node1&#45;&gt;Node6</title>
<path fill="none" stroke="#9a32cd" stroke-dasharray="5,2" d="M36.08,-145.18C37.04,-132.86 39.98,-117.38 48,-106 53.34,-98.42 61.61,-92.62 69.53,-88.42"/>
<polygon fill="#9a32cd" stroke="#9a32cd" points="32.58,-144.93 35.71,-155.05 39.58,-145.19 32.58,-144.93"/>
<text text-anchor="middle" x="71" y="-120" font-family="Helvetica,sans-Serif" font-size="10.00"> open_files</text>
</g>
<!-- Node2 -->
<g id="node2" class="node">
<title>Node2</title>
<g id="a_node2"><a xlink:href="devfs_8c.html#struct__devfs__device" target="_top" xlink:title=" ">
<polygon fill="white" stroke="#bfbfbf" points="132,-20.5 52,-20.5 52,-1.5 132,-1.5 132,-20.5"/>
<text text-anchor="middle" x="92" y="-8.5" font-family="Helvetica,sans-Serif" font-size="10.00">_devfs_device</text>
</a>
</g>
</g>
<!-- Node2&#45;&gt;Node1 -->
<g id="edge1" class="edge">
<title>Node2&#45;&gt;Node1</title>
<path fill="none" stroke="#9a32cd" stroke-dasharray="5,2" d="M70.3,-27.75C57.97,-38 43.54,-52.51 36,-69 22.42,-98.71 29.53,-139.15 33.69,-156.73"/>
<polygon fill="#9a32cd" stroke="#9a32cd" points="72.28,-30.65 77.98,-21.71 67.95,-25.14 72.28,-30.65"/>
<text text-anchor="middle" x="45.5" y="-76" font-family="Helvetica,sans-Serif" font-size="10.00"> dev</text>
</g>
<!-- Node2&#45;&gt;Node2 -->
<g id="edge2" class="edge">
<title>Node2&#45;&gt;Node2</title>
<path fill="none" stroke="#9a32cd" stroke-dasharray="5,2" d="M143.74,-15.83C147.62,-14.75 150,-13.14 150,-11 150,-7.19 142.47,-5.07 132.39,-4.62"/>
<polygon fill="#9a32cd" stroke="#9a32cd" points="143.32,-12.35 133.89,-17.18 144.27,-19.29 143.32,-12.35"/>
<text text-anchor="middle" x="162" y="-14" font-family="Helvetica,sans-Serif" font-size="10.00"> back</text>
<text text-anchor="middle" x="162" y="-3" font-family="Helvetica,sans-Serif" font-size="10.00">forw</text>
</g>
<!-- Node3 -->
<g id="node3" class="node">
<title>Node3</title>
<g id="a_node3"><a xlink:href="group__devfs.html#structdevfs__node__t" target="_top" xlink:title=" ">
<polygon fill="white" stroke="#666666" points="220.5,-88 145.5,-88 145.5,-69 220.5,-69 220.5,-88"/>
<text text-anchor="middle" x="183" y="-76" font-family="Helvetica,sans-Serif" font-size="10.00">devfs_node_t</text>
</a>
</g>
</g>
<!-- Node3&#45;&gt;Node2 -->
<g id="edge3" class="edge">
<title>Node3&#45;&gt;Node2</title>
<path fill="none" stroke="#9a32cd" stroke-dasharray="5,2" d="M163.79,-61.41C155.42,-54.6 145.38,-46.7 136,-40 126.57,-33.27 115.57,-26.27 106.93,-20.95"/>
<polygon fill="#9a32cd" stroke="#9a32cd" points="161.31,-63.91 171.26,-67.56 165.77,-58.5 161.31,-63.91"/>
<text text-anchor="middle" x="162" y="-43" font-family="Helvetica,sans-Serif" font-size="10.00"> node</text>
</g>
<!-- Node4 -->
<g id="node4" class="node">
<title>Node4</title>
<g id="a_node4"><a xlink:href="group__devfs.html#structdevfs__info__t" target="_top" xlink:title=" ">
<polygon fill="white" stroke="#666666" points="225,-176 155,-176 155,-157 225,-157 225,-176"/>
<text text-anchor="middle" x="190" y="-164" font-family="Helvetica,sans-Serif" font-size="10.00">devfs_info_t</text>
</a>
</g>
</g>
<!-- Node4&#45;&gt;Node3 -->
<g id="edge4" class="edge">
<title>Node4&#45;&gt;Node3</title>
<path fill="none" stroke="#9a32cd" stroke-dasharray="5,2" d="M188.36,-145.37C186.9,-127.37 184.82,-101.83 183.73,-88.46"/>
<polygon fill="#9a32cd" stroke="#9a32cd" points="184.85,-145.43 189.15,-155.11 191.83,-144.86 184.85,-145.43"/>
<text text-anchor="middle" x="198" y="-131" font-family="Helvetica,sans-Serif" font-size="10.00"> ioctl</text>
<text text-anchor="middle" x="198" y="-120" font-family="Helvetica,sans-Serif" font-size="10.00">read</text>
<text text-anchor="middle" x="198" y="-109" font-family="Helvetica,sans-Serif" font-size="10.00">write</text>
</g>
<!-- Node5 -->
<g id="node5" class="node">
<title>Node5</title>
<g id="a_node5"><a xlink:href="group__devfs.html#uniondevfs__loc__t" target="_top" xlink:title=" ">
<polygon fill="white" stroke="#666666" points="141.5,-242 74.5,-242 74.5,-223 141.5,-223 141.5,-242"/>
<text text-anchor="middle" x="108" y="-230" font-family="Helvetica,sans-Serif" font-size="10.00">devfs_loc_t</text>
</a>
</g>
</g>
<!-- Node5&#45;&gt;Node1 -->
<g id="edge9" class="edge">
<title>Node5&#45;&gt;Node1</title>
<path fill="none" stroke="#9a32cd" stroke-dasharray="5,2" d="M89.58,-215.26C85.75,-211.87 81.74,-208.32 78,-205 67.04,-195.26 54.5,-184.06 46,-176.46"/>
<polygon fill="#9a32cd" stroke="#9a32cd" points="87.04,-217.68 96.85,-221.68 91.67,-212.44 87.04,-217.68"/>
<text text-anchor="middle" x="86" y="-197" font-family="Helvetica,sans-Serif" font-size="10.00"> loc</text>
</g>
<!-- Node5&#45;&gt;Node4 -->
<g id="edge5" class="edge">
<title>Node5&#45;&gt;Node4</title>
<path fill="none" stroke="#9a32cd" stroke-dasharray="5,2" d="M128.45,-215.54C144.33,-203.14 165.76,-186.42 178.7,-176.32"/>
<polygon fill="#9a32cd" stroke="#9a32cd" points="126.32,-212.76 120.59,-221.67 130.63,-218.28 126.32,-212.76"/>
<text text-anchor="middle" x="161" y="-197" font-family="Helvetica,sans-Serif" font-size="10.00"> loc</text>
</g>
<!-- Node5&#45;&gt;Node6 -->
<g id="edge7" class="edge">
<title>Node5&#45;&gt;Node6</title>
<path fill="none" stroke="#9a32cd" stroke-dasharray="5,2" d="M105.89,-211.47C102.37,-178.05 95.45,-112.24 92.94,-88.39"/>
<polygon fill="#9a32cd" stroke="#9a32cd" points="102.41,-211.81 106.94,-221.39 109.37,-211.08 102.41,-211.81"/>
<text text-anchor="middle" x="116.5" y="-164" font-family="Helvetica,sans-Serif" font-size="10.00"> extent</text>
</g>
<!-- Node6&#45;&gt;Node2 -->
<g id="edge6" class="edge">
<title>Node6&#45;&gt;Node2</title>
<path fill="none" stroke="#9a32cd" stroke-dasharray="5,2" d="M92,-57.24C92,-44.98 92,-29.97 92,-20.69"/>
<polygon fill="#9a32cd" stroke="#9a32cd" points="88.5,-57.15 92,-67.15 95.5,-57.15 88.5,-57.15"/>
<text text-anchor="middle" x="112" y="-43" font-family="Helvetica,sans-Serif" font-size="10.00"> subdevs</text>
</g>
</g>
</svg>
