<?xml version="1.0" encoding="UTF-8" standalone="no"?>
<!DOCTYPE svg PUBLIC "-//W3C//DTD SVG 1.1//EN"
 "http://www.w3.org/Graphics/SVG/1.1/DTD/svg11.dtd">
<!-- Generated by graphviz version 7.0.5 (20221223.1930)
 -->
<!-- Title: _ioRequest Pages: 1 -->
<svg width="486pt" height="333pt"
 viewBox="0.00 0.00 486.00 333.00" xmlns="http://www.w3.org/2000/svg" xmlns:xlink="http://www.w3.org/1999/xlink">
<g id="graph0" class="graph" transform="scale(1 1) rotate(0) translate(4 329)">
<title>_ioRequest</title>
<!-- Node1 -->
<g id="node1" class="node">
<title>Node1</title>
<g id="a_node1"><a xlink:title=" ">
<polygon fill="#999999" stroke="#666666" points="401,-241 336,-241 336,-222 401,-222 401,-241"/>
<text text-anchor="middle" x="368.5" y="-229" font-family="Helvetica,sans-Serif" font-size="10.00">_ioRequest</text>
</a>
</g>
</g>
<!-- Node1&#45;&gt;Node1 -->
<g id="edge1" class="edge">
<title>Node1&#45;&gt;Node1</title>
<path fill="none" stroke="#9a32cd" stroke-dasharray="5,2" d="M412.19,-238.38C416.36,-236.98 419,-234.69 419,-231.5 419,-225.99 411.1,-223.15 401.04,-222.98"/>
<polygon fill="#9a32cd" stroke="#9a32cd" points="411.92,-234.88 402.54,-239.8 412.94,-241.81 411.92,-234.88"/>
<text text-anchor="middle" x="448.5" y="-240" font-family="Helvetica,sans-Serif" font-size="10.00"> callbackProc</text>
<text text-anchor="middle" x="448.5" y="-229" font-family="Helvetica,sans-Serif" font-size="10.00">next</text>
<text text-anchor="middle" x="448.5" y="-218" font-family="Helvetica,sans-Serif" font-size="10.00">prev</text>
</g>
<!-- Node2 -->
<g id="node2" class="node">
<title>Node2</title>
<g id="a_node2"><a xlink:href="usbdpriv_8h.html#struct__endpoint" target="_top" xlink:title=" ">
<polygon fill="white" stroke="#bfbfbf" points="276,-144.5 217,-144.5 217,-125.5 276,-125.5 276,-144.5"/>
<text text-anchor="middle" x="246.5" y="-132.5" font-family="Helvetica,sans-Serif" font-size="10.00">_endpoint</text>
</a>
</g>
</g>
<!-- Node1&#45;&gt;Node2 -->
<g id="edge12" class="edge">
<title>Node1&#45;&gt;Node2</title>
<path fill="none" stroke="#9a32cd" stroke-dasharray="5,2" d="M329.41,-217.97C305.95,-210.18 279.84,-200.93 275.5,-197 259.69,-182.67 251.7,-157.88 248.4,-144.75"/>
<polygon fill="#9a32cd" stroke="#9a32cd" points="328.23,-221.26 338.82,-221.06 330.41,-214.61 328.23,-221.26"/>
<text text-anchor="middle" x="307" y="-189" font-family="Helvetica,sans-Serif" font-size="10.00"> ioReqListEnd</text>
<text text-anchor="middle" x="307" y="-178" font-family="Helvetica,sans-Serif" font-size="10.00">ioReqListStart</text>
</g>
<!-- Node3 -->
<g id="node3" class="node">
<title>Node3</title>
<g id="a_node3"><a xlink:href="usbdpriv_8h.html#struct__device" target="_top" xlink:title=" ">
<polygon fill="white" stroke="#bfbfbf" points="198.5,-37 148.5,-37 148.5,-18 198.5,-18 198.5,-37"/>
<text text-anchor="middle" x="173.5" y="-25" font-family="Helvetica,sans-Serif" font-size="10.00">_device</text>
</a>
</g>
</g>
<!-- Node1&#45;&gt;Node3 -->
<g id="edge11" class="edge">
<title>Node1&#45;&gt;Node3</title>
<path fill="none" stroke="#9a32cd" stroke-dasharray="5,2" d="M411.68,-217.59C421.11,-212.69 429.93,-206.02 435.5,-197 440.64,-188.68 439.39,-183.97 435.5,-175 409.1,-114.13 384.16,-105.83 326.5,-73 285.15,-49.46 230.3,-37.46 198.75,-32.12"/>
<polygon fill="#9a32cd" stroke="#9a32cd" points="410.39,-214.33 402.71,-221.63 413.27,-220.72 410.39,-214.33"/>
<text text-anchor="middle" x="449.5" y="-132.5" font-family="Helvetica,sans-Serif" font-size="10.00"> ioRequest</text>
</g>
<!-- Node2&#45;&gt;Node1 -->
<g id="edge2" class="edge">
<title>Node2&#45;&gt;Node1</title>
<path fill="none" stroke="#9a32cd" stroke-dasharray="5,2" d="M287.02,-145.14C305.75,-151.07 327.19,-160.47 342.5,-175 356.24,-188.04 363.44,-209.78 366.56,-221.81"/>
<polygon fill="#9a32cd" stroke="#9a32cd" points="288.11,-141.82 277.53,-142.39 286.16,-148.54 288.11,-141.82"/>
<text text-anchor="middle" x="395" y="-183.5" font-family="Helvetica,sans-Serif" font-size="10.00"> correspEndpoint</text>
</g>
<!-- Node2&#45;&gt;Node2 -->
<g id="edge3" class="edge">
<title>Node2&#45;&gt;Node2</title>
<path fill="none" stroke="#9a32cd" stroke-dasharray="5,2" d="M287.54,-142.73C291.5,-141.16 294,-138.59 294,-135 294,-128.62 286.08,-125.44 276.19,-125.44"/>
<polygon fill="#9a32cd" stroke="#9a32cd" points="287,-139.27 277.68,-144.32 288.11,-146.19 287,-139.27"/>
<text text-anchor="middle" x="315.5" y="-149" font-family="Helvetica,sans-Serif" font-size="10.00"> busyNext</text>
<text text-anchor="middle" x="315.5" y="-138" font-family="Helvetica,sans-Serif" font-size="10.00">busyPrev</text>
<text text-anchor="middle" x="315.5" y="-127" font-family="Helvetica,sans-Serif" font-size="10.00">next</text>
<text text-anchor="middle" x="315.5" y="-116" font-family="Helvetica,sans-Serif" font-size="10.00">prev</text>
</g>
<!-- Node2&#45;&gt;Node3 -->
<g id="edge6" class="edge">
<title>Node2&#45;&gt;Node3</title>
<path fill="none" stroke="#9a32cd" stroke-dasharray="5,2" d="M248.29,-114.24C248.51,-101.59 246.97,-85.3 239.5,-73 229.45,-56.46 210.66,-44.71 195.69,-37.45"/>
<polygon fill="#9a32cd" stroke="#9a32cd" points="244.82,-113.7 247.74,-123.89 251.81,-114.11 244.82,-113.7"/>
<text text-anchor="middle" x="285" y="-87" font-family="Helvetica,sans-Serif" font-size="10.00"> endpointListEnd</text>
<text text-anchor="middle" x="285" y="-76" font-family="Helvetica,sans-Serif" font-size="10.00">endpointListStart</text>
</g>
<!-- Node3&#45;&gt;Node2 -->
<g id="edge4" class="edge">
<title>Node3&#45;&gt;Node2</title>
<path fill="none" stroke="#9a32cd" stroke-dasharray="5,2" d="M168.81,-48.34C166.62,-62.38 166.08,-81.1 174.5,-95 183.78,-110.32 201.37,-120.01 216.84,-125.89"/>
<polygon fill="#9a32cd" stroke="#9a32cd" points="172.16,-49.43 170.68,-38.94 165.29,-48.06 172.16,-49.43"/>
<text text-anchor="middle" x="207" y="-81.5" font-family="Helvetica,sans-Serif" font-size="10.00"> correspDevice</text>
</g>
<!-- Node3&#45;&gt;Node3 -->
<g id="edge5" class="edge">
<title>Node3&#45;&gt;Node3</title>
<path fill="none" stroke="#9a32cd" stroke-dasharray="5,2" d="M204.52,-37.82C211.45,-36.87 216.5,-33.43 216.5,-27.5 216.5,-18.67 205.3,-15.36 193.4,-17.57"/>
<polygon fill="#9a32cd" stroke="#9a32cd" points="205.03,-34.34 194.92,-37.48 204.79,-41.33 205.03,-34.34"/>
<text text-anchor="middle" x="245.5" y="-47" font-family="Helvetica,sans-Serif" font-size="10.00"> childListEnd</text>
<text text-anchor="middle" x="245.5" y="-36" font-family="Helvetica,sans-Serif" font-size="10.00">childListStart</text>
<text text-anchor="middle" x="245.5" y="-25" font-family="Helvetica,sans-Serif" font-size="10.00">next</text>
<text text-anchor="middle" x="245.5" y="-14" font-family="Helvetica,sans-Serif" font-size="10.00">parent</text>
<text text-anchor="middle" x="245.5" y="-3" font-family="Helvetica,sans-Serif" font-size="10.00">prev</text>
</g>
<!-- Node4 -->
<g id="node4" class="node">
<title>Node4</title>
<g id="a_node4"><a xlink:href="struct___usb_driver.html" target="_top" xlink:title=" ">
<polygon fill="white" stroke="#666666" points="65,-144.5 0,-144.5 0,-125.5 65,-125.5 65,-144.5"/>
<text text-anchor="middle" x="32.5" y="-132.5" font-family="Helvetica,sans-Serif" font-size="10.00">_UsbDriver</text>
</a>
</g>
</g>
<!-- Node4&#45;&gt;Node3 -->
<g id="edge7" class="edge">
<title>Node4&#45;&gt;Node3</title>
<path fill="none" stroke="#9a32cd" stroke-dasharray="5,2" d="M44.34,-115.67C53.53,-102.52 67.25,-85.07 82.5,-73 102.5,-57.17 129.03,-45 148.29,-37.42"/>
<polygon fill="#9a32cd" stroke="#9a32cd" points="41.51,-113.6 38.84,-123.85 47.32,-117.51 41.51,-113.6"/>
<text text-anchor="middle" x="104.5" y="-81.5" font-family="Helvetica,sans-Serif" font-size="10.00"> devDriver</text>
</g>
<!-- Node4&#45;&gt;Node4 -->
<g id="edge8" class="edge">
<title>Node4&#45;&gt;Node4</title>
<path fill="none" stroke="#9a32cd" stroke-dasharray="5,2" d="M76.19,-142.71C80.36,-141.14 83,-138.57 83,-135 83,-128.82 75.1,-125.64 65.04,-125.45"/>
<polygon fill="#9a32cd" stroke="#9a32cd" points="75.83,-139.22 66.54,-144.31 76.97,-146.13 75.83,-139.22"/>
<text text-anchor="middle" x="93.5" y="-138" font-family="Helvetica,sans-Serif" font-size="10.00"> next</text>
<text text-anchor="middle" x="93.5" y="-127" font-family="Helvetica,sans-Serif" font-size="10.00">prev</text>
</g>
<!-- Node5 -->
<g id="node5" class="node">
<title>Node5</title>
<g id="a_node5"><a xlink:href="usbdpriv_8h.html#struct__timer_cb_struct" target="_top" xlink:title=" ">
<polygon fill="white" stroke="#bfbfbf" points="168.5,-241 86.5,-241 86.5,-222 168.5,-222 168.5,-241"/>
<text text-anchor="middle" x="127.5" y="-229" font-family="Helvetica,sans-Serif" font-size="10.00">_timerCbStruct</text>
</a>
</g>
</g>
<!-- Node5&#45;&gt;Node2 -->
<g id="edge13" class="edge">
<title>Node5&#45;&gt;Node2</title>
<path fill="none" stroke="#9a32cd" stroke-dasharray="5,2" d="M147.17,-214.88C172.3,-194.92 214.96,-161.05 235.2,-144.98"/>
<polygon fill="#9a32cd" stroke="#9a32cd" points="145.32,-211.88 139.67,-220.84 149.67,-217.36 145.32,-211.88"/>
<text text-anchor="middle" x="207" y="-183.5" font-family="Helvetica,sans-Serif" font-size="10.00"> timer</text>
</g>
<!-- Node5&#45;&gt;Node3 -->
<g id="edge9" class="edge">
<title>Node5&#45;&gt;Node3</title>
<path fill="none" stroke="#9a32cd" stroke-dasharray="5,2" d="M132.09,-210.35C141.9,-167.25 164.61,-67.55 171.49,-37.34"/>
<polygon fill="#9a32cd" stroke="#9a32cd" points="128.68,-209.56 129.87,-220.08 135.51,-211.11 128.68,-209.56"/>
<text text-anchor="middle" x="167" y="-132.5" font-family="Helvetica,sans-Serif" font-size="10.00"> timer</text>
</g>
<!-- Node5&#45;&gt;Node5 -->
<g id="edge10" class="edge">
<title>Node5&#45;&gt;Node5</title>
<path fill="none" stroke="#9a32cd" stroke-dasharray="5,2" d="M179.91,-237.95C183.98,-236.53 186.5,-234.38 186.5,-231.5 186.5,-226.52 178.97,-223.72 168.85,-223.1"/>
<polygon fill="#9a32cd" stroke="#9a32cd" points="179.58,-234.45 170.35,-239.63 180.8,-241.34 179.58,-234.45"/>
<text text-anchor="middle" x="197" y="-234.5" font-family="Helvetica,sans-Serif" font-size="10.00"> next</text>
<text text-anchor="middle" x="197" y="-223.5" font-family="Helvetica,sans-Serif" font-size="10.00">prev</text>
</g>
<!-- Node6 -->
<g id="node6" class="node">
<title>Node6</title>
<g id="a_node6"><a xlink:href="usbdpriv_8h.html#struct__hc_ed" target="_top" xlink:title=" ">
<polygon fill="white" stroke="#bfbfbf" points="269.5,-241 225.5,-241 225.5,-222 269.5,-222 269.5,-241"/>
<text text-anchor="middle" x="247.5" y="-229" font-family="Helvetica,sans-Serif" font-size="10.00">_hcEd</text>
</a>
</g>
</g>
<!-- Node6&#45;&gt;Node2 -->
<g id="edge14" class="edge">
<title>Node6&#45;&gt;Node2</title>
<path fill="none" stroke="#9a32cd" stroke-dasharray="5,2" d="M236.72,-211.68C234.57,-207.02 232.62,-201.95 231.5,-197 227.26,-178.28 235.94,-156.47 241.78,-144.66"/>
<polygon fill="#9a32cd" stroke="#9a32cd" points="233.43,-212.93 241.15,-220.18 239.63,-209.69 233.43,-212.93"/>
<text text-anchor="middle" x="244" y="-183.5" font-family="Helvetica,sans-Serif" font-size="10.00"> hcEd</text>
</g>
<!-- Node6&#45;&gt;Node6 -->
<g id="edge17" class="edge">
<title>Node6&#45;&gt;Node6</title>
<path fill="none" stroke="#9a32cd" stroke-dasharray="5,2" d="M280.93,-238.83C284.9,-237.49 287.5,-235.05 287.5,-231.5 287.5,-225.19 279.3,-222.38 269.71,-223.07"/>
<polygon fill="#9a32cd" stroke="#9a32cd" points="280.83,-235.32 271.22,-239.78 281.51,-242.28 280.83,-235.32"/>
<text text-anchor="middle" x="298" y="-229" font-family="Helvetica,sans-Serif" font-size="10.00"> next</text>
</g>
<!-- Node7 -->
<g id="node7" class="node">
<title>Node7</title>
<g id="a_node7"><a xlink:href="usbdpriv_8h.html#struct__hc_td" target="_top" xlink:title=" ">
<polygon fill="white" stroke="#bfbfbf" points="262.5,-325 218.5,-325 218.5,-306 262.5,-306 262.5,-325"/>
<text text-anchor="middle" x="240.5" y="-313" font-family="Helvetica,sans-Serif" font-size="10.00">_hcTd</text>
</a>
</g>
</g>
<!-- Node7&#45;&gt;Node6 -->
<g id="edge15" class="edge">
<title>Node7&#45;&gt;Node6</title>
<path fill="none" stroke="#9a32cd" stroke-dasharray="5,2" d="M242.22,-294.33C243.66,-277.42 245.66,-254.08 246.74,-241.46"/>
<polygon fill="#9a32cd" stroke="#9a32cd" points="238.74,-293.96 241.38,-304.22 245.72,-294.55 238.74,-293.96"/>
<text text-anchor="middle" x="262.5" y="-280" font-family="Helvetica,sans-Serif" font-size="10.00"> tdHead</text>
<text text-anchor="middle" x="262.5" y="-269" font-family="Helvetica,sans-Serif" font-size="10.00">tdTail</text>
</g>
<!-- Node7&#45;&gt;Node7 -->
<g id="edge16" class="edge">
<title>Node7&#45;&gt;Node7</title>
<path fill="none" stroke="#9a32cd" stroke-dasharray="5,2" d="M273.93,-321.7C277.9,-320.57 280.5,-318.5 280.5,-315.5 280.5,-310.16 272.3,-307.78 262.71,-308.37"/>
<polygon fill="#9a32cd" stroke="#9a32cd" points="273.9,-318.19 264.22,-322.51 274.48,-325.16 273.9,-318.19"/>
<text text-anchor="middle" x="291" y="-313" font-family="Helvetica,sans-Serif" font-size="10.00"> next</text>
</g>
<!-- Node8 -->
<g id="node8" class="node">
<title>Node8</title>
<g id="a_node8"><a xlink:href="usbd_8h.html#struct_usb_device_request" target="_top" xlink:title=" ">
<polygon fill="white" stroke="#bfbfbf" points="421,-325 320,-325 320,-306 421,-306 421,-325"/>
<text text-anchor="middle" x="370.5" y="-313" font-family="Helvetica,sans-Serif" font-size="10.00">UsbDeviceRequest</text>
</a>
</g>
</g>
<!-- Node8&#45;&gt;Node1 -->
<g id="edge18" class="edge">
<title>Node8&#45;&gt;Node1</title>
<path fill="none" stroke="#9a32cd" stroke-dasharray="5,2" d="M370.01,-294.33C369.6,-277.42 369.03,-254.08 368.72,-241.46"/>
<polygon fill="#9a32cd" stroke="#9a32cd" points="366.51,-294.3 370.25,-304.21 373.5,-294.13 366.51,-294.3"/>
<text text-anchor="middle" x="387.5" y="-274.5" font-family="Helvetica,sans-Serif" font-size="10.00"> devReq</text>
</g>
</g>
</svg>
