<?xml version="1.0" encoding="UTF-8" standalone="no"?>
<!DOCTYPE svg PUBLIC "-//W3C//DTD SVG 1.1//EN"
 "http://www.w3.org/Graphics/SVG/1.1/DTD/svg11.dtd">
<!-- Generated by graphviz version 7.0.5 (20221223.1930)
 -->
<!-- Title: SetLoadfileCallbacks_struct_ Pages: 1 -->
<svg width="175pt" height="236pt"
 viewBox="0.00 0.00 174.50 236.00" xmlns="http://www.w3.org/2000/svg" xmlns:xlink="http://www.w3.org/1999/xlink">
<g id="graph0" class="graph" transform="scale(1 1) rotate(0) translate(4 232)">
<title>SetLoadfileCallbacks_struct_</title>
<!-- Node1 -->
<g id="node1" class="node">
<title>Node1</title>
<g id="a_node1"><a xlink:title=" ">
<polygon fill="#999999" stroke="#666666" points="115.5,-30 7.5,-30 7.5,0 115.5,0 115.5,-30"/>
<text text-anchor="start" x="15.5" y="-18" font-family="Helvetica,sans-Serif" font-size="10.00">SetLoadfileCallbacks</text>
<text text-anchor="middle" x="61.5" y="-7" font-family="Helvetica,sans-Serif" font-size="10.00">_struct_</text>
</a>
</g>
</g>
<!-- Node2 -->
<g id="node2" class="node">
<title>Node2</title>
<g id="a_node2"><a xlink:href="modload_8h.html#structloadfile__allocate__handler__struct__" target="_top" xlink:title=" ">
<polygon fill="white" stroke="#bfbfbf" points="122.5,-151 0.5,-151 0.5,-121 122.5,-121 122.5,-151"/>
<text text-anchor="start" x="8.5" y="-139" font-family="Helvetica,sans-Serif" font-size="10.00">loadfile_allocate_handler</text>
<text text-anchor="middle" x="61.5" y="-128" font-family="Helvetica,sans-Serif" font-size="10.00">_struct_</text>
</a>
</g>
</g>
<!-- Node2&#45;&gt;Node1 -->
<g id="edge1" class="edge">
<title>Node2&#45;&gt;Node1</title>
<path fill="none" stroke="#9a32cd" stroke-dasharray="5,2" d="M61.5,-109.44C61.5,-85.33 61.5,-50.06 61.5,-30.47"/>
<polygon fill="#9a32cd" stroke="#9a32cd" points="58,-109.37 61.5,-119.37 65,-109.37 58,-109.37"/>
<text text-anchor="middle" x="114" y="-95" font-family="Helvetica,sans-Serif" font-size="10.00"> check_valid_ee_elf</text>
<text text-anchor="middle" x="114" y="-84" font-family="Helvetica,sans-Serif" font-size="10.00">elf_get_program_header</text>
<text text-anchor="middle" x="114" y="-73" font-family="Helvetica,sans-Serif" font-size="10.00">elf_load_proc</text>
<text text-anchor="middle" x="114" y="-62" font-family="Helvetica,sans-Serif" font-size="10.00">load_kelf_from_card</text>
<text text-anchor="middle" x="114" y="-51" font-family="Helvetica,sans-Serif" font-size="10.00">load_kelf_from_disk</text>
</g>
<!-- Node3 -->
<g id="node3" class="node">
<title>Node3</title>
<g id="a_node3"><a xlink:href="modload_8h.html#structloadfile__ee__elf__ringbuffer__content__" target="_top" xlink:title=" ">
<polygon fill="white" stroke="#bfbfbf" points="123,-228 0,-228 0,-198 123,-198 123,-228"/>
<text text-anchor="start" x="8" y="-216" font-family="Helvetica,sans-Serif" font-size="10.00">loadfile_ee_elf_ringbuffer</text>
<text text-anchor="middle" x="61.5" y="-205" font-family="Helvetica,sans-Serif" font-size="10.00">_content_</text>
</a>
</g>
</g>
<!-- Node3&#45;&gt;Node2 -->
<g id="edge2" class="edge">
<title>Node3&#45;&gt;Node2</title>
<path fill="none" stroke="#9a32cd" stroke-dasharray="5,2" d="M61.5,-186.23C61.5,-174.58 61.5,-161.26 61.5,-151.42"/>
<polygon fill="#9a32cd" stroke="#9a32cd" points="58,-186.03 61.5,-196.03 65,-186.03 58,-186.03"/>
<text text-anchor="middle" x="107" y="-172" font-family="Helvetica,sans-Serif" font-size="10.00"> ring_buffer_contents</text>
</g>
</g>
</svg>
