<?xml version="1.0" encoding="UTF-8" standalone="no"?>
<!DOCTYPE svg PUBLIC "-//W3C//DTD SVG 1.1//EN"
 "http://www.w3.org/Graphics/SVG/1.1/DTD/svg11.dtd">
<!-- Generated by graphviz version 7.0.5 (20221223.1930)
 -->
<!-- Title: _iop_library Pages: 1 -->
<svg width="132pt" height="93pt"
 viewBox="0.00 0.00 132.00 93.00" xmlns="http://www.w3.org/2000/svg" xmlns:xlink="http://www.w3.org/1999/xlink">
<g id="graph0" class="graph" transform="scale(1 1) rotate(0) translate(4 89)">
<title>_iop_library</title>
<!-- Node1 -->
<g id="node1" class="node">
<title>Node1</title>
<g id="a_node1"><a xlink:title=" ">
<polygon fill="#999999" stroke="#666666" points="75,-19 10,-19 10,0 75,0 75,-19"/>
<text text-anchor="middle" x="42.5" y="-7" font-family="Helvetica,sans-Serif" font-size="10.00">_iop_library</text>
</a>
</g>
</g>
<!-- Node1&#45;&gt;Node1 -->
<g id="edge1" class="edge">
<title>Node1&#45;&gt;Node1</title>
<path fill="none" stroke="#9a32cd" stroke-dasharray="5,2" d="M86.19,-14.49C90.36,-13.47 93,-11.81 93,-9.5 93,-5.5 85.1,-3.44 75.04,-3.32"/>
<polygon fill="#9a32cd" stroke="#9a32cd" points="86.12,-10.98 76.55,-15.52 86.86,-17.94 86.12,-10.98"/>
<text text-anchor="middle" x="104" y="-7" font-family="Helvetica,sans-Serif" font-size="10.00"> prev</text>
</g>
<!-- Node2 -->
<g id="node2" class="node">
<title>Node2</title>
<g id="a_node2"><a xlink:href="irx_8h.html#structirx__import__table" target="_top" xlink:title=" ">
<polygon fill="white" stroke="#bfbfbf" points="85,-85 0,-85 0,-66 85,-66 85,-85"/>
<text text-anchor="middle" x="42.5" y="-73" font-family="Helvetica,sans-Serif" font-size="10.00">irx_import_table</text>
</a>
</g>
</g>
<!-- Node2&#45;&gt;Node1 -->
<g id="edge2" class="edge">
<title>Node2&#45;&gt;Node1</title>
<path fill="none" stroke="#9a32cd" stroke-dasharray="5,2" d="M42.5,-54.18C42.5,-42.44 42.5,-28.27 42.5,-19.32"/>
<polygon fill="#9a32cd" stroke="#9a32cd" points="39,-54.09 42.5,-64.09 46,-54.09 39,-54.09"/>
<text text-anchor="middle" x="55.5" y="-40" font-family="Helvetica,sans-Serif" font-size="10.00"> caller</text>
</g>
<!-- Node2&#45;&gt;Node2 -->
<g id="edge3" class="edge">
<title>Node2&#45;&gt;Node2</title>
<path fill="none" stroke="#9a32cd" stroke-dasharray="5,2" d="M96.79,-80.04C100.64,-79.01 103,-77.49 103,-75.5 103,-71.96 95.55,-69.93 85.46,-69.43"/>
<polygon fill="#9a32cd" stroke="#9a32cd" points="96.4,-76.56 86.96,-81.36 97.34,-83.49 96.4,-76.56"/>
<text text-anchor="middle" x="113.5" y="-73" font-family="Helvetica,sans-Serif" font-size="10.00"> next</text>
</g>
</g>
</svg>
