<?xml version="1.0" encoding="UTF-8" standalone="no"?>
<!DOCTYPE svg PUBLIC "-//W3C//DTD SVG 1.1//EN"
 "http://www.w3.org/Graphics/SVG/1.1/DTD/svg11.dtd">
<!-- Generated by graphviz version 7.0.5 (20221223.1930)
 -->
<!-- Title: GS_DISPENV Pages: 1 -->
<svg width="178pt" height="93pt"
 viewBox="0.00 0.00 177.50 93.00" xmlns="http://www.w3.org/2000/svg" xmlns:xlink="http://www.w3.org/1999/xlink">
<g id="graph0" class="graph" transform="scale(1 1) rotate(0) translate(4 89)">
<title>GS_DISPENV</title>
<!-- Node1 -->
<g id="node1" class="node">
<title>Node1</title>
<g id="a_node1"><a xlink:title=" ">
<polygon fill="#999999" stroke="#666666" points="126.5,-19 46.5,-19 46.5,0 126.5,0 126.5,-19"/>
<text text-anchor="middle" x="86.5" y="-7" font-family="Helvetica,sans-Serif" font-size="10.00">GS_DISPENV</text>
</a>
</g>
</g>
<!-- Node2 -->
<g id="node2" class="node">
<title>Node2</title>
<g id="a_node2"><a xlink:href="libgs_8h.html#struct_g_s___d_i_s_p_l_a_y" target="_top" xlink:title=" ">
<polygon fill="white" stroke="#bfbfbf" points="79,-85 0,-85 0,-66 79,-66 79,-85"/>
<text text-anchor="middle" x="39.5" y="-73" font-family="Helvetica,sans-Serif" font-size="10.00">GS_DISPLAY</text>
</a>
</g>
</g>
<!-- Node2&#45;&gt;Node1 -->
<g id="edge1" class="edge">
<title>Node2&#45;&gt;Node1</title>
<path fill="none" stroke="#9a32cd" stroke-dasharray="5,2" d="M52.8,-56.4C61.7,-44.27 73.03,-28.84 80.02,-19.32"/>
<polygon fill="#9a32cd" stroke="#9a32cd" points="50.03,-54.25 46.93,-64.38 55.67,-58.39 50.03,-54.25"/>
<text text-anchor="middle" x="77" y="-40" font-family="Helvetica,sans-Serif" font-size="10.00"> disp</text>
</g>
<!-- Node3 -->
<g id="node3" class="node">
<title>Node3</title>
<g id="a_node3"><a xlink:href="libgs_8h.html#struct_g_s___d_i_s_p_f_b" target="_top" xlink:title=" ">
<polygon fill="white" stroke="#bfbfbf" points="169.5,-85 97.5,-85 97.5,-66 169.5,-66 169.5,-85"/>
<text text-anchor="middle" x="133.5" y="-73" font-family="Helvetica,sans-Serif" font-size="10.00">GS_DISPFB</text>
</a>
</g>
</g>
<!-- Node3&#45;&gt;Node1 -->
<g id="edge2" class="edge">
<title>Node3&#45;&gt;Node1</title>
<path fill="none" stroke="#9a32cd" stroke-dasharray="5,2" d="M120.2,-56.4C111.3,-44.27 99.97,-28.84 92.98,-19.32"/>
<polygon fill="#9a32cd" stroke="#9a32cd" points="117.33,-58.39 126.07,-64.38 122.97,-54.25 117.33,-58.39"/>
<text text-anchor="middle" x="127" y="-40" font-family="Helvetica,sans-Serif" font-size="10.00"> dispfb</text>
</g>
</g>
</svg>
