<?xml version="1.0" encoding="UTF-8" standalone="no"?>
<!DOCTYPE svg PUBLIC "-//W3C//DTD SVG 1.1//EN"
 "http://www.w3.org/Graphics/SVG/1.1/DTD/svg11.dtd">
<!-- Generated by graphviz version 7.0.5 (20221223.1930)
 -->
<!-- Title: _devfs_device Pages: 1 -->
<svg width="233pt" height="382pt"
 viewBox="0.00 0.00 233.00 382.00" xmlns="http://www.w3.org/2000/svg" xmlns:xlink="http://www.w3.org/1999/xlink">
<g id="graph0" class="graph" transform="scale(1 1) rotate(0) translate(4 378)">
<title>_devfs_device</title>
<!-- Node1 -->
<g id="node1" class="node">
<title>Node1</title>
<g id="a_node1"><a xlink:title=" ">
<polygon fill="#999999" stroke="#666666" points="80,-152.5 0,-152.5 0,-133.5 80,-133.5 80,-152.5"/>
<text text-anchor="middle" x="40" y="-140.5" font-family="Helvetica,sans-Serif" font-size="10.00">_devfs_device</text>
</a>
</g>
</g>
<!-- Node1&#45;&gt;Node1 -->
<g id="edge1" class="edge">
<title>Node1&#45;&gt;Node1</title>
<path fill="none" stroke="#9a32cd" stroke-dasharray="5,2" d="M91.74,-147.83C95.62,-146.75 98,-145.14 98,-143 98,-139.19 90.47,-137.07 80.39,-136.62"/>
<polygon fill="#9a32cd" stroke="#9a32cd" points="91.32,-144.35 81.89,-149.18 92.27,-151.29 91.32,-144.35"/>
<text text-anchor="middle" x="110" y="-146" font-family="Helvetica,sans-Serif" font-size="10.00"> back</text>
<text text-anchor="middle" x="110" y="-135" font-family="Helvetica,sans-Serif" font-size="10.00">forw</text>
</g>
<!-- Node6 -->
<g id="node6" class="node">
<title>Node6</title>
<g id="a_node6"><a xlink:href="devfs_8c.html#struct__ioman__data" target="_top" xlink:title=" ">
<polygon fill="white" stroke="#bfbfbf" points="168,-85 96,-85 96,-66 168,-66 168,-85"/>
<text text-anchor="middle" x="132" y="-73" font-family="Helvetica,sans-Serif" font-size="10.00">_ioman_data</text>
</a>
</g>
</g>
<!-- Node1&#45;&gt;Node6 -->
<g id="edge8" class="edge">
<title>Node1&#45;&gt;Node6</title>
<path fill="none" stroke="#9a32cd" stroke-dasharray="5,2" d="M61.58,-126.64C79.59,-113.81 104.64,-95.98 119.5,-85.4"/>
<polygon fill="#9a32cd" stroke="#9a32cd" points="59.76,-123.64 53.64,-132.29 63.82,-129.34 59.76,-123.64"/>
<text text-anchor="middle" x="104.5" y="-106" font-family="Helvetica,sans-Serif" font-size="10.00"> dev</text>
</g>
<!-- Node2 -->
<g id="node2" class="node">
<title>Node2</title>
<g id="a_node2"><a xlink:href="group__devfs.html#structdevfs__node__t" target="_top" xlink:title=" ">
<polygon fill="white" stroke="#666666" points="104.5,-220 29.5,-220 29.5,-201 104.5,-201 104.5,-220"/>
<text text-anchor="middle" x="67" y="-208" font-family="Helvetica,sans-Serif" font-size="10.00">devfs_node_t</text>
</a>
</g>
</g>
<!-- Node2&#45;&gt;Node1 -->
<g id="edge2" class="edge">
<title>Node2&#45;&gt;Node1</title>
<path fill="none" stroke="#9a32cd" stroke-dasharray="5,2" d="M59.12,-190.39C53.99,-177.93 47.53,-162.26 43.58,-152.69"/>
<polygon fill="#9a32cd" stroke="#9a32cd" points="55.73,-191.36 62.78,-199.27 62.21,-188.69 55.73,-191.36"/>
<text text-anchor="middle" x="68" y="-175" font-family="Helvetica,sans-Serif" font-size="10.00"> node</text>
</g>
<!-- Node3 -->
<g id="node3" class="node">
<title>Node3</title>
<g id="a_node3"><a xlink:href="group__devfs.html#structdevfs__info__t" target="_top" xlink:title=" ">
<polygon fill="white" stroke="#666666" points="119,-308 49,-308 49,-289 119,-289 119,-308"/>
<text text-anchor="middle" x="84" y="-296" font-family="Helvetica,sans-Serif" font-size="10.00">devfs_info_t</text>
</a>
</g>
</g>
<!-- Node3&#45;&gt;Node2 -->
<g id="edge3" class="edge">
<title>Node3&#45;&gt;Node2</title>
<path fill="none" stroke="#9a32cd" stroke-dasharray="5,2" d="M80.02,-277.37C76.46,-259.37 71.41,-233.83 68.77,-220.46"/>
<polygon fill="#9a32cd" stroke="#9a32cd" points="76.58,-278 81.95,-287.14 83.45,-276.65 76.58,-278"/>
<text text-anchor="middle" x="90" y="-263" font-family="Helvetica,sans-Serif" font-size="10.00"> ioctl</text>
<text text-anchor="middle" x="90" y="-252" font-family="Helvetica,sans-Serif" font-size="10.00">read</text>
<text text-anchor="middle" x="90" y="-241" font-family="Helvetica,sans-Serif" font-size="10.00">write</text>
</g>
<!-- Node4 -->
<g id="node4" class="node">
<title>Node4</title>
<g id="a_node4"><a xlink:href="group__devfs.html#uniondevfs__loc__t" target="_top" xlink:title=" ">
<polygon fill="white" stroke="#666666" points="183.5,-374 116.5,-374 116.5,-355 183.5,-355 183.5,-374"/>
<text text-anchor="middle" x="150" y="-362" font-family="Helvetica,sans-Serif" font-size="10.00">devfs_loc_t</text>
</a>
</g>
</g>
<!-- Node4&#45;&gt;Node3 -->
<g id="edge4" class="edge">
<title>Node4&#45;&gt;Node3</title>
<path fill="none" stroke="#9a32cd" stroke-dasharray="5,2" d="M130.89,-347.04C127.22,-343.77 123.46,-340.32 120,-337 110.1,-327.5 99.27,-316.06 92.1,-308.34"/>
<polygon fill="#9a32cd" stroke="#9a32cd" points="128.57,-349.67 138.4,-353.63 133.19,-344.4 128.57,-349.67"/>
<text text-anchor="middle" x="128" y="-329" font-family="Helvetica,sans-Serif" font-size="10.00"> loc</text>
</g>
<!-- Node5 -->
<g id="node5" class="node">
<title>Node5</title>
<g id="a_node5"><a xlink:href="devfs_8c.html#structsubdev__t" target="_top" xlink:title=" ">
<polygon fill="white" stroke="#bfbfbf" points="160,-19 104,-19 104,0 160,0 160,-19"/>
<text text-anchor="middle" x="132" y="-7" font-family="Helvetica,sans-Serif" font-size="10.00">subdev_t</text>
</a>
</g>
</g>
<!-- Node4&#45;&gt;Node5 -->
<g id="edge6" class="edge">
<title>Node4&#45;&gt;Node5</title>
<path fill="none" stroke="#9a32cd" stroke-dasharray="5,2" d="M170.63,-346.97C182.86,-335.21 196,-318.22 196,-299.5 196,-299.5 196,-299.5 196,-74.5 196,-56.71 193.74,-50.37 182,-37 175.32,-29.39 165.93,-23.62 157.08,-19.43"/>
<polygon fill="#9a32cd" stroke="#9a32cd" points="168.37,-344.3 163.22,-353.56 173.02,-349.53 168.37,-344.3"/>
<text text-anchor="middle" x="210.5" y="-175" font-family="Helvetica,sans-Serif" font-size="10.00"> extent</text>
</g>
<!-- Node4&#45;&gt;Node6 -->
<g id="edge9" class="edge">
<title>Node4&#45;&gt;Node6</title>
<path fill="none" stroke="#9a32cd" stroke-dasharray="5,2" d="M150,-343.35C150,-330.75 150,-314.18 150,-299.5 150,-299.5 150,-299.5 150,-142 150,-121.01 141.3,-97.54 135.99,-85.19"/>
<polygon fill="#9a32cd" stroke="#9a32cd" points="146.5,-343.29 150,-353.29 153.5,-343.29 146.5,-343.29"/>
<text text-anchor="middle" x="158" y="-208" font-family="Helvetica,sans-Serif" font-size="10.00"> loc</text>
</g>
<!-- Node5&#45;&gt;Node1 -->
<g id="edge5" class="edge">
<title>Node5&#45;&gt;Node1</title>
<path fill="none" stroke="#9a32cd" stroke-dasharray="5,2" d="M97.47,-24.14C79.3,-33.19 58.48,-46.94 47,-66 34.15,-87.34 36.4,-118.32 38.5,-133.28"/>
<polygon fill="#9a32cd" stroke="#9a32cd" points="98.8,-27.38 106.39,-19.98 95.85,-21.03 98.8,-27.38"/>
<text text-anchor="middle" x="67" y="-73" font-family="Helvetica,sans-Serif" font-size="10.00"> subdevs</text>
</g>
<!-- Node6&#45;&gt;Node5 -->
<g id="edge7" class="edge">
<title>Node6&#45;&gt;Node5</title>
<path fill="none" stroke="#9a32cd" stroke-dasharray="5,2" d="M132,-54.18C132,-42.44 132,-28.27 132,-19.32"/>
<polygon fill="#9a32cd" stroke="#9a32cd" points="128.5,-54.09 132,-64.09 135.5,-54.09 128.5,-54.09"/>
<text text-anchor="middle" x="155" y="-40" font-family="Helvetica,sans-Serif" font-size="10.00"> open_files</text>
</g>
</g>
</svg>
