<?xml version="1.0" encoding="UTF-8" standalone="no"?>
<!DOCTYPE svg PUBLIC "-//W3C//DTD SVG 1.1//EN"
 "http://www.w3.org/Graphics/SVG/1.1/DTD/svg11.dtd">
<!-- Generated by graphviz version 7.0.5 (20221223.1930)
 -->
<!-- Title: dependancy_t Pages: 1 -->
<svg width="189pt" height="330pt"
 viewBox="0.00 0.00 189.00 330.00" xmlns="http://www.w3.org/2000/svg" xmlns:xlink="http://www.w3.org/1999/xlink">
<g id="graph0" class="graph" transform="scale(1 1) rotate(0) translate(4 326)">
<title>dependancy_t</title>
<!-- Node1 -->
<g id="node1" class="node">
<title>Node1</title>
<g id="a_node1"><a xlink:title=" ">
<polygon fill="#999999" stroke="#666666" points="107,-20.5 30,-20.5 30,-1.5 107,-1.5 107,-20.5"/>
<text text-anchor="middle" x="68.5" y="-8.5" font-family="Helvetica,sans-Serif" font-size="10.00">dependancy_t</text>
</a>
</g>
</g>
<!-- Node1&#45;&gt;Node1 -->
<g id="edge9" class="edge">
<title>Node1&#45;&gt;Node1</title>
<path fill="none" stroke="#9a32cd" stroke-dasharray="5,2" d="M118.7,-16.67C122.59,-15.42 125,-13.53 125,-11 125,-6.51 117.4,-4.03 107.32,-3.58"/>
<polygon fill="#9a32cd" stroke="#9a32cd" points="118.16,-13.21 108.81,-18.19 119.23,-20.12 118.16,-13.21"/>
<text text-anchor="middle" x="135.5" y="-14" font-family="Helvetica,sans-Serif" font-size="10.00"> next</text>
<text text-anchor="middle" x="135.5" y="-3" font-family="Helvetica,sans-Serif" font-size="10.00">prev</text>
</g>
<!-- Node2 -->
<g id="node2" class="node">
<title>Node2</title>
<g id="a_node2"><a xlink:href="erl_8h.html#structerl__record__t" target="_top" xlink:title=" ">
<polygon fill="white" stroke="#bfbfbf" points="102.5,-100.5 34.5,-100.5 34.5,-81.5 102.5,-81.5 102.5,-100.5"/>
<text text-anchor="middle" x="68.5" y="-88.5" font-family="Helvetica,sans-Serif" font-size="10.00">erl_record_t</text>
</a>
</g>
</g>
<!-- Node2&#45;&gt;Node1 -->
<g id="edge1" class="edge">
<title>Node2&#45;&gt;Node1</title>
<path fill="none" stroke="#9a32cd" stroke-dasharray="5,2" d="M68.5,-69.79C68.5,-53.95 68.5,-32.66 68.5,-20.84"/>
<polygon fill="#9a32cd" stroke="#9a32cd" points="65,-69.54 68.5,-79.54 72,-69.54 65,-69.54"/>
<text text-anchor="middle" x="90" y="-54" font-family="Helvetica,sans-Serif" font-size="10.00"> depender</text>
<text text-anchor="middle" x="90" y="-43" font-family="Helvetica,sans-Serif" font-size="10.00">provider</text>
</g>
<!-- Node2&#45;&gt;Node2 -->
<g id="edge8" class="edge">
<title>Node2&#45;&gt;Node2</title>
<path fill="none" stroke="#9a32cd" stroke-dasharray="5,2" d="M113.69,-96.16C117.87,-95.1 120.5,-93.38 120.5,-91 120.5,-86.89 112.63,-84.74 102.51,-84.55"/>
<polygon fill="#9a32cd" stroke="#9a32cd" points="113.55,-92.66 104.01,-97.28 114.35,-99.61 113.55,-92.66"/>
<text text-anchor="middle" x="131" y="-94" font-family="Helvetica,sans-Serif" font-size="10.00"> next</text>
<text text-anchor="middle" x="131" y="-83" font-family="Helvetica,sans-Serif" font-size="10.00">prev</text>
</g>
<!-- Node3 -->
<g id="node3" class="node">
<title>Node3</title>
<g id="a_node3"><a xlink:href="structhtab.html" target="_top" xlink:title=" ">
<polygon fill="white" stroke="#bfbfbf" points="86,-168 51,-168 51,-149 86,-149 86,-168"/>
<text text-anchor="middle" x="68.5" y="-156" font-family="Helvetica,sans-Serif" font-size="10.00">htab</text>
</a>
</g>
</g>
<!-- Node3&#45;&gt;Node2 -->
<g id="edge2" class="edge">
<title>Node3&#45;&gt;Node2</title>
<path fill="none" stroke="#9a32cd" stroke-dasharray="5,2" d="M68.5,-137.24C68.5,-124.98 68.5,-109.97 68.5,-100.69"/>
<polygon fill="#9a32cd" stroke="#9a32cd" points="65,-137.15 68.5,-147.15 72,-137.15 65,-137.15"/>
<text text-anchor="middle" x="88" y="-123" font-family="Helvetica,sans-Serif" font-size="10.00"> symbols</text>
</g>
<!-- Node4 -->
<g id="node4" class="node">
<title>Node4</title>
<g id="a_node4"><a xlink:href="structhitem.html" target="_top" xlink:title=" ">
<polygon fill="white" stroke="#bfbfbf" points="41,-245 0,-245 0,-226 41,-226 41,-245"/>
<text text-anchor="middle" x="20.5" y="-233" font-family="Helvetica,sans-Serif" font-size="10.00">hitem</text>
</a>
</g>
</g>
<!-- Node4&#45;&gt;Node3 -->
<g id="edge3" class="edge">
<title>Node4&#45;&gt;Node3</title>
<path fill="none" stroke="#9a32cd" stroke-dasharray="5,2" d="M32.21,-216.2C41.92,-201.02 55.31,-180.11 62.81,-168.39"/>
<polygon fill="#9a32cd" stroke="#9a32cd" points="29.45,-214.02 27.01,-224.33 35.35,-217.79 29.45,-214.02"/>
<text text-anchor="middle" x="60.5" y="-200" font-family="Helvetica,sans-Serif" font-size="10.00"> ipos</text>
<text text-anchor="middle" x="60.5" y="-189" font-family="Helvetica,sans-Serif" font-size="10.00">table</text>
</g>
<!-- Node4&#45;&gt;Node4 -->
<g id="edge4" class="edge">
<title>Node4&#45;&gt;Node4</title>
<path fill="none" stroke="#9a32cd" stroke-dasharray="5,2" d="M52.83,-241.65C56.57,-240.51 59,-238.46 59,-235.5 59,-230.09 50.88,-227.72 41.49,-228.39"/>
<polygon fill="#9a32cd" stroke="#9a32cd" points="52.67,-238.15 43,-242.48 53.26,-245.13 52.67,-238.15"/>
<text text-anchor="middle" x="69.5" y="-233" font-family="Helvetica,sans-Serif" font-size="10.00"> next</text>
</g>
<!-- Node5 -->
<g id="node5" class="node">
<title>Node5</title>
<g id="a_node5"><a xlink:href="structreroot.html" target="_top" xlink:title=" ">
<polygon fill="white" stroke="#bfbfbf" points="139,-245 98,-245 98,-226 139,-226 139,-245"/>
<text text-anchor="middle" x="118.5" y="-233" font-family="Helvetica,sans-Serif" font-size="10.00">reroot</text>
</a>
</g>
</g>
<!-- Node5&#45;&gt;Node3 -->
<g id="edge5" class="edge">
<title>Node5&#45;&gt;Node3</title>
<path fill="none" stroke="#9a32cd" stroke-dasharray="5,2" d="M106.3,-216.2C96.18,-201.02 82.24,-180.11 74.42,-168.39"/>
<polygon fill="#9a32cd" stroke="#9a32cd" points="103.27,-217.96 111.73,-224.34 109.09,-214.08 103.27,-217.96"/>
<text text-anchor="middle" x="113" y="-194.5" font-family="Helvetica,sans-Serif" font-size="10.00"> space</text>
</g>
<!-- Node6 -->
<g id="node6" class="node">
<title>Node6</title>
<g id="a_node6"><a xlink:href="structrecycle.html" target="_top" xlink:title=" ">
<polygon fill="white" stroke="#bfbfbf" points="142,-322 95,-322 95,-303 142,-303 142,-322"/>
<text text-anchor="middle" x="118.5" y="-310" font-family="Helvetica,sans-Serif" font-size="10.00">recycle</text>
</a>
</g>
</g>
<!-- Node6&#45;&gt;Node5 -->
<g id="edge6" class="edge">
<title>Node6&#45;&gt;Node5</title>
<path fill="none" stroke="#9a32cd" stroke-dasharray="5,2" d="M118.5,-291.42C118.5,-276.43 118.5,-256.66 118.5,-245.39"/>
<polygon fill="#9a32cd" stroke="#9a32cd" points="115,-291.09 118.5,-301.09 122,-291.09 115,-291.09"/>
<text text-anchor="middle" x="129.5" y="-277" font-family="Helvetica,sans-Serif" font-size="10.00"> list</text>
<text text-anchor="middle" x="129.5" y="-266" font-family="Helvetica,sans-Serif" font-size="10.00">trash</text>
</g>
<!-- Node6&#45;&gt;Node6 -->
<g id="edge7" class="edge">
<title>Node6&#45;&gt;Node6</title>
<path fill="none" stroke="#9a32cd" stroke-dasharray="5,2" d="M153.53,-318.6C157.46,-317.45 160,-315.42 160,-312.5 160,-307.31 151.96,-304.92 142.38,-305.33"/>
<polygon fill="#9a32cd" stroke="#9a32cd" points="153.51,-315.09 143.89,-319.53 154.18,-322.05 153.51,-315.09"/>
<text text-anchor="middle" x="170.5" y="-310" font-family="Helvetica,sans-Serif" font-size="10.00"> next</text>
</g>
</g>
</svg>
