<?xml version="1.0" encoding="UTF-8" standalone="no"?>
<!DOCTYPE svg PUBLIC "-//W3C//DTD SVG 1.1//EN"
 "http://www.w3.org/Graphics/SVG/1.1/DTD/svg11.dtd">
<!-- Generated by graphviz version 7.0.5 (20221223.1930)
 -->
<!-- Title: t_SifRpcOtherDataPkt Pages: 1 -->
<svg width="226pt" height="159pt"
 viewBox="0.00 0.00 225.50 159.00" xmlns="http://www.w3.org/2000/svg" xmlns:xlink="http://www.w3.org/1999/xlink">
<g id="graph0" class="graph" transform="scale(1 1) rotate(0) translate(4 155)">
<title>t_SifRpcOtherDataPkt</title>
<!-- Node1 -->
<g id="node1" class="node">
<title>Node1</title>
<g id="a_node1"><a xlink:title=" ">
<polygon fill="#999999" stroke="#666666" points="128,-19 15,-19 15,0 128,0 128,-19"/>
<text text-anchor="middle" x="71.5" y="-7" font-family="Helvetica,sans-Serif" font-size="10.00">t_SifRpcOtherDataPkt</text>
</a>
</g>
</g>
<!-- Node2 -->
<g id="node2" class="node">
<title>Node2</title>
<g id="a_node2"><a xlink:href="iop_2kernel_2include_2sifcmd_8h.html#structt___sif_cmd_header" target="_top" xlink:title=" ">
<polygon fill="white" stroke="#666666" points="89,-85 0,-85 0,-66 89,-66 89,-85"/>
<text text-anchor="middle" x="44.5" y="-73" font-family="Helvetica,sans-Serif" font-size="10.00">t_SifCmdHeader</text>
</a>
</g>
</g>
<!-- Node2&#45;&gt;Node1 -->
<g id="edge1" class="edge">
<title>Node2&#45;&gt;Node1</title>
<path fill="none" stroke="#9a32cd" stroke-dasharray="5,2" d="M52.6,-55.3C57.64,-43.35 63.88,-28.56 67.78,-19.32"/>
<polygon fill="#9a32cd" stroke="#9a32cd" points="49.5,-53.63 48.84,-64.21 55.95,-56.35 49.5,-53.63"/>
<text text-anchor="middle" x="76.5" y="-40" font-family="Helvetica,sans-Serif" font-size="10.00"> sifcmd</text>
</g>
<!-- Node3 -->
<g id="node3" class="node">
<title>Node3</title>
<g id="a_node3"><a xlink:href="iop_2kernel_2include_2sifcmd_8h.html#structt___sif_rpc_receive_data" target="_top" xlink:title=" ">
<polygon fill="white" stroke="#bfbfbf" points="217.5,-85 107.5,-85 107.5,-66 217.5,-66 217.5,-85"/>
<text text-anchor="middle" x="162.5" y="-73" font-family="Helvetica,sans-Serif" font-size="10.00">t_SifRpcReceiveData</text>
</a>
</g>
</g>
<!-- Node3&#45;&gt;Node1 -->
<g id="edge2" class="edge">
<title>Node3&#45;&gt;Node1</title>
<path fill="none" stroke="#9a32cd" stroke-dasharray="5,2" d="M140.8,-59.24C123.08,-46.78 98.67,-29.61 84.05,-19.32"/>
<polygon fill="#9a32cd" stroke="#9a32cd" points="138.42,-61.84 148.61,-64.73 142.44,-56.11 138.42,-61.84"/>
<text text-anchor="middle" x="138.5" y="-40" font-family="Helvetica,sans-Serif" font-size="10.00"> receive</text>
</g>
<!-- Node4 -->
<g id="node4" class="node">
<title>Node4</title>
<g id="a_node4"><a xlink:href="iop_2kernel_2include_2sifcmd_8h.html#structt___sif_rpc_header" target="_top" xlink:title=" ">
<polygon fill="white" stroke="#bfbfbf" points="205.5,-151 119.5,-151 119.5,-132 205.5,-132 205.5,-151"/>
<text text-anchor="middle" x="162.5" y="-139" font-family="Helvetica,sans-Serif" font-size="10.00">t_SifRpcHeader</text>
</a>
</g>
</g>
<!-- Node4&#45;&gt;Node3 -->
<g id="edge3" class="edge">
<title>Node4&#45;&gt;Node3</title>
<path fill="none" stroke="#9a32cd" stroke-dasharray="5,2" d="M162.5,-120.18C162.5,-108.44 162.5,-94.27 162.5,-85.32"/>
<polygon fill="#9a32cd" stroke="#9a32cd" points="159,-120.09 162.5,-130.09 166,-120.09 159,-120.09"/>
<text text-anchor="middle" x="170.5" y="-106" font-family="Helvetica,sans-Serif" font-size="10.00"> hdr</text>
</g>
</g>
</svg>
