<?xml version="1.0" encoding="UTF-8" standalone="no"?>
<!DOCTYPE svg PUBLIC "-//W3C//DTD SVG 1.1//EN"
 "http://www.w3.org/Graphics/SVG/1.1/DTD/svg11.dtd">
<!-- Generated by graphviz version 7.0.5 (20221223.1930)
 -->
<!-- Title: tag_LC_internals Pages: 1 -->
<svg width="251pt" height="192pt"
 viewBox="0.00 0.00 250.50 192.00" xmlns="http://www.w3.org/2000/svg" xmlns:xlink="http://www.w3.org/1999/xlink">
<g id="graph0" class="graph" transform="scale(1 1) rotate(0) translate(4 188)">
<title>tag_LC_internals</title>
<!-- Node1 -->
<g id="node1" class="node">
<title>Node1</title>
<g id="a_node1"><a xlink:title=" ">
<polygon fill="#999999" stroke="#666666" points="150.5,-19 60.5,-19 60.5,0 150.5,0 150.5,-19"/>
<text text-anchor="middle" x="105.5" y="-7" font-family="Helvetica,sans-Serif" font-size="10.00">tag_LC_internals</text>
</a>
</g>
</g>
<!-- Node2 -->
<g id="node2" class="node">
<title>Node2</title>
<g id="a_node2"><a xlink:href="loadcore_8h.html#struct__iop__library" target="_top" xlink:title=" ">
<polygon fill="white" stroke="#bfbfbf" points="75,-118 10,-118 10,-99 75,-99 75,-118"/>
<text text-anchor="middle" x="42.5" y="-106" font-family="Helvetica,sans-Serif" font-size="10.00">_iop_library</text>
</a>
</g>
</g>
<!-- Node2&#45;&gt;Node1 -->
<g id="edge1" class="edge">
<title>Node2&#45;&gt;Node1</title>
<path fill="none" stroke="#9a32cd" stroke-dasharray="5,2" d="M54.58,-88.91C68.11,-68.07 89.49,-35.15 99.7,-19.43"/>
<polygon fill="#9a32cd" stroke="#9a32cd" points="51.65,-86.99 49.14,-97.28 57.52,-90.8 51.65,-86.99"/>
<text text-anchor="middle" x="108" y="-73" font-family="Helvetica,sans-Serif" font-size="10.00"> let_next</text>
<text text-anchor="middle" x="108" y="-62" font-family="Helvetica,sans-Serif" font-size="10.00">let_prev</text>
<text text-anchor="middle" x="108" y="-51" font-family="Helvetica,sans-Serif" font-size="10.00">mda_next</text>
<text text-anchor="middle" x="108" y="-40" font-family="Helvetica,sans-Serif" font-size="10.00">mda_prev</text>
</g>
<!-- Node2&#45;&gt;Node2 -->
<g id="edge2" class="edge">
<title>Node2&#45;&gt;Node2</title>
<path fill="none" stroke="#9a32cd" stroke-dasharray="5,2" d="M86.19,-113.49C90.36,-112.47 93,-110.81 93,-108.5 93,-104.5 85.1,-102.44 75.04,-102.32"/>
<polygon fill="#9a32cd" stroke="#9a32cd" points="86.12,-109.98 76.55,-114.52 86.86,-116.94 86.12,-109.98"/>
<text text-anchor="middle" x="104" y="-106" font-family="Helvetica,sans-Serif" font-size="10.00"> prev</text>
</g>
<!-- Node3 -->
<g id="node3" class="node">
<title>Node3</title>
<g id="a_node3"><a xlink:href="irx_8h.html#structirx__import__table" target="_top" xlink:title=" ">
<polygon fill="white" stroke="#bfbfbf" points="85,-184 0,-184 0,-165 85,-165 85,-184"/>
<text text-anchor="middle" x="42.5" y="-172" font-family="Helvetica,sans-Serif" font-size="10.00">irx_import_table</text>
</a>
</g>
</g>
<!-- Node3&#45;&gt;Node2 -->
<g id="edge3" class="edge">
<title>Node3&#45;&gt;Node2</title>
<path fill="none" stroke="#9a32cd" stroke-dasharray="5,2" d="M42.5,-153.18C42.5,-141.44 42.5,-127.27 42.5,-118.32"/>
<polygon fill="#9a32cd" stroke="#9a32cd" points="39,-153.09 42.5,-163.09 46,-153.09 39,-153.09"/>
<text text-anchor="middle" x="55.5" y="-139" font-family="Helvetica,sans-Serif" font-size="10.00"> caller</text>
</g>
<!-- Node3&#45;&gt;Node3 -->
<g id="edge4" class="edge">
<title>Node3&#45;&gt;Node3</title>
<path fill="none" stroke="#9a32cd" stroke-dasharray="5,2" d="M96.79,-179.04C100.64,-178.01 103,-176.49 103,-174.5 103,-170.96 95.55,-168.93 85.46,-168.43"/>
<polygon fill="#9a32cd" stroke="#9a32cd" points="96.4,-175.56 86.96,-180.36 97.34,-182.49 96.4,-175.56"/>
<text text-anchor="middle" x="113.5" y="-172" font-family="Helvetica,sans-Serif" font-size="10.00"> next</text>
</g>
<!-- Node4 -->
<g id="node4" class="node">
<title>Node4</title>
<g id="a_node4"><a xlink:href="loadcore_8h.html#struct___module_info" target="_top" xlink:title=" ">
<polygon fill="white" stroke="#666666" points="203.5,-118 133.5,-118 133.5,-99 203.5,-99 203.5,-118"/>
<text text-anchor="middle" x="168.5" y="-106" font-family="Helvetica,sans-Serif" font-size="10.00">_ModuleInfo</text>
</a>
</g>
</g>
<!-- Node4&#45;&gt;Node1 -->
<g id="edge5" class="edge">
<title>Node4&#45;&gt;Node1</title>
<path fill="none" stroke="#9a32cd" stroke-dasharray="5,2" d="M160.35,-88.43C153.63,-73.72 143.32,-53.22 131.5,-37 126.87,-30.64 120.75,-24.33 115.61,-19.46"/>
<polygon fill="#9a32cd" stroke="#9a32cd" points="157.07,-89.67 164.31,-97.4 163.47,-86.84 157.07,-89.67"/>
<text text-anchor="middle" x="180.5" y="-56.5" font-family="Helvetica,sans-Serif" font-size="10.00"> image_info</text>
</g>
<!-- Node4&#45;&gt;Node4 -->
<g id="edge6" class="edge">
<title>Node4&#45;&gt;Node4</title>
<path fill="none" stroke="#9a32cd" stroke-dasharray="5,2" d="M214.77,-113.39C218.91,-112.37 221.5,-110.74 221.5,-108.5 221.5,-104.63 213.74,-102.58 203.67,-102.34"/>
<polygon fill="#9a32cd" stroke="#9a32cd" points="214.71,-109.87 205.17,-114.49 215.51,-116.83 214.71,-109.87"/>
<text text-anchor="middle" x="232" y="-106" font-family="Helvetica,sans-Serif" font-size="10.00"> next</text>
</g>
</g>
</svg>
