<?xml version="1.0" encoding="UTF-8" standalone="no"?>
<!DOCTYPE svg PUBLIC "-//W3C//DTD SVG 1.1//EN"
 "http://www.w3.org/Graphics/SVG/1.1/DTD/svg11.dtd">
<!-- Generated by graphviz version 7.0.5 (20221223.1930)
 -->
<!-- Title: pfs_mount_t Pages: 1 -->
<svg width="210pt" height="115pt"
 viewBox="0.00 0.00 210.00 115.00" xmlns="http://www.w3.org/2000/svg" xmlns:xlink="http://www.w3.org/1999/xlink">
<g id="graph0" class="graph" transform="scale(1 1) rotate(0) translate(4 111)">
<title>pfs_mount_t</title>
<!-- Node1 -->
<g id="node1" class="node">
<title>Node1</title>
<g id="a_node1"><a xlink:title=" ">
<polygon fill="#999999" stroke="#666666" points="141,-19 70,-19 70,0 141,0 141,-19"/>
<text text-anchor="middle" x="105.5" y="-7" font-family="Helvetica,sans-Serif" font-size="10.00">pfs_mount_t</text>
</a>
</g>
</g>
<!-- Node2 -->
<g id="node2" class="node">
<title>Node2</title>
<g id="a_node2"><a xlink:href="structpfs__block__device__t.html" target="_top" xlink:title=" ">
<polygon fill="white" stroke="#bfbfbf" points="101,-107 0,-107 0,-88 101,-88 101,-107"/>
<text text-anchor="middle" x="50.5" y="-95" font-family="Helvetica,sans-Serif" font-size="10.00">pfs_block_device_t</text>
</a>
</g>
</g>
<!-- Node2&#45;&gt;Node1 -->
<g id="edge1" class="edge">
<title>Node2&#45;&gt;Node1</title>
<path fill="none" stroke="#9a32cd" stroke-dasharray="5,2" d="M62.22,-78.17C73.77,-60.11 90.93,-33.29 99.77,-19.46"/>
<polygon fill="#9a32cd" stroke="#9a32cd" points="59.43,-76.04 56.99,-86.35 65.33,-79.81 59.43,-76.04"/>
<text text-anchor="middle" x="110" y="-51" font-family="Helvetica,sans-Serif" font-size="10.00"> blockDev</text>
</g>
<!-- Node3 -->
<g id="node3" class="node">
<title>Node3</title>
<g id="a_node3"><a xlink:href="structpfs__blockinfo__t.html" target="_top" xlink:title=" ">
<polygon fill="white" stroke="#bfbfbf" points="202,-107 119,-107 119,-88 202,-88 202,-107"/>
<text text-anchor="middle" x="160.5" y="-95" font-family="Helvetica,sans-Serif" font-size="10.00">pfs_blockinfo_t</text>
</a>
</g>
</g>
<!-- Node3&#45;&gt;Node1 -->
<g id="edge2" class="edge">
<title>Node3&#45;&gt;Node1</title>
<path fill="none" stroke="#9a32cd" stroke-dasharray="5,2" d="M154.8,-77.01C150.65,-64.81 144.22,-49.15 135.5,-37 130.72,-30.34 123.97,-24.19 118.09,-19.49"/>
<polygon fill="#9a32cd" stroke="#9a32cd" points="151.4,-77.87 157.74,-86.36 158.08,-75.77 151.4,-77.87"/>
<text text-anchor="middle" x="176" y="-62" font-family="Helvetica,sans-Serif" font-size="10.00"> current_dir</text>
<text text-anchor="middle" x="176" y="-51" font-family="Helvetica,sans-Serif" font-size="10.00">log</text>
<text text-anchor="middle" x="176" y="-40" font-family="Helvetica,sans-Serif" font-size="10.00">root_dir</text>
</g>
</g>
</svg>
