<?xml version="1.0" encoding="UTF-8" standalone="no"?>
<!DOCTYPE svg PUBLIC "-//W3C//DTD SVG 1.1//EN"
 "http://www.w3.org/Graphics/SVG/1.1/DTD/svg11.dtd">
<!-- Generated by graphviz version 7.0.5 (20221223.1930)
 -->
<!-- Title: hdd_file_slot_t Pages: 1 -->
<svg width="197pt" height="225pt"
 viewBox="0.00 0.00 197.00 225.00" xmlns="http://www.w3.org/2000/svg" xmlns:xlink="http://www.w3.org/1999/xlink">
<g id="graph0" class="graph" transform="scale(1 1) rotate(0) translate(4 221)">
<title>hdd_file_slot_t</title>
<!-- Node1 -->
<g id="node1" class="node">
<title>Node1</title>
<g id="a_node1"><a xlink:title=" ">
<polygon fill="#999999" stroke="#666666" points="173.5,-19 94.5,-19 94.5,0 173.5,0 173.5,-19"/>
<text text-anchor="middle" x="134" y="-7" font-family="Helvetica,sans-Serif" font-size="10.00">hdd_file_slot_t</text>
</a>
</g>
</g>
<!-- Node2 -->
<g id="node2" class="node">
<title>Node2</title>
<g id="a_node2"><a xlink:href="ioman_x_8h.html#struct__ioman_x__iop__file" target="_top" xlink:title=" ">
<polygon fill="white" stroke="#666666" points="109,-85 19,-85 19,-66 109,-66 109,-85"/>
<text text-anchor="middle" x="64" y="-73" font-family="Helvetica,sans-Serif" font-size="10.00">_iomanX_iop_file</text>
</a>
</g>
</g>
<!-- Node2&#45;&gt;Node1 -->
<g id="edge1" class="edge">
<title>Node2&#45;&gt;Node1</title>
<path fill="none" stroke="#9a32cd" stroke-dasharray="5,2" d="M82.23,-57.83C95.7,-45.52 113.52,-29.23 124.35,-19.32"/>
<polygon fill="#9a32cd" stroke="#9a32cd" points="79.87,-55.25 74.85,-64.58 84.59,-60.42 79.87,-55.25"/>
<text text-anchor="middle" x="107" y="-40" font-family="Helvetica,sans-Serif" font-size="10.00"> f</text>
</g>
<!-- Node3 -->
<g id="node3" class="node">
<title>Node3</title>
<g id="a_node3"><a xlink:href="ioman_x_8h.html#struct__ioman_x__iop__device" target="_top" xlink:title=" ">
<polygon fill="white" stroke="#bfbfbf" points="117.5,-151 10.5,-151 10.5,-132 117.5,-132 117.5,-151"/>
<text text-anchor="middle" x="64" y="-139" font-family="Helvetica,sans-Serif" font-size="10.00">_iomanX_iop_device</text>
</a>
</g>
</g>
<!-- Node3&#45;&gt;Node2 -->
<g id="edge2" class="edge">
<title>Node3&#45;&gt;Node2</title>
<path fill="none" stroke="#9a32cd" stroke-dasharray="5,2" d="M64,-120.18C64,-108.44 64,-94.27 64,-85.32"/>
<polygon fill="#9a32cd" stroke="#9a32cd" points="60.5,-120.09 64,-130.09 67.5,-120.09 60.5,-120.09"/>
<text text-anchor="middle" x="79.5" y="-106" font-family="Helvetica,sans-Serif" font-size="10.00"> device</text>
</g>
<!-- Node4 -->
<g id="node4" class="node">
<title>Node4</title>
<g id="a_node4"><a xlink:href="struct__ioman_x__iop__device__ops.html" target="_top" xlink:title=" ">
<polygon fill="white" stroke="#bfbfbf" points="128,-217 0,-217 0,-198 128,-198 128,-217"/>
<text text-anchor="middle" x="64" y="-205" font-family="Helvetica,sans-Serif" font-size="10.00">_iomanX_iop_device_ops</text>
</a>
</g>
</g>
<!-- Node4&#45;&gt;Node3 -->
<g id="edge3" class="edge">
<title>Node4&#45;&gt;Node3</title>
<path fill="none" stroke="#9a32cd" stroke-dasharray="5,2" d="M64,-186.18C64,-174.44 64,-160.27 64,-151.32"/>
<polygon fill="#9a32cd" stroke="#9a32cd" points="60.5,-186.09 64,-196.09 67.5,-186.09 60.5,-186.09"/>
<text text-anchor="middle" x="73.5" y="-172" font-family="Helvetica,sans-Serif" font-size="10.00"> ops</text>
</g>
<!-- Node5 -->
<g id="node5" class="node">
<title>Node5</title>
<g id="a_node5"><a xlink:href="structapa__sub__t.html" target="_top" xlink:title=" ">
<polygon fill="white" stroke="#bfbfbf" points="189,-85 127,-85 127,-66 189,-66 189,-85"/>
<text text-anchor="middle" x="158" y="-73" font-family="Helvetica,sans-Serif" font-size="10.00">apa_sub_t</text>
</a>
</g>
</g>
<!-- Node5&#45;&gt;Node1 -->
<g id="edge4" class="edge">
<title>Node5&#45;&gt;Node1</title>
<path fill="none" stroke="#9a32cd" stroke-dasharray="5,2" d="M150.66,-54.93C146.21,-43.05 140.74,-28.46 137.31,-19.32"/>
<polygon fill="#9a32cd" stroke="#9a32cd" points="147.34,-56.05 154.13,-64.18 153.9,-53.59 147.34,-56.05"/>
<text text-anchor="middle" x="159.5" y="-40" font-family="Helvetica,sans-Serif" font-size="10.00"> parts</text>
</g>
</g>
</svg>
