<?xml version="1.0" encoding="UTF-8" standalone="no"?>
<!DOCTYPE svg PUBLIC "-//W3C//DTD SVG 1.1//EN"
 "http://www.w3.org/Graphics/SVG/1.1/DTD/svg11.dtd">
<!-- Generated by graphviz version 7.0.5 (20221223.1930)
 -->
<!-- Title: t_SifRpcDataQueue Pages: 1 -->
<svg width="253pt" height="184pt"
 viewBox="0.00 0.00 252.50 184.00" xmlns="http://www.w3.org/2000/svg" xmlns:xlink="http://www.w3.org/1999/xlink">
<g id="graph0" class="graph" transform="scale(1 1) rotate(0) translate(4 180)">
<title>t_SifRpcDataQueue</title>
<!-- Node1 -->
<g id="node1" class="node">
<title>Node1</title>
<g id="a_node1"><a xlink:title=" ">
<polygon fill="#999999" stroke="#666666" points="103,-176 0,-176 0,-157 103,-157 103,-176"/>
<text text-anchor="middle" x="51.5" y="-164" font-family="Helvetica,sans-Serif" font-size="10.00">t_SifRpcDataQueue</text>
</a>
</g>
</g>
<!-- Node1&#45;&gt;Node1 -->
<g id="edge7" class="edge">
<title>Node1&#45;&gt;Node1</title>
<path fill="none" stroke="#9a32cd" stroke-dasharray="5,2" d="M114.47,-172.35C118.54,-170.98 121,-169.03 121,-166.5 121,-162.12 113.64,-159.48 103.33,-158.59"/>
<polygon fill="#9a32cd" stroke="#9a32cd" points="114.02,-168.88 104.82,-174.13 115.29,-175.76 114.02,-168.88"/>
<text text-anchor="middle" x="131.5" y="-164" font-family="Helvetica,sans-Serif" font-size="10.00"> next</text>
</g>
<!-- Node2 -->
<g id="node2" class="node">
<title>Node2</title>
<g id="a_node2"><a xlink:href="iop_2kernel_2include_2sifcmd_8h.html#structt___sif_rpc_server_data" target="_top" xlink:title=" ">
<polygon fill="white" stroke="#bfbfbf" points="103,-86.5 0,-86.5 0,-67.5 103,-67.5 103,-86.5"/>
<text text-anchor="middle" x="51.5" y="-74.5" font-family="Helvetica,sans-Serif" font-size="10.00">t_SifRpcServerData</text>
</a>
</g>
</g>
<!-- Node1&#45;&gt;Node2 -->
<g id="edge6" class="edge">
<title>Node1&#45;&gt;Node2</title>
<path fill="none" stroke="#9a32cd" stroke-dasharray="5,2" d="M31.21,-148.4C28.89,-145.51 26.87,-142.35 25.5,-139 19.95,-125.42 20.14,-119.65 25.5,-106 28.46,-98.47 34.5,-91.75 40.02,-86.79"/>
<polygon fill="#9a32cd" stroke="#9a32cd" points="28.67,-150.8 38.16,-155.52 33.68,-145.92 28.67,-150.8"/>
<text text-anchor="middle" x="37.5" y="-120" font-family="Helvetica,sans-Serif" font-size="10.00"> base</text>
</g>
<!-- Node2&#45;&gt;Node1 -->
<g id="edge1" class="edge">
<title>Node2&#45;&gt;Node1</title>
<path fill="none" stroke="#9a32cd" stroke-dasharray="5,2" d="M53.12,-98.25C53.28,-100.85 53.41,-103.49 53.5,-106 54.02,-120.66 54.05,-124.34 53.5,-139 53.28,-144.9 52.78,-151.53 52.33,-156.68"/>
<polygon fill="#9a32cd" stroke="#9a32cd" points="56.61,-98.05 52.4,-88.33 49.63,-98.55 56.61,-98.05"/>
<text text-anchor="middle" x="64.5" y="-131" font-family="Helvetica,sans-Serif" font-size="10.00"> end</text>
<text text-anchor="middle" x="64.5" y="-120" font-family="Helvetica,sans-Serif" font-size="10.00">link</text>
<text text-anchor="middle" x="64.5" y="-109" font-family="Helvetica,sans-Serif" font-size="10.00">start</text>
</g>
<!-- Node2&#45;&gt;Node2 -->
<g id="edge5" class="edge">
<title>Node2&#45;&gt;Node2</title>
<path fill="none" stroke="#9a32cd" stroke-dasharray="5,2" d="M114.47,-81.59C118.54,-80.52 121,-78.99 121,-77 121,-73.56 113.64,-71.5 103.33,-70.8"/>
<polygon fill="#9a32cd" stroke="#9a32cd" points="114.22,-78.09 104.83,-82.98 115.23,-85.01 114.22,-78.09"/>
<text text-anchor="middle" x="130.5" y="-80" font-family="Helvetica,sans-Serif" font-size="10.00"> link</text>
<text text-anchor="middle" x="130.5" y="-69" font-family="Helvetica,sans-Serif" font-size="10.00">next</text>
</g>
<!-- Node3 -->
<g id="node3" class="node">
<title>Node3</title>
<g id="a_node3"><a xlink:href="iop_2kernel_2include_2sifcmd_8h.html#structt___sif_rpc_client_data" target="_top" xlink:title=" ">
<polygon fill="white" stroke="#bfbfbf" points="154,-19 55,-19 55,0 154,0 154,-19"/>
<text text-anchor="middle" x="104.5" y="-7" font-family="Helvetica,sans-Serif" font-size="10.00">t_SifRpcClientData</text>
</a>
</g>
</g>
<!-- Node2&#45;&gt;Node3 -->
<g id="edge4" class="edge">
<title>Node2&#45;&gt;Node3</title>
<path fill="none" stroke="#9a32cd" stroke-dasharray="5,2" d="M45.43,-56.35C44.54,-49.76 44.91,-42.67 48.5,-37 53.56,-29 61.76,-23.37 70.34,-19.43"/>
<polygon fill="#9a32cd" stroke="#9a32cd" points="41.95,-56.81 47.65,-65.74 48.76,-55.21 41.95,-56.81"/>
<text text-anchor="middle" x="63.5" y="-40" font-family="Helvetica,sans-Serif" font-size="10.00"> server</text>
</g>
<!-- Node3&#45;&gt;Node2 -->
<g id="edge2" class="edge">
<title>Node3&#45;&gt;Node2</title>
<path fill="none" stroke="#9a32cd" stroke-dasharray="5,2" d="M95.11,-29.04C91.55,-35.33 87.2,-42.23 82.5,-48 76.73,-55.09 69.13,-61.98 62.9,-67.15"/>
<polygon fill="#9a32cd" stroke="#9a32cd" points="97.97,-31.13 99.59,-20.66 91.79,-27.83 97.97,-31.13"/>
<text text-anchor="middle" x="103.5" y="-40" font-family="Helvetica,sans-Serif" font-size="10.00"> client</text>
</g>
<!-- Node4 -->
<g id="node4" class="node">
<title>Node4</title>
<g id="a_node4"><a xlink:href="iop_2kernel_2include_2sifcmd_8h.html#structt___sif_rpc_header" target="_top" xlink:title=" ">
<polygon fill="white" stroke="#bfbfbf" points="244.5,-86.5 158.5,-86.5 158.5,-67.5 244.5,-67.5 244.5,-86.5"/>
<text text-anchor="middle" x="201.5" y="-74.5" font-family="Helvetica,sans-Serif" font-size="10.00">t_SifRpcHeader</text>
</a>
</g>
</g>
<!-- Node4&#45;&gt;Node3 -->
<g id="edge3" class="edge">
<title>Node4&#45;&gt;Node3</title>
<path fill="none" stroke="#9a32cd" stroke-dasharray="5,2" d="M179.01,-60.81C160,-47.98 133.42,-30.03 117.68,-19.4"/>
<polygon fill="#9a32cd" stroke="#9a32cd" points="176.92,-63.62 187.16,-66.32 180.83,-57.82 176.92,-63.62"/>
<text text-anchor="middle" x="166.5" y="-40" font-family="Helvetica,sans-Serif" font-size="10.00"> hdr</text>
</g>
</g>
</svg>
