<?xml version="1.0" encoding="UTF-8" standalone="no"?>
<!DOCTYPE svg PUBLIC "-//W3C//DTD SVG 1.1//EN"
 "http://www.w3.org/Graphics/SVG/1.1/DTD/svg11.dtd">
<!-- Generated by graphviz version 7.0.5 (20221223.1930)
 -->
<!-- Title: GS_LINE_F1_P Pages: 1 -->
<svg width="269pt" height="170pt"
 viewBox="0.00 0.00 268.50 170.00" xmlns="http://www.w3.org/2000/svg" xmlns:xlink="http://www.w3.org/1999/xlink">
<g id="graph0" class="graph" transform="scale(1 1) rotate(0) translate(4 166)">
<title>GS_LINE_F1_P</title>
<!-- Node1 -->
<g id="node1" class="node">
<title>Node1</title>
<g id="a_node1"><a xlink:title=" ">
<polygon fill="#999999" stroke="#666666" points="176,-19 89,-19 89,0 176,0 176,-19"/>
<text text-anchor="middle" x="132.5" y="-7" font-family="Helvetica,sans-Serif" font-size="10.00">GS_LINE_F1_P</text>
</a>
</g>
</g>
<!-- Node2 -->
<g id="node2" class="node">
<title>Node2</title>
<g id="a_node2"><a xlink:href="libgs_8h.html#struct_g_s___r___p_r_i_m" target="_top" xlink:title=" ">
<polygon fill="white" stroke="#bfbfbf" points="73,-96 0,-96 0,-77 73,-77 73,-96"/>
<text text-anchor="middle" x="36.5" y="-84" font-family="Helvetica,sans-Serif" font-size="10.00">GS_R_PRIM</text>
</a>
</g>
</g>
<!-- Node2&#45;&gt;Node1 -->
<g id="edge1" class="edge">
<title>Node2&#45;&gt;Node1</title>
<path fill="none" stroke="#9a32cd" stroke-dasharray="5,2" d="M56.91,-69.56C76.48,-54.26 105.33,-31.73 121.13,-19.39"/>
<polygon fill="#9a32cd" stroke="#9a32cd" points="54.81,-66.76 49.08,-75.67 59.12,-72.27 54.81,-66.76"/>
<text text-anchor="middle" x="107.5" y="-45.5" font-family="Helvetica,sans-Serif" font-size="10.00"> prim</text>
</g>
<!-- Node3 -->
<g id="node3" class="node">
<title>Node3</title>
<g id="a_node3"><a xlink:href="libgs_8h.html#struct_g_s___p_r_i_m" target="_top" xlink:title=" ">
<polygon fill="white" stroke="#bfbfbf" points="67,-162 6,-162 6,-143 67,-143 67,-162"/>
<text text-anchor="middle" x="36.5" y="-150" font-family="Helvetica,sans-Serif" font-size="10.00">GS_PRIM</text>
</a>
</g>
</g>
<!-- Node3&#45;&gt;Node2 -->
<g id="edge2" class="edge">
<title>Node3&#45;&gt;Node2</title>
<path fill="none" stroke="#9a32cd" stroke-dasharray="5,2" d="M36.5,-131.18C36.5,-119.44 36.5,-105.27 36.5,-96.32"/>
<polygon fill="#9a32cd" stroke="#9a32cd" points="33,-131.09 36.5,-141.09 40,-131.09 33,-131.09"/>
<text text-anchor="middle" x="47.5" y="-117" font-family="Helvetica,sans-Serif" font-size="10.00"> data</text>
</g>
<!-- Node4 -->
<g id="node4" class="node">
<title>Node4</title>
<g id="a_node4"><a xlink:href="libgs_8h.html#struct_g_s___r___r_g_b_a_q" target="_top" xlink:title=" ">
<polygon fill="white" stroke="#bfbfbf" points="174,-96 91,-96 91,-77 174,-77 174,-96"/>
<text text-anchor="middle" x="132.5" y="-84" font-family="Helvetica,sans-Serif" font-size="10.00">GS_R_RGBAQ</text>
</a>
</g>
</g>
<!-- Node4&#45;&gt;Node1 -->
<g id="edge3" class="edge">
<title>Node4&#45;&gt;Node1</title>
<path fill="none" stroke="#9a32cd" stroke-dasharray="5,2" d="M132.5,-65.42C132.5,-50.43 132.5,-30.66 132.5,-19.39"/>
<polygon fill="#9a32cd" stroke="#9a32cd" points="129,-65.09 132.5,-75.09 136,-65.09 129,-65.09"/>
<text text-anchor="middle" x="148.5" y="-45.5" font-family="Helvetica,sans-Serif" font-size="10.00"> rgbaq0</text>
</g>
<!-- Node5 -->
<g id="node5" class="node">
<title>Node5</title>
<g id="a_node5"><a xlink:href="libgs_8h.html#struct_g_s___r_g_b_a_q" target="_top" xlink:title=" ">
<polygon fill="white" stroke="#bfbfbf" points="168,-162 97,-162 97,-143 168,-143 168,-162"/>
<text text-anchor="middle" x="132.5" y="-150" font-family="Helvetica,sans-Serif" font-size="10.00">GS_RGBAQ</text>
</a>
</g>
</g>
<!-- Node5&#45;&gt;Node4 -->
<g id="edge4" class="edge">
<title>Node5&#45;&gt;Node4</title>
<path fill="none" stroke="#9a32cd" stroke-dasharray="5,2" d="M132.5,-131.18C132.5,-119.44 132.5,-105.27 132.5,-96.32"/>
<polygon fill="#9a32cd" stroke="#9a32cd" points="129,-131.09 132.5,-141.09 136,-131.09 129,-131.09"/>
<text text-anchor="middle" x="143.5" y="-117" font-family="Helvetica,sans-Serif" font-size="10.00"> data</text>
</g>
<!-- Node6 -->
<g id="node6" class="node">
<title>Node6</title>
<g id="a_node6"><a xlink:href="libgs_8h.html#struct_g_s___r___x_y_z" target="_top" xlink:title=" ">
<polygon fill="white" stroke="#bfbfbf" points="260.5,-96 192.5,-96 192.5,-77 260.5,-77 260.5,-96"/>
<text text-anchor="middle" x="226.5" y="-84" font-family="Helvetica,sans-Serif" font-size="10.00">GS_R_XYZ</text>
</a>
</g>
</g>
<!-- Node6&#45;&gt;Node1 -->
<g id="edge5" class="edge">
<title>Node6&#45;&gt;Node1</title>
<path fill="none" stroke="#9a32cd" stroke-dasharray="5,2" d="M207.85,-69.41C196.6,-59.82 181.89,-47.51 168.5,-37 160.81,-30.96 151.97,-24.45 144.97,-19.39"/>
<polygon fill="#9a32cd" stroke="#9a32cd" points="205.37,-71.89 215.24,-75.74 209.92,-66.57 205.37,-71.89"/>
<text text-anchor="middle" x="205.5" y="-51" font-family="Helvetica,sans-Serif" font-size="10.00"> xyz0</text>
<text text-anchor="middle" x="205.5" y="-40" font-family="Helvetica,sans-Serif" font-size="10.00">xyz1</text>
</g>
<!-- Node7 -->
<g id="node7" class="node">
<title>Node7</title>
<g id="a_node7"><a xlink:href="libgs_8h.html#struct_g_s___x_y_z" target="_top" xlink:title=" ">
<polygon fill="white" stroke="#bfbfbf" points="254.5,-162 198.5,-162 198.5,-143 254.5,-143 254.5,-162"/>
<text text-anchor="middle" x="226.5" y="-150" font-family="Helvetica,sans-Serif" font-size="10.00">GS_XYZ</text>
</a>
</g>
</g>
<!-- Node7&#45;&gt;Node6 -->
<g id="edge6" class="edge">
<title>Node7&#45;&gt;Node6</title>
<path fill="none" stroke="#9a32cd" stroke-dasharray="5,2" d="M226.5,-131.18C226.5,-119.44 226.5,-105.27 226.5,-96.32"/>
<polygon fill="#9a32cd" stroke="#9a32cd" points="223,-131.09 226.5,-141.09 230,-131.09 223,-131.09"/>
<text text-anchor="middle" x="237.5" y="-117" font-family="Helvetica,sans-Serif" font-size="10.00"> data</text>
</g>
</g>
</svg>
