<?xml version="1.0" encoding="UTF-8" standalone="no"?>
<!DOCTYPE svg PUBLIC "-//W3C//DTD SVG 1.1//EN"
 "http://www.w3.org/Graphics/SVG/1.1/DTD/svg11.dtd">
<!-- Generated by graphviz version 7.0.5 (20221223.1930)
 -->
<!-- Title: _endpoint Pages: 1 -->
<!--zoomable 391 -->
<svg id="main" version="1.1" xmlns="http://www.w3.org/2000/svg" xmlns:xlink="http://www.w3.org/1999/xlink" xml:space="preserve" onload="init(evt)">
<style type="text/css"><![CDATA[
.edge:hover path { stroke: red; }
.edge:hover polygon { stroke: red; fill: red; }
]]></style>
<script type="text/javascript"><![CDATA[
var edges = document.getElementsByTagName('g');
if (edges && edges.length) {
  for (var i=0;i<edges.length;i++) {
    if (edges[i].id.substr(0,4)=='edge') {
      edges[i].setAttribute('class','edge');
    }
  }
}
]]></script>
        <defs>
                <circle id="rim" cx="0" cy="0" r="7"/>
                <circle id="rim2" cx="0" cy="0" r="3.5"/>
                <g id="zoomPlus">
                        <use xlink:href="#rim" fill="#404040">
                                <set attributeName="fill" to="#808080" begin="zoomplus.mouseover" end="zoomplus.mouseout"/>
                        </use>
                        <path d="M-4,0h8M0,-4v8" fill="none" stroke="white" stroke-width="1.5" pointer-events="none"/>
                </g>
                <g id="zoomMin">
                        <use xlink:href="#rim" fill="#404040">
                                <set attributeName="fill" to="#808080" begin="zoomminus.mouseover" end="zoomminus.mouseout"/>
                        </use>
                        <path d="M-4,0h8" fill="none" stroke="white" stroke-width="1.5" pointer-events="none"/>
                </g>
                <g id="dirArrow">
                        <path fill="none" stroke="white" stroke-width="1.5" d="M0,-3.0v7 M-2.5,-0.5L0,-3.0L2.5,-0.5"/>
                </g>
               <g id="resetDef">
                       <use xlink:href="#rim2" fill="#404040">
                               <set attributeName="fill" to="#808080" begin="reset.mouseover" end="reset.mouseout"/>
                       </use>
               </g>
        </defs>

<script type="text/javascript">
var viewWidth = 553;
var viewHeight = 391;
var sectionId = 'dynsection-8';
</script>
<script xlink:href="svgpan.js"/>
<svg id="graph" class="graph">
<g id="viewport">
<title>_endpoint</title>
<!-- Node1 -->
<g id="node1" class="node">
<title>Node1</title>
<g id="a_node1"><a xlink:title=" ">
<polygon fill="#999999" stroke="#666666" points="309,-224.5 250,-224.5 250,-205.5 309,-205.5 309,-224.5"/>
<text text-anchor="middle" x="279.5" y="-212.5" font-family="Helvetica,sans-Serif" font-size="10.00">_endpoint</text>
</a>
</g>
</g>
<!-- Node1&#45;&gt;Node1 -->
<g id="edge1" class="edge">
<title>Node1&#45;&gt;Node1</title>
<path fill="none" stroke="#9a32cd" stroke-dasharray="5,2" d="M320.54,-221.9C324.5,-220.5 327,-218.2 327,-215 327,-209.31 319.08,-206.47 309.19,-206.47"/>
<polygon fill="#9a32cd" stroke="#9a32cd" points="320.09,-218.43 310.69,-223.32 321.08,-225.36 320.09,-218.43"/>
<text text-anchor="middle" x="348.5" y="-229" font-family="Helvetica,sans-Serif" font-size="10.00"> busyNext</text>
<text text-anchor="middle" x="348.5" y="-218" font-family="Helvetica,sans-Serif" font-size="10.00">busyPrev</text>
<text text-anchor="middle" x="348.5" y="-207" font-family="Helvetica,sans-Serif" font-size="10.00">next</text>
<text text-anchor="middle" x="348.5" y="-196" font-family="Helvetica,sans-Serif" font-size="10.00">prev</text>
</g>
<!-- Node2 -->
<g id="node2" class="node">
<title>Node2</title>
<g id="a_node2"><a xlink:href="usbdpriv_8h.html#struct__device" target="_top" xlink:title=" ">
<polygon fill="white" stroke="#bfbfbf" points="203.5,-37 153.5,-37 153.5,-18 203.5,-18 203.5,-37"/>
<text text-anchor="middle" x="178.5" y="-25" font-family="Helvetica,sans-Serif" font-size="10.00">_device</text>
</a>
</g>
</g>
<!-- Node1&#45;&gt;Node2 -->
<g id="edge4" class="edge">
<title>Node1&#45;&gt;Node2</title>
<path fill="none" stroke="#9a32cd" stroke-dasharray="5,2" d="M279.24,-194.02C278.14,-170.58 273.76,-131.22 257.5,-102 241.56,-73.35 210.5,-49.52 192.44,-37.31"/>
<polygon fill="#9a32cd" stroke="#9a32cd" points="275.73,-193.83 279.52,-203.73 282.73,-193.63 275.73,-193.83"/>
<text text-anchor="middle" x="307" y="-121.5" font-family="Helvetica,sans-Serif" font-size="10.00"> endpointListEnd</text>
<text text-anchor="middle" x="307" y="-110.5" font-family="Helvetica,sans-Serif" font-size="10.00">endpointListStart</text>
</g>
<!-- Node5 -->
<g id="node5" class="node">
<title>Node5</title>
<g id="a_node5"><a xlink:href="usbdpriv_8h.html#struct__io_request" target="_top" xlink:title=" ">
<polygon fill="white" stroke="#bfbfbf" points="438,-128 373,-128 373,-109 438,-109 438,-128"/>
<text text-anchor="middle" x="405.5" y="-116" font-family="Helvetica,sans-Serif" font-size="10.00">_ioRequest</text>
</a>
</g>
</g>
<!-- Node1&#45;&gt;Node5 -->
<g id="edge11" class="edge">
<title>Node1&#45;&gt;Node5</title>
<path fill="none" stroke="#9a32cd" stroke-dasharray="5,2" d="M320.16,-204.65C339.03,-198.67 360.72,-189.29 376.5,-175 390.85,-162.01 399.26,-140.25 403.06,-128.2"/>
<polygon fill="#9a32cd" stroke="#9a32cd" points="319.22,-201.27 310.6,-207.44 321.18,-207.99 319.22,-201.27"/>
<text text-anchor="middle" x="429" y="-161.5" font-family="Helvetica,sans-Serif" font-size="10.00"> correspEndpoint</text>
</g>
<!-- Node2&#45;&gt;Node1 -->
<g id="edge2" class="edge">
<title>Node2&#45;&gt;Node1</title>
<path fill="none" stroke="#9a32cd" stroke-dasharray="5,2" d="M177.15,-48.76C176.53,-71.15 178.19,-107.65 192.5,-135 209.24,-167 244.42,-192.51 264.54,-205.21"/>
<polygon fill="#9a32cd" stroke="#9a32cd" points="180.64,-49.05 177.62,-38.9 173.64,-48.72 180.64,-49.05"/>
<text text-anchor="middle" x="225" y="-116" font-family="Helvetica,sans-Serif" font-size="10.00"> correspDevice</text>
</g>
<!-- Node2&#45;&gt;Node2 -->
<g id="edge3" class="edge">
<title>Node2&#45;&gt;Node2</title>
<path fill="none" stroke="#9a32cd" stroke-dasharray="5,2" d="M214.97,-35.51C218.94,-33.98 221.5,-31.31 221.5,-27.5 221.5,-20.73 213.41,-17.55 203.68,-17.97"/>
<polygon fill="#9a32cd" stroke="#9a32cd" points="214.62,-32.03 205.18,-36.82 215.55,-38.97 214.62,-32.03"/>
<text text-anchor="middle" x="250.5" y="-47" font-family="Helvetica,sans-Serif" font-size="10.00"> childListEnd</text>
<text text-anchor="middle" x="250.5" y="-36" font-family="Helvetica,sans-Serif" font-size="10.00">childListStart</text>
<text text-anchor="middle" x="250.5" y="-25" font-family="Helvetica,sans-Serif" font-size="10.00">next</text>
<text text-anchor="middle" x="250.5" y="-14" font-family="Helvetica,sans-Serif" font-size="10.00">parent</text>
<text text-anchor="middle" x="250.5" y="-3" font-family="Helvetica,sans-Serif" font-size="10.00">prev</text>
</g>
<!-- Node3 -->
<g id="node3" class="node">
<title>Node3</title>
<g id="a_node3"><a xlink:href="struct___usb_driver.html" target="_top" xlink:title=" ">
<polygon fill="white" stroke="#666666" points="65,-128 0,-128 0,-109 65,-109 65,-128"/>
<text text-anchor="middle" x="32.5" y="-116" font-family="Helvetica,sans-Serif" font-size="10.00">_UsbDriver</text>
</a>
</g>
</g>
<!-- Node3&#45;&gt;Node2 -->
<g id="edge5" class="edge">
<title>Node3&#45;&gt;Node2</title>
<path fill="none" stroke="#9a32cd" stroke-dasharray="5,2" d="M46.26,-99.76C53.85,-90.86 63.88,-80.41 74.5,-73 98.98,-55.92 131.05,-43.43 153.07,-36.11"/>
<polygon fill="#9a32cd" stroke="#9a32cd" points="43.61,-97.47 40.02,-107.44 49.04,-101.89 43.61,-97.47"/>
<text text-anchor="middle" x="96.5" y="-76" font-family="Helvetica,sans-Serif" font-size="10.00"> devDriver</text>
</g>
<!-- Node3&#45;&gt;Node3 -->
<g id="edge6" class="edge">
<title>Node3&#45;&gt;Node3</title>
<path fill="none" stroke="#9a32cd" stroke-dasharray="5,2" d="M76.19,-124.55C80.36,-123.32 83,-121.3 83,-118.5 83,-113.66 75.1,-111.16 65.04,-111.01"/>
<polygon fill="#9a32cd" stroke="#9a32cd" points="76.01,-121.04 66.54,-125.8 76.91,-127.98 76.01,-121.04"/>
<text text-anchor="middle" x="93.5" y="-121.5" font-family="Helvetica,sans-Serif" font-size="10.00"> next</text>
<text text-anchor="middle" x="93.5" y="-110.5" font-family="Helvetica,sans-Serif" font-size="10.00">prev</text>
</g>
<!-- Node4 -->
<g id="node4" class="node">
<title>Node4</title>
<g id="a_node4"><a xlink:href="usbdpriv_8h.html#struct__timer_cb_struct" target="_top" xlink:title=" ">
<polygon fill="white" stroke="#bfbfbf" points="187.5,-304.5 105.5,-304.5 105.5,-285.5 187.5,-285.5 187.5,-304.5"/>
<text text-anchor="middle" x="146.5" y="-292.5" font-family="Helvetica,sans-Serif" font-size="10.00">_timerCbStruct</text>
</a>
</g>
</g>
<!-- Node4&#45;&gt;Node1 -->
<g id="edge14" class="edge">
<title>Node4&#45;&gt;Node1</title>
<path fill="none" stroke="#9a32cd" stroke-dasharray="5,2" d="M171.39,-279.4C198.74,-263.36 241.78,-238.12 264.42,-224.84"/>
<polygon fill="#9a32cd" stroke="#9a32cd" points="169.92,-276.21 163.06,-284.29 173.46,-282.25 169.92,-276.21"/>
<text text-anchor="middle" x="226" y="-258" font-family="Helvetica,sans-Serif" font-size="10.00"> timer</text>
</g>
<!-- Node4&#45;&gt;Node2 -->
<g id="edge7" class="edge">
<title>Node4&#45;&gt;Node2</title>
<path fill="none" stroke="#9a32cd" stroke-dasharray="5,2" d="M148.93,-273.84C155.41,-220.07 172.93,-74.75 177.43,-37.37"/>
<polygon fill="#9a32cd" stroke="#9a32cd" points="145.47,-273.32 147.75,-283.66 152.42,-274.15 145.47,-273.32"/>
<text text-anchor="middle" x="176" y="-161.5" font-family="Helvetica,sans-Serif" font-size="10.00"> timer</text>
</g>
<!-- Node4&#45;&gt;Node4 -->
<g id="edge8" class="edge">
<title>Node4&#45;&gt;Node4</title>
<path fill="none" stroke="#9a32cd" stroke-dasharray="5,2" d="M199.23,-299.8C203.12,-298.72 205.5,-297.12 205.5,-295 205.5,-291.23 197.97,-289.1 187.85,-288.63"/>
<polygon fill="#9a32cd" stroke="#9a32cd" points="198.78,-296.33 189.35,-301.16 199.74,-303.26 198.78,-296.33"/>
<text text-anchor="middle" x="216" y="-298" font-family="Helvetica,sans-Serif" font-size="10.00"> next</text>
<text text-anchor="middle" x="216" y="-287" font-family="Helvetica,sans-Serif" font-size="10.00">prev</text>
</g>
<!-- Node5&#45;&gt;Node1 -->
<g id="edge13" class="edge">
<title>Node5&#45;&gt;Node1</title>
<path fill="none" stroke="#9a32cd" stroke-dasharray="5,2" d="M367.55,-132.01C341.75,-140.63 311.87,-150.9 309.5,-153 293.42,-167.24 285.04,-192.06 281.54,-205.23"/>
<polygon fill="#9a32cd" stroke="#9a32cd" points="368.45,-135.4 376.83,-128.92 366.24,-128.75 368.45,-135.4"/>
<text text-anchor="middle" x="341" y="-167" font-family="Helvetica,sans-Serif" font-size="10.00"> ioReqListEnd</text>
<text text-anchor="middle" x="341" y="-156" font-family="Helvetica,sans-Serif" font-size="10.00">ioReqListStart</text>
</g>
<!-- Node5&#45;&gt;Node2 -->
<g id="edge9" class="edge">
<title>Node5&#45;&gt;Node2</title>
<path fill="none" stroke="#9a32cd" stroke-dasharray="5,2" d="M372.63,-104.35C350.33,-95.45 320.16,-83.45 293.5,-73 261.81,-60.57 225.12,-46.42 201.87,-37.47"/>
<polygon fill="#9a32cd" stroke="#9a32cd" points="371.22,-107.56 381.81,-108.01 373.82,-101.06 371.22,-107.56"/>
<text text-anchor="middle" x="343.5" y="-76" font-family="Helvetica,sans-Serif" font-size="10.00"> ioRequest</text>
</g>
<!-- Node5&#45;&gt;Node5 -->
<g id="edge10" class="edge">
<title>Node5&#45;&gt;Node5</title>
<path fill="none" stroke="#9a32cd" stroke-dasharray="5,2" d="M449.19,-124.55C453.36,-123.32 456,-121.3 456,-118.5 456,-113.66 448.1,-111.16 438.04,-111.01"/>
<polygon fill="#9a32cd" stroke="#9a32cd" points="449.01,-121.04 439.54,-125.8 449.91,-127.98 449.01,-121.04"/>
<text text-anchor="middle" x="485.5" y="-127" font-family="Helvetica,sans-Serif" font-size="10.00"> callbackProc</text>
<text text-anchor="middle" x="485.5" y="-116" font-family="Helvetica,sans-Serif" font-size="10.00">next</text>
<text text-anchor="middle" x="485.5" y="-105" font-family="Helvetica,sans-Serif" font-size="10.00">prev</text>
</g>
<!-- Node6 -->
<g id="node6" class="node">
<title>Node6</title>
<g id="a_node6"><a xlink:href="usbd_8h.html#struct_usb_device_request" target="_top" xlink:title=" ">
<polygon fill="white" stroke="#bfbfbf" points="545,-224.5 444,-224.5 444,-205.5 545,-205.5 545,-224.5"/>
<text text-anchor="middle" x="494.5" y="-212.5" font-family="Helvetica,sans-Serif" font-size="10.00">UsbDeviceRequest</text>
</a>
</g>
</g>
<!-- Node6&#45;&gt;Node5 -->
<g id="edge12" class="edge">
<title>Node6&#45;&gt;Node5</title>
<path fill="none" stroke="#9a32cd" stroke-dasharray="5,2" d="M491.26,-194.01C488.28,-181.04 482.7,-164.48 472.5,-153 462.48,-141.72 447.78,-133.79 434.7,-128.48"/>
<polygon fill="#9a32cd" stroke="#9a32cd" points="487.78,-194.43 493.11,-203.58 494.65,-193.1 487.78,-194.43"/>
<text text-anchor="middle" x="502.5" y="-161.5" font-family="Helvetica,sans-Serif" font-size="10.00"> devReq</text>
</g>
<!-- Node7 -->
<g id="node7" class="node">
<title>Node7</title>
<g id="a_node7"><a xlink:href="usbdpriv_8h.html#struct__hc_ed" target="_top" xlink:title=" ">
<polygon fill="white" stroke="#bfbfbf" points="301.5,-304.5 257.5,-304.5 257.5,-285.5 301.5,-285.5 301.5,-304.5"/>
<text text-anchor="middle" x="279.5" y="-292.5" font-family="Helvetica,sans-Serif" font-size="10.00">_hcEd</text>
</a>
</g>
</g>
<!-- Node7&#45;&gt;Node1 -->
<g id="edge15" class="edge">
<title>Node7&#45;&gt;Node1</title>
<path fill="none" stroke="#9a32cd" stroke-dasharray="5,2" d="M279.5,-273.79C279.5,-257.95 279.5,-236.66 279.5,-224.84"/>
<polygon fill="#9a32cd" stroke="#9a32cd" points="276,-273.54 279.5,-283.54 283,-273.54 276,-273.54"/>
<text text-anchor="middle" x="292" y="-258" font-family="Helvetica,sans-Serif" font-size="10.00"> hcEd</text>
</g>
<!-- Node7&#45;&gt;Node7 -->
<g id="edge18" class="edge">
<title>Node7&#45;&gt;Node7</title>
<path fill="none" stroke="#9a32cd" stroke-dasharray="5,2" d="M312.93,-300.55C316.9,-299.54 319.5,-297.69 319.5,-295 319.5,-290.22 311.3,-288.09 301.71,-288.61"/>
<polygon fill="#9a32cd" stroke="#9a32cd" points="312.93,-297.04 303.22,-301.28 313.45,-304.02 312.93,-297.04"/>
<text text-anchor="middle" x="330" y="-292.5" font-family="Helvetica,sans-Serif" font-size="10.00"> next</text>
</g>
<!-- Node8 -->
<g id="node8" class="node">
<title>Node8</title>
<g id="a_node8"><a xlink:href="usbdpriv_8h.html#struct__hc_td" target="_top" xlink:title=" ">
<polygon fill="white" stroke="#bfbfbf" points="301.5,-383 257.5,-383 257.5,-364 301.5,-364 301.5,-383"/>
<text text-anchor="middle" x="279.5" y="-371" font-family="Helvetica,sans-Serif" font-size="10.00">_hcTd</text>
</a>
</g>
</g>
<!-- Node8&#45;&gt;Node7 -->
<g id="edge16" class="edge">
<title>Node8&#45;&gt;Node7</title>
<path fill="none" stroke="#9a32cd" stroke-dasharray="5,2" d="M279.5,-352.22C279.5,-336.73 279.5,-316.15 279.5,-304.67"/>
<polygon fill="#9a32cd" stroke="#9a32cd" points="276,-352.21 279.5,-362.21 283,-352.21 276,-352.21"/>
<text text-anchor="middle" x="296.5" y="-338" font-family="Helvetica,sans-Serif" font-size="10.00"> tdHead</text>
<text text-anchor="middle" x="296.5" y="-327" font-family="Helvetica,sans-Serif" font-size="10.00">tdTail</text>
</g>
<!-- Node8&#45;&gt;Node8 -->
<g id="edge17" class="edge">
<title>Node8&#45;&gt;Node8</title>
<path fill="none" stroke="#9a32cd" stroke-dasharray="5,2" d="M312.93,-379.7C316.9,-378.57 319.5,-376.5 319.5,-373.5 319.5,-368.16 311.3,-365.78 301.71,-366.37"/>
<polygon fill="#9a32cd" stroke="#9a32cd" points="312.9,-376.19 303.22,-380.51 313.48,-383.16 312.9,-376.19"/>
<text text-anchor="middle" x="330" y="-371" font-family="Helvetica,sans-Serif" font-size="10.00"> next</text>
</g>
</g>
</svg>
        <g id="navigator" transform="translate(0 0)" fill="#404254">
                <rect fill="#f2f5e9" fill-opacity="0.5" stroke="#606060" stroke-width=".5" x="0" y="0" width="60" height="60"/>
                <use id="zoomplus" xlink:href="#zoomPlus" x="17" y="9" onmousedown="handleZoom(evt,'in')"/>
                <use id="zoomminus" xlink:href="#zoomMin" x="42" y="9" onmousedown="handleZoom(evt,'out')"/>
                <use id="reset" xlink:href="#resetDef" x="30" y="36" onmousedown="handleReset()"/>
                <g id="arrowUp" xlink:href="#dirArrow" transform="translate(30 24)" onmousedown="handlePan(0,-1)">
                  <use xlink:href="#rim" fill="#404040">
                        <set attributeName="fill" to="#808080" begin="arrowUp.mouseover" end="arrowUp.mouseout"/>
                  </use>
                  <path fill="none" stroke="white" stroke-width="1.5" d="M0,-3.0v7 M-2.5,-0.5L0,-3.0L2.5,-0.5"/>
                </g>
                <g id="arrowRight" xlink:href="#dirArrow" transform="rotate(90) translate(36 -43)" onmousedown="handlePan(1,0)">
                  <use xlink:href="#rim" fill="#404040">
                        <set attributeName="fill" to="#808080" begin="arrowRight.mouseover" end="arrowRight.mouseout"/>
                  </use>
                  <path fill="none" stroke="white" stroke-width="1.5" d="M0,-3.0v7 M-2.5,-0.5L0,-3.0L2.5,-0.5"/>
                </g>
                <g id="arrowDown" xlink:href="#dirArrow" transform="rotate(180) translate(-30 -48)" onmousedown="handlePan(0,1)">
                  <use xlink:href="#rim" fill="#404040">
                        <set attributeName="fill" to="#808080" begin="arrowDown.mouseover" end="arrowDown.mouseout"/>
                  </use>
                  <path fill="none" stroke="white" stroke-width="1.5" d="M0,-3.0v7 M-2.5,-0.5L0,-3.0L2.5,-0.5"/>
                </g>
                <g id="arrowLeft" xlink:href="#dirArrow" transform="rotate(270) translate(-36 17)" onmousedown="handlePan(-1,0)">
                  <use xlink:href="#rim" fill="#404040">
                        <set attributeName="fill" to="#808080" begin="arrowLeft.mouseover" end="arrowLeft.mouseout"/>
                  </use>
                  <path fill="none" stroke="white" stroke-width="1.5" d="M0,-3.0v7 M-2.5,-0.5L0,-3.0L2.5,-0.5"/>
                </g>
        </g>
        <svg viewBox="0 0 15 15" width="100%" height="30px" preserveAspectRatio="xMaxYMin meet">
         <g id="arrow_out" transform="scale(0.3 0.3)">
          <a xlink:href="struct__endpoint__coll__graph_org.svg" target="_base">
           <rect id="button" ry="5" rx="5" y="6" x="6" height="38" width="38"
                fill="#f2f5e9" fill-opacity="0.5" stroke="#606060" stroke-width="1.0"/>
           <path id="arrow"
             d="M 11.500037,31.436501 C 11.940474,20.09759 22.043105,11.32322 32.158766,21.979434 L 37.068811,17.246167 C 37.068811,17.246167 37.088388,32 37.088388,32 L 22.160133,31.978069 C 22.160133,31.978069 26.997745,27.140456 26.997745,27.140456 C 18.528582,18.264221 13.291696,25.230495 11.500037,31.436501 z"
             style="fill:#404040;"/>
          </a>
         </g>
        </svg>
</svg>
