<?xml version="1.0" encoding="UTF-8" standalone="no"?>
<!DOCTYPE svg PUBLIC "-//W3C//DTD SVG 1.1//EN"
 "http://www.w3.org/Graphics/SVG/1.1/DTD/svg11.dtd">
<!-- Generated by graphviz version 7.0.5 (20221223.1930)
 -->
<!-- Title: _device Pages: 1 -->
<svg width="485pt" height="336pt"
 viewBox="0.00 0.00 484.50 336.00" xmlns="http://www.w3.org/2000/svg" xmlns:xlink="http://www.w3.org/1999/xlink">
<g id="graph0" class="graph" transform="scale(1 1) rotate(0) translate(4 332)">
<title>_device</title>
<!-- Node1 -->
<g id="node1" class="node">
<title>Node1</title>
<g id="a_node1"><a xlink:title=" ">
<polygon fill="#999999" stroke="#666666" points="195.5,-230 145.5,-230 145.5,-211 195.5,-211 195.5,-230"/>
<text text-anchor="middle" x="170.5" y="-218" font-family="Helvetica,sans-Serif" font-size="10.00">_device</text>
</a>
</g>
</g>
<!-- Node1&#45;&gt;Node1 -->
<g id="edge1" class="edge">
<title>Node1&#45;&gt;Node1</title>
<path fill="none" stroke="#9a32cd" stroke-dasharray="5,2" d="M201.52,-230.82C208.45,-229.87 213.5,-226.43 213.5,-220.5 213.5,-211.67 202.3,-208.36 190.4,-210.57"/>
<polygon fill="#9a32cd" stroke="#9a32cd" points="202.03,-227.34 191.92,-230.48 201.79,-234.33 202.03,-227.34"/>
<text text-anchor="middle" x="242.5" y="-240" font-family="Helvetica,sans-Serif" font-size="10.00"> childListEnd</text>
<text text-anchor="middle" x="242.5" y="-229" font-family="Helvetica,sans-Serif" font-size="10.00">childListStart</text>
<text text-anchor="middle" x="242.5" y="-218" font-family="Helvetica,sans-Serif" font-size="10.00">next</text>
<text text-anchor="middle" x="242.5" y="-207" font-family="Helvetica,sans-Serif" font-size="10.00">parent</text>
<text text-anchor="middle" x="242.5" y="-196" font-family="Helvetica,sans-Serif" font-size="10.00">prev</text>
</g>
<!-- Node2 -->
<g id="node2" class="node">
<title>Node2</title>
<g id="a_node2"><a xlink:href="usbdpriv_8h.html#struct__endpoint" target="_top" xlink:title=" ">
<polygon fill="white" stroke="#bfbfbf" points="292,-122.5 233,-122.5 233,-103.5 292,-103.5 292,-122.5"/>
<text text-anchor="middle" x="262.5" y="-110.5" font-family="Helvetica,sans-Serif" font-size="10.00">_endpoint</text>
</a>
</g>
</g>
<!-- Node1&#45;&gt;Node2 -->
<g id="edge4" class="edge">
<title>Node1&#45;&gt;Node2</title>
<path fill="none" stroke="#9a32cd" stroke-dasharray="5,2" d="M163.83,-199.89C160.29,-185.68 158.34,-166.66 167.5,-153 175.14,-141.6 207.97,-129.8 232.91,-122.21"/>
<polygon fill="#9a32cd" stroke="#9a32cd" points="160.46,-200.84 166.68,-209.42 167.17,-198.84 160.46,-200.84"/>
<text text-anchor="middle" x="200" y="-161.5" font-family="Helvetica,sans-Serif" font-size="10.00"> correspDevice</text>
</g>
<!-- Node2&#45;&gt;Node1 -->
<g id="edge2" class="edge">
<title>Node2&#45;&gt;Node1</title>
<path fill="none" stroke="#9a32cd" stroke-dasharray="5,2" d="M257.33,-133.57C253.22,-146.37 246.5,-162.89 236.5,-175 223.65,-190.56 203.99,-202.84 189.47,-210.53"/>
<polygon fill="#9a32cd" stroke="#9a32cd" points="260.63,-134.74 260.05,-124.17 253.91,-132.79 260.63,-134.74"/>
<text text-anchor="middle" x="288" y="-167" font-family="Helvetica,sans-Serif" font-size="10.00"> endpointListEnd</text>
<text text-anchor="middle" x="288" y="-156" font-family="Helvetica,sans-Serif" font-size="10.00">endpointListStart</text>
</g>
<!-- Node2&#45;&gt;Node2 -->
<g id="edge3" class="edge">
<title>Node2&#45;&gt;Node2</title>
<path fill="none" stroke="#9a32cd" stroke-dasharray="5,2" d="M303.54,-120.73C307.5,-119.16 310,-116.59 310,-113 310,-106.62 302.08,-103.44 292.19,-103.44"/>
<polygon fill="#9a32cd" stroke="#9a32cd" points="303,-117.27 293.68,-122.32 304.11,-124.19 303,-117.27"/>
<text text-anchor="middle" x="331.5" y="-127" font-family="Helvetica,sans-Serif" font-size="10.00"> busyNext</text>
<text text-anchor="middle" x="331.5" y="-116" font-family="Helvetica,sans-Serif" font-size="10.00">busyPrev</text>
<text text-anchor="middle" x="331.5" y="-105" font-family="Helvetica,sans-Serif" font-size="10.00">next</text>
<text text-anchor="middle" x="331.5" y="-94" font-family="Helvetica,sans-Serif" font-size="10.00">prev</text>
</g>
<!-- Node3 -->
<g id="node3" class="node">
<title>Node3</title>
<g id="a_node3"><a xlink:href="usbdpriv_8h.html#struct__io_request" target="_top" xlink:title=" ">
<polygon fill="white" stroke="#bfbfbf" points="186,-26 121,-26 121,-7 186,-7 186,-26"/>
<text text-anchor="middle" x="153.5" y="-14" font-family="Helvetica,sans-Serif" font-size="10.00">_ioRequest</text>
</a>
</g>
</g>
<!-- Node2&#45;&gt;Node3 -->
<g id="edge7" class="edge">
<title>Node2&#45;&gt;Node3</title>
<path fill="none" stroke="#9a32cd" stroke-dasharray="5,2" d="M221.53,-104.1C202.59,-98.45 181.3,-88.92 167.5,-73 155.91,-59.63 153.67,-38.02 153.38,-26.09"/>
<polygon fill="#9a32cd" stroke="#9a32cd" points="220.6,-107.47 231.16,-106.68 222.41,-100.71 220.6,-107.47"/>
<text text-anchor="middle" x="204" y="-59.5" font-family="Helvetica,sans-Serif" font-size="10.00"> correspEndpoint</text>
</g>
<!-- Node3&#45;&gt;Node1 -->
<g id="edge18" class="edge">
<title>Node3&#45;&gt;Node1</title>
<path fill="none" stroke="#9a32cd" stroke-dasharray="5,2" d="M152.26,-37.89C150.82,-68.08 149.56,-126.32 157.5,-175 159.57,-187.71 164.13,-201.92 167.26,-210.78"/>
<polygon fill="#9a32cd" stroke="#9a32cd" points="155.75,-38.15 152.8,-27.97 148.76,-37.77 155.75,-38.15"/>
<text text-anchor="middle" x="176.5" y="-110.5" font-family="Helvetica,sans-Serif" font-size="10.00"> ioRequest</text>
</g>
<!-- Node3&#45;&gt;Node2 -->
<g id="edge5" class="edge">
<title>Node3&#45;&gt;Node2</title>
<path fill="none" stroke="#9a32cd" stroke-dasharray="5,2" d="M196.99,-24.8C213.84,-29.65 232.04,-37.69 244.5,-51 258.23,-65.67 261.54,-90.31 262.3,-103.33"/>
<polygon fill="#9a32cd" stroke="#9a32cd" points="198.2,-21.49 187.64,-22.42 196.47,-28.28 198.2,-21.49"/>
<text text-anchor="middle" x="288" y="-65" font-family="Helvetica,sans-Serif" font-size="10.00"> ioReqListEnd</text>
<text text-anchor="middle" x="288" y="-54" font-family="Helvetica,sans-Serif" font-size="10.00">ioReqListStart</text>
</g>
<!-- Node3&#45;&gt;Node3 -->
<g id="edge6" class="edge">
<title>Node3&#45;&gt;Node3</title>
<path fill="none" stroke="#9a32cd" stroke-dasharray="5,2" d="M197.19,-23.38C201.36,-21.98 204,-19.69 204,-16.5 204,-10.99 196.1,-8.15 186.04,-7.98"/>
<polygon fill="#9a32cd" stroke="#9a32cd" points="196.92,-19.88 187.54,-24.8 197.94,-26.81 196.92,-19.88"/>
<text text-anchor="middle" x="233.5" y="-25" font-family="Helvetica,sans-Serif" font-size="10.00"> callbackProc</text>
<text text-anchor="middle" x="233.5" y="-14" font-family="Helvetica,sans-Serif" font-size="10.00">next</text>
<text text-anchor="middle" x="233.5" y="-3" font-family="Helvetica,sans-Serif" font-size="10.00">prev</text>
</g>
<!-- Node4 -->
<g id="node4" class="node">
<title>Node4</title>
<g id="a_node4"><a xlink:href="usbd_8h.html#struct_usb_device_request" target="_top" xlink:title=" ">
<polygon fill="white" stroke="#bfbfbf" points="101,-122.5 0,-122.5 0,-103.5 101,-103.5 101,-122.5"/>
<text text-anchor="middle" x="50.5" y="-110.5" font-family="Helvetica,sans-Serif" font-size="10.00">UsbDeviceRequest</text>
</a>
</g>
</g>
<!-- Node4&#45;&gt;Node3 -->
<g id="edge8" class="edge">
<title>Node4&#45;&gt;Node3</title>
<path fill="none" stroke="#9a32cd" stroke-dasharray="5,2" d="M58.68,-92.82C65.02,-79.74 74.86,-62.72 87.5,-51 99.18,-40.17 115.03,-31.97 128.27,-26.39"/>
<polygon fill="#9a32cd" stroke="#9a32cd" points="55.6,-91.14 54.65,-101.69 61.97,-94.04 55.6,-91.14"/>
<text text-anchor="middle" x="105.5" y="-59.5" font-family="Helvetica,sans-Serif" font-size="10.00"> devReq</text>
</g>
<!-- Node5 -->
<g id="node5" class="node">
<title>Node5</title>
<g id="a_node5"><a xlink:href="usbdpriv_8h.html#struct__timer_cb_struct" target="_top" xlink:title=" ">
<polygon fill="white" stroke="#bfbfbf" points="336.5,-326.5 254.5,-326.5 254.5,-307.5 336.5,-307.5 336.5,-326.5"/>
<text text-anchor="middle" x="295.5" y="-314.5" font-family="Helvetica,sans-Serif" font-size="10.00">_timerCbStruct</text>
</a>
</g>
</g>
<!-- Node5&#45;&gt;Node1 -->
<g id="edge17" class="edge">
<title>Node5&#45;&gt;Node1</title>
<path fill="none" stroke="#9a32cd" stroke-dasharray="5,2" d="M274.84,-300.38C248.44,-280.42 203.63,-246.55 182.37,-230.48"/>
<polygon fill="#9a32cd" stroke="#9a32cd" points="272.67,-303.13 282.76,-306.37 276.89,-297.54 272.67,-303.13"/>
<text text-anchor="middle" x="268" y="-274.5" font-family="Helvetica,sans-Serif" font-size="10.00"> timer</text>
</g>
<!-- Node5&#45;&gt;Node2 -->
<g id="edge9" class="edge">
<title>Node5&#45;&gt;Node2</title>
<path fill="none" stroke="#9a32cd" stroke-dasharray="5,2" d="M307.2,-297.51C325.6,-265.83 356.57,-200.08 329.5,-153 321.18,-138.53 305.2,-128.93 290.93,-122.87"/>
<polygon fill="#9a32cd" stroke="#9a32cd" points="304.3,-295.54 302.11,-305.91 310.29,-299.16 304.3,-295.54"/>
<text text-anchor="middle" x="352" y="-218" font-family="Helvetica,sans-Serif" font-size="10.00"> timer</text>
</g>
<!-- Node5&#45;&gt;Node5 -->
<g id="edge10" class="edge">
<title>Node5&#45;&gt;Node5</title>
<path fill="none" stroke="#9a32cd" stroke-dasharray="5,2" d="M347.91,-322.67C351.98,-321.42 354.5,-319.53 354.5,-317 354.5,-312.62 346.97,-310.16 336.85,-309.62"/>
<polygon fill="#9a32cd" stroke="#9a32cd" points="347.7,-319.16 338.35,-324.15 348.77,-326.08 347.7,-319.16"/>
<text text-anchor="middle" x="365" y="-320" font-family="Helvetica,sans-Serif" font-size="10.00"> next</text>
<text text-anchor="middle" x="365" y="-309" font-family="Helvetica,sans-Serif" font-size="10.00">prev</text>
</g>
<!-- Node6 -->
<g id="node6" class="node">
<title>Node6</title>
<g id="a_node6"><a xlink:href="usbdpriv_8h.html#struct__hc_ed" target="_top" xlink:title=" ">
<polygon fill="white" stroke="#bfbfbf" points="436.5,-230 392.5,-230 392.5,-211 436.5,-211 436.5,-230"/>
<text text-anchor="middle" x="414.5" y="-218" font-family="Helvetica,sans-Serif" font-size="10.00">_hcEd</text>
</a>
</g>
</g>
<!-- Node6&#45;&gt;Node2 -->
<g id="edge11" class="edge">
<title>Node6&#45;&gt;Node2</title>
<path fill="none" stroke="#9a32cd" stroke-dasharray="5,2" d="M404.15,-201.39C394.9,-186.61 380.1,-166.09 362.5,-153 341.42,-137.32 313.22,-127.08 292.15,-121.05"/>
<polygon fill="#9a32cd" stroke="#9a32cd" points="400.96,-202.87 409.09,-209.65 406.96,-199.27 400.96,-202.87"/>
<text text-anchor="middle" x="396" y="-161.5" font-family="Helvetica,sans-Serif" font-size="10.00"> hcEd</text>
</g>
<!-- Node6&#45;&gt;Node6 -->
<g id="edge14" class="edge">
<title>Node6&#45;&gt;Node6</title>
<path fill="none" stroke="#9a32cd" stroke-dasharray="5,2" d="M444.24,-230.67C450.22,-229.55 454.5,-226.16 454.5,-220.5 454.5,-211.67 444.08,-208.36 433.02,-210.57"/>
<polygon fill="#9a32cd" stroke="#9a32cd" points="444.6,-227.18 434.53,-230.46 444.45,-234.18 444.6,-227.18"/>
<text text-anchor="middle" x="465" y="-218" font-family="Helvetica,sans-Serif" font-size="10.00"> next</text>
</g>
<!-- Node7 -->
<g id="node7" class="node">
<title>Node7</title>
<g id="a_node7"><a xlink:href="usbdpriv_8h.html#struct__hc_td" target="_top" xlink:title=" ">
<polygon fill="white" stroke="#bfbfbf" points="437.5,-326.5 393.5,-326.5 393.5,-307.5 437.5,-307.5 437.5,-326.5"/>
<text text-anchor="middle" x="415.5" y="-314.5" font-family="Helvetica,sans-Serif" font-size="10.00">_hcTd</text>
</a>
</g>
</g>
<!-- Node7&#45;&gt;Node6 -->
<g id="edge12" class="edge">
<title>Node7&#45;&gt;Node6</title>
<path fill="none" stroke="#9a32cd" stroke-dasharray="5,2" d="M415.29,-295.96C415.07,-275.74 414.75,-245.41 414.59,-230.48"/>
<polygon fill="#9a32cd" stroke="#9a32cd" points="411.79,-295.8 415.39,-305.77 418.79,-295.73 411.79,-295.8"/>
<text text-anchor="middle" x="431.5" y="-280" font-family="Helvetica,sans-Serif" font-size="10.00"> tdHead</text>
<text text-anchor="middle" x="431.5" y="-269" font-family="Helvetica,sans-Serif" font-size="10.00">tdTail</text>
</g>
<!-- Node7&#45;&gt;Node7 -->
<g id="edge13" class="edge">
<title>Node7&#45;&gt;Node7</title>
<path fill="none" stroke="#9a32cd" stroke-dasharray="5,2" d="M448.93,-323.44C452.9,-322.27 455.5,-320.12 455.5,-317 455.5,-311.45 447.3,-308.98 437.71,-309.59"/>
<polygon fill="#9a32cd" stroke="#9a32cd" points="448.88,-319.93 439.22,-324.28 449.48,-326.9 448.88,-319.93"/>
<text text-anchor="middle" x="466" y="-314.5" font-family="Helvetica,sans-Serif" font-size="10.00"> next</text>
</g>
<!-- Node8 -->
<g id="node8" class="node">
<title>Node8</title>
<g id="a_node8"><a xlink:href="struct___usb_driver.html" target="_top" xlink:title=" ">
<polygon fill="white" stroke="#666666" points="197,-326.5 132,-326.5 132,-307.5 197,-307.5 197,-326.5"/>
<text text-anchor="middle" x="164.5" y="-314.5" font-family="Helvetica,sans-Serif" font-size="10.00">_UsbDriver</text>
</a>
</g>
</g>
<!-- Node8&#45;&gt;Node1 -->
<g id="edge15" class="edge">
<title>Node8&#45;&gt;Node1</title>
<path fill="none" stroke="#9a32cd" stroke-dasharray="5,2" d="M165.77,-295.96C167.06,-275.74 168.98,-245.41 169.93,-230.48"/>
<polygon fill="#9a32cd" stroke="#9a32cd" points="162.29,-295.57 165.15,-305.77 169.28,-296.01 162.29,-295.57"/>
<text text-anchor="middle" x="189.5" y="-274.5" font-family="Helvetica,sans-Serif" font-size="10.00"> devDriver</text>
</g>
<!-- Node8&#45;&gt;Node8 -->
<g id="edge16" class="edge">
<title>Node8&#45;&gt;Node8</title>
<path fill="none" stroke="#9a32cd" stroke-dasharray="5,2" d="M208.19,-323.05C212.36,-321.82 215,-319.8 215,-317 215,-312.16 207.1,-309.66 197.04,-309.51"/>
<polygon fill="#9a32cd" stroke="#9a32cd" points="208.01,-319.54 198.54,-324.3 208.91,-326.48 208.01,-319.54"/>
<text text-anchor="middle" x="225.5" y="-320" font-family="Helvetica,sans-Serif" font-size="10.00"> next</text>
<text text-anchor="middle" x="225.5" y="-309" font-family="Helvetica,sans-Serif" font-size="10.00">prev</text>
</g>
</g>
</svg>
