<?xml version="1.0" encoding="UTF-8" standalone="no"?>
<!DOCTYPE svg PUBLIC "-//W3C//DTD SVG 1.1//EN"
 "http://www.w3.org/Graphics/SVG/1.1/DTD/svg11.dtd">
<!-- Generated by graphviz version 7.0.5 (20221223.1930)
 -->
<!-- Title: HcCA Pages: 1 -->
<svg width="164pt" height="170pt"
 viewBox="0.00 0.00 164.00 170.00" xmlns="http://www.w3.org/2000/svg" xmlns:xlink="http://www.w3.org/1999/xlink">
<g id="graph0" class="graph" transform="scale(1 1) rotate(0) translate(4 166)">
<title>HcCA</title>
<!-- Node1 -->
<g id="node1" class="node">
<title>Node1</title>
<g id="a_node1"><a xlink:title=" ">
<polygon fill="#999999" stroke="#666666" points="57.5,-19 14.5,-19 14.5,0 57.5,0 57.5,-19"/>
<text text-anchor="middle" x="36" y="-7" font-family="Helvetica,sans-Serif" font-size="10.00">HcCA</text>
</a>
</g>
</g>
<!-- Node2 -->
<g id="node2" class="node">
<title>Node2</title>
<g id="a_node2"><a xlink:href="usbdpriv_8h.html#struct__hc_ed" target="_top" xlink:title=" ">
<polygon fill="white" stroke="#bfbfbf" points="117,-85 73,-85 73,-66 117,-66 117,-85"/>
<text text-anchor="middle" x="95" y="-73" font-family="Helvetica,sans-Serif" font-size="10.00">_hcEd</text>
</a>
</g>
</g>
<!-- Node2&#45;&gt;Node1 -->
<g id="edge1" class="edge">
<title>Node2&#45;&gt;Node1</title>
<path fill="none" stroke="#9a32cd" stroke-dasharray="5,2" d="M79.31,-57.48C67.99,-45.2 53.17,-29.13 44.13,-19.32"/>
<polygon fill="#9a32cd" stroke="#9a32cd" points="76.42,-59.51 85.77,-64.49 81.57,-54.76 76.42,-59.51"/>
<text text-anchor="middle" x="100.5" y="-40" font-family="Helvetica,sans-Serif" font-size="10.00"> InterruptTable</text>
</g>
<!-- Node2&#45;&gt;Node2 -->
<g id="edge4" class="edge">
<title>Node2&#45;&gt;Node2</title>
<path fill="none" stroke="#9a32cd" stroke-dasharray="5,2" d="M128.43,-80.81C132.4,-79.85 135,-78.07 135,-75.5 135,-70.92 126.8,-68.89 117.21,-69.39"/>
<polygon fill="#9a32cd" stroke="#9a32cd" points="128.45,-77.3 118.72,-81.51 128.95,-84.28 128.45,-77.3"/>
<text text-anchor="middle" x="145.5" y="-73" font-family="Helvetica,sans-Serif" font-size="10.00"> next</text>
</g>
<!-- Node3 -->
<g id="node3" class="node">
<title>Node3</title>
<g id="a_node3"><a xlink:href="usbdpriv_8h.html#struct__hc_td" target="_top" xlink:title=" ">
<polygon fill="white" stroke="#bfbfbf" points="44,-162 0,-162 0,-143 44,-143 44,-162"/>
<text text-anchor="middle" x="22" y="-150" font-family="Helvetica,sans-Serif" font-size="10.00">_hcTd</text>
</a>
</g>
</g>
<!-- Node3&#45;&gt;Node1 -->
<g id="edge5" class="edge">
<title>Node3&#45;&gt;Node1</title>
<path fill="none" stroke="#9a32cd" stroke-dasharray="5,2" d="M17.47,-131.71C14.17,-114.29 10.92,-88.29 15,-66 18.15,-48.77 26.38,-29.95 31.55,-19.25"/>
<polygon fill="#9a32cd" stroke="#9a32cd" points="14.03,-132.39 19.52,-141.45 20.88,-130.94 14.03,-132.39"/>
<text text-anchor="middle" x="39.5" y="-73" font-family="Helvetica,sans-Serif" font-size="10.00"> DoneHead</text>
</g>
<!-- Node3&#45;&gt;Node2 -->
<g id="edge2" class="edge">
<title>Node3&#45;&gt;Node2</title>
<path fill="none" stroke="#9a32cd" stroke-dasharray="5,2" d="M38.55,-134.5C53.4,-119.24 74.61,-97.45 86.35,-85.39"/>
<polygon fill="#9a32cd" stroke="#9a32cd" points="36.18,-131.91 31.72,-141.52 41.2,-136.79 36.18,-131.91"/>
<text text-anchor="middle" x="84" y="-117" font-family="Helvetica,sans-Serif" font-size="10.00"> tdHead</text>
<text text-anchor="middle" x="84" y="-106" font-family="Helvetica,sans-Serif" font-size="10.00">tdTail</text>
</g>
<!-- Node3&#45;&gt;Node3 -->
<g id="edge3" class="edge">
<title>Node3&#45;&gt;Node3</title>
<path fill="none" stroke="#9a32cd" stroke-dasharray="5,2" d="M55.43,-158.7C59.4,-157.57 62,-155.5 62,-152.5 62,-147.16 53.8,-144.78 44.21,-145.37"/>
<polygon fill="#9a32cd" stroke="#9a32cd" points="55.4,-155.19 45.72,-159.51 55.98,-162.16 55.4,-155.19"/>
<text text-anchor="middle" x="72.5" y="-150" font-family="Helvetica,sans-Serif" font-size="10.00"> next</text>
</g>
</g>
</svg>
