<?xml version="1.0" encoding="UTF-8" standalone="no"?>
<!DOCTYPE svg PUBLIC "-//W3C//DTD SVG 1.1//EN"
 "http://www.w3.org/Graphics/SVG/1.1/DTD/svg11.dtd">
<!-- Generated by graphviz version 7.0.5 (20221223.1930)
 -->
<!-- Title: pfs_cache_s Pages: 1 -->
<svg width="210pt" height="184pt"
 viewBox="0.00 0.00 210.00 184.00" xmlns="http://www.w3.org/2000/svg" xmlns:xlink="http://www.w3.org/1999/xlink">
<g id="graph0" class="graph" transform="scale(1 1) rotate(0) translate(4 180)">
<title>pfs_cache_s</title>
<!-- Node1 -->
<g id="node1" class="node">
<title>Node1</title>
<g id="a_node1"><a xlink:title=" ">
<polygon fill="#999999" stroke="#666666" points="141.5,-20.5 69.5,-20.5 69.5,-1.5 141.5,-1.5 141.5,-20.5"/>
<text text-anchor="middle" x="105.5" y="-8.5" font-family="Helvetica,sans-Serif" font-size="10.00">pfs_cache_s</text>
</a>
</g>
</g>
<!-- Node1&#45;&gt;Node1 -->
<g id="edge1" class="edge">
<title>Node1&#45;&gt;Node1</title>
<path fill="none" stroke="#9a32cd" stroke-dasharray="5,2" d="M153.18,-15.97C157.08,-14.89 159.5,-13.24 159.5,-11 159.5,-7.02 151.85,-4.88 141.84,-4.57"/>
<polygon fill="#9a32cd" stroke="#9a32cd" points="152.81,-12.49 143.34,-17.24 153.71,-19.43 152.81,-12.49"/>
<text text-anchor="middle" x="170" y="-14" font-family="Helvetica,sans-Serif" font-size="10.00"> next</text>
<text text-anchor="middle" x="170" y="-3" font-family="Helvetica,sans-Serif" font-size="10.00">prev</text>
</g>
<!-- Node2 -->
<g id="node2" class="node">
<title>Node2</title>
<g id="a_node2"><a xlink:href="structpfs__mount__t.html" target="_top" xlink:title=" ">
<polygon fill="white" stroke="#bfbfbf" points="141,-88 70,-88 70,-69 141,-69 141,-88"/>
<text text-anchor="middle" x="105.5" y="-76" font-family="Helvetica,sans-Serif" font-size="10.00">pfs_mount_t</text>
</a>
</g>
</g>
<!-- Node2&#45;&gt;Node1 -->
<g id="edge2" class="edge">
<title>Node2&#45;&gt;Node1</title>
<path fill="none" stroke="#9a32cd" stroke-dasharray="5,2" d="M105.5,-57.24C105.5,-44.98 105.5,-29.97 105.5,-20.69"/>
<polygon fill="#9a32cd" stroke="#9a32cd" points="102,-57.15 105.5,-67.15 109,-57.15 102,-57.15"/>
<text text-anchor="middle" x="127" y="-43" font-family="Helvetica,sans-Serif" font-size="10.00"> pfsMount</text>
</g>
<!-- Node3 -->
<g id="node3" class="node">
<title>Node3</title>
<g id="a_node3"><a xlink:href="structpfs__block__device__t.html" target="_top" xlink:title=" ">
<polygon fill="white" stroke="#bfbfbf" points="101,-176 0,-176 0,-157 101,-157 101,-176"/>
<text text-anchor="middle" x="50.5" y="-164" font-family="Helvetica,sans-Serif" font-size="10.00">pfs_block_device_t</text>
</a>
</g>
</g>
<!-- Node3&#45;&gt;Node2 -->
<g id="edge3" class="edge">
<title>Node3&#45;&gt;Node2</title>
<path fill="none" stroke="#9a32cd" stroke-dasharray="5,2" d="M62.22,-147.17C73.77,-129.11 90.93,-102.29 99.77,-88.46"/>
<polygon fill="#9a32cd" stroke="#9a32cd" points="59.43,-145.04 56.99,-155.35 65.33,-148.81 59.43,-145.04"/>
<text text-anchor="middle" x="110" y="-120" font-family="Helvetica,sans-Serif" font-size="10.00"> blockDev</text>
</g>
<!-- Node4 -->
<g id="node4" class="node">
<title>Node4</title>
<g id="a_node4"><a xlink:href="structpfs__blockinfo__t.html" target="_top" xlink:title=" ">
<polygon fill="white" stroke="#bfbfbf" points="202,-176 119,-176 119,-157 202,-157 202,-176"/>
<text text-anchor="middle" x="160.5" y="-164" font-family="Helvetica,sans-Serif" font-size="10.00">pfs_blockinfo_t</text>
</a>
</g>
</g>
<!-- Node4&#45;&gt;Node2 -->
<g id="edge4" class="edge">
<title>Node4&#45;&gt;Node2</title>
<path fill="none" stroke="#9a32cd" stroke-dasharray="5,2" d="M154.8,-146.01C150.65,-133.81 144.22,-118.15 135.5,-106 130.72,-99.34 123.97,-93.19 118.09,-88.49"/>
<polygon fill="#9a32cd" stroke="#9a32cd" points="151.4,-146.87 157.74,-155.36 158.08,-144.77 151.4,-146.87"/>
<text text-anchor="middle" x="176" y="-131" font-family="Helvetica,sans-Serif" font-size="10.00"> current_dir</text>
<text text-anchor="middle" x="176" y="-120" font-family="Helvetica,sans-Serif" font-size="10.00">log</text>
<text text-anchor="middle" x="176" y="-109" font-family="Helvetica,sans-Serif" font-size="10.00">root_dir</text>
</g>
</g>
</svg>
