<?xml version="1.0" encoding="UTF-8" standalone="no"?>
<!DOCTYPE svg PUBLIC "-//W3C//DTD SVG 1.1//EN"
 "http://www.w3.org/Graphics/SVG/1.1/DTD/svg11.dtd">
<!-- Generated by graphviz version 7.0.5 (20221223.1930)
 -->
<!-- Title: loosy_t Pages: 1 -->
<svg width="189pt" height="316pt"
 viewBox="0.00 0.00 189.00 316.00" xmlns="http://www.w3.org/2000/svg" xmlns:xlink="http://www.w3.org/1999/xlink">
<g id="graph0" class="graph" transform="scale(1 1) rotate(0) translate(4 312)">
<title>loosy_t</title>
<!-- Node1 -->
<g id="node1" class="node">
<title>Node1</title>
<g id="a_node1"><a xlink:title=" ">
<polygon fill="#999999" stroke="#666666" points="92,-19 45,-19 45,0 92,0 92,-19"/>
<text text-anchor="middle" x="68.5" y="-7" font-family="Helvetica,sans-Serif" font-size="10.00">loosy_t</text>
</a>
</g>
</g>
<!-- Node1&#45;&gt;Node1 -->
<g id="edge1" class="edge">
<title>Node1&#45;&gt;Node1</title>
<path fill="none" stroke="#9a32cd" stroke-dasharray="5,2" d="M103.85,-14.65C107.6,-13.65 110,-11.93 110,-9.5 110,-5.05 101.96,-3 92.38,-3.35"/>
<polygon fill="#9a32cd" stroke="#9a32cd" points="103.55,-11.16 93.89,-15.52 104.16,-18.13 103.55,-11.16"/>
<text text-anchor="middle" x="120.5" y="-7" font-family="Helvetica,sans-Serif" font-size="10.00"> next</text>
</g>
<!-- Node2 -->
<g id="node2" class="node">
<title>Node2</title>
<g id="a_node2"><a xlink:href="erl_8h.html#structerl__record__t" target="_top" xlink:title=" ">
<polygon fill="white" stroke="#bfbfbf" points="102.5,-86.5 34.5,-86.5 34.5,-67.5 102.5,-67.5 102.5,-86.5"/>
<text text-anchor="middle" x="68.5" y="-74.5" font-family="Helvetica,sans-Serif" font-size="10.00">erl_record_t</text>
</a>
</g>
</g>
<!-- Node2&#45;&gt;Node1 -->
<g id="edge2" class="edge">
<title>Node2&#45;&gt;Node1</title>
<path fill="none" stroke="#9a32cd" stroke-dasharray="5,2" d="M68.5,-55.74C68.5,-43.48 68.5,-28.47 68.5,-19.19"/>
<polygon fill="#9a32cd" stroke="#9a32cd" points="65,-55.65 68.5,-65.65 72,-55.65 65,-55.65"/>
<text text-anchor="middle" x="75" y="-40" font-family="Helvetica,sans-Serif" font-size="10.00"> erl</text>
</g>
<!-- Node2&#45;&gt;Node2 -->
<g id="edge9" class="edge">
<title>Node2&#45;&gt;Node2</title>
<path fill="none" stroke="#9a32cd" stroke-dasharray="5,2" d="M113.69,-82.16C117.87,-81.1 120.5,-79.38 120.5,-77 120.5,-72.89 112.63,-70.74 102.51,-70.55"/>
<polygon fill="#9a32cd" stroke="#9a32cd" points="113.55,-78.66 104.01,-83.28 114.35,-85.61 113.55,-78.66"/>
<text text-anchor="middle" x="131" y="-80" font-family="Helvetica,sans-Serif" font-size="10.00"> next</text>
<text text-anchor="middle" x="131" y="-69" font-family="Helvetica,sans-Serif" font-size="10.00">prev</text>
</g>
<!-- Node3 -->
<g id="node3" class="node">
<title>Node3</title>
<g id="a_node3"><a xlink:href="structhtab.html" target="_top" xlink:title=" ">
<polygon fill="white" stroke="#bfbfbf" points="86,-154 51,-154 51,-135 86,-135 86,-154"/>
<text text-anchor="middle" x="68.5" y="-142" font-family="Helvetica,sans-Serif" font-size="10.00">htab</text>
</a>
</g>
</g>
<!-- Node3&#45;&gt;Node2 -->
<g id="edge3" class="edge">
<title>Node3&#45;&gt;Node2</title>
<path fill="none" stroke="#9a32cd" stroke-dasharray="5,2" d="M68.5,-123.24C68.5,-110.98 68.5,-95.97 68.5,-86.69"/>
<polygon fill="#9a32cd" stroke="#9a32cd" points="65,-123.15 68.5,-133.15 72,-123.15 65,-123.15"/>
<text text-anchor="middle" x="88" y="-109" font-family="Helvetica,sans-Serif" font-size="10.00"> symbols</text>
</g>
<!-- Node4 -->
<g id="node4" class="node">
<title>Node4</title>
<g id="a_node4"><a xlink:href="structhitem.html" target="_top" xlink:title=" ">
<polygon fill="white" stroke="#bfbfbf" points="41,-231 0,-231 0,-212 41,-212 41,-231"/>
<text text-anchor="middle" x="20.5" y="-219" font-family="Helvetica,sans-Serif" font-size="10.00">hitem</text>
</a>
</g>
</g>
<!-- Node4&#45;&gt;Node3 -->
<g id="edge4" class="edge">
<title>Node4&#45;&gt;Node3</title>
<path fill="none" stroke="#9a32cd" stroke-dasharray="5,2" d="M32.21,-202.2C41.92,-187.02 55.31,-166.11 62.81,-154.39"/>
<polygon fill="#9a32cd" stroke="#9a32cd" points="29.45,-200.02 27.01,-210.33 35.35,-203.79 29.45,-200.02"/>
<text text-anchor="middle" x="60.5" y="-186" font-family="Helvetica,sans-Serif" font-size="10.00"> ipos</text>
<text text-anchor="middle" x="60.5" y="-175" font-family="Helvetica,sans-Serif" font-size="10.00">table</text>
</g>
<!-- Node4&#45;&gt;Node4 -->
<g id="edge5" class="edge">
<title>Node4&#45;&gt;Node4</title>
<path fill="none" stroke="#9a32cd" stroke-dasharray="5,2" d="M52.83,-227.65C56.57,-226.51 59,-224.46 59,-221.5 59,-216.09 50.88,-213.72 41.49,-214.39"/>
<polygon fill="#9a32cd" stroke="#9a32cd" points="52.67,-224.15 43,-228.48 53.26,-231.13 52.67,-224.15"/>
<text text-anchor="middle" x="69.5" y="-219" font-family="Helvetica,sans-Serif" font-size="10.00"> next</text>
</g>
<!-- Node5 -->
<g id="node5" class="node">
<title>Node5</title>
<g id="a_node5"><a xlink:href="structreroot.html" target="_top" xlink:title=" ">
<polygon fill="white" stroke="#bfbfbf" points="139,-231 98,-231 98,-212 139,-212 139,-231"/>
<text text-anchor="middle" x="118.5" y="-219" font-family="Helvetica,sans-Serif" font-size="10.00">reroot</text>
</a>
</g>
</g>
<!-- Node5&#45;&gt;Node3 -->
<g id="edge6" class="edge">
<title>Node5&#45;&gt;Node3</title>
<path fill="none" stroke="#9a32cd" stroke-dasharray="5,2" d="M106.3,-202.2C96.18,-187.02 82.24,-166.11 74.42,-154.39"/>
<polygon fill="#9a32cd" stroke="#9a32cd" points="103.27,-203.96 111.73,-210.34 109.09,-200.08 103.27,-203.96"/>
<text text-anchor="middle" x="113" y="-180.5" font-family="Helvetica,sans-Serif" font-size="10.00"> space</text>
</g>
<!-- Node6 -->
<g id="node6" class="node">
<title>Node6</title>
<g id="a_node6"><a xlink:href="structrecycle.html" target="_top" xlink:title=" ">
<polygon fill="white" stroke="#bfbfbf" points="142,-308 95,-308 95,-289 142,-289 142,-308"/>
<text text-anchor="middle" x="118.5" y="-296" font-family="Helvetica,sans-Serif" font-size="10.00">recycle</text>
</a>
</g>
</g>
<!-- Node6&#45;&gt;Node5 -->
<g id="edge7" class="edge">
<title>Node6&#45;&gt;Node5</title>
<path fill="none" stroke="#9a32cd" stroke-dasharray="5,2" d="M118.5,-277.42C118.5,-262.43 118.5,-242.66 118.5,-231.39"/>
<polygon fill="#9a32cd" stroke="#9a32cd" points="115,-277.09 118.5,-287.09 122,-277.09 115,-277.09"/>
<text text-anchor="middle" x="129.5" y="-263" font-family="Helvetica,sans-Serif" font-size="10.00"> list</text>
<text text-anchor="middle" x="129.5" y="-252" font-family="Helvetica,sans-Serif" font-size="10.00">trash</text>
</g>
<!-- Node6&#45;&gt;Node6 -->
<g id="edge8" class="edge">
<title>Node6&#45;&gt;Node6</title>
<path fill="none" stroke="#9a32cd" stroke-dasharray="5,2" d="M153.53,-304.6C157.46,-303.45 160,-301.42 160,-298.5 160,-293.31 151.96,-290.92 142.38,-291.33"/>
<polygon fill="#9a32cd" stroke="#9a32cd" points="153.51,-301.09 143.89,-305.53 154.18,-308.05 153.51,-301.09"/>
<text text-anchor="middle" x="170.5" y="-296" font-family="Helvetica,sans-Serif" font-size="10.00"> next</text>
</g>
</g>
</svg>
