<?xml version="1.0" encoding="UTF-8" standalone="no"?>
<!DOCTYPE svg PUBLIC "-//W3C//DTD SVG 1.1//EN"
 "http://www.w3.org/Graphics/SVG/1.1/DTD/svg11.dtd">
<!-- Generated by graphviz version 7.0.5 (20221223.1930)
 -->
<!-- Title: _usbHub Pages: 1 -->
<!--zoomable 402 -->
<svg id="main" version="1.1" xmlns="http://www.w3.org/2000/svg" xmlns:xlink="http://www.w3.org/1999/xlink" xml:space="preserve" onload="init(evt)">
<style type="text/css"><![CDATA[
.edge:hover path { stroke: red; }
.edge:hover polygon { stroke: red; fill: red; }
]]></style>
<script type="text/javascript"><![CDATA[
var edges = document.getElementsByTagName('g');
if (edges && edges.length) {
  for (var i=0;i<edges.length;i++) {
    if (edges[i].id.substr(0,4)=='edge') {
      edges[i].setAttribute('class','edge');
    }
  }
}
]]></script>
        <defs>
                <circle id="rim" cx="0" cy="0" r="7"/>
                <circle id="rim2" cx="0" cy="0" r="3.5"/>
                <g id="zoomPlus">
                        <use xlink:href="#rim" fill="#404040">
                                <set attributeName="fill" to="#808080" begin="zoomplus.mouseover" end="zoomplus.mouseout"/>
                        </use>
                        <path d="M-4,0h8M0,-4v8" fill="none" stroke="white" stroke-width="1.5" pointer-events="none"/>
                </g>
                <g id="zoomMin">
                        <use xlink:href="#rim" fill="#404040">
                                <set attributeName="fill" to="#808080" begin="zoomminus.mouseover" end="zoomminus.mouseout"/>
                        </use>
                        <path d="M-4,0h8" fill="none" stroke="white" stroke-width="1.5" pointer-events="none"/>
                </g>
                <g id="dirArrow">
                        <path fill="none" stroke="white" stroke-width="1.5" d="M0,-3.0v7 M-2.5,-0.5L0,-3.0L2.5,-0.5"/>
                </g>
               <g id="resetDef">
                       <use xlink:href="#rim2" fill="#404040">
                               <set attributeName="fill" to="#808080" begin="reset.mouseover" end="reset.mouseout"/>
                       </use>
               </g>
        </defs>

<script type="text/javascript">
var viewWidth = 758;
var viewHeight = 402;
var sectionId = 'dynsection-9';
</script>
<script xlink:href="svgpan.js"/>
<svg id="graph" class="graph">
<g id="viewport">
<title>_usbHub</title>
<!-- Node1 -->
<g id="node1" class="node">
<title>Node1</title>
<g id="a_node1"><a xlink:title=" ">
<polygon fill="#999999" stroke="#666666" points="609.5,-37 553.5,-37 553.5,-18 609.5,-18 609.5,-37"/>
<text text-anchor="middle" x="581.5" y="-25" font-family="Helvetica,sans-Serif" font-size="10.00">_usbHub</text>
</a>
</g>
</g>
<!-- Node1&#45;&gt;Node1 -->
<g id="edge1" class="edge">
<title>Node1&#45;&gt;Node1</title>
<path fill="none" stroke="#9a32cd" stroke-dasharray="5,2" d="M614.16,-37.88C621.84,-37.03 627.5,-33.57 627.5,-27.5 627.5,-18.67 615.52,-15.36 602.79,-17.57"/>
<polygon fill="#9a32cd" stroke="#9a32cd" points="614.44,-34.39 604.31,-37.49 614.16,-41.39 614.44,-34.39"/>
<text text-anchor="middle" x="638" y="-25" font-family="Helvetica,sans-Serif" font-size="10.00"> next</text>
</g>
<!-- Node2 -->
<g id="node2" class="node">
<title>Node2</title>
<g id="a_node2"><a xlink:href="usbdpriv_8h.html#struct__endpoint" target="_top" xlink:title=" ">
<polygon fill="white" stroke="#bfbfbf" points="326,-235.5 267,-235.5 267,-216.5 326,-216.5 326,-235.5"/>
<text text-anchor="middle" x="296.5" y="-223.5" font-family="Helvetica,sans-Serif" font-size="10.00">_endpoint</text>
</a>
</g>
</g>
<!-- Node2&#45;&gt;Node1 -->
<g id="edge2" class="edge">
<title>Node2&#45;&gt;Node1</title>
<path fill="none" stroke="#9a32cd" stroke-dasharray="5,2" d="M337.69,-221.8C420.49,-214.42 602.35,-193.09 639.5,-146 667.82,-110.1 615.91,-58.14 592.3,-37.47"/>
<polygon fill="#9a32cd" stroke="#9a32cd" points="337.63,-218.29 327.97,-222.64 338.23,-225.27 337.63,-218.29"/>
<text text-anchor="middle" x="683.5" y="-132.5" font-family="Helvetica,sans-Serif" font-size="10.00"> controlEp</text>
<text text-anchor="middle" x="683.5" y="-121.5" font-family="Helvetica,sans-Serif" font-size="10.00">statusChangeEp</text>
</g>
<!-- Node2&#45;&gt;Node2 -->
<g id="edge3" class="edge">
<title>Node2&#45;&gt;Node2</title>
<path fill="none" stroke="#9a32cd" stroke-dasharray="5,2" d="M337.54,-232.9C341.5,-231.5 344,-229.2 344,-226 344,-220.31 336.08,-217.47 326.19,-217.47"/>
<polygon fill="#9a32cd" stroke="#9a32cd" points="337.09,-229.43 327.69,-234.32 338.08,-236.36 337.09,-229.43"/>
<text text-anchor="middle" x="365.5" y="-240" font-family="Helvetica,sans-Serif" font-size="10.00"> busyNext</text>
<text text-anchor="middle" x="365.5" y="-229" font-family="Helvetica,sans-Serif" font-size="10.00">busyPrev</text>
<text text-anchor="middle" x="365.5" y="-218" font-family="Helvetica,sans-Serif" font-size="10.00">next</text>
<text text-anchor="middle" x="365.5" y="-207" font-family="Helvetica,sans-Serif" font-size="10.00">prev</text>
</g>
<!-- Node3 -->
<g id="node3" class="node">
<title>Node3</title>
<g id="a_node3"><a xlink:href="usbdpriv_8h.html#struct__device" target="_top" xlink:title=" ">
<polygon fill="white" stroke="#bfbfbf" points="203.5,-37 153.5,-37 153.5,-18 203.5,-18 203.5,-37"/>
<text text-anchor="middle" x="178.5" y="-25" font-family="Helvetica,sans-Serif" font-size="10.00">_device</text>
</a>
</g>
</g>
<!-- Node2&#45;&gt;Node3 -->
<g id="edge6" class="edge">
<title>Node2&#45;&gt;Node3</title>
<path fill="none" stroke="#9a32cd" stroke-dasharray="5,2" d="M292.17,-204.85C286.58,-181.55 275.38,-142.59 257.5,-113 238.39,-81.37 205.94,-51.56 189.2,-37.29"/>
<polygon fill="#9a32cd" stroke="#9a32cd" points="288.75,-205.58 294.38,-214.56 295.58,-204.03 288.75,-205.58"/>
<text text-anchor="middle" x="311" y="-132.5" font-family="Helvetica,sans-Serif" font-size="10.00"> endpointListEnd</text>
<text text-anchor="middle" x="311" y="-121.5" font-family="Helvetica,sans-Serif" font-size="10.00">endpointListStart</text>
</g>
<!-- Node6 -->
<g id="node6" class="node">
<title>Node6</title>
<g id="a_node6"><a xlink:href="usbdpriv_8h.html#struct__io_request" target="_top" xlink:title=" ">
<polygon fill="white" stroke="#bfbfbf" points="438,-139 373,-139 373,-120 438,-120 438,-139"/>
<text text-anchor="middle" x="405.5" y="-127" font-family="Helvetica,sans-Serif" font-size="10.00">_ioRequest</text>
</a>
</g>
</g>
<!-- Node2&#45;&gt;Node6 -->
<g id="edge13" class="edge">
<title>Node2&#45;&gt;Node6</title>
<path fill="none" stroke="#9a32cd" stroke-dasharray="5,2" d="M337.13,-212.9C352.24,-206.79 368.58,-198.05 380.5,-186 393.58,-172.77 400.49,-151.5 403.53,-139.5"/>
<polygon fill="#9a32cd" stroke="#9a32cd" points="335.99,-209.59 327.85,-216.37 338.44,-216.15 335.99,-209.59"/>
<text text-anchor="middle" x="432" y="-172.5" font-family="Helvetica,sans-Serif" font-size="10.00"> correspEndpoint</text>
</g>
<!-- Node3&#45;&gt;Node2 -->
<g id="edge4" class="edge">
<title>Node3&#45;&gt;Node2</title>
<path fill="none" stroke="#9a32cd" stroke-dasharray="5,2" d="M176.32,-48.94C174.67,-73.63 175.11,-115.62 192.5,-146 211.99,-180.04 252.63,-204.15 276.94,-216.21"/>
<polygon fill="#9a32cd" stroke="#9a32cd" points="179.8,-49.25 177.19,-38.99 172.83,-48.64 179.8,-49.25"/>
<text text-anchor="middle" x="225" y="-127" font-family="Helvetica,sans-Serif" font-size="10.00"> correspDevice</text>
</g>
<!-- Node3&#45;&gt;Node3 -->
<g id="edge5" class="edge">
<title>Node3&#45;&gt;Node3</title>
<path fill="none" stroke="#9a32cd" stroke-dasharray="5,2" d="M209.52,-37.82C216.45,-36.87 221.5,-33.43 221.5,-27.5 221.5,-18.67 210.3,-15.36 198.4,-17.57"/>
<polygon fill="#9a32cd" stroke="#9a32cd" points="210.03,-34.34 199.92,-37.48 209.79,-41.33 210.03,-34.34"/>
<text text-anchor="middle" x="250.5" y="-47" font-family="Helvetica,sans-Serif" font-size="10.00"> childListEnd</text>
<text text-anchor="middle" x="250.5" y="-36" font-family="Helvetica,sans-Serif" font-size="10.00">childListStart</text>
<text text-anchor="middle" x="250.5" y="-25" font-family="Helvetica,sans-Serif" font-size="10.00">next</text>
<text text-anchor="middle" x="250.5" y="-14" font-family="Helvetica,sans-Serif" font-size="10.00">parent</text>
<text text-anchor="middle" x="250.5" y="-3" font-family="Helvetica,sans-Serif" font-size="10.00">prev</text>
</g>
<!-- Node4 -->
<g id="node4" class="node">
<title>Node4</title>
<g id="a_node4"><a xlink:href="struct___usb_driver.html" target="_top" xlink:title=" ">
<polygon fill="white" stroke="#666666" points="65,-139 0,-139 0,-120 65,-120 65,-139"/>
<text text-anchor="middle" x="32.5" y="-127" font-family="Helvetica,sans-Serif" font-size="10.00">_UsbDriver</text>
</a>
</g>
</g>
<!-- Node4&#45;&gt;Node3 -->
<g id="edge7" class="edge">
<title>Node4&#45;&gt;Node3</title>
<path fill="none" stroke="#9a32cd" stroke-dasharray="5,2" d="M42.95,-110.09C50.46,-98.22 61.53,-83.14 74.5,-73 98.17,-54.49 130.7,-42.21 153.04,-35.33"/>
<polygon fill="#9a32cd" stroke="#9a32cd" points="40.01,-108.2 37.88,-118.57 46.02,-111.79 40.01,-108.2"/>
<text text-anchor="middle" x="96.5" y="-81.5" font-family="Helvetica,sans-Serif" font-size="10.00"> devDriver</text>
</g>
<!-- Node4&#45;&gt;Node4 -->
<g id="edge8" class="edge">
<title>Node4&#45;&gt;Node4</title>
<path fill="none" stroke="#9a32cd" stroke-dasharray="5,2" d="M76.19,-136.38C80.36,-134.98 83,-132.69 83,-129.5 83,-123.99 75.1,-121.15 65.04,-120.98"/>
<polygon fill="#9a32cd" stroke="#9a32cd" points="75.92,-132.88 66.54,-137.8 76.94,-139.81 75.92,-132.88"/>
<text text-anchor="middle" x="93.5" y="-132.5" font-family="Helvetica,sans-Serif" font-size="10.00"> next</text>
<text text-anchor="middle" x="93.5" y="-121.5" font-family="Helvetica,sans-Serif" font-size="10.00">prev</text>
</g>
<!-- Node5 -->
<g id="node5" class="node">
<title>Node5</title>
<g id="a_node5"><a xlink:href="usbdpriv_8h.html#struct__timer_cb_struct" target="_top" xlink:title=" ">
<polygon fill="white" stroke="#bfbfbf" points="204.5,-315.5 122.5,-315.5 122.5,-296.5 204.5,-296.5 204.5,-315.5"/>
<text text-anchor="middle" x="163.5" y="-303.5" font-family="Helvetica,sans-Serif" font-size="10.00">_timerCbStruct</text>
</a>
</g>
</g>
<!-- Node5&#45;&gt;Node2 -->
<g id="edge16" class="edge">
<title>Node5&#45;&gt;Node2</title>
<path fill="none" stroke="#9a32cd" stroke-dasharray="5,2" d="M188.39,-290.4C215.74,-274.36 258.78,-249.12 281.42,-235.84"/>
<polygon fill="#9a32cd" stroke="#9a32cd" points="186.92,-287.21 180.06,-295.29 190.46,-293.25 186.92,-287.21"/>
<text text-anchor="middle" x="243" y="-269" font-family="Helvetica,sans-Serif" font-size="10.00"> timer</text>
</g>
<!-- Node5&#45;&gt;Node3 -->
<g id="edge9" class="edge">
<title>Node5&#45;&gt;Node3</title>
<path fill="none" stroke="#9a32cd" stroke-dasharray="5,2" d="M163.64,-284.78C164.05,-244.43 165.74,-151.1 172.5,-73 173.58,-60.57 175.65,-46.3 177.06,-37.34"/>
<polygon fill="#9a32cd" stroke="#9a32cd" points="160.14,-284.59 163.55,-294.62 167.14,-284.65 160.14,-284.59"/>
<text text-anchor="middle" x="180" y="-172.5" font-family="Helvetica,sans-Serif" font-size="10.00"> timer</text>
</g>
<!-- Node5&#45;&gt;Node5 -->
<g id="edge10" class="edge">
<title>Node5&#45;&gt;Node5</title>
<path fill="none" stroke="#9a32cd" stroke-dasharray="5,2" d="M216.23,-310.8C220.12,-309.72 222.5,-308.12 222.5,-306 222.5,-302.23 214.97,-300.1 204.85,-299.63"/>
<polygon fill="#9a32cd" stroke="#9a32cd" points="215.78,-307.33 206.35,-312.16 216.74,-314.26 215.78,-307.33"/>
<text text-anchor="middle" x="233" y="-309" font-family="Helvetica,sans-Serif" font-size="10.00"> next</text>
<text text-anchor="middle" x="233" y="-298" font-family="Helvetica,sans-Serif" font-size="10.00">prev</text>
</g>
<!-- Node6&#45;&gt;Node1 -->
<g id="edge21" class="edge">
<title>Node6&#45;&gt;Node1</title>
<path fill="none" stroke="#9a32cd" stroke-dasharray="5,2" d="M431.11,-113.95C468.04,-92.96 535.17,-54.83 565.66,-37.5"/>
<polygon fill="#9a32cd" stroke="#9a32cd" points="429.4,-110.89 422.43,-118.88 432.86,-116.98 429.4,-110.89"/>
<text text-anchor="middle" x="527.5" y="-87" font-family="Helvetica,sans-Serif" font-size="10.00"> controlIoReq</text>
<text text-anchor="middle" x="527.5" y="-76" font-family="Helvetica,sans-Serif" font-size="10.00">statusIoReq</text>
</g>
<!-- Node6&#45;&gt;Node2 -->
<g id="edge15" class="edge">
<title>Node6&#45;&gt;Node2</title>
<path fill="none" stroke="#9a32cd" stroke-dasharray="5,2" d="M368.68,-143.04C343.97,-151.6 315.56,-161.77 313.5,-164 299.91,-178.69 297.05,-203.32 296.53,-216.34"/>
<polygon fill="#9a32cd" stroke="#9a32cd" points="369.57,-146.44 377.88,-139.87 367.29,-139.82 369.57,-146.44"/>
<text text-anchor="middle" x="345" y="-178" font-family="Helvetica,sans-Serif" font-size="10.00"> ioReqListEnd</text>
<text text-anchor="middle" x="345" y="-167" font-family="Helvetica,sans-Serif" font-size="10.00">ioReqListStart</text>
</g>
<!-- Node6&#45;&gt;Node3 -->
<g id="edge11" class="edge">
<title>Node6&#45;&gt;Node3</title>
<path fill="none" stroke="#9a32cd" stroke-dasharray="5,2" d="M378.52,-114.27C356.03,-102.62 323.03,-86 293.5,-73 262.93,-59.55 226.92,-45.96 203.44,-37.41"/>
<polygon fill="#9a32cd" stroke="#9a32cd" points="376.82,-117.33 387.31,-118.85 380.06,-111.12 376.82,-117.33"/>
<text text-anchor="middle" x="363.5" y="-81.5" font-family="Helvetica,sans-Serif" font-size="10.00"> ioRequest</text>
</g>
<!-- Node6&#45;&gt;Node6 -->
<g id="edge12" class="edge">
<title>Node6&#45;&gt;Node6</title>
<path fill="none" stroke="#9a32cd" stroke-dasharray="5,2" d="M449.19,-136.38C453.36,-134.98 456,-132.69 456,-129.5 456,-123.99 448.1,-121.15 438.04,-120.98"/>
<polygon fill="#9a32cd" stroke="#9a32cd" points="448.92,-132.88 439.54,-137.8 449.94,-139.81 448.92,-132.88"/>
<text text-anchor="middle" x="485.5" y="-138" font-family="Helvetica,sans-Serif" font-size="10.00"> callbackProc</text>
<text text-anchor="middle" x="485.5" y="-127" font-family="Helvetica,sans-Serif" font-size="10.00">next</text>
<text text-anchor="middle" x="485.5" y="-116" font-family="Helvetica,sans-Serif" font-size="10.00">prev</text>
</g>
<!-- Node7 -->
<g id="node7" class="node">
<title>Node7</title>
<g id="a_node7"><a xlink:href="usbd_8h.html#struct_usb_device_request" target="_top" xlink:title=" ">
<polygon fill="white" stroke="#bfbfbf" points="750,-235.5 649,-235.5 649,-216.5 750,-216.5 750,-235.5"/>
<text text-anchor="middle" x="699.5" y="-223.5" font-family="Helvetica,sans-Serif" font-size="10.00">UsbDeviceRequest</text>
</a>
</g>
</g>
<!-- Node7&#45;&gt;Node6 -->
<g id="edge14" class="edge">
<title>Node7&#45;&gt;Node6</title>
<path fill="none" stroke="#9a32cd" stroke-dasharray="5,2" d="M660.63,-212.51C600.37,-193.14 485.88,-156.34 433.24,-139.42"/>
<polygon fill="#9a32cd" stroke="#9a32cd" points="659.54,-215.83 670.14,-215.56 661.69,-209.17 659.54,-215.83"/>
<text text-anchor="middle" x="587.5" y="-172.5" font-family="Helvetica,sans-Serif" font-size="10.00"> devReq</text>
</g>
<!-- Node8 -->
<g id="node8" class="node">
<title>Node8</title>
<g id="a_node8"><a xlink:href="usbdpriv_8h.html#struct__hc_ed" target="_top" xlink:title=" ">
<polygon fill="white" stroke="#bfbfbf" points="318.5,-315.5 274.5,-315.5 274.5,-296.5 318.5,-296.5 318.5,-315.5"/>
<text text-anchor="middle" x="296.5" y="-303.5" font-family="Helvetica,sans-Serif" font-size="10.00">_hcEd</text>
</a>
</g>
</g>
<!-- Node8&#45;&gt;Node2 -->
<g id="edge17" class="edge">
<title>Node8&#45;&gt;Node2</title>
<path fill="none" stroke="#9a32cd" stroke-dasharray="5,2" d="M296.5,-284.79C296.5,-268.95 296.5,-247.66 296.5,-235.84"/>
<polygon fill="#9a32cd" stroke="#9a32cd" points="293,-284.54 296.5,-294.54 300,-284.54 293,-284.54"/>
<text text-anchor="middle" x="309" y="-269" font-family="Helvetica,sans-Serif" font-size="10.00"> hcEd</text>
</g>
<!-- Node8&#45;&gt;Node8 -->
<g id="edge20" class="edge">
<title>Node8&#45;&gt;Node8</title>
<path fill="none" stroke="#9a32cd" stroke-dasharray="5,2" d="M329.93,-311.55C333.9,-310.54 336.5,-308.69 336.5,-306 336.5,-301.22 328.3,-299.09 318.71,-299.61"/>
<polygon fill="#9a32cd" stroke="#9a32cd" points="329.93,-308.04 320.22,-312.28 330.45,-315.02 329.93,-308.04"/>
<text text-anchor="middle" x="347" y="-303.5" font-family="Helvetica,sans-Serif" font-size="10.00"> next</text>
</g>
<!-- Node9 -->
<g id="node9" class="node">
<title>Node9</title>
<g id="a_node9"><a xlink:href="usbdpriv_8h.html#struct__hc_td" target="_top" xlink:title=" ">
<polygon fill="white" stroke="#bfbfbf" points="318.5,-394 274.5,-394 274.5,-375 318.5,-375 318.5,-394"/>
<text text-anchor="middle" x="296.5" y="-382" font-family="Helvetica,sans-Serif" font-size="10.00">_hcTd</text>
</a>
</g>
</g>
<!-- Node9&#45;&gt;Node8 -->
<g id="edge18" class="edge">
<title>Node9&#45;&gt;Node8</title>
<path fill="none" stroke="#9a32cd" stroke-dasharray="5,2" d="M296.5,-363.22C296.5,-347.73 296.5,-327.15 296.5,-315.67"/>
<polygon fill="#9a32cd" stroke="#9a32cd" points="293,-363.21 296.5,-373.21 300,-363.21 293,-363.21"/>
<text text-anchor="middle" x="313.5" y="-349" font-family="Helvetica,sans-Serif" font-size="10.00"> tdHead</text>
<text text-anchor="middle" x="313.5" y="-338" font-family="Helvetica,sans-Serif" font-size="10.00">tdTail</text>
</g>
<!-- Node9&#45;&gt;Node9 -->
<g id="edge19" class="edge">
<title>Node9&#45;&gt;Node9</title>
<path fill="none" stroke="#9a32cd" stroke-dasharray="5,2" d="M329.93,-390.7C333.9,-389.57 336.5,-387.5 336.5,-384.5 336.5,-379.16 328.3,-376.78 318.71,-377.37"/>
<polygon fill="#9a32cd" stroke="#9a32cd" points="329.9,-387.19 320.22,-391.51 330.48,-394.16 329.9,-387.19"/>
<text text-anchor="middle" x="347" y="-382" font-family="Helvetica,sans-Serif" font-size="10.00"> next</text>
</g>
<!-- Node10 -->
<g id="node10" class="node">
<title>Node10</title>
<g id="a_node10"><a xlink:href="usbd_8h.html#struct_usb_hub_descriptor" target="_top" xlink:title=" ">
<polygon fill="white" stroke="#bfbfbf" points="630,-139 533,-139 533,-120 630,-120 630,-139"/>
<text text-anchor="middle" x="581.5" y="-127" font-family="Helvetica,sans-Serif" font-size="10.00">UsbHubDescriptor</text>
</a>
</g>
</g>
<!-- Node10&#45;&gt;Node1 -->
<g id="edge22" class="edge">
<title>Node10&#45;&gt;Node1</title>
<path fill="none" stroke="#9a32cd" stroke-dasharray="5,2" d="M581.5,-108.19C581.5,-86.57 581.5,-53.34 581.5,-37.5"/>
<polygon fill="#9a32cd" stroke="#9a32cd" points="578,-108.11 581.5,-118.11 585,-108.11 578,-108.11"/>
<text text-anchor="middle" x="593.5" y="-81.5" font-family="Helvetica,sans-Serif" font-size="10.00"> desc</text>
</g>
</g>
</svg>
        <g id="navigator" transform="translate(0 0)" fill="#404254">
                <rect fill="#f2f5e9" fill-opacity="0.5" stroke="#606060" stroke-width=".5" x="0" y="0" width="60" height="60"/>
                <use id="zoomplus" xlink:href="#zoomPlus" x="17" y="9" onmousedown="handleZoom(evt,'in')"/>
                <use id="zoomminus" xlink:href="#zoomMin" x="42" y="9" onmousedown="handleZoom(evt,'out')"/>
                <use id="reset" xlink:href="#resetDef" x="30" y="36" onmousedown="handleReset()"/>
                <g id="arrowUp" xlink:href="#dirArrow" transform="translate(30 24)" onmousedown="handlePan(0,-1)">
                  <use xlink:href="#rim" fill="#404040">
                        <set attributeName="fill" to="#808080" begin="arrowUp.mouseover" end="arrowUp.mouseout"/>
                  </use>
                  <path fill="none" stroke="white" stroke-width="1.5" d="M0,-3.0v7 M-2.5,-0.5L0,-3.0L2.5,-0.5"/>
                </g>
                <g id="arrowRight" xlink:href="#dirArrow" transform="rotate(90) translate(36 -43)" onmousedown="handlePan(1,0)">
                  <use xlink:href="#rim" fill="#404040">
                        <set attributeName="fill" to="#808080" begin="arrowRight.mouseover" end="arrowRight.mouseout"/>
                  </use>
                  <path fill="none" stroke="white" stroke-width="1.5" d="M0,-3.0v7 M-2.5,-0.5L0,-3.0L2.5,-0.5"/>
                </g>
                <g id="arrowDown" xlink:href="#dirArrow" transform="rotate(180) translate(-30 -48)" onmousedown="handlePan(0,1)">
                  <use xlink:href="#rim" fill="#404040">
                        <set attributeName="fill" to="#808080" begin="arrowDown.mouseover" end="arrowDown.mouseout"/>
                  </use>
                  <path fill="none" stroke="white" stroke-width="1.5" d="M0,-3.0v7 M-2.5,-0.5L0,-3.0L2.5,-0.5"/>
                </g>
                <g id="arrowLeft" xlink:href="#dirArrow" transform="rotate(270) translate(-36 17)" onmousedown="handlePan(-1,0)">
                  <use xlink:href="#rim" fill="#404040">
                        <set attributeName="fill" to="#808080" begin="arrowLeft.mouseover" end="arrowLeft.mouseout"/>
                  </use>
                  <path fill="none" stroke="white" stroke-width="1.5" d="M0,-3.0v7 M-2.5,-0.5L0,-3.0L2.5,-0.5"/>
                </g>
        </g>
        <svg viewBox="0 0 15 15" width="100%" height="30px" preserveAspectRatio="xMaxYMin meet">
         <g id="arrow_out" transform="scale(0.3 0.3)">
          <a xlink:href="struct__usb_hub__coll__graph_org.svg" target="_base">
           <rect id="button" ry="5" rx="5" y="6" x="6" height="38" width="38"
                fill="#f2f5e9" fill-opacity="0.5" stroke="#606060" stroke-width="1.0"/>
           <path id="arrow"
             d="M 11.500037,31.436501 C 11.940474,20.09759 22.043105,11.32322 32.158766,21.979434 L 37.068811,17.246167 C 37.068811,17.246167 37.088388,32 37.088388,32 L 22.160133,31.978069 C 22.160133,31.978069 26.997745,27.140456 26.997745,27.140456 C 18.528582,18.264221 13.291696,25.230495 11.500037,31.436501 z"
             style="fill:#404040;"/>
          </a>
         </g>
        </svg>
</svg>
