<?xml version="1.0" encoding="UTF-8" standalone="no"?>
<!DOCTYPE svg PUBLIC "-//W3C//DTD SVG 1.1//EN"
 "http://www.w3.org/Graphics/SVG/1.1/DTD/svg11.dtd">
<!-- Generated by graphviz version 7.0.5 (20221223.1930)
 -->
<!-- Title: select_pkt Pages: 1 -->
<svg width="145pt" height="148pt"
 viewBox="0.00 0.00 145.00 148.00" xmlns="http://www.w3.org/2000/svg" xmlns:xlink="http://www.w3.org/1999/xlink">
<g id="graph0" class="graph" transform="scale(1 1) rotate(0) translate(4 144)">
<title>select_pkt</title>
<!-- Node1 -->
<g id="node1" class="node">
<title>Node1</title>
<g id="a_node1"><a xlink:title=" ">
<polygon fill="#999999" stroke="#666666" points="88,-19 26,-19 26,0 88,0 88,-19"/>
<text text-anchor="middle" x="57" y="-7" font-family="Helvetica,sans-Serif" font-size="10.00">select_pkt</text>
</a>
</g>
</g>
<!-- Node2 -->
<g id="node2" class="node">
<title>Node2</title>
<g id="a_node2"><a xlink:href="time_8h.html#structtimeval" target="_top" xlink:title=" ">
<polygon fill="white" stroke="#bfbfbf" points="48,-140 0,-140 0,-121 48,-121 48,-140"/>
<text text-anchor="middle" x="24" y="-128" font-family="Helvetica,sans-Serif" font-size="10.00">timeval</text>
</a>
</g>
</g>
<!-- Node2&#45;&gt;Node1 -->
<g id="edge1" class="edge">
<title>Node2&#45;&gt;Node1</title>
<path fill="none" stroke="#9a32cd" stroke-dasharray="5,2" d="M19.55,-109.4C16.27,-89.89 14.06,-59.95 25,-37 28.48,-29.71 35.04,-23.72 41.32,-19.3"/>
<polygon fill="#9a32cd" stroke="#9a32cd" points="16.08,-109.91 21.44,-119.05 22.95,-108.56 16.08,-109.91"/>
<text text-anchor="middle" x="46.5" y="-73" font-family="Helvetica,sans-Serif" font-size="10.00"> timeout</text>
<text text-anchor="middle" x="46.5" y="-62" font-family="Helvetica,sans-Serif" font-size="10.00">timeout_p</text>
</g>
<!-- Node3 -->
<g id="node3" class="node">
<title>Node3</title>
<g id="a_node3"><a xlink:href="tcpip_8h.html#structfd__set" target="_top" xlink:title=" ">
<polygon fill="white" stroke="#bfbfbf" points="112,-140 68,-140 68,-121 112,-121 112,-140"/>
<text text-anchor="middle" x="90" y="-128" font-family="Helvetica,sans-Serif" font-size="10.00">fd_set</text>
</a>
</g>
</g>
<!-- Node3&#45;&gt;Node1 -->
<g id="edge2" class="edge">
<title>Node3&#45;&gt;Node1</title>
<path fill="none" stroke="#9a32cd" stroke-dasharray="5,2" d="M86.24,-109.67C82.43,-90.77 75.98,-61.61 68,-37 66.03,-30.93 63.28,-24.31 61.03,-19.2"/>
<polygon fill="#9a32cd" stroke="#9a32cd" points="82.75,-110.07 88.1,-119.21 89.62,-108.73 82.75,-110.07"/>
<text text-anchor="middle" x="110.5" y="-95" font-family="Helvetica,sans-Serif" font-size="10.00"> exceptset</text>
<text text-anchor="middle" x="110.5" y="-84" font-family="Helvetica,sans-Serif" font-size="10.00">exceptset_p</text>
<text text-anchor="middle" x="110.5" y="-73" font-family="Helvetica,sans-Serif" font-size="10.00">readset</text>
<text text-anchor="middle" x="110.5" y="-62" font-family="Helvetica,sans-Serif" font-size="10.00">readset_p</text>
<text text-anchor="middle" x="110.5" y="-51" font-family="Helvetica,sans-Serif" font-size="10.00">writeset</text>
<text text-anchor="middle" x="110.5" y="-40" font-family="Helvetica,sans-Serif" font-size="10.00">writeset_p</text>
</g>
</g>
</svg>
