<?xml version="1.0" encoding="UTF-8" standalone="no"?>
<!DOCTYPE svg PUBLIC "-//W3C//DTD SVG 1.1//EN"
 "http://www.w3.org/Graphics/SVG/1.1/DTD/svg11.dtd">
<!-- Generated by graphviz version 7.0.5 (20221223.1930)
 -->
<!-- Title: pfs_blockpos_t Pages: 1 -->
<svg width="210pt" height="250pt"
 viewBox="0.00 0.00 210.00 250.00" xmlns="http://www.w3.org/2000/svg" xmlns:xlink="http://www.w3.org/1999/xlink">
<g id="graph0" class="graph" transform="scale(1 1) rotate(0) translate(4 246)">
<title>pfs_blockpos_t</title>
<!-- Node1 -->
<g id="node1" class="node">
<title>Node1</title>
<g id="a_node1"><a xlink:title=" ">
<polygon fill="#999999" stroke="#666666" points="147,-19 64,-19 64,0 147,0 147,-19"/>
<text text-anchor="middle" x="105.5" y="-7" font-family="Helvetica,sans-Serif" font-size="10.00">pfs_blockpos_t</text>
</a>
</g>
</g>
<!-- Node2 -->
<g id="node2" class="node">
<title>Node2</title>
<g id="a_node2"><a xlink:href="structpfs__cache__s.html" target="_top" xlink:title=" ">
<polygon fill="white" stroke="#bfbfbf" points="141.5,-86.5 69.5,-86.5 69.5,-67.5 141.5,-67.5 141.5,-86.5"/>
<text text-anchor="middle" x="105.5" y="-74.5" font-family="Helvetica,sans-Serif" font-size="10.00">pfs_cache_s</text>
</a>
</g>
</g>
<!-- Node2&#45;&gt;Node1 -->
<g id="edge1" class="edge">
<title>Node2&#45;&gt;Node1</title>
<path fill="none" stroke="#9a32cd" stroke-dasharray="5,2" d="M105.5,-55.74C105.5,-43.48 105.5,-28.47 105.5,-19.19"/>
<polygon fill="#9a32cd" stroke="#9a32cd" points="102,-55.65 105.5,-65.65 109,-55.65 102,-55.65"/>
<text text-anchor="middle" x="118.5" y="-40" font-family="Helvetica,sans-Serif" font-size="10.00"> inode</text>
</g>
<!-- Node2&#45;&gt;Node2 -->
<g id="edge2" class="edge">
<title>Node2&#45;&gt;Node2</title>
<path fill="none" stroke="#9a32cd" stroke-dasharray="5,2" d="M153.18,-81.97C157.08,-80.89 159.5,-79.24 159.5,-77 159.5,-73.02 151.85,-70.88 141.84,-70.57"/>
<polygon fill="#9a32cd" stroke="#9a32cd" points="152.81,-78.49 143.34,-83.24 153.71,-85.43 152.81,-78.49"/>
<text text-anchor="middle" x="170" y="-80" font-family="Helvetica,sans-Serif" font-size="10.00"> next</text>
<text text-anchor="middle" x="170" y="-69" font-family="Helvetica,sans-Serif" font-size="10.00">prev</text>
</g>
<!-- Node3 -->
<g id="node3" class="node">
<title>Node3</title>
<g id="a_node3"><a xlink:href="structpfs__mount__t.html" target="_top" xlink:title=" ">
<polygon fill="white" stroke="#bfbfbf" points="141,-154 70,-154 70,-135 141,-135 141,-154"/>
<text text-anchor="middle" x="105.5" y="-142" font-family="Helvetica,sans-Serif" font-size="10.00">pfs_mount_t</text>
</a>
</g>
</g>
<!-- Node3&#45;&gt;Node2 -->
<g id="edge3" class="edge">
<title>Node3&#45;&gt;Node2</title>
<path fill="none" stroke="#9a32cd" stroke-dasharray="5,2" d="M105.5,-123.24C105.5,-110.98 105.5,-95.97 105.5,-86.69"/>
<polygon fill="#9a32cd" stroke="#9a32cd" points="102,-123.15 105.5,-133.15 109,-123.15 102,-123.15"/>
<text text-anchor="middle" x="127" y="-109" font-family="Helvetica,sans-Serif" font-size="10.00"> pfsMount</text>
</g>
<!-- Node4 -->
<g id="node4" class="node">
<title>Node4</title>
<g id="a_node4"><a xlink:href="structpfs__block__device__t.html" target="_top" xlink:title=" ">
<polygon fill="white" stroke="#bfbfbf" points="101,-242 0,-242 0,-223 101,-223 101,-242"/>
<text text-anchor="middle" x="50.5" y="-230" font-family="Helvetica,sans-Serif" font-size="10.00">pfs_block_device_t</text>
</a>
</g>
</g>
<!-- Node4&#45;&gt;Node3 -->
<g id="edge4" class="edge">
<title>Node4&#45;&gt;Node3</title>
<path fill="none" stroke="#9a32cd" stroke-dasharray="5,2" d="M62.22,-213.17C73.77,-195.11 90.93,-168.29 99.77,-154.46"/>
<polygon fill="#9a32cd" stroke="#9a32cd" points="59.43,-211.04 56.99,-221.35 65.33,-214.81 59.43,-211.04"/>
<text text-anchor="middle" x="110" y="-186" font-family="Helvetica,sans-Serif" font-size="10.00"> blockDev</text>
</g>
<!-- Node5 -->
<g id="node5" class="node">
<title>Node5</title>
<g id="a_node5"><a xlink:href="structpfs__blockinfo__t.html" target="_top" xlink:title=" ">
<polygon fill="white" stroke="#bfbfbf" points="202,-242 119,-242 119,-223 202,-223 202,-242"/>
<text text-anchor="middle" x="160.5" y="-230" font-family="Helvetica,sans-Serif" font-size="10.00">pfs_blockinfo_t</text>
</a>
</g>
</g>
<!-- Node5&#45;&gt;Node3 -->
<g id="edge5" class="edge">
<title>Node5&#45;&gt;Node3</title>
<path fill="none" stroke="#9a32cd" stroke-dasharray="5,2" d="M154.8,-212.01C150.65,-199.81 144.22,-184.15 135.5,-172 130.72,-165.34 123.97,-159.19 118.09,-154.49"/>
<polygon fill="#9a32cd" stroke="#9a32cd" points="151.4,-212.87 157.74,-221.36 158.08,-210.77 151.4,-212.87"/>
<text text-anchor="middle" x="176" y="-197" font-family="Helvetica,sans-Serif" font-size="10.00"> current_dir</text>
<text text-anchor="middle" x="176" y="-186" font-family="Helvetica,sans-Serif" font-size="10.00">log</text>
<text text-anchor="middle" x="176" y="-175" font-family="Helvetica,sans-Serif" font-size="10.00">root_dir</text>
</g>
</g>
</svg>
