<?xml version="1.0" encoding="UTF-8" standalone="no"?>
<!DOCTYPE svg PUBLIC "-//W3C//DTD SVG 1.1//EN"
 "http://www.w3.org/Graphics/SVG/1.1/DTD/svg11.dtd">
<!-- Generated by graphviz version 7.0.5 (20221223.1930)
 -->
<!-- Title: bdm_mounts Pages: 1 -->
<svg width="166pt" height="104pt"
 viewBox="0.00 0.00 165.50 104.00" xmlns="http://www.w3.org/2000/svg" xmlns:xlink="http://www.w3.org/1999/xlink">
<g id="graph0" class="graph" transform="scale(1 1) rotate(0) translate(4 100)">
<title>bdm_mounts</title>
<!-- Node1 -->
<g id="node1" class="node">
<title>Node1</title>
<g id="a_node1"><a xlink:title=" ">
<polygon fill="#999999" stroke="#666666" points="117.5,-19 44.5,-19 44.5,0 117.5,0 117.5,-19"/>
<text text-anchor="middle" x="81" y="-7" font-family="Helvetica,sans-Serif" font-size="10.00">bdm_mounts</text>
</a>
</g>
</g>
<!-- Node2 -->
<g id="node2" class="node">
<title>Node2</title>
<g id="a_node2"><a xlink:href="structblock__device.html" target="_top" xlink:title=" ">
<polygon fill="white" stroke="#bfbfbf" points="74,-96 0,-96 0,-77 74,-77 74,-96"/>
<text text-anchor="middle" x="37" y="-84" font-family="Helvetica,sans-Serif" font-size="10.00">block_device</text>
</a>
</g>
</g>
<!-- Node2&#45;&gt;Node1 -->
<g id="edge1" class="edge">
<title>Node2&#45;&gt;Node1</title>
<path fill="none" stroke="#9a32cd" stroke-dasharray="5,2" d="M47.99,-66.76C56.87,-51.62 68.98,-31 75.79,-19.39"/>
<polygon fill="#9a32cd" stroke="#9a32cd" points="45.03,-64.9 42.99,-75.3 51.07,-68.44 45.03,-64.9"/>
<text text-anchor="middle" x="73" y="-51" font-family="Helvetica,sans-Serif" font-size="10.00"> bd</text>
<text text-anchor="middle" x="73" y="-40" font-family="Helvetica,sans-Serif" font-size="10.00">cbd</text>
</g>
<!-- Node3 -->
<g id="node3" class="node">
<title>Node3</title>
<g id="a_node3"><a xlink:href="structfile__system.html" target="_top" xlink:title=" ">
<polygon fill="white" stroke="#bfbfbf" points="157.5,-96 92.5,-96 92.5,-77 157.5,-77 157.5,-96"/>
<text text-anchor="middle" x="125" y="-84" font-family="Helvetica,sans-Serif" font-size="10.00">file_system</text>
</a>
</g>
</g>
<!-- Node3&#45;&gt;Node1 -->
<g id="edge2" class="edge">
<title>Node3&#45;&gt;Node1</title>
<path fill="none" stroke="#9a32cd" stroke-dasharray="5,2" d="M114.01,-66.76C105.13,-51.62 93.02,-31 86.21,-19.39"/>
<polygon fill="#9a32cd" stroke="#9a32cd" points="110.93,-68.44 119.01,-75.3 116.97,-64.9 110.93,-68.44"/>
<text text-anchor="middle" x="113.5" y="-45.5" font-family="Helvetica,sans-Serif" font-size="10.00"> fs</text>
</g>
</g>
</svg>
