<?xml version="1.0" encoding="UTF-8" standalone="no"?>
<!DOCTYPE svg PUBLIC "-//W3C//DTD SVG 1.1//EN"
 "http://www.w3.org/Graphics/SVG/1.1/DTD/svg11.dtd">
<!-- Generated by graphviz version 7.0.5 (20221223.1930)
 -->
<!-- Title: SecrSifDownloadHeaderParams Pages: 1 -->
<svg width="224pt" height="159pt"
 viewBox="0.00 0.00 224.00 159.00" xmlns="http://www.w3.org/2000/svg" xmlns:xlink="http://www.w3.org/1999/xlink">
<g id="graph0" class="graph" transform="scale(1 1) rotate(0) translate(4 155)">
<title>SecrSifDownloadHeaderParams</title>
<!-- Node1 -->
<g id="node1" class="node">
<title>Node1</title>
<g id="a_node1"><a xlink:title=" ">
<polygon fill="#999999" stroke="#666666" points="188.5,-19 31.5,-19 31.5,0 188.5,0 188.5,-19"/>
<text text-anchor="middle" x="110" y="-7" font-family="Helvetica,sans-Serif" font-size="10.00">SecrSifDownloadHeaderParams</text>
</a>
</g>
</g>
<!-- Node2 -->
<g id="node2" class="node">
<title>Node2</title>
<g id="a_node2"><a xlink:href="libsecr-common_8h.html#struct_secr_bit_table" target="_top" xlink:title=" ">
<polygon fill="white" stroke="#666666" points="146.5,-85 73.5,-85 73.5,-66 146.5,-66 146.5,-85"/>
<text text-anchor="middle" x="110" y="-73" font-family="Helvetica,sans-Serif" font-size="10.00">SecrBitTable</text>
</a>
</g>
</g>
<!-- Node2&#45;&gt;Node1 -->
<g id="edge1" class="edge">
<title>Node2&#45;&gt;Node1</title>
<path fill="none" stroke="#9a32cd" stroke-dasharray="5,2" d="M110,-54.18C110,-42.44 110,-28.27 110,-19.32"/>
<polygon fill="#9a32cd" stroke="#9a32cd" points="106.5,-54.09 110,-64.09 113.5,-54.09 106.5,-54.09"/>
<text text-anchor="middle" x="129.5" y="-40" font-family="Helvetica,sans-Serif" font-size="10.00"> BitTable</text>
</g>
<!-- Node3 -->
<g id="node3" class="node">
<title>Node3</title>
<g id="a_node3"><a xlink:href="libsecr-common_8h.html#struct_secr_bit_table_header" target="_top" xlink:title=" ">
<polygon fill="white" stroke="#bfbfbf" points="104,-151 0,-151 0,-132 104,-132 104,-151"/>
<text text-anchor="middle" x="52" y="-139" font-family="Helvetica,sans-Serif" font-size="10.00">SecrBitTableHeader</text>
</a>
</g>
</g>
<!-- Node3&#45;&gt;Node2 -->
<g id="edge2" class="edge">
<title>Node3&#45;&gt;Node2</title>
<path fill="none" stroke="#9a32cd" stroke-dasharray="5,2" d="M67.75,-123.12C78.83,-110.89 93.2,-95.04 102,-85.32"/>
<polygon fill="#9a32cd" stroke="#9a32cd" points="65.2,-120.72 61.08,-130.48 70.39,-125.42 65.2,-120.72"/>
<text text-anchor="middle" x="101" y="-106" font-family="Helvetica,sans-Serif" font-size="10.00"> header</text>
</g>
<!-- Node4 -->
<g id="node4" class="node">
<title>Node4</title>
<g id="a_node4"><a xlink:href="libsecr-common_8h.html#struct_secr_bit_block_data" target="_top" xlink:title=" ">
<polygon fill="white" stroke="#666666" points="216,-151 122,-151 122,-132 216,-132 216,-151"/>
<text text-anchor="middle" x="169" y="-139" font-family="Helvetica,sans-Serif" font-size="10.00">SecrBitBlockData</text>
</a>
</g>
</g>
<!-- Node4&#45;&gt;Node2 -->
<g id="edge3" class="edge">
<title>Node4&#45;&gt;Node2</title>
<path fill="none" stroke="#9a32cd" stroke-dasharray="5,2" d="M153.31,-123.48C141.99,-111.2 127.17,-95.13 118.13,-85.32"/>
<polygon fill="#9a32cd" stroke="#9a32cd" points="150.42,-125.51 159.77,-130.49 155.57,-120.76 150.42,-125.51"/>
<text text-anchor="middle" x="158.5" y="-106" font-family="Helvetica,sans-Serif" font-size="10.00"> blocks</text>
</g>
</g>
</svg>
