<?xml version="1.0" encoding="UTF-8" standalone="no"?>
<!DOCTYPE svg PUBLIC "-//W3C//DTD SVG 1.1//EN"
 "http://www.w3.org/Graphics/SVG/1.1/DTD/svg11.dtd">
<!-- Generated by graphviz version 7.0.5 (20221223.1930)
 -->
<!-- Title: GS_TRIANGLE_GT3ST_P Pages: 1 -->
<svg width="348pt" height="181pt"
 viewBox="0.00 0.00 347.50 181.00" xmlns="http://www.w3.org/2000/svg" xmlns:xlink="http://www.w3.org/1999/xlink">
<g id="graph0" class="graph" transform="scale(1 1) rotate(0) translate(4 177)">
<title>GS_TRIANGLE_GT3ST_P</title>
<!-- Node1 -->
<g id="node1" class="node">
<title>Node1</title>
<g id="a_node1"><a xlink:title=" ">
<polygon fill="#999999" stroke="#666666" points="244.5,-19 110.5,-19 110.5,0 244.5,0 244.5,-19"/>
<text text-anchor="middle" x="177.5" y="-7" font-family="Helvetica,sans-Serif" font-size="10.00">GS_TRIANGLE_GT3ST_P</text>
</a>
</g>
</g>
<!-- Node2 -->
<g id="node2" class="node">
<title>Node2</title>
<g id="a_node2"><a xlink:href="libgs_8h.html#struct_g_s___r___p_r_i_m" target="_top" xlink:title=" ">
<polygon fill="white" stroke="#bfbfbf" points="73,-107 0,-107 0,-88 73,-88 73,-107"/>
<text text-anchor="middle" x="36.5" y="-95" font-family="Helvetica,sans-Serif" font-size="10.00">GS_R_PRIM</text>
</a>
</g>
</g>
<!-- Node2&#45;&gt;Node1 -->
<g id="edge1" class="edge">
<title>Node2&#45;&gt;Node1</title>
<path fill="none" stroke="#9a32cd" stroke-dasharray="5,2" d="M56.14,-80.48C72.28,-67.75 96.06,-49.99 118.5,-37 130.06,-30.3 143.62,-24.11 154.83,-19.39"/>
<polygon fill="#9a32cd" stroke="#9a32cd" points="53.96,-77.74 48.33,-86.72 58.33,-83.2 53.96,-77.74"/>
<text text-anchor="middle" x="129.5" y="-51" font-family="Helvetica,sans-Serif" font-size="10.00"> prim</text>
</g>
<!-- Node3 -->
<g id="node3" class="node">
<title>Node3</title>
<g id="a_node3"><a xlink:href="libgs_8h.html#struct_g_s___p_r_i_m" target="_top" xlink:title=" ">
<polygon fill="white" stroke="#bfbfbf" points="67,-173 6,-173 6,-154 67,-154 67,-173"/>
<text text-anchor="middle" x="36.5" y="-161" font-family="Helvetica,sans-Serif" font-size="10.00">GS_PRIM</text>
</a>
</g>
</g>
<!-- Node3&#45;&gt;Node2 -->
<g id="edge2" class="edge">
<title>Node3&#45;&gt;Node2</title>
<path fill="none" stroke="#9a32cd" stroke-dasharray="5,2" d="M36.5,-142.18C36.5,-130.44 36.5,-116.27 36.5,-107.32"/>
<polygon fill="#9a32cd" stroke="#9a32cd" points="33,-142.09 36.5,-152.09 40,-142.09 33,-142.09"/>
<text text-anchor="middle" x="47.5" y="-128" font-family="Helvetica,sans-Serif" font-size="10.00"> data</text>
</g>
<!-- Node4 -->
<g id="node4" class="node">
<title>Node4</title>
<g id="a_node4"><a xlink:href="libgs_8h.html#struct_g_s___r___r_g_b_a_q" target="_top" xlink:title=" ">
<polygon fill="white" stroke="#bfbfbf" points="174,-107 91,-107 91,-88 174,-88 174,-107"/>
<text text-anchor="middle" x="132.5" y="-95" font-family="Helvetica,sans-Serif" font-size="10.00">GS_R_RGBAQ</text>
</a>
</g>
</g>
<!-- Node4&#45;&gt;Node1 -->
<g id="edge3" class="edge">
<title>Node4&#45;&gt;Node1</title>
<path fill="none" stroke="#9a32cd" stroke-dasharray="5,2" d="M140.21,-77.34C145.22,-65.47 152.17,-50.06 159.5,-37 162.98,-30.79 167.48,-24.17 171.11,-19.09"/>
<polygon fill="#9a32cd" stroke="#9a32cd" points="137.05,-75.82 136.48,-86.4 143.52,-78.49 137.05,-75.82"/>
<text text-anchor="middle" x="175.5" y="-62" font-family="Helvetica,sans-Serif" font-size="10.00"> rgbaq0</text>
<text text-anchor="middle" x="175.5" y="-51" font-family="Helvetica,sans-Serif" font-size="10.00">rgbaq1</text>
<text text-anchor="middle" x="175.5" y="-40" font-family="Helvetica,sans-Serif" font-size="10.00">rgbaq2</text>
</g>
<!-- Node5 -->
<g id="node5" class="node">
<title>Node5</title>
<g id="a_node5"><a xlink:href="libgs_8h.html#struct_g_s___r_g_b_a_q" target="_top" xlink:title=" ">
<polygon fill="white" stroke="#bfbfbf" points="168,-173 97,-173 97,-154 168,-154 168,-173"/>
<text text-anchor="middle" x="132.5" y="-161" font-family="Helvetica,sans-Serif" font-size="10.00">GS_RGBAQ</text>
</a>
</g>
</g>
<!-- Node5&#45;&gt;Node4 -->
<g id="edge4" class="edge">
<title>Node5&#45;&gt;Node4</title>
<path fill="none" stroke="#9a32cd" stroke-dasharray="5,2" d="M132.5,-142.18C132.5,-130.44 132.5,-116.27 132.5,-107.32"/>
<polygon fill="#9a32cd" stroke="#9a32cd" points="129,-142.09 132.5,-152.09 136,-142.09 129,-142.09"/>
<text text-anchor="middle" x="143.5" y="-128" font-family="Helvetica,sans-Serif" font-size="10.00"> data</text>
</g>
<!-- Node6 -->
<g id="node6" class="node">
<title>Node6</title>
<g id="a_node6"><a xlink:href="libgs_8h.html#struct_g_s___r___s_t" target="_top" xlink:title=" ">
<polygon fill="white" stroke="#bfbfbf" points="253,-107 192,-107 192,-88 253,-88 253,-107"/>
<text text-anchor="middle" x="222.5" y="-95" font-family="Helvetica,sans-Serif" font-size="10.00">GS_R_ST</text>
</a>
</g>
</g>
<!-- Node6&#45;&gt;Node1 -->
<g id="edge5" class="edge">
<title>Node6&#45;&gt;Node1</title>
<path fill="none" stroke="#9a32cd" stroke-dasharray="5,2" d="M212.73,-77.69C206.64,-65.98 198.64,-50.6 191.5,-37 188.41,-31.1 184.91,-24.48 182.18,-19.33"/>
<polygon fill="#9a32cd" stroke="#9a32cd" points="209.48,-79.02 217.2,-86.28 215.69,-75.79 209.48,-79.02"/>
<text text-anchor="middle" x="216.5" y="-62" font-family="Helvetica,sans-Serif" font-size="10.00"> st0</text>
<text text-anchor="middle" x="216.5" y="-51" font-family="Helvetica,sans-Serif" font-size="10.00">st1</text>
<text text-anchor="middle" x="216.5" y="-40" font-family="Helvetica,sans-Serif" font-size="10.00">st2</text>
</g>
<!-- Node7 -->
<g id="node7" class="node">
<title>Node7</title>
<g id="a_node7"><a xlink:href="libgs_8h.html#struct_g_s___s_t" target="_top" xlink:title=" ">
<polygon fill="white" stroke="#bfbfbf" points="247,-173 198,-173 198,-154 247,-154 247,-173"/>
<text text-anchor="middle" x="222.5" y="-161" font-family="Helvetica,sans-Serif" font-size="10.00">GS_ST</text>
</a>
</g>
</g>
<!-- Node7&#45;&gt;Node6 -->
<g id="edge6" class="edge">
<title>Node7&#45;&gt;Node6</title>
<path fill="none" stroke="#9a32cd" stroke-dasharray="5,2" d="M222.5,-142.18C222.5,-130.44 222.5,-116.27 222.5,-107.32"/>
<polygon fill="#9a32cd" stroke="#9a32cd" points="219,-142.09 222.5,-152.09 226,-142.09 219,-142.09"/>
<text text-anchor="middle" x="233.5" y="-128" font-family="Helvetica,sans-Serif" font-size="10.00"> data</text>
</g>
<!-- Node8 -->
<g id="node8" class="node">
<title>Node8</title>
<g id="a_node8"><a xlink:href="libgs_8h.html#struct_g_s___r___x_y_z" target="_top" xlink:title=" ">
<polygon fill="white" stroke="#bfbfbf" points="339.5,-107 271.5,-107 271.5,-88 339.5,-88 339.5,-107"/>
<text text-anchor="middle" x="305.5" y="-95" font-family="Helvetica,sans-Serif" font-size="10.00">GS_R_XYZ</text>
</a>
</g>
</g>
<!-- Node8&#45;&gt;Node1 -->
<g id="edge7" class="edge">
<title>Node8&#45;&gt;Node1</title>
<path fill="none" stroke="#9a32cd" stroke-dasharray="5,2" d="M287.02,-80.7C271.83,-68.1 249.49,-50.41 228.5,-37 218.24,-30.45 206.18,-24.12 196.36,-19.29"/>
<polygon fill="#9a32cd" stroke="#9a32cd" points="284.4,-83.08 294.31,-86.83 288.91,-77.72 284.4,-83.08"/>
<text text-anchor="middle" x="284.5" y="-62" font-family="Helvetica,sans-Serif" font-size="10.00"> xyz0</text>
<text text-anchor="middle" x="284.5" y="-51" font-family="Helvetica,sans-Serif" font-size="10.00">xyz1</text>
<text text-anchor="middle" x="284.5" y="-40" font-family="Helvetica,sans-Serif" font-size="10.00">xyz2</text>
</g>
<!-- Node9 -->
<g id="node9" class="node">
<title>Node9</title>
<g id="a_node9"><a xlink:href="libgs_8h.html#struct_g_s___x_y_z" target="_top" xlink:title=" ">
<polygon fill="white" stroke="#bfbfbf" points="333.5,-173 277.5,-173 277.5,-154 333.5,-154 333.5,-173"/>
<text text-anchor="middle" x="305.5" y="-161" font-family="Helvetica,sans-Serif" font-size="10.00">GS_XYZ</text>
</a>
</g>
</g>
<!-- Node9&#45;&gt;Node8 -->
<g id="edge8" class="edge">
<title>Node9&#45;&gt;Node8</title>
<path fill="none" stroke="#9a32cd" stroke-dasharray="5,2" d="M305.5,-142.18C305.5,-130.44 305.5,-116.27 305.5,-107.32"/>
<polygon fill="#9a32cd" stroke="#9a32cd" points="302,-142.09 305.5,-152.09 309,-142.09 302,-142.09"/>
<text text-anchor="middle" x="316.5" y="-128" font-family="Helvetica,sans-Serif" font-size="10.00"> data</text>
</g>
</g>
</svg>
