<?xml version="1.0" encoding="UTF-8" standalone="no"?>
<!DOCTYPE svg PUBLIC "-//W3C//DTD SVG 1.1//EN"
 "http://www.w3.org/Graphics/SVG/1.1/DTD/svg11.dtd">
<!-- Generated by graphviz version 7.0.5 (20221223.1930)
 -->
<!-- Title: devfs_node_t Pages: 1 -->
<svg width="83pt" height="181pt"
 viewBox="0.00 0.00 83.00 181.00" xmlns="http://www.w3.org/2000/svg" xmlns:xlink="http://www.w3.org/1999/xlink">
<g id="graph0" class="graph" transform="scale(1 1) rotate(0) translate(4 177)">
<title>devfs_node_t</title>
<!-- Node1 -->
<g id="node1" class="node">
<title>Node1</title>
<g id="a_node1"><a xlink:title=" ">
<polygon fill="#999999" stroke="#666666" points="75,-19 0,-19 0,0 75,0 75,-19"/>
<text text-anchor="middle" x="37.5" y="-7" font-family="Helvetica,sans-Serif" font-size="10.00">devfs_node_t</text>
</a>
</g>
</g>
<!-- Node2 -->
<g id="node2" class="node">
<title>Node2</title>
<g id="a_node2"><a xlink:href="group__devfs.html#structdevfs__info__t" target="_top" xlink:title=" ">
<polygon fill="white" stroke="#666666" points="72.5,-107 2.5,-107 2.5,-88 72.5,-88 72.5,-107"/>
<text text-anchor="middle" x="37.5" y="-95" font-family="Helvetica,sans-Serif" font-size="10.00">devfs_info_t</text>
</a>
</g>
</g>
<!-- Node2&#45;&gt;Node1 -->
<g id="edge1" class="edge">
<title>Node2&#45;&gt;Node1</title>
<path fill="none" stroke="#9a32cd" stroke-dasharray="5,2" d="M37.5,-76.37C37.5,-58.37 37.5,-32.83 37.5,-19.46"/>
<polygon fill="#9a32cd" stroke="#9a32cd" points="34,-76.11 37.5,-86.11 41,-76.11 34,-76.11"/>
<text text-anchor="middle" x="48.5" y="-62" font-family="Helvetica,sans-Serif" font-size="10.00"> ioctl</text>
<text text-anchor="middle" x="48.5" y="-51" font-family="Helvetica,sans-Serif" font-size="10.00">read</text>
<text text-anchor="middle" x="48.5" y="-40" font-family="Helvetica,sans-Serif" font-size="10.00">write</text>
</g>
<!-- Node3 -->
<g id="node3" class="node">
<title>Node3</title>
<g id="a_node3"><a xlink:href="group__devfs.html#uniondevfs__loc__t" target="_top" xlink:title=" ">
<polygon fill="white" stroke="#666666" points="71,-173 4,-173 4,-154 71,-154 71,-173"/>
<text text-anchor="middle" x="37.5" y="-161" font-family="Helvetica,sans-Serif" font-size="10.00">devfs_loc_t</text>
</a>
</g>
</g>
<!-- Node3&#45;&gt;Node2 -->
<g id="edge2" class="edge">
<title>Node3&#45;&gt;Node2</title>
<path fill="none" stroke="#9a32cd" stroke-dasharray="5,2" d="M37.5,-142.18C37.5,-130.44 37.5,-116.27 37.5,-107.32"/>
<polygon fill="#9a32cd" stroke="#9a32cd" points="34,-142.09 37.5,-152.09 41,-142.09 34,-142.09"/>
<text text-anchor="middle" x="45.5" y="-128" font-family="Helvetica,sans-Serif" font-size="10.00"> loc</text>
</g>
</g>
</svg>
