<?xml version="1.0" encoding="UTF-8" standalone="no"?>
<!DOCTYPE svg PUBLIC "-//W3C//DTD SVG 1.1//EN"
 "http://www.w3.org/Graphics/SVG/1.1/DTD/svg11.dtd">
<!-- Generated by graphviz version 7.0.5 (20221223.1930)
 -->
<!-- Title: GS_TRIANGLE_F3_P Pages: 1 -->
<svg width="269pt" height="181pt"
 viewBox="0.00 0.00 268.50 181.00" xmlns="http://www.w3.org/2000/svg" xmlns:xlink="http://www.w3.org/1999/xlink">
<g id="graph0" class="graph" transform="scale(1 1) rotate(0) translate(4 177)">
<title>GS_TRIANGLE_F3_P</title>
<!-- Node1 -->
<g id="node1" class="node">
<title>Node1</title>
<g id="a_node1"><a xlink:title=" ">
<polygon fill="#999999" stroke="#666666" points="189.5,-19 75.5,-19 75.5,0 189.5,0 189.5,-19"/>
<text text-anchor="middle" x="132.5" y="-7" font-family="Helvetica,sans-Serif" font-size="10.00">GS_TRIANGLE_F3_P</text>
</a>
</g>
</g>
<!-- Node2 -->
<g id="node2" class="node">
<title>Node2</title>
<g id="a_node2"><a xlink:href="libgs_8h.html#struct_g_s___r___p_r_i_m" target="_top" xlink:title=" ">
<polygon fill="white" stroke="#bfbfbf" points="73,-107 0,-107 0,-88 73,-88 73,-107"/>
<text text-anchor="middle" x="36.5" y="-95" font-family="Helvetica,sans-Serif" font-size="10.00">GS_R_PRIM</text>
</a>
</g>
</g>
<!-- Node2&#45;&gt;Node1 -->
<g id="edge1" class="edge">
<title>Node2&#45;&gt;Node1</title>
<path fill="none" stroke="#9a32cd" stroke-dasharray="5,2" d="M54.75,-80.15C74.86,-62.13 106.49,-33.8 122.5,-19.46"/>
<polygon fill="#9a32cd" stroke="#9a32cd" points="52.65,-77.33 47.54,-86.61 57.32,-82.54 52.65,-77.33"/>
<text text-anchor="middle" x="112.5" y="-51" font-family="Helvetica,sans-Serif" font-size="10.00"> prim</text>
</g>
<!-- Node3 -->
<g id="node3" class="node">
<title>Node3</title>
<g id="a_node3"><a xlink:href="libgs_8h.html#struct_g_s___p_r_i_m" target="_top" xlink:title=" ">
<polygon fill="white" stroke="#bfbfbf" points="67,-173 6,-173 6,-154 67,-154 67,-173"/>
<text text-anchor="middle" x="36.5" y="-161" font-family="Helvetica,sans-Serif" font-size="10.00">GS_PRIM</text>
</a>
</g>
</g>
<!-- Node3&#45;&gt;Node2 -->
<g id="edge2" class="edge">
<title>Node3&#45;&gt;Node2</title>
<path fill="none" stroke="#9a32cd" stroke-dasharray="5,2" d="M36.5,-142.18C36.5,-130.44 36.5,-116.27 36.5,-107.32"/>
<polygon fill="#9a32cd" stroke="#9a32cd" points="33,-142.09 36.5,-152.09 40,-142.09 33,-142.09"/>
<text text-anchor="middle" x="47.5" y="-128" font-family="Helvetica,sans-Serif" font-size="10.00"> data</text>
</g>
<!-- Node4 -->
<g id="node4" class="node">
<title>Node4</title>
<g id="a_node4"><a xlink:href="libgs_8h.html#struct_g_s___r___r_g_b_a_q" target="_top" xlink:title=" ">
<polygon fill="white" stroke="#bfbfbf" points="174,-107 91,-107 91,-88 174,-88 174,-107"/>
<text text-anchor="middle" x="132.5" y="-95" font-family="Helvetica,sans-Serif" font-size="10.00">GS_R_RGBAQ</text>
</a>
</g>
</g>
<!-- Node4&#45;&gt;Node1 -->
<g id="edge3" class="edge">
<title>Node4&#45;&gt;Node1</title>
<path fill="none" stroke="#9a32cd" stroke-dasharray="5,2" d="M132.5,-76.37C132.5,-58.37 132.5,-32.83 132.5,-19.46"/>
<polygon fill="#9a32cd" stroke="#9a32cd" points="129,-76.11 132.5,-86.11 136,-76.11 129,-76.11"/>
<text text-anchor="middle" x="148.5" y="-51" font-family="Helvetica,sans-Serif" font-size="10.00"> rgbaq0</text>
</g>
<!-- Node5 -->
<g id="node5" class="node">
<title>Node5</title>
<g id="a_node5"><a xlink:href="libgs_8h.html#struct_g_s___r_g_b_a_q" target="_top" xlink:title=" ">
<polygon fill="white" stroke="#bfbfbf" points="168,-173 97,-173 97,-154 168,-154 168,-173"/>
<text text-anchor="middle" x="132.5" y="-161" font-family="Helvetica,sans-Serif" font-size="10.00">GS_RGBAQ</text>
</a>
</g>
</g>
<!-- Node5&#45;&gt;Node4 -->
<g id="edge4" class="edge">
<title>Node5&#45;&gt;Node4</title>
<path fill="none" stroke="#9a32cd" stroke-dasharray="5,2" d="M132.5,-142.18C132.5,-130.44 132.5,-116.27 132.5,-107.32"/>
<polygon fill="#9a32cd" stroke="#9a32cd" points="129,-142.09 132.5,-152.09 136,-142.09 129,-142.09"/>
<text text-anchor="middle" x="143.5" y="-128" font-family="Helvetica,sans-Serif" font-size="10.00"> data</text>
</g>
<!-- Node6 -->
<g id="node6" class="node">
<title>Node6</title>
<g id="a_node6"><a xlink:href="libgs_8h.html#struct_g_s___r___x_y_z" target="_top" xlink:title=" ">
<polygon fill="white" stroke="#bfbfbf" points="260.5,-107 192.5,-107 192.5,-88 260.5,-88 260.5,-107"/>
<text text-anchor="middle" x="226.5" y="-95" font-family="Helvetica,sans-Serif" font-size="10.00">GS_R_XYZ</text>
</a>
</g>
</g>
<!-- Node6&#45;&gt;Node1 -->
<g id="edge5" class="edge">
<title>Node6&#45;&gt;Node1</title>
<path fill="none" stroke="#9a32cd" stroke-dasharray="5,2" d="M211.01,-79.16C199.71,-66.87 183.76,-50.29 168.5,-37 161.24,-30.68 152.57,-24.27 145.55,-19.33"/>
<polygon fill="#9a32cd" stroke="#9a32cd" points="208.33,-81.41 217.64,-86.46 213.51,-76.71 208.33,-81.41"/>
<text text-anchor="middle" x="213.5" y="-62" font-family="Helvetica,sans-Serif" font-size="10.00"> xyz0</text>
<text text-anchor="middle" x="213.5" y="-51" font-family="Helvetica,sans-Serif" font-size="10.00">xyz1</text>
<text text-anchor="middle" x="213.5" y="-40" font-family="Helvetica,sans-Serif" font-size="10.00">xyz2</text>
</g>
<!-- Node7 -->
<g id="node7" class="node">
<title>Node7</title>
<g id="a_node7"><a xlink:href="libgs_8h.html#struct_g_s___x_y_z" target="_top" xlink:title=" ">
<polygon fill="white" stroke="#bfbfbf" points="254.5,-173 198.5,-173 198.5,-154 254.5,-154 254.5,-173"/>
<text text-anchor="middle" x="226.5" y="-161" font-family="Helvetica,sans-Serif" font-size="10.00">GS_XYZ</text>
</a>
</g>
</g>
<!-- Node7&#45;&gt;Node6 -->
<g id="edge6" class="edge">
<title>Node7&#45;&gt;Node6</title>
<path fill="none" stroke="#9a32cd" stroke-dasharray="5,2" d="M226.5,-142.18C226.5,-130.44 226.5,-116.27 226.5,-107.32"/>
<polygon fill="#9a32cd" stroke="#9a32cd" points="223,-142.09 226.5,-152.09 230,-142.09 223,-142.09"/>
<text text-anchor="middle" x="237.5" y="-128" font-family="Helvetica,sans-Serif" font-size="10.00"> data</text>
</g>
</g>
</svg>
