<?xml version="1.0" encoding="UTF-8" standalone="no"?>
<!DOCTYPE svg PUBLIC "-//W3C//DTD SVG 1.1//EN"
 "http://www.w3.org/Graphics/SVG/1.1/DTD/svg11.dtd">
<!-- Generated by graphviz version 7.0.5 (20221223.1930)
 -->
<!-- Title: _slib_exp_lib_list Pages: 1 -->
<svg width="130pt" height="170pt"
 viewBox="0.00 0.00 130.00 170.00" xmlns="http://www.w3.org/2000/svg" xmlns:xlink="http://www.w3.org/1999/xlink">
<g id="graph0" class="graph" transform="scale(1 1) rotate(0) translate(4 166)">
<title>_slib_exp_lib_list</title>
<!-- Node1 -->
<g id="node1" class="node">
<title>Node1</title>
<g id="a_node1"><a xlink:title=" ">
<polygon fill="#999999" stroke="#666666" points="90,-19 0,-19 0,0 90,0 90,-19"/>
<text text-anchor="middle" x="45" y="-7" font-family="Helvetica,sans-Serif" font-size="10.00">_slib_exp_lib_list</text>
</a>
</g>
</g>
<!-- Node2 -->
<g id="node2" class="node">
<title>Node2</title>
<g id="a_node2"><a xlink:href="slib_8h.html#struct__slib__exp__lib" target="_top" xlink:title=" ">
<polygon fill="white" stroke="#666666" points="81,-96 9,-96 9,-77 81,-77 81,-96"/>
<text text-anchor="middle" x="45" y="-84" font-family="Helvetica,sans-Serif" font-size="10.00">_slib_exp_lib</text>
</a>
</g>
</g>
<!-- Node2&#45;&gt;Node1 -->
<g id="edge1" class="edge">
<title>Node2&#45;&gt;Node1</title>
<path fill="none" stroke="#9a32cd" stroke-dasharray="5,2" d="M45,-65.42C45,-50.43 45,-30.66 45,-19.39"/>
<polygon fill="#9a32cd" stroke="#9a32cd" points="41.5,-65.09 45,-75.09 48.5,-65.09 41.5,-65.09"/>
<text text-anchor="middle" x="57" y="-51" font-family="Helvetica,sans-Serif" font-size="10.00"> head</text>
<text text-anchor="middle" x="57" y="-40" font-family="Helvetica,sans-Serif" font-size="10.00">tail</text>
</g>
<!-- Node2&#45;&gt;Node2 -->
<g id="edge2" class="edge">
<title>Node2&#45;&gt;Node2</title>
<path fill="none" stroke="#9a32cd" stroke-dasharray="5,2" d="M92.68,-91.25C96.58,-90.22 99,-88.64 99,-86.5 99,-82.7 91.35,-80.65 81.34,-80.35"/>
<polygon fill="#9a32cd" stroke="#9a32cd" points="92.34,-87.77 82.84,-92.46 93.2,-94.72 92.34,-87.77"/>
<text text-anchor="middle" x="110" y="-84" font-family="Helvetica,sans-Serif" font-size="10.00"> prev</text>
</g>
<!-- Node3 -->
<g id="node3" class="node">
<title>Node3</title>
<g id="a_node3"><a xlink:href="slib_8h.html#struct__slib__imp__list" target="_top" xlink:title=" ">
<polygon fill="white" stroke="#666666" points="83,-162 7,-162 7,-143 83,-143 83,-162"/>
<text text-anchor="middle" x="45" y="-150" font-family="Helvetica,sans-Serif" font-size="10.00">_slib_imp_list</text>
</a>
</g>
</g>
<!-- Node3&#45;&gt;Node2 -->
<g id="edge3" class="edge">
<title>Node3&#45;&gt;Node2</title>
<path fill="none" stroke="#9a32cd" stroke-dasharray="5,2" d="M45,-131.18C45,-119.44 45,-105.27 45,-96.32"/>
<polygon fill="#9a32cd" stroke="#9a32cd" points="41.5,-131.09 45,-141.09 48.5,-131.09 41.5,-131.09"/>
<text text-anchor="middle" x="58" y="-117" font-family="Helvetica,sans-Serif" font-size="10.00"> caller</text>
</g>
<!-- Node3&#45;&gt;Node3 -->
<g id="edge4" class="edge">
<title>Node3&#45;&gt;Node3</title>
<path fill="none" stroke="#9a32cd" stroke-dasharray="5,2" d="M94.75,-157.17C98.62,-156.14 101,-154.58 101,-152.5 101,-148.79 93.47,-146.75 83.48,-146.38"/>
<polygon fill="#9a32cd" stroke="#9a32cd" points="94.45,-153.68 84.98,-158.43 95.34,-160.63 94.45,-153.68"/>
<text text-anchor="middle" x="111.5" y="-150" font-family="Helvetica,sans-Serif" font-size="10.00"> next</text>
</g>
</g>
</svg>
