<?xml version="1.0" encoding="UTF-8" standalone="no"?>
<!DOCTYPE svg PUBLIC "-//W3C//DTD SVG 1.1//EN"
 "http://www.w3.org/Graphics/SVG/1.1/DTD/svg11.dtd">
<!-- Generated by graphviz version 7.0.5 (20221223.1930)
 -->
<!-- Title: GS_SPRITE_FT4 Pages: 1 -->
<svg width="258pt" height="170pt"
 viewBox="0.00 0.00 257.50 170.00" xmlns="http://www.w3.org/2000/svg" xmlns:xlink="http://www.w3.org/1999/xlink">
<g id="graph0" class="graph" transform="scale(1 1) rotate(0) translate(4 166)">
<title>GS_SPRITE_FT4</title>
<!-- Node1 -->
<g id="node1" class="node">
<title>Node1</title>
<g id="a_node1"><a xlink:title=" ">
<polygon fill="#999999" stroke="#666666" points="179.5,-19 85.5,-19 85.5,0 179.5,0 179.5,-19"/>
<text text-anchor="middle" x="132.5" y="-7" font-family="Helvetica,sans-Serif" font-size="10.00">GS_SPRITE_FT4</text>
</a>
</g>
</g>
<!-- Node2 -->
<g id="node2" class="node">
<title>Node2</title>
<g id="a_node2"><a xlink:href="libgs_8h.html#struct_g_s___r___r_g_b_a_q" target="_top" xlink:title=" ">
<polygon fill="white" stroke="#bfbfbf" points="83,-96 0,-96 0,-77 83,-77 83,-96"/>
<text text-anchor="middle" x="41.5" y="-84" font-family="Helvetica,sans-Serif" font-size="10.00">GS_R_RGBAQ</text>
</a>
</g>
</g>
<!-- Node2&#45;&gt;Node1 -->
<g id="edge1" class="edge">
<title>Node2&#45;&gt;Node1</title>
<path fill="none" stroke="#9a32cd" stroke-dasharray="5,2" d="M59.39,-69.01C69.98,-59.43 83.78,-47.26 96.5,-37 104.11,-30.86 112.95,-24.35 119.97,-19.31"/>
<polygon fill="#9a32cd" stroke="#9a32cd" points="57.16,-66.3 52.13,-75.63 61.88,-71.48 57.16,-66.3"/>
<text text-anchor="middle" x="112.5" y="-45.5" font-family="Helvetica,sans-Serif" font-size="10.00"> rgbaq0</text>
</g>
<!-- Node3 -->
<g id="node3" class="node">
<title>Node3</title>
<g id="a_node3"><a xlink:href="libgs_8h.html#struct_g_s___r_g_b_a_q" target="_top" xlink:title=" ">
<polygon fill="white" stroke="#bfbfbf" points="77,-162 6,-162 6,-143 77,-143 77,-162"/>
<text text-anchor="middle" x="41.5" y="-150" font-family="Helvetica,sans-Serif" font-size="10.00">GS_RGBAQ</text>
</a>
</g>
</g>
<!-- Node3&#45;&gt;Node2 -->
<g id="edge2" class="edge">
<title>Node3&#45;&gt;Node2</title>
<path fill="none" stroke="#9a32cd" stroke-dasharray="5,2" d="M41.5,-131.18C41.5,-119.44 41.5,-105.27 41.5,-96.32"/>
<polygon fill="#9a32cd" stroke="#9a32cd" points="38,-131.09 41.5,-141.09 45,-131.09 38,-131.09"/>
<text text-anchor="middle" x="52.5" y="-117" font-family="Helvetica,sans-Serif" font-size="10.00"> data</text>
</g>
<!-- Node4 -->
<g id="node4" class="node">
<title>Node4</title>
<g id="a_node4"><a xlink:href="libgs_8h.html#struct_g_s___r___u_v" target="_top" xlink:title=" ">
<polygon fill="white" stroke="#bfbfbf" points="163.5,-96 101.5,-96 101.5,-77 163.5,-77 163.5,-96"/>
<text text-anchor="middle" x="132.5" y="-84" font-family="Helvetica,sans-Serif" font-size="10.00">GS_R_UV</text>
</a>
</g>
</g>
<!-- Node4&#45;&gt;Node1 -->
<g id="edge3" class="edge">
<title>Node4&#45;&gt;Node1</title>
<path fill="none" stroke="#9a32cd" stroke-dasharray="5,2" d="M132.5,-65.42C132.5,-50.43 132.5,-30.66 132.5,-19.39"/>
<polygon fill="#9a32cd" stroke="#9a32cd" points="129,-65.09 132.5,-75.09 136,-65.09 129,-65.09"/>
<text text-anchor="middle" x="142" y="-51" font-family="Helvetica,sans-Serif" font-size="10.00"> uv0</text>
<text text-anchor="middle" x="142" y="-40" font-family="Helvetica,sans-Serif" font-size="10.00">uv1</text>
</g>
<!-- Node5 -->
<g id="node5" class="node">
<title>Node5</title>
<g id="a_node5"><a xlink:href="libgs_8h.html#struct_g_s___u_v" target="_top" xlink:title=" ">
<polygon fill="white" stroke="#bfbfbf" points="157.5,-162 107.5,-162 107.5,-143 157.5,-143 157.5,-162"/>
<text text-anchor="middle" x="132.5" y="-150" font-family="Helvetica,sans-Serif" font-size="10.00">GS_UV</text>
</a>
</g>
</g>
<!-- Node5&#45;&gt;Node4 -->
<g id="edge4" class="edge">
<title>Node5&#45;&gt;Node4</title>
<path fill="none" stroke="#9a32cd" stroke-dasharray="5,2" d="M132.5,-131.18C132.5,-119.44 132.5,-105.27 132.5,-96.32"/>
<polygon fill="#9a32cd" stroke="#9a32cd" points="129,-131.09 132.5,-141.09 136,-131.09 129,-131.09"/>
<text text-anchor="middle" x="143.5" y="-117" font-family="Helvetica,sans-Serif" font-size="10.00"> data</text>
</g>
<!-- Node6 -->
<g id="node6" class="node">
<title>Node6</title>
<g id="a_node6"><a xlink:href="libgs_8h.html#struct_g_s___r___x_y_z" target="_top" xlink:title=" ">
<polygon fill="white" stroke="#bfbfbf" points="249.5,-96 181.5,-96 181.5,-77 249.5,-77 249.5,-96"/>
<text text-anchor="middle" x="215.5" y="-84" font-family="Helvetica,sans-Serif" font-size="10.00">GS_R_XYZ</text>
</a>
</g>
</g>
<!-- Node6&#45;&gt;Node1 -->
<g id="edge5" class="edge">
<title>Node6&#45;&gt;Node1</title>
<path fill="none" stroke="#9a32cd" stroke-dasharray="5,2" d="M197.15,-68.92C180.25,-53.65 155.81,-31.56 142.33,-19.39"/>
<polygon fill="#9a32cd" stroke="#9a32cd" points="194.76,-71.48 204.53,-75.59 199.46,-66.29 194.76,-71.48"/>
<text text-anchor="middle" x="195.5" y="-51" font-family="Helvetica,sans-Serif" font-size="10.00"> xyz0</text>
<text text-anchor="middle" x="195.5" y="-40" font-family="Helvetica,sans-Serif" font-size="10.00">xyz1</text>
</g>
<!-- Node7 -->
<g id="node7" class="node">
<title>Node7</title>
<g id="a_node7"><a xlink:href="libgs_8h.html#struct_g_s___x_y_z" target="_top" xlink:title=" ">
<polygon fill="white" stroke="#bfbfbf" points="243.5,-162 187.5,-162 187.5,-143 243.5,-143 243.5,-162"/>
<text text-anchor="middle" x="215.5" y="-150" font-family="Helvetica,sans-Serif" font-size="10.00">GS_XYZ</text>
</a>
</g>
</g>
<!-- Node7&#45;&gt;Node6 -->
<g id="edge6" class="edge">
<title>Node7&#45;&gt;Node6</title>
<path fill="none" stroke="#9a32cd" stroke-dasharray="5,2" d="M215.5,-131.18C215.5,-119.44 215.5,-105.27 215.5,-96.32"/>
<polygon fill="#9a32cd" stroke="#9a32cd" points="212,-131.09 215.5,-141.09 219,-131.09 212,-131.09"/>
<text text-anchor="middle" x="226.5" y="-117" font-family="Helvetica,sans-Serif" font-size="10.00"> data</text>
</g>
</g>
</svg>
