<?xml version="1.0" encoding="UTF-8" standalone="no"?>
<!DOCTYPE svg PUBLIC "-//W3C//DTD SVG 1.1//EN"
 "http://www.w3.org/Graphics/SVG/1.1/DTD/svg11.dtd">
<!-- Generated by graphviz version 7.0.5 (20221223.1930)
 -->
<!-- Title: usbmass_cmd Pages: 1 -->
<svg width="540pt" height="159pt"
 viewBox="0.00 0.00 540.00 159.00" xmlns="http://www.w3.org/2000/svg" xmlns:xlink="http://www.w3.org/1999/xlink">
<g id="graph0" class="graph" transform="scale(1 1) rotate(0) translate(4 155)">
<title>usbmass_cmd</title>
<!-- Node1 -->
<g id="node1" class="node">
<title>Node1</title>
<g id="a_node1"><a xlink:title=" ">
<polygon fill="#999999" stroke="#666666" points="443,-19 363,-19 363,0 443,0 443,-19"/>
<text text-anchor="middle" x="403" y="-7" font-family="Helvetica,sans-Serif" font-size="10.00">usbmass_cmd</text>
</a>
</g>
</g>
<!-- Node2 -->
<g id="node2" class="node">
<title>Node2</title>
<g id="a_node2"><a xlink:href="struct__mass__dev.html" target="_top" xlink:title=" ">
<polygon fill="white" stroke="#bfbfbf" points="347.5,-85 280.5,-85 280.5,-66 347.5,-66 347.5,-85"/>
<text text-anchor="middle" x="314" y="-73" font-family="Helvetica,sans-Serif" font-size="10.00">_mass_dev</text>
</a>
</g>
</g>
<!-- Node2&#45;&gt;Node1 -->
<g id="edge1" class="edge">
<title>Node2&#45;&gt;Node1</title>
<path fill="none" stroke="#9a32cd" stroke-dasharray="5,2" d="M335.71,-58.89C352.99,-46.46 376.56,-29.51 390.73,-19.32"/>
<polygon fill="#9a32cd" stroke="#9a32cd" points="333.68,-56.04 327.6,-64.72 337.77,-61.72 333.68,-56.04"/>
<text text-anchor="middle" x="372.5" y="-40" font-family="Helvetica,sans-Serif" font-size="10.00"> dev</text>
</g>
<!-- Node3 -->
<g id="node3" class="node">
<title>Node3</title>
<g id="a_node3"><a xlink:href="usbhdfsd_8h.html#struct__cache__set" target="_top" xlink:title=" ">
<polygon fill="white" stroke="#bfbfbf" points="255.5,-19 188.5,-19 188.5,0 255.5,0 255.5,-19"/>
<text text-anchor="middle" x="222" y="-7" font-family="Helvetica,sans-Serif" font-size="10.00">_cache_set</text>
</a>
</g>
</g>
<!-- Node2&#45;&gt;Node3 -->
<g id="edge7" class="edge">
<title>Node2&#45;&gt;Node3</title>
<path fill="none" stroke="#9a32cd" stroke-dasharray="5,2" d="M306,-55.36C302.5,-48.82 297.84,-41.93 292,-37 281.67,-28.28 268.18,-22.27 255.81,-18.21"/>
<polygon fill="#9a32cd" stroke="#9a32cd" points="302.75,-56.66 310.16,-64.23 309.09,-53.69 302.75,-56.66"/>
<text text-anchor="middle" x="310.5" y="-40" font-family="Helvetica,sans-Serif" font-size="10.00"> dev</text>
</g>
<!-- Node3&#45;&gt;Node2 -->
<g id="edge2" class="edge">
<title>Node3&#45;&gt;Node2</title>
<path fill="none" stroke="#9a32cd" stroke-dasharray="5,2" d="M238.37,-27.31C245.56,-34.19 254.33,-41.94 263,-48 272.65,-54.75 284.24,-60.9 293.93,-65.58"/>
<polygon fill="#9a32cd" stroke="#9a32cd" points="240.88,-24.86 231.31,-20.31 235.95,-29.84 240.88,-24.86"/>
<text text-anchor="middle" x="277.5" y="-40" font-family="Helvetica,sans-Serif" font-size="10.00"> cache</text>
</g>
<!-- Node4 -->
<g id="node4" class="node">
<title>Node4</title>
<g id="a_node4"><a xlink:href="structblock__device.html" target="_top" xlink:title=" ">
<polygon fill="white" stroke="#bfbfbf" points="74,-85 0,-85 0,-66 74,-66 74,-85"/>
<text text-anchor="middle" x="37" y="-73" font-family="Helvetica,sans-Serif" font-size="10.00">block_device</text>
</a>
</g>
</g>
<!-- Node4&#45;&gt;Node3 -->
<g id="edge3" class="edge">
<title>Node4&#45;&gt;Node3</title>
<path fill="none" stroke="#9a32cd" stroke-dasharray="5,2" d="M73.32,-61.93C109.53,-49.41 164.22,-30.49 196.2,-19.43"/>
<polygon fill="#9a32cd" stroke="#9a32cd" points="72.46,-58.53 64.15,-65.11 74.75,-65.14 72.46,-58.53"/>
<text text-anchor="middle" x="147.5" y="-40" font-family="Helvetica,sans-Serif" font-size="10.00"> bd</text>
</g>
<!-- Node5 -->
<g id="node5" class="node">
<title>Node5</title>
<g id="a_node5"><a xlink:href="usbhdfsd_8h.html#struct__cache__record" target="_top" xlink:title=" ">
<polygon fill="white" stroke="#bfbfbf" points="262,-85 182,-85 182,-66 262,-66 262,-85"/>
<text text-anchor="middle" x="222" y="-73" font-family="Helvetica,sans-Serif" font-size="10.00">_cache_record</text>
</a>
</g>
</g>
<!-- Node5&#45;&gt;Node3 -->
<g id="edge4" class="edge">
<title>Node5&#45;&gt;Node3</title>
<path fill="none" stroke="#9a32cd" stroke-dasharray="5,2" d="M222,-54.18C222,-42.44 222,-28.27 222,-19.32"/>
<polygon fill="#9a32cd" stroke="#9a32cd" points="218.5,-54.09 222,-64.09 225.5,-54.09 218.5,-54.09"/>
<text text-anchor="middle" x="230" y="-40" font-family="Helvetica,sans-Serif" font-size="10.00"> rec</text>
</g>
<!-- Node6 -->
<g id="node6" class="node">
<title>Node6</title>
<g id="a_node6"><a xlink:href="struct_s_b_p2_device.html" target="_top" xlink:title=" ">
<polygon fill="white" stroke="#bfbfbf" points="164,-85 92,-85 92,-66 164,-66 164,-85"/>
<text text-anchor="middle" x="128" y="-73" font-family="Helvetica,sans-Serif" font-size="10.00">SBP2Device</text>
</a>
</g>
</g>
<!-- Node6&#45;&gt;Node3 -->
<g id="edge5" class="edge">
<title>Node6&#45;&gt;Node3</title>
<path fill="none" stroke="#9a32cd" stroke-dasharray="5,2" d="M150.42,-59.24C168.72,-46.78 193.94,-29.61 209.04,-19.32"/>
<polygon fill="#9a32cd" stroke="#9a32cd" points="148.62,-56.23 142.32,-64.75 152.56,-62.01 148.62,-56.23"/>
<text text-anchor="middle" x="190.5" y="-40" font-family="Helvetica,sans-Serif" font-size="10.00"> dev</text>
</g>
<!-- Node7 -->
<g id="node7" class="node">
<title>Node7</title>
<g id="a_node7"><a xlink:href="structscsi__interface.html" target="_top" xlink:title=" ">
<polygon fill="white" stroke="#bfbfbf" points="259.5,-151 182.5,-151 182.5,-132 259.5,-132 259.5,-151"/>
<text text-anchor="middle" x="221" y="-139" font-family="Helvetica,sans-Serif" font-size="10.00">scsi_interface</text>
</a>
</g>
</g>
<!-- Node7&#45;&gt;Node2 -->
<g id="edge8" class="edge">
<title>Node7&#45;&gt;Node2</title>
<path fill="none" stroke="#9a32cd" stroke-dasharray="5,2" d="M243.18,-125.24C261.28,-112.78 286.24,-95.61 301.18,-85.32"/>
<polygon fill="#9a32cd" stroke="#9a32cd" points="241.43,-122.19 235.18,-130.74 245.4,-127.96 241.43,-122.19"/>
<text text-anchor="middle" x="283.5" y="-106" font-family="Helvetica,sans-Serif" font-size="10.00"> scsi</text>
</g>
<!-- Node7&#45;&gt;Node6 -->
<g id="edge6" class="edge">
<title>Node7&#45;&gt;Node6</title>
<path fill="none" stroke="#9a32cd" stroke-dasharray="5,2" d="M198.82,-125.24C180.72,-112.78 155.76,-95.61 140.82,-85.32"/>
<polygon fill="#9a32cd" stroke="#9a32cd" points="196.6,-127.96 206.82,-130.74 200.57,-122.19 196.6,-127.96"/>
<text text-anchor="middle" x="191.5" y="-106" font-family="Helvetica,sans-Serif" font-size="10.00"> scsi</text>
</g>
<!-- Node8 -->
<g id="node8" class="node">
<title>Node8</title>
<g id="a_node8"><a xlink:href="struct__cbw__packet.html" target="_top" xlink:title=" ">
<polygon fill="white" stroke="#bfbfbf" points="532,-85 458,-85 458,-66 532,-66 532,-85"/>
<text text-anchor="middle" x="495" y="-73" font-family="Helvetica,sans-Serif" font-size="10.00">_cbw_packet</text>
</a>
</g>
</g>
<!-- Node8&#45;&gt;Node1 -->
<g id="edge9" class="edge">
<title>Node8&#45;&gt;Node1</title>
<path fill="none" stroke="#9a32cd" stroke-dasharray="5,2" d="M472.81,-59.06C454.92,-46.62 430.4,-29.56 415.68,-19.32"/>
<polygon fill="#9a32cd" stroke="#9a32cd" points="470.76,-61.9 480.97,-64.74 474.75,-56.15 470.76,-61.9"/>
<text text-anchor="middle" x="464.5" y="-40" font-family="Helvetica,sans-Serif" font-size="10.00"> cbw</text>
</g>
<!-- Node9 -->
<g id="node9" class="node">
<title>Node9</title>
<g id="a_node9"><a xlink:href="struct__csw__packet.html" target="_top" xlink:title=" ">
<polygon fill="white" stroke="#bfbfbf" points="440,-85 366,-85 366,-66 440,-66 440,-85"/>
<text text-anchor="middle" x="403" y="-73" font-family="Helvetica,sans-Serif" font-size="10.00">_csw_packet</text>
</a>
</g>
</g>
<!-- Node9&#45;&gt;Node1 -->
<g id="edge10" class="edge">
<title>Node9&#45;&gt;Node1</title>
<path fill="none" stroke="#9a32cd" stroke-dasharray="5,2" d="M403,-54.18C403,-42.44 403,-28.27 403,-19.32"/>
<polygon fill="#9a32cd" stroke="#9a32cd" points="399.5,-54.09 403,-64.09 406.5,-54.09 399.5,-54.09"/>
<text text-anchor="middle" x="413.5" y="-40" font-family="Helvetica,sans-Serif" font-size="10.00"> csw</text>
</g>
</g>
</svg>
