<?xml version="1.0" encoding="UTF-8" standalone="no"?>
<!DOCTYPE svg PUBLIC "-//W3C//DTD SVG 1.1//EN"
 "http://www.w3.org/Graphics/SVG/1.1/DTD/svg11.dtd">
<!-- Generated by graphviz version 7.0.5 (20221223.1930)
 -->
<!-- Title: pfs_file_slot_t Pages: 1 -->
<svg width="394pt" height="316pt"
 viewBox="0.00 0.00 394.00 316.00" xmlns="http://www.w3.org/2000/svg" xmlns:xlink="http://www.w3.org/1999/xlink">
<g id="graph0" class="graph" transform="scale(1 1) rotate(0) translate(4 312)">
<title>pfs_file_slot_t</title>
<!-- Node1 -->
<g id="node1" class="node">
<title>Node1</title>
<g id="a_node1"><a xlink:title=" ">
<polygon fill="#999999" stroke="#666666" points="212.5,-19 135.5,-19 135.5,0 212.5,0 212.5,-19"/>
<text text-anchor="middle" x="174" y="-7" font-family="Helvetica,sans-Serif" font-size="10.00">pfs_file_slot_t</text>
</a>
</g>
</g>
<!-- Node2 -->
<g id="node2" class="node">
<title>Node2</title>
<g id="a_node2"><a xlink:href="ioman_x_8h.html#struct__ioman_x__iop__file" target="_top" xlink:title=" ">
<polygon fill="white" stroke="#666666" points="109,-85 19,-85 19,-66 109,-66 109,-85"/>
<text text-anchor="middle" x="64" y="-73" font-family="Helvetica,sans-Serif" font-size="10.00">_iomanX_iop_file</text>
</a>
</g>
</g>
<!-- Node2&#45;&gt;Node1 -->
<g id="edge1" class="edge">
<title>Node2&#45;&gt;Node1</title>
<path fill="none" stroke="#9a32cd" stroke-dasharray="5,2" d="M85.51,-59.11C95.75,-52.04 108.29,-43.75 120,-37 131.04,-30.63 143.82,-24.32 154.17,-19.45"/>
<polygon fill="#9a32cd" stroke="#9a32cd" points="83.57,-56.2 77.39,-64.8 87.59,-61.93 83.57,-56.2"/>
<text text-anchor="middle" x="125.5" y="-40" font-family="Helvetica,sans-Serif" font-size="10.00"> fd</text>
</g>
<!-- Node3 -->
<g id="node3" class="node">
<title>Node3</title>
<g id="a_node3"><a xlink:href="ioman_x_8h.html#struct__ioman_x__iop__device" target="_top" xlink:title=" ">
<polygon fill="white" stroke="#bfbfbf" points="117.5,-152.5 10.5,-152.5 10.5,-133.5 117.5,-133.5 117.5,-152.5"/>
<text text-anchor="middle" x="64" y="-140.5" font-family="Helvetica,sans-Serif" font-size="10.00">_iomanX_iop_device</text>
</a>
</g>
</g>
<!-- Node3&#45;&gt;Node2 -->
<g id="edge2" class="edge">
<title>Node3&#45;&gt;Node2</title>
<path fill="none" stroke="#9a32cd" stroke-dasharray="5,2" d="M64,-121.74C64,-109.48 64,-94.47 64,-85.19"/>
<polygon fill="#9a32cd" stroke="#9a32cd" points="60.5,-121.65 64,-131.65 67.5,-121.65 60.5,-121.65"/>
<text text-anchor="middle" x="79.5" y="-106" font-family="Helvetica,sans-Serif" font-size="10.00"> device</text>
</g>
<!-- Node4 -->
<g id="node4" class="node">
<title>Node4</title>
<g id="a_node4"><a xlink:href="struct__ioman_x__iop__device__ops.html" target="_top" xlink:title=" ">
<polygon fill="white" stroke="#bfbfbf" points="128,-220 0,-220 0,-201 128,-201 128,-220"/>
<text text-anchor="middle" x="64" y="-208" font-family="Helvetica,sans-Serif" font-size="10.00">_iomanX_iop_device_ops</text>
</a>
</g>
</g>
<!-- Node4&#45;&gt;Node3 -->
<g id="edge3" class="edge">
<title>Node4&#45;&gt;Node3</title>
<path fill="none" stroke="#9a32cd" stroke-dasharray="5,2" d="M64,-189.24C64,-176.98 64,-161.97 64,-152.69"/>
<polygon fill="#9a32cd" stroke="#9a32cd" points="60.5,-189.15 64,-199.15 67.5,-189.15 60.5,-189.15"/>
<text text-anchor="middle" x="73.5" y="-175" font-family="Helvetica,sans-Serif" font-size="10.00"> ops</text>
</g>
<!-- Node5 -->
<g id="node5" class="node">
<title>Node5</title>
<g id="a_node5"><a xlink:href="structpfs__cache__s.html" target="_top" xlink:title=" ">
<polygon fill="white" stroke="#bfbfbf" points="241,-152.5 169,-152.5 169,-133.5 241,-133.5 241,-152.5"/>
<text text-anchor="middle" x="205" y="-140.5" font-family="Helvetica,sans-Serif" font-size="10.00">pfs_cache_s</text>
</a>
</g>
</g>
<!-- Node5&#45;&gt;Node1 -->
<g id="edge4" class="edge">
<title>Node5&#45;&gt;Node1</title>
<path fill="none" stroke="#9a32cd" stroke-dasharray="5,2" d="M184.42,-125.75C173.1,-115.44 160.13,-101.05 154,-85 145.21,-61.98 159.39,-33.57 168.06,-19.4"/>
<polygon fill="#9a32cd" stroke="#9a32cd" points="181.97,-128.25 191.84,-132.1 186.52,-122.94 181.97,-128.25"/>
<text text-anchor="middle" x="165.5" y="-73" font-family="Helvetica,sans-Serif" font-size="10.00"> clink</text>
</g>
<!-- Node5&#45;&gt;Node5 -->
<g id="edge5" class="edge">
<title>Node5&#45;&gt;Node5</title>
<path fill="none" stroke="#9a32cd" stroke-dasharray="5,2" d="M252.68,-147.97C256.58,-146.89 259,-145.24 259,-143 259,-139.02 251.35,-136.88 241.34,-136.57"/>
<polygon fill="#9a32cd" stroke="#9a32cd" points="252.31,-144.49 242.84,-149.24 253.21,-151.43 252.31,-144.49"/>
<text text-anchor="middle" x="269.5" y="-146" font-family="Helvetica,sans-Serif" font-size="10.00"> next</text>
<text text-anchor="middle" x="269.5" y="-135" font-family="Helvetica,sans-Serif" font-size="10.00">prev</text>
</g>
<!-- Node9 -->
<g id="node9" class="node">
<title>Node9</title>
<g id="a_node9"><a xlink:href="structpfs__blockpos__t.html" target="_top" xlink:title=" ">
<polygon fill="white" stroke="#bfbfbf" points="269.5,-85 186.5,-85 186.5,-66 269.5,-66 269.5,-85"/>
<text text-anchor="middle" x="228" y="-73" font-family="Helvetica,sans-Serif" font-size="10.00">pfs_blockpos_t</text>
</a>
</g>
</g>
<!-- Node5&#45;&gt;Node9 -->
<g id="edge10" class="edge">
<title>Node5&#45;&gt;Node9</title>
<path fill="none" stroke="#9a32cd" stroke-dasharray="5,2" d="M211.84,-122.51C216.2,-110.11 221.62,-94.66 224.95,-85.19"/>
<polygon fill="#9a32cd" stroke="#9a32cd" points="208.61,-121.14 208.6,-131.74 215.22,-123.46 208.61,-121.14"/>
<text text-anchor="middle" x="231" y="-106" font-family="Helvetica,sans-Serif" font-size="10.00"> inode</text>
</g>
<!-- Node6 -->
<g id="node6" class="node">
<title>Node6</title>
<g id="a_node6"><a xlink:href="structpfs__mount__t.html" target="_top" xlink:title=" ">
<polygon fill="white" stroke="#bfbfbf" points="240.5,-220 169.5,-220 169.5,-201 240.5,-201 240.5,-220"/>
<text text-anchor="middle" x="205" y="-208" font-family="Helvetica,sans-Serif" font-size="10.00">pfs_mount_t</text>
</a>
</g>
</g>
<!-- Node6&#45;&gt;Node5 -->
<g id="edge6" class="edge">
<title>Node6&#45;&gt;Node5</title>
<path fill="none" stroke="#9a32cd" stroke-dasharray="5,2" d="M205,-189.24C205,-176.98 205,-161.97 205,-152.69"/>
<polygon fill="#9a32cd" stroke="#9a32cd" points="201.5,-189.15 205,-199.15 208.5,-189.15 201.5,-189.15"/>
<text text-anchor="middle" x="226.5" y="-175" font-family="Helvetica,sans-Serif" font-size="10.00"> pfsMount</text>
</g>
<!-- Node7 -->
<g id="node7" class="node">
<title>Node7</title>
<g id="a_node7"><a xlink:href="structpfs__block__device__t.html" target="_top" xlink:title=" ">
<polygon fill="white" stroke="#bfbfbf" points="200.5,-308 99.5,-308 99.5,-289 200.5,-289 200.5,-308"/>
<text text-anchor="middle" x="150" y="-296" font-family="Helvetica,sans-Serif" font-size="10.00">pfs_block_device_t</text>
</a>
</g>
</g>
<!-- Node7&#45;&gt;Node6 -->
<g id="edge7" class="edge">
<title>Node7&#45;&gt;Node6</title>
<path fill="none" stroke="#9a32cd" stroke-dasharray="5,2" d="M161.72,-279.17C173.27,-261.11 190.43,-234.29 199.27,-220.46"/>
<polygon fill="#9a32cd" stroke="#9a32cd" points="158.93,-277.04 156.49,-287.35 164.83,-280.81 158.93,-277.04"/>
<text text-anchor="middle" x="209.5" y="-252" font-family="Helvetica,sans-Serif" font-size="10.00"> blockDev</text>
</g>
<!-- Node8 -->
<g id="node8" class="node">
<title>Node8</title>
<g id="a_node8"><a xlink:href="structpfs__blockinfo__t.html" target="_top" xlink:title=" ">
<polygon fill="white" stroke="#bfbfbf" points="301.5,-308 218.5,-308 218.5,-289 301.5,-289 301.5,-308"/>
<text text-anchor="middle" x="260" y="-296" font-family="Helvetica,sans-Serif" font-size="10.00">pfs_blockinfo_t</text>
</a>
</g>
</g>
<!-- Node8&#45;&gt;Node6 -->
<g id="edge8" class="edge">
<title>Node8&#45;&gt;Node6</title>
<path fill="none" stroke="#9a32cd" stroke-dasharray="5,2" d="M254.3,-278.01C250.15,-265.81 243.72,-250.15 235,-238 230.22,-231.34 223.47,-225.19 217.59,-220.49"/>
<polygon fill="#9a32cd" stroke="#9a32cd" points="250.9,-278.87 257.24,-287.36 257.58,-276.77 250.9,-278.87"/>
<text text-anchor="middle" x="275.5" y="-263" font-family="Helvetica,sans-Serif" font-size="10.00"> current_dir</text>
<text text-anchor="middle" x="275.5" y="-252" font-family="Helvetica,sans-Serif" font-size="10.00">log</text>
<text text-anchor="middle" x="275.5" y="-241" font-family="Helvetica,sans-Serif" font-size="10.00">root_dir</text>
</g>
<!-- Node9&#45;&gt;Node1 -->
<g id="edge9" class="edge">
<title>Node9&#45;&gt;Node1</title>
<path fill="none" stroke="#9a32cd" stroke-dasharray="5,2" d="M213.33,-57.12C203.02,-44.89 189.64,-29.04 181.44,-19.32"/>
<polygon fill="#9a32cd" stroke="#9a32cd" points="210.39,-59.06 219.52,-64.44 215.74,-54.54 210.39,-59.06"/>
<text text-anchor="middle" x="228.5" y="-40" font-family="Helvetica,sans-Serif" font-size="10.00"> block_pos</text>
</g>
<!-- Node10 -->
<g id="node10" class="node">
<title>Node10</title>
<g id="a_node10"><a xlink:href="structpfs__unaligned__io__t.html" target="_top" xlink:title=" ">
<polygon fill="white" stroke="#bfbfbf" points="386,-85 288,-85 288,-66 386,-66 386,-85"/>
<text text-anchor="middle" x="337" y="-73" font-family="Helvetica,sans-Serif" font-size="10.00">pfs_unaligned_io_t</text>
</a>
</g>
</g>
<!-- Node10&#45;&gt;Node1 -->
<g id="edge11" class="edge">
<title>Node10&#45;&gt;Node1</title>
<path fill="none" stroke="#9a32cd" stroke-dasharray="5,2" d="M309.29,-60.66C293.81,-53.18 274.06,-44.07 256,-37 239.28,-30.46 220.22,-24.22 204.68,-19.45"/>
<polygon fill="#9a32cd" stroke="#9a32cd" points="307.37,-63.62 317.89,-64.86 310.45,-57.33 307.37,-63.62"/>
<text text-anchor="middle" x="302" y="-40" font-family="Helvetica,sans-Serif" font-size="10.00"> unaligned</text>
</g>
</g>
</svg>
