<?xml version="1.0" encoding="UTF-8" standalone="no"?>
<!DOCTYPE svg PUBLIC "-//W3C//DTD SVG 1.1//EN"
 "http://www.w3.org/Graphics/SVG/1.1/DTD/svg11.dtd">
<!-- Generated by graphviz version 7.0.5 (20221223.1930)
 -->
<!-- Title: loadfile_file_load_handler_struct_ Pages: 1 -->
<svg width="350pt" height="104pt"
 viewBox="0.00 0.00 350.00 104.00" xmlns="http://www.w3.org/2000/svg" xmlns:xlink="http://www.w3.org/1999/xlink">
<g id="graph0" class="graph" transform="scale(1 1) rotate(0) translate(4 100)">
<title>loadfile_file_load_handler_struct_</title>
<!-- Node1 -->
<g id="node1" class="node">
<title>Node1</title>
<g id="a_node1"><a xlink:title=" ">
<polygon fill="#999999" stroke="#666666" points="215.5,-30 126.5,-30 126.5,0 215.5,0 215.5,-30"/>
<text text-anchor="start" x="134.5" y="-18" font-family="Helvetica,sans-Serif" font-size="10.00">loadfile_file_load</text>
<text text-anchor="middle" x="171" y="-7" font-family="Helvetica,sans-Serif" font-size="10.00">_handler_struct_</text>
</a>
</g>
</g>
<!-- Node2 -->
<g id="node2" class="node">
<title>Node2</title>
<g id="a_node2"><a xlink:href="modload_8h.html#structloadfile__elf32__ehdr__" target="_top" xlink:title=" ">
<polygon fill="white" stroke="#bfbfbf" points="102,-96 0,-96 0,-77 102,-77 102,-96"/>
<text text-anchor="middle" x="51" y="-84" font-family="Helvetica,sans-Serif" font-size="10.00">loadfile_elf32_ehdr_</text>
</a>
</g>
</g>
<!-- Node2&#45;&gt;Node1 -->
<g id="edge1" class="edge">
<title>Node2&#45;&gt;Node1</title>
<path fill="none" stroke="#9a32cd" stroke-dasharray="5,2" d="M76.13,-70.94C96.77,-58.99 125.85,-42.15 146.35,-30.27"/>
<polygon fill="#9a32cd" stroke="#9a32cd" points="74.41,-67.9 67.51,-75.94 77.92,-73.96 74.41,-67.9"/>
<text text-anchor="middle" x="139" y="-51" font-family="Helvetica,sans-Serif" font-size="10.00"> elf_header</text>
</g>
<!-- Node3 -->
<g id="node3" class="node">
<title>Node3</title>
<g id="a_node3"><a xlink:href="modload_8h.html#structloadfile__elf32__phdr__" target="_top" xlink:title=" ">
<polygon fill="white" stroke="#bfbfbf" points="222,-96 120,-96 120,-77 222,-77 222,-96"/>
<text text-anchor="middle" x="171" y="-84" font-family="Helvetica,sans-Serif" font-size="10.00">loadfile_elf32_phdr_</text>
</a>
</g>
</g>
<!-- Node3&#45;&gt;Node1 -->
<g id="edge2" class="edge">
<title>Node3&#45;&gt;Node1</title>
<path fill="none" stroke="#9a32cd" stroke-dasharray="5,2" d="M171,-65.39C171,-54.15 171,-40.41 171,-30.27"/>
<polygon fill="#9a32cd" stroke="#9a32cd" points="167.5,-65.18 171,-75.18 174.5,-65.18 167.5,-65.18"/>
<text text-anchor="middle" x="207.5" y="-51" font-family="Helvetica,sans-Serif" font-size="10.00"> program_header</text>
</g>
<!-- Node4 -->
<g id="node4" class="node">
<title>Node4</title>
<g id="a_node4"><a xlink:href="modload_8h.html#structloadfile__elf32__shdr__" target="_top" xlink:title=" ">
<polygon fill="white" stroke="#bfbfbf" points="342,-96 240,-96 240,-77 342,-77 342,-96"/>
<text text-anchor="middle" x="291" y="-84" font-family="Helvetica,sans-Serif" font-size="10.00">loadfile_elf32_shdr_</text>
</a>
</g>
</g>
<!-- Node4&#45;&gt;Node1 -->
<g id="edge3" class="edge">
<title>Node4&#45;&gt;Node1</title>
<path fill="none" stroke="#9a32cd" stroke-dasharray="5,2" d="M274.46,-68.83C266.86,-61.78 257.44,-53.86 248,-48 237.05,-41.21 224.41,-35.27 212.58,-30.41"/>
<polygon fill="#9a32cd" stroke="#9a32cd" points="271.73,-71.06 281.36,-75.48 276.59,-66.02 271.73,-71.06"/>
<text text-anchor="middle" x="298" y="-51" font-family="Helvetica,sans-Serif" font-size="10.00"> section_headers</text>
</g>
</g>
</svg>
