<?xml version="1.0" encoding="UTF-8" standalone="no"?>
<!DOCTYPE svg PUBLIC "-//W3C//DTD SVG 1.1//EN"
 "http://www.w3.org/Graphics/SVG/1.1/DTD/svg11.dtd">
<!-- Generated by graphviz version 7.0.5 (20221223.1930)
 -->
<!-- Title: GS_TRIANGLE_FT3_P Pages: 1 -->
<svg width="349pt" height="181pt"
 viewBox="0.00 0.00 348.50 181.00" xmlns="http://www.w3.org/2000/svg" xmlns:xlink="http://www.w3.org/1999/xlink">
<g id="graph0" class="graph" transform="scale(1 1) rotate(0) translate(4 177)">
<title>GS_TRIANGLE_FT3_P</title>
<!-- Node1 -->
<g id="node1" class="node">
<title>Node1</title>
<g id="a_node1"><a xlink:title=" ">
<polygon fill="#999999" stroke="#666666" points="237.5,-19 117.5,-19 117.5,0 237.5,0 237.5,-19"/>
<text text-anchor="middle" x="177.5" y="-7" font-family="Helvetica,sans-Serif" font-size="10.00">GS_TRIANGLE_FT3_P</text>
</a>
</g>
</g>
<!-- Node2 -->
<g id="node2" class="node">
<title>Node2</title>
<g id="a_node2"><a xlink:href="libgs_8h.html#struct_g_s___r___p_r_i_m" target="_top" xlink:title=" ">
<polygon fill="white" stroke="#bfbfbf" points="73,-107 0,-107 0,-88 73,-88 73,-107"/>
<text text-anchor="middle" x="36.5" y="-95" font-family="Helvetica,sans-Serif" font-size="10.00">GS_R_PRIM</text>
</a>
</g>
</g>
<!-- Node2&#45;&gt;Node1 -->
<g id="edge1" class="edge">
<title>Node2&#45;&gt;Node1</title>
<path fill="none" stroke="#9a32cd" stroke-dasharray="5,2" d="M55.97,-80.9C72.34,-68.18 96.68,-50.23 119.5,-37 130.9,-30.39 144.23,-24.2 155.24,-19.47"/>
<polygon fill="#9a32cd" stroke="#9a32cd" points="54.2,-77.83 48.51,-86.77 58.53,-83.33 54.2,-77.83"/>
<text text-anchor="middle" x="130.5" y="-51" font-family="Helvetica,sans-Serif" font-size="10.00"> prim</text>
</g>
<!-- Node3 -->
<g id="node3" class="node">
<title>Node3</title>
<g id="a_node3"><a xlink:href="libgs_8h.html#struct_g_s___p_r_i_m" target="_top" xlink:title=" ">
<polygon fill="white" stroke="#bfbfbf" points="67,-173 6,-173 6,-154 67,-154 67,-173"/>
<text text-anchor="middle" x="36.5" y="-161" font-family="Helvetica,sans-Serif" font-size="10.00">GS_PRIM</text>
</a>
</g>
</g>
<!-- Node3&#45;&gt;Node2 -->
<g id="edge2" class="edge">
<title>Node3&#45;&gt;Node2</title>
<path fill="none" stroke="#9a32cd" stroke-dasharray="5,2" d="M36.5,-142.18C36.5,-130.44 36.5,-116.27 36.5,-107.32"/>
<polygon fill="#9a32cd" stroke="#9a32cd" points="33,-142.09 36.5,-152.09 40,-142.09 33,-142.09"/>
<text text-anchor="middle" x="47.5" y="-128" font-family="Helvetica,sans-Serif" font-size="10.00"> data</text>
</g>
<!-- Node4 -->
<g id="node4" class="node">
<title>Node4</title>
<g id="a_node4"><a xlink:href="libgs_8h.html#struct_g_s___r___r_g_b_a_q" target="_top" xlink:title=" ">
<polygon fill="white" stroke="#bfbfbf" points="174,-107 91,-107 91,-88 174,-88 174,-107"/>
<text text-anchor="middle" x="132.5" y="-95" font-family="Helvetica,sans-Serif" font-size="10.00">GS_R_RGBAQ</text>
</a>
</g>
</g>
<!-- Node4&#45;&gt;Node1 -->
<g id="edge3" class="edge">
<title>Node4&#45;&gt;Node1</title>
<path fill="none" stroke="#9a32cd" stroke-dasharray="5,2" d="M140.71,-77.43C145.99,-65.59 153.21,-50.19 160.5,-37 163.89,-30.88 168.14,-24.25 171.54,-19.16"/>
<polygon fill="#9a32cd" stroke="#9a32cd" points="137.56,-75.9 136.75,-86.47 143.97,-78.71 137.56,-75.9"/>
<text text-anchor="middle" x="176.5" y="-51" font-family="Helvetica,sans-Serif" font-size="10.00"> rgbaq0</text>
</g>
<!-- Node5 -->
<g id="node5" class="node">
<title>Node5</title>
<g id="a_node5"><a xlink:href="libgs_8h.html#struct_g_s___r_g_b_a_q" target="_top" xlink:title=" ">
<polygon fill="white" stroke="#bfbfbf" points="168,-173 97,-173 97,-154 168,-154 168,-173"/>
<text text-anchor="middle" x="132.5" y="-161" font-family="Helvetica,sans-Serif" font-size="10.00">GS_RGBAQ</text>
</a>
</g>
</g>
<!-- Node5&#45;&gt;Node4 -->
<g id="edge4" class="edge">
<title>Node5&#45;&gt;Node4</title>
<path fill="none" stroke="#9a32cd" stroke-dasharray="5,2" d="M132.5,-142.18C132.5,-130.44 132.5,-116.27 132.5,-107.32"/>
<polygon fill="#9a32cd" stroke="#9a32cd" points="129,-142.09 132.5,-152.09 136,-142.09 129,-142.09"/>
<text text-anchor="middle" x="143.5" y="-128" font-family="Helvetica,sans-Serif" font-size="10.00"> data</text>
</g>
<!-- Node6 -->
<g id="node6" class="node">
<title>Node6</title>
<g id="a_node6"><a xlink:href="libgs_8h.html#struct_g_s___r___u_v" target="_top" xlink:title=" ">
<polygon fill="white" stroke="#bfbfbf" points="254.5,-107 192.5,-107 192.5,-88 254.5,-88 254.5,-107"/>
<text text-anchor="middle" x="223.5" y="-95" font-family="Helvetica,sans-Serif" font-size="10.00">GS_R_UV</text>
</a>
</g>
</g>
<!-- Node6&#45;&gt;Node1 -->
<g id="edge5" class="edge">
<title>Node6&#45;&gt;Node1</title>
<path fill="none" stroke="#9a32cd" stroke-dasharray="5,2" d="M213.87,-77.62C207.84,-65.87 199.83,-50.5 192.5,-37 189.27,-31.05 185.52,-24.43 182.58,-19.29"/>
<polygon fill="#9a32cd" stroke="#9a32cd" points="210.61,-78.92 218.28,-86.23 216.84,-75.73 210.61,-78.92"/>
<text text-anchor="middle" x="220" y="-62" font-family="Helvetica,sans-Serif" font-size="10.00"> uv0</text>
<text text-anchor="middle" x="220" y="-51" font-family="Helvetica,sans-Serif" font-size="10.00">uv1</text>
<text text-anchor="middle" x="220" y="-40" font-family="Helvetica,sans-Serif" font-size="10.00">uv2</text>
</g>
<!-- Node7 -->
<g id="node7" class="node">
<title>Node7</title>
<g id="a_node7"><a xlink:href="libgs_8h.html#struct_g_s___u_v" target="_top" xlink:title=" ">
<polygon fill="white" stroke="#bfbfbf" points="248.5,-173 198.5,-173 198.5,-154 248.5,-154 248.5,-173"/>
<text text-anchor="middle" x="223.5" y="-161" font-family="Helvetica,sans-Serif" font-size="10.00">GS_UV</text>
</a>
</g>
</g>
<!-- Node7&#45;&gt;Node6 -->
<g id="edge6" class="edge">
<title>Node7&#45;&gt;Node6</title>
<path fill="none" stroke="#9a32cd" stroke-dasharray="5,2" d="M223.5,-142.18C223.5,-130.44 223.5,-116.27 223.5,-107.32"/>
<polygon fill="#9a32cd" stroke="#9a32cd" points="220,-142.09 223.5,-152.09 227,-142.09 220,-142.09"/>
<text text-anchor="middle" x="234.5" y="-128" font-family="Helvetica,sans-Serif" font-size="10.00"> data</text>
</g>
<!-- Node8 -->
<g id="node8" class="node">
<title>Node8</title>
<g id="a_node8"><a xlink:href="libgs_8h.html#struct_g_s___r___x_y_z" target="_top" xlink:title=" ">
<polygon fill="white" stroke="#bfbfbf" points="340.5,-107 272.5,-107 272.5,-88 340.5,-88 340.5,-107"/>
<text text-anchor="middle" x="306.5" y="-95" font-family="Helvetica,sans-Serif" font-size="10.00">GS_R_XYZ</text>
</a>
</g>
</g>
<!-- Node8&#45;&gt;Node1 -->
<g id="edge7" class="edge">
<title>Node8&#45;&gt;Node1</title>
<path fill="none" stroke="#9a32cd" stroke-dasharray="5,2" d="M288.83,-80.04C274.6,-67.3 253.69,-49.74 233.5,-37 222.77,-30.23 210.03,-24.07 199.42,-19.39"/>
<polygon fill="#9a32cd" stroke="#9a32cd" points="286.28,-82.46 296.03,-86.6 291,-77.28 286.28,-82.46"/>
<text text-anchor="middle" x="287.5" y="-62" font-family="Helvetica,sans-Serif" font-size="10.00"> xyz0</text>
<text text-anchor="middle" x="287.5" y="-51" font-family="Helvetica,sans-Serif" font-size="10.00">xyz1</text>
<text text-anchor="middle" x="287.5" y="-40" font-family="Helvetica,sans-Serif" font-size="10.00">xyz2</text>
</g>
<!-- Node9 -->
<g id="node9" class="node">
<title>Node9</title>
<g id="a_node9"><a xlink:href="libgs_8h.html#struct_g_s___x_y_z" target="_top" xlink:title=" ">
<polygon fill="white" stroke="#bfbfbf" points="334.5,-173 278.5,-173 278.5,-154 334.5,-154 334.5,-173"/>
<text text-anchor="middle" x="306.5" y="-161" font-family="Helvetica,sans-Serif" font-size="10.00">GS_XYZ</text>
</a>
</g>
</g>
<!-- Node9&#45;&gt;Node8 -->
<g id="edge8" class="edge">
<title>Node9&#45;&gt;Node8</title>
<path fill="none" stroke="#9a32cd" stroke-dasharray="5,2" d="M306.5,-142.18C306.5,-130.44 306.5,-116.27 306.5,-107.32"/>
<polygon fill="#9a32cd" stroke="#9a32cd" points="303,-142.09 306.5,-152.09 310,-142.09 303,-142.09"/>
<text text-anchor="middle" x="317.5" y="-128" font-family="Helvetica,sans-Serif" font-size="10.00"> data</text>
</g>
</g>
</svg>
