<?xml version="1.0" encoding="UTF-8" standalone="no"?>
<!DOCTYPE svg PUBLIC "-//W3C//DTD SVG 1.1//EN"
 "http://www.w3.org/Graphics/SVG/1.1/DTD/svg11.dtd">
<!-- Generated by graphviz version 7.0.5 (20221223.1930)
 -->
<!-- Title: OhciRegs Pages: 1 -->
<svg width="208pt" height="272pt"
 viewBox="0.00 0.00 208.00 272.00" xmlns="http://www.w3.org/2000/svg" xmlns:xlink="http://www.w3.org/1999/xlink">
<g id="graph0" class="graph" transform="scale(1 1) rotate(0) translate(4 268)">
<title>OhciRegs</title>
<!-- Node1 -->
<g id="node1" class="node">
<title>Node1</title>
<g id="a_node1"><a xlink:title=" ">
<polygon fill="#999999" stroke="#666666" points="107.5,-19 48.5,-19 48.5,0 107.5,0 107.5,-19"/>
<text text-anchor="middle" x="78" y="-7" font-family="Helvetica,sans-Serif" font-size="10.00">OhciRegs</text>
</a>
</g>
</g>
<!-- Node2 -->
<g id="node2" class="node">
<title>Node2</title>
<g id="a_node2"><a xlink:href="usbdpriv_8h.html#struct_hc_c_a" target="_top" xlink:title=" ">
<polygon fill="white" stroke="#bfbfbf" points="60.5,-103 17.5,-103 17.5,-84 60.5,-84 60.5,-103"/>
<text text-anchor="middle" x="39" y="-91" font-family="Helvetica,sans-Serif" font-size="10.00">HcCA</text>
</a>
</g>
</g>
<!-- Node2&#45;&gt;Node1 -->
<g id="edge1" class="edge">
<title>Node2&#45;&gt;Node1</title>
<path fill="none" stroke="#9a32cd" stroke-dasharray="5,2" d="M45.21,-72.74C48.92,-61.92 54.06,-48.42 60,-37 63.18,-30.88 67.5,-24.47 71.11,-19.49"/>
<polygon fill="#9a32cd" stroke="#9a32cd" points="41.92,-71.54 42.13,-82.14 48.57,-73.72 41.92,-71.54"/>
<text text-anchor="middle" x="81.5" y="-40" font-family="Helvetica,sans-Serif" font-size="10.00"> HcHCCA</text>
</g>
<!-- Node3 -->
<g id="node3" class="node">
<title>Node3</title>
<g id="a_node3"><a xlink:href="usbdpriv_8h.html#struct__hc_ed" target="_top" xlink:title=" ">
<polygon fill="white" stroke="#bfbfbf" points="117,-187 73,-187 73,-168 117,-168 117,-187"/>
<text text-anchor="middle" x="95" y="-175" font-family="Helvetica,sans-Serif" font-size="10.00">_hcEd</text>
</a>
</g>
</g>
<!-- Node3&#45;&gt;Node1 -->
<g id="edge7" class="edge">
<title>Node3&#45;&gt;Node1</title>
<path fill="none" stroke="#9a32cd" stroke-dasharray="5,2" d="M101.59,-156.97C102.17,-154.64 102.66,-152.28 103,-150 110.34,-100.32 121.54,-83.67 103,-37 100.29,-30.18 94.9,-24.1 89.82,-19.49"/>
<polygon fill="#9a32cd" stroke="#9a32cd" points="98.3,-155.78 98.76,-166.36 105,-157.8 98.3,-155.78"/>
<text text-anchor="middle" x="156.5" y="-113" font-family="Helvetica,sans-Serif" font-size="10.00"> HcBulkCurrentEd</text>
<text text-anchor="middle" x="156.5" y="-102" font-family="Helvetica,sans-Serif" font-size="10.00">HcBulkHeadEd</text>
<text text-anchor="middle" x="156.5" y="-91" font-family="Helvetica,sans-Serif" font-size="10.00">HcControlCurrentEd</text>
<text text-anchor="middle" x="156.5" y="-80" font-family="Helvetica,sans-Serif" font-size="10.00">HcControlHeadEd</text>
<text text-anchor="middle" x="156.5" y="-69" font-family="Helvetica,sans-Serif" font-size="10.00">HcPeriodCurrentEd</text>
</g>
<!-- Node3&#45;&gt;Node2 -->
<g id="edge2" class="edge">
<title>Node3&#45;&gt;Node2</title>
<path fill="none" stroke="#9a32cd" stroke-dasharray="5,2" d="M62.19,-167.69C53.53,-163.73 45.16,-158.06 40,-150 30.85,-135.72 33.81,-114.84 36.55,-103.19"/>
<polygon fill="#9a32cd" stroke="#9a32cd" points="60.71,-170.87 71.3,-171.19 63.21,-164.34 60.71,-170.87"/>
<text text-anchor="middle" x="71.5" y="-142" font-family="Helvetica,sans-Serif" font-size="10.00"> InterruptTable</text>
</g>
<!-- Node3&#45;&gt;Node3 -->
<g id="edge5" class="edge">
<title>Node3&#45;&gt;Node3</title>
<path fill="none" stroke="#9a32cd" stroke-dasharray="5,2" d="M128.43,-182.81C132.4,-181.85 135,-180.07 135,-177.5 135,-172.92 126.8,-170.89 117.21,-171.39"/>
<polygon fill="#9a32cd" stroke="#9a32cd" points="128.45,-179.3 118.72,-183.51 128.95,-186.28 128.45,-179.3"/>
<text text-anchor="middle" x="145.5" y="-175" font-family="Helvetica,sans-Serif" font-size="10.00"> next</text>
</g>
<!-- Node4 -->
<g id="node4" class="node">
<title>Node4</title>
<g id="a_node4"><a xlink:href="usbdpriv_8h.html#struct__hc_td" target="_top" xlink:title=" ">
<polygon fill="white" stroke="#bfbfbf" points="44,-264 0,-264 0,-245 44,-245 44,-264"/>
<text text-anchor="middle" x="22" y="-252" font-family="Helvetica,sans-Serif" font-size="10.00">_hcTd</text>
</a>
</g>
</g>
<!-- Node4&#45;&gt;Node2 -->
<g id="edge6" class="edge">
<title>Node4&#45;&gt;Node2</title>
<path fill="none" stroke="#9a32cd" stroke-dasharray="5,2" d="M17.72,-233.75C14.58,-216.36 11.44,-190.38 15,-168 18.84,-143.87 29.35,-116.9 35.11,-103.33"/>
<polygon fill="#9a32cd" stroke="#9a32cd" points="14.27,-234.35 19.66,-243.47 21.13,-232.98 14.27,-234.35"/>
<text text-anchor="middle" x="39.5" y="-175" font-family="Helvetica,sans-Serif" font-size="10.00"> DoneHead</text>
</g>
<!-- Node4&#45;&gt;Node3 -->
<g id="edge3" class="edge">
<title>Node4&#45;&gt;Node3</title>
<path fill="none" stroke="#9a32cd" stroke-dasharray="5,2" d="M38.55,-236.5C53.4,-221.24 74.61,-199.45 86.35,-187.39"/>
<polygon fill="#9a32cd" stroke="#9a32cd" points="36.18,-233.91 31.72,-243.52 41.2,-238.79 36.18,-233.91"/>
<text text-anchor="middle" x="84" y="-219" font-family="Helvetica,sans-Serif" font-size="10.00"> tdHead</text>
<text text-anchor="middle" x="84" y="-208" font-family="Helvetica,sans-Serif" font-size="10.00">tdTail</text>
</g>
<!-- Node4&#45;&gt;Node4 -->
<g id="edge4" class="edge">
<title>Node4&#45;&gt;Node4</title>
<path fill="none" stroke="#9a32cd" stroke-dasharray="5,2" d="M55.43,-260.7C59.4,-259.57 62,-257.5 62,-254.5 62,-249.16 53.8,-246.78 44.21,-247.37"/>
<polygon fill="#9a32cd" stroke="#9a32cd" points="55.4,-257.19 45.72,-261.51 55.98,-264.16 55.4,-257.19"/>
<text text-anchor="middle" x="72.5" y="-252" font-family="Helvetica,sans-Serif" font-size="10.00"> next</text>
</g>
</g>
</svg>
