<?xml version="1.0" encoding="UTF-8" standalone="no"?>
<!DOCTYPE svg PUBLIC "-//W3C//DTD SVG 1.1//EN"
 "http://www.w3.org/Graphics/SVG/1.1/DTD/svg11.dtd">
<!-- Generated by graphviz version 7.0.5 (20221223.1930)
 -->
<!-- Title: t_SifRpcRendPkt Pages: 1 -->
<svg width="349pt" height="250pt"
 viewBox="0.00 0.00 349.00 250.00" xmlns="http://www.w3.org/2000/svg" xmlns:xlink="http://www.w3.org/1999/xlink">
<g id="graph0" class="graph" transform="scale(1 1) rotate(0) translate(4 246)">
<title>t_SifRpcRendPkt</title>
<!-- Node1 -->
<g id="node1" class="node">
<title>Node1</title>
<g id="a_node1"><a xlink:title=" ">
<polygon fill="#999999" stroke="#666666" points="171.5,-19 79.5,-19 79.5,0 171.5,0 171.5,-19"/>
<text text-anchor="middle" x="125.5" y="-7" font-family="Helvetica,sans-Serif" font-size="10.00">t_SifRpcRendPkt</text>
</a>
</g>
</g>
<!-- Node2 -->
<g id="node2" class="node">
<title>Node2</title>
<g id="a_node2"><a xlink:href="iop_2kernel_2include_2sifcmd_8h.html#structt___sif_cmd_header" target="_top" xlink:title=" ">
<polygon fill="white" stroke="#666666" points="89,-108.5 0,-108.5 0,-89.5 89,-89.5 89,-108.5"/>
<text text-anchor="middle" x="44.5" y="-96.5" font-family="Helvetica,sans-Serif" font-size="10.00">t_SifCmdHeader</text>
</a>
</g>
</g>
<!-- Node2&#45;&gt;Node1 -->
<g id="edge1" class="edge">
<title>Node2&#45;&gt;Node1</title>
<path fill="none" stroke="#9a32cd" stroke-dasharray="5,2" d="M52.39,-78.61C58.38,-65.67 67.61,-48.91 79.5,-37 86.79,-29.69 96.51,-23.71 105.13,-19.29"/>
<polygon fill="#9a32cd" stroke="#9a32cd" points="49.18,-77.22 48.42,-87.79 55.6,-80 49.18,-77.22"/>
<text text-anchor="middle" x="95.5" y="-51" font-family="Helvetica,sans-Serif" font-size="10.00"> sifcmd</text>
</g>
<!-- Node3 -->
<g id="node3" class="node">
<title>Node3</title>
<g id="a_node3"><a xlink:href="iop_2kernel_2include_2sifcmd_8h.html#structt___sif_rpc_client_data" target="_top" xlink:title=" ">
<polygon fill="white" stroke="#bfbfbf" points="222,-176 123,-176 123,-157 222,-157 222,-176"/>
<text text-anchor="middle" x="172.5" y="-164" font-family="Helvetica,sans-Serif" font-size="10.00">t_SifRpcClientData</text>
</a>
</g>
</g>
<!-- Node3&#45;&gt;Node1 -->
<g id="edge2" class="edge">
<title>Node3&#45;&gt;Node1</title>
<path fill="none" stroke="#9a32cd" stroke-dasharray="5,2" d="M156.87,-147.76C148.73,-137.46 139.47,-123.82 134.5,-110 123.05,-78.17 123.82,-37.1 124.84,-19.33"/>
<polygon fill="#9a32cd" stroke="#9a32cd" points="154.09,-149.9 163.18,-155.34 159.47,-145.42 154.09,-149.9"/>
<text text-anchor="middle" x="147.5" y="-96.5" font-family="Helvetica,sans-Serif" font-size="10.00"> client</text>
</g>
<!-- Node5 -->
<g id="node5" class="node">
<title>Node5</title>
<g id="a_node5"><a xlink:href="iop_2kernel_2include_2sifcmd_8h.html#structt___sif_rpc_server_data" target="_top" xlink:title=" ">
<polygon fill="white" stroke="#bfbfbf" points="273,-108.5 170,-108.5 170,-89.5 273,-89.5 273,-108.5"/>
<text text-anchor="middle" x="221.5" y="-96.5" font-family="Helvetica,sans-Serif" font-size="10.00">t_SifRpcServerData</text>
</a>
</g>
</g>
<!-- Node3&#45;&gt;Node5 -->
<g id="edge5" class="edge">
<title>Node3&#45;&gt;Node5</title>
<path fill="none" stroke="#9a32cd" stroke-dasharray="5,2" d="M166.66,-145.99C165.91,-139.87 166.32,-133.33 169.5,-128 174.65,-119.37 183.48,-113.25 192.41,-108.97"/>
<polygon fill="#9a32cd" stroke="#9a32cd" points="163.15,-146.34 168.76,-155.33 169.98,-144.81 163.15,-146.34"/>
<text text-anchor="middle" x="182.5" y="-131" font-family="Helvetica,sans-Serif" font-size="10.00"> client</text>
</g>
<!-- Node4 -->
<g id="node4" class="node">
<title>Node4</title>
<g id="a_node4"><a xlink:href="iop_2kernel_2include_2sifcmd_8h.html#structt___sif_rpc_header" target="_top" xlink:title=" ">
<polygon fill="white" stroke="#bfbfbf" points="215.5,-242 129.5,-242 129.5,-223 215.5,-223 215.5,-242"/>
<text text-anchor="middle" x="172.5" y="-230" font-family="Helvetica,sans-Serif" font-size="10.00">t_SifRpcHeader</text>
</a>
</g>
</g>
<!-- Node4&#45;&gt;Node3 -->
<g id="edge3" class="edge">
<title>Node4&#45;&gt;Node3</title>
<path fill="none" stroke="#9a32cd" stroke-dasharray="5,2" d="M172.5,-211.18C172.5,-199.44 172.5,-185.27 172.5,-176.32"/>
<polygon fill="#9a32cd" stroke="#9a32cd" points="169,-211.09 172.5,-221.09 176,-211.09 169,-211.09"/>
<text text-anchor="middle" x="180.5" y="-197" font-family="Helvetica,sans-Serif" font-size="10.00"> hdr</text>
</g>
<!-- Node5&#45;&gt;Node1 -->
<g id="edge10" class="edge">
<title>Node5&#45;&gt;Node1</title>
<path fill="none" stroke="#9a32cd" stroke-dasharray="5,2" d="M194.23,-83.41C187.81,-79.44 181.18,-74.88 175.5,-70 157.28,-54.36 140.22,-31.7 131.52,-19.35"/>
<polygon fill="#9a32cd" stroke="#9a32cd" points="192.29,-86.33 202.69,-88.36 195.83,-80.29 192.29,-86.33"/>
<text text-anchor="middle" x="190.5" y="-51" font-family="Helvetica,sans-Serif" font-size="10.00"> server</text>
</g>
<!-- Node5&#45;&gt;Node3 -->
<g id="edge4" class="edge">
<title>Node5&#45;&gt;Node3</title>
<path fill="none" stroke="#9a32cd" stroke-dasharray="5,2" d="M212.21,-118.94C208.62,-125.54 204.23,-132.83 199.5,-139 194.62,-145.36 188.26,-151.68 182.94,-156.55"/>
<polygon fill="#9a32cd" stroke="#9a32cd" points="215.27,-120.64 216.74,-110.14 209.05,-117.43 215.27,-120.64"/>
<text text-anchor="middle" x="221.5" y="-131" font-family="Helvetica,sans-Serif" font-size="10.00"> server</text>
</g>
<!-- Node5&#45;&gt;Node5 -->
<g id="edge6" class="edge">
<title>Node5&#45;&gt;Node5</title>
<path fill="none" stroke="#9a32cd" stroke-dasharray="5,2" d="M284.47,-103.59C288.54,-102.52 291,-100.99 291,-99 291,-95.56 283.64,-93.5 273.33,-92.8"/>
<polygon fill="#9a32cd" stroke="#9a32cd" points="284.22,-100.09 274.83,-104.98 285.23,-107.01 284.22,-100.09"/>
<text text-anchor="middle" x="300.5" y="-102" font-family="Helvetica,sans-Serif" font-size="10.00"> link</text>
<text text-anchor="middle" x="300.5" y="-91" font-family="Helvetica,sans-Serif" font-size="10.00">next</text>
</g>
<!-- Node6 -->
<g id="node6" class="node">
<title>Node6</title>
<g id="a_node6"><a xlink:href="iop_2kernel_2include_2sifcmd_8h.html#structt___sif_rpc_data_queue" target="_top" xlink:title=" ">
<polygon fill="white" stroke="#bfbfbf" points="302,-19 199,-19 199,0 302,0 302,-19"/>
<text text-anchor="middle" x="250.5" y="-7" font-family="Helvetica,sans-Serif" font-size="10.00">t_SifRpcDataQueue</text>
</a>
</g>
</g>
<!-- Node5&#45;&gt;Node6 -->
<g id="edge8" class="edge">
<title>Node5&#45;&gt;Node6</title>
<path fill="none" stroke="#9a32cd" stroke-dasharray="5,2" d="M213.4,-78.56C209.49,-66.06 206.92,-49.81 213.5,-37 217.33,-29.55 224.33,-23.73 231.22,-19.46"/>
<polygon fill="#9a32cd" stroke="#9a32cd" points="210.04,-79.58 216.78,-87.75 216.61,-77.16 210.04,-79.58"/>
<text text-anchor="middle" x="223.5" y="-62" font-family="Helvetica,sans-Serif" font-size="10.00"> end</text>
<text text-anchor="middle" x="223.5" y="-51" font-family="Helvetica,sans-Serif" font-size="10.00">link</text>
<text text-anchor="middle" x="223.5" y="-40" font-family="Helvetica,sans-Serif" font-size="10.00">start</text>
</g>
<!-- Node6&#45;&gt;Node5 -->
<g id="edge7" class="edge">
<title>Node6&#45;&gt;Node5</title>
<path fill="none" stroke="#9a32cd" stroke-dasharray="5,2" d="M247.7,-30.43C245.67,-42.2 242.41,-57.24 237.5,-70 234.93,-76.69 230.93,-83.69 227.57,-89.02"/>
<polygon fill="#9a32cd" stroke="#9a32cd" points="251.14,-31.13 249.21,-20.71 244.22,-30.05 251.14,-31.13"/>
<text text-anchor="middle" x="258.5" y="-51" font-family="Helvetica,sans-Serif" font-size="10.00"> base</text>
</g>
<!-- Node6&#45;&gt;Node6 -->
<g id="edge9" class="edge">
<title>Node6&#45;&gt;Node6</title>
<path fill="none" stroke="#9a32cd" stroke-dasharray="5,2" d="M313.47,-15.35C317.54,-13.98 320,-12.03 320,-9.5 320,-5.12 312.64,-2.48 302.33,-1.59"/>
<polygon fill="#9a32cd" stroke="#9a32cd" points="313.02,-11.88 303.82,-17.13 314.29,-18.76 313.02,-11.88"/>
<text text-anchor="middle" x="330.5" y="-7" font-family="Helvetica,sans-Serif" font-size="10.00"> next</text>
</g>
</g>
</svg>
