<?xml version="1.0" encoding="UTF-8" standalone="no"?>
<!DOCTYPE svg PUBLIC "-//W3C//DTD SVG 1.1//EN"
 "http://www.w3.org/Graphics/SVG/1.1/DTD/svg11.dtd">
<!-- Generated by graphviz version 7.0.5 (20221223.1930)
 -->
<!-- Title: iop/kernel/include/sysclib.h Pages: 1 -->
<svg width="228pt" height="203pt"
 viewBox="0.00 0.00 228.06 203.00" xmlns="http://www.w3.org/2000/svg" xmlns:xlink="http://www.w3.org/1999/xlink">
<g id="graph0" class="graph" transform="scale(1 1) rotate(0) translate(4 199)">
<title>iop/kernel/include/sysclib.h</title>
<!-- Node1 -->
<g id="node1" class="node">
<title>Node1</title>
<g id="a_node1"><a xlink:title=" ">
<polygon fill="#999999" stroke="#666666" points="136.56,-195 44.56,-195 44.56,-165 136.56,-165 136.56,-195"/>
<text text-anchor="start" x="52.56" y="-183" font-family="Helvetica,sans-Serif" font-size="10.00">iop/kernel/include</text>
<text text-anchor="middle" x="90.56" y="-172" font-family="Helvetica,sans-Serif" font-size="10.00">/sysclib.h</text>
</a>
</g>
</g>
<!-- Node2 -->
<g id="node2" class="node">
<title>Node2</title>
<g id="a_node2"><a xlink:href="iop_2kernel_2include_2types_8h_source.html" target="_top" xlink:title=" ">
<polygon fill="white" stroke="#666666" points="53.06,-74 6.06,-74 6.06,-55 53.06,-55 53.06,-74"/>
<text text-anchor="middle" x="29.56" y="-62" font-family="Helvetica,sans-Serif" font-size="10.00">types.h</text>
</a>
</g>
</g>
<!-- Node1&#45;&gt;Node2 -->
<g id="edge1" class="edge">
<title>Node1&#45;&gt;Node2</title>
<path fill="none" stroke="#63b8ff" d="M46.39,-164.52C29.94,-156.73 12.98,-145.28 3.56,-129 -4.91,-114.37 3.99,-96.46 13.61,-83.39"/>
<polygon fill="#63b8ff" stroke="#63b8ff" points="16.3,-85.63 19.88,-75.66 10.86,-81.23 16.3,-85.63"/>
</g>
<!-- Node5 -->
<g id="node5" class="node">
<title>Node5</title>
<g id="a_node5"><a xlink:href="irx_8h.html" target="_top" xlink:title=" ">
<polygon fill="white" stroke="#666666" points="46.56,-129 12.56,-129 12.56,-110 46.56,-110 46.56,-129"/>
<text text-anchor="middle" x="29.56" y="-117" font-family="Helvetica,sans-Serif" font-size="10.00">irx.h</text>
</a>
</g>
</g>
<!-- Node1&#45;&gt;Node5 -->
<g id="edge4" class="edge">
<title>Node1&#45;&gt;Node5</title>
<path fill="none" stroke="#63b8ff" d="M75.48,-164.54C66.8,-156.22 55.86,-145.72 46.84,-137.07"/>
<polygon fill="#63b8ff" stroke="#63b8ff" points="49.34,-134.62 39.7,-130.22 44.49,-139.67 49.34,-134.62"/>
</g>
<!-- Node6 -->
<g id="node6" class="node">
<title>Node6</title>
<g id="a_node6"><a xlink:title=" ">
<polygon fill="#e0e0e0" stroke="#999999" points="116.06,-129 65.06,-129 65.06,-110 116.06,-110 116.06,-129"/>
<text text-anchor="middle" x="90.56" y="-117" font-family="Helvetica,sans-Serif" font-size="10.00">stdarg.h</text>
</a>
</g>
</g>
<!-- Node1&#45;&gt;Node6 -->
<g id="edge6" class="edge">
<title>Node1&#45;&gt;Node6</title>
<path fill="none" stroke="#63b8ff" d="M90.56,-164.54C90.56,-157.34 90.56,-148.53 90.56,-140.68"/>
<polygon fill="#63b8ff" stroke="#63b8ff" points="94.06,-140.69 90.56,-130.69 87.06,-140.69 94.06,-140.69"/>
</g>
<!-- Node7 -->
<g id="node7" class="node">
<title>Node7</title>
<g id="a_node7"><a xlink:href="setjmp_8h.html" target="_top" xlink:title=" ">
<polygon fill="white" stroke="#666666" points="161.06,-74 108.06,-74 108.06,-55 161.06,-55 161.06,-74"/>
<text text-anchor="middle" x="134.56" y="-62" font-family="Helvetica,sans-Serif" font-size="10.00">setjmp.h</text>
</a>
</g>
</g>
<!-- Node1&#45;&gt;Node7 -->
<g id="edge7" class="edge">
<title>Node1&#45;&gt;Node7</title>
<path fill="none" stroke="#63b8ff" d="M103.28,-164.76C111,-155.29 120.35,-142.21 125.56,-129 131.01,-115.17 133.23,-98.5 134.1,-85.71"/>
<polygon fill="#63b8ff" stroke="#63b8ff" points="137.58,-86.11 134.52,-75.97 130.59,-85.81 137.58,-86.11"/>
</g>
<!-- Node8 -->
<g id="node8" class="node">
<title>Node8</title>
<g id="a_node8"><a xlink:href="ctype_8h.html" target="_top" xlink:title=" ">
<polygon fill="white" stroke="#666666" points="220.06,-129 173.06,-129 173.06,-110 220.06,-110 220.06,-129"/>
<text text-anchor="middle" x="196.56" y="-117" font-family="Helvetica,sans-Serif" font-size="10.00">ctype.h</text>
</a>
</g>
</g>
<!-- Node1&#45;&gt;Node8 -->
<g id="edge9" class="edge">
<title>Node1&#45;&gt;Node8</title>
<path fill="none" stroke="#63b8ff" d="M116.76,-164.54C133.16,-155.49 154.19,-143.88 170.55,-134.85"/>
<polygon fill="#63b8ff" stroke="#63b8ff" points="172.14,-137.97 179.2,-130.08 168.76,-131.85 172.14,-137.97"/>
</g>
<!-- Node3 -->
<g id="node3" class="node">
<title>Node3</title>
<g id="a_node3"><a xlink:title=" ">
<polygon fill="#e0e0e0" stroke="#999999" points="55.06,-19 4.06,-19 4.06,0 55.06,0 55.06,-19"/>
<text text-anchor="middle" x="29.56" y="-7" font-family="Helvetica,sans-Serif" font-size="10.00">stddef.h</text>
</a>
</g>
</g>
<!-- Node2&#45;&gt;Node3 -->
<g id="edge2" class="edge">
<title>Node2&#45;&gt;Node3</title>
<path fill="none" stroke="#63b8ff" d="M29.56,-54.75C29.56,-48.27 29.56,-39.16 29.56,-30.9"/>
<polygon fill="#63b8ff" stroke="#63b8ff" points="33.06,-30.96 29.56,-20.96 26.06,-30.96 33.06,-30.96"/>
</g>
<!-- Node4 -->
<g id="node4" class="node">
<title>Node4</title>
<g id="a_node4"><a xlink:href="tamtypes_8h.html" target="_top" xlink:title=" ">
<polygon fill="white" stroke="#666666" points="156.56,-19 92.56,-19 92.56,0 156.56,0 156.56,-19"/>
<text text-anchor="middle" x="124.56" y="-7" font-family="Helvetica,sans-Serif" font-size="10.00">tamtypes.h</text>
</a>
</g>
</g>
<!-- Node2&#45;&gt;Node4 -->
<g id="edge3" class="edge">
<title>Node2&#45;&gt;Node4</title>
<path fill="none" stroke="#63b8ff" d="M45.67,-54.51C60.23,-46.39 81.9,-34.3 98.84,-24.85"/>
<polygon fill="#63b8ff" stroke="#63b8ff" points="100.33,-28.02 107.36,-20.1 96.92,-21.91 100.33,-28.02"/>
</g>
<!-- Node5&#45;&gt;Node2 -->
<g id="edge5" class="edge">
<title>Node5&#45;&gt;Node2</title>
<path fill="none" stroke="#63b8ff" d="M29.56,-109.75C29.56,-103.27 29.56,-94.16 29.56,-85.9"/>
<polygon fill="#63b8ff" stroke="#63b8ff" points="33.06,-85.96 29.56,-75.96 26.06,-85.96 33.06,-85.96"/>
</g>
<!-- Node7&#45;&gt;Node4 -->
<g id="edge8" class="edge">
<title>Node7&#45;&gt;Node4</title>
<path fill="none" stroke="#63b8ff" d="M132.91,-54.75C131.67,-48.19 129.93,-38.95 128.35,-30.6"/>
<polygon fill="#63b8ff" stroke="#63b8ff" points="131.82,-30.11 126.53,-20.93 124.94,-31.4 131.82,-30.11"/>
</g>
</g>
</svg>
