<?xml version="1.0" encoding="UTF-8" standalone="no"?>
<!DOCTYPE svg PUBLIC "-//W3C//DTD SVG 1.1//EN"
 "http://www.w3.org/Graphics/SVG/1.1/DTD/svg11.dtd">
<!-- Generated by graphviz version 7.0.5 (20221223.1930)
 -->
<!-- Title: common/include/tcpip.h Pages: 1 -->
<svg width="517pt" height="159pt"
 viewBox="0.00 0.00 516.50 159.00" xmlns="http://www.w3.org/2000/svg" xmlns:xlink="http://www.w3.org/1999/xlink">
<g id="graph0" class="graph" transform="scale(1 1) rotate(0) translate(4 155)">
<title>common/include/tcpip.h</title>
<!-- Node1 -->
<g id="node1" class="node">
<title>Node1</title>
<g id="a_node1"><a xlink:title=" ">
<polygon fill="#999999" stroke="#666666" points="318.5,-151 199.5,-151 199.5,-132 318.5,-132 318.5,-151"/>
<text text-anchor="middle" x="259" y="-139" font-family="Helvetica,sans-Serif" font-size="10.00">common/include/tcpip.h</text>
</a>
</g>
</g>
<!-- Node2 -->
<g id="node2" class="node">
<title>Node2</title>
<g id="a_node2"><a xlink:href="ps2ip__rpc_8h.html" target="_top" xlink:title=" ">
<polygon fill="white" stroke="#666666" points="114,-96 0,-96 0,-66 114,-66 114,-96"/>
<text text-anchor="start" x="8" y="-84" font-family="Helvetica,sans-Serif" font-size="10.00">common/include/ps2ip</text>
<text text-anchor="middle" x="57" y="-73" font-family="Helvetica,sans-Serif" font-size="10.00">_rpc.h</text>
</a>
</g>
</g>
<!-- Node1&#45;&gt;Node2 -->
<g id="edge1" class="edge">
<title>Node1&#45;&gt;Node2</title>
<path fill="none" stroke="#63b8ff" d="M217.53,-128.49C185.44,-119.2 140.89,-106.29 106.86,-96.44"/>
<polygon fill="#63b8ff" stroke="#63b8ff" points="216.29,-131.77 226.87,-131.19 218.24,-125.05 216.29,-131.77"/>
</g>
<!-- Node5 -->
<g id="node5" class="node">
<title>Node5</title>
<g id="a_node5"><a xlink:href="ee_2network_2tcpip_2include_2ps2ip_8h.html" target="_top" xlink:title=" ">
<polygon fill="white" stroke="#666666" points="254,-96 132,-96 132,-66 254,-66 254,-96"/>
<text text-anchor="start" x="140" y="-84" font-family="Helvetica,sans-Serif" font-size="10.00">ee/network/tcpip/include</text>
<text text-anchor="middle" x="193" y="-73" font-family="Helvetica,sans-Serif" font-size="10.00">/ps2ip.h</text>
</a>
</g>
</g>
<!-- Node1&#45;&gt;Node5 -->
<g id="edge4" class="edge">
<title>Node1&#45;&gt;Node5</title>
<path fill="none" stroke="#63b8ff" d="M240.38,-124C230.6,-115.32 218.71,-104.79 209.29,-96.44"/>
<polygon fill="#63b8ff" stroke="#63b8ff" points="238.04,-126.6 247.84,-130.61 242.68,-121.36 238.04,-126.6"/>
</g>
<!-- Node6 -->
<g id="node6" class="node">
<title>Node6</title>
<g id="a_node6"><a xlink:href="ps2ips_8h.html" target="_top" xlink:title=" ">
<polygon fill="white" stroke="#666666" points="379.5,-96 272.5,-96 272.5,-66 379.5,-66 379.5,-96"/>
<text text-anchor="start" x="280.5" y="-84" font-family="Helvetica,sans-Serif" font-size="10.00">ee/rpc/tcpips/include</text>
<text text-anchor="middle" x="326" y="-73" font-family="Helvetica,sans-Serif" font-size="10.00">/ps2ips.h</text>
</a>
</g>
</g>
<!-- Node1&#45;&gt;Node6 -->
<g id="edge5" class="edge">
<title>Node1&#45;&gt;Node6</title>
<path fill="none" stroke="#63b8ff" d="M277.59,-124.27C287.58,-115.54 299.8,-104.87 309.46,-96.44"/>
<polygon fill="#63b8ff" stroke="#63b8ff" points="275.55,-121.41 270.32,-130.62 280.15,-126.68 275.55,-121.41"/>
</g>
<!-- Node7 -->
<g id="node7" class="node">
<title>Node7</title>
<g id="a_node7"><a xlink:href="iop_2tcpip_2tcpip_2include_2ps2ip_8h.html" target="_top" xlink:title=" ">
<polygon fill="white" stroke="#666666" points="508.5,-96 397.5,-96 397.5,-66 508.5,-66 508.5,-96"/>
<text text-anchor="start" x="405.5" y="-84" font-family="Helvetica,sans-Serif" font-size="10.00">iop/tcpip/tcpip/include</text>
<text text-anchor="middle" x="453" y="-73" font-family="Helvetica,sans-Serif" font-size="10.00">/ps2ip.h</text>
</a>
</g>
</g>
<!-- Node1&#45;&gt;Node7 -->
<g id="edge7" class="edge">
<title>Node1&#45;&gt;Node7</title>
<path fill="none" stroke="#63b8ff" d="M299.23,-128.37C330.02,-119.08 372.58,-106.25 405.11,-96.44"/>
<polygon fill="#63b8ff" stroke="#63b8ff" points="298.48,-124.94 289.91,-131.18 300.5,-131.64 298.48,-124.94"/>
</g>
<!-- Node3 -->
<g id="node3" class="node">
<title>Node3</title>
<g id="a_node3"><a xlink:href="ps2ipc_8c.html" target="_top" xlink:title=" ">
<polygon fill="white" stroke="#666666" points="321,-24.5 193,-24.5 193,-5.5 321,-5.5 321,-24.5"/>
<text text-anchor="middle" x="257" y="-12.5" font-family="Helvetica,sans-Serif" font-size="10.00">ee/rpc/tcpips/src/ps2ipc.c</text>
</a>
</g>
</g>
<!-- Node2&#45;&gt;Node3 -->
<g id="edge2" class="edge">
<title>Node2&#45;&gt;Node3</title>
<path fill="none" stroke="#63b8ff" d="M112.74,-62.16C150.54,-50.07 198.91,-34.59 228.92,-24.99"/>
<polygon fill="#63b8ff" stroke="#63b8ff" points="111.78,-58.79 103.33,-65.18 113.92,-65.46 111.78,-58.79"/>
</g>
<!-- Node4 -->
<g id="node4" class="node">
<title>Node4</title>
<g id="a_node4"><a xlink:href="ps2ips_8c.html" target="_top" xlink:title=" ">
<polygon fill="white" stroke="#666666" points="106.5,-30 7.5,-30 7.5,0 106.5,0 106.5,-30"/>
<text text-anchor="start" x="15.5" y="-18" font-family="Helvetica,sans-Serif" font-size="10.00">iop/tcpip/tcpips/src</text>
<text text-anchor="middle" x="57" y="-7" font-family="Helvetica,sans-Serif" font-size="10.00">/ps2ips.c</text>
</a>
</g>
</g>
<!-- Node2&#45;&gt;Node4 -->
<g id="edge3" class="edge">
<title>Node2&#45;&gt;Node4</title>
<path fill="none" stroke="#63b8ff" d="M57,-54.39C57,-46.13 57,-37.28 57,-30.16"/>
<polygon fill="#63b8ff" stroke="#63b8ff" points="53.5,-54.28 57,-64.28 60.5,-54.28 53.5,-54.28"/>
</g>
<!-- Node6&#45;&gt;Node3 -->
<g id="edge6" class="edge">
<title>Node6&#45;&gt;Node3</title>
<path fill="none" stroke="#63b8ff" d="M302.58,-58.27C290.25,-46.84 275.8,-33.44 266.54,-24.84"/>
<polygon fill="#63b8ff" stroke="#63b8ff" points="299.87,-60.53 309.58,-64.77 304.63,-55.4 299.87,-60.53"/>
</g>
</g>
</svg>
