<?xml version="1.0" encoding="UTF-8" standalone="no"?>
<!DOCTYPE svg PUBLIC "-//W3C//DTD SVG 1.1//EN"
 "http://www.w3.org/Graphics/SVG/1.1/DTD/svg11.dtd">
<!-- Generated by graphviz version 7.0.5 (20221223.1930)
 -->
<!-- Title: iop/kernel/include/timrman.h Pages: 1 -->
<svg width="1025pt" height="170pt"
 viewBox="0.00 0.00 1024.50 170.00" xmlns="http://www.w3.org/2000/svg" xmlns:xlink="http://www.w3.org/1999/xlink">
<g id="graph0" class="graph" transform="scale(1 1) rotate(0) translate(4 166)">
<title>iop/kernel/include/timrman.h</title>
<!-- Node1 -->
<g id="node1" class="node">
<title>Node1</title>
<g id="a_node1"><a xlink:title=" ">
<polygon fill="#999999" stroke="#666666" points="353,-162 261,-162 261,-132 353,-132 353,-162"/>
<text text-anchor="start" x="269" y="-150" font-family="Helvetica,sans-Serif" font-size="10.00">iop/kernel/include</text>
<text text-anchor="middle" x="307" y="-139" font-family="Helvetica,sans-Serif" font-size="10.00">/timrman.h</text>
</a>
</g>
</g>
<!-- Node2 -->
<g id="node2" class="node">
<title>Node2</title>
<g id="a_node2"><a xlink:href="dvripl_8c_source.html" target="_top" xlink:title=" ">
<polygon fill="white" stroke="#666666" points="94,-96 0,-96 0,-66 94,-66 94,-96"/>
<text text-anchor="start" x="8" y="-84" font-family="Helvetica,sans-Serif" font-size="10.00">iop/dvrp/dvripl/src</text>
<text text-anchor="middle" x="47" y="-73" font-family="Helvetica,sans-Serif" font-size="10.00">/dvripl.c</text>
</a>
</g>
</g>
<!-- Node1&#45;&gt;Node2 -->
<g id="edge1" class="edge">
<title>Node1&#45;&gt;Node2</title>
<path fill="none" stroke="#63b8ff" d="M249.7,-132.03C208.8,-122.04 152.5,-108.25 103,-96 100.18,-95.3 97.28,-94.58 94.35,-93.85"/>
<polygon fill="#63b8ff" stroke="#63b8ff" points="248.79,-135.41 259.33,-134.38 250.45,-128.61 248.79,-135.41"/>
</g>
<!-- Node3 -->
<g id="node3" class="node">
<title>Node3</title>
<g id="a_node3"><a xlink:href="iop_2dvrp_2dvripl_2src_2irx__imports_8h_source.html" target="_top" xlink:title=" ">
<polygon fill="white" stroke="#666666" points="206,-96 112,-96 112,-66 206,-66 206,-96"/>
<text text-anchor="start" x="120" y="-84" font-family="Helvetica,sans-Serif" font-size="10.00">iop/dvrp/dvripl/src</text>
<text text-anchor="middle" x="159" y="-73" font-family="Helvetica,sans-Serif" font-size="10.00">/irx_imports.h</text>
</a>
</g>
</g>
<!-- Node1&#45;&gt;Node3 -->
<g id="edge2" class="edge">
<title>Node1&#45;&gt;Node3</title>
<path fill="none" stroke="#63b8ff" d="M263.39,-127.14C240.68,-117.32 213.36,-105.51 192.36,-96.43"/>
<polygon fill="#63b8ff" stroke="#63b8ff" points="261.83,-130.28 272.4,-131.04 264.61,-123.85 261.83,-130.28"/>
</g>
<!-- Node4 -->
<g id="node4" class="node">
<title>Node4</title>
<g id="a_node4"><a xlink:href="xtimrman_8h.html" target="_top" xlink:title=" ">
<polygon fill="white" stroke="#666666" points="316,-96 224,-96 224,-66 316,-66 316,-96"/>
<text text-anchor="start" x="232" y="-84" font-family="Helvetica,sans-Serif" font-size="10.00">iop/kernel/include</text>
<text text-anchor="middle" x="270" y="-73" font-family="Helvetica,sans-Serif" font-size="10.00">/xtimrman.h</text>
</a>
</g>
</g>
<!-- Node1&#45;&gt;Node4 -->
<g id="edge3" class="edge">
<title>Node1&#45;&gt;Node4</title>
<path fill="none" stroke="#63b8ff" d="M293.19,-122.11C288.14,-113.38 282.59,-103.78 278.19,-96.16"/>
<polygon fill="#63b8ff" stroke="#63b8ff" points="290,-123.58 298.03,-130.49 296.06,-120.08 290,-123.58"/>
</g>
<!-- Node5 -->
<g id="node5" class="node">
<title>Node5</title>
<g id="a_node5"><a xlink:href="timrman_8c_source.html" target="_top" xlink:title=" ">
<polygon fill="white" stroke="#666666" points="321,-30 219,-30 219,0 321,0 321,-30"/>
<text text-anchor="start" x="227" y="-18" font-family="Helvetica,sans-Serif" font-size="10.00">iop/system/timrman</text>
<text text-anchor="middle" x="270" y="-7" font-family="Helvetica,sans-Serif" font-size="10.00">/src/timrman.c</text>
</a>
</g>
</g>
<!-- Node1&#45;&gt;Node5 -->
<g id="edge12" class="edge">
<title>Node1&#45;&gt;Node5</title>
<path fill="none" stroke="#63b8ff" d="M320.37,-121.3C327.29,-105.08 332.81,-83.67 325,-66 318.53,-51.37 305.42,-39.18 293.63,-30.5"/>
<polygon fill="#63b8ff" stroke="#63b8ff" points="317.26,-119.69 316.15,-130.23 323.59,-122.69 317.26,-119.69"/>
</g>
<!-- Node6 -->
<g id="node6" class="node">
<title>Node6</title>
<g id="a_node6"><a xlink:href="iop_2memorycard_2mcman_2src_2irx__imports_8h_source.html" target="_top" xlink:title=" ">
<polygon fill="white" stroke="#666666" points="493.5,-96 372.5,-96 372.5,-66 493.5,-66 493.5,-96"/>
<text text-anchor="start" x="380.5" y="-84" font-family="Helvetica,sans-Serif" font-size="10.00">iop/memorycard/mcman</text>
<text text-anchor="middle" x="433" y="-73" font-family="Helvetica,sans-Serif" font-size="10.00">/src/irx_imports.h</text>
</a>
</g>
</g>
<!-- Node1&#45;&gt;Node6 -->
<g id="edge5" class="edge">
<title>Node1&#45;&gt;Node6</title>
<path fill="none" stroke="#63b8ff" d="M345.48,-126.45C364.62,-116.73 387.33,-105.2 404.82,-96.31"/>
<polygon fill="#63b8ff" stroke="#63b8ff" points="343.96,-123.3 336.63,-130.95 347.13,-129.54 343.96,-123.3"/>
</g>
<!-- Node7 -->
<g id="node7" class="node">
<title>Node7</title>
<g id="a_node7"><a xlink:href="mcman-internal_8h_source.html" target="_top" xlink:title=" ">
<polygon fill="white" stroke="#666666" points="685.5,-96 564.5,-96 564.5,-66 685.5,-66 685.5,-96"/>
<text text-anchor="start" x="572.5" y="-84" font-family="Helvetica,sans-Serif" font-size="10.00">iop/memorycard/mcman</text>
<text text-anchor="middle" x="625" y="-73" font-family="Helvetica,sans-Serif" font-size="10.00">/src/mcman&#45;internal.h</text>
</a>
</g>
</g>
<!-- Node1&#45;&gt;Node7 -->
<g id="edge6" class="edge">
<title>Node1&#45;&gt;Node7</title>
<path fill="none" stroke="#63b8ff" d="M364.47,-134.43C420.92,-123.07 506.73,-105.8 564.28,-94.22"/>
<polygon fill="#63b8ff" stroke="#63b8ff" points="363.84,-130.99 354.72,-136.4 365.22,-137.85 363.84,-130.99"/>
</g>
<!-- Node4&#45;&gt;Node5 -->
<g id="edge4" class="edge">
<title>Node4&#45;&gt;Node5</title>
<path fill="none" stroke="#63b8ff" d="M270,-54.39C270,-46.13 270,-37.28 270,-30.16"/>
<polygon fill="#63b8ff" stroke="#63b8ff" points="266.5,-54.28 270,-64.28 273.5,-54.28 266.5,-54.28"/>
</g>
<!-- Node8 -->
<g id="node8" class="node">
<title>Node8</title>
<g id="a_node8"><a xlink:href="iop_2memorycard_2mcman_2src_2main_8c_source.html" target="_top" xlink:title=" ">
<polygon fill="white" stroke="#666666" points="460.5,-30 339.5,-30 339.5,0 460.5,0 460.5,-30"/>
<text text-anchor="start" x="347.5" y="-18" font-family="Helvetica,sans-Serif" font-size="10.00">iop/memorycard/mcman</text>
<text text-anchor="middle" x="400" y="-7" font-family="Helvetica,sans-Serif" font-size="10.00">/src/main.c</text>
</a>
</g>
</g>
<!-- Node7&#45;&gt;Node8 -->
<g id="edge7" class="edge">
<title>Node7&#45;&gt;Node8</title>
<path fill="none" stroke="#63b8ff" d="M563.52,-62.51C528.06,-52.43 484.03,-39.9 450.59,-30.39"/>
<polygon fill="#63b8ff" stroke="#63b8ff" points="562.19,-65.77 572.77,-65.14 564.11,-59.04 562.19,-65.77"/>
</g>
<!-- Node9 -->
<g id="node9" class="node">
<title>Node9</title>
<g id="a_node9"><a xlink:href="mcdev_8c_source.html" target="_top" xlink:title=" ">
<polygon fill="white" stroke="#666666" points="599.5,-30 478.5,-30 478.5,0 599.5,0 599.5,-30"/>
<text text-anchor="start" x="486.5" y="-18" font-family="Helvetica,sans-Serif" font-size="10.00">iop/memorycard/mcman</text>
<text text-anchor="middle" x="539" y="-7" font-family="Helvetica,sans-Serif" font-size="10.00">/src/mcdev.c</text>
</a>
</g>
</g>
<!-- Node7&#45;&gt;Node9 -->
<g id="edge8" class="edge">
<title>Node7&#45;&gt;Node9</title>
<path fill="none" stroke="#63b8ff" d="M596.75,-58.97C584.16,-49.61 569.65,-38.81 558.33,-30.39"/>
<polygon fill="#63b8ff" stroke="#63b8ff" points="594.59,-61.73 604.7,-64.89 598.77,-56.11 594.59,-61.73"/>
</g>
<!-- Node10 -->
<g id="node10" class="node">
<title>Node10</title>
<g id="a_node10"><a xlink:href="mcsio2_8c_source.html" target="_top" xlink:title=" ">
<polygon fill="white" stroke="#666666" points="738.5,-30 617.5,-30 617.5,0 738.5,0 738.5,-30"/>
<text text-anchor="start" x="625.5" y="-18" font-family="Helvetica,sans-Serif" font-size="10.00">iop/memorycard/mcman</text>
<text text-anchor="middle" x="678" y="-7" font-family="Helvetica,sans-Serif" font-size="10.00">/src/mcsio2.c</text>
</a>
</g>
</g>
<!-- Node7&#45;&gt;Node10 -->
<g id="edge9" class="edge">
<title>Node7&#45;&gt;Node10</title>
<path fill="none" stroke="#63b8ff" d="M644.08,-56.96C651.5,-48 659.76,-38.03 666.27,-30.16"/>
<polygon fill="#63b8ff" stroke="#63b8ff" points="641.41,-54.7 637.73,-64.63 646.8,-59.16 641.41,-54.7"/>
</g>
<!-- Node11 -->
<g id="node11" class="node">
<title>Node11</title>
<g id="a_node11"><a xlink:href="ps1mc__fio_8c_source.html" target="_top" xlink:title=" ">
<polygon fill="white" stroke="#666666" points="877.5,-30 756.5,-30 756.5,0 877.5,0 877.5,-30"/>
<text text-anchor="start" x="764.5" y="-18" font-family="Helvetica,sans-Serif" font-size="10.00">iop/memorycard/mcman</text>
<text text-anchor="middle" x="817" y="-7" font-family="Helvetica,sans-Serif" font-size="10.00">/src/ps1mc_fio.c</text>
</a>
</g>
</g>
<!-- Node7&#45;&gt;Node11 -->
<g id="edge10" class="edge">
<title>Node7&#45;&gt;Node11</title>
<path fill="none" stroke="#63b8ff" d="M678.8,-62.07C708.78,-52.07 745.62,-39.79 773.72,-30.43"/>
<polygon fill="#63b8ff" stroke="#63b8ff" points="677.9,-58.68 669.52,-65.16 680.12,-65.32 677.9,-58.68"/>
</g>
<!-- Node12 -->
<g id="node12" class="node">
<title>Node12</title>
<g id="a_node12"><a xlink:href="ps2mc__fio_8c_source.html" target="_top" xlink:title=" ">
<polygon fill="white" stroke="#666666" points="1016.5,-30 895.5,-30 895.5,0 1016.5,0 1016.5,-30"/>
<text text-anchor="start" x="903.5" y="-18" font-family="Helvetica,sans-Serif" font-size="10.00">iop/memorycard/mcman</text>
<text text-anchor="middle" x="956" y="-7" font-family="Helvetica,sans-Serif" font-size="10.00">/src/ps2mc_fio.c</text>
</a>
</g>
</g>
<!-- Node7&#45;&gt;Node12 -->
<g id="edge11" class="edge">
<title>Node7&#45;&gt;Node12</title>
<path fill="none" stroke="#63b8ff" d="M697.17,-66.46C749.81,-56.53 822.87,-42.62 887,-30 889.64,-29.48 892.33,-28.95 895.05,-28.41"/>
<polygon fill="#63b8ff" stroke="#63b8ff" points="696.59,-63.01 687.41,-68.3 697.88,-69.89 696.59,-63.01"/>
</g>
</g>
</svg>
