<?xml version="1.0" encoding="UTF-8" standalone="no"?>
<!DOCTYPE svg PUBLIC "-//W3C//DTD SVG 1.1//EN"
 "http://www.w3.org/Graphics/SVG/1.1/DTD/svg11.dtd">
<!-- Generated by graphviz version 7.0.5 (20221223.1930)
 -->
<!-- Title: _fat_direntry Pages: 1 -->
<svg width="202pt" height="93pt"
 viewBox="0.00 0.00 201.50 93.00" xmlns="http://www.w3.org/2000/svg" xmlns:xlink="http://www.w3.org/1999/xlink">
<g id="graph0" class="graph" transform="scale(1 1) rotate(0) translate(4 89)">
<title>_fat_direntry</title>
<!-- Node1 -->
<g id="node1" class="node">
<title>Node1</title>
<g id="a_node1"><a xlink:title=" ">
<polygon fill="#999999" stroke="#666666" points="132.5,-19 62.5,-19 62.5,0 132.5,0 132.5,-19"/>
<text text-anchor="middle" x="97.5" y="-7" font-family="Helvetica,sans-Serif" font-size="10.00">_fat_direntry</text>
</a>
</g>
</g>
<!-- Node2 -->
<g id="node2" class="node">
<title>Node2</title>
<g id="a_node2"><a xlink:href="struct__fat__direntry__sfn.html" target="_top" xlink:title=" ">
<polygon fill="white" stroke="#bfbfbf" points="89,-85 0,-85 0,-66 89,-66 89,-85"/>
<text text-anchor="middle" x="44.5" y="-73" font-family="Helvetica,sans-Serif" font-size="10.00">_fat_direntry_sfn</text>
</a>
</g>
</g>
<!-- Node2&#45;&gt;Node1 -->
<g id="edge1" class="edge">
<title>Node2&#45;&gt;Node1</title>
<path fill="none" stroke="#9a32cd" stroke-dasharray="5,2" d="M59.19,-56.76C69.28,-44.58 82.23,-28.94 90.19,-19.32"/>
<polygon fill="#9a32cd" stroke="#9a32cd" points="56.52,-54.5 52.83,-64.44 61.91,-58.97 56.52,-54.5"/>
<text text-anchor="middle" x="82.5" y="-40" font-family="Helvetica,sans-Serif" font-size="10.00"> sfn</text>
</g>
<!-- Node3 -->
<g id="node3" class="node">
<title>Node3</title>
<g id="a_node3"><a xlink:href="struct__fat__direntry__lfn.html" target="_top" xlink:title=" ">
<polygon fill="white" stroke="#bfbfbf" points="193.5,-85 107.5,-85 107.5,-66 193.5,-66 193.5,-85"/>
<text text-anchor="middle" x="150.5" y="-73" font-family="Helvetica,sans-Serif" font-size="10.00">_fat_direntry_lfn</text>
</a>
</g>
</g>
<!-- Node3&#45;&gt;Node1 -->
<g id="edge2" class="edge">
<title>Node3&#45;&gt;Node1</title>
<path fill="none" stroke="#9a32cd" stroke-dasharray="5,2" d="M135.81,-56.76C125.72,-44.58 112.77,-28.94 104.81,-19.32"/>
<polygon fill="#9a32cd" stroke="#9a32cd" points="133.09,-58.97 142.17,-64.44 138.48,-54.5 133.09,-58.97"/>
<text text-anchor="middle" x="133" y="-40" font-family="Helvetica,sans-Serif" font-size="10.00"> lfn</text>
</g>
</g>
</svg>
