<?xml version="1.0" encoding="UTF-8" standalone="no"?>
<!DOCTYPE svg PUBLIC "-//W3C//DTD SVG 1.1//EN"
 "http://www.w3.org/Graphics/SVG/1.1/DTD/svg11.dtd">
<!-- Generated by graphviz version 7.0.5 (20221223.1930)
 -->
<!-- Title: sCmdSendParams_t Pages: 1 -->
<svg width="462pt" height="93pt"
 viewBox="0.00 0.00 462.00 93.00" xmlns="http://www.w3.org/2000/svg" xmlns:xlink="http://www.w3.org/1999/xlink">
<g id="graph0" class="graph" transform="scale(1 1) rotate(0) translate(4 89)">
<title>sCmdSendParams_t</title>
<!-- Node1 -->
<g id="node1" class="node">
<title>Node1</title>
<g id="a_node1"><a xlink:title=" ">
<polygon fill="#999999" stroke="#666666" points="251.5,-19 144.5,-19 144.5,0 251.5,0 251.5,-19"/>
<text text-anchor="middle" x="198" y="-7" font-family="Helvetica,sans-Serif" font-size="10.00">sCmdSendParams_t</text>
</a>
</g>
</g>
<!-- Node2 -->
<g id="node2" class="node">
<title>Node2</title>
<g id="a_node2"><a xlink:href="libcdvd-common_8h.html#structsce_cd_c_l_o_c_k" target="_top" xlink:title=" ">
<polygon fill="white" stroke="#bfbfbf" points="78,-85 0,-85 0,-66 78,-66 78,-85"/>
<text text-anchor="middle" x="39" y="-73" font-family="Helvetica,sans-Serif" font-size="10.00">sceCdCLOCK</text>
</a>
</g>
</g>
<!-- Node2&#45;&gt;Node1 -->
<g id="edge1" class="edge">
<title>Node2&#45;&gt;Node1</title>
<path fill="none" stroke="#9a32cd" stroke-dasharray="5,2" d="M71.43,-61.45C102.55,-48.92 148.69,-30.35 175.82,-19.43"/>
<polygon fill="#9a32cd" stroke="#9a32cd" points="70.48,-58.05 62.51,-65.04 73.1,-64.55 70.48,-58.05"/>
<text text-anchor="middle" x="142" y="-40" font-family="Helvetica,sans-Serif" font-size="10.00"> clock</text>
</g>
<!-- Node3 -->
<g id="node3" class="node">
<title>Node3</title>
<g id="a_node3"><a xlink:href="libcdvd-rpc_8h.html#structcdvd_scmd_param" target="_top" xlink:title=" ">
<polygon fill="white" stroke="#bfbfbf" points="188,-85 96,-85 96,-66 188,-66 188,-85"/>
<text text-anchor="middle" x="142" y="-73" font-family="Helvetica,sans-Serif" font-size="10.00">cdvdScmdParam</text>
</a>
</g>
</g>
<!-- Node3&#45;&gt;Node1 -->
<g id="edge2" class="edge">
<title>Node3&#45;&gt;Node1</title>
<path fill="none" stroke="#9a32cd" stroke-dasharray="5,2" d="M157.21,-57.12C167.91,-44.89 181.78,-29.04 190.28,-19.32"/>
<polygon fill="#9a32cd" stroke="#9a32cd" points="154.73,-54.63 150.78,-64.46 160,-59.24 154.73,-54.63"/>
<text text-anchor="middle" x="187.5" y="-40" font-family="Helvetica,sans-Serif" font-size="10.00"> scmd</text>
</g>
<!-- Node4 -->
<g id="node4" class="node">
<title>Node4</title>
<g id="a_node4"><a xlink:href="libcdvd-rpc_8h.html#structcdvd_dec_set_param" target="_top" xlink:title=" ">
<polygon fill="white" stroke="#bfbfbf" points="304,-85 206,-85 206,-66 304,-66 304,-85"/>
<text text-anchor="middle" x="255" y="-73" font-family="Helvetica,sans-Serif" font-size="10.00">cdvdDecSetParam</text>
</a>
</g>
</g>
<!-- Node4&#45;&gt;Node1 -->
<g id="edge3" class="edge">
<title>Node4&#45;&gt;Node1</title>
<path fill="none" stroke="#9a32cd" stroke-dasharray="5,2" d="M239.52,-57.12C228.63,-44.89 214.51,-29.04 205.86,-19.32"/>
<polygon fill="#9a32cd" stroke="#9a32cd" points="236.8,-59.33 246.07,-64.47 242.03,-54.68 236.8,-59.33"/>
<text text-anchor="middle" x="247" y="-40" font-family="Helvetica,sans-Serif" font-size="10.00"> decSet</text>
</g>
<!-- Node5 -->
<g id="node5" class="node">
<title>Node5</title>
<g id="a_node5"><a xlink:href="libcdvd-rpc_8h.html#structcdvd_read_write_nvm_param" target="_top" xlink:title=" ">
<polygon fill="white" stroke="#bfbfbf" points="454,-85 322,-85 322,-66 454,-66 454,-85"/>
<text text-anchor="middle" x="388" y="-73" font-family="Helvetica,sans-Serif" font-size="10.00">cdvdReadWriteNvmParam</text>
</a>
</g>
</g>
<!-- Node5&#45;&gt;Node1 -->
<g id="edge4" class="edge">
<title>Node5&#45;&gt;Node1</title>
<path fill="none" stroke="#9a32cd" stroke-dasharray="5,2" d="M350.7,-61.93C313.51,-49.41 257.34,-30.49 224.5,-19.43"/>
<polygon fill="#9a32cd" stroke="#9a32cd" points="349.55,-65.24 360.15,-65.12 351.79,-58.61 349.55,-65.24"/>
<text text-anchor="middle" x="315" y="-40" font-family="Helvetica,sans-Serif" font-size="10.00"> nvm</text>
</g>
</g>
</svg>
