<?xml version="1.0" encoding="UTF-8" standalone="no"?>
<!DOCTYPE svg PUBLIC "-//W3C//DTD SVG 1.1//EN"
 "http://www.w3.org/Graphics/SVG/1.1/DTD/svg11.dtd">
<!-- Generated by graphviz version 7.0.5 (20221223.1930)
 -->
<!-- Title: siorCommsData Pages: 1 -->
<svg width="261pt" height="93pt"
 viewBox="0.00 0.00 260.50 93.00" xmlns="http://www.w3.org/2000/svg" xmlns:xlink="http://www.w3.org/1999/xlink">
<g id="graph0" class="graph" transform="scale(1 1) rotate(0) translate(4 89)">
<title>siorCommsData</title>
<!-- Node1 -->
<g id="node1" class="node">
<title>Node1</title>
<g id="a_node1"><a xlink:title=" ">
<polygon fill="#999999" stroke="#666666" points="165,-19 79,-19 79,0 165,0 165,-19"/>
<text text-anchor="middle" x="122" y="-7" font-family="Helvetica,sans-Serif" font-size="10.00">siorCommsData</text>
</a>
</g>
</g>
<!-- Node2 -->
<g id="node2" class="node">
<title>Node2</title>
<g id="a_node2"><a xlink:href="sior-common_8h.html#structsior_init_args" target="_top" xlink:title=" ">
<polygon fill="white" stroke="#bfbfbf" points="66,-85 0,-85 0,-66 66,-66 66,-85"/>
<text text-anchor="middle" x="33" y="-73" font-family="Helvetica,sans-Serif" font-size="10.00">siorInitArgs</text>
</a>
</g>
</g>
<!-- Node2&#45;&gt;Node1 -->
<g id="edge1" class="edge">
<title>Node2&#45;&gt;Node1</title>
<path fill="none" stroke="#9a32cd" stroke-dasharray="5,2" d="M54.71,-58.89C71.99,-46.46 95.56,-29.51 109.73,-19.32"/>
<polygon fill="#9a32cd" stroke="#9a32cd" points="52.68,-56.04 46.6,-64.72 56.77,-61.72 52.68,-56.04"/>
<text text-anchor="middle" x="91" y="-40" font-family="Helvetica,sans-Serif" font-size="10.00"> init</text>
</g>
<!-- Node3 -->
<g id="node3" class="node">
<title>Node3</title>
<g id="a_node3"><a xlink:href="sior-common_8h.html#structsior_read_args" target="_top" xlink:title=" ">
<polygon fill="white" stroke="#bfbfbf" points="159.5,-85 84.5,-85 84.5,-66 159.5,-66 159.5,-85"/>
<text text-anchor="middle" x="122" y="-73" font-family="Helvetica,sans-Serif" font-size="10.00">siorReadArgs</text>
</a>
</g>
</g>
<!-- Node3&#45;&gt;Node1 -->
<g id="edge2" class="edge">
<title>Node3&#45;&gt;Node1</title>
<path fill="none" stroke="#9a32cd" stroke-dasharray="5,2" d="M122,-54.18C122,-42.44 122,-28.27 122,-19.32"/>
<polygon fill="#9a32cd" stroke="#9a32cd" points="118.5,-54.09 122,-64.09 125.5,-54.09 118.5,-54.09"/>
<text text-anchor="middle" x="133" y="-40" font-family="Helvetica,sans-Serif" font-size="10.00"> read</text>
</g>
<!-- Node4 -->
<g id="node4" class="node">
<title>Node4</title>
<g id="a_node4"><a xlink:href="sior-common_8h.html#structsior_write_args" target="_top" xlink:title=" ">
<polygon fill="white" stroke="#bfbfbf" points="252.5,-85 177.5,-85 177.5,-66 252.5,-66 252.5,-85"/>
<text text-anchor="middle" x="215" y="-73" font-family="Helvetica,sans-Serif" font-size="10.00">siorWriteArgs</text>
</a>
</g>
</g>
<!-- Node4&#45;&gt;Node1 -->
<g id="edge3" class="edge">
<title>Node4&#45;&gt;Node1</title>
<path fill="none" stroke="#9a32cd" stroke-dasharray="5,2" d="M192.82,-59.24C174.72,-46.78 149.76,-29.61 134.82,-19.32"/>
<polygon fill="#9a32cd" stroke="#9a32cd" points="190.6,-61.96 200.82,-64.74 194.57,-56.19 190.6,-61.96"/>
<text text-anchor="middle" x="186" y="-40" font-family="Helvetica,sans-Serif" font-size="10.00"> write</text>
</g>
</g>
</svg>
