<?xml version="1.0" encoding="UTF-8" standalone="no"?>
<!DOCTYPE svg PUBLIC "-//W3C//DTD SVG 1.1//EN"
 "http://www.w3.org/Graphics/SVG/1.1/DTD/svg11.dtd">
<!-- Generated by graphviz version 7.0.5 (20221223.1930)
 -->
<!-- Title: nCmdSendParams_t Pages: 1 -->
<svg width="224pt" height="93pt"
 viewBox="0.00 0.00 223.50 93.00" xmlns="http://www.w3.org/2000/svg" xmlns:xlink="http://www.w3.org/1999/xlink">
<g id="graph0" class="graph" transform="scale(1 1) rotate(0) translate(4 89)">
<title>nCmdSendParams_t</title>
<!-- Node1 -->
<g id="node1" class="node">
<title>Node1</title>
<g id="a_node1"><a xlink:title=" ">
<polygon fill="#999999" stroke="#666666" points="157.5,-19 50.5,-19 50.5,0 157.5,0 157.5,-19"/>
<text text-anchor="middle" x="104" y="-7" font-family="Helvetica,sans-Serif" font-size="10.00">nCmdSendParams_t</text>
</a>
</g>
</g>
<!-- Node2 -->
<g id="node2" class="node">
<title>Node2</title>
<g id="a_node2"><a xlink:href="libcdvd-rpc_8h.html#structcdvd_ncmd_param" target="_top" xlink:title=" ">
<polygon fill="white" stroke="#bfbfbf" points="92,-85 0,-85 0,-66 92,-66 92,-85"/>
<text text-anchor="middle" x="46" y="-73" font-family="Helvetica,sans-Serif" font-size="10.00">cdvdNcmdParam</text>
</a>
</g>
</g>
<!-- Node2&#45;&gt;Node1 -->
<g id="edge1" class="edge">
<title>Node2&#45;&gt;Node1</title>
<path fill="none" stroke="#9a32cd" stroke-dasharray="5,2" d="M61.75,-57.12C72.83,-44.89 87.2,-29.04 96,-19.32"/>
<polygon fill="#9a32cd" stroke="#9a32cd" points="59.2,-54.72 55.08,-64.48 64.39,-59.42 59.2,-54.72"/>
<text text-anchor="middle" x="92.5" y="-40" font-family="Helvetica,sans-Serif" font-size="10.00"> ncmd</text>
</g>
<!-- Node3 -->
<g id="node3" class="node">
<title>Node3</title>
<g id="a_node3"><a xlink:href="libcdvd-rpc_8h.html#structcdvd_read_key_param" target="_top" xlink:title=" ">
<polygon fill="white" stroke="#bfbfbf" points="215.5,-85 110.5,-85 110.5,-66 215.5,-66 215.5,-85"/>
<text text-anchor="middle" x="163" y="-73" font-family="Helvetica,sans-Serif" font-size="10.00">cdvdReadKeyParam</text>
</a>
</g>
</g>
<!-- Node3&#45;&gt;Node1 -->
<g id="edge2" class="edge">
<title>Node3&#45;&gt;Node1</title>
<path fill="none" stroke="#9a32cd" stroke-dasharray="5,2" d="M147.31,-57.48C135.99,-45.2 121.17,-29.13 112.13,-19.32"/>
<polygon fill="#9a32cd" stroke="#9a32cd" points="144.42,-59.51 153.77,-64.49 149.57,-54.76 144.42,-59.51"/>
<text text-anchor="middle" x="156" y="-40" font-family="Helvetica,sans-Serif" font-size="10.00"> readKey</text>
</g>
</g>
</svg>
