<?xml version="1.0" encoding="UTF-8" standalone="no"?>
<!DOCTYPE svg PUBLIC "-//W3C//DTD SVG 1.1//EN"
 "http://www.w3.org/Graphics/SVG/1.1/DTD/svg11.dtd">
<!-- Generated by graphviz version 7.0.5 (20221223.1930)
 -->
<!-- Title: iop/usb/usbd/include/usbd_macro.h Pages: 1 -->
<svg width="655pt" height="104pt"
 viewBox="0.00 0.00 654.50 104.00" xmlns="http://www.w3.org/2000/svg" xmlns:xlink="http://www.w3.org/1999/xlink">
<g id="graph0" class="graph" transform="scale(1 1) rotate(0) translate(4 100)">
<title>iop/usb/usbd/include/usbd_macro.h</title>
<!-- Node1 -->
<g id="node1" class="node">
<title>Node1</title>
<g id="a_node1"><a xlink:title=" ">
<polygon fill="#999999" stroke="#666666" points="373,-96 267,-96 267,-66 373,-66 373,-96"/>
<text text-anchor="start" x="275" y="-84" font-family="Helvetica,sans-Serif" font-size="10.00">iop/usb/usbd/include</text>
<text text-anchor="middle" x="320" y="-73" font-family="Helvetica,sans-Serif" font-size="10.00">/usbd_macro.h</text>
</a>
</g>
</g>
<!-- Node2 -->
<g id="node2" class="node">
<title>Node2</title>
<g id="a_node2"><a xlink:href="ps2cam_8c.html" target="_top" xlink:title=" ">
<polygon fill="white" stroke="#666666" points="100,-30 0,-30 0,0 100,0 100,-30"/>
<text text-anchor="start" x="8" y="-18" font-family="Helvetica,sans-Serif" font-size="10.00">iop/usb/camera/src</text>
<text text-anchor="middle" x="50" y="-7" font-family="Helvetica,sans-Serif" font-size="10.00">/ps2cam.c</text>
</a>
</g>
</g>
<!-- Node1&#45;&gt;Node2 -->
<g id="edge1" class="edge">
<title>Node1&#45;&gt;Node2</title>
<path fill="none" stroke="#63b8ff" d="M255.54,-64.73C213.76,-54.83 158.16,-41.66 109,-30 106.13,-29.32 103.19,-28.62 100.21,-27.92"/>
<polygon fill="#63b8ff" stroke="#63b8ff" points="254.66,-68.12 265.19,-67.02 256.27,-61.31 254.66,-68.12"/>
</g>
<!-- Node3 -->
<g id="node3" class="node">
<title>Node3</title>
<g id="a_node3"><a xlink:href="ps2kbd_8c.html" target="_top" xlink:title=" ">
<polygon fill="white" stroke="#666666" points="225.5,-30 118.5,-30 118.5,0 225.5,0 225.5,-30"/>
<text text-anchor="start" x="126.5" y="-18" font-family="Helvetica,sans-Serif" font-size="10.00">iop/usb/keyboard/src</text>
<text text-anchor="middle" x="172" y="-7" font-family="Helvetica,sans-Serif" font-size="10.00">/ps2kbd.c</text>
</a>
</g>
</g>
<!-- Node1&#45;&gt;Node3 -->
<g id="edge2" class="edge">
<title>Node1&#45;&gt;Node3</title>
<path fill="none" stroke="#63b8ff" d="M276.39,-61.14C253.68,-51.32 226.36,-39.51 205.36,-30.43"/>
<polygon fill="#63b8ff" stroke="#63b8ff" points="274.83,-64.28 285.4,-65.04 277.61,-57.85 274.83,-64.28"/>
</g>
<!-- Node4 -->
<g id="node4" class="node">
<title>Node4</title>
<g id="a_node4"><a xlink:href="ps2mouse_8c.html" target="_top" xlink:title=" ">
<polygon fill="white" stroke="#666666" points="396,-24.5 244,-24.5 244,-5.5 396,-5.5 396,-24.5"/>
<text text-anchor="middle" x="320" y="-12.5" font-family="Helvetica,sans-Serif" font-size="10.00">iop/usb/mouse/src/ps2mouse.c</text>
</a>
</g>
</g>
<!-- Node1&#45;&gt;Node4 -->
<g id="edge3" class="edge">
<title>Node1&#45;&gt;Node4</title>
<path fill="none" stroke="#63b8ff" d="M320,-54.59C320,-44.06 320,-32.53 320,-24.84"/>
<polygon fill="#63b8ff" stroke="#63b8ff" points="316.5,-54.28 320,-64.28 323.5,-54.28 316.5,-54.28"/>
</g>
<!-- Node5 -->
<g id="node5" class="node">
<title>Node5</title>
<g id="a_node5"><a xlink:href="usb__driver_8c_source.html" target="_top" xlink:title=" ">
<polygon fill="white" stroke="#666666" points="521.5,-30 414.5,-30 414.5,0 521.5,0 521.5,-30"/>
<text text-anchor="start" x="422.5" y="-18" font-family="Helvetica,sans-Serif" font-size="10.00">iop/usb/usbhdfsd/src</text>
<text text-anchor="middle" x="468" y="-7" font-family="Helvetica,sans-Serif" font-size="10.00">/usb_driver.c</text>
</a>
</g>
</g>
<!-- Node1&#45;&gt;Node5 -->
<g id="edge4" class="edge">
<title>Node1&#45;&gt;Node5</title>
<path fill="none" stroke="#63b8ff" d="M363.61,-61.14C386.32,-51.32 413.64,-39.51 434.64,-30.43"/>
<polygon fill="#63b8ff" stroke="#63b8ff" points="362.39,-57.85 354.6,-65.04 365.17,-64.28 362.39,-57.85"/>
</g>
<!-- Node6 -->
<g id="node6" class="node">
<title>Node6</title>
<g id="a_node6"><a xlink:href="usb__mass_8c_source.html" target="_top" xlink:title=" ">
<polygon fill="white" stroke="#666666" points="646.5,-30 539.5,-30 539.5,0 646.5,0 646.5,-30"/>
<text text-anchor="start" x="547.5" y="-18" font-family="Helvetica,sans-Serif" font-size="10.00">iop/usb/usbmass_bd</text>
<text text-anchor="middle" x="593" y="-7" font-family="Helvetica,sans-Serif" font-size="10.00">/src/usb_mass.c</text>
</a>
</g>
</g>
<!-- Node1&#45;&gt;Node6 -->
<g id="edge5" class="edge">
<title>Node1&#45;&gt;Node6</title>
<path fill="none" stroke="#63b8ff" d="M384.31,-64.92C431.52,-53.86 494.9,-39 539.38,-28.57"/>
<polygon fill="#63b8ff" stroke="#63b8ff" points="383.7,-61.47 374.76,-67.16 385.29,-68.29 383.7,-61.47"/>
</g>
</g>
</svg>
