<?xml version="1.0" encoding="UTF-8" standalone="no"?>
<!DOCTYPE svg PUBLIC "-//W3C//DTD SVG 1.1//EN"
 "http://www.w3.org/Graphics/SVG/1.1/DTD/svg11.dtd">
<!-- Generated by graphviz version 7.0.5 (20221223.1930)
 -->
<!-- Title: iop/usb/usbd/src/usbd.c Pages: 1 -->
<svg width="445pt" height="357pt"
 viewBox="0.00 0.00 444.50 357.00" xmlns="http://www.w3.org/2000/svg" xmlns:xlink="http://www.w3.org/1999/xlink">
<g id="graph0" class="graph" transform="scale(1 1) rotate(0) translate(4 353)">
<title>iop/usb/usbd/src/usbd.c</title>
<!-- Node1 -->
<g id="node1" class="node">
<title>Node1</title>
<g id="a_node1"><a xlink:title=" ">
<polygon fill="#999999" stroke="#666666" points="288,-349 168,-349 168,-330 288,-330 288,-349"/>
<text text-anchor="middle" x="228" y="-337" font-family="Helvetica,sans-Serif" font-size="10.00">iop/usb/usbd/src/usbd.c</text>
</a>
</g>
</g>
<!-- Node2 -->
<g id="node2" class="node">
<title>Node2</title>
<g id="a_node2"><a xlink:href="usbdpriv_8h.html" target="_top" xlink:title=" ">
<polygon fill="white" stroke="#666666" points="115.5,-239 54.5,-239 54.5,-220 115.5,-220 115.5,-239"/>
<text text-anchor="middle" x="85" y="-227" font-family="Helvetica,sans-Serif" font-size="10.00">usbdpriv.h</text>
</a>
</g>
</g>
<!-- Node1&#45;&gt;Node2 -->
<g id="edge1" class="edge">
<title>Node1&#45;&gt;Node2</title>
<path fill="none" stroke="#63b8ff" d="M167.73,-335.14C138.55,-330.15 105.83,-318.86 87,-294 77.72,-281.75 77.95,-264.02 80.09,-250.41"/>
<polygon fill="#63b8ff" stroke="#63b8ff" points="83.47,-251.32 82.06,-240.82 76.62,-249.91 83.47,-251.32"/>
</g>
<!-- Node9 -->
<g id="node9" class="node">
<title>Node9</title>
<g id="a_node9"><a xlink:href="mem_8h.html" target="_top" xlink:title=" ">
<polygon fill="white" stroke="#666666" points="142,-294 96,-294 96,-275 142,-275 142,-294"/>
<text text-anchor="middle" x="119" y="-282" font-family="Helvetica,sans-Serif" font-size="10.00">mem.h</text>
</a>
</g>
</g>
<!-- Node1&#45;&gt;Node9 -->
<g id="edge9" class="edge">
<title>Node1&#45;&gt;Node9</title>
<path fill="none" stroke="#63b8ff" d="M209.51,-329.51C192.5,-321.24 167.01,-308.84 147.41,-299.31"/>
<polygon fill="#63b8ff" stroke="#63b8ff" points="149.1,-296.25 138.58,-295.02 146.04,-302.54 149.1,-296.25"/>
</g>
<!-- Node10 -->
<g id="node10" class="node">
<title>Node10</title>
<g id="a_node10"><a xlink:href="hcd_8h.html" target="_top" xlink:title=" ">
<polygon fill="white" stroke="#666666" points="200,-294 160,-294 160,-275 200,-275 200,-294"/>
<text text-anchor="middle" x="180" y="-282" font-family="Helvetica,sans-Serif" font-size="10.00">hcd.h</text>
</a>
</g>
</g>
<!-- Node1&#45;&gt;Node10 -->
<g id="edge11" class="edge">
<title>Node1&#45;&gt;Node10</title>
<path fill="none" stroke="#63b8ff" d="M220.07,-329.75C213.44,-322.43 203.78,-311.76 195.61,-302.74"/>
<polygon fill="#63b8ff" stroke="#63b8ff" points="198.42,-300.63 189.11,-295.56 193.23,-305.33 198.42,-300.63"/>
</g>
<!-- Node11 -->
<g id="node11" class="node">
<title>Node11</title>
<g id="a_node11"><a xlink:href="hub_8h.html" target="_top" xlink:title=" ">
<polygon fill="white" stroke="#666666" points="40,-294 0,-294 0,-275 40,-275 40,-294"/>
<text text-anchor="middle" x="20" y="-282" font-family="Helvetica,sans-Serif" font-size="10.00">hub.h</text>
</a>
</g>
</g>
<!-- Node1&#45;&gt;Node11 -->
<g id="edge13" class="edge">
<title>Node1&#45;&gt;Node11</title>
<path fill="none" stroke="#63b8ff" d="M192.72,-329.51C153.01,-319.39 89.12,-303.11 51.18,-293.45"/>
<polygon fill="#63b8ff" stroke="#63b8ff" points="52.32,-290.12 41.76,-291.05 50.59,-296.91 52.32,-290.12"/>
</g>
<!-- Node12 -->
<g id="node12" class="node">
<title>Node12</title>
<g id="a_node12"><a xlink:href="usbio_8h.html" target="_top" xlink:title=" ">
<polygon fill="white" stroke="#666666" points="417.5,-294 370.5,-294 370.5,-275 417.5,-275 417.5,-294"/>
<text text-anchor="middle" x="394" y="-282" font-family="Helvetica,sans-Serif" font-size="10.00">usbio.h</text>
</a>
</g>
</g>
<!-- Node1&#45;&gt;Node12 -->
<g id="edge15" class="edge">
<title>Node1&#45;&gt;Node12</title>
<path fill="none" stroke="#63b8ff" d="M256.16,-329.51C284.66,-320.41 328.79,-306.32 359.41,-296.55"/>
<polygon fill="#63b8ff" stroke="#63b8ff" points="360.12,-299.99 368.58,-293.62 357.99,-293.32 360.12,-299.99"/>
</g>
<!-- Node13 -->
<g id="node13" class="node">
<title>Node13</title>
<g id="a_node13"><a xlink:href="stdio_8h.html" target="_top" xlink:title=" ">
<polygon fill="white" stroke="#666666" points="204.5,-184 159.5,-184 159.5,-165 204.5,-165 204.5,-184"/>
<text text-anchor="middle" x="182" y="-172" font-family="Helvetica,sans-Serif" font-size="10.00">stdio.h</text>
</a>
</g>
</g>
<!-- Node1&#45;&gt;Node13 -->
<g id="edge16" class="edge">
<title>Node1&#45;&gt;Node13</title>
<path fill="none" stroke="#63b8ff" d="M225.53,-329.74C218.38,-304.42 197.58,-230.72 187.55,-195.16"/>
<polygon fill="#63b8ff" stroke="#63b8ff" points="190.98,-194.44 184.9,-185.76 184.24,-196.34 190.98,-194.44"/>
</g>
<!-- Node15 -->
<g id="node15" class="node">
<title>Node15</title>
<g id="a_node15"><a xlink:href="sysclib_8h.html" target="_top" xlink:title=" ">
<polygon fill="white" stroke="#666666" points="277,-184 223,-184 223,-165 277,-165 277,-184"/>
<text text-anchor="middle" x="250" y="-172" font-family="Helvetica,sans-Serif" font-size="10.00">sysclib.h</text>
</a>
</g>
</g>
<!-- Node1&#45;&gt;Node15 -->
<g id="edge19" class="edge">
<title>Node1&#45;&gt;Node15</title>
<path fill="none" stroke="#63b8ff" d="M231.42,-329.79C234.73,-320.93 239.6,-306.73 242,-294 248.44,-259.81 249.86,-219.2 250.09,-195.5"/>
<polygon fill="#63b8ff" stroke="#63b8ff" points="253.59,-195.73 250.11,-185.73 246.59,-195.72 253.59,-195.73"/>
</g>
<!-- Node18 -->
<g id="node18" class="node">
<title>Node18</title>
<g id="a_node18"><a xlink:href="thsemap_8h.html" target="_top" xlink:title=" ">
<polygon fill="white" stroke="#666666" points="357,-184 295,-184 295,-165 357,-165 357,-184"/>
<text text-anchor="middle" x="326" y="-172" font-family="Helvetica,sans-Serif" font-size="10.00">thsemap.h</text>
</a>
</g>
</g>
<!-- Node1&#45;&gt;Node18 -->
<g id="edge26" class="edge">
<title>Node1&#45;&gt;Node18</title>
<path fill="none" stroke="#63b8ff" d="M233.91,-329.72C239.87,-320.8 249.26,-306.56 257,-294 278.47,-259.17 302.21,-217.69 315.5,-194.2"/>
<polygon fill="#63b8ff" stroke="#63b8ff" points="318.52,-195.96 320.38,-185.53 312.42,-192.52 318.52,-195.96"/>
</g>
<!-- Node19 -->
<g id="node19" class="node">
<title>Node19</title>
<g id="a_node19"><a xlink:href="loadcore_8h.html" target="_top" xlink:title=" ">
<polygon fill="white" stroke="#666666" points="436.5,-184 375.5,-184 375.5,-165 436.5,-165 436.5,-184"/>
<text text-anchor="middle" x="406" y="-172" font-family="Helvetica,sans-Serif" font-size="10.00">loadcore.h</text>
</a>
</g>
</g>
<!-- Node1&#45;&gt;Node19 -->
<g id="edge29" class="edge">
<title>Node1&#45;&gt;Node19</title>
<path fill="none" stroke="#63b8ff" d="M237.82,-329.5C266.58,-303.17 350.89,-225.97 388.05,-191.93"/>
<polygon fill="#63b8ff" stroke="#63b8ff" points="390.3,-194.63 395.31,-185.29 385.57,-189.46 390.3,-194.63"/>
</g>
<!-- Node3 -->
<g id="node3" class="node">
<title>Node3</title>
<g id="a_node3"><a xlink:href="usbd_8h.html" target="_top" xlink:title=" ">
<polygon fill="white" stroke="#666666" points="141.5,-184 96.5,-184 96.5,-165 141.5,-165 141.5,-184"/>
<text text-anchor="middle" x="119" y="-172" font-family="Helvetica,sans-Serif" font-size="10.00">usbd.h</text>
</a>
</g>
</g>
<!-- Node2&#45;&gt;Node3 -->
<g id="edge2" class="edge">
<title>Node2&#45;&gt;Node3</title>
<path fill="none" stroke="#63b8ff" d="M90.61,-219.75C95.12,-212.73 101.59,-202.64 107.21,-193.87"/>
<polygon fill="#63b8ff" stroke="#63b8ff" points="109.99,-196.02 112.45,-185.72 104.1,-192.24 109.99,-196.02"/>
</g>
<!-- Node4 -->
<g id="node4" class="node">
<title>Node4</title>
<g id="a_node4"><a xlink:title=" ">
<polygon fill="#e0e0e0" stroke="#999999" points="95.5,-129 48.5,-129 48.5,-110 95.5,-110 95.5,-129"/>
<text text-anchor="middle" x="72" y="-117" font-family="Helvetica,sans-Serif" font-size="10.00">types.h</text>
</a>
</g>
</g>
<!-- Node2&#45;&gt;Node4 -->
<g id="edge8" class="edge">
<title>Node2&#45;&gt;Node4</title>
<path fill="none" stroke="#63b8ff" d="M83.94,-219.66C81.87,-202.5 77.27,-164.26 74.42,-140.6"/>
<polygon fill="#63b8ff" stroke="#63b8ff" points="77.93,-140.47 73.26,-130.96 70.98,-141.31 77.93,-140.47"/>
</g>
<!-- Node3&#45;&gt;Node4 -->
<g id="edge3" class="edge">
<title>Node3&#45;&gt;Node4</title>
<path fill="none" stroke="#63b8ff" d="M111.24,-164.75C104.81,-157.5 95.49,-146.98 87.54,-138.02"/>
<polygon fill="#63b8ff" stroke="#63b8ff" points="90.19,-135.73 80.93,-130.57 84.95,-140.38 90.19,-135.73"/>
</g>
<!-- Node5 -->
<g id="node5" class="node">
<title>Node5</title>
<g id="a_node5"><a xlink:href="irx_8h.html" target="_top" xlink:title=" ">
<polygon fill="white" stroke="#666666" points="323,-129 289,-129 289,-110 323,-110 323,-129"/>
<text text-anchor="middle" x="306" y="-117" font-family="Helvetica,sans-Serif" font-size="10.00">irx.h</text>
</a>
</g>
</g>
<!-- Node3&#45;&gt;Node5 -->
<g id="edge4" class="edge">
<title>Node3&#45;&gt;Node5</title>
<path fill="none" stroke="#63b8ff" d="M141.9,-167.2C178.55,-157.12 248.64,-137.81 277.79,-129.47"/>
<polygon fill="#63b8ff" stroke="#63b8ff" points="278.63,-132.87 287.24,-126.71 276.66,-126.16 278.63,-132.87"/>
</g>
<!-- Node6 -->
<g id="node6" class="node">
<title>Node6</title>
<g id="a_node6"><a xlink:href="iop_2kernel_2include_2types_8h_source.html" target="_top" xlink:title=" ">
<polygon fill="white" stroke="#666666" points="374.5,-74 327.5,-74 327.5,-55 374.5,-55 374.5,-74"/>
<text text-anchor="middle" x="351" y="-62" font-family="Helvetica,sans-Serif" font-size="10.00">types.h</text>
</a>
</g>
</g>
<!-- Node5&#45;&gt;Node6 -->
<g id="edge5" class="edge">
<title>Node5&#45;&gt;Node6</title>
<path fill="none" stroke="#63b8ff" d="M313.43,-109.75C319.58,-102.5 328.51,-91.98 336.13,-83.02"/>
<polygon fill="#63b8ff" stroke="#63b8ff" points="338.62,-85.48 342.43,-75.6 333.29,-80.95 338.62,-85.48"/>
</g>
<!-- Node7 -->
<g id="node7" class="node">
<title>Node7</title>
<g id="a_node7"><a xlink:title=" ">
<polygon fill="#e0e0e0" stroke="#999999" points="376.5,-19 325.5,-19 325.5,0 376.5,0 376.5,-19"/>
<text text-anchor="middle" x="351" y="-7" font-family="Helvetica,sans-Serif" font-size="10.00">stddef.h</text>
</a>
</g>
</g>
<!-- Node6&#45;&gt;Node7 -->
<g id="edge6" class="edge">
<title>Node6&#45;&gt;Node7</title>
<path fill="none" stroke="#63b8ff" d="M351,-54.75C351,-48.27 351,-39.16 351,-30.9"/>
<polygon fill="#63b8ff" stroke="#63b8ff" points="354.5,-30.96 351,-20.96 347.5,-30.96 354.5,-30.96"/>
</g>
<!-- Node8 -->
<g id="node8" class="node">
<title>Node8</title>
<g id="a_node8"><a xlink:href="tamtypes_8h.html" target="_top" xlink:title=" ">
<polygon fill="white" stroke="#666666" points="287,-19 223,-19 223,0 287,0 287,-19"/>
<text text-anchor="middle" x="255" y="-7" font-family="Helvetica,sans-Serif" font-size="10.00">tamtypes.h</text>
</a>
</g>
</g>
<!-- Node6&#45;&gt;Node8 -->
<g id="edge7" class="edge">
<title>Node6&#45;&gt;Node8</title>
<path fill="none" stroke="#63b8ff" d="M334.71,-54.51C320.01,-46.39 298.11,-34.3 280.98,-24.85"/>
<polygon fill="#63b8ff" stroke="#63b8ff" points="282.82,-21.86 272.37,-20.09 279.43,-27.99 282.82,-21.86"/>
</g>
<!-- Node9&#45;&gt;Node2 -->
<g id="edge10" class="edge">
<title>Node9&#45;&gt;Node2</title>
<path fill="none" stroke="#63b8ff" d="M113.39,-274.75C108.88,-267.73 102.41,-257.64 96.79,-248.87"/>
<polygon fill="#63b8ff" stroke="#63b8ff" points="99.9,-247.24 91.55,-240.72 94.01,-251.02 99.9,-247.24"/>
</g>
<!-- Node10&#45;&gt;Node2 -->
<g id="edge12" class="edge">
<title>Node10&#45;&gt;Node2</title>
<path fill="none" stroke="#63b8ff" d="M163.88,-274.51C149.33,-266.39 127.66,-254.3 110.71,-244.85"/>
<polygon fill="#63b8ff" stroke="#63b8ff" points="112.64,-241.91 102.2,-240.1 109.23,-248.02 112.64,-241.91"/>
</g>
<!-- Node11&#45;&gt;Node2 -->
<g id="edge14" class="edge">
<title>Node11&#45;&gt;Node2</title>
<path fill="none" stroke="#63b8ff" d="M31.03,-274.51C40.42,-266.85 54.15,-255.66 65.41,-246.47"/>
<polygon fill="#63b8ff" stroke="#63b8ff" points="67.43,-249.35 72.96,-240.31 63,-243.92 67.43,-249.35"/>
</g>
<!-- Node13&#45;&gt;Node5 -->
<g id="edge18" class="edge">
<title>Node13&#45;&gt;Node5</title>
<path fill="none" stroke="#63b8ff" d="M203.03,-164.51C223.82,-155.63 255.72,-141.99 278.5,-132.25"/>
<polygon fill="#63b8ff" stroke="#63b8ff" points="279.65,-135.57 287.47,-128.42 276.9,-129.13 279.65,-135.57"/>
</g>
<!-- Node14 -->
<g id="node14" class="node">
<title>Node14</title>
<g id="a_node14"><a xlink:title=" ">
<polygon fill="#e0e0e0" stroke="#999999" points="166.5,-129 115.5,-129 115.5,-110 166.5,-110 166.5,-129"/>
<text text-anchor="middle" x="141" y="-117" font-family="Helvetica,sans-Serif" font-size="10.00">stdarg.h</text>
</a>
</g>
</g>
<!-- Node13&#45;&gt;Node14 -->
<g id="edge17" class="edge">
<title>Node13&#45;&gt;Node14</title>
<path fill="none" stroke="#63b8ff" d="M175.23,-164.75C169.68,-157.58 161.66,-147.2 154.77,-138.3"/>
<polygon fill="#63b8ff" stroke="#63b8ff" points="157.73,-136.41 148.84,-130.64 152.19,-140.69 157.73,-136.41"/>
</g>
<!-- Node15&#45;&gt;Node5 -->
<g id="edge21" class="edge">
<title>Node15&#45;&gt;Node5</title>
<path fill="none" stroke="#63b8ff" d="M259.5,-164.51C267.43,-157 278.95,-146.1 288.54,-137.03"/>
<polygon fill="#63b8ff" stroke="#63b8ff" points="290.68,-139.81 295.54,-130.4 285.87,-134.73 290.68,-139.81"/>
</g>
<!-- Node15&#45;&gt;Node6 -->
<g id="edge20" class="edge">
<title>Node15&#45;&gt;Node6</title>
<path fill="none" stroke="#63b8ff" d="M277.22,-164.91C295.18,-157.93 317.91,-146.35 332,-129 342.11,-116.55 346.84,-98.84 349.06,-85.29"/>
<polygon fill="#63b8ff" stroke="#63b8ff" points="352.48,-86.14 350.27,-75.78 345.53,-85.25 352.48,-86.14"/>
</g>
<!-- Node15&#45;&gt;Node14 -->
<g id="edge22" class="edge">
<title>Node15&#45;&gt;Node14</title>
<path fill="none" stroke="#63b8ff" d="M231.51,-164.51C214.5,-156.24 189.01,-143.84 169.41,-134.31"/>
<polygon fill="#63b8ff" stroke="#63b8ff" points="171.1,-131.25 160.58,-130.02 168.04,-137.54 171.1,-131.25"/>
</g>
<!-- Node16 -->
<g id="node16" class="node">
<title>Node16</title>
<g id="a_node16"><a xlink:href="setjmp_8h.html" target="_top" xlink:title=" ">
<polygon fill="white" stroke="#666666" points="241.5,-74 188.5,-74 188.5,-55 241.5,-55 241.5,-74"/>
<text text-anchor="middle" x="215" y="-62" font-family="Helvetica,sans-Serif" font-size="10.00">setjmp.h</text>
</a>
</g>
</g>
<!-- Node15&#45;&gt;Node16 -->
<g id="edge23" class="edge">
<title>Node15&#45;&gt;Node16</title>
<path fill="none" stroke="#63b8ff" d="M239.84,-164.81C231.1,-156.6 219.1,-143.43 214,-129 209.09,-115.12 209.57,-98.45 211.16,-85.67"/>
<polygon fill="#63b8ff" stroke="#63b8ff" points="214.59,-86.36 212.72,-75.93 207.68,-85.26 214.59,-86.36"/>
</g>
<!-- Node17 -->
<g id="node17" class="node">
<title>Node17</title>
<g id="a_node17"><a xlink:href="ctype_8h.html" target="_top" xlink:title=" ">
<polygon fill="white" stroke="#666666" points="270.5,-129 223.5,-129 223.5,-110 270.5,-110 270.5,-129"/>
<text text-anchor="middle" x="247" y="-117" font-family="Helvetica,sans-Serif" font-size="10.00">ctype.h</text>
</a>
</g>
</g>
<!-- Node15&#45;&gt;Node17 -->
<g id="edge25" class="edge">
<title>Node15&#45;&gt;Node17</title>
<path fill="none" stroke="#63b8ff" d="M249.5,-164.75C249.14,-158.27 248.62,-149.16 248.15,-140.9"/>
<polygon fill="#63b8ff" stroke="#63b8ff" points="251.65,-140.74 247.59,-130.95 244.66,-141.13 251.65,-140.74"/>
</g>
<!-- Node16&#45;&gt;Node8 -->
<g id="edge24" class="edge">
<title>Node16&#45;&gt;Node8</title>
<path fill="none" stroke="#63b8ff" d="M221.61,-54.75C226.96,-47.66 234.68,-37.42 241.35,-28.59"/>
<polygon fill="#63b8ff" stroke="#63b8ff" points="244.11,-30.74 247.34,-20.65 238.52,-26.52 244.11,-30.74"/>
</g>
<!-- Node18&#45;&gt;Node5 -->
<g id="edge28" class="edge">
<title>Node18&#45;&gt;Node5</title>
<path fill="none" stroke="#63b8ff" d="M322.7,-164.75C320.17,-158.04 316.57,-148.52 313.37,-140.02"/>
<polygon fill="#63b8ff" stroke="#63b8ff" points="316.71,-138.98 309.91,-130.86 310.16,-141.45 316.71,-138.98"/>
</g>
<!-- Node18&#45;&gt;Node6 -->
<g id="edge27" class="edge">
<title>Node18&#45;&gt;Node6</title>
<path fill="none" stroke="#63b8ff" d="M337.36,-164.67C346.78,-156.56 359.5,-143.61 365,-129 370.42,-114.6 366.1,-97.54 360.88,-84.73"/>
<polygon fill="#63b8ff" stroke="#63b8ff" points="364.09,-83.33 356.71,-75.73 357.74,-86.27 364.09,-83.33"/>
</g>
<!-- Node19&#45;&gt;Node5 -->
<g id="edge31" class="edge">
<title>Node19&#45;&gt;Node5</title>
<path fill="none" stroke="#63b8ff" d="M389.04,-164.51C373.64,-156.35 350.69,-144.19 332.81,-134.71"/>
<polygon fill="#63b8ff" stroke="#63b8ff" points="334.53,-131.66 324.05,-130.07 331.25,-137.84 334.53,-131.66"/>
</g>
<!-- Node19&#45;&gt;Node6 -->
<g id="edge30" class="edge">
<title>Node19&#45;&gt;Node6</title>
<path fill="none" stroke="#63b8ff" d="M402.97,-164.64C398.57,-152.14 389.85,-128.78 380,-110 375.29,-101.03 369.29,-91.56 363.96,-83.68"/>
<polygon fill="#63b8ff" stroke="#63b8ff" points="366.96,-81.86 358.38,-75.64 361.21,-85.85 366.96,-81.86"/>
</g>
</g>
</svg>
