<?xml version="1.0" encoding="UTF-8" standalone="no"?>
<!DOCTYPE svg PUBLIC "-//W3C//DTD SVG 1.1//EN"
 "http://www.w3.org/Graphics/SVG/1.1/DTD/svg11.dtd">
<!-- Generated by graphviz version 7.0.5 (20221223.1930)
 -->
<!-- Title: iop/usb/usbd/src/usbdpriv.h Pages: 1 -->
<svg width="971pt" height="137pt"
 viewBox="0.00 0.00 970.50 137.00" xmlns="http://www.w3.org/2000/svg" xmlns:xlink="http://www.w3.org/1999/xlink">
<g id="graph0" class="graph" transform="scale(1 1) rotate(0) translate(4 133)">
<title>iop/usb/usbd/src/usbdpriv.h</title>
<!-- Node1 -->
<g id="node1" class="node">
<title>Node1</title>
<g id="a_node1"><a xlink:title=" ">
<polygon fill="#999999" stroke="#666666" points="470.5,-129 334.5,-129 334.5,-110 470.5,-110 470.5,-129"/>
<text text-anchor="middle" x="402.5" y="-117" font-family="Helvetica,sans-Serif" font-size="10.00">iop/usb/usbd/src/usbdpriv.h</text>
</a>
</g>
</g>
<!-- Node2 -->
<g id="node2" class="node">
<title>Node2</title>
<g id="a_node2"><a xlink:href="driver_8c.html" target="_top" xlink:title=" ">
<polygon fill="white" stroke="#666666" points="256,-19 133,-19 133,0 256,0 256,-19"/>
<text text-anchor="middle" x="194.5" y="-7" font-family="Helvetica,sans-Serif" font-size="10.00">iop/usb/usbd/src/driver.c</text>
</a>
</g>
</g>
<!-- Node1&#45;&gt;Node2 -->
<g id="edge1" class="edge">
<title>Node1&#45;&gt;Node2</title>
<path fill="none" stroke="#63b8ff" d="M322.69,-109.93C274.68,-103.07 219.79,-91.63 203.5,-74 189.6,-58.95 191.03,-32.73 192.94,-19.17"/>
<polygon fill="#63b8ff" stroke="#63b8ff" points="322.2,-113.4 332.58,-111.29 323.15,-106.46 322.2,-113.4"/>
</g>
<!-- Node3 -->
<g id="node3" class="node">
<title>Node3</title>
<g id="a_node3"><a xlink:href="driver_8h.html" target="_top" xlink:title=" ">
<polygon fill="white" stroke="#666666" points="336,-74 213,-74 213,-55 336,-55 336,-74"/>
<text text-anchor="middle" x="274.5" y="-62" font-family="Helvetica,sans-Serif" font-size="10.00">iop/usb/usbd/src/driver.h</text>
</a>
</g>
</g>
<!-- Node1&#45;&gt;Node3 -->
<g id="edge2" class="edge">
<title>Node1&#45;&gt;Node3</title>
<path fill="none" stroke="#63b8ff" d="M370.36,-105.19C347.07,-95.55 316.23,-82.78 295.89,-74.36"/>
<polygon fill="#63b8ff" stroke="#63b8ff" points="368.81,-108.34 379.39,-108.93 371.49,-101.87 368.81,-108.34"/>
</g>
<!-- Node4 -->
<g id="node4" class="node">
<title>Node4</title>
<g id="a_node4"><a xlink:href="hcd_8c.html" target="_top" xlink:title=" ">
<polygon fill="white" stroke="#666666" points="115,-19 0,-19 0,0 115,0 115,-19"/>
<text text-anchor="middle" x="57.5" y="-7" font-family="Helvetica,sans-Serif" font-size="10.00">iop/usb/usbd/src/hcd.c</text>
</a>
</g>
</g>
<!-- Node1&#45;&gt;Node4 -->
<g id="edge7" class="edge">
<title>Node1&#45;&gt;Node4</title>
<path fill="none" stroke="#63b8ff" d="M322.68,-114.47C219.44,-108.44 50.49,-95.4 31.5,-74 17.11,-57.78 36.32,-32.53 48.63,-19.28"/>
<polygon fill="#63b8ff" stroke="#63b8ff" points="322.31,-117.96 332.5,-115.04 322.71,-110.97 322.31,-117.96"/>
</g>
<!-- Node5 -->
<g id="node5" class="node">
<title>Node5</title>
<g id="a_node5"><a xlink:href="hub_8c.html" target="_top" xlink:title=" ">
<polygon fill="white" stroke="#666666" points="528,-19 413,-19 413,0 528,0 528,-19"/>
<text text-anchor="middle" x="470.5" y="-7" font-family="Helvetica,sans-Serif" font-size="10.00">iop/usb/usbd/src/hub.c</text>
</a>
</g>
</g>
<!-- Node1&#45;&gt;Node5 -->
<g id="edge12" class="edge">
<title>Node1&#45;&gt;Node5</title>
<path fill="none" stroke="#63b8ff" d="M405.59,-98.57C408.29,-85.44 413.13,-68.28 421.5,-55 430.81,-40.22 446.34,-27.3 457.42,-19.25"/>
<polygon fill="#63b8ff" stroke="#63b8ff" points="402.18,-97.72 403.88,-108.18 409.08,-98.95 402.18,-97.72"/>
</g>
<!-- Node6 -->
<g id="node6" class="node">
<title>Node6</title>
<g id="a_node6"><a xlink:href="interface_8c.html" target="_top" xlink:title=" ">
<polygon fill="white" stroke="#666666" points="683,-19 546,-19 546,0 683,0 683,-19"/>
<text text-anchor="middle" x="614.5" y="-7" font-family="Helvetica,sans-Serif" font-size="10.00">iop/usb/usbd/src/interface.c</text>
</a>
</g>
</g>
<!-- Node1&#45;&gt;Node6 -->
<g id="edge17" class="edge">
<title>Node1&#45;&gt;Node6</title>
<path fill="none" stroke="#63b8ff" d="M481.79,-117.56C558.4,-114.78 666.68,-105.23 693.5,-74 713.05,-51.24 671.51,-30.63 641.59,-19.4"/>
<polygon fill="#63b8ff" stroke="#63b8ff" points="482.13,-114.05 472.25,-117.88 482.36,-121.05 482.13,-114.05"/>
</g>
<!-- Node7 -->
<g id="node7" class="node">
<title>Node7</title>
<g id="a_node7"><a xlink:href="hcd_8h.html" target="_top" xlink:title=" ">
<polygon fill="white" stroke="#666666" points="546,-74 431,-74 431,-55 546,-55 546,-74"/>
<text text-anchor="middle" x="488.5" y="-62" font-family="Helvetica,sans-Serif" font-size="10.00">iop/usb/usbd/src/hcd.h</text>
</a>
</g>
</g>
<!-- Node1&#45;&gt;Node7 -->
<g id="edge8" class="edge">
<title>Node1&#45;&gt;Node7</title>
<path fill="none" stroke="#63b8ff" d="M426.47,-103.73C441.79,-94.29 461.15,-82.36 474.13,-74.36"/>
<polygon fill="#63b8ff" stroke="#63b8ff" points="425.05,-100.49 418.38,-108.72 428.73,-106.45 425.05,-100.49"/>
</g>
<!-- Node8 -->
<g id="node8" class="node">
<title>Node8</title>
<g id="a_node8"><a xlink:href="usbd_8c.html" target="_top" xlink:title=" ">
<polygon fill="white" stroke="#666666" points="394.5,-19 274.5,-19 274.5,0 394.5,0 394.5,-19"/>
<text text-anchor="middle" x="334.5" y="-7" font-family="Helvetica,sans-Serif" font-size="10.00">iop/usb/usbd/src/usbd.c</text>
</a>
</g>
</g>
<!-- Node1&#45;&gt;Node8 -->
<g id="edge27" class="edge">
<title>Node1&#45;&gt;Node8</title>
<path fill="none" stroke="#63b8ff" d="M390.96,-100.18C376.22,-76.76 351.26,-37.12 340.14,-19.46"/>
<polygon fill="#63b8ff" stroke="#63b8ff" points="387.84,-101.78 396.13,-108.38 393.76,-98.05 387.84,-101.78"/>
</g>
<!-- Node9 -->
<g id="node9" class="node">
<title>Node9</title>
<g id="a_node9"><a xlink:href="hub_8h.html" target="_top" xlink:title=" ">
<polygon fill="white" stroke="#666666" points="156,-74 41,-74 41,-55 156,-55 156,-74"/>
<text text-anchor="middle" x="98.5" y="-62" font-family="Helvetica,sans-Serif" font-size="10.00">iop/usb/usbd/src/hub.h</text>
</a>
</g>
</g>
<!-- Node1&#45;&gt;Node9 -->
<g id="edge13" class="edge">
<title>Node1&#45;&gt;Node9</title>
<path fill="none" stroke="#63b8ff" d="M339.71,-107.55C283.62,-97.77 202.45,-83.62 150.07,-74.49"/>
<polygon fill="#63b8ff" stroke="#63b8ff" points="338.99,-110.98 349.44,-109.25 340.19,-104.08 338.99,-110.98"/>
</g>
<!-- Node10 -->
<g id="node10" class="node">
<title>Node10</title>
<g id="a_node10"><a xlink:href="mem_8c.html" target="_top" xlink:title=" ">
<polygon fill="white" stroke="#666666" points="822,-19 701,-19 701,0 822,0 822,-19"/>
<text text-anchor="middle" x="761.5" y="-7" font-family="Helvetica,sans-Serif" font-size="10.00">iop/usb/usbd/src/mem.c</text>
</a>
</g>
</g>
<!-- Node1&#45;&gt;Node10 -->
<g id="edge18" class="edge">
<title>Node1&#45;&gt;Node10</title>
<path fill="none" stroke="#63b8ff" d="M482.2,-113.61C560.21,-107.65 672.66,-95.61 710.5,-74 733.34,-60.96 749.91,-33.35 757.27,-19.22"/>
<polygon fill="#63b8ff" stroke="#63b8ff" points="482.18,-110.1 472.47,-114.33 482.7,-117.08 482.18,-110.1"/>
</g>
<!-- Node11 -->
<g id="node11" class="node">
<title>Node11</title>
<g id="a_node11"><a xlink:href="mem_8h.html" target="_top" xlink:title=" ">
<polygon fill="white" stroke="#666666" points="685,-74 564,-74 564,-55 685,-55 685,-74"/>
<text text-anchor="middle" x="624.5" y="-62" font-family="Helvetica,sans-Serif" font-size="10.00">iop/usb/usbd/src/mem.h</text>
</a>
</g>
</g>
<!-- Node1&#45;&gt;Node11 -->
<g id="edge19" class="edge">
<title>Node1&#45;&gt;Node11</title>
<path fill="none" stroke="#63b8ff" d="M451.22,-106.87C492.11,-97.11 549.67,-83.37 587.03,-74.45"/>
<polygon fill="#63b8ff" stroke="#63b8ff" points="450.55,-103.43 441.63,-109.16 452.17,-110.24 450.55,-103.43"/>
</g>
<!-- Node12 -->
<g id="node12" class="node">
<title>Node12</title>
<g id="a_node12"><a xlink:href="usbio_8c.html" target="_top" xlink:title=" ">
<polygon fill="white" stroke="#666666" points="962.5,-19 840.5,-19 840.5,0 962.5,0 962.5,-19"/>
<text text-anchor="middle" x="901.5" y="-7" font-family="Helvetica,sans-Serif" font-size="10.00">iop/usb/usbd/src/usbio.c</text>
</a>
</g>
</g>
<!-- Node1&#45;&gt;Node12 -->
<g id="edge28" class="edge">
<title>Node1&#45;&gt;Node12</title>
<path fill="none" stroke="#63b8ff" d="M482.05,-113.1C550.14,-107.23 650.36,-95.66 735.5,-74 790.52,-60 852.21,-33.32 882.55,-19.42"/>
<polygon fill="#63b8ff" stroke="#63b8ff" points="482.17,-109.57 472.49,-113.9 482.75,-116.55 482.17,-109.57"/>
</g>
<!-- Node3&#45;&gt;Node2 -->
<g id="edge3" class="edge">
<title>Node3&#45;&gt;Node2</title>
<path fill="none" stroke="#63b8ff" d="M251.39,-48.19C237.27,-38.84 219.72,-27.21 207.87,-19.36"/>
<polygon fill="#63b8ff" stroke="#63b8ff" points="249.4,-51.07 259.67,-53.67 253.26,-45.23 249.4,-51.07"/>
</g>
<!-- Node3&#45;&gt;Node4 -->
<g id="edge4" class="edge">
<title>Node3&#45;&gt;Node4</title>
<path fill="none" stroke="#63b8ff" d="M226.62,-51.81C186.67,-42.05 130.57,-28.35 94.13,-19.45"/>
<polygon fill="#63b8ff" stroke="#63b8ff" points="225.67,-55.18 236.22,-54.15 227.33,-48.38 225.67,-55.18"/>
</g>
<!-- Node3&#45;&gt;Node5 -->
<g id="edge5" class="edge">
<title>Node3&#45;&gt;Node5</title>
<path fill="none" stroke="#63b8ff" d="M318.44,-51.62C354.48,-41.87 404.71,-28.29 437.42,-19.45"/>
<polygon fill="#63b8ff" stroke="#63b8ff" points="317.95,-48.13 309.21,-54.11 319.78,-54.88 317.95,-48.13"/>
</g>
<!-- Node3&#45;&gt;Node6 -->
<g id="edge6" class="edge">
<title>Node3&#45;&gt;Node6</title>
<path fill="none" stroke="#63b8ff" d="M343.55,-52.74C406.32,-42.95 497.88,-28.68 556.83,-19.49"/>
<polygon fill="#63b8ff" stroke="#63b8ff" points="343.01,-49.28 333.67,-54.28 344.09,-56.19 343.01,-49.28"/>
</g>
<!-- Node7&#45;&gt;Node5 -->
<g id="edge9" class="edge">
<title>Node7&#45;&gt;Node5</title>
<path fill="none" stroke="#63b8ff" d="M481.85,-43.93C479,-35.53 475.81,-26.13 473.54,-19.44"/>
<polygon fill="#63b8ff" stroke="#63b8ff" points="478.51,-44.97 485.04,-53.31 485.14,-42.72 478.51,-44.97"/>
</g>
<!-- Node7&#45;&gt;Node6 -->
<g id="edge10" class="edge">
<title>Node7&#45;&gt;Node6</title>
<path fill="none" stroke="#63b8ff" d="M520.45,-50.06C543.34,-40.43 573.52,-27.74 593.44,-19.36"/>
<polygon fill="#63b8ff" stroke="#63b8ff" points="519.13,-46.82 511.27,-53.92 521.84,-53.27 519.13,-46.82"/>
</g>
<!-- Node7&#45;&gt;Node8 -->
<g id="edge11" class="edge">
<title>Node7&#45;&gt;Node8</title>
<path fill="none" stroke="#63b8ff" d="M451.76,-50.85C423.63,-41.17 385.53,-28.06 360.49,-19.45"/>
<polygon fill="#63b8ff" stroke="#63b8ff" points="450.35,-54.07 460.94,-54.02 452.63,-47.45 450.35,-54.07"/>
</g>
<!-- Node9&#45;&gt;Node2 -->
<g id="edge14" class="edge">
<title>Node9&#45;&gt;Node2</title>
<path fill="none" stroke="#63b8ff" d="M124.76,-49C141.94,-39.52 163.83,-27.43 178.46,-19.36"/>
<polygon fill="#63b8ff" stroke="#63b8ff" points="123.17,-45.88 116.11,-53.78 126.56,-52.01 123.17,-45.88"/>
</g>
<!-- Node9&#45;&gt;Node4 -->
<g id="edge15" class="edge">
<title>Node9&#45;&gt;Node4</title>
<path fill="none" stroke="#63b8ff" d="M84.69,-45.65C77.87,-36.84 69.95,-26.59 64.42,-19.44"/>
<polygon fill="#63b8ff" stroke="#63b8ff" points="81.92,-47.78 90.8,-53.55 87.45,-43.5 81.92,-47.78"/>
</g>
<!-- Node9&#45;&gt;Node8 -->
<g id="edge16" class="edge">
<title>Node9&#45;&gt;Node8</title>
<path fill="none" stroke="#63b8ff" d="M149.74,-51.99C193.24,-42.22 254.78,-28.4 294.66,-19.45"/>
<polygon fill="#63b8ff" stroke="#63b8ff" points="149,-48.57 140.01,-54.18 150.53,-55.4 149,-48.57"/>
</g>
<!-- Node11&#45;&gt;Node2 -->
<g id="edge20" class="edge">
<title>Node11&#45;&gt;Node2</title>
<path fill="none" stroke="#63b8ff" d="M552.45,-54.62C469.5,-44.4 334.63,-27.77 256.28,-18.11"/>
<polygon fill="#63b8ff" stroke="#63b8ff" points="551.95,-58.08 562.3,-55.83 552.8,-51.14 551.95,-58.08"/>
</g>
<!-- Node11&#45;&gt;Node4 -->
<g id="edge21" class="edge">
<title>Node11&#45;&gt;Node4</title>
<path fill="none" stroke="#63b8ff" d="M552.52,-54.84C361.37,-35.55 311.01,-38.9 123.5,-19 120.86,-18.72 118.16,-18.42 115.43,-18.11"/>
<polygon fill="#63b8ff" stroke="#63b8ff" points="552,-58.31 562.3,-55.84 552.71,-51.34 552,-58.31"/>
</g>
<!-- Node11&#45;&gt;Node5 -->
<g id="edge22" class="edge">
<title>Node11&#45;&gt;Node5</title>
<path fill="none" stroke="#63b8ff" d="M587.76,-50.85C559.63,-41.17 521.53,-28.06 496.49,-19.45"/>
<polygon fill="#63b8ff" stroke="#63b8ff" points="586.35,-54.07 596.94,-54.02 588.63,-47.45 586.35,-54.07"/>
</g>
<!-- Node11&#45;&gt;Node6 -->
<g id="edge23" class="edge">
<title>Node11&#45;&gt;Node6</title>
<path fill="none" stroke="#63b8ff" d="M620.75,-43.64C619.18,-35.31 617.43,-26.05 616.19,-19.44"/>
<polygon fill="#63b8ff" stroke="#63b8ff" points="617.27,-44.08 622.57,-53.26 624.15,-42.79 617.27,-44.08"/>
</g>
<!-- Node11&#45;&gt;Node8 -->
<g id="edge25" class="edge">
<title>Node11&#45;&gt;Node8</title>
<path fill="none" stroke="#63b8ff" d="M564.25,-52.49C510.67,-42.7 433.3,-28.56 383.45,-19.45"/>
<polygon fill="#63b8ff" stroke="#63b8ff" points="563.35,-55.88 573.82,-54.24 564.61,-49 563.35,-55.88"/>
</g>
<!-- Node11&#45;&gt;Node10 -->
<g id="edge24" class="edge">
<title>Node11&#45;&gt;Node10</title>
<path fill="none" stroke="#63b8ff" d="M658.22,-50.45C683.23,-40.78 716.64,-27.85 738.6,-19.36"/>
<polygon fill="#63b8ff" stroke="#63b8ff" points="657.22,-47.09 649.15,-53.96 659.74,-53.62 657.22,-47.09"/>
</g>
<!-- Node11&#45;&gt;Node12 -->
<g id="edge26" class="edge">
<title>Node11&#45;&gt;Node12</title>
<path fill="none" stroke="#63b8ff" d="M682.69,-52.37C733.84,-42.58 807.33,-28.52 854.74,-19.45"/>
<polygon fill="#63b8ff" stroke="#63b8ff" points="682.14,-48.91 672.98,-54.22 683.46,-55.78 682.14,-48.91"/>
</g>
</g>
</svg>
