<?xml version="1.0" encoding="UTF-8" standalone="no"?>
<!DOCTYPE svg PUBLIC "-//W3C//DTD SVG 1.1//EN"
 "http://www.w3.org/Graphics/SVG/1.1/DTD/svg11.dtd">
<!-- Generated by graphviz version 7.0.5 (20221223.1930)
 -->
<!-- Title: iop/usb/usbd/src/usbdpriv.h Pages: 1 -->
<svg width="180pt" height="247pt"
 viewBox="0.00 0.00 180.00 247.00" xmlns="http://www.w3.org/2000/svg" xmlns:xlink="http://www.w3.org/1999/xlink">
<g id="graph0" class="graph" transform="scale(1 1) rotate(0) translate(4 243)">
<title>iop/usb/usbd/src/usbdpriv.h</title>
<!-- Node1 -->
<g id="node1" class="node">
<title>Node1</title>
<g id="a_node1"><a xlink:title=" ">
<polygon fill="#999999" stroke="#666666" points="136,-239 0,-239 0,-220 136,-220 136,-239"/>
<text text-anchor="middle" x="68" y="-227" font-family="Helvetica,sans-Serif" font-size="10.00">iop/usb/usbd/src/usbdpriv.h</text>
</a>
</g>
</g>
<!-- Node2 -->
<g id="node2" class="node">
<title>Node2</title>
<g id="a_node2"><a xlink:href="usbd_8h.html" target="_top" xlink:title=" ">
<polygon fill="white" stroke="#666666" points="116.5,-184 71.5,-184 71.5,-165 116.5,-165 116.5,-184"/>
<text text-anchor="middle" x="94" y="-172" font-family="Helvetica,sans-Serif" font-size="10.00">usbd.h</text>
</a>
</g>
</g>
<!-- Node1&#45;&gt;Node2 -->
<g id="edge1" class="edge">
<title>Node1&#45;&gt;Node2</title>
<path fill="none" stroke="#63b8ff" d="M72.29,-219.75C75.62,-212.96 80.36,-203.3 84.56,-194.73"/>
<polygon fill="#63b8ff" stroke="#63b8ff" points="87.68,-196.32 88.95,-185.8 81.4,-193.24 87.68,-196.32"/>
</g>
<!-- Node3 -->
<g id="node3" class="node">
<title>Node3</title>
<g id="a_node3"><a xlink:title=" ">
<polygon fill="#e0e0e0" stroke="#999999" points="66.5,-129 19.5,-129 19.5,-110 66.5,-110 66.5,-129"/>
<text text-anchor="middle" x="43" y="-117" font-family="Helvetica,sans-Serif" font-size="10.00">types.h</text>
</a>
</g>
</g>
<!-- Node1&#45;&gt;Node3 -->
<g id="edge7" class="edge">
<title>Node1&#45;&gt;Node3</title>
<path fill="none" stroke="#63b8ff" d="M65.95,-219.66C61.98,-202.5 53.13,-164.26 47.65,-140.6"/>
<polygon fill="#63b8ff" stroke="#63b8ff" points="51.08,-139.89 45.42,-130.93 44.26,-141.47 51.08,-139.89"/>
</g>
<!-- Node2&#45;&gt;Node3 -->
<g id="edge2" class="edge">
<title>Node2&#45;&gt;Node3</title>
<path fill="none" stroke="#63b8ff" d="M85.58,-164.75C78.53,-157.43 68.27,-146.76 59.59,-137.74"/>
<polygon fill="#63b8ff" stroke="#63b8ff" points="62.11,-135.31 52.65,-130.53 57.07,-140.17 62.11,-135.31"/>
</g>
<!-- Node4 -->
<g id="node4" class="node">
<title>Node4</title>
<g id="a_node4"><a xlink:href="irx_8h.html" target="_top" xlink:title=" ">
<polygon fill="white" stroke="#666666" points="119,-129 85,-129 85,-110 119,-110 119,-129"/>
<text text-anchor="middle" x="102" y="-117" font-family="Helvetica,sans-Serif" font-size="10.00">irx.h</text>
</a>
</g>
</g>
<!-- Node2&#45;&gt;Node4 -->
<g id="edge3" class="edge">
<title>Node2&#45;&gt;Node4</title>
<path fill="none" stroke="#63b8ff" d="M95.32,-164.75C96.31,-158.19 97.71,-148.95 98.97,-140.6"/>
<polygon fill="#63b8ff" stroke="#63b8ff" points="102.39,-141.35 100.42,-130.94 95.47,-140.3 102.39,-141.35"/>
</g>
<!-- Node5 -->
<g id="node5" class="node">
<title>Node5</title>
<g id="a_node5"><a xlink:href="iop_2kernel_2include_2types_8h_source.html" target="_top" xlink:title=" ">
<polygon fill="white" stroke="#666666" points="125.5,-74 78.5,-74 78.5,-55 125.5,-55 125.5,-74"/>
<text text-anchor="middle" x="102" y="-62" font-family="Helvetica,sans-Serif" font-size="10.00">types.h</text>
</a>
</g>
</g>
<!-- Node4&#45;&gt;Node5 -->
<g id="edge4" class="edge">
<title>Node4&#45;&gt;Node5</title>
<path fill="none" stroke="#63b8ff" d="M102,-109.75C102,-103.27 102,-94.16 102,-85.9"/>
<polygon fill="#63b8ff" stroke="#63b8ff" points="105.5,-85.96 102,-75.96 98.5,-85.96 105.5,-85.96"/>
</g>
<!-- Node6 -->
<g id="node6" class="node">
<title>Node6</title>
<g id="a_node6"><a xlink:title=" ">
<polygon fill="#e0e0e0" stroke="#999999" points="89.5,-19 38.5,-19 38.5,0 89.5,0 89.5,-19"/>
<text text-anchor="middle" x="64" y="-7" font-family="Helvetica,sans-Serif" font-size="10.00">stddef.h</text>
</a>
</g>
</g>
<!-- Node5&#45;&gt;Node6 -->
<g id="edge5" class="edge">
<title>Node5&#45;&gt;Node6</title>
<path fill="none" stroke="#63b8ff" d="M95.73,-54.75C90.64,-47.66 83.3,-37.42 76.97,-28.59"/>
<polygon fill="#63b8ff" stroke="#63b8ff" points="79.96,-26.76 71.29,-20.67 74.28,-30.84 79.96,-26.76"/>
</g>
<!-- Node7 -->
<g id="node7" class="node">
<title>Node7</title>
<g id="a_node7"><a xlink:href="tamtypes_8h.html" target="_top" xlink:title=" ">
<polygon fill="white" stroke="#666666" points="172,-19 108,-19 108,0 172,0 172,-19"/>
<text text-anchor="middle" x="140" y="-7" font-family="Helvetica,sans-Serif" font-size="10.00">tamtypes.h</text>
</a>
</g>
</g>
<!-- Node5&#45;&gt;Node7 -->
<g id="edge6" class="edge">
<title>Node5&#45;&gt;Node7</title>
<path fill="none" stroke="#63b8ff" d="M108.27,-54.75C113.36,-47.66 120.7,-37.42 127.03,-28.59"/>
<polygon fill="#63b8ff" stroke="#63b8ff" points="129.72,-30.84 132.71,-20.67 124.04,-26.76 129.72,-30.84"/>
</g>
</g>
</svg>
