<?xml version="1.0" encoding="UTF-8" standalone="no"?>
<!DOCTYPE svg PUBLIC "-//W3C//DTD SVG 1.1//EN"
 "http://www.w3.org/Graphics/SVG/1.1/DTD/svg11.dtd">
<!-- Generated by graphviz version 7.0.5 (20221223.1930)
 -->
<!-- Title: iop/usb/usbd/include/usbd.h Pages: 1 -->
<svg width="161pt" height="203pt"
 viewBox="0.00 0.00 161.00 203.00" xmlns="http://www.w3.org/2000/svg" xmlns:xlink="http://www.w3.org/1999/xlink">
<g id="graph0" class="graph" transform="scale(1 1) rotate(0) translate(4 199)">
<title>iop/usb/usbd/include/usbd.h</title>
<!-- Node1 -->
<g id="node1" class="node">
<title>Node1</title>
<g id="a_node1"><a xlink:title=" ">
<polygon fill="#999999" stroke="#666666" points="106,-195 0,-195 0,-165 106,-165 106,-195"/>
<text text-anchor="start" x="8" y="-183" font-family="Helvetica,sans-Serif" font-size="10.00">iop/usb/usbd/include</text>
<text text-anchor="middle" x="53" y="-172" font-family="Helvetica,sans-Serif" font-size="10.00">/usbd.h</text>
</a>
</g>
</g>
<!-- Node2 -->
<g id="node2" class="node">
<title>Node2</title>
<g id="a_node2"><a xlink:title=" ">
<polygon fill="#e0e0e0" stroke="#999999" points="47.5,-129 0.5,-129 0.5,-110 47.5,-110 47.5,-129"/>
<text text-anchor="middle" x="24" y="-117" font-family="Helvetica,sans-Serif" font-size="10.00">types.h</text>
</a>
</g>
</g>
<!-- Node1&#45;&gt;Node2 -->
<g id="edge1" class="edge">
<title>Node1&#45;&gt;Node2</title>
<path fill="none" stroke="#63b8ff" d="M45.83,-164.54C42.05,-156.91 37.36,-147.46 33.3,-139.27"/>
<polygon fill="#63b8ff" stroke="#63b8ff" points="36.55,-137.94 28.97,-130.53 30.28,-141.05 36.55,-137.94"/>
</g>
<!-- Node3 -->
<g id="node3" class="node">
<title>Node3</title>
<g id="a_node3"><a xlink:href="irx_8h.html" target="_top" xlink:title=" ">
<polygon fill="white" stroke="#666666" points="100,-129 66,-129 66,-110 100,-110 100,-129"/>
<text text-anchor="middle" x="83" y="-117" font-family="Helvetica,sans-Serif" font-size="10.00">irx.h</text>
</a>
</g>
</g>
<!-- Node1&#45;&gt;Node3 -->
<g id="edge2" class="edge">
<title>Node1&#45;&gt;Node3</title>
<path fill="none" stroke="#63b8ff" d="M60.42,-164.54C64.33,-156.91 69.18,-147.46 73.37,-139.27"/>
<polygon fill="#63b8ff" stroke="#63b8ff" points="76.41,-141.02 77.86,-130.52 70.18,-137.82 76.41,-141.02"/>
</g>
<!-- Node4 -->
<g id="node4" class="node">
<title>Node4</title>
<g id="a_node4"><a xlink:href="iop_2kernel_2include_2types_8h_source.html" target="_top" xlink:title=" ">
<polygon fill="white" stroke="#666666" points="106.5,-74 59.5,-74 59.5,-55 106.5,-55 106.5,-74"/>
<text text-anchor="middle" x="83" y="-62" font-family="Helvetica,sans-Serif" font-size="10.00">types.h</text>
</a>
</g>
</g>
<!-- Node3&#45;&gt;Node4 -->
<g id="edge3" class="edge">
<title>Node3&#45;&gt;Node4</title>
<path fill="none" stroke="#63b8ff" d="M83,-109.75C83,-103.27 83,-94.16 83,-85.9"/>
<polygon fill="#63b8ff" stroke="#63b8ff" points="86.5,-85.96 83,-75.96 79.5,-85.96 86.5,-85.96"/>
</g>
<!-- Node5 -->
<g id="node5" class="node">
<title>Node5</title>
<g id="a_node5"><a xlink:title=" ">
<polygon fill="#e0e0e0" stroke="#999999" points="70.5,-19 19.5,-19 19.5,0 70.5,0 70.5,-19"/>
<text text-anchor="middle" x="45" y="-7" font-family="Helvetica,sans-Serif" font-size="10.00">stddef.h</text>
</a>
</g>
</g>
<!-- Node4&#45;&gt;Node5 -->
<g id="edge4" class="edge">
<title>Node4&#45;&gt;Node5</title>
<path fill="none" stroke="#63b8ff" d="M76.73,-54.75C71.64,-47.66 64.3,-37.42 57.97,-28.59"/>
<polygon fill="#63b8ff" stroke="#63b8ff" points="60.96,-26.76 52.29,-20.67 55.28,-30.84 60.96,-26.76"/>
</g>
<!-- Node6 -->
<g id="node6" class="node">
<title>Node6</title>
<g id="a_node6"><a xlink:href="tamtypes_8h.html" target="_top" xlink:title=" ">
<polygon fill="white" stroke="#666666" points="153,-19 89,-19 89,0 153,0 153,-19"/>
<text text-anchor="middle" x="121" y="-7" font-family="Helvetica,sans-Serif" font-size="10.00">tamtypes.h</text>
</a>
</g>
</g>
<!-- Node4&#45;&gt;Node6 -->
<g id="edge5" class="edge">
<title>Node4&#45;&gt;Node6</title>
<path fill="none" stroke="#63b8ff" d="M89.27,-54.75C94.36,-47.66 101.7,-37.42 108.03,-28.59"/>
<polygon fill="#63b8ff" stroke="#63b8ff" points="110.72,-30.84 113.71,-20.67 105.04,-26.76 110.72,-30.84"/>
</g>
</g>
</svg>
