<?xml version="1.0" encoding="UTF-8" standalone="no"?>
<!DOCTYPE svg PUBLIC "-//W3C//DTD SVG 1.1//EN"
 "http://www.w3.org/Graphics/SVG/1.1/DTD/svg11.dtd">
<!-- Generated by graphviz version 7.0.5 (20221223.1930)
 -->
<!-- Title: iop/usb/usbd/include/usbd.h Pages: 1 -->
<!--zoomable 225 -->
<svg id="main" version="1.1" xmlns="http://www.w3.org/2000/svg" xmlns:xlink="http://www.w3.org/1999/xlink" xml:space="preserve" onload="init(evt)">
<style type="text/css"><![CDATA[
.edge:hover path { stroke: red; }
.edge:hover polygon { stroke: red; fill: red; }
]]></style>
<script type="text/javascript"><![CDATA[
var edges = document.getElementsByTagName('g');
if (edges && edges.length) {
  for (var i=0;i<edges.length;i++) {
    if (edges[i].id.substr(0,4)=='edge') {
      edges[i].setAttribute('class','edge');
    }
  }
}
]]></script>
        <defs>
                <circle id="rim" cx="0" cy="0" r="7"/>
                <circle id="rim2" cx="0" cy="0" r="3.5"/>
                <g id="zoomPlus">
                        <use xlink:href="#rim" fill="#404040">
                                <set attributeName="fill" to="#808080" begin="zoomplus.mouseover" end="zoomplus.mouseout"/>
                        </use>
                        <path d="M-4,0h8M0,-4v8" fill="none" stroke="white" stroke-width="1.5" pointer-events="none"/>
                </g>
                <g id="zoomMin">
                        <use xlink:href="#rim" fill="#404040">
                                <set attributeName="fill" to="#808080" begin="zoomminus.mouseover" end="zoomminus.mouseout"/>
                        </use>
                        <path d="M-4,0h8" fill="none" stroke="white" stroke-width="1.5" pointer-events="none"/>
                </g>
                <g id="dirArrow">
                        <path fill="none" stroke="white" stroke-width="1.5" d="M0,-3.0v7 M-2.5,-0.5L0,-3.0L2.5,-0.5"/>
                </g>
               <g id="resetDef">
                       <use xlink:href="#rim2" fill="#404040">
                               <set attributeName="fill" to="#808080" begin="reset.mouseover" end="reset.mouseout"/>
                       </use>
               </g>
        </defs>

<script type="text/javascript">
var viewWidth = 1621;
var viewHeight = 225;
var sectionId = 'dynsection-1';
</script>
<script xlink:href="svgpan.js"/>
<svg id="graph" class="graph">
<g id="viewport">
<title>iop/usb/usbd/include/usbd.h</title>
<!-- Node1 -->
<g id="node1" class="node">
<title>Node1</title>
<g id="a_node1"><a xlink:title=" ">
<polygon fill="#999999" stroke="#666666" points="540,-217 434,-217 434,-187 540,-187 540,-217"/>
<text text-anchor="start" x="442" y="-205" font-family="Helvetica,sans-Serif" font-size="10.00">iop/usb/usbd/include</text>
<text text-anchor="middle" x="487" y="-194" font-family="Helvetica,sans-Serif" font-size="10.00">/usbd.h</text>
</a>
</g>
</g>
<!-- Node2 -->
<g id="node2" class="node">
<title>Node2</title>
<g id="a_node2"><a xlink:href="iop_2usb_2camera_2src_2irx__imports_8h_source.html" target="_top" xlink:title=" ">
<polygon fill="white" stroke="#666666" points="202,-151 102,-151 102,-121 202,-121 202,-151"/>
<text text-anchor="start" x="110" y="-139" font-family="Helvetica,sans-Serif" font-size="10.00">iop/usb/camera/src</text>
<text text-anchor="middle" x="152" y="-128" font-family="Helvetica,sans-Serif" font-size="10.00">/irx_imports.h</text>
</a>
</g>
</g>
<!-- Node1&#45;&gt;Node2 -->
<g id="edge1" class="edge">
<title>Node1&#45;&gt;Node2</title>
<path fill="none" stroke="#63b8ff" d="M422.36,-189.69C367.38,-179.92 286.38,-165.19 216,-151 211.54,-150.1 206.91,-149.14 202.28,-148.16"/>
<polygon fill="#63b8ff" stroke="#63b8ff" points="421.73,-193.13 432.19,-191.43 422.95,-186.24 421.73,-193.13"/>
</g>
<!-- Node3 -->
<g id="node3" class="node">
<title>Node3</title>
<g id="a_node3"><a xlink:href="ps2cam_8c.html" target="_top" xlink:title=" ">
<polygon fill="white" stroke="#666666" points="100,-85 0,-85 0,-55 100,-55 100,-85"/>
<text text-anchor="start" x="8" y="-73" font-family="Helvetica,sans-Serif" font-size="10.00">iop/usb/camera/src</text>
<text text-anchor="middle" x="50" y="-62" font-family="Helvetica,sans-Serif" font-size="10.00">/ps2cam.c</text>
</a>
</g>
</g>
<!-- Node1&#45;&gt;Node3 -->
<g id="edge2" class="edge">
<title>Node1&#45;&gt;Node3</title>
<path fill="none" stroke="#63b8ff" d="M422.45,-197.07C371.62,-191.83 300.22,-179.58 244,-151 226.33,-142.02 228.21,-130.84 211,-121 191.94,-110.1 139.94,-94.81 100.15,-84.01"/>
<polygon fill="#63b8ff" stroke="#63b8ff" points="421.82,-200.53 432.11,-198 422.49,-193.56 421.82,-200.53"/>
</g>
<!-- Node4 -->
<g id="node4" class="node">
<title>Node4</title>
<g id="a_node4"><a xlink:href="iop_2usb_2keyboard_2src_2irx__imports_8h_source.html" target="_top" xlink:title=" ">
<polygon fill="white" stroke="#666666" points="641.5,-151 534.5,-151 534.5,-121 641.5,-121 641.5,-151"/>
<text text-anchor="start" x="542.5" y="-139" font-family="Helvetica,sans-Serif" font-size="10.00">iop/usb/keyboard/src</text>
<text text-anchor="middle" x="588" y="-128" font-family="Helvetica,sans-Serif" font-size="10.00">/irx_imports.h</text>
</a>
</g>
</g>
<!-- Node1&#45;&gt;Node4 -->
<g id="edge3" class="edge">
<title>Node1&#45;&gt;Node4</title>
<path fill="none" stroke="#63b8ff" d="M519.13,-180.64C534.19,-171.09 551.78,-159.95 565.41,-151.31"/>
<polygon fill="#63b8ff" stroke="#63b8ff" points="517.52,-177.52 510.94,-185.83 521.27,-183.43 517.52,-177.52"/>
</g>
<!-- Node5 -->
<g id="node5" class="node">
<title>Node5</title>
<g id="a_node5"><a xlink:href="ps2kbd_8c.html" target="_top" xlink:title=" ">
<polygon fill="white" stroke="#666666" points="225.5,-85 118.5,-85 118.5,-55 225.5,-55 225.5,-85"/>
<text text-anchor="start" x="126.5" y="-73" font-family="Helvetica,sans-Serif" font-size="10.00">iop/usb/keyboard/src</text>
<text text-anchor="middle" x="172" y="-62" font-family="Helvetica,sans-Serif" font-size="10.00">/ps2kbd.c</text>
</a>
</g>
</g>
<!-- Node1&#45;&gt;Node5 -->
<g id="edge4" class="edge">
<title>Node1&#45;&gt;Node5</title>
<path fill="none" stroke="#63b8ff" d="M422.6,-191.07C382.39,-183.39 330.23,-170.67 287,-151 265.79,-141.35 263.13,-134.31 244,-121 226.76,-109 207.19,-95.41 192.8,-85.43"/>
<polygon fill="#63b8ff" stroke="#63b8ff" points="421.92,-194.5 432.38,-192.88 423.19,-187.62 421.92,-194.5"/>
</g>
<!-- Node6 -->
<g id="node6" class="node">
<title>Node6</title>
<g id="a_node6"><a xlink:href="iop_2usb_2mouse_2src_2irx__imports_8h_source.html" target="_top" xlink:title=" ">
<polygon fill="white" stroke="#666666" points="770,-151 660,-151 660,-121 770,-121 770,-151"/>
<text text-anchor="start" x="668" y="-139" font-family="Helvetica,sans-Serif" font-size="10.00">iop/usb/mouse/src/irx</text>
<text text-anchor="middle" x="715" y="-128" font-family="Helvetica,sans-Serif" font-size="10.00">_imports.h</text>
</a>
</g>
</g>
<!-- Node1&#45;&gt;Node6 -->
<g id="edge5" class="edge">
<title>Node1&#45;&gt;Node6</title>
<path fill="none" stroke="#63b8ff" d="M549.3,-183.51C585.23,-173.43 629.85,-160.9 663.74,-151.39"/>
<polygon fill="#63b8ff" stroke="#63b8ff" points="548.59,-180.08 539.91,-186.15 550.48,-186.82 548.59,-180.08"/>
</g>
<!-- Node7 -->
<g id="node7" class="node">
<title>Node7</title>
<g id="a_node7"><a xlink:href="ps2mouse_8c.html" target="_top" xlink:title=" ">
<polygon fill="white" stroke="#666666" points="396,-79.5 244,-79.5 244,-60.5 396,-60.5 396,-79.5"/>
<text text-anchor="middle" x="320" y="-67.5" font-family="Helvetica,sans-Serif" font-size="10.00">iop/usb/mouse/src/ps2mouse.c</text>
</a>
</g>
</g>
<!-- Node1&#45;&gt;Node7 -->
<g id="edge6" class="edge">
<title>Node1&#45;&gt;Node7</title>
<path fill="none" stroke="#63b8ff" d="M468.46,-177.93C454,-160.87 432.76,-137.78 411,-121 388.59,-103.72 359.44,-88.83 340.25,-79.9"/>
<polygon fill="#63b8ff" stroke="#63b8ff" points="465.71,-180.1 474.8,-185.55 471.09,-175.62 465.71,-180.1"/>
</g>
<!-- Node8 -->
<g id="node8" class="node">
<title>Node8</title>
<g id="a_node8"><a xlink:href="usbd__macro_8h.html" target="_top" xlink:title=" ">
<polygon fill="white" stroke="#666666" points="402,-151 296,-151 296,-121 402,-121 402,-151"/>
<text text-anchor="start" x="304" y="-139" font-family="Helvetica,sans-Serif" font-size="10.00">iop/usb/usbd/include</text>
<text text-anchor="middle" x="349" y="-128" font-family="Helvetica,sans-Serif" font-size="10.00">/usbd_macro.h</text>
</a>
</g>
</g>
<!-- Node1&#45;&gt;Node8 -->
<g id="edge7" class="edge">
<title>Node1&#45;&gt;Node8</title>
<path fill="none" stroke="#63b8ff" d="M445.72,-181.86C424.59,-172.05 399.29,-160.32 379.87,-151.31"/>
<polygon fill="#63b8ff" stroke="#63b8ff" points="444.11,-184.97 454.66,-186 447.06,-178.62 444.11,-184.97"/>
</g>
<!-- Node9 -->
<g id="node9" class="node">
<title>Node9</title>
<g id="a_node9"><a xlink:href="usb__driver_8c_source.html" target="_top" xlink:title=" ">
<polygon fill="white" stroke="#666666" points="521.5,-85 414.5,-85 414.5,-55 521.5,-55 521.5,-85"/>
<text text-anchor="start" x="422.5" y="-73" font-family="Helvetica,sans-Serif" font-size="10.00">iop/usb/usbhdfsd/src</text>
<text text-anchor="middle" x="468" y="-62" font-family="Helvetica,sans-Serif" font-size="10.00">/usb_driver.c</text>
</a>
</g>
</g>
<!-- Node1&#45;&gt;Node9 -->
<g id="edge43" class="edge">
<title>Node1&#45;&gt;Node9</title>
<path fill="none" stroke="#63b8ff" d="M483.25,-175.38C479.33,-148.49 473.29,-107.18 470.12,-85.47"/>
<polygon fill="#63b8ff" stroke="#63b8ff" points="479.77,-175.7 484.68,-185.09 486.69,-174.69 479.77,-175.7"/>
</g>
<!-- Node10 -->
<g id="node10" class="node">
<title>Node10</title>
<g id="a_node10"><a xlink:href="usb__mass_8c_source.html" target="_top" xlink:title=" ">
<polygon fill="white" stroke="#666666" points="646.5,-85 539.5,-85 539.5,-55 646.5,-55 646.5,-85"/>
<text text-anchor="start" x="547.5" y="-73" font-family="Helvetica,sans-Serif" font-size="10.00">iop/usb/usbmass_bd</text>
<text text-anchor="middle" x="593" y="-62" font-family="Helvetica,sans-Serif" font-size="10.00">/src/usb_mass.c</text>
</a>
</g>
</g>
<!-- Node1&#45;&gt;Node10 -->
<g id="edge45" class="edge">
<title>Node1&#45;&gt;Node10</title>
<path fill="none" stroke="#63b8ff" d="M495.26,-175.86C501.6,-159.11 511.56,-137.28 525,-121 536.85,-106.65 553.68,-94.23 567.63,-85.36"/>
<polygon fill="#63b8ff" stroke="#63b8ff" points="492.04,-174.49 491.96,-185.08 498.63,-176.84 492.04,-174.49"/>
</g>
<!-- Node11 -->
<g id="node11" class="node">
<title>Node11</title>
<g id="a_node11"><a xlink:href="usbdpriv_8h.html" target="_top" xlink:title=" ">
<polygon fill="white" stroke="#666666" points="1050,-145.5 914,-145.5 914,-126.5 1050,-126.5 1050,-145.5"/>
<text text-anchor="middle" x="982" y="-133.5" font-family="Helvetica,sans-Serif" font-size="10.00">iop/usb/usbd/src/usbdpriv.h</text>
</a>
</g>
</g>
<!-- Node1&#45;&gt;Node11 -->
<g id="edge13" class="edge">
<title>Node1&#45;&gt;Node11</title>
<path fill="none" stroke="#63b8ff" d="M551.75,-192.63C645.48,-180.51 818.19,-158.18 913.81,-145.82"/>
<polygon fill="#63b8ff" stroke="#63b8ff" points="551.41,-189.14 541.95,-193.9 552.31,-196.08 551.41,-189.14"/>
</g>
<!-- Node23 -->
<g id="node23" class="node">
<title>Node23</title>
<g id="a_node23"><a xlink:href="iop_2usb_2usbhdfsd_2src_2irx__imports_8h_source.html" target="_top" xlink:title=" ">
<polygon fill="white" stroke="#666666" points="1175.5,-151 1068.5,-151 1068.5,-121 1175.5,-121 1175.5,-151"/>
<text text-anchor="start" x="1076.5" y="-139" font-family="Helvetica,sans-Serif" font-size="10.00">iop/usb/usbhdfsd/src</text>
<text text-anchor="middle" x="1122" y="-128" font-family="Helvetica,sans-Serif" font-size="10.00">/irx_imports.h</text>
</a>
</g>
</g>
<!-- Node1&#45;&gt;Node23 -->
<g id="edge42" class="edge">
<title>Node1&#45;&gt;Node23</title>
<path fill="none" stroke="#63b8ff" d="M551.59,-198.13C657.9,-192.77 876.2,-179.18 1059,-151 1061.99,-150.54 1065.05,-150.02 1068.13,-149.46"/>
<polygon fill="#63b8ff" stroke="#63b8ff" points="551.44,-194.63 541.63,-198.62 551.79,-201.62 551.44,-194.63"/>
</g>
<!-- Node24 -->
<g id="node24" class="node">
<title>Node24</title>
<g id="a_node24"><a xlink:href="iop_2usb_2usbmass__bd_2src_2irx__imports_8h_source.html" target="_top" xlink:title=" ">
<polygon fill="white" stroke="#666666" points="1300.5,-151 1193.5,-151 1193.5,-121 1300.5,-121 1300.5,-151"/>
<text text-anchor="start" x="1201.5" y="-139" font-family="Helvetica,sans-Serif" font-size="10.00">iop/usb/usbmass_bd</text>
<text text-anchor="middle" x="1247" y="-128" font-family="Helvetica,sans-Serif" font-size="10.00">/src/irx_imports.h</text>
</a>
</g>
</g>
<!-- Node1&#45;&gt;Node24 -->
<g id="edge44" class="edge">
<title>Node1&#45;&gt;Node24</title>
<path fill="none" stroke="#63b8ff" d="M551.65,-199.53C675.14,-196.03 952.87,-184.78 1184,-151 1186.99,-150.56 1190.06,-150.06 1193.14,-149.52"/>
<polygon fill="#63b8ff" stroke="#63b8ff" points="551.6,-196.03 541.7,-199.81 551.79,-203.03 551.6,-196.03"/>
</g>
<!-- Node8&#45;&gt;Node3 -->
<g id="edge8" class="edge">
<title>Node8&#45;&gt;Node3</title>
<path fill="none" stroke="#63b8ff" d="M284.28,-122.02C235.92,-112.2 168.23,-98.19 109,-85 106.12,-84.36 103.17,-83.69 100.19,-83.01"/>
<polygon fill="#63b8ff" stroke="#63b8ff" points="283.55,-125.44 294.05,-124 284.94,-118.58 283.55,-125.44"/>
</g>
<!-- Node8&#45;&gt;Node5 -->
<g id="edge9" class="edge">
<title>Node8&#45;&gt;Node5</title>
<path fill="none" stroke="#63b8ff" d="M298.68,-116.8C271.17,-106.86 237.58,-94.71 211.9,-85.43"/>
<polygon fill="#63b8ff" stroke="#63b8ff" points="297.26,-120.01 307.85,-120.12 299.64,-113.43 297.26,-120.01"/>
</g>
<!-- Node8&#45;&gt;Node7 -->
<g id="edge10" class="edge">
<title>Node8&#45;&gt;Node7</title>
<path fill="none" stroke="#63b8ff" d="M337.95,-110.6C333.05,-99.8 327.6,-87.78 324.01,-79.84"/>
<polygon fill="#63b8ff" stroke="#63b8ff" points="334.62,-111.75 341.94,-119.42 341,-108.86 334.62,-111.75"/>
</g>
<!-- Node8&#45;&gt;Node9 -->
<g id="edge11" class="edge">
<title>Node8&#45;&gt;Node9</title>
<path fill="none" stroke="#63b8ff" d="M385.6,-115.32C403.62,-105.63 424.94,-94.16 441.38,-85.31"/>
<polygon fill="#63b8ff" stroke="#63b8ff" points="384.19,-112.1 377.04,-119.92 387.5,-118.27 384.19,-112.1"/>
</g>
<!-- Node8&#45;&gt;Node10 -->
<g id="edge12" class="edge">
<title>Node8&#45;&gt;Node10</title>
<path fill="none" stroke="#63b8ff" d="M413.26,-118.15C452.42,-107.87 501.9,-94.9 539.03,-85.16"/>
<polygon fill="#63b8ff" stroke="#63b8ff" points="412.49,-114.73 403.71,-120.65 414.27,-121.5 412.49,-114.73"/>
</g>
<!-- Node12 -->
<g id="node12" class="node">
<title>Node12</title>
<g id="a_node12"><a xlink:href="driver_8c.html" target="_top" xlink:title=" ">
<polygon fill="white" stroke="#666666" points="773.5,-19 650.5,-19 650.5,0 773.5,0 773.5,-19"/>
<text text-anchor="middle" x="712" y="-7" font-family="Helvetica,sans-Serif" font-size="10.00">iop/usb/usbd/src/driver.c</text>
</a>
</g>
</g>
<!-- Node11&#45;&gt;Node12 -->
<g id="edge14" class="edge">
<title>Node11&#45;&gt;Node12</title>
<path fill="none" stroke="#63b8ff" d="M902.29,-132.31C826.46,-127.87 720.18,-116.12 694,-85 677.9,-65.86 695.15,-34.65 705.46,-19.43"/>
<polygon fill="#63b8ff" stroke="#63b8ff" points="902.02,-135.8 912.2,-132.85 902.41,-128.81 902.02,-135.8"/>
</g>
<!-- Node13 -->
<g id="node13" class="node">
<title>Node13</title>
<g id="a_node13"><a xlink:href="driver_8h.html" target="_top" xlink:title=" ">
<polygon fill="white" stroke="#666666" points="998.5,-79.5 875.5,-79.5 875.5,-60.5 998.5,-60.5 998.5,-79.5"/>
<text text-anchor="middle" x="937" y="-67.5" font-family="Helvetica,sans-Serif" font-size="10.00">iop/usb/usbd/src/driver.h</text>
</a>
</g>
</g>
<!-- Node11&#45;&gt;Node13 -->
<g id="edge15" class="edge">
<title>Node11&#45;&gt;Node13</title>
<path fill="none" stroke="#63b8ff" d="M969.27,-116.9C960.75,-104.77 949.9,-89.34 943.2,-79.82"/>
<polygon fill="#63b8ff" stroke="#63b8ff" points="966.26,-118.7 974.87,-124.86 971.98,-114.67 966.26,-118.7"/>
</g>
<!-- Node14 -->
<g id="node14" class="node">
<title>Node14</title>
<g id="a_node14"><a xlink:href="hcd_8c.html" target="_top" xlink:title=" ">
<polygon fill="white" stroke="#666666" points="906.5,-19 791.5,-19 791.5,0 906.5,0 906.5,-19"/>
<text text-anchor="middle" x="849" y="-7" font-family="Helvetica,sans-Serif" font-size="10.00">iop/usb/usbd/src/hcd.c</text>
</a>
</g>
</g>
<!-- Node11&#45;&gt;Node14 -->
<g id="edge20" class="edge">
<title>Node11&#45;&gt;Node14</title>
<path fill="none" stroke="#63b8ff" d="M926.09,-122.58C904.44,-115.09 881.24,-103.31 866,-85 850.05,-65.83 848.36,-34.64 848.58,-19.42"/>
<polygon fill="#63b8ff" stroke="#63b8ff" points="924.86,-125.86 935.45,-125.56 926.98,-119.19 924.86,-125.86"/>
</g>
<!-- Node15 -->
<g id="node15" class="node">
<title>Node15</title>
<g id="a_node15"><a xlink:href="hub_8c.html" target="_top" xlink:title=" ">
<polygon fill="white" stroke="#666666" points="1178.5,-19 1063.5,-19 1063.5,0 1178.5,0 1178.5,-19"/>
<text text-anchor="middle" x="1121" y="-7" font-family="Helvetica,sans-Serif" font-size="10.00">iop/usb/usbd/src/hub.c</text>
</a>
</g>
</g>
<!-- Node11&#45;&gt;Node15 -->
<g id="edge25" class="edge">
<title>Node11&#45;&gt;Node15</title>
<path fill="none" stroke="#63b8ff" d="M1040.66,-124.07C1046.84,-123 1053.05,-121.95 1059,-121 1116.38,-111.8 1279.84,-128.83 1318,-85 1326.76,-74.94 1326.32,-65.42 1318,-55 1309.09,-43.86 1231.89,-28.9 1176.83,-19.48"/>
<polygon fill="#63b8ff" stroke="#63b8ff" points="1040.32,-120.58 1031.08,-125.76 1041.54,-127.47 1040.32,-120.58"/>
</g>
<!-- Node16 -->
<g id="node16" class="node">
<title>Node16</title>
<g id="a_node16"><a xlink:href="interface_8c.html" target="_top" xlink:title=" ">
<polygon fill="white" stroke="#666666" points="1333.5,-19 1196.5,-19 1196.5,0 1333.5,0 1333.5,-19"/>
<text text-anchor="middle" x="1265" y="-7" font-family="Helvetica,sans-Serif" font-size="10.00">iop/usb/usbd/src/interface.c</text>
</a>
</g>
</g>
<!-- Node11&#45;&gt;Node16 -->
<g id="edge30" class="edge">
<title>Node11&#45;&gt;Node16</title>
<path fill="none" stroke="#63b8ff" d="M1040.39,-124.06C1046.66,-122.98 1052.96,-121.94 1059,-121 1120.33,-111.44 1295.03,-131.64 1336,-85 1344.8,-74.98 1342.46,-66.67 1336,-55 1326.49,-37.82 1307.27,-26.38 1291.22,-19.41"/>
<polygon fill="#63b8ff" stroke="#63b8ff" points="1039.91,-120.59 1030.66,-125.77 1041.12,-127.49 1039.91,-120.59"/>
</g>
<!-- Node17 -->
<g id="node17" class="node">
<title>Node17</title>
<g id="a_node17"><a xlink:href="hcd_8h.html" target="_top" xlink:title=" ">
<polygon fill="white" stroke="#666666" points="1309.5,-79.5 1194.5,-79.5 1194.5,-60.5 1309.5,-60.5 1309.5,-79.5"/>
<text text-anchor="middle" x="1252" y="-67.5" font-family="Helvetica,sans-Serif" font-size="10.00">iop/usb/usbd/src/hcd.h</text>
</a>
</g>
</g>
<!-- Node11&#45;&gt;Node17 -->
<g id="edge21" class="edge">
<title>Node11&#45;&gt;Node17</title>
<path fill="none" stroke="#63b8ff" d="M1030.93,-123.4C1083.7,-110.89 1166.55,-91.25 1214.43,-79.91"/>
<polygon fill="#63b8ff" stroke="#63b8ff" points="1030.22,-119.97 1021.3,-125.68 1031.84,-126.78 1030.22,-119.97"/>
</g>
<!-- Node18 -->
<g id="node18" class="node">
<title>Node18</title>
<g id="a_node18"><a xlink:href="usbd_8c.html" target="_top" xlink:title=" ">
<polygon fill="white" stroke="#666666" points="1045,-19 925,-19 925,0 1045,0 1045,-19"/>
<text text-anchor="middle" x="985" y="-7" font-family="Helvetica,sans-Serif" font-size="10.00">iop/usb/usbd/src/usbd.c</text>
</a>
</g>
</g>
<!-- Node11&#45;&gt;Node18 -->
<g id="edge40" class="edge">
<title>Node11&#45;&gt;Node18</title>
<path fill="none" stroke="#63b8ff" d="M993.85,-116.46C998.98,-107.37 1004.4,-96.01 1007,-85 1010.06,-72.02 1010.03,-67.98 1007,-55 1003.9,-41.74 996.25,-27.9 990.84,-19.24"/>
<polygon fill="#63b8ff" stroke="#63b8ff" points="990.89,-114.6 988.73,-124.97 996.89,-118.21 990.89,-114.6"/>
</g>
<!-- Node19 -->
<g id="node19" class="node">
<title>Node19</title>
<g id="a_node19"><a xlink:href="hub_8h.html" target="_top" xlink:title=" ">
<polygon fill="white" stroke="#666666" points="818.5,-79.5 703.5,-79.5 703.5,-60.5 818.5,-60.5 818.5,-79.5"/>
<text text-anchor="middle" x="761" y="-67.5" font-family="Helvetica,sans-Serif" font-size="10.00">iop/usb/usbd/src/hub.h</text>
</a>
</g>
</g>
<!-- Node11&#45;&gt;Node19 -->
<g id="edge26" class="edge">
<title>Node11&#45;&gt;Node19</title>
<path fill="none" stroke="#63b8ff" d="M940.28,-122.92C897.05,-110.4 830.52,-91.13 791.82,-79.93"/>
<polygon fill="#63b8ff" stroke="#63b8ff" points="939.24,-126.26 949.82,-125.68 941.19,-119.54 939.24,-126.26"/>
</g>
<!-- Node20 -->
<g id="node20" class="node">
<title>Node20</title>
<g id="a_node20"><a xlink:href="mem_8c.html" target="_top" xlink:title=" ">
<polygon fill="white" stroke="#666666" points="1472.5,-19 1351.5,-19 1351.5,0 1472.5,0 1472.5,-19"/>
<text text-anchor="middle" x="1412" y="-7" font-family="Helvetica,sans-Serif" font-size="10.00">iop/usb/usbd/src/mem.c</text>
</a>
</g>
</g>
<!-- Node11&#45;&gt;Node20 -->
<g id="edge31" class="edge">
<title>Node11&#45;&gt;Node20</title>
<path fill="none" stroke="#63b8ff" d="M1039.64,-124.14C1046.16,-123.03 1052.72,-121.95 1059,-121 1189.15,-101.22 1238.2,-149.43 1353,-85 1380.48,-69.58 1399.8,-35.7 1407.84,-19.49"/>
<polygon fill="#63b8ff" stroke="#63b8ff" points="1039.49,-120.62 1030.25,-125.79 1040.7,-127.51 1039.49,-120.62"/>
</g>
<!-- Node21 -->
<g id="node21" class="node">
<title>Node21</title>
<g id="a_node21"><a xlink:href="mem_8h.html" target="_top" xlink:title=" ">
<polygon fill="white" stroke="#666666" points="1176.5,-79.5 1055.5,-79.5 1055.5,-60.5 1176.5,-60.5 1176.5,-79.5"/>
<text text-anchor="middle" x="1116" y="-67.5" font-family="Helvetica,sans-Serif" font-size="10.00">iop/usb/usbd/src/mem.h</text>
</a>
</g>
</g>
<!-- Node11&#45;&gt;Node21 -->
<g id="edge32" class="edge">
<title>Node11&#45;&gt;Node21</title>
<path fill="none" stroke="#63b8ff" d="M1010.75,-121.27C1037.02,-108.72 1075.1,-90.54 1097.53,-79.82"/>
<polygon fill="#63b8ff" stroke="#63b8ff" points="1009.51,-117.98 1002,-125.45 1012.53,-124.3 1009.51,-117.98"/>
</g>
<!-- Node22 -->
<g id="node22" class="node">
<title>Node22</title>
<g id="a_node22"><a xlink:href="usbio_8c.html" target="_top" xlink:title=" ">
<polygon fill="white" stroke="#666666" points="1613,-19 1491,-19 1491,0 1613,0 1613,-19"/>
<text text-anchor="middle" x="1552" y="-7" font-family="Helvetica,sans-Serif" font-size="10.00">iop/usb/usbd/src/usbio.c</text>
</a>
</g>
</g>
<!-- Node11&#45;&gt;Node22 -->
<g id="edge41" class="edge">
<title>Node11&#45;&gt;Node22</title>
<path fill="none" stroke="#63b8ff" d="M1039.36,-124.12C1045.97,-123 1052.63,-121.93 1059,-121 1202.36,-100.03 1243.09,-122.66 1383,-85 1442.14,-69.08 1507.11,-35.45 1536.28,-19.39"/>
<polygon fill="#63b8ff" stroke="#63b8ff" points="1039.08,-120.62 1029.82,-125.78 1040.28,-127.51 1039.08,-120.62"/>
</g>
<!-- Node13&#45;&gt;Node12 -->
<g id="edge16" class="edge">
<title>Node13&#45;&gt;Node12</title>
<path fill="none" stroke="#63b8ff" d="M891.86,-57.26C848.99,-46.12 785.45,-29.6 746.49,-19.47"/>
<polygon fill="#63b8ff" stroke="#63b8ff" points="890.8,-60.61 901.36,-59.73 892.57,-53.83 890.8,-60.61"/>
</g>
<!-- Node13&#45;&gt;Node14 -->
<g id="edge17" class="edge">
<title>Node13&#45;&gt;Node14</title>
<path fill="none" stroke="#63b8ff" d="M914.21,-53.85C897.8,-42.94 876.24,-28.61 862.49,-19.47"/>
<polygon fill="#63b8ff" stroke="#63b8ff" points="912.11,-56.66 922.37,-59.28 915.98,-50.83 912.11,-56.66"/>
</g>
<!-- Node13&#45;&gt;Node15 -->
<g id="edge18" class="edge">
<title>Node13&#45;&gt;Node15</title>
<path fill="none" stroke="#63b8ff" d="M975.72,-56.69C1010.74,-45.56 1061.48,-29.42 1092.79,-19.47"/>
<polygon fill="#63b8ff" stroke="#63b8ff" points="974.86,-53.29 966.39,-59.66 976.98,-59.96 974.86,-53.29"/>
</g>
<!-- Node13&#45;&gt;Node16 -->
<g id="edge19" class="edge">
<title>Node13&#45;&gt;Node16</title>
<path fill="none" stroke="#63b8ff" d="M998.43,-58.04C1060.86,-46.91 1156.42,-29.87 1214.56,-19.5"/>
<polygon fill="#63b8ff" stroke="#63b8ff" points="997.89,-54.58 988.66,-59.79 999.12,-61.48 997.89,-54.58"/>
</g>
<!-- Node17&#45;&gt;Node15 -->
<g id="edge22" class="edge">
<title>Node17&#45;&gt;Node15</title>
<path fill="none" stroke="#63b8ff" d="M1221.8,-55.52C1197.02,-44.45 1162.61,-29.08 1141.08,-19.47"/>
<polygon fill="#63b8ff" stroke="#63b8ff" points="1220.16,-58.62 1230.72,-59.5 1223.02,-52.22 1220.16,-58.62"/>
</g>
<!-- Node17&#45;&gt;Node16 -->
<g id="edge23" class="edge">
<title>Node17&#45;&gt;Node16</title>
<path fill="none" stroke="#63b8ff" d="M1256.41,-49.16C1258.68,-38.95 1261.32,-27.04 1263.07,-19.17"/>
<polygon fill="#63b8ff" stroke="#63b8ff" points="1253,-48.37 1254.25,-58.89 1259.83,-49.89 1253,-48.37"/>
</g>
<!-- Node17&#45;&gt;Node18 -->
<g id="edge24" class="edge">
<title>Node17&#45;&gt;Node18</title>
<path fill="none" stroke="#63b8ff" d="M1200.07,-57.62C1149.15,-46.47 1072.55,-29.68 1025.84,-19.45"/>
<polygon fill="#63b8ff" stroke="#63b8ff" points="1199.16,-61.01 1209.68,-59.73 1200.66,-54.17 1199.16,-61.01"/>
</g>
<!-- Node19&#45;&gt;Node12 -->
<g id="edge27" class="edge">
<title>Node19&#45;&gt;Node12</title>
<path fill="none" stroke="#63b8ff" d="M746.6,-51.8C737.61,-41.08 726.44,-27.73 719.26,-19.17"/>
<polygon fill="#63b8ff" stroke="#63b8ff" points="743.69,-53.79 752.8,-59.21 749.06,-49.29 743.69,-53.79"/>
</g>
<!-- Node19&#45;&gt;Node14 -->
<g id="edge28" class="edge">
<title>Node19&#45;&gt;Node14</title>
<path fill="none" stroke="#63b8ff" d="M783.79,-53.85C800.2,-42.94 821.76,-28.61 835.51,-19.47"/>
<polygon fill="#63b8ff" stroke="#63b8ff" points="782.02,-50.83 775.63,-59.28 785.89,-56.66 782.02,-50.83"/>
</g>
<!-- Node19&#45;&gt;Node18 -->
<g id="edge29" class="edge">
<title>Node19&#45;&gt;Node18</title>
<path fill="none" stroke="#63b8ff" d="M805.94,-57.26C848.62,-46.12 911.88,-29.6 950.66,-19.47"/>
<polygon fill="#63b8ff" stroke="#63b8ff" points="805.28,-53.82 796.49,-59.73 807.05,-60.59 805.28,-53.82"/>
</g>
<!-- Node21&#45;&gt;Node12 -->
<g id="edge33" class="edge">
<title>Node21&#45;&gt;Node12</title>
<path fill="none" stroke="#63b8ff" d="M1044.06,-58.58C967.16,-47.45 846.49,-29.97 773.75,-19.44"/>
<polygon fill="#63b8ff" stroke="#63b8ff" points="1043.18,-61.99 1053.58,-59.96 1044.19,-55.06 1043.18,-61.99"/>
</g>
<!-- Node21&#45;&gt;Node14 -->
<g id="edge34" class="edge">
<title>Node21&#45;&gt;Node14</title>
<path fill="none" stroke="#63b8ff" d="M1064.07,-57.62C1013.15,-46.47 936.55,-29.68 889.84,-19.45"/>
<polygon fill="#63b8ff" stroke="#63b8ff" points="1063.16,-61.01 1073.68,-59.73 1064.66,-54.17 1063.16,-61.01"/>
</g>
<!-- Node21&#45;&gt;Node15 -->
<g id="edge35" class="edge">
<title>Node21&#45;&gt;Node15</title>
<path fill="none" stroke="#63b8ff" d="M1117.7,-49.16C1118.57,-38.95 1119.59,-27.04 1120.26,-19.17"/>
<polygon fill="#63b8ff" stroke="#63b8ff" points="1114.23,-48.6 1116.87,-58.86 1121.21,-49.19 1114.23,-48.6"/>
</g>
<!-- Node21&#45;&gt;Node16 -->
<g id="edge36" class="edge">
<title>Node21&#45;&gt;Node16</title>
<path fill="none" stroke="#63b8ff" d="M1149.21,-55.96C1177.48,-44.86 1217.35,-29.21 1242.16,-19.47"/>
<polygon fill="#63b8ff" stroke="#63b8ff" points="1148.07,-52.65 1140.04,-59.56 1150.63,-59.17 1148.07,-52.65"/>
</g>
<!-- Node21&#45;&gt;Node18 -->
<g id="edge38" class="edge">
<title>Node21&#45;&gt;Node18</title>
<path fill="none" stroke="#63b8ff" d="M1085.8,-55.52C1061.02,-44.45 1026.61,-29.08 1005.08,-19.47"/>
<polygon fill="#63b8ff" stroke="#63b8ff" points="1084.16,-58.62 1094.72,-59.5 1087.02,-52.22 1084.16,-58.62"/>
</g>
<!-- Node21&#45;&gt;Node20 -->
<g id="edge37" class="edge">
<title>Node21&#45;&gt;Node20</title>
<path fill="none" stroke="#63b8ff" d="M1170.89,-57.83C1175.66,-56.87 1180.41,-55.91 1185,-55 1247.62,-42.51 1320.02,-28.37 1365.9,-19.45"/>
<polygon fill="#63b8ff" stroke="#63b8ff" points="1170.39,-54.36 1161.28,-59.77 1171.77,-61.22 1170.39,-54.36"/>
</g>
<!-- Node21&#45;&gt;Node22 -->
<g id="edge39" class="edge">
<title>Node21&#45;&gt;Node22</title>
<path fill="none" stroke="#63b8ff" d="M1168.69,-57.86C1174.18,-56.83 1179.7,-55.86 1185,-55 1316.26,-33.76 1350,-35.01 1482,-19 1484.8,-18.66 1487.65,-18.31 1490.54,-17.96"/>
<polygon fill="#63b8ff" stroke="#63b8ff" points="1168.14,-54.4 1158.98,-59.74 1169.47,-61.28 1168.14,-54.4"/>
</g>
</g>
</svg>
        <g id="navigator" transform="translate(0 0)" fill="#404254">
                <rect fill="#f2f5e9" fill-opacity="0.5" stroke="#606060" stroke-width=".5" x="0" y="0" width="60" height="60"/>
                <use id="zoomplus" xlink:href="#zoomPlus" x="17" y="9" onmousedown="handleZoom(evt,'in')"/>
                <use id="zoomminus" xlink:href="#zoomMin" x="42" y="9" onmousedown="handleZoom(evt,'out')"/>
                <use id="reset" xlink:href="#resetDef" x="30" y="36" onmousedown="handleReset()"/>
                <g id="arrowUp" xlink:href="#dirArrow" transform="translate(30 24)" onmousedown="handlePan(0,-1)">
                  <use xlink:href="#rim" fill="#404040">
                        <set attributeName="fill" to="#808080" begin="arrowUp.mouseover" end="arrowUp.mouseout"/>
                  </use>
                  <path fill="none" stroke="white" stroke-width="1.5" d="M0,-3.0v7 M-2.5,-0.5L0,-3.0L2.5,-0.5"/>
                </g>
                <g id="arrowRight" xlink:href="#dirArrow" transform="rotate(90) translate(36 -43)" onmousedown="handlePan(1,0)">
                  <use xlink:href="#rim" fill="#404040">
                        <set attributeName="fill" to="#808080" begin="arrowRight.mouseover" end="arrowRight.mouseout"/>
                  </use>
                  <path fill="none" stroke="white" stroke-width="1.5" d="M0,-3.0v7 M-2.5,-0.5L0,-3.0L2.5,-0.5"/>
                </g>
                <g id="arrowDown" xlink:href="#dirArrow" transform="rotate(180) translate(-30 -48)" onmousedown="handlePan(0,1)">
                  <use xlink:href="#rim" fill="#404040">
                        <set attributeName="fill" to="#808080" begin="arrowDown.mouseover" end="arrowDown.mouseout"/>
                  </use>
                  <path fill="none" stroke="white" stroke-width="1.5" d="M0,-3.0v7 M-2.5,-0.5L0,-3.0L2.5,-0.5"/>
                </g>
                <g id="arrowLeft" xlink:href="#dirArrow" transform="rotate(270) translate(-36 17)" onmousedown="handlePan(-1,0)">
                  <use xlink:href="#rim" fill="#404040">
                        <set attributeName="fill" to="#808080" begin="arrowLeft.mouseover" end="arrowLeft.mouseout"/>
                  </use>
                  <path fill="none" stroke="white" stroke-width="1.5" d="M0,-3.0v7 M-2.5,-0.5L0,-3.0L2.5,-0.5"/>
                </g>
        </g>
        <svg viewBox="0 0 15 15" width="100%" height="30px" preserveAspectRatio="xMaxYMin meet">
         <g id="arrow_out" transform="scale(0.3 0.3)">
          <a xlink:href="usbd_8h__dep__incl_org.svg" target="_base">
           <rect id="button" ry="5" rx="5" y="6" x="6" height="38" width="38"
                fill="#f2f5e9" fill-opacity="0.5" stroke="#606060" stroke-width="1.0"/>
           <path id="arrow"
             d="M 11.500037,31.436501 C 11.940474,20.09759 22.043105,11.32322 32.158766,21.979434 L 37.068811,17.246167 C 37.068811,17.246167 37.088388,32 37.088388,32 L 22.160133,31.978069 C 22.160133,31.978069 26.997745,27.140456 26.997745,27.140456 C 18.528582,18.264221 13.291696,25.230495 11.500037,31.436501 z"
             style="fill:#404040;"/>
          </a>
         </g>
        </svg>
</svg>
