<?xml version="1.0" encoding="UTF-8" standalone="no"?>
<!DOCTYPE svg PUBLIC "-//W3C//DTD SVG 1.1//EN"
 "http://www.w3.org/Graphics/SVG/1.1/DTD/svg11.dtd">
<!-- Generated by graphviz version 7.0.5 (20221223.1930)
 -->
<!-- Title: iop/usb/usbhdfsd/include/usbhdfsd.h Pages: 1 -->
<svg width="224pt" height="203pt"
 viewBox="0.00 0.00 223.50 203.00" xmlns="http://www.w3.org/2000/svg" xmlns:xlink="http://www.w3.org/1999/xlink">
<g id="graph0" class="graph" transform="scale(1 1) rotate(0) translate(4 199)">
<title>iop/usb/usbhdfsd/include/usbhdfsd.h</title>
<!-- Node1 -->
<g id="node1" class="node">
<title>Node1</title>
<g id="a_node1"><a xlink:title=" ">
<polygon fill="#999999" stroke="#666666" points="145,-195 20,-195 20,-165 145,-165 145,-195"/>
<text text-anchor="start" x="28" y="-183" font-family="Helvetica,sans-Serif" font-size="10.00">iop/usb/usbhdfsd/include</text>
<text text-anchor="middle" x="82.5" y="-172" font-family="Helvetica,sans-Serif" font-size="10.00">/usbhdfsd.h</text>
</a>
</g>
</g>
<!-- Node2 -->
<g id="node2" class="node">
<title>Node2</title>
<g id="a_node2"><a xlink:title=" ">
<polygon fill="#e0e0e0" stroke="#999999" points="47,-129 0,-129 0,-110 47,-110 47,-129"/>
<text text-anchor="middle" x="23.5" y="-117" font-family="Helvetica,sans-Serif" font-size="10.00">types.h</text>
</a>
</g>
</g>
<!-- Node1&#45;&gt;Node2 -->
<g id="edge1" class="edge">
<title>Node1&#45;&gt;Node2</title>
<path fill="none" stroke="#63b8ff" d="M67.92,-164.54C59.52,-156.22 48.94,-145.72 40.21,-137.07"/>
<polygon fill="#63b8ff" stroke="#63b8ff" points="42.89,-134.8 33.32,-130.24 37.96,-139.77 42.89,-134.8"/>
</g>
<!-- Node3 -->
<g id="node3" class="node">
<title>Node3</title>
<g id="a_node3"><a xlink:href="irx_8h.html" target="_top" xlink:title=" ">
<polygon fill="white" stroke="#666666" points="99.5,-129 65.5,-129 65.5,-110 99.5,-110 99.5,-129"/>
<text text-anchor="middle" x="82.5" y="-117" font-family="Helvetica,sans-Serif" font-size="10.00">irx.h</text>
</a>
</g>
</g>
<!-- Node1&#45;&gt;Node3 -->
<g id="edge2" class="edge">
<title>Node1&#45;&gt;Node3</title>
<path fill="none" stroke="#63b8ff" d="M82.5,-164.54C82.5,-157.34 82.5,-148.53 82.5,-140.68"/>
<polygon fill="#63b8ff" stroke="#63b8ff" points="86,-140.69 82.5,-130.69 79,-140.69 86,-140.69"/>
</g>
<!-- Node7 -->
<g id="node7" class="node">
<title>Node7</title>
<g id="a_node7"><a xlink:href="usbhdfsd-common_8h.html" target="_top" xlink:title=" ">
<polygon fill="white" stroke="#666666" points="215.5,-74 111.5,-74 111.5,-55 215.5,-55 215.5,-74"/>
<text text-anchor="middle" x="163.5" y="-62" font-family="Helvetica,sans-Serif" font-size="10.00">usbhdfsd&#45;common.h</text>
</a>
</g>
</g>
<!-- Node1&#45;&gt;Node7 -->
<g id="edge6" class="edge">
<title>Node1&#45;&gt;Node7</title>
<path fill="none" stroke="#63b8ff" d="M92.76,-164.63C107.53,-143.93 134.75,-105.78 150.78,-83.32"/>
<polygon fill="#63b8ff" stroke="#63b8ff" points="153.43,-85.63 156.39,-75.46 147.73,-81.57 153.43,-85.63"/>
</g>
<!-- Node4 -->
<g id="node4" class="node">
<title>Node4</title>
<g id="a_node4"><a xlink:href="iop_2kernel_2include_2types_8h_source.html" target="_top" xlink:title=" ">
<polygon fill="white" stroke="#666666" points="93,-74 46,-74 46,-55 93,-55 93,-74"/>
<text text-anchor="middle" x="69.5" y="-62" font-family="Helvetica,sans-Serif" font-size="10.00">types.h</text>
</a>
</g>
</g>
<!-- Node3&#45;&gt;Node4 -->
<g id="edge3" class="edge">
<title>Node3&#45;&gt;Node4</title>
<path fill="none" stroke="#63b8ff" d="M80.35,-109.75C78.74,-103.19 76.48,-93.95 74.43,-85.6"/>
<polygon fill="#63b8ff" stroke="#63b8ff" points="77.84,-84.79 72.05,-75.91 71.04,-86.46 77.84,-84.79"/>
</g>
<!-- Node5 -->
<g id="node5" class="node">
<title>Node5</title>
<g id="a_node5"><a xlink:title=" ">
<polygon fill="#e0e0e0" stroke="#999999" points="95,-19 44,-19 44,0 95,0 95,-19"/>
<text text-anchor="middle" x="69.5" y="-7" font-family="Helvetica,sans-Serif" font-size="10.00">stddef.h</text>
</a>
</g>
</g>
<!-- Node4&#45;&gt;Node5 -->
<g id="edge4" class="edge">
<title>Node4&#45;&gt;Node5</title>
<path fill="none" stroke="#63b8ff" d="M69.5,-54.75C69.5,-48.27 69.5,-39.16 69.5,-30.9"/>
<polygon fill="#63b8ff" stroke="#63b8ff" points="73,-30.96 69.5,-20.96 66,-30.96 73,-30.96"/>
</g>
<!-- Node6 -->
<g id="node6" class="node">
<title>Node6</title>
<g id="a_node6"><a xlink:href="tamtypes_8h.html" target="_top" xlink:title=" ">
<polygon fill="white" stroke="#666666" points="186.5,-19 122.5,-19 122.5,0 186.5,0 186.5,-19"/>
<text text-anchor="middle" x="154.5" y="-7" font-family="Helvetica,sans-Serif" font-size="10.00">tamtypes.h</text>
</a>
</g>
</g>
<!-- Node4&#45;&gt;Node6 -->
<g id="edge5" class="edge">
<title>Node4&#45;&gt;Node6</title>
<path fill="none" stroke="#63b8ff" d="M83.92,-54.51C96.7,-46.54 115.6,-34.75 130.63,-25.38"/>
<polygon fill="#63b8ff" stroke="#63b8ff" points="132.38,-28.42 139.01,-20.16 128.67,-22.48 132.38,-28.42"/>
</g>
<!-- Node7&#45;&gt;Node6 -->
<g id="edge7" class="edge">
<title>Node7&#45;&gt;Node6</title>
<path fill="none" stroke="#63b8ff" d="M162.01,-54.75C160.9,-48.19 159.33,-38.95 157.91,-30.6"/>
<polygon fill="#63b8ff" stroke="#63b8ff" points="161.4,-30.21 156.27,-20.93 154.5,-31.38 161.4,-30.21"/>
</g>
</g>
</svg>
