<?xml version="1.0" encoding="UTF-8" standalone="no"?>
<!DOCTYPE svg PUBLIC "-//W3C//DTD SVG 1.1//EN"
 "http://www.w3.org/Graphics/SVG/1.1/DTD/svg11.dtd">
<!-- Generated by graphviz version 7.0.5 (20221223.1930)
 -->
<!-- Title: iop/usb/usbhdfsd/include/usbhdfsd.h Pages: 1 -->
<svg width="990pt" height="104pt"
 viewBox="0.00 0.00 990.00 104.00" xmlns="http://www.w3.org/2000/svg" xmlns:xlink="http://www.w3.org/1999/xlink">
<g id="graph0" class="graph" transform="scale(1 1) rotate(0) translate(4 100)">
<title>iop/usb/usbhdfsd/include/usbhdfsd.h</title>
<!-- Node1 -->
<g id="node1" class="node">
<title>Node1</title>
<g id="a_node1"><a xlink:title=" ">
<polygon fill="#999999" stroke="#666666" points="553,-96 428,-96 428,-66 553,-66 553,-96"/>
<text text-anchor="start" x="436" y="-84" font-family="Helvetica,sans-Serif" font-size="10.00">iop/usb/usbhdfsd/include</text>
<text text-anchor="middle" x="490.5" y="-73" font-family="Helvetica,sans-Serif" font-size="10.00">/usbhdfsd.h</text>
</a>
</g>
</g>
<!-- Node2 -->
<g id="node2" class="node">
<title>Node2</title>
<g id="a_node2"><a xlink:href="api_8c_source.html" target="_top" xlink:title=" ">
<polygon fill="white" stroke="#666666" points="107,-30 0,-30 0,0 107,0 107,-30"/>
<text text-anchor="start" x="8" y="-18" font-family="Helvetica,sans-Serif" font-size="10.00">iop/usb/usbhdfsd/src</text>
<text text-anchor="middle" x="53.5" y="-7" font-family="Helvetica,sans-Serif" font-size="10.00">/api.c</text>
</a>
</g>
</g>
<!-- Node1&#45;&gt;Node2 -->
<g id="edge1" class="edge">
<title>Node1&#45;&gt;Node2</title>
<path fill="none" stroke="#63b8ff" d="M416.21,-72.08C340.33,-63.53 219.27,-48.6 115.5,-30 112.78,-29.51 110.01,-28.99 107.21,-28.44"/>
<polygon fill="#63b8ff" stroke="#63b8ff" points="415.7,-75.55 426.03,-73.18 416.48,-68.59 415.7,-75.55"/>
</g>
<!-- Node3 -->
<g id="node3" class="node">
<title>Node3</title>
<g id="a_node3"><a xlink:href="usb_2usbhdfsd_2src_2fat__driver_8c_source.html" target="_top" xlink:title=" ">
<polygon fill="white" stroke="#666666" points="232,-30 125,-30 125,0 232,0 232,-30"/>
<text text-anchor="start" x="133" y="-18" font-family="Helvetica,sans-Serif" font-size="10.00">iop/usb/usbhdfsd/src</text>
<text text-anchor="middle" x="178.5" y="-7" font-family="Helvetica,sans-Serif" font-size="10.00">/fat_driver.c</text>
</a>
</g>
</g>
<!-- Node1&#45;&gt;Node3 -->
<g id="edge2" class="edge">
<title>Node1&#45;&gt;Node3</title>
<path fill="none" stroke="#63b8ff" d="M416.74,-65.74C366.91,-55.99 299.67,-42.59 240.5,-30 237.8,-29.43 235.04,-28.83 232.25,-28.22"/>
<polygon fill="#63b8ff" stroke="#63b8ff" points="415.77,-69.12 426.25,-67.6 417.11,-62.25 415.77,-69.12"/>
</g>
<!-- Node4 -->
<g id="node4" class="node">
<title>Node4</title>
<g id="a_node4"><a xlink:href="usb_2usbhdfsd_2src_2fat__write_8c_source.html" target="_top" xlink:title=" ">
<polygon fill="white" stroke="#666666" points="357,-30 250,-30 250,0 357,0 357,-30"/>
<text text-anchor="start" x="258" y="-18" font-family="Helvetica,sans-Serif" font-size="10.00">iop/usb/usbhdfsd/src</text>
<text text-anchor="middle" x="303.5" y="-7" font-family="Helvetica,sans-Serif" font-size="10.00">/fat_write.c</text>
</a>
</g>
</g>
<!-- Node1&#45;&gt;Node4 -->
<g id="edge3" class="edge">
<title>Node1&#45;&gt;Node4</title>
<path fill="none" stroke="#63b8ff" d="M437.72,-61.94C408.59,-51.97 372.9,-39.75 345.65,-30.43"/>
<polygon fill="#63b8ff" stroke="#63b8ff" points="436.51,-65.22 447.1,-65.15 438.77,-58.6 436.51,-65.22"/>
</g>
<!-- Node5 -->
<g id="node5" class="node">
<title>Node5</title>
<g id="a_node5"><a xlink:href="usb_2usbhdfsd_2src_2fs__driver_8c_source.html" target="_top" xlink:title=" ">
<polygon fill="white" stroke="#666666" points="482,-30 375,-30 375,0 482,0 482,-30"/>
<text text-anchor="start" x="383" y="-18" font-family="Helvetica,sans-Serif" font-size="10.00">iop/usb/usbhdfsd/src</text>
<text text-anchor="middle" x="428.5" y="-7" font-family="Helvetica,sans-Serif" font-size="10.00">/fs_driver.c</text>
</a>
</g>
</g>
<!-- Node1&#45;&gt;Node5 -->
<g id="edge4" class="edge">
<title>Node1&#45;&gt;Node5</title>
<path fill="none" stroke="#63b8ff" d="M469,-57.81C460.12,-48.64 450.08,-38.28 442.22,-30.16"/>
<polygon fill="#63b8ff" stroke="#63b8ff" points="466.22,-59.96 475.69,-64.71 471.24,-55.09 466.22,-59.96"/>
</g>
<!-- Node6 -->
<g id="node6" class="node">
<title>Node6</title>
<g id="a_node6"><a xlink:href="usb_2usbhdfsd_2src_2part__driver_8c_source.html" target="_top" xlink:title=" ">
<polygon fill="white" stroke="#666666" points="607,-30 500,-30 500,0 607,0 607,-30"/>
<text text-anchor="start" x="508" y="-18" font-family="Helvetica,sans-Serif" font-size="10.00">iop/usb/usbhdfsd/src</text>
<text text-anchor="middle" x="553.5" y="-7" font-family="Helvetica,sans-Serif" font-size="10.00">/part_driver.c</text>
</a>
</g>
</g>
<!-- Node1&#45;&gt;Node6 -->
<g id="edge5" class="edge">
<title>Node1&#45;&gt;Node6</title>
<path fill="none" stroke="#63b8ff" d="M512.35,-57.81C521.37,-48.64 531.57,-38.28 539.56,-30.16"/>
<polygon fill="#63b8ff" stroke="#63b8ff" points="510.06,-55.14 505.54,-64.72 515.05,-60.05 510.06,-55.14"/>
</g>
<!-- Node7 -->
<g id="node7" class="node">
<title>Node7</title>
<g id="a_node7"><a xlink:href="usb_2usbhdfsd_2src_2scache_8c_source.html" target="_top" xlink:title=" ">
<polygon fill="white" stroke="#666666" points="732,-30 625,-30 625,0 732,0 732,-30"/>
<text text-anchor="start" x="633" y="-18" font-family="Helvetica,sans-Serif" font-size="10.00">iop/usb/usbhdfsd/src</text>
<text text-anchor="middle" x="678.5" y="-7" font-family="Helvetica,sans-Serif" font-size="10.00">/scache.c</text>
</a>
</g>
</g>
<!-- Node1&#45;&gt;Node7 -->
<g id="edge6" class="edge">
<title>Node1&#45;&gt;Node7</title>
<path fill="none" stroke="#63b8ff" d="M543.56,-61.94C572.85,-51.97 608.73,-39.75 636.13,-30.43"/>
<polygon fill="#63b8ff" stroke="#63b8ff" points="542.46,-58.61 534.12,-65.15 544.72,-65.24 542.46,-58.61"/>
</g>
<!-- Node8 -->
<g id="node8" class="node">
<title>Node8</title>
<g id="a_node8"><a xlink:href="usb__driver_8c_source.html" target="_top" xlink:title=" ">
<polygon fill="white" stroke="#666666" points="857,-30 750,-30 750,0 857,0 857,-30"/>
<text text-anchor="start" x="758" y="-18" font-family="Helvetica,sans-Serif" font-size="10.00">iop/usb/usbhdfsd/src</text>
<text text-anchor="middle" x="803.5" y="-7" font-family="Helvetica,sans-Serif" font-size="10.00">/usb_driver.c</text>
</a>
</g>
</g>
<!-- Node1&#45;&gt;Node8 -->
<g id="edge7" class="edge">
<title>Node1&#45;&gt;Node8</title>
<path fill="none" stroke="#63b8ff" d="M564.3,-65.81C614.36,-56.06 682,-42.64 741.5,-30 744.2,-29.43 746.96,-28.83 749.75,-28.23"/>
<polygon fill="#63b8ff" stroke="#63b8ff" points="563.89,-62.33 554.74,-67.67 565.23,-69.2 563.89,-62.33"/>
</g>
<!-- Node9 -->
<g id="node9" class="node">
<title>Node9</title>
<g id="a_node9"><a xlink:href="usbhdfsd_8c_source.html" target="_top" xlink:title=" ">
<polygon fill="white" stroke="#666666" points="982,-30 875,-30 875,0 982,0 982,-30"/>
<text text-anchor="start" x="883" y="-18" font-family="Helvetica,sans-Serif" font-size="10.00">iop/usb/usbhdfsd/src</text>
<text text-anchor="middle" x="928.5" y="-7" font-family="Helvetica,sans-Serif" font-size="10.00">/usbhdfsd.c</text>
</a>
</g>
</g>
<!-- Node1&#45;&gt;Node9 -->
<g id="edge8" class="edge">
<title>Node1&#45;&gt;Node9</title>
<path fill="none" stroke="#63b8ff" d="M564.65,-72.13C640.71,-63.6 762.3,-48.65 866.5,-30 869.22,-29.51 871.99,-28.99 874.79,-28.44"/>
<polygon fill="#63b8ff" stroke="#63b8ff" points="564.36,-68.64 554.81,-73.23 565.13,-75.6 564.36,-68.64"/>
</g>
</g>
</svg>
