<?xml version="1.0" encoding="UTF-8" standalone="no"?>
<!DOCTYPE svg PUBLIC "-//W3C//DTD SVG 1.1//EN"
 "http://www.w3.org/Graphics/SVG/1.1/DTD/svg11.dtd">
<!-- Generated by graphviz version 7.0.5 (20221223.1930)
 -->
<!-- Title: iop/usb/usbd/src/usbio.c Pages: 1 -->
<svg width="207pt" height="357pt"
 viewBox="0.00 0.00 207.00 357.00" xmlns="http://www.w3.org/2000/svg" xmlns:xlink="http://www.w3.org/1999/xlink">
<g id="graph0" class="graph" transform="scale(1 1) rotate(0) translate(4 353)">
<title>iop/usb/usbd/src/usbio.c</title>
<!-- Node1 -->
<g id="node1" class="node">
<title>Node1</title>
<g id="a_node1"><a xlink:title=" ">
<polygon fill="#999999" stroke="#666666" points="130.5,-349 8.5,-349 8.5,-330 130.5,-330 130.5,-349"/>
<text text-anchor="middle" x="69.5" y="-337" font-family="Helvetica,sans-Serif" font-size="10.00">iop/usb/usbd/src/usbio.c</text>
</a>
</g>
</g>
<!-- Node2 -->
<g id="node2" class="node">
<title>Node2</title>
<g id="a_node2"><a xlink:href="usbdpriv_8h.html" target="_top" xlink:title=" ">
<polygon fill="white" stroke="#666666" points="61,-239 0,-239 0,-220 61,-220 61,-239"/>
<text text-anchor="middle" x="30.5" y="-227" font-family="Helvetica,sans-Serif" font-size="10.00">usbdpriv.h</text>
</a>
</g>
</g>
<!-- Node1&#45;&gt;Node2 -->
<g id="edge1" class="edge">
<title>Node1&#45;&gt;Node2</title>
<path fill="none" stroke="#63b8ff" d="M47.07,-329.56C32.33,-322.36 14.21,-310.67 5.5,-294 -2.28,-279.11 6.23,-261.22 15.38,-248.23"/>
<polygon fill="#63b8ff" stroke="#63b8ff" points="17.95,-250.63 21.3,-240.58 12.41,-246.34 17.95,-250.63"/>
</g>
<!-- Node9 -->
<g id="node9" class="node">
<title>Node9</title>
<g id="a_node9"><a xlink:href="mem_8h.html" target="_top" xlink:title=" ">
<polygon fill="white" stroke="#666666" points="60.5,-294 14.5,-294 14.5,-275 60.5,-275 60.5,-294"/>
<text text-anchor="middle" x="37.5" y="-282" font-family="Helvetica,sans-Serif" font-size="10.00">mem.h</text>
</a>
</g>
</g>
<!-- Node1&#45;&gt;Node9 -->
<g id="edge9" class="edge">
<title>Node1&#45;&gt;Node9</title>
<path fill="none" stroke="#63b8ff" d="M64.22,-329.75C60.03,-322.81 54.02,-312.86 48.77,-304.16"/>
<polygon fill="#63b8ff" stroke="#63b8ff" points="51.85,-302.49 43.68,-295.74 45.85,-306.11 51.85,-302.49"/>
</g>
<!-- Node10 -->
<g id="node10" class="node">
<title>Node10</title>
<g id="a_node10"><a xlink:href="usbio_8h.html" target="_top" xlink:title=" ">
<polygon fill="white" stroke="#666666" points="126,-294 79,-294 79,-275 126,-275 126,-294"/>
<text text-anchor="middle" x="102.5" y="-282" font-family="Helvetica,sans-Serif" font-size="10.00">usbio.h</text>
</a>
</g>
</g>
<!-- Node1&#45;&gt;Node10 -->
<g id="edge11" class="edge">
<title>Node1&#45;&gt;Node10</title>
<path fill="none" stroke="#63b8ff" d="M74.95,-329.75C79.27,-322.81 85.46,-312.86 90.88,-304.16"/>
<polygon fill="#63b8ff" stroke="#63b8ff" points="93.82,-306.07 96.13,-295.73 87.88,-302.37 93.82,-306.07"/>
</g>
<!-- Node11 -->
<g id="node11" class="node">
<title>Node11</title>
<g id="a_node11"><a xlink:href="stdio_8h.html" target="_top" xlink:title=" ">
<polygon fill="white" stroke="#666666" points="189,-294 144,-294 144,-275 189,-275 189,-294"/>
<text text-anchor="middle" x="166.5" y="-282" font-family="Helvetica,sans-Serif" font-size="10.00">stdio.h</text>
</a>
</g>
</g>
<!-- Node1&#45;&gt;Node11 -->
<g id="edge12" class="edge">
<title>Node1&#45;&gt;Node11</title>
<path fill="none" stroke="#63b8ff" d="M85.95,-329.51C100.82,-321.39 122.94,-309.3 140.25,-299.85"/>
<polygon fill="#63b8ff" stroke="#63b8ff" points="141.86,-302.95 148.96,-295.08 138.51,-296.81 141.86,-302.95"/>
</g>
<!-- Node3 -->
<g id="node3" class="node">
<title>Node3</title>
<g id="a_node3"><a xlink:href="usbd_8h.html" target="_top" xlink:title=" ">
<polygon fill="white" stroke="#666666" points="91,-184 46,-184 46,-165 91,-165 91,-184"/>
<text text-anchor="middle" x="68.5" y="-172" font-family="Helvetica,sans-Serif" font-size="10.00">usbd.h</text>
</a>
</g>
</g>
<!-- Node2&#45;&gt;Node3 -->
<g id="edge2" class="edge">
<title>Node2&#45;&gt;Node3</title>
<path fill="none" stroke="#63b8ff" d="M36.77,-219.75C41.86,-212.66 49.2,-202.42 55.53,-193.59"/>
<polygon fill="#63b8ff" stroke="#63b8ff" points="58.22,-195.84 61.21,-185.67 52.54,-191.76 58.22,-195.84"/>
</g>
<!-- Node4 -->
<g id="node4" class="node">
<title>Node4</title>
<g id="a_node4"><a xlink:title=" ">
<polygon fill="#e0e0e0" stroke="#999999" points="62,-129 15,-129 15,-110 62,-110 62,-129"/>
<text text-anchor="middle" x="38.5" y="-117" font-family="Helvetica,sans-Serif" font-size="10.00">types.h</text>
</a>
</g>
</g>
<!-- Node2&#45;&gt;Node4 -->
<g id="edge8" class="edge">
<title>Node2&#45;&gt;Node4</title>
<path fill="none" stroke="#63b8ff" d="M31.15,-219.66C32.42,-202.57 35.23,-164.61 36.99,-140.92"/>
<polygon fill="#63b8ff" stroke="#63b8ff" points="40.48,-141.2 37.72,-130.97 33.5,-140.68 40.48,-141.2"/>
</g>
<!-- Node3&#45;&gt;Node4 -->
<g id="edge3" class="edge">
<title>Node3&#45;&gt;Node4</title>
<path fill="none" stroke="#63b8ff" d="M63.55,-164.75C59.66,-157.88 54.11,-148.08 49.22,-139.45"/>
<polygon fill="#63b8ff" stroke="#63b8ff" points="52.28,-137.74 44.31,-130.76 46.19,-141.19 52.28,-137.74"/>
</g>
<!-- Node5 -->
<g id="node5" class="node">
<title>Node5</title>
<g id="a_node5"><a xlink:href="irx_8h.html" target="_top" xlink:title=" ">
<polygon fill="white" stroke="#666666" points="125.5,-129 91.5,-129 91.5,-110 125.5,-110 125.5,-129"/>
<text text-anchor="middle" x="108.5" y="-117" font-family="Helvetica,sans-Serif" font-size="10.00">irx.h</text>
</a>
</g>
</g>
<!-- Node3&#45;&gt;Node5 -->
<g id="edge4" class="edge">
<title>Node3&#45;&gt;Node5</title>
<path fill="none" stroke="#63b8ff" d="M75.11,-164.75C80.46,-157.66 88.18,-147.42 94.85,-138.59"/>
<polygon fill="#63b8ff" stroke="#63b8ff" points="97.61,-140.74 100.84,-130.65 92.02,-136.52 97.61,-140.74"/>
</g>
<!-- Node6 -->
<g id="node6" class="node">
<title>Node6</title>
<g id="a_node6"><a xlink:href="iop_2kernel_2include_2types_8h_source.html" target="_top" xlink:title=" ">
<polygon fill="white" stroke="#666666" points="132,-74 85,-74 85,-55 132,-55 132,-74"/>
<text text-anchor="middle" x="108.5" y="-62" font-family="Helvetica,sans-Serif" font-size="10.00">types.h</text>
</a>
</g>
</g>
<!-- Node5&#45;&gt;Node6 -->
<g id="edge5" class="edge">
<title>Node5&#45;&gt;Node6</title>
<path fill="none" stroke="#63b8ff" d="M108.5,-109.75C108.5,-103.27 108.5,-94.16 108.5,-85.9"/>
<polygon fill="#63b8ff" stroke="#63b8ff" points="112,-85.96 108.5,-75.96 105,-85.96 112,-85.96"/>
</g>
<!-- Node7 -->
<g id="node7" class="node">
<title>Node7</title>
<g id="a_node7"><a xlink:title=" ">
<polygon fill="#e0e0e0" stroke="#999999" points="96,-19 45,-19 45,0 96,0 96,-19"/>
<text text-anchor="middle" x="70.5" y="-7" font-family="Helvetica,sans-Serif" font-size="10.00">stddef.h</text>
</a>
</g>
</g>
<!-- Node6&#45;&gt;Node7 -->
<g id="edge6" class="edge">
<title>Node6&#45;&gt;Node7</title>
<path fill="none" stroke="#63b8ff" d="M102.23,-54.75C97.14,-47.66 89.8,-37.42 83.47,-28.59"/>
<polygon fill="#63b8ff" stroke="#63b8ff" points="86.46,-26.76 77.79,-20.67 80.78,-30.84 86.46,-26.76"/>
</g>
<!-- Node8 -->
<g id="node8" class="node">
<title>Node8</title>
<g id="a_node8"><a xlink:href="tamtypes_8h.html" target="_top" xlink:title=" ">
<polygon fill="white" stroke="#666666" points="178.5,-19 114.5,-19 114.5,0 178.5,0 178.5,-19"/>
<text text-anchor="middle" x="146.5" y="-7" font-family="Helvetica,sans-Serif" font-size="10.00">tamtypes.h</text>
</a>
</g>
</g>
<!-- Node6&#45;&gt;Node8 -->
<g id="edge7" class="edge">
<title>Node6&#45;&gt;Node8</title>
<path fill="none" stroke="#63b8ff" d="M114.77,-54.75C119.86,-47.66 127.2,-37.42 133.53,-28.59"/>
<polygon fill="#63b8ff" stroke="#63b8ff" points="136.22,-30.84 139.21,-20.67 130.54,-26.76 136.22,-30.84"/>
</g>
<!-- Node9&#45;&gt;Node2 -->
<g id="edge10" class="edge">
<title>Node9&#45;&gt;Node2</title>
<path fill="none" stroke="#63b8ff" d="M36.34,-274.75C35.48,-268.19 34.26,-258.95 33.16,-250.6"/>
<polygon fill="#63b8ff" stroke="#63b8ff" points="36.66,-250.4 31.88,-240.94 29.72,-251.31 36.66,-250.4"/>
</g>
<!-- Node11&#45;&gt;Node5 -->
<g id="edge14" class="edge">
<title>Node11&#45;&gt;Node5</title>
<path fill="none" stroke="#63b8ff" d="M159.83,-274.76C153.51,-266.1 144.18,-252.26 138.5,-239 124.33,-205.93 115.77,-164.69 111.61,-140.61"/>
<polygon fill="#63b8ff" stroke="#63b8ff" points="115.09,-140.23 110.02,-130.92 108.18,-141.36 115.09,-140.23"/>
</g>
<!-- Node12 -->
<g id="node12" class="node">
<title>Node12</title>
<g id="a_node12"><a xlink:title=" ">
<polygon fill="#e0e0e0" stroke="#999999" points="199,-239 148,-239 148,-220 199,-220 199,-239"/>
<text text-anchor="middle" x="173.5" y="-227" font-family="Helvetica,sans-Serif" font-size="10.00">stdarg.h</text>
</a>
</g>
</g>
<!-- Node11&#45;&gt;Node12 -->
<g id="edge13" class="edge">
<title>Node11&#45;&gt;Node12</title>
<path fill="none" stroke="#63b8ff" d="M167.66,-274.75C168.52,-268.19 169.74,-258.95 170.84,-250.6"/>
<polygon fill="#63b8ff" stroke="#63b8ff" points="174.28,-251.31 172.12,-240.94 167.34,-250.4 174.28,-251.31"/>
</g>
</g>
</svg>
