<?xml version="1.0" encoding="UTF-8" standalone="no"?>
<!DOCTYPE svg PUBLIC "-//W3C//DTD SVG 1.1//EN"
 "http://www.w3.org/Graphics/SVG/1.1/DTD/svg11.dtd">
<!-- Generated by graphviz version 7.0.5 (20221223.1930)
 -->
<!-- Title: iop/usb/usbd/src/usbio.h Pages: 1 -->
<svg width="690pt" height="82pt"
 viewBox="0.00 0.00 689.50 82.00" xmlns="http://www.w3.org/2000/svg" xmlns:xlink="http://www.w3.org/1999/xlink">
<g id="graph0" class="graph" transform="scale(1 1) rotate(0) translate(4 78)">
<title>iop/usb/usbd/src/usbio.h</title>
<!-- Node1 -->
<g id="node1" class="node">
<title>Node1</title>
<g id="a_node1"><a xlink:title=" ">
<polygon fill="#999999" stroke="#666666" points="395.5,-74 273.5,-74 273.5,-55 395.5,-55 395.5,-74"/>
<text text-anchor="middle" x="334.5" y="-62" font-family="Helvetica,sans-Serif" font-size="10.00">iop/usb/usbd/src/usbio.h</text>
</a>
</g>
</g>
<!-- Node2 -->
<g id="node2" class="node">
<title>Node2</title>
<g id="a_node2"><a xlink:href="hcd_8c.html" target="_top" xlink:title=" ">
<polygon fill="white" stroke="#666666" points="115,-19 0,-19 0,0 115,0 115,-19"/>
<text text-anchor="middle" x="57.5" y="-7" font-family="Helvetica,sans-Serif" font-size="10.00">iop/usb/usbd/src/hcd.c</text>
</a>
</g>
</g>
<!-- Node1&#45;&gt;Node2 -->
<g id="edge1" class="edge">
<title>Node1&#45;&gt;Node2</title>
<path fill="none" stroke="#63b8ff" d="M276.31,-52.37C225.16,-42.58 151.67,-28.52 104.26,-19.45"/>
<polygon fill="#63b8ff" stroke="#63b8ff" points="275.54,-55.78 286.02,-54.22 276.86,-48.91 275.54,-55.78"/>
</g>
<!-- Node3 -->
<g id="node3" class="node">
<title>Node3</title>
<g id="a_node3"><a xlink:href="hub_8c.html" target="_top" xlink:title=" ">
<polygon fill="white" stroke="#666666" points="248,-19 133,-19 133,0 248,0 248,-19"/>
<text text-anchor="middle" x="190.5" y="-7" font-family="Helvetica,sans-Serif" font-size="10.00">iop/usb/usbd/src/hub.c</text>
</a>
</g>
</g>
<!-- Node1&#45;&gt;Node3 -->
<g id="edge2" class="edge">
<title>Node1&#45;&gt;Node3</title>
<path fill="none" stroke="#63b8ff" d="M299.41,-50.58C273.09,-40.9 237.75,-27.89 214.57,-19.36"/>
<polygon fill="#63b8ff" stroke="#63b8ff" points="298.06,-53.82 308.65,-53.99 300.48,-47.25 298.06,-53.82"/>
</g>
<!-- Node4 -->
<g id="node4" class="node">
<title>Node4</title>
<g id="a_node4"><a xlink:href="interface_8c.html" target="_top" xlink:title=" ">
<polygon fill="white" stroke="#666666" points="403,-19 266,-19 266,0 403,0 403,-19"/>
<text text-anchor="middle" x="334.5" y="-7" font-family="Helvetica,sans-Serif" font-size="10.00">iop/usb/usbd/src/interface.c</text>
</a>
</g>
</g>
<!-- Node1&#45;&gt;Node4 -->
<g id="edge3" class="edge">
<title>Node1&#45;&gt;Node4</title>
<path fill="none" stroke="#63b8ff" d="M334.5,-43.35C334.5,-35.1 334.5,-25.97 334.5,-19.44"/>
<polygon fill="#63b8ff" stroke="#63b8ff" points="331,-43.23 334.5,-53.23 338,-43.23 331,-43.23"/>
</g>
<!-- Node5 -->
<g id="node5" class="node">
<title>Node5</title>
<g id="a_node5"><a xlink:href="usbd_8c.html" target="_top" xlink:title=" ">
<polygon fill="white" stroke="#666666" points="541.5,-19 421.5,-19 421.5,0 541.5,0 541.5,-19"/>
<text text-anchor="middle" x="481.5" y="-7" font-family="Helvetica,sans-Serif" font-size="10.00">iop/usb/usbd/src/usbd.c</text>
</a>
</g>
</g>
<!-- Node1&#45;&gt;Node5 -->
<g id="edge4" class="edge">
<title>Node1&#45;&gt;Node5</title>
<path fill="none" stroke="#63b8ff" d="M369.97,-50.71C396.87,-41.01 433.16,-27.93 456.93,-19.36"/>
<polygon fill="#63b8ff" stroke="#63b8ff" points="369.08,-47.31 360.86,-54 371.45,-53.9 369.08,-47.31"/>
</g>
<!-- Node6 -->
<g id="node6" class="node">
<title>Node6</title>
<g id="a_node6"><a xlink:href="usbio_8c.html" target="_top" xlink:title=" ">
<polygon fill="white" stroke="#666666" points="681.5,-19 559.5,-19 559.5,0 681.5,0 681.5,-19"/>
<text text-anchor="middle" x="620.5" y="-7" font-family="Helvetica,sans-Serif" font-size="10.00">iop/usb/usbd/src/usbio.c</text>
</a>
</g>
</g>
<!-- Node1&#45;&gt;Node6 -->
<g id="edge5" class="edge">
<title>Node1&#45;&gt;Node6</title>
<path fill="none" stroke="#63b8ff" d="M394.25,-52.43C447.08,-42.64 523.17,-28.54 572.22,-19.45"/>
<polygon fill="#63b8ff" stroke="#63b8ff" points="393.7,-48.97 384.5,-54.23 394.97,-55.85 393.7,-48.97"/>
</g>
</g>
</svg>
