<?xml version="1.0" encoding="UTF-8" standalone="no"?>
<!DOCTYPE svg PUBLIC "-//W3C//DTD SVG 1.1//EN"
 "http://www.w3.org/Graphics/SVG/1.1/DTD/svg11.dtd">
<!-- Generated by graphviz version 7.0.5 (20221223.1930)
 -->
<!-- Title: iop/kernel/include/vblank.h Pages: 1 -->
<svg width="1023pt" height="104pt"
 viewBox="0.00 0.00 1022.50 104.00" xmlns="http://www.w3.org/2000/svg" xmlns:xlink="http://www.w3.org/1999/xlink">
<g id="graph0" class="graph" transform="scale(1 1) rotate(0) translate(4 100)">
<title>iop/kernel/include/vblank.h</title>
<!-- Node1 -->
<g id="node1" class="node">
<title>Node1</title>
<g id="a_node1"><a xlink:title=" ">
<polygon fill="#999999" stroke="#666666" points="568,-96 476,-96 476,-66 568,-66 568,-96"/>
<text text-anchor="start" x="484" y="-84" font-family="Helvetica,sans-Serif" font-size="10.00">iop/kernel/include</text>
<text text-anchor="middle" x="522" y="-73" font-family="Helvetica,sans-Serif" font-size="10.00">/vblank.h</text>
</a>
</g>
</g>
<!-- Node2 -->
<g id="node2" class="node">
<title>Node2</title>
<g id="a_node2"><a xlink:href="iop_2dev9_2extflash_2src_2irx__imports_8h_source.html" target="_top" xlink:title=" ">
<polygon fill="white" stroke="#666666" points="106,-30 0,-30 0,0 106,0 106,-30"/>
<text text-anchor="start" x="8" y="-18" font-family="Helvetica,sans-Serif" font-size="10.00">iop/dev9/extflash/src</text>
<text text-anchor="middle" x="53" y="-7" font-family="Helvetica,sans-Serif" font-size="10.00">/irx_imports.h</text>
</a>
</g>
</g>
<!-- Node1&#45;&gt;Node2 -->
<g id="edge1" class="edge">
<title>Node1&#45;&gt;Node2</title>
<path fill="none" stroke="#63b8ff" d="M464.53,-74.77C385.46,-67.15 238.84,-51.53 115,-30 112.17,-29.51 109.28,-28.97 106.37,-28.41"/>
<polygon fill="#63b8ff" stroke="#63b8ff" points="463.9,-78.22 474.19,-75.69 464.57,-71.25 463.9,-78.22"/>
</g>
<!-- Node3 -->
<g id="node3" class="node">
<title>Node3</title>
<g id="a_node3"><a xlink:href="iop_2system_2padman_2src_2irx__imports_8h_source.html" target="_top" xlink:title=" ">
<polygon fill="white" stroke="#666666" points="242,-30 124,-30 124,0 242,0 242,-30"/>
<text text-anchor="start" x="132" y="-18" font-family="Helvetica,sans-Serif" font-size="10.00">iop/system/padman/src</text>
<text text-anchor="middle" x="183" y="-7" font-family="Helvetica,sans-Serif" font-size="10.00">/irx_imports.h</text>
</a>
</g>
</g>
<!-- Node1&#45;&gt;Node3 -->
<g id="edge2" class="edge">
<title>Node1&#45;&gt;Node3</title>
<path fill="none" stroke="#63b8ff" d="M464.67,-69.78C409.78,-59.9 324.65,-44.37 251,-30 248.16,-29.45 245.26,-28.87 242.32,-28.29"/>
<polygon fill="#63b8ff" stroke="#63b8ff" points="463.96,-73.2 474.42,-71.53 465.2,-66.32 463.96,-73.2"/>
</g>
<!-- Node4 -->
<g id="node4" class="node">
<title>Node4</title>
<g id="a_node4"><a xlink:href="pad_init_8c.html" target="_top" xlink:title=" ">
<polygon fill="white" stroke="#666666" points="378,-30 260,-30 260,0 378,0 378,-30"/>
<text text-anchor="start" x="268" y="-18" font-family="Helvetica,sans-Serif" font-size="10.00">iop/system/padman/src</text>
<text text-anchor="middle" x="319" y="-7" font-family="Helvetica,sans-Serif" font-size="10.00">/padInit.c</text>
</a>
</g>
</g>
<!-- Node1&#45;&gt;Node4 -->
<g id="edge3" class="edge">
<title>Node1&#45;&gt;Node4</title>
<path fill="none" stroke="#63b8ff" d="M465.28,-62.12C433.51,-52.1 394.42,-39.78 364.64,-30.39"/>
<polygon fill="#63b8ff" stroke="#63b8ff" points="464.16,-65.43 474.75,-65.1 466.26,-58.76 464.16,-65.43"/>
</g>
<!-- Node5 -->
<g id="node5" class="node">
<title>Node5</title>
<g id="a_node5"><a xlink:href="pad_misc_funcs_8c.html" target="_top" xlink:title=" ">
<polygon fill="white" stroke="#666666" points="514,-30 396,-30 396,0 514,0 514,-30"/>
<text text-anchor="start" x="404" y="-18" font-family="Helvetica,sans-Serif" font-size="10.00">iop/system/padman/src</text>
<text text-anchor="middle" x="455" y="-7" font-family="Helvetica,sans-Serif" font-size="10.00">/padMiscFuncs.c</text>
</a>
</g>
</g>
<!-- Node1&#45;&gt;Node5 -->
<g id="edge4" class="edge">
<title>Node1&#45;&gt;Node5</title>
<path fill="none" stroke="#63b8ff" d="M499.06,-58.09C489.39,-48.85 478.41,-38.36 469.83,-30.16"/>
<polygon fill="#63b8ff" stroke="#63b8ff" points="496.39,-60.37 506.04,-64.75 501.22,-55.31 496.39,-60.37"/>
</g>
<!-- Node6 -->
<g id="node6" class="node">
<title>Node6</title>
<g id="a_node6"><a xlink:href="iop_2system_2rmman_2src_2irx__imports_8h_source.html" target="_top" xlink:title=" ">
<polygon fill="white" stroke="#666666" points="645.5,-30 532.5,-30 532.5,0 645.5,0 645.5,-30"/>
<text text-anchor="start" x="540.5" y="-18" font-family="Helvetica,sans-Serif" font-size="10.00">iop/system/rmman/src</text>
<text text-anchor="middle" x="589" y="-7" font-family="Helvetica,sans-Serif" font-size="10.00">/irx_imports.h</text>
</a>
</g>
</g>
<!-- Node1&#45;&gt;Node6 -->
<g id="edge5" class="edge">
<title>Node1&#45;&gt;Node6</title>
<path fill="none" stroke="#63b8ff" d="M544.94,-58.09C554.61,-48.85 565.59,-38.36 574.17,-30.16"/>
<polygon fill="#63b8ff" stroke="#63b8ff" points="542.78,-55.31 537.96,-64.75 547.61,-60.37 542.78,-55.31"/>
</g>
<!-- Node7 -->
<g id="node7" class="node">
<title>Node7</title>
<g id="a_node7"><a xlink:href="rmman_8c_source.html" target="_top" xlink:title=" ">
<polygon fill="white" stroke="#666666" points="776.5,-30 663.5,-30 663.5,0 776.5,0 776.5,-30"/>
<text text-anchor="start" x="671.5" y="-18" font-family="Helvetica,sans-Serif" font-size="10.00">iop/system/rmman/src</text>
<text text-anchor="middle" x="720" y="-7" font-family="Helvetica,sans-Serif" font-size="10.00">/rmman.c</text>
</a>
</g>
</g>
<!-- Node1&#45;&gt;Node7 -->
<g id="edge6" class="edge">
<title>Node1&#45;&gt;Node7</title>
<path fill="none" stroke="#63b8ff" d="M577.07,-62.2C608.06,-52.18 646.26,-39.83 675.37,-30.43"/>
<polygon fill="#63b8ff" stroke="#63b8ff" points="576.31,-58.77 567.88,-65.17 578.47,-65.43 576.31,-58.77"/>
</g>
<!-- Node8 -->
<g id="node8" class="node">
<title>Node8</title>
<g id="a_node8"><a xlink:href="iop_2usb_2camera_2src_2irx__imports_8h_source.html" target="_top" xlink:title=" ">
<polygon fill="white" stroke="#666666" points="895,-30 795,-30 795,0 895,0 895,-30"/>
<text text-anchor="start" x="803" y="-18" font-family="Helvetica,sans-Serif" font-size="10.00">iop/usb/camera/src</text>
<text text-anchor="middle" x="845" y="-7" font-family="Helvetica,sans-Serif" font-size="10.00">/irx_imports.h</text>
</a>
</g>
</g>
<!-- Node1&#45;&gt;Node8 -->
<g id="edge7" class="edge">
<title>Node1&#45;&gt;Node8</title>
<path fill="none" stroke="#63b8ff" d="M579.71,-69.86C633.3,-60.25 715.23,-45.09 786,-30 788.78,-29.41 791.63,-28.78 794.5,-28.14"/>
<polygon fill="#63b8ff" stroke="#63b8ff" points="579.11,-66.41 569.88,-71.61 580.34,-73.3 579.11,-66.41"/>
</g>
<!-- Node9 -->
<g id="node9" class="node">
<title>Node9</title>
<g id="a_node9"><a xlink:href="iop_2usb_2usbd_2src_2irx__imports_8h_source.html" target="_top" xlink:title=" ">
<polygon fill="white" stroke="#666666" points="1014.5,-30 913.5,-30 913.5,0 1014.5,0 1014.5,-30"/>
<text text-anchor="start" x="921.5" y="-18" font-family="Helvetica,sans-Serif" font-size="10.00">iop/usb/usbd/src/irx</text>
<text text-anchor="middle" x="964" y="-7" font-family="Helvetica,sans-Serif" font-size="10.00">_imports.h</text>
</a>
</g>
</g>
<!-- Node1&#45;&gt;Node9 -->
<g id="edge8" class="edge">
<title>Node1&#45;&gt;Node9</title>
<path fill="none" stroke="#63b8ff" d="M579.45,-74.28C654.44,-66.39 789.61,-50.78 904,-30 906.95,-29.46 909.97,-28.88 913.01,-28.26"/>
<polygon fill="#63b8ff" stroke="#63b8ff" points="579.48,-70.75 569.89,-75.27 580.2,-77.72 579.48,-70.75"/>
</g>
</g>
</svg>
