<?xml version="1.0" encoding="UTF-8" standalone="no"?>
<!DOCTYPE svg PUBLIC "-//W3C//DTD SVG 1.1//EN"
 "http://www.w3.org/Graphics/SVG/1.1/DTD/svg11.dtd">
<!-- Generated by graphviz version 7.0.5 (20221223.1930)
 -->
<!-- Title: iop/kernel/include/vblank.h Pages: 1 -->
<svg width="142pt" height="203pt"
 viewBox="0.00 0.00 141.50 203.00" xmlns="http://www.w3.org/2000/svg" xmlns:xlink="http://www.w3.org/1999/xlink">
<g id="graph0" class="graph" transform="scale(1 1) rotate(0) translate(4 199)">
<title>iop/kernel/include/vblank.h</title>
<!-- Node1 -->
<g id="node1" class="node">
<title>Node1</title>
<g id="a_node1"><a xlink:title=" ">
<polygon fill="#999999" stroke="#666666" points="109.5,-195 17.5,-195 17.5,-165 109.5,-165 109.5,-195"/>
<text text-anchor="start" x="25.5" y="-183" font-family="Helvetica,sans-Serif" font-size="10.00">iop/kernel/include</text>
<text text-anchor="middle" x="63.5" y="-172" font-family="Helvetica,sans-Serif" font-size="10.00">/vblank.h</text>
</a>
</g>
</g>
<!-- Node2 -->
<g id="node2" class="node">
<title>Node2</title>
<g id="a_node2"><a xlink:href="irx_8h.html" target="_top" xlink:title=" ">
<polygon fill="white" stroke="#666666" points="80.5,-129 46.5,-129 46.5,-110 80.5,-110 80.5,-129"/>
<text text-anchor="middle" x="63.5" y="-117" font-family="Helvetica,sans-Serif" font-size="10.00">irx.h</text>
</a>
</g>
</g>
<!-- Node1&#45;&gt;Node2 -->
<g id="edge1" class="edge">
<title>Node1&#45;&gt;Node2</title>
<path fill="none" stroke="#63b8ff" d="M63.5,-164.54C63.5,-157.34 63.5,-148.53 63.5,-140.68"/>
<polygon fill="#63b8ff" stroke="#63b8ff" points="67,-140.69 63.5,-130.69 60,-140.69 67,-140.69"/>
</g>
<!-- Node3 -->
<g id="node3" class="node">
<title>Node3</title>
<g id="a_node3"><a xlink:href="iop_2kernel_2include_2types_8h_source.html" target="_top" xlink:title=" ">
<polygon fill="white" stroke="#666666" points="87,-74 40,-74 40,-55 87,-55 87,-74"/>
<text text-anchor="middle" x="63.5" y="-62" font-family="Helvetica,sans-Serif" font-size="10.00">types.h</text>
</a>
</g>
</g>
<!-- Node2&#45;&gt;Node3 -->
<g id="edge2" class="edge">
<title>Node2&#45;&gt;Node3</title>
<path fill="none" stroke="#63b8ff" d="M63.5,-109.75C63.5,-103.27 63.5,-94.16 63.5,-85.9"/>
<polygon fill="#63b8ff" stroke="#63b8ff" points="67,-85.96 63.5,-75.96 60,-85.96 67,-85.96"/>
</g>
<!-- Node4 -->
<g id="node4" class="node">
<title>Node4</title>
<g id="a_node4"><a xlink:title=" ">
<polygon fill="#e0e0e0" stroke="#999999" points="51,-19 0,-19 0,0 51,0 51,-19"/>
<text text-anchor="middle" x="25.5" y="-7" font-family="Helvetica,sans-Serif" font-size="10.00">stddef.h</text>
</a>
</g>
</g>
<!-- Node3&#45;&gt;Node4 -->
<g id="edge3" class="edge">
<title>Node3&#45;&gt;Node4</title>
<path fill="none" stroke="#63b8ff" d="M57.23,-54.75C52.14,-47.66 44.8,-37.42 38.47,-28.59"/>
<polygon fill="#63b8ff" stroke="#63b8ff" points="41.46,-26.76 32.79,-20.67 35.78,-30.84 41.46,-26.76"/>
</g>
<!-- Node5 -->
<g id="node5" class="node">
<title>Node5</title>
<g id="a_node5"><a xlink:href="tamtypes_8h.html" target="_top" xlink:title=" ">
<polygon fill="white" stroke="#666666" points="133.5,-19 69.5,-19 69.5,0 133.5,0 133.5,-19"/>
<text text-anchor="middle" x="101.5" y="-7" font-family="Helvetica,sans-Serif" font-size="10.00">tamtypes.h</text>
</a>
</g>
</g>
<!-- Node3&#45;&gt;Node5 -->
<g id="edge4" class="edge">
<title>Node3&#45;&gt;Node5</title>
<path fill="none" stroke="#63b8ff" d="M69.77,-54.75C74.86,-47.66 82.2,-37.42 88.53,-28.59"/>
<polygon fill="#63b8ff" stroke="#63b8ff" points="91.22,-30.84 94.21,-20.67 85.54,-26.76 91.22,-30.84"/>
</g>
</g>
</svg>
