<?xml version="1.0" encoding="UTF-8" standalone="no"?>
<!DOCTYPE svg PUBLIC "-//W3C//DTD SVG 1.1//EN"
 "http://www.w3.org/Graphics/SVG/1.1/DTD/svg11.dtd">
<!-- Generated by graphviz version 7.0.5 (20221223.1930)
 -->
<!-- Title: iop/sound/libsd/src/voice.c Pages: 1 -->
<svg width="317pt" height="258pt"
 viewBox="0.00 0.00 316.50 258.00" xmlns="http://www.w3.org/2000/svg" xmlns:xlink="http://www.w3.org/1999/xlink">
<g id="graph0" class="graph" transform="scale(1 1) rotate(0) translate(4 254)">
<title>iop/sound/libsd/src/voice.c</title>
<!-- Node1 -->
<g id="node1" class="node">
<title>Node1</title>
<g id="a_node1"><a xlink:title=" ">
<polygon fill="#999999" stroke="#666666" points="179.5,-250 81.5,-250 81.5,-220 179.5,-220 179.5,-250"/>
<text text-anchor="start" x="89.5" y="-238" font-family="Helvetica,sans-Serif" font-size="10.00">iop/sound/libsd/src</text>
<text text-anchor="middle" x="130.5" y="-227" font-family="Helvetica,sans-Serif" font-size="10.00">/voice.c</text>
</a>
</g>
</g>
<!-- Node2 -->
<g id="node2" class="node">
<title>Node2</title>
<g id="a_node2"><a xlink:title=" ">
<polygon fill="#e0e0e0" stroke="#999999" points="47,-184 0,-184 0,-165 47,-165 47,-184"/>
<text text-anchor="middle" x="23.5" y="-172" font-family="Helvetica,sans-Serif" font-size="10.00">types.h</text>
</a>
</g>
</g>
<!-- Node1&#45;&gt;Node2 -->
<g id="edge1" class="edge">
<title>Node1&#45;&gt;Node2</title>
<path fill="none" stroke="#63b8ff" d="M104.05,-219.54C87.5,-210.49 66.26,-198.88 49.75,-189.85"/>
<polygon fill="#63b8ff" stroke="#63b8ff" points="51.46,-186.8 41.01,-185.07 48.1,-192.94 51.46,-186.8"/>
</g>
<!-- Node3 -->
<g id="node3" class="node">
<title>Node3</title>
<g id="a_node3"><a xlink:href="irx_8h.html" target="_top" xlink:title=" ">
<polygon fill="white" stroke="#666666" points="102.5,-129 68.5,-129 68.5,-110 102.5,-110 102.5,-129"/>
<text text-anchor="middle" x="85.5" y="-117" font-family="Helvetica,sans-Serif" font-size="10.00">irx.h</text>
</a>
</g>
</g>
<!-- Node1&#45;&gt;Node3 -->
<g id="edge2" class="edge">
<title>Node1&#45;&gt;Node3</title>
<path fill="none" stroke="#63b8ff" d="M117.85,-219.73C110.15,-210.25 100.81,-197.17 95.5,-184 89.93,-170.18 87.45,-153.51 86.35,-140.71"/>
<polygon fill="#63b8ff" stroke="#63b8ff" points="89.86,-140.74 85.74,-130.97 82.87,-141.17 89.86,-140.74"/>
</g>
<!-- Node7 -->
<g id="node7" class="node">
<title>Node7</title>
<g id="a_node7"><a xlink:href="sifman_8h.html" target="_top" xlink:title=" ">
<polygon fill="white" stroke="#666666" points="157,-184 104,-184 104,-165 157,-165 157,-184"/>
<text text-anchor="middle" x="130.5" y="-172" font-family="Helvetica,sans-Serif" font-size="10.00">sifman.h</text>
</a>
</g>
</g>
<!-- Node1&#45;&gt;Node7 -->
<g id="edge6" class="edge">
<title>Node1&#45;&gt;Node7</title>
<path fill="none" stroke="#63b8ff" d="M130.5,-219.54C130.5,-212.34 130.5,-203.53 130.5,-195.68"/>
<polygon fill="#63b8ff" stroke="#63b8ff" points="134,-195.69 130.5,-185.69 127,-195.69 134,-195.69"/>
</g>
<!-- Node8 -->
<g id="node8" class="node">
<title>Node8</title>
<g id="a_node8"><a xlink:title=" ">
<polygon fill="#e0e0e0" stroke="#999999" points="226,-184 175,-184 175,-165 226,-165 226,-184"/>
<text text-anchor="middle" x="200.5" y="-172" font-family="Helvetica,sans-Serif" font-size="10.00">freesd.h</text>
</a>
</g>
</g>
<!-- Node1&#45;&gt;Node8 -->
<g id="edge9" class="edge">
<title>Node1&#45;&gt;Node8</title>
<path fill="none" stroke="#63b8ff" d="M147.8,-219.54C157.97,-211.04 170.84,-200.29 181.32,-191.53"/>
<polygon fill="#63b8ff" stroke="#63b8ff" points="183.53,-194.24 188.96,-185.15 179.04,-188.87 183.53,-194.24"/>
</g>
<!-- Node9 -->
<g id="node9" class="node">
<title>Node9</title>
<g id="a_node9"><a xlink:href="spu2regs_8h.html" target="_top" xlink:title=" ">
<polygon fill="white" stroke="#666666" points="308.5,-184 244.5,-184 244.5,-165 308.5,-165 308.5,-184"/>
<text text-anchor="middle" x="276.5" y="-172" font-family="Helvetica,sans-Serif" font-size="10.00">spu2regs.h</text>
</a>
</g>
</g>
<!-- Node1&#45;&gt;Node9 -->
<g id="edge10" class="edge">
<title>Node1&#45;&gt;Node9</title>
<path fill="none" stroke="#63b8ff" d="M166.59,-219.54C190.25,-210.06 220.92,-197.77 243.85,-188.58"/>
<polygon fill="#63b8ff" stroke="#63b8ff" points="245.04,-191.88 253.02,-184.91 242.43,-185.38 245.04,-191.88"/>
</g>
<!-- Node4 -->
<g id="node4" class="node">
<title>Node4</title>
<g id="a_node4"><a xlink:href="iop_2kernel_2include_2types_8h_source.html" target="_top" xlink:title=" ">
<polygon fill="white" stroke="#666666" points="131,-74 84,-74 84,-55 131,-55 131,-74"/>
<text text-anchor="middle" x="107.5" y="-62" font-family="Helvetica,sans-Serif" font-size="10.00">types.h</text>
</a>
</g>
</g>
<!-- Node3&#45;&gt;Node4 -->
<g id="edge3" class="edge">
<title>Node3&#45;&gt;Node4</title>
<path fill="none" stroke="#63b8ff" d="M89.13,-109.75C91.92,-103.04 95.87,-93.52 99.4,-85.02"/>
<polygon fill="#63b8ff" stroke="#63b8ff" points="102.61,-86.42 103.21,-75.84 96.14,-83.73 102.61,-86.42"/>
</g>
<!-- Node5 -->
<g id="node5" class="node">
<title>Node5</title>
<g id="a_node5"><a xlink:title=" ">
<polygon fill="#e0e0e0" stroke="#999999" points="95,-19 44,-19 44,0 95,0 95,-19"/>
<text text-anchor="middle" x="69.5" y="-7" font-family="Helvetica,sans-Serif" font-size="10.00">stddef.h</text>
</a>
</g>
</g>
<!-- Node4&#45;&gt;Node5 -->
<g id="edge4" class="edge">
<title>Node4&#45;&gt;Node5</title>
<path fill="none" stroke="#63b8ff" d="M101.23,-54.75C96.14,-47.66 88.8,-37.42 82.47,-28.59"/>
<polygon fill="#63b8ff" stroke="#63b8ff" points="85.46,-26.76 76.79,-20.67 79.78,-30.84 85.46,-26.76"/>
</g>
<!-- Node6 -->
<g id="node6" class="node">
<title>Node6</title>
<g id="a_node6"><a xlink:href="tamtypes_8h.html" target="_top" xlink:title=" ">
<polygon fill="white" stroke="#666666" points="177.5,-19 113.5,-19 113.5,0 177.5,0 177.5,-19"/>
<text text-anchor="middle" x="145.5" y="-7" font-family="Helvetica,sans-Serif" font-size="10.00">tamtypes.h</text>
</a>
</g>
</g>
<!-- Node4&#45;&gt;Node6 -->
<g id="edge5" class="edge">
<title>Node4&#45;&gt;Node6</title>
<path fill="none" stroke="#63b8ff" d="M113.77,-54.75C118.86,-47.66 126.2,-37.42 132.53,-28.59"/>
<polygon fill="#63b8ff" stroke="#63b8ff" points="135.22,-30.84 138.21,-20.67 129.54,-26.76 135.22,-30.84"/>
</g>
<!-- Node7&#45;&gt;Node3 -->
<g id="edge8" class="edge">
<title>Node7&#45;&gt;Node3</title>
<path fill="none" stroke="#63b8ff" d="M123.07,-164.75C116.92,-157.5 107.99,-146.98 100.37,-138.02"/>
<polygon fill="#63b8ff" stroke="#63b8ff" points="103.21,-135.95 94.07,-130.6 97.88,-140.48 103.21,-135.95"/>
</g>
<!-- Node7&#45;&gt;Node4 -->
<g id="edge7" class="edge">
<title>Node7&#45;&gt;Node4</title>
<path fill="none" stroke="#63b8ff" d="M128.62,-164.66C124.96,-147.5 116.82,-109.26 111.78,-85.6"/>
<polygon fill="#63b8ff" stroke="#63b8ff" points="115.23,-84.99 109.72,-75.94 108.38,-86.45 115.23,-84.99"/>
</g>
</g>
</svg>
