<?xml version="1.0" encoding="UTF-8" standalone="no"?>
<!DOCTYPE svg PUBLIC "-//W3C//DTD SVG 1.1//EN"
 "http://www.w3.org/Graphics/SVG/1.1/DTD/svg11.dtd">
<!-- Generated by graphviz version 7.0.5 (20221223.1930)
 -->
<!-- Title: iop/kernel/include/xsio2man.h Pages: 1 -->
<svg width="161pt" height="258pt"
 viewBox="0.00 0.00 160.50 258.00" xmlns="http://www.w3.org/2000/svg" xmlns:xlink="http://www.w3.org/1999/xlink">
<g id="graph0" class="graph" transform="scale(1 1) rotate(0) translate(4 254)">
<title>iop/kernel/include/xsio2man.h</title>
<!-- Node1 -->
<g id="node1" class="node">
<title>Node1</title>
<g id="a_node1"><a xlink:title=" ">
<polygon fill="#999999" stroke="#666666" points="98.5,-250 6.5,-250 6.5,-220 98.5,-220 98.5,-250"/>
<text text-anchor="start" x="14.5" y="-238" font-family="Helvetica,sans-Serif" font-size="10.00">iop/kernel/include</text>
<text text-anchor="middle" x="52.5" y="-227" font-family="Helvetica,sans-Serif" font-size="10.00">/xsio2man.h</text>
</a>
</g>
</g>
<!-- Node2 -->
<g id="node2" class="node">
<title>Node2</title>
<g id="a_node2"><a xlink:href="sio2man_8h.html" target="_top" xlink:title=" ">
<polygon fill="white" stroke="#666666" points="83,-184 22,-184 22,-165 83,-165 83,-184"/>
<text text-anchor="middle" x="52.5" y="-172" font-family="Helvetica,sans-Serif" font-size="10.00">sio2man.h</text>
</a>
</g>
</g>
<!-- Node1&#45;&gt;Node2 -->
<g id="edge1" class="edge">
<title>Node1&#45;&gt;Node2</title>
<path fill="none" stroke="#63b8ff" d="M52.5,-219.54C52.5,-212.34 52.5,-203.53 52.5,-195.68"/>
<polygon fill="#63b8ff" stroke="#63b8ff" points="56,-195.69 52.5,-185.69 49,-195.69 56,-195.69"/>
</g>
<!-- Node3 -->
<g id="node3" class="node">
<title>Node3</title>
<g id="a_node3"><a xlink:title=" ">
<polygon fill="#e0e0e0" stroke="#999999" points="47,-129 0,-129 0,-110 47,-110 47,-129"/>
<text text-anchor="middle" x="23.5" y="-117" font-family="Helvetica,sans-Serif" font-size="10.00">types.h</text>
</a>
</g>
</g>
<!-- Node2&#45;&gt;Node3 -->
<g id="edge2" class="edge">
<title>Node2&#45;&gt;Node3</title>
<path fill="none" stroke="#63b8ff" d="M47.71,-164.75C43.96,-157.88 38.59,-148.08 33.87,-139.45"/>
<polygon fill="#63b8ff" stroke="#63b8ff" points="36.99,-137.86 29.12,-130.77 30.85,-141.22 36.99,-137.86"/>
</g>
<!-- Node4 -->
<g id="node4" class="node">
<title>Node4</title>
<g id="a_node4"><a xlink:href="irx_8h.html" target="_top" xlink:title=" ">
<polygon fill="white" stroke="#666666" points="99.5,-129 65.5,-129 65.5,-110 99.5,-110 99.5,-129"/>
<text text-anchor="middle" x="82.5" y="-117" font-family="Helvetica,sans-Serif" font-size="10.00">irx.h</text>
</a>
</g>
</g>
<!-- Node2&#45;&gt;Node4 -->
<g id="edge3" class="edge">
<title>Node2&#45;&gt;Node4</title>
<path fill="none" stroke="#63b8ff" d="M57.45,-164.75C61.34,-157.88 66.89,-148.08 71.78,-139.45"/>
<polygon fill="#63b8ff" stroke="#63b8ff" points="74.81,-141.19 76.69,-130.76 68.72,-137.74 74.81,-141.19"/>
</g>
<!-- Node5 -->
<g id="node5" class="node">
<title>Node5</title>
<g id="a_node5"><a xlink:href="iop_2kernel_2include_2types_8h_source.html" target="_top" xlink:title=" ">
<polygon fill="white" stroke="#666666" points="106,-74 59,-74 59,-55 106,-55 106,-74"/>
<text text-anchor="middle" x="82.5" y="-62" font-family="Helvetica,sans-Serif" font-size="10.00">types.h</text>
</a>
</g>
</g>
<!-- Node4&#45;&gt;Node5 -->
<g id="edge4" class="edge">
<title>Node4&#45;&gt;Node5</title>
<path fill="none" stroke="#63b8ff" d="M82.5,-109.75C82.5,-103.27 82.5,-94.16 82.5,-85.9"/>
<polygon fill="#63b8ff" stroke="#63b8ff" points="86,-85.96 82.5,-75.96 79,-85.96 86,-85.96"/>
</g>
<!-- Node6 -->
<g id="node6" class="node">
<title>Node6</title>
<g id="a_node6"><a xlink:title=" ">
<polygon fill="#e0e0e0" stroke="#999999" points="70,-19 19,-19 19,0 70,0 70,-19"/>
<text text-anchor="middle" x="44.5" y="-7" font-family="Helvetica,sans-Serif" font-size="10.00">stddef.h</text>
</a>
</g>
</g>
<!-- Node5&#45;&gt;Node6 -->
<g id="edge5" class="edge">
<title>Node5&#45;&gt;Node6</title>
<path fill="none" stroke="#63b8ff" d="M76.23,-54.75C71.14,-47.66 63.8,-37.42 57.47,-28.59"/>
<polygon fill="#63b8ff" stroke="#63b8ff" points="60.46,-26.76 51.79,-20.67 54.78,-30.84 60.46,-26.76"/>
</g>
<!-- Node7 -->
<g id="node7" class="node">
<title>Node7</title>
<g id="a_node7"><a xlink:href="tamtypes_8h.html" target="_top" xlink:title=" ">
<polygon fill="white" stroke="#666666" points="152.5,-19 88.5,-19 88.5,0 152.5,0 152.5,-19"/>
<text text-anchor="middle" x="120.5" y="-7" font-family="Helvetica,sans-Serif" font-size="10.00">tamtypes.h</text>
</a>
</g>
</g>
<!-- Node5&#45;&gt;Node7 -->
<g id="edge6" class="edge">
<title>Node5&#45;&gt;Node7</title>
<path fill="none" stroke="#63b8ff" d="M88.77,-54.75C93.86,-47.66 101.2,-37.42 107.53,-28.59"/>
<polygon fill="#63b8ff" stroke="#63b8ff" points="110.22,-30.84 113.21,-20.67 104.54,-26.76 110.22,-30.84"/>
</g>
</g>
</svg>
